<svg width="220" height="284" viewBox="0 0 220 284" fill="none" xmlns="http://www.w3.org/2000/svg">
<path d="M2.56277 50.728C1.83877 51.004 1.05877 51.168 0.23877 51.188V51.132C0.34677 51.132 0.446777 51.128 0.558777 51.124C0.670777 51.12 0.790775 51.108 0.906775 51.096C1.48277 51.04 2.03477 50.908 2.56277 50.728Z" fill="#F9F8F4"/>
<path d="M7.24678 131.34C7.23478 135.244 4.12277 138.408 0.23877 138.516V138.444C4.09477 138.332 7.20278 135.204 7.24678 131.34Z" fill="#F9F8F4"/>
<path d="M7.17485 110.396C7.14685 110.612 7.11086 110.828 7.06686 111.04C7.04286 111.144 7.01886 111.252 6.99086 111.356C6.96286 111.46 6.93486 111.564 6.90286 111.668C6.87086 111.768 6.83485 111.872 6.79885 111.972C6.76285 112.072 6.72286 112.172 6.68286 112.272C6.60286 112.468 6.51086 112.664 6.41486 112.848C6.06686 113.5 5.61886 114.096 5.09486 114.604C3.83886 115.848 2.11886 116.628 0.234863 116.68V116.604C0.758863 116.596 1.26686 116.52 1.75886 116.4C2.65886 116.18 3.49086 115.796 4.22686 115.268C5.79886 114.144 6.89885 112.4 7.17485 110.396Z" fill="#F9F8F4"/>
<path d="M7.18278 66.708C7.17878 66.772 7.17078 66.836 7.15878 66.9C7.14678 66.98 7.13477 67.06 7.12277 67.136C7.11077 67.196 7.09877 67.256 7.08677 67.312C7.07477 67.38 7.05877 67.444 7.04277 67.508C7.02677 67.58 7.00678 67.652 6.98278 67.724C6.98278 67.732 6.97877 67.736 6.97877 67.744C6.97077 67.776 6.96277 67.812 6.95077 67.844C6.93077 67.932 6.90278 68.02 6.87078 68.104C6.86278 68.132 6.85477 68.16 6.84277 68.188C6.80677 68.296 6.76677 68.404 6.72277 68.508C6.70277 68.56 6.68278 68.612 6.65878 68.664C6.63478 68.716 6.61077 68.764 6.59077 68.816C6.58677 68.824 6.58678 68.828 6.58278 68.836C6.54278 68.924 6.50278 69.008 6.45878 69.092C6.41878 69.172 6.37878 69.248 6.33478 69.324C6.33078 69.332 6.32677 69.336 6.32277 69.344C6.27877 69.428 6.23078 69.504 6.18278 69.58C6.17878 69.588 6.17478 69.592 6.17078 69.6C6.12678 69.676 6.07877 69.748 6.03077 69.82C5.94277 69.956 5.85077 70.084 5.75077 70.208C5.69877 70.28 5.64278 70.352 5.58278 70.42C5.54278 70.472 5.49877 70.524 5.45077 70.572C5.41477 70.616 5.37877 70.656 5.33877 70.696C5.33477 70.7 5.33077 70.708 5.32277 70.712C5.31477 70.72 5.31077 70.728 5.30277 70.736C5.24277 70.804 5.17877 70.868 5.11477 70.928C5.02277 71.02 4.93078 71.108 4.83478 71.192C4.64278 71.364 4.44277 71.528 4.23077 71.676C3.49477 72.2 2.66277 72.592 1.76277 72.808C1.27077 72.928 0.76277 73 0.23877 73.016V72.944C1.05477 72.92 1.82277 72.764 2.55477 72.496C5.00677 71.588 6.82678 69.38 7.18278 66.708Z" fill="#F9F8F4"/>
<path d="M7.21085 175.62C7.07485 177.22 6.41886 178.668 5.40286 179.792C4.16286 181.168 2.40286 182.064 0.434863 182.168C0.366863 182.172 0.302863 182.176 0.234863 182.176V182.104C3.89086 182.008 6.85485 179.2 7.21085 175.62Z" fill="#F9F8F4"/>
<path d="M7.24678 218.644C7.24678 219.148 7.19478 219.644 7.09478 220.12C6.43078 223.328 3.62277 225.748 0.23877 225.844V225.768C0.30677 225.768 0.37077 225.768 0.43877 225.768C2.40677 225.656 4.16677 224.76 5.40677 223.384C6.53877 222.128 7.22678 220.472 7.24678 218.648V218.644Z" fill="#F9F8F4"/>
<path d="M7.21486 197.42C6.91486 201.048 3.92286 203.904 0.234863 204.008V203.94C3.66686 203.844 6.50286 201.356 7.11886 198.08C7.16286 197.868 7.19486 197.644 7.21486 197.42Z" fill="#F9F8F4"/>
<path d="M7.23478 153.524C7.22278 153.852 7.18677 154.176 7.12277 154.492C6.50677 157.768 3.67077 160.248 0.23877 160.344V160.272C2.12277 160.22 3.84277 159.444 5.09877 158.196C5.62277 157.692 6.07077 157.096 6.41877 156.444C6.88277 155.556 7.16678 154.572 7.23478 153.524Z" fill="#F9F8F4"/>
<path d="M6.77886 90.136C6.48686 90.928 6.07086 91.66 5.53486 92.292C5.47486 92.372 5.40685 92.444 5.33885 92.52C5.27085 92.596 5.20286 92.668 5.13086 92.736C5.05886 92.808 4.98686 92.876 4.91486 92.944C4.84686 93.012 4.77486 93.072 4.70286 93.132C4.69486 93.144 4.68286 93.152 4.67086 93.16C4.60686 93.216 4.53886 93.272 4.46686 93.328C4.46686 93.332 4.45886 93.336 4.45486 93.336C4.37886 93.4 4.29486 93.46 4.21486 93.516C4.13086 93.58 4.04285 93.64 3.95085 93.696C3.86285 93.752 3.77086 93.808 3.67886 93.864C3.58686 93.92 3.49485 93.968 3.39885 94.02C3.30685 94.068 3.21085 94.12 3.11085 94.164C3.01485 94.208 2.91486 94.252 2.81486 94.296C2.71486 94.34 2.61485 94.376 2.51085 94.416C2.41085 94.448 2.30686 94.488 2.20286 94.52C2.09886 94.548 1.99485 94.58 1.88685 94.608C1.67485 94.668 1.46286 94.716 1.24286 94.748C1.07886 94.776 0.910859 94.8 0.742859 94.82C0.574859 94.832 0.406863 94.844 0.234863 94.848V94.776C3.11886 94.696 5.57486 92.932 6.65486 90.432C6.69886 90.336 6.73886 90.236 6.77886 90.136Z" fill="#F9F8F4"/>
<path d="M6.95496 89.6318C6.90696 89.8038 6.84696 89.9718 6.78296 90.1358C6.84296 89.9678 6.90696 89.8038 6.95496 89.6318Z" fill="#F9F8F4"/>
<path d="M7.14701 88.7639C7.14701 88.7879 7.13901 88.8119 7.13501 88.8319C7.16301 88.6759 7.19101 88.5199 7.20701 88.3599C7.19101 88.4959 7.17101 88.6319 7.14701 88.7639Z" fill="#F9F8F4"/>
<path d="M7.13094 88.832C7.09094 89.08 7.03495 89.324 6.97095 89.56C7.03895 89.32 7.09094 89.076 7.13094 88.832Z" fill="#F9F8F4"/>
<path d="M219.319 51.0759V51.1919C219.047 51.1919 218.783 51.1679 218.519 51.1319C218.611 51.1319 218.699 51.1279 218.795 51.1239C218.895 51.1199 218.995 51.1079 219.095 51.0999H219.103C219.103 51.0999 219.143 51.0999 219.159 51.0959H219.215C219.215 51.0959 219.243 51.0919 219.267 51.0879C219.287 51.0879 219.303 51.0799 219.319 51.0759Z" fill="#F9F8F4"/>
<path d="M219.319 72.944V73.02C218.187 73 217.115 72.72 216.167 72.24C216.023 72.164 215.879 72.088 215.739 72.004C215.651 71.952 215.567 71.896 215.483 71.84C215.411 71.792 215.339 71.744 215.267 71.692C215.151 71.616 215.043 71.532 214.935 71.444C214.819 71.352 214.703 71.252 214.591 71.152C214.571 71.132 214.547 71.112 214.527 71.092C214.519 71.092 214.515 71.08 214.507 71.072C214.499 71.064 214.487 71.056 214.479 71.044C214.411 70.984 214.343 70.916 214.275 70.848C214.227 70.8 214.179 70.748 214.131 70.696C214.123 70.684 214.111 70.676 214.103 70.664C214.031 70.588 213.959 70.508 213.891 70.424C213.787 70.3 213.687 70.168 213.591 70.036C213.507 69.924 213.431 69.808 213.355 69.692C213.299 69.604 213.243 69.516 213.187 69.424C213.183 69.412 213.175 69.4 213.167 69.388C213.107 69.28 213.047 69.172 212.991 69.06C212.991 69.06 212.99 69.0573 212.987 69.052C212.951 68.98 212.919 68.912 212.887 68.844C212.839 68.744 212.795 68.644 212.755 68.54C212.723 68.464 212.691 68.388 212.663 68.308C212.635 68.232 212.607 68.152 212.583 68.076C212.555 67.992 212.531 67.908 212.503 67.82C212.483 67.748 212.463 67.672 212.443 67.596C212.415 67.492 212.391 67.384 212.371 67.28C212.351 67.176 212.327 67.068 212.311 66.96C212.295 66.88 212.287 66.8 212.275 66.72C212.263 66.636 212.255 66.552 212.251 66.468C212.239 66.38 212.235 66.292 212.231 66.204C212.223 66.124 212.223 66.044 212.223 65.96C212.227 66.004 212.231 66.052 212.231 66.096C212.259 66.72 212.367 67.324 212.543 67.896C213.451 70.792 216.139 72.9 219.319 72.944Z" fill="#F9F8F4"/>
<path d="M212.227 87.772C212.227 87.9 212.239 88.028 212.247 88.156C212.235 88.028 212.231 87.9 212.227 87.772Z" fill="#F9F8F4"/>
<path d="M219.319 94.7799V94.8519C219.083 94.8479 218.851 94.8319 218.623 94.8079C218.611 94.8079 218.599 94.8039 218.583 94.8039C218.367 94.7799 218.155 94.7439 217.947 94.6999C217.435 94.5959 216.943 94.4319 216.475 94.2199C216.395 94.1879 216.315 94.1479 216.239 94.1079C216.147 94.0679 216.055 94.0199 215.967 93.9679C215.883 93.9239 215.799 93.8759 215.719 93.8239C215.643 93.7799 215.571 93.7319 215.495 93.6879C215.419 93.6399 215.343 93.5879 215.267 93.5319C215.235 93.5079 215.199 93.4879 215.167 93.4559C215.095 93.4079 215.027 93.3559 214.963 93.2999C214.875 93.2319 214.791 93.1679 214.711 93.0959L214.459 92.8679C214.383 92.7959 214.307 92.7199 214.235 92.6439C214.159 92.5679 214.087 92.4799 214.015 92.3999C213.943 92.3199 213.871 92.2319 213.803 92.1479C213.735 92.0679 213.671 91.9759 213.603 91.8919C213.507 91.7559 213.415 91.6199 213.327 91.4799C213.151 91.1999 212.995 90.9079 212.859 90.6079C212.807 90.4879 212.755 90.3679 212.711 90.2439C212.699 90.2199 212.691 90.1919 212.683 90.1679C212.683 90.1679 212.675 90.1559 212.675 90.1519C212.675 90.1439 212.667 90.1319 212.663 90.1239C212.639 90.0519 212.611 89.9799 212.587 89.9079C212.551 89.7999 212.515 89.6919 212.487 89.5799C212.455 89.4679 212.431 89.3559 212.403 89.2439C212.355 89.0159 212.315 88.7879 212.287 88.5559C212.411 89.4759 212.711 90.3359 213.151 91.1199C213.443 91.6399 213.795 92.1199 214.211 92.5439C215.491 93.8959 217.307 94.7519 219.319 94.7799Z" fill="#F9F8F4"/>
<path d="M219.319 116.608V116.688C216.611 116.644 214.267 115.116 213.067 112.872C212.787 112.34 212.563 111.768 212.419 111.168C212.343 110.844 212.287 110.52 212.259 110.192C212.527 112.656 214.047 114.752 216.167 115.828C217.115 116.316 218.187 116.596 219.319 116.608Z" fill="#F9F8F4"/>
<path d="M219.319 138.444V138.52C217.519 138.496 215.883 137.808 214.635 136.696H214.631C213.227 135.432 212.315 133.644 212.227 131.628C212.427 135.396 215.519 138.388 219.319 138.444Z" fill="#F9F8F4"/>
<path d="M219.319 160.276V160.348C219.131 160.344 218.943 160.336 218.755 160.32C218.735 160.32 218.715 160.32 218.695 160.312C218.611 160.304 218.531 160.296 218.447 160.284C218.431 160.28 218.415 160.28 218.395 160.276C218.307 160.264 218.223 160.248 218.135 160.232C218.039 160.216 217.943 160.196 217.847 160.176C217.751 160.156 217.659 160.132 217.567 160.108C217.471 160.084 217.379 160.056 217.287 160.028C217.195 160 217.103 159.968 217.015 159.936C216.927 159.904 216.835 159.872 216.751 159.836C216.747 159.836 216.743 159.836 216.739 159.832C216.651 159.796 216.567 159.76 216.483 159.724C216.311 159.648 216.139 159.564 215.975 159.472C215.903 159.436 215.839 159.396 215.771 159.356C215.719 159.328 215.667 159.296 215.615 159.264C215.531 159.208 215.443 159.156 215.363 159.096C215.015 158.86 214.691 158.596 214.391 158.3C214.323 158.236 214.259 158.168 214.195 158.1C214.127 158.032 214.067 157.964 214.003 157.892C213.943 157.82 213.883 157.748 213.823 157.676C213.583 157.384 213.367 157.072 213.183 156.744C213.135 156.664 213.091 156.58 213.047 156.496C212.959 156.332 212.875 156.16 212.803 155.984C212.687 155.724 212.587 155.452 212.511 155.172C212.439 154.932 212.379 154.684 212.335 154.432C212.311 154.3 212.291 154.172 212.275 154.036C212.259 153.916 212.247 153.792 212.239 153.668C212.231 153.596 212.227 153.524 212.227 153.452C212.223 153.348 212.219 153.248 212.219 153.144C212.227 153.696 212.295 154.24 212.419 154.756C212.443 154.86 212.471 154.968 212.507 155.068C212.643 155.56 212.835 156.024 213.067 156.468C214.267 158.704 216.611 160.24 219.319 160.276Z" fill="#F9F8F4"/>
<path d="M219.319 182.108V182.18C219.079 182.176 218.843 182.16 218.607 182.132C218.539 182.128 218.467 182.116 218.399 182.104C218.299 182.092 218.203 182.076 218.107 182.056C218.023 182.044 217.943 182.028 217.863 182.008C217.807 181.996 217.747 181.984 217.691 181.968C217.419 181.9 217.155 181.82 216.895 181.72C216.811 181.688 216.727 181.656 216.647 181.62C216.631 181.62 216.615 181.612 216.603 181.604C216.511 181.564 216.423 181.524 216.335 181.48C216.083 181.364 215.835 181.228 215.603 181.08C215.495 181.012 215.387 180.944 215.283 180.868C215.219 180.824 215.155 180.78 215.095 180.732C215.027 180.68 214.959 180.628 214.895 180.58C214.615 180.348 214.351 180.1 214.111 179.836C214.035 179.752 213.959 179.668 213.887 179.58C213.787 179.456 213.691 179.332 213.595 179.204C213.595 179.2 213.591 179.196 213.587 179.192C213.499 179.068 213.411 178.94 213.327 178.808C213.319 178.796 213.307 178.78 213.299 178.76C213.215 178.632 213.139 178.496 213.067 178.36C213.003 178.24 212.939 178.116 212.883 177.992C212.831 177.876 212.779 177.76 212.731 177.64C212.707 177.58 212.683 177.516 212.663 177.456C212.555 177.172 212.471 176.88 212.403 176.58C212.387 176.516 212.375 176.448 212.363 176.38C212.335 176.252 212.315 176.12 212.295 175.988C212.263 175.772 212.239 175.556 212.231 175.34C212.351 177.3 213.255 179.052 214.631 180.28V180.292C215.883 181.4 217.519 182.088 219.319 182.108Z" fill="#F9F8F4"/>
<path d="M219.319 203.944V204.016C218.467 204 217.643 203.844 216.887 203.552H216.871C216.379 203.364 215.907 203.12 215.467 202.824C215.379 202.76 215.291 202.7 215.203 202.64C214.919 202.436 214.651 202.212 214.403 201.972C214.311 201.88 214.219 201.788 214.135 201.696C213.995 201.544 213.859 201.388 213.731 201.224C213.643 201.108 213.555 200.988 213.471 200.864C213.387 200.74 213.303 200.612 213.227 200.48C213.195 200.428 213.163 200.372 213.131 200.316C213.075 200.212 213.019 200.108 212.963 200C212.959 199.988 212.951 199.976 212.947 199.964C212.871 199.812 212.803 199.656 212.739 199.496C212.443 198.748 212.259 197.944 212.227 197.104C212.419 200.88 215.515 203.888 219.319 203.944Z" fill="#F9F8F4"/>
<path d="M219.319 225.772V225.848C219.087 225.844 218.859 225.828 218.631 225.804C218.363 225.776 218.099 225.732 217.843 225.672C217.751 225.652 217.659 225.628 217.567 225.604C217.375 225.552 217.183 225.496 216.999 225.428C216.895 225.396 216.795 225.352 216.695 225.308C216.635 225.288 216.579 225.264 216.519 225.236C216.503 225.232 216.483 225.224 216.467 225.216C216.343 225.156 216.223 225.096 216.103 225.032C216.019 224.992 215.935 224.944 215.855 224.9C215.835 224.892 215.815 224.876 215.795 224.868C215.707 224.816 215.623 224.764 215.539 224.704C215.459 224.656 215.379 224.604 215.303 224.548C215.275 224.532 215.251 224.516 215.227 224.496C215.155 224.444 215.079 224.388 215.007 224.328C214.919 224.268 214.839 224.196 214.755 224.124C214.595 223.988 214.435 223.84 214.283 223.688C214.207 223.608 214.131 223.528 214.063 223.448C213.991 223.368 213.919 223.288 213.851 223.2C213.351 222.592 212.947 221.9 212.671 221.144C212.639 221.06 212.611 220.972 212.583 220.888C212.527 220.716 212.475 220.544 212.431 220.368C212.367 220.104 212.319 219.832 212.283 219.556C212.271 219.464 212.263 219.372 212.255 219.28C212.267 219.38 212.279 219.48 212.295 219.576C212.779 223.044 215.731 225.72 219.319 225.772Z" fill="#F9F8F4"/>
<path d="M212.219 22.152C212.219 22.272 212.227 22.392 212.231 22.504C212.259 23.124 212.367 23.732 212.543 24.3C213.451 27.196 216.139 29.308 219.319 29.352V36.776C215.391 36.84 212.219 40.04 212.219 43.988C212.219 45.268 212.559 46.476 213.151 47.524C213.443 48.044 213.795 48.524 214.211 48.948C215.319 50.12 216.831 50.92 218.519 51.132C218.783 51.168 219.047 51.188 219.319 51.192V58.544C219.087 58.544 218.859 58.556 218.635 58.58C218.619 58.588 218.603 58.588 218.587 58.592C218.355 58.616 218.131 58.652 217.907 58.7C217.599 58.768 217.295 58.852 217.003 58.956C216.919 58.992 216.835 59.02 216.755 59.052C216.731 59.064 216.707 59.072 216.683 59.08C216.607 59.116 216.531 59.144 216.455 59.18C216.379 59.216 216.303 59.248 216.231 59.288C216.167 59.32 216.107 59.348 216.047 59.38C215.871 59.476 215.699 59.576 215.531 59.688C215.447 59.74 215.367 59.792 215.291 59.844C215.203 59.904 215.115 59.968 215.031 60.04C214.943 60.1 214.863 60.168 214.779 60.244C214.699 60.304 214.619 60.376 214.539 60.452C214.459 60.524 214.383 60.6 214.307 60.676C214.155 60.828 214.011 60.988 213.875 61.152C212.875 62.352 212.263 63.88 212.223 65.552C212.219 65.644 212.219 65.728 212.219 65.82C212.219 65.868 212.219 65.916 212.223 65.96C212.223 66.044 212.223 66.124 212.231 66.204C212.235 66.292 212.239 66.38 212.251 66.468C212.255 66.552 212.263 66.636 212.275 66.72C212.287 66.8 212.295 66.88 212.311 66.96C212.327 67.068 212.351 67.176 212.371 67.28C212.391 67.384 212.415 67.492 212.443 67.596C212.463 67.672 212.483 67.748 212.503 67.82C212.531 67.908 212.555 67.992 212.583 68.076C212.607 68.152 212.635 68.232 212.663 68.308C212.691 68.388 212.723 68.464 212.755 68.54C212.795 68.644 212.839 68.744 212.887 68.844C212.919 68.912 212.951 68.98 212.987 69.048C212.987 69.048 212.991 69.056 212.991 69.06C213.047 69.172 213.107 69.28 213.167 69.388C213.175 69.4 213.183 69.412 213.187 69.424C213.243 69.516 213.299 69.604 213.355 69.692C213.431 69.808 213.507 69.924 213.591 70.036C213.687 70.168 213.787 70.3 213.891 70.424C213.959 70.508 214.031 70.588 214.103 70.664C214.111 70.676 214.123 70.684 214.131 70.696C214.179 70.748 214.227 70.8 214.275 70.848C214.343 70.916 214.411 70.984 214.479 71.044C214.487 71.056 214.499 71.064 214.507 71.072C214.515 71.08 214.519 71.088 214.527 71.092C214.547 71.112 214.571 71.132 214.591 71.152C214.703 71.252 214.819 71.352 214.935 71.444C215.043 71.532 215.151 71.616 215.267 71.692C215.339 71.744 215.411 71.792 215.483 71.84C215.567 71.896 215.651 71.952 215.739 72.004C215.879 72.088 216.023 72.168 216.167 72.24C217.115 72.72 218.187 73 219.319 73.02V80.368C219.083 80.372 218.851 80.392 218.623 80.416C218.507 80.424 218.391 80.444 218.279 80.464C218.187 80.472 218.095 80.492 218.007 80.508C217.875 80.54 217.743 80.568 217.611 80.6C217.503 80.628 217.395 80.656 217.287 80.696C217.179 80.724 217.075 80.764 216.971 80.8C216.867 80.84 216.763 80.876 216.659 80.92C216.555 80.964 216.455 81.008 216.355 81.056C216.255 81.1 216.155 81.152 216.059 81.204C215.959 81.256 215.863 81.308 215.767 81.368C215.687 81.416 215.615 81.456 215.539 81.508C215.415 81.592 215.295 81.672 215.175 81.764C215.099 81.816 215.027 81.868 214.955 81.928C214.783 82.064 214.619 82.204 214.459 82.364C213.079 83.668 212.219 85.52 212.219 87.576V87.648C212.219 88.2 212.279 88.732 212.403 89.244C212.427 89.36 212.455 89.468 212.487 89.58C212.515 89.692 212.551 89.8 212.587 89.908C212.607 89.984 212.631 90.052 212.663 90.124C212.663 90.132 212.671 90.144 212.675 90.152C212.675 90.156 212.679 90.164 212.683 90.168C212.691 90.192 212.699 90.22 212.711 90.244C212.751 90.368 212.807 90.488 212.859 90.608C212.991 90.908 213.147 91.2 213.327 91.48C213.411 91.62 213.507 91.756 213.603 91.892C213.663 91.976 213.731 92.068 213.803 92.148C213.867 92.24 213.935 92.32 214.015 92.4C214.079 92.488 214.155 92.568 214.235 92.644C214.307 92.72 214.383 92.796 214.459 92.868L214.711 93.096C214.791 93.168 214.875 93.24 214.963 93.3C215.027 93.356 215.095 93.408 215.167 93.456C215.199 93.488 215.235 93.508 215.267 93.532C215.343 93.588 215.419 93.64 215.495 93.688C215.567 93.74 215.643 93.78 215.719 93.824C215.799 93.876 215.883 93.924 215.967 93.968C216.055 94.02 216.147 94.068 216.239 94.108C216.315 94.148 216.395 94.188 216.475 94.22C216.943 94.432 217.435 94.596 217.947 94.7C218.155 94.744 218.367 94.78 218.583 94.804C218.599 94.804 218.611 94.808 218.623 94.808C218.851 94.832 219.083 94.848 219.319 94.852V102.204C216.775 102.244 214.543 103.6 213.291 105.624C212.663 106.648 212.275 107.84 212.227 109.116C212.223 109.216 212.219 109.308 212.219 109.408V109.48C212.219 109.564 212.219 109.64 212.227 109.716C212.227 109.872 212.239 110.032 212.259 110.192C212.287 110.52 212.343 110.844 212.419 111.168C212.563 111.768 212.787 112.34 213.067 112.872C214.267 115.116 216.611 116.644 219.319 116.688V124.032C216.007 124.092 213.235 126.368 212.443 129.448C212.331 129.908 212.255 130.392 212.231 130.88V130.92C212.223 131.028 212.219 131.132 212.219 131.244V131.316C212.219 131.42 212.223 131.524 212.227 131.628C212.315 133.644 213.227 135.432 214.631 136.692H214.635C215.883 137.808 217.519 138.496 219.319 138.52V145.868C215.807 145.92 212.895 148.488 212.327 151.856C212.271 152.16 212.239 152.464 212.227 152.776C212.223 152.876 212.219 152.972 212.219 153.072V153.144C212.219 153.248 212.223 153.348 212.227 153.452C212.227 153.524 212.231 153.596 212.239 153.668C212.247 153.792 212.259 153.916 212.275 154.036C212.291 154.172 212.311 154.3 212.335 154.432C212.379 154.684 212.439 154.932 212.511 155.172C212.587 155.452 212.687 155.724 212.803 155.984C212.875 156.16 212.959 156.332 213.047 156.496C213.091 156.58 213.135 156.664 213.183 156.744C213.367 157.072 213.583 157.384 213.823 157.676C213.883 157.748 213.943 157.82 214.003 157.892C214.067 157.964 214.127 158.032 214.195 158.1C214.259 158.168 214.323 158.236 214.391 158.3C214.691 158.596 215.015 158.86 215.363 159.096C215.443 159.156 215.531 159.208 215.615 159.264C215.667 159.296 215.719 159.328 215.771 159.356C215.839 159.396 215.903 159.436 215.975 159.472C216.139 159.564 216.311 159.648 216.483 159.724C216.567 159.76 216.651 159.796 216.739 159.832C216.743 159.836 216.747 159.836 216.751 159.836C216.835 159.872 216.927 159.904 217.015 159.936C217.103 159.968 217.195 160 217.287 160.028C217.379 160.056 217.471 160.084 217.567 160.108C217.659 160.132 217.751 160.156 217.847 160.176C217.943 160.196 218.039 160.216 218.135 160.232C218.223 160.248 218.307 160.264 218.395 160.276C218.415 160.28 218.431 160.28 218.447 160.284C218.531 160.296 218.611 160.304 218.695 160.312C218.715 160.316 218.735 160.316 218.755 160.32C218.943 160.336 219.131 160.344 219.319 160.348V167.696C219.227 167.696 219.135 167.7 219.039 167.716C217.507 167.792 216.111 168.348 214.983 169.24C214.367 169.724 213.831 170.304 213.399 170.964C212.715 172 212.295 173.224 212.231 174.544C212.223 174.672 212.219 174.804 212.219 174.944V174.976C212.219 175.096 212.223 175.22 212.231 175.34C212.239 175.556 212.263 175.772 212.295 175.988C212.315 176.12 212.335 176.252 212.363 176.38C212.375 176.448 212.387 176.516 212.403 176.58C212.471 176.88 212.555 177.172 212.663 177.456C212.683 177.516 212.707 177.58 212.731 177.64C212.779 177.76 212.831 177.876 212.883 177.992C212.939 178.116 213.003 178.24 213.067 178.36C213.139 178.496 213.215 178.632 213.299 178.76C213.307 178.78 213.319 178.796 213.327 178.808C213.407 178.94 213.495 179.068 213.587 179.192C213.591 179.196 213.595 179.2 213.595 179.204C213.687 179.332 213.783 179.46 213.887 179.58C213.959 179.668 214.035 179.752 214.111 179.836C214.351 180.1 214.615 180.348 214.895 180.58C214.959 180.628 215.027 180.68 215.095 180.732C215.155 180.78 215.219 180.824 215.283 180.868C215.387 180.944 215.495 181.012 215.603 181.08C215.835 181.228 216.083 181.364 216.335 181.48C216.423 181.524 216.511 181.564 216.603 181.604C216.615 181.612 216.631 181.616 216.647 181.62C216.727 181.656 216.811 181.688 216.895 181.72C217.155 181.82 217.419 181.9 217.691 181.968C217.747 181.984 217.807 181.996 217.863 182.008C217.943 182.028 218.023 182.044 218.107 182.056C218.203 182.076 218.299 182.092 218.399 182.104C218.467 182.116 218.539 182.128 218.607 182.132C218.843 182.16 219.079 182.176 219.319 182.18V189.532C217.487 189.56 215.819 190.272 214.563 191.432C214.115 191.836 213.723 192.3 213.391 192.808C213.063 193.3 212.803 193.84 212.611 194.408C212.407 194.992 212.283 195.6 212.239 196.24C212.235 196.24 212.235 196.252 212.239 196.256C212.231 196.344 212.227 196.428 212.223 196.516C212.223 196.616 212.219 196.716 212.219 196.816C212.219 196.908 212.223 197.008 212.227 197.104C212.259 197.944 212.443 198.748 212.739 199.496C212.803 199.656 212.871 199.812 212.947 199.964C212.951 199.976 212.959 199.988 212.963 200C213.019 200.108 213.075 200.212 213.131 200.316C213.163 200.372 213.195 200.428 213.227 200.48C213.303 200.612 213.387 200.74 213.471 200.864C213.555 200.988 213.643 201.108 213.731 201.224C213.859 201.388 213.995 201.544 214.135 201.696C214.219 201.788 214.311 201.88 214.403 201.972C214.651 202.212 214.919 202.436 215.203 202.64C215.291 202.7 215.379 202.76 215.467 202.82C215.907 203.12 216.379 203.364 216.871 203.548H216.887C217.643 203.844 218.467 204 219.319 204.016V211.368C218.023 211.388 216.811 211.748 215.767 212.368C213.871 213.484 212.531 215.452 212.267 217.744C212.247 217.924 212.231 218.116 212.227 218.304C212.223 218.368 212.223 218.432 212.219 218.5V218.644C212.219 218.7 212.219 218.768 212.223 218.824C212.223 218.9 212.227 218.98 212.235 219.056C212.239 219.132 212.243 219.208 212.255 219.28C212.259 219.372 212.267 219.464 212.283 219.556C212.315 219.832 212.363 220.104 212.431 220.368C212.471 220.544 212.523 220.716 212.583 220.888C212.607 220.976 212.639 221.06 212.671 221.144C212.947 221.9 213.351 222.592 213.851 223.2C213.915 223.288 213.987 223.368 214.063 223.448C214.131 223.528 214.207 223.608 214.283 223.688C214.435 223.844 214.591 223.992 214.755 224.124C214.839 224.196 214.919 224.268 215.007 224.328C215.079 224.392 215.151 224.444 215.227 224.496C215.251 224.516 215.275 224.532 215.303 224.548C215.379 224.604 215.459 224.656 215.539 224.704C215.623 224.768 215.707 224.82 215.795 224.868C215.815 224.876 215.835 224.892 215.855 224.9C215.935 224.948 216.019 224.996 216.103 225.032C216.223 225.096 216.343 225.156 216.467 225.216C216.483 225.224 216.503 225.232 216.519 225.236C216.579 225.264 216.635 225.288 216.695 225.308C216.795 225.352 216.895 225.396 216.999 225.428C217.183 225.496 217.375 225.552 217.567 225.604C217.659 225.628 217.751 225.652 217.843 225.672C218.099 225.732 218.363 225.776 218.631 225.804C218.859 225.828 219.087 225.844 219.319 225.848V233.196C219.211 233.196 219.091 233.204 218.983 233.216C218.599 233.24 218.227 233.292 217.863 233.372C217.575 233.436 217.295 233.516 217.023 233.616C216.771 233.7 216.531 233.804 216.295 233.92H216.291C213.887 235.092 212.223 237.548 212.223 240.404C212.223 241.348 212.411 242.252 212.743 243.088C213.295 244.456 214.247 245.616 215.471 246.416C215.911 246.708 216.383 246.952 216.875 247.144H216.891C217.199 247.26 217.519 247.36 217.847 247.432C218.323 247.54 218.819 247.6 219.323 247.604V255.028C218.983 255.036 218.647 255.064 218.319 255.116C216.943 255.328 215.695 255.928 214.695 256.804C214.247 257.196 213.855 257.632 213.523 258.12C212.707 259.28 212.223 260.704 212.223 262.232C212.223 266.144 215.335 269.316 219.215 269.44C219.223 269.56 219.231 269.68 219.235 269.796C219.263 270.232 219.291 270.668 219.319 271.096C219.319 271.108 219.319 271.116 219.323 271.128V276.992C219.323 276.992 219.307 276.992 219.295 276.992C219.215 276.98 219.131 276.972 219.047 276.968C218.987 276.96 218.923 276.956 218.863 276.952C218.743 276.948 218.619 276.944 218.495 276.944C218.387 276.944 218.271 276.944 218.167 276.944C217.983 276.952 217.799 276.968 217.623 276.992C214.931 277.32 212.695 279.124 211.763 281.58C211.543 282.156 211.395 282.772 211.331 283.416C211.311 283.6 211.295 283.796 211.295 283.992H203.867C203.791 280.308 200.955 277.308 197.347 276.968C197.235 276.956 197.115 276.948 196.995 276.944C196.887 276.944 196.771 276.944 196.663 276.944C196.475 276.944 196.295 276.944 196.115 276.96C196.035 276.972 195.947 276.972 195.871 276.984C193.371 277.256 191.259 278.804 190.195 280.968C189.923 281.52 189.723 282.108 189.599 282.728C189.523 283.144 189.471 283.56 189.463 283.996H182.035C181.955 280.4 179.255 277.452 175.771 277.004C175.659 276.992 175.547 276.976 175.431 276.972C175.275 276.952 175.123 276.948 174.967 276.948C174.923 276.948 174.871 276.948 174.831 276.948H174.795C174.695 276.948 174.599 276.948 174.499 276.948C174.295 276.96 174.095 276.98 173.891 277.004C173.823 277.02 173.755 277.024 173.687 277.036C171.647 277.36 169.899 278.532 168.819 280.18V280.192C168.475 280.7 168.207 281.244 168.007 281.828C167.779 282.508 167.647 283.236 167.631 283.996H160.195C160.123 280.192 157.099 277.12 153.323 276.948C153.219 276.948 153.107 276.948 152.995 276.948H152.963C150.883 276.956 149.011 277.852 147.695 279.272C147.295 279.708 146.947 280.204 146.659 280.728C146.123 281.704 145.819 282.816 145.795 284H138.367C138.295 280.54 135.791 277.684 132.499 277.076C132.287 277.028 132.071 277 131.847 276.976C131.735 276.964 131.615 276.956 131.495 276.952C131.387 276.952 131.275 276.952 131.167 276.952C131.059 276.952 130.947 276.952 130.839 276.952C130.747 276.956 130.667 276.96 130.583 276.972C130.487 276.972 130.391 276.984 130.295 277C130.115 277.016 129.939 277.052 129.763 277.084C129.667 277.104 129.571 277.128 129.479 277.148C129.411 277.16 129.347 277.18 129.279 277.2C128.435 277.428 127.651 277.804 126.963 278.3C126.487 278.64 126.055 279.04 125.675 279.484C124.635 280.708 123.999 282.28 123.963 284H116.535C116.459 280.356 113.691 277.384 110.143 276.996C110.047 276.98 109.955 276.976 109.863 276.964H109.847C109.771 276.956 109.695 276.952 109.623 276.952C109.523 276.952 109.431 276.952 109.335 276.952C109.219 276.952 109.099 276.952 108.991 276.952C108.871 276.956 108.763 276.964 108.647 276.976C108.423 277 108.195 277.028 107.983 277.072C107.543 277.152 107.123 277.276 106.715 277.436C106.171 277.652 105.667 277.924 105.195 278.252C103.387 279.528 102.183 281.624 102.131 284H94.6988C94.6228 280.316 91.7908 277.312 88.1868 276.976C88.0708 276.964 87.9548 276.956 87.8348 276.952C87.7228 276.952 87.6148 276.952 87.4988 276.952C87.4068 276.952 87.3148 276.952 87.2228 276.952C87.0708 276.952 86.9228 276.96 86.7788 276.98C86.6948 276.988 86.6228 277 86.5468 277.004C86.1108 277.06 85.6868 277.16 85.2828 277.296C82.4348 278.216 80.3668 280.856 80.2948 284H72.8708C72.8068 280.908 70.7988 278.304 68.0228 277.352C67.9348 277.316 67.8468 277.288 67.7548 277.26C67.7148 277.248 67.6708 277.232 67.6308 277.224C67.5588 277.204 67.4868 277.18 67.4148 277.164C67.0708 277.076 66.7228 277.012 66.3628 276.98C66.2948 276.976 66.2388 276.972 66.1708 276.964C66.0708 276.956 65.9628 276.952 65.8548 276.952H65.8388C65.7828 276.952 65.7228 276.952 65.6708 276.952H65.6348C65.5228 276.952 65.4148 276.952 65.2988 276.952C65.0708 276.964 64.8428 276.988 64.6148 277.024C64.6108 277.024 64.5988 277.024 64.5948 277.024C61.1708 277.528 58.5428 280.448 58.4668 283.996H51.0388C50.9908 281.76 49.9348 279.78 48.2988 278.492C47.7828 278.08 47.1988 277.744 46.5828 277.484C45.7628 277.148 44.8708 276.952 43.9228 276.948C43.8948 276.948 43.8668 276.948 43.8348 276.948C43.5868 276.948 43.3388 276.956 43.0948 276.98C42.9908 276.996 42.8908 277.004 42.7868 277.024C42.6868 277.032 42.5828 277.052 42.4828 277.072C42.3828 277.088 42.2828 277.108 42.1828 277.132C39.3148 277.808 37.1068 280.2 36.6988 283.164C36.6628 283.436 36.6388 283.716 36.6348 284H29.2068C29.1828 282.928 28.9308 281.912 28.4868 281.008C28.1588 280.336 27.7388 279.724 27.2308 279.192C27.1748 279.132 27.1188 279.072 27.0588 279.016C25.8388 277.816 24.1948 277.048 22.3708 276.952C22.2468 276.952 22.1308 276.952 22.0068 276.952C21.9068 276.952 21.8068 276.952 21.7068 276.952C21.5868 276.956 21.4708 276.964 21.3548 276.976C17.7228 277.3 14.8748 280.304 14.7988 284H7.37078C7.35478 283.096 7.17078 282.232 6.84678 281.44C6.51878 280.632 6.05077 279.896 5.46677 279.264C4.27077 277.964 2.60277 277.108 0.730774 276.964C0.666774 276.96 0.59877 276.956 0.53877 276.952C0.45877 276.952 0.382767 276.952 0.298767 276.952H0.23877V269.452C3.62277 269.356 6.43078 266.932 7.09478 263.728C7.19478 263.252 7.24678 262.756 7.24678 262.244C7.24678 262 7.23877 261.744 7.21077 261.504C6.84677 258.004 3.98677 255.256 0.43877 255.06C0.37077 255.056 0.30677 255.044 0.23877 255.044V247.612C4.13077 247.508 7.24678 244.332 7.24678 240.416C7.24678 239.492 7.08278 238.616 6.75878 237.808C6.55478 237.264 6.27478 236.756 5.94678 236.288C5.79478 236.068 5.63077 235.86 5.45477 235.66C5.44677 235.656 5.43878 235.644 5.43478 235.64C4.15878 234.2 2.30277 233.276 0.23877 233.212V225.856C3.62277 225.76 6.43078 223.34 7.09478 220.132C7.19478 219.656 7.24678 219.16 7.24678 218.656C7.24678 218.588 7.24677 218.52 7.24277 218.456C7.24277 218.38 7.23878 218.308 7.23478 218.232C7.23478 218.12 7.22677 218.012 7.21077 217.908C7.19877 217.8 7.18678 217.688 7.17078 217.58C6.88278 215.468 5.67877 213.656 3.96677 212.54C3.28277 212.1 2.51877 211.764 1.69877 211.576C1.23077 211.46 0.73877 211.4 0.23877 211.38V204.02C3.92677 203.916 6.91877 201.06 7.21877 197.432C7.23877 197.232 7.24678 197.032 7.24678 196.828V196.752C7.24678 196.584 7.24678 196.42 7.23478 196.264C6.99078 192.58 3.96677 189.656 0.23877 189.552V182.188C0.30677 182.188 0.37077 182.184 0.43877 182.18C2.40677 182.076 4.16677 181.18 5.40677 179.804C6.42277 178.68 7.07877 177.232 7.21477 175.632C7.22677 175.512 7.23477 175.4 7.23877 175.28C7.24677 175.184 7.24678 175.088 7.24678 174.988V174.916C7.24678 173.72 6.95877 172.592 6.44277 171.604C6.13877 171.012 5.74678 170.468 5.30678 169.992C4.03077 168.636 2.23877 167.776 0.23877 167.716V160.356C3.67077 160.26 6.50677 157.78 7.12277 154.504C7.18677 154.188 7.22278 153.864 7.23478 153.536C7.24278 153.408 7.24678 153.284 7.24678 153.156C7.24678 153.076 7.24677 152.992 7.24277 152.912C7.24277 152.832 7.23878 152.756 7.23478 152.676C7.02678 148.952 3.99477 145.988 0.23877 145.884V138.528C4.12277 138.42 7.23478 135.256 7.24678 131.352V131.328C7.24678 131.18 7.24278 131.032 7.23478 130.88C7.21478 130.428 7.15478 129.98 7.04678 129.556C6.29878 126.456 3.54677 124.14 0.23877 124.052V116.692C2.12277 116.64 3.84277 115.86 5.09877 114.616C5.62277 114.108 6.07077 113.512 6.41877 112.86C6.51477 112.676 6.60677 112.48 6.68677 112.284C6.73077 112.184 6.77077 112.084 6.80277 111.984C6.84277 111.884 6.87878 111.784 6.90677 111.68C6.93878 111.576 6.97078 111.476 6.99478 111.368C7.02678 111.264 7.05078 111.16 7.07078 111.052C7.14278 110.756 7.18677 110.452 7.21077 110.14C7.22277 110.052 7.23078 109.96 7.23478 109.868C7.24278 109.744 7.24678 109.62 7.24678 109.492C7.24678 109.364 7.24277 109.252 7.23877 109.132C7.23477 109.008 7.22677 108.892 7.21477 108.78C6.89877 105.16 3.91477 102.316 0.23877 102.22V94.86C0.41077 94.856 0.578777 94.844 0.746777 94.832C0.914777 94.812 1.08278 94.788 1.24678 94.76C1.46678 94.728 1.67877 94.68 1.89077 94.62C1.99877 94.6 2.10277 94.564 2.20677 94.532C2.31078 94.504 2.41477 94.464 2.51477 94.428C2.61877 94.388 2.71877 94.352 2.81877 94.308C2.91877 94.264 3.01877 94.22 3.11477 94.176C3.21477 94.132 3.31077 94.08 3.40277 94.032C3.49877 93.98 3.59078 93.932 3.68278 93.876C3.77478 93.82 3.86677 93.764 3.95477 93.708C4.04677 93.652 4.13477 93.592 4.21877 93.528C4.29877 93.472 4.38278 93.412 4.45878 93.348C4.46278 93.348 4.46678 93.344 4.47078 93.34C4.54278 93.284 4.61077 93.228 4.67477 93.172C4.68677 93.164 4.69877 93.156 4.70678 93.144C4.77877 93.084 4.85077 93.024 4.91877 92.956C4.99077 92.892 5.06678 92.82 5.13478 92.748C5.20678 92.68 5.27477 92.608 5.34277 92.532C5.41077 92.456 5.47877 92.384 5.53877 92.304C6.46277 91.224 7.06677 89.86 7.20678 88.368C7.21478 88.292 7.22277 88.22 7.22677 88.144C7.23477 88.068 7.23877 87.992 7.24277 87.916C7.24677 87.86 7.24678 87.804 7.24678 87.74V87.588C7.24678 87.492 7.24277 87.4 7.23877 87.308C7.21077 86.516 7.05477 85.764 6.78677 85.06C6.71477 84.856 6.62677 84.656 6.53077 84.456C6.39077 84.164 6.23077 83.884 6.05477 83.616C6.05077 83.612 6.04678 83.612 6.04678 83.608C5.93078 83.432 5.80277 83.256 5.66677 83.084C5.53077 82.916 5.38677 82.756 5.23877 82.604C5.16677 82.52 5.08677 82.444 5.01077 82.376C4.93477 82.3 4.85478 82.228 4.77078 82.156C4.69078 82.08 4.60677 82.012 4.52277 81.952C4.44277 81.88 4.36277 81.82 4.27877 81.76C4.17877 81.688 4.07877 81.62 3.97877 81.556C3.89477 81.5 3.81077 81.444 3.72277 81.4C3.63077 81.336 3.53477 81.284 3.43877 81.236C3.34677 81.18 3.25077 81.132 3.15077 81.088C3.05077 81.04 2.95077 80.992 2.85077 80.956C2.75477 80.908 2.65477 80.876 2.55477 80.836C2.25877 80.728 1.95477 80.632 1.64277 80.56C1.53477 80.536 1.42277 80.512 1.31077 80.5C1.21877 80.48 1.12677 80.464 1.03077 80.456C0.890774 80.432 0.746771 80.416 0.602771 80.408C0.482771 80.392 0.36277 80.388 0.23877 80.384V73.028C0.76277 73.012 1.27077 72.94 1.76277 72.82C2.66277 72.604 3.49477 72.212 4.23077 71.688C4.44277 71.54 4.64278 71.376 4.83478 71.204C4.93078 71.12 5.02677 71.032 5.11477 70.94C5.18277 70.88 5.24277 70.816 5.30277 70.748C5.31077 70.74 5.31477 70.732 5.32277 70.724C5.33077 70.72 5.33477 70.712 5.33877 70.708C5.37877 70.668 5.41477 70.628 5.45077 70.584C5.49877 70.536 5.54278 70.484 5.58278 70.432C5.64278 70.364 5.69877 70.292 5.75077 70.22C5.85077 70.096 5.94277 69.968 6.03077 69.832C6.07877 69.76 6.12678 69.688 6.17078 69.612C6.17478 69.604 6.17878 69.6 6.18278 69.592C6.23078 69.516 6.27877 69.44 6.32277 69.356C6.32677 69.348 6.33078 69.344 6.33478 69.336C6.37878 69.26 6.41878 69.184 6.45878 69.104C6.50278 69.02 6.54278 68.936 6.58278 68.848C6.58278 68.84 6.58277 68.836 6.59077 68.828C6.61477 68.78 6.63878 68.728 6.65878 68.676C6.68278 68.624 6.70277 68.572 6.72277 68.52C6.76677 68.416 6.80677 68.308 6.84277 68.2C6.85477 68.172 6.86278 68.144 6.87078 68.116C6.90278 68.032 6.93077 67.944 6.95077 67.856C6.96277 67.824 6.97077 67.788 6.97877 67.756C6.97877 67.748 6.98278 67.744 6.98278 67.736C7.00678 67.664 7.02677 67.592 7.04277 67.52C7.05877 67.456 7.07477 67.392 7.08677 67.324C7.09877 67.268 7.11077 67.208 7.12277 67.148C7.13477 67.072 7.14678 66.992 7.15878 66.912C7.17078 66.848 7.17878 66.784 7.18278 66.72C7.18278 66.704 7.19077 66.692 7.19077 66.676C7.20277 66.588 7.21077 66.5 7.21877 66.408C7.23077 66.304 7.23477 66.192 7.23877 66.084C7.24677 66.004 7.24678 65.916 7.24678 65.832C7.24678 65.708 7.24277 65.584 7.23877 65.464C7.23477 65.352 7.22677 65.232 7.21477 65.116C7.15477 64.38 6.98277 63.68 6.71477 63.02C5.65877 60.456 3.16677 58.636 0.23877 58.556V51.2C1.05877 51.18 1.83877 51.016 2.56277 50.74C2.63877 50.716 2.71477 50.688 2.78677 50.656C2.95077 50.588 3.11077 50.516 3.26677 50.44C4.77877 49.684 5.98678 48.412 6.65878 46.856C6.89478 46.332 7.05878 45.764 7.14678 45.18C7.21878 44.8 7.24678 44.404 7.24678 44C7.24678 40.08 4.13077 36.904 0.23877 36.792V29.36C1.05477 29.34 1.82277 29.18 2.55477 28.912C5.29477 27.904 7.24678 25.26 7.24678 22.164C7.24678 21.2 7.05877 20.268 6.71477 19.432C5.65877 16.864 3.16677 15.044 0.23877 14.964V7.55599C0.34677 7.55599 0.446777 7.55599 0.558777 7.54399C0.670777 7.53599 0.790775 7.53199 0.906775 7.51599C4.54278 7.14399 7.38278 4.07599 7.38278 0.33999C7.38278 0.27599 7.37078 0.20799 7.37078 0.13999H14.7988C14.7988 0.20799 14.7948 0.27599 14.7948 0.33999C14.7948 4.21999 17.8548 7.38799 21.6988 7.54399C21.7988 7.55199 21.9068 7.55599 22.0068 7.55599H22.0708C26.0228 7.51599 29.2108 4.29999 29.2108 0.33999C29.2108 0.27599 29.1988 0.20799 29.1988 0.13999H36.6348C36.6348 0.20799 36.6228 0.27599 36.6228 0.33999C36.6228 0.70799 36.6548 1.05999 36.7068 1.40799C37.1988 4.75999 40.0068 7.35999 43.4468 7.54399C43.5708 7.55199 43.7068 7.55599 43.8348 7.55599H43.8628C43.9828 7.55599 44.0948 7.55599 44.2148 7.53999C44.2948 7.53599 44.3708 7.53199 44.4468 7.52799C44.5308 7.51999 44.6068 7.51199 44.6868 7.50399C44.8068 7.48399 44.9228 7.46799 45.0468 7.45199C45.1668 7.43199 45.2868 7.40799 45.3988 7.37999C46.0948 7.22799 46.7508 6.97599 47.3508 6.63999C47.9828 6.28399 48.5548 5.83999 49.0468 5.31999C50.2828 4.03199 51.0468 2.27599 51.0468 0.33999C51.0468 0.27599 51.0388 0.20799 51.0388 0.13999H58.4708C58.4708 0.20799 58.4588 0.27599 58.4588 0.33999C58.4588 4.07599 61.2948 7.14399 64.9348 7.51599C65.0228 7.52799 65.1108 7.53199 65.1988 7.53599C65.2468 7.53999 65.2948 7.54399 65.3388 7.54399C65.4468 7.55199 65.5588 7.55599 65.6708 7.55599C65.7828 7.55599 65.8988 7.55599 66.0188 7.53999C66.1388 7.53999 66.2548 7.53199 66.3708 7.51199C66.3828 7.51599 66.3948 7.51599 66.4068 7.51199C66.7788 7.47999 67.1388 7.41199 67.4908 7.31999C68.1988 7.13599 68.8708 6.83999 69.4828 6.45599C71.5228 5.18399 72.8828 2.91999 72.8828 0.33999C72.8828 0.27599 72.8708 0.20799 72.8668 0.13999H80.2948C80.2948 0.20799 80.2908 0.27599 80.2908 0.33999C80.2908 3.20399 81.9588 5.67599 84.3748 6.84399C84.5388 6.91999 84.7028 7.00399 84.8748 7.06399C84.9628 7.09999 85.0468 7.13199 85.1388 7.15999C85.2628 7.20799 85.3908 7.24399 85.5188 7.27999C85.6908 7.33199 85.8628 7.37599 86.0388 7.40799C86.1628 7.43199 86.2908 7.45599 86.4188 7.47999C86.5188 7.48799 86.6188 7.50399 86.7188 7.51199C86.7348 7.51199 86.7468 7.51599 86.7628 7.51599C86.8828 7.53199 86.9988 7.53599 87.1228 7.54399H87.1348C87.2428 7.55199 87.3548 7.55599 87.4668 7.55599H87.4988C87.6188 7.55599 87.7388 7.55599 87.8468 7.54399C91.6668 7.36399 94.7108 4.20799 94.7108 0.33999C94.7108 0.27599 94.6988 0.20799 94.6988 0.13999H102.135C102.131 0.20799 102.123 0.27599 102.123 0.33999C102.123 2.81199 103.367 4.99199 105.267 6.29199C105.735 6.61999 106.247 6.88399 106.795 7.08799C107.139 7.21999 107.491 7.31999 107.855 7.39999C107.867 7.39999 107.883 7.40799 107.899 7.40799C108.063 7.43999 108.235 7.47599 108.407 7.49199C108.599 7.51599 108.799 7.53599 108.999 7.54399C109.111 7.55199 109.223 7.55599 109.335 7.55599C109.447 7.55599 109.559 7.55599 109.671 7.54399C113.495 7.36799 116.547 4.20799 116.547 0.33999C116.547 0.27599 116.535 0.20799 116.531 0.13999H123.963C123.963 0.20799 123.955 0.27599 123.955 0.33999C123.955 1.91999 124.467 3.38399 125.323 4.57599C125.671 5.05199 126.071 5.47999 126.519 5.85599C127.199 6.43199 127.995 6.88399 128.859 7.17999C128.867 7.17999 128.871 7.17999 128.883 7.18399C129.035 7.23599 129.195 7.28399 129.355 7.32799C129.359 7.32799 129.367 7.32799 129.371 7.32799C129.419 7.33599 129.471 7.35199 129.519 7.35599C129.647 7.38799 129.783 7.41599 129.919 7.43999C129.931 7.44799 129.943 7.44799 129.955 7.45199C130.139 7.47599 130.323 7.50399 130.511 7.52399C130.619 7.52399 130.723 7.53599 130.839 7.53999C130.947 7.54799 131.055 7.55199 131.167 7.55199C131.279 7.55199 131.395 7.55199 131.507 7.53999C135.323 7.36399 138.371 4.20399 138.371 0.335986C138.371 0.271986 138.371 0.203986 138.371 0.135986H145.799C145.799 0.203986 145.795 0.271986 145.795 0.335986C145.795 1.13599 145.923 1.90799 146.171 2.62799C146.367 3.22399 146.635 3.77999 146.975 4.29599C147.927 5.75199 149.395 6.83599 151.115 7.30399C151.131 7.30399 151.147 7.30799 151.163 7.31199H151.175C151.371 7.37199 151.575 7.40799 151.783 7.43999C151.887 7.45999 151.987 7.47999 152.095 7.49599C152.187 7.50399 152.275 7.50799 152.371 7.51599C152.471 7.52799 152.567 7.53199 152.667 7.53999C152.767 7.54799 152.867 7.55199 152.967 7.55199H152.999C156.987 7.55199 160.215 4.31599 160.215 0.335986C160.215 0.271986 160.199 0.203986 160.199 0.135986H167.639C167.635 0.203986 167.623 0.271986 167.623 0.335986C167.623 0.463986 167.627 0.595987 167.635 0.723987C167.671 1.40799 167.799 2.07599 168.019 2.69999C168.791 4.92399 170.619 6.65199 172.899 7.28399C172.943 7.29999 172.983 7.30399 173.023 7.31599C173.107 7.33999 173.199 7.35999 173.291 7.37999C173.403 7.40399 173.511 7.43199 173.627 7.45199C173.735 7.47199 173.847 7.48399 173.959 7.49999C174.051 7.50799 174.151 7.51599 174.247 7.52799C174.335 7.53199 174.419 7.53599 174.499 7.53999C174.615 7.54799 174.723 7.55199 174.835 7.55199C174.927 7.55199 175.027 7.55199 175.127 7.53999C178.971 7.38799 182.047 4.22399 182.047 0.335986C182.047 0.271986 182.039 0.203986 182.035 0.135986H189.467C189.467 0.203986 189.459 0.271986 189.459 0.335986C189.459 0.627986 189.475 0.903991 189.503 1.18399C189.915 4.65599 192.783 7.37599 196.323 7.53999C196.435 7.54799 196.551 7.55199 196.667 7.55199C196.875 7.55199 197.091 7.53999 197.299 7.52399C197.311 7.52399 197.327 7.51599 197.339 7.51599C197.691 7.48399 198.039 7.42799 198.375 7.33999C198.479 7.31599 198.591 7.28399 198.695 7.25199C200.699 6.67599 202.335 5.23999 203.199 3.38399C203.635 2.45999 203.875 1.42799 203.875 0.335986C203.875 0.271986 203.875 0.203986 203.875 0.135986H211.303C211.303 0.203986 211.291 0.271986 211.291 0.335986C211.291 3.55199 213.391 6.26399 216.291 7.20399C216.327 7.21199 216.359 7.22799 216.391 7.23199C216.515 7.27599 216.643 7.30399 216.771 7.33599C216.951 7.37999 217.131 7.42399 217.319 7.45199C217.431 7.47599 217.551 7.48799 217.671 7.50399C217.943 7.53199 218.223 7.55199 218.503 7.55199C218.603 7.55199 218.703 7.55199 218.807 7.53999C218.827 7.53999 218.843 7.53599 218.863 7.53599C218.943 7.53199 219.027 7.52399 219.107 7.51599H219.115C219.115 7.51599 219.155 7.51599 219.171 7.51199C219.187 7.51199 219.203 7.50799 219.227 7.50799C219.243 7.50799 219.255 7.50399 219.279 7.50399C219.299 7.50399 219.315 7.49999 219.331 7.49599V14.956C219.307 14.956 219.283 14.956 219.259 14.96C215.363 15.052 212.231 18.24 212.231 22.16L212.219 22.152Z" fill="#F9F8F4"/>
<path d="M212.803 155.984C212.687 155.724 212.587 155.452 212.511 155.172C212.591 155.448 212.691 155.72 212.803 155.984Z" fill="#F9F8F4"/>
<path d="M213.823 157.676C213.583 157.384 213.367 157.072 213.183 156.744C213.371 157.072 213.587 157.384 213.823 157.676Z" fill="#F9F8F4"/>
<path d="M219.319 269.444V271.128C219.319 271.128 219.315 271.108 219.315 271.096C219.291 270.668 219.263 270.232 219.231 269.796C219.227 269.68 219.219 269.56 219.211 269.44C219.247 269.44 219.283 269.44 219.319 269.44V269.444Z" fill="#F9F8F4"/>
<path d="M48.5109 220.664C47.3589 220.5 46.4749 220.096 45.8509 219.42C45.2269 218.744 44.9189 217.832 44.9189 216.668C44.9189 215.504 45.2149 214.424 45.8069 213.408C46.3989 212.396 47.2309 211.508 48.2989 210.768C49.3669 210.028 50.6269 209.496 52.0709 209.2C53.1349 208.98 54.1109 208.948 54.9989 209.096C55.8869 209.244 56.6389 209.56 57.2509 210.032C57.8629 210.504 58.2989 211.104 58.5629 211.824C57.5069 212.228 56.9829 212.44 55.9269 212.872C55.7669 212.444 55.5109 212.096 55.1589 211.824C54.8069 211.552 54.3749 211.368 53.8549 211.28C53.3389 211.192 52.7669 211.208 52.1469 211.336C51.2829 211.512 50.5269 211.828 49.8709 212.264C49.2189 212.704 48.7149 213.236 48.3629 213.852C48.0109 214.468 47.8349 215.136 47.8349 215.848C47.8349 216.552 48.0309 217.12 48.4229 217.556C48.8149 217.996 49.3709 218.264 50.0869 218.372C50.8029 218.48 51.6389 218.436 52.5949 218.244C53.3189 218.1 53.9829 217.876 54.5829 217.568C55.1869 217.26 55.6829 216.892 56.0829 216.456C56.4789 216.02 56.7549 215.548 56.9029 215.032C57.9829 215.088 58.5189 215.124 59.5989 215.208C59.3789 216.068 58.9429 216.848 58.2949 217.552C57.6469 218.256 56.8269 218.848 55.8309 219.332C54.8349 219.816 53.7429 220.176 52.5469 220.416C50.9989 220.728 49.6509 220.816 48.5029 220.652L48.5109 220.664Z" fill="#F44E22"/>
<path d="M65.719 207.724C67.075 207.644 67.751 207.612 69.107 207.572C70.923 211.124 72.719 214.688 74.499 218.26C73.283 218.244 72.675 218.24 71.455 218.252C71.039 217.408 70.831 216.984 70.415 216.144C67.975 216.188 66.755 216.24 64.315 216.42C63.899 217.3 63.691 217.74 63.275 218.624C62.051 218.724 61.439 218.784 60.219 218.924C62.031 215.18 63.863 211.448 65.715 207.724H65.719ZM69.711 214.32C68.783 212.42 68.319 211.476 67.391 209.596C67.379 209.596 67.375 209.596 67.359 209.596C66.431 211.56 65.967 212.548 65.039 214.528C66.907 214.404 67.839 214.364 69.707 214.32H69.711Z" fill="#F44E22"/>
<path d="M79.7508 218.464C78.8708 218.22 78.0828 217.896 77.3868 217.496C76.6868 217.096 76.1388 216.66 75.7388 216.188C76.2508 215.5 76.5068 215.16 77.0188 214.476C77.3508 214.908 77.8068 215.3 78.3828 215.648C78.9588 216 79.6188 216.284 80.3628 216.512C81.1068 216.74 81.8428 216.876 82.5788 216.928C83.1708 216.968 83.6868 216.956 84.1308 216.884C84.5748 216.812 84.9148 216.684 85.1628 216.5C85.4068 216.316 85.5308 216.096 85.5308 215.844C85.5308 215.512 85.3148 215.224 84.8828 214.984C84.4508 214.744 83.7668 214.536 82.8348 214.368C81.9428 214.18 81.4988 214.088 80.6068 213.912C79.0708 213.636 77.9548 213.26 77.2628 212.76C76.5708 212.26 76.2228 211.568 76.2228 210.672C76.2228 209.968 76.4628 209.36 76.9468 208.848C77.4308 208.336 78.1068 207.96 78.9788 207.728C79.8508 207.496 80.8628 207.416 82.0068 207.488C82.7508 207.536 83.4788 207.664 84.1908 207.868C84.9028 208.072 85.5508 208.34 86.1348 208.668C86.7188 208.996 87.1948 209.36 87.5668 209.756C87.1268 210.388 86.9068 210.708 86.4668 211.34C86.1348 211 85.7348 210.692 85.2628 210.416C84.7908 210.14 84.2748 209.916 83.7188 209.744C83.1628 209.572 82.5828 209.476 81.9948 209.444C81.4468 209.412 80.9428 209.432 80.4948 209.52C80.0468 209.604 79.7028 209.74 79.4548 209.916C79.2068 210.096 79.0908 210.316 79.0868 210.56C79.0828 210.856 79.2468 211.104 79.5988 211.292C79.9508 211.48 80.5068 211.644 81.2708 211.792C82.1628 211.956 82.6068 212.04 83.4988 212.212C85.2068 212.54 86.4468 213.008 87.2188 213.592C87.9908 214.176 88.3868 214.936 88.3948 215.844C88.3948 216.552 88.1468 217.156 87.6508 217.648C87.1548 218.14 86.4548 218.488 85.5588 218.708C84.6588 218.928 83.6228 218.996 82.4468 218.916C81.5348 218.856 80.6388 218.7 79.7588 218.456L79.7508 218.464Z" fill="#F44E22"/>
<path d="M90.6309 208.6C95.0069 209.076 97.1908 209.372 101.567 209.988V211.948C98.3268 211.488 96.7029 211.268 93.4629 210.88V213.292C96.4629 213.652 97.9629 213.852 100.963 214.272V216.02C97.9629 215.6 96.4629 215.396 93.4629 215.04V217.676C96.7629 218.072 98.4148 218.296 101.719 218.764V220.736C97.2828 220.108 95.0669 219.808 90.6309 219.324V208.6Z" fill="#F44E22"/>
<path d="M103.963 210.332C105.535 210.56 106.323 210.676 107.895 210.912C109.607 214.42 110.463 216.176 112.171 219.684C112.179 219.684 112.179 219.684 112.187 219.684C113.887 216.684 114.735 215.184 116.435 212.18C118.019 212.412 118.811 212.524 120.395 212.748C120.395 217.036 120.395 219.184 120.395 223.472C119.279 223.316 118.723 223.236 117.607 223.076C117.607 219.996 117.607 218.456 117.607 215.38C117.595 215.38 117.591 215.38 117.575 215.376C115.979 218.224 115.179 219.644 113.583 222.488C112.491 222.324 111.947 222.244 110.855 222.08C109.223 218.756 108.407 217.096 106.771 213.772C106.759 213.772 106.755 213.772 106.739 213.768V221.464C105.623 221.3 105.067 221.216 103.951 221.056V210.332H103.963Z" fill="#F44E22"/>
<path d="M127.883 213.724C129.239 213.884 129.915 213.96 131.271 214.104C133.059 217.848 134.855 221.588 136.663 225.324C135.447 225.228 134.839 225.176 133.619 225.06C133.203 224.172 132.995 223.728 132.579 222.836C130.139 222.596 128.919 222.456 126.479 222.156C126.063 222.956 125.855 223.352 125.439 224.152C124.215 223.996 123.603 223.916 122.383 223.752C124.223 220.416 126.055 217.072 127.879 213.728L127.883 213.724ZM131.875 220.928C130.947 218.912 130.483 217.9 129.555 215.876C129.543 215.876 129.539 215.876 129.523 215.876C128.595 217.696 128.131 218.6 127.203 220.412C129.071 220.636 130.003 220.744 131.871 220.932L131.875 220.928Z" fill="#F44E22"/>
<path d="M141.031 217.04C139.219 216.944 138.311 216.884 136.499 216.74V214.588C140.471 214.924 144.503 215.104 148.487 215.088V217.24C146.679 217.24 145.775 217.224 143.967 217.168V225.74C142.791 225.7 142.203 225.676 141.031 225.616C141.031 222.188 141.031 220.472 141.031 217.044V217.04Z" fill="#F44E22"/>
<path d="M150.567 215.068C154.943 214.988 157.127 214.86 161.503 214.328V216.288C158.263 216.684 156.639 216.808 153.399 216.944C153.399 217.908 153.399 218.392 153.399 219.356C156.399 219.228 157.899 219.116 160.899 218.772V220.52C157.899 220.868 156.399 220.976 153.399 221.104V223.74C156.699 223.6 158.351 223.472 161.655 223.064V225.036C157.219 225.584 155.003 225.716 150.571 225.796V215.072L150.567 215.068Z" fill="#F44E22"/>
<path d="M167.459 224.156C166.579 224.12 165.791 223.968 165.095 223.704C164.395 223.44 163.847 223.1 163.447 222.696C163.959 221.924 164.215 221.536 164.727 220.756C165.059 221.124 165.515 221.428 166.091 221.652C166.667 221.88 167.327 222.016 168.071 222.056C168.815 222.096 169.551 222.036 170.287 221.872C170.879 221.74 171.395 221.564 171.839 221.352C172.283 221.14 172.623 220.896 172.871 220.628C173.115 220.36 173.239 220.1 173.239 219.848C173.239 219.516 173.023 219.304 172.591 219.208C172.159 219.112 171.475 219.128 170.543 219.24C169.651 219.316 169.207 219.348 168.315 219.4C166.779 219.516 165.663 219.364 164.971 219C164.279 218.632 163.931 218 163.931 217.104C163.931 216.4 164.171 215.752 164.655 215.148C165.139 214.544 165.815 214.036 166.687 213.608C167.559 213.18 168.571 212.848 169.715 212.604C170.459 212.444 171.187 212.352 171.899 212.328C172.611 212.304 173.259 212.352 173.843 212.468C174.427 212.588 174.903 212.772 175.275 213.024C174.835 213.824 174.615 214.224 174.175 215.02C173.843 214.8 173.443 214.632 172.971 214.52C172.499 214.404 171.983 214.352 171.427 214.352C170.871 214.352 170.291 214.432 169.703 214.564C169.155 214.688 168.651 214.84 168.203 215.04C167.755 215.24 167.411 215.456 167.163 215.692C166.915 215.928 166.799 216.176 166.795 216.424C166.791 216.724 166.955 216.932 167.307 217.036C167.659 217.14 168.215 217.172 168.979 217.112C169.871 217.036 170.315 216.992 171.207 216.892C172.915 216.692 174.155 216.704 174.927 216.996C175.699 217.288 176.095 217.888 176.103 218.792C176.107 219.5 175.855 220.204 175.359 220.888C174.863 221.568 174.163 222.184 173.267 222.716C172.367 223.248 171.331 223.652 170.155 223.912C169.243 224.116 168.347 224.196 167.467 224.164L167.459 224.156Z" fill="#F44E22"/>
<path d="M72.1587 233.52C71.2787 233.324 70.4907 233.048 69.7947 232.684C69.0947 232.324 68.5467 231.924 68.1467 231.476C68.6587 230.756 68.9147 230.4 69.4267 229.688C69.7587 230.1 70.2107 230.464 70.7907 230.78C71.3667 231.096 72.0267 231.348 72.7707 231.536C73.5147 231.724 74.2507 231.824 74.9827 231.836C75.5747 231.848 76.0907 231.808 76.5347 231.716C76.9787 231.624 77.3187 231.48 77.5667 231.284C77.8107 231.088 77.9347 230.864 77.9347 230.612C77.9347 230.28 77.7187 230.004 77.2867 229.784C76.8547 229.564 76.1707 229.388 75.2387 229.268C74.3467 229.124 73.9027 229.056 73.0107 228.928C71.4747 228.732 70.3587 228.42 69.6667 227.96C68.9747 227.5 68.6267 226.828 68.6267 225.936C68.6267 225.232 68.8667 224.608 69.3507 224.068C69.8347 223.528 70.5107 223.112 71.3827 222.832C72.2547 222.552 73.2667 222.416 74.4107 222.432C75.1547 222.444 75.8827 222.532 76.5947 222.704C77.3067 222.876 77.9547 223.112 78.5387 223.416C79.1227 223.716 79.5987 224.06 79.9707 224.44C79.5307 225.092 79.3107 225.42 78.8707 226.072C78.5387 225.744 78.1387 225.456 77.6667 225.2C77.1947 224.948 76.6787 224.748 76.1227 224.6C75.5667 224.452 74.9867 224.388 74.3987 224.384C73.8507 224.384 73.3467 224.428 72.8987 224.536C72.4507 224.644 72.1067 224.796 71.8587 224.992C71.6107 225.184 71.4947 225.412 71.4907 225.656C71.4867 225.952 71.6507 226.192 72.0027 226.36C72.3547 226.528 72.9107 226.664 73.6747 226.768C74.5667 226.884 75.0107 226.944 75.9027 227.076C77.6107 227.32 78.8507 227.736 79.6227 228.284C80.3947 228.836 80.7907 229.576 80.7987 230.488C80.7987 231.196 80.5507 231.812 80.0547 232.32C79.5587 232.832 78.8587 233.212 77.9627 233.472C77.0627 233.732 76.0267 233.848 74.8507 233.828C73.9387 233.812 73.0427 233.708 72.1627 233.508L72.1587 233.52Z" fill="#F44E22"/>
<path d="M86.4747 233.808C85.3187 233.224 84.4227 232.48 83.7787 231.568C83.1347 230.656 82.8147 229.636 82.8147 228.5C82.8147 227.364 83.1387 226.412 83.7867 225.58C84.4347 224.752 85.3347 224.144 86.4827 223.768C87.6307 223.392 88.9587 223.284 90.4667 223.448C91.9827 223.612 93.3147 224.012 94.4587 224.632C95.6027 225.256 96.4987 226.048 97.1387 227.008C97.7827 227.964 98.1027 229.008 98.1027 230.132C98.1027 231.256 97.7787 232.196 97.1307 232.98C96.4827 233.764 95.5907 234.324 94.4507 234.664C93.3107 235.004 91.9827 235.088 90.4667 234.928C88.9587 234.764 87.6307 234.396 86.4747 233.812V233.808ZM92.9147 232.588C93.6227 232.364 94.1787 232.008 94.5787 231.508C94.9787 231.012 95.1827 230.42 95.1827 229.736C95.1827 229.052 94.9827 228.4 94.5787 227.808C94.1747 227.216 93.6227 226.724 92.9147 226.336C92.2067 225.948 91.3907 225.7 90.4667 225.6C89.5347 225.5 88.7107 225.568 88.0027 225.808C87.2947 226.044 86.7387 226.42 86.3387 226.928C85.9387 227.436 85.7347 228.036 85.7347 228.728C85.7347 229.42 85.9347 230.044 86.3387 230.624C86.7387 231.208 87.2947 231.684 88.0027 232.06C88.7107 232.436 89.5307 232.672 90.4667 232.772C91.3907 232.872 92.2067 232.812 92.9147 232.588ZM90.8507 237.76C90.3627 237.512 89.9907 237.176 89.7307 236.76C89.4707 236.34 89.3387 235.864 89.3387 235.332V234.428C90.1627 234.512 90.5787 234.556 91.4027 234.648V235.28C91.4027 235.62 91.5347 235.904 91.8027 236.124C92.0707 236.344 92.4427 236.484 92.9227 236.54C93.4147 236.596 93.8947 236.564 94.3627 236.44C94.8307 236.316 95.2427 236.076 95.6067 235.72C95.9907 236.256 96.1867 236.524 96.5707 237.064C96.2787 237.388 95.9267 237.648 95.5147 237.84C95.1027 238.032 94.6467 238.164 94.1427 238.236C93.6427 238.304 93.1147 238.308 92.5627 238.244C91.9107 238.168 91.3387 238.008 90.8547 237.756L90.8507 237.76Z" fill="#F44E22"/>
<path d="M103.487 235.92C102.507 235.372 101.755 234.668 101.227 233.804C100.699 232.94 100.435 231.944 100.435 230.808V225.068C101.611 225.232 102.199 225.316 103.371 225.484V231.104C103.371 231.808 103.515 232.42 103.807 232.944C104.099 233.468 104.515 233.884 105.055 234.196C105.599 234.508 106.231 234.716 106.955 234.824C107.687 234.932 108.319 234.912 108.855 234.76C109.387 234.608 109.803 234.316 110.099 233.876C110.395 233.44 110.543 232.872 110.543 232.18V226.548C111.711 226.724 112.295 226.812 113.467 226.984V232.724C113.467 233.86 113.199 234.78 112.667 235.488C112.135 236.196 111.383 236.68 110.407 236.944C109.435 237.204 108.283 237.236 106.959 237.04C105.623 236.84 104.467 236.468 103.487 235.92Z" fill="#F44E22"/>
<path d="M120.035 227.944C121.391 228.136 122.067 228.228 123.423 228.408C125.215 232.208 127.011 236.008 128.815 239.8C127.599 239.66 126.991 239.588 125.771 239.432C125.355 238.532 125.147 238.08 124.731 237.176C122.291 236.864 121.071 236.692 118.631 236.344C118.215 237.136 118.007 237.528 117.591 238.32C116.367 238.144 115.755 238.052 114.535 237.872C116.371 234.564 118.203 231.256 120.035 227.944ZM124.027 235.248C123.099 233.204 122.635 232.18 121.707 230.132C121.695 230.132 121.691 230.132 121.675 230.128C120.747 231.924 120.283 232.82 119.355 234.608C121.223 234.872 122.155 235 124.023 235.244L124.027 235.248Z" fill="#F44E22"/>
<path d="M141.167 240.948C140.847 240.792 140.579 240.588 140.367 240.34C140.155 240.092 139.951 239.816 139.751 239.512C139.427 238.852 139.263 238.524 138.939 237.864C138.747 237.532 138.503 237.264 138.199 237.06C137.899 236.86 137.571 236.744 137.219 236.716C135.835 236.612 135.139 236.552 133.755 236.424C133.755 237.98 133.755 238.756 133.755 240.312C132.579 240.204 131.991 240.144 130.819 240.016V229.292C134.235 229.656 135.943 229.812 139.359 230.028C140.263 230.084 141.031 230.26 141.663 230.556C142.295 230.852 142.787 231.252 143.131 231.756C143.479 232.26 143.651 232.856 143.651 233.536C143.651 234.068 143.523 234.54 143.267 234.952C143.011 235.364 142.651 235.7 142.191 235.956C141.727 236.212 141.175 236.364 140.535 236.408V236.424C140.735 236.548 140.923 236.696 141.099 236.868C141.275 237.044 141.423 237.248 141.543 237.484C141.863 238.08 142.023 238.376 142.343 238.968C142.455 239.132 142.571 239.264 142.691 239.36C142.811 239.456 142.959 239.508 143.127 239.512C143.267 239.516 143.419 239.472 143.587 239.38C143.751 239.284 143.887 239.164 143.987 239.016C144.259 239.536 144.395 239.796 144.663 240.316C144.391 240.608 144.039 240.836 143.599 240.996C143.163 241.156 142.723 241.228 142.283 241.208C141.863 241.188 141.491 241.1 141.167 240.944V240.948ZM138.607 234.984C139.047 235.012 139.427 234.976 139.743 234.876C140.059 234.776 140.299 234.612 140.467 234.392C140.631 234.172 140.715 233.892 140.715 233.56C140.715 233.248 140.631 232.972 140.467 232.732C140.303 232.492 140.059 232.296 139.743 232.14C139.427 231.984 139.051 231.892 138.619 231.864C136.667 231.732 135.691 231.652 133.739 231.468V234.584C135.683 234.764 136.659 234.848 138.603 234.976L138.607 234.984Z" fill="#F44E22"/>
<path d="M146.619 230.316C150.995 230.376 153.179 230.324 157.555 229.968V231.928C154.315 232.192 152.691 232.256 149.451 232.284V234.696C152.451 234.672 153.951 234.616 156.951 234.388V236.136C153.951 236.364 152.451 236.42 149.451 236.444V239.08C152.751 239.052 154.403 238.984 157.707 238.712V240.684C153.271 241.052 151.055 241.104 146.623 241.044C146.623 236.756 146.623 234.608 146.623 230.32L146.619 230.316Z" fill="#F44E22"/>
<path d="M29.0188 171.468C33.5468 169.296 38.2628 167.524 43.1068 166.196C43.0868 159.68 43.0548 153.164 43.0308 146.648C43.0108 146.652 43.0028 146.656 42.9828 146.66C42.0308 148.344 40.6828 149.908 38.9388 151.432C37.1948 152.956 34.9428 154.616 32.1788 156.576C31.4268 154.076 31.0548 152.832 30.3028 150.348C33.4588 148.096 36.1308 146.084 38.3188 144.108C40.5068 142.136 42.2708 140.004 43.6228 137.596C47.2548 136.708 49.0668 136.388 52.6988 135.94C52.7068 145.34 52.7428 154.74 52.7668 164.14C56.9668 163.504 59.0708 163.324 63.2708 163.188C63.2788 165.716 63.2828 166.984 63.2868 169.556C51.1268 170.32 40.1748 173.004 29.0228 177.924C29.0228 175.34 29.0228 174.048 29.0228 171.464L29.0188 171.468Z" fill="#F44E22"/>
<path d="M79.0987 155.704C82.2347 151.476 86.1787 147.88 90.4627 144.84C82.2267 143.516 74.1267 142.392 65.7867 142.064C65.7747 139.392 65.7708 138.048 65.7708 135.324C77.7748 135.864 89.5228 137.972 101.363 139.908C101.383 142.3 101.403 143.492 101.447 145.864C97.1347 148.948 93.2507 152.672 90.1907 157.008C87.2347 161.196 85.0987 165.932 83.9147 170.92C80.1587 170.296 76.2987 169.864 72.4987 169.668C73.7947 164.648 76.0107 159.872 79.1027 155.708L79.0987 155.704Z" fill="#F44E22"/>
<path d="M121.011 163.492C124.011 159.096 127.699 155.176 131.883 151.884C123.767 150.552 115.663 149.152 107.559 147.744C107.511 145.02 107.495 143.652 107.491 140.92C119.255 142.86 131.015 144.956 142.835 146.516C142.875 148.936 142.911 150.168 143.003 152.656C138.663 156.14 134.903 160.3 132.047 165.08C129.319 169.64 127.363 174.632 126.163 179.804C122.339 179.016 118.523 178.176 114.715 177.308C116.019 172.388 118.139 167.7 121.011 163.496V163.492Z" fill="#F44E22"/>
<path d="M161.843 184.348C159.107 183.648 156.671 182.58 154.535 181.232C152.395 179.884 150.583 178.292 149.095 176.5C150.895 174.436 151.787 173.372 153.579 171.176C154.751 172.816 156.183 174.236 157.883 175.4C159.579 176.568 161.487 177.428 163.603 177.936C165.719 178.444 167.999 178.604 170.447 178.348C173.027 178.08 175.299 177.26 177.275 175.94C179.247 174.624 180.771 172.904 181.847 170.86C182.919 168.82 183.455 166.536 183.439 164.052C181.767 166.188 179.987 167.832 178.103 168.964C176.219 170.096 173.799 170.904 170.843 171.252C167.163 171.688 163.943 171.284 161.167 170.252C158.391 169.22 156.235 167.656 154.695 165.68C153.159 163.704 152.335 161.44 152.247 158.932C152.159 156.388 152.951 154.184 154.631 152.236C156.311 150.288 158.683 148.772 161.731 147.528C164.779 146.284 168.247 145.416 172.111 144.792C176.411 144.096 180.079 143.82 183.115 144.18C186.151 144.54 188.487 145.6 190.127 147.572C191.771 149.544 192.567 152.556 192.587 156.66C192.611 161.236 191.815 165.924 190.147 170.16C188.735 173.748 185.759 177.792 182.783 180.184C179.307 182.98 175.015 184.332 170.827 184.956C167.739 185.416 164.583 185.044 161.847 184.34L161.843 184.348ZM177.871 163.048C179.451 162.124 180.687 161.012 181.575 159.772C182.463 158.532 182.903 157.224 182.899 155.884C182.891 154.544 182.439 153.476 181.535 152.66C180.631 151.844 179.359 151.356 177.719 151.148C176.079 150.94 174.219 151.024 172.143 151.352C170.135 151.668 168.343 152.18 166.779 152.916C165.211 153.652 164.007 154.544 163.159 155.636C162.311 156.728 161.907 157.9 161.935 159.176C161.967 160.452 162.439 161.576 163.343 162.532C164.247 163.488 165.499 164.208 167.103 164.648C168.703 165.088 170.495 165.188 172.479 164.896C174.495 164.6 176.295 163.972 177.875 163.048H177.871Z" fill="#F44E22"/>
<path d="M32.5548 121.996V125.544H30.8708V116.16H32.5548V119.696H39.2628V121.996H32.5548Z" fill="#F44E22"/>
<path d="M30.7148 113.608L30.8708 111.328L34.0469 111.548L34.4268 106.044L31.2508 105.824L31.4068 103.544L39.7788 104.12L39.6228 106.4L36.0588 106.156L35.6788 111.66L39.2428 111.904L39.0868 114.184L30.7148 113.608Z" fill="#F44E22"/>
<path d="M32.0149 99.9638L33.9629 91.6318L35.4549 91.9798L34.0109 98.1558L35.8469 98.5838L37.1829 92.8678L38.5149 93.1798L37.1789 98.8958L39.1869 99.3638L40.6589 93.0758L42.1629 93.4278L40.1869 101.876L32.0149 99.9638Z" fill="#F44E22"/>
<path d="M45.063 85.0318C44.347 85.6838 43.583 86.0758 42.767 86.2198C41.951 86.3598 41.135 86.2278 40.319 85.8278C39.507 85.4278 38.911 84.8718 38.523 84.1638C38.135 83.4558 37.963 82.6478 38.007 81.7318C38.051 80.8198 38.323 79.8558 38.823 78.8398C39.191 78.0918 39.635 77.4598 40.155 76.9398C40.675 76.4198 41.239 76.0438 41.843 75.8078C42.451 75.5718 43.063 75.4958 43.683 75.5718L43.235 77.6518C42.863 77.6078 42.499 77.6518 42.143 77.7838C41.787 77.9158 41.459 78.1318 41.147 78.4278C40.839 78.7278 40.575 79.0958 40.359 79.5318C40.059 80.1398 39.899 80.7198 39.871 81.2758C39.847 81.8318 39.955 82.3278 40.203 82.7558C40.451 83.1838 40.827 83.5238 41.327 83.7718C41.819 84.0158 42.323 84.0918 42.835 84.0038C43.347 83.9158 43.827 83.6678 44.267 83.2598C44.711 82.8518 45.095 82.3118 45.427 81.6438C45.679 81.1358 45.835 80.6358 45.903 80.1438C45.971 79.6518 45.943 79.2038 45.819 78.7958C45.695 78.3878 45.487 78.0478 45.195 77.7718L46.511 76.0678C47.019 76.5118 47.379 77.0678 47.587 77.7358C47.795 78.4038 47.843 79.1438 47.727 79.9558C47.611 80.7678 47.347 81.5918 46.931 82.4278C46.395 83.5118 45.771 84.3798 45.055 85.0318H45.063Z" fill="#F44E22"/>
<path d="M43.4827 70.8879L48.4947 63.9519L49.7347 64.8479L46.0227 69.9879L47.5507 71.0919L50.9867 66.3359L52.0947 67.1359L48.6587 71.8919L50.3307 73.0999L54.1147 67.8639L55.3667 68.7679L50.2867 75.7999L43.4827 70.8839V70.8879Z" fill="#F44E22"/>
<path d="M62.3669 61.6079C62.1109 61.7079 61.8589 61.7519 61.6109 61.7359C61.3629 61.7199 61.1029 61.6879 60.8309 61.6399L59.4989 61.2039C59.2149 61.1319 58.9389 61.1279 58.6749 61.1959C58.4069 61.2639 58.1789 61.3919 57.9829 61.5879L56.0629 63.5039L58.2109 65.6559L56.5829 67.2799L50.6589 61.3359L55.3909 56.6159C55.8909 56.1159 56.3909 55.7679 56.8909 55.5639C57.3869 55.3599 57.8709 55.2999 58.3309 55.3839C58.7949 55.4639 59.2149 55.6959 59.5909 56.0719C59.8869 56.3679 60.0789 56.7039 60.1669 57.0759C60.2549 57.4479 60.2509 57.8439 60.1469 58.2519C60.0429 58.6599 59.8349 59.0639 59.5229 59.4639L59.5309 59.4719C59.7029 59.4239 59.8829 59.3959 60.0709 59.3879C60.2589 59.3839 60.4509 59.4119 60.6469 59.4719L61.8869 59.8319C62.0389 59.8599 62.1709 59.8639 62.2869 59.8479C62.4029 59.8319 62.5109 59.7759 62.6029 59.6799C62.6789 59.6039 62.7389 59.4879 62.7749 59.3439C62.8109 59.1959 62.8149 59.0519 62.7869 58.9159L63.8709 59.2519C63.8869 59.5679 63.8229 59.8959 63.6789 60.2359C63.5349 60.5759 63.3389 60.8679 63.0949 61.1119C62.8629 61.3439 62.6149 61.5119 62.3589 61.6119L62.3669 61.6079ZM57.7349 59.7999C57.9789 59.5559 58.1549 59.3119 58.2669 59.0719C58.3749 58.8319 58.4109 58.5999 58.3749 58.3799C58.3389 58.1599 58.2309 57.9599 58.0469 57.7759C57.8749 57.6039 57.6789 57.4999 57.4589 57.4639C57.2389 57.4279 57.0029 57.4599 56.7549 57.5599C56.5029 57.6599 56.2589 57.8279 56.0189 58.0679L53.3149 60.7639L55.0389 62.4919L57.7349 59.8039V59.7999Z" fill="#F44E22"/>
<path d="M60.7429 51.7998L67.6949 46.8118L68.5869 48.0558L63.4349 51.7518L64.5349 53.2838L69.3029 49.8598L70.0989 50.9718L65.3309 54.3958L66.5349 56.0718L71.7829 52.3038L72.6829 53.5598L65.6349 58.6198L60.7429 51.8038V51.7998Z" fill="#F44E22"/>
<path d="M70.6268 44.8679L73.4068 43.5519L79.1588 47.8679H79.1708L79.4468 40.6879L82.2468 39.3599L85.8428 46.9439L83.8708 47.8759L81.2908 42.4319L81.2708 42.4439L81.0268 49.2239L79.0988 50.1359L73.6308 46.0599L73.6108 46.0719L76.1908 51.5159L74.2188 52.4479L70.6228 44.8639L70.6268 44.8679Z" fill="#F44E22"/>
<path d="M90.5068 45.3638C89.5388 45.2118 88.7308 44.8678 88.0828 44.3278C87.4348 43.7918 87.0068 43.0918 86.7948 42.2278C86.5868 41.3798 86.6508 40.5638 86.9788 39.7758C87.3068 38.9878 87.8668 38.3078 88.6508 37.7318C89.4348 37.1558 90.4028 36.7278 91.5468 36.4518C92.6988 36.1718 93.7548 36.1078 94.7148 36.2638C95.6748 36.4198 96.4788 36.7678 97.1308 37.3118C97.7788 37.8558 98.2108 38.5558 98.4188 39.4118C98.6268 40.2598 98.5628 41.0718 98.2308 41.8518C97.8988 42.6318 97.3428 43.3118 96.5668 43.8878C95.7908 44.4638 94.8228 44.8958 93.6708 45.1758C92.5268 45.4558 91.4708 45.5158 90.5028 45.3638H90.5068ZM95.0508 42.7318C95.5308 42.3678 95.8748 41.9398 96.0788 41.4518C96.2828 40.9598 96.3228 40.4558 96.1948 39.9358C96.0668 39.4078 95.7988 38.9758 95.3948 38.6398C94.9908 38.3038 94.4868 38.0838 93.8948 37.9798C93.3028 37.8758 92.6508 37.9118 91.9468 38.0838C91.2388 38.2558 90.6428 38.5238 90.1588 38.8878C89.6788 39.2518 89.3348 39.6758 89.1268 40.1638C88.9228 40.6518 88.8828 41.1558 89.0108 41.6838C89.1388 42.2038 89.4028 42.6318 89.8108 42.9758C90.2188 43.3198 90.7188 43.5398 91.3148 43.6398C91.9108 43.7398 92.5628 43.7078 93.2708 43.5318C93.9748 43.3598 94.5668 43.0918 95.0468 42.7278L95.0508 42.7318Z" fill="#F44E22"/>
<path d="M101.023 34.8718L103.835 34.7198L109.451 40.6158H109.463L109.131 34.4358L111.307 34.3198L111.759 42.6998L108.971 42.8518L103.327 36.9238H103.315L103.651 43.1398L101.475 43.2558L101.023 34.8758V34.8718Z" fill="#F44E22"/>
<path d="M117.899 40.2998L114.411 34.3958L116.919 34.6838L119.235 38.8158H119.247L122.351 35.3038L124.879 35.5918L120.183 40.5598L119.851 43.4638L117.567 43.2038L117.899 40.2998Z" fill="#F44E22"/>
<path d="M132.375 45.9318C131.659 45.2638 131.179 44.5278 130.943 43.7198C130.707 42.9118 130.739 42.0918 131.047 41.2598C131.351 40.4398 131.859 39.7998 132.571 39.3278C133.283 38.8598 134.127 38.6038 135.103 38.5678C136.075 38.5278 137.115 38.7158 138.223 39.1238C139.335 39.5358 140.247 40.0718 140.955 40.7358C141.663 41.3998 142.135 42.1398 142.371 42.9558C142.607 43.7718 142.571 44.5918 142.267 45.4158C141.963 46.2358 141.459 46.8758 140.747 47.3358C140.035 47.7958 139.195 48.0518 138.231 48.0958C137.263 48.1398 136.223 47.9558 135.111 47.5438C134.007 47.1358 133.095 46.5958 132.379 45.9318H132.375ZM137.615 46.2878C138.219 46.2558 138.739 46.0918 139.183 45.7998C139.627 45.5078 139.939 45.1118 140.127 44.6078C140.315 44.0998 140.335 43.5918 140.187 43.0838C140.039 42.5758 139.747 42.1158 139.311 41.6998C138.875 41.2838 138.319 40.9478 137.639 40.6998C136.955 40.4478 136.311 40.3358 135.707 40.3678C135.103 40.3998 134.583 40.5598 134.139 40.8518C133.695 41.1398 133.383 41.5398 133.195 42.0478C133.011 42.5478 132.991 43.0558 133.135 43.5638C133.283 44.0758 133.571 44.5398 134.011 44.9558C134.447 45.3718 135.007 45.7078 135.695 45.9598C136.375 46.2118 137.015 46.3198 137.615 46.2878Z" fill="#F44E22"/>
<path d="M146.847 43.1199L154.111 47.3199L153.267 48.7799L147.979 45.7239L146.975 47.4599L151.647 50.1599L150.923 51.4159L146.251 48.7159L144.623 51.5319L142.643 50.3879L146.843 43.1239L146.847 43.1199Z" fill="#F44E22"/>
<path d="M161.687 55.3039L159.047 52.9359L160.171 51.6799L167.155 57.9439L166.031 59.1999L163.399 56.8399L158.919 61.8319L157.207 60.2959L161.687 55.3039Z" fill="#F44E22"/>
<path d="M169.339 60.2039L170.775 61.9839L168.299 63.9838L171.763 68.2759L174.239 66.2759L175.675 68.0559L169.143 73.3279L167.707 71.5479L170.487 69.3039L167.023 65.0119L164.243 67.2559L162.807 65.4759L169.339 60.2039Z" fill="#F44E22"/>
<path d="M177.671 71.0999L181.911 78.5319L180.579 79.2919L177.439 73.7839L175.799 74.7198L178.707 79.8198L177.519 80.4958L174.611 75.3958L172.819 76.4159L176.019 82.0279L174.679 82.7919L170.379 75.2559L177.671 71.0999Z" fill="#F44E22"/>
<path d="M185.187 86.0198L185.867 88.2038L182.467 89.2638V89.2758L187.179 92.4238L188.067 95.2718L183.363 92.0958L180.075 97.8238L179.231 95.1118L181.643 90.9638L180.175 89.9758L177.859 90.6998L177.179 88.5158L185.191 86.0198H185.187Z" fill="#F44E22"/>
<path d="M188.679 98.2718L189.931 106.736L188.415 106.96L187.487 100.688L185.623 100.964L186.483 106.772L185.131 106.972L184.275 101.164L182.235 101.464L183.179 107.852L181.651 108.076L180.383 99.4958L188.683 98.2678L188.679 98.2718Z" fill="#F44E22"/>
<path d="M184.675 113.572L190.143 109.436V111.96L186.299 114.728V114.74L190.143 117.428V119.972L184.675 115.872H181.751V113.572H184.675Z" fill="#F44E22"/>
<path d="M181.731 123.948C181.887 123.26 182.115 122.644 182.407 122.096C182.703 121.548 183.031 121.12 183.391 120.804L184.759 121.804C184.431 122.064 184.135 122.42 183.879 122.872C183.623 123.324 183.423 123.84 183.279 124.424C183.135 125.004 183.059 125.584 183.059 126.156C183.059 126.62 183.099 127.024 183.183 127.372C183.267 127.716 183.387 127.988 183.547 128.18C183.707 128.372 183.887 128.468 184.083 128.468C184.343 128.468 184.551 128.3 184.715 127.96C184.875 127.624 184.995 127.088 185.075 126.356L185.323 124.612C185.471 123.408 185.735 122.536 186.107 121.996C186.479 121.452 187.015 121.184 187.715 121.184C188.267 121.184 188.747 121.372 189.159 121.748C189.571 122.124 189.883 122.656 190.095 123.34C190.307 124.024 190.415 124.812 190.415 125.708C190.415 126.288 190.355 126.86 190.239 127.416C190.123 127.976 189.955 128.48 189.739 128.936C189.523 129.392 189.275 129.764 188.991 130.056L187.671 129.196C187.915 128.936 188.127 128.624 188.315 128.252C188.499 127.884 188.643 127.48 188.747 127.044C188.847 126.608 188.895 126.16 188.887 125.696C188.887 125.264 188.843 124.872 188.759 124.524C188.671 124.176 188.555 123.904 188.407 123.712C188.259 123.52 188.083 123.424 187.887 123.424C187.651 123.416 187.467 123.548 187.331 123.824C187.199 124.1 187.091 124.536 187.015 125.132L186.803 126.876C186.647 128.212 186.367 129.184 185.967 129.788C185.567 130.392 185.007 130.7 184.295 130.708C183.739 130.708 183.247 130.512 182.827 130.124C182.407 129.736 182.079 129.188 181.847 128.484C181.615 127.78 181.499 126.968 181.499 126.052C181.499 125.336 181.579 124.636 181.735 123.948H181.731Z" fill="#F44E22"/>
<path d="M86.471 123.98C86.467 123.492 86.867 122.944 87.355 122.776C87.843 122.608 88.235 122.872 88.235 123.36C88.235 123.848 87.847 124.36 87.355 124.532C86.867 124.7 86.479 124.472 86.471 123.98Z" fill="#F44E22"/>
<path d="M96.0388 127.6C95.5468 127.5 95.1108 127.356 94.7188 127.172C94.3308 126.984 94.0228 126.776 93.7988 126.54C94.0828 126.124 94.2268 125.92 94.5108 125.512C94.6948 125.736 94.9468 125.928 95.2708 126.096C95.5908 126.264 95.9628 126.396 96.3748 126.492C96.7908 126.592 97.1988 126.644 97.6108 126.652C97.9428 126.66 98.2308 126.64 98.4748 126.588C98.7228 126.54 98.9108 126.46 99.0508 126.356C99.1868 126.248 99.2548 126.124 99.2548 125.984C99.2548 125.8 99.1348 125.644 98.8948 125.516C98.6548 125.388 98.2748 125.288 97.7508 125.22C97.2548 125.14 97.0068 125.1 96.5068 125.036C95.6508 124.936 95.0268 124.784 94.6428 124.544C94.2588 124.304 94.0628 123.936 94.0628 123.44C94.0628 123.048 94.1988 122.692 94.4668 122.38C94.7348 122.068 95.1148 121.824 95.6028 121.656C96.0908 121.488 96.6508 121.404 97.2908 121.412C97.7068 121.416 98.1108 121.468 98.5068 121.568C98.9028 121.668 99.2668 121.808 99.5908 121.984C99.9148 122.16 100.183 122.356 100.391 122.576C100.147 122.932 100.023 123.112 99.7788 123.472C99.5948 123.284 99.3708 123.12 99.1068 122.972C98.8428 122.828 98.5548 122.712 98.2468 122.628C97.9348 122.544 97.6148 122.508 97.2868 122.504C96.9828 122.504 96.6988 122.532 96.4508 122.596C96.2028 122.66 96.0068 122.748 95.8708 122.86C95.7348 122.972 95.6668 123.096 95.6668 123.236C95.6668 123.4 95.7548 123.532 95.9508 123.624C96.1468 123.716 96.4588 123.784 96.8828 123.84C97.3788 123.9 97.6268 123.936 98.1268 124.012C99.0788 124.156 99.7708 124.404 100.203 124.724C100.635 125.044 100.855 125.464 100.859 125.972C100.859 126.368 100.719 126.704 100.443 126.984C100.167 127.26 99.7748 127.464 99.2748 127.6C98.7748 127.736 98.1948 127.792 97.5388 127.78C97.0308 127.772 96.5308 127.716 96.0388 127.616V127.6Z" fill="#F44E22"/>
<path d="M102.111 121.912C102.759 121.984 103.083 122.028 103.731 122.116C103.731 124.508 103.731 125.704 103.731 128.096C103.083 128.008 102.759 127.964 102.111 127.892C102.111 125.5 102.111 124.304 102.111 121.912Z" fill="#F44E22"/>
<path d="M105.243 122.336C106.047 122.46 106.447 122.528 107.251 122.672C108.759 124.7 109.515 125.728 111.023 127.784C111.023 127.784 111.027 127.784 111.031 127.784C111.031 126.02 111.031 125.136 111.031 123.372C111.651 123.492 111.963 123.552 112.587 123.672C112.587 126.064 112.587 127.26 112.587 129.652C111.791 129.5 111.391 129.42 110.595 129.268C109.079 127.204 108.323 126.172 106.807 124.136C106.807 124.136 106.803 124.136 106.799 124.136C106.799 125.912 106.799 126.796 106.799 128.572C106.179 128.464 105.867 128.412 105.247 128.316C105.247 125.924 105.247 124.728 105.247 122.336H105.243Z" fill="#F44E22"/>
<path d="M115.975 130.076C115.335 129.712 114.839 129.256 114.491 128.716C114.143 128.176 113.971 127.58 113.971 126.928C113.971 126.276 114.135 125.76 114.467 125.348C114.799 124.94 115.263 124.66 115.859 124.504C116.455 124.348 117.159 124.34 117.963 124.468C118.555 124.564 119.103 124.728 119.595 124.964C120.091 125.2 120.511 125.496 120.851 125.848C121.191 126.204 121.435 126.596 121.583 127.032C120.995 127.116 120.703 127.156 120.115 127.224C120.027 126.96 119.883 126.724 119.687 126.512C119.491 126.3 119.247 126.124 118.959 125.976C118.671 125.832 118.351 125.728 118.007 125.676C117.523 125.6 117.103 125.608 116.739 125.708C116.375 125.804 116.095 125.984 115.899 126.244C115.703 126.504 115.603 126.832 115.603 127.228C115.603 127.62 115.711 127.984 115.931 128.324C116.151 128.664 116.459 128.944 116.859 129.164C117.259 129.388 117.727 129.54 118.259 129.624C118.663 129.688 119.031 129.684 119.367 129.624C119.703 129.56 119.983 129.436 120.203 129.26C120.423 129.08 120.575 128.86 120.659 128.596C121.259 128.792 121.563 128.884 122.163 129.064C122.039 129.516 121.799 129.896 121.435 130.204C121.075 130.508 120.615 130.72 120.063 130.828C119.507 130.936 118.899 130.94 118.231 130.836C117.367 130.7 116.615 130.448 115.975 130.08V130.076Z" fill="#F44E22"/>
<path d="M123.419 125.296C125.859 125.472 127.079 125.5 129.519 125.292C129.519 125.728 129.519 125.948 129.519 126.384C127.711 126.536 126.807 126.544 124.999 126.476V127.82C126.671 127.884 127.507 127.88 129.183 127.752V128.728C127.511 128.852 126.675 128.856 124.999 128.796V130.264C126.839 130.332 127.759 130.324 129.603 130.164C129.603 130.604 129.603 130.824 129.603 131.264C127.131 131.48 125.895 131.456 123.419 131.276C123.419 128.884 123.419 127.688 123.419 125.296Z" fill="#F44E22"/>
<path d="M134.347 128.836C134.343 128.348 134.743 127.832 135.227 127.664C135.715 127.496 136.111 127.728 136.111 128.216C136.111 128.704 135.723 129.248 135.227 129.42C134.739 129.588 134.351 129.328 134.347 128.836Z" fill="#F44E22"/>
<path d="M103.831 100.368C105.651 96.3401 104.703 95.7481 99.3029 97.2041C103.411 93.9561 103.135 92.816 97.6829 91.708C103.135 90.596 103.403 89.444 99.3029 86.184C104.703 87.66 105.655 87.072 103.831 83.048C107.887 86.32 109.195 86.1521 110.447 81.9561C111.751 86.0561 113.071 86.1401 117.107 82.7281C115.347 86.8961 116.287 87.5401 121.659 86.0441C117.575 89.4081 117.863 90.5761 123.327 91.7281C117.887 92.8521 117.615 94.0121 121.743 97.3561C116.327 95.8721 115.367 96.512 117.131 100.676C113.083 97.272 111.755 97.36 110.447 101.46C109.195 97.264 107.887 97.1001 103.831 100.368Z" fill="#F44E22"/>
</svg>
