<svg width="203" height="262" viewBox="0 0 203 262" fill="none" xmlns="http://www.w3.org/2000/svg">
<path d="M2.47847 46.8279C1.81047 47.0839 1.09047 47.2319 0.334473 47.2479V47.1999C0.434473 47.1999 0.526469 47.1999 0.630469 47.1919C0.734469 47.1839 0.842464 47.1759 0.950464 47.1679C1.48246 47.1119 1.99047 46.9959 2.47847 46.8279Z" fill="#F9F8F4"/>
<path d="M6.79846 121.176C6.78646 124.776 3.91847 127.7 0.334473 127.796V127.728C3.89047 127.628 6.75846 124.744 6.79846 121.176Z" fill="#F9F8F4"/>
<path d="M6.78661 101.364C6.77461 101.532 6.75862 101.696 6.73462 101.856C6.75462 101.692 6.77861 101.528 6.78661 101.364Z" fill="#F9F8F4"/>
<path d="M6.73457 101.86C6.68257 102.264 6.60257 102.656 6.48257 103.036C6.45457 103.128 6.41856 103.224 6.38656 103.316C6.35456 103.408 6.31456 103.5 6.27856 103.592C6.20656 103.772 6.11857 103.948 6.03057 104.124C5.71057 104.724 5.29456 105.276 4.81456 105.744C3.65456 106.892 2.07057 107.612 0.330566 107.66V107.588C0.814566 107.576 1.28257 107.512 1.73457 107.4C2.56657 107.196 3.33056 106.84 4.01056 106.356C5.45856 105.32 6.47457 103.712 6.73057 101.86H6.73457Z" fill="#F9F8F4"/>
<path d="M6.77462 61.2799C6.61862 63.2879 5.56663 65.0479 4.01863 66.1479C3.33863 66.6319 2.57063 66.9879 1.74263 67.1919C1.29063 67.3039 0.818623 67.3679 0.338623 67.3799V67.3119C1.09062 67.2919 1.79862 67.1439 2.47462 66.8999C4.82262 66.0319 6.54262 63.8679 6.77462 61.2759V61.2799Z" fill="#F9F8F4"/>
<path d="M6.77063 162.016C6.64663 163.492 6.03862 164.828 5.10262 165.864C3.95862 167.132 2.33463 167.96 0.522632 168.06C0.458632 168.06 0.402623 168.068 0.338623 168.068V168C3.71062 167.912 6.44263 165.32 6.77063 162.016Z" fill="#F9F8F4"/>
<path d="M6.79846 201.696C6.79846 202.164 6.75047 202.62 6.65847 203.06C6.04647 206.02 3.45447 208.252 0.334473 208.34V208.268C0.398473 208.268 0.454469 208.268 0.518469 208.26C2.33447 208.16 3.95846 207.332 5.09846 206.064C6.14246 204.904 6.77847 203.376 6.79447 201.692L6.79846 201.696Z" fill="#F9F8F4"/>
<path d="M6.77462 182.124C6.49862 185.472 3.73862 188.104 0.338623 188.2V188.132C3.50262 188.044 6.11862 185.752 6.68662 182.732C6.72662 182.532 6.75862 182.328 6.77462 182.124Z" fill="#F9F8F4"/>
<path d="M6.78646 141.64C6.77446 141.944 6.74247 142.24 6.68247 142.528C6.11447 145.548 3.49847 147.84 0.334473 147.928V147.86C2.07047 147.812 3.65847 147.092 4.81847 145.944C5.30247 145.476 5.71447 144.924 6.03447 144.324C6.46247 143.508 6.72246 142.6 6.78646 141.636V141.64Z" fill="#F9F8F4"/>
<path d="M6.79454 81.116C6.78654 81.256 6.77454 81.396 6.75854 81.532C6.77054 81.392 6.78654 81.256 6.79454 81.116Z" fill="#F9F8F4"/>
<path d="M6.54677 82.644C6.53877 82.668 6.53476 82.688 6.53076 82.712C6.53876 82.688 6.54277 82.668 6.54677 82.644Z" fill="#F9F8F4"/>
<path d="M6.25447 83.448C6.36247 83.212 6.45046 82.964 6.52646 82.708C6.10646 84.168 5.21047 85.428 4.00247 86.288C3.92247 86.344 3.83847 86.4 3.75847 86.456C3.67847 86.508 3.59447 86.56 3.50647 86.612C3.42247 86.664 3.33447 86.712 3.24647 86.756C3.15847 86.804 3.07047 86.848 2.98247 86.888C2.89047 86.932 2.80246 86.972 2.71046 87.008C2.61846 87.048 2.52647 87.084 2.43047 87.12C2.33847 87.152 2.24247 87.188 2.14647 87.216C2.05047 87.244 1.95447 87.276 1.85447 87.3C1.65847 87.352 1.45846 87.396 1.26246 87.428C1.11046 87.452 0.954466 87.476 0.802466 87.492C0.646466 87.508 0.494473 87.516 0.334473 87.52V87.452C2.99447 87.38 5.25847 85.752 6.25447 83.444V83.448Z" fill="#F9F8F4"/>
<path d="M6.70682 81.9079C6.70682 81.9279 6.69882 81.9519 6.69482 81.9719C6.71882 81.8279 6.74682 81.6839 6.76282 81.5359C6.74682 81.6599 6.73082 81.7879 6.70682 81.9079Z" fill="#F9F8F4"/>
<path d="M202.399 47.1519V47.2559C202.147 47.2559 201.903 47.2319 201.663 47.2039C201.747 47.2039 201.827 47.2038 201.919 47.1958C202.011 47.1878 202.103 47.1799 202.195 47.1719H202.203C202.203 47.1719 202.239 47.1719 202.255 47.1719C202.271 47.1719 202.283 47.1719 202.307 47.1719C202.323 47.1719 202.331 47.1719 202.355 47.1639C202.375 47.1639 202.387 47.1639 202.403 47.1559L202.399 47.1519Z" fill="#F9F8F4"/>
<path d="M202.399 67.3201V67.388C201.355 67.372 200.367 67.1161 199.491 66.6681C197.331 65.5721 195.851 63.332 195.851 60.748C195.851 60.836 195.859 60.92 195.863 61.008C195.887 61.58 195.987 62.1401 196.151 62.6641C196.987 65.3361 199.467 67.284 202.399 67.324V67.3201Z" fill="#F9F8F4"/>
<path d="M195.855 80.9919C195.855 81.1119 195.863 81.2279 195.871 81.3479C195.863 81.2319 195.855 81.1119 195.855 80.9919Z" fill="#F9F8F4"/>
<path d="M202.399 87.46V87.5281C202.183 87.5281 201.967 87.508 201.759 87.488C201.747 87.488 201.735 87.488 201.723 87.488C201.523 87.464 201.327 87.4321 201.135 87.3921C200.663 87.2921 200.207 87.144 199.779 86.948C199.707 86.916 199.631 86.8801 199.563 86.8441C199.479 86.8041 199.395 86.7601 199.311 86.7161C199.235 86.6761 199.155 86.632 199.083 86.584C199.011 86.544 198.947 86.5001 198.875 86.4561C198.803 86.4121 198.735 86.3641 198.663 86.3161C198.635 86.2921 198.599 86.2721 198.571 86.2441C198.507 86.2001 198.447 86.152 198.383 86.1C198.303 86.036 198.223 85.976 198.151 85.908C198.075 85.84 197.995 85.772 197.919 85.696C197.847 85.628 197.779 85.56 197.711 85.488C197.639 85.416 197.575 85.3401 197.507 85.2681C197.439 85.1921 197.375 85.112 197.311 85.036C197.247 84.96 197.191 84.876 197.127 84.796C196.415 83.816 195.963 82.6321 195.871 81.3521C195.951 82.3401 196.243 83.264 196.707 84.084C196.975 84.564 197.299 85.008 197.683 85.396C198.863 86.648 200.539 87.436 202.395 87.46H202.399Z" fill="#F9F8F4"/>
<path d="M202.399 107.592V107.664C199.903 107.628 197.739 106.216 196.631 104.148C196.371 103.652 196.167 103.128 196.035 102.572C195.963 102.276 195.915 101.98 195.887 101.672C196.135 103.948 197.535 105.88 199.491 106.872C200.367 107.32 201.355 107.576 202.399 107.592Z" fill="#F9F8F4"/>
<path d="M202.399 127.732V127.8C200.739 127.776 199.231 127.148 198.079 126.12V126.112C196.779 124.952 195.939 123.3 195.859 121.444C196.043 124.916 198.895 127.676 202.399 127.732Z" fill="#F9F8F4"/>
<path d="M202.399 147.868V147.936C198.775 147.884 195.851 144.932 195.851 141.292C195.859 141.8 195.923 142.3 196.035 142.78C196.167 143.336 196.375 143.86 196.631 144.356C197.739 146.42 199.899 147.836 202.399 147.872V147.868Z" fill="#F9F8F4"/>
<path d="M202.399 168.004V168.072C199.091 168.02 196.367 165.556 195.919 162.356C195.891 162.16 195.867 161.96 195.859 161.76C195.971 163.572 196.803 165.188 198.071 166.32V166.328C199.227 167.352 200.735 167.984 202.395 168.008L202.399 168.004Z" fill="#F9F8F4"/>
<path d="M202.399 188.14V188.208C201.615 188.196 200.855 188.048 200.155 187.784H200.139C199.687 187.608 199.251 187.38 198.843 187.112C197.715 186.372 196.835 185.304 196.327 184.04C196.055 183.352 195.883 182.612 195.855 181.836C196.031 185.32 198.887 188.088 202.395 188.14H202.399Z" fill="#F9F8F4"/>
<path d="M202.399 208.276V208.348C202.183 208.348 201.975 208.328 201.763 208.308C201.515 208.284 201.27 208.24 201.034 208.188C200.95 208.168 200.867 208.148 200.779 208.124C200.603 208.076 200.422 208.02 200.254 207.96C200.158 207.928 200.067 207.888 199.975 207.848C199.903 207.824 199.835 207.788 199.763 207.76C199.647 207.708 199.539 207.652 199.427 207.592C199.351 207.552 199.271 207.512 199.199 207.472C199.179 207.46 199.163 207.448 199.143 207.44C199.063 207.392 198.982 207.344 198.906 207.292C198.834 207.248 198.759 207.196 198.691 207.148C198.667 207.132 198.643 207.116 198.619 207.1C198.551 207.048 198.483 206.996 198.415 206.944C198.339 206.884 198.258 206.824 198.182 206.756C198.034 206.628 197.887 206.492 197.747 206.352C197.675 206.28 197.607 206.208 197.543 206.136C197.475 206.06 197.411 205.984 197.347 205.908C196.527 204.908 195.991 203.66 195.875 202.292C195.887 202.384 195.898 202.476 195.91 202.564C196.358 205.764 199.079 208.228 202.391 208.28L202.399 208.276Z" fill="#F9F8F4"/>
<path d="M195.851 20.472C195.851 20.584 195.859 20.688 195.863 20.796C195.887 21.368 195.987 21.928 196.151 22.452C196.987 25.124 199.467 27.072 202.399 27.112V33.96C198.775 34.016 195.851 36.968 195.851 40.608C195.851 41.792 196.163 42.908 196.711 43.872C196.979 44.352 197.303 44.796 197.687 45.184C198.707 46.264 200.103 47.004 201.659 47.2C201.903 47.228 202.147 47.248 202.395 47.252V54.032C202.179 54.032 201.971 54.048 201.763 54.068C201.747 54.068 201.735 54.068 201.719 54.076C201.507 54.1 201.299 54.136 201.091 54.18C200.807 54.24 200.527 54.32 200.259 54.416C200.183 54.444 200.103 54.472 200.031 54.504C200.007 54.512 199.987 54.524 199.963 54.528C199.891 54.556 199.823 54.588 199.751 54.62C199.679 54.648 199.611 54.684 199.543 54.716C199.483 54.744 199.427 54.776 199.375 54.804C199.211 54.892 199.055 54.984 198.899 55.084C198.823 55.132 198.747 55.18 198.679 55.232C198.599 55.288 198.515 55.348 198.439 55.408C198.359 55.468 198.283 55.528 198.207 55.596C198.135 55.656 198.059 55.72 197.987 55.792C197.915 55.86 197.843 55.928 197.771 56C197.631 56.14 197.499 56.284 197.371 56.44C196.447 57.548 195.883 58.956 195.847 60.5C195.847 60.58 195.847 60.664 195.847 60.744C195.847 63.332 197.331 65.568 199.487 66.664C200.363 67.112 201.351 67.368 202.395 67.384V74.164C202.179 74.164 201.963 74.184 201.755 74.204C201.647 74.216 201.539 74.228 201.439 74.248C201.355 74.26 201.271 74.272 201.187 74.292C201.067 74.316 200.943 74.344 200.823 74.376C200.723 74.4 200.623 74.428 200.523 74.46C200.423 74.488 200.327 74.524 200.231 74.56C200.135 74.592 200.039 74.632 199.943 74.672C199.847 74.708 199.755 74.752 199.663 74.796C199.571 74.836 199.479 74.884 199.391 74.932C199.299 74.98 199.211 75.028 199.123 75.084C199.051 75.124 198.983 75.164 198.911 75.212C198.795 75.284 198.687 75.364 198.575 75.444C198.503 75.492 198.439 75.544 198.371 75.6C198.211 75.72 198.063 75.856 197.915 76C196.643 77.204 195.847 78.916 195.847 80.812V80.88C195.847 82.34 196.319 83.692 197.123 84.792C197.179 84.872 197.243 84.956 197.307 85.032C197.367 85.112 197.427 85.192 197.503 85.264C197.563 85.34 197.631 85.416 197.707 85.484C197.775 85.556 197.843 85.624 197.915 85.692C197.991 85.764 198.071 85.836 198.147 85.904C198.219 85.976 198.299 86.036 198.379 86.096C198.439 86.148 198.499 86.196 198.567 86.24C198.595 86.264 198.631 86.288 198.659 86.312C198.731 86.36 198.799 86.408 198.871 86.452C198.939 86.5 199.007 86.54 199.079 86.58C199.151 86.628 199.231 86.672 199.307 86.712C199.387 86.756 199.475 86.8 199.559 86.84C199.631 86.876 199.703 86.912 199.775 86.944C200.207 87.14 200.659 87.288 201.131 87.388C201.323 87.428 201.519 87.46 201.719 87.484C201.735 87.484 201.743 87.484 201.755 87.484C201.967 87.508 202.179 87.52 202.395 87.524V94.304C200.047 94.336 197.991 95.592 196.835 97.46C196.255 98.404 195.899 99.5 195.855 100.676C195.855 100.768 195.847 100.856 195.847 100.948V101.016C195.847 101.088 195.847 101.16 195.855 101.228C195.855 101.376 195.867 101.524 195.883 101.668C195.907 101.976 195.959 102.272 196.031 102.568C196.163 103.124 196.371 103.648 196.627 104.144C197.735 106.208 199.895 107.624 202.395 107.66V114.436C199.339 114.488 196.783 116.592 196.055 119.432C195.951 119.856 195.883 120.3 195.859 120.752V120.788C195.851 120.888 195.847 120.984 195.847 121.084V121.152C195.847 121.252 195.847 121.348 195.855 121.444C195.935 123.3 196.779 124.952 198.071 126.112V126.12C199.227 127.144 200.735 127.776 202.395 127.8V134.58C198.863 134.632 195.995 137.44 195.855 140.952C195.855 141.044 195.847 141.132 195.847 141.224V141.292C195.847 144.932 198.771 147.884 202.395 147.936V154.712C202.311 154.712 202.227 154.712 202.135 154.728C200.723 154.8 199.435 155.316 198.395 156.132C196.927 157.284 195.951 159.04 195.855 161.024C195.847 161.144 195.843 161.268 195.843 161.392V161.424C195.843 161.536 195.843 161.644 195.855 161.756C195.863 161.96 195.883 162.16 195.915 162.352C196.363 165.552 199.083 168.016 202.395 168.068V174.848C200.107 174.88 198.099 176.072 196.927 177.868C196.623 178.32 196.383 178.816 196.207 179.344C196.019 179.88 195.903 180.444 195.863 181.028C195.863 181.036 195.863 181.044 195.863 181.048C195.855 181.124 195.851 181.208 195.847 181.284C195.847 181.376 195.847 181.468 195.847 181.56C195.847 181.652 195.847 181.74 195.855 181.828C195.883 182.604 196.055 183.344 196.327 184.032C196.835 185.296 197.715 186.364 198.843 187.1C199.247 187.372 199.683 187.6 200.139 187.772H200.155C200.851 188.04 201.611 188.188 202.399 188.2V194.98C199.031 195.032 196.275 197.58 195.895 200.86C195.875 201.028 195.863 201.204 195.859 201.38C195.859 201.44 195.859 201.5 195.851 201.56V201.688C195.851 201.744 195.851 201.804 195.851 201.856C195.851 201.928 195.851 202 195.863 202.068C195.943 203.516 196.491 204.84 197.355 205.892C197.415 205.968 197.479 206.048 197.551 206.12C197.615 206.192 197.683 206.268 197.755 206.336C197.895 206.48 198.039 206.616 198.191 206.74C198.267 206.808 198.343 206.868 198.423 206.928C198.491 206.984 198.555 207.036 198.627 207.084C198.651 207.1 198.671 207.116 198.699 207.132C198.771 207.184 198.843 207.232 198.915 207.276C198.991 207.332 199.071 207.38 199.151 207.424C199.171 207.436 199.187 207.448 199.207 207.456C199.279 207.5 199.359 207.54 199.435 207.576C199.547 207.636 199.655 207.692 199.771 207.744C199.843 207.776 199.911 207.808 199.983 207.832C200.075 207.872 200.167 207.908 200.263 207.944C200.431 208.004 200.611 208.06 200.787 208.108C200.871 208.132 200.955 208.152 201.043 208.172C201.279 208.228 201.523 208.268 201.771 208.292C201.983 208.316 202.191 208.328 202.407 208.332V215.108C202.307 215.108 202.195 215.116 202.099 215.124C201.743 215.148 201.403 215.196 201.067 215.272C200.563 215.384 200.075 215.552 199.619 215.772C197.403 216.852 195.867 219.12 195.867 221.756C195.867 222.628 196.039 223.46 196.347 224.228C196.855 225.492 197.735 226.56 198.863 227.296C199.267 227.568 199.703 227.796 200.159 227.968H200.175C200.871 228.236 201.631 228.384 202.419 228.396V235.244C200.783 235.268 199.295 235.884 198.151 236.884C197.739 237.24 197.375 237.648 197.071 238.096C196.319 239.168 195.871 240.484 195.871 241.892C195.871 245.532 198.795 248.48 202.419 248.54V255.5C202.419 255.5 202.403 255.5 202.395 255.5C202.323 255.492 202.243 255.484 202.167 255.476C202.111 255.476 202.051 255.468 201.999 255.464C201.887 255.456 201.775 255.452 201.659 255.452C201.559 255.452 201.451 255.452 201.355 255.46C201.187 255.468 201.015 255.484 200.855 255.5C198.371 255.804 196.311 257.472 195.451 259.736C195.247 260.268 195.111 260.836 195.051 261.424C195.031 261.596 195.019 261.78 195.019 261.956H188.167C188.095 258.56 185.483 255.796 182.155 255.48C182.051 255.468 181.939 255.46 181.831 255.456C181.731 255.456 181.623 255.448 181.523 255.448C181.351 255.448 181.183 255.456 181.019 255.468C180.947 255.476 180.863 255.48 180.795 255.492C178.491 255.744 176.543 257.172 175.559 259.164C175.307 259.672 175.123 260.22 175.011 260.792C174.939 261.172 174.891 261.56 174.887 261.956H168.035C167.963 258.64 165.471 255.924 162.259 255.512C162.155 255.496 162.051 255.488 161.947 255.48C161.803 255.464 161.663 255.456 161.519 255.456C161.479 255.456 161.431 255.456 161.395 255.456H161.363C161.271 255.456 161.183 255.456 161.091 255.464C160.903 255.476 160.719 255.492 160.531 255.516C160.467 255.528 160.407 255.536 160.343 255.544C158.463 255.844 156.851 256.924 155.855 258.444V258.452C155.539 258.92 155.291 259.424 155.107 259.964C154.895 260.592 154.775 261.264 154.759 261.96H147.899C147.831 258.452 145.043 255.62 141.559 255.464C141.463 255.464 141.359 255.456 141.255 255.456H141.227C139.307 255.468 137.583 256.288 136.367 257.6C135.999 258.004 135.679 258.46 135.411 258.948C134.915 259.848 134.635 260.872 134.615 261.964H127.763C127.695 258.776 125.387 256.144 122.351 255.576C122.155 255.536 121.955 255.504 121.751 255.488C121.647 255.476 121.535 255.468 121.427 255.464C121.327 255.464 121.223 255.456 121.123 255.456C121.023 255.456 120.919 255.456 120.819 255.464C120.735 255.464 120.659 255.472 120.583 255.48C120.495 255.488 120.407 255.496 120.319 255.504C120.155 255.524 119.991 255.552 119.827 255.584C119.739 255.604 119.651 255.62 119.563 255.64C119.499 255.656 119.443 255.672 119.379 255.688C118.599 255.9 117.879 256.248 117.243 256.704C116.803 257.02 116.407 257.392 116.055 257.8C115.095 258.928 114.511 260.38 114.475 261.96H107.623C107.551 258.604 104.999 255.86 101.727 255.5C101.639 255.488 101.555 255.48 101.467 255.476H101.451C101.379 255.468 101.311 255.464 101.243 255.464C101.151 255.456 101.067 255.456 100.979 255.456C100.871 255.456 100.763 255.456 100.663 255.464C100.551 255.464 100.451 255.476 100.347 255.488C100.139 255.508 99.9306 255.536 99.7346 255.572C99.3306 255.648 98.9426 255.764 98.5666 255.912C98.0666 256.108 97.5986 256.36 97.1666 256.664C95.4986 257.836 94.3906 259.772 94.3426 261.96H87.4866C87.4146 258.564 84.8026 255.796 81.4786 255.484C81.3706 255.472 81.2666 255.464 81.1546 255.46C81.0506 255.46 80.9506 255.452 80.8466 255.452C80.7626 255.452 80.6786 255.452 80.5906 255.452C80.4506 255.452 80.3146 255.464 80.1826 255.48C80.1066 255.488 80.0386 255.496 79.9706 255.504C79.5666 255.556 79.1786 255.648 78.8066 255.768C76.1786 256.62 74.2706 259.056 74.2066 261.952H67.3586C67.2986 259.104 65.4466 256.7 62.8866 255.82C62.8066 255.792 62.7226 255.764 62.6386 255.74C62.6026 255.724 62.5626 255.716 62.5226 255.704C62.4546 255.684 62.3906 255.668 62.3226 255.652C62.0066 255.568 61.6826 255.512 61.3506 255.484C61.2866 255.476 61.2346 255.472 61.1746 255.468C61.0826 255.46 60.9826 255.456 60.8826 255.452H60.8666C60.8146 255.452 60.7586 255.452 60.7106 255.452H60.6786C60.5746 255.452 60.4746 255.452 60.3706 255.46C60.1586 255.472 59.9506 255.492 59.7386 255.524C59.7386 255.524 59.7226 255.524 59.7186 255.524C56.5586 255.992 54.1386 258.68 54.0666 261.956H47.2146C47.1706 259.896 46.1946 258.072 44.6866 256.88C44.2106 256.504 43.6706 256.192 43.1026 255.952C42.3466 255.64 41.5226 255.46 40.6506 255.452C40.6266 255.452 40.5986 255.452 40.5706 255.452C40.3426 255.452 40.1146 255.464 39.8866 255.484C39.7906 255.496 39.6986 255.508 39.6026 255.52C39.5106 255.532 39.4146 255.544 39.3226 255.564C39.2306 255.584 39.1386 255.6 39.0466 255.624C36.4026 256.248 34.3666 258.448 33.9866 261.188C33.9546 261.44 33.9306 261.696 33.9266 261.956H27.0746C27.0506 260.968 26.8186 260.032 26.4106 259.2C26.0746 258.512 25.6306 257.892 25.0946 257.364C23.9706 256.256 22.4546 255.544 20.7706 255.46C20.6546 255.46 20.5506 255.452 20.4346 255.452C20.3426 255.452 20.2506 255.452 20.1586 255.46C20.0466 255.46 19.9426 255.472 19.8346 255.484C16.4866 255.78 13.8586 258.552 13.7866 261.96H6.93464C6.91864 261.128 6.75063 260.332 6.45063 259.604C5.52663 257.32 3.37463 255.676 0.810632 255.476C0.750632 255.476 0.690644 255.468 0.634644 255.464C0.562644 255.464 0.490636 255.464 0.414636 255.456H0.358643V248.54C3.47864 248.452 6.07064 246.22 6.68264 243.26C6.77464 242.82 6.82264 242.364 6.82264 241.896C6.82264 241.668 6.81464 241.436 6.79064 241.208C6.45464 237.98 3.81864 235.444 0.546643 235.268C0.482643 235.26 0.426634 235.252 0.362634 235.252V228.396C3.95063 228.296 6.82664 225.368 6.82664 221.76C6.82664 220.908 6.67463 220.1 6.37463 219.352C6.18663 218.852 5.92664 218.384 5.62664 217.952C5.48664 217.748 5.33463 217.556 5.17463 217.372C5.16663 217.364 5.15864 217.356 5.15464 217.352C3.97864 216.02 2.26663 215.168 0.362634 215.112V208.328C3.48263 208.24 6.07463 206.008 6.68663 203.048C6.77863 202.608 6.82664 202.152 6.82664 201.684C6.82664 201.624 6.82664 201.564 6.82664 201.504C6.82664 201.432 6.82664 201.364 6.81864 201.292C6.81864 201.192 6.81064 201.092 6.79464 200.996C6.78264 200.892 6.77064 200.792 6.75864 200.692C6.49464 198.744 5.38264 197.068 3.80264 196.044C3.17064 195.636 2.46663 195.328 1.71063 195.152C1.27863 195.048 0.826634 194.988 0.362634 194.976V188.188C3.76263 188.092 6.52263 185.456 6.79863 182.112C6.81863 181.928 6.82264 181.74 6.82264 181.552V181.48C6.82264 181.328 6.82263 181.176 6.81063 181.032C6.58663 177.632 3.79464 174.932 0.358643 174.836V168.048C0.422643 168.048 0.478639 168.048 0.542639 168.04C2.35864 167.94 3.98264 167.116 5.12264 165.844C6.05864 164.808 6.66664 163.472 6.79064 161.996C6.80264 161.888 6.81064 161.784 6.81464 161.676C6.82264 161.588 6.82264 161.5 6.82264 161.408V161.34C6.82264 160.236 6.55864 159.196 6.08264 158.28C5.80264 157.736 5.44264 157.236 5.03464 156.796C3.85864 155.544 2.20664 154.748 0.358643 154.696V147.908C3.52264 147.82 6.13864 145.528 6.70664 142.508C6.76664 142.22 6.79863 141.92 6.81063 141.62C6.81863 141.5 6.82264 141.388 6.82264 141.268C6.82264 141.192 6.82264 141.116 6.82264 141.044C6.82264 140.972 6.82264 140.896 6.81464 140.824C6.62264 137.388 3.82663 134.66 0.362634 134.564V127.776C3.94663 127.68 6.81464 124.76 6.82664 121.156V121.132C6.82664 120.996 6.82664 120.86 6.81464 120.724C6.79464 120.304 6.74264 119.892 6.64264 119.5C5.95464 116.644 3.41463 114.508 0.362634 114.424V107.64C2.09863 107.592 3.68664 106.872 4.84664 105.724C5.33064 105.256 5.74263 104.704 6.06263 104.104C6.15063 103.932 6.23463 103.752 6.31063 103.572C6.35063 103.48 6.38664 103.388 6.41864 103.296C6.45464 103.204 6.49064 103.112 6.51464 103.016C6.68264 102.484 6.78664 101.924 6.81864 101.344C6.82664 101.228 6.83064 101.116 6.83064 100.996C6.83064 100.876 6.83064 100.772 6.82264 100.66C6.82264 100.548 6.81063 100.444 6.79863 100.336C6.50663 97 3.75464 94.376 0.366638 94.288V87.5C0.526638 87.5 0.678644 87.484 0.834644 87.472C0.990644 87.456 1.14264 87.436 1.29464 87.408C1.49864 87.376 1.69463 87.336 1.88663 87.28C1.98663 87.256 2.08264 87.228 2.17864 87.196C2.27464 87.172 2.37063 87.136 2.46263 87.1C2.55863 87.068 2.65064 87.028 2.74264 86.988C2.83464 86.952 2.92664 86.912 3.01464 86.868C3.10664 86.828 3.19464 86.784 3.27864 86.736C3.36664 86.692 3.45064 86.644 3.53864 86.592C3.62264 86.544 3.70664 86.492 3.79064 86.436C3.87464 86.384 3.95464 86.332 4.03464 86.268C5.66664 85.108 6.75064 83.232 6.82264 81.096C6.82264 81.044 6.82264 80.988 6.82264 80.932V80.792C6.82264 80.704 6.82264 80.616 6.81464 80.532C6.79064 79.804 6.64663 79.112 6.39863 78.464C6.33063 78.272 6.25063 78.088 6.16263 77.908C6.03463 77.64 5.88664 77.38 5.72264 77.132C5.72264 77.132 5.71464 77.132 5.71464 77.124C5.60664 76.96 5.49063 76.796 5.36263 76.64C5.23863 76.484 5.10264 76.336 4.96664 76.192C4.89864 76.12 4.82664 76.048 4.75464 75.98C4.68264 75.908 4.61064 75.844 4.53464 75.78C4.46264 75.708 4.38264 75.648 4.30664 75.588C4.23464 75.524 4.15864 75.468 4.08264 75.416C3.99064 75.348 3.89864 75.288 3.80664 75.228C3.73064 75.172 3.65064 75.124 3.57064 75.08C3.48664 75.024 3.39863 74.976 3.31063 74.932C3.22663 74.88 3.13864 74.836 3.04664 74.796C2.95464 74.752 2.86264 74.708 2.77064 74.672C2.68264 74.632 2.59063 74.6 2.49863 74.564C2.22663 74.46 1.94664 74.376 1.65864 74.308C1.55864 74.284 1.45463 74.264 1.35063 74.248C1.26663 74.228 1.18264 74.22 1.09064 74.208C0.962637 74.184 0.830641 74.176 0.694641 74.164C0.582641 74.152 0.474643 74.148 0.358643 74.144V67.356C0.842643 67.344 1.31063 67.28 1.76263 67.168C2.59463 66.964 3.35864 66.608 4.03864 66.124C5.58664 65.02 6.63864 63.26 6.79464 61.256C6.80664 61.156 6.81064 61.056 6.81464 60.956C6.82264 60.88 6.82264 60.8 6.82264 60.72C6.82264 60.604 6.82264 60.496 6.81464 60.384C6.81464 60.276 6.80264 60.172 6.79064 60.064C6.73464 59.384 6.57864 58.736 6.33064 58.132C5.35864 55.768 3.05864 54.088 0.358643 54.016V47.228C1.11464 47.208 1.83464 47.06 2.50264 46.808C2.57464 46.784 2.64263 46.76 2.71063 46.732C2.86263 46.668 3.01064 46.604 3.15464 46.532C4.55064 45.836 5.66264 44.66 6.28264 43.224C6.49864 42.74 6.65064 42.22 6.73464 41.68C6.80264 41.324 6.82664 40.96 6.82664 40.588C6.82664 36.976 3.95463 34.044 0.362634 33.944V27.088C1.11463 27.068 1.82263 26.92 2.49863 26.676C5.02663 25.744 6.82664 23.308 6.82664 20.452C6.82664 19.56 6.65464 18.704 6.33464 17.928C5.36264 15.564 3.06263 13.884 0.362634 13.812V6.97599C0.462634 6.97599 0.554643 6.97599 0.658643 6.96799C0.762643 6.95999 0.870638 6.95199 0.978638 6.94399C4.33064 6.59999 6.95063 3.76799 6.95063 0.323987C6.95063 0.259987 6.93864 0.20399 6.93864 0.13999H13.7906C13.7906 0.20399 13.7906 0.259987 13.7906 0.323987C13.7906 3.90399 16.6146 6.82399 20.1586 6.96799C20.2506 6.96799 20.3506 6.97599 20.4426 6.97599H20.5026C24.1466 6.94399 27.0866 3.97199 27.0866 0.323987C27.0866 0.259987 27.0746 0.20399 27.0746 0.13999H33.9346C33.9346 0.20399 33.9226 0.259987 33.9226 0.323987C33.9226 0.659987 33.9506 0.987989 33.9986 1.30799C34.4506 4.39999 37.0426 6.79599 40.2146 6.96799C40.3306 6.96799 40.4546 6.97599 40.5706 6.97599H40.5946C40.7066 6.97599 40.8066 6.97599 40.9186 6.96399C40.9906 6.96399 41.0626 6.95599 41.1346 6.94799C41.2106 6.94799 41.2826 6.93599 41.3546 6.92399C41.4666 6.90799 41.5706 6.89599 41.6866 6.87599C41.7986 6.85599 41.9066 6.83599 42.0106 6.80799C43.3226 6.52399 44.4866 5.84799 45.3746 4.91199C46.5146 3.71999 47.2186 2.09999 47.2186 0.319989C47.2186 0.255989 47.2106 0.199986 47.2106 0.135986H54.0666C54.0666 0.199986 54.0546 0.255989 54.0546 0.319989C54.0546 3.76399 56.6706 6.59599 60.0266 6.93999C60.1066 6.94799 60.1906 6.95599 60.2706 6.95999C60.3146 6.95999 60.3586 6.96799 60.3986 6.96799C60.4986 6.96799 60.6026 6.97599 60.7066 6.97599C60.8106 6.97599 60.9186 6.97599 61.0266 6.96399C61.1386 6.96399 61.2426 6.95199 61.3506 6.93999C61.3626 6.93999 61.3746 6.93999 61.3826 6.93999C61.7266 6.90799 62.0586 6.84799 62.3826 6.76399C63.0346 6.59599 63.6546 6.31999 64.2186 5.96799C66.0986 4.79599 67.3546 2.70799 67.3546 0.327991C67.3546 0.263991 67.3426 0.207988 67.3386 0.143988H74.1906C74.1906 0.207988 74.1906 0.263991 74.1906 0.327991C74.1906 2.96399 75.7306 5.24399 77.9586 6.32799C78.1106 6.39999 78.2626 6.47199 78.4186 6.53199C78.4986 6.55999 78.5786 6.59199 78.6626 6.61999C78.7786 6.65999 78.8946 6.69599 79.0146 6.73199C79.1746 6.77599 79.3306 6.81599 79.4946 6.85199C79.6106 6.87599 79.7266 6.89599 79.8466 6.91599C79.9386 6.92799 80.0306 6.93999 80.1226 6.94799C80.1386 6.94799 80.1466 6.94799 80.1626 6.94799C80.2746 6.95999 80.3786 6.96799 80.4946 6.97199H80.5066C80.6066 6.97199 80.7106 6.97999 80.8146 6.97999H80.8426C80.9546 6.97999 81.0626 6.97999 81.1626 6.97199C84.6866 6.80399 87.4946 3.89199 87.4946 0.327991C87.4946 0.263991 87.4826 0.207988 87.4826 0.143988H94.3426C94.3426 0.207988 94.3306 0.263991 94.3306 0.327991C94.3306 2.60799 95.4786 4.61999 97.2306 5.81599C97.6626 6.11999 98.1346 6.35999 98.6386 6.55199C98.9546 6.67199 99.2786 6.76399 99.6146 6.83599C99.6266 6.83599 99.6386 6.84399 99.6546 6.84799C99.8066 6.87599 99.9626 6.90799 100.123 6.92399C100.299 6.94799 100.483 6.96399 100.667 6.97199C100.771 6.97199 100.875 6.97999 100.975 6.97999C101.075 6.97999 101.183 6.97999 101.283 6.97199C104.811 6.80799 107.623 3.89599 107.623 0.327991C107.623 0.263991 107.611 0.207988 107.607 0.143988H114.463C114.463 0.207988 114.455 0.263991 114.455 0.327991C114.455 1.78399 114.927 3.13599 115.715 4.23199C116.035 4.67199 116.403 5.06399 116.819 5.41199C117.447 5.94799 118.179 6.36399 118.979 6.63199C118.987 6.63199 118.991 6.63199 119.003 6.63999C119.143 6.68799 119.291 6.73199 119.439 6.76799C119.439 6.76799 119.451 6.76799 119.455 6.76799C119.499 6.77999 119.547 6.79199 119.591 6.79599C119.711 6.82399 119.835 6.85199 119.959 6.87199C119.971 6.87199 119.983 6.87199 119.991 6.87999C120.159 6.90399 120.331 6.93199 120.503 6.94799C120.603 6.95599 120.699 6.96399 120.807 6.96799C120.907 6.96799 121.007 6.97599 121.111 6.97599C121.215 6.97599 121.323 6.97599 121.423 6.96799C124.943 6.80399 127.755 3.89199 127.755 0.323987C127.755 0.259987 127.755 0.20399 127.755 0.13999H134.607C134.607 0.20399 134.607 0.259987 134.607 0.323987C134.607 1.05999 134.727 1.77199 134.955 2.43599C135.135 2.98399 135.383 3.49999 135.695 3.97199C136.575 5.31599 137.927 6.31999 139.515 6.74799C139.531 6.74799 139.543 6.75599 139.559 6.75999H139.571C139.751 6.81199 139.939 6.84799 140.131 6.87999C140.227 6.89999 140.319 6.91599 140.419 6.92799C140.503 6.93599 140.583 6.94399 140.675 6.95199C140.767 6.95999 140.855 6.96799 140.947 6.97599C141.039 6.97599 141.131 6.98399 141.223 6.98399H141.251C144.931 6.98399 147.907 4.00399 147.907 0.331989C147.907 0.267989 147.891 0.211992 147.891 0.147992H154.755C154.755 0.211992 154.739 0.267989 154.739 0.331989C154.739 0.451989 154.739 0.567988 154.751 0.687988C154.783 1.32399 154.903 1.93599 155.107 2.51199C155.819 4.56399 157.507 6.15999 159.607 6.74399C159.647 6.75599 159.683 6.76399 159.723 6.77199C159.799 6.79599 159.887 6.81199 159.971 6.83199C160.075 6.85599 160.175 6.87999 160.279 6.89599C160.379 6.91599 160.483 6.92799 160.587 6.93999C160.671 6.95199 160.763 6.95999 160.851 6.96399C160.931 6.97199 161.011 6.97599 161.083 6.97999C161.191 6.97999 161.291 6.98799 161.391 6.98799C161.475 6.98799 161.567 6.98799 161.659 6.97999C165.203 6.83999 168.043 3.91599 168.043 0.335986C168.043 0.271986 168.035 0.21599 168.031 0.15199H174.887C174.887 0.21599 174.879 0.271986 174.879 0.335986C174.879 0.599986 174.895 0.859989 174.919 1.11999C175.299 4.32399 177.943 6.82799 181.211 6.98399C181.315 6.98399 181.423 6.99199 181.527 6.99199C181.719 6.99199 181.919 6.98399 182.111 6.96799C182.123 6.96799 182.135 6.96799 182.147 6.96799C182.471 6.93999 182.791 6.88399 183.103 6.80399C183.199 6.77999 183.303 6.75199 183.399 6.72399C185.247 6.18799 186.755 4.86799 187.555 3.15599C187.959 2.30399 188.179 1.34799 188.179 0.343988C188.179 0.279988 188.179 0.223991 188.179 0.159991H195.031C195.031 0.223991 195.019 0.279988 195.019 0.343988C195.019 3.30799 196.955 5.81199 199.631 6.67599C199.663 6.68799 199.695 6.69999 199.723 6.70399C199.839 6.73999 199.955 6.77199 200.075 6.79999C200.239 6.83999 200.407 6.87599 200.579 6.90399C200.683 6.92799 200.795 6.93999 200.903 6.95199C201.155 6.97999 201.411 6.99599 201.671 6.99599C201.763 6.99599 201.855 6.99599 201.951 6.98799C202.043 6.97999 202.135 6.97199 202.227 6.96399H202.235C202.235 6.96399 202.271 6.96399 202.287 6.96399C202.303 6.96399 202.315 6.96399 202.339 6.96399C202.355 6.96399 202.363 6.96399 202.387 6.95599C202.407 6.95599 202.419 6.95599 202.435 6.94799V13.832C198.811 13.884 195.887 16.84 195.887 20.476L195.851 20.472Z" fill="#F9F8F4"/>
<path d="M33.8787 126.02C34.2907 123.652 34.4987 121.2 34.4987 118.676C34.4987 116.152 34.2907 113.704 33.8787 111.332C35.3747 113.188 37.7707 114.928 41.0667 116.552C44.3627 118.176 48.0507 119.476 52.1227 120.456C56.1947 121.436 60.0587 121.924 63.7187 121.924C66.7587 121.924 69.4507 121.628 71.7987 121.036C74.1427 120.444 75.9587 119.568 77.2467 118.408C78.5347 117.248 79.1787 115.872 79.1787 114.272C79.1787 111.18 76.8987 108.888 72.3387 107.392C67.7787 105.896 62.0707 105.1 55.2147 104.996C48.3587 104.892 41.4547 105.28 34.4987 106.156C34.9107 100.952 35.1187 95.4879 35.1187 89.7679C35.1187 84.0479 34.9107 78.5839 34.4987 73.3799C44.3947 73.7399 54.0947 73.9199 63.6027 73.9199C73.1107 73.9199 82.8147 73.7399 92.7067 73.3799C92.2947 76.2159 92.0867 79.0239 92.0867 81.8079C92.0867 84.5919 92.2907 86.7839 92.7067 88.3799C86.1627 87.0399 79.2427 86.0879 71.9507 85.5199C64.6587 84.9519 57.0947 84.6679 49.2627 84.6679C49.0027 86.5759 48.8747 88.9839 48.8747 91.8959C48.8747 94.8079 49.0027 97.4239 49.2627 99.7439C56.4787 97.7839 63.7067 96.8199 70.9467 96.8439C78.1867 96.8719 84.2067 98.2599 88.9987 101.02C93.7907 103.776 96.1867 108.092 96.1867 113.968C96.1867 120.308 93.1587 124.972 87.1027 127.96C81.0467 130.948 73.4587 132.444 64.3347 132.444C58.5107 132.444 52.7107 131.876 46.9427 130.744C41.1707 129.612 36.8147 128.04 33.8787 126.028V126.02Z" fill="#FF5729"/>
<path d="M137.239 132.588C130.747 132.588 125.051 131.376 120.155 128.956C115.259 126.536 111.459 123.04 108.751 118.48C106.047 113.92 104.691 108.468 104.691 102.128C104.691 95.7879 106.043 90.5839 108.751 86.0479C111.455 81.5119 115.255 78.0479 120.155 75.6519C125.051 73.2559 130.747 72.0559 137.239 72.0559C143.731 72.0559 149.351 73.2559 154.247 75.6519C159.143 78.0479 162.943 81.5159 165.651 86.0479C168.355 90.5839 169.711 95.9439 169.711 102.128C169.711 108.312 168.359 113.916 165.651 118.48C162.947 123.04 159.159 126.532 154.287 128.956C149.415 131.38 143.735 132.588 137.239 132.588ZM137.083 122.384C140.331 122.384 143.115 121.612 145.431 120.064C147.747 118.516 149.527 116.264 150.763 113.3C151.999 110.336 152.619 106.796 152.619 102.672C152.619 98.5479 151.999 95.1079 150.763 92.1959C149.527 89.2839 147.747 87.0559 145.431 85.5079C143.111 83.9599 140.327 83.1879 137.083 83.1879C133.839 83.1879 131.143 83.9599 128.851 85.5079C126.559 87.0559 124.803 89.2839 123.595 92.1959C122.383 95.1079 121.779 98.5999 121.779 102.672C121.779 106.744 122.383 110.34 123.595 113.3C124.807 116.264 126.559 118.52 128.851 120.064C131.143 121.612 133.887 122.384 137.083 122.384Z" fill="#FF5729"/>
<path d="M54.9386 188.08C55.3386 183.624 55.5747 177.352 55.6427 169.26C55.7107 161.172 55.6307 153.716 55.4067 146.896C50.5467 146.984 46.3226 147.22 42.7386 147.596C39.1506 147.976 35.7066 148.5 32.4106 149.168C32.7666 147.296 32.9467 145.424 32.9467 143.552C32.9467 141.68 32.7666 139.808 32.4106 137.936C43.8186 138.248 53.8946 138.404 62.6266 138.404C71.3587 138.404 81.4347 138.248 92.8427 137.936C92.5307 139.808 92.3747 141.68 92.3747 143.552C92.3747 145.424 92.5307 147.296 92.8427 149.168C89.4987 148.5 86.0226 147.976 82.4146 147.596C78.8027 147.22 74.5467 146.984 69.6467 146.896C69.4227 153.804 69.3787 161.292 69.5146 169.36C69.6466 177.428 69.9147 183.668 70.3187 188.08H54.9427H54.9386Z" fill="#FF5729"/>
<path d="M110.391 188.08C110.879 182.288 111.127 173.932 111.127 163.008C111.127 152.084 110.883 143.732 110.391 137.936C112.931 138.336 115.407 138.548 117.811 138.572C120.219 138.596 122.579 138.384 124.899 137.936C124.407 143.864 124.187 152.3 124.231 163.24C124.275 174.184 124.567 182.46 125.099 188.076H110.391V188.08ZM117.211 159.468C124.611 160.268 132.531 160.672 140.979 160.672C149.427 160.672 157.479 160.272 165.147 159.468V170.096C157.571 169.248 149.571 168.824 141.147 168.824C132.723 168.824 124.743 169.248 117.215 170.096V159.468H117.211ZM154.915 188.08C155.403 182.288 155.651 173.932 155.651 163.008C155.651 152.084 155.407 143.732 154.915 137.936C157.455 138.336 159.931 138.548 162.335 138.572C164.743 138.596 167.103 138.384 169.423 137.936C168.931 143.864 168.711 152.3 168.755 163.24C168.799 174.184 169.091 182.46 169.623 188.076H154.915V188.08Z" fill="#FF5729"/>
<path d="M34.6746 221.636C34.9666 221.032 35.2666 220.392 35.5706 219.716C35.8746 219.04 36.1706 218.376 36.4586 217.724C37.0586 216.332 37.5946 215.028 38.0746 213.808C38.5666 213.872 39.1826 213.904 39.9106 213.912C40.6426 213.92 41.2106 213.884 41.6226 213.808C42.1786 215.2 42.7266 216.504 43.2626 217.724C43.7146 218.768 44.3106 220.072 45.0466 221.64H42.4586C42.2346 220.944 41.9426 220.132 41.5826 219.196C41.1986 218.208 40.8386 217.312 40.5026 216.508C40.1666 215.704 39.9186 215.176 39.7666 214.928H39.8386C39.6386 215.276 39.1706 216.384 38.4386 218.248C38.2106 218.84 37.9866 219.424 37.7666 220C37.5466 220.576 37.3386 221.124 37.1466 221.64H34.6746V221.636ZM37.9906 218.836C38.5386 218.864 39.1626 218.876 39.8586 218.876C40.5546 218.876 41.1786 218.86 41.7266 218.836L42.1546 220.132C41.4786 220.104 40.6906 220.092 39.7906 220.092C38.8906 220.092 38.1026 220.108 37.4266 220.132L37.9906 218.836Z" fill="#FF5729"/>
<path d="M48.4425 221.636C48.4985 220.328 48.5265 219.02 48.5265 217.716C48.5265 216.412 48.4985 215.108 48.4425 213.808C48.8825 213.864 49.4105 213.892 50.0345 213.896C50.6585 213.896 51.1625 213.868 51.5545 213.808C52.0745 214.6 52.6105 215.388 53.1545 216.172C53.7025 216.956 54.2625 217.732 54.8385 218.504C55.1185 218.88 55.3985 219.252 55.6785 219.62C55.9585 219.988 56.2425 220.356 56.5305 220.728L55.8745 220.896C55.9145 219.72 55.9265 218.536 55.9065 217.348C55.8985 216.776 55.8865 216.192 55.8705 215.596C55.8545 214.996 55.8265 214.404 55.7905 213.812C56.1865 213.876 56.5745 213.908 56.9505 213.912C57.3265 213.916 57.6865 213.884 58.0345 213.812C58.0145 214.468 57.9985 215.12 57.9865 215.768C57.9745 216.42 57.9705 217.076 57.9705 217.736C57.9705 219.032 58.0025 220.332 58.0665 221.64H55.0305C54.6345 221.048 54.2305 220.464 53.8185 219.892C53.4065 219.32 52.9945 218.748 52.5745 218.184C51.7385 217.056 50.8665 215.932 49.9545 214.812L50.6105 214.644C50.5745 215.792 50.5665 216.948 50.5825 218.116C50.5985 219.28 50.6425 220.456 50.7145 221.64H48.4385L48.4425 221.636Z" fill="#FF5729"/>
<path d="M62.2386 221.636C62.2946 220.328 62.3226 219.02 62.3226 217.716C62.3226 216.412 62.2946 215.108 62.2386 213.808C62.6786 213.864 63.2066 213.892 63.8306 213.896C64.4546 213.896 64.9586 213.868 65.3506 213.808C65.8706 214.6 66.4066 215.388 66.9506 216.172C67.4986 216.956 68.0586 217.732 68.6346 218.504C68.9146 218.88 69.1946 219.252 69.4746 219.62C69.7546 219.988 70.0386 220.356 70.3266 220.728L69.6706 220.896C69.7106 219.72 69.7226 218.536 69.7026 217.348C69.6946 216.776 69.6826 216.192 69.6666 215.596C69.6506 214.996 69.6226 214.404 69.5866 213.812C69.9826 213.876 70.3706 213.908 70.7466 213.912C71.1226 213.916 71.4826 213.884 71.8306 213.812C71.8106 214.468 71.7946 215.12 71.7826 215.768C71.7706 216.42 71.7666 217.076 71.7666 217.736C71.7666 219.032 71.7986 220.332 71.8626 221.64H68.8266C68.4306 221.048 68.0266 220.464 67.6146 219.892C67.2026 219.32 66.7906 218.748 66.3706 218.184C65.5346 217.056 64.6626 215.932 63.7506 214.812L64.4066 214.644C64.3706 215.792 64.3626 216.948 64.3786 218.116C64.3946 219.28 64.4386 220.456 64.5106 221.64H62.2346L62.2386 221.636Z" fill="#FF5729"/>
<path d="M76.0386 221.636C76.1146 220.732 76.1546 219.428 76.1546 217.72C76.1546 216.012 76.1146 214.712 76.0386 213.804C76.4546 213.868 76.8626 213.9 77.2546 213.904C77.6466 213.904 78.0306 213.876 78.4066 213.804C78.3306 214.728 78.2946 216.048 78.3026 217.756C78.3106 219.464 78.3546 220.756 78.4386 221.632H76.0386V221.636Z" fill="#FF5729"/>
<path d="M91.7906 213.804C91.1786 215.072 90.6266 216.296 90.1306 217.48C89.6346 218.664 89.0826 220.048 88.4706 221.636H85.1306C84.9626 221.184 84.7986 220.736 84.6346 220.296C84.4706 219.856 84.3026 219.416 84.1266 218.988C83.4746 217.368 82.7066 215.64 81.8306 213.812C82.2626 213.86 82.6746 213.884 83.0666 213.884C83.4586 213.884 83.8706 213.86 84.3026 213.812C84.5666 214.612 84.9426 215.652 85.4306 216.932C85.7626 217.78 86.0746 218.536 86.3546 219.196C86.6386 219.856 86.8426 220.3 86.9746 220.52H86.7146C86.9146 220.16 87.3026 219.268 87.8666 217.852C88.4346 216.436 88.9586 215.088 89.4386 213.808C89.8506 213.856 90.2386 213.88 90.6146 213.88C90.9906 213.88 91.3786 213.856 91.7906 213.808V213.804Z" fill="#FF5729"/>
<path d="M95.1826 221.636C95.2586 220.732 95.2986 219.428 95.2986 217.72C95.2986 216.012 95.2586 214.712 95.1826 213.804C95.4386 213.84 95.9546 213.868 96.7266 213.892C97.4986 213.916 98.3306 213.932 99.2226 213.94C100.247 213.948 101.171 213.94 101.999 213.924C102.827 213.908 103.447 213.876 103.855 213.836C103.827 214.148 103.815 214.464 103.815 214.78C103.815 215.096 103.831 215.412 103.855 215.724C103.555 215.64 103.151 215.564 102.639 215.496C102.127 215.428 101.547 215.368 100.903 215.32C100.271 215.28 99.6506 215.248 99.0506 215.224C98.4506 215.204 97.9226 215.196 97.4706 215.204C97.4546 215.524 97.4466 215.844 97.4386 216.164C97.4306 216.484 97.4306 216.804 97.4386 217.124C98.3506 217.144 99.3546 217.136 100.455 217.1C101.555 217.06 102.443 217.012 103.127 216.948C103.099 217.2 103.087 217.46 103.087 217.732C103.087 218.004 103.099 218.264 103.127 218.516C102.431 218.46 101.535 218.416 100.435 218.38C99.3346 218.344 98.3346 218.34 97.4386 218.368C97.4386 219.092 97.4546 219.716 97.4906 220.236C97.9866 220.244 98.5346 220.236 99.1386 220.216C99.7426 220.196 100.339 220.16 100.923 220.112C101.535 220.072 102.099 220.016 102.619 219.944C103.139 219.872 103.551 219.796 103.855 219.716C103.827 220.028 103.815 220.348 103.815 220.676C103.815 221.004 103.831 221.324 103.855 221.636H95.1826Z" fill="#FF5729"/>
<path d="M107.771 221.636C107.847 220.732 107.886 219.428 107.886 217.72C107.886 216.012 107.847 214.712 107.771 213.804C108.291 213.812 108.779 213.816 109.227 213.816C109.675 213.816 110.111 213.808 110.527 213.796C110.819 213.784 111.119 213.772 111.423 213.772C111.727 213.772 112.051 213.768 112.395 213.768C113.927 213.768 115.054 213.956 115.782 214.336C116.51 214.716 116.875 215.296 116.875 216.072C116.875 216.664 116.686 217.132 116.306 217.48C115.926 217.828 115.486 218.068 114.986 218.204C114.486 218.34 114.026 218.408 113.61 218.408V218.576C114.558 218.748 115.314 219.136 115.886 219.74C116.458 220.34 116.898 220.972 117.21 221.636H114.215C114.151 221.004 114.01 220.488 113.786 220.096C113.562 219.704 113.243 219.404 112.827 219.2C112.411 218.996 111.862 218.86 111.186 218.8C111.018 218.78 110.835 218.764 110.627 218.76C110.423 218.752 110.214 218.748 110.006 218.748C110.034 219.764 110.05 220.34 110.058 220.48C110.066 220.688 110.079 220.888 110.095 221.076C110.111 221.264 110.127 221.452 110.143 221.64H107.775L107.771 221.636ZM109.991 217.448L110.482 217.48C110.746 217.496 111.03 217.508 111.334 217.52C111.638 217.532 111.935 217.54 112.227 217.54C112.743 217.54 113.175 217.496 113.523 217.404C113.871 217.312 114.134 217.176 114.31 216.992C114.486 216.808 114.579 216.576 114.579 216.3C114.579 215.904 114.383 215.616 113.991 215.432C113.599 215.252 113.043 215.16 112.327 215.16C112.063 215.16 111.799 215.16 111.539 215.164C111.279 215.168 111.027 215.176 110.791 215.192L110.039 215.204C110.023 215.552 110.014 215.912 110.006 216.284C109.998 216.656 109.995 217.044 109.995 217.448H109.991Z" fill="#FF5729"/>
<path d="M125.691 221.76C124.799 221.76 123.923 221.676 123.055 221.508C122.187 221.34 121.399 221.124 120.679 220.86C120.735 220.512 120.763 220.164 120.763 219.82C120.763 219.476 120.735 219.132 120.679 218.792C121.151 219.28 121.879 219.648 122.855 219.9C123.831 220.152 124.847 220.276 125.899 220.276C126.567 220.276 127.051 220.204 127.351 220.056C127.651 219.908 127.799 219.688 127.799 219.388C127.799 219.132 127.707 218.94 127.519 218.812C127.331 218.688 127.035 218.592 126.635 218.524C126.235 218.456 125.583 218.388 124.679 218.312C123.755 218.228 122.999 218.108 122.415 217.952C121.831 217.796 121.383 217.564 121.067 217.264C120.751 216.964 120.599 216.556 120.599 216.048C120.599 215.248 120.955 214.648 121.667 214.252C122.379 213.856 123.463 213.656 124.919 213.656C125.711 213.656 126.419 213.696 127.031 213.772C127.647 213.848 128.283 213.964 128.935 214.116C129.319 214.2 129.559 214.256 129.655 214.284C129.619 214.508 129.599 214.732 129.587 214.964C129.575 215.196 129.579 215.424 129.591 215.652C129.599 215.748 129.607 215.848 129.619 215.944C129.631 216.04 129.643 216.14 129.655 216.236C128.939 215.908 128.179 215.644 127.379 215.444C126.579 215.244 125.735 215.14 124.843 215.14C124.147 215.14 123.643 215.208 123.335 215.344C123.027 215.48 122.871 215.692 122.871 215.984C122.871 216.228 122.959 216.42 123.131 216.564C123.303 216.708 123.583 216.816 123.971 216.892C124.359 216.968 124.903 217.036 125.603 217.092C125.811 217.108 125.967 217.12 126.071 217.132C126.983 217.216 127.727 217.336 128.299 217.492C128.875 217.648 129.311 217.88 129.615 218.188C129.919 218.496 130.067 218.896 130.067 219.4C130.067 220.192 129.707 220.784 128.983 221.176C128.259 221.564 127.159 221.76 125.683 221.76H125.691Z" fill="#FF5729"/>
<path d="M132.999 221.636C133.291 221.032 133.591 220.392 133.895 219.716C134.199 219.04 134.495 218.376 134.783 217.724C135.383 216.332 135.919 215.028 136.399 213.808C136.891 213.872 137.507 213.904 138.235 213.912C138.967 213.92 139.535 213.884 139.947 213.808C140.503 215.2 141.051 216.504 141.587 217.724C142.039 218.768 142.635 220.072 143.371 221.64H140.783C140.559 220.944 140.267 220.132 139.907 219.196C139.523 218.208 139.163 217.312 138.827 216.508C138.491 215.704 138.243 215.176 138.091 214.928H138.163C137.963 215.276 137.495 216.384 136.763 218.248C136.535 218.84 136.311 219.424 136.091 220C135.871 220.576 135.663 221.124 135.471 221.64H132.999V221.636ZM136.319 218.836C136.867 218.864 137.491 218.876 138.187 218.876C138.883 218.876 139.507 218.86 140.055 218.836L140.483 220.132C139.807 220.104 139.019 220.092 138.119 220.092C137.219 220.092 136.431 220.108 135.755 220.132L136.319 218.836Z" fill="#FF5729"/>
<path d="M146.767 221.636C146.843 220.732 146.883 219.428 146.883 217.72C146.883 216.012 146.843 214.712 146.767 213.804C147.287 213.812 147.775 213.816 148.223 213.816C148.671 213.816 149.107 213.808 149.523 213.796C149.815 213.784 150.115 213.772 150.419 213.772C150.723 213.772 151.047 213.768 151.391 213.768C152.923 213.768 154.051 213.956 154.779 214.336C155.507 214.716 155.871 215.296 155.871 216.072C155.871 216.664 155.683 217.132 155.303 217.48C154.923 217.828 154.483 218.068 153.983 218.204C153.483 218.34 153.023 218.408 152.607 218.408V218.576C153.555 218.748 154.311 219.136 154.883 219.74C155.455 220.34 155.895 220.972 156.207 221.636H153.211C153.147 221.004 153.007 220.488 152.783 220.096C152.559 219.704 152.239 219.404 151.823 219.2C151.407 218.996 150.859 218.86 150.183 218.8C150.015 218.78 149.831 218.764 149.623 218.76C149.419 218.752 149.211 218.748 149.003 218.748C149.031 219.764 149.047 220.34 149.055 220.48C149.063 220.688 149.075 220.888 149.091 221.076C149.107 221.264 149.123 221.452 149.139 221.64H146.771L146.767 221.636ZM148.987 217.448L149.479 217.48C149.743 217.496 150.027 217.508 150.331 217.52C150.635 217.532 150.931 217.54 151.223 217.54C151.739 217.54 152.171 217.496 152.519 217.404C152.867 217.312 153.131 217.176 153.307 216.992C153.483 216.808 153.575 216.576 153.575 216.3C153.575 215.904 153.379 215.616 152.987 215.432C152.595 215.252 152.039 215.16 151.323 215.16C151.059 215.16 150.795 215.16 150.535 215.164C150.275 215.168 150.023 215.176 149.787 215.192L149.035 215.204C149.019 215.552 149.011 215.912 149.003 216.284C148.995 216.656 148.991 217.044 148.991 217.448H148.987Z" fill="#FF5729"/>
<path d="M162.079 221.636C162.135 221.164 162.163 220.692 162.163 220.22C162.163 219.748 162.135 219.284 162.079 218.816C161.515 218.044 160.863 217.196 160.115 216.268C159.427 215.4 158.747 214.576 158.079 213.804C158.531 213.868 159.003 213.9 159.499 213.904C159.995 213.908 160.399 213.876 160.719 213.804C161.079 214.388 161.507 215.052 162.003 215.796C162.539 216.568 162.995 217.204 163.371 217.708H163.047C163.547 217.04 163.999 216.404 164.403 215.796C164.835 215.168 165.263 214.504 165.687 213.804C166.007 213.872 166.403 213.908 166.871 213.904C167.339 213.904 167.803 213.868 168.255 213.804C167.607 214.556 166.931 215.376 166.219 216.268C165.887 216.684 165.555 217.108 165.227 217.532C164.899 217.956 164.575 218.384 164.255 218.816C164.207 219.276 164.183 219.74 164.183 220.208C164.183 220.676 164.211 221.152 164.267 221.632H162.075L162.079 221.636Z" fill="#FF5729"/>
<path d="M36.2346 232.367C36.2506 232.083 36.2586 231.795 36.2586 231.511C36.2586 231.227 36.2506 230.939 36.2346 230.655C35.8186 230.147 35.4386 229.687 35.0946 229.267C34.7626 228.867 34.3706 228.415 33.9226 227.907C34.0786 227.927 34.2426 227.939 34.4146 227.939C34.5866 227.939 34.7306 227.931 34.8506 227.907C35.0746 228.211 35.3786 228.607 35.7546 229.091C35.9026 229.311 36.2146 229.699 36.6826 230.251H36.5746C36.9546 229.791 37.2586 229.407 37.4986 229.091C37.7426 228.775 38.0426 228.379 38.3986 227.907C38.5146 227.931 38.6546 227.943 38.8226 227.939C38.9866 227.939 39.1466 227.927 39.3066 227.907C38.9306 228.339 38.5426 228.791 38.1426 229.267C37.9506 229.495 37.7586 229.727 37.5666 229.959C37.3746 230.191 37.1866 230.423 36.9946 230.655C36.9826 230.935 36.9786 231.219 36.9786 231.507C36.9786 231.795 36.9866 232.079 37.0026 232.371H36.2346V232.367Z" fill="#FF5729"/>
<path d="M45.2227 227.904C44.8507 228.636 44.5027 229.356 44.1707 230.064C43.8387 230.772 43.4867 231.54 43.1187 232.368H41.9427C41.8347 232.116 41.7227 231.864 41.6147 231.612C41.5027 231.364 41.3907 231.116 41.2787 230.868C41.0627 230.336 40.5867 229.348 39.8547 227.904C40.0027 227.92 40.1467 227.928 40.2827 227.928C40.4187 227.928 40.5627 227.92 40.7187 227.904C40.8907 228.336 41.1507 228.928 41.4907 229.684C41.6987 230.148 41.8987 230.58 42.0907 230.988C42.2827 231.396 42.4507 231.732 42.5947 232.004L42.4987 231.996C42.7347 231.544 43.0307 230.932 43.3867 230.16C43.7387 229.388 44.0827 228.636 44.4067 227.904C44.5467 227.92 44.6827 227.928 44.8147 227.928C44.9467 227.928 45.0827 227.92 45.2267 227.904H45.2227Z" fill="#FF5729"/>
<path d="M46.4307 232.367C46.4547 231.731 46.4667 230.979 46.4667 230.115C46.4667 229.251 46.4547 228.515 46.4307 227.907C46.6707 227.919 46.9907 227.931 47.3907 227.939C47.7907 227.947 48.2067 227.955 48.6387 227.959C49.1187 227.959 49.5667 227.959 49.9827 227.951C50.3987 227.947 50.7507 227.939 51.0347 227.931C51.0267 228.039 51.0227 228.151 51.0227 228.259C51.0227 228.367 51.0227 228.479 51.0347 228.587C50.7907 228.559 50.5107 228.535 50.1987 228.515C49.8867 228.495 49.5547 228.479 49.1987 228.459C48.8467 228.443 48.5027 228.431 48.1627 228.427C47.8227 228.423 47.5067 228.419 47.2107 228.419C47.2067 228.671 47.2027 228.927 47.2027 229.175C47.2027 229.427 47.2027 229.679 47.2027 229.931C47.7587 229.935 48.3427 229.931 48.9547 229.919C49.5667 229.907 50.1147 229.891 50.5987 229.871C50.5907 229.963 50.5867 230.059 50.5867 230.155C50.5867 230.251 50.5867 230.347 50.5987 230.439C50.1107 230.419 49.5627 230.403 48.9507 230.395C48.3387 230.383 47.7587 230.383 47.2067 230.395C47.2067 231.015 47.2147 231.503 47.2267 231.863C47.5307 231.863 47.8547 231.863 48.1947 231.855C48.5347 231.851 48.8707 231.839 49.2067 231.823C49.5547 231.811 49.8827 231.795 50.1947 231.771C50.5067 231.747 50.7867 231.727 51.0387 231.703C51.0307 231.815 51.0267 231.931 51.0267 232.043C51.0267 232.155 51.0267 232.271 51.0387 232.379H46.4307V232.367Z" fill="#FF5729"/>
<path d="M52.4187 232.368C52.4427 231.748 52.4547 231.004 52.4547 230.136C52.4547 229.268 52.4427 228.524 52.4187 227.904C52.6947 227.904 52.9626 227.908 53.2146 227.908C53.4666 227.908 53.7186 227.908 53.9626 227.904C54.1306 227.904 54.3026 227.896 54.4746 227.896C54.6466 227.896 54.8266 227.896 55.0106 227.896C55.7906 227.896 56.3706 228 56.7506 228.212C57.1306 228.424 57.3227 228.752 57.3227 229.2C57.3227 229.564 57.2066 229.84 56.9746 230.032C56.7426 230.224 56.4747 230.352 56.1707 230.416C55.8627 230.48 55.5426 230.508 55.2106 230.508V230.568C55.7626 230.644 56.2266 230.836 56.6026 231.148C56.9786 231.46 57.2826 231.864 57.5106 232.368H56.4787C56.3707 231.968 56.2187 231.648 56.0187 231.408C55.8187 231.168 55.5706 230.988 55.2626 230.868C54.9546 230.748 54.5706 230.68 54.1106 230.66C53.9306 230.66 53.7626 230.652 53.6106 230.652C53.4586 230.652 53.3186 230.652 53.1866 230.652C53.1946 231.152 53.2026 231.468 53.2026 231.6C53.2026 231.732 53.2026 231.864 53.2106 231.988C53.2186 232.116 53.2226 232.244 53.2266 232.372H52.4106L52.4187 232.368ZM53.1827 230.164L53.5626 230.176C53.7506 230.176 53.9387 230.184 54.1227 230.188C54.3067 230.192 54.4827 230.192 54.6427 230.192C55.0747 230.192 55.4227 230.164 55.6947 230.112C55.9667 230.056 56.1746 229.964 56.3146 229.828C56.4546 229.692 56.5266 229.508 56.5266 229.268C56.5266 228.964 56.3986 228.744 56.1386 228.608C55.8786 228.476 55.4946 228.408 54.9866 228.408H54.4227C54.2347 228.408 54.0507 228.408 53.8707 228.416H53.1947C53.1947 228.704 53.1866 228.988 53.1866 229.28C53.1866 229.568 53.1866 229.864 53.1866 230.16L53.1827 230.164Z" fill="#FF5729"/>
<path d="M60.5388 232.368C60.5588 231.824 60.5708 231.196 60.5708 230.48C60.5708 229.764 60.5708 229.076 60.5628 228.42C60.1308 228.42 59.7308 228.436 59.3628 228.452C58.9948 228.468 58.6348 228.496 58.2788 228.528C58.2948 228.428 58.3028 228.324 58.3028 228.22C58.3028 228.116 58.2948 228.012 58.2788 227.904C59.2308 227.92 60.1228 227.928 60.9508 227.928C61.7788 227.928 62.6708 227.92 63.6268 227.904C63.6108 228.008 63.6028 228.112 63.6028 228.22C63.6028 228.328 63.6108 228.428 63.6268 228.528C63.2668 228.496 62.9028 228.472 62.5348 228.452C62.1628 228.432 61.7628 228.424 61.3268 228.42C61.3188 229.084 61.3188 229.772 61.3268 230.488C61.3308 231.204 61.3468 231.828 61.3668 232.368H60.5388Z" fill="#FF5729"/>
<path d="M67.0747 232.367C67.0987 231.731 67.1107 230.979 67.1107 230.115C67.1107 229.251 67.0987 228.515 67.0747 227.907C67.3147 227.919 67.6347 227.931 68.0347 227.939C68.4347 227.947 68.8507 227.955 69.2827 227.959C69.7627 227.959 70.2107 227.959 70.6267 227.951C71.0427 227.947 71.3947 227.939 71.6787 227.931C71.6707 228.039 71.6667 228.151 71.6667 228.259C71.6667 228.367 71.6667 228.479 71.6787 228.587C71.4347 228.559 71.1547 228.535 70.8427 228.515C70.5307 228.495 70.1987 228.479 69.8427 228.459C69.4907 228.443 69.1467 228.431 68.8067 228.427C68.4667 228.423 68.1507 228.419 67.8547 228.419C67.8507 228.671 67.8467 228.927 67.8467 229.175C67.8467 229.427 67.8467 229.679 67.8467 229.931C68.4027 229.935 68.9867 229.931 69.5987 229.919C70.2107 229.907 70.7587 229.891 71.2427 229.871C71.2347 229.963 71.2307 230.059 71.2307 230.155C71.2307 230.251 71.2307 230.347 71.2427 230.439C70.7547 230.419 70.2067 230.403 69.5947 230.395C68.9827 230.383 68.4027 230.383 67.8507 230.395C67.8507 231.015 67.8587 231.503 67.8707 231.863C68.1747 231.863 68.4987 231.863 68.8387 231.855C69.1787 231.851 69.5147 231.839 69.8507 231.823C70.1987 231.811 70.5267 231.795 70.8387 231.771C71.1507 231.747 71.4307 231.727 71.6827 231.703C71.6747 231.815 71.6707 231.931 71.6707 232.043C71.6707 232.155 71.6707 232.271 71.6827 232.379H67.0747V232.367Z" fill="#FF5729"/>
<path d="M74.9106 232.368C74.9306 231.824 74.9426 231.196 74.9426 230.48C74.9426 229.764 74.9426 229.076 74.9346 228.42C74.5026 228.42 74.1026 228.436 73.7346 228.452C73.3666 228.468 73.0066 228.496 72.6506 228.528C72.6666 228.428 72.6746 228.324 72.6746 228.22C72.6746 228.116 72.6666 228.012 72.6506 227.904C73.6026 227.92 74.4946 227.928 75.3226 227.928C76.1506 227.928 77.0426 227.92 77.9986 227.904C77.9826 228.008 77.9746 228.112 77.9746 228.22C77.9746 228.328 77.9826 228.428 77.9986 228.528C77.6386 228.496 77.2746 228.472 76.9066 228.452C76.5346 228.432 76.1346 228.424 75.6986 228.42C75.6906 229.084 75.6906 229.772 75.6986 230.488C75.7026 231.204 75.7186 231.828 75.7386 232.368H74.9106Z" fill="#FF5729"/>
<path d="M83.2427 232.368C83.2627 231.824 83.2747 231.196 83.2747 230.48C83.2747 229.764 83.2747 229.076 83.2667 228.42C82.8347 228.42 82.4347 228.436 82.0667 228.452C81.6987 228.468 81.3387 228.496 80.9827 228.528C80.9987 228.428 81.0067 228.324 81.0067 228.22C81.0067 228.116 80.9987 228.012 80.9827 227.904C81.9347 227.92 82.8267 227.928 83.6547 227.928C84.4827 227.928 85.3747 227.92 86.3307 227.904C86.3147 228.008 86.3067 228.112 86.3067 228.22C86.3067 228.328 86.3147 228.428 86.3307 228.528C85.9707 228.496 85.6067 228.472 85.2387 228.452C84.8667 228.432 84.4667 228.424 84.0307 228.42C84.0227 229.084 84.0227 229.772 84.0307 230.488C84.0347 231.204 84.0507 231.828 84.0707 232.368H83.2427Z" fill="#FF5729"/>
<path d="M87.4868 232.367C87.5108 231.731 87.5228 230.979 87.5228 230.115C87.5228 229.251 87.5108 228.515 87.4868 227.907C87.7268 227.919 88.0468 227.931 88.4468 227.939C88.8468 227.947 89.2628 227.955 89.6948 227.959C90.1748 227.959 90.6228 227.959 91.0388 227.951C91.4548 227.947 91.8068 227.939 92.0908 227.931C92.0828 228.039 92.0788 228.151 92.0788 228.259C92.0788 228.367 92.0788 228.479 92.0908 228.587C91.8468 228.559 91.5668 228.535 91.2548 228.515C90.9428 228.495 90.6108 228.479 90.2548 228.459C89.9028 228.443 89.5588 228.431 89.2188 228.427C88.8788 228.423 88.5628 228.419 88.2668 228.419C88.2628 228.671 88.2588 228.927 88.2588 229.175C88.2588 229.427 88.2588 229.679 88.2588 229.931C88.8148 229.935 89.3988 229.931 90.0108 229.919C90.6228 229.907 91.1708 229.891 91.6548 229.871C91.6468 229.963 91.6428 230.059 91.6428 230.155C91.6428 230.251 91.6428 230.347 91.6548 230.439C91.1668 230.419 90.6188 230.403 90.0068 230.395C89.3948 230.383 88.8148 230.383 88.2628 230.395C88.2628 231.015 88.2708 231.503 88.2828 231.863C88.5868 231.863 88.9108 231.863 89.2508 231.855C89.5908 231.851 89.9268 231.839 90.2628 231.823C90.6108 231.811 90.9388 231.795 91.2508 231.771C91.5628 231.747 91.8428 231.727 92.0948 231.703C92.0868 231.815 92.0828 231.931 92.0828 232.043C92.0828 232.155 92.0828 232.271 92.0948 232.379H87.4868V232.367Z" fill="#FF5729"/>
<path d="M93.4746 232.368C93.4906 231.624 93.4986 230.88 93.4986 230.136C93.4986 229.392 93.4906 228.652 93.4746 227.904C93.6186 227.924 93.7626 227.936 93.9026 227.936C94.0426 227.936 94.1706 227.928 94.2906 227.904C94.2706 228.556 94.2586 229.192 94.2546 229.816C94.2466 230.564 94.2466 231.244 94.2546 231.856C94.8266 231.856 95.4786 231.836 96.2146 231.808C96.9506 231.78 97.5506 231.744 98.0226 231.7C98.0146 231.832 98.0106 231.948 98.0106 232.052C98.0106 232.156 98.0106 232.256 98.0226 232.368H93.4786H93.4746Z" fill="#FF5729"/>
<path d="M99.3628 232.368C99.3788 231.624 99.3868 230.88 99.3868 230.136C99.3868 229.392 99.3788 228.652 99.3628 227.904C99.5068 227.924 99.6508 227.936 99.7908 227.936C99.9308 227.936 100.059 227.928 100.179 227.904C100.159 228.556 100.147 229.192 100.143 229.816C100.135 230.564 100.135 231.244 100.143 231.856C100.715 231.856 101.367 231.836 102.103 231.808C102.839 231.78 103.439 231.744 103.911 231.7C103.903 231.832 103.899 231.948 103.899 232.052C103.899 232.156 103.899 232.256 103.911 232.368H99.3668H99.3628Z" fill="#FF5729"/>
<path d="M105.303 232.368C105.327 231.748 105.339 231.004 105.339 230.136C105.339 229.268 105.327 228.524 105.303 227.904C105.447 227.924 105.587 227.936 105.727 227.936C105.863 227.936 105.995 227.928 106.119 227.904C106.099 228.532 106.091 229.28 106.091 230.148C106.091 231.016 106.107 231.756 106.131 232.368H105.303Z" fill="#FF5729"/>
<path d="M107.771 232.367C107.795 231.731 107.807 230.979 107.807 230.115C107.807 229.251 107.795 228.515 107.771 227.907C108.011 227.919 108.331 227.931 108.731 227.939C109.131 227.947 109.547 227.955 109.979 227.959C110.459 227.959 110.907 227.959 111.323 227.951C111.739 227.947 112.091 227.939 112.375 227.931C112.367 228.039 112.363 228.151 112.363 228.259C112.363 228.367 112.363 228.479 112.375 228.587C112.131 228.559 111.851 228.535 111.539 228.515C111.227 228.495 110.895 228.479 110.539 228.459C110.187 228.443 109.843 228.431 109.503 228.427C109.163 228.423 108.847 228.419 108.551 228.419C108.547 228.671 108.543 228.927 108.543 229.175C108.543 229.427 108.543 229.679 108.543 229.931C109.099 229.935 109.683 229.931 110.295 229.919C110.907 229.907 111.455 229.891 111.939 229.871C111.931 229.963 111.927 230.059 111.927 230.155C111.927 230.251 111.927 230.347 111.939 230.439C111.451 230.419 110.903 230.403 110.291 230.395C109.679 230.383 109.099 230.383 108.547 230.395C108.547 231.015 108.555 231.503 108.567 231.863C108.871 231.863 109.195 231.863 109.535 231.855C109.875 231.851 110.211 231.839 110.547 231.823C110.895 231.811 111.223 231.795 111.535 231.771C111.847 231.747 112.127 231.727 112.379 231.703C112.371 231.815 112.367 231.931 112.367 232.043C112.367 232.155 112.367 232.271 112.379 232.379H107.771V232.367Z" fill="#FF5729"/>
<path d="M113.758 232.368C113.782 231.748 113.794 231.004 113.794 230.136C113.794 229.268 113.782 228.524 113.758 227.904C114.034 227.904 114.302 227.908 114.554 227.908C114.806 227.908 115.058 227.908 115.302 227.904C115.47 227.904 115.642 227.896 115.814 227.896C115.986 227.896 116.166 227.896 116.35 227.896C117.13 227.896 117.71 228 118.09 228.212C118.47 228.424 118.662 228.752 118.662 229.2C118.662 229.564 118.546 229.84 118.314 230.032C118.082 230.224 117.814 230.352 117.51 230.416C117.202 230.48 116.882 230.508 116.55 230.508V230.568C117.102 230.644 117.566 230.836 117.942 231.148C118.318 231.46 118.622 231.864 118.85 232.368H117.818C117.71 231.968 117.558 231.648 117.358 231.408C117.158 231.168 116.91 230.988 116.602 230.868C116.294 230.748 115.91 230.68 115.45 230.66C115.27 230.66 115.102 230.652 114.95 230.652C114.798 230.652 114.658 230.652 114.526 230.652C114.534 231.152 114.542 231.468 114.542 231.6C114.542 231.732 114.542 231.864 114.55 231.988C114.558 232.116 114.562 232.244 114.566 232.372H113.75L113.758 232.368ZM114.526 230.164L114.906 230.176C115.094 230.176 115.282 230.184 115.466 230.188C115.65 230.192 115.826 230.192 115.986 230.192C116.418 230.192 116.766 230.164 117.038 230.112C117.31 230.056 117.518 229.964 117.658 229.828C117.798 229.692 117.87 229.508 117.87 229.268C117.87 228.964 117.742 228.744 117.482 228.608C117.222 228.476 116.838 228.408 116.33 228.408H115.766C115.578 228.408 115.394 228.408 115.214 228.416H114.538C114.538 228.704 114.53 228.988 114.53 229.28C114.53 229.568 114.53 229.864 114.53 230.16L114.526 230.164Z" fill="#FF5729"/>
<path d="M127.199 230.448C127.191 230.492 127.187 230.551 127.187 230.627C127.187 230.703 127.187 230.76 127.199 230.8C126.511 230.788 125.667 230.779 124.671 230.779C123.675 230.779 122.831 230.788 122.143 230.8C122.155 230.76 122.159 230.703 122.159 230.627C122.159 230.551 122.155 230.496 122.143 230.448C122.827 230.456 123.671 230.459 124.671 230.459C125.671 230.459 126.515 230.46 127.203 230.448H127.199Z" fill="#FF5729"/>
<path d="M135.963 230.116C135.963 230.608 135.859 231.028 135.647 231.384C135.435 231.74 135.131 232.008 134.735 232.196C134.339 232.384 133.867 232.476 133.319 232.476C132.771 232.476 132.287 232.384 131.895 232.196C131.499 232.008 131.199 231.74 130.995 231.384C130.791 231.028 130.687 230.608 130.687 230.116C130.687 229.68 130.687 229.28 130.679 228.908C130.679 228.54 130.667 228.204 130.655 227.908C130.787 227.928 130.927 227.94 131.067 227.94C131.207 227.94 131.343 227.932 131.463 227.908C131.451 228.208 131.443 228.54 131.439 228.908C131.435 229.28 131.431 229.688 131.431 230.132C131.431 230.516 131.503 230.844 131.647 231.116C131.791 231.388 132.007 231.6 132.291 231.744C132.575 231.888 132.915 231.96 133.315 231.96C133.715 231.96 134.059 231.888 134.343 231.744C134.627 231.6 134.843 231.392 134.991 231.116C135.139 230.844 135.211 230.516 135.211 230.132C135.211 229.668 135.211 229.256 135.203 228.892C135.195 228.528 135.191 228.2 135.183 227.904C135.315 227.924 135.455 227.936 135.595 227.936C135.735 227.936 135.871 227.928 135.991 227.904C135.979 228.192 135.971 228.528 135.967 228.908C135.963 229.288 135.959 229.692 135.959 230.112L135.963 230.116Z" fill="#FF5729"/>
<path d="M139.175 232.367C139.191 232.083 139.199 231.795 139.199 231.511C139.199 231.227 139.191 230.939 139.175 230.655C138.759 230.147 138.379 229.687 138.035 229.267C137.703 228.867 137.311 228.415 136.863 227.907C137.019 227.927 137.183 227.939 137.355 227.939C137.527 227.939 137.671 227.931 137.791 227.907C138.015 228.211 138.319 228.607 138.695 229.091C138.843 229.311 139.155 229.699 139.623 230.251H139.515C139.895 229.791 140.199 229.407 140.439 229.091C140.683 228.775 140.983 228.379 141.339 227.907C141.455 227.931 141.595 227.943 141.763 227.939C141.927 227.939 142.087 227.927 142.247 227.907C141.871 228.339 141.483 228.791 141.083 229.267C140.891 229.495 140.699 229.727 140.507 229.959C140.315 230.191 140.127 230.423 139.935 230.655C139.923 230.935 139.919 231.219 139.919 231.507C139.919 231.795 139.927 232.079 139.943 232.371H139.175V232.367Z" fill="#FF5729"/>
<path d="M145.495 232.368C145.519 231.772 145.531 231.036 145.531 230.16C145.531 229.284 145.519 228.532 145.495 227.904C145.779 227.904 146.051 227.908 146.303 227.908C146.555 227.908 146.803 227.908 147.047 227.904C147.215 227.904 147.387 227.896 147.559 227.896C147.731 227.896 147.911 227.896 148.091 227.896C148.591 227.896 148.999 227.948 149.319 228.056C149.639 228.164 149.879 228.328 150.039 228.552C150.199 228.776 150.279 229.06 150.279 229.408C150.279 229.724 150.207 230 150.063 230.224C149.919 230.448 149.687 230.628 149.371 230.752C149.055 230.876 148.651 230.94 148.155 230.94H146.155V230.456H146.383C146.459 230.456 146.535 230.456 146.611 230.46C146.835 230.464 147.063 230.468 147.287 230.468C147.511 230.468 147.739 230.468 147.971 230.468C148.483 230.468 148.867 230.38 149.123 230.208C149.379 230.036 149.511 229.78 149.511 229.44C149.511 229.204 149.451 229.008 149.335 228.856C149.219 228.704 149.047 228.592 148.815 228.516C148.587 228.444 148.295 228.408 147.947 228.408H147.535C147.395 228.408 147.255 228.408 147.111 228.416C146.967 228.416 146.823 228.416 146.675 228.416C146.531 228.416 146.391 228.416 146.251 228.416C146.239 229.092 146.235 229.784 146.247 230.488C146.259 231.192 146.279 231.816 146.315 232.356H145.487L145.495 232.368Z" fill="#FF5729"/>
<path d="M150.639 232.367C150.819 232.011 151.003 231.647 151.187 231.267C151.371 230.887 151.555 230.511 151.731 230.139C152.159 229.251 152.507 228.507 152.775 227.907C152.951 227.927 153.167 227.939 153.419 227.939C153.671 227.939 153.871 227.931 154.027 227.907C154.319 228.559 154.675 229.303 155.083 230.139C155.407 230.803 155.771 231.547 156.183 232.367H155.291C155.199 232.107 155.043 231.735 154.819 231.251C154.647 230.839 154.443 230.387 154.207 229.895C153.971 229.403 153.691 228.859 153.363 228.267H153.399C153.351 228.347 153.003 229.075 152.355 230.447C152.211 230.771 152.067 231.091 151.919 231.415C151.771 231.739 151.635 232.055 151.495 232.367H150.639ZM152.047 230.863C152.467 230.871 152.919 230.875 153.411 230.875C153.903 230.875 154.355 230.875 154.775 230.863L154.915 231.335C154.455 231.327 153.947 231.323 153.391 231.323C152.835 231.323 152.327 231.327 151.867 231.335L152.047 230.863Z" fill="#FF5729"/>
<path d="M156.911 229.648C156.927 229.536 156.935 229.432 156.935 229.336C156.935 229.24 156.927 229.132 156.911 229.016C157.099 228.988 157.291 228.92 157.483 228.816C157.675 228.712 157.839 228.58 157.971 228.42C158.103 228.26 158.191 228.088 158.223 227.904C158.355 227.924 158.495 227.936 158.639 227.936C158.783 227.936 158.911 227.928 159.027 227.904C159.019 228.096 159.011 228.296 159.007 228.5C158.999 228.704 158.999 228.908 158.999 229.112C158.995 229.6 158.995 230.12 158.999 230.68C158.999 231.236 159.015 231.8 159.035 232.368H158.227C158.255 231.632 158.275 230.424 158.283 228.744V228.492H158.223C158.207 228.628 158.139 228.784 158.019 228.956C157.899 229.128 157.743 229.284 157.547 229.416C157.355 229.548 157.143 229.628 156.919 229.652L156.911 229.648Z" fill="#FF5729"/>
<path d="M162.859 232.432C162.355 232.432 161.919 232.384 161.547 232.292C161.175 232.2 160.887 232.056 160.683 231.872C160.479 231.688 160.379 231.468 160.379 231.212C160.379 231.012 160.439 230.832 160.563 230.676C160.687 230.52 160.867 230.392 161.111 230.3C161.355 230.208 161.647 230.148 161.991 230.132V230.072C161.619 230.032 161.311 229.932 161.063 229.776C160.815 229.62 160.691 229.38 160.691 229.056C160.691 228.8 160.779 228.58 160.955 228.4C161.131 228.22 161.379 228.084 161.703 227.988C162.027 227.892 162.411 227.848 162.859 227.848C163.307 227.848 163.691 227.896 164.019 227.988C164.347 228.084 164.595 228.22 164.767 228.4C164.939 228.58 165.027 228.796 165.027 229.056C165.027 229.376 164.903 229.616 164.655 229.776C164.407 229.936 164.099 230.032 163.727 230.072V230.132C164.075 230.148 164.367 230.204 164.607 230.3C164.847 230.396 165.031 230.52 165.155 230.676C165.279 230.832 165.339 231.012 165.339 231.212C165.339 231.464 165.239 231.684 165.039 231.872C164.839 232.06 164.551 232.196 164.175 232.292C163.799 232.388 163.363 232.432 162.859 232.432ZM162.859 231.932C163.179 231.932 163.467 231.9 163.719 231.836C163.971 231.772 164.167 231.676 164.311 231.548C164.455 231.42 164.527 231.272 164.527 231.104C164.527 230.844 164.375 230.64 164.067 230.492C163.763 230.344 163.359 230.272 162.859 230.272C162.547 230.272 162.263 230.304 162.007 230.368C161.755 230.432 161.555 230.528 161.411 230.656C161.267 230.784 161.195 230.932 161.195 231.104C161.195 231.276 161.267 231.42 161.415 231.548C161.563 231.676 161.763 231.772 162.015 231.836C162.267 231.9 162.551 231.932 162.859 231.932ZM162.859 229.952C163.319 229.952 163.671 229.884 163.915 229.752C164.159 229.62 164.283 229.428 164.283 229.172C164.283 229.02 164.227 228.884 164.111 228.76C163.995 228.64 163.831 228.544 163.615 228.48C163.399 228.412 163.147 228.38 162.859 228.38C162.571 228.38 162.319 228.412 162.103 228.48C161.887 228.548 161.723 228.64 161.607 228.76C161.491 228.88 161.431 229.016 161.431 229.172C161.431 229.424 161.555 229.62 161.803 229.752C162.051 229.884 162.403 229.952 162.855 229.952H162.859Z" fill="#FF5729"/>
<path d="M166.207 229.648C166.223 229.536 166.231 229.432 166.231 229.336C166.231 229.24 166.223 229.132 166.207 229.016C166.395 228.988 166.587 228.92 166.779 228.816C166.971 228.712 167.135 228.58 167.267 228.42C167.399 228.26 167.487 228.088 167.519 227.904C167.651 227.924 167.791 227.936 167.935 227.936C168.079 227.936 168.207 227.928 168.323 227.904C168.315 228.096 168.307 228.296 168.303 228.5C168.295 228.704 168.295 228.908 168.295 229.112C168.291 229.6 168.291 230.12 168.295 230.68C168.295 231.236 168.311 231.8 168.331 232.368H167.523C167.551 231.632 167.571 230.424 167.579 228.744V228.492H167.519C167.503 228.628 167.435 228.784 167.315 228.956C167.195 229.128 167.039 229.284 166.843 229.416C166.651 229.548 166.439 229.628 166.215 229.652L166.207 229.648Z" fill="#FF5729"/>
<path d="M35.4549 35.9321C35.5309 35.0281 35.5709 33.7241 35.5709 32.0161C35.5709 30.3081 35.5309 29.0081 35.4549 28.1001C35.9909 28.1081 36.4789 28.1121 36.9149 28.1121C37.3509 28.1121 37.7709 28.1041 38.1669 28.0921C38.4469 28.0801 38.7309 28.0681 39.0269 28.0641C39.3229 28.0641 39.6349 28.0601 39.9589 28.0601C41.0149 28.0601 41.8669 28.1441 42.5109 28.3121C43.1549 28.4801 43.6309 28.7561 43.9389 29.1481C44.2469 29.5401 44.4029 30.0681 44.4029 30.7361C44.4029 31.3281 44.2709 31.8281 44.0109 32.2401C43.7509 32.6521 43.3069 32.9721 42.6869 33.2001C42.0629 33.4281 41.2269 33.5441 40.1749 33.5441H37.4909V32.2481C37.5829 32.2481 37.6709 32.2481 37.7589 32.2521C37.8469 32.2561 37.9309 32.2601 38.0149 32.2681C38.2789 32.2761 38.5429 32.2841 38.8029 32.2881C39.0629 32.2961 39.3269 32.3001 39.5909 32.3001C40.4949 32.3001 41.1589 32.1801 41.5789 31.9401C41.9989 31.7001 42.2109 31.3401 42.2109 30.8601C42.2109 30.5041 42.1149 30.2281 41.9229 30.0241C41.7309 29.8201 41.4389 29.6761 41.0509 29.5921C40.6629 29.5041 40.1509 29.4601 39.5149 29.4601C39.3749 29.4601 39.2309 29.4601 39.0749 29.4641C38.9229 29.4641 38.7669 29.4721 38.6069 29.4801C38.4389 29.4881 38.2749 29.4921 38.1149 29.4961C37.9549 29.5001 37.8029 29.5001 37.6549 29.5001C37.6189 30.6481 37.6149 31.8441 37.6429 33.0841C37.6709 34.3281 37.7349 35.2761 37.8429 35.9281H35.4429L35.4549 35.9321Z" fill="#FF5729"/>
<path d="M55.4667 32.0801C55.4667 32.9361 55.2787 33.6721 54.9067 34.2921C54.5347 34.9121 53.9947 35.3841 53.2827 35.7121C52.5747 36.0401 51.7227 36.2041 50.7347 36.2041C49.7467 36.2041 48.8507 36.0401 48.1467 35.7121C47.4427 35.3841 46.9147 34.9121 46.5587 34.2961C46.2027 33.6801 46.0267 32.9401 46.0267 32.0801C46.0267 31.2201 46.0187 30.4441 45.9987 29.7561C45.9827 29.0721 45.9547 28.5201 45.9187 28.1001C46.3027 28.1641 46.7027 28.1961 47.1187 28.2001C47.5347 28.2041 47.9187 28.1721 48.2667 28.1001C48.2307 28.5241 48.2067 29.0761 48.1867 29.7561C48.1707 30.4361 48.1587 31.2281 48.1587 32.1321C48.1587 32.6961 48.2547 33.1761 48.4427 33.5721C48.6307 33.9681 48.9147 34.2721 49.2987 34.4841C49.6827 34.6961 50.1587 34.8041 50.7267 34.8041C51.2947 34.8041 51.7627 34.6961 52.1467 34.4841C52.5307 34.2721 52.8147 33.9641 53.0067 33.5641C53.1987 33.1641 53.2947 32.6841 53.2947 32.1281C53.2947 31.1761 53.2867 30.3681 53.2747 29.7081C53.2627 29.0481 53.2347 28.5121 53.2027 28.1001C53.5867 28.1641 53.9867 28.1961 54.4067 28.2001C54.8267 28.2001 55.2067 28.1721 55.5507 28.1001C55.5147 28.4961 55.4907 29.0521 55.4787 29.7641C55.4627 30.4761 55.4587 31.2481 55.4587 32.0761L55.4667 32.0801Z" fill="#FF5729"/>
<path d="M57.5946 35.932C57.6506 34.624 57.6786 33.316 57.6786 32.012C57.6786 30.708 57.6506 29.404 57.5946 28.104C58.0346 28.16 58.5626 28.188 59.1866 28.192C59.8106 28.192 60.3146 28.164 60.7066 28.104C61.2266 28.896 61.7626 29.684 62.3066 30.468C62.8546 31.252 63.4146 32.028 63.9906 32.8C64.2706 33.176 64.5506 33.548 64.8306 33.916C65.1106 34.284 65.3946 34.652 65.6826 35.024L65.0266 35.192C65.0666 34.016 65.0786 32.832 65.0586 31.644C65.0506 31.072 65.0386 30.488 65.0226 29.892C65.0066 29.292 64.9786 28.7 64.9426 28.108C65.3386 28.172 65.7266 28.204 66.1026 28.208C66.4786 28.212 66.8386 28.18 67.1866 28.108C67.1666 28.764 67.1506 29.416 67.1386 30.064C67.1266 30.716 67.1226 31.372 67.1226 32.032C67.1226 33.328 67.1546 34.628 67.2186 35.936H64.1826C63.7866 35.344 63.3826 34.76 62.9706 34.188C62.5586 33.612 62.1466 33.044 61.7266 32.48C60.8906 31.352 60.0186 30.228 59.1066 29.108L59.7626 28.94C59.7266 30.088 59.7186 31.244 59.7346 32.412C59.7506 33.576 59.7946 34.752 59.8666 35.936H57.5906L57.5946 35.932Z" fill="#FF5729"/>
<path d="M72.2507 35.9321C72.3147 35.2361 72.3507 34.2561 72.3587 32.9921C72.3667 31.7281 72.3587 30.5641 72.3227 29.5001C71.5627 29.5121 70.9067 29.5521 70.3427 29.6081C69.7787 29.6641 69.2467 29.7481 68.7307 29.8521C68.7867 29.5601 68.8147 29.2681 68.8147 28.9761C68.8147 28.6841 68.7867 28.3921 68.7307 28.1001C70.5107 28.1481 72.0827 28.1721 73.4467 28.1721C74.8107 28.1721 76.3827 28.1481 78.1627 28.1001C78.1147 28.3921 78.0907 28.6841 78.0907 28.9761C78.0907 29.2681 78.1147 29.5601 78.1627 29.8521C77.6387 29.7481 77.0987 29.6641 76.5347 29.6081C75.9707 29.5521 75.3067 29.5121 74.5427 29.5001C74.5067 30.5801 74.5027 31.7481 74.5227 33.0081C74.5427 34.2681 74.5867 35.2401 74.6467 35.9321H72.2467H72.2507Z" fill="#FF5729"/>
<path d="M77.5427 35.932C77.8347 35.328 78.1347 34.688 78.4387 34.012C78.7427 33.336 79.0387 32.672 79.3267 32.02C79.9267 30.628 80.4627 29.324 80.9427 28.104C81.4347 28.168 82.0507 28.2 82.7787 28.208C83.5107 28.216 84.0787 28.18 84.4907 28.104C85.0467 29.496 85.5947 30.8 86.1307 32.02C86.5827 33.064 87.1787 34.368 87.9147 35.936H85.3267C85.1027 35.24 84.8107 34.428 84.4507 33.492C84.0667 32.504 83.7067 31.608 83.3707 30.804C83.0347 30 82.7867 29.472 82.6347 29.224H82.7067C82.5067 29.572 82.0387 30.68 81.3067 32.544C81.0787 33.136 80.8547 33.72 80.6347 34.296C80.4147 34.872 80.2067 35.42 80.0147 35.936H77.5427V35.932ZM80.8627 33.136C81.4107 33.164 82.0347 33.176 82.7307 33.176C83.4267 33.176 84.0507 33.164 84.5987 33.136L85.0267 34.432C84.3507 34.404 83.5627 34.392 82.6627 34.392C81.7627 34.392 80.9747 34.404 80.2987 34.432L80.8627 33.136Z" fill="#FF5729"/>
<path d="M93.1866 35.9319C93.2626 35.1239 93.3026 33.8199 93.3026 32.0159C93.3026 30.2119 93.2626 28.9079 93.1866 28.0999C93.7306 28.0999 94.2266 28.0999 94.6786 28.0879C95.1306 28.0799 95.5506 28.0759 95.9426 28.0679C96.2426 28.0599 96.5426 28.0559 96.8386 28.0479C97.1386 28.0399 97.4426 28.0359 97.7586 28.0359C98.9186 28.0359 99.9226 28.1919 100.759 28.5039C101.599 28.8159 102.239 29.2679 102.679 29.8559C103.119 30.4439 103.343 31.1479 103.343 31.9679C103.343 32.7879 103.111 33.5079 102.647 34.1039C102.183 34.6999 101.519 35.1559 100.647 35.4719C99.7786 35.7879 98.7346 35.9479 97.5266 35.9479H96.5226C96.1826 35.9479 95.8346 35.9479 95.4786 35.9359L93.1826 35.9239L93.1866 35.9319ZM95.4226 29.4519C95.4026 30.3999 95.3946 31.2359 95.4026 31.9679C95.4026 32.3799 95.4026 32.7959 95.4146 33.2159C95.4226 33.6359 95.4306 34.0599 95.4346 34.4839L95.9026 34.5159C96.1386 34.5359 96.4026 34.5559 96.6946 34.5679C96.9866 34.5839 97.2666 34.5879 97.5306 34.5879C98.2826 34.5879 98.9306 34.4839 99.4706 34.2799C100.015 34.0759 100.431 33.7759 100.719 33.3839C101.007 32.9919 101.151 32.5239 101.151 31.9799C101.151 31.4359 101.011 30.9799 100.727 30.5919C100.443 30.2039 100.035 29.9079 99.4986 29.7039C98.9626 29.5039 98.3266 29.3999 97.5866 29.3999C97.4666 29.3999 97.3426 29.3999 97.2106 29.4039C97.0786 29.4039 96.9386 29.4119 96.7946 29.4199C96.5786 29.4359 96.3506 29.4439 96.1106 29.4519C95.8706 29.4599 95.6386 29.4599 95.4146 29.4519H95.4226Z" fill="#FF5729"/>
<path d="M105.223 35.9321C105.299 35.0281 105.339 33.7241 105.339 32.0161C105.339 30.3081 105.299 29.0081 105.223 28.1001C105.479 28.1361 105.995 28.1641 106.767 28.1881C107.539 28.2121 108.371 28.2281 109.263 28.2361C110.287 28.2441 111.211 28.2361 112.039 28.2201C112.867 28.2041 113.487 28.1721 113.895 28.1321C113.867 28.4441 113.855 28.7601 113.855 29.0761C113.855 29.3921 113.871 29.7081 113.895 30.0201C113.595 29.9361 113.191 29.8601 112.679 29.7921C112.167 29.7241 111.587 29.6641 110.943 29.6161C110.311 29.5761 109.691 29.5441 109.091 29.5241C108.491 29.5041 107.963 29.4961 107.511 29.5041C107.495 29.8241 107.487 30.1441 107.479 30.4641C107.471 30.7841 107.471 31.1041 107.479 31.4241C108.391 31.4441 109.395 31.4361 110.495 31.3961C111.595 31.3561 112.483 31.3081 113.167 31.2441C113.139 31.4961 113.127 31.7561 113.127 32.0281C113.127 32.3001 113.139 32.5601 113.167 32.8121C112.471 32.7561 111.575 32.7121 110.475 32.6761C109.375 32.6401 108.375 32.6361 107.479 32.6641C107.479 33.3881 107.495 34.0121 107.531 34.5321C108.027 34.5401 108.575 34.5321 109.179 34.5121C109.783 34.4921 110.379 34.4561 110.963 34.4081C111.575 34.3681 112.139 34.3121 112.659 34.2401C113.179 34.1721 113.591 34.0921 113.895 34.0121C113.867 34.3241 113.855 34.6441 113.855 34.9721C113.855 35.3001 113.871 35.6201 113.895 35.9321H105.223Z" fill="#FF5729"/>
<path d="M115.931 35.932C115.987 34.624 116.015 33.316 116.015 32.012C116.015 30.708 115.987 29.404 115.931 28.104C116.355 28.168 116.771 28.2 117.179 28.204C117.587 28.208 117.959 28.176 118.299 28.104C118.243 28.792 118.207 29.804 118.195 31.132C118.179 32.508 118.195 33.652 118.227 34.556C119.083 34.548 120.199 34.5 121.579 34.404C122.959 34.308 123.915 34.192 124.451 34.056C124.423 34.44 124.411 34.768 124.411 35.048C124.411 35.328 124.427 35.624 124.451 35.936H115.935L115.931 35.932Z" fill="#FF5729"/>
<path d="M130.139 35.9321C130.215 35.0281 130.255 33.7241 130.255 32.0161C130.255 30.3081 130.215 29.0081 130.139 28.1001C130.395 28.1361 130.911 28.1641 131.683 28.1881C132.455 28.2121 133.287 28.2281 134.179 28.2361C135.203 28.2441 136.127 28.2361 136.955 28.2201C137.783 28.2041 138.403 28.1721 138.811 28.1321C138.783 28.4441 138.771 28.7601 138.771 29.0761C138.771 29.3921 138.787 29.7081 138.811 30.0201C138.511 29.9361 138.107 29.8601 137.595 29.7921C137.083 29.7241 136.503 29.6641 135.859 29.6161C135.227 29.5761 134.607 29.5441 134.007 29.5241C133.407 29.5041 132.879 29.4961 132.427 29.5041C132.411 29.8241 132.403 30.1441 132.395 30.4641C132.387 30.7841 132.387 31.1041 132.395 31.4241C133.307 31.4441 134.311 31.4361 135.411 31.3961C136.511 31.3561 137.399 31.3081 138.083 31.2441C138.055 31.4961 138.043 31.7561 138.043 32.0281C138.043 32.3001 138.055 32.5601 138.083 32.8121C137.387 32.7561 136.491 32.7121 135.391 32.6761C134.291 32.6401 133.291 32.6361 132.395 32.6641C132.395 33.3881 132.411 34.0121 132.447 34.5321C132.943 34.5401 133.491 34.5321 134.095 34.5121C134.699 34.4921 135.295 34.4561 135.879 34.4081C136.491 34.3681 137.055 34.3121 137.575 34.2401C138.095 34.1721 138.507 34.0921 138.811 34.0121C138.783 34.3241 138.771 34.6441 138.771 34.9721C138.771 35.3001 138.787 35.6201 138.811 35.9321H130.139Z" fill="#FF5729"/>
<path d="M145.679 36.056C144.787 36.056 143.911 35.972 143.043 35.804C142.175 35.636 141.387 35.42 140.667 35.156C140.723 34.808 140.751 34.46 140.751 34.116C140.751 33.772 140.723 33.428 140.667 33.088C141.139 33.576 141.867 33.944 142.843 34.196C143.819 34.448 144.835 34.572 145.887 34.572C146.555 34.572 147.039 34.5 147.339 34.352C147.639 34.204 147.787 33.984 147.787 33.684C147.787 33.428 147.695 33.236 147.507 33.108C147.319 32.984 147.023 32.888 146.623 32.82C146.223 32.752 145.571 32.684 144.667 32.604C143.743 32.52 142.987 32.4 142.403 32.244C141.819 32.088 141.371 31.856 141.055 31.556C140.743 31.252 140.587 30.848 140.587 30.34C140.587 29.54 140.943 28.94 141.655 28.544C142.367 28.148 143.451 27.948 144.907 27.948C145.699 27.948 146.407 27.988 147.019 28.064C147.635 28.14 148.271 28.256 148.923 28.408C149.307 28.492 149.547 28.548 149.643 28.576C149.607 28.8 149.587 29.024 149.575 29.256C149.563 29.484 149.567 29.716 149.579 29.944C149.587 30.04 149.595 30.14 149.607 30.236C149.619 30.332 149.631 30.432 149.643 30.528C148.927 30.2 148.167 29.936 147.367 29.736C146.567 29.536 145.723 29.432 144.831 29.432C144.135 29.432 143.631 29.5 143.323 29.636C143.015 29.772 142.859 29.984 142.859 30.276C142.859 30.52 142.947 30.712 143.119 30.856C143.291 31 143.571 31.108 143.959 31.184C144.347 31.26 144.891 31.328 145.591 31.384C145.799 31.396 145.955 31.412 146.059 31.424C146.971 31.508 147.715 31.628 148.287 31.784C148.863 31.94 149.299 32.172 149.603 32.48C149.907 32.788 150.055 33.188 150.055 33.692C150.055 34.484 149.695 35.076 148.971 35.468C148.247 35.856 147.147 36.052 145.671 36.052L145.679 36.056Z" fill="#FF5729"/>
<path d="M154.519 35.9321C154.583 35.2361 154.619 34.2561 154.627 32.9921C154.635 31.7281 154.627 30.5641 154.591 29.5001C153.831 29.5121 153.175 29.5521 152.611 29.6081C152.047 29.6641 151.515 29.7481 150.999 29.8521C151.055 29.5601 151.083 29.2681 151.083 28.9761C151.083 28.6841 151.055 28.3921 150.999 28.1001C152.779 28.1481 154.351 28.1721 155.715 28.1721C157.079 28.1721 158.651 28.1481 160.431 28.1001C160.383 28.3921 160.359 28.6841 160.359 28.9761C160.359 29.2681 160.383 29.5601 160.431 29.8521C159.907 29.7481 159.367 29.6641 158.803 29.6081C158.239 29.5521 157.575 29.5121 156.811 29.5001C156.775 30.5801 156.771 31.7481 156.791 33.0081C156.811 34.2681 156.855 35.2401 156.915 35.9321H154.515H154.519Z" fill="#FF5729"/>
<path d="M161.951 35.9321C162.027 35.0281 162.067 33.7241 162.067 32.0161C162.067 30.3081 162.027 29.0081 161.951 28.1001C162.207 28.1361 162.723 28.1641 163.495 28.1881C164.267 28.2121 165.099 28.2281 165.991 28.2361C167.015 28.2441 167.939 28.2361 168.767 28.2201C169.595 28.2041 170.215 28.1721 170.623 28.1321C170.595 28.4441 170.583 28.7601 170.583 29.0761C170.583 29.3921 170.599 29.7081 170.623 30.0201C170.323 29.9361 169.919 29.8601 169.407 29.7921C168.895 29.7241 168.315 29.6641 167.671 29.6161C167.039 29.5761 166.419 29.5441 165.819 29.5241C165.219 29.5041 164.691 29.4961 164.239 29.5041C164.223 29.8241 164.215 30.1441 164.207 30.4641C164.199 30.7841 164.199 31.1041 164.207 31.4241C165.119 31.4441 166.123 31.4361 167.223 31.3961C168.323 31.3561 169.211 31.3081 169.895 31.2441C169.867 31.4961 169.855 31.7561 169.855 32.0281C169.855 32.3001 169.867 32.5601 169.895 32.8121C169.199 32.7561 168.303 32.7121 167.203 32.6761C166.103 32.6401 165.103 32.6361 164.207 32.6641C164.207 33.3881 164.223 34.0121 164.259 34.5321C164.755 34.5401 165.303 34.5321 165.907 34.5121C166.511 34.4921 167.107 34.4561 167.691 34.4081C168.303 34.3681 168.867 34.3121 169.387 34.2401C169.907 34.1721 170.319 34.0921 170.623 34.0121C170.595 34.3241 170.583 34.6441 170.583 34.9721C170.583 35.3001 170.599 35.6201 170.623 35.9321H161.951Z" fill="#FF5729"/>
<path d="M40.2907 48.5841C39.3987 48.5841 38.5227 48.5001 37.6547 48.3321C36.7867 48.1641 35.9987 47.9481 35.2787 47.6841C35.3347 47.3361 35.3627 46.9881 35.3627 46.6441C35.3627 46.3001 35.3347 45.9561 35.2787 45.6161C35.7507 46.1041 36.4787 46.4721 37.4547 46.7241C38.4307 46.9761 39.4467 47.1001 40.4987 47.1001C41.1667 47.1001 41.6507 47.0281 41.9507 46.8801C42.2507 46.7321 42.3987 46.5121 42.3987 46.2121C42.3987 45.9561 42.3067 45.7641 42.1187 45.6361C41.9307 45.5121 41.6347 45.4161 41.2347 45.3481C40.8347 45.2801 40.1827 45.2121 39.2787 45.1321C38.3547 45.0481 37.5987 44.9281 37.0147 44.7721C36.4307 44.6161 35.9827 44.3841 35.6667 44.0841C35.3547 43.7801 35.1987 43.3761 35.1987 42.8681C35.1987 42.0681 35.5547 41.4681 36.2667 41.0721C36.9787 40.6761 38.0627 40.4761 39.5187 40.4761C40.3107 40.4761 41.0187 40.5161 41.6307 40.5921C42.2467 40.6681 42.8827 40.7841 43.5347 40.9361C43.9187 41.0201 44.1587 41.0761 44.2547 41.1041C44.2187 41.3281 44.1987 41.5521 44.1867 41.7841C44.1747 42.0121 44.1787 42.2441 44.1907 42.4721C44.1987 42.5681 44.2067 42.6681 44.2187 42.7641C44.2307 42.8601 44.2427 42.9601 44.2547 43.0561C43.5387 42.7281 42.7787 42.4641 41.9787 42.2641C41.1787 42.0641 40.3347 41.9601 39.4427 41.9601C38.7467 41.9601 38.2427 42.0281 37.9347 42.1641C37.6267 42.3001 37.4707 42.5121 37.4707 42.8041C37.4707 43.0481 37.5587 43.2401 37.7307 43.3841C37.9027 43.5281 38.1827 43.6361 38.5707 43.7121C38.9587 43.7881 39.5027 43.8561 40.2027 43.9121C40.4107 43.9241 40.5667 43.9401 40.6707 43.9521C41.5827 44.0361 42.3267 44.1561 42.8987 44.3121C43.4747 44.4681 43.9107 44.7001 44.2147 45.0081C44.5187 45.3161 44.6667 45.7161 44.6667 46.2201C44.6667 47.0121 44.3067 47.6041 43.5827 47.9961C42.8587 48.3841 41.7587 48.5801 40.2827 48.5801L40.2907 48.5841Z" fill="#FF5729"/>
<path d="M46.2905 48.456C46.3665 47.552 46.4065 46.248 46.4065 44.54C46.4065 42.832 46.3665 41.532 46.2905 40.624C46.5465 40.66 47.0625 40.688 47.8345 40.712C48.6065 40.736 49.4385 40.752 50.3305 40.76C51.3545 40.768 52.2785 40.76 53.1065 40.744C53.9345 40.728 54.5545 40.696 54.9625 40.656C54.9345 40.968 54.9225 41.284 54.9225 41.6C54.9225 41.916 54.9385 42.232 54.9625 42.544C54.6625 42.46 54.2585 42.384 53.7465 42.316C53.2345 42.248 52.6545 42.188 52.0105 42.14C51.3785 42.1 50.7585 42.068 50.1585 42.048C49.5585 42.028 49.0305 42.02 48.5785 42.028C48.5625 42.348 48.5545 42.668 48.5465 42.988C48.5385 43.308 48.5385 43.628 48.5465 43.948C49.4585 43.968 50.4625 43.96 51.5625 43.92C52.6625 43.88 53.5505 43.832 54.2345 43.768C54.2065 44.02 54.1945 44.28 54.1945 44.552C54.1945 44.824 54.2065 45.084 54.2345 45.336C53.5385 45.28 52.6425 45.236 51.5425 45.2C50.4425 45.164 49.4425 45.16 48.5465 45.188C48.5465 45.912 48.5625 46.536 48.5985 47.056C49.0945 47.064 49.6425 47.056 50.2465 47.036C50.8505 47.016 51.4465 46.98 52.0305 46.932C52.6425 46.892 53.2065 46.836 53.7265 46.764C54.2465 46.696 54.6585 46.616 54.9625 46.536C54.9345 46.848 54.9225 47.168 54.9225 47.496C54.9225 47.824 54.9385 48.144 54.9625 48.456H46.2905Z" fill="#FF5729"/>
<path d="M55.7986 48.4559C56.0906 47.8519 56.3906 47.2119 56.6946 46.5359C56.9986 45.8599 57.2946 45.1959 57.5826 44.5439C58.1826 43.1519 58.7186 41.8479 59.1986 40.6279C59.6906 40.6919 60.3066 40.7239 61.0346 40.7319C61.7666 40.7399 62.3346 40.7039 62.7466 40.6279C63.3026 42.0199 63.8506 43.3239 64.3866 44.5439C64.8386 45.5879 65.4346 46.8919 66.1706 48.4599H63.5826C63.3586 47.7639 63.0666 46.9519 62.7066 46.0159C62.3226 45.0279 61.9626 44.1319 61.6266 43.3279C61.2906 42.5239 61.0426 41.9959 60.8906 41.7479H60.9626C60.7626 42.0959 60.2946 43.2039 59.5626 45.0679C59.3346 45.6599 59.1106 46.2439 58.8906 46.8199C58.6706 47.3959 58.4626 47.9439 58.2706 48.4599H55.7986V48.4559ZM59.1186 45.6599C59.6666 45.6879 60.2906 45.6999 60.9866 45.6999C61.6826 45.6999 62.3066 45.6879 62.8546 45.6599L63.2826 46.9559C62.6066 46.9279 61.8186 46.9159 60.9186 46.9159C60.0186 46.9159 59.2306 46.9279 58.5546 46.9559L59.1186 45.6599Z" fill="#FF5729"/>
<path d="M71.8947 48.5841C71.0027 48.5841 70.1267 48.5001 69.2587 48.3321C68.3907 48.1641 67.6027 47.9481 66.8827 47.6841C66.9387 47.3361 66.9667 46.9881 66.9667 46.6441C66.9667 46.3001 66.9387 45.9561 66.8827 45.6161C67.3547 46.1041 68.0827 46.4721 69.0587 46.7241C70.0347 46.9761 71.0507 47.1001 72.1027 47.1001C72.7707 47.1001 73.2547 47.0281 73.5547 46.8801C73.8547 46.7321 74.0027 46.5121 74.0027 46.2121C74.0027 45.9561 73.9107 45.7641 73.7227 45.6361C73.5347 45.5121 73.2387 45.4161 72.8387 45.3481C72.4387 45.2801 71.7867 45.2121 70.8827 45.1321C69.9587 45.0481 69.2027 44.9281 68.6187 44.7721C68.0347 44.6161 67.5867 44.3841 67.2707 44.0841C66.9587 43.7801 66.8027 43.3761 66.8027 42.8681C66.8027 42.0681 67.1587 41.4681 67.8707 41.0721C68.5827 40.6761 69.6667 40.4761 71.1227 40.4761C71.9147 40.4761 72.6227 40.5161 73.2347 40.5921C73.8507 40.6681 74.4867 40.7841 75.1387 40.9361C75.5227 41.0201 75.7627 41.0761 75.8587 41.1041C75.8227 41.3281 75.8027 41.5521 75.7907 41.7841C75.7787 42.0121 75.7827 42.2441 75.7947 42.4721C75.8027 42.5681 75.8107 42.6681 75.8227 42.7641C75.8347 42.8601 75.8467 42.9601 75.8587 43.0561C75.1427 42.7281 74.3827 42.4641 73.5827 42.2641C72.7827 42.0641 71.9387 41.9601 71.0467 41.9601C70.3507 41.9601 69.8467 42.0281 69.5387 42.1641C69.2307 42.3001 69.0747 42.5121 69.0747 42.8041C69.0747 43.0481 69.1627 43.2401 69.3347 43.3841C69.5067 43.5281 69.7867 43.6361 70.1747 43.7121C70.5627 43.7881 71.1067 43.8561 71.8067 43.9121C72.0147 43.9241 72.1707 43.9401 72.2747 43.9521C73.1867 44.0361 73.9307 44.1561 74.5027 44.3121C75.0787 44.4681 75.5147 44.7001 75.8187 45.0081C76.1227 45.3161 76.2707 45.7161 76.2707 46.2201C76.2707 47.0121 75.9107 47.6041 75.1867 47.9961C74.4627 48.3841 73.3627 48.5801 71.8867 48.5801L71.8947 48.5841Z" fill="#FF5729"/>
<path d="M77.8948 48.456C77.9708 47.552 78.0108 46.248 78.0108 44.54C78.0108 42.832 77.9708 41.532 77.8948 40.624C78.3108 40.688 78.7188 40.72 79.1108 40.724C79.5028 40.724 79.8868 40.696 80.2628 40.624C80.1868 41.548 80.1508 42.868 80.1588 44.576C80.1668 46.284 80.2108 47.576 80.2948 48.452H77.8948V48.456Z" fill="#FF5729"/>
<path d="M82.1746 48.4561C82.2506 47.6481 82.2906 46.3441 82.2906 44.5401C82.2906 42.7361 82.2506 41.4321 82.1746 40.6241C82.7186 40.6241 83.2147 40.6241 83.6667 40.6121C84.1187 40.6041 84.5387 40.6001 84.9307 40.5921C85.2307 40.5841 85.5306 40.5801 85.8266 40.5721C86.1266 40.5641 86.4307 40.5601 86.7467 40.5601C87.9067 40.5601 88.9107 40.7161 89.7467 41.0281C90.5867 41.3401 91.2267 41.7921 91.6667 42.3801C92.1067 42.9681 92.3306 43.6721 92.3306 44.4921C92.3306 45.3121 92.0986 46.0321 91.6346 46.6281C91.1706 47.2241 90.5067 47.6801 89.6347 47.9961C88.7667 48.3121 87.7226 48.4721 86.5146 48.4721H85.5106C85.1706 48.4721 84.8227 48.4721 84.4667 48.4601L82.1707 48.4481L82.1746 48.4561ZM84.4106 41.9761C84.3906 42.9241 84.3826 43.7601 84.3906 44.4921C84.3906 44.9041 84.3906 45.3201 84.4026 45.7401C84.4106 46.1601 84.4187 46.5841 84.4227 47.0081L84.8906 47.0401C85.1266 47.0601 85.3907 47.0801 85.6827 47.0921C85.9747 47.1081 86.2547 47.1121 86.5187 47.1121C87.2707 47.1121 87.9187 47.0081 88.4587 46.8041C89.0027 46.6001 89.4187 46.3001 89.7067 45.9081C89.9947 45.5161 90.1386 45.0481 90.1386 44.5041C90.1386 43.9601 89.9986 43.5041 89.7146 43.1161C89.4306 42.7281 89.0226 42.4321 88.4866 42.2281C87.9506 42.0281 87.3146 41.9241 86.5746 41.9241C86.4546 41.9241 86.3306 41.9241 86.1986 41.9281C86.0666 41.9281 85.9267 41.9361 85.7827 41.9441C85.5667 41.9601 85.3386 41.9681 85.0986 41.9761C84.8586 41.9841 84.6266 41.9841 84.4026 41.9761H84.4106Z" fill="#FF5729"/>
<path d="M93.7947 48.456C93.8707 47.552 93.9107 46.248 93.9107 44.54C93.9107 42.832 93.8707 41.532 93.7947 40.624C94.0507 40.66 94.5667 40.688 95.3387 40.712C96.1107 40.736 96.9427 40.752 97.8347 40.76C98.8587 40.768 99.7827 40.76 100.611 40.744C101.439 40.728 102.059 40.696 102.467 40.656C102.439 40.968 102.427 41.284 102.427 41.6C102.427 41.916 102.443 42.232 102.467 42.544C102.167 42.46 101.763 42.384 101.251 42.316C100.739 42.248 100.159 42.188 99.5147 42.14C98.8827 42.1 98.2627 42.068 97.6627 42.048C97.0627 42.028 96.5347 42.02 96.0827 42.028C96.0667 42.348 96.0587 42.668 96.0507 42.988C96.0427 43.308 96.0427 43.628 96.0507 43.948C96.9627 43.968 97.9667 43.96 99.0667 43.92C100.167 43.88 101.055 43.832 101.739 43.768C101.711 44.02 101.699 44.28 101.699 44.552C101.699 44.824 101.711 45.084 101.739 45.336C101.043 45.28 100.147 45.236 99.0467 45.2C97.9467 45.164 96.9467 45.16 96.0507 45.188C96.0507 45.912 96.0667 46.536 96.1027 47.056C96.5987 47.064 97.1467 47.056 97.7507 47.036C98.3547 47.016 98.9507 46.98 99.5347 46.932C100.147 46.892 100.711 46.836 101.231 46.764C101.751 46.696 102.163 46.616 102.467 46.536C102.439 46.848 102.427 47.168 102.427 47.496C102.427 47.824 102.443 48.144 102.467 48.456H93.7947Z" fill="#FF5729"/>
<path d="M107.427 48.456C107.503 47.552 107.543 46.248 107.543 44.54C107.543 42.832 107.503 41.532 107.427 40.624C107.947 40.632 108.435 40.636 108.883 40.636C109.331 40.636 109.767 40.628 110.183 40.616C110.475 40.604 110.775 40.592 111.079 40.588C111.387 40.588 111.707 40.584 112.051 40.584C113.583 40.584 114.711 40.772 115.439 41.152C116.167 41.532 116.531 42.112 116.531 42.888C116.531 43.48 116.343 43.948 115.963 44.296C115.583 44.644 115.143 44.884 114.643 45.02C114.143 45.156 113.683 45.224 113.267 45.224V45.392C114.215 45.568 114.971 45.956 115.543 46.556C116.115 47.156 116.555 47.788 116.867 48.452H113.871C113.807 47.82 113.667 47.304 113.443 46.912C113.219 46.52 112.899 46.22 112.483 46.016C112.067 45.812 111.519 45.676 110.843 45.616C110.675 45.596 110.491 45.58 110.283 45.576C110.079 45.568 109.871 45.564 109.663 45.564C109.691 46.58 109.707 47.156 109.715 47.296C109.723 47.504 109.735 47.704 109.751 47.892C109.767 48.08 109.783 48.268 109.799 48.456H107.431H107.427ZM109.647 44.272L110.139 44.304C110.403 44.32 110.687 44.332 110.991 44.344C111.295 44.36 111.591 44.364 111.883 44.364C112.399 44.364 112.831 44.32 113.179 44.228C113.527 44.136 113.791 44 113.967 43.816C114.143 43.632 114.235 43.4 114.235 43.12C114.235 42.724 114.039 42.436 113.647 42.252C113.255 42.072 112.699 41.98 111.983 41.98C111.719 41.98 111.455 41.98 111.195 41.984C110.935 41.988 110.683 41.996 110.447 42.008L109.695 42.02C109.679 42.368 109.671 42.728 109.663 43.1C109.655 43.472 109.651 43.86 109.651 44.264L109.647 44.272Z" fill="#FF5729"/>
<path d="M118.219 48.456C118.295 47.552 118.335 46.248 118.335 44.54C118.335 42.832 118.295 41.532 118.219 40.624C118.475 40.66 118.991 40.688 119.763 40.712C120.535 40.736 121.367 40.752 122.259 40.76C123.283 40.768 124.207 40.76 125.035 40.744C125.863 40.728 126.483 40.696 126.891 40.656C126.863 40.968 126.851 41.284 126.851 41.6C126.851 41.916 126.867 42.232 126.891 42.544C126.591 42.46 126.187 42.384 125.675 42.316C125.163 42.248 124.583 42.188 123.939 42.14C123.307 42.1 122.687 42.068 122.087 42.048C121.487 42.028 120.959 42.02 120.507 42.028C120.491 42.348 120.483 42.668 120.475 42.988C120.467 43.308 120.467 43.628 120.475 43.948C121.387 43.968 122.391 43.96 123.491 43.92C124.591 43.88 125.479 43.832 126.163 43.768C126.135 44.02 126.123 44.28 126.123 44.552C126.123 44.824 126.135 45.084 126.163 45.336C125.467 45.28 124.571 45.236 123.471 45.2C122.371 45.164 121.371 45.16 120.475 45.188C120.475 45.912 120.491 46.536 120.527 47.056C121.023 47.064 121.571 47.056 122.175 47.036C122.779 47.016 123.375 46.98 123.959 46.932C124.571 46.892 125.135 46.836 125.655 46.764C126.175 46.696 126.587 46.616 126.891 46.536C126.863 46.848 126.851 47.168 126.851 47.496C126.851 47.824 126.867 48.144 126.891 48.456H118.219Z" fill="#FF5729"/>
<path d="M133.343 48.5841C132.451 48.5841 131.575 48.5001 130.707 48.3321C129.839 48.1641 129.051 47.9481 128.331 47.6841C128.387 47.3361 128.415 46.9881 128.415 46.6441C128.415 46.3001 128.387 45.9561 128.331 45.6161C128.803 46.1041 129.531 46.4721 130.507 46.7241C131.483 46.9761 132.499 47.1001 133.551 47.1001C134.219 47.1001 134.703 47.0281 135.003 46.8801C135.303 46.7321 135.451 46.5121 135.451 46.2121C135.451 45.9561 135.359 45.7641 135.171 45.6361C134.983 45.5121 134.687 45.4161 134.287 45.3481C133.887 45.2801 133.235 45.2121 132.331 45.1321C131.407 45.0481 130.651 44.9281 130.067 44.7721C129.483 44.6161 129.035 44.3841 128.719 44.0841C128.407 43.7801 128.251 43.3761 128.251 42.8681C128.251 42.0681 128.607 41.4681 129.319 41.0721C130.031 40.6761 131.115 40.4761 132.571 40.4761C133.363 40.4761 134.071 40.5161 134.683 40.5921C135.299 40.6681 135.935 40.7841 136.587 40.9361C136.971 41.0201 137.211 41.0761 137.307 41.1041C137.271 41.3281 137.251 41.5521 137.239 41.7841C137.227 42.0121 137.231 42.2441 137.243 42.4721C137.251 42.5681 137.259 42.6681 137.271 42.7641C137.283 42.8601 137.295 42.9601 137.307 43.0561C136.591 42.7281 135.831 42.4641 135.031 42.2641C134.231 42.0641 133.387 41.9601 132.495 41.9601C131.799 41.9601 131.295 42.0281 130.987 42.1641C130.679 42.3001 130.523 42.5121 130.523 42.8041C130.523 43.0481 130.611 43.2401 130.783 43.3841C130.955 43.5281 131.235 43.6361 131.623 43.7121C132.011 43.7881 132.555 43.8561 133.255 43.9121C133.463 43.9241 133.619 43.9401 133.723 43.9521C134.635 44.0361 135.379 44.1561 135.951 44.3121C136.527 44.4681 136.963 44.7001 137.267 45.0081C137.571 45.3161 137.719 45.7161 137.719 46.2201C137.719 47.0121 137.359 47.6041 136.635 47.9961C135.911 48.3841 134.811 48.5801 133.335 48.5801L133.343 48.5841Z" fill="#FF5729"/>
<path d="M144.271 48.636C143.159 48.636 142.199 48.476 141.399 48.152C140.599 47.828 139.987 47.36 139.563 46.744C139.139 46.128 138.927 45.388 138.927 44.524C138.927 43.66 139.139 42.92 139.563 42.308C139.987 41.692 140.599 41.224 141.399 40.9C142.199 40.576 143.155 40.416 144.271 40.416C145.387 40.416 146.343 40.576 147.143 40.9C147.943 41.224 148.555 41.692 148.975 42.308C149.395 42.924 149.607 43.664 149.607 44.524C149.607 45.384 149.395 46.128 148.975 46.744C148.555 47.36 147.943 47.828 147.143 48.152C146.343 48.476 145.387 48.636 144.271 48.636ZM144.271 47.248C144.931 47.248 145.499 47.144 145.971 46.936C146.443 46.728 146.807 46.424 147.055 46.024C147.307 45.624 147.431 45.14 147.431 44.58C147.431 44.02 147.307 43.508 147.055 43.092C146.803 42.68 146.443 42.36 145.971 42.144C145.499 41.924 144.931 41.816 144.271 41.816C143.611 41.816 143.035 41.924 142.563 42.144C142.095 42.364 141.735 42.68 141.487 43.092C141.239 43.508 141.115 44 141.115 44.58C141.115 45.16 141.239 45.624 141.487 46.024C141.735 46.424 142.091 46.728 142.563 46.936C143.031 47.144 143.603 47.248 144.271 47.248Z" fill="#FF5729"/>
<path d="M151.067 48.456C151.143 47.552 151.183 46.248 151.183 44.54C151.183 42.832 151.143 41.532 151.067 40.624C151.587 40.632 152.075 40.636 152.523 40.636C152.971 40.636 153.407 40.628 153.823 40.616C154.115 40.604 154.415 40.592 154.719 40.588C155.027 40.588 155.347 40.584 155.691 40.584C157.223 40.584 158.351 40.772 159.079 41.152C159.807 41.532 160.171 42.112 160.171 42.888C160.171 43.48 159.983 43.948 159.603 44.296C159.223 44.644 158.783 44.884 158.283 45.02C157.783 45.156 157.323 45.224 156.907 45.224V45.392C157.855 45.568 158.611 45.956 159.183 46.556C159.755 47.156 160.195 47.788 160.507 48.452H157.511C157.447 47.82 157.307 47.304 157.083 46.912C156.859 46.52 156.539 46.22 156.123 46.016C155.707 45.812 155.159 45.676 154.483 45.616C154.315 45.596 154.131 45.58 153.923 45.576C153.719 45.568 153.511 45.564 153.303 45.564C153.331 46.58 153.347 47.156 153.355 47.296C153.363 47.504 153.375 47.704 153.391 47.892C153.407 48.08 153.423 48.268 153.439 48.456H151.071H151.067ZM153.291 44.272L153.783 44.304C154.047 44.32 154.331 44.332 154.635 44.344C154.939 44.36 155.235 44.364 155.527 44.364C156.043 44.364 156.475 44.32 156.823 44.228C157.171 44.136 157.435 44 157.611 43.816C157.787 43.632 157.879 43.4 157.879 43.12C157.879 42.724 157.683 42.436 157.291 42.252C156.899 42.072 156.343 41.98 155.627 41.98C155.363 41.98 155.099 41.98 154.839 41.984C154.579 41.988 154.327 41.996 154.091 42.008L153.339 42.02C153.323 42.368 153.315 42.728 153.307 43.1C153.299 43.472 153.295 43.86 153.295 44.264L153.291 44.272Z" fill="#FF5729"/>
<path d="M164.595 48.456C164.659 47.76 164.695 46.78 164.703 45.516C164.711 44.252 164.703 43.088 164.667 42.024C163.907 42.036 163.251 42.076 162.687 42.132C162.123 42.188 161.591 42.272 161.075 42.376C161.131 42.084 161.159 41.792 161.159 41.5C161.159 41.208 161.131 40.916 161.075 40.624C162.855 40.672 164.427 40.696 165.791 40.696C167.155 40.696 168.727 40.672 170.507 40.624C170.459 40.916 170.435 41.208 170.435 41.5C170.435 41.792 170.459 42.084 170.507 42.376C169.983 42.272 169.443 42.188 168.879 42.132C168.315 42.076 167.651 42.036 166.887 42.024C166.851 43.104 166.847 44.272 166.867 45.532C166.887 46.792 166.931 47.764 166.991 48.456H164.591H164.595Z" fill="#FF5729"/>
<path d="M33.8787 197.168C33.8787 197.168 81.7146 198.304 108.207 197.892C140.987 197.384 169.707 196.42 169.707 196.42V206.964C169.707 206.964 118.607 205.7 91.6707 205.832C75.6107 205.908 33.8787 206.964 33.8787 206.964V197.164V197.168Z" fill="#FF5729"/>
<path d="M169.707 65.808C169.707 65.808 121.871 64.672 95.3787 65.084C62.5987 65.592 33.8787 66.556 33.8787 66.556V56.012C33.8787 56.012 84.9787 57.276 111.915 57.144C127.975 57.068 169.707 56.012 169.707 56.012V65.812V65.808Z" fill="#FF5729"/>
</svg>
