<svg width="220" height="284" viewBox="0 0 220 284" fill="none" xmlns="http://www.w3.org/2000/svg">
<path d="M101.111 233.38C102.931 229.352 101.983 228.76 96.5829 230.216C100.691 226.968 100.415 225.828 94.9629 224.72C100.415 223.608 100.683 222.456 96.5829 219.196C101.983 220.672 102.935 220.084 101.111 216.06C105.167 219.332 106.475 219.164 107.727 214.968C109.031 219.068 110.351 219.152 114.387 215.74C112.627 219.908 113.567 220.552 118.939 219.056C114.855 222.42 115.143 223.588 120.607 224.74C115.167 225.864 114.895 227.024 119.023 230.368C113.607 228.884 112.647 229.524 114.411 233.688C110.363 230.284 109.035 230.372 107.727 234.472C106.475 230.276 105.167 230.112 101.111 233.38Z" fill="#F44E22"/>
<path d="M212.519 22.152C212.519 22.272 212.527 22.392 212.531 22.504C212.559 23.124 212.667 23.732 212.843 24.3C213.751 27.196 216.439 29.308 219.619 29.352V36.776C215.691 36.84 212.519 40.04 212.519 43.988C212.519 45.268 212.859 46.476 213.451 47.524C213.743 48.044 214.095 48.524 214.511 48.948C215.619 50.12 217.131 50.92 218.819 51.132C219.083 51.168 219.347 51.188 219.619 51.192V58.544C219.387 58.544 219.159 58.556 218.935 58.58C218.919 58.588 218.903 58.588 218.887 58.592C218.655 58.616 218.431 58.652 218.207 58.7C217.899 58.768 217.595 58.852 217.303 58.956C217.219 58.992 217.135 59.02 217.055 59.052C217.031 59.064 217.007 59.072 216.983 59.08C216.907 59.116 216.831 59.144 216.755 59.18C216.679 59.216 216.603 59.248 216.531 59.288C216.467 59.32 216.407 59.348 216.347 59.38C216.171 59.476 215.999 59.576 215.831 59.688C215.747 59.74 215.667 59.792 215.591 59.844C215.503 59.904 215.415 59.968 215.331 60.04C215.243 60.1 215.163 60.168 215.079 60.244C214.999 60.304 214.919 60.376 214.839 60.452C214.759 60.524 214.683 60.6 214.607 60.676C214.455 60.828 214.311 60.988 214.175 61.152C213.175 62.352 212.563 63.88 212.523 65.552C212.519 65.644 212.519 65.728 212.519 65.82C212.519 65.868 212.519 65.916 212.523 65.96C212.523 66.044 212.523 66.124 212.531 66.204C212.535 66.292 212.539 66.38 212.551 66.468C212.555 66.552 212.563 66.636 212.575 66.72C212.587 66.8 212.595 66.88 212.611 66.96C212.627 67.068 212.651 67.176 212.671 67.28C212.691 67.384 212.715 67.492 212.743 67.596C212.763 67.672 212.783 67.748 212.803 67.82C212.831 67.908 212.855 67.992 212.883 68.076C212.907 68.152 212.935 68.232 212.963 68.308C212.991 68.388 213.023 68.464 213.055 68.54C213.095 68.644 213.139 68.744 213.187 68.844C213.219 68.912 213.251 68.98 213.287 69.048C213.287 69.048 213.291 69.056 213.291 69.06C213.347 69.172 213.407 69.28 213.467 69.388C213.475 69.4 213.483 69.412 213.487 69.424C213.543 69.516 213.599 69.604 213.655 69.692C213.731 69.808 213.807 69.924 213.891 70.036C213.987 70.168 214.087 70.3 214.191 70.424C214.259 70.508 214.331 70.588 214.403 70.664C214.411 70.676 214.423 70.684 214.431 70.696C214.479 70.748 214.527 70.8 214.575 70.848C214.643 70.916 214.711 70.984 214.779 71.044C214.787 71.056 214.799 71.064 214.807 71.072C214.815 71.08 214.819 71.088 214.827 71.092C214.847 71.112 214.871 71.132 214.891 71.152C215.003 71.252 215.119 71.352 215.235 71.444C215.343 71.532 215.451 71.616 215.567 71.692C215.639 71.744 215.711 71.792 215.783 71.84C215.867 71.896 215.951 71.952 216.039 72.004C216.179 72.088 216.323 72.168 216.467 72.24C217.415 72.72 218.487 73 219.619 73.02V80.368C219.383 80.372 219.151 80.392 218.923 80.416C218.807 80.424 218.691 80.444 218.579 80.464C218.487 80.472 218.395 80.492 218.307 80.508C218.175 80.54 218.043 80.568 217.911 80.6C217.803 80.628 217.695 80.656 217.587 80.696C217.479 80.724 217.375 80.764 217.271 80.8C217.167 80.84 217.063 80.876 216.959 80.92C216.855 80.964 216.755 81.008 216.655 81.056C216.555 81.1 216.455 81.152 216.359 81.204C216.259 81.256 216.163 81.308 216.067 81.368C215.987 81.416 215.915 81.456 215.839 81.508C215.715 81.592 215.595 81.672 215.475 81.764C215.399 81.816 215.327 81.868 215.255 81.928C215.083 82.064 214.919 82.204 214.759 82.364C213.379 83.668 212.519 85.52 212.519 87.576V87.648C212.519 88.2 212.579 88.732 212.703 89.244C212.727 89.36 212.755 89.468 212.787 89.58C212.815 89.692 212.851 89.8 212.887 89.908C212.907 89.984 212.931 90.052 212.963 90.124C212.963 90.132 212.971 90.144 212.975 90.152C212.975 90.156 212.979 90.164 212.983 90.168C212.991 90.192 212.999 90.22 213.011 90.244C213.051 90.368 213.107 90.488 213.159 90.608C213.291 90.908 213.447 91.2 213.627 91.48C213.711 91.62 213.807 91.756 213.903 91.892C213.963 91.976 214.031 92.068 214.103 92.148C214.167 92.24 214.235 92.32 214.315 92.4C214.379 92.488 214.455 92.568 214.535 92.644C214.607 92.72 214.683 92.796 214.759 92.868L215.011 93.096C215.091 93.168 215.175 93.24 215.263 93.3C215.327 93.356 215.395 93.408 215.467 93.456C215.499 93.488 215.535 93.508 215.567 93.532C215.643 93.588 215.719 93.64 215.795 93.688C215.867 93.74 215.943 93.78 216.019 93.824C216.099 93.876 216.183 93.924 216.267 93.968C216.355 94.02 216.447 94.068 216.539 94.108C216.615 94.148 216.695 94.188 216.775 94.22C217.243 94.432 217.735 94.596 218.247 94.7C218.455 94.744 218.667 94.78 218.883 94.804C218.899 94.804 218.911 94.808 218.923 94.808C219.151 94.832 219.383 94.848 219.619 94.852V102.204C217.075 102.244 214.843 103.6 213.591 105.624C212.963 106.648 212.575 107.84 212.527 109.116C212.523 109.216 212.519 109.308 212.519 109.408V109.48C212.519 109.564 212.519 109.64 212.527 109.716C212.527 109.872 212.539 110.032 212.559 110.192C212.587 110.52 212.643 110.844 212.719 111.168C212.863 111.768 213.087 112.34 213.367 112.872C214.567 115.116 216.911 116.644 219.619 116.688V124.032C216.307 124.092 213.535 126.368 212.743 129.448C212.631 129.908 212.555 130.392 212.531 130.88V130.92C212.523 131.028 212.519 131.132 212.519 131.244V131.316C212.519 131.42 212.523 131.524 212.527 131.628C212.615 133.644 213.527 135.432 214.931 136.692H214.935C216.183 137.808 217.819 138.496 219.619 138.52V145.868C216.107 145.92 213.195 148.488 212.627 151.856C212.571 152.16 212.539 152.464 212.527 152.776C212.523 152.876 212.519 152.972 212.519 153.072V153.144C212.519 153.248 212.523 153.348 212.527 153.452C212.527 153.524 212.531 153.596 212.539 153.668C212.547 153.792 212.559 153.916 212.575 154.036C212.591 154.172 212.611 154.3 212.635 154.432C212.679 154.684 212.739 154.932 212.811 155.172C212.887 155.452 212.987 155.724 213.103 155.984C213.175 156.16 213.259 156.332 213.347 156.496C213.391 156.58 213.435 156.664 213.483 156.744C213.667 157.072 213.883 157.384 214.123 157.676C214.183 157.748 214.243 157.82 214.303 157.892C214.367 157.964 214.427 158.032 214.495 158.1C214.559 158.168 214.623 158.236 214.691 158.3C214.991 158.596 215.315 158.86 215.663 159.096C215.743 159.156 215.831 159.208 215.915 159.264C215.967 159.296 216.019 159.328 216.071 159.356C216.139 159.396 216.203 159.436 216.275 159.472C216.439 159.564 216.611 159.648 216.783 159.724C216.867 159.76 216.951 159.796 217.039 159.832C217.043 159.836 217.047 159.836 217.051 159.836C217.135 159.872 217.227 159.904 217.315 159.936C217.403 159.968 217.495 160 217.587 160.028C217.679 160.056 217.771 160.084 217.867 160.108C217.959 160.132 218.051 160.156 218.147 160.176C218.243 160.196 218.339 160.216 218.435 160.232C218.523 160.248 218.607 160.264 218.695 160.276C218.715 160.28 218.731 160.28 218.747 160.284C218.831 160.296 218.911 160.304 218.995 160.312C219.015 160.316 219.035 160.316 219.055 160.32C219.243 160.336 219.431 160.344 219.619 160.348V167.696C219.527 167.696 219.435 167.7 219.339 167.716C217.807 167.792 216.411 168.348 215.283 169.24C214.667 169.724 214.131 170.304 213.699 170.964C213.015 172 212.595 173.224 212.531 174.544C212.523 174.672 212.519 174.804 212.519 174.944V174.976C212.519 175.096 212.523 175.22 212.531 175.34C212.539 175.556 212.563 175.772 212.595 175.988C212.615 176.12 212.635 176.252 212.663 176.38C212.675 176.448 212.687 176.516 212.703 176.58C212.771 176.88 212.855 177.172 212.963 177.456C212.983 177.516 213.007 177.58 213.031 177.64C213.079 177.76 213.131 177.876 213.183 177.992C213.239 178.116 213.303 178.24 213.367 178.36C213.439 178.496 213.515 178.632 213.599 178.76C213.607 178.78 213.619 178.796 213.627 178.808C213.707 178.94 213.795 179.068 213.887 179.192C213.891 179.196 213.895 179.2 213.895 179.204C213.987 179.332 214.083 179.46 214.187 179.58C214.259 179.668 214.335 179.752 214.411 179.836C214.651 180.1 214.915 180.348 215.195 180.58C215.259 180.628 215.327 180.68 215.395 180.732C215.455 180.78 215.519 180.824 215.583 180.868C215.687 180.944 215.795 181.012 215.903 181.08C216.135 181.228 216.383 181.364 216.635 181.48C216.723 181.524 216.811 181.564 216.903 181.604C216.915 181.612 216.931 181.616 216.947 181.62C217.027 181.656 217.111 181.688 217.195 181.72C217.455 181.82 217.719 181.9 217.991 181.968C218.047 181.984 218.107 181.996 218.163 182.008C218.243 182.028 218.323 182.044 218.407 182.056C218.503 182.076 218.599 182.092 218.699 182.104C218.767 182.116 218.839 182.128 218.907 182.132C219.143 182.16 219.379 182.176 219.619 182.18V189.532C217.787 189.56 216.119 190.272 214.863 191.432C214.415 191.836 214.023 192.3 213.691 192.808C213.363 193.3 213.103 193.84 212.911 194.408C212.707 194.992 212.583 195.6 212.539 196.24C212.535 196.24 212.535 196.252 212.539 196.256C212.531 196.344 212.527 196.428 212.523 196.516C212.523 196.616 212.519 196.716 212.519 196.816C212.519 196.908 212.523 197.008 212.527 197.104C212.559 197.944 212.743 198.748 213.039 199.496C213.103 199.656 213.171 199.812 213.247 199.964C213.251 199.976 213.259 199.988 213.263 200C213.319 200.108 213.375 200.212 213.431 200.316C213.463 200.372 213.495 200.428 213.527 200.48C213.603 200.612 213.687 200.74 213.771 200.864C213.855 200.988 213.943 201.108 214.031 201.224C214.159 201.388 214.295 201.544 214.435 201.696C214.519 201.788 214.611 201.88 214.703 201.972C214.951 202.212 215.219 202.436 215.503 202.64C215.591 202.7 215.679 202.76 215.767 202.82C216.207 203.12 216.679 203.364 217.171 203.548H217.187C217.943 203.844 218.767 204 219.619 204.016V211.368C218.323 211.388 217.111 211.748 216.067 212.368C214.171 213.484 212.831 215.452 212.567 217.744C212.547 217.924 212.531 218.116 212.527 218.304C212.523 218.368 212.523 218.432 212.519 218.5V218.644C212.519 218.7 212.519 218.768 212.523 218.824C212.523 218.9 212.527 218.98 212.535 219.056C212.539 219.132 212.543 219.208 212.555 219.28C212.559 219.372 212.567 219.464 212.583 219.556C212.615 219.832 212.663 220.104 212.731 220.368C212.771 220.544 212.823 220.716 212.883 220.888C212.907 220.976 212.939 221.06 212.971 221.144C213.247 221.9 213.651 222.592 214.151 223.2C214.215 223.288 214.287 223.368 214.363 223.448C214.431 223.528 214.507 223.608 214.583 223.688C214.735 223.844 214.891 223.992 215.055 224.124C215.139 224.196 215.219 224.268 215.307 224.328C215.379 224.392 215.451 224.444 215.527 224.496C215.551 224.516 215.575 224.532 215.603 224.548C215.679 224.604 215.759 224.656 215.839 224.704C215.923 224.768 216.007 224.82 216.095 224.868C216.115 224.876 216.135 224.892 216.155 224.9C216.235 224.948 216.319 224.996 216.403 225.032C216.523 225.096 216.643 225.156 216.767 225.216C216.783 225.224 216.803 225.232 216.819 225.236C216.879 225.264 216.935 225.288 216.995 225.308C217.095 225.352 217.195 225.396 217.299 225.428C217.483 225.496 217.675 225.552 217.867 225.604C217.959 225.628 218.051 225.652 218.143 225.672C218.399 225.732 218.663 225.776 218.931 225.804C219.159 225.828 219.387 225.844 219.619 225.848V233.196C219.511 233.196 219.391 233.204 219.283 233.216C218.899 233.24 218.527 233.292 218.163 233.372C217.875 233.436 217.595 233.516 217.323 233.616C217.071 233.7 216.831 233.804 216.595 233.92H216.591C214.187 235.092 212.523 237.548 212.523 240.404C212.523 241.348 212.711 242.252 213.043 243.088C213.595 244.456 214.547 245.616 215.771 246.416C216.211 246.708 216.683 246.952 217.175 247.144H217.191C217.499 247.26 217.819 247.36 218.147 247.432C218.623 247.54 219.119 247.6 219.623 247.604V255.028C219.283 255.036 218.947 255.064 218.619 255.116C217.243 255.328 215.995 255.928 214.995 256.804C214.547 257.196 214.155 257.632 213.823 258.12C213.007 259.28 212.523 260.704 212.523 262.232C212.523 266.144 215.635 269.316 219.515 269.44C219.523 269.56 219.531 269.68 219.535 269.796C219.563 270.232 219.591 270.668 219.619 271.096C219.619 271.108 219.619 271.116 219.623 271.128V276.992C219.623 276.992 219.607 276.992 219.595 276.992C219.515 276.98 219.431 276.972 219.347 276.968C219.287 276.96 219.223 276.956 219.163 276.952C219.043 276.948 218.919 276.944 218.795 276.944C218.687 276.944 218.571 276.944 218.467 276.944C218.283 276.952 218.099 276.968 217.923 276.992C215.231 277.32 212.995 279.124 212.063 281.58C211.843 282.156 211.695 282.772 211.631 283.416C211.611 283.6 211.595 283.796 211.595 283.992H204.167C204.091 280.308 201.255 277.308 197.647 276.968C197.535 276.956 197.415 276.948 197.295 276.944C197.187 276.944 197.071 276.944 196.963 276.944C196.775 276.944 196.595 276.944 196.415 276.96C196.335 276.972 196.247 276.972 196.171 276.984C193.671 277.256 191.559 278.804 190.495 280.968C190.223 281.52 190.023 282.108 189.899 282.728C189.823 283.144 189.771 283.56 189.763 283.996H182.335C182.255 280.4 179.555 277.452 176.071 277.004C175.959 276.992 175.847 276.976 175.731 276.972C175.575 276.952 175.423 276.948 175.267 276.948C175.223 276.948 175.171 276.948 175.131 276.948H175.095C174.995 276.948 174.899 276.948 174.799 276.948C174.595 276.96 174.395 276.98 174.191 277.004C174.123 277.02 174.055 277.024 173.987 277.036C171.947 277.36 170.199 278.532 169.119 280.18V280.192C168.775 280.7 168.507 281.244 168.307 281.828C168.079 282.508 167.947 283.236 167.931 283.996H160.495C160.423 280.192 157.399 277.12 153.623 276.948C153.519 276.948 153.407 276.948 153.295 276.948H153.263C151.183 276.956 149.311 277.852 147.995 279.272C147.595 279.708 147.247 280.204 146.959 280.728C146.423 281.704 146.119 282.816 146.095 284H138.667C138.595 280.54 136.091 277.684 132.799 277.076C132.587 277.028 132.371 277 132.147 276.976C132.035 276.964 131.915 276.956 131.795 276.952C131.687 276.952 131.575 276.952 131.467 276.952C131.359 276.952 131.247 276.952 131.139 276.952C131.047 276.956 130.967 276.96 130.883 276.972C130.787 276.972 130.691 276.984 130.595 277C130.415 277.016 130.239 277.052 130.063 277.084C129.967 277.104 129.871 277.128 129.779 277.148C129.711 277.16 129.647 277.18 129.579 277.2C128.735 277.428 127.951 277.804 127.263 278.3C126.787 278.64 126.355 279.04 125.975 279.484C124.935 280.708 124.299 282.28 124.263 284H116.835C116.759 280.356 113.991 277.384 110.443 276.996C110.347 276.98 110.255 276.976 110.163 276.964H110.147C110.071 276.956 109.995 276.952 109.923 276.952C109.823 276.952 109.731 276.952 109.635 276.952C109.519 276.952 109.399 276.952 109.291 276.952C109.171 276.956 109.063 276.964 108.947 276.976C108.723 277 108.495 277.028 108.283 277.072C107.843 277.152 107.423 277.276 107.015 277.436C106.471 277.652 105.967 277.924 105.495 278.252C103.687 279.528 102.483 281.624 102.431 284H94.9988C94.9228 280.316 92.0908 277.312 88.4868 276.976C88.3708 276.964 88.2548 276.956 88.1348 276.952C88.0228 276.952 87.9148 276.952 87.7988 276.952C87.7068 276.952 87.6148 276.952 87.5228 276.952C87.3708 276.952 87.2228 276.96 87.0788 276.98C86.9948 276.988 86.9228 277 86.8468 277.004C86.4108 277.06 85.9868 277.16 85.5828 277.296C82.7348 278.216 80.6668 280.856 80.5948 284H73.1708C73.1068 280.908 71.0988 278.304 68.3228 277.352C68.2348 277.316 68.1468 277.288 68.0548 277.26C68.0148 277.248 67.9708 277.232 67.9308 277.224C67.8588 277.204 67.7868 277.18 67.7148 277.164C67.3708 277.076 67.0228 277.012 66.6628 276.98C66.5948 276.976 66.5388 276.972 66.4708 276.964C66.3708 276.956 66.2628 276.952 66.1548 276.952H66.1388C66.0828 276.952 66.0228 276.952 65.9708 276.952H65.9348C65.8228 276.952 65.7148 276.952 65.5988 276.952C65.3708 276.964 65.1428 276.988 64.9148 277.024C64.9108 277.024 64.8988 277.024 64.8948 277.024C61.4708 277.528 58.8428 280.448 58.7668 283.996H51.3388C51.2908 281.76 50.2348 279.78 48.5988 278.492C48.0828 278.08 47.4988 277.744 46.8828 277.484C46.0628 277.148 45.1708 276.952 44.2228 276.948C44.1948 276.948 44.1668 276.948 44.1348 276.948C43.8868 276.948 43.6388 276.956 43.3948 276.98C43.2908 276.996 43.1908 277.004 43.0868 277.024C42.9868 277.032 42.8828 277.052 42.7828 277.072C42.6828 277.088 42.5828 277.108 42.4828 277.132C39.6148 277.808 37.4068 280.2 36.9988 283.164C36.9628 283.436 36.9388 283.716 36.9348 284H29.5068C29.4828 282.928 29.2308 281.912 28.7868 281.008C28.4588 280.336 28.0388 279.724 27.5308 279.192C27.4748 279.132 27.4188 279.072 27.3588 279.016C26.1388 277.816 24.4948 277.048 22.6708 276.952C22.5468 276.952 22.4308 276.952 22.3068 276.952C22.2068 276.952 22.1068 276.952 22.0068 276.952C21.8868 276.956 21.7708 276.964 21.6548 276.976C18.0228 277.3 15.1748 280.304 15.0988 284H7.67083C7.65483 283.096 7.47083 282.232 7.14683 281.44C6.81883 280.632 6.35082 279.896 5.76682 279.264C4.57082 277.964 2.90282 277.108 1.03082 276.964C0.966823 276.96 0.898818 276.956 0.838818 276.952C0.758818 276.952 0.682816 276.952 0.598816 276.952H0.538818V269.452C3.92282 269.356 6.73082 266.932 7.39482 263.728C7.49482 263.252 7.54683 262.756 7.54683 262.244C7.54683 262 7.53882 261.744 7.51082 261.504C7.14682 258.004 4.28682 255.256 0.738818 255.06C0.670818 255.056 0.606818 255.044 0.538818 255.044V247.612C4.43082 247.508 7.54683 244.332 7.54683 240.416C7.54683 239.492 7.38283 238.616 7.05883 237.808C6.85483 237.264 6.57483 236.756 6.24683 236.288C6.09483 236.068 5.93082 235.86 5.75482 235.66C5.74682 235.656 5.73883 235.644 5.73483 235.64C4.45883 234.2 2.60282 233.276 0.538818 233.212V225.856C3.92282 225.76 6.73082 223.34 7.39482 220.132C7.49482 219.656 7.54683 219.16 7.54683 218.656C7.54683 218.588 7.54682 218.52 7.54282 218.456C7.54282 218.38 7.53883 218.308 7.53483 218.232C7.53483 218.12 7.52682 218.012 7.51082 217.908C7.49882 217.8 7.48683 217.688 7.47083 217.58C7.18283 215.468 5.97882 213.656 4.26682 212.54C3.58282 212.1 2.81882 211.764 1.99882 211.576C1.53082 211.46 1.03882 211.4 0.538818 211.38V204.02C4.22682 203.916 7.21882 201.06 7.51882 197.432C7.53882 197.232 7.54683 197.032 7.54683 196.828V196.752C7.54683 196.584 7.54683 196.42 7.53483 196.264C7.29083 192.58 4.26682 189.656 0.538818 189.552V182.188C0.606818 182.188 0.670818 182.184 0.738818 182.18C2.70682 182.076 4.46682 181.18 5.70682 179.804C6.72282 178.68 7.37882 177.232 7.51482 175.632C7.52682 175.512 7.53482 175.4 7.53882 175.28C7.54682 175.184 7.54683 175.088 7.54683 174.988V174.916C7.54683 173.72 7.25882 172.592 6.74282 171.604C6.43882 171.012 6.04682 170.468 5.60682 169.992C4.33082 168.636 2.53882 167.776 0.538818 167.716V160.356C3.97082 160.26 6.80682 157.78 7.42281 154.504C7.48681 154.188 7.52283 153.864 7.53483 153.536C7.54283 153.408 7.54683 153.284 7.54683 153.156C7.54683 153.076 7.54682 152.992 7.54282 152.912C7.54282 152.832 7.53883 152.756 7.53483 152.676C7.32683 148.952 4.29482 145.988 0.538818 145.884V138.528C4.42282 138.42 7.53483 135.256 7.54683 131.352V131.328C7.54683 131.18 7.54283 131.032 7.53483 130.88C7.51483 130.428 7.45483 129.98 7.34683 129.556C6.59883 126.456 3.84682 124.14 0.538818 124.052V116.692C2.42282 116.64 4.14282 115.86 5.39882 114.616C5.92282 114.108 6.37082 113.512 6.71882 112.86C6.81482 112.676 6.90682 112.48 6.98682 112.284C7.03082 112.184 7.07082 112.084 7.10282 111.984C7.14282 111.884 7.17882 111.784 7.20682 111.68C7.23882 111.576 7.27082 111.476 7.29482 111.368C7.32682 111.264 7.35083 111.16 7.37083 111.052C7.44283 110.756 7.48682 110.452 7.51082 110.14C7.52282 110.052 7.53083 109.96 7.53483 109.868C7.54283 109.744 7.54683 109.62 7.54683 109.492C7.54683 109.364 7.54282 109.252 7.53882 109.132C7.53482 109.008 7.52682 108.892 7.51482 108.78C7.19882 105.16 4.21482 102.316 0.538818 102.22V94.86C0.710818 94.856 0.878826 94.844 1.04683 94.832C1.21483 94.812 1.38283 94.788 1.54683 94.76C1.76683 94.728 1.97882 94.68 2.19082 94.62C2.29882 94.6 2.40282 94.564 2.50682 94.532C2.61082 94.504 2.71482 94.464 2.81482 94.428C2.91882 94.388 3.01882 94.352 3.11882 94.308C3.21882 94.264 3.31882 94.22 3.41482 94.176C3.51482 94.132 3.61082 94.08 3.70282 94.032C3.79882 93.98 3.89082 93.932 3.98282 93.876C4.07482 93.82 4.16682 93.764 4.25482 93.708C4.34682 93.652 4.43482 93.592 4.51882 93.528C4.59882 93.472 4.68283 93.412 4.75883 93.348C4.76283 93.348 4.76683 93.344 4.77083 93.34C4.84283 93.284 4.91082 93.228 4.97482 93.172C4.98682 93.164 4.99882 93.156 5.00682 93.144C5.07882 93.084 5.15082 93.024 5.21882 92.956C5.29082 92.892 5.36683 92.82 5.43483 92.748C5.50683 92.68 5.57482 92.608 5.64282 92.532C5.71082 92.456 5.77882 92.384 5.83882 92.304C6.76282 91.224 7.36682 89.86 7.50682 88.368C7.51482 88.292 7.52282 88.22 7.52682 88.144C7.53482 88.068 7.53882 87.992 7.54282 87.916C7.54682 87.86 7.54683 87.804 7.54683 87.74V87.588C7.54683 87.492 7.54282 87.4 7.53882 87.308C7.51082 86.516 7.35482 85.764 7.08682 85.06C7.01482 84.856 6.92682 84.656 6.83082 84.456C6.69082 84.164 6.53082 83.884 6.35482 83.616C6.35082 83.612 6.34683 83.612 6.34683 83.608C6.23083 83.432 6.10282 83.256 5.96682 83.084C5.83082 82.916 5.68682 82.756 5.53882 82.604C5.46682 82.52 5.38682 82.444 5.31082 82.376C5.23482 82.3 5.15483 82.228 5.07083 82.156C4.99083 82.08 4.90682 82.012 4.82281 81.952C4.74282 81.88 4.66282 81.82 4.57882 81.76C4.47882 81.688 4.37882 81.62 4.27882 81.556C4.19482 81.5 4.11082 81.444 4.02281 81.4C3.93081 81.336 3.83482 81.284 3.73882 81.236C3.64682 81.18 3.55082 81.132 3.45082 81.088C3.35082 81.04 3.25082 80.992 3.15082 80.956C3.05482 80.908 2.95482 80.876 2.85482 80.836C2.55882 80.728 2.25482 80.632 1.94282 80.56C1.83482 80.536 1.72282 80.512 1.61082 80.5C1.51882 80.48 1.42682 80.464 1.33082 80.456C1.19082 80.432 1.04682 80.416 0.90282 80.408C0.78282 80.392 0.662818 80.388 0.538818 80.384V73.028C1.06282 73.012 1.57082 72.94 2.06282 72.82C2.96282 72.604 3.79482 72.212 4.53082 71.688C4.74282 71.54 4.94283 71.376 5.13483 71.204C5.23083 71.12 5.32682 71.032 5.41482 70.94C5.48282 70.88 5.54282 70.816 5.60282 70.748C5.61082 70.74 5.61482 70.732 5.62282 70.724C5.63082 70.72 5.63482 70.712 5.63882 70.708C5.67882 70.668 5.71482 70.628 5.75082 70.584C5.79882 70.536 5.84282 70.484 5.88282 70.432C5.94282 70.364 5.99882 70.292 6.05082 70.22C6.15082 70.096 6.24282 69.968 6.33082 69.832C6.37882 69.76 6.42683 69.688 6.47083 69.612C6.47483 69.604 6.47882 69.6 6.48282 69.592C6.53082 69.516 6.57881 69.44 6.62282 69.356C6.62681 69.348 6.63083 69.344 6.63483 69.336C6.67883 69.26 6.71883 69.184 6.75883 69.104C6.80283 69.02 6.84282 68.936 6.88282 68.848C6.88282 68.84 6.88282 68.836 6.89082 68.828C6.91482 68.78 6.93883 68.728 6.95883 68.676C6.98283 68.624 7.00282 68.572 7.02282 68.52C7.06681 68.416 7.10682 68.308 7.14282 68.2C7.15482 68.172 7.16283 68.144 7.17083 68.116C7.20283 68.032 7.23082 67.944 7.25082 67.856C7.26282 67.824 7.27082 67.788 7.27882 67.756C7.27882 67.748 7.28282 67.744 7.28282 67.736C7.30682 67.664 7.32682 67.592 7.34282 67.52C7.35882 67.456 7.37482 67.392 7.38682 67.324C7.39882 67.268 7.41082 67.208 7.42281 67.148C7.43481 67.072 7.44683 66.992 7.45883 66.912C7.47083 66.848 7.47882 66.784 7.48282 66.72C7.48282 66.704 7.49082 66.692 7.49082 66.676C7.50282 66.588 7.51082 66.5 7.51882 66.408C7.53082 66.304 7.53482 66.192 7.53882 66.084C7.54682 66.004 7.54683 65.916 7.54683 65.832C7.54683 65.708 7.54282 65.584 7.53882 65.464C7.53482 65.352 7.52682 65.232 7.51482 65.116C7.45482 64.38 7.28282 63.68 7.01482 63.02C5.95882 60.456 3.46682 58.636 0.538818 58.556V51.2C1.35882 51.18 2.13882 51.016 2.86282 50.74C2.93882 50.716 3.01482 50.688 3.08682 50.656C3.25082 50.588 3.41082 50.516 3.56682 50.44C5.07882 49.684 6.28683 48.412 6.95883 46.856C7.19483 46.332 7.35883 45.764 7.44683 45.18C7.51883 44.8 7.54683 44.404 7.54683 44C7.54683 40.08 4.43082 36.904 0.538818 36.792V29.36C1.35482 29.34 2.12282 29.18 2.85482 28.912C5.59482 27.904 7.54683 25.26 7.54683 22.164C7.54683 21.2 7.35882 20.268 7.01482 19.432C5.95882 16.864 3.46682 15.044 0.538818 14.964V7.55598C0.646818 7.55598 0.746826 7.55598 0.858826 7.54398C0.970826 7.53598 1.09082 7.53199 1.20682 7.51599C4.84282 7.14399 7.68282 4.07598 7.68282 0.339984C7.68282 0.275984 7.67083 0.207984 7.67083 0.139984H15.0988C15.0988 0.207984 15.0948 0.275984 15.0948 0.339984C15.0948 4.21998 18.1548 7.38798 21.9988 7.54398C22.0988 7.55198 22.2068 7.55598 22.3068 7.55598H22.3708C26.3228 7.51598 29.5108 4.29998 29.5108 0.339984C29.5108 0.275984 29.4988 0.207984 29.4988 0.139984H36.9348C36.9348 0.207984 36.9228 0.275984 36.9228 0.339984C36.9228 0.707984 36.9548 1.05998 37.0068 1.40798C37.4988 4.75998 40.3068 7.35998 43.7468 7.54398C43.8708 7.55198 44.0068 7.55598 44.1348 7.55598H44.1628C44.2828 7.55598 44.3948 7.55598 44.5148 7.53998C44.5948 7.53598 44.6708 7.53198 44.7468 7.52798C44.8308 7.51998 44.9068 7.51199 44.9868 7.50399C45.1068 7.48399 45.2228 7.46798 45.3468 7.45198C45.4668 7.43198 45.5868 7.40798 45.6988 7.37998C46.3948 7.22798 47.0508 6.97598 47.6508 6.63998C48.2828 6.28398 48.8548 5.83998 49.3468 5.31998C50.5828 4.03198 51.3468 2.27598 51.3468 0.339984C51.3468 0.275984 51.3388 0.207984 51.3388 0.139984H58.7708C58.7708 0.207984 58.7588 0.275984 58.7588 0.339984C58.7588 4.07598 61.5948 7.14399 65.2348 7.51599C65.3228 7.52799 65.4108 7.53199 65.4988 7.53599C65.5468 7.53999 65.5948 7.54398 65.6388 7.54398C65.7468 7.55198 65.8588 7.55598 65.9708 7.55598C66.0828 7.55598 66.1988 7.55598 66.3188 7.53998C66.4388 7.53998 66.5548 7.53198 66.6708 7.51198C66.6828 7.51598 66.6948 7.51598 66.7068 7.51198C67.0788 7.47998 67.4388 7.41198 67.7908 7.31998C68.4988 7.13598 69.1708 6.83998 69.7828 6.45598C71.8228 5.18398 73.1828 2.91998 73.1828 0.339984C73.1828 0.275984 73.1708 0.207984 73.1668 0.139984H80.5948C80.5948 0.207984 80.5908 0.275984 80.5908 0.339984C80.5908 3.20398 82.2588 5.67598 84.6748 6.84398C84.8388 6.91998 85.0028 7.00398 85.1748 7.06398C85.2628 7.09998 85.3468 7.13199 85.4388 7.15999C85.5628 7.20799 85.6908 7.24398 85.8188 7.27998C85.9908 7.33198 86.1628 7.37598 86.3388 7.40798C86.4628 7.43198 86.5908 7.45598 86.7188 7.47998C86.8188 7.48798 86.9188 7.50398 87.0188 7.51198C87.0348 7.51198 87.0468 7.51599 87.0628 7.51599C87.1828 7.53199 87.2988 7.53598 87.4228 7.54398H87.4348C87.5428 7.55198 87.6548 7.55598 87.7668 7.55598H87.7988C87.9188 7.55598 88.0388 7.55598 88.1468 7.54398C91.9668 7.36398 95.0108 4.20798 95.0108 0.339984C95.0108 0.275984 94.9988 0.207984 94.9988 0.139984H102.435C102.431 0.207984 102.423 0.275984 102.423 0.339984C102.423 2.81198 103.667 4.99199 105.567 6.29199C106.035 6.61999 106.547 6.88398 107.095 7.08798C107.439 7.21998 107.791 7.31998 108.155 7.39998C108.167 7.39998 108.183 7.40798 108.199 7.40798C108.363 7.43998 108.535 7.47599 108.707 7.49199C108.899 7.51599 109.099 7.53598 109.299 7.54398C109.411 7.55198 109.523 7.55598 109.635 7.55598C109.747 7.55598 109.859 7.55598 109.971 7.54398C113.795 7.36798 116.847 4.20798 116.847 0.339984C116.847 0.275984 116.835 0.207984 116.831 0.139984H124.263C124.263 0.207984 124.255 0.275984 124.255 0.339984C124.255 1.91998 124.767 3.38398 125.623 4.57598C125.971 5.05198 126.371 5.47998 126.819 5.85598C127.499 6.43198 128.295 6.88398 129.159 7.17998C129.167 7.17998 129.171 7.17998 129.183 7.18398C129.335 7.23598 129.495 7.28398 129.655 7.32798C129.659 7.32798 129.667 7.32798 129.671 7.32798C129.719 7.33598 129.771 7.35198 129.819 7.35598C129.947 7.38798 130.083 7.41598 130.219 7.43998C130.231 7.44798 130.243 7.44798 130.255 7.45198C130.439 7.47598 130.623 7.50398 130.811 7.52398C130.919 7.52398 131.023 7.53598 131.139 7.53998C131.247 7.54798 131.355 7.55198 131.467 7.55198C131.579 7.55198 131.695 7.55198 131.807 7.53998C135.623 7.36398 138.671 4.20399 138.671 0.335986C138.671 0.271986 138.671 0.203986 138.671 0.135986H146.099C146.099 0.203986 146.095 0.271986 146.095 0.335986C146.095 1.13599 146.223 1.90798 146.471 2.62798C146.667 3.22398 146.935 3.77998 147.275 4.29598C148.227 5.75198 149.695 6.83599 151.415 7.30399C151.431 7.30399 151.447 7.30798 151.463 7.31198H151.475C151.671 7.37198 151.875 7.40798 152.083 7.43998C152.187 7.45998 152.287 7.47998 152.395 7.49598C152.487 7.50398 152.575 7.50799 152.671 7.51599C152.771 7.52799 152.867 7.53198 152.967 7.53998C153.067 7.54798 153.167 7.55198 153.267 7.55198H153.299C157.287 7.55198 160.515 4.31599 160.515 0.335986C160.515 0.271986 160.499 0.203986 160.499 0.135986H167.939C167.935 0.203986 167.923 0.271986 167.923 0.335986C167.923 0.463986 167.927 0.595981 167.935 0.723981C167.971 1.40798 168.099 2.07598 168.319 2.69998C169.091 4.92398 170.919 6.65198 173.199 7.28398C173.243 7.29998 173.283 7.30399 173.323 7.31599C173.407 7.33999 173.499 7.35998 173.591 7.37998C173.703 7.40398 173.811 7.43198 173.927 7.45198C174.035 7.47198 174.147 7.48398 174.259 7.49998C174.351 7.50798 174.451 7.51598 174.547 7.52798C174.635 7.53198 174.719 7.53598 174.799 7.53998C174.915 7.54798 175.023 7.55198 175.135 7.55198C175.227 7.55198 175.327 7.55198 175.427 7.53998C179.271 7.38798 182.347 4.22399 182.347 0.335986C182.347 0.271986 182.339 0.203986 182.335 0.135986H189.767C189.767 0.203986 189.759 0.271986 189.759 0.335986C189.759 0.627986 189.775 0.903984 189.803 1.18398C190.215 4.65598 193.083 7.37598 196.623 7.53998C196.735 7.54798 196.851 7.55198 196.967 7.55198C197.175 7.55198 197.391 7.53998 197.599 7.52398C197.611 7.52398 197.627 7.51599 197.639 7.51599C197.991 7.48399 198.339 7.42798 198.675 7.33998C198.779 7.31598 198.891 7.28398 198.995 7.25198C200.999 6.67598 202.635 5.23998 203.499 3.38398C203.935 2.45998 204.175 1.42799 204.175 0.335986C204.175 0.271986 204.175 0.203986 204.175 0.135986H211.603C211.603 0.203986 211.591 0.271986 211.591 0.335986C211.591 3.55199 213.691 6.26399 216.591 7.20399C216.627 7.21199 216.659 7.22798 216.691 7.23198C216.815 7.27598 216.943 7.30399 217.071 7.33599C217.251 7.37999 217.431 7.42398 217.619 7.45198C217.731 7.47598 217.851 7.48799 217.971 7.50399C218.243 7.53199 218.523 7.55198 218.803 7.55198C218.903 7.55198 219.003 7.55198 219.107 7.53998C219.127 7.53998 219.143 7.53599 219.163 7.53599C219.243 7.53199 219.327 7.52399 219.407 7.51599H219.415C219.415 7.51599 219.455 7.51598 219.471 7.51198C219.487 7.51198 219.503 7.50798 219.527 7.50798C219.543 7.50798 219.555 7.50399 219.579 7.50399C219.599 7.50399 219.615 7.49998 219.631 7.49598V14.956C219.607 14.956 219.583 14.956 219.559 14.96C215.663 15.052 212.531 18.24 212.531 22.16L212.519 22.152Z" fill="#F9F8F4"/>
<path d="M219.619 269.444V271.128C219.619 271.128 219.615 271.108 219.615 271.096C219.591 270.668 219.563 270.232 219.531 269.796C219.527 269.68 219.519 269.56 219.511 269.44C219.547 269.44 219.583 269.44 219.619 269.44V269.444Z" fill="#F9F8F4"/>
<path d="M33.4588 28.9679L28.9628 33.4639L28.6148 31.1159L31.4868 29.0599L33.4588 28.9679ZM36.2828 28.8319L35.0988 28.8879L24.3948 39.5919L24.2988 42.5199L37.1388 29.6799L36.2828 28.8319ZM37.9188 30.4599L24.5108 43.8679L25.5308 45.6759L39.3348 31.8679L37.9188 30.4599ZM45.8708 28.0799L41.0788 33.5999L40.1188 32.6479L26.0948 46.6719L26.9588 48.1999L27.0148 48.5799L47.7508 27.8439L45.8708 28.0799ZM50.6628 27.4759L49.5388 27.6159L27.2068 49.9479L27.5588 52.4239L52.9028 27.0799L50.6628 27.4759ZM55.4548 26.6319L54.7988 26.7479L27.9108 53.6359L28.7228 55.6479L57.1508 27.2199L55.4548 26.6319ZM60.4628 28.2999L60.2468 28.2919L58.3108 27.6199L29.1708 56.7639L29.5508 57.7079L26.7468 62.0159L60.4628 28.2999ZM61.9708 28.3519L26.8548 63.4679L27.6548 65.4959L64.6988 28.4519L61.9708 28.3519ZM69.6708 27.8679L66.4268 28.2839L28.0988 66.6119L28.3388 67.2199L25.9588 71.5799L69.6708 27.8679ZM71.0868 28.0119L26.2708 72.8279L27.3548 74.5759L73.5948 28.3359L71.0868 28.0119ZM79.4188 26.8679L75.2148 28.2759L27.9548 75.5359L28.6948 76.7319L22.7108 81.4879L23.4988 82.8159L79.4668 26.8479L79.4188 26.8679ZM84.2108 24.9519L82.0708 25.8079H82.0668L24.0788 83.7959L25.1308 85.5759L84.8108 25.8959L84.2108 24.9519ZM85.4228 26.8439L25.7428 86.5239L26.9708 88.1279L86.5228 28.5719L85.4228 26.8439ZM87.1308 29.5239L27.6468 89.0119L28.8708 90.6119L88.2348 31.2479L87.1308 29.5239ZM93.7948 27.2559L88.8428 32.2039L29.2628 91.7799L29.5588 94.3159L95.1348 28.7399L93.7948 27.2559ZM95.8748 29.5599L29.7268 95.7079V95.7599L29.7988 98.4639L97.2188 31.0439L95.8748 29.5599ZM98.5828 32.5559L97.9588 31.8639L29.8388 99.9839L29.8508 100.516L26.6908 105.272L26.9388 105.712L100.871 31.7799L98.5828 32.5559ZM108.823 25.3879L27.5068 106.704L28.5348 108.508L110.235 26.8079L108.823 25.3879ZM112.423 29.0079L111.015 27.5879L29.0988 109.504L29.3988 110.028L26.8148 114.612L112.423 29.0079ZM113.359 29.6319L27.2788 115.712L28.3428 117.476L115.659 30.1599L113.359 29.6319ZM117.747 30.6399L116.927 30.4519L28.9308 118.448L29.5908 119.54L24.2788 124.296L24.9628 125.248L119.263 30.9439L117.747 30.6399ZM122.539 31.6039L120.563 31.2079L25.6188 126.156L26.8028 127.796L122.939 31.6599L122.543 31.6039H122.539ZM27.4508 128.704L27.7028 129.056L25.5668 133.42L126.767 32.2199L124.295 31.8599L27.4508 128.704ZM132.123 25.8599L129.211 29.7759L132.711 26.2759L132.123 25.8599ZM133.623 26.9239L25.5508 134.996L25.9188 137.452L135.275 28.0999L133.623 26.9239ZM136.915 29.2679L136.187 28.7479L26.2148 138.72L27.5188 140.244L138.691 29.0719L136.915 29.2679ZM22.4228 149.728L26.8388 145.312L22.2468 148.08L22.4228 149.728ZM141.707 28.7359L140.447 28.8759L28.2348 141.088L29.5388 142.616L144.947 27.2039L141.707 28.7359ZM147.279 26.4359L22.5748 151.14L22.7588 152.84L23.1988 153.34L150.247 26.2919L147.279 26.4359ZM151.719 26.3839L23.9268 154.172L25.2548 155.676L153.859 27.0719L151.719 26.3839ZM156.079 27.7879L155.039 27.4519L25.9828 156.508L26.9388 157.596L27.1948 158.124L157.323 27.9959L156.079 27.7879ZM160.871 28.5879L158.663 28.2199L27.7068 159.176L28.6308 161.08L161.095 28.6159L160.875 28.5879H160.871ZM162.487 28.7799L29.1348 162.132L27.6068 163.66L23.7028 167.564L25.0508 169.048L165.023 29.0759L162.487 28.7799ZM166.395 29.2639L25.7948 169.864L27.1388 171.344L168.851 29.6319L166.395 29.2639ZM175.247 26.2959L170.455 29.8759L170.207 29.8399L25.6428 174.404L23.9228 176.624L25.2348 177.64L175.851 27.0239L175.247 26.2959ZM176.559 27.8759L26.1108 178.324L27.7028 179.56L177.843 29.4199L176.559 27.8759ZM178.555 30.2719L28.5828 180.244L30.0388 181.376L22.9988 186.136L23.5348 188.116L179.835 31.8159L178.555 30.2719ZM183.579 32.2719L181.091 32.1239L23.8708 189.34L24.2908 190.892L24.6308 191.412L183.887 32.1559L183.579 32.2719ZM188.127 30.5439L186.403 31.1999L25.2508 192.352L26.3708 194.06L188.383 32.0479L188.127 30.5439ZM189.607 35.2119L188.815 34.5519L188.615 33.3799L26.9908 195.004L27.4148 195.648L27.3788 197.44L189.607 35.2119ZM190.455 35.9239L27.3468 199.032L27.3188 200.408L27.8108 201.4L191.995 37.2159L190.455 35.9239ZM192.847 37.9239L28.3308 202.44L29.2708 204.324L193.631 39.9679L193.771 38.6999L192.847 37.9239ZM29.6668 205.492L29.4468 208.54L192.199 45.7879L193.239 43.4559L193.431 41.7279L29.6668 205.492ZM186.079 53.4679L26.7948 212.752L25.0548 214.68L26.2068 216.172L187.635 54.7399L186.079 53.4679ZM188.491 55.4439L26.8828 217.056L28.1148 218.648L190.047 56.7159L188.491 55.4439ZM191.283 57.7319L190.903 57.4199L28.7628 219.56L29.5068 221.648L192.003 59.1519L191.283 57.7319ZM192.531 60.1839L29.9148 222.8L30.4148 224.196L28.7868 226.752L186.759 68.7839L191.167 64.3759H191.171L193.483 62.0559L192.531 60.1839ZM27.0748 230.032L26.0068 233.712L25.7348 234.196L185.375 74.5559L185.619 72.0039L185.903 71.2039L27.0748 230.032ZM185.167 76.7639L185.215 76.2759L23.7348 237.756L23.3348 238.468L24.5028 239.82L186.471 77.8479L185.167 76.7639ZM187.327 78.5559L25.2268 240.656L26.5388 242.168L188.871 79.8359L187.327 78.5559ZM189.723 80.5439L27.2628 243.004L27.4548 243.228L24.7428 247.988L24.8028 248.296L190.503 82.5959L190.899 81.5199L189.723 80.5439ZM189.147 86.2759L189.591 85.0679L25.0668 249.592L25.5428 251.944L189.831 87.6559L189.147 86.2759ZM190.347 88.7039L25.8028 253.248L25.8708 253.576L28.2388 253.636L191.279 90.5959L190.347 88.7039ZM29.7628 253.672L31.4828 253.716L36.2748 248.848L36.8308 249.436L191.231 95.0359L191.431 92.0079L29.7628 253.672ZM189.311 98.5159L37.5868 250.24L38.9588 251.692L189.079 101.576L187.915 100.548L189.311 98.5159ZM189.907 102.308L39.7188 252.496L41.0668 253.92L41.1108 253.932L191.407 103.636L189.907 102.308ZM192.239 104.364L42.3708 254.232L44.6548 254.776H44.6588L192.503 106.932L193.299 105.304L192.239 104.364ZM49.1068 251.888L50.6468 250.384L52.2348 251.584L186.059 117.76L185.851 115.144L49.1068 251.888ZM190.587 110.408L190.963 110.06L190.991 110.004L190.587 110.408ZM186.179 119.204L53.1228 252.256L54.7388 253.472L186.007 122.204L186.207 119.572L186.179 119.204ZM55.7588 254.012L58.5108 254.088L185.671 126.928L185.847 124.328L185.879 123.892L55.7588 254.012ZM185.527 129.088L185.559 128.6L60.0348 254.128H60.2308L64.6388 252.348L186.335 130.652L185.527 129.088ZM186.863 131.684L66.4228 252.124L69.4028 251.976L187.827 133.552L186.863 131.684ZM188.311 134.628L70.4388 252.5L71.9428 253.82L189.163 136.604L188.311 134.628ZM189.631 137.696L72.7788 254.548L74.2868 255.868L189.951 140.204L190.023 138.6L189.631 137.696ZM75.7388 255.976L79.0828 255.464L81.2508 253.296L84.7868 249.76L189.307 145.24L189.811 143.36L189.879 141.836L75.7388 255.976ZM188.731 147.376L87.0188 249.088L88.9788 248.5L89.6308 249.3L186.023 152.908L185.959 152.872L188.531 148.116L188.731 147.376ZM186.999 153.492L90.3308 250.16L91.6028 251.72L188.775 154.548L186.999 153.492ZM189.751 155.132L92.3028 252.58L93.5748 254.136L191.523 156.188L189.751 155.132ZM192.503 156.772L96.5788 252.696L98.5628 251.508L99.6468 252.452L192.639 159.46L193.943 157.628L192.503 156.772ZM186.259 167.4L100.479 253.18L101.991 254.5L187.959 168.532L186.259 167.4ZM188.899 169.152L102.823 255.228L103.355 255.692L108.147 252.652L108.187 252.688L190.595 170.28L188.899 169.152ZM191.531 170.904L109.011 253.424L110.511 254.756L192.907 172.36L193.031 171.9L191.531 170.904ZM192.331 174.496L111.335 255.492L112.831 256.828L192.039 177.62L191.751 176.656L192.331 174.496ZM192.395 178.824L115.123 256.096L117.727 255.112L120.007 254.036L193.043 181L192.395 178.824ZM193.259 182.344L122.731 252.876L125.287 253.148L193.523 184.912L193.259 182.344ZM193.479 186.516L126.695 253.3L127.311 253.368L132.103 249.016L132.851 249.972L186.875 195.948L186.847 195.68L191.263 190.924L193.479 186.516ZM187.023 197.36L133.535 250.848L134.775 252.436L187.295 199.916L187.023 197.36ZM187.927 200.844L135.459 253.312L136.703 254.9L189.583 202.02L187.927 200.844ZM190.495 202.668L137.759 255.404L139.943 256.044L192.147 203.84L190.495 202.668ZM193.059 204.488L141.147 256.4L141.687 256.56L144.235 256.144L193.843 206.536L194.051 205.192L193.059 204.488ZM193.559 208.38L146.103 255.836L146.479 255.776L148.487 256.284L189.423 215.344L188.787 214.704L193.319 209.948L193.559 208.38ZM190.199 216.128L149.731 256.6L151.271 256.988L152.219 256.936L191.607 217.548L190.199 216.128ZM192.383 218.332L153.875 256.84L156.063 256.716L157.359 256.188L192.819 220.728L193.503 219.46L192.383 218.332ZM159.987 255.12L160.855 254.768L165.647 251.508L166.059 251.872L190.919 227.016L190.935 224.216L190.987 224.12L159.987 255.12ZM190.907 228.972V228.584L166.891 252.604L168.395 253.928L191.875 230.448L190.907 228.972ZM192.495 231.388L169.223 254.66L170.439 255.728L171.143 255.572L193.619 233.096L192.495 231.388ZM193.715 234.56L173.147 255.128L175.235 254.664L176.787 254.312L192.295 238.804L192.211 238.484L193.715 234.56ZM192.623 240.036L178.803 253.856L180.027 253.58L181.615 253.876L193.219 242.272L192.623 240.036ZM182.931 254.12L184.823 254.468L185.895 253.984L192.783 247.096L193.403 243.648L182.931 254.12ZM188.739 252.704L189.315 252.444L190.235 251.204L188.739 252.704Z" fill="#F7CEC4"/>
<path d="M101.111 233.38C102.931 229.352 101.983 228.76 96.5829 230.216C100.691 226.968 100.415 225.828 94.9629 224.72C100.415 223.608 100.683 222.456 96.5829 219.196C101.983 220.672 102.935 220.084 101.111 216.06C105.167 219.332 106.475 219.164 107.727 214.968C109.031 219.068 110.351 219.152 114.387 215.74C112.627 219.908 113.567 220.552 118.939 219.056C114.855 222.42 115.143 223.588 120.607 224.74C115.167 225.864 114.895 227.024 119.023 230.368C113.607 228.884 112.647 229.524 114.411 233.688C110.363 230.284 109.035 230.372 107.727 234.472C106.475 230.276 105.167 230.112 101.111 233.38Z" fill="#F44E22"/>
<path d="M102.387 226.28C102.103 226.184 101.875 226.048 101.699 225.872C101.527 225.696 101.419 225.488 101.383 225.248L102.319 225.056C102.335 225.2 102.391 225.328 102.483 225.436C102.575 225.544 102.699 225.628 102.847 225.684C102.999 225.744 103.171 225.772 103.367 225.772C103.563 225.772 103.727 225.748 103.867 225.7C104.011 225.652 104.119 225.58 104.195 225.488C104.271 225.396 104.311 225.288 104.311 225.164C104.311 225.032 104.275 224.916 104.203 224.82C104.131 224.724 104.031 224.648 103.895 224.596C103.763 224.544 103.603 224.52 103.423 224.52C103.259 224.52 103.103 224.544 102.963 224.592C102.823 224.64 102.711 224.704 102.635 224.78L101.871 224.652L101.979 222.792H104.783V223.412H102.779L102.735 224.176C102.847 224.104 102.987 224.048 103.151 224.008C103.315 223.968 103.483 223.948 103.651 223.948C103.979 223.948 104.263 223.996 104.507 224.096C104.751 224.196 104.939 224.336 105.071 224.516C105.203 224.696 105.271 224.912 105.271 225.16C105.271 225.408 105.191 225.644 105.035 225.832C104.879 226.02 104.655 226.168 104.371 226.272C104.083 226.376 103.743 226.424 103.351 226.424C102.991 226.424 102.667 226.376 102.383 226.284L102.387 226.28Z" fill="#F9F8F4"/>
<path d="M107.043 224.808C107.355 224.332 107.739 223.888 108.199 223.476H105.711V222.788H109.315V223.392C108.847 223.808 108.459 224.264 108.159 224.76C107.859 225.256 107.643 225.776 107.519 226.32H106.371C106.507 225.788 106.731 225.284 107.039 224.808H107.043Z" fill="#F9F8F4"/>
<path d="M110.671 226.28C110.387 226.184 110.159 226.048 109.983 225.872C109.811 225.696 109.703 225.488 109.667 225.248L110.603 225.056C110.619 225.2 110.675 225.328 110.767 225.436C110.859 225.544 110.983 225.628 111.131 225.684C111.283 225.744 111.455 225.772 111.651 225.772C111.847 225.772 112.011 225.748 112.151 225.7C112.295 225.652 112.403 225.58 112.479 225.488C112.555 225.396 112.595 225.288 112.595 225.164C112.595 225.032 112.559 224.916 112.487 224.82C112.415 224.724 112.315 224.648 112.179 224.596C112.047 224.544 111.887 224.52 111.707 224.52C111.543 224.52 111.387 224.544 111.247 224.592C111.107 224.64 110.995 224.704 110.919 224.78L110.155 224.652L110.263 222.792H113.067V223.412H111.063L111.019 224.176C111.131 224.104 111.271 224.048 111.435 224.008C111.599 223.968 111.767 223.948 111.935 223.948C112.263 223.948 112.547 223.996 112.791 224.096C113.035 224.196 113.223 224.336 113.355 224.516C113.487 224.696 113.555 224.912 113.555 225.16C113.555 225.408 113.475 225.644 113.319 225.832C113.163 226.02 112.939 226.168 112.655 226.272C112.367 226.376 112.027 226.424 111.635 226.424C111.275 226.424 110.951 226.376 110.667 226.284L110.671 226.28Z" fill="#F9F8F4"/>
<path d="M76.7151 79.392C75.5671 79.012 74.6431 78.464 73.9431 77.752C73.2431 77.04 72.819 76.2 72.675 75.244L76.4551 74.464C76.5231 75.052 76.7431 75.56 77.1151 75.996C77.4871 76.432 77.979 76.764 78.587 76.996C79.195 77.228 79.891 77.348 80.675 77.348C81.459 77.348 82.1231 77.252 82.6951 77.056C83.2671 76.864 83.7071 76.58 84.0151 76.208C84.3231 75.836 84.475 75.4 84.475 74.908C84.475 74.376 84.3311 73.912 84.0431 73.52C83.7551 73.128 83.3431 72.828 82.8031 72.62C82.2631 72.412 81.6271 72.308 80.8911 72.308C80.2231 72.308 79.6071 72.404 79.0431 72.6C78.4751 72.792 78.0351 73.044 77.7151 73.352L74.6351 72.832L75.075 65.332H86.375V67.832H78.2951L78.1151 70.912C78.5671 70.62 79.1271 70.392 79.7951 70.232C80.4631 70.072 81.1351 69.992 81.8151 69.992C83.1351 69.992 84.287 70.192 85.263 70.592C86.239 70.992 87.0031 71.556 87.5431 72.284C88.0831 73.012 88.3551 73.872 88.3551 74.872C88.3551 75.872 88.0391 76.816 87.4031 77.584C86.7671 78.352 85.875 78.94 84.723 79.352C83.571 79.764 82.199 79.972 80.611 79.972C79.159 79.972 77.859 79.784 76.711 79.404L76.7151 79.392Z" fill="#F44E22"/>
<path d="M96.0148 79.104C94.4828 78.464 93.2868 77.572 92.4348 76.424C91.5828 75.276 91.1548 73.952 91.1548 72.444C91.1548 70.936 91.5868 69.64 92.4428 68.476C93.3028 67.308 94.4948 66.408 96.0228 65.776C97.5508 65.144 99.3108 64.824 101.311 64.824C103.311 64.824 105.091 65.144 106.611 65.784C108.131 66.424 109.319 67.324 110.171 68.484C111.023 69.644 111.451 70.972 111.451 72.464C111.451 73.956 111.023 75.26 110.163 76.416C109.303 77.568 108.115 78.464 106.603 79.104C105.091 79.744 103.327 80.064 101.315 80.064C99.3028 80.064 97.5468 79.744 96.0148 79.104ZM104.563 76.592C105.503 76.184 106.239 75.62 106.775 74.892C107.307 74.164 107.575 73.348 107.575 72.444C107.575 71.54 107.307 70.704 106.775 69.984C106.243 69.264 105.503 68.7 104.563 68.296C103.623 67.892 102.539 67.684 101.315 67.684C100.091 67.684 98.9868 67.888 98.0428 68.296C97.1028 68.704 96.3668 69.264 95.8348 69.984C95.3028 70.704 95.0348 71.524 95.0348 72.444C95.0348 73.364 95.3028 74.168 95.8348 74.892C96.3668 75.62 97.1028 76.184 98.0428 76.592C98.9828 77 100.075 77.2 101.315 77.2C102.555 77.2 103.627 76.996 104.563 76.592Z" fill="#F44E22"/>
<path d="M119.151 68.184H113.131V65.324H129.051V68.184H123.051V79.564H119.151V68.184Z" fill="#F44E22"/>
<path d="M131.811 65.324H135.691V70.724H145.051V65.324H148.931V79.564H145.051V73.504H135.691V79.564H131.811V65.324Z" fill="#F44E22"/>
<path d="M48.8268 89.3318H51.7068L56.2908 98.4438H53.7068L52.8228 96.6398H47.6388L46.7548 98.4438H44.1548L48.8268 89.3318ZM52.2188 95.0798L50.2468 90.9958H50.2228L48.2508 95.0798H52.2188Z" fill="#F44E22"/>
<path d="M57.991 89.3318H61.051L66.799 96.0518H66.811V89.3318H69.179V98.4438H66.147L60.375 91.6838H60.363V98.4438H57.995V89.3318H57.991Z" fill="#F44E22"/>
<path d="M71.4788 89.3318H74.5388L80.2868 96.0518H80.2988V89.3318H82.6668V98.4438H79.6348L73.8628 91.6838H73.8508V98.4438H71.4828V89.3318H71.4788Z" fill="#F44E22"/>
<path d="M84.9709 89.3318H87.4429V98.4438H84.9709V89.3318Z" fill="#F44E22"/>
<path d="M89.1069 89.3318H91.7309L95.1109 96.2438H95.1229L98.5149 89.3318H101.127L96.4949 98.4438H93.7309L89.1109 89.3318H89.1069Z" fill="#F44E22"/>
<path d="M102.791 89.3318H112.083V90.9958H105.195V93.0438H111.571V94.5278H105.195V96.7678H112.211V98.4438H102.791V89.3318Z" fill="#F44E22"/>
<path d="M122.911 98.5239C122.639 98.4039 122.411 98.2439 122.231 98.0439C122.051 97.8439 121.879 97.6199 121.707 97.3719L121.015 96.0159C120.851 95.7439 120.643 95.5279 120.387 95.3759C120.131 95.2239 119.855 95.1439 119.555 95.1439H116.611V98.4479H114.115V89.3359H121.371C122.139 89.3359 122.791 89.4479 123.331 89.6759C123.867 89.9039 124.283 90.2239 124.579 90.6439C124.875 91.0599 125.019 91.5599 125.019 92.1399C125.019 92.5919 124.911 92.9959 124.691 93.3559C124.475 93.7159 124.167 94.0119 123.775 94.2439C123.383 94.4759 122.915 94.6279 122.367 94.6999V94.7119C122.539 94.8039 122.699 94.9239 122.847 95.0639C122.995 95.2039 123.123 95.3719 123.223 95.5679L123.903 96.7959C123.995 96.9319 124.095 97.0399 124.199 97.1159C124.303 97.1919 124.423 97.2319 124.571 97.2319C124.691 97.2319 124.819 97.1879 124.963 97.1039C125.103 97.0199 125.215 96.9119 125.303 96.7839L125.879 97.8719C125.647 98.1279 125.347 98.3319 124.975 98.4799C124.603 98.6279 124.231 98.7039 123.855 98.7039C123.479 98.7039 123.179 98.6439 122.907 98.5239H122.911ZM120.735 93.5799C121.111 93.5799 121.431 93.5279 121.703 93.4279C121.971 93.3239 122.175 93.1759 122.319 92.9799C122.459 92.7839 122.531 92.5439 122.531 92.2639C122.531 91.9999 122.459 91.7679 122.319 91.5719C122.179 91.3759 121.975 91.2199 121.703 91.1039C121.435 90.9879 121.115 90.9319 120.751 90.9319H116.603V93.5799H120.739H120.735Z" fill="#F44E22"/>
<path d="M130.571 98.4719C129.823 98.2999 129.155 98.0559 128.563 97.7359C127.971 97.4159 127.503 97.0599 127.163 96.6679L128.251 95.1839C128.531 95.5439 128.919 95.8599 129.411 96.1359C129.903 96.4119 130.463 96.6319 131.095 96.7879C131.727 96.9439 132.355 97.0239 132.975 97.0239C133.479 97.0239 133.919 96.9799 134.295 96.8879C134.671 96.7999 134.963 96.6679 135.171 96.4919C135.379 96.3159 135.483 96.1239 135.483 95.9079C135.483 95.6279 135.299 95.3999 134.931 95.2239C134.563 95.0479 133.983 94.9199 133.191 94.8319L131.295 94.5639C129.991 94.4039 129.043 94.1199 128.455 93.7119C127.867 93.3079 127.571 92.7239 127.571 91.9639C127.571 91.3679 127.775 90.8439 128.187 90.3959C128.595 89.9479 129.171 89.6079 129.915 89.3799C130.659 89.1479 131.515 89.0359 132.487 89.0359C133.119 89.0359 133.735 89.0999 134.343 89.2279C134.951 89.3559 135.499 89.5359 135.995 89.7719C136.491 90.0079 136.895 90.2759 137.211 90.5839L136.275 92.0159C135.995 91.7519 135.651 91.5199 135.251 91.3199C134.851 91.1199 134.411 90.9639 133.939 90.8519C133.467 90.7399 132.975 90.6879 132.475 90.6999C132.007 90.6999 131.579 90.7479 131.203 90.8399C130.823 90.9319 130.527 91.0599 130.319 91.2239C130.111 91.3879 130.007 91.5759 130.007 91.7879C129.999 92.0439 130.143 92.2439 130.443 92.3879C130.743 92.5319 131.215 92.6479 131.863 92.7319L133.759 92.9639C135.211 93.1359 136.263 93.4359 136.919 93.8719C137.575 94.3079 137.907 94.9119 137.919 95.6879C137.919 96.2919 137.707 96.8239 137.287 97.2799C136.863 97.7359 136.271 98.0919 135.507 98.3439C134.743 98.5959 133.863 98.7199 132.863 98.7199C132.087 98.7199 131.323 98.6359 130.579 98.4639L130.571 98.4719Z" fill="#F44E22"/>
<path d="M143.455 89.3318H146.335L150.919 98.4438H148.335L147.451 96.6398H142.267L141.383 98.4438H138.783L143.455 89.3318ZM146.847 95.0798L144.875 90.9958H144.851L142.879 95.0798H146.847Z" fill="#F44E22"/>
<path d="M161.415 98.5239C161.143 98.4039 160.915 98.2439 160.735 98.0439C160.555 97.8439 160.383 97.6199 160.211 97.3719L159.519 96.0159C159.355 95.7439 159.147 95.5279 158.891 95.3759C158.635 95.2239 158.359 95.1439 158.059 95.1439H155.115V98.4479H152.619V89.3359H159.875C160.643 89.3359 161.295 89.4479 161.835 89.6759C162.371 89.9039 162.787 90.2239 163.083 90.6439C163.379 91.0599 163.523 91.5599 163.523 92.1399C163.523 92.5919 163.415 92.9959 163.195 93.3559C162.979 93.7159 162.671 94.0119 162.279 94.2439C161.887 94.4759 161.419 94.6279 160.871 94.6999V94.7119C161.043 94.8039 161.203 94.9239 161.351 95.0639C161.499 95.2039 161.627 95.3719 161.727 95.5679L162.407 96.7959C162.499 96.9319 162.599 97.0399 162.703 97.1159C162.807 97.1919 162.927 97.2319 163.075 97.2319C163.195 97.2319 163.323 97.1879 163.467 97.1039C163.607 97.0199 163.719 96.9119 163.807 96.7839L164.383 97.8719C164.151 98.1279 163.851 98.3319 163.479 98.4799C163.107 98.6279 162.735 98.7039 162.359 98.7039C161.983 98.7039 161.683 98.6439 161.411 98.5239H161.415ZM159.239 93.5799C159.615 93.5799 159.935 93.5279 160.207 93.4279C160.475 93.3239 160.679 93.1759 160.823 92.9799C160.963 92.7839 161.035 92.5439 161.035 92.2639C161.035 91.9999 160.963 91.7679 160.823 91.5719C160.683 91.3759 160.479 91.2199 160.207 91.1039C159.939 90.9879 159.619 90.9319 159.255 90.9319H155.107V93.5799H159.243H159.239Z" fill="#F44E22"/>
<path d="M168.915 95.2718L164.423 89.3318H167.163L170.171 93.5038H170.183L173.103 89.3318H175.867L171.411 95.2718V98.4478H168.915V95.2718Z" fill="#F44E22"/>
<path d="M95.627 115.496C95.135 115.292 94.755 115.004 94.483 114.64C94.211 114.272 94.075 113.848 94.075 113.368C94.075 112.888 94.211 112.472 94.487 112.096C94.763 111.724 95.143 111.436 95.631 111.232C96.119 111.028 96.6829 110.928 97.3229 110.928C97.9629 110.928 98.5309 111.032 99.0189 111.236C99.5069 111.44 99.887 111.728 100.159 112.1C100.431 112.472 100.567 112.896 100.567 113.372C100.567 113.848 100.431 114.268 100.155 114.636C99.879 115.004 99.499 115.292 99.015 115.496C98.531 115.7 97.9669 115.804 97.3229 115.804C96.6789 115.804 96.119 115.7 95.627 115.496ZM98.363 114.692C98.663 114.56 98.8989 114.38 99.0709 114.148C99.2429 113.916 99.327 113.656 99.327 113.364C99.327 113.072 99.2429 112.808 99.0709 112.576C98.8989 112.344 98.663 112.164 98.363 112.036C98.063 111.908 97.7149 111.84 97.3229 111.84C96.9309 111.84 96.579 111.904 96.275 112.036C95.971 112.168 95.739 112.348 95.567 112.576C95.395 112.804 95.3109 113.068 95.3109 113.364C95.3109 113.66 95.395 113.916 95.567 114.148C95.739 114.38 95.975 114.564 96.275 114.692C96.575 114.82 96.9229 114.888 97.3229 114.888C97.7229 114.888 98.063 114.824 98.363 114.692Z" fill="#F44E22"/>
<path d="M101.623 111.084H106.179V112H102.863V113.088H105.795V113.876H102.863V115.644H101.623V111.088V111.084Z" fill="#F44E22"/>
<path d="M110.919 112H108.991V111.084H114.087V112H112.167V115.64H110.919V112Z" fill="#F44E22"/>
<path d="M114.971 111.084H116.211V112.812H119.207V111.084H120.447V115.64H119.207V113.7H116.211V115.64H114.971V111.084Z" fill="#F44E22"/>
<path d="M121.603 111.084H126.251V111.916H122.807V112.94H125.995V113.684H122.807V114.804H126.315V115.644H121.603V111.088V111.084Z" fill="#F44E22"/>
<path d="M64.3708 205.092L62.1228 202.124H63.4908L64.9948 204.212H65.0028L66.4628 202.124H67.8468L65.6188 205.092V206.68H64.3708V205.092Z" fill="#F44E22"/>
<path d="M68.3509 202.12H69.6629L71.3509 205.576H71.3589L73.0549 202.12H74.3589L72.0429 206.676H70.6589L68.3469 202.12H68.3509Z" fill="#F44E22"/>
<path d="M75.1948 202.12H79.8428V202.952H76.3988V203.976H79.5868V204.72H76.3988V205.84H79.9068V206.68H75.1948V202.124V202.12Z" fill="#F44E22"/>
<path d="M85.2549 206.716C85.1189 206.656 85.0069 206.576 84.9149 206.476C84.8269 206.376 84.7389 206.264 84.6509 206.14L84.3069 205.46C84.2269 205.324 84.1229 205.216 83.9949 205.14C83.8669 205.064 83.7269 205.024 83.5789 205.024H82.1069V206.676H80.8589V202.12H84.4869C84.8709 202.12 85.1989 202.176 85.4669 202.288C85.7349 202.4 85.9429 202.564 86.0909 202.772C86.2389 202.98 86.3109 203.232 86.3109 203.52C86.3109 203.748 86.2549 203.948 86.1469 204.128C86.0389 204.308 85.8869 204.456 85.6909 204.572C85.4949 204.688 85.2589 204.764 84.9869 204.8V204.808C85.0709 204.856 85.1509 204.912 85.2269 204.984C85.3029 205.056 85.3629 205.14 85.4149 205.236L85.7549 205.852C85.8029 205.92 85.8509 205.972 85.9029 206.012C85.9549 206.052 86.0149 206.068 86.0869 206.068C86.1469 206.068 86.2109 206.048 86.2829 206.004C86.3549 205.96 86.4109 205.908 86.4509 205.844L86.7389 206.388C86.6229 206.516 86.4749 206.616 86.2869 206.692C86.0989 206.768 85.9149 206.804 85.7269 206.804C85.5389 206.804 85.3909 206.772 85.2549 206.716ZM84.1669 204.248C84.3549 204.248 84.5149 204.224 84.6509 204.172C84.7869 204.12 84.8869 204.048 84.9589 203.948C85.0309 203.848 85.0629 203.732 85.0629 203.588C85.0629 203.456 85.0269 203.34 84.9589 203.244C84.8909 203.148 84.7869 203.068 84.6509 203.012C84.5149 202.956 84.3589 202.924 84.1749 202.924H82.1029V204.248H84.1709H84.1669Z" fill="#F44E22"/>
<path d="M89.011 203.036H87.083V202.12H92.179V203.036H90.259V206.676H89.011V203.036Z" fill="#F44E22"/>
<path d="M95.2109 202.12H99.8589V202.952H96.4149V203.976H99.6029V204.72H96.4149V205.84H99.9229V206.68H95.2109V202.124V202.12Z" fill="#F44E22"/>
<path d="M102.527 203.036H100.599V202.12H105.695V203.036H103.775V206.676H102.527V203.036Z" fill="#F44E22"/>
<path d="M110.379 203.036H108.451V202.12H113.547V203.036H111.627V206.676H110.379V203.036Z" fill="#F44E22"/>
<path d="M114.431 202.12H119.079V202.952H115.635V203.976H118.823V204.72H115.635V205.84H119.143V206.68H114.431V202.124V202.12Z" fill="#F44E22"/>
<path d="M120.095 202.12H121.335V205.736H124.159V206.676H120.095V202.12Z" fill="#F44E22"/>
<path d="M125.067 202.12H126.307V205.736H129.131V206.676H125.067V202.12Z" fill="#F44E22"/>
<path d="M130.039 202.12H131.275V206.676H130.039V202.12Z" fill="#F44E22"/>
<path d="M132.427 202.12H137.075V202.952H133.631V203.976H136.819V204.72H133.631V205.84H137.139V206.68H132.427V202.124V202.12Z" fill="#F44E22"/>
<path d="M142.487 206.716C142.351 206.656 142.239 206.576 142.147 206.476C142.059 206.376 141.971 206.264 141.883 206.14L141.539 205.46C141.459 205.324 141.355 205.216 141.227 205.14C141.099 205.064 140.959 205.024 140.811 205.024H139.339V206.676H138.091V202.12H141.719C142.103 202.12 142.431 202.176 142.699 202.288C142.967 202.4 143.175 202.564 143.323 202.772C143.471 202.98 143.543 203.232 143.543 203.52C143.543 203.748 143.487 203.948 143.379 204.128C143.271 204.308 143.119 204.456 142.923 204.572C142.727 204.688 142.491 204.764 142.219 204.8V204.808C142.303 204.856 142.383 204.912 142.459 204.984C142.535 205.056 142.595 205.14 142.647 205.236L142.987 205.852C143.035 205.92 143.083 205.972 143.135 206.012C143.187 206.052 143.247 206.068 143.319 206.068C143.379 206.068 143.443 206.048 143.515 206.004C143.587 205.96 143.643 205.908 143.683 205.844L143.971 206.388C143.855 206.516 143.707 206.616 143.519 206.692C143.331 206.768 143.147 206.804 142.959 206.804C142.771 206.804 142.623 206.772 142.487 206.716ZM141.399 204.248C141.587 204.248 141.747 204.224 141.883 204.172C142.019 204.12 142.119 204.048 142.191 203.948C142.263 203.848 142.295 203.732 142.295 203.588C142.295 203.456 142.259 203.34 142.191 203.244C142.123 203.148 142.019 203.068 141.883 203.012C141.747 202.956 141.591 202.924 141.407 202.924H139.335V204.248H141.403H141.399Z" fill="#F44E22"/>
<path d="M148.307 206.512C147.851 206.316 147.495 206.04 147.243 205.68C146.991 205.32 146.863 204.916 146.863 204.456C146.863 203.972 146.995 203.548 147.263 203.172C147.531 202.8 147.903 202.508 148.379 202.3C148.859 202.092 149.403 201.988 150.019 201.988C150.467 201.988 150.879 202.048 151.259 202.164C151.639 202.28 151.955 202.448 152.211 202.66C152.467 202.872 152.631 203.116 152.703 203.384L151.551 203.628C151.499 203.484 151.399 203.352 151.247 203.236C151.095 203.12 150.911 203.032 150.695 202.968C150.479 202.904 150.251 202.872 150.015 202.872C149.643 202.872 149.315 202.94 149.027 203.072C148.739 203.204 148.515 203.388 148.351 203.62C148.187 203.852 148.107 204.12 148.107 204.424C148.107 204.728 148.195 204.988 148.371 205.216C148.547 205.444 148.795 205.624 149.107 205.752C149.419 205.884 149.783 205.948 150.191 205.948C150.527 205.948 150.839 205.896 151.119 205.796C151.399 205.696 151.627 205.556 151.799 205.388C151.971 205.216 152.063 205.02 152.075 204.8H149.139V204.096H153.275V206.68H152.283L152.207 205.868H152.199C152.047 206.06 151.851 206.228 151.615 206.372C151.379 206.516 151.111 206.624 150.811 206.7C150.511 206.776 150.195 206.812 149.863 206.812C149.283 206.812 148.763 206.712 148.307 206.516V206.512Z" fill="#F44E22"/>
<path d="M154.327 202.12H155.563V206.676H154.327V202.12Z" fill="#F44E22"/>
<path d="M62.0548 138.204C61.1428 137.812 60.4308 137.256 59.9228 136.54C59.4148 135.824 59.1628 135.008 59.1628 134.096C59.1628 133.132 59.4308 132.276 59.9628 131.528C60.4948 130.78 61.2388 130.2 62.1948 129.788C63.1508 129.376 64.2428 129.168 65.4708 129.168C66.3668 129.168 67.1948 129.284 67.9548 129.52C68.7148 129.756 69.3508 130.084 69.8628 130.512C70.3748 130.94 70.7029 131.42 70.8469 131.96L68.5428 132.448C68.4388 132.16 68.2389 131.896 67.9349 131.668C67.6309 131.436 67.2628 131.26 66.8268 131.132C66.3908 131.004 65.9388 130.94 65.4708 130.94C64.7268 130.94 64.0708 131.072 63.4948 131.336C62.9188 131.6 62.4668 131.964 62.1428 132.432C61.8188 132.896 61.6548 133.432 61.6548 134.04C61.6548 134.648 61.8308 135.164 62.1868 135.62C62.5388 136.076 63.0309 136.436 63.6589 136.696C64.2868 136.956 65.0108 137.088 65.8268 137.088C66.4988 137.088 67.1188 136.984 67.6828 136.78C68.2468 136.576 68.6988 136.304 69.0388 135.96C69.3788 135.62 69.5628 135.228 69.5908 134.784H63.7148V133.376H71.9828V138.548H69.9988L69.8469 136.924H69.8349C69.5269 137.308 69.1388 137.644 68.6628 137.928C68.1908 138.212 67.6548 138.432 67.0548 138.58C66.4588 138.728 65.8269 138.804 65.1589 138.804C63.9989 138.804 62.9629 138.608 62.0469 138.216L62.0548 138.204Z" fill="#F44E22"/>
<path d="M74.1028 129.42H76.5748V138.532H74.1028V129.42Z" fill="#F44E22"/>
<path d="M78.8748 129.42H86.1828C86.8468 129.42 87.4228 129.524 87.9108 129.728C88.3988 129.932 88.7708 130.228 89.0388 130.612C89.3068 130.996 89.4349 131.44 89.4349 131.944C89.4349 132.236 89.3788 132.508 89.2628 132.768C89.1468 133.028 88.9828 133.252 88.7628 133.44C88.5468 133.628 88.2948 133.768 88.0148 133.864V133.904C88.5268 134.024 88.9348 134.276 89.2428 134.66C89.5508 135.044 89.7028 135.496 89.7028 136.016C89.7028 136.536 89.5628 136.952 89.2868 137.34C89.0108 137.728 88.6188 138.024 88.1148 138.228C87.6108 138.432 87.0189 138.536 86.3349 138.536H78.8708V129.424L78.8748 129.42ZM85.4788 133.172C85.7668 133.172 86.0268 133.128 86.2548 133.036C86.4828 132.948 86.6548 132.816 86.7748 132.644C86.8948 132.472 86.9548 132.276 86.9548 132.056C86.9548 131.724 86.8188 131.452 86.5508 131.244C86.2828 131.036 85.9228 130.932 85.4708 130.932H81.3628V133.172H85.4828H85.4788ZM85.5708 137.012C85.8948 137.012 86.1828 136.964 86.4268 136.872C86.6748 136.78 86.8668 136.636 87.0108 136.444C87.1508 136.252 87.2228 136.036 87.2228 135.796C87.2228 135.428 87.0708 135.136 86.7628 134.912C86.4548 134.692 86.0588 134.58 85.5708 134.58H81.3589V137.012H85.5708Z" fill="#F44E22"/>
<path d="M100.431 138.612C100.159 138.492 99.931 138.332 99.751 138.132C99.571 137.932 99.399 137.708 99.227 137.46L98.535 136.104C98.371 135.832 98.163 135.616 97.907 135.464C97.651 135.312 97.375 135.232 97.075 135.232H94.131V138.536H91.635V129.424H98.891C99.659 129.424 100.311 129.536 100.851 129.764C101.387 129.992 101.803 130.312 102.099 130.732C102.395 131.148 102.539 131.648 102.539 132.228C102.539 132.68 102.431 133.084 102.211 133.444C101.995 133.804 101.687 134.1 101.295 134.332C100.903 134.564 100.435 134.716 99.887 134.788V134.8C100.059 134.892 100.219 135.012 100.367 135.152C100.515 135.292 100.643 135.46 100.743 135.656L101.423 136.884C101.515 137.02 101.615 137.128 101.719 137.204C101.823 137.28 101.943 137.32 102.091 137.32C102.211 137.32 102.339 137.276 102.483 137.192C102.623 137.108 102.735 137 102.823 136.872L103.399 137.96C103.167 138.216 102.867 138.42 102.495 138.568C102.123 138.716 101.751 138.792 101.375 138.792C100.999 138.792 100.699 138.732 100.427 138.612H100.431ZM98.255 133.672C98.631 133.672 98.951 133.62 99.223 133.52C99.491 133.416 99.695 133.268 99.839 133.072C99.979 132.876 100.051 132.636 100.051 132.356C100.051 132.092 99.979 131.86 99.839 131.664C99.699 131.468 99.495 131.312 99.223 131.196C98.955 131.08 98.635 131.024 98.271 131.024H94.123V133.672H98.259H98.255Z" fill="#F44E22"/>
<path d="M109.263 129.42H112.143L116.727 138.532H114.143L113.259 136.728H108.075L107.191 138.532H104.591L109.263 129.42ZM112.655 135.168L110.683 131.084H110.659L108.687 135.168H112.655Z" fill="#F44E22"/>
<path d="M118.427 129.42H120.911V136.652H126.555V138.532H118.427V129.42Z" fill="#F44E22"/>
<path d="M129.767 131.252H125.915V129.42H136.103V131.252H132.263V138.536H129.767V131.252Z" fill="#F44E22"/>
<path d="M140.635 129.42H143.515L148.099 138.532H145.515L144.631 136.728H139.447L138.563 138.532H135.963L140.635 129.42ZM144.027 135.168L142.055 131.084H142.031L140.059 135.168H144.027Z" fill="#F44E22"/>
<path d="M158.595 138.612C158.323 138.492 158.095 138.332 157.915 138.132C157.735 137.932 157.563 137.708 157.391 137.46L156.699 136.104C156.535 135.832 156.327 135.616 156.071 135.464C155.815 135.312 155.539 135.232 155.239 135.232H152.295V138.536H149.799V129.424H157.055C157.823 129.424 158.475 129.536 159.015 129.764C159.551 129.992 159.967 130.312 160.263 130.732C160.559 131.148 160.703 131.648 160.703 132.228C160.703 132.68 160.595 133.084 160.375 133.444C160.159 133.804 159.851 134.1 159.459 134.332C159.067 134.564 158.599 134.716 158.051 134.788V134.8C158.223 134.892 158.383 135.012 158.531 135.152C158.679 135.292 158.807 135.46 158.907 135.656L159.587 136.884C159.679 137.02 159.779 137.128 159.883 137.204C159.987 137.28 160.107 137.32 160.255 137.32C160.375 137.32 160.503 137.276 160.647 137.192C160.787 137.108 160.899 137 160.987 136.872L161.563 137.96C161.331 138.216 161.031 138.42 160.659 138.568C160.287 138.716 159.915 138.792 159.539 138.792C159.163 138.792 158.863 138.732 158.591 138.612H158.595ZM156.419 133.672C156.795 133.672 157.115 133.62 157.387 133.52C157.655 133.416 157.859 133.268 158.003 133.072C158.143 132.876 158.215 132.636 158.215 132.356C158.215 132.092 158.143 131.86 158.003 131.664C157.863 131.468 157.659 131.312 157.387 131.196C157.119 131.08 156.799 131.024 156.435 131.024H152.287V133.672H156.423H156.419Z" fill="#F44E22"/>
<path d="M71.7709 151.564C71.4989 151.444 71.2709 151.284 71.0909 151.084C70.9109 150.884 70.7389 150.66 70.5669 150.412L69.8749 149.056C69.7109 148.784 69.5029 148.568 69.2469 148.416C68.9909 148.264 68.7149 148.184 68.4149 148.184H65.4709V151.488H62.9749V142.376H70.2309C70.9989 142.376 71.6509 142.488 72.1909 142.716C72.7269 142.944 73.1429 143.264 73.4389 143.684C73.7349 144.1 73.8789 144.6 73.8789 145.18C73.8789 145.632 73.7709 146.036 73.5509 146.396C73.3349 146.756 73.0269 147.052 72.6349 147.284C72.2429 147.516 71.7749 147.668 71.2269 147.74V147.752C71.3989 147.844 71.5589 147.964 71.7069 148.104C71.8549 148.244 71.9829 148.412 72.0829 148.608L72.7629 149.836C72.8549 149.972 72.9549 150.08 73.0589 150.156C73.1629 150.232 73.2829 150.272 73.4309 150.272C73.5509 150.272 73.6789 150.228 73.8229 150.144C73.9629 150.06 74.0749 149.952 74.1629 149.824L74.7389 150.912C74.5069 151.168 74.2069 151.372 73.8349 151.52C73.4629 151.668 73.0909 151.744 72.7149 151.744C72.3389 151.744 72.0389 151.684 71.7669 151.564H71.7709ZM69.5949 146.624C69.9709 146.624 70.2909 146.572 70.5629 146.472C70.8309 146.368 71.0349 146.22 71.1789 146.024C71.3189 145.828 71.3909 145.588 71.3909 145.308C71.3909 145.044 71.3189 144.812 71.1789 144.616C71.0389 144.42 70.8349 144.264 70.5629 144.148C70.2949 144.032 69.9749 143.976 69.6109 143.976H65.4629V146.624H69.5989H69.5949Z" fill="#F44E22"/>
<path d="M76.4028 142.372H85.6948V144.036H78.8068V146.084H85.1828V147.568H78.8068V149.808H85.8228V151.484H76.4028V142.372Z" fill="#F44E22"/>
<path d="M90.2948 151.156C89.3828 150.764 88.6708 150.208 88.1628 149.492C87.6548 148.776 87.4028 147.96 87.4028 147.048C87.4028 146.084 87.6708 145.228 88.2028 144.48C88.7348 143.732 89.4788 143.152 90.4348 142.74C91.3908 142.328 92.4828 142.12 93.7108 142.12C94.6068 142.12 95.4348 142.236 96.1948 142.472C96.9548 142.708 97.5908 143.036 98.1028 143.464C98.6148 143.892 98.9428 144.372 99.0868 144.912L96.7828 145.4C96.6788 145.112 96.4788 144.848 96.1748 144.62C95.8708 144.388 95.5028 144.212 95.0668 144.084C94.6308 143.956 94.1788 143.892 93.7108 143.892C92.9668 143.892 92.3108 144.024 91.7348 144.288C91.1588 144.552 90.7068 144.916 90.3828 145.384C90.0588 145.848 89.8948 146.384 89.8948 146.992C89.8948 147.6 90.0708 148.116 90.4268 148.572C90.7788 149.028 91.2708 149.388 91.8988 149.648C92.5268 149.908 93.2508 150.04 94.0668 150.04C94.7388 150.04 95.3588 149.936 95.9228 149.732C96.4868 149.528 96.9388 149.256 97.2788 148.912C97.6188 148.572 97.8028 148.18 97.8308 147.736H91.9548V146.328H100.223V151.5H98.2388L98.0868 149.876H98.0748C97.7668 150.26 97.3788 150.596 96.9028 150.88C96.4308 151.164 95.8948 151.384 95.2948 151.532C94.6988 151.68 94.0668 151.756 93.3988 151.756C92.2388 151.756 91.2028 151.56 90.2868 151.168L90.2948 151.156Z" fill="#F44E22"/>
<path d="M102.339 142.372H104.811V151.484H102.339V142.372Z" fill="#F44E22"/>
<path d="M107.111 142.372H110.451L114.087 149.284H114.099L117.707 142.372H121.075V151.484H118.707V144.944H118.683L115.291 151.484H112.975L109.507 144.944H109.483V151.484H107.115V142.372H107.111Z" fill="#F44E22"/>
<path d="M123.379 142.372H132.671V144.036H125.783V146.084H132.159V147.568H125.783V149.808H132.799V151.484H123.379V142.372Z" fill="#F44E22"/>
<path d="M134.707 142.372H137.767L143.515 149.092H143.527V142.372H145.895V151.484H142.863L137.091 144.724H137.079V151.484H134.711V142.372H134.707Z" fill="#F44E22"/>
<path d="M151.503 144.204H147.651V142.372H157.839V144.204H153.999V151.488H151.503V144.204Z" fill="#F44E22"/>
<path d="M112.471 259.452L107.923 255.4L103.147 258.428L98.323 254.216L93.271 257.24L88.207 251.028L85.427 251.864L80.523 257.468L73.927 258.476L69.035 254.196L65.503 254.368L60.631 256.34L54.675 256.176L54.623 256.136L50.831 253.272L46.523 257.476L39.915 255.9L36.239 252.008L32.379 255.928H32.291L24.059 255.72L22.419 247.604L24.767 243.48L20.651 238.728L23.955 232.84L25.367 228L27.971 223.908L26.755 220.492L22.187 214.556L27.203 209L27.447 205.596L25.099 200.892V200.844L25.191 196.276L22.243 191.768L20.451 185.184L26.283 181.244L20.831 177L24.731 171.968L20.079 166.844L26.491 161.72L25.083 158.812L20.639 153.756L19.903 146.908L26.779 142.764L23.999 139.5L23.991 139.444L23.091 133.444L25.143 129.256L21.335 123.964L26.763 119.104L24.171 114.808L26.871 110.02L24.107 105.168L27.635 99.86L27.535 95.892L27.059 91.844L23.711 87.472L19.843 80.944L25.795 76.212L23.199 72.032L25.915 67.056L23.991 62.2L27.083 57.452L25.491 53.488L24.839 48.904L22.051 43.972V43.916L22.255 37.752L26.699 33.168L26.243 30.096L30.739 26.88L37.151 26.58L40.963 30.368L44.763 25.992L50.343 25.288L55.639 24.356L60.659 26.092L64.959 26.248L69.839 25.616H69.863L74.411 26.216L78.667 24.788L85.087 22.224L89.323 28.852L93.815 23.984L99.251 29.996L102.043 29.048L107.959 21.396L114.067 27.528L118.215 28.48L122.923 29.428L126.351 29.928L131.647 22.808L137.511 26.976L141.103 26.576L145.999 24.28L151.587 24.016L156.619 25.636L161.191 26.396L165.987 26.964L169.875 27.548L175.603 23.272L181.119 29.908L183.239 30.032L189.847 27.528L190.851 33.368L196.091 37.756L195.379 44.056L192.923 49.56L188.919 52.936L193.055 56.344L196.507 63.132L189.155 68.6L187.787 72.468L187.471 75.8L193.503 80.808L191.539 86.136L193.731 90.576L193.343 96.528L190.835 100.18L196.015 104.756L192.731 111.412L188.103 115.692L188.415 119.54L188.043 124.484L187.767 128.612L189.967 132.888L192.247 138.184V138.228L191.999 143.704L190.583 148.944L188.903 152.048L197.123 156.944L192.263 163.776L189.315 166.772L195.575 170.928L194.043 176.612L195.331 180.952L195.915 186.568L195.887 186.62L193.071 192.2L189.139 196.432L189.431 199.204L196.431 204.172L195.387 210.952L191.855 214.66L196.219 219.056L193.135 224.764L193.115 228.304L196.499 233.448L194.527 238.596L195.731 243.132L194.703 248.88L190.743 254.2L185.103 256.744L185.043 256.732L180.075 255.812L175.723 256.796L169.831 258.104L165.479 254.272L161.887 256.712L156.527 258.88L151.067 259.192L151.039 259.184L146.391 258.012L141.555 258.804L135.603 257.052L131.835 252.228L128.067 255.652L122.907 255.096L118.603 257.124L112.479 259.44L112.471 259.452ZM107.963 254.9L112.555 258.992L118.439 256.768L122.831 254.7L127.923 255.248L131.879 251.656L135.831 256.716L141.571 258.408L146.399 257.62L151.095 258.808L156.463 258.504L161.711 256.372L165.507 253.788L169.939 257.688L180.067 255.42L180.107 255.428L185.051 256.344L190.479 253.896L194.319 248.732L195.315 243.168L194.099 238.592L196.047 233.516L192.711 228.444L192.735 224.684L192.759 224.64L195.727 219.148L191.299 214.684L195.015 210.788L196.003 204.376L189.059 199.448L188.727 196.316L188.791 196.248L192.763 191.972L195.507 186.516L194.939 181.052L193.627 176.64L195.111 171.124L188.687 166.856L191.955 163.54L196.543 157.088L188.367 152.216L190.219 148.792L191.607 143.64L191.843 138.272L189.603 133.072L187.359 128.712L187.643 124.472L188.015 119.556L187.691 115.548L192.435 111.16L195.523 104.872L190.307 100.26L192.955 96.408L193.331 90.676L191.111 86.18L193.035 80.956L187.059 75.992L187.407 72.38L188.823 68.372L188.871 68.336L196.003 63.036L192.723 56.588L188.299 52.964L192.599 49.336L195.003 43.944L195.671 37.948L190.483 33.604L189.535 28.096L183.303 30.46L180.927 30.32L175.543 23.844L169.983 27.992L165.935 27.384L161.135 26.816L156.523 26.048L151.531 24.444L146.055 24.704L141.175 26.996L137.399 27.416L131.731 23.384L126.527 30.38L122.851 29.844L118.127 28.892L113.863 27.916L113.823 27.876L107.995 22.024L102.283 29.412L99.127 30.484L93.807 24.6L89.263 29.528L84.927 22.74L78.807 25.184L74.451 26.644L69.839 26.04L64.979 26.668L60.559 26.504L55.607 24.792L50.403 25.708L44.967 26.396L40.983 30.98L36.995 27.012L30.879 27.3L26.679 30.304L27.127 33.332L22.655 37.948L22.459 43.904L25.235 48.844L25.887 53.444L27.535 57.532L24.443 62.284L26.359 67.12L23.667 72.056L26.327 76.34L20.367 81.076L24.043 87.284L27.443 91.724L27.935 95.896L28.043 100.012L24.583 105.22L27.335 110.052L24.639 114.836L27.283 119.216L21.875 124.056L25.615 129.252L23.515 133.544L24.387 139.364L27.399 142.896L20.339 147.152L21.035 153.62L25.443 158.648L27.003 161.868L20.675 166.924L25.267 171.98L21.407 176.964L26.979 181.3L20.927 185.388L22.635 191.664L25.607 196.192L25.511 200.836L27.863 205.548L27.599 209.196L22.715 214.608L27.131 220.36L28.423 223.992L25.731 228.224L24.327 233.052L21.147 238.712L25.263 243.464L22.847 247.704L24.391 255.36L32.219 255.556L36.247 251.464L40.127 255.568L46.407 257.064L50.803 252.772L54.819 255.804L60.563 255.96L65.455 253.992L69.183 253.808L74.059 258.072L80.327 257.116L85.211 251.536L88.355 250.592L93.371 256.74L98.375 253.748L103.195 257.952L107.971 254.92L107.963 254.9Z" fill="#F7CEC4"/>
</svg>
