<svg width="220" height="284" viewBox="0 0 220 284" fill="none" xmlns="http://www.w3.org/2000/svg">
<path d="M212.611 22.152C212.611 22.272 212.619 22.392 212.623 22.504C212.651 23.124 212.759 23.732 212.935 24.3C213.843 27.196 216.531 29.308 219.711 29.352V36.776C215.783 36.84 212.611 40.04 212.611 43.988C212.611 45.268 212.951 46.476 213.543 47.524C213.835 48.044 214.187 48.524 214.603 48.948C215.711 50.12 217.223 50.92 218.911 51.132C219.175 51.168 219.439 51.188 219.711 51.192V58.544C219.479 58.544 219.251 58.556 219.027 58.58C219.011 58.588 218.995 58.588 218.979 58.592C218.747 58.616 218.523 58.652 218.299 58.7C217.991 58.768 217.687 58.852 217.395 58.956C217.311 58.992 217.227 59.02 217.147 59.052C217.123 59.064 217.099 59.072 217.075 59.08C216.999 59.116 216.923 59.144 216.847 59.18C216.771 59.216 216.695 59.248 216.623 59.288C216.559 59.32 216.499 59.348 216.439 59.38C216.263 59.476 216.091 59.576 215.923 59.688C215.839 59.74 215.759 59.792 215.683 59.844C215.595 59.904 215.507 59.968 215.423 60.04C215.335 60.1 215.255 60.168 215.171 60.244C215.091 60.304 215.011 60.376 214.931 60.452C214.851 60.524 214.775 60.6 214.699 60.676C214.547 60.828 214.403 60.988 214.267 61.152C213.267 62.352 212.655 63.88 212.615 65.552C212.611 65.644 212.611 65.728 212.611 65.82C212.611 65.868 212.611 65.916 212.615 65.96C212.615 66.044 212.615 66.124 212.623 66.204C212.627 66.292 212.631 66.38 212.643 66.468C212.647 66.552 212.655 66.636 212.667 66.72C212.679 66.8 212.687 66.88 212.703 66.96C212.719 67.068 212.743 67.176 212.763 67.28C212.783 67.384 212.807 67.492 212.835 67.596C212.855 67.672 212.875 67.748 212.895 67.82C212.923 67.908 212.947 67.992 212.975 68.076C212.999 68.152 213.027 68.232 213.055 68.308C213.083 68.388 213.115 68.464 213.147 68.54C213.187 68.644 213.231 68.744 213.279 68.844C213.311 68.912 213.343 68.98 213.379 69.048C213.379 69.048 213.383 69.056 213.383 69.06C213.439 69.172 213.499 69.28 213.559 69.388C213.567 69.4 213.575 69.412 213.579 69.424C213.635 69.516 213.691 69.604 213.747 69.692C213.823 69.808 213.899 69.924 213.983 70.036C214.079 70.168 214.179 70.3 214.283 70.424C214.351 70.508 214.423 70.588 214.495 70.664C214.503 70.676 214.515 70.684 214.523 70.696C214.571 70.748 214.619 70.8 214.667 70.848C214.735 70.916 214.803 70.984 214.871 71.044C214.879 71.056 214.891 71.064 214.899 71.072C214.907 71.08 214.911 71.088 214.919 71.092C214.939 71.112 214.963 71.132 214.983 71.152C215.095 71.252 215.211 71.352 215.327 71.444C215.435 71.532 215.543 71.616 215.659 71.692C215.731 71.744 215.803 71.792 215.875 71.84C215.959 71.896 216.043 71.952 216.131 72.004C216.271 72.088 216.415 72.168 216.559 72.24C217.507 72.72 218.579 73 219.711 73.02V80.368C219.475 80.372 219.243 80.392 219.015 80.416C218.899 80.424 218.783 80.444 218.671 80.464C218.579 80.472 218.487 80.492 218.399 80.508C218.267 80.54 218.135 80.568 218.003 80.6C217.895 80.628 217.787 80.656 217.679 80.696C217.571 80.724 217.467 80.764 217.363 80.8C217.259 80.84 217.155 80.876 217.051 80.92C216.947 80.964 216.847 81.008 216.747 81.056C216.647 81.1 216.547 81.152 216.451 81.204C216.351 81.256 216.255 81.308 216.159 81.368C216.079 81.416 216.007 81.456 215.931 81.508C215.807 81.592 215.687 81.672 215.567 81.764C215.491 81.816 215.419 81.868 215.347 81.928C215.175 82.064 215.011 82.204 214.851 82.364C213.471 83.668 212.611 85.52 212.611 87.576V87.648C212.611 88.2 212.671 88.732 212.795 89.244C212.819 89.36 212.847 89.468 212.879 89.58C212.907 89.692 212.943 89.8 212.979 89.908C212.999 89.984 213.023 90.052 213.055 90.124C213.055 90.132 213.063 90.144 213.067 90.152C213.067 90.156 213.071 90.164 213.075 90.168C213.083 90.192 213.091 90.22 213.103 90.244C213.143 90.368 213.199 90.488 213.251 90.608C213.383 90.908 213.539 91.2 213.719 91.48C213.803 91.62 213.899 91.756 213.995 91.892C214.055 91.976 214.123 92.068 214.195 92.148C214.259 92.24 214.327 92.32 214.407 92.4C214.471 92.488 214.547 92.568 214.627 92.644C214.699 92.72 214.775 92.796 214.851 92.868L215.103 93.096C215.183 93.168 215.267 93.24 215.355 93.3C215.419 93.356 215.487 93.408 215.559 93.456C215.591 93.488 215.627 93.508 215.659 93.532C215.735 93.588 215.811 93.64 215.887 93.688C215.959 93.74 216.035 93.78 216.111 93.824C216.191 93.876 216.275 93.924 216.359 93.968C216.447 94.02 216.539 94.068 216.631 94.108C216.707 94.148 216.787 94.188 216.867 94.22C217.335 94.432 217.827 94.596 218.339 94.7C218.547 94.744 218.759 94.78 218.975 94.804C218.991 94.804 219.003 94.808 219.015 94.808C219.243 94.832 219.475 94.848 219.711 94.852V102.204C217.167 102.244 214.935 103.6 213.683 105.624C213.055 106.648 212.667 107.84 212.619 109.116C212.615 109.216 212.611 109.308 212.611 109.408V109.48C212.611 109.564 212.611 109.64 212.619 109.716C212.619 109.872 212.631 110.032 212.651 110.192C212.679 110.52 212.735 110.844 212.811 111.168C212.955 111.768 213.179 112.34 213.459 112.872C214.659 115.116 217.003 116.644 219.711 116.688V124.032C216.399 124.092 213.627 126.368 212.835 129.448C212.723 129.908 212.647 130.392 212.623 130.88V130.92C212.615 131.028 212.611 131.132 212.611 131.244V131.316C212.611 131.42 212.615 131.524 212.619 131.628C212.707 133.644 213.619 135.432 215.023 136.692H215.027C216.275 137.808 217.911 138.496 219.711 138.52V145.868C216.199 145.92 213.287 148.488 212.719 151.856C212.663 152.16 212.631 152.464 212.619 152.776C212.615 152.876 212.611 152.972 212.611 153.072V153.144C212.611 153.248 212.615 153.348 212.619 153.452C212.619 153.524 212.623 153.596 212.631 153.668C212.639 153.792 212.651 153.916 212.667 154.036C212.683 154.172 212.703 154.3 212.727 154.432C212.771 154.684 212.831 154.932 212.903 155.172C212.979 155.452 213.079 155.724 213.195 155.984C213.267 156.16 213.351 156.332 213.439 156.496C213.483 156.58 213.527 156.664 213.575 156.744C213.759 157.072 213.975 157.384 214.215 157.676C214.275 157.748 214.335 157.82 214.395 157.892C214.459 157.964 214.519 158.032 214.587 158.1C214.651 158.168 214.715 158.236 214.783 158.3C215.083 158.596 215.407 158.86 215.755 159.096C215.835 159.156 215.923 159.208 216.007 159.264C216.059 159.296 216.111 159.328 216.163 159.356C216.231 159.396 216.295 159.436 216.367 159.472C216.531 159.564 216.703 159.648 216.875 159.724C216.959 159.76 217.043 159.796 217.131 159.832C217.135 159.836 217.139 159.836 217.143 159.836C217.227 159.872 217.319 159.904 217.407 159.936C217.495 159.968 217.587 160 217.679 160.028C217.771 160.056 217.863 160.084 217.959 160.108C218.051 160.132 218.143 160.156 218.239 160.176C218.335 160.196 218.431 160.216 218.527 160.232C218.615 160.248 218.699 160.264 218.787 160.276C218.807 160.28 218.823 160.28 218.839 160.284C218.923 160.296 219.003 160.304 219.087 160.312C219.107 160.316 219.127 160.316 219.147 160.32C219.335 160.336 219.523 160.344 219.711 160.348V167.696C219.619 167.696 219.527 167.7 219.431 167.716C217.899 167.792 216.503 168.348 215.375 169.24C214.759 169.724 214.223 170.304 213.791 170.964C213.107 172 212.687 173.224 212.623 174.544C212.615 174.672 212.611 174.804 212.611 174.944V174.976C212.611 175.096 212.615 175.22 212.623 175.34C212.631 175.556 212.655 175.772 212.687 175.988C212.707 176.12 212.727 176.252 212.755 176.38C212.767 176.448 212.779 176.516 212.795 176.58C212.863 176.88 212.947 177.172 213.055 177.456C213.075 177.516 213.099 177.58 213.123 177.64C213.171 177.76 213.223 177.876 213.275 177.992C213.331 178.116 213.395 178.24 213.459 178.36C213.531 178.496 213.607 178.632 213.691 178.76C213.699 178.78 213.711 178.796 213.719 178.808C213.799 178.94 213.887 179.068 213.979 179.192C213.983 179.196 213.987 179.2 213.987 179.204C214.079 179.332 214.175 179.46 214.279 179.58C214.351 179.668 214.427 179.752 214.503 179.836C214.743 180.1 215.007 180.348 215.287 180.58C215.351 180.628 215.419 180.68 215.487 180.732C215.547 180.78 215.611 180.824 215.675 180.868C215.779 180.944 215.887 181.012 215.995 181.08C216.227 181.228 216.475 181.364 216.727 181.48C216.815 181.524 216.903 181.564 216.995 181.604C217.007 181.612 217.023 181.616 217.039 181.62C217.119 181.656 217.203 181.688 217.287 181.72C217.547 181.82 217.811 181.9 218.083 181.968C218.139 181.984 218.199 181.996 218.255 182.008C218.335 182.028 218.415 182.044 218.499 182.056C218.595 182.076 218.691 182.092 218.791 182.104C218.859 182.116 218.931 182.128 218.999 182.132C219.235 182.16 219.471 182.176 219.711 182.18V189.532C217.879 189.56 216.211 190.272 214.955 191.432C214.507 191.836 214.115 192.3 213.783 192.808C213.455 193.3 213.195 193.84 213.003 194.408C212.799 194.992 212.675 195.6 212.631 196.24C212.627 196.24 212.627 196.252 212.631 196.256C212.623 196.344 212.619 196.428 212.615 196.516C212.615 196.616 212.611 196.716 212.611 196.816C212.611 196.908 212.615 197.008 212.619 197.104C212.651 197.944 212.835 198.748 213.131 199.496C213.195 199.656 213.263 199.812 213.339 199.964C213.343 199.976 213.351 199.988 213.355 200C213.411 200.108 213.467 200.212 213.523 200.316C213.555 200.372 213.587 200.428 213.619 200.48C213.695 200.612 213.779 200.74 213.863 200.864C213.947 200.988 214.035 201.108 214.123 201.224C214.251 201.388 214.387 201.544 214.527 201.696C214.611 201.788 214.703 201.88 214.795 201.972C215.043 202.212 215.311 202.436 215.595 202.64C215.683 202.7 215.771 202.76 215.859 202.82C216.299 203.12 216.771 203.364 217.263 203.548H217.279C218.035 203.844 218.859 204 219.711 204.016V211.368C218.415 211.388 217.203 211.748 216.159 212.368C214.263 213.484 212.923 215.452 212.659 217.744C212.639 217.924 212.623 218.116 212.619 218.304C212.615 218.368 212.615 218.432 212.611 218.5V218.644C212.611 218.7 212.611 218.768 212.615 218.824C212.615 218.9 212.619 218.98 212.627 219.056C212.631 219.132 212.635 219.208 212.647 219.28C212.651 219.372 212.659 219.464 212.675 219.556C212.707 219.832 212.755 220.104 212.823 220.368C212.863 220.544 212.915 220.716 212.975 220.888C212.999 220.976 213.031 221.06 213.063 221.144C213.339 221.9 213.743 222.592 214.243 223.2C214.307 223.288 214.379 223.368 214.455 223.448C214.523 223.528 214.599 223.608 214.675 223.688C214.827 223.844 214.983 223.992 215.147 224.124C215.231 224.196 215.311 224.268 215.399 224.328C215.471 224.392 215.543 224.444 215.619 224.496C215.643 224.516 215.667 224.532 215.695 224.548C215.771 224.604 215.851 224.656 215.931 224.704C216.015 224.768 216.099 224.82 216.187 224.868C216.207 224.876 216.227 224.892 216.247 224.9C216.327 224.948 216.411 224.996 216.495 225.032C216.615 225.096 216.735 225.156 216.859 225.216C216.875 225.224 216.895 225.232 216.911 225.236C216.971 225.264 217.027 225.288 217.087 225.308C217.187 225.352 217.287 225.396 217.391 225.428C217.575 225.496 217.767 225.552 217.959 225.604C218.051 225.628 218.143 225.652 218.235 225.672C218.491 225.732 218.755 225.776 219.023 225.804C219.251 225.828 219.479 225.844 219.711 225.848V233.196C219.603 233.196 219.483 233.204 219.375 233.216C218.991 233.24 218.619 233.292 218.255 233.372C217.967 233.436 217.687 233.516 217.415 233.616C217.163 233.7 216.923 233.804 216.687 233.92H216.683C214.279 235.092 212.615 237.548 212.615 240.404C212.615 241.348 212.803 242.252 213.135 243.088C213.687 244.456 214.639 245.616 215.863 246.416C216.303 246.708 216.775 246.952 217.267 247.144H217.283C217.591 247.26 217.911 247.36 218.239 247.432C218.715 247.54 219.211 247.6 219.715 247.604V255.028C219.375 255.036 219.039 255.064 218.711 255.116C217.335 255.328 216.087 255.928 215.087 256.804C214.639 257.196 214.247 257.632 213.915 258.12C213.099 259.28 212.615 260.704 212.615 262.232C212.615 266.144 215.727 269.316 219.607 269.44C219.615 269.56 219.623 269.68 219.627 269.796C219.655 270.232 219.683 270.668 219.711 271.096C219.711 271.108 219.711 271.116 219.715 271.128V276.992C219.715 276.992 219.699 276.992 219.687 276.992C219.607 276.98 219.523 276.972 219.439 276.968C219.379 276.96 219.315 276.956 219.255 276.952C219.135 276.948 219.011 276.944 218.887 276.944C218.779 276.944 218.663 276.944 218.559 276.944C218.375 276.952 218.191 276.968 218.015 276.992C215.323 277.32 213.087 279.124 212.155 281.58C211.935 282.156 211.787 282.772 211.723 283.416C211.703 283.6 211.687 283.796 211.687 283.992H204.259C204.183 280.308 201.347 277.308 197.739 276.968C197.627 276.956 197.507 276.948 197.387 276.944C197.279 276.944 197.163 276.944 197.055 276.944C196.867 276.944 196.687 276.944 196.507 276.96C196.427 276.972 196.339 276.972 196.263 276.984C193.763 277.256 191.651 278.804 190.587 280.968C190.315 281.52 190.115 282.108 189.991 282.728C189.915 283.144 189.863 283.56 189.855 283.996H182.427C182.347 280.4 179.647 277.452 176.163 277.004C176.051 276.992 175.939 276.976 175.823 276.972C175.667 276.952 175.515 276.948 175.359 276.948C175.315 276.948 175.263 276.948 175.223 276.948H175.187C175.087 276.948 174.991 276.948 174.891 276.948C174.687 276.96 174.487 276.98 174.283 277.004C174.215 277.02 174.147 277.024 174.079 277.036C172.039 277.36 170.291 278.532 169.211 280.18V280.192C168.867 280.7 168.599 281.244 168.399 281.828C168.171 282.508 168.039 283.236 168.023 283.996H160.587C160.515 280.192 157.491 277.12 153.715 276.948C153.611 276.948 153.499 276.948 153.387 276.948H153.355C151.275 276.956 149.403 277.852 148.087 279.272C147.687 279.708 147.339 280.204 147.051 280.728C146.515 281.704 146.211 282.816 146.187 284H138.759C138.687 280.54 136.183 277.684 132.891 277.076C132.679 277.028 132.463 277 132.239 276.976C132.127 276.964 132.007 276.956 131.887 276.952C131.779 276.952 131.667 276.952 131.559 276.952C131.451 276.952 131.339 276.952 131.231 276.952C131.139 276.956 131.059 276.96 130.975 276.972C130.879 276.972 130.783 276.984 130.687 277C130.507 277.016 130.331 277.052 130.155 277.084C130.059 277.104 129.963 277.128 129.871 277.148C129.803 277.16 129.739 277.18 129.671 277.2C128.827 277.428 128.043 277.804 127.355 278.3C126.879 278.64 126.447 279.04 126.067 279.484C125.027 280.708 124.391 282.28 124.355 284H116.927C116.851 280.356 114.083 277.384 110.535 276.996C110.439 276.98 110.347 276.976 110.255 276.964H110.239C110.163 276.956 110.087 276.952 110.015 276.952C109.915 276.952 109.823 276.952 109.727 276.952C109.611 276.952 109.491 276.952 109.383 276.952C109.263 276.956 109.155 276.964 109.039 276.976C108.815 277 108.587 277.028 108.375 277.072C107.935 277.152 107.515 277.276 107.107 277.436C106.563 277.652 106.059 277.924 105.587 278.252C103.779 279.528 102.575 281.624 102.523 284H95.0911C95.0151 280.316 92.1831 277.312 88.5791 276.976C88.4631 276.964 88.3471 276.956 88.2271 276.952C88.1151 276.952 88.0071 276.952 87.8911 276.952C87.7991 276.952 87.7071 276.952 87.6151 276.952C87.4631 276.952 87.3151 276.96 87.1711 276.98C87.0871 276.988 87.0151 277 86.9391 277.004C86.5031 277.06 86.0791 277.16 85.6751 277.296C82.8271 278.216 80.7591 280.856 80.6871 284H73.2631C73.1991 280.908 71.1911 278.304 68.4151 277.352C68.3271 277.316 68.2391 277.288 68.1471 277.26C68.1071 277.248 68.0631 277.232 68.0231 277.224C67.9511 277.204 67.8791 277.18 67.8071 277.164C67.4631 277.076 67.1151 277.012 66.7551 276.98C66.6871 276.976 66.6311 276.972 66.5631 276.964C66.4631 276.956 66.3551 276.952 66.2471 276.952H66.2311C66.1751 276.952 66.1151 276.952 66.0631 276.952H66.0271C65.9151 276.952 65.8071 276.952 65.6911 276.952C65.4631 276.964 65.2351 276.988 65.0071 277.024C65.0031 277.024 64.9911 277.024 64.9871 277.024C61.5631 277.528 58.9351 280.448 58.8591 283.996H51.4311C51.3831 281.76 50.3271 279.78 48.6911 278.492C48.1751 278.08 47.5911 277.744 46.9751 277.484C46.1551 277.148 45.2631 276.952 44.3151 276.948C44.2871 276.948 44.2591 276.948 44.2271 276.948C43.9791 276.948 43.7311 276.956 43.4871 276.98C43.3831 276.996 43.2831 277.004 43.1791 277.024C43.0791 277.032 42.9751 277.052 42.8751 277.072C42.7751 277.088 42.6751 277.108 42.5751 277.132C39.7071 277.808 37.4991 280.2 37.0911 283.164C37.0551 283.436 37.0311 283.716 37.0271 284H29.5991C29.5751 282.928 29.3231 281.912 28.8791 281.008C28.5511 280.336 28.1311 279.724 27.6231 279.192C27.5671 279.132 27.5111 279.072 27.4511 279.016C26.2311 277.816 24.5871 277.048 22.7631 276.952C22.6391 276.952 22.5231 276.952 22.3991 276.952C22.2991 276.952 22.1991 276.952 22.0991 276.952C21.9791 276.956 21.8631 276.964 21.7471 276.976C18.1151 277.3 15.2671 280.304 15.1911 284H7.76311C7.74711 283.096 7.56311 282.232 7.23911 281.44C6.91111 280.632 6.44311 279.896 5.85911 279.264C4.66311 277.964 2.99511 277.108 1.12311 276.964C1.05911 276.96 0.991104 276.956 0.931104 276.952C0.851104 276.952 0.775101 276.952 0.691101 276.952H0.631104V269.452C4.0151 269.356 6.82311 266.932 7.48711 263.728C7.58711 263.252 7.63911 262.756 7.63911 262.244C7.63911 262 7.6311 261.744 7.6031 261.504C7.2391 258.004 4.3791 255.256 0.831104 255.06C0.763104 255.056 0.699104 255.044 0.631104 255.044V247.612C4.5231 247.508 7.63911 244.332 7.63911 240.416C7.63911 239.492 7.47511 238.616 7.15111 237.808C6.94711 237.264 6.66711 236.756 6.33911 236.288C6.18711 236.068 6.02311 235.86 5.84711 235.66C5.83911 235.656 5.83111 235.644 5.82711 235.64C4.55111 234.2 2.6951 233.276 0.631104 233.212V225.856C4.0151 225.76 6.82311 223.34 7.48711 220.132C7.58711 219.656 7.63911 219.16 7.63911 218.656C7.63911 218.588 7.63911 218.52 7.63511 218.456C7.63511 218.38 7.63111 218.308 7.62711 218.232C7.62711 218.12 7.6191 218.012 7.6031 217.908C7.5911 217.8 7.57911 217.688 7.56311 217.58C7.27511 215.468 6.07111 213.656 4.35911 212.54C3.67511 212.1 2.9111 211.764 2.0911 211.576C1.6231 211.46 1.1311 211.4 0.631104 211.38V204.02C4.3191 203.916 7.31111 201.06 7.61111 197.432C7.63111 197.232 7.63911 197.032 7.63911 196.828V196.752C7.63911 196.584 7.63911 196.42 7.62711 196.264C7.38311 192.58 4.3591 189.656 0.631104 189.552V182.188C0.699104 182.188 0.763104 182.184 0.831104 182.18C2.7991 182.076 4.55911 181.18 5.79911 179.804C6.81511 178.68 7.4711 177.232 7.6071 175.632C7.6191 175.512 7.6271 175.4 7.6311 175.28C7.6391 175.184 7.63911 175.088 7.63911 174.988V174.916C7.63911 173.72 7.35111 172.592 6.83511 171.604C6.53111 171.012 6.13911 170.468 5.69911 169.992C4.42311 168.636 2.6311 167.776 0.631104 167.716V160.356C4.0631 160.26 6.8991 157.78 7.5151 154.504C7.5791 154.188 7.61511 153.864 7.62711 153.536C7.63511 153.408 7.63911 153.284 7.63911 153.156C7.63911 153.076 7.63911 152.992 7.63511 152.912C7.63511 152.832 7.63111 152.756 7.62711 152.676C7.41911 148.952 4.3871 145.988 0.631104 145.884V138.528C4.5151 138.42 7.62711 135.256 7.63911 131.352V131.328C7.63911 131.18 7.63511 131.032 7.62711 130.88C7.60711 130.428 7.54711 129.98 7.43911 129.556C6.69111 126.456 3.9391 124.14 0.631104 124.052V116.692C2.5151 116.64 4.2351 115.86 5.4911 114.616C6.0151 114.108 6.46311 113.512 6.81111 112.86C6.90711 112.676 6.9991 112.48 7.0791 112.284C7.1231 112.184 7.16311 112.084 7.19511 111.984C7.23511 111.884 7.27111 111.784 7.29911 111.68C7.33111 111.576 7.36311 111.476 7.38711 111.368C7.41911 111.264 7.44311 111.16 7.46311 111.052C7.53511 110.756 7.5791 110.452 7.6031 110.14C7.6151 110.052 7.62311 109.96 7.62711 109.868C7.63511 109.744 7.63911 109.62 7.63911 109.492C7.63911 109.364 7.6351 109.252 7.6311 109.132C7.6271 109.008 7.6191 108.892 7.6071 108.78C7.2911 105.16 4.3071 102.316 0.631104 102.22V94.86C0.803104 94.856 0.971111 94.844 1.13911 94.832C1.30711 94.812 1.47511 94.788 1.63911 94.76C1.85911 94.728 2.07111 94.68 2.28311 94.62C2.39111 94.6 2.49511 94.564 2.59911 94.532C2.70311 94.504 2.8071 94.464 2.9071 94.428C3.0111 94.388 3.11111 94.352 3.21111 94.308C3.31111 94.264 3.4111 94.22 3.5071 94.176C3.6071 94.132 3.7031 94.08 3.7951 94.032C3.8911 93.98 3.98311 93.932 4.07511 93.876C4.16711 93.82 4.25911 93.764 4.34711 93.708C4.43911 93.652 4.52711 93.592 4.61111 93.528C4.69111 93.472 4.77511 93.412 4.85111 93.348C4.85511 93.348 4.85911 93.344 4.86311 93.34C4.93511 93.284 5.0031 93.228 5.0671 93.172C5.0791 93.164 5.09111 93.156 5.09911 93.144C5.17111 93.084 5.24311 93.024 5.31111 92.956C5.38311 92.892 5.45911 92.82 5.52711 92.748C5.59911 92.68 5.66711 92.608 5.73511 92.532C5.80311 92.456 5.8711 92.384 5.9311 92.304C6.8551 91.224 7.45911 89.86 7.59911 88.368C7.60711 88.292 7.6151 88.22 7.6191 88.144C7.6271 88.068 7.63111 87.992 7.63511 87.916C7.63911 87.86 7.63911 87.804 7.63911 87.74V87.588C7.63911 87.492 7.6351 87.4 7.6311 87.308C7.6031 86.516 7.4471 85.764 7.1791 85.06C7.1071 84.856 7.01911 84.656 6.92311 84.456C6.78311 84.164 6.62311 83.884 6.44711 83.616C6.44311 83.612 6.43911 83.612 6.43911 83.608C6.32311 83.432 6.19511 83.256 6.05911 83.084C5.92311 82.916 5.7791 82.756 5.6311 82.604C5.5591 82.52 5.4791 82.444 5.4031 82.376C5.3271 82.3 5.24711 82.228 5.16311 82.156C5.08311 82.08 4.9991 82.012 4.9151 81.952C4.8351 81.88 4.75511 81.82 4.67111 81.76C4.57111 81.688 4.47111 81.62 4.37111 81.556C4.28711 81.5 4.2031 81.444 4.1151 81.4C4.0231 81.336 3.9271 81.284 3.8311 81.236C3.7391 81.18 3.6431 81.132 3.5431 81.088C3.4431 81.04 3.3431 80.992 3.2431 80.956C3.1471 80.908 3.04711 80.876 2.94711 80.836C2.65111 80.728 2.34711 80.632 2.03511 80.56C1.92711 80.536 1.8151 80.512 1.7031 80.5C1.6111 80.48 1.51911 80.464 1.42311 80.456C1.28311 80.432 1.13911 80.416 0.995105 80.408C0.875105 80.392 0.755104 80.388 0.631104 80.384V73.028C1.1551 73.012 1.6631 72.94 2.1551 72.82C3.0551 72.604 3.88711 72.212 4.62311 71.688C4.83511 71.54 5.03511 71.376 5.22711 71.204C5.32311 71.12 5.4191 71.032 5.5071 70.94C5.5751 70.88 5.63511 70.816 5.69511 70.748C5.7031 70.74 5.7071 70.732 5.7151 70.724C5.7231 70.72 5.7271 70.712 5.7311 70.708C5.7711 70.668 5.8071 70.628 5.8431 70.584C5.8911 70.536 5.93511 70.484 5.97511 70.432C6.03511 70.364 6.0911 70.292 6.1431 70.22C6.2431 70.096 6.33511 69.968 6.42311 69.832C6.47111 69.76 6.51911 69.688 6.56311 69.612C6.56711 69.604 6.57111 69.6 6.57511 69.592C6.62311 69.516 6.6711 69.44 6.7151 69.356C6.7191 69.348 6.72311 69.344 6.72711 69.336C6.77111 69.26 6.81111 69.184 6.85111 69.104C6.89511 69.02 6.93511 68.936 6.97511 68.848C6.97511 68.84 6.97511 68.836 6.98311 68.828C7.00711 68.78 7.03111 68.728 7.05111 68.676C7.07511 68.624 7.0951 68.572 7.1151 68.52C7.1591 68.416 7.19911 68.308 7.23511 68.2C7.24711 68.172 7.25511 68.144 7.26311 68.116C7.29511 68.032 7.3231 67.944 7.3431 67.856C7.3551 67.824 7.36311 67.788 7.37111 67.756C7.37111 67.748 7.37511 67.744 7.37511 67.736C7.39911 67.664 7.41911 67.592 7.43511 67.52C7.45111 67.456 7.4671 67.392 7.4791 67.324C7.4911 67.268 7.5031 67.208 7.5151 67.148C7.5271 67.072 7.53911 66.992 7.55111 66.912C7.56311 66.848 7.57111 66.784 7.57511 66.72C7.57511 66.704 7.58311 66.692 7.58311 66.676C7.59511 66.588 7.60311 66.5 7.61111 66.408C7.62311 66.304 7.6271 66.192 7.6311 66.084C7.6391 66.004 7.63911 65.916 7.63911 65.832C7.63911 65.708 7.6351 65.584 7.6311 65.464C7.6271 65.352 7.6191 65.232 7.6071 65.116C7.5471 64.38 7.3751 63.68 7.1071 63.02C6.0511 60.456 3.5591 58.636 0.631104 58.556V51.2C1.4511 51.18 2.2311 51.016 2.9551 50.74C3.0311 50.716 3.1071 50.688 3.1791 50.656C3.3431 50.588 3.50311 50.516 3.65911 50.44C5.17111 49.684 6.37911 48.412 7.05111 46.856C7.28711 46.332 7.45111 45.764 7.53911 45.18C7.61111 44.8 7.63911 44.404 7.63911 44C7.63911 40.08 4.5231 36.904 0.631104 36.792V29.36C1.4471 29.34 2.21511 29.18 2.94711 28.912C5.68711 27.904 7.63911 25.26 7.63911 22.164C7.63911 21.2 7.4511 20.268 7.1071 19.432C6.0511 16.864 3.5591 15.044 0.631104 14.964V7.55599C0.739104 7.55599 0.839111 7.55599 0.951111 7.54399C1.06311 7.53599 1.18311 7.53199 1.29911 7.51599C4.93511 7.14399 7.77511 4.07599 7.77511 0.33999C7.77511 0.27599 7.76311 0.20799 7.76311 0.13999H15.1911C15.1911 0.20799 15.1871 0.27599 15.1871 0.33999C15.1871 4.21999 18.2471 7.38799 22.0911 7.54399C22.1911 7.55199 22.2991 7.55599 22.3991 7.55599H22.4631C26.4151 7.51599 29.6031 4.29999 29.6031 0.33999C29.6031 0.27599 29.5911 0.20799 29.5911 0.13999H37.0271C37.0271 0.20799 37.0151 0.27599 37.0151 0.33999C37.0151 0.70799 37.0471 1.05999 37.0991 1.40799C37.5911 4.75999 40.3991 7.35999 43.8391 7.54399C43.9631 7.55199 44.0991 7.55599 44.2271 7.55599H44.2551C44.3751 7.55599 44.4871 7.55599 44.6071 7.53999C44.6871 7.53599 44.7631 7.53199 44.8391 7.52799C44.9231 7.51999 44.9991 7.51199 45.0791 7.50399C45.1991 7.48399 45.3151 7.46799 45.4391 7.45199C45.5591 7.43199 45.6791 7.40799 45.7911 7.37999C46.4871 7.22799 47.1431 6.97599 47.7431 6.63999C48.3751 6.28399 48.9471 5.83999 49.4391 5.31999C50.6751 4.03199 51.4391 2.27599 51.4391 0.33999C51.4391 0.27599 51.4311 0.20799 51.4311 0.13999H58.8631C58.8631 0.20799 58.8511 0.27599 58.8511 0.33999C58.8511 4.07599 61.6871 7.14399 65.3271 7.51599C65.4151 7.52799 65.5031 7.53199 65.5911 7.53599C65.6391 7.53999 65.6871 7.54399 65.7311 7.54399C65.8391 7.55199 65.9511 7.55599 66.0631 7.55599C66.1751 7.55599 66.2911 7.55599 66.4111 7.53999C66.5311 7.53999 66.6471 7.53199 66.7631 7.51199C66.7751 7.51599 66.7871 7.51599 66.7991 7.51199C67.1711 7.47999 67.5311 7.41199 67.8831 7.31999C68.5911 7.13599 69.2631 6.83999 69.8751 6.45599C71.9151 5.18399 73.2751 2.91999 73.2751 0.33999C73.2751 0.27599 73.2631 0.20799 73.2591 0.13999H80.6871C80.6871 0.20799 80.6831 0.27599 80.6831 0.33999C80.6831 3.20399 82.3511 5.67599 84.7671 6.84399C84.9311 6.91999 85.0951 7.00399 85.2671 7.06399C85.3551 7.09999 85.4391 7.13199 85.5311 7.15999C85.6551 7.20799 85.7831 7.24399 85.9111 7.27999C86.0831 7.33199 86.2551 7.37599 86.4311 7.40799C86.5551 7.43199 86.6831 7.45599 86.8111 7.47999C86.9111 7.48799 87.0111 7.50399 87.1111 7.51199C87.1271 7.51199 87.1391 7.51599 87.1551 7.51599C87.2751 7.53199 87.3911 7.53599 87.5151 7.54399H87.5271C87.6351 7.55199 87.7471 7.55599 87.8591 7.55599H87.8911C88.0111 7.55599 88.1311 7.55599 88.2391 7.54399C92.0591 7.36399 95.1031 4.20799 95.1031 0.33999C95.1031 0.27599 95.0911 0.20799 95.0911 0.13999H102.527C102.523 0.20799 102.515 0.27599 102.515 0.33999C102.515 2.81199 103.759 4.99199 105.659 6.29199C106.127 6.61999 106.639 6.88399 107.187 7.08799C107.531 7.21999 107.883 7.31999 108.247 7.39999C108.259 7.39999 108.275 7.40799 108.291 7.40799C108.455 7.43999 108.627 7.47599 108.799 7.49199C108.991 7.51599 109.191 7.53599 109.391 7.54399C109.503 7.55199 109.615 7.55599 109.727 7.55599C109.839 7.55599 109.951 7.55599 110.063 7.54399C113.887 7.36799 116.939 4.20799 116.939 0.33999C116.939 0.27599 116.927 0.20799 116.923 0.13999H124.355C124.355 0.20799 124.347 0.27599 124.347 0.33999C124.347 1.91999 124.859 3.38399 125.715 4.57599C126.063 5.05199 126.463 5.47999 126.911 5.85599C127.591 6.43199 128.387 6.88399 129.251 7.17999C129.259 7.17999 129.263 7.17999 129.275 7.18399C129.427 7.23599 129.587 7.28399 129.747 7.32799C129.751 7.32799 129.759 7.32799 129.763 7.32799C129.811 7.33599 129.863 7.35199 129.911 7.35599C130.039 7.38799 130.175 7.41599 130.311 7.43999C130.323 7.44799 130.335 7.44799 130.347 7.45199C130.531 7.47599 130.715 7.50399 130.903 7.52399C131.011 7.52399 131.115 7.53599 131.231 7.53999C131.339 7.54799 131.447 7.55199 131.559 7.55199C131.671 7.55199 131.787 7.55199 131.899 7.53999C135.715 7.36399 138.763 4.20399 138.763 0.335986C138.763 0.271986 138.763 0.203986 138.763 0.135986H146.191C146.191 0.203986 146.187 0.271986 146.187 0.335986C146.187 1.13599 146.315 1.90799 146.563 2.62799C146.759 3.22399 147.027 3.77999 147.367 4.29599C148.319 5.75199 149.787 6.83599 151.507 7.30399C151.523 7.30399 151.539 7.30799 151.555 7.31199H151.567C151.763 7.37199 151.967 7.40799 152.175 7.43999C152.279 7.45999 152.379 7.47999 152.487 7.49599C152.579 7.50399 152.667 7.50799 152.763 7.51599C152.863 7.52799 152.959 7.53199 153.059 7.53999C153.159 7.54799 153.259 7.55199 153.359 7.55199H153.391C157.379 7.55199 160.607 4.31599 160.607 0.335986C160.607 0.271986 160.591 0.203986 160.591 0.135986H168.031C168.027 0.203986 168.015 0.271986 168.015 0.335986C168.015 0.463986 168.019 0.595987 168.027 0.723987C168.063 1.40799 168.191 2.07599 168.411 2.69999C169.183 4.92399 171.011 6.65199 173.291 7.28399C173.335 7.29999 173.375 7.30399 173.415 7.31599C173.499 7.33999 173.591 7.35999 173.683 7.37999C173.795 7.40399 173.903 7.43199 174.019 7.45199C174.127 7.47199 174.239 7.48399 174.351 7.49999C174.443 7.50799 174.543 7.51599 174.639 7.52799C174.727 7.53199 174.811 7.53599 174.891 7.53999C175.007 7.54799 175.115 7.55199 175.227 7.55199C175.319 7.55199 175.419 7.55199 175.519 7.53999C179.363 7.38799 182.439 4.22399 182.439 0.335986C182.439 0.271986 182.431 0.203986 182.427 0.135986H189.859C189.859 0.203986 189.851 0.271986 189.851 0.335986C189.851 0.627986 189.867 0.903991 189.895 1.18399C190.307 4.65599 193.175 7.37599 196.715 7.53999C196.827 7.54799 196.943 7.55199 197.059 7.55199C197.267 7.55199 197.483 7.53999 197.691 7.52399C197.703 7.52399 197.719 7.51599 197.731 7.51599C198.083 7.48399 198.431 7.42799 198.767 7.33999C198.871 7.31599 198.983 7.28399 199.087 7.25199C201.091 6.67599 202.727 5.23999 203.591 3.38399C204.027 2.45999 204.267 1.42799 204.267 0.335986C204.267 0.271986 204.267 0.203986 204.267 0.135986H211.695C211.695 0.203986 211.683 0.271986 211.683 0.335986C211.683 3.55199 213.783 6.26399 216.683 7.20399C216.719 7.21199 216.751 7.22799 216.783 7.23199C216.907 7.27599 217.035 7.30399 217.163 7.33599C217.343 7.37999 217.523 7.42399 217.711 7.45199C217.823 7.47599 217.943 7.48799 218.063 7.50399C218.335 7.53199 218.615 7.55199 218.895 7.55199C218.995 7.55199 219.095 7.55199 219.199 7.53999C219.219 7.53999 219.235 7.53599 219.255 7.53599C219.335 7.53199 219.419 7.52399 219.499 7.51599H219.507C219.507 7.51599 219.547 7.51599 219.563 7.51199C219.579 7.51199 219.595 7.50799 219.619 7.50799C219.635 7.50799 219.647 7.50399 219.671 7.50399C219.691 7.50399 219.707 7.49999 219.723 7.49599V14.956C219.699 14.956 219.675 14.956 219.651 14.96C215.755 15.052 212.623 18.24 212.623 22.16L212.611 22.152Z" fill="#F9F8F4"/>
<path d="M219.711 269.444V271.128C219.711 271.128 219.707 271.108 219.707 271.096C219.683 270.668 219.655 270.232 219.623 269.796C219.619 269.68 219.611 269.56 219.603 269.44C219.639 269.44 219.675 269.44 219.711 269.44V269.444Z" fill="#F9F8F4"/>
<path d="M102.655 140.468C104.103 138.832 104.711 136.9 105.415 135.424C104.231 136.392 103.779 138.448 102.655 140.468ZM125.967 183.024C125.783 182.912 125.615 182.772 125.463 182.608C124.379 181.424 124.235 180.548 124.279 179.812C124.307 179.24 124.447 178.756 124.331 178.28C124.099 177.348 121.639 179 119.791 177.652C119.499 177.436 119.219 177.148 118.967 176.756C117.311 174.188 119.347 171.656 119.495 170.688C119.511 170.584 119.507 170.5 119.475 170.436C119.131 169.74 117.219 170.632 115.959 168.936C115.771 168.68 115.631 168.44 115.535 168.212C114.999 166.92 115.823 165.908 116.419 163.6C117.119 160.88 115.051 159.204 112.439 155.308C109.831 151.412 105.459 151.744 97.7232 151.416C89.9832 151.088 84.6791 146.564 81.7031 138.92C78.7271 131.28 89.4672 117.284 90.2752 115.592C90.6552 114.792 90.9431 113.008 91.2551 111.264C91.4351 110.244 91.6232 109.236 91.8392 108.448C91.6432 108.528 91.4592 108.636 91.2872 108.764C90.7352 109.172 90.3672 111.076 90.0232 113.032C89.7152 114.776 89.4231 116.564 89.0431 117.36C88.2351 119.052 77.4952 133.052 80.4712 140.688C83.4472 148.328 88.7551 152.856 96.4911 153.184C104.227 153.512 108.599 153.184 111.207 157.076C113.819 160.972 115.887 162.648 115.187 165.368C114.595 167.68 113.771 168.688 114.303 169.98C114.399 170.208 114.539 170.448 114.727 170.704C115.991 172.4 117.899 171.512 118.243 172.204C118.275 172.272 118.279 172.356 118.263 172.456C118.115 173.428 116.079 175.96 117.735 178.524C117.987 178.916 118.267 179.204 118.559 179.42C120.407 180.768 122.871 179.116 123.099 180.048C123.215 180.524 123.075 181.008 123.047 181.58C123.007 182.312 123.147 183.192 124.231 184.376C124.383 184.54 124.551 184.68 124.735 184.792C127.031 186.228 131.791 183.948 135.191 181.38C135.191 181.38 135.383 180.908 135.587 180.22C132.279 182.52 128.087 184.344 125.971 183.024H125.967ZM134.179 171.612C134.135 171.724 134.107 171.824 134.091 171.908C134.431 171.516 134.755 171.092 134.923 170.584C134.607 170.932 134.319 171.264 134.179 171.608V171.612Z" fill="#F26955"/>
<path d="M86.8673 133.64C86.9553 133.476 87.0473 133.316 87.1433 133.156C87.0433 133.316 86.9513 133.476 86.8673 133.64ZM107.763 123.024C107.923 122.864 108.095 122.7 108.283 122.54C108.095 122.7 107.923 122.86 107.763 123.024ZM107.763 123.024C107.923 122.864 108.095 122.7 108.283 122.54C108.095 122.7 107.923 122.86 107.763 123.024ZM87.1473 133.156C87.0473 133.316 86.9553 133.476 86.8713 133.64C86.9593 133.476 87.0513 133.316 87.1473 133.156ZM128.663 166.492C128.623 166.468 128.595 166.436 128.575 166.396C128.223 165.744 129.787 163.98 129.955 162.316C129.995 161.92 129.955 161.528 129.791 161.16C128.935 159.244 124.683 160.148 122.967 158.232C121.251 156.32 118.387 152.248 120.375 146.36C122.359 140.472 132.115 133.424 127.515 124.124C122.915 114.824 114.915 114.688 112.543 114.22C111.699 114.052 109.535 113.768 107.015 113.364C107.011 113.364 107.007 113.364 106.999 113.364C104.487 112.968 101.627 112.456 99.3673 111.844C97.5273 111.344 96.0913 110.776 95.5713 110.14C95.2433 109.74 94.9273 109.412 94.6233 109.152C94.2233 108.812 93.8433 108.58 93.4833 108.444C92.8633 108.208 92.3073 108.24 91.8193 108.444C91.6033 109.228 91.4153 110.24 91.2353 111.26C90.9273 113.004 90.6353 114.792 90.2553 115.588C89.4473 117.28 78.7073 131.28 81.6833 138.916C84.6593 146.556 89.9673 151.084 97.7033 151.412C105.439 151.74 109.811 151.412 112.419 155.304C115.031 159.2 117.099 160.876 116.399 163.596C115.807 165.908 114.983 166.916 115.515 168.208C115.611 168.436 115.751 168.676 115.939 168.932C117.203 170.628 119.111 169.74 119.455 170.432C119.487 170.5 119.491 170.584 119.475 170.684C119.327 171.656 117.291 174.188 118.947 176.752C119.199 177.144 119.479 177.432 119.771 177.648C121.619 178.996 124.083 177.344 124.311 178.276C124.427 178.752 124.287 179.236 124.259 179.808C124.219 180.54 124.359 181.42 125.443 182.604C125.595 182.768 125.763 182.908 125.947 183.02C128.063 184.34 132.255 182.52 135.563 180.216C135.803 179.412 136.051 178.316 136.019 177.324C136.003 176.676 135.859 176.076 135.511 175.636C135.387 175.476 135.251 175.336 135.119 175.22C133.855 174.088 132.431 174.592 132.923 173.372C133.119 172.88 133.611 172.424 134.071 171.9C134.087 171.812 134.115 171.716 134.159 171.604C134.299 171.256 134.583 170.928 134.903 170.58C134.971 170.388 135.015 170.18 135.023 169.956C135.051 169.408 134.891 168.772 134.419 168.012C132.695 165.224 129.331 167.012 128.643 166.488L128.663 166.492ZM89.9353 122.5C90.0273 122.44 90.1153 122.376 90.2073 122.312C90.7833 121.908 91.2953 121.504 91.7433 121.104C91.8193 121.036 91.8913 120.968 91.9633 120.904C92.0273 120.844 92.0913 120.784 92.1513 120.72C92.1753 120.696 92.1993 120.676 92.2193 120.652C92.3273 120.548 92.4233 120.448 92.5233 120.348C92.5833 120.284 92.6393 120.224 92.6953 120.164C92.7513 120.104 92.8073 120.04 92.8593 119.976C92.9673 119.852 93.0713 119.732 93.1673 119.612C93.2153 119.552 93.2633 119.492 93.3073 119.432C93.3513 119.372 93.3993 119.312 93.4433 119.252C93.4873 119.192 93.5313 119.132 93.5713 119.076C93.6553 118.96 93.7393 118.84 93.8113 118.724C93.8473 118.668 93.8833 118.612 93.9193 118.56C94.0153 118.404 94.1073 118.248 94.1913 118.096C94.5673 117.416 94.7913 116.796 94.9273 116.276C94.9433 116.204 94.9593 116.136 94.9753 116.072C95.0033 115.948 95.0273 115.828 95.0473 115.72C95.0473 115.72 95.0473 115.716 95.0473 115.712C95.0593 115.648 95.0673 115.588 95.0753 115.528C95.0873 115.428 95.0993 115.336 95.1033 115.252C95.1073 115.204 95.1113 115.16 95.1113 115.12C95.1113 115.088 95.1113 115.06 95.1113 115.032C95.1113 115.012 95.1113 114.992 95.1113 114.972C95.1113 114.772 95.1033 114.664 95.1033 114.664C95.2073 114.756 95.3153 114.844 95.4313 114.924C95.5833 115.036 95.7393 115.14 95.9033 115.236C95.9073 115.236 95.9113 115.244 95.9193 115.244C96.0913 115.348 96.2713 115.436 96.4553 115.516C96.5273 115.548 96.5993 115.58 96.6713 115.608C96.7393 115.636 96.8073 115.664 96.8793 115.688C96.9553 115.712 97.0273 115.736 97.1033 115.764C97.1633 115.784 97.2233 115.804 97.2873 115.82C97.7873 115.964 98.3073 116.056 98.8313 116.104C98.9033 116.112 98.9713 116.116 99.0433 116.124C99.1433 116.132 99.2473 116.14 99.3513 116.144C99.4193 116.148 99.4913 116.148 99.5593 116.152C99.6473 116.152 99.7353 116.16 99.8193 116.156C100.075 116.156 100.331 116.152 100.587 116.144C101.859 116.08 103.071 115.856 104.007 115.632C105.039 115.384 105.739 115.14 105.831 115.104C105.743 115.148 105.655 115.188 105.567 115.232C105.503 115.264 105.439 115.296 105.375 115.332C105.367 115.332 105.359 115.336 105.351 115.344C105.291 115.372 105.231 115.404 105.175 115.436C104.643 115.728 104.179 116.052 103.767 116.4C103.683 116.468 103.603 116.54 103.527 116.612C103.343 116.776 103.171 116.944 103.011 117.116C102.967 117.168 102.919 117.22 102.875 117.272C102.795 117.36 102.723 117.452 102.651 117.54C102.571 117.636 102.499 117.732 102.427 117.828C102.427 117.828 102.419 117.836 102.415 117.844C102.343 117.94 102.275 118.04 102.211 118.136C102.143 118.236 102.079 118.34 102.019 118.44C101.327 119.596 100.983 120.796 100.819 121.816C100.587 123.312 100.735 124.42 100.735 124.42C100.311 124.064 99.8713 123.756 99.4353 123.492C97.4113 122.276 95.3113 121.98 93.5313 122.052C93.4033 122.06 93.2753 122.064 93.1513 122.076C93.1233 122.076 93.0913 122.08 93.0633 122.084C93.0033 122.084 92.9433 122.092 92.8833 122.1C92.8193 122.1 92.7553 122.112 92.6913 122.116C92.6713 122.116 92.6553 122.116 92.6393 122.124C92.5153 122.136 92.3913 122.156 92.2713 122.172C90.3513 122.444 89.0433 123.056 89.0433 123.056C89.3513 122.872 89.6433 122.684 89.9193 122.496L89.9353 122.5ZM115.731 149.976V149.992C115.559 150.848 115.535 151.74 115.603 152.596C114.315 151.584 112.163 149.98 110.155 148.852C109.203 148.32 107.991 148.016 106.759 147.856C108.143 146.144 108.031 143.516 107.715 141.672C107.803 141.256 107.847 140.828 107.863 140.404C108.195 140.82 108.639 141.336 109.147 141.86C110.127 142.876 111.359 143.912 112.527 144.244C113.547 144.532 115.047 144.356 116.475 144.044C115.355 145.82 115.395 148.092 115.727 149.976H115.731ZM107.411 133.236C106.475 133.552 105.923 134.376 105.419 135.424C104.711 136.9 104.103 138.828 102.659 140.468C101.691 142.196 100.227 143.892 97.3713 144.84C91.2593 146.872 87.4393 142.616 86.0593 139.828C85.8953 139.508 85.7713 139.204 85.6753 138.936C84.7593 136.324 84.1113 129.824 90.1993 127.436C96.2873 125.048 99.4713 129.076 99.7513 129.78C99.7513 129.78 103.855 129.848 104.795 132.036C104.795 132.036 104.143 128.364 106.079 127.196C106.079 127.196 102.731 122.108 109.567 118.512C113.707 116.332 116.911 117.492 119.219 119.492C120.719 120.796 121.843 122.452 122.599 123.78C123.051 124.576 123.347 125.524 123.475 126.528C123.707 128.32 123.415 130.312 122.551 131.996V132C121.987 132.6 121.311 133.112 120.519 133.488C116.191 135.548 110.511 132.176 107.415 133.232L107.411 133.236ZM108.283 122.54C108.095 122.7 107.923 122.86 107.763 123.024C107.923 122.864 108.095 122.7 108.283 122.54ZM87.1473 133.156C87.0473 133.316 86.9553 133.476 86.8713 133.64C86.9593 133.476 87.0513 133.316 87.1473 133.156Z" fill="#F21F00"/>
<path d="M135.139 175.228C133.679 175.332 131.383 175.704 128.783 176.9C125.863 178.244 123.987 180.308 123.043 181.58C123.071 181.008 123.211 180.524 123.095 180.048C122.867 179.116 120.403 180.768 118.555 179.42C118.943 175.832 125.979 170.524 131.579 169.568C133.147 169.3 134.259 169.504 135.047 169.964C134.971 171.524 133.351 172.376 132.947 173.38C132.455 174.604 133.879 174.096 135.143 175.228H135.139Z" fill="#F26955"/>
<path d="M128.575 166.4C128.595 166.44 128.623 166.472 128.663 166.496C127.391 166.956 125.799 167.616 123.919 168.548C121.043 169.98 119.259 171.444 118.251 172.456C118.267 172.352 118.263 172.268 118.231 172.204C117.887 171.508 115.975 172.4 114.715 170.704C114.527 170.448 114.387 170.208 114.291 169.98C114.911 167.78 117.687 165.008 122.883 162.708C126.399 161.152 128.595 161.468 129.955 162.324C129.787 163.988 128.223 165.752 128.575 166.404V166.4Z" fill="#F26955"/>
<path d="M136.035 177.332C136.095 179.168 135.183 181.38 135.183 181.38C131.783 183.948 127.023 186.228 124.727 184.792C124.367 184.132 125.163 182.492 125.543 181.92C126.271 180.82 131.659 176.504 136.031 177.332H136.035Z" fill="#F26955"/>
<path d="M189.075 238.588L189.395 240.388L183.411 243.184L183.091 241.384L188.551 238.832L189.075 238.588Z" fill="#F21F00"/>
<path d="M155.251 217.976L147.615 223.196L127.355 185.2C127.527 184.728 127.775 184.196 128.127 183.672L128.903 182.72L129.319 182.44L130.467 181.664L131.115 181.224C131.115 181.224 131.123 181.224 131.127 181.22C131.731 180.924 132.303 180.704 132.835 180.564C133.483 180.388 134.071 180.328 134.603 180.352L155.255 217.98L155.251 217.976Z" fill="#F21F00"/>
<path d="M189.075 238.588L188.551 238.832L183.091 241.384C183.091 241.384 180.951 234.652 177.131 236.28C175.015 237.176 175.139 239.516 175.671 241.424C176.103 242.972 176.799 244.236 176.799 244.236L176.403 244.456L170.035 247.964L159.179 227.276L158.351 225.696L163.635 223.416C163.635 223.416 167.039 230.164 172.131 227.68C173.907 226.812 174.503 225.592 174.527 224.376C174.551 223.272 174.111 222.168 173.647 221.324C173.151 220.424 172.635 219.816 172.635 219.816L177.747 217.676L189.071 238.588H189.075Z" fill="#F24C33"/>
<path d="M183.091 241.384L183.411 243.184C183.411 243.184 181.271 236.452 177.451 238.08C175.979 238.708 175.591 240.032 175.671 241.428C175.139 239.516 175.015 237.18 177.131 236.284C180.951 234.66 183.091 241.388 183.091 241.388V241.384Z" fill="#F26955"/>
<path d="M176.803 244.236L177.119 246.036L170.355 249.76L158.671 227.496L159.179 227.276L170.035 247.964L176.403 244.456L176.803 244.236Z" fill="#F21F00"/>
<path d="M174.531 224.376C173.991 222.832 172.955 221.616 172.955 221.616L172.635 219.816C172.635 219.816 173.151 220.424 173.647 221.324C174.111 222.168 174.551 223.272 174.527 224.376H174.531Z" fill="#F26955"/>
<path d="M159.655 221.932C159.559 223.548 158.759 225.736 155.651 227.488C155.651 227.488 152.403 228.908 149.819 228.736C148.643 228.656 147.603 228.244 147.075 227.208C146.167 225.428 144.431 221.896 150.503 218.216C156.575 214.536 159.335 219.684 159.335 219.684C159.335 219.684 159.731 220.616 159.655 221.932Z" fill="#F21F00"/>
<path d="M159.655 221.932C159.559 223.548 158.759 225.736 155.651 227.488C155.651 227.488 152.403 228.908 149.819 228.736C149.975 227.42 150.763 224.424 154.619 223.008C156.523 222.308 158.247 222.02 159.655 221.936V221.932Z" fill="#F26955"/>
<path d="M171.687 249.524C171.687 249.524 174.015 253.472 170.259 255.236C166.499 257 165.279 253.62 165.279 253.62C165.279 253.62 151.595 228.848 151.583 228.616C151.571 228.384 152.231 226.572 154.475 225.64C156.715 224.708 158.451 224.936 158.451 224.936L171.691 249.52L171.687 249.524Z" fill="#F21F00"/>
<path d="M171.103 250.276C171.103 250.276 171.923 252.332 169.775 253.336C167.627 254.34 166.823 254.48 163.211 248.396C159.599 242.308 152.903 228.628 152.903 228.628C152.903 228.628 154.219 226.444 157.687 226.328L171.103 250.28V250.276Z" fill="#F24C33"/>
<path d="M168.347 250.64C168.347 250.64 168.863 251.212 168.147 251.632C167.431 252.052 167.427 251.552 166.975 250.884C166.523 250.216 155.083 229.696 155.083 229.696C155.083 229.696 154.743 229.176 155.303 228.828C155.863 228.48 156.183 228.88 156.507 229.528C156.831 230.176 168.343 250.644 168.343 250.644L168.347 250.64Z" fill="#FF9E8E"/>
<path d="M151.303 219.58C149.167 220.78 147.935 220.436 135.511 197.244C132.663 191.928 130.751 188.832 128.123 183.672L128.899 182.72C129.019 182.6 129.143 182.48 129.279 182.372C129.487 182.196 129.707 182.032 129.951 181.88C130.111 181.78 130.267 181.688 130.419 181.596C130.651 181.464 130.883 181.336 131.107 181.224C131.111 181.224 131.115 181.224 131.119 181.22C131.723 180.924 132.295 180.704 132.827 180.564L151.215 214.576C151.215 214.576 153.431 218.376 151.299 219.58H151.303Z" fill="#F24C33"/>
<path d="M150.819 222.672C150.223 223.008 149.483 223.052 148.875 222.736C148.363 222.468 147.963 221.996 148.423 221.184C149.343 219.56 152.315 217.576 152.943 218.572C153.515 219.48 153.291 221.284 150.815 222.672H150.819Z" fill="#F24C33"/>
<path d="M150.787 222.008C150.391 222.232 149.899 222.26 149.495 222.048C149.155 221.868 148.887 221.556 149.195 221.016C149.807 219.936 151.783 218.616 152.203 219.28C152.583 219.884 152.435 221.084 150.787 222.008Z" fill="#FF9E8E"/>
<path d="M147.815 215.296C147.111 215.796 147.071 215.2 146.563 214.4C146.087 213.656 130.791 185.196 129.315 182.44C129.303 182.416 129.291 182.392 129.279 182.372C129.487 182.196 129.707 182.032 129.951 181.88C130.111 181.78 130.267 181.688 130.419 181.596C130.435 181.616 130.447 181.64 130.459 181.664C130.507 181.752 130.555 181.848 130.603 181.948C130.979 182.72 147.943 214.112 147.943 214.112C147.943 214.112 148.511 214.796 147.807 215.296H147.815Z" fill="#FF9E8E"/>
<path d="M120.451 138.908C120.335 139.012 118.723 140.492 116.483 144.036C116.483 144.036 116.483 144.044 116.475 144.048C115.047 144.36 113.547 144.536 112.527 144.248C110.759 143.744 108.847 141.628 107.863 140.404C107.971 137.968 107.155 135.6 107.155 135.6C107.155 135.6 109.967 139.6 112.487 140.312C114.959 141.012 120.235 138.988 120.451 138.904V138.908Z" fill="#F26955"/>
<path d="M116.787 153.548C116.727 153.5 116.287 153.132 115.603 152.596C115.535 151.74 115.555 150.848 115.731 149.992C116.079 151.94 116.747 153.456 116.787 153.548Z" fill="#F26955"/>
<path d="M123.475 126.528C123.707 128.32 123.415 130.312 122.551 131.996C122.623 131.736 124.711 123.868 117.495 120.524C117.483 120.524 117.471 120.516 117.459 120.508C115.515 119.72 113.159 119.68 110.379 121.14C110.239 121.212 110.103 121.288 109.971 121.364C109.859 121.428 109.755 121.488 109.651 121.552C109.567 121.604 109.483 121.656 109.403 121.708C109.375 121.728 109.343 121.744 109.319 121.764C109.231 121.824 109.139 121.884 109.055 121.94C109.035 121.956 109.015 121.968 108.999 121.98C108.919 122.036 108.839 122.096 108.763 122.156C108.731 122.176 108.699 122.2 108.671 122.224C108.615 122.264 108.563 122.304 108.511 122.348C108.431 122.408 108.355 122.472 108.283 122.536C108.095 122.696 107.923 122.856 107.763 123.02C107.711 123.072 107.659 123.124 107.611 123.18C107.575 123.22 107.539 123.256 107.503 123.304C107.447 123.364 107.395 123.424 107.343 123.488C107.295 123.544 107.247 123.604 107.203 123.668C107.163 123.72 107.123 123.772 107.083 123.828C107.003 123.936 106.931 124.044 106.867 124.152C106.831 124.204 106.799 124.26 106.771 124.312C106.743 124.356 106.715 124.404 106.691 124.452C106.427 124.944 106.263 125.428 106.171 125.892C106.159 125.94 106.151 125.988 106.143 126.032C106.135 126.064 106.131 126.1 106.127 126.132C106.119 126.188 106.111 126.248 106.103 126.3C106.091 126.412 106.079 126.524 106.079 126.632C106.079 126.68 106.075 126.728 106.075 126.772C106.071 126.868 106.071 126.964 106.075 127.052C106.075 127.088 106.075 127.124 106.075 127.164C106.155 128.712 106.887 129.82 106.887 129.82C106.831 129.856 106.779 129.888 106.727 129.928C106.719 129.932 106.711 129.94 106.703 129.944C106.663 129.972 106.631 130 106.595 130.032C106.567 130.052 106.547 130.076 106.523 130.096C106.395 130.2 106.283 130.328 106.195 130.468C106.155 130.532 106.115 130.592 106.079 130.656C106.051 130.7 106.023 130.752 105.995 130.804C105.951 130.892 105.911 130.976 105.875 131.068C105.863 131.1 105.847 131.132 105.839 131.164C105.811 131.232 105.791 131.296 105.767 131.364C105.739 131.448 105.711 131.532 105.691 131.62C105.687 131.636 105.683 131.648 105.679 131.664C105.659 131.744 105.639 131.824 105.623 131.908C105.603 132 105.587 132.092 105.575 132.18C105.563 132.248 105.555 132.312 105.547 132.38C105.503 132.72 105.491 133.052 105.495 133.352C105.495 133.412 105.495 133.472 105.495 133.528C105.495 133.536 105.495 133.54 105.495 133.548C105.503 133.832 105.171 133.984 104.959 133.796C103.483 132.46 100.547 132.412 100.547 132.412C100.271 131.704 97.0871 127.676 90.9951 130.068C90.8391 130.132 90.6831 130.192 90.5351 130.264C90.3991 130.324 90.2671 130.388 90.1391 130.456C90.1151 130.464 90.0871 130.48 90.0631 130.496C89.9391 130.556 89.8271 130.624 89.7111 130.688C89.4511 130.84 89.2071 131.004 88.9751 131.172C88.9191 131.216 88.8591 131.256 88.8071 131.3C88.5071 131.536 88.2311 131.788 87.9871 132.048C87.9311 132.108 87.8751 132.172 87.8191 132.236C87.6911 132.38 87.5711 132.532 87.4551 132.684C87.4431 132.7 87.4311 132.716 87.4191 132.732C87.3751 132.796 87.3311 132.856 87.2911 132.916C87.2351 132.996 87.1831 133.072 87.1351 133.156C87.0351 133.316 86.9431 133.476 86.8591 133.64C86.7711 133.804 86.6911 133.968 86.6231 134.136C86.5911 134.208 86.5591 134.284 86.5271 134.36C86.5271 134.368 86.5231 134.376 86.5191 134.384C86.4871 134.464 86.4591 134.544 86.4271 134.624C86.4191 134.644 86.4151 134.66 86.4111 134.68C86.3831 134.752 86.3591 134.824 86.3391 134.896C86.3071 134.984 86.2831 135.068 86.2591 135.152C86.2351 135.236 86.2111 135.324 86.1911 135.408C86.1471 135.58 86.1071 135.752 86.0751 135.924C86.0551 136.032 86.0351 136.144 86.0191 136.252C86.0031 136.368 85.9831 136.484 85.9711 136.596C85.9551 136.712 85.9431 136.824 85.9351 136.94C85.9271 137.004 85.9231 137.068 85.9191 137.136C85.9191 137.16 85.9151 137.184 85.9151 137.212C85.9151 137.268 85.9071 137.328 85.9031 137.384C85.9031 137.46 85.8991 137.54 85.8911 137.616V137.624C85.8911 137.696 85.8911 137.772 85.8911 137.848C85.8911 138.224 85.9071 138.592 85.9391 138.944C85.9551 139.148 85.9791 139.344 86.0071 139.536C86.0191 139.636 86.0351 139.736 86.0511 139.828C85.8871 139.508 85.7631 139.204 85.6671 138.936C84.7511 136.324 84.1031 129.824 90.1911 127.436C96.2791 125.048 99.4631 129.076 99.7431 129.78C99.7431 129.78 102.975 129.836 104.363 131.376C104.487 131.512 104.715 131.412 104.703 131.228C104.631 130.076 104.715 128.02 106.075 127.2C106.075 127.2 102.727 122.112 109.563 118.516C113.703 116.336 116.907 117.496 119.215 119.496C120.715 120.8 121.839 122.456 122.595 123.784C123.047 124.58 123.343 125.528 123.471 126.532L123.475 126.528Z" fill="#F26955"/>
<path d="M36.6106 121.18C36.4706 121.624 36.2786 121.928 36.0346 122.088C35.7866 122.248 35.4786 122.272 35.1026 122.152C34.7346 122.036 34.4946 121.84 34.3786 121.564C34.2666 121.288 34.2786 120.928 34.4146 120.492C34.6906 119.616 35.1946 119.292 35.9226 119.52C36.2986 119.636 36.5426 119.832 36.6506 120.104C36.7626 120.376 36.7466 120.736 36.6066 121.18H36.6106Z" fill="#F44E22"/>
<path d="M41.6344 110.668C41.3944 110.472 41.1304 110.292 40.8464 110.128C40.5624 109.968 40.2744 109.836 39.9784 109.728C40.2824 109.68 40.6304 109.52 41.0224 109.252C41.4144 108.984 41.7984 108.652 42.1664 108.256C42.5344 107.86 42.8384 107.456 43.0704 107.044C43.2664 106.7 43.4024 106.38 43.4864 106.08C43.5704 105.78 43.5864 105.516 43.5384 105.3C43.4904 105.08 43.3744 104.92 43.1984 104.82C42.8504 104.624 42.4464 104.732 41.9864 105.152C41.5264 105.568 41.0744 106.16 40.6224 106.924C40.1744 107.688 39.7744 108.492 39.4304 109.328C38.8704 108.948 38.2704 108.576 37.6264 108.212C36.9824 107.848 36.3544 107.52 35.7424 107.236C36.4144 106.148 37.0544 105.064 37.6624 103.996C38.2704 102.928 38.8664 101.824 39.4584 100.688C39.7504 100.916 40.0544 101.116 40.3664 101.296C40.6784 101.472 40.9384 101.592 41.1464 101.644C40.5784 102.296 40.0304 103.012 39.4984 103.796C38.9704 104.58 38.4544 105.412 37.9544 106.296C38.1544 106.448 38.4144 106.616 38.7424 106.8C39.0704 106.984 39.3744 107.14 39.6504 107.256C39.8904 106.32 40.2424 105.444 40.7064 104.632C41.1704 103.82 41.7104 103.232 42.3264 102.868C42.9424 102.504 43.5824 102.512 44.2424 102.884C44.9544 103.288 45.2864 103.928 45.2384 104.8C45.1904 105.672 44.8704 106.62 44.2904 107.648C43.9184 108.304 43.4864 108.92 42.9904 109.496C42.4944 110.072 42.0384 110.464 41.6264 110.664L41.6344 110.668Z" fill="#F44E22"/>
<path d="M49.8103 99.3479C49.2983 100.016 48.7263 100.504 48.0943 100.82C47.4623 101.136 46.8023 101.248 46.1223 101.168C45.4423 101.088 44.7743 100.8 44.1223 100.3C43.4863 99.8119 43.0423 99.2519 42.7903 98.6199C42.5383 97.9879 42.4783 97.3239 42.6183 96.6319C42.7583 95.9399 43.0823 95.2599 43.5903 94.5919C44.0983 93.9279 44.6663 93.4399 45.2943 93.1279C45.9223 92.8159 46.5783 92.6959 47.2583 92.7719C47.9383 92.8519 48.5943 93.1319 49.2303 93.6199C49.8823 94.1199 50.3343 94.6839 50.5903 95.3199C50.8463 95.9559 50.9063 96.6199 50.7743 97.3119C50.6423 98.0039 50.3183 98.6799 49.8063 99.3479H49.8103ZM48.7503 98.5639C49.0063 98.2319 49.1463 97.8839 49.1663 97.5239C49.1903 97.1639 49.0983 96.8039 48.8903 96.4439C48.6823 96.0839 48.3663 95.7439 47.9423 95.4159C47.5263 95.0959 47.1183 94.8839 46.7183 94.7839C46.3223 94.6839 45.9543 94.6919 45.6143 94.8079C45.2743 94.9239 44.9743 95.1479 44.7183 95.4839C44.4663 95.8119 44.3303 96.1559 44.3103 96.5119C44.2903 96.8679 44.3823 97.2239 44.5863 97.5759C44.7903 97.9279 45.1023 98.2679 45.5183 98.5839C45.9423 98.9079 46.3543 99.1239 46.7543 99.2319C47.1543 99.3399 47.5223 99.3359 47.8623 99.2239C48.2023 99.1079 48.4943 98.8879 48.7463 98.5599L48.7503 98.5639Z" fill="#F44E22"/>
<path d="M55.5542 92.4679C55.1302 91.9519 54.4942 91.2599 53.6502 90.3919C52.8062 89.5239 52.0142 88.7399 51.2742 88.0359C50.7662 88.5559 50.3422 89.0239 49.9982 89.4439C49.6582 89.8599 49.3462 90.2799 49.0662 90.6959C48.9062 90.4599 48.7302 90.2399 48.5342 90.0439C48.3382 89.8439 48.1222 89.6639 47.8862 89.5039C49.1342 88.3359 50.2222 87.2959 51.1502 86.3759C52.0782 85.4559 53.1342 84.3799 54.3182 83.1479C54.4822 83.3799 54.6622 83.5959 54.8582 83.7959C55.0542 83.9959 55.2702 84.1799 55.4982 84.3439C55.0702 84.6239 54.6462 84.9359 54.2222 85.2719C53.7982 85.6119 53.3222 86.0359 52.7902 86.5399C53.4942 87.2999 54.2742 88.0999 55.1382 88.9439C56.0022 89.7879 56.6862 90.4239 57.1902 90.8519L55.5542 92.4679Z" fill="#F44E22"/>
<path d="M60.9586 87.3238C60.5066 86.5798 59.7946 85.5518 58.8306 84.2318C57.8666 82.9158 57.0986 81.9278 56.5266 81.2718C56.8666 81.0958 57.1866 80.9038 57.4786 80.6918C57.7706 80.4798 58.0386 80.2478 58.2786 79.9878C58.7426 80.7478 59.4626 81.7838 60.4346 83.0998C61.4066 84.4158 62.1746 85.3878 62.7346 86.0198L60.9586 87.3198V87.3238ZM59.2506 83.2678C60.2146 82.7118 61.2066 82.0598 62.2266 81.3118C63.2466 80.5638 64.1826 79.8038 65.0386 79.0318L65.9786 80.3158C64.9906 80.8838 63.9866 81.5398 62.9706 82.2838C61.9546 83.0278 61.0306 83.7838 60.1946 84.5518L59.2546 83.2678H59.2506ZM66.3306 83.3878C65.8786 82.6438 65.1666 81.6158 64.2026 80.2958C63.2386 78.9798 62.4706 77.9918 61.8986 77.3358C62.2426 77.1598 62.5586 76.9678 62.8506 76.7558C63.1426 76.5438 63.4106 76.3118 63.6506 76.0518C64.1146 76.8118 64.8346 77.8478 65.8066 79.1638C66.7786 80.4798 67.5466 81.4518 68.1066 82.0838L66.3306 83.3838V83.3878Z" fill="#F44E22"/>
<path d="M73.1865 79.0638C73.2065 78.4198 73.2145 77.7438 73.2185 77.0318C73.2185 76.3198 73.2185 75.6238 73.2145 74.9398C73.1945 73.4878 73.1545 72.1359 73.0945 70.8839C73.5505 70.7439 74.1025 70.5358 74.7425 70.2558C75.3825 69.9758 75.8705 69.7238 76.1985 69.4958C77.2305 70.4958 78.2185 71.4198 79.1625 72.2758C79.9665 73.0118 80.9985 73.9199 82.2545 74.9999L79.9905 76.0119C79.5225 75.4919 78.9505 74.8918 78.2665 74.2198C77.5465 73.5038 76.8785 72.8638 76.2705 72.2918C75.6585 71.7198 75.2385 71.3558 75.0065 71.1958L75.0705 71.1678C75.0305 71.5518 75.0545 72.6998 75.1465 74.6158C75.1785 75.2238 75.2105 75.8239 75.2465 76.4119C75.2825 77.0039 75.3145 77.5599 75.3465 78.0879L73.1825 79.0558L73.1865 79.0638ZM74.9945 75.3198C75.4865 75.1278 76.0345 74.8959 76.6425 74.6239C77.2505 74.3519 77.7905 74.0958 78.2585 73.8558L79.1385 74.8198C78.5385 75.0598 77.8425 75.3558 77.0545 75.7078C76.2665 76.0598 75.5825 76.3839 75.0025 76.6719L74.9865 75.3198H74.9945Z" fill="#F44E22"/>
<path d="M83.9542 74.428C83.6782 73.204 83.3782 71.988 83.0542 70.78C82.7302 69.572 82.3782 68.376 82.0022 67.184C82.4222 67.128 82.9182 67.02 83.4982 66.868C84.0742 66.716 84.5342 66.56 84.8822 66.408C85.5622 67.012 86.2542 67.608 86.9542 68.196C87.6542 68.784 88.3702 69.364 89.0942 69.932C89.4462 70.212 89.7982 70.484 90.1502 70.756C90.5022 71.028 90.8582 71.296 91.2142 71.568L90.6462 71.888C90.3902 70.788 90.1062 69.692 89.7902 68.596C89.6422 68.072 89.4822 67.532 89.3182 66.984C89.1542 66.436 88.9822 65.892 88.8022 65.352C89.1862 65.312 89.5502 65.244 89.8982 65.156C90.2462 65.068 90.5742 64.944 90.8782 64.792C91.0222 65.404 91.1702 66.008 91.3222 66.616C91.4742 67.22 91.6342 67.828 91.7982 68.44C92.1222 69.636 92.4742 70.832 92.8582 72.028L90.0502 72.784C89.5342 72.336 89.0182 71.896 88.4942 71.468C87.9702 71.04 87.4462 70.616 86.9182 70.2C85.8662 69.364 84.7742 68.544 83.6542 67.736L84.2222 67.416C84.4782 68.488 84.7582 69.56 85.0662 70.632C85.3742 71.704 85.7062 72.78 86.0662 73.856L83.9622 74.424L83.9542 74.428Z" fill="#F44E22"/>
<path d="M95.3424 71.5719C95.2664 70.3199 95.1664 69.0719 95.0384 67.8279C94.9104 66.5839 94.7584 65.3439 94.5784 64.1119C95.0024 64.1239 95.5104 64.0999 96.1024 64.0399C96.6984 63.9839 97.1744 63.9039 97.5424 63.8079C98.1184 64.5119 98.7024 65.2119 99.2984 65.9039C99.8944 66.5959 100.506 67.2839 101.134 67.9639C101.434 68.2959 101.738 68.6239 102.042 68.9479C102.346 69.2719 102.654 69.5959 102.962 69.9199L102.35 70.1439C102.274 69.0199 102.17 67.8919 102.034 66.7599C101.97 66.2159 101.902 65.6599 101.826 65.0919C101.75 64.5239 101.67 63.9599 101.578 63.3999C101.962 63.4199 102.334 63.4159 102.694 63.3799C103.054 63.3479 103.394 63.2799 103.718 63.1799C103.762 63.8039 103.81 64.4279 103.866 65.0479C103.918 65.6679 103.978 66.2959 104.042 66.9239C104.17 68.1559 104.326 69.3959 104.514 70.6359L101.618 70.9319C101.182 70.4079 100.742 69.8919 100.294 69.3839C99.8464 68.8759 99.3984 68.3759 98.9424 67.8799C98.0344 66.8879 97.0944 65.8999 96.1144 64.9239L96.7264 64.6999C96.8064 65.7959 96.9104 66.8999 97.0424 68.0119C97.1744 69.1239 97.3304 70.2359 97.5104 71.3559L95.3424 71.5799V71.5719Z" fill="#F44E22"/>
<path d="M107.127 70.708C107.211 69.844 107.259 68.592 107.279 66.96C107.299 65.328 107.275 64.076 107.211 63.208C107.611 63.272 107.999 63.308 108.375 63.316C108.751 63.324 109.119 63.296 109.479 63.232C109.395 64.116 109.347 65.38 109.335 67.016C109.323 68.652 109.351 69.892 109.423 70.732L107.123 70.708H107.127Z" fill="#F44E22"/>
<path d="M121.663 64.3359C120.939 65.4719 120.271 66.5759 119.667 67.6439C119.063 68.7119 118.379 69.9679 117.619 71.4079L114.443 71.0319C114.335 70.5839 114.227 70.1399 114.123 69.6999C114.019 69.2599 113.907 68.8279 113.791 68.3959C113.351 66.7799 112.819 65.0519 112.191 63.2119C112.595 63.3079 112.987 63.3759 113.359 63.4199C113.731 63.4639 114.127 63.4879 114.543 63.4879C114.703 64.2799 114.943 65.3119 115.263 66.5839C115.483 67.4279 115.691 68.1839 115.887 68.8439C116.079 69.5039 116.227 69.9479 116.327 70.1759L116.079 70.1479C116.311 69.8279 116.779 69.0239 117.479 67.7399C118.179 66.4559 118.827 65.2319 119.431 64.0679C119.815 64.1599 120.187 64.2279 120.539 64.2719C120.891 64.3119 121.267 64.3359 121.663 64.3359Z" fill="#F44E22"/>
<path d="M122.539 72.1799C122.835 71.3639 123.199 70.168 123.627 68.588C124.055 67.008 124.347 65.7959 124.503 64.9399C124.731 65.0359 125.203 65.1919 125.911 65.4079C126.619 65.6239 127.383 65.8479 128.207 66.0759C129.151 66.3399 130.007 66.5679 130.779 66.7599C131.547 66.9519 132.127 67.0799 132.519 67.1439C132.415 67.4279 132.323 67.7119 132.243 68.0079C132.163 68.2999 132.099 68.5959 132.043 68.8919C131.787 68.7399 131.431 68.5679 130.975 68.3759C130.519 68.1839 129.999 67.9839 129.411 67.7759C128.835 67.5799 128.271 67.392 127.723 67.224C127.171 67.052 126.687 66.9159 126.267 66.8079C126.175 67.0999 126.083 67.392 125.999 67.688C125.911 67.98 125.831 68.2759 125.759 68.5759C126.595 68.8239 127.527 69.0679 128.555 69.3079C129.583 69.5479 130.419 69.7239 131.063 69.8399C130.975 70.0639 130.895 70.3039 130.827 70.5519C130.759 70.8039 130.707 71.048 130.671 71.288C130.043 71.06 129.223 70.796 128.215 70.488C127.207 70.18 126.283 69.9279 125.447 69.7279C125.267 70.3959 125.127 70.9759 125.027 71.4679C125.483 71.5999 125.991 71.7319 126.559 71.8639C127.127 71.9959 127.683 72.1119 128.235 72.2159C128.811 72.3319 129.347 72.42 129.847 72.488C130.343 72.556 130.743 72.588 131.047 72.588C130.943 72.872 130.851 73.1639 130.767 73.4639C130.683 73.7679 130.619 74.0639 130.563 74.3639L122.543 72.188L122.539 72.1799Z" fill="#F44E22"/>
<path d="M132.718 75.1199C133.134 74.3559 133.67 73.2279 134.33 71.7319C134.99 70.2359 135.458 69.0799 135.742 68.2559C136.198 68.4639 136.622 68.6559 137.014 68.8279C137.406 68.9999 137.79 69.1639 138.162 69.3119C138.422 69.4119 138.69 69.5199 138.958 69.6359C139.226 69.7519 139.514 69.8759 139.81 70.0079C141.154 70.5999 142.07 71.1999 142.558 71.8159C143.05 72.4279 143.146 73.0759 142.842 73.7599C142.614 74.2799 142.266 74.6159 141.798 74.7759C141.33 74.9359 140.85 74.9759 140.362 74.9039C139.87 74.8279 139.442 74.7119 139.074 74.5519L139.01 74.6999C139.774 75.2199 140.286 75.8519 140.554 76.5999C140.822 77.3479 140.966 78.0719 140.986 78.7719L138.358 77.6159C138.546 77.0359 138.622 76.5319 138.578 76.0999C138.534 75.6679 138.37 75.2839 138.082 74.9439C137.794 74.6039 137.37 74.2759 136.802 73.9599C136.662 73.8759 136.506 73.7919 136.33 73.7079C136.154 73.6239 135.974 73.5399 135.79 73.4599C135.422 74.3599 135.214 74.8759 135.166 74.9999C135.09 75.1839 135.026 75.3639 134.966 75.5359C134.91 75.7079 134.85 75.8759 134.79 76.0479L132.714 75.1319L132.718 75.1199ZM136.286 72.3119L136.706 72.5279C136.934 72.6439 137.174 72.7639 137.434 72.8919C137.694 73.0199 137.95 73.1399 138.21 73.2559C138.662 73.4559 139.058 73.5839 139.398 73.6359C139.738 73.6919 140.022 73.6719 140.25 73.5799C140.478 73.4879 140.642 73.3199 140.75 73.0759C140.902 72.7279 140.842 72.3999 140.566 72.0879C140.29 71.7759 139.838 71.4839 139.21 71.2079C138.978 71.1039 138.746 71.0079 138.518 70.9079C138.286 70.8119 138.066 70.7199 137.854 70.6439L137.19 70.3639C137.042 70.6639 136.894 70.9759 136.746 71.2999C136.598 71.6239 136.442 71.9639 136.286 72.3159V72.3119Z" fill="#F44E22"/>
<path d="M146.618 82.3559C145.898 81.8959 145.23 81.3759 144.618 80.7959C144.002 80.2159 143.474 79.6319 143.034 79.0519C143.258 78.7999 143.458 78.5359 143.638 78.2559C143.814 77.9759 143.97 77.6879 144.102 77.3839C144.234 78.0199 144.63 78.6919 145.29 79.3999C145.95 80.1079 146.706 80.7279 147.554 81.2719C148.094 81.6159 148.522 81.8079 148.838 81.8439C149.154 81.8799 149.39 81.7759 149.546 81.5359C149.678 81.3279 149.702 81.1239 149.614 80.9279C149.526 80.7279 149.338 80.4999 149.05 80.2399C148.762 79.9799 148.27 79.5879 147.578 79.0599C146.874 78.5159 146.326 78.0279 145.934 77.5999C145.542 77.1719 145.298 76.7559 145.202 76.3519C145.106 75.9479 145.186 75.5399 145.45 75.1279C145.862 74.4799 146.458 74.1799 147.238 74.2279C148.018 74.2759 148.994 74.6719 150.17 75.4239C150.81 75.8319 151.362 76.2279 151.818 76.6039C152.274 76.9839 152.73 77.4039 153.178 77.8639C153.446 78.1279 153.61 78.2959 153.674 78.3719C153.53 78.5359 153.398 78.7039 153.27 78.8839C153.142 79.0639 153.026 79.2519 152.918 79.4439C152.874 79.5279 152.83 79.6079 152.79 79.6919C152.746 79.7759 152.706 79.8599 152.67 79.9479C152.258 79.3159 151.782 78.7119 151.242 78.1359C150.702 77.5599 150.07 77.0439 149.35 76.5839C148.786 76.2239 148.346 76.0199 148.026 75.9719C147.706 75.9239 147.47 76.0159 147.318 76.2519C147.194 76.4479 147.162 76.6479 147.23 76.8559C147.298 77.0599 147.466 77.2919 147.738 77.5559C148.01 77.8159 148.418 78.1519 148.954 78.5599C149.114 78.6799 149.234 78.7719 149.31 78.8359C150.002 79.3719 150.542 79.8519 150.926 80.2759C151.31 80.6999 151.542 81.1119 151.63 81.5159C151.718 81.9199 151.63 82.3239 151.374 82.7279C150.966 83.3679 150.37 83.6599 149.582 83.6039C148.798 83.5439 147.81 83.1359 146.618 82.3759V82.3559Z" fill="#F44E22"/>
<path d="M151.334 85.3038C151.926 85.0518 152.546 84.7758 153.19 84.4798C153.838 84.1838 154.47 83.8918 155.086 83.5998C156.394 82.9718 157.606 82.3678 158.718 81.7878C159.034 82.1438 159.454 82.5558 159.978 83.0198C160.502 83.4838 160.934 83.8198 161.282 84.0198C160.81 85.3758 160.382 86.6598 160.002 87.8798C159.67 88.9198 159.282 90.2358 158.83 91.8318L156.958 90.2038C157.234 89.5598 157.538 88.7878 157.862 87.8878C158.206 86.9318 158.51 86.0598 158.774 85.2678C159.034 84.4758 159.19 83.9398 159.238 83.6638L159.29 83.7118C158.926 83.8358 157.89 84.3438 156.19 85.2278C155.65 85.5118 155.122 85.7918 154.602 86.0718C154.082 86.3518 153.586 86.6158 153.122 86.8638L151.334 85.3078V85.3038ZM155.494 85.3718C155.874 85.7398 156.314 86.1398 156.818 86.5798C157.322 87.0158 157.778 87.3998 158.194 87.7238L157.69 88.9278C157.218 88.4838 156.658 87.9758 156.006 87.4078C155.354 86.8398 154.778 86.3558 154.27 85.9518L155.49 85.3718H155.494Z" fill="#F44E22"/>
<path d="M160.055 93.1478C160.763 92.6438 161.739 91.8638 162.987 90.8078C164.231 89.7518 165.163 88.9158 165.775 88.2998C166.095 88.6838 166.391 89.0438 166.671 89.3718C166.951 89.6998 167.223 90.0118 167.491 90.3078C167.683 90.5118 167.875 90.7238 168.067 90.9478C168.259 91.1678 168.459 91.4038 168.671 91.6518C169.619 92.7718 170.179 93.7118 170.355 94.4798C170.527 95.2478 170.331 95.8718 169.763 96.3558C169.331 96.7238 168.871 96.8758 168.379 96.8118C167.891 96.7518 167.439 96.5798 167.031 96.2958C166.623 96.0118 166.287 95.7198 166.027 95.4158L165.903 95.5198C166.363 96.3198 166.547 97.1118 166.463 97.9038C166.375 98.6918 166.187 99.4078 165.899 100.048L164.043 97.8598C164.467 97.4238 164.755 96.9998 164.903 96.5918C165.051 96.1838 165.071 95.7638 164.963 95.3358C164.855 94.9038 164.611 94.4198 164.243 93.8878C164.155 93.7518 164.051 93.6078 163.927 93.4558C163.803 93.2998 163.679 93.1478 163.551 92.9958C162.827 93.6438 162.415 94.0158 162.319 94.1078C162.171 94.2438 162.035 94.3758 161.907 94.5038C161.779 94.6318 161.655 94.7598 161.523 94.8878L160.055 93.1558V93.1478ZM164.491 92.1758L164.771 92.5518C164.923 92.7518 165.091 92.9678 165.267 93.1998C165.443 93.4318 165.623 93.6518 165.803 93.8638C166.123 94.2398 166.423 94.5278 166.703 94.7238C166.983 94.9238 167.247 95.0278 167.491 95.0438C167.735 95.0598 167.959 94.9798 168.163 94.8078C168.451 94.5638 168.543 94.2398 168.431 93.8398C168.319 93.4398 168.043 92.9798 167.599 92.4558C167.435 92.2638 167.271 92.0718 167.107 91.8838C166.943 91.6958 166.783 91.5198 166.627 91.3558L166.155 90.8118C165.891 91.0158 165.623 91.2318 165.347 91.4598C165.071 91.6838 164.783 91.9238 164.491 92.1718V92.1758Z" fill="#F44E22"/>
<path d="M168.183 103.572C168.595 103.376 168.991 103.156 169.371 102.912C169.751 102.672 170.115 102.408 170.463 102.124C170.799 101.272 171.147 100.308 171.515 99.2279C171.867 98.2239 172.179 97.2559 172.463 96.3159C172.643 96.7159 172.859 97.1119 173.111 97.5159C173.363 97.9159 173.599 98.2279 173.819 98.4519C173.531 99.0439 173.215 99.7319 172.867 100.516C172.519 101.344 172.235 102.04 172.023 102.604L171.855 102.344C172.651 102.408 173.399 102.444 174.095 102.46C174.823 102.488 175.579 102.492 176.367 102.476C176.475 102.772 176.651 103.108 176.895 103.484C177.139 103.864 177.403 104.216 177.687 104.552C176.747 104.416 175.735 104.288 174.651 104.172C174.143 104.116 173.631 104.064 173.119 104.02C172.607 103.972 172.095 103.932 171.583 103.896C171.187 104.092 170.799 104.312 170.419 104.552C170.039 104.792 169.667 105.06 169.311 105.352L168.187 103.58L168.183 103.572Z" fill="#F44E22"/>
<path d="M175.487 113.936C175.303 113.508 175.251 113.152 175.331 112.872C175.411 112.588 175.635 112.372 175.995 112.216C176.351 112.064 176.659 112.052 176.927 112.188C177.191 112.324 177.415 112.604 177.599 113.024C177.963 113.868 177.795 114.444 177.091 114.748C176.731 114.904 176.419 114.916 176.159 114.78C175.899 114.644 175.675 114.364 175.491 113.936H175.487Z" fill="#F44E22"/>
<path d="M28.5862 137.484C28.6662 136.42 28.8862 135.516 29.2502 134.776C29.6142 134.032 30.1062 133.48 30.7262 133.12C31.3462 132.756 32.0662 132.608 32.8902 132.668C33.7142 132.728 34.4062 132.984 34.9662 133.432C35.5262 133.88 35.9302 134.5 36.1862 135.284C36.4382 136.072 36.5262 136.996 36.4502 138.06C36.3742 139.124 36.1502 140.028 35.7862 140.768C35.4222 141.512 34.9302 142.06 34.3102 142.42C33.6942 142.78 32.9702 142.928 32.1462 142.868C31.3222 142.808 30.6302 142.556 30.0702 142.108C29.5102 141.664 29.1062 141.048 28.8502 140.26C28.5982 139.472 28.5102 138.548 28.5862 137.484ZM29.9102 137.58C29.8622 138.212 29.9262 138.76 30.0902 139.228C30.2542 139.696 30.5222 140.06 30.8862 140.328C31.2502 140.596 31.7022 140.748 32.2422 140.788C32.7942 140.828 33.2782 140.744 33.6902 140.532C34.1022 140.32 34.4302 140 34.6742 139.56C34.9142 139.124 35.0622 138.588 35.1062 137.956C35.1542 137.316 35.0862 136.768 34.9102 136.304C34.7342 135.84 34.4582 135.476 34.0782 135.212C33.6982 134.948 33.2342 134.796 32.6822 134.756C32.1422 134.716 31.6742 134.8 31.2742 135.008C30.8742 135.216 30.5582 135.536 30.3262 135.972C30.0942 136.408 29.9542 136.944 29.9062 137.58H29.9102Z" fill="#F44E22"/>
<path d="M28.4985 145.652C29.3665 145.66 30.6185 145.604 32.2465 145.48C33.8745 145.356 35.1185 145.228 35.9785 145.088C35.9545 145.392 35.9705 146.072 36.0225 147.136C36.0745 148.2 36.1505 149.288 36.2505 150.408C36.3465 151.528 36.4425 152.352 36.5385 152.88C36.2385 152.88 35.9345 152.884 35.6345 152.908C35.3305 152.932 35.0305 152.968 34.7345 153.016C34.8505 152.432 34.9145 151.568 34.9185 150.42C34.9265 149.272 34.8905 148.256 34.8105 147.376C34.4705 147.38 34.1225 147.396 33.7705 147.42C33.4185 147.444 33.0545 147.476 32.6745 147.516C32.7145 148.296 32.7865 149.144 32.8905 150.06C32.9945 150.976 33.1065 151.768 33.2145 152.428C32.9745 152.42 32.7225 152.428 32.4625 152.444C32.2025 152.464 31.9545 152.496 31.7185 152.54C31.7185 151.856 31.7025 151.056 31.6625 150.136C31.6225 149.216 31.5665 148.372 31.4865 147.604C30.3505 147.688 29.4145 147.824 28.6785 148.008L28.5025 145.656L28.4985 145.652Z" fill="#F44E22"/>
<path d="M31.0544 163.164C31.7144 163.044 32.6264 162.832 33.7984 162.52C34.9664 162.208 36.0384 161.904 37.0144 161.6C36.8104 160.904 36.6104 160.304 36.4104 159.8C36.2144 159.296 36.0025 158.82 35.7745 158.372C36.0585 158.348 36.3344 158.3 36.6064 158.228C36.8744 158.152 37.1384 158.056 37.3944 157.928C37.8024 159.588 38.1784 161.044 38.5224 162.304C38.8664 163.564 39.2905 165.012 39.7865 166.644C39.5024 166.672 39.2264 166.724 38.9584 166.8C38.6864 166.876 38.4224 166.972 38.1664 167.088C38.1304 166.58 38.0704 166.056 37.9824 165.52C37.8944 164.984 37.7584 164.36 37.5784 163.652C36.5744 163.892 35.4904 164.184 34.3344 164.52C33.1784 164.856 32.2864 165.144 31.6664 165.376L31.0584 163.16L31.0544 163.164Z" fill="#F44E22"/>
<path d="M33.4744 171.192C34.2984 170.908 35.4544 170.436 36.9464 169.776C38.4384 169.116 39.5664 168.576 40.3304 168.156C40.4304 168.528 40.5504 168.88 40.6944 169.208C40.8384 169.54 41.0104 169.848 41.2104 170.14C40.3704 170.432 39.2024 170.912 37.7104 171.58C36.2144 172.248 35.1024 172.788 34.3664 173.204L33.4744 171.192ZM36.1704 177.284C36.9944 177 38.1504 176.528 39.6424 175.868C41.1344 175.208 42.2624 174.668 43.0264 174.252C43.1264 174.624 43.2464 174.976 43.3904 175.304C43.5344 175.636 43.7064 175.944 43.9064 176.236C43.0664 176.528 41.8984 177.008 40.4064 177.676C38.9104 178.344 37.7984 178.884 37.0624 179.3L36.1704 177.288V177.284ZM37.8024 170.392C38.1384 171.452 38.5664 172.56 39.0744 173.716C39.5864 174.872 40.1264 175.948 40.7024 176.948L39.2464 177.592C38.9024 176.504 38.4784 175.384 37.9664 174.232C37.4544 173.08 36.9144 172.016 36.3424 171.036L37.7944 170.392H37.8024Z" fill="#F44E22"/>
<path d="M38.7383 182.352C39.5063 181.948 40.5823 181.304 41.9583 180.424C43.3343 179.544 44.3663 178.84 45.0583 178.312C45.1623 178.536 45.4063 178.968 45.7823 179.604C46.1623 180.24 46.5783 180.92 47.0303 181.64C47.5543 182.468 48.0343 183.212 48.4743 183.872C48.9143 184.532 49.2583 185.016 49.5063 185.328C49.2383 185.468 48.9783 185.62 48.7223 185.78C48.4663 185.944 48.2183 186.116 47.9823 186.3C47.8943 186.016 47.7503 185.648 47.5383 185.2C47.3303 184.752 47.0783 184.252 46.7863 183.704C46.4943 183.172 46.1983 182.656 45.9063 182.16C45.6103 181.664 45.3463 181.236 45.1063 180.872C44.8423 181.024 44.5783 181.184 44.3143 181.34C44.0503 181.5 43.7943 181.664 43.5383 181.836C43.9903 182.584 44.5183 183.388 45.1143 184.256C45.7143 185.124 46.2143 185.816 46.6143 186.336C46.3983 186.444 46.1783 186.568 45.9623 186.708C45.7423 186.848 45.5383 186.992 45.3503 187.144C45.0343 186.552 44.6103 185.804 44.0703 184.9C43.5303 183.996 43.0183 183.188 42.5343 182.476C41.9503 182.848 41.4543 183.184 41.0543 183.48C41.3023 183.884 41.5943 184.324 41.9223 184.8C42.2503 185.276 42.5863 185.74 42.9263 186.188C43.2743 186.66 43.6143 187.088 43.9383 187.472C44.2623 187.856 44.5383 188.148 44.7623 188.352C44.4943 188.492 44.2303 188.644 43.9663 188.812C43.7023 188.98 43.4503 189.156 43.2143 189.34L38.7383 182.336V182.352Z" fill="#F44E22"/>
<path d="M51.2743 198.94C50.4943 198.152 49.9463 197.368 49.6223 196.588C49.2983 195.804 49.2063 195.064 49.3463 194.36C49.4823 193.656 49.8383 193.024 50.4063 192.46C51.0023 191.868 51.6583 191.52 52.3743 191.412C53.0903 191.304 53.8343 191.432 54.6103 191.796C55.3863 192.16 56.1663 192.736 56.9463 193.528C57.4663 194.056 57.9703 194.66 58.4623 195.34C58.9543 196.02 59.3503 196.732 59.6503 197.476C59.3423 197.704 59.0743 197.932 58.8423 198.16C58.6103 198.388 58.4263 198.604 58.2823 198.812C58.1263 198.076 57.8423 197.332 57.4343 196.584C57.0263 195.836 56.5183 195.152 55.9143 194.544C55.4423 194.064 54.9623 193.72 54.4743 193.512C53.9863 193.304 53.5223 193.24 53.0743 193.312C52.6263 193.388 52.2263 193.6 51.8703 193.952C51.5143 194.304 51.2903 194.7 51.1903 195.144C51.0903 195.588 51.1343 196.048 51.3183 196.532C51.4983 197.012 51.8183 197.484 52.2703 197.944C52.6783 198.356 53.1583 198.696 53.7103 198.968C54.2623 199.236 54.8663 199.32 55.5223 199.216C55.3383 199.032 55.1543 198.848 54.9663 198.66C54.7783 198.476 54.5903 198.296 54.4023 198.128C54.0383 197.776 53.6983 197.468 53.3823 197.196C53.0663 196.924 52.8183 196.728 52.6303 196.604C52.8303 196.472 53.0343 196.296 53.2503 196.068C53.4663 195.84 53.6583 195.608 53.8223 195.368C54.4263 196.044 55.0783 196.74 55.7783 197.448C56.4783 198.156 57.1463 198.8 57.7783 199.372C57.5223 199.56 57.2463 199.8 56.9503 200.092C56.6543 200.384 56.3983 200.672 56.1783 200.956C55.4103 201.116 54.5783 201.008 53.6903 200.632C52.8023 200.256 51.9903 199.692 51.2543 198.948L51.2743 198.94Z" fill="#F44E22"/>
<path d="M57.2102 204.164C57.8102 203.532 58.6182 202.58 59.6422 201.308C60.6622 200.032 61.4182 199.036 61.9022 198.312C62.1782 198.608 62.4622 198.876 62.7502 199.116C63.0422 199.356 63.3502 199.56 63.6702 199.732C63.0582 200.376 62.2422 201.34 61.2262 202.624C60.2062 203.904 59.4662 204.9 59.0062 205.604L57.2102 204.164Z" fill="#F44E22"/>
<path d="M61.5826 207.652C62.1106 206.96 62.8106 205.924 63.6866 204.548C64.5626 203.168 65.2026 202.096 65.6026 201.324C65.8546 201.484 66.1146 201.648 66.3746 201.808C66.6346 201.968 66.8986 202.132 67.1666 202.292C67.5146 202.504 67.8786 202.732 68.2666 202.972C68.6546 203.216 69.0706 203.48 69.5226 203.764C70.5866 204.44 71.3066 205.076 71.6826 205.676C72.0586 206.276 72.0746 206.852 71.7226 207.4C71.4186 207.88 71.0066 208.108 70.4866 208.088C69.9666 208.068 69.3786 207.868 68.7306 207.488L68.6506 207.616C69.3946 208.112 69.9066 208.628 70.1866 209.168C70.4706 209.708 70.4466 210.236 70.1146 210.752C69.8186 211.22 69.4026 211.464 68.8746 211.484C68.3426 211.508 67.7826 211.392 67.1986 211.136C66.6146 210.884 66.0066 210.556 65.3746 210.156C64.9066 209.86 64.4746 209.576 64.0746 209.312C63.6746 209.044 63.3186 208.804 63.0066 208.592C62.7746 208.436 62.5426 208.28 62.3066 208.124C62.0746 207.968 61.8306 207.808 61.5786 207.648L61.5826 207.652ZM65.0266 206.204C64.8746 206.444 64.7186 206.692 64.5706 206.944C64.4186 207.196 64.2746 207.436 64.1466 207.668C64.4266 207.86 64.7226 208.064 65.0386 208.268C65.3506 208.476 65.7426 208.728 66.2106 209.024C66.8066 209.404 67.2746 209.592 67.6106 209.592C67.9466 209.592 68.1946 209.468 68.3506 209.22C68.4786 209.016 68.4626 208.78 68.2946 208.504C68.1306 208.228 67.7506 207.904 67.1626 207.528C66.7866 207.288 66.4186 207.056 66.0626 206.836C65.7066 206.612 65.3626 206.4 65.0346 206.2L65.0266 206.204ZM65.6546 205.196C65.9786 205.42 66.3186 205.644 66.6706 205.872C67.0226 206.1 67.3866 206.336 67.7666 206.572C68.2146 206.856 68.5986 207.004 68.9066 207.012C69.2186 207.02 69.4626 206.888 69.6346 206.612C69.8186 206.324 69.8346 206.048 69.6866 205.78C69.5386 205.512 69.2426 205.236 68.7906 204.952C68.3186 204.652 67.8866 204.38 67.4986 204.136C67.1066 203.892 66.8346 203.724 66.6786 203.632C66.5146 203.868 66.3426 204.116 66.1706 204.376C65.9986 204.636 65.8226 204.908 65.6506 205.196H65.6546Z" fill="#F44E22"/>
<path d="M71.8062 213.84C72.2222 213.076 72.7582 211.948 73.4142 210.452C74.0702 208.956 74.5422 207.796 74.8222 206.976C75.2782 207.184 75.7022 207.372 76.0942 207.548C76.4902 207.72 76.8702 207.88 77.2422 208.032C77.5022 208.132 77.7702 208.24 78.0382 208.356C78.3062 208.472 78.5942 208.596 78.8902 208.724C80.2342 209.316 81.1502 209.916 81.6422 210.528C82.1342 211.14 82.2302 211.788 81.9302 212.472C81.7022 212.992 81.3542 213.328 80.8862 213.488C80.4182 213.648 79.9382 213.688 79.4462 213.616C78.9542 213.54 78.5262 213.424 78.1582 213.264L78.0942 213.412C78.8582 213.928 79.3742 214.564 79.6422 215.312C79.9102 216.06 80.0542 216.784 80.0742 217.484L77.4462 216.328C77.6342 215.748 77.7062 215.244 77.6622 214.812C77.6182 214.38 77.4542 213.996 77.1662 213.656C76.8782 213.316 76.4502 212.988 75.8862 212.672C75.7462 212.588 75.5902 212.504 75.4102 212.42C75.2342 212.336 75.0542 212.252 74.8702 212.172C74.5022 213.072 74.2942 213.588 74.2462 213.712C74.1702 213.896 74.1062 214.076 74.0502 214.248C73.9942 214.42 73.9342 214.592 73.8742 214.76L71.7942 213.848L71.8062 213.84ZM75.3702 211.028L75.7862 211.244C76.0142 211.36 76.2542 211.48 76.5182 211.608C76.7782 211.736 77.0342 211.856 77.2942 211.972C77.7462 212.172 78.1422 212.296 78.4822 212.352C78.8222 212.408 79.1062 212.388 79.3302 212.296C79.5582 212.204 79.7262 212.032 79.8302 211.788C79.9822 211.44 79.9222 211.112 79.6462 210.8C79.3702 210.488 78.9182 210.196 78.2902 209.92C78.0582 209.82 77.8262 209.72 77.5982 209.62C77.3702 209.52 77.1462 209.436 76.9342 209.356L76.2702 209.076C76.1222 209.376 75.9742 209.688 75.8262 210.012C75.6782 210.336 75.5262 210.676 75.3702 211.028Z" fill="#F44E22"/>
<path d="M82.1985 218.24C82.6185 217.752 83.0545 217.232 83.5065 216.684C83.9585 216.136 84.3945 215.592 84.8225 215.06C85.7225 213.92 86.5425 212.848 87.2905 211.84C87.7305 212.02 88.2905 212.204 88.9665 212.392C89.6425 212.58 90.1785 212.688 90.5785 212.72C90.7505 214.144 90.9305 215.488 91.1265 216.748C91.2865 217.824 91.5145 219.18 91.8105 220.812L89.4145 220.172C89.3825 219.472 89.3105 218.648 89.2065 217.696C89.0985 216.688 88.9865 215.768 88.8745 214.94C88.7625 214.112 88.6625 213.564 88.5865 213.296L88.6545 213.316C88.3825 213.588 87.6785 214.496 86.5385 216.04C86.1785 216.532 85.8265 217.016 85.4825 217.496C85.1385 217.976 84.8105 218.432 84.5025 218.86L82.2145 218.248L82.1985 218.24ZM85.9625 216.472C86.4625 216.636 87.0385 216.8 87.6825 216.972C88.3265 217.144 88.9065 217.284 89.4225 217.396L89.4985 218.7C88.8825 218.508 88.1545 218.3 87.3185 218.076C86.4865 217.852 85.7505 217.672 85.1185 217.528L85.9625 216.468V216.472Z" fill="#F44E22"/>
<path d="M94.4941 221.24C94.6901 220 94.8581 218.76 94.9981 217.52C95.1381 216.276 95.2541 215.036 95.3421 213.788C95.7381 213.892 96.1301 213.972 96.5181 214.02C96.9061 214.068 97.2661 214.076 97.5981 214.048C97.4701 214.696 97.3261 215.656 97.1701 216.916C97.0061 218.228 96.8941 219.312 96.8301 220.18C97.6461 220.264 98.7141 220.34 100.034 220.4C101.358 220.46 102.278 220.452 102.806 220.38C102.738 220.74 102.69 221.056 102.658 221.32C102.626 221.584 102.61 221.868 102.602 222.168L94.4941 221.244V221.24Z" fill="#F44E22"/>
<path d="M105.858 222.184C105.922 221.516 105.958 220.58 105.974 219.368C105.99 218.156 105.982 217.044 105.954 216.024C105.226 216.036 104.594 216.068 104.058 216.12C103.522 216.176 103.006 216.252 102.51 216.348C102.566 216.068 102.594 215.788 102.594 215.508C102.594 215.228 102.57 214.948 102.518 214.668C104.226 214.72 105.73 214.752 107.038 214.756C108.346 214.76 109.85 214.744 111.558 214.704C111.51 214.984 111.486 215.264 111.486 215.544C111.486 215.824 111.506 216.104 111.554 216.384C111.054 216.284 110.534 216.2 109.994 216.144C109.454 216.084 108.818 216.048 108.086 216.032C108.05 217.064 108.038 218.184 108.054 219.392C108.07 220.6 108.106 221.532 108.162 222.192L105.862 222.184H105.858Z" fill="#F44E22"/>
<path d="M112.106 222.2C112.314 221.592 112.522 220.948 112.738 220.268C112.95 219.592 113.154 218.924 113.35 218.268C113.758 216.876 114.118 215.572 114.434 214.356C114.91 214.356 115.498 214.32 116.194 214.24C116.89 214.16 117.43 214.064 117.81 213.94C118.502 215.2 119.174 216.376 119.822 217.472C120.374 218.412 121.09 219.584 121.974 220.988L119.514 221.288C119.222 220.652 118.85 219.912 118.398 219.068C117.918 218.172 117.47 217.364 117.058 216.636C116.642 215.912 116.35 215.44 116.174 215.216L116.242 215.208C116.09 215.564 115.778 216.668 115.298 218.528C115.15 219.116 115.002 219.7 114.862 220.272C114.722 220.848 114.586 221.392 114.462 221.904L112.11 222.192L112.106 222.2ZM114.938 219.152C115.462 219.116 116.058 219.056 116.718 218.976C117.378 218.896 117.97 218.808 118.49 218.72L119.046 219.9C118.402 219.952 117.65 220.032 116.794 220.136C115.938 220.24 115.19 220.344 114.55 220.452L114.934 219.156L114.938 219.152Z" fill="#F44E22"/>
<path d="M124.646 220.408C124.482 219.556 124.182 218.34 123.738 216.768C123.298 215.196 122.926 214 122.618 213.188C123.102 213.06 123.55 212.936 123.966 212.82C124.378 212.704 124.778 212.584 125.158 212.464C125.426 212.376 125.698 212.292 125.978 212.208C126.258 212.124 126.558 212.04 126.87 211.952C128.282 211.556 129.374 211.44 130.142 211.6C130.91 211.764 131.398 212.204 131.598 212.92C131.75 213.464 131.698 213.948 131.438 214.368C131.178 214.788 130.834 215.124 130.406 215.38C129.978 215.636 129.574 215.816 129.186 215.924L129.23 216.08C130.146 215.996 130.946 216.156 131.63 216.564C132.31 216.972 132.882 217.44 133.342 217.968L130.578 218.744C130.358 218.176 130.094 217.74 129.786 217.436C129.478 217.132 129.106 216.936 128.666 216.856C128.23 216.776 127.69 216.792 127.05 216.908C126.89 216.932 126.714 216.968 126.526 217.012C126.334 217.06 126.142 217.108 125.95 217.164C126.238 218.096 126.402 218.624 126.446 218.748C126.506 218.94 126.57 219.12 126.634 219.288C126.698 219.456 126.762 219.624 126.822 219.796L124.638 220.408H124.646ZM125.614 215.972L126.074 215.872C126.322 215.816 126.586 215.756 126.87 215.692C127.154 215.628 127.43 215.556 127.698 215.48C128.174 215.348 128.558 215.192 128.858 215.02C129.158 214.848 129.362 214.652 129.478 214.436C129.594 214.22 129.614 213.984 129.542 213.728C129.438 213.36 129.182 213.148 128.774 213.08C128.366 213.012 127.83 213.076 127.17 213.26C126.926 213.328 126.682 213.396 126.446 213.468C126.206 213.54 125.978 213.612 125.766 213.684L125.074 213.888C125.15 214.212 125.234 214.548 125.326 214.892C125.414 215.236 125.514 215.596 125.618 215.968L125.614 215.972Z" fill="#F44E22"/>
<path d="M158.947 203.156C158.399 202.48 157.559 201.556 156.427 200.376C155.295 199.2 154.403 198.324 153.747 197.748C154.111 197.408 154.451 197.088 154.759 196.788C155.071 196.488 155.363 196.196 155.643 195.912C155.835 195.708 156.035 195.504 156.247 195.296C156.455 195.092 156.679 194.876 156.915 194.648C157.971 193.632 158.879 193.012 159.631 192.792C160.383 192.572 161.019 192.728 161.539 193.268C161.931 193.676 162.115 194.128 162.083 194.62C162.051 195.112 161.911 195.572 161.651 196C161.395 196.428 161.123 196.78 160.835 197.056L160.947 197.172C161.715 196.664 162.499 196.428 163.291 196.464C164.083 196.5 164.807 196.644 165.463 196.892L163.395 198.88C162.931 198.484 162.491 198.224 162.079 198.1C161.663 197.976 161.243 197.984 160.819 198.116C160.395 198.252 159.927 198.524 159.419 198.928C159.291 199.024 159.151 199.14 159.007 199.272C158.859 199.404 158.715 199.54 158.571 199.676C159.263 200.36 159.659 200.748 159.759 200.836C159.903 200.976 160.043 201.104 160.179 201.224C160.315 201.344 160.451 201.46 160.587 201.58L158.951 203.152L158.947 203.156ZM157.703 198.788L158.063 198.484C158.255 198.32 158.459 198.14 158.679 197.948C158.899 197.756 159.107 197.564 159.311 197.368C159.667 197.028 159.935 196.708 160.115 196.416C160.295 196.124 160.387 195.852 160.387 195.608C160.387 195.364 160.295 195.144 160.111 194.952C159.847 194.68 159.519 194.608 159.127 194.744C158.735 194.88 158.291 195.188 157.799 195.664C157.615 195.84 157.435 196.016 157.259 196.192C157.083 196.368 156.915 196.54 156.759 196.704L156.247 197.212C156.467 197.46 156.699 197.716 156.943 197.98C157.187 198.24 157.439 198.512 157.707 198.792L157.703 198.788Z" fill="#F44E22"/>
<path d="M167.403 194.644C166.763 194.056 165.795 193.264 164.499 192.268C163.207 191.272 162.191 190.536 161.463 190.064C161.639 189.888 161.963 189.516 162.435 188.944C162.907 188.372 163.403 187.752 163.931 187.08C164.535 186.308 165.071 185.604 165.543 184.964C166.015 184.324 166.355 183.84 166.563 183.504C166.783 183.708 167.015 183.904 167.255 184.088C167.495 184.272 167.743 184.448 167.995 184.608C167.755 184.788 167.463 185.048 167.111 185.396C166.759 185.744 166.375 186.148 165.959 186.612C165.559 187.068 165.171 187.52 164.803 187.964C164.435 188.408 164.119 188.804 163.863 189.152C164.099 189.352 164.335 189.544 164.575 189.736C164.815 189.928 165.055 190.116 165.303 190.296C165.851 189.616 166.435 188.848 167.047 187.992C167.659 187.136 168.143 186.428 168.495 185.876C168.671 186.044 168.859 186.208 169.063 186.364C169.267 186.524 169.475 186.664 169.683 186.792C169.235 187.288 168.675 187.944 168.003 188.756C167.335 189.572 166.747 190.324 166.243 191.024C166.791 191.448 167.275 191.8 167.691 192.076C167.987 191.704 168.303 191.284 168.639 190.812C168.975 190.34 169.299 189.868 169.603 189.396C169.931 188.908 170.219 188.444 170.467 188.012C170.719 187.58 170.899 187.22 171.015 186.94C171.235 187.144 171.471 187.34 171.719 187.532C171.967 187.724 172.219 187.9 172.471 188.064L167.399 194.644H167.403Z" fill="#F44E22"/>
<path d="M176.735 181.208C176.203 182.18 175.607 182.928 174.951 183.46C174.295 183.992 173.607 184.292 172.895 184.36C172.183 184.428 171.475 184.268 170.771 183.884C170.035 183.48 169.515 182.952 169.207 182.296C168.899 181.64 168.811 180.892 168.939 180.044C169.067 179.196 169.399 178.284 169.935 177.312C170.291 176.664 170.727 176.008 171.239 175.34C171.751 174.672 172.323 174.092 172.947 173.592C173.255 173.82 173.551 174.016 173.831 174.172C174.115 174.328 174.375 174.444 174.615 174.524C173.955 174.884 173.323 175.364 172.719 175.972C172.115 176.576 171.607 177.256 171.195 178.008C170.871 178.6 170.679 179.156 170.619 179.684C170.559 180.208 170.627 180.676 170.827 181.08C171.027 181.484 171.343 181.808 171.783 182.048C172.223 182.288 172.667 182.392 173.119 182.36C173.571 182.328 174.003 182.156 174.411 181.844C174.823 181.532 175.183 181.096 175.495 180.528C175.775 180.02 175.963 179.464 176.067 178.856C176.171 178.248 176.075 177.648 175.787 177.048C175.663 177.276 175.539 177.508 175.415 177.74C175.291 177.972 175.175 178.204 175.063 178.432C174.831 178.884 174.631 179.296 174.459 179.676C174.291 180.056 174.171 180.352 174.107 180.568C173.923 180.416 173.695 180.268 173.415 180.124C173.135 179.98 172.859 179.864 172.579 179.772C173.055 179 173.535 178.176 174.015 177.304C174.495 176.432 174.919 175.608 175.291 174.836C175.543 175.028 175.851 175.224 176.215 175.424C176.583 175.624 176.931 175.788 177.263 175.92C177.635 176.612 177.767 177.436 177.659 178.396C177.551 179.356 177.243 180.296 176.739 181.212L176.735 181.208Z" fill="#F44E22"/>
<path d="M180.055 174.02C179.279 173.628 178.135 173.12 176.623 172.508C175.111 171.892 173.939 171.456 173.107 171.2C173.311 170.852 173.487 170.504 173.631 170.156C173.775 169.808 173.887 169.456 173.959 169.096C174.751 169.496 175.911 170.004 177.427 170.612C178.947 171.22 180.111 171.648 180.919 171.888L180.055 174.02Z" fill="#F44E22"/>
<path d="M182.23 168.784C181.414 168.488 180.214 168.132 178.634 167.708C177.054 167.284 175.838 167 174.982 166.844C175.138 166.472 175.302 165.964 175.478 165.324C175.654 164.684 175.758 164.184 175.79 163.828C176.962 163.76 178.022 163.68 178.97 163.58C179.886 163.488 180.93 163.352 182.102 163.176L182.006 163.504C181.318 162.928 180.486 162.268 179.51 161.532C178.606 160.864 177.734 160.252 176.894 159.696C177.05 159.352 177.21 158.864 177.378 158.236C177.546 157.608 177.65 157.108 177.686 156.728C178.522 157.028 179.734 157.384 181.318 157.8C182.902 158.216 184.11 158.496 184.942 158.632L184.362 160.804C183.902 160.64 183.082 160.388 181.906 160.044C180.534 159.656 179.346 159.344 178.35 159.104L178.426 158.74C179.23 159.416 180.17 160.16 181.234 160.972C182.062 161.6 182.93 162.228 183.846 162.86L183.366 164.656C182.294 164.744 181.23 164.852 180.174 164.984C178.902 165.148 177.73 165.324 176.658 165.516L176.762 165.172C177.73 165.452 178.838 165.748 180.086 166.06C181.334 166.372 182.238 166.572 182.802 166.66L182.234 168.776L182.23 168.784Z" fill="#F44E22"/>
<path d="M185.475 155.128C184.619 154.972 183.379 154.812 181.755 154.652C180.131 154.492 178.883 154.408 178.011 154.396C178.067 154.152 178.143 153.664 178.239 152.932C178.335 152.2 178.427 151.408 178.515 150.556C178.619 149.58 178.699 148.7 178.759 147.908C178.819 147.116 178.851 146.524 178.847 146.128C179.143 146.184 179.443 146.228 179.743 146.256C180.043 146.284 180.347 146.3 180.647 146.304C180.539 146.58 180.427 146.96 180.315 147.444C180.199 147.924 180.091 148.472 179.983 149.084C179.883 149.684 179.795 150.268 179.719 150.84C179.643 151.412 179.587 151.916 179.551 152.344C179.855 152.388 180.159 152.428 180.463 152.464C180.767 152.5 181.071 152.532 181.379 152.552C181.483 151.684 181.571 150.724 181.635 149.672C181.699 148.62 181.735 147.768 181.739 147.108C181.975 147.156 182.223 147.196 182.483 147.22C182.743 147.244 182.991 147.256 183.235 147.252C183.115 147.912 182.991 148.764 182.855 149.808C182.719 150.852 182.623 151.804 182.567 152.664C183.259 152.732 183.851 152.772 184.355 152.788C184.407 152.316 184.451 151.792 184.487 151.212C184.523 150.632 184.547 150.064 184.555 149.5C184.571 148.912 184.571 148.368 184.555 147.868C184.539 147.368 184.503 146.968 184.451 146.668C184.747 146.724 185.051 146.768 185.363 146.796C185.675 146.824 185.983 146.844 186.283 146.844L185.475 155.116V155.128Z" fill="#F44E22"/>
<path d="M186.323 143.648C185.067 143.648 183.819 143.676 182.567 143.728C181.319 143.78 180.071 143.86 178.827 143.968C178.863 143.544 178.867 143.036 178.847 142.44C178.823 141.844 178.775 141.36 178.699 140.988C179.439 140.456 180.171 139.912 180.895 139.356C181.623 138.8 182.343 138.232 183.059 137.648C183.407 137.368 183.751 137.084 184.095 136.8C184.435 136.516 184.779 136.228 185.119 135.94L185.307 136.564C184.179 136.572 183.047 136.612 181.907 136.68C181.363 136.712 180.803 136.744 180.231 136.788C179.659 136.828 179.091 136.88 178.527 136.936C178.571 136.552 178.587 136.184 178.575 135.824C178.563 135.464 178.515 135.12 178.435 134.788C179.063 134.78 179.687 134.768 180.311 134.752C180.935 134.736 181.563 134.712 182.195 134.688C183.435 134.636 184.679 134.552 185.927 134.44L186.051 137.348C185.499 137.752 184.959 138.16 184.427 138.58C183.895 138.996 183.367 139.416 182.843 139.84C181.799 140.684 180.759 141.568 179.723 142.488L179.535 141.864C180.635 141.852 181.743 141.812 182.859 141.748C183.975 141.684 185.095 141.596 186.227 141.48L186.319 143.66L186.323 143.648Z" fill="#F44E22"/>
<path d="M184.839 128.428C184.175 128.504 183.247 128.66 182.059 128.896C180.871 129.132 179.783 129.368 178.791 129.608C178.951 130.316 179.115 130.928 179.275 131.444C179.435 131.96 179.619 132.448 179.819 132.908C179.535 132.912 179.255 132.944 178.979 133C178.703 133.056 178.435 133.14 178.171 133.248C177.871 131.568 177.591 130.088 177.327 128.808C177.063 127.528 176.735 126.056 176.343 124.396C176.627 124.384 176.907 124.352 177.179 124.296C177.455 124.24 177.723 124.16 177.987 124.056C177.987 124.564 178.019 125.092 178.071 125.632C178.123 126.172 178.219 126.804 178.355 127.524C179.375 127.348 180.471 127.128 181.651 126.864C182.827 126.6 183.735 126.372 184.367 126.18L184.831 128.432L184.839 128.428Z" fill="#F44E22"/>
</svg>
