<svg width="203" height="263" viewBox="0 0 203 263" fill="none" xmlns="http://www.w3.org/2000/svg">
  <path
    d="M2.7563 47.282C2.0883 47.538 1.3683 47.686 0.612305 47.702V47.654C0.712305 47.654 0.804301 47.654 0.908301 47.646C1.0123 47.638 1.1203 47.63 1.2283 47.622C1.7603 47.566 2.2683 47.45 2.7563 47.282Z"
    fill="#FAFAF9"
  />
  <path
    d="M7.07629 121.63C7.06429 125.23 4.1963 128.154 0.612305 128.25V128.182C4.1683 128.082 7.03629 125.198 7.07629 121.63Z"
    fill="#FAFAF9"
  />
  <path
    d="M7.0642 101.818C7.0522 101.986 7.03621 102.15 7.01221 102.31C7.03221 102.146 7.0562 101.982 7.0642 101.818Z"
    fill="#FAFAF9"
  />
  <path
    d="M7.0124 102.314C6.9604 102.718 6.8804 103.11 6.7604 103.49C6.7324 103.582 6.69639 103.678 6.66439 103.77C6.63239 103.862 6.5924 103.954 6.5564 104.046C6.4844 104.226 6.3964 104.402 6.3084 104.578C5.9884 105.178 5.5724 105.73 5.0924 106.198C3.93239 107.346 2.3484 108.066 0.608398 108.114V108.042C1.0924 108.03 1.5604 107.966 2.0124 107.854C2.8444 107.65 3.60839 107.294 4.28839 106.81C5.73639 105.774 6.7524 104.166 7.0084 102.314H7.0124Z"
    fill="#FAFAF9"
  />
  <path
    d="M7.05221 61.734C6.89621 63.742 5.84422 65.502 4.29622 66.602C3.61622 67.086 2.84821 67.442 2.02021 67.646C1.56821 67.758 1.09621 67.822 0.616211 67.834V67.766C1.36821 67.746 2.07621 67.598 2.75221 67.354C5.10021 66.486 6.82021 64.322 7.05221 61.73V61.734Z"
    fill="#FAFAF9"
  />
  <path
    d="M7.04822 162.47C6.92422 163.946 6.31621 165.282 5.38021 166.318C4.23621 167.586 2.61222 168.414 0.80022 168.514C0.73622 168.514 0.680211 168.522 0.616211 168.522V168.454C3.98821 168.366 6.72022 165.774 7.04822 162.47Z"
    fill="#FAFAF9"
  />
  <path
    d="M7.07629 202.15C7.07629 202.618 7.0283 203.074 6.9363 203.514C6.3243 206.474 3.7323 208.706 0.612305 208.794V208.722C0.676305 208.722 0.732301 208.722 0.796301 208.714C2.6123 208.614 4.23629 207.786 5.37629 206.518C6.42029 205.358 7.0563 203.83 7.0723 202.146L7.07629 202.15Z"
    fill="#FAFAF9"
  />
  <path
    d="M7.05221 182.578C6.77621 185.926 4.01621 188.558 0.616211 188.654V188.586C3.78021 188.498 6.39621 186.206 6.96421 183.186C7.00421 182.986 7.03621 182.782 7.05221 182.578Z"
    fill="#FAFAF9"
  />
  <path
    d="M7.06429 142.094C7.05229 142.398 7.0203 142.694 6.9603 142.982C6.3923 146.002 3.7763 148.294 0.612305 148.382V148.314C2.3483 148.266 3.9363 147.546 5.0963 146.398C5.5803 145.93 5.9923 145.378 6.3123 144.778C6.7403 143.962 7.00029 143.054 7.06429 142.09V142.094Z"
    fill="#FAFAF9"
  />
  <path
    d="M7.07213 81.5701C7.06413 81.7101 7.05213 81.8501 7.03613 81.9861C7.04813 81.8461 7.06413 81.7101 7.07213 81.5701Z"
    fill="#FAFAF9"
  />
  <path
    d="M6.82411 83.0981C6.81611 83.1221 6.81211 83.1421 6.80811 83.1661C6.81611 83.1421 6.82011 83.1221 6.82411 83.0981Z"
    fill="#FAFAF9"
  />
  <path
    d="M6.5323 83.9021C6.6403 83.6661 6.7283 83.4181 6.8043 83.1621C6.3843 84.6221 5.4883 85.8821 4.2803 86.7421C4.2003 86.7981 4.1163 86.8541 4.0363 86.9101C3.9563 86.9621 3.8723 87.0141 3.7843 87.0661C3.7003 87.1181 3.6123 87.1661 3.5243 87.2101C3.4363 87.2581 3.3483 87.3021 3.2603 87.3421C3.1683 87.3861 3.08029 87.4261 2.98829 87.4621C2.89629 87.5021 2.8043 87.5381 2.7083 87.5741C2.6163 87.6061 2.5203 87.6421 2.4243 87.6701C2.3283 87.6981 2.2323 87.7301 2.1323 87.7541C1.9363 87.8061 1.7363 87.8501 1.5403 87.8821C1.3883 87.9061 1.2323 87.9301 1.0803 87.9461C0.924298 87.9621 0.772305 87.9701 0.612305 87.9741V87.9061C3.2723 87.8341 5.5363 86.2061 6.5323 83.8981V83.9021Z"
    fill="#FAFAF9"
  />
  <path
    d="M6.98417 82.362C6.98417 82.382 6.97617 82.406 6.97217 82.426C6.99617 82.282 7.02416 82.138 7.04016 81.99C7.02416 82.114 7.00817 82.242 6.98417 82.362Z"
    fill="#FAFAF9"
  />
  <path
    d="M202.676 47.606V47.71C202.424 47.71 202.18 47.686 201.94 47.658C202.024 47.658 202.104 47.658 202.196 47.65C202.288 47.642 202.38 47.634 202.472 47.626H202.48C202.48 47.626 202.516 47.626 202.532 47.626C202.548 47.626 202.56 47.626 202.584 47.626C202.6 47.626 202.608 47.626 202.632 47.618C202.652 47.618 202.664 47.618 202.68 47.61L202.676 47.606Z"
    fill="#FAFAF9"
  />
  <path
    d="M202.676 67.7742V67.8422C201.632 67.8262 200.644 67.5702 199.768 67.1222C197.608 66.0262 196.128 63.7861 196.128 61.2021C196.128 61.2901 196.136 61.3741 196.14 61.4621C196.164 62.0341 196.264 62.5942 196.428 63.1182C197.264 65.7902 199.744 67.7381 202.676 67.7781V67.7742Z"
    fill="#FAFAF9"
  />
  <path
    d="M196.132 81.446C196.132 81.566 196.14 81.682 196.148 81.802C196.14 81.686 196.132 81.566 196.132 81.446Z"
    fill="#FAFAF9"
  />
  <path
    d="M202.676 87.9141V87.9822C202.46 87.9822 202.244 87.9622 202.036 87.9422C202.024 87.9422 202.012 87.9422 202 87.9422C201.8 87.9182 201.604 87.8862 201.412 87.8462C200.94 87.7462 200.484 87.5981 200.056 87.4021C199.984 87.3701 199.908 87.3342 199.84 87.2982C199.756 87.2582 199.672 87.2142 199.588 87.1702C199.512 87.1302 199.432 87.0861 199.36 87.0381C199.288 86.9981 199.224 86.9542 199.152 86.9102C199.08 86.8662 199.012 86.8182 198.94 86.7702C198.912 86.7462 198.876 86.7262 198.848 86.6982C198.784 86.6542 198.724 86.6062 198.66 86.5542C198.58 86.4902 198.5 86.4301 198.428 86.3621C198.352 86.2941 198.272 86.2261 198.196 86.1501C198.124 86.0821 198.056 86.0142 197.988 85.9422C197.916 85.8702 197.852 85.7942 197.784 85.7222C197.716 85.6462 197.652 85.5661 197.588 85.4901C197.524 85.4141 197.468 85.3301 197.404 85.2501C196.692 84.2701 196.24 83.0862 196.148 81.8062C196.228 82.7942 196.52 83.7181 196.984 84.5381C197.252 85.0181 197.576 85.4621 197.96 85.8501C199.14 87.1021 200.816 87.8901 202.672 87.9141H202.676Z"
    fill="#FAFAF9"
  />
  <path
    d="M202.676 108.046V108.118C200.18 108.082 198.016 106.67 196.908 104.602C196.648 104.106 196.444 103.582 196.312 103.026C196.24 102.73 196.192 102.434 196.164 102.126C196.412 104.402 197.812 106.334 199.768 107.326C200.644 107.774 201.632 108.03 202.676 108.046Z"
    fill="#FAFAF9"
  />
  <path
    d="M202.676 128.186V128.254C201.016 128.23 199.508 127.602 198.356 126.574V126.566C197.056 125.406 196.216 123.754 196.136 121.898C196.32 125.37 199.172 128.13 202.676 128.186Z"
    fill="#FAFAF9"
  />
  <path
    d="M202.676 148.322V148.39C199.052 148.338 196.128 145.386 196.128 141.746C196.136 142.254 196.2 142.754 196.312 143.234C196.444 143.79 196.652 144.314 196.908 144.81C198.016 146.874 200.176 148.29 202.676 148.326V148.322Z"
    fill="#FAFAF9"
  />
  <path
    d="M202.676 168.458V168.526C199.368 168.474 196.644 166.01 196.196 162.81C196.168 162.614 196.144 162.414 196.136 162.214C196.248 164.026 197.08 165.642 198.348 166.774V166.782C199.504 167.806 201.012 168.438 202.672 168.462L202.676 168.458Z"
    fill="#FAFAF9"
  />
  <path
    d="M202.676 188.594V188.662C201.892 188.65 201.132 188.502 200.432 188.238H200.416C199.964 188.062 199.528 187.834 199.12 187.566C197.992 186.826 197.112 185.758 196.604 184.494C196.332 183.806 196.16 183.066 196.132 182.29C196.308 185.774 199.164 188.542 202.672 188.594H202.676Z"
    fill="#FAFAF9"
  />
  <path
    d="M202.676 208.73V208.802C202.46 208.802 202.252 208.782 202.04 208.762C201.792 208.738 201.548 208.694 201.312 208.642C201.228 208.622 201.144 208.602 201.056 208.578C200.88 208.53 200.7 208.474 200.532 208.414C200.436 208.382 200.344 208.342 200.252 208.302C200.18 208.278 200.112 208.242 200.04 208.214C199.924 208.162 199.816 208.106 199.704 208.046C199.628 208.006 199.548 207.966 199.476 207.926C199.456 207.914 199.44 207.902 199.42 207.894C199.34 207.846 199.26 207.798 199.184 207.746C199.112 207.702 199.036 207.65 198.968 207.602C198.944 207.586 198.92 207.57 198.896 207.554C198.828 207.502 198.76 207.45 198.692 207.398C198.616 207.338 198.536 207.278 198.46 207.21C198.312 207.082 198.164 206.946 198.024 206.806C197.952 206.734 197.884 206.662 197.82 206.59C197.752 206.514 197.688 206.438 197.624 206.362C196.804 205.362 196.268 204.114 196.152 202.746C196.164 202.838 196.176 202.93 196.188 203.018C196.636 206.218 199.356 208.682 202.668 208.734L202.676 208.73Z"
    fill="#FAFAF9"
  />
  <path
    d="M196.128 20.9261C196.128 21.0381 196.136 21.1421 196.14 21.2501C196.164 21.8221 196.264 22.3821 196.428 22.9061C197.264 25.5781 199.744 27.5261 202.676 27.5661V34.4141C199.052 34.4701 196.128 37.4221 196.128 41.0621C196.128 42.2461 196.44 43.3621 196.988 44.3261C197.256 44.8061 197.58 45.2501 197.964 45.6381C198.984 46.7181 200.38 47.4581 201.936 47.6541C202.18 47.6821 202.424 47.7021 202.672 47.7061V54.4861C202.456 54.4861 202.248 54.5021 202.04 54.5221C202.024 54.5221 202.012 54.5221 201.996 54.5301C201.784 54.5541 201.576 54.5901 201.368 54.6341C201.084 54.6941 200.804 54.7741 200.536 54.8701C200.46 54.8981 200.38 54.9261 200.308 54.9581C200.284 54.9661 200.264 54.9781 200.24 54.9821C200.168 55.0101 200.1 55.0421 200.028 55.0741C199.956 55.1021 199.888 55.1381 199.82 55.1701C199.76 55.1981 199.704 55.2301 199.652 55.2581C199.488 55.3461 199.332 55.4381 199.176 55.5381C199.1 55.5861 199.024 55.6341 198.956 55.6861C198.876 55.7421 198.792 55.8021 198.716 55.8621C198.636 55.9221 198.56 55.9821 198.484 56.0501C198.412 56.1101 198.336 56.1741 198.264 56.2461C198.192 56.3141 198.12 56.3821 198.048 56.4541C197.908 56.5941 197.776 56.7381 197.648 56.8941C196.724 58.0021 196.16 59.4101 196.124 60.9541C196.124 61.0341 196.124 61.1181 196.124 61.1981C196.124 63.7861 197.608 66.0221 199.764 67.1181C200.64 67.5661 201.628 67.8221 202.672 67.8381V74.6181C202.456 74.6181 202.24 74.6381 202.032 74.6581C201.924 74.6701 201.816 74.6821 201.716 74.7021C201.632 74.7141 201.548 74.7261 201.464 74.7461C201.344 74.7701 201.22 74.7981 201.1 74.8301C201 74.8541 200.9 74.8821 200.8 74.9141C200.7 74.9421 200.604 74.9781 200.508 75.0141C200.412 75.0461 200.316 75.0861 200.22 75.1261C200.124 75.1621 200.032 75.2061 199.94 75.2501C199.848 75.2901 199.756 75.3381 199.668 75.3861C199.576 75.4341 199.488 75.4821 199.4 75.5381C199.328 75.5781 199.26 75.6181 199.188 75.6661C199.072 75.7381 198.964 75.8181 198.852 75.8981C198.78 75.9461 198.716 75.9981 198.648 76.0541C198.488 76.1741 198.34 76.3101 198.192 76.4541C196.92 77.6581 196.124 79.3701 196.124 81.2661V81.3341C196.124 82.7941 196.596 84.1461 197.4 85.2461C197.456 85.3261 197.52 85.4101 197.584 85.4861C197.644 85.5661 197.704 85.6461 197.78 85.7181C197.84 85.7941 197.908 85.8701 197.984 85.9381C198.052 86.0101 198.12 86.0781 198.192 86.1461C198.268 86.2181 198.348 86.2901 198.424 86.3581C198.496 86.4301 198.576 86.4901 198.656 86.5501C198.716 86.6021 198.776 86.6501 198.844 86.6941C198.872 86.7181 198.908 86.7421 198.936 86.7661C199.008 86.8141 199.076 86.8621 199.148 86.9061C199.216 86.9541 199.284 86.9941 199.356 87.0341C199.428 87.0821 199.508 87.1261 199.584 87.1661C199.664 87.2101 199.752 87.2541 199.836 87.2941C199.908 87.3301 199.98 87.3661 200.052 87.3981C200.484 87.5941 200.936 87.7421 201.408 87.8421C201.6 87.8821 201.796 87.9141 201.996 87.9381C202.012 87.9381 202.02 87.9381 202.032 87.9381C202.244 87.9621 202.456 87.9741 202.672 87.9781V94.7581C200.324 94.7901 198.268 96.0461 197.112 97.9141C196.532 98.8581 196.176 99.9541 196.132 101.13C196.132 101.222 196.124 101.31 196.124 101.402V101.47C196.124 101.542 196.124 101.614 196.132 101.682C196.132 101.83 196.144 101.978 196.16 102.122C196.184 102.43 196.236 102.726 196.308 103.022C196.44 103.578 196.648 104.102 196.904 104.598C198.012 106.662 200.172 108.078 202.672 108.114V114.89C199.616 114.942 197.06 117.046 196.332 119.886C196.228 120.31 196.16 120.754 196.136 121.206V121.242C196.128 121.342 196.124 121.438 196.124 121.538V121.606C196.124 121.706 196.124 121.802 196.132 121.898C196.212 123.754 197.056 125.406 198.348 126.566V126.574C199.504 127.598 201.012 128.23 202.672 128.254V135.034C199.14 135.086 196.272 137.894 196.132 141.406C196.132 141.498 196.124 141.586 196.124 141.678V141.746C196.124 145.386 199.048 148.338 202.672 148.39V155.166C202.588 155.166 202.504 155.166 202.412 155.182C201 155.254 199.712 155.77 198.672 156.586C197.204 157.738 196.228 159.494 196.132 161.478C196.124 161.598 196.12 161.722 196.12 161.846V161.878C196.12 161.99 196.12 162.098 196.132 162.21C196.14 162.414 196.16 162.614 196.192 162.806C196.64 166.006 199.36 168.47 202.672 168.522V175.302C200.384 175.334 198.376 176.526 197.204 178.322C196.9 178.774 196.66 179.27 196.484 179.798C196.296 180.334 196.18 180.898 196.14 181.482C196.14 181.49 196.14 181.498 196.14 181.502C196.132 181.578 196.128 181.662 196.124 181.738C196.124 181.83 196.124 181.922 196.124 182.014C196.124 182.106 196.124 182.194 196.132 182.282C196.16 183.058 196.332 183.798 196.604 184.486C197.112 185.75 197.992 186.818 199.12 187.554C199.524 187.826 199.96 188.054 200.416 188.226H200.432C201.128 188.494 201.888 188.642 202.676 188.654V195.434C199.308 195.486 196.552 198.034 196.172 201.314C196.152 201.482 196.14 201.658 196.136 201.834C196.136 201.894 196.136 201.954 196.128 202.014V202.142C196.128 202.198 196.128 202.258 196.128 202.31C196.128 202.382 196.128 202.454 196.14 202.522C196.22 203.97 196.768 205.294 197.632 206.346C197.692 206.422 197.756 206.502 197.828 206.574C197.892 206.646 197.96 206.722 198.032 206.79C198.172 206.934 198.316 207.07 198.468 207.194C198.544 207.262 198.62 207.322 198.7 207.382C198.768 207.438 198.832 207.49 198.904 207.538C198.928 207.554 198.948 207.57 198.976 207.586C199.048 207.638 199.12 207.686 199.192 207.73C199.268 207.786 199.348 207.834 199.428 207.878C199.448 207.89 199.464 207.902 199.484 207.91C199.556 207.954 199.636 207.994 199.712 208.03C199.824 208.09 199.932 208.146 200.048 208.198C200.12 208.23 200.188 208.262 200.26 208.286C200.352 208.326 200.444 208.362 200.54 208.398C200.708 208.458 200.888 208.514 201.064 208.562C201.148 208.586 201.232 208.606 201.32 208.626C201.556 208.682 201.8 208.722 202.048 208.746C202.26 208.77 202.468 208.782 202.684 208.786V215.562C202.584 215.562 202.472 215.57 202.376 215.578C202.02 215.602 201.68 215.65 201.344 215.726C200.84 215.838 200.352 216.006 199.896 216.226C197.68 217.306 196.144 219.574 196.144 222.21C196.144 223.082 196.316 223.914 196.624 224.682C197.132 225.946 198.012 227.014 199.14 227.75C199.544 228.022 199.98 228.25 200.436 228.422H200.452C201.148 228.69 201.908 228.838 202.696 228.85V235.698C201.06 235.722 199.572 236.338 198.428 237.338C198.016 237.694 197.652 238.102 197.348 238.55C196.596 239.622 196.148 240.938 196.148 242.346C196.148 245.986 199.072 248.934 202.696 248.994V255.954C202.696 255.954 202.68 255.954 202.672 255.954C202.6 255.946 202.52 255.938 202.444 255.93C202.388 255.93 202.328 255.922 202.276 255.918C202.164 255.91 202.052 255.906 201.936 255.906C201.836 255.906 201.728 255.906 201.632 255.914C201.464 255.922 201.292 255.938 201.132 255.954C198.648 256.258 196.588 257.926 195.728 260.19C195.524 260.722 195.388 261.29 195.328 261.878C195.308 262.05 195.296 262.234 195.296 262.41H188.444C188.372 259.014 185.76 256.25 182.432 255.934C182.328 255.922 182.216 255.914 182.108 255.91C182.008 255.91 181.9 255.902 181.8 255.902C181.628 255.902 181.46 255.91 181.296 255.922C181.224 255.93 181.14 255.934 181.072 255.946C178.768 256.198 176.82 257.626 175.836 259.618C175.584 260.126 175.4 260.674 175.288 261.246C175.216 261.626 175.168 262.014 175.164 262.41H168.312C168.24 259.094 165.748 256.378 162.536 255.966C162.432 255.95 162.328 255.942 162.224 255.934C162.08 255.918 161.94 255.91 161.796 255.91C161.756 255.91 161.708 255.91 161.672 255.91H161.64C161.548 255.91 161.46 255.91 161.368 255.918C161.18 255.93 160.996 255.946 160.808 255.97C160.744 255.982 160.684 255.99 160.62 255.998C158.74 256.298 157.128 257.378 156.132 258.898V258.906C155.816 259.374 155.568 259.878 155.384 260.418C155.172 261.046 155.052 261.718 155.036 262.414H148.176C148.108 258.906 145.32 256.074 141.836 255.918C141.74 255.918 141.636 255.91 141.532 255.91H141.504C139.584 255.922 137.86 256.742 136.644 258.054C136.276 258.458 135.956 258.914 135.688 259.402C135.192 260.302 134.912 261.326 134.892 262.418H128.04C127.972 259.23 125.664 256.598 122.628 256.03C122.432 255.99 122.232 255.958 122.028 255.942C121.924 255.93 121.812 255.922 121.704 255.918C121.604 255.918 121.5 255.91 121.4 255.91C121.3 255.91 121.196 255.91 121.096 255.918C121.012 255.918 120.936 255.926 120.86 255.934C120.772 255.942 120.684 255.95 120.596 255.958C120.432 255.978 120.268 256.006 120.104 256.038C120.016 256.058 119.928 256.074 119.84 256.094C119.776 256.11 119.72 256.126 119.656 256.142C118.876 256.354 118.156 256.702 117.52 257.158C117.08 257.474 116.684 257.846 116.332 258.254C115.372 259.382 114.788 260.834 114.752 262.414H107.9C107.828 259.058 105.276 256.314 102.004 255.954C101.916 255.942 101.832 255.934 101.744 255.93H101.728C101.656 255.922 101.588 255.918 101.52 255.918C101.428 255.91 101.344 255.91 101.256 255.91C101.148 255.91 101.04 255.91 100.94 255.918C100.828 255.918 100.728 255.93 100.624 255.942C100.416 255.962 100.208 255.99 100.012 256.026C99.6082 256.102 99.2202 256.218 98.8442 256.366C98.3442 256.562 97.8762 256.814 97.4442 257.118C95.7762 258.29 94.6682 260.226 94.6202 262.414H87.7642C87.6922 259.018 85.0802 256.25 81.7562 255.938C81.6482 255.926 81.5442 255.918 81.4322 255.914C81.3282 255.914 81.2282 255.906 81.1242 255.906C81.0402 255.906 80.9562 255.906 80.8682 255.906C80.7282 255.906 80.5922 255.918 80.4602 255.934C80.3842 255.942 80.3162 255.95 80.2482 255.958C79.8442 256.01 79.4562 256.102 79.0842 256.222C76.4562 257.074 74.5482 259.51 74.4842 262.406H67.6362C67.5762 259.558 65.7242 257.154 63.1642 256.274C63.0842 256.246 63.0002 256.218 62.9162 256.194C62.8802 256.178 62.8402 256.17 62.8002 256.158C62.7322 256.138 62.6682 256.122 62.6002 256.106C62.2842 256.022 61.9602 255.966 61.6282 255.938C61.5642 255.93 61.5122 255.926 61.4522 255.922C61.3602 255.914 61.2602 255.91 61.1602 255.906H61.1442C61.0922 255.906 61.0362 255.906 60.9882 255.906H60.9562C60.8522 255.906 60.7522 255.906 60.6482 255.914C60.4362 255.926 60.2282 255.946 60.0162 255.978C60.0162 255.978 60.0002 255.978 59.9962 255.978C56.8362 256.446 54.4162 259.134 54.3442 262.41H47.4922C47.4482 260.35 46.4722 258.526 44.9642 257.334C44.4882 256.958 43.9482 256.646 43.3802 256.406C42.6242 256.094 41.8002 255.914 40.9282 255.906C40.9042 255.906 40.8762 255.906 40.8482 255.906C40.6202 255.906 40.3922 255.918 40.1642 255.938C40.0682 255.95 39.9762 255.962 39.8802 255.974C39.7882 255.986 39.6922 255.998 39.6002 256.018C39.5082 256.038 39.4162 256.054 39.3242 256.078C36.6802 256.702 34.6442 258.902 34.2642 261.642C34.2322 261.894 34.2082 262.15 34.2042 262.41H27.3522C27.3282 261.422 27.0962 260.486 26.6882 259.654C26.3522 258.966 25.9082 258.346 25.3722 257.818C24.2482 256.71 22.7322 255.998 21.0482 255.914C20.9322 255.914 20.8282 255.906 20.7122 255.906C20.6202 255.906 20.5282 255.906 20.4362 255.914C20.3242 255.914 20.2202 255.926 20.1122 255.938C16.7642 256.234 14.1362 259.006 14.0642 262.414H7.21223C7.19623 261.582 7.02822 260.786 6.72822 260.058C5.80422 257.774 3.65222 256.13 1.08822 255.93C1.02822 255.93 0.968231 255.922 0.912231 255.918C0.840231 255.918 0.768224 255.918 0.692224 255.91H0.63623V248.994C3.75623 248.906 6.34823 246.674 6.96023 243.714C7.05223 243.274 7.10023 242.818 7.10023 242.35C7.10023 242.122 7.09223 241.89 7.06823 241.662C6.73223 238.434 4.09623 235.898 0.824231 235.722C0.760231 235.714 0.704222 235.706 0.640222 235.706V228.85C4.22822 228.75 7.10422 225.822 7.10422 222.214C7.10422 221.362 6.95222 220.554 6.65222 219.806C6.46422 219.306 6.20422 218.838 5.90422 218.406C5.76422 218.202 5.61222 218.01 5.45222 217.826C5.44422 217.818 5.43623 217.81 5.43223 217.806C4.25623 216.474 2.54422 215.622 0.640222 215.566V208.782C3.76022 208.694 6.35222 206.462 6.96422 203.502C7.05622 203.062 7.10422 202.606 7.10422 202.138C7.10422 202.078 7.10422 202.018 7.10422 201.958C7.10422 201.886 7.10423 201.818 7.09623 201.746C7.09623 201.646 7.08823 201.546 7.07223 201.45C7.06023 201.346 7.04823 201.246 7.03623 201.146C6.77223 199.198 5.66022 197.522 4.08022 196.498C3.44822 196.09 2.74422 195.782 1.98822 195.606C1.55622 195.502 1.10422 195.442 0.640222 195.43V188.642C4.04022 188.546 6.80022 185.91 7.07622 182.566C7.09622 182.382 7.10023 182.194 7.10023 182.006V181.934C7.10023 181.782 7.10022 181.63 7.08822 181.486C6.86422 178.086 4.07223 175.386 0.63623 175.29V168.502C0.70023 168.502 0.756227 168.502 0.820227 168.494C2.63623 168.394 4.26023 167.57 5.40023 166.298C6.33623 165.262 6.94423 163.926 7.06823 162.45C7.08022 162.342 7.08822 162.238 7.09222 162.13C7.10022 162.042 7.10023 161.954 7.10023 161.862V161.794C7.10023 160.69 6.83623 159.65 6.36023 158.734C6.08023 158.19 5.72023 157.69 5.31223 157.25C4.13623 155.998 2.48423 155.202 0.63623 155.15V148.362C3.80023 148.274 6.41623 145.982 6.98423 142.962C7.04423 142.674 7.07622 142.374 7.08822 142.074C7.09622 141.954 7.10023 141.842 7.10023 141.722C7.10023 141.646 7.10023 141.57 7.10023 141.498C7.10023 141.426 7.10022 141.35 7.09222 141.278C6.90022 137.842 4.10422 135.114 0.640222 135.018V128.23C4.22422 128.134 7.09222 125.214 7.10422 121.61V121.586C7.10422 121.45 7.10422 121.314 7.09222 121.178C7.07222 120.758 7.02023 120.346 6.92023 119.954C6.23223 117.098 3.69222 114.962 0.640222 114.878V108.094C2.37622 108.046 3.96423 107.326 5.12423 106.178C5.60823 105.71 6.02022 105.158 6.34022 104.558C6.42822 104.386 6.51222 104.206 6.58822 104.026C6.62822 103.934 6.66423 103.842 6.69623 103.75C6.73223 103.658 6.76822 103.566 6.79222 103.47C6.96022 102.938 7.06423 102.378 7.09623 101.798C7.10423 101.682 7.10823 101.57 7.10823 101.45C7.10823 101.33 7.10823 101.226 7.10023 101.114C7.10023 101.002 7.08822 100.898 7.07622 100.79C6.78422 97.4541 4.03223 94.8301 0.644226 94.7421V87.9541C0.804226 87.9541 0.956231 87.9381 1.11223 87.9261C1.26823 87.9101 1.42023 87.8901 1.57223 87.8621C1.77623 87.8301 1.97222 87.7901 2.16422 87.7341C2.26422 87.7101 2.36023 87.6821 2.45623 87.6501C2.55223 87.6261 2.64822 87.5901 2.74022 87.5541C2.83622 87.5221 2.92823 87.4821 3.02023 87.4421C3.11223 87.4061 3.20422 87.3661 3.29222 87.3221C3.38422 87.2821 3.47223 87.2381 3.55623 87.1901C3.64423 87.1461 3.72822 87.0981 3.81622 87.0461C3.90022 86.9981 3.98423 86.9461 4.06823 86.8901C4.15223 86.8381 4.23223 86.7861 4.31223 86.7221C5.94423 85.5621 7.02823 83.6861 7.10023 81.5501C7.10023 81.4981 7.10023 81.4421 7.10023 81.3861V81.2461C7.10023 81.1581 7.10022 81.0701 7.09222 80.9861C7.06822 80.2581 6.92422 79.5661 6.67622 78.9181C6.60822 78.7261 6.52822 78.5421 6.44022 78.3621C6.31222 78.0941 6.16423 77.8341 6.00023 77.5861C6.00023 77.5861 5.99222 77.5861 5.99222 77.5781C5.88422 77.4141 5.76822 77.2501 5.64022 77.0941C5.51622 76.9381 5.38023 76.7901 5.24423 76.6461C5.17623 76.5741 5.10423 76.5021 5.03223 76.4341C4.96023 76.3621 4.88823 76.2981 4.81223 76.2341C4.74023 76.1621 4.66023 76.1021 4.58423 76.0421C4.51223 75.9781 4.43623 75.9221 4.36023 75.8701C4.26823 75.8021 4.17623 75.7421 4.08423 75.6821C4.00823 75.6261 3.92823 75.5781 3.84823 75.5341C3.76423 75.4781 3.67622 75.4301 3.58822 75.3861C3.50422 75.3341 3.41623 75.2901 3.32423 75.2501C3.23223 75.2061 3.14023 75.1621 3.04823 75.1261C2.96023 75.0861 2.86822 75.0541 2.77622 75.0181C2.50422 74.9141 2.22423 74.8301 1.93623 74.7621C1.83623 74.7381 1.73222 74.7181 1.62822 74.7021C1.54422 74.6821 1.46023 74.6741 1.36823 74.6621C1.24023 74.6381 1.10823 74.6301 0.972229 74.6181C0.860229 74.6061 0.75223 74.6021 0.63623 74.5981V67.8101C1.12023 67.7981 1.58822 67.7341 2.04022 67.6221C2.87222 67.4181 3.63622 67.0621 4.31622 66.5781C5.86422 65.4741 6.91623 63.7141 7.07223 61.7101C7.08423 61.6101 7.08822 61.5101 7.09222 61.4101C7.10022 61.3341 7.10023 61.2541 7.10023 61.1741C7.10023 61.0581 7.10022 60.9501 7.09222 60.8381C7.09222 60.7301 7.08022 60.6261 7.06823 60.5181C7.01223 59.8381 6.85623 59.1901 6.60823 58.5861C5.63623 56.2221 3.33623 54.5421 0.63623 54.4701V47.6821C1.39223 47.6621 2.11222 47.5141 2.78022 47.2621C2.85222 47.2381 2.92022 47.2141 2.98822 47.1861C3.14022 47.1221 3.28823 47.0581 3.43223 46.9861C4.82823 46.2901 5.94023 45.1141 6.56023 43.6781C6.77623 43.1941 6.92823 42.6741 7.01223 42.1341C7.08023 41.7781 7.10422 41.4141 7.10422 41.0421C7.10422 37.4301 4.23222 34.4981 0.640222 34.3981V27.5421C1.39222 27.5221 2.10022 27.3741 2.77622 27.1301C5.30422 26.1981 7.10422 23.7621 7.10422 20.9061C7.10422 20.0141 6.93223 19.1581 6.61223 18.3821C5.64023 16.0181 3.34022 14.3381 0.640222 14.2661V7.43009C0.740222 7.43009 0.83223 7.43009 0.93623 7.42209C1.04023 7.41409 1.14823 7.40609 1.25623 7.39809C4.60823 7.05409 7.22822 4.22209 7.22822 0.778088C7.22822 0.714088 7.21622 0.658092 7.21622 0.594092H14.0682C14.0682 0.658092 14.0682 0.714088 14.0682 0.778088C14.0682 4.35809 16.8922 7.27809 20.4362 7.42209C20.5282 7.42209 20.6282 7.43009 20.7202 7.43009H20.7802C24.4242 7.39809 27.3642 4.42609 27.3642 0.778088C27.3642 0.714088 27.3522 0.658092 27.3522 0.594092H34.2122C34.2122 0.658092 34.2002 0.714088 34.2002 0.778088C34.2002 1.11409 34.2282 1.44209 34.2762 1.76209C34.7282 4.85409 37.3202 7.25009 40.4922 7.42209C40.6082 7.42209 40.7322 7.43009 40.8482 7.43009H40.8722C40.9842 7.43009 41.0842 7.43009 41.1962 7.41809C41.2682 7.41809 41.3402 7.41009 41.4122 7.40209C41.4882 7.40209 41.5602 7.39009 41.6322 7.37809C41.7442 7.36209 41.8482 7.35009 41.9642 7.33009C42.0762 7.31009 42.1842 7.29009 42.2882 7.26209C43.6002 6.97809 44.7642 6.30209 45.6522 5.36609C46.7922 4.17409 47.4962 2.55409 47.4962 0.774091C47.4962 0.710091 47.4882 0.654088 47.4882 0.590088H54.3442C54.3442 0.654088 54.3322 0.710091 54.3322 0.774091C54.3322 4.21809 56.9482 7.05009 60.3042 7.39409C60.3842 7.40209 60.4682 7.41009 60.5482 7.41409C60.5922 7.41409 60.6362 7.42209 60.6762 7.42209C60.7762 7.42209 60.8802 7.43009 60.9842 7.43009C61.0882 7.43009 61.1962 7.43009 61.3042 7.41809C61.4162 7.41809 61.5202 7.40609 61.6282 7.39409C61.6402 7.39409 61.6522 7.39409 61.6602 7.39409C62.0042 7.36209 62.3362 7.30209 62.6602 7.21809C63.3122 7.05009 63.9322 6.77409 64.4962 6.42209C66.3762 5.25009 67.6322 3.16209 67.6322 0.782092C67.6322 0.718092 67.6202 0.66209 67.6162 0.59809H74.4682C74.4682 0.66209 74.4682 0.718092 74.4682 0.782092C74.4682 3.41809 76.0082 5.69809 78.2362 6.78209C78.3882 6.85409 78.5402 6.92609 78.6962 6.98609C78.7762 7.01409 78.8562 7.04609 78.9402 7.07409C79.0562 7.11409 79.1722 7.15009 79.2922 7.18609C79.4522 7.23009 79.6082 7.27009 79.7722 7.30609C79.8882 7.33009 80.0042 7.35009 80.1242 7.37009C80.2162 7.38209 80.3082 7.39409 80.4002 7.40209C80.4162 7.40209 80.4242 7.40209 80.4402 7.40209C80.5522 7.41409 80.6562 7.42209 80.7722 7.42609H80.7842C80.8842 7.42609 80.9882 7.43409 81.0922 7.43409H81.1202C81.2322 7.43409 81.3402 7.43409 81.4402 7.42609C84.9642 7.25809 87.7722 4.34609 87.7722 0.782092C87.7722 0.718092 87.7602 0.66209 87.7602 0.59809H94.6202C94.6202 0.66209 94.6082 0.718092 94.6082 0.782092C94.6082 3.06209 95.7562 5.07409 97.5082 6.27009C97.9402 6.57409 98.4122 6.81409 98.9162 7.00609C99.2322 7.12609 99.5562 7.21809 99.8922 7.29009C99.9042 7.29009 99.9162 7.29809 99.9322 7.30209C100.084 7.33009 100.24 7.36209 100.4 7.37809C100.576 7.40209 100.76 7.41809 100.944 7.42609C101.048 7.42609 101.152 7.43409 101.252 7.43409C101.352 7.43409 101.46 7.43409 101.56 7.42609C105.088 7.26209 107.9 4.35009 107.9 0.782092C107.9 0.718092 107.888 0.66209 107.884 0.59809H114.74C114.74 0.66209 114.732 0.718092 114.732 0.782092C114.732 2.23809 115.204 3.59009 115.992 4.68609C116.312 5.12609 116.68 5.51809 117.096 5.86609C117.724 6.40209 118.456 6.81809 119.256 7.08609C119.264 7.08609 119.268 7.08609 119.28 7.09409C119.42 7.14209 119.568 7.18609 119.716 7.22209C119.716 7.22209 119.728 7.22209 119.732 7.22209C119.776 7.23409 119.824 7.24609 119.868 7.25009C119.988 7.27809 120.112 7.30609 120.236 7.32609C120.248 7.32609 120.26 7.32609 120.268 7.33409C120.436 7.35809 120.608 7.38609 120.78 7.40209C120.88 7.41009 120.976 7.41809 121.084 7.42209C121.184 7.42209 121.284 7.43009 121.388 7.43009C121.492 7.43009 121.6 7.43009 121.7 7.42209C125.22 7.25809 128.032 4.34609 128.032 0.778088C128.032 0.714088 128.032 0.658092 128.032 0.594092H134.884C134.884 0.658092 134.884 0.714088 134.884 0.778088C134.884 1.51409 135.004 2.22609 135.232 2.89009C135.412 3.43809 135.66 3.95409 135.972 4.42609C136.852 5.77009 138.204 6.77409 139.792 7.20209C139.808 7.20209 139.82 7.21009 139.836 7.21409H139.848C140.028 7.26609 140.216 7.30209 140.408 7.33409C140.504 7.35409 140.596 7.37009 140.696 7.38209C140.78 7.39009 140.86 7.39809 140.952 7.40609C141.044 7.41409 141.132 7.42209 141.224 7.43009C141.316 7.43009 141.408 7.43809 141.5 7.43809H141.528C145.208 7.43809 148.184 4.45809 148.184 0.78609C148.184 0.72209 148.168 0.666094 148.168 0.602094H155.032C155.032 0.666094 155.016 0.72209 155.016 0.78609C155.016 0.90609 155.016 1.02209 155.028 1.14209C155.06 1.77809 155.18 2.39009 155.384 2.96609C156.096 5.01809 157.784 6.61409 159.884 7.19809C159.924 7.21009 159.96 7.21809 160 7.22609C160.076 7.25009 160.164 7.26609 160.248 7.28609C160.352 7.31009 160.452 7.33409 160.556 7.35009C160.656 7.37009 160.76 7.38209 160.864 7.39409C160.948 7.40609 161.04 7.41409 161.128 7.41809C161.208 7.42609 161.288 7.43009 161.36 7.43409C161.468 7.43409 161.568 7.44209 161.668 7.44209C161.752 7.44209 161.844 7.44209 161.936 7.43409C165.48 7.29409 168.32 4.37009 168.32 0.790088C168.32 0.726088 168.312 0.670091 168.308 0.606091H175.164C175.164 0.670091 175.156 0.726088 175.156 0.790088C175.156 1.05409 175.172 1.31409 175.196 1.57409C175.576 4.77809 178.22 7.28209 181.488 7.43809C181.592 7.43809 181.7 7.44609 181.804 7.44609C181.996 7.44609 182.196 7.43809 182.388 7.42209C182.4 7.42209 182.412 7.42209 182.424 7.42209C182.748 7.39409 183.068 7.33809 183.38 7.25809C183.476 7.23409 183.58 7.20609 183.676 7.17809C185.524 6.64209 187.032 5.32209 187.832 3.61009C188.236 2.75809 188.456 1.80209 188.456 0.79809C188.456 0.73409 188.456 0.678093 188.456 0.614093H195.308C195.308 0.678093 195.296 0.73409 195.296 0.79809C195.296 3.76209 197.232 6.26609 199.908 7.13009C199.94 7.14209 199.972 7.15409 200 7.15809C200.116 7.19409 200.232 7.22609 200.352 7.25409C200.516 7.29409 200.684 7.33009 200.856 7.35809C200.96 7.38209 201.072 7.39409 201.18 7.40609C201.432 7.43409 201.688 7.45009 201.948 7.45009C202.04 7.45009 202.132 7.45009 202.228 7.44209C202.32 7.43409 202.412 7.42609 202.504 7.41809H202.512C202.512 7.41809 202.548 7.41809 202.564 7.41809C202.58 7.41809 202.592 7.41809 202.616 7.41809C202.632 7.41809 202.64 7.41809 202.664 7.41009C202.684 7.41009 202.696 7.41009 202.712 7.40209V14.2861C199.088 14.3381 196.164 17.2941 196.164 20.9301L196.128 20.9261Z"
    fill="#FAFAF9"
    filter="url(#grain)"
  />
  <path
    d="M99.6517 129.298C92.3117 129.298 84.8237 128.554 77.1877 127.066C69.5477 125.578 63.8437 123.578 60.0757 121.066C60.6037 118.026 60.8677 115.166 60.8677 112.486C60.8677 109.806 60.6037 106.718 60.0757 103.21C61.9917 105.458 65.1357 107.558 69.4997 109.51C73.8637 111.462 78.7757 113.014 84.2277 114.174C89.6837 115.33 94.8237 115.91 99.6517 115.91C105.472 115.91 109.952 115.086 113.092 113.43C116.232 111.778 117.804 109.398 117.804 106.286C117.804 102.45 115.72 99.7581 111.552 98.2021C107.388 96.6501 101.668 95.8701 94.3917 95.8701C92.8037 95.8701 90.9717 95.9541 88.8877 96.1181C86.8077 96.2861 84.7037 96.4661 82.5877 96.6661L75.0477 97.2621C75.3117 95.3461 75.4437 93.3621 75.4437 91.3101C75.4437 89.2581 75.3117 87.3101 75.0477 85.4581L76.7357 85.6581C78.6517 85.8581 80.7517 86.0541 83.0357 86.2541C85.3157 86.4541 87.7797 86.5501 90.4237 86.5501C99.4837 86.5501 105.832 85.5741 109.472 83.6261C113.108 81.6781 114.928 79.0461 114.928 75.7421C114.928 72.4381 113.408 70.2701 110.364 69.0461C107.32 67.8221 103.256 67.2101 98.1637 67.2101C91.0237 67.2101 84.2757 67.9381 77.9277 69.3941C71.5797 70.8501 65.8597 73.2621 60.7677 76.6341C61.4957 73.9221 61.8757 70.9461 61.9077 67.7061C61.9397 64.4661 61.6237 61.4901 60.9637 58.7781C66.3197 56.7941 72.5837 55.2261 79.7597 54.0661C86.9357 52.9101 93.6637 52.3301 99.9477 52.3301C111.256 52.3301 120.164 53.9501 126.68 57.1901C133.192 60.4301 136.448 65.2261 136.448 71.5741C136.448 75.2101 135.388 78.3181 133.272 80.8981C131.156 83.4781 128.476 85.4941 125.236 86.9501C121.996 88.4061 118.656 89.2981 115.216 89.6301V91.2181C123.548 91.7501 130.096 93.5181 134.856 96.5261C139.616 99.5381 141.996 103.686 141.996 108.974C141.996 116.114 137.896 121.29 129.696 124.498C121.496 127.706 111.476 129.31 99.6397 129.31L99.6517 129.298Z"
    fill="#FF5729"
    filter="url(#inset-shadow)"
  />
  <path
    d="M101.04 225.202C92.444 225.202 84.956 224.39 78.572 222.77C72.192 221.15 67.264 218.77 63.792 215.63C60.32 212.49 58.584 208.734 58.584 204.37C58.584 200.998 59.544 198.038 61.46 195.494C63.376 192.95 66.22 190.93 69.992 189.442C73.76 187.954 78.388 187.046 83.88 186.714V185.126C78.128 184.53 73.332 182.994 69.496 180.514C65.66 178.034 63.744 174.15 63.744 168.858C63.744 164.562 65.248 160.874 68.256 157.798C71.264 154.722 75.56 152.374 81.152 150.754C86.74 149.134 93.368 148.322 101.04 148.322C108.712 148.322 115.34 149.134 120.928 150.754C126.516 152.374 130.812 154.722 133.824 157.798C136.832 160.874 138.336 164.558 138.336 168.858C138.336 174.15 136.42 178.034 132.584 180.514C128.748 182.994 123.952 184.53 118.2 185.126V186.714C123.688 187.046 128.316 187.954 132.088 189.442C135.86 190.93 138.7 192.946 140.62 195.494C142.536 198.042 143.496 200.998 143.496 204.37C143.496 208.734 141.76 212.49 138.288 215.63C134.816 218.77 129.892 221.15 123.508 222.77C117.128 224.39 109.636 225.202 101.044 225.202H101.04ZM101.04 212.406C104.876 212.406 108.332 211.958 111.404 211.066C114.48 210.174 116.876 208.87 118.596 207.15C120.316 205.43 121.176 203.414 121.176 201.098C121.176 197.662 119.308 194.934 115.572 192.914C111.836 190.898 106.992 189.89 101.04 189.89C97.136 189.89 93.664 190.334 90.624 191.23C87.58 192.122 85.2 193.414 83.484 195.098C81.764 196.782 80.904 198.786 80.904 201.098C80.904 203.41 81.764 205.43 83.484 207.15C85.204 208.87 87.6 210.174 90.676 211.066C93.752 211.958 97.204 212.406 101.04 212.406ZM101.04 182.546C106.528 182.546 110.76 181.638 113.736 179.818C116.712 178.002 118.2 175.538 118.2 172.43C118.2 170.382 117.52 168.578 116.168 167.022C114.812 165.47 112.844 164.278 110.268 163.45C107.688 162.626 104.612 162.21 101.044 162.21C97.476 162.21 94.396 162.626 91.82 163.45C89.24 164.278 87.272 165.47 85.92 167.022C84.564 168.578 83.888 170.378 83.888 172.43C83.888 175.538 85.376 178.002 88.352 179.818C91.328 181.638 95.556 182.546 101.048 182.546H101.04Z"
    fill="#FF5729"
  />
  <path
    d="M28.0124 213.43C28.7084 213.43 29.3084 213.582 29.8124 213.882C30.3164 214.186 30.7004 214.626 30.9644 215.202C31.2284 215.778 31.3644 216.47 31.3644 217.27C31.3644 218.07 31.2324 218.802 30.9644 219.374C30.7004 219.946 30.3164 220.374 29.8164 220.662C29.3164 220.95 28.7164 221.094 28.0124 221.094C27.3084 221.094 26.6804 221.102 26.1244 221.114C25.5684 221.13 25.1204 221.15 24.7804 221.178C24.8324 220.866 24.8564 220.542 24.8604 220.202C24.8604 219.862 24.8364 219.55 24.7804 219.27C25.1244 219.298 25.5724 219.318 26.1244 219.334C26.6764 219.35 27.3204 219.354 28.0524 219.354C28.5124 219.354 28.9004 219.278 29.2244 219.126C29.5484 218.974 29.7924 218.742 29.9684 218.43C30.1404 218.118 30.2284 217.73 30.2284 217.266C30.2284 216.802 30.1404 216.422 29.9684 216.114C29.7964 215.802 29.5484 215.57 29.2204 215.414C28.8964 215.258 28.5084 215.182 28.0524 215.182C27.2764 215.182 26.6204 215.186 26.0844 215.198C25.5484 215.21 25.1124 215.23 24.7764 215.258C24.8284 214.946 24.8524 214.622 24.8564 214.278C24.8604 213.934 24.8324 213.626 24.7764 213.35C25.1004 213.378 25.5484 213.398 26.1284 213.41C26.7084 213.422 27.3364 213.426 28.0084 213.426L28.0124 213.43Z"
    fill="#FF5729"
  />
  <path
    d="M31.144 211.358C30.408 211.294 29.348 211.266 27.964 211.266C26.58 211.266 25.52 211.298 24.784 211.358C24.788 210.934 24.792 210.538 24.792 210.174C24.792 209.81 24.788 209.458 24.776 209.118C24.764 208.882 24.756 208.638 24.756 208.39C24.756 208.142 24.752 207.878 24.752 207.602C24.752 206.358 24.904 205.442 25.216 204.85C25.528 204.258 25.996 203.962 26.628 203.962C27.108 203.962 27.492 204.114 27.772 204.426C28.056 204.734 28.252 205.094 28.36 205.498C28.472 205.906 28.524 206.278 28.524 206.618H28.66C28.8 205.85 29.116 205.234 29.604 204.77C30.092 204.306 30.608 203.946 31.144 203.694V206.13C30.628 206.182 30.212 206.298 29.892 206.478C29.572 206.658 29.328 206.918 29.164 207.258C28.996 207.598 28.888 208.042 28.836 208.59C28.82 208.726 28.808 208.878 28.804 209.042C28.8 209.21 28.796 209.378 28.796 209.546C29.62 209.522 30.092 209.51 30.204 209.502C30.372 209.498 30.536 209.486 30.688 209.474C30.84 209.462 30.992 209.446 31.148 209.434V211.358H31.144ZM27.74 209.554L27.764 209.154C27.776 208.938 27.788 208.71 27.796 208.462C27.808 208.218 27.812 207.974 27.812 207.738C27.812 207.318 27.776 206.97 27.7 206.686C27.624 206.402 27.516 206.19 27.364 206.046C27.216 205.902 27.028 205.83 26.8 205.83C26.476 205.83 26.244 205.99 26.096 206.31C25.948 206.63 25.876 207.082 25.876 207.662C25.876 207.878 25.876 208.09 25.88 208.302C25.88 208.514 25.888 208.718 25.9 208.91L25.908 209.522C26.192 209.534 26.484 209.542 26.784 209.546C27.088 209.55 27.4 209.554 27.732 209.554H27.74Z"
    fill="#FF5729"
  />
  <path
    d="M28.0124 194.578C28.7084 194.578 29.3084 194.73 29.8124 195.03C30.3164 195.334 30.7004 195.774 30.9644 196.35C31.2284 196.926 31.3644 197.618 31.3644 198.418C31.3644 199.218 31.2324 199.95 30.9644 200.522C30.7004 201.094 30.3164 201.522 29.8164 201.81C29.3164 202.098 28.7164 202.242 28.0124 202.242C27.3084 202.242 26.6804 202.25 26.1244 202.262C25.5684 202.278 25.1204 202.298 24.7804 202.326C24.8324 202.014 24.8564 201.69 24.8604 201.35C24.8604 201.01 24.8364 200.698 24.7804 200.418C25.1244 200.446 25.5724 200.466 26.1244 200.482C26.6764 200.498 27.3204 200.502 28.0524 200.502C28.5124 200.502 28.9004 200.426 29.2244 200.274C29.5484 200.122 29.7924 199.89 29.9684 199.578C30.1404 199.266 30.2284 198.878 30.2284 198.414C30.2284 197.95 30.1404 197.57 29.9684 197.262C29.7964 196.95 29.5484 196.718 29.2204 196.562C28.8964 196.406 28.5084 196.33 28.0524 196.33C27.2764 196.33 26.6204 196.334 26.0844 196.346C25.5484 196.358 25.1124 196.378 24.7764 196.406C24.8284 196.094 24.8524 195.77 24.8564 195.426C24.8604 195.082 24.8324 194.774 24.7764 194.498C25.1004 194.526 25.5484 194.546 26.1284 194.558C26.7084 194.57 27.3364 194.574 28.0084 194.574L28.0124 194.578Z"
    fill="#FF5729"
  />
  <path
    d="M31.2721 188.422C31.2721 189.362 31.1361 190.162 30.8641 190.826C30.5921 191.49 30.2041 191.994 29.7001 192.334C29.1961 192.678 28.6041 192.846 27.9281 192.846C27.2161 192.846 26.6121 192.666 26.1161 192.302C25.6201 191.942 25.2481 191.418 24.9961 190.738C24.7441 190.058 24.6201 189.242 24.6201 188.298C24.6201 187.67 24.6761 187.006 24.7841 186.302C24.8961 185.598 25.0801 184.934 25.3401 184.306C25.6641 184.35 25.9601 184.374 26.2361 184.374C26.5121 184.374 26.7521 184.354 26.9601 184.314C26.6161 184.85 26.3441 185.466 26.1401 186.162C25.9401 186.858 25.8401 187.57 25.8401 188.298C25.8401 188.87 25.9241 189.362 26.0961 189.778C26.2641 190.194 26.5081 190.51 26.8201 190.734C27.1361 190.954 27.5041 191.066 27.9281 191.066C28.3521 191.066 28.7241 190.962 29.0481 190.75C29.3721 190.542 29.6201 190.238 29.8001 189.838C29.9801 189.438 30.0681 188.966 30.0681 188.418C30.0681 187.926 29.9801 187.434 29.8081 186.942C29.6361 186.45 29.3201 186.038 28.8601 185.71C28.8601 185.93 28.8601 186.154 28.8641 186.374C28.8641 186.598 28.8761 186.818 28.8841 187.03C28.8961 187.462 28.9161 187.85 28.9441 188.202C28.9721 188.554 29.0081 188.822 29.0441 189.006C28.8441 188.966 28.6161 188.95 28.3481 188.958C28.0841 188.966 27.8281 188.994 27.5841 189.038C27.6241 188.27 27.6441 187.462 27.6441 186.618C27.6441 185.774 27.6241 184.986 27.5841 184.266C27.8481 184.306 28.1601 184.326 28.5121 184.326C28.8641 184.326 29.1921 184.306 29.4921 184.266C30.0521 184.63 30.4881 185.186 30.8001 185.946C31.1121 186.702 31.2681 187.526 31.2681 188.414L31.2721 188.422Z"
    fill="#FF5729"
  />
  <path
    d="M28.0124 174.822C28.7084 174.822 29.3084 174.974 29.8124 175.274C30.3164 175.578 30.7004 176.018 30.9644 176.594C31.2284 177.17 31.3644 177.862 31.3644 178.662C31.3644 179.462 31.2324 180.194 30.9644 180.766C30.7004 181.338 30.3164 181.766 29.8164 182.054C29.3164 182.342 28.7164 182.486 28.0124 182.486C27.3084 182.486 26.6804 182.494 26.1244 182.506C25.5684 182.522 25.1204 182.542 24.7804 182.57C24.8324 182.258 24.8564 181.934 24.8604 181.594C24.8604 181.254 24.8364 180.942 24.7804 180.662C25.1244 180.69 25.5724 180.71 26.1244 180.726C26.6764 180.742 27.3204 180.746 28.0524 180.746C28.5124 180.746 28.9004 180.67 29.2244 180.518C29.5484 180.366 29.7924 180.134 29.9684 179.822C30.1404 179.51 30.2284 179.122 30.2284 178.658C30.2284 178.194 30.1404 177.814 29.9684 177.506C29.7964 177.194 29.5484 176.962 29.2204 176.806C28.8964 176.65 28.5084 176.574 28.0524 176.574C27.2764 176.574 26.6204 176.578 26.0844 176.59C25.5484 176.602 25.1124 176.622 24.7764 176.65C24.8284 176.338 24.8524 176.014 24.8564 175.67C24.8604 175.326 24.8324 175.018 24.7764 174.742C25.1004 174.77 25.5484 174.79 26.1284 174.802C26.7084 174.814 27.3364 174.818 28.0084 174.818L28.0124 174.822Z"
    fill="#FF5729"
  />
  <path
    d="M31.1442 173.814C30.6522 173.578 30.1322 173.334 29.5842 173.086C29.0362 172.838 28.4962 172.598 27.9642 172.366C26.8322 171.878 25.7722 171.442 24.7842 171.05C24.8362 170.65 24.8642 170.15 24.8682 169.558C24.8722 168.966 24.8442 168.502 24.7842 168.166C25.9162 167.714 26.9762 167.27 27.9642 166.834C28.8122 166.466 29.8722 165.982 31.1442 165.382V167.486C30.5802 167.666 29.9162 167.906 29.1602 168.198C28.3562 168.51 27.6282 168.802 26.9762 169.078C26.3242 169.354 25.8962 169.55 25.6922 169.678V169.618C25.9762 169.782 26.8762 170.162 28.3882 170.754C28.8682 170.942 29.3442 171.122 29.8122 171.302C30.2802 171.482 30.7242 171.65 31.1442 171.806V173.818V173.814ZM28.8682 171.114C28.8922 170.666 28.9002 170.162 28.9002 169.594C28.9002 169.026 28.8882 168.522 28.8682 168.074L29.9202 167.726C29.8962 168.274 29.8882 168.914 29.8882 169.646C29.8882 170.378 29.9002 171.018 29.9202 171.566L28.8682 171.11V171.114Z"
    fill="#FF5729"
  />
  <path
    d="M31.1441 162.938C30.7601 162.894 30.3761 162.87 29.9961 162.87C29.6161 162.87 29.2361 162.894 28.8561 162.938C28.2281 163.398 27.5401 163.926 26.7881 164.534C26.0801 165.094 25.4121 165.646 24.7881 166.186C24.8401 165.818 24.8641 165.434 24.8681 165.034C24.8721 164.634 24.8441 164.302 24.7881 164.042C25.2641 163.75 25.8041 163.402 26.4081 162.998C27.0361 162.562 27.5521 162.194 27.9601 161.886V162.15C27.4161 161.742 26.9001 161.374 26.4081 161.046C25.9001 160.694 25.3601 160.346 24.7881 160.002C24.8441 159.742 24.8721 159.422 24.8681 159.038C24.8681 158.658 24.8401 158.282 24.7881 157.914C25.4001 158.438 26.0681 158.99 26.7881 159.57C27.1281 159.842 27.4681 160.11 27.8161 160.374C28.1601 160.638 28.5081 160.902 28.8601 161.162C29.2321 161.202 29.6121 161.222 29.9921 161.222C30.3721 161.222 30.7601 161.198 31.1481 161.154V162.934L31.1441 162.938Z"
    fill="#FF5729"
  />
  <path
    d="M31.1442 158.722C30.6522 158.486 30.1322 158.242 29.5842 157.994C29.0362 157.746 28.4962 157.506 27.9642 157.274C26.8322 156.786 25.7722 156.35 24.7842 155.958C24.8362 155.558 24.8642 155.058 24.8682 154.466C24.8722 153.874 24.8442 153.41 24.7842 153.074C25.9162 152.622 26.9762 152.178 27.9642 151.742C28.8122 151.374 29.8722 150.89 31.1442 150.29V152.394C30.5802 152.574 29.9162 152.814 29.1602 153.106C28.3562 153.418 27.6282 153.71 26.9762 153.986C26.3242 154.262 25.8962 154.458 25.6922 154.586V154.526C25.9762 154.69 26.8762 155.07 28.3882 155.662C28.8682 155.85 29.3442 156.03 29.8122 156.21C30.2802 156.39 30.7242 156.558 31.1442 156.714V158.726V158.722ZM28.8682 156.026C28.8922 155.578 28.9002 155.074 28.9002 154.506C28.9002 153.938 28.8882 153.434 28.8682 152.986L29.9202 152.638C29.8962 153.186 29.8882 153.826 29.8882 154.558C29.8882 155.29 29.9002 155.93 29.9202 156.478L28.8682 156.022V156.026Z"
    fill="#FF5729"
  />
  <path
    d="M31.1442 148.722C30.0802 148.678 29.0202 148.654 27.9602 148.654C26.9002 148.654 25.8402 148.678 24.7842 148.722C24.8282 148.366 24.8522 147.934 24.8562 147.43C24.8562 146.922 24.8362 146.514 24.7842 146.194C25.4282 145.77 26.0682 145.334 26.7042 144.894C27.3402 144.45 27.9722 143.994 28.6002 143.522C28.9042 143.298 29.2082 143.07 29.5082 142.838C29.8082 142.61 30.1082 142.378 30.4082 142.146L30.5442 142.682C29.5882 142.65 28.6282 142.638 27.6602 142.658C27.1962 142.662 26.7202 142.674 26.2362 142.686C25.7482 142.702 25.2682 142.722 24.7842 142.75C24.8362 142.426 24.8602 142.114 24.8642 141.81C24.8642 141.506 24.8402 141.21 24.7842 140.926C25.3162 140.942 25.8442 140.954 26.3762 140.966C26.9042 140.974 27.4402 140.978 27.9762 140.978C29.0282 140.978 30.0842 140.954 31.1482 140.902V143.37C30.6682 143.694 30.1922 144.022 29.7282 144.354C29.2602 144.686 28.8002 145.022 28.3402 145.362C27.4242 146.042 26.5122 146.75 25.6002 147.49L25.4642 146.954C26.3962 146.982 27.3362 146.99 28.2842 146.974C29.2322 146.958 30.1842 146.926 31.1482 146.866V148.714L31.1442 148.722Z"
    fill="#FF5729"
  />
  <path
    d="M31.296 131.21C31.296 132.138 31.16 132.934 30.884 133.598C30.608 134.262 30.22 134.77 29.712 135.118C29.204 135.466 28.612 135.638 27.928 135.638C27.212 135.638 26.6 135.45 26.104 135.078C25.608 134.706 25.232 134.174 24.98 133.486C24.728 132.798 24.604 131.982 24.604 131.038C24.604 130.482 24.656 129.918 24.76 129.346C24.864 128.77 25.048 128.166 25.308 127.526C25.604 127.566 25.872 127.586 26.112 127.586C26.352 127.586 26.628 127.566 26.928 127.526C26.528 128.158 26.244 128.762 26.08 129.338C25.916 129.914 25.832 130.446 25.824 130.946C25.82 131.538 25.896 132.054 26.06 132.49C26.224 132.926 26.464 133.262 26.78 133.498C27.096 133.734 27.48 133.854 27.924 133.854C28.368 133.854 28.72 133.746 29.044 133.534C29.368 133.322 29.62 133.002 29.8 132.578C29.98 132.154 30.072 131.626 30.072 131.002C30.072 130.378 29.96 129.746 29.732 129.166C29.504 128.586 29.148 128.046 28.656 127.542C28.924 127.57 29.18 127.57 29.436 127.542C29.692 127.514 29.956 127.474 30.232 127.422C30.588 127.926 30.856 128.478 31.028 129.078C31.204 129.678 31.292 130.386 31.292 131.206L31.296 131.21Z"
    fill="#FF5729"
  />
  <path
    d="M31.1442 125.478C30.4082 125.414 29.3482 125.386 27.9642 125.386C26.5802 125.386 25.5202 125.418 24.7842 125.478C24.8122 125.27 24.8362 124.85 24.8562 124.222C24.8762 123.594 24.8882 122.918 24.8962 122.194C24.9002 121.362 24.8962 120.61 24.8842 119.938C24.8682 119.266 24.8482 118.762 24.8122 118.43C25.0682 118.454 25.3242 118.462 25.5802 118.462C25.8362 118.462 26.0922 118.45 26.3482 118.43C26.2802 118.674 26.2202 119.002 26.1602 119.418C26.1042 119.834 26.0562 120.306 26.0162 120.83C25.9842 121.346 25.9562 121.846 25.9402 122.334C25.9242 122.822 25.9162 123.25 25.9242 123.618C26.1842 123.63 26.4442 123.638 26.7042 123.642C26.9642 123.646 27.2242 123.646 27.4842 123.642C27.5002 122.902 27.4962 122.082 27.4642 121.19C27.4322 120.298 27.3922 119.574 27.3402 119.018C27.5442 119.042 27.7562 119.05 27.9762 119.05C28.1962 119.05 28.4082 119.038 28.6122 119.018C28.5682 119.582 28.5282 120.314 28.5002 121.206C28.4722 122.098 28.4682 122.91 28.4922 123.642C29.0802 123.642 29.5882 123.626 30.0122 123.598C30.0162 123.198 30.0122 122.75 29.9962 122.258C29.9802 121.766 29.9522 121.282 29.9122 120.806C29.8802 120.31 29.8322 119.85 29.7762 119.426C29.7202 119.006 29.6562 118.67 29.5882 118.422C29.8442 118.446 30.1042 118.454 30.3682 118.454C30.6322 118.454 30.8962 118.442 31.1482 118.422V125.47L31.1442 125.478Z"
    fill="#FF5729"
  />
  <path
    d="M31.1442 116.434C30.0802 116.39 29.0202 116.366 27.9602 116.366C26.9002 116.366 25.8402 116.39 24.7842 116.434C24.8282 116.078 24.8522 115.646 24.8562 115.142C24.8562 114.634 24.8362 114.226 24.7842 113.906C25.4282 113.482 26.0682 113.046 26.7042 112.602C27.3402 112.158 27.9722 111.702 28.6002 111.234C28.9042 111.006 29.2082 110.782 29.5082 110.55C29.8082 110.322 30.1082 110.09 30.4082 109.858L30.5442 110.394C29.5882 110.362 28.6282 110.35 27.6602 110.37C27.1962 110.374 26.7202 110.386 26.2362 110.398C25.7522 110.41 25.2682 110.434 24.7842 110.462C24.8362 110.138 24.8602 109.826 24.8642 109.522C24.8642 109.218 24.8402 108.922 24.7842 108.638C25.3162 108.654 25.8442 108.666 26.3762 108.678C26.9042 108.686 27.4402 108.69 27.9762 108.69C29.0282 108.69 30.0842 108.666 31.1482 108.614V111.082C30.6682 111.406 30.1922 111.734 29.7282 112.066C29.2602 112.398 28.8002 112.738 28.3402 113.074C27.4242 113.754 26.5122 114.462 25.6002 115.202L25.4642 114.666C26.3962 114.694 27.3362 114.702 28.2842 114.686C29.2322 114.67 30.1842 114.638 31.1482 114.578V116.426L31.1442 116.434Z"
    fill="#FF5729"
  />
  <path
    d="M31.1442 104.186C30.5802 104.134 29.7842 104.106 28.7562 104.098C27.7282 104.09 26.7842 104.098 25.9202 104.126C25.9322 104.742 25.9602 105.278 26.0082 105.734C26.0562 106.19 26.1242 106.626 26.2082 107.046C25.9722 107.002 25.7322 106.978 25.4962 106.978C25.2602 106.978 25.0202 107.002 24.7842 107.046C24.8242 105.598 24.8442 104.322 24.8442 103.21C24.8442 102.098 24.8242 100.822 24.7842 99.374C25.0202 99.414 25.2602 99.434 25.4962 99.434C25.7322 99.434 25.9722 99.414 26.2082 99.374C26.1242 99.798 26.0562 100.238 26.0082 100.698C25.9602 101.158 25.9322 101.698 25.9202 102.318C26.7962 102.346 27.7482 102.35 28.7682 102.334C29.7922 102.318 30.5842 102.282 31.1442 102.234V104.186Z"
    fill="#FF5729"
  />
  <path
    d="M24.052 95.15C23.844 94.934 23.444 94.614 22.856 94.19C22.844 94.178 22.772 94.126 22.644 94.03C22.684 93.822 22.704 93.45 22.704 92.922C22.704 92.394 22.684 92.026 22.644 91.814C22.756 91.99 22.876 92.17 23 92.362C23.124 92.55 23.248 92.742 23.372 92.934C23.7 93.426 23.928 93.758 24.052 93.926C24.04 94.022 24.036 94.226 24.036 94.538C24.036 94.85 24.04 95.054 24.052 95.15ZM31.144 97.806C30.408 97.742 29.348 97.714 27.964 97.714C26.58 97.714 25.52 97.746 24.784 97.806C24.812 97.598 24.836 97.178 24.856 96.55C24.876 95.922 24.888 95.246 24.896 94.522C24.9 93.69 24.896 92.938 24.884 92.266C24.868 91.594 24.848 91.09 24.812 90.758C25.068 90.782 25.324 90.79 25.58 90.79C25.836 90.79 26.092 90.778 26.348 90.758C26.28 91.002 26.22 91.33 26.16 91.746C26.104 92.162 26.056 92.634 26.016 93.158C25.984 93.674 25.956 94.174 25.94 94.662C25.924 95.15 25.916 95.578 25.924 95.946C26.184 95.958 26.444 95.966 26.704 95.97C26.964 95.974 27.224 95.974 27.484 95.97C27.5 95.23 27.496 94.41 27.464 93.518C27.432 92.626 27.392 91.902 27.34 91.346C27.544 91.37 27.756 91.378 27.976 91.378C28.196 91.378 28.408 91.366 28.612 91.346C28.568 91.91 28.528 92.642 28.5 93.534C28.472 94.426 28.468 95.238 28.492 95.97C29.08 95.97 29.588 95.954 30.012 95.926C30.016 95.526 30.012 95.078 29.996 94.586C29.98 94.094 29.952 93.61 29.912 93.134C29.88 92.638 29.832 92.178 29.776 91.754C29.72 91.334 29.656 90.998 29.588 90.75C29.844 90.774 30.104 90.782 30.368 90.782C30.632 90.782 30.896 90.77 31.148 90.75V97.798L31.144 97.806Z"
    fill="#FF5729"
  />
  <path
    d="M31.2442 84.834C31.2442 85.558 31.1761 86.27 31.0401 86.974C30.9041 87.678 30.7281 88.322 30.5161 88.902C30.2322 88.858 29.9522 88.834 29.6722 88.834C29.3922 88.834 29.1122 88.858 28.8362 88.902C29.2322 88.518 29.5322 87.926 29.7362 87.134C29.9402 86.342 30.0401 85.514 30.0401 84.662C30.0401 84.118 29.9802 83.726 29.8602 83.482C29.7402 83.238 29.5602 83.118 29.3162 83.118C29.1082 83.118 28.9522 83.194 28.8482 83.346C28.7482 83.498 28.6681 83.738 28.6161 84.062C28.5641 84.386 28.5042 84.918 28.4442 85.654C28.3762 86.406 28.2801 87.018 28.1521 87.494C28.0241 87.97 27.8362 88.334 27.5922 88.59C27.3442 88.846 27.0162 88.97 26.6042 88.97C25.9522 88.97 25.4682 88.682 25.1442 88.102C24.8202 87.522 24.6602 86.642 24.6602 85.458C24.6602 84.814 24.6921 84.242 24.7521 83.742C24.8161 83.242 24.9082 82.726 25.0322 82.194C25.1002 81.882 25.1442 81.686 25.1682 81.61C25.3482 81.638 25.5322 81.658 25.7202 81.666C25.9082 81.674 26.0922 81.674 26.2802 81.662C26.3602 81.658 26.4401 81.65 26.5161 81.642C26.5961 81.634 26.6761 81.622 26.7521 81.614C26.4841 82.198 26.2722 82.814 26.1082 83.462C25.9442 84.11 25.8602 84.798 25.8602 85.522C25.8602 86.086 25.9162 86.498 26.0242 86.746C26.1362 86.998 26.3082 87.122 26.5442 87.122C26.7442 87.122 26.9001 87.05 27.0161 86.91C27.1321 86.77 27.2202 86.542 27.2842 86.226C27.3482 85.91 27.4002 85.47 27.4442 84.898C27.4562 84.73 27.4681 84.602 27.4761 84.518C27.5441 83.778 27.6402 83.174 27.7682 82.706C27.8962 82.238 28.0842 81.882 28.3322 81.638C28.5802 81.394 28.9082 81.27 29.3162 81.27C29.9601 81.27 30.4402 81.566 30.7562 82.154C31.0722 82.742 31.2322 83.634 31.2322 84.834H31.2442Z"
    fill="#FF5729"
  />
  <path
    d="M31.1442 79.2779C30.4082 79.2139 29.3482 79.1859 27.9642 79.1859C26.5802 79.1859 25.5202 79.2179 24.7842 79.2779C24.8362 78.9379 24.8602 78.6099 24.8642 78.2899C24.8642 77.9699 24.8402 77.6579 24.7842 77.3539C25.5362 77.4179 26.6082 77.4459 27.9962 77.4379C29.3842 77.4339 30.4362 77.3939 31.1482 77.3259V79.2779H31.1442Z"
    fill="#FF5729"
  />
  <path
    d="M31.1442 75.1221C30.4082 75.0581 29.3482 75.0301 27.9642 75.0301C26.5802 75.0301 25.5202 75.0621 24.7842 75.1221C24.8282 74.7821 24.8522 74.3301 24.8562 73.7701C24.8562 73.2061 24.8362 72.7781 24.7842 72.4781C25.7282 72.1661 26.5802 71.8661 27.3362 71.5781C28.0642 71.3021 28.8922 70.9621 29.8122 70.5621L29.8042 70.8501C29.1162 70.5261 28.2882 70.1701 27.3282 69.7821C26.4402 69.4301 25.5922 69.1221 24.7842 68.8501C24.8362 68.5341 24.8602 68.0981 24.8602 67.5461C24.8602 66.9941 24.8362 66.5621 24.7842 66.2421C25.5362 66.3061 26.6082 66.3341 27.9962 66.3261C29.3842 66.3221 30.4362 66.2821 31.1482 66.2141V68.1221C30.7362 68.0901 30.0082 68.0581 28.9682 68.0381C27.7562 68.0221 26.7162 68.0221 25.8482 68.0461L25.8322 67.7341C26.6402 68.1141 27.5722 68.5181 28.6242 68.9461C29.4402 69.2781 30.2882 69.6061 31.1762 69.9221V71.4981C30.3162 71.8021 29.4682 72.1261 28.6322 72.4661C27.6242 72.8781 26.7042 73.2821 25.8682 73.6701L25.8762 73.3661C26.7322 73.3821 27.7042 73.3821 28.7962 73.3661C29.8882 73.3501 30.6722 73.3141 31.1562 73.2661V75.1221H31.1442Z"
    fill="#FF5729"
  />
  <path
    d="M31.2881 60.0061C31.2881 60.9101 31.1561 61.6901 30.8921 62.3381C30.6281 62.9901 30.2481 63.4861 29.7481 63.8301C29.2481 64.1741 28.6481 64.3461 27.9441 64.3461C27.2401 64.3461 26.6401 64.1741 26.1401 63.8301C25.6401 63.4861 25.2561 62.9861 24.9961 62.3381C24.7321 61.6861 24.6001 60.9101 24.6001 60.0061C24.6001 59.1021 24.7321 58.3221 24.9961 57.6741C25.2601 57.0221 25.6401 56.5261 26.1401 56.1861C26.6401 55.8461 27.2401 55.6741 27.9441 55.6741C28.6481 55.6741 29.2441 55.8461 29.7481 56.1861C30.2481 56.5301 30.6321 57.0261 30.8921 57.6741C31.1561 58.3261 31.2881 59.1021 31.2881 60.0061ZM30.1601 60.0061C30.1601 59.4701 30.0761 59.0061 29.9041 58.6221C29.7361 58.2381 29.4881 57.9421 29.1601 57.7381C28.8361 57.5341 28.4441 57.4341 27.9841 57.4341C27.5241 57.4341 27.1121 57.5341 26.7761 57.7381C26.4401 57.9421 26.1841 58.2341 26.0041 58.6221C25.8241 59.0061 25.7361 59.4661 25.7361 60.0061C25.7361 60.5461 25.8241 61.0101 26.0041 61.3941C26.1841 61.7741 26.4401 62.0661 26.7761 62.2661C27.1121 62.4661 27.5161 62.5661 27.9841 62.5661C28.4521 62.5661 28.8321 62.4661 29.1601 62.2661C29.4841 62.0661 29.7321 61.7741 29.9041 61.3941C30.0721 61.0141 30.1601 60.5501 30.1601 60.0061Z"
    fill="#FF5729"
  />
  <path
    d="M179.232 187.578C179.232 188.506 179.096 189.302 178.82 189.966C178.544 190.63 178.156 191.138 177.648 191.486C177.14 191.834 176.548 192.006 175.864 192.006C175.148 192.006 174.536 191.818 174.04 191.446C173.544 191.074 173.168 190.542 172.916 189.854C172.664 189.166 172.54 188.35 172.54 187.406C172.54 186.85 172.592 186.286 172.696 185.714C172.8 185.142 172.984 184.534 173.244 183.894C173.54 183.934 173.808 183.954 174.048 183.954C174.288 183.954 174.564 183.934 174.864 183.894C174.464 184.526 174.18 185.13 174.016 185.706C173.852 186.278 173.768 186.814 173.76 187.314C173.756 187.906 173.832 188.422 173.996 188.858C174.16 189.294 174.4 189.63 174.716 189.866C175.032 190.102 175.416 190.222 175.86 190.222C176.304 190.222 176.656 190.114 176.98 189.902C177.304 189.69 177.556 189.37 177.736 188.946C177.916 188.522 178.008 187.994 178.008 187.37C178.008 186.746 177.896 186.114 177.668 185.534C177.44 184.954 177.084 184.414 176.592 183.91C176.86 183.938 177.116 183.938 177.372 183.91C177.628 183.882 177.892 183.842 178.168 183.79C178.524 184.294 178.792 184.846 178.964 185.442C179.14 186.042 179.228 186.75 179.228 187.57L179.232 187.578Z"
    fill="#FF5729"
  />
  <path
    d="M179.224 177.838C179.224 178.742 179.092 179.522 178.828 180.17C178.564 180.822 178.184 181.318 177.684 181.662C177.184 182.006 176.584 182.178 175.88 182.178C175.176 182.178 174.576 182.006 174.076 181.662C173.576 181.318 173.192 180.818 172.932 180.17C172.668 179.522 172.536 178.742 172.536 177.838C172.536 176.934 172.668 176.154 172.932 175.506C173.196 174.858 173.576 174.358 174.076 174.018C174.576 173.678 175.176 173.506 175.88 173.506C176.584 173.506 177.18 173.678 177.684 174.018C178.184 174.362 178.568 174.858 178.828 175.506C179.092 176.158 179.224 176.934 179.224 177.838ZM178.096 177.838C178.096 177.302 178.012 176.838 177.84 176.454C177.672 176.07 177.424 175.774 177.096 175.57C176.772 175.366 176.38 175.266 175.92 175.266C175.46 175.266 175.048 175.366 174.712 175.57C174.376 175.774 174.12 176.066 173.94 176.454C173.76 176.838 173.672 177.298 173.672 177.838C173.672 178.378 173.76 178.842 173.94 179.226C174.12 179.61 174.376 179.898 174.712 180.098C175.048 180.298 175.452 180.398 175.92 180.398C176.388 180.398 176.768 180.298 177.096 180.098C177.42 179.898 177.668 179.606 177.84 179.226C178.008 178.846 178.096 178.382 178.096 177.838Z"
    fill="#FF5729"
  />
  <path
    d="M179.08 171.638C178.344 171.574 177.284 171.546 175.9 171.546C174.516 171.546 173.456 171.578 172.72 171.638C172.724 171.214 172.728 170.818 172.728 170.454C172.728 170.09 172.724 169.738 172.712 169.398C172.7 169.162 172.692 168.918 172.692 168.67C172.692 168.422 172.688 168.158 172.688 167.882C172.688 166.638 172.84 165.722 173.152 165.13C173.464 164.538 173.932 164.242 174.564 164.242C175.044 164.242 175.428 164.394 175.708 164.706C175.992 165.014 176.188 165.374 176.296 165.778C176.408 166.186 176.46 166.558 176.46 166.898H176.596C176.736 166.13 177.052 165.514 177.54 165.05C178.028 164.586 178.544 164.226 179.08 163.974V166.41C178.564 166.462 178.148 166.578 177.828 166.758C177.508 166.938 177.264 167.198 177.1 167.538C176.932 167.878 176.824 168.322 176.772 168.87C176.756 169.006 176.744 169.158 176.74 169.322C176.736 169.49 176.732 169.658 176.732 169.826C177.556 169.802 178.028 169.79 178.14 169.782C178.308 169.778 178.472 169.766 178.624 169.754C178.776 169.742 178.928 169.726 179.084 169.714V171.638H179.08ZM175.676 169.83L175.7 169.43C175.712 169.214 175.724 168.986 175.732 168.738C175.744 168.494 175.748 168.25 175.748 168.014C175.748 167.594 175.712 167.246 175.636 166.962C175.56 166.678 175.452 166.466 175.3 166.322C175.152 166.178 174.964 166.106 174.736 166.106C174.412 166.106 174.18 166.266 174.032 166.586C173.884 166.906 173.812 167.358 173.812 167.938C173.812 168.154 173.812 168.366 173.816 168.578C173.816 168.79 173.824 168.994 173.836 169.186L173.844 169.798C174.128 169.81 174.42 169.818 174.72 169.822C175.024 169.826 175.336 169.83 175.668 169.83H175.676Z"
    fill="#FF5729"
  />
  <path
    d="M179.08 162.186C178.344 162.122 177.284 162.094 175.9 162.094C174.516 162.094 173.456 162.126 172.72 162.186C172.724 161.762 172.728 161.366 172.728 161.002C172.728 160.638 172.724 160.286 172.712 159.946C172.7 159.71 172.692 159.466 172.692 159.218C172.692 158.97 172.688 158.706 172.688 158.43C172.688 157.186 172.84 156.27 173.152 155.678C173.464 155.086 173.932 154.79 174.564 154.79C175.044 154.79 175.428 154.942 175.708 155.254C175.992 155.562 176.188 155.922 176.296 156.326C176.408 156.734 176.46 157.106 176.46 157.446H176.596C176.736 156.678 177.052 156.062 177.54 155.598C178.028 155.134 178.544 154.774 179.08 154.522V156.958C178.564 157.01 178.148 157.126 177.828 157.306C177.508 157.486 177.264 157.746 177.1 158.086C176.932 158.426 176.824 158.87 176.772 159.418C176.756 159.554 176.744 159.706 176.74 159.87C176.736 160.038 176.732 160.206 176.732 160.374C177.556 160.35 178.028 160.338 178.14 160.33C178.308 160.326 178.472 160.314 178.624 160.302C178.776 160.29 178.928 160.274 179.084 160.262V162.186H179.08ZM175.676 160.382L175.7 159.982C175.712 159.766 175.724 159.538 175.732 159.29C175.744 159.046 175.748 158.802 175.748 158.566C175.748 158.146 175.712 157.798 175.636 157.514C175.56 157.23 175.452 157.018 175.3 156.874C175.152 156.73 174.964 156.658 174.736 156.658C174.412 156.658 174.18 156.818 174.032 157.138C173.884 157.458 173.812 157.91 173.812 158.49C173.812 158.706 173.812 158.918 173.816 159.13C173.816 159.342 173.824 159.546 173.836 159.738L173.844 160.35C174.128 160.362 174.42 160.37 174.72 160.374C175.024 160.378 175.336 160.382 175.668 160.382H175.676Z"
    fill="#FF5729"
  />
  <path
    d="M179.08 152.738C178.344 152.674 177.284 152.646 175.9 152.646C174.516 152.646 173.456 152.678 172.72 152.738C172.748 152.53 172.772 152.11 172.792 151.482C172.812 150.854 172.824 150.178 172.832 149.454C172.836 148.622 172.832 147.87 172.82 147.198C172.804 146.526 172.784 146.022 172.748 145.686C173.004 145.71 173.26 145.718 173.516 145.718C173.772 145.718 174.028 145.706 174.284 145.686C174.216 145.93 174.156 146.258 174.096 146.674C174.036 147.09 173.992 147.562 173.952 148.086C173.92 148.602 173.892 149.102 173.876 149.59C173.86 150.078 173.852 150.506 173.86 150.874C174.12 150.886 174.38 150.894 174.64 150.898C174.9 150.902 175.16 150.902 175.42 150.898C175.436 150.158 175.432 149.338 175.4 148.446C175.368 147.554 175.328 146.83 175.276 146.274C175.48 146.298 175.692 146.306 175.912 146.306C176.132 146.306 176.344 146.294 176.548 146.274C176.504 146.838 176.464 147.57 176.436 148.462C176.408 149.354 176.404 150.166 176.428 150.898C177.016 150.898 177.524 150.882 177.948 150.854C177.952 150.454 177.948 150.006 177.932 149.514C177.916 149.022 177.888 148.538 177.848 148.062C177.816 147.566 177.768 147.106 177.712 146.682C177.656 146.262 177.592 145.926 177.524 145.678C177.78 145.702 178.04 145.71 178.304 145.71C178.568 145.71 178.832 145.698 179.084 145.678V152.726L179.08 152.738Z"
    fill="#FF5729"
  />
  <path
    d="M179.224 139.69C179.224 140.594 179.092 141.374 178.828 142.022C178.564 142.674 178.184 143.17 177.684 143.514C177.184 143.858 176.584 144.03 175.88 144.03C175.176 144.03 174.576 143.858 174.076 143.514C173.576 143.17 173.192 142.67 172.932 142.022C172.668 141.374 172.536 140.594 172.536 139.69C172.536 138.786 172.668 138.006 172.932 137.358C173.196 136.71 173.576 136.21 174.076 135.87C174.576 135.53 175.176 135.358 175.88 135.358C176.584 135.358 177.18 135.53 177.684 135.87C178.184 136.214 178.568 136.71 178.828 137.358C179.092 138.01 179.224 138.786 179.224 139.69ZM178.096 139.69C178.096 139.154 178.012 138.69 177.84 138.306C177.672 137.922 177.424 137.626 177.096 137.422C176.772 137.218 176.38 137.118 175.92 137.118C175.46 137.118 175.048 137.218 174.712 137.422C174.376 137.626 174.12 137.918 173.94 138.306C173.76 138.69 173.672 139.15 173.672 139.69C173.672 140.23 173.76 140.694 173.94 141.078C174.12 141.462 174.376 141.75 174.712 141.95C175.048 142.15 175.452 142.25 175.92 142.25C176.388 142.25 176.768 142.15 177.096 141.95C177.42 141.75 177.668 141.458 177.84 141.078C178.008 140.698 178.096 140.234 178.096 139.69Z"
    fill="#FF5729"
  />
  <path
    d="M179.08 130.734C178.588 130.498 178.068 130.254 177.52 130.006C176.972 129.758 176.432 129.518 175.9 129.286C174.768 128.798 173.708 128.362 172.72 127.97C172.772 127.57 172.8 127.07 172.804 126.478C172.808 125.886 172.78 125.422 172.72 125.086C173.852 124.634 174.912 124.19 175.9 123.754C176.748 123.386 177.808 122.902 179.08 122.302V124.406C178.516 124.586 177.852 124.826 177.096 125.118C176.292 125.43 175.564 125.722 174.912 125.994C174.26 126.27 173.832 126.466 173.628 126.594V126.534C173.912 126.698 174.812 127.078 176.324 127.67C176.804 127.858 177.28 128.038 177.748 128.218C178.216 128.398 178.66 128.566 179.08 128.722V130.734ZM176.808 128.034C176.832 127.586 176.84 127.082 176.84 126.514C176.84 125.946 176.828 125.442 176.808 124.994L177.86 124.646C177.836 125.194 177.828 125.834 177.828 126.566C177.828 127.298 177.84 127.938 177.86 128.486L176.808 128.026V128.034Z"
    fill="#FF5729"
  />
  <path
    d="M179.08 120.73C178.344 120.666 177.284 120.638 175.9 120.638C174.516 120.638 173.456 120.67 172.72 120.73C172.748 120.522 172.772 120.102 172.792 119.474C172.812 118.846 172.824 118.17 172.832 117.446C172.836 116.614 172.832 115.862 172.82 115.19C172.804 114.518 172.784 114.014 172.748 113.682C173.004 113.706 173.26 113.714 173.516 113.714C173.772 113.714 174.028 113.702 174.284 113.682C174.216 113.926 174.156 114.254 174.096 114.67C174.04 115.086 173.992 115.558 173.952 116.082C173.92 116.598 173.892 117.098 173.876 117.586C173.86 118.074 173.852 118.502 173.86 118.87C174.12 118.882 174.38 118.89 174.64 118.894C174.9 118.898 175.16 118.898 175.42 118.894C175.436 118.154 175.432 117.334 175.4 116.442C175.368 115.55 175.328 114.826 175.276 114.27C175.48 114.294 175.692 114.302 175.912 114.302C176.132 114.302 176.344 114.29 176.548 114.27C176.504 114.834 176.464 115.566 176.436 116.458C176.408 117.35 176.404 118.162 176.428 118.894C177.016 118.894 177.524 118.878 177.948 118.85C177.952 118.45 177.948 118.002 177.932 117.51C177.916 117.018 177.888 116.534 177.848 116.058C177.816 115.562 177.768 115.102 177.712 114.678C177.656 114.258 177.592 113.922 177.524 113.674C177.78 113.698 178.04 113.706 178.304 113.706C178.568 113.706 178.832 113.694 179.084 113.674V120.722L179.08 120.73Z"
    fill="#FF5729"
  />
  <path
    d="M179.08 111.69C178.344 111.626 177.284 111.598 175.9 111.598C174.516 111.598 173.456 111.63 172.72 111.69C172.724 111.266 172.728 110.87 172.728 110.506C172.728 110.142 172.724 109.79 172.712 109.45C172.7 109.214 172.692 108.97 172.692 108.722C172.692 108.474 172.688 108.21 172.688 107.934C172.688 106.69 172.84 105.774 173.152 105.182C173.46 104.59 173.932 104.294 174.564 104.294C175.044 104.294 175.428 104.45 175.708 104.758C175.988 105.066 176.188 105.422 176.296 105.83C176.404 106.238 176.46 106.61 176.46 106.95H176.596C176.736 106.182 177.052 105.566 177.54 105.102C178.028 104.638 178.544 104.278 179.08 104.026V106.462C178.564 106.514 178.148 106.63 177.828 106.81C177.508 106.99 177.264 107.25 177.1 107.59C176.932 107.93 176.824 108.374 176.772 108.922C176.756 109.058 176.744 109.21 176.74 109.374C176.736 109.542 176.732 109.71 176.732 109.878C177.556 109.854 178.028 109.842 178.14 109.834C178.308 109.83 178.472 109.818 178.624 109.806C178.776 109.794 178.928 109.778 179.084 109.766V111.69H179.08ZM175.676 109.882L175.7 109.482C175.712 109.266 175.724 109.038 175.732 108.79C175.744 108.542 175.748 108.302 175.748 108.066C175.748 107.646 175.712 107.298 175.636 107.014C175.56 106.73 175.452 106.518 175.3 106.374C175.152 106.23 174.964 106.158 174.736 106.158C174.412 106.158 174.18 106.318 174.032 106.638C173.884 106.958 173.812 107.41 173.812 107.99C173.812 108.206 173.812 108.418 173.816 108.63C173.816 108.842 173.824 109.046 173.836 109.238L173.844 109.85C174.128 109.862 174.42 109.87 174.72 109.874C175.024 109.878 175.336 109.882 175.668 109.882H175.676Z"
    fill="#FF5729"
  />
  <path
    d="M179.08 102.238C178.344 102.174 177.284 102.146 175.9 102.146C174.516 102.146 173.456 102.178 172.72 102.238C172.748 102.03 172.772 101.61 172.792 100.982C172.812 100.354 172.824 99.6779 172.832 98.9539C172.836 98.1219 172.832 97.3699 172.82 96.6979C172.804 96.0259 172.784 95.5219 172.748 95.1899C173.004 95.2139 173.26 95.2219 173.516 95.2219C173.772 95.2219 174.028 95.2099 174.284 95.1899C174.216 95.4339 174.156 95.7619 174.096 96.1779C174.04 96.5939 173.992 97.0659 173.952 97.5899C173.92 98.1059 173.892 98.6059 173.876 99.0939C173.86 99.5819 173.852 100.01 173.86 100.378C174.12 100.39 174.38 100.398 174.64 100.402C174.9 100.406 175.16 100.406 175.42 100.402C175.436 99.6619 175.432 98.8419 175.4 97.9499C175.368 97.0579 175.328 96.3339 175.276 95.7779C175.48 95.8019 175.692 95.8099 175.912 95.8099C176.132 95.8099 176.344 95.7979 176.548 95.7779C176.504 96.3419 176.464 97.0739 176.436 97.9659C176.408 98.8579 176.404 99.6699 176.428 100.402C177.016 100.402 177.524 100.386 177.948 100.358C177.952 99.9579 177.948 99.5099 177.932 99.0179C177.916 98.5259 177.888 98.0419 177.848 97.5659C177.816 97.0699 177.768 96.6099 177.712 96.1859C177.656 95.7659 177.592 95.4299 177.524 95.1819C177.78 95.2059 178.04 95.2139 178.304 95.2139C178.568 95.2139 178.832 95.2019 179.084 95.1819V102.23L179.08 102.238Z"
    fill="#FF5729"
  />
  <path
    d="M179.224 89.1899C179.224 90.0939 179.092 90.8739 178.828 91.5219C178.564 92.1739 178.184 92.6699 177.684 93.0139C177.184 93.3579 176.584 93.5299 175.88 93.5299C175.176 93.5299 174.576 93.3579 174.076 93.0139C173.576 92.6699 173.192 92.1699 172.932 91.5219C172.668 90.8699 172.536 90.0939 172.536 89.1899C172.536 88.2859 172.668 87.5059 172.932 86.8579C173.196 86.2059 173.576 85.7099 174.076 85.3699C174.576 85.0299 175.176 84.8579 175.88 84.8579C176.584 84.8579 177.18 85.0299 177.684 85.3699C178.184 85.7139 178.568 86.2099 178.828 86.8579C179.092 87.5099 179.224 88.2859 179.224 89.1899ZM178.096 89.1899C178.096 88.6539 178.012 88.1899 177.84 87.8059C177.672 87.4219 177.424 87.1259 177.096 86.9219C176.772 86.7179 176.38 86.6179 175.92 86.6179C175.46 86.6179 175.048 86.7179 174.712 86.9219C174.376 87.1259 174.12 87.4179 173.94 87.8059C173.76 88.1899 173.672 88.6499 173.672 89.1899C173.672 89.7299 173.76 90.1939 173.94 90.5779C174.12 90.9579 174.376 91.2499 174.712 91.4499C175.048 91.6499 175.452 91.7499 175.92 91.7499C176.388 91.7499 176.768 91.6499 177.096 91.4499C177.42 91.2499 177.668 90.9579 177.84 90.5779C178.008 90.1979 178.096 89.7339 178.096 89.1899Z"
    fill="#FF5729"
  />
  <path
    d="M180.108 220.322L175.76 218.51L171.417 220.322L173.225 215.978L171.417 211.63L175.76 213.442L180.108 211.63L178.297 215.978L180.108 220.322Z"
    fill="#FF5729"
  />
  <path
    d="M180.108 63.038L175.76 61.226L171.417 63.038L173.225 58.69L171.417 54.342L175.76 56.154L180.108 54.342L178.297 58.69L180.108 63.038Z"
    fill="#FF5729"
  />
  <path
    d="M168.996 55.6263V57.4543C164.168 69.3343 164.172 84.0343 168.996 101.438V104.014C163.224 84.6223 163.22 68.4503 168.996 55.6223V55.6263Z"
    fill="#FF5729"
  />
  <path
    d="M180.108 40.6062V41.5782C177.172 44.2542 174.553 47.3182 172.369 50.8222C172.013 51.3942 171.669 51.9742 171.341 52.5622H170.521C170.913 51.8422 171.325 51.1382 171.757 50.4422C174.093 46.6822 176.929 43.4262 180.105 40.6062H180.108Z"
    fill="#FF5729"
  />
  <path
    d="M180.108 31.0022V31.8422C173.852 35.6502 168.244 40.6382 164.176 47.1742C153.516 64.3142 155.156 88.6422 168.992 119.738V121.47C154.456 89.4422 152.612 64.4102 163.564 46.7942C167.772 40.0222 173.608 34.8902 180.104 31.0022H180.108Z"
    fill="#FF5729"
  />
  <path
    d="M155.984 43.5262C143.577 63.5022 147.961 93.2822 168.993 132.174V133.67C147.289 93.9662 142.701 63.5502 155.373 43.1502C161.301 33.6062 170.465 27.3462 180.105 23.2422V24.0222C170.677 28.0782 161.757 34.2262 155.981 43.5262H155.984Z"
    fill="#FF5729"
  />
  <path
    d="M180.108 240.03V241.278C179.032 242.798 177.888 244.254 176.68 245.662H175.732C177.296 243.874 178.764 241.998 180.108 240.03Z"
    fill="#FF5729"
  />
  <path
    d="M168.428 141.302C168.62 141.614 168.808 141.934 168.996 142.25V143.65C168.608 142.99 168.216 142.334 167.82 141.67C140.268 96.2183 133.324 61.8423 147.184 39.5063C152.604 30.7703 160.756 24.7983 169.468 20.7263H171.2C162.06 24.7583 153.428 30.8063 147.796 39.8863C134.092 61.9743 141.036 96.0983 168.432 141.302H168.428Z"
    fill="#FF5729"
  />
  <path
    d="M135.82 83.4983C136.824 87.3663 138.076 91.3823 139.592 95.5343C139.248 95.2343 138.892 94.9383 138.516 94.6543C137.236 91.0423 136.148 87.5383 135.252 84.1383C135.452 83.9263 135.64 83.7143 135.82 83.4983Z"
    fill="#FF5729"
  />
  <path
    d="M155.924 20.7263C149.524 24.5183 143.748 29.5543 139.6 36.2423C135.876 42.2543 133.684 49.1663 133.024 56.9503C132.808 56.7703 132.584 56.5983 132.36 56.4383C133.068 48.7223 135.276 41.8583 138.988 35.8623C142.98 29.4263 148.46 24.4943 154.544 20.7263H155.92H155.924Z"
    fill="#FF5729"
  />
  <path
    d="M168.996 153.578V155.27C166.14 149.114 162.752 142.754 158.828 136.194C153.62 127.538 149.168 119.286 145.48 111.45C145.54 110.986 145.584 110.51 145.6 110.026C149.38 118.17 153.992 126.774 159.444 135.83C163.084 141.922 166.272 147.842 168.996 153.586V153.578Z"
    fill="#FF5729"
  />
  <path
    d="M175.9 225.198C175.352 226.406 174.752 227.602 174.112 228.77C171.312 233.902 167 239.798 160.364 245.662H159.308C164.94 240.798 169.844 235.098 173.484 228.426C174.064 227.362 174.608 226.29 175.116 225.198H175.9Z"
    fill="#FF5729"
  />
  <path
    d="M130.3 88.3181C130.564 89.0981 130.836 89.8821 131.12 90.6741C130.832 90.5581 130.54 90.4501 130.244 90.3541C130.052 89.7981 129.864 89.2501 129.676 88.6981C129.888 88.5781 130.092 88.4461 130.296 88.3181H130.3Z"
    fill="#FF5729"
  />
  <path
    d="M142.324 20.7262C138.104 23.9422 134.344 27.8502 131.408 32.5942C127.816 38.3942 125.668 45.0302 124.948 52.4862C124.72 52.3942 124.488 52.3102 124.26 52.2262C125.004 44.7422 127.18 38.0622 130.796 32.2182C133.616 27.6662 137.176 23.8742 141.168 20.7222H142.32L142.324 20.7262Z"
    fill="#FF5729"
  />
  <path
    d="M168.996 173.342V176.622C166.092 162.678 159.704 147.35 149.848 130.71C147.392 126.606 145.116 122.59 143.008 118.666C143.152 118.43 143.296 118.182 143.432 117.934C145.592 121.966 147.936 126.102 150.464 130.342C159.628 145.81 165.808 160.166 168.996 173.342Z"
    fill="#FF5729"
  />
  <path
    d="M163.865 221.714C166.129 217.566 167.845 213.19 168.997 208.578V211.282C167.869 215.03 166.369 218.622 164.493 222.058C160.613 229.158 153.837 237.71 142.005 245.662H140.708C150.052 239.57 158.385 231.742 163.865 221.714Z"
    fill="#FF5729"
  />
  <path
    d="M123.216 28.9543C119.424 35.0943 117.244 42.1703 116.684 50.1623C116.448 50.1143 116.212 50.0703 115.976 50.0303C116.548 41.9583 118.76 34.7983 122.604 28.5743C124.408 25.6543 126.528 23.0463 128.864 20.7263H129.884C127.38 23.1423 125.12 25.8703 123.212 28.9543H123.216Z"
    fill="#FF5729"
  />
  <path
    d="M154.876 215.346C147.28 229.226 134.288 238.926 120.696 245.662H119.072C133.024 238.954 146.492 229.174 154.248 215.002C166.84 191.982 162.336 161.778 140.86 125.226C140.388 124.43 139.924 123.646 139.464 122.854C139.644 122.69 139.828 122.53 140 122.354C140.488 123.186 140.98 124.022 141.472 124.858C163.092 161.654 167.596 192.09 154.876 215.346Z"
    fill="#FF5729"
  />
  <path
    d="M132.84 223.363C133.572 223.031 134.276 222.679 134.952 222.311C123.664 233.607 108.524 240.955 94.8121 245.663H92.5601C106.072 241.227 121.264 234.227 132.84 223.363Z"
    fill="#FF5729"
  />
  <path
    d="M117.452 20.7263H118.376C117.228 22.1223 116.16 23.5983 115.184 25.1743C110.972 31.9823 108.756 39.9463 108.532 49.0463C108.296 49.0223 108.06 49.0023 107.82 48.9903C108.048 39.7783 110.3 31.7023 114.58 24.7943C115.468 23.3623 116.428 22.0063 117.452 20.7263Z"
    fill="#FF5729"
  />
  <path
    d="M147.1 205.138C147.112 204.886 147.12 204.63 147.12 204.37C147.12 204.038 147.112 203.71 147.096 203.386C155.972 182.65 152.012 156.61 135.304 125.822C135.508 125.706 135.716 125.586 135.92 125.458C153.144 157.19 156.9 183.946 147.1 205.134V205.138Z"
    fill="#FF5729"
  />
  <path
    d="M106.544 228.706C107.068 228.682 107.596 228.658 108.112 228.626C97.6884 234.71 86.4084 238.858 76.6524 241.63C70.6164 243.35 64.7845 244.662 59.5005 245.662H55.4604C61.6924 244.598 68.9244 243.09 76.4684 240.942C85.7964 238.286 96.5124 234.374 106.54 228.706H106.544Z"
    fill="#FF5729"
  />
  <path
    d="M104.268 71.2063C105.16 74.2543 106.204 77.3863 107.408 80.6063C107.208 80.7023 106.992 80.7943 106.756 80.8903C105.5 77.5383 104.42 74.2784 103.5 71.1104C103.76 71.1424 104.02 71.1703 104.268 71.2063Z"
    fill="#FF5729"
  />
  <path
    d="M100.404 48.7023H99.6924C99.3804 38.0783 101.604 28.8783 106.392 21.1423C106.476 21.0023 106.568 20.8663 106.656 20.7263H107.5C107.332 20.9903 107.16 21.2583 107 21.5223C102.284 29.1343 100.088 38.2103 100.4 48.7023H100.404Z"
    fill="#FF5729"
  />
  <path
    d="M140.544 190.202C140.344 190.034 140.144 189.87 139.94 189.706C141.744 183.222 142.42 176.278 141.964 168.89V168.858C141.892 167.694 141.796 166.514 141.664 165.326C140.44 153.93 136.636 141.518 130.248 128.15C130.476 128.07 130.7 127.982 130.924 127.898C142.308 151.786 145.532 172.646 140.548 190.198L140.544 190.202Z"
    fill="#FF5729"
  />
  <path
    d="M85.2002 227.758C85.6482 227.826 86.1042 227.89 86.5642 227.946C79.9282 230.866 73.3122 233.126 67.2802 234.858C45.5482 241.102 26.4642 242.062 26.2722 242.074L26.2402 241.354C26.4282 241.346 45.4442 240.39 67.1002 234.162C72.7762 232.534 78.9642 230.438 85.2002 227.758Z"
    fill="#FF5729"
  />
  <path
    d="M92.5084 48.9543C92.2724 48.9663 92.0364 48.9863 91.8004 49.0023C90.8484 38.1783 92.3804 28.7343 96.4084 20.7263H97.2044C93.1124 28.6943 91.5484 38.1183 92.5084 48.9543Z"
    fill="#FF5729"
  />
  <path
    d="M101.448 82.2303C101.212 82.2663 100.972 82.3023 100.724 82.3343C99.0803 78.3863 97.6643 74.5543 96.4683 70.8383C96.7163 70.8383 96.9643 70.8303 97.2123 70.8303C98.4083 74.5143 99.8203 78.3103 101.448 82.2263V82.2303Z"
    fill="#FF5729"
  />
  <path
    d="M110.848 101.822C111.864 103.706 112.912 105.602 114.016 107.526C113.936 107.79 113.816 108.062 113.648 108.334C112.308 105.998 111.032 103.698 109.828 101.426C109.984 101.482 110.136 101.534 110.288 101.59C110.488 101.662 110.676 101.742 110.848 101.814V101.822Z"
    fill="#FF5729"
  />
  <path
    d="M131.712 151.518C131.44 151.342 131.164 151.174 130.88 151.01C129.552 144.326 127.392 137.326 124.404 130.014C124.632 129.954 124.864 129.894 125.092 129.822C128.184 137.386 130.388 144.618 131.716 151.518H131.712Z"
    fill="#FF5729"
  />
  <path
    d="M69.5241 223.49C69.8321 223.63 70.1401 223.762 70.4521 223.902C66.5721 225.382 62.4001 226.774 57.9121 228.078C44.7321 231.898 32.5401 233.766 24.9761 234.646V233.926C32.5161 233.046 44.6401 231.186 57.7321 227.386C61.9321 226.166 65.8561 224.862 69.5241 223.486V223.49Z"
    fill="#FF5729"
  />
  <path
    d="M111.38 195.014C111.616 195.098 111.852 195.182 112.076 195.274C108.796 199.602 104.416 204.198 98.5482 208.706C98.1842 208.686 97.8282 208.662 97.4722 208.626C103.532 204.062 108.036 199.402 111.38 195.014Z"
    fill="#FF5729"
  />
  <path
    d="M87.3684 20.7263C84.0964 28.9903 83.2764 38.6503 84.9004 49.6743C84.6644 49.6983 84.4284 49.7303 84.1884 49.7583C82.5644 38.7303 83.3684 29.0383 86.5964 20.7263H87.3684Z"
    fill="#FF5729"
  />
  <path
    d="M95.2524 82.8184C95.0044 82.8304 94.7444 82.8424 94.4844 82.8544C92.6964 78.8504 91.1284 74.9624 89.7764 71.1984C90.0164 71.1744 90.2604 71.1544 90.5084 71.1304C91.8724 74.9104 93.4564 78.8024 95.2524 82.8184Z"
    fill="#FF5729"
  />
  <path
    d="M105.54 102.942C107.068 105.63 108.5 108.286 109.84 110.906C109.616 110.986 109.388 111.062 109.152 111.134C107.836 108.558 106.424 105.942 104.92 103.29C104.288 102.174 103.664 101.062 103.06 99.9624C103.36 99.9944 103.652 100.034 103.936 100.07V100.078C104.46 101.026 105 101.978 105.54 102.938V102.942Z"
    fill="#FF5729"
  />
  <path
    d="M122.584 147.474C122.372 147.406 122.156 147.342 121.94 147.282C121.904 147.27 121.86 147.258 121.824 147.25C120.98 142.174 119.64 136.902 117.808 131.45C118.048 131.414 118.292 131.37 118.528 131.33C120.392 136.902 121.744 142.286 122.584 147.474Z"
    fill="#FF5729"
  />
  <path
    d="M59.8401 216.802C60.0081 216.994 60.1921 217.178 60.3721 217.362C56.6961 218.758 52.7601 220.074 48.5441 221.306C39.9241 223.822 31.7201 225.502 24.9761 226.614V225.89C31.6761 224.786 39.8081 223.114 48.3561 220.614C52.3481 219.45 56.1761 218.174 59.8401 216.806V216.802Z"
    fill="#FF5729"
  />
  <path
    d="M97.1924 193.686C97.5244 193.65 97.8644 193.626 98.2084 193.602C94.9044 197.138 90.8244 200.762 85.7724 204.286C85.6164 204.11 85.4764 203.934 85.3564 203.762C89.8244 200.646 93.7764 197.286 97.1964 193.686H97.1924Z"
    fill="#FF5729"
  />
  <path
    d="M112.212 168.33C111.372 171.674 110.232 174.91 108.796 178.018C108.508 178.102 108.204 178.182 107.896 178.254C109.464 174.95 110.684 171.51 111.572 167.938C111.8 168.058 112.012 168.198 112.212 168.33Z"
    fill="#FF5729"
  />
  <path
    d="M77.9281 20.7262C75.3801 29.3582 75.2761 39.3822 77.6081 50.7462C77.3801 50.7822 77.1441 50.8262 76.9121 50.8662C74.5801 39.4742 74.6721 29.4182 77.1881 20.7222H77.9241L77.9281 20.7262Z"
    fill="#FF5729"
  />
  <path
    d="M88.9761 82.9141C88.7121 82.9141 88.4441 82.9061 88.1801 82.8941C86.4041 79.1621 84.8161 75.5341 83.4121 71.9981C83.6521 71.9541 83.8961 71.9181 84.1361 71.8821C85.5601 75.4541 87.1721 79.1341 88.9761 82.9101V82.9141Z"
    fill="#FF5729"
  />
  <path
    d="M97.7165 99.5503C100.052 103.826 102.14 108.006 103.972 112.094C103.724 112.118 103.472 112.142 103.216 112.154C101.364 108.038 99.2485 103.822 96.8765 99.5183C97.1605 99.5303 97.4365 99.5383 97.7165 99.5503Z"
    fill="#FF5729"
  />
  <path
    d="M113.624 145.53C113.384 145.494 113.14 145.462 112.9 145.434C112.448 141.238 111.644 136.898 110.484 132.43C110.724 132.41 110.968 132.386 111.208 132.358C112.38 136.886 113.184 141.282 113.624 145.53Z"
    fill="#FF5729"
  />
  <path
    d="M55.3124 208.034C55.3604 208.282 55.4164 208.53 55.4684 208.77C50.3804 210.902 44.9404 212.826 39.1764 214.522C37.7804 214.934 36.3924 215.326 35.0244 215.686V214.95C36.3324 214.598 37.6564 214.226 38.9924 213.834C44.1244 212.318 49.6844 210.418 55.3164 208.034H55.3124Z"
    fill="#FF5729"
  />
  <path
    d="M101.044 165.838C101.152 165.838 101.26 165.838 101.372 165.846C100.32 168.966 98.9923 171.978 97.3923 174.882C96.7203 176.094 96.0043 177.29 95.2363 178.466C94.9723 178.422 94.7163 178.37 94.4683 178.322C95.2763 177.098 96.0443 175.83 96.7643 174.53C98.3043 171.734 99.5843 168.842 100.616 165.842C100.76 165.834 100.9 165.834 101.044 165.834V165.838Z"
    fill="#FF5729"
  />
  <path
    d="M70.6881 52.1382C70.4521 52.1942 70.2241 52.2462 69.9921 52.3022C66.8841 40.4142 66.2561 29.8742 68.1081 20.7302H68.8401C66.9681 29.8102 67.5841 40.2942 70.6881 52.1422V52.1382Z"
    fill="#FF5729"
  />
  <path
    d="M82.5923 82.5743C82.3083 82.5503 82.0323 82.5183 81.7523 82.4943C80.1763 79.3423 78.7283 76.2583 77.4043 73.2383C77.6403 73.1783 77.8763 73.1183 78.1123 73.0623C79.4723 76.1583 80.9603 79.3303 82.5923 82.5703V82.5743Z"
    fill="#FF5729"
  />
  <path
    d="M91.5764 99.5703C93.7324 103.886 95.6084 108.114 97.2284 112.23C96.9684 112.222 96.7044 112.21 96.4364 112.194C94.8244 108.102 92.9484 103.906 90.7964 99.6143C91.0604 99.5943 91.3204 99.5823 91.5764 99.5703Z"
    fill="#FF5729"
  />
  <path
    d="M104.424 144.758C104.188 144.75 103.948 144.738 103.704 144.738C103.612 140.91 103.196 136.962 102.468 132.886C102.708 132.878 102.956 132.874 103.192 132.862C103.924 136.942 104.332 140.91 104.424 144.754V144.758Z"
    fill="#FF5729"
  />
  <path
    d="M35.0244 205.35C43.5244 202.506 50.7684 199.314 56.9324 195.934C56.7444 196.298 56.5764 196.658 56.4124 197.026C50.3444 200.286 43.2684 203.366 35.0244 206.106V205.35Z"
    fill="#FF5729"
  />
  <path
    d="M64.1522 53.8823C63.9242 53.9543 63.6922 54.0223 63.4682 54.0943C59.5082 41.5663 58.1322 30.4303 59.3442 20.7263H60.0642C58.8402 30.3423 60.2042 41.4143 64.1522 53.8823Z"
    fill="#FF5729"
  />
  <path
    d="M76.1363 81.9343L75.2803 81.8303C74.0683 79.5183 72.9323 77.2343 71.8643 74.9983C72.0883 74.9143 72.3123 74.8303 72.5403 74.7463C73.6643 77.1023 74.8603 79.5023 76.1403 81.9383L76.1363 81.9343Z"
    fill="#FF5729"
  />
  <path
    d="M85.316 100.046C87.036 103.946 88.528 107.766 89.784 111.506L88.988 111.378V111.37C87.74 107.706 86.264 103.95 84.564 100.118C84.812 100.094 85.064 100.07 85.32 100.046H85.316Z"
    fill="#FF5729"
  />
  <path
    d="M94.6562 144.902C94.4162 144.914 94.1722 144.934 93.9362 144.95C94.2482 141.026 94.2002 136.962 93.7842 132.762C94.0242 132.782 94.2682 132.794 94.5082 132.798C94.9122 136.97 94.9602 141.002 94.6522 144.902H94.6562Z"
    fill="#FF5729"
  />
  <path
    d="M62.7284 178.734C62.8564 178.938 62.9884 179.138 63.1284 179.338C56.3084 185.098 47.1964 190.838 35.0244 195.83V195.062C47.0324 190.106 56.0084 184.43 62.7284 178.73V178.734Z"
    fill="#FF5729"
  />
  <path
    d="M58.0482 55.9902L57.3762 56.2382C52.4482 42.9262 50.2722 31.0702 50.8442 20.7302H51.5562C50.9842 30.9822 53.1442 42.7542 58.0442 55.9942L58.0482 55.9902Z"
    fill="#FF5729"
  />
  <path
    d="M71.4922 86.1743C70.6962 84.5863 69.8482 82.9823 68.9762 81.3703C68.2282 79.9943 67.5042 78.6303 66.8042 77.2783C67.0162 77.1623 67.2282 77.0543 67.4362 76.9463C68.1362 78.2943 68.8562 79.6583 69.6042 81.0263C70.1482 82.0303 70.6802 83.0263 71.1922 84.0143L71.4682 85.9623C71.4802 86.0343 71.4842 86.1023 71.4922 86.1743Z"
    fill="#FF5729"
  />
  <path
    d="M78.676 100.606C79.872 103.75 80.896 106.842 81.76 109.874C81.488 109.814 81.224 109.742 80.956 109.67C80.104 106.722 79.096 103.722 77.936 100.662L78.672 100.606H78.676Z"
    fill="#FF5729"
  />
  <path
    d="M83.8681 146.342C83.6081 146.398 83.3561 146.45 83.1001 146.51C84.1441 141.862 84.6281 136.994 84.5441 131.918C84.7801 131.95 85.0161 131.978 85.2561 132.014C85.3401 136.994 84.8761 141.77 83.8681 146.338V146.342Z"
    fill="#FF5729"
  />
  <path
    d="M60.5364 164.762C60.4404 165.198 60.3684 165.638 60.3084 166.086C54.6284 172.298 46.5364 178.818 35.0244 184.706V183.902C46.7964 177.842 54.9284 171.114 60.5364 164.766V164.762Z"
    fill="#FF5729"
  />
  <path
    d="M43.3122 20.7263C43.4202 34.7863 48.3642 51.5143 58.1322 70.7743C58.0882 71.2103 58.0402 71.6383 57.9802 72.0583C47.8442 52.3063 42.7122 35.1463 42.5962 20.7263H43.3082H43.3122Z"
    fill="#FF5729"
  />
  <path
    d="M73.2323 107.15C72.9563 107.042 72.6843 106.926 72.4123 106.818C70.3043 98.3664 66.8882 89.4384 62.1562 80.0504L62.7603 79.6584C66.2323 86.5464 69.0082 93.1945 71.0802 99.5865C71.2562 100.118 71.4202 100.642 71.5762 101.166C72.2042 103.19 72.7603 105.182 73.2363 107.15H73.2323Z"
    fill="#FF5729"
  />
  <path
    d="M75.5605 130.43C75.0885 138.006 73.2925 145.082 70.1645 151.638C70.1645 151.646 70.1565 151.646 70.1565 151.646C69.7445 151.918 69.3405 152.19 68.9565 152.474C72.4045 145.658 74.3645 138.25 74.8485 130.282C75.0845 130.338 75.3205 130.386 75.5605 130.434V130.43Z"
    fill="#FF5729"
  />
  <path
    d="M51.636 70.0663C53.32 73.2663 54.86 76.4103 56.244 79.5063L55.956 80.6063C54.484 77.2623 52.828 73.8623 51.004 70.3983C40.928 51.4663 35.416 34.8703 34.48 20.7263H35.2C36.136 34.7503 41.624 51.2423 51.64 70.0663H51.636Z"
    fill="#FF5729"
  />
  <path
    d="M63.944 101.982C63.592 101.674 63.272 101.362 62.992 101.046C61.64 95.3705 59.688 89.4785 57.144 83.3745L57.748 82.9705C60.508 89.5505 62.572 95.8905 63.948 101.982H63.944Z"
    fill="#FF5729"
  />
  <path
    d="M65.52 127.702C64.584 135.014 62.352 141.834 58.824 148.142C54.796 155.346 47.656 164.19 35.02 172.422V171.566C47.292 163.49 54.26 154.842 58.2 147.794C61.708 141.522 63.912 134.73 64.824 127.45C65.052 127.542 65.284 127.626 65.52 127.702Z"
    fill="#FF5729"
  />
  <path
    d="M49.2403 141.41C46.3683 146.534 41.9163 152.494 35.0243 158.478V157.59C40.7163 152.566 45.2683 147.038 48.6203 141.062C59.9763 120.794 57.7523 95.1823 42.0203 64.9183C33.3323 48.3463 28.2123 33.5863 26.6763 20.7263H27.3963C28.9363 33.4703 34.0243 48.1143 42.6563 64.5863C58.5083 95.0783 60.7243 120.922 49.2443 141.414L49.2403 141.41Z"
    fill="#FF5729"
  />
  <path
    d="M29.536 52.3223C27.828 48.6623 26.308 45.1023 24.98 41.6383V39.6023C26.488 43.7023 28.272 47.9383 30.336 52.3223H29.54H29.536Z"
    fill="#FF5729"
  />
  <path
    d="M39.652 134.686C38.42 136.878 36.9 139.226 35.02 141.658V140.486C36.476 138.538 37.82 136.482 39.028 134.334C49.76 115.238 48.416 91.4064 35.02 63.4544V61.8064C49.124 90.5624 50.68 115.066 39.652 134.686Z"
    fill="#FF5729"
  />
  <path
    d="M35.0244 116.23V113.41C37.1724 104.458 37.1684 94.6943 35.0244 84.1663V80.8743C38.1284 93.7703 38.1284 105.582 35.0244 116.226V116.23Z"
    fill="#FF5729"
  />
  <filter id="inset-shadow">
    <!-- Shadow offset -->
    <feOffset dx="0" dy="0" />
    <!-- Shadow blur -->
    <feGaussianBlur stdDeviation="0.4" result="offset-blur" />
    <!-- Invert drop shadow to make an inset shadow-->
    <feComposite operator="out" in="SourceGraphic" in2="offset-blur" result="inverse" />
    <!-- Cut colour inside shadow -->
    <feFlood flood-color="black" flood-opacity="1" result="color" />
    <feComposite operator="in" in="color" in2="inverse" result="shadow" />
    <!-- Placing shadow over element -->
    <feComposite operator="over" in="shadow" in2="SourceGraphic" />
  </filter>
  <filter id="grain">
    <!-- <feGaussianBlur stdDeviation="4" result="blur" /> -->

    <!-- <feTurbulence type="fractalNoise" baseFrequency="4" numOctaves="1" stitchTiles="stitch" /> -->
    <!-- <feColorMatrix type="saturate" values="0" /> -->
    <!-- <feBlend in="SourceGraphic" in2="noise" mode="multiply" /> -->
    <!-- <feComposite operator="in" in="color" in2="inverse" result="shadow" /> -->
    <!-- Placing shadow over element -->
    <!-- <feComposite operator="over" in="shadow" in2="SourceGraphic" /> -->

    <!-- <feComposite operator="in" in="blur" /> -->
    <feTurbulence type="fractalNoise" baseFrequency="2" numOctaves="1" stitchTiles="stitch" />

    <!-- <feColorMatrix type="saturate" values="0" /> -->
    <!-- <feBlend in="SourceGraphic" in2="noise" mode="multiply" /> -->
    <feComposite operator="in" in="SourceGraphic" in2="noise" />

    <!-- <feBlend in="SourceGraphic" in2="noise2" mode="overlay" /> -->
    <!-- <feComposite operator="over" in="SourceGraphic" in2="noise2" /> -->
    <!-- <feComposite operator="over" in="SourceGraphic" in2="noise" /> -->
  </filter>
</svg>
