<svg width="203" height="262" viewBox="0 0 203 262" fill="none" xmlns="http://www.w3.org/2000/svg">
<path d="M2.97407 46.8279C2.30607 47.0839 1.58608 47.2319 0.830078 47.2479V47.1999C0.930078 47.1999 1.02207 47.1999 1.12607 47.1919C1.23007 47.1839 1.33807 47.1759 1.44607 47.1679C1.97807 47.1119 2.48607 46.9959 2.97407 46.8279Z" fill="#F9F8F4"/>
<path d="M7.29407 121.176C7.28207 124.776 4.41408 127.7 0.830078 127.796V127.728C4.38608 127.628 7.25407 124.744 7.29407 121.176Z" fill="#F9F8F4"/>
<path d="M7.28197 101.364C7.26997 101.532 7.25398 101.696 7.22998 101.856C7.24998 101.692 7.27397 101.528 7.28197 101.364Z" fill="#F9F8F4"/>
<path d="M7.23018 101.86C7.17818 102.264 7.09817 102.656 6.97817 103.036C6.95017 103.128 6.91417 103.224 6.88217 103.316C6.85017 103.408 6.81017 103.5 6.77417 103.592C6.70217 103.772 6.61417 103.948 6.52617 104.124C6.20617 104.724 5.79017 105.276 5.31017 105.744C4.15017 106.892 2.56617 107.612 0.826172 107.66V107.588C1.31017 107.576 1.77818 107.512 2.23018 107.4C3.06218 107.196 3.82616 106.84 4.50616 106.356C5.95416 105.32 6.97017 103.712 7.22617 101.86H7.23018Z" fill="#F9F8F4"/>
<path d="M7.27047 61.2799C7.11447 63.2879 6.06248 65.0479 4.51448 66.1479C3.83448 66.6319 3.06648 66.9879 2.23848 67.1919C1.78648 67.3039 1.31447 67.3679 0.834473 67.3799V67.3119C1.58647 67.2919 2.29447 67.1439 2.97047 66.8999C5.31847 66.0319 7.03847 63.8679 7.27047 61.2759V61.2799Z" fill="#F9F8F4"/>
<path d="M7.26648 162.016C7.14248 163.492 6.53447 164.828 5.59847 165.864C4.45447 167.132 2.83048 167.96 1.01848 168.06C0.954481 168.06 0.898473 168.068 0.834473 168.068V168C4.20647 167.912 6.93848 165.32 7.26648 162.016Z" fill="#F9F8F4"/>
<path d="M7.29407 201.696C7.29407 202.164 7.24608 202.62 7.15408 203.06C6.54208 206.02 3.95008 208.252 0.830078 208.34V208.268C0.894078 208.268 0.950075 208.268 1.01407 208.26C2.83007 208.16 4.45407 207.332 5.59407 206.064C6.63807 204.904 7.27408 203.376 7.29008 201.692L7.29407 201.696Z" fill="#F9F8F4"/>
<path d="M7.27047 182.124C6.99447 185.472 4.23447 188.104 0.834473 188.2V188.132C3.99847 188.044 6.61447 185.752 7.18247 182.732C7.22247 182.532 7.25447 182.328 7.27047 182.124Z" fill="#F9F8F4"/>
<path d="M7.28207 141.64C7.27007 141.944 7.23808 142.24 7.17808 142.528C6.61008 145.548 3.99408 147.84 0.830078 147.928V147.86C2.56608 147.812 4.15407 147.092 5.31407 145.944C5.79807 145.476 6.21008 144.924 6.53008 144.324C6.95808 143.508 7.21807 142.6 7.28207 141.636V141.64Z" fill="#F9F8F4"/>
<path d="M7.29039 81.116C7.28239 81.256 7.27039 81.396 7.25439 81.532C7.26639 81.392 7.28239 81.256 7.29039 81.116Z" fill="#F9F8F4"/>
<path d="M7.04213 82.644C7.03413 82.668 7.03012 82.688 7.02612 82.712C7.03412 82.688 7.03813 82.668 7.04213 82.644Z" fill="#F9F8F4"/>
<path d="M6.75007 83.448C6.85807 83.212 6.94607 82.964 7.02207 82.708C6.60207 84.168 5.70607 85.428 4.49807 86.288C4.41807 86.344 4.33408 86.4 4.25408 86.456C4.17408 86.508 4.09008 86.56 4.00208 86.612C3.91808 86.664 3.83008 86.712 3.74208 86.756C3.65408 86.804 3.56608 86.848 3.47808 86.888C3.38608 86.932 3.29807 86.972 3.20607 87.008C3.11407 87.048 3.02207 87.084 2.92607 87.12C2.83407 87.152 2.73808 87.188 2.64208 87.216C2.54608 87.244 2.45007 87.276 2.35007 87.3C2.15407 87.352 1.95407 87.396 1.75807 87.428C1.60607 87.452 1.45007 87.476 1.29807 87.492C1.14207 87.508 0.990078 87.516 0.830078 87.52V87.452C3.49008 87.38 5.75407 85.752 6.75007 83.444V83.448Z" fill="#F9F8F4"/>
<path d="M7.20219 81.9079C7.20219 81.9279 7.19419 81.9519 7.19019 81.9719C7.21419 81.8279 7.24218 81.6839 7.25818 81.5359C7.24218 81.6599 7.22619 81.7879 7.20219 81.9079Z" fill="#F9F8F4"/>
<path d="M202.894 47.1519V47.2559C202.642 47.2559 202.398 47.2319 202.158 47.2039C202.242 47.2039 202.322 47.2038 202.414 47.1958C202.506 47.1878 202.598 47.1799 202.69 47.1719H202.698C202.698 47.1719 202.734 47.1719 202.75 47.1719C202.766 47.1719 202.778 47.1719 202.802 47.1719C202.818 47.1719 202.826 47.1719 202.85 47.1639C202.87 47.1639 202.882 47.1639 202.898 47.1559L202.894 47.1519Z" fill="#F9F8F4"/>
<path d="M202.894 67.3201V67.388C201.85 67.372 200.862 67.1161 199.986 66.6681C197.826 65.5721 196.346 63.332 196.346 60.748C196.346 60.836 196.354 60.92 196.358 61.008C196.382 61.58 196.482 62.1401 196.646 62.6641C197.482 65.3361 199.962 67.284 202.894 67.324V67.3201Z" fill="#F9F8F4"/>
<path d="M196.35 80.9919C196.35 81.1119 196.358 81.2279 196.366 81.3479C196.358 81.2319 196.35 81.1119 196.35 80.9919Z" fill="#F9F8F4"/>
<path d="M202.894 87.46V87.5281C202.678 87.5281 202.462 87.508 202.254 87.488C202.242 87.488 202.23 87.488 202.218 87.488C202.018 87.464 201.822 87.4321 201.63 87.3921C201.158 87.2921 200.702 87.144 200.274 86.948C200.202 86.916 200.126 86.8801 200.058 86.8441C199.974 86.8041 199.89 86.7601 199.806 86.7161C199.73 86.6761 199.65 86.632 199.578 86.584C199.506 86.544 199.442 86.5001 199.37 86.4561C199.298 86.4121 199.23 86.3641 199.158 86.3161C199.13 86.2921 199.094 86.2721 199.066 86.2441C199.002 86.2001 198.942 86.152 198.878 86.1C198.798 86.036 198.718 85.976 198.646 85.908C198.57 85.84 198.49 85.772 198.414 85.696C198.342 85.628 198.274 85.56 198.206 85.488C198.134 85.416 198.07 85.3401 198.002 85.2681C197.934 85.1921 197.87 85.112 197.806 85.036C197.742 84.96 197.686 84.876 197.622 84.796C196.91 83.816 196.458 82.6321 196.366 81.3521C196.446 82.3401 196.738 83.264 197.202 84.084C197.47 84.564 197.794 85.008 198.178 85.396C199.358 86.648 201.034 87.436 202.89 87.46H202.894Z" fill="#F9F8F4"/>
<path d="M202.894 107.592V107.664C200.398 107.628 198.234 106.216 197.126 104.148C196.866 103.652 196.662 103.128 196.53 102.572C196.458 102.276 196.41 101.98 196.382 101.672C196.63 103.948 198.03 105.88 199.986 106.872C200.862 107.32 201.85 107.576 202.894 107.592Z" fill="#F9F8F4"/>
<path d="M202.894 127.732V127.8C201.234 127.776 199.726 127.148 198.574 126.12V126.112C197.274 124.952 196.434 123.3 196.354 121.444C196.538 124.916 199.39 127.676 202.894 127.732Z" fill="#F9F8F4"/>
<path d="M202.894 147.868V147.936C199.27 147.884 196.346 144.932 196.346 141.292C196.354 141.8 196.418 142.3 196.53 142.78C196.662 143.336 196.87 143.86 197.126 144.356C198.234 146.42 200.394 147.836 202.894 147.872V147.868Z" fill="#F9F8F4"/>
<path d="M202.894 168.004V168.072C199.586 168.02 196.862 165.556 196.414 162.356C196.386 162.16 196.362 161.96 196.354 161.76C196.466 163.572 197.298 165.188 198.566 166.32V166.328C199.722 167.352 201.23 167.984 202.89 168.008L202.894 168.004Z" fill="#F9F8F4"/>
<path d="M202.894 188.14V188.208C202.11 188.196 201.35 188.048 200.65 187.784H200.634C200.182 187.608 199.746 187.38 199.338 187.112C198.21 186.372 197.33 185.304 196.822 184.04C196.55 183.352 196.378 182.612 196.35 181.836C196.526 185.32 199.382 188.088 202.89 188.14H202.894Z" fill="#F9F8F4"/>
<path d="M202.894 208.276V208.348C202.678 208.348 202.47 208.328 202.258 208.308C202.01 208.284 201.766 208.24 201.53 208.188C201.446 208.168 201.362 208.148 201.274 208.124C201.098 208.076 200.918 208.02 200.75 207.96C200.654 207.928 200.562 207.888 200.47 207.848C200.398 207.824 200.33 207.788 200.258 207.76C200.142 207.708 200.034 207.652 199.922 207.592C199.846 207.552 199.766 207.512 199.694 207.472C199.674 207.46 199.658 207.448 199.638 207.44C199.558 207.392 199.478 207.344 199.402 207.292C199.33 207.248 199.254 207.196 199.186 207.148C199.162 207.132 199.138 207.116 199.114 207.1C199.046 207.048 198.978 206.996 198.91 206.944C198.834 206.884 198.754 206.824 198.678 206.756C198.53 206.628 198.382 206.492 198.242 206.352C198.17 206.28 198.102 206.208 198.038 206.136C197.97 206.06 197.906 205.984 197.842 205.908C197.022 204.908 196.486 203.66 196.37 202.292C196.382 202.384 196.394 202.476 196.406 202.564C196.854 205.764 199.574 208.228 202.886 208.28L202.894 208.276Z" fill="#F9F8F4"/>
<path d="M196.346 20.472C196.346 20.584 196.354 20.688 196.358 20.796C196.382 21.368 196.482 21.928 196.646 22.452C197.482 25.124 199.962 27.072 202.894 27.112V33.96C199.27 34.016 196.346 36.968 196.346 40.608C196.346 41.792 196.658 42.908 197.206 43.872C197.474 44.352 197.798 44.796 198.182 45.184C199.202 46.264 200.598 47.004 202.154 47.2C202.398 47.228 202.642 47.248 202.89 47.252V54.032C202.674 54.032 202.466 54.048 202.258 54.068C202.242 54.068 202.23 54.068 202.214 54.076C202.002 54.1 201.794 54.136 201.586 54.18C201.302 54.24 201.022 54.32 200.754 54.416C200.678 54.444 200.598 54.472 200.526 54.504C200.502 54.512 200.482 54.524 200.458 54.528C200.386 54.556 200.318 54.588 200.246 54.62C200.174 54.648 200.106 54.684 200.038 54.716C199.978 54.744 199.922 54.776 199.87 54.804C199.706 54.892 199.55 54.984 199.394 55.084C199.318 55.132 199.242 55.18 199.174 55.232C199.094 55.288 199.01 55.348 198.934 55.408C198.854 55.468 198.778 55.528 198.702 55.596C198.63 55.656 198.554 55.72 198.482 55.792C198.41 55.86 198.338 55.928 198.266 56C198.126 56.14 197.994 56.284 197.866 56.44C196.942 57.548 196.378 58.956 196.342 60.5C196.342 60.58 196.342 60.664 196.342 60.744C196.342 63.332 197.826 65.568 199.982 66.664C200.858 67.112 201.846 67.368 202.89 67.384V74.164C202.674 74.164 202.458 74.184 202.25 74.204C202.142 74.216 202.034 74.228 201.934 74.248C201.85 74.26 201.766 74.272 201.682 74.292C201.562 74.316 201.438 74.344 201.318 74.376C201.218 74.4 201.118 74.428 201.018 74.46C200.918 74.488 200.822 74.524 200.726 74.56C200.63 74.592 200.534 74.632 200.438 74.672C200.342 74.708 200.25 74.752 200.158 74.796C200.066 74.836 199.974 74.884 199.886 74.932C199.794 74.98 199.706 75.028 199.618 75.084C199.546 75.124 199.478 75.164 199.406 75.212C199.29 75.284 199.182 75.364 199.07 75.444C198.998 75.492 198.934 75.544 198.866 75.6C198.706 75.72 198.558 75.856 198.41 76C197.138 77.204 196.342 78.916 196.342 80.812V80.88C196.342 82.34 196.814 83.692 197.618 84.792C197.674 84.872 197.738 84.956 197.802 85.032C197.862 85.112 197.922 85.192 197.998 85.264C198.058 85.34 198.126 85.416 198.202 85.484C198.27 85.556 198.338 85.624 198.41 85.692C198.486 85.764 198.566 85.836 198.642 85.904C198.714 85.976 198.794 86.036 198.874 86.096C198.934 86.148 198.994 86.196 199.062 86.24C199.09 86.264 199.126 86.288 199.154 86.312C199.226 86.36 199.294 86.408 199.366 86.452C199.434 86.5 199.502 86.54 199.574 86.58C199.646 86.628 199.726 86.672 199.802 86.712C199.882 86.756 199.97 86.8 200.054 86.84C200.126 86.876 200.198 86.912 200.27 86.944C200.702 87.14 201.154 87.288 201.626 87.388C201.818 87.428 202.014 87.46 202.214 87.484C202.23 87.484 202.238 87.484 202.25 87.484C202.462 87.508 202.674 87.52 202.89 87.524V94.304C200.542 94.336 198.486 95.592 197.33 97.46C196.75 98.404 196.394 99.5 196.35 100.676C196.35 100.768 196.342 100.856 196.342 100.948V101.016C196.342 101.088 196.342 101.16 196.35 101.228C196.35 101.376 196.362 101.524 196.378 101.668C196.402 101.976 196.454 102.272 196.526 102.568C196.658 103.124 196.866 103.648 197.122 104.144C198.23 106.208 200.39 107.624 202.89 107.66V114.436C199.834 114.488 197.278 116.592 196.55 119.432C196.446 119.856 196.378 120.3 196.354 120.752V120.788C196.346 120.888 196.342 120.984 196.342 121.084V121.152C196.342 121.252 196.342 121.348 196.35 121.444C196.43 123.3 197.274 124.952 198.566 126.112V126.12C199.722 127.144 201.23 127.776 202.89 127.8V134.58C199.358 134.632 196.49 137.44 196.35 140.952C196.35 141.044 196.342 141.132 196.342 141.224V141.292C196.342 144.932 199.266 147.884 202.89 147.936V154.712C202.806 154.712 202.722 154.712 202.63 154.728C201.218 154.8 199.93 155.316 198.89 156.132C197.422 157.284 196.446 159.04 196.35 161.024C196.342 161.144 196.338 161.268 196.338 161.392V161.424C196.338 161.536 196.338 161.644 196.35 161.756C196.358 161.96 196.378 162.16 196.41 162.352C196.858 165.552 199.578 168.016 202.89 168.068V174.848C200.602 174.88 198.594 176.072 197.422 177.868C197.118 178.32 196.878 178.816 196.702 179.344C196.514 179.88 196.398 180.444 196.358 181.028C196.358 181.036 196.358 181.044 196.358 181.048C196.35 181.124 196.346 181.208 196.342 181.284C196.342 181.376 196.342 181.468 196.342 181.56C196.342 181.652 196.342 181.74 196.35 181.828C196.378 182.604 196.55 183.344 196.822 184.032C197.33 185.296 198.21 186.364 199.338 187.1C199.742 187.372 200.178 187.6 200.634 187.772H200.65C201.346 188.04 202.106 188.188 202.894 188.2V194.98C199.526 195.032 196.77 197.58 196.39 200.86C196.37 201.028 196.358 201.204 196.354 201.38C196.354 201.44 196.354 201.5 196.346 201.56V201.688C196.346 201.744 196.346 201.804 196.346 201.856C196.346 201.928 196.346 202 196.358 202.068C196.438 203.516 196.986 204.84 197.85 205.892C197.91 205.968 197.974 206.048 198.046 206.12C198.11 206.192 198.178 206.268 198.25 206.336C198.39 206.48 198.534 206.616 198.686 206.74C198.762 206.808 198.838 206.868 198.918 206.928C198.986 206.984 199.05 207.036 199.122 207.084C199.146 207.1 199.166 207.116 199.194 207.132C199.266 207.184 199.338 207.232 199.41 207.276C199.486 207.332 199.566 207.38 199.646 207.424C199.666 207.436 199.682 207.448 199.702 207.456C199.774 207.5 199.854 207.54 199.93 207.576C200.042 207.636 200.15 207.692 200.266 207.744C200.338 207.776 200.406 207.808 200.478 207.832C200.57 207.872 200.662 207.908 200.758 207.944C200.926 208.004 201.106 208.06 201.282 208.108C201.366 208.132 201.45 208.152 201.538 208.172C201.774 208.228 202.018 208.268 202.266 208.292C202.478 208.316 202.686 208.328 202.902 208.332V215.108C202.802 215.108 202.69 215.116 202.594 215.124C202.238 215.148 201.898 215.196 201.562 215.272C201.058 215.384 200.57 215.552 200.114 215.772C197.898 216.852 196.362 219.12 196.362 221.756C196.362 222.628 196.534 223.46 196.842 224.228C197.35 225.492 198.23 226.56 199.358 227.296C199.762 227.568 200.198 227.796 200.654 227.968H200.67C201.366 228.236 202.126 228.384 202.914 228.396V235.244C201.278 235.268 199.79 235.884 198.646 236.884C198.234 237.24 197.87 237.648 197.566 238.096C196.814 239.168 196.366 240.484 196.366 241.892C196.366 245.532 199.29 248.48 202.914 248.54V255.5C202.914 255.5 202.898 255.5 202.89 255.5C202.818 255.492 202.738 255.484 202.662 255.476C202.606 255.476 202.546 255.468 202.494 255.464C202.382 255.456 202.27 255.452 202.154 255.452C202.054 255.452 201.946 255.452 201.85 255.46C201.682 255.468 201.51 255.484 201.35 255.5C198.866 255.804 196.806 257.472 195.946 259.736C195.742 260.268 195.606 260.836 195.546 261.424C195.526 261.596 195.514 261.78 195.514 261.956H188.662C188.59 258.56 185.978 255.796 182.65 255.48C182.546 255.468 182.434 255.46 182.326 255.456C182.226 255.456 182.118 255.448 182.018 255.448C181.846 255.448 181.678 255.456 181.514 255.468C181.442 255.476 181.358 255.48 181.29 255.492C178.986 255.744 177.038 257.172 176.054 259.164C175.802 259.672 175.618 260.22 175.506 260.792C175.434 261.172 175.386 261.56 175.382 261.956H168.53C168.458 258.64 165.966 255.924 162.754 255.512C162.65 255.496 162.546 255.488 162.442 255.48C162.298 255.464 162.158 255.456 162.014 255.456C161.974 255.456 161.926 255.456 161.89 255.456H161.858C161.766 255.456 161.678 255.456 161.586 255.464C161.398 255.476 161.214 255.492 161.026 255.516C160.962 255.528 160.902 255.536 160.838 255.544C158.958 255.844 157.346 256.924 156.35 258.444V258.452C156.034 258.92 155.786 259.424 155.602 259.964C155.39 260.592 155.27 261.264 155.254 261.96H148.394C148.326 258.452 145.538 255.62 142.054 255.464C141.958 255.464 141.854 255.456 141.75 255.456H141.722C139.802 255.468 138.078 256.288 136.862 257.6C136.494 258.004 136.174 258.46 135.906 258.948C135.41 259.848 135.13 260.872 135.11 261.964H128.258C128.19 258.776 125.882 256.144 122.846 255.576C122.65 255.536 122.45 255.504 122.246 255.488C122.142 255.476 122.03 255.468 121.922 255.464C121.822 255.464 121.718 255.456 121.618 255.456C121.518 255.456 121.414 255.456 121.314 255.464C121.23 255.464 121.154 255.472 121.078 255.48C120.99 255.488 120.902 255.496 120.814 255.504C120.65 255.524 120.486 255.552 120.322 255.584C120.234 255.604 120.146 255.62 120.058 255.64C119.994 255.656 119.938 255.672 119.874 255.688C119.094 255.9 118.374 256.248 117.738 256.704C117.298 257.02 116.902 257.392 116.55 257.8C115.59 258.928 115.006 260.38 114.97 261.96H108.118C108.046 258.604 105.494 255.86 102.222 255.5C102.134 255.488 102.05 255.48 101.962 255.476H101.946C101.874 255.468 101.806 255.464 101.738 255.464C101.646 255.456 101.562 255.456 101.474 255.456C101.366 255.456 101.258 255.456 101.158 255.464C101.046 255.464 100.946 255.476 100.842 255.488C100.634 255.508 100.426 255.536 100.23 255.572C99.8262 255.648 99.4382 255.764 99.0622 255.912C98.5622 256.108 98.0942 256.36 97.6622 256.664C95.9942 257.836 94.8862 259.772 94.8382 261.96H87.9822C87.9102 258.564 85.2982 255.796 81.9742 255.484C81.8662 255.472 81.7622 255.464 81.6502 255.46C81.5462 255.46 81.4463 255.452 81.3422 255.452C81.2582 255.452 81.1742 255.452 81.0862 255.452C80.9462 255.452 80.8102 255.464 80.6782 255.48C80.6022 255.488 80.5342 255.496 80.4662 255.504C80.0622 255.556 79.6742 255.648 79.3022 255.768C76.6742 256.62 74.7663 259.056 74.7022 261.952H67.8542C67.7943 259.104 65.9422 256.7 63.3822 255.82C63.3022 255.792 63.2182 255.764 63.1342 255.74C63.0982 255.724 63.0583 255.716 63.0182 255.704C62.9502 255.684 62.8862 255.668 62.8182 255.652C62.5023 255.568 62.1782 255.512 61.8462 255.484C61.7822 255.476 61.7302 255.472 61.6702 255.468C61.5782 255.46 61.4782 255.456 61.3782 255.452H61.3622C61.3102 255.452 61.2542 255.452 61.2062 255.452H61.1742C61.0702 255.452 60.9702 255.452 60.8662 255.46C60.6542 255.472 60.4462 255.492 60.2342 255.524C60.2342 255.524 60.2182 255.524 60.2142 255.524C57.0542 255.992 54.6342 258.68 54.5622 261.956H47.7102C47.6662 259.896 46.6902 258.072 45.1822 256.88C44.7062 256.504 44.1662 256.192 43.5982 255.952C42.8422 255.64 42.0182 255.46 41.1462 255.452C41.1222 255.452 41.0942 255.452 41.0662 255.452C40.8382 255.452 40.6102 255.464 40.3822 255.484C40.2862 255.496 40.1942 255.508 40.0982 255.52C40.0062 255.532 39.9103 255.544 39.8182 255.564C39.7262 255.584 39.6343 255.6 39.5422 255.624C36.8983 256.248 34.8622 258.448 34.4822 261.188C34.4502 261.44 34.4262 261.696 34.4222 261.956H27.5702C27.5462 260.968 27.3142 260.032 26.9062 259.2C26.5702 258.512 26.1262 257.892 25.5902 257.364C24.4662 256.256 22.9502 255.544 21.2662 255.46C21.1502 255.46 21.0462 255.452 20.9303 255.452C20.8382 255.452 20.7462 255.452 20.6542 255.46C20.5422 255.46 20.4382 255.472 20.3302 255.484C16.9823 255.78 14.3542 258.552 14.2822 261.96H7.43025C7.41425 261.128 7.24624 260.332 6.94624 259.604C6.02224 257.32 3.87024 255.676 1.30624 255.476C1.24624 255.476 1.18625 255.468 1.13025 255.464C1.05825 255.464 0.986242 255.464 0.910242 255.456H0.854248V248.54C3.97425 248.452 6.56625 246.22 7.17825 243.26C7.27025 242.82 7.31825 242.364 7.31825 241.896C7.31825 241.668 7.31024 241.436 7.28624 241.208C6.95024 237.98 4.31425 235.444 1.04225 235.268C0.978249 235.26 0.92224 235.252 0.85824 235.252V228.396C4.44624 228.296 7.32224 225.368 7.32224 221.76C7.32224 220.908 7.17024 220.1 6.87024 219.352C6.68224 218.852 6.42224 218.384 6.12224 217.952C5.98224 217.748 5.83024 217.556 5.67024 217.372C5.66224 217.364 5.65424 217.356 5.65024 217.352C4.47424 216.02 2.76224 215.168 0.85824 215.112V208.328C3.97824 208.24 6.57024 206.008 7.18224 203.048C7.27424 202.608 7.32224 202.152 7.32224 201.684C7.32224 201.624 7.32224 201.564 7.32224 201.504C7.32224 201.432 7.32225 201.364 7.31425 201.292C7.31425 201.192 7.30625 201.092 7.29025 200.996C7.27825 200.892 7.26625 200.792 7.25425 200.692C6.99025 198.744 5.87824 197.068 4.29824 196.044C3.66624 195.636 2.96224 195.328 2.20624 195.152C1.77424 195.048 1.32224 194.988 0.85824 194.976V188.188C4.25824 188.092 7.01824 185.456 7.29424 182.112C7.31424 181.928 7.31825 181.74 7.31825 181.552V181.48C7.31825 181.328 7.31824 181.176 7.30624 181.032C7.08224 177.632 4.29025 174.932 0.854248 174.836V168.048C0.918248 168.048 0.974245 168.048 1.03824 168.04C2.85424 167.94 4.47825 167.116 5.61825 165.844C6.55425 164.808 7.16224 163.472 7.28624 161.996C7.29824 161.888 7.30624 161.784 7.31024 161.676C7.31824 161.588 7.31825 161.5 7.31825 161.408V161.34C7.31825 160.236 7.05425 159.196 6.57825 158.28C6.29825 157.736 5.93825 157.236 5.53025 156.796C4.35425 155.544 2.70225 154.748 0.854248 154.696V147.908C4.01825 147.82 6.63425 145.528 7.20225 142.508C7.26225 142.22 7.29424 141.92 7.30624 141.62C7.31424 141.5 7.31825 141.388 7.31825 141.268C7.31825 141.192 7.31825 141.116 7.31825 141.044C7.31825 140.972 7.31824 140.896 7.31024 140.824C7.11824 137.388 4.32224 134.66 0.85824 134.564V127.776C4.44224 127.68 7.31024 124.76 7.32224 121.156V121.132C7.32224 120.996 7.32224 120.86 7.31024 120.724C7.29024 120.304 7.23824 119.892 7.13824 119.5C6.45024 116.644 3.91024 114.508 0.85824 114.424V107.64C2.59424 107.592 4.18225 106.872 5.34225 105.724C5.82625 105.256 6.23824 104.704 6.55824 104.104C6.64624 103.932 6.73024 103.752 6.80624 103.572C6.84624 103.48 6.88225 103.388 6.91425 103.296C6.95025 103.204 6.98624 103.112 7.01024 103.016C7.17824 102.484 7.28225 101.924 7.31425 101.344C7.32225 101.228 7.32625 101.116 7.32625 100.996C7.32625 100.876 7.32625 100.772 7.31825 100.66C7.31825 100.548 7.30624 100.444 7.29424 100.336C7.00224 97 4.25024 94.376 0.862244 94.288V87.5C1.02224 87.5 1.17425 87.484 1.33025 87.472C1.48625 87.456 1.63825 87.436 1.79025 87.408C1.99425 87.376 2.19024 87.336 2.38224 87.28C2.48224 87.256 2.57824 87.228 2.67424 87.196C2.77024 87.172 2.86624 87.136 2.95824 87.1C3.05424 87.068 3.14624 87.028 3.23824 86.988C3.33024 86.952 3.42224 86.912 3.51024 86.868C3.60224 86.828 3.69024 86.784 3.77424 86.736C3.86224 86.692 3.94624 86.644 4.03424 86.592C4.11824 86.544 4.20224 86.492 4.28624 86.436C4.37024 86.384 4.45025 86.332 4.53025 86.268C6.16225 85.108 7.24625 83.232 7.31825 81.096C7.31825 81.044 7.31825 80.988 7.31825 80.932V80.792C7.31825 80.704 7.31824 80.616 7.31024 80.532C7.28624 79.804 7.14224 79.112 6.89424 78.464C6.82624 78.272 6.74624 78.088 6.65824 77.908C6.53024 77.64 6.38225 77.38 6.21825 77.132C6.21825 77.132 6.21024 77.132 6.21024 77.124C6.10224 76.96 5.98624 76.796 5.85824 76.64C5.73424 76.484 5.59824 76.336 5.46224 76.192C5.39424 76.12 5.32224 76.048 5.25024 75.98C5.17824 75.908 5.10625 75.844 5.03025 75.78C4.95825 75.708 4.87825 75.648 4.80225 75.588C4.73025 75.524 4.65425 75.468 4.57825 75.416C4.48625 75.348 4.39425 75.288 4.30225 75.228C4.22625 75.172 4.14625 75.124 4.06625 75.08C3.98225 75.024 3.89424 74.976 3.80624 74.932C3.72224 74.88 3.63425 74.836 3.54225 74.796C3.45025 74.752 3.35825 74.708 3.26625 74.672C3.17825 74.632 3.08624 74.6 2.99424 74.564C2.72224 74.46 2.44225 74.376 2.15425 74.308C2.05425 74.284 1.95024 74.264 1.84624 74.248C1.76224 74.228 1.67824 74.22 1.58624 74.208C1.45824 74.184 1.32625 74.176 1.19025 74.164C1.07825 74.152 0.970248 74.148 0.854248 74.144V67.356C1.33825 67.344 1.80624 67.28 2.25824 67.168C3.09024 66.964 3.85424 66.608 4.53424 66.124C6.08224 65.02 7.13425 63.26 7.29025 61.256C7.30225 61.156 7.30624 61.056 7.31024 60.956C7.31824 60.88 7.31825 60.8 7.31825 60.72C7.31825 60.604 7.31824 60.496 7.31024 60.384C7.31024 60.276 7.29824 60.172 7.28624 60.064C7.23024 59.384 7.07424 58.736 6.82625 58.132C5.85425 55.768 3.55425 54.088 0.854248 54.016V47.228C1.61025 47.208 2.33024 47.06 2.99824 46.808C3.07024 46.784 3.13824 46.76 3.20624 46.732C3.35824 46.668 3.50624 46.604 3.65024 46.532C5.04624 45.836 6.15825 44.66 6.77825 43.224C6.99425 42.74 7.14625 42.22 7.23025 41.68C7.29825 41.324 7.32224 40.96 7.32224 40.588C7.32224 36.976 4.45024 34.044 0.85824 33.944V27.088C1.61024 27.068 2.31824 26.92 2.99424 26.676C5.52224 25.744 7.32224 23.308 7.32224 20.452C7.32224 19.56 7.15025 18.704 6.83025 17.928C5.85825 15.564 3.55824 13.884 0.85824 13.812V6.97599C0.95824 6.97599 1.05025 6.97599 1.15425 6.96799C1.25825 6.95999 1.36624 6.95199 1.47424 6.94399C4.82624 6.59999 7.44624 3.76799 7.44624 0.323987C7.44624 0.259987 7.43424 0.20399 7.43424 0.13999H14.2862C14.2862 0.20399 14.2862 0.259987 14.2862 0.323987C14.2862 3.90399 17.1102 6.82399 20.6542 6.96799C20.7462 6.96799 20.8462 6.97599 20.9382 6.97599H20.9982C24.6422 6.94399 27.5822 3.97199 27.5822 0.323987C27.5822 0.259987 27.5702 0.20399 27.5702 0.13999H34.4302C34.4302 0.20399 34.4183 0.259987 34.4183 0.323987C34.4183 0.659987 34.4462 0.987989 34.4942 1.30799C34.9462 4.39999 37.5382 6.79599 40.7102 6.96799C40.8262 6.96799 40.9502 6.97599 41.0662 6.97599H41.0902C41.2022 6.97599 41.3022 6.97599 41.4142 6.96399C41.4862 6.96399 41.5583 6.95599 41.6302 6.94799C41.7062 6.94799 41.7782 6.93599 41.8502 6.92399C41.9622 6.90799 42.0662 6.89599 42.1822 6.87599C42.2942 6.85599 42.4022 6.83599 42.5062 6.80799C43.8182 6.52399 44.9822 5.84799 45.8702 4.91199C47.0102 3.71999 47.7142 2.09999 47.7142 0.319989C47.7142 0.255989 47.7062 0.199986 47.7062 0.135986H54.5622C54.5622 0.199986 54.5502 0.255989 54.5502 0.319989C54.5502 3.76399 57.1662 6.59599 60.5222 6.93999C60.6022 6.94799 60.6862 6.95599 60.7662 6.95999C60.8102 6.95999 60.8542 6.96799 60.8942 6.96799C60.9942 6.96799 61.0982 6.97599 61.2022 6.97599C61.3062 6.97599 61.4142 6.97599 61.5222 6.96399C61.6342 6.96399 61.7382 6.95199 61.8462 6.93999C61.8582 6.93999 61.8702 6.93999 61.8782 6.93999C62.2222 6.90799 62.5542 6.84799 62.8782 6.76399C63.5302 6.59599 64.1502 6.31999 64.7142 5.96799C66.5942 4.79599 67.8502 2.70799 67.8502 0.327991C67.8502 0.263991 67.8382 0.207988 67.8342 0.143988H74.6862C74.6862 0.207988 74.6862 0.263991 74.6862 0.327991C74.6862 2.96399 76.2262 5.24399 78.4542 6.32799C78.6062 6.39999 78.7582 6.47199 78.9142 6.53199C78.9942 6.55999 79.0742 6.59199 79.1582 6.61999C79.2742 6.65999 79.3902 6.69599 79.5102 6.73199C79.6702 6.77599 79.8262 6.81599 79.9902 6.85199C80.1062 6.87599 80.2223 6.89599 80.3422 6.91599C80.4342 6.92799 80.5263 6.93999 80.6182 6.94799C80.6343 6.94799 80.6422 6.94799 80.6582 6.94799C80.7702 6.95999 80.8742 6.96799 80.9902 6.97199H81.0023C81.1022 6.97199 81.2062 6.97999 81.3102 6.97999H81.3382C81.4502 6.97999 81.5582 6.97999 81.6582 6.97199C85.1822 6.80399 87.9902 3.89199 87.9902 0.327991C87.9902 0.263991 87.9782 0.207988 87.9782 0.143988H94.8382C94.8382 0.207988 94.8262 0.263991 94.8262 0.327991C94.8262 2.60799 95.9742 4.61999 97.7262 5.81599C98.1582 6.11999 98.6302 6.35999 99.1342 6.55199C99.4502 6.67199 99.7742 6.76399 100.11 6.83599C100.122 6.83599 100.134 6.84399 100.15 6.84799C100.302 6.87599 100.458 6.90799 100.618 6.92399C100.794 6.94799 100.978 6.96399 101.162 6.97199C101.266 6.97199 101.37 6.97999 101.47 6.97999C101.57 6.97999 101.678 6.97999 101.778 6.97199C105.306 6.80799 108.118 3.89599 108.118 0.327991C108.118 0.263991 108.106 0.207988 108.102 0.143988H114.958C114.958 0.207988 114.95 0.263991 114.95 0.327991C114.95 1.78399 115.422 3.13599 116.21 4.23199C116.53 4.67199 116.898 5.06399 117.314 5.41199C117.942 5.94799 118.674 6.36399 119.474 6.63199C119.482 6.63199 119.486 6.63199 119.498 6.63999C119.638 6.68799 119.786 6.73199 119.934 6.76799C119.934 6.76799 119.946 6.76799 119.95 6.76799C119.994 6.77999 120.042 6.79199 120.086 6.79599C120.206 6.82399 120.33 6.85199 120.454 6.87199C120.466 6.87199 120.478 6.87199 120.486 6.87999C120.654 6.90399 120.826 6.93199 120.998 6.94799C121.098 6.95599 121.194 6.96399 121.302 6.96799C121.402 6.96799 121.502 6.97599 121.606 6.97599C121.71 6.97599 121.818 6.97599 121.918 6.96799C125.438 6.80399 128.25 3.89199 128.25 0.323987C128.25 0.259987 128.25 0.20399 128.25 0.13999H135.102C135.102 0.20399 135.102 0.259987 135.102 0.323987C135.102 1.05999 135.222 1.77199 135.45 2.43599C135.63 2.98399 135.878 3.49999 136.19 3.97199C137.07 5.31599 138.422 6.31999 140.01 6.74799C140.026 6.74799 140.038 6.75599 140.054 6.75999H140.066C140.246 6.81199 140.434 6.84799 140.626 6.87999C140.722 6.89999 140.814 6.91599 140.914 6.92799C140.998 6.93599 141.078 6.94399 141.17 6.95199C141.262 6.95999 141.35 6.96799 141.442 6.97599C141.534 6.97599 141.626 6.98399 141.718 6.98399H141.746C145.426 6.98399 148.402 4.00399 148.402 0.331989C148.402 0.267989 148.386 0.211992 148.386 0.147992H155.25C155.25 0.211992 155.234 0.267989 155.234 0.331989C155.234 0.451989 155.234 0.567988 155.246 0.687988C155.278 1.32399 155.398 1.93599 155.602 2.51199C156.314 4.56399 158.002 6.15999 160.102 6.74399C160.142 6.75599 160.178 6.76399 160.218 6.77199C160.294 6.79599 160.382 6.81199 160.466 6.83199C160.57 6.85599 160.67 6.87999 160.774 6.89599C160.874 6.91599 160.978 6.92799 161.082 6.93999C161.166 6.95199 161.258 6.95999 161.346 6.96399C161.426 6.97199 161.506 6.97599 161.578 6.97999C161.686 6.97999 161.786 6.98799 161.886 6.98799C161.97 6.98799 162.062 6.98799 162.154 6.97999C165.698 6.83999 168.538 3.91599 168.538 0.335986C168.538 0.271986 168.53 0.21599 168.526 0.15199H175.382C175.382 0.21599 175.374 0.271986 175.374 0.335986C175.374 0.599986 175.39 0.859989 175.414 1.11999C175.794 4.32399 178.438 6.82799 181.706 6.98399C181.81 6.98399 181.918 6.99199 182.022 6.99199C182.214 6.99199 182.414 6.98399 182.606 6.96799C182.618 6.96799 182.63 6.96799 182.642 6.96799C182.966 6.93999 183.286 6.88399 183.598 6.80399C183.694 6.77999 183.798 6.75199 183.894 6.72399C185.742 6.18799 187.25 4.86799 188.05 3.15599C188.454 2.30399 188.674 1.34799 188.674 0.343988C188.674 0.279988 188.674 0.223991 188.674 0.159991H195.526C195.526 0.223991 195.514 0.279988 195.514 0.343988C195.514 3.30799 197.45 5.81199 200.126 6.67599C200.158 6.68799 200.19 6.69999 200.218 6.70399C200.334 6.73999 200.45 6.77199 200.57 6.79999C200.734 6.83999 200.902 6.87599 201.074 6.90399C201.178 6.92799 201.29 6.93999 201.398 6.95199C201.65 6.97999 201.906 6.99599 202.166 6.99599C202.258 6.99599 202.35 6.99599 202.446 6.98799C202.538 6.97999 202.63 6.97199 202.722 6.96399H202.73C202.73 6.96399 202.766 6.96399 202.782 6.96399C202.798 6.96399 202.81 6.96399 202.834 6.96399C202.85 6.96399 202.858 6.96399 202.882 6.95599C202.902 6.95599 202.914 6.95599 202.93 6.94799V13.832C199.306 13.884 196.382 16.84 196.382 20.476L196.346 20.472Z" fill="#F9F8F4"/>
<path d="M101.567 131.088C107.955 131.088 113.135 125.909 113.135 119.52C113.135 113.131 107.955 107.952 101.567 107.952C95.1777 107.952 89.9985 113.131 89.9985 119.52C89.9985 125.909 95.1777 131.088 101.567 131.088Z" fill="#3E5E4F"/>
<path d="M89.9985 119.52H113.131L101.567 58.9761L89.9985 119.52Z" fill="#FF8D74"/>
<path d="M113.131 119.472H89.9985L101.567 179.652L113.131 119.472Z" fill="#FF8D74"/>
<path d="M101.542 107.932V131.064L162.086 119.496L101.542 107.932Z" fill="#FF8D74"/>
<path d="M101.586 131.064V107.932L42.146 119.496L101.586 131.064Z" fill="#FF8D74"/>
<path d="M146.182 74.876V74.884L109.714 111.304L101.566 105.68L146.182 74.876Z" fill="#FF5729"/>
<path d="M93.3501 127.84L93.3621 127.856L93.3701 127.852L101.518 133.456L56.9421 164.12L57.1901 163.764L57.2101 163.748L93.3221 127.796L93.3341 127.82" fill="#FF5729"/>
<path d="M146.186 164.12L146.018 164.004L109.738 127.68L109.742 127.676L109.762 127.66L109.758 127.656L115.386 119.5L146.186 164.12Z" fill="#FF5729"/>
<path d="M109.722 127.692L101.566 133.32L93.4062 127.692L101.566 119.532L109.722 127.692Z" fill="#FF5729"/>
<path d="M115.387 119.5L109.759 127.656L101.599 119.5L109.759 111.34L115.387 119.5Z" fill="#FBBBA6"/>
<path d="M93.3861 111.32L93.3701 111.336L93.3741 111.34L87.7461 119.5L56.9421 74.8721L57.1141 74.9921L93.3941 111.316L93.3861 111.32Z" fill="#FF5729"/>
<path d="M109.714 111.304L101.55 119.452L93.4062 111.308L101.566 105.68L109.714 111.304Z" fill="#FF5729"/>
<path d="M101.518 119.484L93.3581 127.632L87.7461 119.5L93.3741 111.34L101.518 119.484Z" fill="#FBBBA6"/>
<path d="M101.59 123.736C103.919 123.736 105.806 121.848 105.806 119.52C105.806 117.192 103.919 115.304 101.59 115.304C99.2618 115.304 97.3743 117.192 97.3743 119.52C97.3743 121.848 99.2618 123.736 101.59 123.736Z" fill="#FF5729"/>
<path d="M37.8507 47.4437C37.7187 46.7397 37.4307 45.6237 36.9867 44.0917C36.5427 42.5637 36.1867 41.4637 35.9187 40.7997C36.4027 40.6597 36.8467 40.5277 37.2467 40.4077C37.6467 40.2877 38.0227 40.1757 38.3707 40.0717C38.6347 39.9917 38.9027 39.9117 39.1667 39.8317C39.4307 39.7517 39.7067 39.6757 39.9867 39.5997C41.0267 39.3157 41.9587 39.2117 42.7787 39.2877C43.5987 39.3597 44.2707 39.5997 44.7907 40.0037C45.3107 40.4077 45.6587 40.9637 45.8347 41.6677C46.0107 42.3797 45.9587 43.0397 45.6827 43.6517C45.4067 44.2637 44.9227 44.8037 44.2307 45.2717C43.5427 45.7397 42.6707 46.1157 41.6187 46.4037C41.3347 46.4797 41.0427 46.5597 40.7467 46.6437C40.4507 46.7277 40.1467 46.8077 39.8387 46.8877C39.0387 47.1077 38.6427 47.2197 37.8427 47.4477L37.8507 47.4437ZM38.2347 41.3757C38.4427 42.1877 38.6427 42.9037 38.8187 43.5197C38.9187 43.8677 39.0187 44.2237 39.1267 44.5797C39.2347 44.9357 39.3427 45.2957 39.4467 45.6517C39.6147 45.6157 39.6987 45.5997 39.8627 45.5637C40.0747 45.5237 40.3107 45.4757 40.5667 45.4157C40.8267 45.3557 41.0707 45.2957 41.3027 45.2317C41.9587 45.0517 42.5027 44.8117 42.9307 44.5117C43.3587 44.2117 43.6587 43.8597 43.8227 43.4557C43.9907 43.0517 44.0147 42.6197 43.8947 42.1557C43.7747 41.6957 43.5507 41.3357 43.2107 41.0637C42.8747 40.7957 42.4427 40.6397 41.9187 40.5917C41.3947 40.5437 40.8067 40.6117 40.1467 40.7917C40.0427 40.8197 39.9307 40.8517 39.8147 40.8877C39.6987 40.9237 39.5747 40.9597 39.4467 41.0037C39.2587 41.0677 39.0587 41.1317 38.8467 41.1997C38.6347 41.2677 38.4307 41.3237 38.2307 41.3717L38.2347 41.3757Z" fill="#FF5729"/>
<path d="M47.7785 44.7879C47.6545 43.9959 47.4145 42.8679 47.0585 41.4039C46.7025 39.9399 46.3945 38.8279 46.1345 38.0679C46.3745 38.0399 46.8425 37.9519 47.5425 37.8079C48.2425 37.6639 48.9945 37.4999 49.7985 37.3239C50.7225 37.1199 51.5545 36.9279 52.2985 36.7519C53.0425 36.5759 53.5985 36.4319 53.9625 36.3159C53.9945 36.5919 54.0385 36.8679 54.0985 37.1399C54.1545 37.4119 54.2265 37.6839 54.3065 37.9479C54.0225 37.9319 53.6425 37.9439 53.1705 37.9839C52.6985 38.0239 52.1625 38.0839 51.5785 38.1719C51.0025 38.2599 50.4425 38.3599 49.8985 38.4679C49.3545 38.5759 48.5345 38.6879 48.4745 38.7799C48.4265 38.8559 48.5825 39.3359 48.6425 39.6119C48.7025 39.8879 48.7665 40.1639 48.8385 40.4359C49.6545 40.2639 50.5465 40.0479 51.5185 39.7959C52.4905 39.5439 53.2785 39.3279 53.8745 39.1439C53.8945 39.3639 53.9305 39.5959 53.9825 39.8279C54.0345 40.0639 54.0945 40.2839 54.1625 40.4959C53.5345 40.5799 52.7265 40.7119 51.7465 40.9039C50.7625 41.0919 49.8785 41.2959 49.0865 41.5039C49.2345 42.1279 49.3745 42.6599 49.5105 43.0999C49.9465 43.0039 50.4305 42.8839 50.9585 42.7439C51.4865 42.6039 52.0065 42.4519 52.5105 42.2999C53.0385 42.1399 53.5305 41.9879 53.9785 41.8279C54.4225 41.6679 54.7745 41.5239 55.0305 41.3959C55.0625 41.6719 55.1105 41.9519 55.1665 42.2359C55.2265 42.5199 55.2985 42.7919 55.3785 43.0599C52.3305 43.7039 50.8065 44.0479 47.7745 44.7919L47.7785 44.7879Z" fill="#FF5729"/>
<path d="M59.3786 42.2518C59.2946 41.4558 59.1106 40.3158 58.8266 38.8358C58.5426 37.3558 58.2906 36.2318 58.0706 35.4598C58.5586 35.3718 58.9986 35.2918 59.3986 35.2158C59.7946 35.1398 60.1786 35.0678 60.5306 34.9878C60.7786 34.9318 61.0386 34.8758 61.3066 34.8238C61.5746 34.7718 61.8586 34.7198 62.1546 34.6678C63.1146 34.4998 63.9026 34.4398 64.5106 34.4918C65.1186 34.5398 65.5946 34.7118 65.9266 35.0078C66.2626 35.3038 66.4746 35.7438 66.5666 36.3238C66.6466 36.8398 66.5986 37.2958 66.4226 37.6918C66.2466 38.0878 65.8946 38.4318 65.3706 38.7238C64.8466 39.0158 64.1186 39.2398 63.1826 39.4038C62.2266 39.5718 61.7506 39.6558 60.7946 39.8318C60.7106 39.3838 60.6706 39.1558 60.5866 38.7078C60.6666 38.6918 60.7466 38.6798 60.8266 38.6678C60.9066 38.6558 60.9826 38.6478 61.0586 38.6398C61.2906 38.6118 61.5306 38.5678 61.7666 38.5318C62.0026 38.4958 62.2346 38.4558 62.4746 38.4158C63.2826 38.2718 63.8586 38.0678 64.2026 37.7958C64.5466 37.5238 64.6826 37.1758 64.6106 36.7598C64.5586 36.4518 64.4306 36.2238 64.2306 36.0758C64.0266 35.9278 63.7426 35.8478 63.3786 35.8318C63.0146 35.8158 62.5426 35.8598 61.9706 35.9598C61.8426 35.9838 61.7146 36.0078 61.5746 36.0358C61.4346 36.0638 61.2946 36.0918 61.1506 36.1238C61.0026 36.1558 60.8546 36.1878 60.7106 36.2198C60.5666 36.2478 60.4306 36.2758 60.2946 36.2998C60.4466 37.3038 60.6346 38.3438 60.8586 39.4158C61.0826 40.4918 61.2906 41.3038 61.4906 41.8558C60.6426 42.0118 60.2186 42.0918 59.3746 42.2558L59.3786 42.2518Z" fill="#FF5729"/>
<path d="M76.1385 36.1999C76.2266 36.9519 76.1385 37.6199 75.8705 38.1999C75.6025 38.7839 75.1706 39.2559 74.5786 39.6239C73.9826 39.9919 73.2505 40.2319 72.3745 40.3519C71.4665 40.4759 70.6826 40.4439 70.0186 40.2479C69.3546 40.0519 68.8225 39.7119 68.4225 39.2239C68.0225 38.7359 67.7665 38.1119 67.6505 37.3599C67.5345 36.6079 67.4226 35.9319 67.3146 35.3359C67.2066 34.7399 67.1066 34.2639 67.0186 33.9039C67.3746 33.9039 67.7426 33.8759 68.1266 33.8239C68.5066 33.7679 68.8505 33.6879 69.1585 33.5839C69.1825 33.9599 69.2265 34.4439 69.2985 35.0399C69.3705 35.6359 69.4626 36.3279 69.5786 37.1199C69.6506 37.6119 69.7946 38.0199 70.0146 38.3439C70.2346 38.6679 70.5265 38.8959 70.8945 39.0319C71.2625 39.1679 71.6985 39.2039 72.2065 39.1319C72.7105 39.0639 73.1185 38.9159 73.4345 38.6839C73.7505 38.4519 73.9745 38.1519 74.0985 37.7799C74.2265 37.4079 74.2585 36.9759 74.1945 36.4879C74.0865 35.6519 73.9905 34.9439 73.9065 34.3679C73.8185 33.7919 73.7385 33.3239 73.6625 32.9679C74.0185 32.9799 74.3905 32.9599 74.7745 32.9159C75.1585 32.8719 75.5025 32.7999 75.8065 32.7039C75.8145 33.0559 75.8506 33.5439 75.9146 34.1719C75.9746 34.7999 76.0505 35.4759 76.1345 36.2039L76.1385 36.1999Z" fill="#FF5729"/>
<path d="M77.8746 39.4238C77.7946 38.2678 77.6906 37.1198 77.5626 35.9758C77.4346 34.8318 77.2786 33.6878 77.0986 32.5518C77.5066 32.5518 77.9946 32.5278 78.5626 32.4678C79.1306 32.4118 79.5946 32.3358 79.9426 32.2438C80.4906 32.8918 81.0466 33.5358 81.6066 34.1798C82.1706 34.8198 82.7386 35.4598 83.3226 36.0918C83.6026 36.3998 83.8826 36.7078 84.1626 37.0078C84.4426 37.3118 84.7266 37.6158 85.0066 37.9198C84.7746 37.9998 84.6626 38.0358 84.4306 38.1158C84.3786 37.0758 84.2986 36.0318 84.1946 34.9878C84.1426 34.4878 84.0906 33.9718 84.0306 33.4478C83.9706 32.9238 83.9026 32.3998 83.8266 31.8838C84.1946 31.9078 84.5506 31.9078 84.8946 31.8838C85.2386 31.8598 85.5666 31.8038 85.8826 31.7158C85.9066 32.2918 85.9386 32.8678 85.9746 33.4438C86.0106 34.0158 86.0506 34.5958 86.0946 35.1798C86.1826 36.3198 86.2986 37.4638 86.4426 38.6118C85.3586 38.6958 84.8186 38.7398 83.7346 38.8358C83.3346 38.3478 82.9266 37.8678 82.5146 37.3958C82.0986 36.9238 81.6786 36.4598 81.2546 35.9998C80.4066 35.0838 79.5106 34.1758 78.5746 33.2798C78.8066 33.1958 78.9266 33.1518 79.1586 33.0678C79.2346 34.0798 79.3306 35.0958 79.4546 36.1198C79.5786 37.1438 79.7266 38.1718 79.8946 39.2038C79.0866 39.2878 78.6786 39.3318 77.8706 39.4238H77.8746Z" fill="#FF5729"/>
<path d="M90.3704 38.3397C90.3904 37.7237 90.3704 36.8557 90.3104 35.7437C90.2544 34.6277 90.1784 33.6037 90.0904 32.6677C89.3984 32.7237 88.7984 32.7917 88.2904 32.8797C87.7824 32.9677 87.2984 33.0717 86.8344 33.1997C86.8664 32.9397 86.8744 32.6797 86.8544 32.4197C86.8344 32.1637 86.7904 31.9077 86.7224 31.6517C88.3584 31.5757 89.8024 31.5037 91.0544 31.4357C92.3064 31.3637 93.7504 31.2717 95.3824 31.1677C95.3464 31.4277 95.3344 31.6877 95.3464 31.9437C95.3544 32.1997 95.3904 32.4597 95.4424 32.7157C94.9624 32.6437 94.4624 32.5917 93.9464 32.5597C93.4304 32.5317 92.8184 32.5277 92.1184 32.5517C92.1344 33.5037 92.1824 34.5357 92.2624 35.6477C92.3424 36.7597 92.4224 37.6157 92.5104 38.2197C91.6544 38.2637 91.2264 38.2877 90.3664 38.3397H90.3704Z" fill="#FF5729"/>
<path d="M94.5347 38.1199C94.7707 37.5759 95.0187 36.9959 95.2707 36.3919C95.5227 35.7839 95.7667 35.1879 96.0027 34.5999C96.4987 33.3519 96.9547 32.1839 97.3627 31.0919C97.8187 31.1319 98.3827 31.1479 99.0547 31.1399C99.7267 31.1319 100.251 31.0879 100.627 31.0159C101.159 32.2359 101.679 33.3839 102.171 34.4519C102.591 35.3639 103.139 36.5159 103.803 37.8959C102.879 37.8999 102.415 37.9039 101.491 37.9159C101.283 37.3039 101.011 36.5879 100.671 35.7719C100.311 34.9039 99.9667 34.1199 99.6467 33.4159C99.3227 32.7119 99.0867 32.2519 98.9427 32.0359C98.9707 32.0359 98.9827 32.0359 99.0107 32.0359C98.8347 32.3479 98.4307 33.3359 97.8147 34.9999C97.6227 35.5279 97.4347 36.0519 97.2547 36.5679C97.0747 37.0839 96.9027 37.5719 96.7467 38.0319C95.8627 38.0639 95.4227 38.0799 94.5387 38.1159L94.5347 38.1199ZM97.4227 35.5399C97.9187 35.5479 98.4827 35.5439 99.1107 35.5319C99.7387 35.5199 100.299 35.4919 100.795 35.4599C100.959 35.9159 101.039 36.1439 101.199 36.5959C100.591 36.5799 99.8827 36.5799 99.0747 36.5999C98.2667 36.6199 97.5587 36.6519 96.9507 36.6959C97.1387 36.2319 97.2307 35.9999 97.4227 35.5359V35.5399Z" fill="#FF5729"/>
<path d="M107.395 37.9119C107.471 37.1999 107.519 36.0479 107.535 34.4559C107.551 32.8639 107.531 31.7118 107.467 30.9958C107.967 30.9998 108.423 31.0039 108.839 31.0039C109.255 31.0039 109.643 31.0039 109.999 31.0039C110.275 31.0039 110.551 31.0039 110.823 31.0039C111.099 31.0039 111.379 31.0079 111.667 31.0159C112.735 31.0439 113.651 31.2159 114.407 31.5199C115.167 31.8279 115.735 32.2479 116.115 32.7879C116.495 33.3239 116.667 33.9559 116.631 34.6799C116.595 35.4119 116.355 36.0279 115.915 36.5359C115.475 37.0439 114.863 37.4199 114.071 37.6679C113.283 37.9159 112.351 38.0238 111.267 37.9958C110.975 37.9878 110.675 37.9799 110.371 37.9759C110.067 37.9679 109.755 37.9599 109.439 37.9479C108.619 37.9279 108.207 37.9198 107.387 37.9078L107.395 37.9119ZM109.495 32.2119C109.459 33.0479 109.443 33.7919 109.435 34.4319C109.431 34.7919 109.423 35.1639 109.423 35.5359C109.423 35.9079 109.423 36.2799 109.423 36.6559C109.591 36.6719 109.675 36.6759 109.843 36.6919C110.055 36.7159 110.291 36.7359 110.555 36.7519C110.815 36.7719 111.067 36.7839 111.303 36.7879C111.979 36.8039 112.559 36.7319 113.055 36.5679C113.551 36.4039 113.931 36.1519 114.207 35.8159C114.479 35.4799 114.627 35.0719 114.647 34.5919C114.667 34.1199 114.555 33.7039 114.311 33.3519C114.067 32.9999 113.703 32.7239 113.219 32.5279C112.735 32.3319 112.155 32.2238 111.479 32.2078C111.371 32.2078 111.255 32.2039 111.135 32.2039C111.015 32.2039 110.887 32.2038 110.751 32.2078C110.555 32.2118 110.343 32.2199 110.127 32.2199C109.907 32.2199 109.695 32.2198 109.491 32.2078L109.495 32.2119Z" fill="#FF5729"/>
<path d="M117.583 38.2317C117.695 37.4357 117.791 36.2877 117.871 34.7837C117.951 33.2797 117.979 32.1277 117.951 31.3237C118.187 31.3677 118.655 31.4197 119.363 31.4797C120.071 31.5437 120.831 31.6037 121.647 31.6677C122.583 31.7397 123.435 31.7957 124.195 31.8397C124.955 31.8837 125.523 31.9037 125.903 31.8997C125.855 32.1717 125.819 32.4477 125.795 32.7277C125.771 33.0077 125.759 33.2837 125.763 33.5637C125.495 33.4677 125.135 33.3677 124.671 33.2677C124.211 33.1677 123.683 33.0717 123.099 32.9877C122.527 32.9077 121.963 32.8397 121.415 32.7837C120.867 32.7277 120.055 32.6037 119.971 32.6717C119.903 32.7277 119.915 33.2357 119.891 33.5157C119.867 33.7957 119.851 34.0797 119.839 34.3637C120.663 34.4317 121.575 34.4837 122.575 34.5237C123.575 34.5637 124.383 34.5837 125.007 34.5797C124.963 34.7997 124.931 35.0277 124.911 35.2677C124.891 35.5077 124.887 35.7357 124.891 35.9597C124.267 35.8597 123.463 35.7557 122.471 35.6517C121.479 35.5477 120.579 35.4877 119.767 35.4637C119.727 36.1037 119.711 36.6517 119.715 37.1157C120.159 37.1477 120.651 37.1757 121.195 37.1917C121.739 37.2117 122.279 37.2117 122.803 37.2117C123.351 37.2117 123.867 37.2077 124.335 37.1837C124.803 37.1597 125.179 37.1237 125.463 37.0717C125.415 37.3437 125.379 37.6277 125.355 37.9157C125.331 38.2037 125.319 38.4877 125.319 38.7637C122.227 38.4997 120.679 38.3957 117.583 38.2317Z" fill="#FF5729"/>
<path d="M126.575 38.8759C126.727 37.7279 126.859 36.5799 126.963 35.4319C127.067 34.2839 127.147 33.1359 127.199 31.9839C127.583 32.0759 127.963 32.1399 128.335 32.1759C128.707 32.2159 129.051 32.2199 129.371 32.1879C129.259 32.7879 129.139 33.6719 129.011 34.8399C128.879 36.0479 128.787 37.0559 128.743 37.8519C129.511 37.9199 130.511 37.9799 131.755 38.0359C132.995 38.0919 133.863 38.0919 134.359 38.0279C134.291 38.3599 134.243 38.6479 134.215 38.8919C134.187 39.1359 134.167 39.3959 134.155 39.6759C131.127 39.3039 129.611 39.1439 126.579 38.8679L126.575 38.8759Z" fill="#FF5729"/>
<path d="M138.086 40.1957C138.266 39.4117 138.458 38.2757 138.666 36.7837C138.874 35.2917 138.998 34.1437 139.038 33.3438C139.27 33.4077 139.734 33.4997 140.434 33.6237C141.134 33.7477 141.89 33.8757 142.702 34.0037C143.634 34.1557 144.474 34.2837 145.23 34.3957C145.986 34.5037 146.554 34.5757 146.934 34.6037C146.862 34.8717 146.802 35.1438 146.754 35.4198C146.706 35.6958 146.67 35.9717 146.65 36.2477C146.394 36.1277 146.038 35.9997 145.586 35.8597C145.134 35.7237 144.618 35.5797 144.038 35.4477C143.474 35.3157 142.914 35.2037 142.374 35.0997C141.83 34.9957 141.03 34.7997 140.942 34.8637C140.87 34.9157 140.838 35.4197 140.79 35.6997C140.742 35.9797 140.702 36.2597 140.666 36.5397C141.486 36.6797 142.39 36.8117 143.386 36.9357C144.382 37.0597 145.19 37.1477 145.81 37.1997C145.746 37.4117 145.698 37.6397 145.658 37.8757C145.618 38.1117 145.59 38.3397 145.582 38.5637C144.966 38.4077 144.17 38.2357 143.19 38.0477C142.21 37.8597 141.314 37.7197 140.506 37.6277C140.414 38.2597 140.346 38.8077 140.31 39.2677C140.75 39.3397 141.238 39.4077 141.782 39.4717C142.322 39.5357 142.862 39.5877 143.386 39.6318C143.934 39.6797 144.446 39.7157 144.918 39.7357C145.39 39.7517 145.766 39.7477 146.054 39.7237C145.982 39.9917 145.922 40.2677 145.874 40.5517C145.826 40.8357 145.79 41.1157 145.766 41.3957C142.702 40.8677 141.162 40.6277 138.086 40.1997V40.1957Z" fill="#FF5729"/>
<path d="M151.255 42.5159C150.471 42.3599 149.711 42.1399 148.975 41.8559C148.239 41.5679 147.571 41.2559 146.979 40.9119C147.083 40.6199 147.159 40.3199 147.215 40.0199C147.267 39.7199 147.295 39.4159 147.299 39.1119C147.647 39.6119 148.235 40.0479 149.063 40.4239C149.891 40.8039 150.767 41.0839 151.699 41.2679C152.291 41.3839 152.731 41.4079 153.019 41.3359C153.307 41.2639 153.483 41.0959 153.535 40.8399C153.579 40.6159 153.535 40.4359 153.387 40.2919C153.243 40.1479 152.999 40.0119 152.651 39.8839C152.307 39.7559 151.735 39.5799 150.943 39.3559C150.131 39.1279 149.475 38.8959 148.979 38.6639C148.483 38.4319 148.115 38.1599 147.883 37.8479C147.651 37.5359 147.571 37.1559 147.647 36.7159C147.771 36.0199 148.183 35.5559 148.895 35.3279C149.603 35.0999 150.619 35.1079 151.939 35.3639C152.659 35.5039 153.291 35.6639 153.835 35.8439C154.379 36.0239 154.935 36.2479 155.495 36.4959C155.823 36.6399 156.031 36.7359 156.115 36.7759C156.043 36.9599 155.979 37.1519 155.931 37.3479C155.879 37.5439 155.839 37.7439 155.811 37.9439C155.799 38.0279 155.791 38.1159 155.779 38.1999C155.771 38.2879 155.763 38.3719 155.759 38.4599C155.175 38.0399 154.543 37.6719 153.859 37.3479C153.175 37.0279 152.431 36.7879 151.627 36.6319C150.999 36.5119 150.535 36.4839 150.231 36.5479C149.931 36.6119 149.755 36.7719 149.707 37.0279C149.667 37.2399 149.715 37.4199 149.847 37.5759C149.979 37.7279 150.215 37.8719 150.547 38.0039C150.879 38.1359 151.359 38.2919 151.979 38.4599C152.163 38.5079 152.303 38.5479 152.391 38.5799C153.191 38.8119 153.835 39.0519 154.319 39.2959C154.803 39.5359 155.151 39.8199 155.367 40.1399C155.579 40.4599 155.639 40.8399 155.547 41.2719C155.399 41.9559 154.971 42.3999 154.263 42.6039C153.555 42.8079 152.555 42.7759 151.255 42.5199V42.5159Z" fill="#FF5729"/>
<path d="M158.491 43.9438C158.683 43.3558 158.907 42.5198 159.167 41.4358C159.427 40.3518 159.643 39.3438 159.823 38.4198C159.139 38.2758 158.539 38.1758 158.027 38.1158C157.511 38.0558 157.015 38.0198 156.531 38.0118C156.635 37.7718 156.715 37.5238 156.771 37.2718C156.827 37.0198 156.855 36.7598 156.859 36.4998C158.459 36.8878 159.871 37.2278 161.103 37.5158C162.331 37.8038 163.751 38.1198 165.363 38.4838C165.255 38.7238 165.171 38.9678 165.107 39.2198C165.043 39.4718 165.003 39.7278 164.983 39.9878C164.539 39.7798 164.071 39.5918 163.579 39.4158C163.087 39.2398 162.499 39.0638 161.819 38.8918C161.567 39.8118 161.323 40.8158 161.083 41.9038C160.843 42.9918 160.683 43.8358 160.595 44.4438C159.755 44.2438 159.335 44.1438 158.491 43.9518V43.9438Z" fill="#FF5729"/>
<path d="M164.442 45.3838C164.706 44.6278 165.026 43.5198 165.402 42.0598C165.774 40.5998 166.026 39.4758 166.158 38.6838C166.382 38.7718 166.838 38.9158 167.522 39.1198C168.21 39.3238 168.95 39.5318 169.746 39.7558C170.658 40.0118 171.486 40.2358 172.23 40.4318C172.974 40.6278 173.534 40.7598 173.91 40.8318C173.806 41.0918 173.718 41.3518 173.638 41.6238C173.558 41.8918 173.494 42.1638 173.442 42.4358C173.198 42.2878 172.858 42.1198 172.422 41.9318C171.986 41.7438 171.482 41.5438 170.922 41.3438C170.374 41.1518 169.826 40.9758 169.294 40.8118C168.762 40.6478 167.986 40.3638 167.89 40.4158C167.814 40.4598 167.722 40.9558 167.646 41.2278C167.566 41.4998 167.494 41.7718 167.43 42.0478C168.234 42.2798 169.122 42.5118 170.102 42.7478C171.082 42.9838 171.882 43.1638 172.498 43.2838C172.414 43.4878 172.338 43.7078 172.27 43.9398C172.202 44.1718 172.154 44.3958 172.114 44.6158C171.518 44.3918 170.738 44.1318 169.782 43.8318C168.822 43.5358 167.946 43.2958 167.146 43.1078C166.982 43.7278 166.858 44.2638 166.77 44.7158C167.202 44.8358 167.682 44.9598 168.218 45.0838C168.754 45.2078 169.286 45.3198 169.802 45.4238C170.342 45.5318 170.854 45.6278 171.322 45.6998C171.79 45.7718 172.17 45.8078 172.458 45.8158C172.358 46.0758 172.266 46.3438 172.186 46.6198C172.106 46.8958 172.038 47.1718 171.986 47.4438C168.978 46.5718 167.47 46.1598 164.442 45.3838Z" fill="#FF5729"/>
<path d="M49.5341 213.984C49.5341 215.724 49.1541 217.22 48.3981 218.48C47.6421 219.74 46.5421 220.7 45.1021 221.364C43.6621 222.028 41.9341 222.36 39.9261 222.36C37.9181 222.36 36.0942 222.028 34.6662 221.364C33.2381 220.7 32.1622 219.74 31.4422 218.492C30.7222 217.24 30.3621 215.74 30.3621 213.984C30.3621 212.228 30.3461 210.66 30.3101 209.264C30.2741 207.872 30.2221 206.752 30.1501 205.904C30.9261 206.032 31.7421 206.1 32.5901 206.104C33.4381 206.112 34.2141 206.044 34.9221 205.904C34.8501 206.768 34.7981 207.888 34.7621 209.264C34.7261 210.644 34.7101 212.252 34.7101 214.088C34.7101 215.232 34.9021 216.208 35.2821 217.016C35.6621 217.824 36.2421 218.44 37.0221 218.872C37.7981 219.304 38.7701 219.52 39.9261 219.52C41.0821 219.52 42.0341 219.304 42.8101 218.872C43.5861 218.44 44.1701 217.82 44.5581 217.004C44.9461 216.192 45.1422 215.22 45.1422 214.088C45.1422 212.152 45.1261 210.512 45.0981 209.168C45.0701 207.824 45.0221 206.736 44.9501 205.9C45.7261 206.028 46.5421 206.096 47.3981 206.1C48.2541 206.108 49.0261 206.04 49.7221 205.9C49.6501 206.704 49.6021 207.832 49.5741 209.284C49.5461 210.732 49.5302 212.3 49.5302 213.98L49.5341 213.984Z" fill="#FF5729"/>
<path d="M52.5862 221.808C52.7422 219.972 52.8182 217.32 52.8182 213.856C52.8182 210.392 52.7382 207.74 52.5862 205.904C53.6462 205.92 54.6342 205.924 55.5462 205.924C56.4582 205.924 57.3382 205.908 58.1862 205.88C58.7782 205.852 59.3862 205.836 60.0102 205.828C60.6342 205.82 61.2902 205.816 61.9822 205.816C65.0942 205.816 67.3862 206.2 68.8662 206.972C70.3422 207.744 71.0822 208.92 71.0822 210.504C71.0822 211.704 70.6982 212.66 69.9262 213.368C69.1542 214.076 68.2622 214.568 67.2422 214.84C66.2222 215.112 65.2902 215.252 64.4422 215.252V215.592C66.3662 215.944 67.9062 216.732 69.0662 217.956C70.2262 219.18 71.1222 220.464 71.7582 221.804H65.6702C65.5422 220.516 65.2542 219.476 64.8022 218.676C64.3502 217.876 63.6982 217.268 62.8502 216.852C62.0022 216.436 60.8902 216.164 59.5222 216.036C59.1822 215.992 58.8062 215.964 58.3862 215.952C57.9702 215.936 57.5502 215.932 57.1262 215.932C57.1822 217.996 57.2182 219.168 57.2302 219.452C57.2462 219.876 57.2702 220.28 57.3062 220.66C57.3422 221.044 57.3742 221.424 57.4022 221.804H52.5862V221.808ZM57.1062 213.304L58.1022 213.368C58.6382 213.396 59.2142 213.424 59.8302 213.452C60.4462 213.48 61.0502 213.496 61.6422 213.496C62.6902 213.496 63.5662 213.404 64.2702 213.22C64.9782 213.036 65.5102 212.756 65.8702 212.384C66.2302 212.008 66.4102 211.54 66.4102 210.972C66.4102 210.168 66.0102 209.58 65.2102 209.212C64.4102 208.844 63.2822 208.66 61.8262 208.66C61.2902 208.66 60.7542 208.66 60.2262 208.672C59.6942 208.68 59.1902 208.696 58.7102 208.724L57.1822 208.744C57.1542 209.452 57.1342 210.184 57.1182 210.94C57.1022 211.696 57.0982 212.484 57.0982 213.304H57.1062Z" fill="#FF5729"/>
<path d="M92.4143 213.984C92.4143 215.724 92.0343 217.22 91.2783 218.48C90.5223 219.74 89.4223 220.7 87.9823 221.364C86.5423 222.028 84.8143 222.36 82.8063 222.36C80.7983 222.36 78.9743 222.028 77.5463 221.364C76.1183 220.7 75.0423 219.74 74.3223 218.492C73.6023 217.24 73.2423 215.74 73.2423 213.984C73.2423 212.228 73.2263 210.66 73.1903 209.264C73.1543 207.872 73.1023 206.752 73.0303 205.904C73.8063 206.032 74.6223 206.1 75.4703 206.104C76.3183 206.112 77.0943 206.044 77.8023 205.904C77.7303 206.768 77.6783 207.888 77.6423 209.264C77.6063 210.644 77.5903 212.252 77.5903 214.088C77.5903 215.232 77.7823 216.208 78.1623 217.016C78.5423 217.824 79.1223 218.44 79.9023 218.872C80.6783 219.304 81.6503 219.52 82.8063 219.52C83.9623 219.52 84.9143 219.304 85.6903 218.872C86.4663 218.44 87.0503 217.82 87.4383 217.004C87.8263 216.192 88.0223 215.22 88.0223 214.088C88.0223 212.152 88.0063 210.512 87.9783 209.168C87.9503 207.824 87.9023 206.736 87.8303 205.9C88.6063 206.028 89.4223 206.096 90.2783 206.1C91.1343 206.108 91.9063 206.04 92.6023 205.9C92.5303 206.704 92.4823 207.832 92.4543 209.284C92.4263 210.732 92.4103 212.3 92.4103 213.98L92.4143 213.984Z" fill="#FF5729"/>
<path d="M105.69 222.128C103.342 222.128 101.338 221.788 99.6781 221.112C98.0181 220.432 96.7581 219.464 95.9021 218.208C95.0461 216.948 94.6182 215.472 94.6182 213.776C94.6182 211.996 95.0702 210.484 95.9742 209.248C96.8782 208.012 98.1822 207.08 99.8862 206.448C101.59 205.82 103.622 205.504 105.982 205.504C107.55 205.504 109.214 205.64 110.978 205.916C112.738 206.192 114.402 206.656 115.974 207.304C115.862 208.108 115.806 208.856 115.806 209.54C115.806 210.224 115.854 210.832 115.954 211.352C114.61 210.488 113.07 209.808 111.33 209.304C109.59 208.804 107.81 208.552 105.986 208.552C104.558 208.552 103.326 208.764 102.286 209.188C101.246 209.612 100.45 210.216 99.9021 211C99.3501 211.784 99.0742 212.708 99.0742 213.768C99.0742 214.828 99.3342 215.76 99.8582 216.568C100.382 217.372 101.142 218 102.138 218.444C103.134 218.888 104.318 219.112 105.69 219.112C106.922 219.112 108.15 218.896 109.382 218.464C110.61 218.032 111.638 217.244 112.458 216.1C111.906 216.1 111.35 216.1 110.794 216.112C110.234 216.12 109.686 216.136 109.15 216.164C108.074 216.192 107.102 216.244 106.222 216.312C105.346 216.384 104.674 216.468 104.206 216.568C104.306 216.072 104.342 215.492 104.322 214.828C104.302 214.164 104.234 213.528 104.122 212.92C106.046 213.02 108.062 213.068 110.178 213.068C112.294 213.068 114.254 213.02 116.062 212.92C115.962 213.584 115.914 214.36 115.914 215.244C115.914 216.128 115.962 216.944 116.062 217.692C115.158 219.092 113.758 220.18 111.862 220.96C109.966 221.736 107.91 222.128 105.69 222.128Z" fill="#FF5729"/>
<path d="M137.566 213.984C137.566 215.724 137.186 217.22 136.43 218.48C135.674 219.74 134.574 220.7 133.134 221.364C131.694 222.028 129.966 222.36 127.958 222.36C125.95 222.36 124.126 222.028 122.698 221.364C121.27 220.7 120.194 219.74 119.474 218.492C118.754 217.24 118.394 215.74 118.394 213.984C118.394 212.228 118.378 210.66 118.342 209.264C118.306 207.872 118.254 206.752 118.182 205.904C118.958 206.032 119.774 206.1 120.622 206.104C121.47 206.112 122.246 206.044 122.954 205.904C122.882 206.768 122.83 207.888 122.794 209.264C122.758 210.644 122.742 212.252 122.742 214.088C122.742 215.232 122.934 216.208 123.314 217.016C123.694 217.824 124.274 218.44 125.054 218.872C125.83 219.304 126.802 219.52 127.958 219.52C129.114 219.52 130.066 219.304 130.842 218.872C131.618 218.44 132.202 217.82 132.59 217.004C132.978 216.192 133.174 215.22 133.174 214.088C133.174 212.152 133.158 210.512 133.13 209.168C133.102 207.824 133.054 206.736 132.982 205.9C133.758 206.028 134.574 206.096 135.43 206.1C136.286 206.108 137.058 206.04 137.754 205.9C137.682 206.704 137.634 207.832 137.606 209.284C137.578 210.732 137.562 212.3 137.562 213.98L137.566 213.984Z" fill="#FF5729"/>
<path d="M137.97 221.808C138.566 220.576 139.17 219.276 139.794 217.904C140.414 216.532 141.018 215.184 141.598 213.852C142.814 211.024 143.91 208.372 144.886 205.9C145.89 206.028 147.134 206.1 148.618 206.112C150.102 206.128 151.262 206.056 152.098 205.9C153.23 208.728 154.338 211.38 155.426 213.852C156.346 215.972 157.554 218.624 159.054 221.804H153.794C153.342 220.392 152.746 218.736 152.014 216.84C151.238 214.832 150.506 213.012 149.818 211.38C149.134 209.748 148.634 208.676 148.322 208.168H148.47C148.058 208.876 147.114 211.124 145.63 214.912C145.162 216.112 144.706 217.3 144.262 218.476C143.818 219.648 143.394 220.76 143.002 221.804H137.974L137.97 221.808ZM144.714 216.124C145.83 216.18 147.098 216.208 148.51 216.208C149.922 216.208 151.19 216.18 152.306 216.124L153.174 218.752C151.802 218.696 150.202 218.668 148.37 218.668C146.538 218.668 144.938 218.696 143.566 218.752L144.71 216.124H144.714Z" fill="#FF5729"/>
<path d="M163.038 221.808C163.15 220.848 163.206 219.888 163.206 218.936C163.206 217.984 163.15 217.032 163.038 216.084C161.894 214.516 160.562 212.788 159.05 210.908C157.65 209.14 156.27 207.472 154.914 205.904C155.834 206.032 156.794 206.1 157.798 206.104C158.802 206.112 159.63 206.044 160.278 205.904C161.014 207.092 161.882 208.444 162.886 209.956C163.974 211.524 164.902 212.82 165.666 213.836H165.01C166.026 212.48 166.946 211.184 167.766 209.956C168.642 208.684 169.514 207.332 170.374 205.904C171.022 206.044 171.826 206.112 172.782 206.104C173.738 206.096 174.674 206.028 175.59 205.904C174.274 207.432 172.898 209.1 171.454 210.908C170.774 211.756 170.102 212.612 169.438 213.476C168.774 214.34 168.114 215.208 167.466 216.084C167.366 217.016 167.318 217.96 167.318 218.916C167.318 219.872 167.374 220.836 167.486 221.812H163.034L163.038 221.808Z" fill="#FF5729"/>
<path d="M61.0267 201.528C61.0787 200.964 61.1067 200.168 61.1147 199.14C61.1227 198.112 61.1147 197.168 61.0867 196.304C60.4707 196.316 59.9347 196.344 59.4787 196.392C59.0227 196.44 58.5867 196.508 58.1667 196.592C58.2107 196.356 58.2347 196.116 58.2347 195.88C58.2347 195.644 58.2107 195.404 58.1667 195.168C59.6147 195.208 60.8907 195.228 61.9987 195.228C63.1067 195.228 64.3867 195.208 65.8347 195.168C65.7947 195.404 65.7747 195.644 65.7747 195.88C65.7747 196.116 65.7947 196.356 65.8347 196.592C65.4107 196.508 64.9707 196.44 64.5107 196.392C64.0507 196.344 63.5107 196.316 62.8907 196.304C62.8627 197.18 62.8587 198.132 62.8747 199.152C62.8907 200.176 62.9267 200.968 62.9747 201.528H61.0227H61.0267Z" fill="#FF5729"/>
<path d="M74.9025 198.396C74.9025 199.092 74.7505 199.692 74.4505 200.196C74.1465 200.7 73.7065 201.084 73.1305 201.348C72.5545 201.612 71.8625 201.748 71.0625 201.748C70.2625 201.748 69.5305 201.616 68.9585 201.348C68.3865 201.084 67.9585 200.7 67.6705 200.2C67.3825 199.7 67.2385 199.1 67.2385 198.396C67.2385 197.692 67.2305 197.064 67.2185 196.508C67.2025 195.952 67.1825 195.504 67.1545 195.164C67.4665 195.216 67.7905 195.24 68.1305 195.244C68.4705 195.244 68.7825 195.22 69.0625 195.164C69.0345 195.508 69.0145 195.956 68.9985 196.508C68.9825 197.06 68.9785 197.704 68.9785 198.436C68.9785 198.896 69.0545 199.284 69.2065 199.608C69.3585 199.932 69.5905 200.176 69.9025 200.352C70.2145 200.524 70.6025 200.612 71.0665 200.612C71.5305 200.612 71.9105 200.524 72.2185 200.352C72.5305 200.18 72.7625 199.932 72.9185 199.604C73.0745 199.28 73.1505 198.892 73.1505 198.436C73.1505 197.66 73.1465 197.004 73.1345 196.468C73.1225 195.932 73.1025 195.496 73.0745 195.16C73.3865 195.212 73.7105 195.236 74.0545 195.24C74.3985 195.244 74.7065 195.216 74.9825 195.16C74.9545 195.484 74.9345 195.932 74.9225 196.512C74.9105 197.092 74.9065 197.72 74.9065 198.392L74.9025 198.396Z" fill="#FF5729"/>
<path d="M76.9744 201.528C77.0384 200.792 77.0664 199.732 77.0664 198.348C77.0664 196.964 77.0344 195.904 76.9744 195.168C77.3984 195.172 77.7944 195.176 78.1584 195.176C78.5224 195.176 78.8744 195.172 79.2144 195.16C79.4504 195.148 79.6944 195.14 79.9424 195.14C80.1904 195.14 80.4544 195.136 80.7304 195.136C81.9744 195.136 82.8904 195.288 83.4824 195.6C84.0744 195.912 84.3704 196.38 84.3704 197.012C84.3704 197.492 84.2184 197.876 83.9064 198.156C83.5984 198.44 83.2384 198.636 82.8344 198.744C82.4264 198.856 82.0544 198.908 81.7144 198.908V199.044C82.4824 199.184 83.0984 199.5 83.5624 199.988C84.0264 200.476 84.3864 200.992 84.6384 201.528H82.2024C82.1504 201.012 82.0344 200.596 81.8544 200.276C81.6744 199.956 81.4144 199.712 81.0744 199.548C80.7344 199.38 80.2904 199.272 79.7424 199.22C79.6064 199.204 79.4544 199.192 79.2904 199.188C79.1224 199.184 78.9544 199.18 78.7864 199.18C78.8104 200.004 78.8224 200.476 78.8304 200.588C78.8344 200.756 78.8464 200.92 78.8584 201.072C78.8704 201.224 78.8864 201.376 78.8984 201.532H76.9744V201.528ZM78.7784 198.124L79.1784 198.148C79.3944 198.16 79.6224 198.172 79.8704 198.18C80.1144 198.192 80.3584 198.196 80.5944 198.196C81.0144 198.196 81.3624 198.16 81.6464 198.084C81.9304 198.008 82.1424 197.9 82.2864 197.748C82.4304 197.6 82.5024 197.412 82.5024 197.184C82.5024 196.86 82.3424 196.628 82.0224 196.48C81.7024 196.332 81.2504 196.26 80.6704 196.26C80.4544 196.26 80.2424 196.26 80.0304 196.264C79.8184 196.264 79.6144 196.272 79.4224 196.284L78.8104 196.292C78.7984 196.576 78.7904 196.868 78.7864 197.168C78.7824 197.472 78.7784 197.784 78.7784 198.116V198.124Z" fill="#FF5729"/>
<path d="M86.4226 201.528C86.4866 200.792 86.5146 199.732 86.5146 198.348C86.5146 196.964 86.4826 195.904 86.4226 195.168C86.7626 195.22 87.0906 195.244 87.4106 195.248C87.7306 195.252 88.0426 195.224 88.3466 195.168C88.2826 195.92 88.2546 196.992 88.2626 198.38C88.2666 199.768 88.3066 200.82 88.3746 201.532H86.4226V201.528Z" fill="#FF5729"/>
<path d="M94.5063 201.628C93.7823 201.628 93.0703 201.56 92.3663 201.424C91.6623 201.288 91.0183 201.112 90.4343 200.9C90.4783 200.616 90.5023 200.336 90.5023 200.056C90.5023 199.776 90.4783 199.496 90.4343 199.22C90.8183 199.616 91.4103 199.916 92.2023 200.12C92.9943 200.324 93.8223 200.424 94.6743 200.424C95.2183 200.424 95.6103 200.364 95.8543 200.244C96.0983 200.124 96.2183 199.944 96.2183 199.7C96.2183 199.492 96.1423 199.336 95.9903 199.232C95.8383 199.132 95.5983 199.052 95.2743 199C94.9503 198.948 94.4183 198.888 93.6823 198.828C92.9303 198.76 92.3143 198.664 91.8423 198.536C91.3703 198.408 91.0023 198.22 90.7463 197.976C90.4903 197.728 90.3623 197.4 90.3623 196.988C90.3623 196.336 90.6503 195.852 91.2303 195.528C91.8103 195.204 92.6903 195.044 93.8743 195.044C94.5183 195.044 95.0903 195.076 95.5903 195.136C96.0903 195.2 96.6063 195.292 97.1383 195.416C97.4503 195.484 97.6463 195.528 97.7223 195.552C97.6943 195.732 97.6743 195.916 97.6663 196.104C97.6583 196.292 97.6583 196.476 97.6703 196.664C97.6743 196.744 97.6823 196.824 97.6903 196.9C97.6983 196.98 97.7103 197.06 97.7183 197.136C97.1343 196.868 96.5183 196.656 95.8703 196.492C95.2223 196.328 94.5343 196.244 93.8103 196.244C93.2463 196.244 92.8343 196.3 92.5863 196.408C92.3343 196.52 92.2103 196.692 92.2103 196.928C92.2103 197.128 92.2823 197.284 92.4223 197.4C92.5623 197.516 92.7903 197.604 93.1063 197.668C93.4183 197.732 93.8623 197.784 94.4343 197.828C94.6023 197.84 94.7303 197.852 94.8183 197.86C95.5583 197.928 96.1623 198.024 96.6303 198.152C97.0983 198.28 97.4543 198.468 97.6983 198.716C97.9463 198.964 98.0663 199.292 98.0663 199.7C98.0663 200.344 97.7703 200.824 97.1823 201.14C96.5943 201.456 95.6983 201.616 94.5023 201.616L94.5063 201.628Z" fill="#FF5729"/>
<path d="M100.063 201.528C100.127 200.792 100.155 199.732 100.155 198.348C100.155 196.964 100.123 195.904 100.063 195.168C100.403 195.212 100.855 195.236 101.415 195.24C101.979 195.24 102.407 195.22 102.707 195.168C103.019 196.112 103.319 196.964 103.607 197.72C103.883 198.448 104.223 199.276 104.623 200.196L104.335 200.188C104.659 199.5 105.015 198.672 105.403 197.712C105.755 196.824 106.063 195.976 106.335 195.168C106.651 195.22 107.087 195.244 107.635 195.244C108.183 195.244 108.619 195.22 108.939 195.168C108.875 195.92 108.847 196.992 108.855 198.38C108.859 199.768 108.899 200.82 108.967 201.532H107.059C107.091 201.12 107.123 200.392 107.143 199.352C107.159 198.14 107.159 197.1 107.135 196.232L107.447 196.216C107.067 197.024 106.663 197.956 106.235 199.008C105.903 199.824 105.575 200.672 105.259 201.56H103.679C103.375 200.7 103.051 199.852 102.711 199.016C102.299 198.008 101.895 197.088 101.507 196.252L101.811 196.26C101.795 197.116 101.795 198.088 101.811 199.18C101.827 200.272 101.863 201.056 101.911 201.54H100.055L100.063 201.528Z" fill="#FF5729"/>
<path d="M115.178 201.672C114.274 201.672 113.494 201.54 112.846 201.276C112.194 201.012 111.698 200.632 111.354 200.132C111.01 199.632 110.838 199.032 110.838 198.328C110.838 197.624 111.01 197.024 111.354 196.524C111.698 196.024 112.198 195.64 112.846 195.38C113.494 195.116 114.274 194.984 115.178 194.984C116.082 194.984 116.862 195.116 117.51 195.38C118.158 195.644 118.658 196.024 118.998 196.524C119.338 197.024 119.51 197.624 119.51 198.328C119.51 199.032 119.338 199.628 118.998 200.132C118.654 200.632 118.158 201.016 117.51 201.276C116.858 201.54 116.082 201.672 115.178 201.672ZM115.178 200.544C115.714 200.544 116.178 200.46 116.562 200.288C116.946 200.12 117.242 199.872 117.446 199.544C117.65 199.22 117.75 198.828 117.75 198.368C117.75 197.908 117.65 197.496 117.446 197.16C117.242 196.824 116.95 196.568 116.562 196.388C116.178 196.208 115.718 196.12 115.178 196.12C114.638 196.12 114.174 196.208 113.79 196.388C113.406 196.568 113.118 196.824 112.918 197.16C112.718 197.496 112.618 197.9 112.618 198.368C112.618 198.836 112.718 199.216 112.918 199.544C113.118 199.868 113.41 200.116 113.79 200.288C114.17 200.456 114.634 200.544 115.178 200.544Z" fill="#FF5729"/>
<path d="M124.774 201.528C124.838 200.792 124.866 199.732 124.866 198.348C124.866 196.964 124.834 195.904 124.774 195.168C124.982 195.196 125.402 195.22 126.03 195.24C126.658 195.26 127.334 195.272 128.058 195.28C128.89 195.284 129.642 195.28 130.314 195.268C130.986 195.252 131.49 195.232 131.826 195.196C131.802 195.452 131.794 195.708 131.794 195.964C131.794 196.22 131.806 196.476 131.826 196.732C131.582 196.664 131.254 196.604 130.838 196.544C130.422 196.484 129.95 196.44 129.426 196.4C128.91 196.368 128.41 196.34 127.922 196.324C127.434 196.308 127.006 196.3 126.638 196.308C126.626 196.568 126.618 196.828 126.614 197.088C126.61 197.348 126.61 197.608 126.614 197.868C127.354 197.884 128.174 197.88 129.066 197.848C129.958 197.816 130.682 197.776 131.238 197.724C131.214 197.928 131.206 198.14 131.206 198.36C131.206 198.58 131.218 198.792 131.238 198.996C130.674 198.952 129.942 198.912 129.05 198.884C128.158 198.856 127.346 198.852 126.614 198.876C126.614 199.464 126.63 199.972 126.658 200.396C127.058 200.4 127.506 200.396 127.998 200.38C128.49 200.364 128.974 200.336 129.45 200.296C129.946 200.264 130.406 200.216 130.83 200.16C131.25 200.104 131.586 200.04 131.834 199.972C131.81 200.228 131.802 200.488 131.802 200.752C131.802 201.016 131.814 201.28 131.834 201.532H124.786L124.774 201.528Z" fill="#FF5729"/>
<path d="M133.819 201.528C133.863 200.464 133.887 199.404 133.887 198.344C133.887 197.284 133.863 196.224 133.819 195.168C134.175 195.212 134.607 195.236 135.111 195.24C135.619 195.24 136.027 195.22 136.347 195.168C136.771 195.812 137.207 196.452 137.647 197.088C138.091 197.724 138.547 198.356 139.019 198.984C139.243 199.288 139.471 199.592 139.703 199.892C139.931 200.192 140.163 200.492 140.395 200.792L139.859 200.928C139.891 199.972 139.903 199.012 139.883 198.044C139.879 197.58 139.867 197.104 139.855 196.62C139.839 196.132 139.819 195.652 139.791 195.168C140.115 195.22 140.427 195.244 140.731 195.248C141.035 195.248 141.331 195.224 141.615 195.168C141.599 195.7 141.587 196.228 141.575 196.76C141.567 197.288 141.563 197.824 141.563 198.36C141.563 199.412 141.587 200.468 141.639 201.532H139.171C138.847 201.052 138.519 200.576 138.187 200.112C137.855 199.644 137.519 199.184 137.179 198.724C136.499 197.808 135.791 196.896 135.051 195.984L135.587 195.848C135.559 196.78 135.551 197.72 135.567 198.668C135.583 199.616 135.615 200.568 135.675 201.532H133.827L133.819 201.528Z" fill="#FF5729"/>
<path d="M43.9301 232.032C43.3421 232.032 42.7821 231.98 42.2501 231.876C41.7181 231.772 41.2181 231.636 40.7461 231.46C40.7701 231.316 40.7781 231.172 40.7781 231.032C40.7781 230.892 40.7661 230.752 40.7461 230.612C41.0541 230.864 41.5141 231.064 42.1261 231.208C42.7381 231.352 43.3661 231.424 44.0021 231.424C44.5901 231.424 45.0181 231.36 45.2901 231.228C45.5581 231.096 45.6941 230.896 45.6941 230.624C45.6941 230.388 45.6101 230.212 45.4381 230.1C45.2701 229.984 45.0341 229.9 44.7341 229.852C44.4341 229.804 43.9861 229.756 43.3821 229.708C42.7501 229.652 42.2461 229.584 41.8781 229.496C41.5101 229.412 41.2181 229.276 41.0101 229.088C40.7981 228.904 40.6941 228.644 40.6941 228.308C40.6941 227.828 40.9141 227.468 41.3581 227.228C41.8021 226.988 42.4661 226.868 43.3541 226.868C43.8461 226.868 44.2821 226.892 44.6541 226.944C45.0261 226.992 45.4301 227.072 45.8661 227.176C46.0461 227.216 46.1981 227.252 46.3221 227.276C46.3101 227.376 46.2981 227.472 46.2941 227.564C46.2901 227.656 46.2901 227.748 46.2941 227.832C46.2981 227.872 46.3021 227.912 46.3061 227.948C46.3101 227.984 46.3141 228.024 46.3181 228.064C45.8261 227.884 45.3381 227.74 44.8621 227.628C44.3861 227.516 43.8741 227.464 43.3301 227.464C42.7221 227.464 42.2821 227.532 41.9981 227.664C41.7181 227.796 41.5781 228.004 41.5781 228.28C41.5781 228.488 41.6501 228.652 41.7941 228.768C41.9381 228.884 42.1541 228.972 42.4541 229.032C42.7501 229.092 43.1661 229.144 43.7061 229.188C43.8221 229.196 43.9101 229.204 43.9701 229.208C44.5461 229.252 45.0141 229.32 45.3741 229.404C45.7341 229.488 46.0261 229.628 46.2421 229.816C46.4581 230.008 46.5661 230.268 46.5661 230.604C46.5661 231.084 46.3461 231.44 45.9061 231.672C45.4661 231.904 44.8021 232.02 43.9221 232.02L43.9301 232.032Z" fill="#FF5729"/>
<path d="M49.4822 231.964C49.5062 231.352 49.5182 230.644 49.5182 229.84C49.5182 229.036 49.5182 228.264 49.5062 227.524C49.0222 227.528 48.5742 227.54 48.1582 227.56C47.7422 227.58 47.3382 227.608 46.9382 227.644C46.9542 227.532 46.9662 227.416 46.9662 227.296C46.9662 227.176 46.9582 227.06 46.9382 226.944C48.0102 226.964 49.0102 226.972 49.9422 226.972C50.8742 226.972 51.8742 226.964 52.9502 226.944C52.9342 227.06 52.9222 227.18 52.9222 227.296C52.9222 227.412 52.9302 227.528 52.9502 227.644C52.5462 227.608 52.1382 227.58 51.7222 227.56C51.3062 227.54 50.8542 227.528 50.3662 227.524C50.3582 228.272 50.3542 229.044 50.3662 229.848C50.3742 230.652 50.3862 231.356 50.4102 231.964H49.4822Z" fill="#FF5729"/>
<path d="M52.1782 231.964C52.3822 231.564 52.5862 231.152 52.7942 230.724C53.0022 230.296 53.2062 229.876 53.4062 229.46C53.8862 228.46 54.2782 227.624 54.5822 226.948C54.7822 226.972 55.0222 226.984 55.3062 226.984C55.5902 226.984 55.8182 226.972 55.9902 226.948C56.3222 227.68 56.7182 228.516 57.1782 229.46C57.5422 230.208 57.9502 231.04 58.4142 231.964H57.4102C57.3062 231.668 57.1302 231.252 56.8822 230.708C56.6862 230.248 56.4582 229.74 56.1942 229.184C55.9302 228.628 55.6142 228.02 55.2462 227.356H55.2862C55.2302 227.448 54.8422 228.264 54.1142 229.804C53.9502 230.168 53.7902 230.528 53.6262 230.892C53.4622 231.256 53.3062 231.612 53.1502 231.96H52.1862L52.1782 231.964ZM53.7582 230.272C54.2302 230.28 54.7382 230.284 55.2902 230.284C55.8422 230.284 56.3542 230.28 56.8222 230.272L56.9782 230.8C56.4622 230.792 55.8902 230.788 55.2662 230.788C54.6422 230.788 54.0702 230.792 53.5542 230.8L53.7582 230.272Z" fill="#FF5729"/>
<path d="M59.2222 231.964C59.2502 231.268 59.2622 230.432 59.2622 229.456C59.2622 228.48 59.2502 227.644 59.2222 226.948C59.3982 226.968 59.6222 226.976 59.8942 226.98C60.1662 226.98 60.3822 226.972 60.5382 226.948C60.8542 227.676 61.1942 228.424 61.5542 229.188C62.1262 230.32 62.4782 231.052 62.6182 231.388H62.4622C62.6902 230.936 63.0542 230.2 63.5622 229.184C63.9542 228.368 64.3022 227.624 64.6062 226.952C64.7742 226.976 64.9902 226.984 65.2502 226.984C65.5102 226.984 65.7262 226.972 65.8942 226.952C65.8702 227.68 65.8622 228.528 65.8622 229.496C65.8622 230.464 65.8822 231.288 65.9142 231.968H65.0062C65.0182 231.452 65.0302 230.884 65.0382 230.264C65.0422 229.716 65.0382 228.776 65.0262 227.44L65.1622 227.428C64.8502 228.04 64.4542 228.836 63.9742 229.816C63.6982 230.4 63.3582 231.12 62.9502 231.98H62.1222C61.8942 231.436 61.5582 230.716 61.1102 229.816C60.7062 228.976 60.3182 228.184 59.9382 227.448H60.0662C60.0582 228.192 60.0542 228.98 60.0662 229.812C60.0782 230.644 60.0862 231.364 60.1102 231.968H59.2222V231.964Z" fill="#FF5729"/>
<path d="M67.1941 231.964C67.2221 231.296 67.2341 230.468 67.2341 229.484C67.2341 228.5 67.2221 227.656 67.1941 226.948C67.5141 226.952 67.8181 226.956 68.1021 226.956C68.3861 226.956 68.6661 226.956 68.9381 226.948C69.1261 226.944 69.3221 226.94 69.5141 226.936C69.7061 226.932 69.9061 226.936 70.1101 226.936C70.6701 226.936 71.1301 226.996 71.4901 227.116C71.8501 227.236 72.1221 227.42 72.3021 227.672C72.4821 227.924 72.5741 228.244 72.5741 228.632C72.5741 228.988 72.4941 229.296 72.3301 229.552C72.1661 229.808 71.9101 230.004 71.5541 230.144C71.1981 230.284 70.7421 230.356 70.1861 230.356H67.9381V229.812H68.1941C68.2781 229.812 68.3661 229.812 68.4541 229.82C68.7061 229.824 68.9621 229.828 69.2141 229.832C69.4661 229.832 69.7221 229.832 69.9821 229.832C70.5581 229.832 70.9901 229.736 71.2781 229.54C71.5661 229.344 71.7141 229.056 71.7141 228.676C71.7141 228.408 71.6501 228.188 71.5181 228.016C71.3861 227.844 71.1941 227.716 70.9341 227.636C70.6781 227.556 70.3501 227.512 69.9581 227.512H69.4981C69.3381 227.512 69.1821 227.512 69.0221 227.52C68.8581 227.52 68.6981 227.52 68.5341 227.52C68.3701 227.52 68.2141 227.52 68.0581 227.52C68.0461 228.28 68.0421 229.056 68.0501 229.852C68.0581 230.648 68.0821 231.348 68.1261 231.952H67.1981L67.1941 231.964Z" fill="#FF5729"/>
<path d="M75.5344 231.964C75.5504 231.128 75.5624 230.292 75.5624 229.456C75.5624 228.62 75.5544 227.784 75.5344 226.948C75.7104 226.968 75.9184 226.976 76.1584 226.98C76.3984 226.98 76.5984 226.972 76.7544 226.948C77.2064 227.476 77.6624 228.004 78.1264 228.532C78.5864 229.06 79.0544 229.584 79.5264 230.104C79.7584 230.356 79.9864 230.608 80.2144 230.86C80.4424 231.112 80.6744 231.36 80.9024 231.612L80.6384 231.672C80.6504 231.012 80.6544 230.224 80.6464 229.312C80.6464 228.924 80.6464 228.532 80.6344 228.136C80.6264 227.74 80.6184 227.344 80.6024 226.952C80.7544 226.976 80.9064 226.988 81.0504 226.988C81.1944 226.988 81.3384 226.976 81.4784 226.952C81.4704 227.372 81.4624 227.792 81.4624 228.208C81.4624 228.624 81.4624 229.044 81.4624 229.464C81.4624 230.424 81.4744 231.26 81.4944 231.968H80.2944C79.9544 231.58 79.6144 231.192 79.2744 230.804C78.9344 230.416 78.5904 230.036 78.2464 229.652C77.5584 228.884 76.8584 228.12 76.1424 227.364L76.3864 227.304C76.3744 228.072 76.3704 228.848 76.3744 229.624C76.3824 230.404 76.3944 231.184 76.4184 231.964H75.5344Z" fill="#FF5729"/>
<path d="M88.6262 229.432C88.6262 229.984 88.5062 230.46 88.2702 230.856C88.0342 231.252 87.6902 231.56 87.2462 231.768C86.8022 231.98 86.2702 232.084 85.6542 232.084C85.0382 232.084 84.4942 231.98 84.0542 231.768C83.6102 231.556 83.2742 231.252 83.0422 230.856C82.8102 230.46 82.6942 229.984 82.6942 229.432C82.6942 228.944 82.6942 228.492 82.6862 228.076C82.6822 227.66 82.6742 227.284 82.6582 226.948C82.8062 226.972 82.9622 226.984 83.1222 226.984C83.2822 226.984 83.4302 226.972 83.5662 226.948C83.5542 227.284 83.5422 227.66 83.5382 228.076C83.5342 228.492 83.5302 228.952 83.5302 229.452C83.5302 229.88 83.6102 230.252 83.7742 230.56C83.9382 230.868 84.1782 231.104 84.4982 231.264C84.8182 231.424 85.2022 231.508 85.6502 231.508C86.0982 231.508 86.4862 231.428 86.8062 231.264C87.1262 231.1 87.3662 230.864 87.5342 230.56C87.6982 230.252 87.7822 229.884 87.7822 229.452C87.7822 228.932 87.7822 228.468 87.7702 228.056C87.7582 227.644 87.7542 227.276 87.7462 226.948C87.8942 226.972 88.0502 226.984 88.2102 226.984C88.3702 226.984 88.5182 226.972 88.6542 226.948C88.6422 227.272 88.6302 227.652 88.6262 228.08C88.6222 228.508 88.6182 228.96 88.6182 229.432H88.6262Z" fill="#FF5729"/>
<path d="M89.8423 231.964C89.8703 231.268 89.8823 230.432 89.8823 229.456C89.8823 228.48 89.8703 227.644 89.8423 226.948C90.0183 226.968 90.2423 226.976 90.5143 226.98C90.7863 226.98 91.0023 226.972 91.1583 226.948C91.4743 227.676 91.8143 228.424 92.1743 229.188C92.7463 230.32 93.0983 231.052 93.2383 231.388H93.0823C93.3103 230.936 93.6743 230.2 94.1823 229.184C94.5743 228.368 94.9223 227.624 95.2263 226.952C95.3943 226.976 95.6103 226.984 95.8703 226.984C96.1303 226.984 96.3463 226.972 96.5143 226.952C96.4903 227.68 96.4823 228.528 96.4823 229.496C96.4823 230.464 96.5023 231.288 96.5343 231.968H95.6263C95.6383 231.452 95.6503 230.884 95.6583 230.264C95.6623 229.716 95.6583 228.776 95.6463 227.44L95.7823 227.428C95.4703 228.04 95.0743 228.836 94.5943 229.816C94.3183 230.4 93.9783 231.12 93.5703 231.98H92.7423C92.5143 231.436 92.1783 230.716 91.7303 229.816C91.3263 228.976 90.9383 228.184 90.5583 227.448H90.6863C90.6783 228.192 90.6743 228.98 90.6863 229.812C90.6983 230.644 90.7063 231.364 90.7303 231.968H89.8423V231.964Z" fill="#FF5729"/>
<path d="M97.814 231.964C97.842 231.264 97.854 230.424 97.854 229.444C97.854 228.464 97.842 227.624 97.814 226.924H98.43C98.638 226.924 98.85 226.924 99.062 226.916C99.33 226.916 99.606 226.916 99.89 226.916C100.174 226.916 100.474 226.916 100.786 226.916C101.558 226.916 102.142 227.016 102.538 227.216C102.93 227.416 103.13 227.736 103.13 228.176C103.13 228.54 102.994 228.816 102.722 229.008C102.45 229.2 102.094 229.304 101.658 229.324V229.4C102.206 229.412 102.642 229.52 102.966 229.724C103.29 229.928 103.45 230.236 103.45 230.648C103.45 231.024 103.306 231.312 103.022 231.512C102.738 231.712 102.39 231.844 101.982 231.904C101.574 231.968 101.118 232 100.622 232C100.31 232 100.014 232 99.734 232C99.454 232 99.19 231.996 98.946 231.988C98.762 231.984 98.574 231.98 98.386 231.976C98.198 231.976 98.01 231.976 97.818 231.976L97.814 231.964ZM98.678 229.18C99.018 229.184 99.366 229.188 99.722 229.188H100.794C101.282 229.188 101.646 229.12 101.882 228.976C102.118 228.832 102.238 228.62 102.238 228.332C102.238 228.044 102.118 227.816 101.878 227.692C101.638 227.568 101.278 227.504 100.794 227.504H99.638C99.27 227.504 98.954 227.504 98.69 227.512C98.686 227.784 98.682 228.056 98.678 228.332C98.678 228.608 98.678 228.892 98.678 229.18ZM98.682 229.696C98.682 229.98 98.682 230.264 98.682 230.544C98.682 230.824 98.686 231.104 98.694 231.38C98.994 231.384 99.302 231.388 99.622 231.392C99.942 231.392 100.294 231.392 100.674 231.392C101.346 231.392 101.822 231.312 102.094 231.156C102.366 230.996 102.502 230.784 102.502 230.516C102.502 230.248 102.374 230.056 102.118 229.908C101.862 229.76 101.422 229.688 100.79 229.688H99.718C99.362 229.688 99.014 229.688 98.678 229.696H98.682Z" fill="#FF5729"/>
<path d="M104.37 231.964C104.398 231.248 104.41 230.404 104.41 229.432C104.41 228.46 104.398 227.632 104.37 226.948C104.642 226.96 105.002 226.972 105.45 226.98C105.898 226.988 106.366 226.996 106.854 227C107.394 227 107.894 227 108.362 226.988C108.83 226.98 109.226 226.972 109.546 226.964C109.538 227.088 109.534 227.208 109.534 227.332C109.534 227.456 109.538 227.58 109.546 227.7C109.27 227.668 108.958 227.64 108.606 227.62C108.254 227.596 107.882 227.576 107.482 227.56C107.09 227.544 106.702 227.528 106.318 227.524C105.934 227.516 105.578 227.512 105.25 227.512C105.246 227.796 105.242 228.08 105.238 228.364C105.238 228.648 105.238 228.932 105.238 229.216C105.862 229.22 106.518 229.216 107.206 229.204C107.894 229.192 108.51 229.172 109.054 229.148C109.046 229.252 109.042 229.36 109.042 229.468C109.042 229.576 109.046 229.684 109.054 229.788C108.506 229.764 107.89 229.748 107.202 229.736C106.514 229.724 105.862 229.724 105.242 229.736C105.242 230.432 105.25 230.984 105.262 231.384C105.606 231.384 105.97 231.384 106.35 231.372C106.734 231.364 107.11 231.352 107.486 231.336C107.874 231.324 108.246 231.304 108.594 231.28C108.946 231.256 109.262 231.228 109.542 231.2C109.534 231.328 109.53 231.456 109.53 231.584C109.53 231.712 109.534 231.84 109.542 231.96H104.362L104.37 231.964Z" fill="#FF5729"/>
<path d="M110.558 231.964C110.586 231.268 110.598 230.432 110.598 229.456C110.598 228.48 110.586 227.644 110.558 226.948C110.87 226.952 111.17 226.956 111.454 226.956C111.738 226.956 112.018 226.956 112.294 226.948C112.482 226.944 112.678 226.94 112.87 226.936C113.062 226.932 113.266 226.936 113.474 226.936C114.35 226.936 115.006 227.056 115.43 227.292C115.858 227.528 116.07 227.9 116.07 228.4C116.07 228.808 115.938 229.12 115.678 229.336C115.418 229.552 115.114 229.696 114.77 229.768C114.426 229.836 114.066 229.872 113.69 229.872V229.94C114.31 230.024 114.83 230.244 115.254 230.592C115.678 230.94 116.018 231.396 116.274 231.964H115.114C114.994 231.516 114.818 231.156 114.598 230.884C114.378 230.612 114.094 230.412 113.746 230.276C113.398 230.14 112.97 230.064 112.454 230.04C112.25 230.036 112.062 230.032 111.89 230.028C111.718 230.028 111.558 230.028 111.414 230.028C111.422 230.588 111.43 230.944 111.434 231.092C111.434 231.24 111.434 231.388 111.446 231.528C111.458 231.668 111.458 231.812 111.462 231.96H110.546L110.558 231.964ZM111.422 229.488L111.85 229.5C112.062 229.504 112.274 229.508 112.482 229.512C112.69 229.516 112.886 229.52 113.066 229.52C113.55 229.52 113.946 229.488 114.25 229.428C114.554 229.368 114.786 229.26 114.946 229.108C115.106 228.956 115.182 228.748 115.182 228.48C115.182 228.136 115.038 227.888 114.746 227.74C114.454 227.592 114.022 227.516 113.454 227.516H112.818C112.606 227.516 112.402 227.516 112.198 227.524L111.438 227.532C111.434 227.848 111.43 228.168 111.426 228.496C111.422 228.824 111.426 229.152 111.426 229.488H111.422Z" fill="#FF5729"/>
<path d="M124.582 229.804C124.574 229.852 124.57 229.92 124.57 230.004C124.57 230.088 124.574 230.152 124.582 230.196C123.81 230.184 122.862 230.176 121.738 230.176C120.614 230.176 119.67 230.184 118.894 230.196C118.906 230.152 118.914 230.088 118.914 230.004C118.914 229.92 118.906 229.852 118.894 229.804C119.662 229.812 120.61 229.816 121.734 229.816C122.858 229.816 123.806 229.812 124.582 229.804Z" fill="#FF5729"/>
<path d="M133.346 229.432C133.346 229.984 133.226 230.46 132.99 230.856C132.754 231.252 132.41 231.56 131.966 231.768C131.522 231.98 130.99 232.084 130.374 232.084C129.758 232.084 129.214 231.98 128.774 231.768C128.33 231.556 127.994 231.252 127.762 230.856C127.53 230.46 127.414 229.984 127.414 229.432C127.414 228.944 127.414 228.492 127.406 228.076C127.402 227.66 127.394 227.284 127.378 226.948C127.526 226.972 127.682 226.984 127.842 226.984C128.002 226.984 128.15 226.972 128.286 226.948C128.274 227.284 128.262 227.66 128.258 228.076C128.254 228.492 128.25 228.952 128.25 229.452C128.25 229.88 128.33 230.252 128.494 230.56C128.658 230.868 128.898 231.104 129.218 231.264C129.538 231.424 129.922 231.508 130.37 231.508C130.818 231.508 131.206 231.428 131.526 231.264C131.846 231.1 132.086 230.864 132.254 230.56C132.418 230.252 132.502 229.884 132.502 229.452C132.502 228.932 132.502 228.468 132.49 228.056C132.478 227.644 132.474 227.276 132.466 226.948C132.614 226.972 132.77 226.984 132.93 226.984C133.09 226.984 133.238 226.972 133.374 226.948C133.362 227.272 133.35 227.652 133.346 228.08C133.342 228.508 133.338 228.96 133.338 229.432H133.346Z" fill="#FF5729"/>
<path d="M136.414 231.964C136.43 231.644 136.442 231.32 136.442 231C136.442 230.68 136.434 230.356 136.414 230.036C135.946 229.468 135.522 228.944 135.13 228.476C134.754 228.028 134.314 227.52 133.814 226.948C133.99 226.972 134.174 226.984 134.366 226.984C134.558 226.984 134.722 226.972 134.858 226.948C135.11 227.292 135.45 227.736 135.874 228.28C136.042 228.528 136.39 228.964 136.918 229.584H136.794C137.218 229.068 137.566 228.632 137.834 228.28C138.11 227.924 138.446 227.48 138.846 226.948C138.978 226.976 139.134 226.988 139.322 226.984C139.51 226.98 139.69 226.968 139.866 226.948C139.446 227.432 139.01 227.94 138.558 228.476C138.342 228.732 138.126 228.992 137.91 229.252C137.694 229.512 137.482 229.772 137.27 230.036C137.258 230.352 137.25 230.672 137.25 230.992C137.25 231.312 137.258 231.636 137.278 231.964H136.418H136.414Z" fill="#FF5729"/>
<path d="M145.599 232.064C144.875 232.064 144.255 231.956 143.743 231.744C143.231 231.532 142.839 231.228 142.571 230.836C142.303 230.444 142.167 229.976 142.167 229.432C142.167 228.888 142.307 228.408 142.591 228.02C142.875 227.632 143.278 227.336 143.802 227.136C144.326 226.936 144.951 226.836 145.671 226.836C146.107 226.836 146.542 226.876 146.986 226.96C147.43 227.044 147.906 227.188 148.41 227.396C148.39 227.54 148.382 227.672 148.382 227.792C148.382 227.912 148.39 228.048 148.41 228.196C147.906 227.916 147.435 227.72 146.991 227.608C146.547 227.496 146.118 227.44 145.71 227.436C145.162 227.436 144.686 227.516 144.286 227.672C143.882 227.828 143.574 228.056 143.354 228.356C143.138 228.656 143.03 229.012 143.03 229.428C143.03 229.844 143.13 230.196 143.33 230.5C143.53 230.804 143.83 231.036 144.23 231.204C144.63 231.368 145.114 231.452 145.682 231.452C146.194 231.452 146.675 231.376 147.123 231.22C147.575 231.068 148.003 230.808 148.415 230.44C148.403 230.572 148.403 230.7 148.415 230.828C148.427 230.956 148.443 231.084 148.463 231.22C148.082 231.504 147.662 231.716 147.206 231.856C146.75 231.992 146.215 232.064 145.599 232.064Z" fill="#FF5729"/>
<path d="M148.97 228.908C148.986 228.78 148.998 228.664 148.998 228.556C148.998 228.448 148.99 228.328 148.97 228.196C149.182 228.164 149.398 228.088 149.61 227.972C149.826 227.856 150.01 227.704 150.162 227.528C150.314 227.348 150.406 227.156 150.442 226.948C150.59 226.972 150.746 226.984 150.91 226.984C151.074 226.984 151.218 226.972 151.346 226.948C151.338 227.164 151.33 227.388 151.322 227.616C151.314 227.844 151.31 228.076 151.31 228.304C151.306 228.852 151.306 229.44 151.31 230.064C151.314 230.692 151.33 231.324 151.35 231.96H150.442C150.474 231.132 150.494 229.776 150.502 227.888V227.604H150.434C150.418 227.756 150.338 227.932 150.202 228.128C150.066 228.324 149.89 228.496 149.674 228.644C149.458 228.792 149.222 228.88 148.97 228.908Z" fill="#FF5729"/>
<path d="M157.862 229.364C157.862 229.924 157.746 230.404 157.51 230.804C157.274 231.204 156.934 231.508 156.482 231.716C156.034 231.928 155.486 232.032 154.85 232.032C154.506 232.032 154.146 231.996 153.766 231.92C153.386 231.844 153.01 231.724 152.634 231.552C152.658 231.42 152.666 231.296 152.666 231.176C152.666 231.056 152.654 230.916 152.634 230.76C152.882 230.956 153.194 231.116 153.57 231.24C153.946 231.368 154.342 231.432 154.758 231.432C155.254 231.432 155.706 231.332 156.106 231.132C156.506 230.932 156.798 230.62 156.982 230.192C157.166 229.764 157.182 229.224 157.034 228.568H156.966C156.974 229.088 156.794 229.492 156.418 229.776C156.046 230.06 155.494 230.204 154.766 230.204C154.358 230.204 153.97 230.152 153.606 230.044C153.242 229.936 152.938 229.768 152.702 229.532C152.466 229.296 152.346 228.992 152.346 228.624C152.346 228.216 152.47 227.884 152.718 227.624C152.966 227.364 153.294 227.176 153.694 227.056C154.098 226.94 154.538 226.88 155.018 226.88C155.866 226.88 156.55 227.072 157.074 227.456C157.598 227.84 157.862 228.48 157.862 229.368V229.364ZM156.79 228.616C156.79 228.248 156.634 227.964 156.326 227.764C156.014 227.564 155.582 227.464 155.018 227.464C154.454 227.464 154.01 227.564 153.694 227.764C153.378 227.964 153.218 228.248 153.218 228.608C153.218 228.836 153.29 229.028 153.43 229.188C153.57 229.348 153.778 229.472 154.046 229.556C154.314 229.64 154.63 229.684 155.002 229.684C155.374 229.684 155.69 229.64 155.958 229.556C156.226 229.472 156.43 229.348 156.574 229.188C156.718 229.028 156.786 228.836 156.786 228.616H156.79Z" fill="#FF5729"/>
<path d="M158.594 229.54C158.594 228.98 158.71 228.5 158.942 228.096C159.174 227.696 159.518 227.392 159.97 227.18C160.422 226.968 160.966 226.864 161.606 226.864C161.95 226.864 162.31 226.9 162.69 226.976C163.07 227.052 163.446 227.176 163.822 227.352C163.798 227.48 163.79 227.6 163.79 227.72C163.79 227.84 163.802 227.98 163.822 228.136C163.574 227.94 163.258 227.78 162.882 227.652C162.506 227.524 162.11 227.464 161.698 227.464C161.202 227.464 160.75 227.564 160.35 227.764C159.95 227.964 159.658 228.276 159.47 228.708C159.286 229.14 159.27 229.68 159.422 230.336H159.49C159.482 229.816 159.662 229.412 160.038 229.124C160.41 228.836 160.962 228.692 161.69 228.692C162.094 228.692 162.478 228.744 162.846 228.852C163.214 228.96 163.518 229.132 163.754 229.368C163.99 229.604 164.11 229.908 164.11 230.28C164.11 230.688 163.986 231.02 163.738 231.28C163.49 231.54 163.162 231.728 162.758 231.848C162.354 231.964 161.91 232.024 161.43 232.024C160.59 232.024 159.906 231.832 159.382 231.448C158.858 231.064 158.594 230.424 158.594 229.536V229.54ZM159.666 230.288C159.666 230.656 159.822 230.94 160.13 231.14C160.438 231.34 160.874 231.44 161.438 231.44C162.002 231.44 162.438 231.34 162.758 231.14C163.078 230.94 163.238 230.656 163.238 230.296C163.238 230.068 163.166 229.876 163.026 229.716C162.886 229.556 162.678 229.432 162.41 229.344C162.142 229.256 161.822 229.212 161.45 229.212C161.078 229.212 160.766 229.256 160.498 229.344C160.23 229.432 160.026 229.556 159.882 229.716C159.738 229.876 159.67 230.068 159.67 230.288H159.666Z" fill="#FF5729"/>
<path d="M98.0782 54.94C98.0982 54.016 98.1102 53.092 98.1102 52.168C98.1102 51.244 98.0982 50.324 98.0782 49.396C98.2742 49.416 98.5022 49.428 98.7662 49.428C99.0302 49.428 99.2502 49.42 99.4262 49.396C99.9262 49.98 100.43 50.564 100.942 51.148C101.454 51.732 101.966 52.308 102.486 52.884C102.742 53.164 102.994 53.444 103.246 53.72C103.498 53.996 103.75 54.272 104.006 54.548L103.714 54.616C103.73 53.888 103.73 53.016 103.722 52.008C103.722 51.58 103.722 51.144 103.71 50.708C103.702 50.272 103.69 49.836 103.678 49.4C103.846 49.424 104.014 49.44 104.174 49.44C104.334 49.44 104.49 49.428 104.646 49.4C104.638 49.864 104.63 50.328 104.626 50.788C104.626 51.248 104.626 51.712 104.626 52.176C104.626 53.236 104.638 54.156 104.662 54.944H103.334C102.958 54.516 102.582 54.084 102.206 53.66C101.83 53.232 101.45 52.808 101.07 52.388C100.31 51.54 99.5342 50.696 98.7462 49.86L99.0142 49.792C98.9982 50.64 98.9942 51.496 99.0022 52.356C99.0102 53.216 99.0262 54.08 99.0502 54.944H98.0742L98.0782 54.94Z" fill="#FF5729"/>
<path d="M101.478 187.764C100.83 187.764 100.21 187.708 99.6222 187.592C99.0342 187.476 98.4822 187.324 97.9622 187.136C97.9862 186.976 97.9982 186.82 97.9982 186.664C97.9982 186.508 97.9862 186.356 97.9622 186.2C98.3022 186.48 98.8102 186.7 99.4862 186.86C100.162 187.02 100.854 187.1 101.558 187.1C102.206 187.1 102.682 187.028 102.978 186.884C103.274 186.74 103.426 186.516 103.426 186.216C103.426 185.956 103.334 185.764 103.146 185.636C102.958 185.508 102.698 185.416 102.37 185.364C102.042 185.308 101.542 185.256 100.878 185.208C100.178 185.148 99.6262 185.072 99.2182 184.976C98.8102 184.88 98.4902 184.732 98.2582 184.528C98.0262 184.324 97.9102 184.036 97.9102 183.664C97.9102 183.136 98.1542 182.736 98.6462 182.472C99.1342 182.208 99.8701 182.076 100.85 182.076C101.394 182.076 101.874 182.104 102.286 182.16C102.698 182.216 103.146 182.3 103.626 182.416C103.826 182.46 103.994 182.5 104.13 182.528C104.114 182.64 104.106 182.744 104.098 182.848C104.09 182.952 104.094 183.048 104.098 183.144C104.102 183.188 104.11 183.232 104.114 183.272C104.118 183.312 104.126 183.356 104.13 183.4C103.586 183.2 103.05 183.04 102.522 182.92C101.994 182.8 101.43 182.74 100.83 182.74C100.162 182.74 99.6702 182.812 99.3622 182.96C99.0542 183.108 98.8982 183.332 98.8982 183.64C98.8982 183.868 98.9782 184.048 99.1342 184.18C99.2902 184.312 99.5342 184.408 99.8622 184.472C100.19 184.536 100.65 184.596 101.246 184.644C101.378 184.656 101.474 184.66 101.538 184.668C102.174 184.716 102.69 184.792 103.09 184.884C103.49 184.98 103.81 185.132 104.05 185.34C104.29 185.548 104.41 185.84 104.41 186.208C104.41 186.74 104.166 187.132 103.678 187.388C103.19 187.644 102.458 187.776 101.486 187.776L101.478 187.764Z" fill="#FF5729"/>
<path d="M167.623 122.508C167.655 121.72 167.667 120.788 167.667 119.712C167.667 118.636 167.651 117.724 167.623 116.968C167.923 116.984 168.319 116.996 168.815 117.004C169.311 117.012 169.827 117.02 170.367 117.028C170.963 117.028 171.519 117.028 172.035 117.016C172.551 117.008 172.987 117 173.343 116.988C173.331 117.124 173.327 117.26 173.327 117.396C173.327 117.532 173.331 117.668 173.343 117.804C173.039 117.768 172.691 117.74 172.303 117.716C171.915 117.692 171.503 117.668 171.063 117.648C170.627 117.628 170.199 117.616 169.779 117.608C169.355 117.6 168.963 117.596 168.599 117.596C168.595 117.912 168.591 118.224 168.587 118.536C168.587 118.848 168.587 119.164 168.587 119.476C169.275 119.48 170.003 119.476 170.763 119.46C171.523 119.444 172.203 119.424 172.803 119.4C172.791 119.516 172.787 119.632 172.787 119.752C172.787 119.872 172.791 119.988 172.803 120.104C172.199 120.08 171.515 120.06 170.755 120.048C169.995 120.036 169.271 120.036 168.587 120.048C168.587 120.816 168.595 121.424 168.611 121.868C168.991 121.868 169.391 121.868 169.815 121.856C170.239 121.848 170.655 121.836 171.071 121.816C171.499 121.8 171.911 121.78 172.295 121.752C172.683 121.724 173.031 121.696 173.343 121.664C173.331 121.804 173.327 121.944 173.327 122.088C173.327 122.232 173.331 122.368 173.343 122.504H167.623V122.508Z" fill="#FF5729"/>
<path d="M29.2944 116.968C29.4704 116.984 29.6424 116.992 29.8104 116.992C29.9784 116.992 30.1504 116.984 30.3224 116.968C31.2424 119.768 31.7904 121.544 31.9704 122.3H31.8264C31.9864 121.792 32.1424 121.284 32.2904 120.784C32.4384 120.284 32.5864 119.788 32.7344 119.3C33.0424 118.284 33.2504 117.508 33.3584 116.968C33.5904 116.984 33.8184 116.992 34.0464 116.992C34.2744 116.992 34.5024 116.984 34.7304 116.968C34.8864 117.612 35.1184 118.472 35.4264 119.548C35.7504 120.632 36.0264 121.548 36.2504 122.3H36.1064C36.4904 121.16 36.8024 120.164 37.0344 119.308C37.1624 118.892 37.2864 118.492 37.4064 118.1C37.5224 117.708 37.6384 117.332 37.7544 116.968C37.9184 116.984 38.0864 116.992 38.2544 116.992C38.4224 116.992 38.5904 116.984 38.7584 116.968C38.5784 117.416 38.3904 117.94 38.1904 118.532C37.9944 119.124 37.7584 119.872 37.4904 120.776L36.8544 122.508H35.4384C35.2744 121.8 35.0344 120.912 34.7264 119.848C34.5904 119.36 34.4584 118.896 34.3224 118.456C34.1864 118.02 34.0544 117.62 33.9184 117.26H34.1424C33.8264 118.14 33.5624 119 33.3464 119.848C33.2224 120.292 33.0984 120.744 32.9784 121.2C32.8584 121.656 32.7424 122.092 32.6344 122.508H31.1704C31.0864 122.28 30.9984 122.048 30.9104 121.816C30.8224 121.584 30.7344 121.352 30.6424 121.124C30.3744 120.2 30.1304 119.404 29.9144 118.744C29.6984 118.084 29.4904 117.492 29.2864 116.972L29.2944 116.968Z" fill="#FF5729"/>
<path d="M93.3582 127.632L57.2102 163.744L87.7462 119.5L93.3582 127.632Z" fill="#FBBBA6"/>
<path d="M146.182 74.884L115.386 119.5L109.758 111.34L109.762 111.336L109.742 111.32L109.73 111.304L109.722 111.308L109.714 111.304L146.182 74.884Z" fill="#FBBBA6"/>
<path d="M101.567 105.68L93.4065 111.308L93.4025 111.304L93.3945 111.316L57.1145 74.9919L101.567 105.68Z" fill="#FBBBA6"/>
<path d="M146.018 164.004L101.566 133.32L109.722 127.692L109.73 127.696L109.738 127.68L146.018 164.004Z" fill="#FBBBA6"/>
</svg>
