<svg width="220" height="286" viewBox="0 0 220 286" fill="none" xmlns="http://www.w3.org/2000/svg">
<path d="M212.854 22.1545C212.854 22.2752 212.862 22.396 212.866 22.5087C212.895 23.1326 213.003 23.7444 213.18 24.316C214.092 27.2302 216.791 29.3555 219.984 29.3997V36.8704C216.04 36.9348 212.854 40.155 212.854 44.1278C212.854 45.4158 213.196 46.6314 213.79 47.686C214.084 48.2093 214.437 48.6923 214.855 49.119C215.967 50.2984 217.485 51.1034 219.18 51.3167C219.445 51.353 219.711 51.3731 219.984 51.3771V58.7753C219.751 58.7753 219.522 58.7874 219.297 58.8116C219.281 58.8196 219.265 58.8196 219.249 58.8236C219.016 58.8478 218.791 58.884 218.566 58.9323C218.257 59.0007 217.951 59.0853 217.658 59.1899C217.574 59.2262 217.489 59.2543 217.409 59.2865C217.385 59.2986 217.361 59.3067 217.337 59.3147C217.261 59.3509 217.184 59.3791 217.108 59.4153C217.032 59.4516 216.955 59.4838 216.883 59.524C216.819 59.5562 216.758 59.5844 216.698 59.6166C216.522 59.7132 216.349 59.8138 216.18 59.9265C216.096 59.9789 216.015 60.0312 215.939 60.0835C215.851 60.1439 215.762 60.2083 215.678 60.2808C215.59 60.3411 215.509 60.4096 215.425 60.486C215.345 60.5464 215.264 60.6189 215.184 60.6953C215.104 60.7678 215.027 60.8443 214.951 60.9208C214.798 61.0737 214.654 61.2347 214.517 61.3997C213.513 62.6073 212.899 64.1449 212.858 65.8274C212.854 65.92 212.854 66.0045 212.854 66.0971C212.854 66.1454 212.854 66.1937 212.858 66.238C212.858 66.3225 212.858 66.403 212.866 66.4835C212.87 66.5721 212.875 66.6606 212.887 66.7492C212.891 66.8337 212.899 66.9182 212.911 67.0028C212.923 67.0833 212.931 67.1638 212.947 67.2443C212.963 67.3529 212.987 67.4616 213.007 67.5663C213.027 67.6709 213.051 67.7796 213.079 67.8843C213.099 67.9607 213.12 68.0372 213.14 68.1097C213.168 68.1982 213.192 68.2828 213.22 68.3673C213.244 68.4438 213.272 68.5243 213.3 68.6007C213.328 68.6812 213.361 68.7577 213.393 68.8342C213.433 68.9389 213.477 69.0395 213.525 69.1401C213.557 69.2086 213.589 69.277 213.626 69.3454C213.626 69.3454 213.63 69.3535 213.63 69.3575C213.686 69.4702 213.746 69.5789 213.806 69.6875C213.814 69.6996 213.822 69.7117 213.826 69.7238C213.883 69.8163 213.939 69.9049 213.995 69.9935C214.071 70.1102 214.148 70.2269 214.232 70.3396C214.328 70.4724 214.429 70.6053 214.533 70.7301C214.602 70.8146 214.674 70.8951 214.746 70.9716C214.754 70.9836 214.766 70.9917 214.774 71.0038C214.823 71.0561 214.871 71.1084 214.919 71.1567C214.987 71.2251 215.055 71.2936 215.124 71.354C215.132 71.366 215.144 71.3741 215.152 71.3821C215.16 71.3902 215.164 71.3982 215.172 71.4023C215.192 71.4224 215.216 71.4425 215.236 71.4626C215.349 71.5633 215.465 71.6639 215.582 71.7565C215.69 71.845 215.799 71.9296 215.915 72.006C215.987 72.0584 216.06 72.1067 216.132 72.155C216.216 72.2113 216.301 72.2677 216.389 72.32C216.53 72.4045 216.674 72.485 216.819 72.5575C217.771 73.0405 218.847 73.3223 219.984 73.3424V80.7366C219.747 80.7406 219.514 80.7608 219.285 80.7849C219.168 80.793 219.052 80.8131 218.939 80.8332C218.847 80.8413 218.755 80.8614 218.666 80.8775C218.534 80.9097 218.401 80.9379 218.269 80.9701C218.16 80.9982 218.052 81.0264 217.943 81.0667C217.835 81.0948 217.73 81.1351 217.626 81.1713C217.522 81.2116 217.417 81.2478 217.313 81.2921C217.208 81.3363 217.108 81.3806 217.008 81.4289C216.907 81.4732 216.807 81.5255 216.71 81.5779C216.61 81.6302 216.513 81.6825 216.417 81.7429C216.337 81.7912 216.264 81.8314 216.188 81.8838C216.064 81.9683 215.943 82.0488 215.823 82.1414C215.746 82.1937 215.674 82.246 215.602 82.3064C215.429 82.4433 215.264 82.5841 215.104 82.7452C213.718 84.0574 212.854 85.921 212.854 87.9899V88.0624C212.854 88.6179 212.915 89.1532 213.039 89.6684C213.063 89.7852 213.091 89.8938 213.124 90.0065C213.152 90.1192 213.188 90.2279 213.224 90.3366C213.244 90.4131 213.268 90.4815 213.3 90.554C213.3 90.562 213.308 90.5741 213.312 90.5821C213.312 90.5862 213.316 90.5942 213.32 90.5982C213.328 90.6224 213.336 90.6506 213.348 90.6747C213.389 90.7995 213.445 90.9202 213.497 91.041C213.63 91.3429 213.786 91.6367 213.967 91.9185C214.051 92.0594 214.148 92.1962 214.244 92.3331C214.304 92.4176 214.373 92.5102 214.445 92.5907C214.509 92.6833 214.578 92.7638 214.658 92.8443C214.722 92.9328 214.798 93.0133 214.879 93.0898C214.951 93.1663 215.027 93.2428 215.104 93.3152L215.357 93.5446C215.437 93.6171 215.521 93.6896 215.61 93.7499C215.674 93.8063 215.742 93.8586 215.815 93.9069C215.847 93.9391 215.883 93.9592 215.915 93.9834C215.991 94.0397 216.068 94.0921 216.144 94.1404C216.216 94.1927 216.293 94.2329 216.369 94.2772C216.449 94.3296 216.534 94.3779 216.618 94.4221C216.706 94.4745 216.799 94.5228 216.891 94.563C216.967 94.6033 217.048 94.6435 217.128 94.6757C217.598 94.889 218.092 95.0541 218.606 95.1587C218.815 95.203 219.028 95.2392 219.245 95.2634C219.261 95.2634 219.273 95.2674 219.285 95.2674C219.514 95.2916 219.747 95.3077 219.984 95.3117V102.71C217.429 102.75 215.188 104.115 213.931 106.151C213.3 107.182 212.911 108.381 212.862 109.665C212.858 109.766 212.854 109.859 212.854 109.959V110.032C212.854 110.116 212.854 110.193 212.862 110.269C212.862 110.426 212.875 110.587 212.895 110.748C212.923 111.078 212.979 111.404 213.055 111.73C213.2 112.334 213.425 112.91 213.706 113.445C214.911 115.703 217.265 117.241 219.984 117.285V124.675C216.658 124.736 213.875 127.026 213.079 130.125C212.967 130.588 212.891 131.075 212.866 131.566V131.607C212.858 131.715 212.854 131.82 212.854 131.933V132.005C212.854 132.11 212.858 132.214 212.862 132.319C212.951 134.348 213.867 136.147 215.276 137.415H215.28C216.534 138.538 218.176 139.23 219.984 139.254V146.649C216.457 146.701 213.533 149.285 212.963 152.674C212.907 152.98 212.875 153.286 212.862 153.6C212.858 153.701 212.854 153.797 212.854 153.898V153.97C212.854 154.075 212.858 154.176 212.862 154.28C212.862 154.353 212.866 154.425 212.875 154.498C212.883 154.622 212.895 154.747 212.911 154.868C212.927 155.005 212.947 155.134 212.971 155.266C213.015 155.52 213.075 155.77 213.148 156.011C213.224 156.293 213.324 156.567 213.441 156.828C213.513 157.005 213.597 157.178 213.686 157.343C213.73 157.428 213.774 157.512 213.822 157.593C214.007 157.923 214.224 158.237 214.465 158.531C214.525 158.603 214.586 158.676 214.646 158.748C214.71 158.821 214.77 158.889 214.839 158.957C214.903 159.026 214.967 159.094 215.035 159.159C215.337 159.457 215.662 159.722 216.011 159.96C216.092 160.02 216.18 160.072 216.264 160.129C216.317 160.161 216.369 160.193 216.421 160.221C216.489 160.262 216.554 160.302 216.626 160.338C216.791 160.431 216.963 160.515 217.136 160.592C217.22 160.628 217.305 160.664 217.393 160.7C217.397 160.704 217.401 160.704 217.405 160.704C217.489 160.741 217.582 160.773 217.67 160.805C217.759 160.837 217.851 160.869 217.943 160.898C218.036 160.926 218.128 160.954 218.224 160.978C218.317 161.002 218.409 161.026 218.506 161.047C218.602 161.067 218.698 161.087 218.795 161.103C218.883 161.119 218.968 161.135 219.056 161.147C219.076 161.151 219.092 161.151 219.108 161.155C219.192 161.167 219.273 161.175 219.357 161.183C219.377 161.187 219.397 161.187 219.417 161.191C219.606 161.208 219.795 161.216 219.984 161.22V168.614C219.891 168.614 219.799 168.618 219.703 168.634C218.164 168.71 216.762 169.27 215.63 170.168C215.011 170.655 214.473 171.238 214.039 171.902C213.352 172.945 212.931 174.177 212.866 175.505C212.858 175.634 212.854 175.767 212.854 175.907V175.94C212.854 176.06 212.858 176.185 212.866 176.306C212.875 176.523 212.899 176.741 212.931 176.958C212.951 177.091 212.971 177.224 212.999 177.352C213.011 177.421 213.023 177.489 213.039 177.554C213.107 177.856 213.192 178.149 213.3 178.435C213.32 178.496 213.344 178.56 213.369 178.62C213.417 178.741 213.469 178.858 213.521 178.975C213.577 179.099 213.642 179.224 213.706 179.345C213.778 179.482 213.855 179.619 213.939 179.747C213.947 179.768 213.959 179.784 213.967 179.796C214.047 179.929 214.136 180.057 214.228 180.182C214.232 180.186 214.236 180.19 214.236 180.194C214.329 180.323 214.425 180.452 214.529 180.573C214.602 180.661 214.678 180.746 214.754 180.83C214.995 181.096 215.26 181.345 215.541 181.579C215.606 181.627 215.674 181.679 215.742 181.732C215.803 181.78 215.867 181.824 215.931 181.869C216.036 181.945 216.144 182.014 216.252 182.082C216.485 182.231 216.734 182.368 216.987 182.485C217.076 182.529 217.164 182.569 217.257 182.609C217.269 182.617 217.285 182.621 217.301 182.625C217.381 182.662 217.465 182.694 217.55 182.726C217.811 182.827 218.076 182.907 218.349 182.976C218.405 182.992 218.466 183.004 218.522 183.016C218.602 183.036 218.682 183.052 218.767 183.064C218.863 183.084 218.96 183.1 219.06 183.112C219.128 183.125 219.201 183.137 219.269 183.141C219.506 183.169 219.743 183.185 219.984 183.189V190.587C218.144 190.615 216.469 191.332 215.208 192.499C214.758 192.906 214.365 193.373 214.031 193.884C213.702 194.379 213.441 194.922 213.248 195.494C213.043 196.081 212.919 196.693 212.875 197.337C212.871 197.337 212.871 197.349 212.875 197.353C212.866 197.442 212.862 197.527 212.858 197.615C212.858 197.716 212.854 197.816 212.854 197.917C212.854 198.01 212.858 198.11 212.862 198.207C212.895 199.052 213.079 199.861 213.377 200.614C213.441 200.775 213.509 200.932 213.585 201.085C213.589 201.097 213.598 201.109 213.602 201.121C213.658 201.23 213.714 201.334 213.77 201.439C213.802 201.495 213.834 201.552 213.867 201.604C213.943 201.737 214.027 201.866 214.112 201.99C214.196 202.115 214.284 202.236 214.373 202.353C214.501 202.518 214.638 202.675 214.778 202.828C214.863 202.92 214.955 203.013 215.047 203.105C215.296 203.347 215.566 203.572 215.851 203.778C215.939 203.838 216.027 203.898 216.116 203.959C216.558 204.261 217.032 204.506 217.526 204.691H217.542C218.301 204.989 219.128 205.146 219.984 205.162V212.56C218.682 212.581 217.465 212.943 216.417 213.567C214.513 214.69 213.168 216.67 212.903 218.977C212.883 219.158 212.866 219.351 212.862 219.54C212.858 219.605 212.858 219.669 212.854 219.737V219.882C212.854 219.939 212.854 220.007 212.858 220.063C212.858 220.14 212.862 220.22 212.871 220.297C212.875 220.373 212.879 220.45 212.891 220.522C212.895 220.615 212.903 220.707 212.919 220.8C212.951 221.078 212.999 221.351 213.067 221.617C213.107 221.794 213.16 221.967 213.22 222.14C213.244 222.229 213.276 222.313 213.308 222.398C213.585 223.159 213.991 223.855 214.493 224.467C214.557 224.555 214.63 224.636 214.706 224.716C214.774 224.797 214.851 224.877 214.927 224.958C215.08 225.115 215.236 225.264 215.401 225.397C215.485 225.469 215.566 225.542 215.654 225.602C215.726 225.666 215.799 225.719 215.875 225.771C215.899 225.791 215.923 225.807 215.951 225.823C216.027 225.88 216.108 225.932 216.188 225.98C216.272 226.045 216.357 226.097 216.445 226.145C216.465 226.153 216.485 226.17 216.505 226.178C216.586 226.226 216.67 226.274 216.754 226.31C216.875 226.375 216.995 226.435 217.12 226.496C217.136 226.504 217.156 226.512 217.172 226.516C217.232 226.544 217.289 226.568 217.349 226.588C217.449 226.632 217.55 226.677 217.654 226.709C217.839 226.777 218.032 226.834 218.224 226.886C218.317 226.91 218.409 226.934 218.502 226.954C218.759 227.015 219.024 227.059 219.293 227.087C219.522 227.111 219.751 227.128 219.984 227.132V234.526C219.875 234.526 219.755 234.534 219.646 234.546C219.261 234.57 218.887 234.622 218.522 234.703C218.233 234.767 217.951 234.848 217.678 234.948C217.425 235.033 217.184 235.138 216.947 235.254H216.943C214.529 236.434 212.858 238.905 212.858 241.779C212.858 242.729 213.047 243.639 213.381 244.48C213.935 245.857 214.891 247.024 216.12 247.829C216.562 248.123 217.036 248.368 217.53 248.561H217.546C217.855 248.678 218.176 248.779 218.506 248.851C218.984 248.96 219.482 249.02 219.988 249.024V256.495C219.646 256.503 219.309 256.531 218.98 256.584C217.598 256.797 216.345 257.401 215.341 258.282C214.891 258.677 214.497 259.115 214.164 259.606C213.344 260.774 212.858 262.207 212.858 263.744C212.858 267.681 215.983 270.873 219.879 270.998C219.887 271.118 219.895 271.239 219.899 271.356C219.927 271.795 219.956 272.233 219.984 272.664C219.984 272.676 219.984 272.684 219.988 272.696V278.597C219.988 278.597 219.972 278.597 219.96 278.597C219.879 278.585 219.795 278.577 219.711 278.573C219.65 278.565 219.586 278.561 219.526 278.557C219.405 278.553 219.281 278.549 219.156 278.549C219.048 278.549 218.931 278.549 218.827 278.549C218.642 278.557 218.457 278.573 218.281 278.597C215.578 278.927 213.332 280.743 212.397 283.214C212.176 283.794 212.027 284.414 211.963 285.062C211.943 285.247 211.927 285.444 211.927 285.641H204.468C204.392 281.934 201.544 278.915 197.921 278.573C197.809 278.561 197.688 278.553 197.568 278.549C197.459 278.549 197.343 278.549 197.234 278.549C197.046 278.549 196.865 278.549 196.684 278.565C196.604 278.577 196.515 278.577 196.439 278.589C193.929 278.863 191.808 280.421 190.74 282.598C190.466 283.154 190.266 283.745 190.141 284.369C190.065 284.788 190.013 285.207 190.005 285.645H182.546C182.466 282.027 179.754 279.06 176.256 278.609C176.144 278.597 176.031 278.581 175.915 278.577C175.758 278.557 175.605 278.553 175.449 278.553C175.405 278.553 175.352 278.553 175.312 278.553H175.276C175.176 278.553 175.079 278.553 174.979 278.553C174.774 278.565 174.573 278.585 174.368 278.609C174.3 278.625 174.232 278.629 174.164 278.641C172.115 278.968 170.36 280.147 169.275 281.805V281.817C168.93 282.329 168.661 282.876 168.46 283.464C168.231 284.148 168.099 284.88 168.083 285.645H160.616C160.544 281.817 157.507 278.726 153.715 278.553C153.611 278.553 153.499 278.553 153.386 278.553H153.354C151.265 278.561 149.386 279.463 148.064 280.892C147.663 281.33 147.313 281.829 147.024 282.357C146.486 283.339 146.181 284.458 146.156 285.649H138.698C138.625 282.168 136.111 279.294 132.806 278.682C132.593 278.633 132.376 278.605 132.151 278.581C132.038 278.569 131.918 278.561 131.797 278.557C131.689 278.557 131.577 278.557 131.468 278.557C131.36 278.557 131.247 278.557 131.139 278.557C131.046 278.561 130.966 278.565 130.882 278.577C130.785 278.577 130.689 278.589 130.592 278.605C130.412 278.621 130.235 278.658 130.058 278.69C129.962 278.71 129.866 278.734 129.773 278.754C129.705 278.766 129.641 278.786 129.572 278.807C128.725 279.036 127.938 279.414 127.247 279.913C126.769 280.256 126.335 280.658 125.953 281.105C124.909 282.337 124.271 283.918 124.234 285.649H116.776C116.699 281.982 113.92 278.992 110.357 278.601C110.261 278.585 110.169 278.581 110.076 278.569H110.06C109.984 278.561 109.908 278.557 109.835 278.557C109.735 278.557 109.642 278.557 109.546 278.557C109.43 278.557 109.309 278.557 109.201 278.557C109.08 278.561 108.972 278.569 108.855 278.581C108.63 278.605 108.401 278.633 108.188 278.678C107.747 278.758 107.325 278.883 106.915 279.044C106.369 279.261 105.863 279.535 105.389 279.865C103.573 281.149 102.365 283.258 102.312 285.649H94.8497C94.7733 281.942 91.9297 278.919 88.3108 278.581C88.1943 278.569 88.0778 278.561 87.9574 278.557C87.8449 278.557 87.7364 278.557 87.62 278.557C87.5276 278.557 87.4352 278.557 87.3428 278.557C87.1902 278.557 87.0416 278.565 86.897 278.585C86.8126 278.593 86.7404 278.605 86.664 278.609C86.2262 278.666 85.8005 278.766 85.3948 278.903C82.5351 279.829 80.4585 282.486 80.3862 285.649H72.9316C72.8674 282.538 70.8511 279.917 68.0636 278.959C67.9752 278.923 67.8869 278.895 67.7945 278.867C67.7543 278.855 67.7102 278.839 67.67 278.831C67.5977 278.811 67.5254 278.786 67.4531 278.77C67.1077 278.682 66.7583 278.617 66.3968 278.585C66.3285 278.581 66.2723 278.577 66.204 278.569C66.1036 278.561 65.9951 278.557 65.8867 278.557H65.8706C65.8144 278.557 65.7541 278.557 65.7019 278.557H65.6658C65.5533 278.557 65.4449 278.557 65.3284 278.557C65.0994 278.569 64.8705 278.593 64.6416 278.629C64.6375 278.629 64.6255 278.629 64.6215 278.629C61.1834 279.137 58.5445 282.075 58.4682 285.645H51.0096C50.9614 283.395 49.901 281.403 48.2583 280.107C47.7401 279.692 47.1537 279.354 46.5352 279.092C45.7118 278.754 44.8161 278.557 43.8642 278.553C43.8361 278.553 43.808 278.553 43.7758 278.553C43.5268 278.553 43.2778 278.561 43.0328 278.585C42.9284 278.601 42.8279 278.609 42.7235 278.629C42.6231 278.637 42.5187 278.658 42.4183 278.678C42.3179 278.694 42.2174 278.714 42.117 278.738C39.2372 279.418 37.0201 281.825 36.6104 284.808C36.5743 285.082 36.5502 285.364 36.5461 285.649H29.0875C29.0634 284.571 28.8104 283.548 28.3645 282.638C28.0352 281.962 27.6134 281.346 27.1033 280.811C27.0471 280.751 26.9909 280.69 26.9306 280.634C25.7056 279.426 24.0548 278.654 22.2233 278.557C22.0988 278.557 21.9823 278.557 21.8578 278.557C21.7574 278.557 21.657 278.557 21.5566 278.557C21.4361 278.561 21.3196 278.569 21.2031 278.581C17.5561 278.907 14.6964 281.93 14.6201 285.649H7.16143C7.14536 284.74 6.9606 283.87 6.63527 283.073C6.30591 282.26 5.83598 281.519 5.24957 280.883C4.04864 279.575 2.37376 278.714 0.494034 278.569C0.42977 278.565 0.361485 278.561 0.301238 278.557C0.220908 278.557 0.144592 278.557 0.0602451 278.557H0V271.01C3.39796 270.913 6.21755 268.474 6.88429 265.25C6.9847 264.771 7.03692 264.272 7.03692 263.756C7.03692 263.511 7.02887 263.253 7.00076 263.012C6.63526 259.49 3.76346 256.725 0.200825 256.527C0.132545 256.523 0.0682805 256.511 0 256.511V249.032C3.90805 248.928 7.03692 245.732 7.03692 241.791C7.03692 240.861 6.87224 239.98 6.5469 239.167C6.34206 238.619 6.06091 238.108 5.73155 237.637C5.57893 237.416 5.41425 237.207 5.23752 237.005C5.22949 237.001 5.22146 236.989 5.21744 236.985C3.93618 235.536 2.07251 234.606 0 234.542V227.14C3.39796 227.043 6.21755 224.608 6.88429 221.38C6.9847 220.901 7.03692 220.402 7.03692 219.894C7.03692 219.826 7.03691 219.757 7.0329 219.693C7.0329 219.617 7.02888 219.544 7.02487 219.468C7.02487 219.355 7.01682 219.246 7.00076 219.142C6.98871 219.033 6.97667 218.92 6.9606 218.812C6.67141 216.686 5.46244 214.863 3.74338 213.74C3.05656 213.297 2.2894 212.959 1.46602 212.77C0.99609 212.653 0.502063 212.593 0 212.573V205.166C3.70321 205.062 6.70756 202.188 7.0088 198.537C7.02888 198.336 7.03692 198.134 7.03692 197.929V197.853C7.03692 197.684 7.03692 197.518 7.02487 197.361C6.77986 193.654 3.74338 190.712 0 190.607V183.197C0.0682805 183.197 0.132545 183.193 0.200825 183.189C2.17694 183.084 3.94421 182.183 5.18932 180.798C6.20952 179.667 6.86822 178.21 7.00478 176.6C7.01683 176.479 7.02486 176.366 7.02888 176.246C7.03691 176.149 7.03692 176.052 7.03692 175.952V175.879C7.03692 174.676 6.74772 173.541 6.2296 172.546C5.92434 171.951 5.53073 171.403 5.08891 170.924C3.80765 169.56 2.00825 168.694 0 168.634V161.228C3.44616 161.131 6.29385 158.635 6.91239 155.339C6.97666 155.021 7.01282 154.695 7.02487 154.365C7.0329 154.236 7.03692 154.111 7.03692 153.982C7.03692 153.902 7.03691 153.817 7.0329 153.737C7.0329 153.656 7.02888 153.58 7.02487 153.499C6.81601 149.752 3.77149 146.769 0 146.665V139.262C3.90002 139.154 7.02487 135.97 7.03692 132.041V132.017C7.03692 131.868 7.0329 131.719 7.02487 131.566C7.00479 131.111 6.94454 130.661 6.83609 130.234C6.08501 127.114 3.32165 124.784 0 124.695V117.289C1.89177 117.237 3.61886 116.452 4.88005 115.2C5.40621 114.689 5.85606 114.089 6.2055 113.433C6.30189 113.248 6.39427 113.051 6.4746 112.853C6.51878 112.753 6.55895 112.652 6.59108 112.551C6.63124 112.451 6.6674 112.35 6.69551 112.246C6.72764 112.141 6.75978 112.04 6.78388 111.932C6.81601 111.827 6.84011 111.722 6.86019 111.614C6.93249 111.316 6.97666 111.01 7.00076 110.696C7.01281 110.607 7.02085 110.515 7.02487 110.422C7.0329 110.297 7.03692 110.173 7.03692 110.044C7.03692 109.915 7.03289 109.802 7.02888 109.682C7.02486 109.557 7.01683 109.44 7.00478 109.327C6.68747 105.685 3.69116 102.823 0 102.726V95.3197C0.17271 95.3157 0.34141 95.3036 0.510103 95.2916C0.678796 95.2714 0.847489 95.2473 1.01217 95.2191C1.23307 95.1869 1.44594 95.1386 1.65882 95.0782C1.76726 95.0581 1.87169 95.0219 1.97612 94.9897C2.08055 94.9615 2.18498 94.9213 2.28539 94.885C2.38982 94.8448 2.49024 94.8085 2.59065 94.7643C2.69106 94.72 2.79147 94.6757 2.88786 94.6314C2.98828 94.5872 3.08467 94.5348 3.17705 94.4865C3.27345 94.4342 3.36583 94.3859 3.45821 94.3296C3.55059 94.2732 3.64297 94.2168 3.73133 94.1605C3.82371 94.1041 3.91208 94.0438 3.99642 93.9794C4.07675 93.923 4.1611 93.8626 4.23742 93.7982C4.24143 93.7982 4.24545 93.7942 4.24946 93.7902C4.32176 93.7338 4.39003 93.6775 4.4543 93.6211C4.46635 93.6131 4.4784 93.605 4.48644 93.593C4.55873 93.5326 4.63103 93.4722 4.69931 93.4038C4.77161 93.3394 4.84792 93.2669 4.9162 93.1945C4.9885 93.126 5.05678 93.0536 5.12506 92.9771C5.19334 92.9006 5.26162 92.8282 5.32186 92.7477C6.24967 91.6609 6.85617 90.2883 6.99675 88.7869C7.00478 88.7104 7.01281 88.638 7.01683 88.5615C7.02486 88.485 7.02888 88.4085 7.0329 88.3321C7.03691 88.2757 7.03692 88.2194 7.03692 88.155V88.002C7.03692 87.9054 7.03289 87.8128 7.02888 87.7202C7.00076 86.9233 6.84411 86.1665 6.57501 85.4581C6.50271 85.2528 6.41436 85.0516 6.31796 84.8503C6.17738 84.5565 6.01672 84.2747 5.84 84.005C5.83598 84.001 5.83197 84.001 5.83197 83.997C5.71549 83.8199 5.58696 83.6428 5.45039 83.4697C5.31383 83.3006 5.16924 83.1396 5.02063 82.9867C4.94833 82.9021 4.868 82.8257 4.79168 82.7572C4.71537 82.6807 4.63505 82.6083 4.5507 82.5358C4.47037 82.4594 4.38602 82.3909 4.30167 82.3306C4.22134 82.2581 4.14101 82.1977 4.05667 82.1373C3.95626 82.0649 3.85584 81.9965 3.75543 81.9321C3.67108 81.8757 3.58673 81.8194 3.49837 81.7751C3.40599 81.7107 3.3096 81.6584 3.2132 81.6101C3.12082 81.5537 3.02442 81.5054 2.92401 81.4611C2.8236 81.4128 2.72319 81.3645 2.62277 81.3283C2.52638 81.28 2.42597 81.2478 2.32556 81.2075C2.02834 81.0989 1.72308 81.0023 1.4098 80.9298C1.30135 80.9057 1.18888 80.8815 1.07642 80.8694C0.98404 80.8493 0.891668 80.8332 0.795271 80.8252C0.654694 80.801 0.510097 80.7849 0.365503 80.7768C0.245008 80.7607 0.124512 80.7567 0 80.7527V73.3504C0.526162 73.3343 1.03626 73.2619 1.53029 73.1411C2.434 72.9238 3.26944 72.5293 4.00847 72.002C4.22135 71.8531 4.42218 71.688 4.61497 71.515C4.71136 71.4304 4.80775 71.3419 4.89611 71.2493C4.9644 71.1889 5.02464 71.1245 5.08489 71.0561C5.09292 71.048 5.09694 71.04 5.10497 71.0319C5.113 71.0279 5.11702 71.0199 5.12104 71.0158C5.1612 70.9756 5.19735 70.9353 5.2335 70.8911C5.2817 70.8428 5.32589 70.7904 5.36605 70.7381C5.4263 70.6697 5.48252 70.5972 5.53474 70.5248C5.63515 70.4 5.72753 70.2712 5.8159 70.1343C5.8641 70.0619 5.9123 69.9894 5.95648 69.9129C5.96049 69.9049 5.96451 69.9009 5.96853 69.8928C6.01672 69.8164 6.06491 69.7399 6.10909 69.6553C6.11311 69.6473 6.11714 69.6433 6.12115 69.6352C6.16534 69.5587 6.2055 69.4823 6.24567 69.4018C6.28985 69.3172 6.33001 69.2327 6.37018 69.1441C6.37018 69.1361 6.37017 69.1321 6.3782 69.124C6.4023 69.0757 6.42641 69.0234 6.44649 68.9711C6.47059 68.9187 6.49066 68.8664 6.51074 68.8141C6.55493 68.7094 6.5951 68.6007 6.63125 68.4921C6.6433 68.4639 6.65133 68.4357 6.65936 68.4075C6.6915 68.323 6.7196 68.2345 6.73969 68.1459C6.75174 68.1137 6.75977 68.0775 6.76781 68.0453C6.76781 68.0372 6.77183 68.0332 6.77183 68.0251C6.79593 67.9527 6.81601 67.8802 6.83207 67.8078C6.84814 67.7434 6.8642 67.679 6.87625 67.6106C6.8883 67.5542 6.90034 67.4938 6.91239 67.4335C6.92444 67.357 6.9365 67.2765 6.94855 67.196C6.9606 67.1316 6.96863 67.0672 6.97265 67.0028C6.97265 66.9867 6.98068 66.9746 6.98068 66.9585C6.99273 66.8699 7.00077 66.7814 7.0088 66.6888C7.02085 66.5841 7.02486 66.4714 7.02888 66.3628C7.03691 66.2823 7.03692 66.1937 7.03692 66.1092C7.03692 65.9844 7.03289 65.8596 7.02888 65.7389C7.02486 65.6262 7.01683 65.5054 7.00478 65.3887C6.94453 64.648 6.77182 63.9436 6.50272 63.2795C5.44236 60.6994 2.94008 58.8679 0 58.7874V51.3852C0.823383 51.365 1.6066 51.2 2.33359 50.9223C2.4099 50.8981 2.48621 50.8699 2.55851 50.8377C2.72319 50.7693 2.88385 50.6969 3.04049 50.6204C4.55873 49.8596 5.77172 48.5796 6.44649 47.0138C6.68346 46.4865 6.84814 45.915 6.9365 45.3273C7.0088 44.9449 7.03692 44.5464 7.03692 44.1399C7.03692 40.1952 3.90805 36.9992 0 36.8865V29.4078C0.819366 29.3877 1.59054 29.2267 2.32556 28.957C5.07686 27.9426 7.03692 25.282 7.03692 22.1665C7.03692 21.1965 6.84813 20.2586 6.50272 19.4174C5.44236 16.8332 2.94008 15.0018 0 14.9213V7.46667C0.108446 7.46667 0.208865 7.46667 0.321327 7.45459C0.433789 7.44654 0.554282 7.44252 0.670761 7.42642C4.32176 7.05208 7.17348 3.96478 7.17348 0.205287C7.17348 0.140884 7.16143 0.0724568 7.16143 0.00402909H14.6201C14.6201 0.0724568 14.6161 0.140884 14.6161 0.205287C14.6161 4.10969 17.6887 7.29761 21.5485 7.45459C21.6489 7.46264 21.7574 7.46667 21.8578 7.46667H21.9221C25.8904 7.42642 29.0915 4.19019 29.0915 0.205287C29.0915 0.140884 29.0795 0.0724568 29.0795 0.00402909H36.5461C36.5461 0.0724568 36.5341 0.140884 36.5341 0.205287C36.5341 0.575601 36.5662 0.929814 36.6184 1.28C37.1125 4.65308 39.9321 7.26943 43.3862 7.45459C43.5108 7.46264 43.6473 7.46667 43.7758 7.46667H43.804C43.9244 7.46667 44.0369 7.46667 44.1574 7.45057C44.2377 7.44654 44.3141 7.44252 44.3904 7.43849C44.4747 7.43044 44.551 7.42239 44.6314 7.41434C44.7518 7.39422 44.8683 7.37812 44.9928 7.36202C45.1133 7.34189 45.2338 7.31774 45.3463 7.28956C46.0452 7.1366 46.7039 6.88302 47.3063 6.54491C47.9409 6.18667 48.5153 5.73988 49.0093 5.21661C50.2504 3.92051 51.0176 2.15346 51.0176 0.205287C51.0176 0.140884 51.0096 0.0724568 51.0096 0.00402909H58.4722C58.4722 0.0724568 58.4602 0.140884 58.4602 0.205287C58.4602 3.96478 61.3079 7.05208 64.9629 7.42642C65.0512 7.43849 65.1396 7.44251 65.228 7.44654C65.2762 7.45057 65.3244 7.45459 65.3685 7.45459C65.477 7.46264 65.5895 7.46667 65.7019 7.46667C65.8144 7.46667 65.9309 7.46667 66.0514 7.45057C66.1718 7.45057 66.2883 7.44252 66.4048 7.42239C66.4169 7.42642 66.4289 7.42642 66.441 7.42239C66.8145 7.39019 67.176 7.32176 67.5294 7.22918C68.2403 7.04403 68.9151 6.74616 69.5296 6.35975C71.5781 5.07975 72.9437 2.80151 72.9437 0.205287C72.9437 0.140884 72.9316 0.0724568 72.9276 0.00402909H80.3862C80.3862 0.0724568 80.3822 0.140884 80.3822 0.205287C80.3822 3.0873 82.0571 5.57484 84.4831 6.75019C84.6477 6.82667 84.8124 6.9112 84.9851 6.97157C85.0735 7.0078 85.1578 7.04 85.2502 7.06818C85.3747 7.11648 85.5033 7.1527 85.6318 7.18893C85.8045 7.24126 85.9772 7.28554 86.1539 7.31774C86.2784 7.34189 86.407 7.36604 86.5355 7.39019C86.6359 7.39824 86.7363 7.41434 86.8367 7.42239C86.8528 7.42239 86.8649 7.42642 86.8809 7.42642C87.0014 7.44252 87.1179 7.44654 87.2424 7.45459H87.2545C87.3629 7.46264 87.4754 7.46667 87.5878 7.46667H87.62C87.7404 7.46667 87.861 7.46667 87.9694 7.45459C91.8052 7.27346 94.8617 4.09761 94.8617 0.205287C94.8617 0.140884 94.8497 0.0724568 94.8497 0.00402909H102.316C102.312 0.0724568 102.304 0.140884 102.304 0.205287C102.304 2.69283 103.553 4.88654 105.461 6.19472C105.931 6.52478 106.445 6.79044 106.996 6.99572C107.341 7.12855 107.694 7.22918 108.06 7.30969C108.072 7.30969 108.088 7.31774 108.104 7.31774C108.269 7.34994 108.442 7.38616 108.614 7.40226C108.807 7.42641 109.008 7.44654 109.209 7.45459C109.321 7.46264 109.434 7.46667 109.546 7.46667C109.659 7.46667 109.771 7.46667 109.883 7.45459C113.723 7.27749 116.788 4.09761 116.788 0.205287C116.788 0.140884 116.776 0.0724568 116.772 0.00402909H124.234C124.234 0.0724568 124.226 0.140884 124.226 0.205287C124.226 1.79522 124.74 3.26843 125.6 4.46793C125.949 4.94692 126.351 5.37761 126.801 5.75598C127.484 6.3356 128.283 6.79044 129.151 7.0883C129.159 7.0883 129.163 7.08831 129.175 7.09233C129.327 7.14466 129.488 7.19296 129.649 7.23724C129.653 7.23724 129.661 7.23724 129.665 7.23724C129.713 7.24529 129.765 7.26138 129.813 7.26541C129.942 7.29761 130.078 7.32579 130.215 7.34994C130.227 7.35799 130.239 7.35799 130.251 7.36202C130.436 7.38617 130.621 7.41434 130.809 7.43447C130.918 7.43447 131.022 7.44654 131.139 7.45057C131.247 7.45862 131.356 7.46264 131.468 7.46264C131.581 7.46264 131.697 7.46264 131.809 7.45057C135.641 7.27346 138.702 4.09358 138.702 0.201258C138.702 0.136855 138.702 0.0684277 138.702 0H146.16C146.16 0.0684277 146.156 0.136855 146.156 0.201258C146.156 1.00629 146.285 1.78315 146.534 2.50768C146.731 3.10743 147 3.66692 147.341 4.18617C148.297 5.65132 149.771 6.74214 151.498 7.21309C151.514 7.21309 151.531 7.21711 151.547 7.22113H151.559C151.755 7.28151 151.96 7.31774 152.169 7.34994C152.274 7.37007 152.374 7.39019 152.482 7.40629C152.575 7.41434 152.663 7.41837 152.76 7.42642C152.86 7.43849 152.956 7.44252 153.057 7.45057C153.157 7.45862 153.258 7.46264 153.358 7.46264H153.39C157.395 7.46264 160.636 4.20629 160.636 0.201258C160.636 0.136855 160.62 0.0684277 160.62 0H168.091C168.087 0.0684277 168.074 0.136855 168.074 0.201258C168.074 0.330063 168.079 0.462894 168.087 0.591699C168.123 1.28 168.251 1.9522 168.472 2.58013C169.247 4.81811 171.083 6.55698 173.372 7.19296C173.416 7.20906 173.457 7.21309 173.497 7.22516C173.581 7.24931 173.673 7.26943 173.766 7.28956C173.878 7.31371 173.987 7.34189 174.103 7.36202C174.212 7.38214 174.324 7.39421 174.437 7.41032C174.529 7.41837 174.629 7.42642 174.726 7.43849C174.814 7.44252 174.899 7.44654 174.979 7.45057C175.095 7.45862 175.204 7.46264 175.316 7.46264C175.409 7.46264 175.509 7.46264 175.609 7.45057C179.469 7.29761 182.558 4.11371 182.558 0.201258C182.558 0.136855 182.55 0.0684277 182.546 0H190.009C190.009 0.0684277 190.001 0.136855 190.001 0.201258C190.001 0.495094 190.017 0.772834 190.045 1.0546C190.458 4.54843 193.338 7.28554 196.893 7.45057C197.005 7.45862 197.122 7.46264 197.238 7.46264C197.447 7.46264 197.664 7.45057 197.873 7.43447C197.885 7.43447 197.901 7.42642 197.913 7.42642C198.267 7.39422 198.616 7.33786 198.953 7.24931C199.058 7.22516 199.17 7.19296 199.275 7.16076C201.287 6.58113 202.93 5.1361 203.797 3.26843C204.235 2.33862 204.476 1.30013 204.476 0.201258C204.476 0.136855 204.476 0.0684277 204.476 0H211.935C211.935 0.0684277 211.923 0.136855 211.923 0.201258C211.923 3.43748 214.031 6.16655 216.943 7.11246C216.979 7.12051 217.012 7.13661 217.044 7.14063C217.168 7.18491 217.297 7.21308 217.425 7.24528C217.606 7.28956 217.787 7.33384 217.975 7.36202C218.088 7.38617 218.208 7.39824 218.329 7.41434C218.602 7.44252 218.883 7.46264 219.164 7.46264C219.265 7.46264 219.365 7.46264 219.47 7.45057C219.49 7.45057 219.506 7.44654 219.526 7.44654C219.606 7.44251 219.691 7.43447 219.771 7.42642H219.779C219.779 7.42642 219.819 7.42642 219.835 7.42239C219.851 7.42239 219.867 7.41837 219.891 7.41837C219.907 7.41837 219.919 7.41434 219.944 7.41434C219.964 7.41434 219.98 7.41032 219.996 7.40629V14.9132C219.972 14.9132 219.948 14.9132 219.923 14.9172C216.011 15.0098 212.866 18.2179 212.866 22.1625L212.854 22.1545Z" fill="#FAFAF9"/>
<path fill-rule="evenodd" clip-rule="evenodd" d="M131.119 230.598C134.549 230.964 136.264 231.121 139.694 231.338C140.602 231.394 141.373 231.571 142.008 231.869C142.642 232.167 143.137 232.57 143.482 233.077C143.832 233.584 144.004 234.184 144.004 234.868C144.004 235.403 143.875 235.878 143.618 236.293C143.361 236.707 143 237.045 142.538 237.303C142.072 237.56 141.518 237.714 140.875 237.758V237.774C141.076 237.899 141.265 238.048 141.441 238.221C141.618 238.398 141.767 238.603 141.888 238.841C142.209 239.44 142.369 239.738 142.69 240.334C142.803 240.499 142.92 240.632 143.04 240.729C143.16 240.825 143.309 240.878 143.478 240.882C143.618 240.886 143.771 240.841 143.939 240.749C144.104 240.652 144.241 240.532 144.342 240.383C144.615 240.906 144.751 241.167 145.021 241.69C144.747 241.984 144.394 242.214 143.952 242.375C143.514 242.536 143.073 242.608 142.631 242.588C142.209 242.568 141.835 242.479 141.51 242.322V242.326C141.189 242.169 140.919 241.964 140.706 241.715C140.493 241.465 140.289 241.188 140.088 240.882C139.763 240.218 139.598 239.887 139.272 239.223C139.08 238.889 138.834 238.619 138.529 238.414C138.228 238.213 137.899 238.097 137.546 238.068C136.156 237.964 135.457 237.903 134.067 237.774V241.687C132.887 241.578 132.296 241.517 131.119 241.389V230.598ZM134.051 235.923C136.003 236.104 136.984 236.189 138.936 236.317L138.939 236.325C139.381 236.353 139.763 236.317 140.08 236.217C140.397 236.116 140.638 235.951 140.807 235.729C140.971 235.508 141.056 235.226 141.056 234.892C141.056 234.578 140.971 234.3 140.807 234.059C140.642 233.817 140.397 233.62 140.08 233.463C139.763 233.306 139.385 233.214 138.951 233.186C136.991 233.053 136.011 232.972 134.051 232.787V235.923Z" fill="#F44E22"/>
<path d="M157.964 233.25C154.711 233.516 153.079 233.58 149.826 233.608V236.035C152.839 236.011 154.345 235.955 157.357 235.726V237.484C154.345 237.714 152.839 237.77 149.826 237.794V240.447C153.14 240.419 154.799 240.351 158.116 240.077V242.062C153.662 242.432 151.437 242.483 146.986 242.423V231.632L146.982 231.628C151.376 231.688 153.57 231.636 157.964 231.277V233.25Z" fill="#F44E22"/>
<path fill-rule="evenodd" clip-rule="evenodd" d="M120.289 229.241C121.651 229.434 122.33 229.527 123.691 229.708C125.491 233.532 127.294 237.356 129.105 241.172C127.884 241.031 127.274 240.958 126.049 240.801C125.631 239.895 125.422 239.441 125.005 238.531C122.555 238.217 121.33 238.044 118.88 237.693C118.462 238.49 118.253 238.886 117.835 239.683C116.606 239.506 115.992 239.413 114.767 239.231C116.61 235.903 118.45 232.574 120.289 229.241ZM119.606 235.947C121.482 236.213 122.418 236.341 124.294 236.587L124.298 236.591C123.366 234.534 122.9 233.503 121.968 231.442C121.956 231.442 121.952 231.442 121.937 231.438C121.005 233.246 120.538 234.148 119.606 235.947Z" fill="#F44E22"/>
<path fill-rule="evenodd" clip-rule="evenodd" d="M86.5996 225.039C87.7523 224.661 89.0855 224.552 90.5996 224.717C92.1218 224.882 93.4597 225.284 94.6084 225.908C95.7569 226.536 96.6563 227.333 97.2988 228.299C97.9454 229.261 98.2666 230.311 98.2666 231.442C98.2666 232.573 97.9417 233.52 97.291 234.309C96.6403 235.097 95.7443 235.661 94.5996 236.003C93.6968 236.273 92.6767 236.38 91.5391 236.335V236.623C91.5391 236.965 91.6723 237.251 91.9414 237.473C92.2104 237.694 92.5838 237.834 93.0654 237.891C93.5595 237.947 94.0418 237.915 94.5117 237.79C94.9816 237.665 95.3953 237.424 95.7607 237.065C96.1463 237.605 96.3431 237.875 96.7285 238.418C96.4353 238.744 96.0817 239.006 95.668 239.199C95.2544 239.392 94.7968 239.525 94.291 239.598C93.789 239.666 93.2584 239.67 92.7041 239.605C92.0495 239.529 91.4752 239.368 90.9893 239.114L90.9854 239.118C90.4954 238.869 90.1214 238.531 89.8604 238.112C89.5994 237.69 89.4669 237.211 89.4668 236.676V236.1C88.4108 235.898 87.453 235.582 86.5908 235.146V235.142C85.4302 234.554 84.5304 233.805 83.8838 232.888C83.2372 231.97 82.9161 230.944 82.916 229.801C82.916 228.658 83.2411 227.699 83.8916 226.862C84.5423 226.029 85.4469 225.417 86.5996 225.039ZM90.5996 226.882C89.6638 226.781 88.8359 226.85 88.125 227.092C87.4143 227.329 86.8557 227.708 86.4541 228.219C86.0527 228.73 85.8477 229.334 85.8477 230.03C85.8477 230.726 86.0487 231.354 86.4541 231.938C86.8557 232.525 87.4142 233.004 88.125 233.383C88.8359 233.761 89.6597 233.999 90.5996 234.1C91.5274 234.2 92.3467 234.139 93.0576 233.914C93.7685 233.689 94.3269 233.33 94.7285 232.827C95.1301 232.328 95.335 231.732 95.335 231.044C95.3349 230.356 95.134 229.7 94.7285 229.104C94.3229 228.509 93.7685 228.013 93.0576 227.623C92.3467 227.233 91.5274 226.982 90.5996 226.882Z" fill="#F44E22"/>
<path d="M103.558 226.766V232.421C103.558 233.129 103.702 233.745 103.995 234.272C104.288 234.8 104.706 235.218 105.248 235.532C105.794 235.846 106.429 236.055 107.156 236.164C107.891 236.273 108.526 236.253 109.064 236.1C109.598 235.947 110.016 235.653 110.313 235.21C110.611 234.771 110.759 234.2 110.759 233.504V227.836C111.932 228.013 112.518 228.101 113.695 228.274V234.051C113.695 235.194 113.426 236.12 112.892 236.832C112.357 237.544 111.602 238.032 110.622 238.298C109.646 238.559 108.489 238.592 107.16 238.395C105.819 238.193 104.658 237.818 103.674 237.267C102.69 236.715 101.934 236.007 101.404 235.138C100.874 234.268 100.609 233.266 100.609 232.123V226.347C101.79 226.512 102.381 226.597 103.558 226.766Z" fill="#F44E22"/>
<path d="M74.4785 223.694C75.2254 223.706 75.9562 223.795 76.6709 223.968C77.3858 224.141 78.0367 224.379 78.623 224.685C79.2095 224.986 79.688 225.332 80.0615 225.715C79.6197 226.371 79.3988 226.701 78.957 227.357C78.6237 227.027 78.2219 226.737 77.748 226.479C77.2741 226.226 76.7556 226.025 76.1973 225.876C75.639 225.727 75.0562 225.662 74.4658 225.658C73.9157 225.658 73.4097 225.703 72.96 225.812C72.5102 225.92 72.165 226.073 71.916 226.271C71.667 226.464 71.5499 226.693 71.5459 226.938C71.5419 227.236 71.7071 227.477 72.0605 227.646C72.414 227.816 72.9721 227.953 73.7393 228.058C74.6349 228.174 75.0809 228.234 75.9766 228.367C77.6916 228.613 78.9367 229.032 79.7119 229.583C80.487 230.138 80.8845 230.883 80.8926 231.801C80.8926 232.513 80.6436 233.133 80.1455 233.645C79.6475 234.16 78.9445 234.542 78.0449 234.804C77.1412 235.065 76.1007 235.182 74.9199 235.162C74.0042 235.146 73.1043 235.041 72.2207 234.84L72.2168 234.852C71.3335 234.654 70.5424 234.377 69.8438 234.011C69.1409 233.648 68.5901 233.246 68.1885 232.795C68.7025 232.071 68.9597 231.712 69.4736 230.996C69.807 231.411 70.2614 231.777 70.8438 232.095C71.4221 232.413 72.0851 232.666 72.832 232.855C73.5789 233.045 74.3179 233.145 75.0527 233.157C75.6472 233.169 76.1655 233.129 76.6113 233.036C77.057 232.944 77.3985 232.799 77.6475 232.602C77.8923 232.404 78.0166 232.179 78.0166 231.926C78.0166 231.592 77.7999 231.314 77.3662 231.093C76.9324 230.871 76.2454 230.694 75.3096 230.573C74.414 230.428 73.9679 230.36 73.0723 230.231C71.53 230.034 70.4097 229.72 69.7148 229.257C69.0201 228.794 68.671 228.118 68.6709 227.221C68.6709 226.512 68.9116 225.884 69.3975 225.341C69.8834 224.797 70.562 224.378 71.4375 224.097C72.3131 223.815 73.3298 223.678 74.4785 223.694Z" fill="#F44E22"/>
<path d="M161.932 217.512C158.678 217.91 157.047 218.035 153.794 218.172V220.599C156.806 220.47 158.313 220.357 161.325 220.011V221.771C158.313 222.121 156.806 222.229 153.794 222.357V225.011C157.108 224.87 158.766 224.741 162.084 224.33V226.314C157.63 226.866 155.404 226.999 150.954 227.079V216.288L150.95 216.284C155.344 216.204 157.538 216.074 161.932 215.539V217.512Z" fill="#F44E22"/>
<path d="M136.821 215.801C140.81 216.139 144.858 216.32 148.858 216.304V218.47C147.043 218.47 146.135 218.454 144.32 218.397V227.023C143.139 226.983 142.549 226.959 141.372 226.898V218.269C139.553 218.172 138.641 218.112 136.821 217.967V215.801Z" fill="#F44E22"/>
<path fill-rule="evenodd" clip-rule="evenodd" d="M128.17 214.932C129.532 215.093 130.211 215.169 131.572 215.313C133.368 219.081 135.171 222.845 136.986 226.604C135.765 226.508 135.155 226.456 133.93 226.339C133.512 225.445 133.303 224.998 132.886 224.101C130.436 223.859 129.211 223.718 126.761 223.416C126.343 224.221 126.134 224.62 125.716 225.425C124.487 225.268 123.872 225.187 122.647 225.022C124.495 221.666 126.335 218.301 128.166 214.936L128.17 214.932ZM127.487 221.661C129.363 221.887 130.299 221.995 132.175 222.185L132.179 222.181C131.247 220.152 130.78 219.133 129.849 217.097H129.817C128.886 218.928 128.419 219.838 127.487 221.661Z" fill="#F44E22"/>
<path d="M172.369 213.526C173.084 213.502 173.734 213.551 174.32 213.668C174.907 213.789 175.385 213.973 175.759 214.227C175.317 215.032 175.096 215.435 174.654 216.235C174.321 216.014 173.919 215.845 173.445 215.732C172.971 215.616 172.453 215.563 171.895 215.563C171.336 215.563 170.754 215.644 170.164 215.776C169.614 215.901 169.107 216.055 168.657 216.256C168.208 216.457 167.862 216.675 167.613 216.912C167.364 217.15 167.247 217.399 167.243 217.648C167.239 217.95 167.404 218.16 167.758 218.265C168.111 218.369 168.67 218.401 169.437 218.341C170.332 218.264 170.778 218.22 171.674 218.119C173.389 217.918 174.634 217.93 175.409 218.224C176.184 218.517 176.582 219.122 176.59 220.031C176.594 220.744 176.341 221.452 175.843 222.141C175.345 222.825 174.642 223.444 173.742 223.979C172.838 224.515 171.798 224.922 170.617 225.184C169.702 225.389 168.801 225.47 167.918 225.438L167.91 225.429C167.027 225.392 166.236 225.24 165.537 224.975C164.834 224.709 164.283 224.366 163.882 223.96C164.396 223.183 164.653 222.793 165.167 222.008C165.5 222.378 165.959 222.684 166.537 222.909C167.115 223.139 167.778 223.275 168.525 223.315C169.272 223.356 170.011 223.296 170.75 223.131C171.344 222.998 171.863 222.821 172.309 222.607C172.754 222.394 173.096 222.149 173.345 221.879C173.59 221.609 173.714 221.347 173.714 221.094C173.714 220.76 173.497 220.547 173.063 220.45C172.63 220.354 171.943 220.37 171.007 220.482C170.111 220.559 169.665 220.591 168.77 220.644C167.227 220.76 166.107 220.606 165.412 220.24C164.717 219.87 164.368 219.234 164.368 218.333C164.368 217.625 164.609 216.972 165.095 216.364C165.581 215.757 166.259 215.245 167.135 214.814C168.01 214.384 169.027 214.05 170.176 213.805C170.923 213.644 171.654 213.551 172.369 213.526Z" fill="#F44E22"/>
<path d="M108.101 212.102C109.82 215.632 110.68 217.399 112.395 220.929H112.41C114.117 217.91 114.969 216.401 116.676 213.378C118.266 213.611 119.062 213.724 120.652 213.949V224.74C119.532 224.583 118.973 224.503 117.853 224.342V216.598C117.841 216.598 117.837 216.598 117.821 216.594C116.219 219.46 115.415 220.888 113.812 223.75C112.716 223.585 112.17 223.505 111.073 223.34C109.435 219.995 108.615 218.324 106.973 214.979C106.961 214.979 106.956 214.98 106.94 214.976V222.72C105.82 222.555 105.261 222.471 104.141 222.31V211.518H104.152C105.731 211.747 106.522 211.864 108.101 212.102Z" fill="#F44E22"/>
<path d="M90.7627 209.775C95.1567 210.254 97.3501 210.552 101.744 211.172V213.145C98.4908 212.682 96.8598 212.46 93.6064 212.069V214.497C96.6187 214.859 98.1254 215.06 101.138 215.482V217.242C98.1254 216.82 96.6188 216.614 93.6064 216.256V218.908C96.92 219.307 98.5789 219.532 101.896 220.003V221.987C97.4422 221.355 95.217 221.053 90.7627 220.566V209.775Z" fill="#F44E22"/>
<path d="M52.0459 210.379C53.1141 210.158 54.0938 210.126 54.9854 210.274C55.8769 210.423 56.6326 210.741 57.2471 211.216C57.8616 211.691 58.2994 212.295 58.5645 213.02C57.5042 213.426 56.9782 213.64 55.918 214.074C55.7573 213.644 55.4999 213.293 55.1465 213.02C54.793 212.746 54.3591 212.56 53.8369 212.472C53.3188 212.383 52.7445 212.4 52.1221 212.528C51.2546 212.705 50.4956 213.023 49.8369 213.462C49.1822 213.905 48.6757 214.441 48.3223 215.061C47.969 215.68 47.792 216.352 47.792 217.068C47.792 217.777 47.9893 218.348 48.3828 218.787C48.7764 219.23 49.3348 219.5 50.0537 219.608C50.7726 219.717 51.6124 219.673 52.5723 219.479C53.2991 219.335 53.966 219.11 54.5684 218.8C55.1748 218.49 55.6726 218.119 56.0742 217.681C56.4719 217.242 56.7489 216.766 56.8975 216.247C57.9818 216.303 58.5202 216.34 59.6045 216.425C59.3836 217.29 58.9463 218.075 58.2959 218.783C57.6453 219.492 56.8213 220.087 55.8213 220.574C54.8212 221.061 53.7244 221.424 52.5234 221.665C50.9691 221.979 49.6156 222.068 48.4629 221.903L48.4707 221.915C47.3141 221.75 46.4263 221.343 45.7998 220.663C45.1733 219.983 44.8643 219.065 44.8643 217.894C44.8643 216.722 45.1615 215.636 45.7559 214.613C46.3502 213.595 47.1856 212.702 48.2578 211.957C49.3302 211.212 50.5959 210.677 52.0459 210.379Z" fill="#F44E22"/>
<path d="M79.0645 208.897C79.9401 208.664 80.9567 208.584 82.1055 208.656C82.8525 208.705 83.5839 208.833 84.2988 209.038C85.0136 209.243 85.6637 209.514 86.25 209.844C86.8364 210.174 87.3149 210.54 87.6885 210.938C87.2467 211.574 87.0257 211.896 86.584 212.532C86.2506 212.19 85.8489 211.88 85.375 211.603C84.9011 211.325 84.3825 211.1 83.8242 210.927C83.2661 210.754 82.684 210.656 82.0938 210.624C81.5435 210.592 81.0368 210.613 80.5869 210.701C80.1372 210.786 79.7919 210.923 79.543 211.1C79.2941 211.281 79.177 211.502 79.1729 211.747C79.1688 212.045 79.334 212.295 79.6875 212.484C80.0409 212.674 80.5992 212.838 81.3662 212.987C82.2619 213.152 82.7078 213.237 83.6035 213.41C85.3185 213.74 86.5637 214.211 87.3389 214.799C88.1139 215.386 88.5114 216.151 88.5195 217.064C88.5195 217.777 88.2705 218.385 87.7725 218.88C87.2744 219.375 86.5716 219.725 85.6719 219.946C84.7682 220.168 83.7277 220.237 82.5469 220.156C81.6312 220.096 80.7312 219.939 79.8477 219.693L79.8398 219.701C78.9565 219.456 78.1655 219.13 77.4668 218.728C76.764 218.325 76.2132 217.886 75.8115 217.411C76.3256 216.719 76.5827 216.377 77.0967 215.688C77.43 216.123 77.8885 216.517 78.4668 216.867C79.0451 217.221 79.7081 217.508 80.4551 217.737C81.2019 217.967 81.9409 218.103 82.6797 218.155C83.2741 218.196 83.7924 218.184 84.2383 218.111C84.6841 218.039 85.0254 217.91 85.2744 217.725C85.5193 217.539 85.6436 217.318 85.6436 217.064C85.6434 216.73 85.4268 216.441 84.9932 216.199C84.5594 215.958 83.8723 215.748 82.9365 215.579C82.0411 215.39 81.5948 215.297 80.6992 215.12C79.1571 214.842 78.0366 214.464 77.3418 213.961C76.6471 213.458 76.2979 212.762 76.2979 211.86C76.2979 211.152 76.5384 210.54 77.0244 210.024C77.5103 209.509 78.1891 209.131 79.0645 208.897Z" fill="#F44E22"/>
<path fill-rule="evenodd" clip-rule="evenodd" d="M69.1533 208.741C70.9767 212.315 72.7801 215.902 74.5674 219.496C73.3464 219.48 72.7358 219.476 71.5107 219.488C71.093 218.639 70.8845 218.211 70.4668 217.366C68.0169 217.41 66.7916 217.463 64.3418 217.645C63.9241 218.53 63.7146 218.973 63.2969 219.862C62.068 219.963 61.4535 220.023 60.2285 220.164C62.048 216.397 63.8874 212.641 65.7471 208.894H65.751C67.1126 208.813 67.7917 208.781 69.1533 208.741ZM65.0684 215.74C66.9441 215.615 67.8802 215.576 69.7559 215.531H69.7598C68.8279 213.619 68.3615 212.669 67.4297 210.777H67.3984C66.4666 212.754 66.0001 213.748 65.0684 215.74Z" fill="#F44E22"/>
<path fill-rule="evenodd" clip-rule="evenodd" d="M172.581 145.565C176.899 144.865 180.581 144.588 183.63 144.95C186.678 145.312 189.024 146.379 190.671 148.363C192.322 150.348 193.122 153.379 193.142 157.509C193.166 162.113 192.366 166.831 190.691 171.094C189.274 174.704 186.285 178.774 183.297 181.181C179.807 183.994 175.496 185.355 171.291 185.982C168.19 186.445 165.022 186.071 162.274 185.362L162.271 185.37C159.523 184.666 157.077 183.592 154.933 182.235C152.784 180.879 150.964 179.277 149.47 177.474C151.277 175.397 152.173 174.325 153.973 172.115C155.149 173.766 156.587 175.195 158.294 176.366C159.997 177.541 161.913 178.407 164.037 178.918C166.162 179.429 168.452 179.591 170.91 179.333C173.501 179.063 175.782 178.237 177.766 176.909C179.746 175.585 181.276 173.855 182.356 171.798C183.433 169.745 183.971 167.447 183.955 164.947C182.276 167.096 180.489 168.751 178.598 169.89C176.706 171.029 174.276 171.842 171.308 172.192C167.612 172.631 164.379 172.224 161.592 171.186C158.804 170.147 156.639 168.573 155.093 166.585C153.551 164.597 152.723 162.319 152.635 159.795C152.546 157.235 153.341 155.017 155.028 153.057C156.715 151.096 159.098 149.571 162.158 148.319C165.219 147.068 168.701 146.193 172.581 145.565ZM178.212 151.962C176.565 151.753 174.698 151.837 172.613 152.167C170.597 152.485 168.797 153.001 167.227 153.741C165.652 154.482 164.443 155.379 163.592 156.478C162.74 157.576 162.334 158.756 162.362 160.04C162.394 161.324 162.869 162.455 163.776 163.417C164.684 164.379 165.941 165.104 167.552 165.547C169.158 165.99 170.958 166.09 172.95 165.796C174.974 165.498 176.782 164.866 178.368 163.937H178.364C179.951 163.007 181.192 161.887 182.084 160.64C182.975 159.392 183.417 158.076 183.413 156.728C183.405 155.379 182.951 154.304 182.044 153.483C181.136 152.662 179.859 152.171 178.212 151.962Z" fill="#F44E22"/>
<path d="M107.695 141.67C119.508 143.622 131.317 145.731 143.186 147.301C143.226 149.736 143.261 150.976 143.354 153.479C138.996 156.985 135.22 161.171 132.353 165.981C129.613 170.57 127.649 175.593 126.444 180.798C122.605 180.005 118.773 179.16 114.949 178.286C116.259 173.335 118.388 168.618 121.271 164.388V164.384C124.284 159.96 127.986 156.015 132.188 152.702C124.038 151.362 115.901 149.953 107.764 148.536C107.715 145.795 107.699 144.419 107.695 141.67Z" fill="#F44E22"/>
<path d="M52.6768 136.658C52.6848 146.117 52.721 155.576 52.7451 165.035C56.9624 164.395 59.0756 164.214 63.293 164.077C63.301 166.621 63.3046 167.897 63.3086 170.485C51.0985 171.254 40.1013 173.955 28.9033 178.906V172.407C33.4487 170.222 38.1834 168.44 43.0459 167.104C43.0258 160.548 42.9928 153.991 42.9688 147.434C42.949 147.438 42.9408 147.441 42.9209 147.445C41.965 149.14 40.6115 150.714 38.8604 152.248C37.1092 153.782 34.8476 155.452 32.0723 157.424C31.3172 154.908 30.9435 153.657 30.1885 151.157C33.3573 148.891 36.0404 146.866 38.2373 144.878C40.4343 142.894 42.2059 140.747 43.5635 138.324C47.2103 137.431 49.03 137.109 52.6768 136.658Z" fill="#F44E22"/>
<path d="M28.9033 172.407L28.8994 172.409L28.9033 172.405V172.407Z" fill="#F44E22"/>
<path d="M65.8008 136.038C77.8543 136.581 89.6512 138.703 101.54 140.651C101.56 143.058 101.58 144.258 101.624 146.645C97.2942 149.748 93.3939 153.495 90.3213 157.858C87.3531 162.073 85.2084 166.839 84.0195 171.858C80.2481 171.23 76.3723 170.796 72.5566 170.599C73.8579 165.547 76.0829 160.741 79.1875 156.551L79.1836 156.547C82.3325 152.292 86.2931 148.673 90.5947 145.614C82.3248 144.282 74.1908 143.15 65.8164 142.82C65.8044 140.132 65.8008 138.779 65.8008 136.038Z" fill="#F44E22"/>
<path d="M129.814 127.042C127.999 127.195 127.092 127.203 125.276 127.135V128.487C126.955 128.552 127.795 128.548 129.478 128.419V129.4C127.799 129.525 126.959 129.529 125.276 129.469V130.946C127.124 131.015 128.048 131.007 129.899 130.846V131.953C127.417 132.17 126.176 132.146 123.689 131.965V125.947C126.139 126.124 127.365 126.153 129.814 125.943V127.042Z" fill="#F44E22"/>
<path d="M116.097 125.15C116.695 124.993 117.403 124.985 118.21 125.114C118.804 125.211 119.355 125.376 119.849 125.613C120.347 125.851 120.768 126.149 121.109 126.503C121.451 126.861 121.696 127.256 121.845 127.694C121.254 127.779 120.961 127.819 120.37 127.888C120.282 127.622 120.137 127.384 119.94 127.171C119.744 126.958 119.499 126.781 119.21 126.632C118.921 126.487 118.599 126.381 118.254 126.329C117.768 126.253 117.346 126.261 116.98 126.361C116.615 126.458 116.334 126.64 116.137 126.901C115.94 127.163 115.84 127.493 115.84 127.892C115.84 128.286 115.948 128.652 116.169 128.994C116.39 129.336 116.7 129.618 117.102 129.84C117.503 130.065 117.973 130.218 118.507 130.303C118.912 130.367 119.282 130.363 119.619 130.303C119.956 130.238 120.238 130.114 120.459 129.937C120.68 129.755 120.833 129.533 120.917 129.268C121.519 129.465 121.824 129.558 122.427 129.739C122.302 130.194 122.061 130.576 121.696 130.886C121.335 131.192 120.873 131.405 120.318 131.514C119.76 131.622 119.149 131.627 118.479 131.522C117.611 131.386 116.856 131.131 116.214 130.761V130.757C115.571 130.391 115.073 129.932 114.724 129.389C114.374 128.845 114.201 128.246 114.201 127.59C114.201 126.934 114.366 126.414 114.699 125.999C115.033 125.589 115.499 125.307 116.097 125.15Z" fill="#F44E22"/>
<path d="M185.281 122.434C184.952 122.695 184.654 123.053 184.397 123.508C184.14 123.963 183.94 124.482 183.795 125.069C183.65 125.653 183.574 126.237 183.574 126.812C183.574 127.279 183.615 127.686 183.699 128.036C183.784 128.382 183.904 128.656 184.064 128.85C184.225 129.043 184.406 129.139 184.603 129.139C184.864 129.139 185.073 128.97 185.237 128.628C185.398 128.29 185.518 127.75 185.599 127.014L185.848 125.259C185.996 124.047 186.261 123.169 186.635 122.626C187.008 122.079 187.546 121.81 188.249 121.81C188.803 121.81 189.286 121.999 189.699 122.377C190.113 122.755 190.427 123.29 190.64 123.979C190.852 124.667 190.961 125.46 190.961 126.361C190.961 126.945 190.901 127.521 190.784 128.08C190.668 128.644 190.499 129.151 190.282 129.61C190.065 130.069 189.815 130.443 189.53 130.737L188.205 129.872C188.45 129.61 188.663 129.296 188.852 128.922C189.036 128.552 189.182 128.145 189.286 127.706C189.387 127.267 189.435 126.816 189.427 126.35C189.427 125.915 189.382 125.52 189.298 125.17C189.21 124.82 189.093 124.547 188.944 124.354C188.796 124.16 188.619 124.063 188.422 124.063C188.185 124.056 188.001 124.188 187.864 124.466C187.732 124.744 187.623 125.182 187.547 125.782L187.334 127.537C187.177 128.882 186.896 129.86 186.494 130.468C186.093 131.075 185.53 131.385 184.815 131.394C184.257 131.394 183.763 131.196 183.341 130.806C182.919 130.415 182.59 129.864 182.357 129.155C182.124 128.447 182.008 127.63 182.008 126.708C182.008 125.988 182.088 125.283 182.245 124.591H182.241C182.398 123.899 182.627 123.279 182.92 122.728C183.217 122.176 183.546 121.745 183.907 121.427L185.281 122.434Z" fill="#F44E22"/>
<path d="M105.441 122.969C106.246 123.093 106.648 123.162 107.454 123.307C108.968 125.347 109.727 126.382 111.241 128.451H111.249V124.011C111.871 124.131 112.185 124.192 112.812 124.312V130.331C112.012 130.178 111.611 130.097 110.812 129.944C109.289 127.867 108.53 126.829 107.008 124.78H107V129.244C106.377 129.135 106.064 129.083 105.441 128.986V122.969Z" fill="#F44E22"/>
<path d="M135.545 128.33C136.035 128.161 136.433 128.395 136.433 128.886C136.433 129.377 136.043 129.924 135.545 130.097C135.055 130.266 134.665 130.005 134.661 129.51C134.657 129.019 135.059 128.499 135.545 128.33Z" fill="#F44E22"/>
<path d="M102.293 122.542C102.944 122.614 103.269 122.659 103.92 122.747V128.765C103.269 128.676 102.944 128.632 102.293 128.56V122.542Z" fill="#F44E22"/>
<path d="M97.4512 122.039C97.8687 122.043 98.2744 122.095 98.6719 122.195C99.0693 122.296 99.4345 122.437 99.7598 122.614C100.085 122.791 100.355 122.989 100.563 123.21C100.319 123.568 100.194 123.749 99.9492 124.111C99.7645 123.922 99.5394 123.757 99.2744 123.608C99.0095 123.464 98.7202 123.347 98.4111 123.263C98.0978 123.178 97.7756 123.142 97.4463 123.138C97.1412 123.138 96.8563 123.166 96.6074 123.23C96.3584 123.295 96.161 123.383 96.0244 123.496C95.8882 123.609 95.8204 123.733 95.8203 123.874C95.8203 124.039 95.9087 124.172 96.1055 124.265C96.3023 124.357 96.6154 124.426 97.041 124.482C97.539 124.543 97.7881 124.579 98.29 124.655C99.2459 124.8 99.9412 125.049 100.375 125.371C100.809 125.693 101.029 126.116 101.033 126.627C101.033 127.025 100.893 127.364 100.616 127.646C100.339 127.923 99.9452 128.129 99.4434 128.266C98.9414 128.402 98.3587 128.459 97.7002 128.447C97.1901 128.439 96.6874 128.383 96.1934 128.282V128.266C95.6994 128.165 95.2617 128.02 94.8682 127.835C94.4786 127.646 94.1693 127.437 93.9443 127.199C94.2295 126.781 94.374 126.575 94.6592 126.164C94.8439 126.389 95.0975 126.583 95.4229 126.752C95.7441 126.921 96.1177 127.054 96.5312 127.15C96.9489 127.251 97.3588 127.303 97.7725 127.312C98.1057 127.32 98.3947 127.299 98.6396 127.247C98.8886 127.199 99.0772 127.118 99.2178 127.014C99.3543 126.905 99.4228 126.78 99.4229 126.64C99.4229 126.455 99.3023 126.298 99.0615 126.169C98.8206 126.04 98.439 125.94 97.9131 125.871C97.415 125.791 97.1651 125.75 96.6631 125.686C95.8039 125.585 95.1775 125.432 94.792 125.19C94.4064 124.949 94.209 124.578 94.209 124.079C94.2091 123.685 94.3462 123.327 94.6152 123.013C94.8843 122.699 95.2659 122.453 95.7559 122.284C96.2458 122.115 96.8086 122.031 97.4512 122.039Z" fill="#F44E22"/>
<path d="M32.4512 120.312H39.1865V122.627H32.4512V126.197H30.7598V116.754H32.4512V120.312Z" fill="#F44E22"/>
<path d="M87.4746 123.411C87.9646 123.242 88.3584 123.508 88.3584 123.999C88.3584 124.49 87.9686 125.006 87.4746 125.179C86.9847 125.348 86.595 125.118 86.5869 124.623C86.5829 124.132 86.9846 123.58 87.4746 123.411Z" fill="#F44E22"/>
<path d="M190.688 112.527L186.828 115.312V115.325L190.688 118.029V120.59L185.198 116.464H182.262V114.149H185.198L190.688 109.987V112.527Z" fill="#F44E22"/>
<path d="M39.7021 104.638L39.5449 106.933L35.9668 106.687L35.585 112.226L39.1641 112.471L39.0068 114.766L30.6006 114.186L30.7568 111.892L33.9463 112.112L34.3281 106.574L31.1387 106.353L31.2959 104.059L39.7021 104.638Z" fill="#F44E22"/>
<path d="M189.219 98.7529L190.476 107.271L188.954 107.496L188.022 101.185L186.15 101.462L187.014 107.307L185.656 107.508L184.797 101.663L182.748 101.966L183.696 108.394L182.162 108.619L180.889 99.9854L189.223 98.749L189.219 98.7529Z" fill="#F44E22"/>
<path d="M35.3643 92.4219L33.9141 98.6367L35.7578 99.0674L37.0996 93.3154L38.4365 93.6289L37.0957 99.3809L39.1113 99.8525L40.5898 93.5244L42.0996 93.8789L40.1162 102.38L31.9102 100.456L33.8662 92.0713L35.3643 92.4219Z" fill="#F44E22"/>
<path d="M110.66 82.335C111.97 86.4605 113.295 86.5447 117.348 83.1113C115.58 87.3055 116.525 87.9537 121.919 86.4482C117.818 89.8334 118.107 91.0087 123.594 92.168C118.131 93.299 117.858 94.4662 122.003 97.8311C116.565 96.3378 115.601 96.9827 117.372 101.173C113.307 97.7475 111.974 97.8354 110.66 101.961C109.403 97.7391 108.09 97.5742 104.018 100.862C105.845 96.8093 104.893 96.2137 99.4707 97.6787C103.596 94.4104 103.318 93.2634 97.8438 92.1484C103.318 91.0294 103.588 89.8694 99.4707 86.5889C104.893 88.0741 105.849 87.4826 104.018 83.4336C108.09 86.7258 109.403 86.5569 110.66 82.335Z" fill="#F44E22"/>
<path d="M186.394 88.6221L182.979 89.6885V89.7002L187.711 92.8682L188.603 95.7344L183.88 92.5381L180.578 98.3027L179.73 95.5732L182.152 91.3994L180.679 90.4053L178.353 91.1338L177.67 88.9355L185.711 86.4248L186.394 88.6221Z" fill="#F44E22"/>
<path d="M41.7764 76.1484C42.3868 75.911 43.0015 75.8337 43.624 75.9102L43.1738 78.0039C42.8005 77.9597 42.4354 78.004 42.0781 78.1367C41.7208 78.2695 41.3913 78.4865 41.0781 78.7842C40.7689 79.0861 40.503 79.4568 40.2861 79.8955C39.985 80.5073 39.825 81.091 39.7969 81.6504C39.7728 82.2099 39.8809 82.709 40.1299 83.1396C40.3789 83.5703 40.7567 83.9126 41.2588 84.1621C41.7527 84.4075 42.2585 84.484 42.7725 84.3955C43.2866 84.307 43.7691 84.0571 44.2109 83.6465C44.6566 83.236 45.0417 82.6925 45.375 82.0205C45.628 81.5095 45.7852 81.0067 45.8535 80.5117C45.9218 80.0168 45.893 79.5657 45.7686 79.1553C45.644 78.7447 45.4358 78.4018 45.1426 78.124L46.4639 76.4092C46.9739 76.8559 47.3351 77.4158 47.5439 78.0879C47.7528 78.7601 47.801 79.5052 47.6846 80.3223C47.5681 81.1393 47.3034 81.9684 46.8857 82.8096C46.3476 83.9003 45.7208 84.7736 45.002 85.4297H45.0098C44.2908 86.0858 43.5235 86.4801 42.7041 86.625C41.8848 86.7658 41.0654 86.6339 40.2461 86.2314C39.4307 85.8289 38.832 85.2691 38.4424 84.5566C38.0528 83.8442 37.8806 83.031 37.9248 82.1094C37.969 81.1917 38.2421 80.2216 38.7441 79.1992C39.1137 78.4465 39.5599 77.8104 40.082 77.2871C40.604 76.764 41.1701 76.3859 41.7764 76.1484Z" fill="#F44E22"/>
<path d="M182.422 78.8887L181.085 79.6543L177.932 74.1113L176.285 75.0527L179.205 80.1855L178.013 80.8652L175.092 75.7334L173.293 76.7598L176.506 82.4072L175.16 83.1758L170.843 75.5928L178.165 71.4102L182.422 78.8887Z" fill="#F44E22"/>
<path d="M49.6992 65.1191L45.9727 70.291L47.5068 71.4023L50.957 66.6162L52.0693 67.4219L48.6191 72.207L50.2979 73.4229L54.0977 68.1543L55.3545 69.0635L50.2539 76.1396L43.4229 71.1943L48.4541 64.2178L49.6992 65.1191Z" fill="#F44E22"/>
<path d="M171.24 62.2373L168.754 64.25L172.232 68.5684L174.719 66.5557L176.16 68.3477L169.602 73.6523L168.159 71.8613L170.951 69.6035L167.473 65.2842L164.682 67.542L163.239 65.751L169.798 60.4463L171.24 62.2373Z" fill="#F44E22"/>
<path fill-rule="evenodd" clip-rule="evenodd" d="M56.8857 55.7764C57.3837 55.5711 57.8702 55.5112 58.332 55.5957C58.7978 55.6763 59.2193 55.9098 59.5967 56.2881C59.8938 56.5858 60.0864 56.9237 60.1748 57.2979C60.2632 57.6721 60.2597 58.0709 60.1553 58.4814C60.0508 58.892 59.8416 59.2987 59.5283 59.7012L59.5361 59.709C59.7088 59.6607 59.8903 59.6331 60.0791 59.625C60.2678 59.621 60.4605 59.6486 60.6572 59.709L61.9023 60.0713C62.0548 60.0994 62.1873 60.104 62.3037 60.0879C62.4201 60.0718 62.5288 60.0154 62.6211 59.9189C62.6974 59.8425 62.7578 59.725 62.7939 59.5801C62.83 59.4313 62.8338 59.2862 62.8057 59.1494L63.8945 59.4883C63.9105 59.8061 63.8457 60.1365 63.7012 60.4785C63.5566 60.8204 63.3601 61.114 63.1152 61.3594C62.8823 61.5928 62.633 61.7617 62.376 61.8623L62.3838 61.8584C62.1268 61.9589 61.8739 62.0034 61.625 61.9873C61.376 61.9712 61.1149 61.9389 60.8418 61.8906L59.5039 61.4521C59.2189 61.3798 58.9417 61.3759 58.6768 61.4443C58.4078 61.5128 58.1792 61.6417 57.9824 61.8389L56.0547 63.7666L58.2109 65.9316L56.5762 67.5664L50.6279 61.585L55.3799 56.835C55.8818 56.332 56.3838 55.9816 56.8857 55.7764ZM57.4561 57.6885C57.2351 57.6523 56.998 57.6845 56.749 57.7852C56.496 57.8858 56.2507 58.0554 56.0098 58.2969L53.2949 61.0098L55.0264 62.748L57.7334 60.043V60.0391C57.9783 59.7936 58.1552 59.5481 58.2676 59.3066C58.376 59.0652 58.4121 58.8317 58.376 58.6104C58.3399 58.3891 58.2314 58.188 58.0469 58.0029C57.8742 57.8299 57.6769 57.7247 57.4561 57.6885Z" fill="#F44E22"/>
<path d="M167.605 58.1719L166.477 59.4355L163.834 57.0605L159.335 62.084L157.616 60.5381L162.114 55.5146L159.464 53.1318L160.593 51.8682L167.605 58.1719Z" fill="#F44E22"/>
<path d="M68.6279 48.2217L63.4551 51.9404L64.5596 53.4824L69.3477 50.0371L70.1465 51.1562L65.3584 54.6016L66.5674 56.2881L71.8379 52.4961L72.7412 53.7598L65.6641 58.8516L60.752 51.9932V51.9893L67.7324 46.9697L68.6279 48.2217Z" fill="#F44E22"/>
<path d="M85.957 47.1025L83.9766 48.04L81.3857 42.5625L81.3662 42.5742L81.1211 49.3965L79.1846 50.3145L73.6943 46.2129L73.6738 46.2246L76.2646 51.7031L74.2852 52.6406L70.6738 45.0098L70.6777 45.0137L73.4697 43.6895L79.2451 48.0322H79.2568L79.5342 40.8066L82.3457 39.4707L85.957 47.1025Z" fill="#F44E22"/>
<path d="M154.51 47.4805L153.662 48.9502L148.353 45.875L147.344 47.6221L152.035 50.3389L151.309 51.6025L146.617 48.8857L144.982 51.7197L142.994 50.5684L147.212 43.2588L147.216 43.2549L154.51 47.4805Z" fill="#F44E22"/>
<path fill-rule="evenodd" clip-rule="evenodd" d="M135.419 38.6738C136.395 38.6336 137.439 38.8228 138.552 39.2334C139.668 39.648 140.584 40.1873 141.295 40.8555C142.006 41.5236 142.48 42.2687 142.717 43.0898C142.954 43.9107 142.917 44.7355 142.612 45.5645C142.307 46.3896 141.801 47.0342 141.086 47.4971C140.371 47.9599 139.527 48.2174 138.56 48.2617C137.588 48.3059 136.543 48.1206 135.427 47.7061C134.318 47.2955 133.402 46.7521 132.684 46.084H132.68C131.961 45.4119 131.479 44.6713 131.242 43.8584C131.005 43.0453 131.037 42.22 131.347 41.3828C131.652 40.5577 132.162 39.9134 132.877 39.4385C133.592 38.9677 134.439 38.71 135.419 38.6738ZM136.025 40.4854C135.419 40.5176 134.897 40.6788 134.451 40.9727C134.005 41.2625 133.692 41.6646 133.503 42.1758C133.318 42.6788 133.298 43.1901 133.442 43.7012C133.591 44.2163 133.881 44.683 134.322 45.1016C134.76 45.5202 135.323 45.8587 136.014 46.1123C136.696 46.3658 137.339 46.4746 137.941 46.4424C138.548 46.4102 139.07 46.245 139.516 45.9512C139.961 45.6573 140.275 45.2591 140.464 44.752C140.653 44.2408 140.672 43.729 140.523 43.2178C140.375 42.7068 140.082 42.2437 139.645 41.8252C139.207 41.4067 138.648 41.0689 137.966 40.8193C137.279 40.5658 136.632 40.4532 136.025 40.4854Z" fill="#F44E22"/>
<path fill-rule="evenodd" clip-rule="evenodd" d="M91.6855 36.5449C92.8423 36.2632 93.9032 36.1985 94.8672 36.3555C95.831 36.5125 96.6384 36.8628 97.293 37.4102C97.9435 37.9575 98.3771 38.6622 98.5859 39.5234C98.7947 40.3767 98.7308 41.1937 98.3975 41.9785C98.0641 42.7634 97.5057 43.4477 96.7266 44.0273C95.9474 44.607 94.9751 45.0415 93.8184 45.3232C92.6698 45.6049 91.6096 45.6656 90.6377 45.5127H90.6416C89.6696 45.3597 88.8577 45.0131 88.207 44.4697C87.5566 43.9304 87.1269 43.2257 86.9141 42.3564C86.7053 41.5034 86.7695 40.6824 87.0986 39.8896C87.428 39.0967 87.9911 38.4117 88.7783 37.832C89.5654 37.2527 90.5372 36.8226 91.6855 36.5449ZM94.0439 38.082C93.4496 37.9774 92.7946 38.0135 92.0879 38.1865C91.377 38.3596 90.778 38.6298 90.292 38.9961C89.8101 39.3623 89.4647 39.7893 89.2559 40.2803C89.0512 40.7712 89.0112 41.2784 89.1396 41.8096C89.2682 42.3326 89.5329 42.7633 89.9424 43.1094C90.3521 43.4555 90.8547 43.6767 91.4531 43.7773C92.0515 43.8779 92.7062 43.846 93.417 43.6689C94.1237 43.4959 94.7183 43.2265 95.2002 42.8604L95.2041 42.8643C95.686 42.498 96.0315 42.0671 96.2363 41.5762C96.4411 41.0812 96.481 40.5739 96.3525 40.0508C96.224 39.5195 95.9555 39.0842 95.5498 38.7461C95.1442 38.4081 94.6382 38.1867 94.0439 38.082Z" fill="#F44E22"/>
<path d="M117.162 34.7646L119.487 38.9229H119.499L122.616 35.3887L125.154 35.6787L120.439 40.6777L120.106 43.5996L117.812 43.3389L118.146 40.416L114.644 34.4746L117.162 34.7646Z" fill="#F44E22"/>
<path d="M111.98 42.832L109.181 42.9844L103.514 37.0195H103.502L103.839 43.2744L101.654 43.3916L101.2 34.959V34.9541L104.023 34.8018L109.663 40.7344H109.675L109.342 34.5156L111.526 34.3994L111.98 42.832Z" fill="#F44E22"/>
</svg>
