<svg width="220" height="286" viewBox="0 0 220 286" fill="none" xmlns="http://www.w3.org/2000/svg">
<path d="M212.859 22.1545C212.859 22.2752 212.867 22.396 212.871 22.5087C212.899 23.1326 213.007 23.7444 213.184 24.316C214.096 27.2302 216.795 29.3555 219.988 29.3997V36.8704C216.044 36.9348 212.859 40.155 212.859 44.1278C212.859 45.4158 213.2 46.6314 213.794 47.686C214.088 48.2093 214.441 48.6923 214.859 49.119C215.971 50.2984 217.49 51.1034 219.185 51.3167C219.45 51.3529 219.715 51.3731 219.988 51.3771V58.7753C219.755 58.7753 219.526 58.7874 219.301 58.8116C219.285 58.8196 219.269 58.8196 219.253 58.8236C219.02 58.8478 218.795 58.884 218.57 58.9323C218.261 59.0007 217.956 59.0853 217.662 59.1899C217.578 59.2262 217.494 59.2543 217.413 59.2865C217.389 59.2986 217.365 59.3067 217.341 59.3147C217.265 59.3509 217.188 59.3791 217.112 59.4153C217.036 59.4516 216.959 59.4838 216.887 59.524C216.823 59.5562 216.763 59.5844 216.702 59.6166C216.526 59.7132 216.353 59.8138 216.184 59.9265C216.1 59.9789 216.02 60.0312 215.943 60.0835C215.855 60.1439 215.767 60.2083 215.682 60.2807C215.594 60.3411 215.513 60.4095 215.429 60.486C215.349 60.5464 215.268 60.6189 215.188 60.6953C215.108 60.7678 215.032 60.8443 214.955 60.9208C214.803 61.0737 214.658 61.2347 214.521 61.3997C213.517 62.6073 212.903 64.1449 212.863 65.8274C212.859 65.92 212.859 66.0045 212.859 66.0971C212.859 66.1454 212.859 66.1937 212.863 66.238C212.863 66.3225 212.863 66.403 212.871 66.4835C212.875 66.5721 212.879 66.6606 212.891 66.7492C212.895 66.8337 212.903 66.9182 212.915 67.0028C212.927 67.0833 212.935 67.1638 212.951 67.2443C212.967 67.3529 212.991 67.4616 213.011 67.5663C213.031 67.6709 213.055 67.7796 213.083 67.8843C213.104 67.9607 213.124 68.0372 213.144 68.1097C213.172 68.1982 213.196 68.2828 213.224 68.3673C213.248 68.4438 213.276 68.5243 213.304 68.6007C213.333 68.6812 213.365 68.7577 213.397 68.8342C213.437 68.9389 213.481 69.0395 213.529 69.1401C213.561 69.2085 213.594 69.277 213.63 69.3454C213.63 69.3454 213.634 69.3535 213.634 69.3575C213.69 69.4702 213.75 69.5789 213.81 69.6875C213.818 69.6996 213.827 69.7117 213.831 69.7238C213.887 69.8163 213.943 69.9049 213.999 69.9934C214.076 70.1102 214.152 70.2269 214.236 70.3396C214.333 70.4724 214.433 70.6053 214.537 70.7301C214.606 70.8146 214.678 70.8951 214.75 70.9716C214.758 70.9836 214.77 70.9917 214.778 71.0038C214.827 71.0561 214.875 71.1084 214.923 71.1567C214.991 71.2251 215.06 71.2936 215.128 71.354C215.136 71.366 215.148 71.3741 215.156 71.3821C215.164 71.3902 215.168 71.3982 215.176 71.4023C215.196 71.4224 215.22 71.4425 215.24 71.4626C215.353 71.5633 215.469 71.6639 215.586 71.7565C215.694 71.845 215.803 71.9295 215.919 72.006C215.991 72.0584 216.064 72.1067 216.136 72.155C216.22 72.2113 216.305 72.2677 216.393 72.32C216.534 72.4045 216.678 72.485 216.823 72.5575C217.775 73.0405 218.851 73.3223 219.988 73.3424V80.7366C219.751 80.7406 219.518 80.7607 219.289 80.7849C219.173 80.7929 219.056 80.8131 218.944 80.8332C218.851 80.8413 218.759 80.8614 218.671 80.8775C218.538 80.9097 218.405 80.9379 218.273 80.9701C218.164 80.9982 218.056 81.0264 217.948 81.0667C217.839 81.0948 217.735 81.1351 217.63 81.1713C217.526 81.2116 217.421 81.2478 217.317 81.2921C217.213 81.3363 217.112 81.3806 217.012 81.4289C216.911 81.4732 216.811 81.5255 216.714 81.5778C216.614 81.6302 216.518 81.6825 216.421 81.7429C216.341 81.7912 216.269 81.8314 216.192 81.8838C216.068 81.9683 215.947 82.0488 215.827 82.1414C215.75 82.1937 215.678 82.246 215.606 82.3064C215.433 82.4433 215.268 82.5841 215.108 82.7452C213.722 84.0574 212.859 85.921 212.859 87.9899V88.0624C212.859 88.6179 212.919 89.1532 213.043 89.6684C213.067 89.7851 213.096 89.8938 213.128 90.0065C213.156 90.1192 213.192 90.2279 213.228 90.3366C213.248 90.4131 213.272 90.4815 213.304 90.554C213.304 90.562 213.312 90.5741 213.316 90.5821C213.316 90.5861 213.32 90.5942 213.324 90.5982C213.332 90.6224 213.341 90.6506 213.353 90.6747C213.393 90.7995 213.449 90.9202 213.501 91.041C213.634 91.3429 213.79 91.6367 213.971 91.9185C214.055 92.0594 214.152 92.1962 214.248 92.3331C214.309 92.4176 214.377 92.5102 214.449 92.5907C214.513 92.6833 214.582 92.7638 214.662 92.8443C214.726 92.9328 214.803 93.0133 214.883 93.0898C214.955 93.1663 215.032 93.2428 215.108 93.3152L215.361 93.5446C215.441 93.6171 215.526 93.6896 215.614 93.7499C215.678 93.8063 215.746 93.8586 215.819 93.9069C215.851 93.9391 215.887 93.9592 215.919 93.9834C215.995 94.0397 216.072 94.0921 216.148 94.1404C216.22 94.1927 216.297 94.2329 216.373 94.2772C216.453 94.3296 216.538 94.3778 216.622 94.4221C216.71 94.4744 216.803 94.5228 216.895 94.563C216.972 94.6033 217.052 94.6435 217.132 94.6757C217.602 94.889 218.096 95.0541 218.61 95.1587C218.819 95.203 219.032 95.2392 219.249 95.2634C219.265 95.2634 219.277 95.2674 219.289 95.2674C219.518 95.2916 219.751 95.3077 219.988 95.3117V102.71C217.433 102.75 215.192 104.115 213.935 106.151C213.304 107.182 212.915 108.381 212.867 109.665C212.863 109.766 212.859 109.859 212.859 109.959V110.032C212.859 110.116 212.859 110.193 212.867 110.269C212.867 110.426 212.879 110.587 212.899 110.748C212.927 111.078 212.983 111.404 213.059 111.73C213.204 112.334 213.429 112.91 213.71 113.445C214.915 115.703 217.269 117.241 219.988 117.285V124.675C216.662 124.736 213.879 127.026 213.083 130.125C212.971 130.588 212.895 131.075 212.871 131.566V131.607C212.863 131.715 212.859 131.82 212.859 131.933V132.005C212.859 132.11 212.863 132.214 212.867 132.319C212.955 134.348 213.871 136.147 215.281 137.415H215.285C216.538 138.538 218.18 139.23 219.988 139.254V146.649C216.461 146.701 213.537 149.285 212.967 152.674C212.911 152.98 212.879 153.286 212.867 153.6C212.863 153.701 212.859 153.797 212.859 153.898V153.97C212.859 154.075 212.863 154.176 212.867 154.28C212.867 154.353 212.871 154.425 212.879 154.498C212.887 154.622 212.899 154.747 212.915 154.868C212.931 155.005 212.951 155.134 212.975 155.266C213.019 155.52 213.079 155.77 213.152 156.011C213.228 156.293 213.328 156.567 213.445 156.828C213.517 157.005 213.602 157.178 213.69 157.343C213.734 157.428 213.778 157.512 213.827 157.593C214.011 157.923 214.228 158.237 214.469 158.531C214.529 158.603 214.59 158.676 214.65 158.748C214.714 158.821 214.774 158.889 214.843 158.957C214.907 159.026 214.971 159.094 215.04 159.159C215.341 159.457 215.666 159.722 216.016 159.96C216.096 160.02 216.184 160.072 216.269 160.129C216.321 160.161 216.373 160.193 216.425 160.221C216.494 160.262 216.558 160.302 216.63 160.338C216.795 160.431 216.967 160.515 217.14 160.592C217.225 160.628 217.309 160.664 217.397 160.7C217.401 160.704 217.405 160.704 217.409 160.704C217.494 160.741 217.586 160.773 217.674 160.805C217.763 160.837 217.855 160.869 217.948 160.898C218.04 160.926 218.132 160.954 218.229 160.978C218.321 161.002 218.413 161.026 218.51 161.047C218.606 161.067 218.703 161.087 218.799 161.103C218.887 161.119 218.972 161.135 219.06 161.147C219.08 161.151 219.096 161.151 219.112 161.155C219.197 161.167 219.277 161.175 219.361 161.183C219.381 161.187 219.402 161.187 219.422 161.191C219.61 161.208 219.799 161.216 219.988 161.22V168.614C219.896 168.614 219.803 168.618 219.707 168.634C218.168 168.71 216.767 169.27 215.634 170.168C215.015 170.655 214.477 171.238 214.043 171.902C213.357 172.945 212.935 174.177 212.871 175.505C212.863 175.634 212.859 175.767 212.859 175.907V175.94C212.859 176.06 212.863 176.185 212.871 176.306C212.879 176.523 212.903 176.741 212.935 176.958C212.955 177.091 212.975 177.224 213.003 177.352C213.015 177.421 213.027 177.489 213.043 177.554C213.112 177.856 213.196 178.149 213.304 178.435C213.324 178.496 213.349 178.56 213.373 178.62C213.421 178.741 213.473 178.858 213.525 178.975C213.582 179.099 213.646 179.224 213.71 179.345C213.782 179.482 213.859 179.619 213.943 179.747C213.951 179.768 213.963 179.784 213.971 179.796C214.051 179.929 214.14 180.057 214.232 180.182C214.236 180.186 214.24 180.19 214.24 180.194C214.333 180.323 214.429 180.452 214.533 180.573C214.606 180.661 214.682 180.746 214.758 180.83C214.999 181.096 215.264 181.345 215.546 181.579C215.61 181.627 215.678 181.679 215.746 181.732C215.807 181.78 215.871 181.824 215.935 181.869C216.04 181.945 216.148 182.014 216.257 182.082C216.49 182.231 216.739 182.368 216.992 182.485C217.08 182.529 217.168 182.569 217.261 182.609C217.273 182.617 217.289 182.621 217.305 182.625C217.385 182.662 217.47 182.694 217.554 182.726C217.815 182.827 218.08 182.907 218.353 182.976C218.409 182.992 218.47 183.004 218.526 183.016C218.606 183.036 218.687 183.052 218.771 183.064C218.867 183.084 218.964 183.1 219.064 183.112C219.132 183.125 219.205 183.137 219.273 183.141C219.51 183.169 219.747 183.185 219.988 183.189V190.587C218.148 190.615 216.473 191.332 215.212 192.499C214.762 192.906 214.369 193.373 214.035 193.884C213.706 194.379 213.445 194.922 213.252 195.494C213.047 196.081 212.923 196.693 212.879 197.337C212.875 197.337 212.875 197.349 212.879 197.353C212.871 197.442 212.867 197.527 212.863 197.615C212.863 197.716 212.859 197.816 212.859 197.917C212.859 198.01 212.863 198.11 212.867 198.207C212.899 199.052 213.083 199.861 213.381 200.614C213.445 200.775 213.513 200.932 213.59 201.085C213.594 201.097 213.602 201.109 213.606 201.121C213.662 201.23 213.718 201.334 213.774 201.439C213.806 201.495 213.839 201.552 213.871 201.604C213.947 201.737 214.031 201.866 214.116 201.99C214.2 202.115 214.288 202.236 214.377 202.353C214.505 202.518 214.642 202.675 214.782 202.828C214.867 202.92 214.959 203.013 215.052 203.105C215.301 203.347 215.57 203.572 215.855 203.778C215.943 203.838 216.032 203.898 216.12 203.959C216.562 204.261 217.036 204.506 217.53 204.691H217.546C218.305 204.989 219.132 205.146 219.988 205.162V212.56C218.687 212.581 217.47 212.943 216.421 213.567C214.517 214.69 213.172 216.67 212.907 218.977C212.887 219.158 212.871 219.351 212.867 219.54C212.863 219.604 212.863 219.669 212.859 219.737V219.882C212.859 219.939 212.859 220.007 212.863 220.063C212.863 220.14 212.867 220.22 212.875 220.297C212.879 220.373 212.883 220.45 212.895 220.522C212.899 220.615 212.907 220.707 212.923 220.8C212.955 221.078 213.003 221.351 213.071 221.617C213.112 221.794 213.164 221.967 213.224 222.14C213.248 222.229 213.28 222.313 213.312 222.398C213.59 223.159 213.995 223.855 214.497 224.467C214.562 224.555 214.634 224.636 214.71 224.716C214.778 224.797 214.855 224.877 214.931 224.958C215.084 225.115 215.24 225.264 215.405 225.397C215.489 225.469 215.57 225.542 215.658 225.602C215.73 225.666 215.803 225.719 215.879 225.771C215.903 225.791 215.927 225.807 215.955 225.823C216.032 225.88 216.112 225.932 216.192 225.98C216.277 226.045 216.361 226.097 216.449 226.145C216.469 226.153 216.49 226.17 216.51 226.178C216.59 226.226 216.674 226.274 216.759 226.31C216.879 226.375 217 226.435 217.124 226.496C217.14 226.504 217.16 226.512 217.176 226.516C217.237 226.544 217.293 226.568 217.353 226.588C217.454 226.632 217.554 226.677 217.658 226.709C217.843 226.777 218.036 226.834 218.229 226.886C218.321 226.91 218.413 226.934 218.506 226.954C218.763 227.015 219.028 227.059 219.297 227.087C219.526 227.111 219.755 227.128 219.988 227.132V234.526C219.879 234.526 219.759 234.534 219.651 234.546C219.265 234.57 218.891 234.622 218.526 234.703C218.237 234.767 217.956 234.848 217.682 234.948C217.429 235.033 217.188 235.138 216.951 235.254H216.947C214.533 236.434 212.863 238.905 212.863 241.779C212.863 242.729 213.051 243.639 213.385 244.48C213.939 245.857 214.895 247.024 216.124 247.829C216.566 248.123 217.04 248.368 217.534 248.561H217.55C217.859 248.678 218.181 248.779 218.51 248.851C218.988 248.96 219.486 249.02 219.992 249.024V256.495C219.651 256.503 219.313 256.531 218.984 256.584C217.602 256.797 216.349 257.401 215.345 258.282C214.895 258.677 214.501 259.115 214.168 259.607C213.349 260.774 212.863 262.207 212.863 263.744C212.863 267.681 215.987 270.873 219.884 270.998C219.892 271.118 219.9 271.239 219.904 271.356C219.932 271.795 219.96 272.233 219.988 272.664C219.988 272.676 219.988 272.684 219.992 272.696V278.597C219.992 278.597 219.976 278.597 219.964 278.597C219.884 278.585 219.799 278.577 219.715 278.573C219.655 278.565 219.59 278.561 219.53 278.557C219.41 278.553 219.285 278.549 219.161 278.549C219.052 278.549 218.936 278.549 218.831 278.549C218.646 278.557 218.462 278.573 218.285 278.597C215.582 278.927 213.337 280.743 212.401 283.214C212.18 283.794 212.031 284.414 211.967 285.062C211.947 285.247 211.931 285.444 211.931 285.641H204.472C204.396 281.934 201.548 278.915 197.925 278.573C197.812 278.561 197.692 278.553 197.571 278.549C197.463 278.549 197.347 278.549 197.238 278.549C197.049 278.549 196.869 278.549 196.688 278.565C196.607 278.577 196.519 278.577 196.443 278.589C193.932 278.863 191.812 280.421 190.743 282.598C190.47 283.154 190.269 283.745 190.145 284.369C190.068 284.788 190.016 285.206 190.008 285.645H182.549C182.469 282.027 179.758 279.06 176.259 278.609C176.147 278.597 176.035 278.581 175.918 278.577C175.761 278.557 175.609 278.553 175.452 278.553C175.408 278.553 175.356 278.553 175.316 278.553H175.279C175.179 278.553 175.083 278.553 174.982 278.553C174.777 278.565 174.577 278.585 174.372 278.609C174.303 278.625 174.235 278.629 174.167 278.641C172.118 278.968 170.363 280.147 169.279 281.805V281.817C168.933 282.329 168.664 282.876 168.463 283.464C168.234 284.148 168.102 284.88 168.086 285.645H160.619C160.547 281.817 157.51 278.726 153.718 278.553C153.614 278.553 153.502 278.553 153.389 278.553H153.357C151.268 278.561 149.389 279.463 148.067 280.892C147.665 281.33 147.316 281.829 147.027 282.357C146.489 283.339 146.183 284.458 146.159 285.649H138.7C138.628 282.168 136.114 279.294 132.808 278.682C132.595 278.633 132.378 278.605 132.153 278.581C132.041 278.569 131.92 278.561 131.8 278.557C131.692 278.557 131.579 278.557 131.471 278.557C131.362 278.557 131.25 278.557 131.141 278.557C131.049 278.561 130.969 278.565 130.884 278.577C130.788 278.577 130.691 278.589 130.595 278.605C130.414 278.621 130.238 278.658 130.061 278.69C129.964 278.71 129.868 278.734 129.776 278.754C129.707 278.766 129.643 278.786 129.575 278.806C128.727 279.036 127.94 279.414 127.249 279.913C126.771 280.256 126.337 280.658 125.956 281.105C124.912 282.337 124.273 283.918 124.237 285.649H116.778C116.702 281.982 113.922 278.992 110.359 278.601C110.263 278.585 110.171 278.581 110.078 278.569H110.062C109.986 278.561 109.91 278.557 109.837 278.557C109.737 278.557 109.645 278.557 109.548 278.557C109.432 278.557 109.311 278.557 109.203 278.557C109.082 278.561 108.974 278.569 108.857 278.581C108.632 278.605 108.403 278.633 108.191 278.678C107.749 278.758 107.327 278.883 106.917 279.044C106.371 279.261 105.865 279.535 105.391 279.865C103.575 281.149 102.367 283.258 102.314 285.649H94.8515C94.7752 281.942 91.9314 278.919 88.3125 278.581C88.196 278.569 88.0795 278.561 87.959 278.557C87.8466 278.557 87.7381 278.557 87.6216 278.557C87.5293 278.557 87.4369 278.557 87.3445 278.557C87.1919 278.557 87.0433 278.565 86.8987 278.585C86.8143 278.593 86.742 278.605 86.6657 278.609C86.2279 278.666 85.8021 278.766 85.3965 278.903C82.5367 279.829 80.4601 282.485 80.3878 285.649H72.933C72.8688 282.538 70.8524 279.917 68.0649 278.959C67.9766 278.923 67.8882 278.895 67.7958 278.867C67.7557 278.855 67.7115 278.839 67.6713 278.831C67.599 278.811 67.5267 278.786 67.4544 278.77C67.109 278.682 66.7595 278.617 66.398 278.585C66.3298 278.581 66.2735 278.577 66.2053 278.569C66.1048 278.561 65.9964 278.557 65.8879 278.557H65.8719C65.8156 278.557 65.7554 278.557 65.7032 278.557H65.667C65.5546 278.557 65.4461 278.557 65.3296 278.557C65.1007 278.569 64.8717 278.593 64.6428 278.629C64.6388 278.629 64.6267 278.629 64.6227 278.629C61.1845 279.137 58.5456 282.075 58.4693 285.645H51.0105C50.9623 283.395 49.902 281.403 48.2592 280.107C47.741 279.692 47.1546 279.354 46.5361 279.092C45.7127 278.754 44.817 278.557 43.865 278.553C43.8369 278.553 43.8088 278.553 43.7767 278.553C43.5277 278.553 43.2786 278.561 43.0336 278.585C42.9292 278.601 42.8288 278.609 42.7243 278.629C42.6239 278.637 42.5195 278.658 42.4191 278.678C42.3187 278.694 42.2183 278.714 42.1178 278.738C39.238 279.418 37.0208 281.825 36.6111 284.808C36.575 285.082 36.5509 285.363 36.5468 285.649H29.0881C29.064 284.571 28.8109 283.548 28.3651 282.638C28.0357 281.962 27.614 281.346 27.1039 280.811C27.0476 280.751 26.9914 280.69 26.9312 280.634C25.7061 279.426 24.0553 278.654 22.2237 278.557C22.0992 278.557 21.9827 278.557 21.8582 278.557C21.7578 278.557 21.6574 278.557 21.557 278.557C21.4365 278.561 21.32 278.569 21.2035 278.581C17.5565 278.907 14.6967 281.93 14.6203 285.649H7.16156C7.1455 284.74 6.96074 283.87 6.63539 283.073C6.30603 282.26 5.83609 281.519 5.24967 280.883C4.04871 279.575 2.3738 278.714 0.494043 278.569C0.429778 278.565 0.361492 278.561 0.301243 278.557C0.220912 278.557 0.144594 278.557 0.0602462 278.557H0V271.01C3.39802 270.913 6.21767 268.474 6.88442 265.25C6.98483 264.771 7.03705 264.272 7.03705 263.756C7.03705 263.511 7.02901 263.253 7.00089 263.012C6.63538 259.49 3.76353 256.724 0.200829 256.527C0.132547 256.523 0.0682818 256.511 0 256.511V249.032C3.90813 248.928 7.03705 245.732 7.03705 241.791C7.03705 240.861 6.87237 239.98 6.54703 239.167C6.34218 238.619 6.06102 238.108 5.73166 237.637C5.57903 237.416 5.41435 237.207 5.23762 237.005C5.22959 237.001 5.22156 236.989 5.21754 236.985C3.93625 235.536 2.07255 234.606 0 234.542V227.14C3.39802 227.043 6.21767 224.608 6.88442 221.38C6.98483 220.901 7.03705 220.401 7.03705 219.894C7.03705 219.826 7.03705 219.757 7.03303 219.693C7.03303 219.617 7.02902 219.544 7.025 219.468C7.025 219.355 7.01696 219.246 7.00089 219.142C6.98884 219.033 6.9768 218.92 6.96074 218.812C6.67154 216.686 5.46255 214.863 3.74345 213.74C3.05662 213.297 2.28945 212.959 1.46605 212.77C0.996109 212.653 0.502072 212.593 0 212.573V205.166C3.70328 205.062 6.70769 202.188 7.00893 198.537C7.02902 198.336 7.03705 198.134 7.03705 197.929V197.853C7.03705 197.683 7.03705 197.518 7.025 197.361C6.77999 193.654 3.74345 190.712 0 190.607V183.197C0.0682818 183.197 0.132547 183.193 0.200829 183.189C2.17699 183.084 3.94428 182.183 5.18942 180.798C6.20963 179.667 6.86835 178.21 7.00491 176.6C7.01696 176.479 7.02499 176.366 7.02901 176.246C7.03704 176.149 7.03705 176.052 7.03705 175.952V175.879C7.03705 174.676 6.74785 173.541 6.22972 172.546C5.92446 171.951 5.53083 171.403 5.08901 170.924C3.80772 169.56 2.00829 168.694 0 168.634V161.228C3.44622 161.131 6.29397 158.635 6.91253 155.339C6.97679 155.021 7.01295 154.695 7.025 154.365C7.03304 154.236 7.03705 154.111 7.03705 153.982C7.03705 153.902 7.03705 153.817 7.03303 153.737C7.03303 153.656 7.02902 153.58 7.025 153.499C6.81614 149.752 3.77157 146.769 0 146.665V139.262C3.9001 139.154 7.025 135.97 7.03705 132.041V132.017C7.03705 131.868 7.03304 131.719 7.025 131.566C7.00492 131.111 6.94467 130.661 6.83622 130.234C6.08512 127.114 3.32171 124.784 0 124.695V117.289C1.89181 117.237 3.61893 116.452 4.88014 115.2C5.40631 114.689 5.85618 114.089 6.20562 113.433C6.30202 113.248 6.39439 113.051 6.47472 112.853C6.5189 112.753 6.55907 112.652 6.59121 112.551C6.63137 112.451 6.66752 112.35 6.69564 112.246C6.72777 112.141 6.75991 112.04 6.78401 111.932C6.81614 111.827 6.84024 111.722 6.86032 111.614C6.93262 111.316 6.97679 111.01 7.00089 110.696C7.01294 110.607 7.02099 110.515 7.025 110.422C7.03304 110.297 7.03705 110.173 7.03705 110.044C7.03705 109.915 7.03303 109.802 7.02901 109.681C7.02499 109.557 7.01696 109.44 7.00491 109.327C6.6876 105.685 3.69123 102.823 0 102.726V95.3197C0.172713 95.3157 0.341417 95.3036 0.510113 95.2916C0.678809 95.2714 0.847506 95.2473 1.01219 95.2191C1.2331 95.1869 1.44597 95.1386 1.65885 95.0782C1.7673 95.0581 1.87173 95.0219 1.97616 94.9897C2.08059 94.9615 2.18502 94.9212 2.28543 94.885C2.38986 94.8448 2.49028 94.8085 2.5907 94.7643C2.69111 94.72 2.79152 94.6757 2.88792 94.6314C2.98833 94.5872 3.08473 94.5348 3.17711 94.4865C3.27351 94.4342 3.3659 94.3859 3.45828 94.3296C3.55066 94.2732 3.64304 94.2168 3.7314 94.1605C3.82379 94.1041 3.91215 94.0438 3.9965 93.9794C4.07683 93.923 4.16118 93.8626 4.2375 93.7982C4.24151 93.7982 4.24553 93.7942 4.24955 93.7902C4.32184 93.7338 4.39012 93.6775 4.45438 93.6211C4.46643 93.6131 4.47849 93.605 4.48652 93.5929C4.55882 93.5326 4.63112 93.4722 4.6994 93.4038C4.7717 93.3394 4.84802 93.2669 4.9163 93.1945C4.9886 93.126 5.05688 93.0536 5.12516 92.9771C5.19344 92.9006 5.26172 92.8282 5.32197 92.7477C6.24979 91.6609 6.8563 90.2883 6.99688 88.7869C7.00492 88.7104 7.01294 88.638 7.01696 88.5615C7.02499 88.485 7.02901 88.4085 7.03303 88.3321C7.03705 88.2757 7.03705 88.2194 7.03705 88.155V88.002C7.03705 87.9054 7.03303 87.8128 7.02901 87.7202C7.00089 86.9233 6.84425 86.1665 6.57514 85.4581C6.50284 85.2528 6.41448 85.0516 6.31808 84.8503C6.1775 84.5565 6.01684 84.2747 5.84011 84.005C5.83609 84.001 5.83208 84.001 5.83208 83.997C5.7156 83.8199 5.58706 83.6428 5.4505 83.4697C5.31394 83.3006 5.16934 83.1396 5.02072 82.9867C4.94842 82.9021 4.86809 82.8257 4.79177 82.7572C4.71546 82.6807 4.63514 82.6083 4.55079 82.5358C4.47046 82.4594 4.3861 82.3909 4.30175 82.3305C4.22142 82.2581 4.14109 82.1977 4.05675 82.1373C3.95633 82.0649 3.85592 81.9965 3.7555 81.9321C3.67115 81.8757 3.5868 81.8194 3.49844 81.7751C3.40605 81.7107 3.30966 81.6584 3.21326 81.6101C3.12088 81.5537 3.02448 81.5054 2.92407 81.4611C2.82365 81.4128 2.72324 81.3645 2.62282 81.3283C2.52643 81.28 2.42602 81.2478 2.3256 81.2075C2.02838 81.0989 1.72312 81.0023 1.40982 80.9298C1.30138 80.9057 1.1889 80.8815 1.07644 80.8694C0.984059 80.8493 0.891685 80.8332 0.795287 80.8251C0.654707 80.801 0.510107 80.7849 0.36551 80.7768C0.245013 80.7607 0.124514 80.7567 0 80.7527V73.3504C0.526172 73.3343 1.03628 73.2619 1.53032 73.1411C2.43405 72.9238 3.2695 72.5293 4.00855 72.002C4.22143 71.8531 4.42226 71.688 4.61506 71.515C4.71145 71.4304 4.80784 71.3419 4.89621 71.2493C4.96449 71.1889 5.02474 71.1245 5.08499 71.0561C5.09302 71.048 5.09703 71.04 5.10507 71.0319C5.1131 71.0279 5.11712 71.0199 5.12114 71.0158C5.1613 70.9756 5.19745 70.9353 5.2336 70.8911C5.2818 70.8428 5.32599 70.7904 5.36615 70.7381C5.4264 70.6697 5.48263 70.5972 5.53484 70.5248C5.63526 70.4 5.72764 70.2712 5.81601 70.1343C5.86421 70.0619 5.91241 69.9894 5.95659 69.9129C5.96061 69.9049 5.96462 69.9009 5.96864 69.8928C6.01684 69.8163 6.06503 69.7399 6.10921 69.6553C6.11323 69.6473 6.11726 69.6433 6.12127 69.6352C6.16545 69.5587 6.20562 69.4822 6.24579 69.4017C6.28997 69.3172 6.33013 69.2327 6.3703 69.1441C6.3703 69.1361 6.37029 69.1321 6.37833 69.124C6.40243 69.0757 6.42653 69.0234 6.44661 68.9711C6.47071 68.9187 6.49079 68.8664 6.51087 68.8141C6.55505 68.7094 6.59522 68.6007 6.63137 68.4921C6.64342 68.4639 6.65146 68.4357 6.65949 68.4075C6.69163 68.323 6.71973 68.2345 6.73982 68.1459C6.75187 68.1137 6.7599 68.0775 6.76794 68.0453C6.76794 68.0372 6.77196 68.0332 6.77196 68.0251C6.79606 67.9527 6.81614 67.8802 6.8322 67.8078C6.84827 67.7434 6.86433 67.679 6.87638 67.6106C6.88843 67.5542 6.90048 67.4938 6.91253 67.4335C6.92458 67.357 6.93664 67.2765 6.94869 67.196C6.96074 67.1316 6.96877 67.0672 6.97279 67.0028C6.97279 66.9867 6.98081 66.9746 6.98081 66.9585C6.99286 66.8699 7.0009 66.7814 7.00893 66.6888C7.02098 66.5841 7.02499 66.4714 7.02901 66.3628C7.03704 66.2823 7.03705 66.1937 7.03705 66.1092C7.03705 65.9844 7.03303 65.8596 7.02901 65.7389C7.02499 65.6262 7.01696 65.5054 7.00491 65.3887C6.94466 64.648 6.77195 63.9436 6.50284 63.2795C5.44246 60.6994 2.94013 58.8679 0 58.7874V51.3852C0.823398 51.365 1.60663 51.2 2.33363 50.9223C2.40995 50.8981 2.48626 50.8699 2.55856 50.8377C2.72324 50.7693 2.88391 50.6968 3.04055 50.6204C4.55882 49.8596 5.77183 48.5796 6.44661 47.0138C6.68359 46.4865 6.84827 45.915 6.93664 45.3273C7.00894 44.9449 7.03705 44.5464 7.03705 44.1399C7.03705 40.1952 3.90813 36.9992 0 36.8865V29.4078C0.819382 29.3877 1.59057 29.2267 2.3256 28.957C5.07696 27.9426 7.03705 25.282 7.03705 22.1665C7.03705 21.1965 6.84827 20.2586 6.50284 19.4174C5.44246 16.8332 2.94013 15.0018 0 14.9213V7.46666C0.108448 7.46666 0.208869 7.46666 0.321334 7.45459C0.433798 7.44654 0.554293 7.44251 0.670774 7.42641C4.32184 7.05207 7.17361 3.96478 7.17361 0.205281C7.17361 0.140878 7.16156 0.0724506 7.16156 0.00402295H14.6203C14.6203 0.0724506 14.6163 0.140878 14.6163 0.205281C14.6163 4.10968 17.689 7.2976 21.5489 7.45459C21.6494 7.46264 21.7578 7.46666 21.8582 7.46666H21.9225C25.8909 7.42641 29.0921 4.19019 29.0921 0.205281C29.0921 0.140878 29.08 0.0724506 29.08 0.00402295H36.5468C36.5468 0.0724506 36.5348 0.140878 36.5348 0.205281C36.5348 0.575595 36.5669 0.929808 36.6191 1.28C37.1132 4.65308 39.9328 7.26943 43.3871 7.45459C43.5116 7.46264 43.6482 7.46666 43.7767 7.46666H43.8048C43.9253 7.46666 44.0378 7.46666 44.1583 7.45056C44.2386 7.44654 44.3149 7.44251 44.3912 7.43849C44.4756 7.43044 44.5519 7.42239 44.6322 7.41434C44.7527 7.39421 44.8692 7.37811 44.9937 7.36201C45.1142 7.34188 45.2347 7.31773 45.3472 7.28955C46.046 7.1366 46.7048 6.88302 47.3073 6.5449C47.9419 6.18666 48.5162 5.73987 49.0103 5.2166C50.2514 3.9205 51.0186 2.15346 51.0186 0.205281C51.0186 0.140878 51.0105 0.0724506 51.0105 0.00402295H58.4733C58.4733 0.0724506 58.4613 0.140878 58.4613 0.205281C58.4613 3.96478 61.309 7.05207 64.9641 7.42641C65.0525 7.43849 65.1409 7.44251 65.2292 7.44654C65.2774 7.45057 65.3256 7.45459 65.3698 7.45459C65.4782 7.46264 65.5907 7.46666 65.7032 7.46666C65.8156 7.46666 65.9321 7.46666 66.0526 7.45056C66.1731 7.45056 66.2896 7.44251 66.4061 7.42238C66.4181 7.42641 66.4302 7.42641 66.4422 7.42238C66.8158 7.39018 67.1773 7.32176 67.5307 7.22918C68.2417 7.04402 68.9164 6.74616 69.531 6.35974C71.5794 5.07974 72.9451 2.80151 72.9451 0.205281C72.9451 0.140878 72.933 0.0724506 72.929 0.00402295H80.3878C80.3878 0.0724506 80.3838 0.140878 80.3838 0.205281C80.3838 3.08729 82.0587 5.57484 84.4847 6.75018C84.6494 6.82666 84.8141 6.91119 84.9868 6.97157C85.0751 7.00779 85.1595 7.04 85.2519 7.06817C85.3764 7.11648 85.5049 7.1527 85.6334 7.18892C85.8062 7.24125 85.9789 7.28553 86.1556 7.31773C86.2801 7.34188 86.4086 7.36603 86.5372 7.39018C86.6376 7.39823 86.738 7.41433 86.8384 7.42238C86.8545 7.42238 86.8665 7.42641 86.8826 7.42641C87.0031 7.44251 87.1196 7.44654 87.2441 7.45459H87.2561C87.3646 7.46264 87.477 7.46666 87.5895 7.46666H87.6216C87.7421 7.46666 87.8626 7.46666 87.9711 7.45459C91.8069 7.27345 94.8635 4.09761 94.8635 0.205281C94.8635 0.140878 94.8515 0.0724506 94.8515 0.00402295H102.318C102.314 0.0724506 102.306 0.140878 102.306 0.205281C102.306 2.69283 103.555 4.88654 105.463 6.19472C105.933 6.52478 106.447 6.79044 106.998 6.99572C107.343 7.12855 107.696 7.22918 108.062 7.30968C108.074 7.30968 108.09 7.31773 108.106 7.31773C108.271 7.34993 108.444 7.38616 108.616 7.40226C108.809 7.42641 109.01 7.44654 109.211 7.45459C109.323 7.46264 109.436 7.46666 109.548 7.46666C109.661 7.46666 109.773 7.46666 109.886 7.45459C113.725 7.27748 116.79 4.09761 116.79 0.205281C116.79 0.140878 116.778 0.0724506 116.774 0.00402295H124.237C124.237 0.0724506 124.229 0.140878 124.229 0.205281C124.229 1.79522 124.743 3.26842 125.602 4.46792C125.952 4.94691 126.353 5.3776 126.803 5.75597C127.486 6.33559 128.285 6.79043 129.153 7.0883C129.161 7.0883 129.165 7.0883 129.177 7.09232C129.33 7.14465 129.49 7.19295 129.651 7.23723C129.655 7.23723 129.663 7.23723 129.667 7.23723C129.715 7.24528 129.768 7.26138 129.816 7.2654C129.944 7.2976 130.081 7.32578 130.217 7.34993C130.229 7.35798 130.242 7.35798 130.254 7.36201C130.438 7.38616 130.623 7.41433 130.812 7.43446C130.92 7.43446 131.025 7.44654 131.141 7.45056C131.25 7.45861 131.358 7.46264 131.471 7.46264C131.583 7.46264 131.7 7.46264 131.812 7.45056C135.644 7.27346 138.704 4.09358 138.704 0.201258C138.704 0.136855 138.704 0.0684277 138.704 0H146.163C146.163 0.0684277 146.159 0.136855 146.159 0.201258C146.159 1.00629 146.288 1.78314 146.537 2.50767C146.734 3.10742 147.003 3.66692 147.344 4.18616C148.3 5.65132 149.774 6.74214 151.501 7.21308C151.517 7.21308 151.533 7.2171 151.55 7.22113H151.562C151.758 7.2815 151.963 7.31773 152.172 7.34993C152.276 7.37006 152.377 7.39019 152.485 7.40629C152.578 7.41434 152.666 7.41836 152.762 7.42641C152.863 7.43849 152.959 7.44251 153.06 7.45056C153.16 7.45861 153.261 7.46264 153.361 7.46264H153.393C157.398 7.46264 160.639 4.20629 160.639 0.201258C160.639 0.136855 160.623 0.0684277 160.623 0H168.094C168.09 0.0684277 168.078 0.136855 168.078 0.201258C168.078 0.330063 168.082 0.462887 168.09 0.591692C168.126 1.27999 168.254 1.9522 168.475 2.58012C169.251 4.81811 171.086 6.55698 173.376 7.19295C173.42 7.20905 173.46 7.21308 173.5 7.22516C173.584 7.24931 173.677 7.26943 173.769 7.28955C173.882 7.3137 173.99 7.34188 174.107 7.36201C174.215 7.38213 174.328 7.39421 174.44 7.41031C174.532 7.41836 174.633 7.42641 174.729 7.43849C174.818 7.44251 174.902 7.44654 174.982 7.45056C175.099 7.45861 175.207 7.46264 175.32 7.46264C175.412 7.46264 175.512 7.46264 175.613 7.45056C179.473 7.29761 182.561 4.11371 182.561 0.201258C182.561 0.136855 182.553 0.0684277 182.549 0H190.012C190.012 0.0684277 190.004 0.136855 190.004 0.201258C190.004 0.495094 190.02 0.772828 190.048 1.05459C190.462 4.54843 193.342 7.28553 196.897 7.45056C197.009 7.45861 197.126 7.46264 197.242 7.46264C197.451 7.46264 197.668 7.45056 197.877 7.43446C197.889 7.43446 197.905 7.42641 197.917 7.42641C198.27 7.39421 198.62 7.33786 198.957 7.24931C199.062 7.22515 199.174 7.19295 199.278 7.16075C201.291 6.58113 202.934 5.1361 203.801 3.26843C204.239 2.33861 204.48 1.30013 204.48 0.201258C204.48 0.136855 204.48 0.0684277 204.48 0H211.939C211.939 0.0684277 211.927 0.136855 211.927 0.201258C211.927 3.43748 214.035 6.16654 216.947 7.11245C216.984 7.1205 217.016 7.1366 217.048 7.14062C217.172 7.1849 217.301 7.21308 217.429 7.24528C217.61 7.28956 217.791 7.33383 217.98 7.36201C218.092 7.38616 218.213 7.39824 218.333 7.41434C218.606 7.44251 218.887 7.46264 219.169 7.46264C219.269 7.46264 219.369 7.46264 219.474 7.45056C219.494 7.45056 219.51 7.44654 219.53 7.44654C219.61 7.44251 219.695 7.43446 219.775 7.42641H219.783C219.783 7.42641 219.823 7.42641 219.839 7.42238C219.855 7.42238 219.871 7.41836 219.896 7.41836C219.912 7.41836 219.924 7.41434 219.948 7.41434C219.968 7.41434 219.984 7.41031 220 7.40629V14.9132C219.976 14.9132 219.952 14.9132 219.928 14.9172C216.016 15.0098 212.871 18.2179 212.871 22.1625L212.859 22.1545Z" fill="#FAFAF9"/>
<path fill-rule="evenodd" clip-rule="evenodd" d="M107.706 208.556C108.402 210.747 109.101 211.797 110.212 211.787C111.192 211.777 112.493 210.941 114.393 209.332C113.178 212.215 113.245 213.422 115.156 213.406C116.026 213.399 117.277 213.139 118.963 212.669C114.862 216.054 115.152 217.229 120.639 218.389C115.176 219.52 114.904 220.688 119.049 224.053C117.35 223.586 116.086 223.327 115.207 223.321C113.275 223.308 113.199 224.513 114.417 227.393C112.512 225.788 111.206 224.954 110.222 224.946C109.107 224.938 108.404 225.991 107.706 228.182C107.038 225.94 106.353 224.841 105.248 224.798C104.273 224.76 102.971 225.542 101.062 227.083C102.319 224.297 102.26 223.144 100.34 223.172C99.467 223.185 98.2094 223.442 96.5156 223.899C100.639 220.632 100.362 219.484 94.8877 218.369C100.362 217.25 100.631 216.091 96.5146 212.81L97.4805 213.063C98.6976 213.368 99.6422 213.537 100.341 213.551C102.262 213.587 102.321 212.438 101.062 209.654L101.062 209.655C102.971 211.198 104.273 211.979 105.248 211.94C106.353 211.896 107.038 210.799 107.706 208.556ZM101.934 216.429L101.825 218.301L102.592 218.43C102.668 218.353 102.781 218.288 102.922 218.24C103.062 218.192 103.219 218.168 103.384 218.168C103.564 218.168 103.725 218.192 103.857 218.244C103.994 218.296 104.095 218.373 104.167 218.47C104.239 218.566 104.275 218.683 104.275 218.815C104.275 218.94 104.235 219.049 104.158 219.141C104.082 219.234 103.974 219.307 103.829 219.355C103.689 219.404 103.524 219.428 103.327 219.428C103.13 219.428 102.957 219.399 102.805 219.339C102.656 219.282 102.532 219.198 102.439 219.09C102.347 218.981 102.29 218.852 102.274 218.707L101.335 218.9C101.371 219.142 101.48 219.351 101.652 219.528C101.829 219.705 102.058 219.842 102.343 219.938L102.339 219.942C102.624 220.035 102.95 220.084 103.312 220.084C103.705 220.084 104.046 220.035 104.335 219.931C104.62 219.826 104.845 219.677 105.002 219.488C105.159 219.299 105.239 219.061 105.239 218.811C105.239 218.562 105.171 218.345 105.038 218.164C104.906 217.983 104.717 217.842 104.472 217.741C104.227 217.64 103.942 217.592 103.612 217.592C103.444 217.592 103.275 217.612 103.11 217.652C102.946 217.692 102.805 217.749 102.692 217.821L102.736 217.053H104.749V216.429H101.934ZM110.251 216.429L110.143 218.301L110.91 218.43C110.986 218.353 111.099 218.288 111.239 218.24C111.38 218.192 111.537 218.168 111.701 218.168C111.882 218.168 112.042 218.192 112.175 218.244C112.311 218.296 112.412 218.373 112.484 218.47C112.557 218.566 112.593 218.683 112.593 218.815C112.593 218.94 112.553 219.049 112.477 219.141C112.4 219.234 112.291 219.307 112.146 219.355C112.006 219.404 111.841 219.428 111.645 219.428C111.448 219.428 111.276 219.399 111.123 219.339C110.974 219.282 110.849 219.198 110.757 219.09C110.664 218.981 110.609 218.852 110.593 218.707L109.652 218.9C109.688 219.142 109.797 219.351 109.97 219.528C110.146 219.705 110.376 219.842 110.661 219.938L110.656 219.942C110.941 220.035 111.267 220.084 111.629 220.084C112.022 220.084 112.364 220.035 112.653 219.931C112.938 219.826 113.163 219.677 113.319 219.488C113.476 219.299 113.557 219.061 113.557 218.811C113.557 218.562 113.488 218.345 113.355 218.164C113.223 217.983 113.034 217.842 112.789 217.741C112.544 217.641 112.259 217.592 111.93 217.592C111.761 217.592 111.592 217.612 111.428 217.652C111.263 217.692 111.122 217.749 111.01 217.821L111.055 217.053H113.066V216.429H110.251ZM105.681 216.425V217.117H108.18C107.718 217.532 107.332 217.979 107.019 218.458H107.015C106.705 218.937 106.48 219.444 106.344 219.979H107.496C107.621 219.432 107.837 218.908 108.139 218.409C108.44 217.91 108.83 217.452 109.3 217.033V216.425H105.681Z" fill="#F44E22"/>
<path d="M150.171 195.494C150.621 195.494 151.035 195.554 151.416 195.671C151.797 195.787 152.115 195.957 152.372 196.17C152.629 196.383 152.794 196.629 152.866 196.898L151.709 197.144C151.657 197 151.557 196.866 151.404 196.75C151.252 196.633 151.066 196.545 150.85 196.48C150.633 196.416 150.404 196.384 150.167 196.384C149.794 196.384 149.464 196.452 149.175 196.585C148.886 196.718 148.661 196.902 148.496 197.136C148.331 197.369 148.251 197.639 148.251 197.945C148.251 198.251 148.34 198.513 148.517 198.742C148.693 198.971 148.942 199.152 149.255 199.281C149.568 199.414 149.934 199.478 150.344 199.478C150.681 199.478 150.994 199.427 151.275 199.326C151.556 199.225 151.785 199.084 151.958 198.915C152.131 198.742 152.223 198.544 152.235 198.323H149.287V197.615H153.44V200.216H152.444L152.368 199.398H152.36C152.208 199.591 152.01 199.76 151.773 199.905C151.537 200.05 151.268 200.159 150.967 200.235C150.666 200.312 150.348 200.348 150.015 200.349C149.432 200.349 148.91 200.248 148.452 200.051V200.046C147.994 199.849 147.637 199.571 147.384 199.209C147.131 198.847 147.002 198.44 147.002 197.977C147.002 197.491 147.134 197.064 147.403 196.685C147.672 196.311 148.047 196.017 148.524 195.807C149.006 195.598 149.553 195.494 150.171 195.494Z" fill="#F44E22"/>
<path fill-rule="evenodd" clip-rule="evenodd" d="M84.3682 195.627C84.7537 195.627 85.0835 195.683 85.3525 195.796C85.6215 195.908 85.8309 196.074 85.9795 196.283C86.1278 196.492 86.2001 196.746 86.2002 197.035C86.2002 197.264 86.1435 197.466 86.0352 197.647C85.9267 197.828 85.7738 197.977 85.5771 198.094C85.3805 198.21 85.1439 198.287 84.8711 198.323V198.331C84.9553 198.379 85.0351 198.436 85.1113 198.509C85.1876 198.581 85.2486 198.666 85.3008 198.763L85.6416 199.382C85.6896 199.45 85.738 199.503 85.79 199.543C85.8423 199.583 85.9033 199.599 85.9756 199.599C86.0357 199.599 86.0998 199.579 86.1719 199.535C86.2441 199.491 86.3007 199.438 86.3408 199.374L86.6299 199.922C86.5135 200.05 86.3644 200.151 86.1758 200.227C85.9871 200.304 85.802 200.34 85.6133 200.34C85.4247 200.34 85.2761 200.308 85.1396 200.252C85.0032 200.191 84.8912 200.11 84.7988 200.01C84.7105 199.909 84.6215 199.796 84.5332 199.672L84.1875 198.987C84.1073 198.851 84.0031 198.742 83.875 198.666C83.7466 198.59 83.6055 198.549 83.457 198.549H81.9785V200.211H80.7256V195.627H84.3682ZM81.9746 197.767H84.0469C84.2356 197.767 84.3966 197.744 84.5332 197.691C84.6697 197.639 84.7705 197.566 84.8428 197.466C84.9148 197.365 84.9473 197.248 84.9473 197.103C84.9471 196.971 84.9109 196.854 84.8428 196.758C84.7745 196.661 84.6697 196.581 84.5332 196.524C84.3968 196.468 84.2402 196.435 84.0557 196.435H81.9746V197.767Z" fill="#F44E22"/>
<path fill-rule="evenodd" clip-rule="evenodd" d="M141.838 195.627C142.223 195.627 142.553 195.683 142.822 195.796C143.091 195.908 143.301 196.074 143.449 196.283C143.598 196.492 143.67 196.746 143.67 197.035C143.67 197.264 143.613 197.466 143.505 197.647C143.396 197.828 143.244 197.977 143.047 198.094C142.85 198.21 142.614 198.287 142.341 198.323V198.332C142.425 198.38 142.505 198.437 142.581 198.509C142.657 198.581 142.718 198.666 142.771 198.763L143.111 199.382C143.159 199.45 143.208 199.503 143.26 199.543C143.312 199.583 143.373 199.599 143.445 199.599C143.505 199.599 143.57 199.579 143.642 199.535C143.714 199.491 143.77 199.438 143.811 199.374L144.1 199.922C143.983 200.05 143.834 200.151 143.646 200.227C143.457 200.304 143.272 200.34 143.083 200.34C142.894 200.34 142.746 200.308 142.609 200.252C142.473 200.191 142.361 200.11 142.269 200.01C142.18 199.909 142.091 199.796 142.003 199.672L141.657 198.987C141.577 198.851 141.473 198.742 141.345 198.666C141.216 198.59 141.075 198.549 140.927 198.549H139.448V200.211H138.195V195.627H141.838ZM139.444 197.768H141.517C141.705 197.768 141.866 197.744 142.003 197.691C142.139 197.639 142.24 197.566 142.312 197.466C142.385 197.365 142.417 197.248 142.417 197.103C142.417 196.971 142.381 196.854 142.312 196.758C142.244 196.661 142.139 196.581 142.003 196.524C141.866 196.468 141.71 196.435 141.525 196.435H139.444V197.768Z" fill="#F44E22"/>
<path d="M119.104 196.464H115.646V197.494H118.847V198.243H115.646V199.37H119.168V200.216H114.437V195.627H119.104V196.464Z" fill="#F44E22"/>
<path d="M137.175 196.464H133.717V197.494H136.918V198.243H133.717V199.37H137.239V200.216H132.508V195.627H137.175V196.464Z" fill="#F44E22"/>
<path d="M64.7959 197.731H64.8037L66.2705 195.631H67.6602L65.4229 198.617V200.215H64.1699V198.617L61.9121 195.631H63.2861L64.7959 197.731Z" fill="#F44E22"/>
<path d="M79.7051 196.464H76.2471V197.494H79.4482V198.243H76.2471V199.37H79.7695V200.215H75.0381V195.627H79.7051V196.464Z" fill="#F44E22"/>
<path d="M99.8037 196.464H96.3457V197.494H99.5469V198.243H96.3457V199.37H99.8682V200.215H95.1367V195.627H99.8037V196.464Z" fill="#F44E22"/>
<path d="M71.1777 199.104H71.1855L72.8887 195.627H74.1982L71.8721 200.211H70.4824L68.1611 195.627H69.4824L71.1777 199.104Z" fill="#F44E22"/>
<path d="M92.0918 196.549H90.1641V200.211H88.9102V196.549H86.9746V195.627H92.0918V196.549Z" fill="#F44E22"/>
<path d="M105.664 196.549H103.736V200.211H102.482V196.549H100.547V195.627H105.664V196.549Z" fill="#F44E22"/>
<path d="M113.55 196.549H111.622V200.211H110.368V196.549H108.433V195.627H113.55V196.549Z" fill="#F44E22"/>
<path d="M121.369 199.266H124.205V200.211H120.124V195.627H121.369V199.266Z" fill="#F44E22"/>
<path d="M126.362 199.266H129.198V200.211H125.117V195.627H126.362V199.266Z" fill="#F44E22"/>
<path d="M131.351 200.211H130.109V195.627H131.351V200.211Z" fill="#F44E22"/>
<path d="M155.74 200.211H154.499V195.627H155.74V200.211Z" fill="#F44E22"/>
<path d="M93.6318 135.249C94.5314 135.249 95.3629 135.366 96.126 135.603C96.8889 135.841 97.5279 136.171 98.042 136.601C98.5559 137.032 98.8856 137.515 99.0303 138.058L96.7168 138.55C96.6123 138.26 96.4116 137.994 96.1064 137.765C95.8012 137.531 95.4309 137.354 94.9932 137.225C94.5555 137.097 94.1016 137.032 93.6318 137.032C92.8849 137.032 92.2258 137.165 91.6475 137.431C91.0693 137.696 90.6153 138.063 90.29 138.534C89.9649 139.001 89.7999 139.541 89.7998 140.152C89.7999 140.764 89.9767 141.283 90.334 141.742C90.6874 142.201 91.182 142.562 91.8125 142.824C92.443 143.086 93.17 143.219 93.9893 143.219C94.664 143.219 95.2872 143.114 95.8535 142.909C96.4196 142.704 96.8735 142.43 97.2148 142.084C97.5561 141.742 97.7414 141.347 97.7695 140.9H91.8691V139.483H100.171V144.688H98.1787L98.0264 143.054H98.0137C97.7044 143.44 97.3148 143.779 96.8369 144.064C96.3631 144.35 95.825 144.572 95.2227 144.721C94.6242 144.87 93.9891 144.946 93.3184 144.946C92.1537 144.946 91.1131 144.749 90.1934 144.354L90.2021 144.342C89.2864 143.947 88.5706 143.388 88.0605 142.668C87.5506 141.947 87.2979 141.126 87.2979 140.208C87.298 139.238 87.5675 138.376 88.1016 137.624C88.6357 136.871 89.383 136.287 90.3428 135.873C91.3026 135.458 92.399 135.249 93.6318 135.249Z" fill="#F44E22"/>
<path fill-rule="evenodd" clip-rule="evenodd" d="M70.0547 135.507C70.8256 135.507 71.4803 135.619 72.0225 135.849C72.5606 136.078 72.9792 136.401 73.2764 136.823C73.5733 137.241 73.7176 137.745 73.7178 138.328C73.7178 138.783 73.6093 139.19 73.3887 139.552C73.1719 139.914 72.8621 140.212 72.4688 140.445C72.0751 140.679 71.6049 140.832 71.0547 140.904V140.917C71.2273 141.009 71.3886 141.13 71.5371 141.27C71.6856 141.411 71.8137 141.581 71.9141 141.778L72.5967 143.014C72.689 143.15 72.7902 143.259 72.8945 143.336C72.9989 143.412 73.1192 143.452 73.2676 143.452C73.3879 143.452 73.5167 143.408 73.6611 143.324C73.8016 143.24 73.9146 143.131 74.0029 143.002L74.5811 144.097C74.3482 144.354 74.0471 144.559 73.6738 144.708C73.3003 144.857 72.9264 144.933 72.5488 144.933C72.1713 144.933 71.8698 144.874 71.5967 144.753H71.6006C71.3276 144.632 71.0986 144.471 70.918 144.269C70.7374 144.068 70.5642 143.843 70.3916 143.594L69.6973 142.228C69.5326 141.955 69.3233 141.738 69.0664 141.585C68.8095 141.432 68.5325 141.352 68.2314 141.351H65.2754V144.676H62.7686V135.507H70.0547ZM65.2666 139.781H69.416C69.7934 139.781 70.1146 139.729 70.3877 139.629C70.6567 139.524 70.8623 139.375 71.0068 139.178C71.1472 138.98 71.2197 138.738 71.2197 138.457C71.2196 138.192 71.1473 137.958 71.0068 137.761C70.8663 137.564 70.6607 137.407 70.3877 137.29C70.1187 137.173 69.797 137.117 69.4316 137.117H65.2666V139.781Z" fill="#F44E22"/>
<path d="M158.026 137.347H154.17V144.676H151.664V137.347H147.796V135.503H158.026V137.347Z" fill="#F44E22"/>
<path d="M85.583 137.178H78.667V139.238H85.0693V140.731H78.667V142.985H85.7119V144.672H76.2529V135.503H85.583V137.178Z" fill="#F44E22"/>
<path d="M104.778 144.672H102.296V135.503H104.778V144.672Z" fill="#F44E22"/>
<path d="M114.093 142.458H114.104L117.728 135.503H121.109V144.672H118.732V138.091H118.708L115.302 144.672H112.977L109.494 138.091H109.47V144.672H107.092V135.503H110.441L114.093 142.458Z" fill="#F44E22"/>
<path d="M132.752 137.178H125.836V139.238H132.238V140.731H125.836V142.985H132.881V144.672H123.422V135.503H132.752V137.178Z" fill="#F44E22"/>
<path d="M143.644 142.266H143.655V135.503H146.033V144.672H142.988L137.192 137.87H137.181V144.672H134.803V135.503H137.871L143.644 142.266Z" fill="#F44E22"/>
<path d="M65.2744 122.216C66.174 122.216 67.0055 122.333 67.7686 122.57C68.5316 122.808 69.1705 123.138 69.6846 123.568C70.1986 123.999 70.5282 124.482 70.6729 125.025L68.3594 125.516C68.2549 125.227 68.0541 124.961 67.749 124.731C67.4438 124.498 67.0735 124.321 66.6357 124.192C66.1981 124.064 65.7442 123.999 65.2744 123.999C64.5275 123.999 63.8683 124.132 63.29 124.397C62.712 124.663 62.2579 125.029 61.9326 125.5C61.6074 125.967 61.4425 126.506 61.4424 127.118C61.4424 127.73 61.6194 128.249 61.9766 128.708C62.33 129.167 62.8246 129.529 63.4551 129.791C64.0856 130.053 64.8125 130.185 65.6318 130.185C66.3066 130.185 66.9298 130.081 67.4961 129.876C68.0622 129.671 68.5161 129.397 68.8574 129.051C69.1987 128.709 69.384 128.314 69.4121 127.867H63.5117V126.45H71.8135V131.655H69.8213L69.6689 130.02H69.6562C69.347 130.407 68.9573 130.745 68.4795 131.031C68.0056 131.317 67.4675 131.538 66.8652 131.687C66.2668 131.836 65.6317 131.912 64.9609 131.912C63.7963 131.912 62.7556 131.715 61.8359 131.32L61.8447 131.308C60.929 130.914 60.2132 130.354 59.7031 129.634C59.1934 128.913 58.9404 128.092 58.9404 127.175C58.9405 126.205 59.21 125.343 59.7441 124.591C60.2783 123.838 61.0255 123.254 61.9854 122.84C62.9452 122.425 64.0416 122.216 65.2744 122.216Z" fill="#F44E22"/>
<path fill-rule="evenodd" clip-rule="evenodd" d="M98.834 122.474C99.6049 122.474 100.26 122.586 100.802 122.815C101.34 123.045 101.758 123.367 102.056 123.79C102.353 124.208 102.497 124.712 102.497 125.295C102.497 125.749 102.389 126.156 102.168 126.518C101.951 126.881 101.641 127.179 101.248 127.412C100.854 127.645 100.384 127.799 99.834 127.871V127.884C100.007 127.976 100.168 128.096 100.316 128.237C100.465 128.378 100.593 128.548 100.693 128.745L101.376 129.98C101.468 130.117 101.569 130.226 101.674 130.303C101.778 130.379 101.899 130.419 102.047 130.419C102.167 130.419 102.296 130.374 102.44 130.29C102.581 130.205 102.694 130.097 102.782 129.969L103.36 131.063C103.128 131.321 102.826 131.526 102.453 131.675C102.08 131.824 101.706 131.9 101.328 131.9C100.951 131.9 100.649 131.84 100.376 131.72H100.38C100.107 131.599 99.8779 131.437 99.6973 131.236C99.5166 131.035 99.3435 130.809 99.1709 130.559L98.4766 129.195C98.3119 128.922 98.1026 128.705 97.8457 128.552C97.5888 128.399 97.3118 128.318 97.0107 128.318H94.0537V131.642H91.5479V122.474H98.834ZM94.0459 126.748H98.1953C98.5727 126.748 98.894 126.696 99.167 126.596C99.436 126.491 99.6416 126.342 99.7861 126.144C99.9266 125.947 99.999 125.705 99.999 125.424C99.9989 125.158 99.9266 124.925 99.7861 124.727C99.6456 124.53 99.44 124.373 99.167 124.257C98.8979 124.14 98.5763 124.084 98.2109 124.084H94.0459V126.748Z" fill="#F44E22"/>
<path fill-rule="evenodd" clip-rule="evenodd" d="M157.238 122.474C158.009 122.474 158.664 122.586 159.206 122.815C159.744 123.045 160.163 123.367 160.46 123.79C160.757 124.208 160.901 124.712 160.901 125.295C160.901 125.749 160.793 126.156 160.572 126.518C160.355 126.881 160.046 127.179 159.652 127.412C159.259 127.645 158.789 127.799 158.238 127.871V127.884C158.411 127.976 158.572 128.096 158.721 128.237C158.869 128.378 158.997 128.548 159.098 128.745L159.78 129.98C159.873 130.117 159.974 130.226 160.078 130.303C160.182 130.379 160.303 130.419 160.451 130.419C160.572 130.419 160.7 130.374 160.845 130.29C160.985 130.205 161.098 130.097 161.187 129.969L161.765 131.063C161.532 131.321 161.231 131.526 160.857 131.675C160.484 131.824 160.11 131.9 159.732 131.9C159.355 131.9 159.053 131.84 158.78 131.72H158.784C158.511 131.599 158.282 131.437 158.102 131.236C157.921 131.035 157.748 130.809 157.575 130.559L156.881 129.195C156.716 128.922 156.507 128.705 156.25 128.552C155.993 128.399 155.716 128.318 155.415 128.318H152.458V131.642H149.952V122.474H157.238ZM152.45 126.748H156.6C156.977 126.748 157.298 126.696 157.571 126.596C157.84 126.491 158.046 126.342 158.19 126.144C158.331 125.947 158.403 125.705 158.403 125.424C158.403 125.158 158.331 124.925 158.19 124.727C158.05 124.53 157.844 124.373 157.571 124.257C157.302 124.14 156.981 124.084 156.615 124.084H152.45V126.748Z" fill="#F44E22"/>
<path fill-rule="evenodd" clip-rule="evenodd" d="M86.0732 122.47C86.7396 122.47 87.3178 122.574 87.8076 122.779C88.2975 122.984 88.6713 123.283 88.9404 123.669C89.2095 124.055 89.3378 124.503 89.3379 125.01C89.3378 125.303 89.2823 125.577 89.166 125.839C89.0496 126.1 88.8839 126.325 88.6631 126.515C88.4463 126.704 88.1932 126.845 87.9121 126.941V126.981C88.4261 127.102 88.8363 127.356 89.1455 127.742C89.4547 128.128 89.6074 128.584 89.6074 129.107C89.6073 129.63 89.4664 130.049 89.1895 130.439C88.9123 130.83 88.5186 131.128 88.0127 131.333C87.5067 131.538 86.9123 131.642 86.2256 131.642H78.7305V122.474L78.7344 122.47H86.0732ZM81.2285 130.109H85.458C85.7831 130.109 86.0725 130.061 86.3174 129.969C86.5663 129.876 86.7597 129.731 86.9043 129.538C87.0447 129.345 87.1172 129.127 87.1172 128.886C87.1171 128.516 86.9644 128.221 86.6553 127.996C86.346 127.775 85.9479 127.662 85.458 127.662H81.2285V130.109ZM81.2324 126.245H85.3662C85.6553 126.245 85.9167 126.201 86.1455 126.108C86.3742 126.02 86.5466 125.887 86.667 125.714C86.7874 125.541 86.8477 125.343 86.8477 125.122C86.8476 124.788 86.7114 124.514 86.4424 124.305C86.1733 124.095 85.8112 123.991 85.3574 123.991H81.2324V126.245Z" fill="#F44E22"/>
<path d="M136.198 124.313H132.342V131.642H129.836V124.313H125.968V122.47H136.198V124.313Z" fill="#F44E22"/>
<path d="M76.4248 131.639H73.9424V122.47H76.4248V131.639Z" fill="#F44E22"/>
<path fill-rule="evenodd" clip-rule="evenodd" d="M116.743 131.639H114.148L113.261 129.823H108.055L107.167 131.639H104.557L109.248 122.47H112.14L116.743 131.639ZM108.67 128.254H112.654L110.674 124.143H110.649L108.67 128.254Z" fill="#F44E22"/>
<path d="M120.944 129.747H126.612V131.639H118.45V122.47H120.944V129.747Z" fill="#F44E22"/>
<path fill-rule="evenodd" clip-rule="evenodd" d="M148.246 131.639H145.651L144.764 129.823H139.558L138.67 131.639H136.06L140.751 122.47H143.643L148.246 131.639ZM140.173 128.254H144.157L142.177 124.143H142.152L140.173 128.254Z" fill="#F44E22"/>
<path fill-rule="evenodd" clip-rule="evenodd" d="M97.2578 103.861C97.9003 103.861 98.471 103.966 98.9609 104.171C99.4506 104.376 99.8324 104.666 100.105 105.04C100.378 105.414 100.515 105.841 100.515 106.32C100.515 106.799 100.379 107.222 100.102 107.593C99.8245 107.963 99.4428 108.253 98.957 108.458C98.4711 108.663 97.9044 108.767 97.2578 108.767C96.6112 108.767 96.0487 108.663 95.5547 108.458C95.0609 108.253 94.6793 107.963 94.4062 107.597C94.1332 107.226 93.9961 106.799 93.9961 106.316C93.9962 105.833 94.1331 105.414 94.4102 105.036C94.6873 104.662 95.0688 104.372 95.5586 104.167C96.0486 103.962 96.6152 103.861 97.2578 103.861ZM97.2578 104.779C96.8643 104.779 96.5103 104.843 96.2051 104.975C95.8999 105.108 95.6668 105.29 95.4941 105.519C95.3216 105.749 95.2374 106.015 95.2373 106.312C95.2373 106.61 95.3216 106.868 95.4941 107.101C95.6668 107.335 95.904 107.52 96.2051 107.648C96.5063 107.777 96.8562 107.846 97.2578 107.846C97.6594 107.846 98.0006 107.781 98.3018 107.648C98.6028 107.516 98.84 107.335 99.0127 107.101C99.1853 106.868 99.2695 106.606 99.2695 106.312C99.2695 106.019 99.1853 105.753 99.0127 105.519C98.84 105.286 98.6029 105.104 98.3018 104.975C98.0007 104.847 97.6512 104.779 97.2578 104.779Z" fill="#F44E22"/>
<path d="M106.152 104.939H102.822V106.034H105.767V106.827H102.822V108.606H101.577V104.017H106.152V104.939Z" fill="#F44E22"/>
<path d="M126.307 104.855H122.849V105.886H126.05V106.635H122.849V107.762H126.371V108.606H121.64V104.017H126.307V104.855Z" fill="#F44E22"/>
<path d="M114.091 104.939H112.163V108.602H110.909V104.939H108.974V104.017H114.091V104.939Z" fill="#F44E22"/>
<path d="M116.225 105.757H119.233V104.017H120.479V108.602H119.233V106.65H116.225V108.602H114.979V104.017H116.225V105.757Z" fill="#F44E22"/>
<path d="M132.568 81.8309C133.203 81.8309 133.822 81.8955 134.433 82.0243C135.043 82.1531 135.593 82.3348 136.091 82.5721C136.589 82.8096 136.995 83.0787 137.312 83.3885L136.372 84.83C136.091 84.5644 135.745 84.3309 135.344 84.1298C134.942 83.9286 134.5 83.7717 134.026 83.6591C133.553 83.5464 133.059 83.4937 132.557 83.5057C132.087 83.5057 131.657 83.5538 131.279 83.6464C130.898 83.7389 130.6 83.8681 130.392 84.0331C130.183 84.198 130.078 84.3874 130.078 84.6005C130.07 84.858 130.215 85.0591 130.517 85.204C130.818 85.3488 131.292 85.4661 131.942 85.5507L133.846 85.7841C135.304 85.9571 136.361 86.2594 137.02 86.6981C137.678 87.1368 138.011 87.7448 138.023 88.5253C138.023 89.1328 137.81 89.6681 137.389 90.1268C136.963 90.5856 136.369 90.9445 135.602 91.1981C134.834 91.4517 133.95 91.576 132.946 91.576C132.167 91.576 131.399 91.4913 130.652 91.3182L130.645 91.327C129.894 91.154 129.223 90.9077 128.629 90.5858C128.035 90.2639 127.564 89.9059 127.223 89.5116L128.315 88.0175C128.596 88.3795 128.986 88.6978 129.479 88.9755C129.973 89.2532 130.536 89.4747 131.171 89.6317C131.805 89.7887 132.436 89.869 133.059 89.869C133.565 89.869 134.006 89.8248 134.384 89.7323C134.761 89.6437 135.055 89.511 135.264 89.3339C135.472 89.1568 135.577 88.9633 135.577 88.746C135.577 88.4646 135.392 88.2354 135.022 88.0585C134.653 87.8814 134.07 87.7525 133.275 87.6639L131.372 87.3944C130.063 87.2334 129.11 86.9475 128.52 86.537C127.929 86.1305 127.633 85.5419 127.633 84.7772C127.633 84.1779 127.838 83.6507 128.251 83.2001C128.661 82.7494 129.239 82.407 129.986 82.1776C130.733 81.9442 131.593 81.831 132.568 81.8309Z" fill="#F44E22"/>
<path fill-rule="evenodd" clip-rule="evenodd" d="M121.407 82.1327C122.178 82.1327 122.833 82.2461 123.375 82.4755C123.913 82.7049 124.332 83.0266 124.629 83.4491C124.926 83.8676 125.07 84.3715 125.07 84.955C125.07 85.4096 124.962 85.8164 124.741 86.1786C124.524 86.5408 124.215 86.8387 123.821 87.0721C123.428 87.3056 122.957 87.4587 122.407 87.5311V87.5428C122.58 87.6354 122.741 87.7565 122.89 87.8973C123.038 88.038 123.166 88.2073 123.267 88.4042L123.949 89.6405C124.042 89.7772 124.143 89.8853 124.247 89.9618C124.351 90.0382 124.472 90.0789 124.62 90.079C124.741 90.079 124.869 90.0345 125.014 89.9501C125.154 89.8656 125.267 89.7566 125.355 89.6278L125.934 90.7225C125.701 90.9801 125.4 91.1859 125.026 91.3348C124.653 91.4838 124.279 91.5604 123.901 91.5604C123.524 91.5604 123.222 91.4995 122.949 91.3788H122.953C122.68 91.2581 122.451 91.0974 122.271 90.8964C122.09 90.6952 121.917 90.4691 121.744 90.2196L121.05 88.8553C120.885 88.5818 120.676 88.3637 120.419 88.2108C120.162 88.0581 119.885 87.9775 119.584 87.9774H116.627V91.3026H114.121V82.1327H121.407ZM116.619 86.4042H120.769C121.146 86.4042 121.467 86.3514 121.74 86.2509C122.009 86.1462 122.215 85.9969 122.359 85.7997C122.5 85.6027 122.572 85.3612 122.572 85.08C122.572 84.8147 122.5 84.5807 122.359 84.3837C122.219 84.1865 122.013 84.0287 121.74 83.912C121.471 83.7954 121.149 83.7391 120.784 83.7391H116.619V86.4042Z" fill="#F44E22"/>
<path fill-rule="evenodd" clip-rule="evenodd" d="M160.07 82.1327C160.841 82.1327 161.496 82.2461 162.038 82.4755C162.576 82.7049 162.995 83.0266 163.292 83.4491C163.589 83.8676 163.733 84.3715 163.733 84.955C163.733 85.4096 163.625 85.8164 163.404 86.1786C163.187 86.5408 162.878 86.8387 162.484 87.0721C162.091 87.3056 161.621 87.4587 161.07 87.5311V87.5428C161.243 87.6354 161.404 87.7565 161.553 87.8973C161.701 88.038 161.829 88.2073 161.93 88.4042L162.612 89.6405C162.705 89.7772 162.806 89.8853 162.91 89.9618C163.015 90.0382 163.135 90.0789 163.283 90.079C163.404 90.079 163.532 90.0345 163.677 89.9501C163.817 89.8656 163.93 89.7566 164.019 89.6278L164.597 90.7225C164.364 90.9801 164.063 91.1859 163.689 91.3348C163.316 91.4838 162.942 91.5604 162.564 91.5604C162.187 91.5604 161.885 91.4995 161.612 91.3788H161.616C161.343 91.2581 161.114 91.0974 160.934 90.8964C160.753 90.6952 160.58 90.4691 160.407 90.2196L159.713 88.8553C159.548 88.5818 159.339 88.3637 159.082 88.2108C158.825 88.0581 158.548 87.9775 158.247 87.9774H155.291V91.3026H152.784V82.1327H160.07ZM155.282 86.4042H159.432C159.809 86.4042 160.13 86.3514 160.403 86.2509C160.672 86.1462 160.878 85.9969 161.022 85.7997C161.163 85.6027 161.235 85.3612 161.235 85.08C161.235 84.8147 161.163 84.5807 161.022 84.3837C160.882 84.1865 160.676 84.0287 160.403 83.912C160.134 83.7954 159.813 83.7391 159.447 83.7391H155.282V86.4042Z" fill="#F44E22"/>
<path d="M170.409 86.327H170.422L173.354 82.1288H176.129L171.654 88.1063V91.3026H169.148V88.1063L164.638 82.1288H167.389L170.409 86.327Z" fill="#F44E22"/>
<path fill-rule="evenodd" clip-rule="evenodd" d="M56.0576 91.2987H53.4629L52.5752 89.4833H47.3691L46.4814 91.2987H43.8711L48.5625 82.1288H51.4541L56.0576 91.2987ZM47.9844 87.913H51.9688L49.9883 83.8036H49.9639L47.9844 87.913Z" fill="#F44E22"/>
<path d="M66.6094 88.8915H66.6211V82.1288H68.999V91.2987H65.9541L60.1582 84.496H60.1465V91.2987H57.7686V82.1288H60.8369L66.6094 88.8915Z" fill="#F44E22"/>
<path d="M80.1523 88.8915H80.1641V82.1288H82.542V91.2987H79.4971L73.7012 84.496H73.6895V91.2987H71.3115V82.1288H74.3799L80.1523 88.8915Z" fill="#F44E22"/>
<path d="M87.3379 91.2987H84.8555V82.1288H87.3379V91.2987Z" fill="#F44E22"/>
<path d="M95.0381 89.0848H95.0498L98.4561 82.1288H101.078L96.4277 91.2987H93.6523L89.0127 82.1288H91.6436L95.0381 89.0848Z" fill="#F44E22"/>
<path d="M112.081 83.8036H105.165V85.8641H111.567V87.3573H105.165V89.6122H112.21V91.2987H102.751V82.1288H112.081V83.8036Z" fill="#F44E22"/>
<path fill-rule="evenodd" clip-rule="evenodd" d="M151.078 91.2987H148.483L147.596 89.4833H142.39L141.502 91.2987H138.892L143.583 82.1288H146.475L151.078 91.2987ZM143.005 87.913H146.989L145.009 83.8036H144.984L143.005 87.913Z" fill="#F44E22"/>
<path fill-rule="evenodd" clip-rule="evenodd" d="M101.263 57.4667C103.271 57.4667 105.059 57.7895 106.585 58.4335C108.111 59.0774 109.304 59.9832 110.159 61.1503C111.015 62.3174 111.444 63.654 111.444 65.1552C111.444 66.6563 111.015 67.9686 110.151 69.1317C109.288 70.2909 108.094 71.1928 106.576 71.8368C105.058 72.4807 103.287 72.8026 101.267 72.8026C99.2463 72.8026 97.4827 72.4808 95.9443 71.8368C94.4062 71.1928 93.2051 70.2947 92.3496 69.1395C91.4944 67.9844 91.0645 66.6519 91.0645 65.1346C91.0646 63.6174 91.498 62.3126 92.3574 61.1415C93.2209 59.9664 94.4181 59.0606 95.9521 58.4247C97.4865 57.7887 99.2545 57.4667 101.263 57.4667ZM101.267 60.3446C100.038 60.3446 98.9292 60.5504 97.9814 60.9608C97.0377 61.3713 96.2979 61.9347 95.7637 62.6591C95.2296 63.3834 94.9611 64.2091 94.9609 65.1346C94.9609 66.0603 95.2296 66.87 95.7637 67.5985C96.2978 68.331 97.0376 68.8989 97.9814 69.3094C98.9252 69.7199 100.022 69.9208 101.267 69.9208C102.512 69.9208 103.588 69.716 104.528 69.3094C105.472 68.8989 106.211 68.3309 106.749 67.5985C107.283 66.866 107.553 66.0442 107.553 65.1346C107.553 64.2252 107.283 63.3834 106.749 62.6591C106.215 61.9349 105.472 61.3672 104.528 60.9608C103.584 60.5543 102.496 60.3446 101.267 60.3446Z" fill="#F44E22"/>
<path d="M86.2646 60.494H78.1514L77.9707 63.5936C78.4245 63.2999 78.9866 63.07 79.6572 62.9091C80.3279 62.7481 81.0028 62.6679 81.6855 62.6678C83.011 62.6678 84.1684 62.8689 85.1484 63.2714C86.1281 63.6738 86.8954 64.2413 87.4375 64.9735C87.9796 65.706 88.2528 66.5719 88.2529 67.578C88.2529 68.5842 87.9354 69.5347 87.2969 70.3075C86.6583 71.0802 85.7621 71.6722 84.6055 72.0868C83.4488 72.5013 82.071 72.7098 80.4766 72.7098C79.0186 72.7098 77.7133 72.5209 76.5605 72.1385L76.5645 72.1268C75.4119 71.7445 74.4841 71.1928 73.7812 70.4764C73.0785 69.76 72.6524 68.914 72.5078 67.952L76.3037 67.1678C76.372 67.7591 76.5927 68.2703 76.9658 68.7089C77.3393 69.1476 77.8339 69.4822 78.4443 69.7157C79.0548 69.9491 79.7538 70.0702 80.541 70.0702C81.3282 70.0702 81.995 69.9734 82.5693 69.7762C83.1435 69.5831 83.5853 69.2969 83.8945 68.9227C84.2037 68.5484 84.3564 68.1091 84.3564 67.6141C84.3563 67.079 84.2119 66.612 83.9229 66.2177C83.6337 65.8233 83.2198 65.5216 82.6777 65.3124C82.1355 65.1031 81.4968 64.9979 80.7578 64.9979C80.0872 64.9979 79.4686 65.0947 78.9023 65.2919C78.3321 65.485 77.8897 65.7388 77.5684 66.0487L74.4756 65.5253L74.918 57.9784H86.2646V60.494Z" fill="#F44E22"/>
<path d="M129.118 60.8485H123.093V72.2997H119.177V60.8485H113.132V57.9706H129.118V60.8485Z" fill="#F44E22"/>
<path d="M135.785 63.4042H145.184V57.9706H149.08V72.2997H145.184V66.201H135.785V72.2997H131.889V57.9706H135.785V63.4042Z" fill="#F44E22"/>
</svg>
