<svg width="220" height="286" viewBox="0 0 220 286" fill="none" xmlns="http://www.w3.org/2000/svg">
<path d="M212.859 22.1545C212.859 22.2752 212.867 22.396 212.871 22.5087C212.899 23.1326 213.007 23.7444 213.184 24.316C214.096 27.2302 216.795 29.3555 219.988 29.3997V36.8704C216.044 36.9348 212.859 40.155 212.859 44.1278C212.859 45.4159 213.2 46.6314 213.794 47.686C214.088 48.2093 214.441 48.6923 214.859 49.119C215.971 50.2984 217.49 51.1034 219.185 51.3167C219.45 51.353 219.715 51.3731 219.988 51.3771V58.7753C219.755 58.7753 219.526 58.7874 219.301 58.8116C219.285 58.8196 219.269 58.8196 219.253 58.8236C219.02 58.8478 218.795 58.884 218.57 58.9323C218.261 59.0008 217.956 59.0853 217.662 59.1899C217.578 59.2262 217.494 59.2543 217.413 59.2865C217.389 59.2986 217.365 59.3067 217.341 59.3147C217.265 59.3509 217.188 59.3791 217.112 59.4153C217.036 59.4516 216.959 59.4838 216.887 59.524C216.823 59.5562 216.763 59.5844 216.702 59.6166C216.526 59.7132 216.353 59.8138 216.184 59.9265C216.1 59.9789 216.02 60.0312 215.943 60.0835C215.855 60.1439 215.767 60.2083 215.682 60.2807C215.594 60.3411 215.513 60.4096 215.429 60.486C215.349 60.5464 215.268 60.6189 215.188 60.6953C215.108 60.7678 215.032 60.8443 214.955 60.9207C214.803 61.0737 214.658 61.2347 214.521 61.3997C213.517 62.6073 212.903 64.1449 212.863 65.8274C212.859 65.92 212.859 66.0045 212.859 66.0971C212.859 66.1454 212.859 66.1937 212.863 66.238C212.863 66.3225 212.863 66.403 212.871 66.4835C212.875 66.5721 212.879 66.6606 212.891 66.7492C212.895 66.8337 212.903 66.9182 212.915 67.0028C212.927 67.0833 212.935 67.1638 212.951 67.2443C212.967 67.353 212.991 67.4616 213.011 67.5663C213.031 67.6709 213.055 67.7796 213.083 67.8843C213.104 67.9608 213.124 68.0372 213.144 68.1097C213.172 68.1982 213.196 68.2828 213.224 68.3673C213.248 68.4438 213.276 68.5243 213.304 68.6008C213.333 68.6813 213.365 68.7577 213.397 68.8342C213.437 68.9389 213.481 69.0395 213.529 69.1401C213.561 69.2085 213.594 69.277 213.63 69.3454C213.63 69.3454 213.634 69.3535 213.634 69.3575C213.69 69.4702 213.75 69.5789 213.81 69.6875C213.818 69.6996 213.827 69.7117 213.831 69.7238C213.887 69.8164 213.943 69.9049 213.999 69.9935C214.076 70.1102 214.152 70.2269 214.236 70.3396C214.333 70.4725 214.433 70.6053 214.537 70.7301C214.606 70.8146 214.678 70.8951 214.75 70.9716C214.758 70.9836 214.77 70.9917 214.778 71.0038C214.827 71.0561 214.875 71.1084 214.923 71.1567C214.991 71.2252 215.06 71.2936 215.128 71.354C215.136 71.366 215.148 71.3741 215.156 71.3821C215.164 71.3902 215.168 71.3982 215.176 71.4023C215.196 71.4224 215.22 71.4425 215.24 71.4626C215.353 71.5633 215.469 71.6639 215.586 71.7565C215.694 71.845 215.803 71.9296 215.919 72.006C215.991 72.0584 216.064 72.1067 216.136 72.155C216.22 72.2113 216.305 72.2677 216.393 72.32C216.534 72.4045 216.678 72.485 216.823 72.5575C217.775 73.0405 218.851 73.3223 219.988 73.3424V80.7366C219.751 80.7406 219.518 80.7607 219.289 80.7849C219.173 80.7929 219.056 80.8131 218.944 80.8332C218.851 80.8412 218.759 80.8614 218.671 80.8775C218.538 80.9097 218.405 80.9379 218.273 80.9701C218.164 80.9982 218.056 81.0264 217.948 81.0667C217.839 81.0948 217.735 81.1351 217.63 81.1713C217.526 81.2116 217.421 81.2478 217.317 81.2921C217.213 81.3363 217.112 81.3806 217.012 81.4289C216.911 81.4732 216.811 81.5255 216.714 81.5779C216.614 81.6302 216.518 81.6825 216.421 81.7429C216.341 81.7912 216.269 81.8314 216.192 81.8838C216.068 81.9683 215.947 82.0488 215.827 82.1414C215.75 82.1937 215.678 82.246 215.606 82.3064C215.433 82.4433 215.268 82.5841 215.108 82.7451C213.722 84.0573 212.859 85.921 212.859 87.9899V88.0624C212.859 88.6179 212.919 89.1532 213.043 89.6684C213.067 89.7851 213.096 89.8938 213.128 90.0065C213.156 90.1192 213.192 90.2279 213.228 90.3366C213.248 90.4131 213.272 90.4815 213.304 90.554C213.304 90.562 213.312 90.5741 213.316 90.5821C213.316 90.5862 213.32 90.5942 213.324 90.5982C213.332 90.6224 213.341 90.6506 213.353 90.6747C213.393 90.7995 213.449 90.9202 213.501 91.041C213.634 91.3429 213.79 91.6367 213.971 91.9185C214.055 92.0594 214.152 92.1962 214.248 92.3331C214.309 92.4176 214.377 92.5102 214.449 92.5907C214.513 92.6833 214.582 92.7638 214.662 92.8443C214.726 92.9328 214.803 93.0133 214.883 93.0898C214.955 93.1663 215.032 93.2428 215.108 93.3152L215.361 93.5446C215.441 93.6171 215.526 93.6896 215.614 93.7499C215.678 93.8063 215.746 93.8586 215.819 93.9069C215.851 93.9391 215.887 93.9592 215.919 93.9834C215.995 94.0397 216.072 94.0921 216.148 94.1404C216.22 94.1927 216.297 94.233 216.373 94.2772C216.453 94.3296 216.538 94.3779 216.622 94.4221C216.71 94.4745 216.803 94.5228 216.895 94.563C216.972 94.6033 217.052 94.6435 217.132 94.6757C217.602 94.889 218.096 95.0541 218.61 95.1587C218.819 95.203 219.032 95.2392 219.249 95.2634C219.265 95.2634 219.277 95.2674 219.289 95.2674C219.518 95.2916 219.751 95.3077 219.988 95.3117V102.71C217.433 102.75 215.192 104.115 213.935 106.151C213.304 107.182 212.915 108.381 212.867 109.665C212.863 109.766 212.859 109.859 212.859 109.959V110.032C212.859 110.116 212.859 110.193 212.867 110.269C212.867 110.426 212.879 110.587 212.899 110.748C212.927 111.078 212.983 111.404 213.059 111.73C213.204 112.334 213.429 112.91 213.71 113.445C214.915 115.703 217.269 117.241 219.988 117.285V124.675C216.662 124.736 213.879 127.026 213.083 130.125C212.971 130.588 212.895 131.075 212.871 131.566V131.607C212.863 131.715 212.859 131.82 212.859 131.933V132.005C212.859 132.11 212.863 132.214 212.867 132.319C212.955 134.348 213.871 136.147 215.281 137.415H215.285C216.538 138.538 218.18 139.23 219.988 139.254V146.649C216.461 146.701 213.537 149.285 212.967 152.674C212.911 152.98 212.879 153.286 212.867 153.6C212.863 153.701 212.859 153.797 212.859 153.898V153.97C212.859 154.075 212.863 154.176 212.867 154.28C212.867 154.353 212.871 154.425 212.879 154.498C212.887 154.622 212.899 154.747 212.915 154.868C212.931 155.005 212.951 155.134 212.975 155.266C213.019 155.52 213.079 155.77 213.152 156.011C213.228 156.293 213.328 156.567 213.445 156.828C213.517 157.005 213.602 157.178 213.69 157.343C213.734 157.428 213.778 157.512 213.827 157.593C214.011 157.923 214.228 158.237 214.469 158.531C214.529 158.603 214.59 158.676 214.65 158.748C214.714 158.821 214.774 158.889 214.843 158.957C214.907 159.026 214.971 159.094 215.04 159.159C215.341 159.457 215.666 159.722 216.016 159.96C216.096 160.02 216.184 160.072 216.269 160.129C216.321 160.161 216.373 160.193 216.425 160.221C216.494 160.262 216.558 160.302 216.63 160.338C216.795 160.431 216.967 160.515 217.14 160.592C217.225 160.628 217.309 160.664 217.397 160.7C217.401 160.704 217.405 160.704 217.409 160.704C217.494 160.741 217.586 160.773 217.674 160.805C217.763 160.837 217.855 160.869 217.948 160.898C218.04 160.926 218.132 160.954 218.229 160.978C218.321 161.002 218.413 161.026 218.51 161.047C218.606 161.067 218.703 161.087 218.799 161.103C218.887 161.119 218.972 161.135 219.06 161.147C219.08 161.151 219.096 161.151 219.112 161.155C219.197 161.167 219.277 161.175 219.361 161.183C219.381 161.187 219.402 161.187 219.422 161.191C219.61 161.208 219.799 161.216 219.988 161.22V168.614C219.896 168.614 219.803 168.618 219.707 168.634C218.168 168.71 216.767 169.27 215.634 170.168C215.015 170.655 214.477 171.238 214.043 171.902C213.357 172.945 212.935 174.177 212.871 175.505C212.863 175.634 212.859 175.767 212.859 175.907V175.94C212.859 176.06 212.863 176.185 212.871 176.306C212.879 176.523 212.903 176.741 212.935 176.958C212.955 177.091 212.975 177.224 213.003 177.352C213.015 177.421 213.027 177.489 213.043 177.554C213.112 177.856 213.196 178.149 213.304 178.435C213.324 178.496 213.349 178.56 213.373 178.62C213.421 178.741 213.473 178.858 213.525 178.975C213.582 179.099 213.646 179.224 213.71 179.345C213.782 179.482 213.859 179.619 213.943 179.747C213.951 179.768 213.963 179.784 213.971 179.796C214.051 179.929 214.14 180.057 214.232 180.182C214.236 180.186 214.24 180.19 214.24 180.194C214.333 180.323 214.429 180.452 214.533 180.573C214.606 180.661 214.682 180.746 214.758 180.83C214.999 181.096 215.264 181.345 215.546 181.579C215.61 181.627 215.678 181.679 215.746 181.732C215.807 181.78 215.871 181.824 215.935 181.869C216.04 181.945 216.148 182.014 216.257 182.082C216.49 182.231 216.739 182.368 216.992 182.485C217.08 182.529 217.168 182.569 217.261 182.609C217.273 182.617 217.289 182.621 217.305 182.625C217.385 182.662 217.47 182.694 217.554 182.726C217.815 182.827 218.08 182.907 218.353 182.976C218.409 182.992 218.47 183.004 218.526 183.016C218.606 183.036 218.687 183.052 218.771 183.064C218.867 183.084 218.964 183.1 219.064 183.112C219.132 183.125 219.205 183.137 219.273 183.141C219.51 183.169 219.747 183.185 219.988 183.189V190.587C218.148 190.615 216.473 191.332 215.212 192.499C214.762 192.906 214.369 193.373 214.035 193.884C213.706 194.379 213.445 194.922 213.252 195.494C213.047 196.081 212.923 196.693 212.879 197.337C212.875 197.337 212.875 197.349 212.879 197.353C212.871 197.442 212.867 197.527 212.863 197.615C212.863 197.716 212.859 197.816 212.859 197.917C212.859 198.01 212.863 198.11 212.867 198.207C212.899 199.052 213.083 199.861 213.381 200.614C213.445 200.775 213.513 200.932 213.59 201.085C213.594 201.097 213.602 201.109 213.606 201.121C213.662 201.23 213.718 201.334 213.774 201.439C213.806 201.495 213.839 201.552 213.871 201.604C213.947 201.737 214.031 201.866 214.116 201.99C214.2 202.115 214.288 202.236 214.377 202.353C214.505 202.518 214.642 202.675 214.782 202.828C214.867 202.92 214.959 203.013 215.052 203.105C215.301 203.347 215.57 203.572 215.855 203.778C215.943 203.838 216.032 203.898 216.12 203.959C216.562 204.261 217.036 204.506 217.53 204.691H217.546C218.305 204.989 219.132 205.146 219.988 205.162V212.56C218.687 212.581 217.47 212.943 216.421 213.567C214.517 214.69 213.172 216.67 212.907 218.977C212.887 219.158 212.871 219.351 212.867 219.54C212.863 219.604 212.863 219.669 212.859 219.737V219.882C212.859 219.939 212.859 220.007 212.863 220.063C212.863 220.14 212.867 220.22 212.875 220.297C212.879 220.373 212.883 220.45 212.895 220.522C212.899 220.615 212.907 220.707 212.923 220.8C212.955 221.078 213.003 221.351 213.071 221.617C213.112 221.794 213.164 221.967 213.224 222.14C213.248 222.229 213.28 222.313 213.312 222.398C213.59 223.159 213.995 223.855 214.497 224.467C214.562 224.555 214.634 224.636 214.71 224.716C214.778 224.797 214.855 224.877 214.931 224.958C215.084 225.115 215.24 225.264 215.405 225.397C215.489 225.469 215.57 225.542 215.658 225.602C215.73 225.666 215.803 225.719 215.879 225.771C215.903 225.791 215.927 225.807 215.955 225.823C216.032 225.88 216.112 225.932 216.192 225.98C216.277 226.045 216.361 226.097 216.449 226.145C216.469 226.153 216.49 226.17 216.51 226.178C216.59 226.226 216.674 226.274 216.759 226.31C216.879 226.375 217 226.435 217.124 226.496C217.14 226.504 217.16 226.512 217.176 226.516C217.237 226.544 217.293 226.568 217.353 226.588C217.454 226.632 217.554 226.677 217.658 226.709C217.843 226.777 218.036 226.834 218.229 226.886C218.321 226.91 218.413 226.934 218.506 226.954C218.763 227.015 219.028 227.059 219.297 227.087C219.526 227.111 219.755 227.128 219.988 227.132V234.526C219.879 234.526 219.759 234.534 219.651 234.546C219.265 234.57 218.891 234.622 218.526 234.703C218.237 234.767 217.956 234.848 217.682 234.948C217.429 235.033 217.188 235.138 216.951 235.254H216.947C214.533 236.434 212.863 238.905 212.863 241.779C212.863 242.729 213.051 243.639 213.385 244.48C213.939 245.857 214.895 247.024 216.124 247.829C216.566 248.123 217.04 248.368 217.534 248.561H217.55C217.859 248.678 218.181 248.779 218.51 248.851C218.988 248.96 219.486 249.02 219.992 249.024V256.495C219.651 256.503 219.313 256.531 218.984 256.584C217.602 256.797 216.349 257.401 215.345 258.282C214.895 258.677 214.501 259.115 214.168 259.606C213.349 260.774 212.863 262.207 212.863 263.744C212.863 267.681 215.987 270.873 219.884 270.998C219.892 271.118 219.9 271.239 219.904 271.356C219.932 271.795 219.96 272.233 219.988 272.664C219.988 272.676 219.988 272.684 219.992 272.696V278.597C219.992 278.597 219.976 278.597 219.964 278.597C219.884 278.585 219.799 278.577 219.715 278.573C219.655 278.565 219.59 278.561 219.53 278.557C219.41 278.553 219.285 278.549 219.161 278.549C219.052 278.549 218.936 278.549 218.831 278.549C218.646 278.557 218.462 278.573 218.285 278.597C215.582 278.927 213.337 280.743 212.401 283.214C212.18 283.794 212.031 284.414 211.967 285.062C211.947 285.247 211.931 285.444 211.931 285.641H204.472C204.396 281.934 201.548 278.915 197.925 278.573C197.812 278.561 197.692 278.553 197.571 278.549C197.463 278.549 197.347 278.549 197.238 278.549C197.049 278.549 196.869 278.549 196.688 278.565C196.607 278.577 196.519 278.577 196.443 278.589C193.932 278.863 191.812 280.421 190.743 282.598C190.47 283.154 190.269 283.745 190.145 284.369C190.068 284.788 190.016 285.206 190.008 285.645H182.549C182.469 282.027 179.758 279.06 176.259 278.609C176.147 278.597 176.035 278.581 175.918 278.577C175.761 278.557 175.609 278.553 175.452 278.553C175.408 278.553 175.356 278.553 175.316 278.553H175.279C175.179 278.553 175.083 278.553 174.982 278.553C174.777 278.565 174.577 278.585 174.372 278.609C174.303 278.625 174.235 278.629 174.167 278.641C172.118 278.968 170.363 280.147 169.279 281.805V281.817C168.933 282.329 168.664 282.876 168.463 283.464C168.234 284.148 168.102 284.88 168.086 285.645H160.619C160.547 281.817 157.51 278.726 153.718 278.553C153.614 278.553 153.502 278.553 153.389 278.553H153.357C151.268 278.561 149.389 279.463 148.067 280.892C147.665 281.33 147.316 281.829 147.027 282.357C146.489 283.339 146.183 284.458 146.159 285.649H138.7C138.628 282.168 136.114 279.294 132.808 278.682C132.595 278.633 132.378 278.605 132.153 278.581C132.041 278.569 131.92 278.561 131.8 278.557C131.692 278.557 131.579 278.557 131.471 278.557C131.362 278.557 131.25 278.557 131.141 278.557C131.049 278.561 130.969 278.565 130.884 278.577C130.788 278.577 130.691 278.589 130.595 278.605C130.414 278.621 130.238 278.658 130.061 278.69C129.964 278.71 129.868 278.734 129.776 278.754C129.707 278.766 129.643 278.786 129.575 278.806C128.727 279.036 127.94 279.414 127.249 279.913C126.771 280.256 126.337 280.658 125.956 281.105C124.912 282.337 124.273 283.918 124.237 285.649H116.778C116.702 281.982 113.922 278.992 110.359 278.601C110.263 278.585 110.171 278.581 110.078 278.569H110.062C109.986 278.561 109.91 278.557 109.837 278.557C109.737 278.557 109.645 278.557 109.548 278.557C109.432 278.557 109.311 278.557 109.203 278.557C109.082 278.561 108.974 278.569 108.857 278.581C108.632 278.605 108.403 278.633 108.191 278.678C107.749 278.758 107.327 278.883 106.917 279.044C106.371 279.261 105.865 279.535 105.391 279.865C103.575 281.149 102.367 283.258 102.314 285.649H94.8515C94.7752 281.942 91.9314 278.919 88.3125 278.581C88.196 278.569 88.0795 278.561 87.959 278.557C87.8466 278.557 87.7381 278.557 87.6216 278.557C87.5293 278.557 87.4369 278.557 87.3445 278.557C87.1919 278.557 87.0433 278.565 86.8987 278.585C86.8143 278.593 86.742 278.605 86.6657 278.609C86.2279 278.666 85.8021 278.766 85.3965 278.903C82.5367 279.829 80.4601 282.485 80.3878 285.649H72.933C72.8688 282.538 70.8524 279.917 68.0649 278.959C67.9766 278.923 67.8882 278.895 67.7958 278.867C67.7557 278.855 67.7115 278.839 67.6713 278.831C67.599 278.811 67.5267 278.786 67.4544 278.77C67.109 278.682 66.7595 278.617 66.398 278.585C66.3298 278.581 66.2735 278.577 66.2053 278.569C66.1048 278.561 65.9964 278.557 65.8879 278.557H65.8719C65.8156 278.557 65.7554 278.557 65.7032 278.557H65.667C65.5546 278.557 65.4461 278.557 65.3296 278.557C65.1007 278.569 64.8717 278.593 64.6428 278.629C64.6388 278.629 64.6267 278.629 64.6227 278.629C61.1845 279.137 58.5456 282.075 58.4693 285.645H51.0105C50.9623 283.395 49.902 281.403 48.2592 280.107C47.741 279.692 47.1546 279.354 46.5361 279.092C45.7127 278.754 44.817 278.557 43.865 278.553C43.8369 278.553 43.8088 278.553 43.7767 278.553C43.5277 278.553 43.2786 278.561 43.0336 278.585C42.9292 278.601 42.8288 278.609 42.7243 278.629C42.6239 278.637 42.5195 278.658 42.4191 278.678C42.3187 278.694 42.2183 278.714 42.1178 278.738C39.238 279.418 37.0208 281.825 36.6111 284.808C36.575 285.082 36.5509 285.363 36.5468 285.649H29.0881C29.064 284.571 28.8109 283.548 28.3651 282.638C28.0357 281.962 27.614 281.346 27.1039 280.811C27.0476 280.751 26.9914 280.69 26.9312 280.634C25.7061 279.426 24.0553 278.654 22.2237 278.557C22.0992 278.557 21.9827 278.557 21.8582 278.557C21.7578 278.557 21.6574 278.557 21.557 278.557C21.4365 278.561 21.32 278.569 21.2035 278.581C17.5565 278.907 14.6967 281.93 14.6203 285.649H7.16156C7.1455 284.74 6.96074 283.87 6.63539 283.073C6.30603 282.26 5.83609 281.519 5.24967 280.883C4.04871 279.575 2.3738 278.714 0.494043 278.569C0.429778 278.565 0.361492 278.561 0.301243 278.557C0.220912 278.557 0.144594 278.557 0.0602462 278.557H0V271.01C3.39802 270.913 6.21767 268.474 6.88442 265.25C6.98483 264.771 7.03705 264.272 7.03705 263.756C7.03705 263.511 7.02901 263.253 7.00089 263.012C6.63538 259.49 3.76353 256.724 0.200829 256.527C0.132547 256.523 0.0682818 256.511 0 256.511V249.032C3.90813 248.928 7.03705 245.732 7.03705 241.791C7.03705 240.861 6.87237 239.98 6.54703 239.167C6.34218 238.619 6.06102 238.108 5.73166 237.637C5.57903 237.416 5.41435 237.207 5.23762 237.005C5.22959 237.001 5.22156 236.989 5.21754 236.985C3.93625 235.536 2.07255 234.606 0 234.542V227.14C3.39802 227.043 6.21767 224.608 6.88442 221.38C6.98483 220.901 7.03705 220.401 7.03705 219.894C7.03705 219.826 7.03705 219.757 7.03303 219.693C7.03303 219.617 7.02902 219.544 7.025 219.468C7.025 219.355 7.01696 219.246 7.00089 219.142C6.98884 219.033 6.9768 218.92 6.96074 218.812C6.67154 216.686 5.46255 214.863 3.74345 213.74C3.05662 213.297 2.28945 212.959 1.46605 212.77C0.996109 212.653 0.502072 212.593 0 212.573V205.166C3.70328 205.062 6.70769 202.188 7.00893 198.537C7.02902 198.336 7.03705 198.134 7.03705 197.929V197.853C7.03705 197.683 7.03705 197.518 7.025 197.361C6.77999 193.654 3.74345 190.712 0 190.607V183.197C0.0682818 183.197 0.132547 183.193 0.200829 183.189C2.17699 183.084 3.94428 182.183 5.18942 180.798C6.20963 179.667 6.86835 178.21 7.00491 176.6C7.01696 176.479 7.02499 176.366 7.02901 176.246C7.03704 176.149 7.03705 176.052 7.03705 175.952V175.879C7.03705 174.676 6.74785 173.541 6.22972 172.546C5.92446 171.951 5.53083 171.403 5.08901 170.924C3.80772 169.56 2.00829 168.694 0 168.634V161.228C3.44622 161.131 6.29397 158.635 6.91253 155.339C6.97679 155.021 7.01295 154.695 7.025 154.365C7.03304 154.236 7.03705 154.111 7.03705 153.982C7.03705 153.902 7.03705 153.817 7.03303 153.737C7.03303 153.656 7.02902 153.58 7.025 153.499C6.81614 149.752 3.77157 146.769 0 146.665V139.262C3.9001 139.154 7.025 135.97 7.03705 132.041V132.017C7.03705 131.868 7.03304 131.719 7.025 131.566C7.00492 131.111 6.94467 130.661 6.83622 130.234C6.08512 127.114 3.32171 124.784 0 124.695V117.289C1.89181 117.237 3.61893 116.452 4.88014 115.2C5.40631 114.689 5.85618 114.089 6.20562 113.433C6.30202 113.248 6.39439 113.051 6.47472 112.853C6.5189 112.753 6.55907 112.652 6.59121 112.551C6.63137 112.451 6.66752 112.35 6.69564 112.246C6.72777 112.141 6.75991 112.04 6.78401 111.932C6.81614 111.827 6.84024 111.722 6.86032 111.614C6.93262 111.316 6.97679 111.01 7.00089 110.696C7.01294 110.607 7.02099 110.515 7.025 110.422C7.03304 110.297 7.03705 110.173 7.03705 110.044C7.03705 109.915 7.03303 109.802 7.02901 109.681C7.02499 109.557 7.01696 109.44 7.00491 109.327C6.6876 105.685 3.69123 102.823 0 102.726V95.3197C0.172713 95.3157 0.341417 95.3036 0.510113 95.2916C0.678809 95.2714 0.847506 95.2473 1.01219 95.2191C1.2331 95.1869 1.44597 95.1386 1.65885 95.0782C1.7673 95.0581 1.87173 95.0219 1.97616 94.9897C2.08059 94.9615 2.18502 94.9212 2.28543 94.885C2.38986 94.8448 2.49028 94.8085 2.5907 94.7643C2.69111 94.72 2.79152 94.6757 2.88792 94.6314C2.98833 94.5872 3.08473 94.5348 3.17711 94.4865C3.27351 94.4342 3.3659 94.3859 3.45828 94.3295C3.55066 94.2732 3.64304 94.2168 3.7314 94.1605C3.82379 94.1041 3.91215 94.0438 3.9965 93.9794C4.07683 93.923 4.16118 93.8626 4.2375 93.7982C4.24151 93.7982 4.24553 93.7942 4.24955 93.7902C4.32184 93.7338 4.39012 93.6775 4.45438 93.6211C4.46643 93.6131 4.47849 93.605 4.48652 93.5929C4.55882 93.5326 4.63112 93.4722 4.6994 93.4038C4.7717 93.3394 4.84802 93.2669 4.9163 93.1945C4.9886 93.126 5.05688 93.0536 5.12516 92.9771C5.19344 92.9006 5.26172 92.8282 5.32197 92.7477C6.24979 91.6609 6.8563 90.2883 6.99688 88.7869C7.00492 88.7104 7.01294 88.638 7.01696 88.5615C7.02499 88.485 7.02901 88.4085 7.03303 88.3321C7.03705 88.2757 7.03705 88.2194 7.03705 88.155V88.002C7.03705 87.9054 7.03303 87.8128 7.02901 87.7202C7.00089 86.9233 6.84425 86.1665 6.57514 85.4581C6.50284 85.2528 6.41448 85.0516 6.31808 84.8503C6.1775 84.5565 6.01684 84.2747 5.84011 84.005C5.83609 84.001 5.83208 84.001 5.83208 83.997C5.7156 83.8199 5.58706 83.6428 5.4505 83.4697C5.31394 83.3006 5.16934 83.1396 5.02072 82.9867C4.94842 82.9021 4.86809 82.8256 4.79177 82.7572C4.71546 82.6807 4.63514 82.6083 4.55079 82.5358C4.47046 82.4594 4.3861 82.3909 4.30175 82.3306C4.22142 82.2581 4.14109 82.1977 4.05675 82.1374C3.95633 82.0649 3.85592 81.9965 3.7555 81.9321C3.67115 81.8757 3.5868 81.8194 3.49844 81.7751C3.40605 81.7107 3.30966 81.6584 3.21326 81.6101C3.12088 81.5537 3.02448 81.5054 2.92407 81.4611C2.82365 81.4128 2.72324 81.3645 2.62282 81.3283C2.52643 81.28 2.42602 81.2478 2.3256 81.2075C2.02838 81.0989 1.72312 81.0023 1.40982 80.9298C1.30138 80.9057 1.1889 80.8815 1.07644 80.8694C0.984059 80.8493 0.891685 80.8332 0.795287 80.8251C0.654707 80.801 0.510107 80.7849 0.36551 80.7768C0.245013 80.7607 0.124514 80.7567 0 80.7527V73.3504C0.526172 73.3343 1.03628 73.2619 1.53032 73.1411C2.43405 72.9238 3.2695 72.5293 4.00855 72.002C4.22143 71.8531 4.42226 71.688 4.61506 71.515C4.71145 71.4304 4.80784 71.3419 4.89621 71.2493C4.96449 71.1889 5.02474 71.1245 5.08499 71.0561C5.09302 71.048 5.09703 71.04 5.10507 71.0319C5.1131 71.0279 5.11712 71.0199 5.12114 71.0158C5.1613 70.9756 5.19745 70.9353 5.2336 70.8911C5.2818 70.8428 5.32599 70.7904 5.36615 70.7381C5.4264 70.6697 5.48263 70.5972 5.53484 70.5248C5.63526 70.4 5.72764 70.2712 5.81601 70.1343C5.86421 70.0619 5.91241 69.9894 5.95659 69.913C5.96061 69.9049 5.96462 69.9009 5.96864 69.8928C6.01684 69.8163 6.06503 69.7399 6.10921 69.6553C6.11323 69.6473 6.11726 69.6433 6.12127 69.6352C6.16545 69.5587 6.20562 69.4823 6.24579 69.4018C6.28997 69.3172 6.33013 69.2327 6.3703 69.1441C6.3703 69.1361 6.37029 69.1321 6.37833 69.124C6.40243 69.0757 6.42653 69.0234 6.44661 68.9711C6.47071 68.9187 6.49079 68.8664 6.51087 68.8141C6.55505 68.7094 6.59522 68.6008 6.63137 68.4921C6.64342 68.4639 6.65146 68.4357 6.65949 68.4075C6.69163 68.323 6.71973 68.2345 6.73982 68.1459C6.75187 68.1137 6.7599 68.0775 6.76794 68.0453C6.76794 68.0372 6.77196 68.0332 6.77196 68.0252C6.79606 67.9527 6.81614 67.8802 6.8322 67.8078C6.84827 67.7434 6.86433 67.679 6.87638 67.6106C6.88843 67.5542 6.90048 67.4938 6.91253 67.4335C6.92458 67.357 6.93664 67.2765 6.94869 67.196C6.96074 67.1316 6.96877 67.0672 6.97279 67.0028C6.97279 66.9867 6.98081 66.9746 6.98081 66.9585C6.99286 66.8699 7.0009 66.7814 7.00893 66.6888C7.02098 66.5841 7.02499 66.4714 7.02901 66.3628C7.03704 66.2823 7.03705 66.1937 7.03705 66.1092C7.03705 65.9844 7.03303 65.8596 7.02901 65.7389C7.02499 65.6262 7.01696 65.5054 7.00491 65.3887C6.94466 64.648 6.77195 63.9436 6.50284 63.2795C5.44246 60.6994 2.94013 58.8679 0 58.7874V51.3852C0.823398 51.365 1.60663 51.2 2.33363 50.9223C2.40995 50.8981 2.48626 50.8699 2.55856 50.8377C2.72324 50.7693 2.88391 50.6968 3.04055 50.6204C4.55882 49.8596 5.77183 48.5796 6.44661 47.0138C6.68359 46.4865 6.84827 45.915 6.93664 45.3273C7.00894 44.9449 7.03705 44.5464 7.03705 44.1399C7.03705 40.1952 3.90813 36.9992 0 36.8865V29.4078C0.819382 29.3877 1.59057 29.2267 2.3256 28.957C5.07696 27.9426 7.03705 25.282 7.03705 22.1665C7.03705 21.1965 6.84827 20.2586 6.50284 19.4174C5.44246 16.8332 2.94013 15.0018 0 14.9213V7.46667C0.108448 7.46667 0.208869 7.46667 0.321334 7.45459C0.433798 7.44654 0.554293 7.44252 0.670774 7.42642C4.32184 7.05208 7.17361 3.96478 7.17361 0.205287C7.17361 0.140884 7.16156 0.0724568 7.16156 0.00402909H14.6203C14.6203 0.0724568 14.6163 0.140884 14.6163 0.205287C14.6163 4.10969 17.689 7.29761 21.5489 7.45459C21.6494 7.46264 21.7578 7.46667 21.8582 7.46667H21.9225C25.8909 7.42642 29.0921 4.19019 29.0921 0.205287C29.0921 0.140884 29.08 0.0724568 29.08 0.00402909H36.5468C36.5468 0.0724568 36.5348 0.140884 36.5348 0.205287C36.5348 0.575601 36.5669 0.929814 36.6191 1.28C37.1132 4.65308 39.9328 7.26943 43.3871 7.45459C43.5116 7.46264 43.6482 7.46667 43.7767 7.46667H43.8048C43.9253 7.46667 44.0378 7.46667 44.1583 7.45057C44.2386 7.44654 44.3149 7.44252 44.3912 7.43849C44.4756 7.43044 44.5519 7.42239 44.6322 7.41434C44.7527 7.39421 44.8692 7.37812 44.9937 7.36202C45.1142 7.34189 45.2347 7.31774 45.3472 7.28956C46.046 7.1366 46.7048 6.88302 47.3073 6.54491C47.9419 6.18667 48.5162 5.73988 49.0103 5.21661C50.2514 3.92051 51.0186 2.15346 51.0186 0.205287C51.0186 0.140884 51.0105 0.0724568 51.0105 0.00402909H58.4733C58.4733 0.0724568 58.4613 0.140884 58.4613 0.205287C58.4613 3.96478 61.309 7.05208 64.9641 7.42642C65.0525 7.43849 65.1409 7.44251 65.2292 7.44654C65.2774 7.45057 65.3256 7.45459 65.3698 7.45459C65.4782 7.46264 65.5907 7.46667 65.7032 7.46667C65.8156 7.46667 65.9321 7.46667 66.0526 7.45057C66.1731 7.45057 66.2896 7.44252 66.4061 7.42239C66.4181 7.42642 66.4302 7.42642 66.4422 7.42239C66.8158 7.39019 67.1773 7.32176 67.5307 7.22918C68.2417 7.04403 68.9164 6.74616 69.531 6.35975C71.5794 5.07975 72.9451 2.80151 72.9451 0.205287C72.9451 0.140884 72.933 0.0724568 72.929 0.00402909H80.3878C80.3878 0.0724568 80.3838 0.140884 80.3838 0.205287C80.3838 3.0873 82.0587 5.57484 84.4847 6.75019C84.6494 6.82667 84.8141 6.9112 84.9868 6.97157C85.0751 7.0078 85.1595 7.04 85.2519 7.06818C85.3764 7.11648 85.5049 7.1527 85.6334 7.18893C85.8062 7.24126 85.9789 7.28554 86.1556 7.31774C86.2801 7.34189 86.4086 7.36604 86.5372 7.39019C86.6376 7.39824 86.738 7.41434 86.8384 7.42239C86.8545 7.42239 86.8665 7.42642 86.8826 7.42642C87.0031 7.44252 87.1196 7.44654 87.2441 7.45459H87.2561C87.3646 7.46264 87.477 7.46667 87.5895 7.46667H87.6216C87.7421 7.46667 87.8626 7.46667 87.9711 7.45459C91.8069 7.27346 94.8635 4.09761 94.8635 0.205287C94.8635 0.140884 94.8515 0.0724568 94.8515 0.00402909H102.318C102.314 0.0724568 102.306 0.140884 102.306 0.205287C102.306 2.69283 103.555 4.88654 105.463 6.19472C105.933 6.52478 106.447 6.79044 106.998 6.99572C107.343 7.12855 107.696 7.22918 108.062 7.30969C108.074 7.30969 108.09 7.31774 108.106 7.31774C108.271 7.34994 108.444 7.38616 108.616 7.40226C108.809 7.42641 109.01 7.44654 109.211 7.45459C109.323 7.46264 109.436 7.46667 109.548 7.46667C109.661 7.46667 109.773 7.46667 109.886 7.45459C113.725 7.27749 116.79 4.09761 116.79 0.205287C116.79 0.140884 116.778 0.0724568 116.774 0.00402909H124.237C124.237 0.0724568 124.229 0.140884 124.229 0.205287C124.229 1.79522 124.743 3.26843 125.602 4.46793C125.952 4.94692 126.353 5.37761 126.803 5.75598C127.486 6.3356 128.285 6.79044 129.153 7.0883C129.161 7.0883 129.165 7.08831 129.177 7.09233C129.33 7.14466 129.49 7.19296 129.651 7.23724C129.655 7.23724 129.663 7.23724 129.667 7.23724C129.715 7.24529 129.768 7.26138 129.816 7.26541C129.944 7.29761 130.081 7.32579 130.217 7.34994C130.229 7.35799 130.242 7.35799 130.254 7.36202C130.438 7.38617 130.623 7.41434 130.812 7.43447C130.92 7.43447 131.025 7.44654 131.141 7.45057C131.25 7.45862 131.358 7.46264 131.471 7.46264C131.583 7.46264 131.7 7.46264 131.812 7.45057C135.644 7.27346 138.704 4.09358 138.704 0.201258C138.704 0.136855 138.704 0.0684277 138.704 0H146.163C146.163 0.0684277 146.159 0.136855 146.159 0.201258C146.159 1.00629 146.288 1.78315 146.537 2.50768C146.734 3.10743 147.003 3.66692 147.344 4.18617C148.3 5.65132 149.774 6.74214 151.501 7.21308C151.517 7.21308 151.533 7.21711 151.55 7.22113H151.562C151.758 7.28151 151.963 7.31774 152.172 7.34994C152.276 7.37007 152.377 7.39019 152.485 7.40629C152.578 7.41434 152.666 7.41837 152.762 7.42642C152.863 7.43849 152.959 7.44252 153.06 7.45057C153.16 7.45862 153.261 7.46264 153.361 7.46264H153.393C157.398 7.46264 160.639 4.20629 160.639 0.201258C160.639 0.136855 160.623 0.0684277 160.623 0H168.094C168.09 0.0684277 168.078 0.136855 168.078 0.201258C168.078 0.330063 168.082 0.462894 168.09 0.591699C168.126 1.28 168.254 1.9522 168.475 2.58013C169.251 4.81811 171.086 6.55698 173.376 7.19296C173.42 7.20906 173.46 7.21309 173.5 7.22516C173.584 7.24931 173.677 7.26943 173.769 7.28956C173.882 7.31371 173.99 7.34189 174.107 7.36202C174.215 7.38214 174.328 7.39421 174.44 7.41032C174.532 7.41837 174.633 7.42642 174.729 7.43849C174.818 7.44252 174.902 7.44654 174.982 7.45057C175.099 7.45862 175.207 7.46264 175.32 7.46264C175.412 7.46264 175.512 7.46264 175.613 7.45057C179.473 7.29761 182.561 4.11371 182.561 0.201258C182.561 0.136855 182.553 0.0684277 182.549 0H190.012C190.012 0.0684277 190.004 0.136855 190.004 0.201258C190.004 0.495094 190.02 0.772834 190.048 1.0546C190.462 4.54843 193.342 7.28554 196.897 7.45057C197.009 7.45862 197.126 7.46264 197.242 7.46264C197.451 7.46264 197.668 7.45057 197.877 7.43447C197.889 7.43447 197.905 7.42642 197.917 7.42642C198.27 7.39422 198.62 7.33786 198.957 7.24931C199.062 7.22516 199.174 7.19296 199.278 7.16076C201.291 6.58113 202.934 5.1361 203.801 3.26843C204.239 2.33862 204.48 1.30013 204.48 0.201258C204.48 0.136855 204.48 0.0684277 204.48 0H211.939C211.939 0.0684277 211.927 0.136855 211.927 0.201258C211.927 3.43748 214.035 6.16654 216.947 7.11245C216.984 7.1205 217.016 7.13661 217.048 7.14063C217.172 7.18491 217.301 7.21308 217.429 7.24528C217.61 7.28956 217.791 7.33384 217.98 7.36202C218.092 7.38617 218.213 7.39824 218.333 7.41434C218.606 7.44251 218.887 7.46264 219.169 7.46264C219.269 7.46264 219.369 7.46264 219.474 7.45057C219.494 7.45057 219.51 7.44654 219.53 7.44654C219.61 7.44251 219.695 7.43447 219.775 7.42642H219.783C219.783 7.42642 219.823 7.42642 219.839 7.42239C219.855 7.42239 219.871 7.41837 219.896 7.41837C219.912 7.41837 219.924 7.41434 219.948 7.41434C219.968 7.41434 219.984 7.41032 220 7.40629V14.9132C219.976 14.9132 219.952 14.9132 219.928 14.9172C216.016 15.0098 212.871 18.2179 212.871 22.1625L212.859 22.1545Z" fill="#FAFAF9"/>
<path d="M102.048 141.215C103.502 139.568 104.112 137.624 104.819 136.139C103.63 137.113 103.176 139.182 102.048 141.215ZM125.456 184.038C125.272 183.926 125.103 183.785 124.95 183.62C123.862 182.428 123.717 181.547 123.761 180.806C123.79 180.23 123.93 179.743 123.814 179.264C123.581 178.327 121.111 179.989 119.255 178.632C118.962 178.415 118.68 178.125 118.427 177.731C116.765 175.147 118.809 172.599 118.958 171.625C118.974 171.52 118.97 171.435 118.938 171.371C118.592 170.671 116.672 171.568 115.407 169.862C115.218 169.604 115.078 169.363 114.981 169.133C114.443 167.833 115.27 166.815 115.869 164.492C116.572 161.755 114.495 160.068 111.872 156.148C109.254 152.227 104.863 152.562 97.0954 152.231C89.3233 151.901 83.9973 147.349 81.009 139.657C78.0207 131.969 88.8052 117.885 89.6165 116.182C89.9981 115.377 90.2873 113.582 90.6006 111.827C90.7813 110.801 90.9701 109.786 91.187 108.993C90.9902 109.074 90.8054 109.182 90.6327 109.311C90.0784 109.722 89.7089 111.638 89.3635 113.606C89.0542 115.361 88.761 117.16 88.3794 117.961C87.5681 119.664 76.7836 133.752 79.7719 141.436C82.7602 149.124 88.0902 153.681 95.8583 154.011C103.626 154.341 108.016 154.011 110.635 157.927C113.258 161.848 115.335 163.534 114.632 166.271C114.037 168.598 113.21 169.612 113.744 170.912C113.841 171.142 113.981 171.383 114.17 171.641C115.439 173.347 117.355 172.454 117.7 173.15C117.733 173.219 117.737 173.303 117.721 173.404C117.572 174.382 115.527 176.93 117.19 179.51C117.443 179.904 117.725 180.194 118.018 180.412C119.873 181.768 122.348 180.106 122.577 181.044C122.693 181.523 122.552 182.01 122.524 182.585C122.484 183.322 122.625 184.207 123.713 185.399C123.866 185.564 124.035 185.705 124.219 185.817C126.525 187.262 131.305 184.968 134.719 182.384C134.719 182.384 134.911 181.909 135.116 181.217C131.795 183.531 127.585 185.367 125.46 184.038H125.456ZM133.702 172.554C133.658 172.667 133.63 172.768 133.614 172.852C133.956 172.458 134.281 172.031 134.45 171.52C134.132 171.87 133.843 172.204 133.702 172.55V172.554Z" fill="#F34416"/>
<path d="M86.1951 134.344C86.2835 134.179 86.3759 134.018 86.4723 133.857C86.3719 134.018 86.2795 134.179 86.1951 134.344ZM107.178 123.661C107.338 123.5 107.511 123.335 107.7 123.174C107.511 123.335 107.338 123.496 107.178 123.661ZM107.178 123.661C107.338 123.5 107.511 123.335 107.7 123.174C107.511 123.335 107.338 123.496 107.178 123.661ZM86.4763 133.857C86.3759 134.018 86.2835 134.179 86.1992 134.344C86.2875 134.179 86.3799 134.018 86.4763 133.857ZM128.164 167.402C128.124 167.378 128.096 167.346 128.076 167.306C127.723 166.649 129.293 164.874 129.462 163.2C129.502 162.801 129.462 162.407 129.297 162.037C128.437 160.109 124.168 161.018 122.445 159.09C120.722 157.166 117.846 153.069 119.842 147.144C121.834 141.219 131.631 134.126 127.012 124.768C122.393 115.409 114.359 115.272 111.978 114.801C111.13 114.632 108.957 114.347 106.427 113.94C106.423 113.94 106.419 113.94 106.411 113.94C103.888 113.542 101.016 113.026 98.7469 112.411C96.8993 111.907 95.4574 111.336 94.9352 110.696C94.6059 110.293 94.2886 109.963 93.9833 109.702C93.5816 109.359 93.2001 109.126 92.8386 108.989C92.216 108.752 91.6577 108.784 91.1677 108.989C90.9508 109.778 90.762 110.796 90.5813 111.823C90.272 113.578 89.9788 115.377 89.5972 116.178C88.7858 117.881 78.0013 131.969 80.9897 139.653C83.978 147.341 89.308 151.897 97.076 152.227C104.844 152.557 109.234 152.227 111.853 156.144C114.476 160.064 116.552 161.751 115.85 164.488C115.255 166.815 114.428 167.829 114.962 169.129C115.058 169.358 115.199 169.6 115.388 169.858C116.657 171.564 118.573 170.671 118.918 171.367C118.95 171.435 118.954 171.52 118.938 171.621C118.79 172.599 116.745 175.147 118.408 177.727C118.661 178.121 118.942 178.411 119.236 178.628C121.091 179.985 123.565 178.322 123.794 179.26C123.911 179.739 123.77 180.226 123.742 180.802C123.702 181.539 123.843 182.424 124.931 183.616C125.084 183.781 125.252 183.921 125.437 184.034C127.562 185.362 131.771 183.531 135.093 181.213C135.334 180.403 135.583 179.301 135.551 178.302C135.535 177.65 135.39 177.046 135.041 176.604C134.916 176.443 134.78 176.302 134.647 176.185C133.378 175.046 131.948 175.553 132.442 174.325C132.639 173.83 133.133 173.372 133.595 172.844C133.611 172.756 133.639 172.659 133.683 172.546C133.824 172.196 134.109 171.866 134.43 171.516C134.499 171.323 134.543 171.113 134.551 170.888C134.579 170.337 134.418 169.697 133.944 168.932C132.213 166.126 128.835 167.925 128.144 167.398L128.164 167.402ZM89.2759 123.134C89.3682 123.073 89.4566 123.009 89.549 122.944C90.1274 122.538 90.6415 122.131 91.0914 121.729C91.1677 121.66 91.24 121.592 91.3123 121.527C91.3765 121.467 91.4408 121.407 91.501 121.342C91.5251 121.318 91.5492 121.298 91.5693 121.274C91.6778 121.169 91.7742 121.069 91.8746 120.968C91.9348 120.904 91.9911 120.843 92.0473 120.783C92.1035 120.722 92.1598 120.658 92.212 120.594C92.3204 120.469 92.4249 120.348 92.5213 120.227C92.5695 120.167 92.6177 120.107 92.6618 120.046C92.706 119.986 92.7542 119.925 92.7984 119.865C92.8426 119.805 92.8868 119.744 92.9269 119.688C93.0113 119.571 93.0956 119.451 93.1679 119.334C93.2041 119.277 93.2402 119.221 93.2764 119.169C93.3728 119.012 93.4651 118.855 93.5495 118.702C93.9271 118.018 94.152 117.394 94.2886 116.87C94.3046 116.798 94.3207 116.73 94.3368 116.665C94.3649 116.54 94.389 116.42 94.409 116.311C94.409 116.311 94.409 116.307 94.409 116.303C94.4211 116.238 94.4291 116.178 94.4372 116.118C94.4492 116.017 94.4613 115.924 94.4653 115.84C94.4693 115.792 94.4733 115.747 94.4733 115.707C94.4733 115.675 94.4733 115.647 94.4733 115.619C94.4733 115.598 94.4733 115.578 94.4733 115.558C94.4733 115.357 94.4653 115.248 94.4653 115.248C94.5697 115.341 94.6782 115.429 94.7946 115.51C94.9473 115.623 95.1039 115.727 95.2686 115.824C95.2726 115.824 95.2766 115.832 95.2847 115.832C95.4574 115.937 95.6381 116.025 95.8229 116.106C95.8952 116.138 95.9675 116.17 96.0398 116.198C96.1081 116.226 96.1763 116.255 96.2486 116.279C96.3249 116.303 96.3972 116.327 96.4736 116.355C96.5338 116.375 96.5941 116.395 96.6583 116.412C97.1604 116.556 97.6826 116.649 98.2087 116.697C98.281 116.705 98.3493 116.709 98.4216 116.717C98.522 116.725 98.6265 116.734 98.7309 116.738C98.7992 116.742 98.8715 116.742 98.9397 116.746C99.0281 116.746 99.1165 116.754 99.2008 116.75C99.4579 116.75 99.7149 116.746 99.972 116.738C101.249 116.673 102.466 116.448 103.406 116.222C104.442 115.973 105.145 115.727 105.238 115.691C105.149 115.735 105.061 115.776 104.973 115.82C104.908 115.852 104.844 115.884 104.78 115.92C104.772 115.92 104.764 115.924 104.756 115.933C104.696 115.961 104.635 115.993 104.579 116.025C104.045 116.319 103.579 116.645 103.165 116.995C103.081 117.064 103.001 117.136 102.924 117.209C102.739 117.374 102.567 117.543 102.406 117.716C102.362 117.768 102.314 117.82 102.269 117.873C102.189 117.961 102.117 118.054 102.045 118.142C101.964 118.239 101.892 118.336 101.82 118.432C101.82 118.432 101.812 118.44 101.808 118.448C101.735 118.545 101.667 118.645 101.603 118.742C101.534 118.843 101.47 118.947 101.41 119.048C100.715 120.211 100.37 121.419 100.205 122.445C99.972 123.951 100.121 125.066 100.121 125.066C99.6949 124.707 99.253 124.397 98.8152 124.132C96.7828 122.908 94.6741 122.61 92.8868 122.683C92.7582 122.691 92.6297 122.695 92.5052 122.707C92.4771 122.707 92.4449 122.711 92.4168 122.715C92.3566 122.715 92.2963 122.723 92.2361 122.731C92.1718 122.731 92.1075 122.743 92.0433 122.747C92.0232 122.747 92.0071 122.747 91.9911 122.755C91.8666 122.767 91.742 122.787 91.6215 122.803C89.6936 123.077 88.3802 123.693 88.3802 123.693C88.6894 123.508 88.9826 123.319 89.2598 123.13L89.2759 123.134ZM115.179 150.782V150.798C115.006 151.66 114.982 152.557 115.05 153.419C113.757 152.4 111.596 150.786 109.58 149.651C108.624 149.116 107.407 148.81 106.17 148.649C107.559 146.926 107.447 144.282 107.13 142.426C107.218 142.007 107.262 141.577 107.278 141.15C107.612 141.569 108.057 142.088 108.567 142.615C109.552 143.638 110.789 144.68 111.961 145.014C112.986 145.304 114.492 145.127 115.926 144.813C114.801 146.6 114.841 148.886 115.175 150.782H115.179ZM106.824 133.937C105.884 134.255 105.33 135.084 104.824 136.139C104.113 137.624 103.503 139.564 102.053 141.215C101.081 142.953 99.6105 144.66 96.7427 145.614C90.6053 147.659 86.7695 143.376 85.3838 140.571C85.2191 140.249 85.0946 139.943 84.9982 139.673C84.0784 137.044 83.4277 130.504 89.541 128.101C95.6542 125.698 98.8514 129.751 99.1325 130.459C99.1325 130.459 103.254 130.528 104.197 132.73C104.197 132.73 103.543 129.034 105.487 127.859C105.487 127.859 102.125 122.739 108.989 119.12C113.146 116.927 116.364 118.094 118.681 120.107C120.187 121.419 121.316 123.085 122.075 124.422C122.529 125.223 122.826 126.177 122.955 127.187C123.188 128.99 122.895 130.995 122.027 132.689V132.693C121.461 133.297 120.782 133.812 119.987 134.191C115.641 136.264 109.937 132.87 106.828 133.933L106.824 133.937ZM107.7 123.174C107.511 123.335 107.338 123.496 107.178 123.661C107.338 123.5 107.511 123.335 107.7 123.174ZM86.4763 133.857C86.3759 134.018 86.2835 134.179 86.1992 134.344C86.2875 134.179 86.3799 134.018 86.4763 133.857Z" fill="#FF5729"/>
<path d="M134.676 176.193C133.21 176.298 130.905 176.672 128.294 177.876C125.362 179.228 123.478 181.305 122.53 182.585C122.558 182.01 122.699 181.523 122.582 181.044C122.353 180.106 119.879 181.768 118.023 180.412C118.413 176.801 125.478 171.46 131.101 170.498C132.676 170.228 133.793 170.433 134.584 170.896C134.507 172.466 132.881 173.323 132.475 174.334C131.981 175.565 133.411 175.054 134.68 176.193H134.676Z" fill="#F34416"/>
<path d="M128.085 167.31C128.105 167.35 128.134 167.382 128.174 167.406C126.896 167.869 125.298 168.533 123.41 169.471C120.522 170.912 118.731 172.385 117.719 173.404C117.735 173.299 117.731 173.215 117.699 173.15C117.353 172.45 115.433 173.347 114.168 171.641C113.979 171.383 113.839 171.142 113.742 170.912C114.365 168.698 117.152 165.909 122.37 163.594C125.9 162.029 128.105 162.347 129.471 163.208C129.302 164.882 127.732 166.658 128.085 167.314V167.31Z" fill="#F34416"/>
<path d="M135.574 178.31C135.635 180.158 134.719 182.384 134.719 182.384C131.305 184.968 126.525 187.262 124.22 185.817C123.858 185.153 124.657 183.503 125.039 182.927C125.77 181.82 131.18 177.477 135.57 178.31H135.574Z" fill="#F34416"/>
<path d="M188.823 239.952L189.145 241.763L183.136 244.577L182.814 242.765L188.297 240.197L188.823 239.952Z" fill="#F33C0C"/>
<path d="M154.866 219.21L147.198 224.463L126.854 186.228C127.027 185.753 127.276 185.218 127.63 184.69L128.409 183.732L128.827 183.451L129.979 182.67L130.63 182.227C130.63 182.227 130.638 182.227 130.642 182.223C131.249 181.925 131.823 181.704 132.357 181.563C133.008 181.386 133.598 181.325 134.133 181.35L154.87 219.214L154.866 219.21Z" fill="#F33C0C"/>
<path d="M188.836 239.952L188.31 240.197L182.827 242.765C182.827 242.765 180.678 235.991 176.842 237.629C174.717 238.531 174.842 240.885 175.376 242.805C175.81 244.363 176.509 245.635 176.509 245.635L176.111 245.857L169.717 249.387L158.816 228.568L157.984 226.979L163.29 224.684C163.29 224.684 166.708 231.475 171.821 228.975C173.605 228.102 174.203 226.874 174.227 225.65C174.252 224.539 173.81 223.428 173.344 222.579C172.846 221.673 172.328 221.062 172.328 221.062L177.461 218.908L188.832 239.952H188.836Z" fill="#F8724E"/>
<path d="M182.818 242.765L183.139 244.577C183.139 244.577 180.99 237.802 177.154 239.44C175.676 240.072 175.287 241.405 175.367 242.809C174.833 240.885 174.708 238.535 176.833 237.633C180.669 235.999 182.818 242.769 182.818 242.769V242.765Z" fill="#F33C0C"/>
<path d="M176.504 245.635L176.821 247.446L170.029 251.194L158.297 228.79L158.807 228.568L169.708 249.387L176.102 245.857L176.504 245.635Z" fill="#F33C0C"/>
<path d="M174.228 225.65C173.686 224.097 172.646 222.873 172.646 222.873L172.324 221.062C172.324 221.062 172.842 221.673 173.34 222.579C173.806 223.428 174.248 224.539 174.224 225.65H174.228Z" fill="#F34416"/>
<path d="M159.289 223.191C159.193 224.817 158.389 227.019 155.269 228.782C155.269 228.782 152.007 230.211 149.412 230.038C148.232 229.957 147.187 229.542 146.657 228.5C145.745 226.709 144.002 223.155 150.099 219.451C156.196 215.748 158.968 220.929 158.968 220.929C158.968 220.929 159.365 221.867 159.289 223.191Z" fill="#FF5729"/>
<path d="M159.295 223.191C159.198 224.817 158.395 227.019 155.274 228.782C155.274 228.782 152.013 230.211 149.418 230.038C149.575 228.713 150.366 225.699 154.238 224.274C156.15 223.569 157.881 223.279 159.295 223.195V223.191Z" fill="#F33C0C"/>
<path d="M171.374 250.957C171.374 250.957 173.712 254.929 169.94 256.704C166.164 258.48 164.939 255.078 164.939 255.078C164.939 255.078 151.199 230.151 151.187 229.917C151.175 229.684 151.837 227.86 154.091 226.922C156.34 225.984 158.083 226.214 158.083 226.214L171.378 250.953L171.374 250.957Z" fill="#F33C0C"/>
<path d="M170.786 251.713C170.786 251.713 171.61 253.782 169.453 254.792C167.296 255.803 166.488 255.943 162.861 249.821C159.234 243.695 152.511 229.929 152.511 229.929C152.511 229.929 153.832 227.731 157.315 227.614L170.786 251.717V251.713Z" fill="#F8724E"/>
<path d="M168.019 252.079C168.019 252.079 168.537 252.655 167.818 253.078C167.099 253.5 167.095 252.997 166.642 252.325C166.188 251.653 154.7 231.004 154.7 231.004C154.7 231.004 154.359 230.48 154.921 230.13C155.484 229.78 155.805 230.183 156.13 230.835C156.456 231.487 168.015 252.083 168.015 252.083L168.019 252.079Z" fill="#F78B6E"/>
<path d="M150.903 220.824C148.758 222.032 147.521 221.686 135.046 198.348C132.186 192.998 130.266 189.883 127.627 184.69L128.406 183.732C128.527 183.612 128.651 183.491 128.788 183.382C128.997 183.205 129.218 183.04 129.463 182.887C129.623 182.786 129.78 182.694 129.932 182.601C130.165 182.468 130.398 182.34 130.623 182.227C130.627 182.227 130.631 182.227 130.635 182.223C131.242 181.925 131.816 181.704 132.35 181.563L150.815 215.789C150.815 215.789 153.04 219.613 150.899 220.824H150.903Z" fill="#F75428"/>
<path d="M150.384 223.267C149.986 223.493 149.492 223.521 149.087 223.308C148.745 223.127 148.476 222.813 148.785 222.269C149.4 221.182 151.384 219.854 151.806 220.522C152.187 221.13 152.039 222.338 150.384 223.267Z" fill="#F78B6E"/>
<path d="M147.406 216.513C146.699 217.016 146.659 216.416 146.149 215.611C145.671 214.863 130.311 186.224 128.829 183.45C128.817 183.426 128.805 183.402 128.793 183.382C129.002 183.205 129.223 183.04 129.468 182.887C129.628 182.786 129.785 182.694 129.938 182.601C129.954 182.621 129.966 182.645 129.978 182.67C130.026 182.758 130.074 182.855 130.122 182.955C130.5 183.732 147.534 215.322 147.534 215.322C147.534 215.322 148.105 216.01 147.398 216.513H147.406Z" fill="#F78B6E"/>
<path d="M119.923 139.645C119.807 139.749 118.188 141.239 115.939 144.805C115.939 144.805 115.939 144.813 115.931 144.817C114.497 145.131 112.991 145.308 111.967 145.018C110.191 144.511 108.271 142.382 107.283 141.15C107.392 138.699 106.572 136.316 106.572 136.316C106.572 136.316 109.396 140.341 111.926 141.058C114.409 141.762 119.706 139.725 119.923 139.641V139.645Z" fill="#F34416"/>
<path d="M116.251 154.377C116.19 154.328 115.749 153.958 115.062 153.419C114.993 152.557 115.014 151.66 115.19 150.798C115.54 152.759 116.21 154.284 116.251 154.377Z" fill="#F34416"/>
<path d="M122.955 127.187C123.188 128.99 122.895 130.995 122.027 132.689C122.099 132.428 124.196 124.51 116.95 121.145C116.938 121.145 116.926 121.137 116.914 121.129C114.962 120.336 112.596 120.296 109.804 121.765C109.664 121.837 109.527 121.914 109.395 121.99C109.282 122.055 109.178 122.115 109.073 122.18C108.989 122.232 108.905 122.284 108.824 122.337C108.796 122.357 108.764 122.373 108.74 122.393C108.652 122.453 108.559 122.514 108.475 122.57C108.455 122.586 108.435 122.598 108.419 122.61C108.338 122.667 108.258 122.727 108.182 122.787C108.15 122.807 108.118 122.832 108.089 122.856C108.033 122.896 107.981 122.936 107.929 122.981C107.848 123.041 107.772 123.105 107.7 123.17C107.511 123.331 107.338 123.492 107.178 123.657C107.125 123.709 107.073 123.761 107.025 123.818C106.989 123.858 106.953 123.894 106.917 123.943C106.86 124.003 106.808 124.063 106.756 124.128C106.708 124.184 106.659 124.244 106.615 124.309C106.575 124.361 106.535 124.414 106.495 124.47C106.414 124.579 106.342 124.687 106.278 124.796C106.242 124.848 106.21 124.905 106.182 124.957C106.153 125.001 106.125 125.05 106.101 125.098C105.836 125.593 105.671 126.08 105.579 126.547C105.567 126.595 105.559 126.643 105.551 126.688C105.543 126.72 105.539 126.756 105.535 126.788C105.527 126.845 105.519 126.905 105.511 126.957C105.499 127.07 105.487 127.183 105.487 127.292C105.487 127.34 105.483 127.388 105.483 127.432C105.479 127.529 105.479 127.626 105.483 127.714C105.483 127.75 105.483 127.787 105.483 127.827C105.563 129.385 106.298 130.5 106.298 130.5C106.242 130.536 106.19 130.568 106.137 130.608C106.129 130.612 106.121 130.62 106.113 130.624C106.073 130.653 106.041 130.681 106.005 130.713C105.977 130.733 105.957 130.757 105.932 130.777C105.804 130.882 105.691 131.011 105.603 131.152C105.563 131.216 105.523 131.276 105.487 131.341C105.459 131.385 105.43 131.437 105.402 131.49C105.358 131.578 105.318 131.663 105.282 131.755C105.27 131.788 105.254 131.82 105.246 131.852C105.218 131.92 105.197 131.985 105.173 132.053C105.145 132.138 105.117 132.222 105.097 132.311C105.093 132.327 105.089 132.339 105.085 132.355C105.065 132.436 105.045 132.516 105.029 132.601C105.009 132.693 104.993 132.786 104.981 132.874C104.969 132.943 104.96 133.007 104.952 133.076C104.908 133.418 104.896 133.752 104.9 134.054C104.9 134.114 104.9 134.175 104.9 134.231C104.9 134.239 104.9 134.243 104.9 134.251C104.908 134.537 104.575 134.69 104.362 134.501C102.88 133.156 99.9317 133.108 99.9317 133.108C99.6546 132.395 96.4574 128.342 90.3401 130.749C90.1835 130.814 90.0268 130.874 89.8782 130.946C89.7417 131.007 89.6091 131.071 89.4806 131.14C89.4565 131.148 89.4284 131.164 89.4043 131.18C89.2798 131.24 89.1673 131.309 89.0508 131.373C88.7897 131.526 88.5447 131.691 88.3118 131.86C88.2555 131.904 88.1953 131.945 88.1431 131.989C87.8418 132.226 87.5647 132.48 87.3197 132.742C87.2634 132.802 87.2072 132.866 87.151 132.931C87.0224 133.076 86.9019 133.229 86.7855 133.382C86.7734 133.398 86.7614 133.414 86.7493 133.43C86.7051 133.494 86.6609 133.555 86.6208 133.615C86.5645 133.696 86.5123 133.772 86.4641 133.857C86.3637 134.018 86.2713 134.179 86.187 134.344C86.0986 134.509 86.0183 134.674 85.95 134.843C85.9179 134.915 85.8858 134.992 85.8536 135.068C85.8536 135.076 85.8496 135.084 85.8456 135.092C85.8134 135.173 85.7853 135.253 85.7532 135.334C85.7452 135.354 85.7412 135.37 85.7371 135.39C85.709 135.463 85.6849 135.535 85.6648 135.607C85.6327 135.696 85.6086 135.781 85.5845 135.865C85.5604 135.95 85.5363 136.038 85.5162 136.123C85.472 136.296 85.4319 136.469 85.3997 136.642C85.3797 136.751 85.3596 136.863 85.3435 136.972C85.3274 137.089 85.3074 137.205 85.2953 137.318C85.2792 137.435 85.2672 137.548 85.2592 137.664C85.2511 137.729 85.2471 137.793 85.2431 137.862C85.2431 137.886 85.2391 137.91 85.2391 137.938C85.2391 137.994 85.231 138.055 85.227 138.111C85.227 138.188 85.223 138.268 85.215 138.345V138.353C85.215 138.425 85.215 138.502 85.215 138.578C85.215 138.956 85.231 139.327 85.2632 139.681C85.2792 139.886 85.3033 140.083 85.3315 140.277C85.3435 140.377 85.3596 140.478 85.3756 140.571C85.211 140.248 85.0864 139.943 84.99 139.673C84.0702 137.044 83.4196 130.504 89.5328 128.101C95.646 125.698 98.8432 129.751 99.1244 130.459C99.1244 130.459 102.37 130.516 103.764 132.065C103.888 132.202 104.117 132.102 104.105 131.916C104.033 130.757 104.117 128.688 105.483 127.863C105.483 127.863 102.121 122.743 108.985 119.124C113.142 116.931 116.36 118.098 118.677 120.111C120.183 121.423 121.312 123.089 122.071 124.426C122.525 125.227 122.822 126.181 122.951 127.191L122.955 127.187Z" fill="#F34416"/>
<path fill-rule="evenodd" clip-rule="evenodd" d="M117.279 215.148C117.974 216.416 118.649 217.6 119.3 218.703C119.854 219.649 120.573 220.829 121.461 222.241L118.99 222.543C118.8 222.127 118.575 221.668 118.316 221.164C117.717 221.216 117.029 221.29 116.259 221.384C115.521 221.474 114.863 221.566 114.285 221.658C114.156 222.187 114.033 222.688 113.918 223.162L111.556 223.452L111.552 223.46C111.761 222.848 111.97 222.201 112.187 221.517C112.399 220.836 112.604 220.164 112.801 219.504C113.21 218.103 113.572 216.791 113.89 215.567C114.367 215.567 114.958 215.531 115.656 215.45C116.355 215.37 116.898 215.273 117.279 215.148ZM115.679 216.491C115.518 216.908 115.212 217.998 114.757 219.766C114.706 219.969 114.655 220.173 114.604 220.375C115.078 220.338 115.606 220.286 116.183 220.216C116.738 220.148 117.245 220.073 117.702 219.999C117.283 219.22 116.89 218.509 116.524 217.861C116.139 217.19 115.858 216.735 115.679 216.491Z" fill="#FF5729"/>
<path d="M101.916 215.881C103.631 215.933 105.142 215.966 106.455 215.97C107.768 215.974 109.279 215.957 110.994 215.917C110.946 216.199 110.922 216.481 110.922 216.763C110.922 217.045 110.941 217.327 110.989 217.608C110.487 217.508 109.965 217.423 109.423 217.366C108.881 217.306 108.242 217.27 107.507 217.254C107.471 218.292 107.46 219.419 107.476 220.635C107.492 221.85 107.528 222.788 107.584 223.452L105.274 223.444H105.271C105.335 222.772 105.371 221.83 105.387 220.61C105.403 219.391 105.394 218.272 105.366 217.246C104.635 217.258 104.001 217.291 103.463 217.343C102.925 217.399 102.406 217.475 101.908 217.571C101.964 217.29 101.992 217.008 101.992 216.727C101.992 216.445 101.968 216.163 101.916 215.881Z" fill="#FF5729"/>
<path d="M94.7051 214.996C95.1026 215.101 95.4962 215.181 95.8857 215.23C96.2754 215.278 96.6373 215.285 96.9707 215.257C96.8422 215.909 96.6977 216.876 96.541 218.144C96.3764 219.464 96.2635 220.554 96.1992 221.428C97.0185 221.512 98.0908 221.589 99.416 221.649C100.746 221.71 101.67 221.701 102.2 221.629C102.132 221.991 102.084 222.31 102.052 222.575C102.02 222.841 102.003 223.127 101.995 223.429L93.8535 222.498V222.494C94.0503 221.247 94.2188 219.999 94.3594 218.751C94.4999 217.499 94.6167 216.252 94.7051 214.996Z" fill="#FF5729"/>
<path fill-rule="evenodd" clip-rule="evenodd" d="M86.6318 213.035C87.0736 213.216 87.6358 213.402 88.3145 213.591C88.9933 213.78 89.5319 213.889 89.9336 213.921C90.1063 215.354 90.2866 216.707 90.4834 217.975C90.644 219.057 90.8728 220.422 91.1699 222.064L88.7646 221.42C88.7437 220.96 88.7044 220.447 88.6514 219.879C88.0764 219.703 87.412 219.512 86.6602 219.311C85.9497 219.119 85.3083 218.961 84.7422 218.828C84.4233 219.274 84.1195 219.699 83.832 220.1L81.5342 219.483L81.5186 219.476C81.9402 218.985 82.3782 218.462 82.832 217.91C83.2859 217.359 83.7235 216.811 84.1533 216.275C85.057 215.128 85.8808 214.05 86.6318 213.035ZM87.9502 214.575C87.6456 214.903 86.9553 215.798 85.877 217.262C85.7546 217.429 85.6342 217.597 85.5137 217.763C85.9639 217.905 86.469 218.05 87.0254 218.199C87.5667 218.344 88.0634 218.464 88.5146 218.566C88.4185 217.693 88.3216 216.888 88.2227 216.155C88.1197 215.392 88.0237 214.866 87.9502 214.575Z" fill="#FF5729"/>
<path d="M124.136 221.657H124.128L124.135 221.654L124.136 221.657Z" fill="#FF5729"/>
<path fill-rule="evenodd" clip-rule="evenodd" d="M126.369 213.148C127.787 212.75 128.884 212.633 129.655 212.794C130.426 212.959 130.916 213.402 131.117 214.122C131.27 214.67 131.217 215.157 130.956 215.579C130.695 216.002 130.35 216.34 129.92 216.598C129.49 216.855 129.084 217.037 128.694 217.146L128.739 217.302C129.659 217.217 130.463 217.379 131.149 217.789C131.832 218.2 132.406 218.671 132.868 219.202L130.093 219.982C129.872 219.411 129.606 218.973 129.297 218.667C128.988 218.361 128.615 218.164 128.173 218.083C127.735 218.003 127.192 218.019 126.55 218.136C126.389 218.16 126.212 218.196 126.023 218.24C125.831 218.289 125.638 218.336 125.445 218.393C125.735 219.331 125.899 219.863 125.943 219.987C126.004 220.18 126.068 220.361 126.132 220.53C126.196 220.699 126.261 220.868 126.321 221.041L124.135 221.654C123.97 220.797 123.67 219.574 123.225 217.994C122.783 216.412 122.409 215.209 122.1 214.392C122.586 214.263 123.035 214.138 123.453 214.022C123.867 213.905 124.269 213.784 124.65 213.663C124.919 213.575 125.193 213.49 125.474 213.405C125.755 213.321 126.056 213.237 126.369 213.148ZM128.281 214.283C127.872 214.215 127.333 214.279 126.671 214.464C126.426 214.532 126.18 214.601 125.943 214.674C125.702 214.746 125.474 214.818 125.261 214.891L124.565 215.097C124.642 215.423 124.726 215.761 124.818 216.107C124.907 216.453 125.008 216.815 125.112 217.19L125.108 217.193L125.57 217.093C125.819 217.037 126.084 216.977 126.369 216.912C126.654 216.848 126.931 216.775 127.2 216.698C127.678 216.565 128.064 216.408 128.365 216.235C128.666 216.062 128.872 215.865 128.988 215.648C129.105 215.43 129.125 215.193 129.053 214.936C128.948 214.565 128.691 214.352 128.281 214.283Z" fill="#FF5729"/>
<path fill-rule="evenodd" clip-rule="evenodd" d="M75.3789 208.716C75.7765 208.889 76.1587 209.05 76.5322 209.203C76.7932 209.304 77.0621 209.413 77.3311 209.529C77.6 209.646 77.8894 209.771 78.1865 209.899C79.536 210.495 80.4561 211.099 80.9502 211.715C81.4442 212.331 81.5404 212.983 81.2393 213.671C81.0104 214.194 80.6612 214.532 80.1914 214.693C79.7215 214.854 79.2392 214.895 78.7451 214.822C78.2512 214.746 77.8216 214.629 77.4521 214.468L77.3877 214.617C78.1548 215.136 78.6733 215.777 78.9424 216.529C79.2114 217.282 79.3559 218.011 79.376 218.715L76.7373 217.552C76.926 216.968 76.9982 216.461 76.9541 216.026C76.9099 215.592 76.7452 215.205 76.4561 214.862C76.1669 214.52 75.7371 214.19 75.1709 213.872C75.0303 213.788 74.8731 213.704 74.6924 213.619C74.5157 213.535 74.3351 213.45 74.1504 213.369C73.7809 214.275 73.5716 214.794 73.5234 214.919C73.4472 215.104 73.3833 215.285 73.3271 215.458C73.2709 215.631 73.2106 215.805 73.1504 215.974L71.0615 215.056L71.0732 215.048C71.491 214.279 72.0298 213.144 72.6885 211.639C73.3472 210.133 73.8214 208.966 74.1025 208.141C74.5601 208.35 74.9855 208.539 75.3789 208.716ZM75.5557 210.254C75.4071 210.556 75.2589 210.87 75.1104 211.195C74.9618 211.521 74.8089 211.864 74.6523 212.218L75.0703 212.436C75.2991 212.552 75.5398 212.673 75.8047 212.802C76.0657 212.931 76.323 213.051 76.584 213.168C77.0379 213.369 77.4359 213.494 77.7773 213.551C78.1187 213.607 78.404 213.587 78.6289 213.494C78.8578 213.402 79.0264 213.228 79.1309 212.982C79.2833 212.632 79.2233 212.302 78.9463 211.988C78.6691 211.674 78.2145 211.381 77.584 211.104C77.3511 211.003 77.1185 210.901 76.8896 210.801C76.6607 210.7 76.4355 210.616 76.2227 210.535L75.5557 210.254Z" fill="#FF5729"/>
<path fill-rule="evenodd" clip-rule="evenodd" d="M65.6182 202.94C65.8792 203.101 66.145 203.267 66.4141 203.428C66.7634 203.641 67.1291 203.87 67.5186 204.111C67.908 204.357 68.3256 204.623 68.7793 204.908C69.8477 205.589 70.5707 206.229 70.9482 206.833C71.3257 207.437 71.3425 208.016 70.9893 208.567C70.6841 209.05 70.27 209.28 69.748 209.26C69.2259 209.24 68.635 209.039 67.9844 208.656L67.9043 208.785C68.6512 209.284 69.1652 209.803 69.4463 210.347C69.7314 210.89 69.7074 211.421 69.374 211.94C69.0768 212.411 68.6591 212.657 68.1289 212.677C67.5948 212.701 67.0326 212.585 66.4463 212.327C65.8599 212.074 65.2489 211.743 64.6143 211.341C64.1445 211.043 63.7111 210.757 63.3096 210.491C62.9079 210.222 62.5496 209.98 62.2363 209.767C62.0036 209.61 61.7709 209.453 61.5342 209.296C61.3025 209.14 61.0582 208.98 60.8066 208.82C61.3368 208.124 62.0404 207.082 62.9199 205.697C63.7994 204.309 64.4421 203.23 64.8438 202.453C65.0966 202.614 65.3572 202.78 65.6182 202.94ZM64.2646 207.364C64.1122 207.606 63.9561 207.855 63.8076 208.108C63.6551 208.362 63.5103 208.604 63.3818 208.837C63.6629 209.03 63.9601 209.235 64.2773 209.44C64.5906 209.65 64.9842 209.903 65.4541 210.201C66.0524 210.583 66.522 210.773 66.8594 210.773C67.1968 210.773 67.4459 210.648 67.6025 210.398C67.7309 210.193 67.7153 209.956 67.5469 209.679C67.3822 209.401 67.0005 209.075 66.4102 208.696C66.0327 208.455 65.663 208.221 65.3057 208C64.9482 207.775 64.6028 207.561 64.2734 207.359L64.2646 207.364ZM65.4141 205.524C65.2413 205.786 65.0643 206.06 64.8916 206.35H64.8955C65.2209 206.575 65.5626 206.801 65.916 207.03C66.2694 207.26 66.6352 207.497 67.0166 207.734C67.4664 208.02 67.8519 208.169 68.1611 208.177C68.4744 208.185 68.7199 208.052 68.8926 207.774C69.0772 207.485 69.0928 207.207 68.9443 206.938C68.7958 206.668 68.4986 206.39 68.0449 206.105C67.571 205.803 67.1367 205.529 66.7471 205.283C66.3534 205.038 66.0805 204.868 65.9238 204.775C65.7592 205.013 65.5868 205.263 65.4141 205.524Z" fill="#FF5729"/>
<path d="M61.1309 199.422C61.4079 199.72 61.6923 199.99 61.9814 200.232C62.2746 200.473 62.584 200.679 62.9053 200.852C62.2908 201.5 61.4712 202.47 60.4512 203.762C59.4273 205.049 58.6845 206.051 58.2227 206.76L56.4189 205.312C57.0214 204.676 57.8331 203.718 58.8613 202.438C59.8856 201.154 60.6449 200.15 61.1309 199.422Z" fill="#FF5729"/>
<path fill-rule="evenodd" clip-rule="evenodd" d="M159.268 193.867C160.023 193.646 160.661 193.803 161.184 194.347C161.577 194.757 161.762 195.212 161.729 195.707C161.697 196.202 161.557 196.665 161.296 197.096C161.039 197.526 160.766 197.881 160.477 198.158L160.589 198.275C161.36 197.764 162.148 197.526 162.943 197.563C163.738 197.599 164.465 197.744 165.124 197.993L163.047 199.994C162.581 199.596 162.139 199.334 161.726 199.209C161.308 199.084 160.886 199.092 160.461 199.225C160.035 199.362 159.565 199.636 159.055 200.042C158.926 200.139 158.786 200.256 158.642 200.389C158.493 200.522 158.348 200.658 158.203 200.795C158.898 201.483 159.296 201.873 159.396 201.962C159.541 202.103 159.682 202.232 159.818 202.353C159.955 202.473 160.091 202.59 160.228 202.711L158.585 204.293L158.581 204.297C158.031 203.617 157.187 202.686 156.051 201.499C154.914 200.316 154.018 199.434 153.359 198.855C153.725 198.512 154.067 198.191 154.376 197.889C154.689 197.587 154.983 197.293 155.264 197.007C155.456 196.802 155.657 196.597 155.87 196.388C156.079 196.183 156.303 195.965 156.54 195.735C157.6 194.713 158.512 194.089 159.268 193.867ZM159.75 196.041C159.485 195.767 159.155 195.695 158.762 195.832C158.368 195.969 157.922 196.279 157.428 196.758C157.243 196.935 157.062 197.112 156.886 197.289C156.709 197.466 156.54 197.639 156.384 197.804L155.87 198.315C156.091 198.565 156.324 198.822 156.568 199.088C156.812 199.348 157.064 199.62 157.332 199.9L157.693 199.596C157.886 199.431 158.091 199.249 158.312 199.056C158.532 198.863 158.742 198.67 158.946 198.473C159.304 198.131 159.573 197.808 159.754 197.515C159.935 197.221 160.027 196.947 160.027 196.701C160.027 196.456 159.935 196.234 159.75 196.041Z" fill="#FF5729"/>
<path d="M51.5693 192.479C52.2882 192.37 53.0354 192.499 53.8145 192.865C54.5936 193.232 55.377 193.812 56.1602 194.608C56.6822 195.14 57.1886 195.748 57.6826 196.432C58.1766 197.116 58.5738 197.833 58.875 198.581C58.5658 198.811 58.2964 199.04 58.0635 199.27C57.8306 199.499 57.6465 199.717 57.502 199.926C57.3453 199.185 57.06 198.436 56.6504 197.684C56.2408 196.931 55.7304 196.243 55.124 195.631C54.6501 195.148 54.1678 194.801 53.6777 194.592C53.1877 194.383 52.7213 194.318 52.2715 194.391C51.8218 194.467 51.4199 194.681 51.0625 195.035C50.7052 195.389 50.4803 195.788 50.3799 196.234C50.2795 196.681 50.3241 197.144 50.5088 197.631C50.6895 198.114 51.011 198.589 51.4648 199.052C51.8744 199.466 52.3561 199.808 52.9102 200.082C53.4644 200.352 54.0718 200.437 54.7305 200.332C54.5457 200.147 54.3606 199.962 54.1719 199.773C53.9831 199.587 53.7942 199.406 53.6055 199.237C53.24 198.883 52.8984 198.573 52.5811 198.299C52.2639 198.025 52.0149 197.828 51.8262 197.703C52.0269 197.57 52.2315 197.393 52.4482 197.164C52.6651 196.935 52.8588 196.702 53.0234 196.46C53.6299 197.14 54.2845 197.84 54.9873 198.553C55.6902 199.265 56.3605 199.914 56.9951 200.489C56.7382 200.678 56.4612 200.92 56.1641 201.214C55.8669 201.508 55.6095 201.797 55.3887 202.083C54.6176 202.244 53.7822 202.135 52.8906 201.757C51.999 201.379 51.1834 200.811 50.4443 200.063L50.4648 200.055C49.6816 199.262 49.131 198.472 48.8057 197.688C48.4803 196.899 48.3877 196.154 48.5283 195.445C48.6649 194.737 49.0224 194.101 49.5928 193.533C50.1912 192.938 50.8504 192.587 51.5693 192.479Z" fill="#FF5729"/>
<path d="M167.073 195.732H167.069L167.07 195.729L167.073 195.732Z" fill="#FF5729"/>
<path d="M166.229 184.522C166.45 184.727 166.684 184.923 166.925 185.108C167.166 185.293 167.414 185.471 167.667 185.632C167.426 185.813 167.133 186.075 166.78 186.425C166.427 186.775 166.041 187.182 165.623 187.648C165.221 188.107 164.831 188.562 164.462 189.009C164.092 189.456 163.776 189.855 163.519 190.205C163.755 190.406 163.993 190.599 164.233 190.792C164.474 190.985 164.715 191.175 164.964 191.356C165.514 190.671 166.101 189.899 166.716 189.037C167.33 188.176 167.817 187.464 168.17 186.908C168.347 187.077 168.535 187.243 168.74 187.399C168.945 187.56 169.154 187.701 169.362 187.83C168.912 188.329 168.35 188.99 167.676 189.807C167.005 190.628 166.414 191.385 165.908 192.089C166.458 192.516 166.945 192.87 167.362 193.148C167.66 192.773 167.977 192.35 168.314 191.875C168.652 191.4 168.977 190.925 169.282 190.45C169.612 189.959 169.9 189.492 170.149 189.058C170.402 188.623 170.584 188.26 170.7 187.979C170.921 188.184 171.158 188.381 171.407 188.574C171.656 188.767 171.909 188.945 172.162 189.11L167.07 195.729C166.428 195.137 165.457 194.341 164.157 193.34C162.86 192.338 161.839 191.597 161.108 191.122C161.285 190.945 161.61 190.571 162.084 189.995C162.558 189.42 163.057 188.796 163.587 188.12C164.193 187.343 164.731 186.634 165.205 185.99C165.679 185.346 166.021 184.86 166.229 184.522Z" fill="#FF5729"/>
<path d="M44.2168 179.297C44.3213 179.522 44.5668 179.957 44.9443 180.597C45.3259 181.237 45.7434 181.921 46.1973 182.646C46.7234 183.479 47.2056 184.228 47.6475 184.892C48.0892 185.556 48.4346 186.043 48.6836 186.357C48.4145 186.497 48.1535 186.651 47.8965 186.812C47.6394 186.977 47.3903 187.15 47.1533 187.335C47.065 187.049 46.9209 186.678 46.708 186.228C46.4992 185.777 46.2453 185.274 45.9521 184.723C45.6589 184.187 45.3616 183.668 45.0684 183.169C44.7712 182.67 44.5065 182.239 44.2656 181.873C44.0006 182.026 43.7348 182.187 43.4697 182.344C43.2049 182.505 42.9482 182.67 42.6914 182.843C43.1452 183.595 43.675 184.405 44.2734 185.278C44.8758 186.152 45.3777 186.848 45.7793 187.371C45.5625 187.48 45.3417 187.604 45.125 187.745C44.9042 187.886 44.6994 188.031 44.5107 188.184C44.1935 187.588 43.7677 186.835 43.2256 185.926C42.6833 185.016 42.1686 184.203 41.6826 183.486C41.0962 183.861 40.5979 184.199 40.1963 184.497C40.4453 184.904 40.739 185.346 41.0684 185.825C41.3976 186.304 41.7349 186.771 42.0762 187.222C42.4256 187.697 42.7675 188.127 43.0928 188.514C43.418 188.9 43.695 189.194 43.9199 189.399C43.6509 189.54 43.3861 189.693 43.1211 189.862C42.856 190.031 42.6022 190.208 42.3652 190.394L37.8789 183.357C38.6496 182.951 39.7275 182.304 41.1045 181.422C42.4859 180.537 43.5219 179.828 44.2168 179.297Z" fill="#FF5729"/>
<path d="M172.634 174.547C172.943 174.776 173.24 174.974 173.521 175.131C173.806 175.288 174.068 175.404 174.309 175.484C173.646 175.847 173.011 176.33 172.404 176.941C171.798 177.549 171.288 178.234 170.874 178.99C170.549 179.586 170.356 180.146 170.296 180.677C170.236 181.204 170.304 181.676 170.505 182.082C170.706 182.489 171.023 182.814 171.465 183.056C171.906 183.297 172.352 183.402 172.806 183.37C173.26 183.338 173.694 183.165 174.104 182.851C174.517 182.537 174.879 182.098 175.192 181.526C175.473 181.015 175.662 180.456 175.767 179.844C175.871 179.232 175.775 178.628 175.485 178.024C175.361 178.254 175.236 178.487 175.111 178.721C174.987 178.954 174.87 179.188 174.758 179.417C174.525 179.872 174.324 180.287 174.151 180.669C173.983 181.051 173.862 181.349 173.798 181.566C173.613 181.414 173.384 181.265 173.104 181.12C172.822 180.975 172.545 180.858 172.264 180.766C172.742 179.989 173.224 179.16 173.706 178.282C174.188 177.405 174.614 176.576 174.987 175.799C175.24 175.992 175.55 176.189 175.915 176.391C176.284 176.592 176.634 176.757 176.967 176.89C177.34 177.586 177.474 178.415 177.365 179.381C177.257 180.347 176.947 181.293 176.441 182.215L176.438 182.211C175.903 183.189 175.304 183.941 174.646 184.477C173.987 185.012 173.296 185.314 172.581 185.383C171.866 185.451 171.155 185.29 170.448 184.903C169.709 184.497 169.187 183.966 168.878 183.306C168.569 182.646 168.48 181.892 168.608 181.039C168.737 180.186 169.071 179.268 169.609 178.29C169.967 177.638 170.404 176.978 170.918 176.306C171.432 175.634 172.007 175.05 172.634 174.547Z" fill="#FF5729"/>
<path d="M37.8789 183.357C37.8762 183.359 37.8737 183.361 37.8711 183.362V183.346L37.8789 183.357Z" fill="#FF5729"/>
<path d="M39.4766 169.076C39.5769 169.45 39.6973 169.805 39.8418 170.135C39.9864 170.469 40.1586 170.78 40.3594 171.073C39.5991 171.338 38.5717 171.758 37.2793 172.33C37.551 173.087 37.8626 173.869 38.2148 174.672C38.5211 175.365 38.8401 176.028 39.168 176.664C40.4773 176.077 41.4833 175.593 42.1836 175.211C42.284 175.585 42.4042 175.94 42.5488 176.27C42.6934 176.604 42.8666 176.913 43.0674 177.207C42.2239 177.501 41.0508 177.984 39.5527 178.656C38.0505 179.329 36.9334 179.872 36.1943 180.291L35.2988 178.266V178.262C35.9595 178.034 36.8321 177.683 37.9199 177.214C37.6761 176.551 37.4064 175.876 37.1025 175.19C36.7466 174.388 36.3745 173.629 35.9902 172.91C34.9116 173.407 34.0785 173.821 33.4873 174.156L32.5918 172.132C33.4192 171.846 34.58 171.371 36.0781 170.707C37.5763 170.043 38.7094 169.499 39.4766 169.076Z" fill="#FF5729"/>
<path d="M173.652 170.023C174.448 170.425 175.613 170.936 177.135 171.548C178.661 172.16 179.83 172.591 180.642 172.832L179.773 174.978C178.994 174.583 177.845 174.072 176.327 173.456C174.809 172.836 173.632 172.397 172.797 172.14C173.002 171.79 173.179 171.439 173.323 171.089C173.468 170.739 173.58 170.385 173.652 170.023Z" fill="#FF5729"/>
<path d="M177.391 157.577C178.23 157.879 179.448 158.237 181.038 158.655C182.629 159.074 183.841 159.356 184.677 159.493L184.095 161.679C183.633 161.514 182.81 161.26 181.629 160.914C180.576 160.616 179.631 160.361 178.798 160.15C179.446 160.679 180.166 161.245 180.954 161.848C181.785 162.479 182.657 163.111 183.576 163.747L183.095 165.555C182.018 165.643 180.95 165.752 179.89 165.885C178.931 166.009 178.029 166.139 177.184 166.278C177.975 166.499 178.847 166.729 179.801 166.968C181.054 167.282 181.962 167.483 182.528 167.571L181.958 169.7L181.954 169.709C181.135 169.411 179.929 169.053 178.343 168.626C176.756 168.199 175.535 167.914 174.676 167.757C174.832 167.383 174.997 166.871 175.174 166.227C175.35 165.583 175.455 165.08 175.487 164.722C176.664 164.653 177.729 164.572 178.681 164.472C179.489 164.39 180.396 164.273 181.403 164.126C180.78 163.613 180.054 163.039 179.223 162.411C178.315 161.739 177.439 161.123 176.596 160.564C176.752 160.217 176.913 159.726 177.082 159.094C177.251 158.462 177.354 157.959 177.391 157.577Z" fill="#FF5729"/>
<path d="M36.5225 158.784C36.9321 160.455 37.3099 161.92 37.6553 163.188C38.0007 164.455 38.4268 165.913 38.9248 167.555C38.6396 167.583 38.3619 167.635 38.0928 167.712C37.8197 167.788 37.5548 167.885 37.2979 168.002C37.2617 167.491 37.2016 166.963 37.1133 166.424C37.0249 165.885 36.8878 165.256 36.707 164.544C35.699 164.785 34.6108 165.08 33.4502 165.418C32.2894 165.756 31.3931 166.046 30.7705 166.279L30.1602 164.052C30.8226 163.931 31.7376 163.719 32.9121 163.405C34.0847 163.091 35.1608 162.785 36.1406 162.48C35.9358 161.779 35.735 161.175 35.5342 160.668C35.3374 160.161 35.1244 159.682 34.8955 159.232C35.1807 159.207 35.4583 159.158 35.7314 159.086C36.0005 159.01 36.2655 158.913 36.5225 158.784Z" fill="#FF5729"/>
<path d="M30.1602 164.052L30.1562 164.053L30.1602 164.049V164.052Z" fill="#FF5729"/>
<path d="M178.569 146.91C178.866 146.967 179.168 147.011 179.469 147.039C179.77 147.067 180.075 147.083 180.376 147.087C180.268 147.365 180.155 147.747 180.043 148.234C179.926 148.717 179.818 149.269 179.71 149.885C179.61 150.488 179.521 151.076 179.444 151.651C179.368 152.227 179.313 152.734 179.276 153.165C179.581 153.209 179.886 153.25 180.191 153.286C180.497 153.322 180.802 153.354 181.111 153.374C181.216 152.501 181.304 151.535 181.368 150.477C181.432 149.418 181.469 148.561 181.473 147.897C181.71 147.945 181.959 147.985 182.22 148.009C182.481 148.033 182.731 148.045 182.976 148.041C182.855 148.705 182.73 149.563 182.594 150.613C182.457 151.664 182.361 152.622 182.305 153.487C182.999 153.556 183.594 153.596 184.1 153.612C184.152 153.137 184.196 152.61 184.232 152.026C184.269 151.443 184.293 150.871 184.301 150.304C184.317 149.712 184.317 149.164 184.301 148.661C184.285 148.158 184.249 147.755 184.196 147.453C184.494 147.51 184.799 147.554 185.112 147.582C185.425 147.61 185.735 147.631 186.036 147.631L185.225 155.954V155.967C184.365 155.81 183.12 155.648 181.489 155.487C179.859 155.326 178.605 155.243 177.729 155.231C177.786 154.985 177.862 154.493 177.958 153.757C178.054 153.02 178.147 152.223 178.235 151.366C178.34 150.384 178.42 149.498 178.48 148.701C178.541 147.904 178.573 147.309 178.569 146.91Z" fill="#FF5729"/>
<path d="M35.1006 145.863C35.0765 146.169 35.0933 146.854 35.1455 147.925C35.1977 148.995 35.2736 150.09 35.374 151.217C35.4704 152.344 35.5667 153.173 35.6631 153.704C35.362 153.704 35.0569 153.708 34.7559 153.732C34.4506 153.757 34.1488 153.794 33.8516 153.842C33.968 153.254 34.0321 152.385 34.0361 151.23C34.0442 150.074 34.0081 149.052 33.9277 148.166C33.5864 148.17 33.2371 148.186 32.8838 148.21C32.5304 148.234 32.1648 148.266 31.7832 148.307C31.8234 149.092 31.8956 149.945 32 150.867C32.1044 151.789 32.2168 152.586 32.3252 153.25C32.0843 153.242 31.8313 153.25 31.5703 153.266C31.3093 153.286 31.0602 153.318 30.8232 153.362C30.8232 152.674 30.8068 151.869 30.7666 150.943C30.7264 150.018 30.6702 149.168 30.5898 148.396C29.4493 148.48 28.5095 148.617 27.7705 148.802L27.5938 146.436L27.5898 146.431C28.4614 146.439 29.7188 146.383 31.3535 146.258C32.9881 146.133 34.2371 146.004 35.1006 145.863Z" fill="#FF5729"/>
<path d="M185.803 138.075C185.249 138.482 184.706 138.892 184.172 139.315C183.638 139.733 183.108 140.156 182.582 140.582C181.779 141.232 180.978 141.906 180.181 142.602C180.982 142.582 181.788 142.55 182.598 142.503C183.718 142.439 184.843 142.349 185.979 142.232L186.071 144.414C184.812 144.414 183.56 144.443 182.305 144.495C181.052 144.548 179.798 144.628 178.549 144.736C178.585 144.31 178.589 143.799 178.569 143.199C178.545 142.6 178.496 142.112 178.42 141.737C179.163 141.202 179.898 140.655 180.625 140.096C181.356 139.536 182.08 138.965 182.799 138.377C183.148 138.095 183.493 137.809 183.839 137.523C183.927 137.45 184.015 137.374 184.104 137.3C183.286 137.318 182.466 137.353 181.642 137.402C181.095 137.435 180.533 137.468 179.959 137.512C179.385 137.552 178.814 137.604 178.248 137.66C178.292 137.274 178.308 136.903 178.296 136.541C178.284 136.179 178.236 135.833 178.155 135.499C178.786 135.491 179.412 135.479 180.039 135.463C180.666 135.447 181.296 135.423 181.931 135.398C183.176 135.346 184.426 135.261 185.679 135.148L185.803 138.075Z" fill="#FF5729"/>
<path d="M186.072 144.427L186.071 144.414H186.076L186.072 144.427Z" fill="#FF5729"/>
<path fill-rule="evenodd" clip-rule="evenodd" d="M31.998 133.365C32.8251 133.426 33.5198 133.683 34.082 134.134C34.6444 134.585 35.0506 135.209 35.3076 135.998C35.5606 136.791 35.6485 137.721 35.5723 138.791C35.496 139.862 35.2718 140.772 34.9062 141.517C34.5408 142.265 34.0463 142.817 33.4238 143.179C32.8054 143.541 32.0783 143.69 31.251 143.63C30.4237 143.57 29.7283 143.316 29.166 142.865C28.6037 142.419 28.1985 141.798 27.9414 141.005C27.6884 140.212 27.5995 139.283 27.6758 138.212C27.7561 137.141 27.9773 136.231 28.3428 135.486C28.7083 134.738 29.2027 134.183 29.8252 133.82C30.4477 133.454 31.1707 133.305 31.998 133.365ZM31.7891 135.467C31.2469 135.427 30.7766 135.511 30.375 135.72C29.9733 135.929 29.6558 136.252 29.4229 136.69C29.19 137.129 29.0492 137.669 29.001 138.309H29.0059C28.9577 138.945 29.0219 139.496 29.1865 139.967C29.3512 140.438 29.62 140.804 29.9854 141.073C30.3508 141.343 30.8046 141.496 31.3467 141.536C31.9008 141.576 32.3872 141.493 32.8008 141.279C33.2145 141.066 33.5441 140.744 33.7891 140.301C34.0301 139.862 34.1785 139.323 34.2227 138.687C34.2708 138.043 34.203 137.491 34.0264 137.024C33.8496 136.558 33.572 136.192 33.1904 135.926C32.8089 135.66 32.3433 135.507 31.7891 135.467Z" fill="#FF5729"/>
<path d="M177.704 124.699C177.704 125.21 177.737 125.742 177.789 126.285C177.841 126.829 177.938 127.465 178.074 128.19C179.098 128.012 180.199 127.79 181.384 127.524C182.565 127.259 183.477 127.03 184.111 126.837L184.576 129.1C183.91 129.177 182.981 129.333 181.793 129.569C180.6 129.807 179.508 130.045 178.512 130.286C178.672 130.999 178.837 131.615 178.998 132.134C179.159 132.653 179.343 133.144 179.544 133.607C179.259 133.611 178.977 133.643 178.7 133.699C178.423 133.756 178.155 133.841 177.89 133.949C177.588 132.259 177.307 130.769 177.042 129.482C176.777 128.193 176.447 126.712 176.054 125.041C176.339 125.029 176.62 124.997 176.894 124.94C177.17 124.884 177.439 124.804 177.704 124.699Z" fill="#FF5729"/>
<path d="M184.577 129.103L184.576 129.1C184.579 129.099 184.582 129.099 184.585 129.099L184.577 129.103Z" fill="#FF5729"/>
<path d="M33.5332 121.112C33.8104 120.231 34.3169 119.905 35.0479 120.135C35.4252 120.252 35.6699 120.449 35.7783 120.723C35.8906 120.996 35.8748 121.358 35.7344 121.805H35.7383C35.5977 122.251 35.4051 122.558 35.1602 122.719C34.9111 122.88 34.6012 122.904 34.2236 122.783C33.8543 122.667 33.6135 122.469 33.4971 122.191C33.3846 121.914 33.3966 121.551 33.5332 121.112Z" fill="#FF5729"/>
<path d="M175.695 112.785C176.053 112.632 176.362 112.62 176.631 112.757C176.896 112.894 177.121 113.175 177.306 113.598C177.671 114.447 177.503 115.027 176.796 115.333C176.435 115.49 176.121 115.502 175.86 115.365C175.599 115.228 175.374 114.946 175.189 114.516H175.186C175.001 114.085 174.948 113.727 175.028 113.445C175.109 113.16 175.334 112.942 175.695 112.785Z" fill="#FF5729"/>
<path d="M38.5918 101.185C38.8849 101.414 39.1907 101.615 39.5039 101.796C39.8171 101.973 40.0783 102.094 40.2871 102.147C39.7168 102.803 39.166 103.523 38.6318 104.312C38.1017 105.101 37.5831 105.938 37.0811 106.827C37.2819 106.98 37.5437 107.15 37.873 107.335C38.2022 107.52 38.5072 107.677 38.7842 107.794C39.0251 106.852 39.3789 105.97 39.8447 105.153C40.3106 104.336 40.8531 103.744 41.4717 103.378C42.0902 103.012 42.7329 103.019 43.3955 103.394C44.1105 103.8 44.4437 104.445 44.3955 105.322C44.3473 106.2 44.0257 107.153 43.4434 108.188C43.0698 108.848 42.6367 109.468 42.1387 110.048C41.6411 110.627 41.1829 111.02 40.7695 111.222C40.5304 111.027 40.2678 110.847 39.9854 110.684C39.7003 110.523 39.4113 110.39 39.1143 110.281C39.4194 110.233 39.7686 110.071 40.1621 109.802C40.5556 109.532 40.9411 109.198 41.3105 108.8C41.6801 108.401 41.9858 107.995 42.2188 107.58C42.4155 107.234 42.5524 106.912 42.6367 106.61C42.7211 106.309 42.7367 106.043 42.6885 105.825C42.6403 105.604 42.5243 105.442 42.3477 105.342C41.9982 105.145 41.5918 105.253 41.1299 105.676C40.6681 106.094 40.2145 106.69 39.7607 107.459C39.3109 108.228 38.9089 109.038 38.5635 109.879C38.0012 109.497 37.3986 109.122 36.752 108.756C36.1053 108.39 35.4749 108.059 34.8604 107.773C35.5351 106.679 36.1776 105.587 36.7881 104.513C37.3985 103.438 37.9974 102.328 38.5918 101.185Z" fill="#FF5729"/>
<path d="M172.155 96.7852C172.336 97.1875 172.553 97.5859 172.806 97.9922C173.059 98.3948 173.296 98.7092 173.517 98.9346C173.227 99.5302 172.91 100.222 172.561 101.011C172.26 101.729 172.008 102.349 171.808 102.869C172.509 102.921 173.172 102.954 173.794 102.968C174.525 102.996 175.284 103 176.075 102.983C176.184 103.281 176.36 103.62 176.605 103.998C176.85 104.38 177.115 104.734 177.4 105.072C176.457 104.936 175.441 104.807 174.353 104.69C173.842 104.634 173.328 104.581 172.813 104.537C172.299 104.489 171.785 104.448 171.271 104.412C170.874 104.609 170.484 104.831 170.103 105.072C169.721 105.314 169.348 105.584 168.99 105.878L167.861 104.095L167.857 104.086C168.271 103.889 168.669 103.667 169.051 103.422C169.432 103.181 169.797 102.915 170.146 102.629C170.484 101.772 170.834 100.802 171.203 99.7149C171.557 98.7048 171.87 97.731 172.155 96.7852Z" fill="#FF5729"/>
<path fill-rule="evenodd" clip-rule="evenodd" d="M44.458 93.5762C45.0884 93.2625 45.7471 93.1424 46.4297 93.2188C47.1125 93.2993 47.7715 93.5803 48.4102 94.0714C49.0648 94.5744 49.5183 95.1424 49.7754 95.7823C50.0325 96.4223 50.0925 97.0908 49.96 97.7872C49.8274 98.4834 49.5023 99.1639 48.9883 99.836H48.9922C48.4781 100.508 47.904 100.999 47.2695 101.317C46.6349 101.635 45.9719 101.748 45.2891 101.667C44.6062 101.587 43.935 101.297 43.2803 100.794C42.6418 100.303 42.1964 99.7393 41.9434 99.1036C41.6903 98.4676 41.6299 97.799 41.7705 97.1026C41.9111 96.4063 42.2361 95.722 42.7461 95.0499C43.2562 94.3817 43.8274 93.8902 44.458 93.5762ZM45.8877 95.2432C45.4902 95.1426 45.1206 95.151 44.7793 95.2676C44.4379 95.3844 44.136 95.6092 43.8789 95.9473C43.626 96.2772 43.4899 96.6234 43.4697 96.9815C43.4496 97.3397 43.5422 97.6986 43.7471 98.0528C43.9519 98.4069 44.265 98.7496 44.6826 99.0674C45.1083 99.3933 45.5223 99.6102 45.9238 99.7188C46.3254 99.8274 46.6948 99.8237 47.0361 99.711C47.3775 99.5943 47.6708 99.373 47.9238 99.043L47.9277 99.0469C48.1848 98.7128 48.3256 98.3623 48.3457 98.0001C48.3697 97.6379 48.2772 97.2753 48.0684 96.9131C47.8595 96.551 47.5418 96.2089 47.1162 95.879C46.6987 95.5571 46.2892 95.3439 45.8877 95.2432Z" fill="#FF5729"/>
<path fill-rule="evenodd" clip-rule="evenodd" d="M166.339 89.7969C166.62 90.127 166.893 90.4415 167.162 90.7393C167.355 90.9445 167.548 91.1576 167.74 91.3829C167.933 91.6043 168.134 91.8423 168.347 92.0919C169.299 93.2189 169.861 94.1647 170.038 94.9376C170.211 95.7102 170.014 96.3383 169.443 96.8253C169.01 97.1954 168.548 97.3486 168.054 97.2842C167.564 97.2239 167.11 97.0505 166.7 96.7647C166.291 96.4789 165.953 96.1849 165.692 95.879L165.567 95.9835C166.029 96.7885 166.214 97.5859 166.13 98.3829C166.042 99.1757 165.853 99.8961 165.563 100.54L163.7 98.3389C164.126 97.9002 164.415 97.4731 164.563 97.0626C164.712 96.6521 164.732 96.2295 164.624 95.7989C164.516 95.3642 164.27 94.8772 163.9 94.3419C163.812 94.205 163.707 94.0602 163.583 93.9073C163.459 93.7504 163.334 93.5972 163.206 93.4444C162.48 94.096 162.066 94.4696 161.969 94.5626C161.82 94.6994 161.683 94.8322 161.555 94.961C161.426 95.0898 161.301 95.2189 161.169 95.3477L159.695 93.6046V93.5967C160.406 93.0896 161.387 92.3049 162.64 91.2422C163.889 90.1796 164.825 89.3387 165.439 88.7188C165.761 89.105 166.058 89.467 166.339 89.7969ZM165.82 91.2462C165.555 91.4514 165.286 91.6691 165.009 91.8985C164.732 92.1238 164.442 92.3649 164.149 92.6143V92.6192L164.431 92.9971C164.583 93.1984 164.752 93.416 164.929 93.6495C165.105 93.8829 165.286 94.1042 165.467 94.3174C165.788 94.6958 166.09 94.9854 166.371 95.1827C166.652 95.3839 166.917 95.4888 167.162 95.5049C167.407 95.521 167.632 95.4406 167.837 95.2676C168.126 95.0221 168.219 94.6955 168.106 94.293C167.994 93.8905 167.716 93.4277 167.271 92.9005C167.106 92.7073 166.941 92.5144 166.776 92.3253C166.612 92.1362 166.451 91.9589 166.295 91.794L165.82 91.2462Z" fill="#FF5729"/>
<path d="M53.5117 83.5342C53.6763 83.7675 53.8571 83.9845 54.0537 84.1856C54.2505 84.3869 54.4674 84.5723 54.6963 84.7374C54.2666 85.0191 53.8407 85.3329 53.415 85.671C52.9893 86.0131 52.5108 86.4402 51.9766 86.9473C52.6835 87.7121 53.4674 88.517 54.335 89.3663C55.2025 90.2156 55.8894 90.8555 56.3955 91.2862L54.7529 92.9122C54.3272 92.3929 53.6883 91.6968 52.8408 90.8233C51.9933 89.9498 51.1981 89.1606 50.4551 88.4522C49.9451 88.9753 49.5192 89.4467 49.1738 89.8692C48.8325 90.2878 48.5184 90.7104 48.2373 91.129C48.0767 90.8917 47.8998 90.6708 47.7031 90.4737C47.5063 90.2724 47.2897 90.0908 47.0527 89.9297C48.3058 88.7545 49.3983 87.708 50.3301 86.7823C51.2619 85.8565 52.3228 84.774 53.5117 83.5342Z" fill="#FF5729"/>
<path fill-rule="evenodd" clip-rule="evenodd" d="M158.347 82.1651C158.664 82.5233 159.085 82.9384 159.611 83.4053C160.137 83.8722 160.571 84.2099 160.921 84.4112C160.447 85.7757 160.017 87.0683 159.636 88.296C159.302 89.3424 158.913 90.6666 158.459 92.2725L156.579 90.6339C156.76 90.2113 156.951 89.7333 157.153 89.2012C156.714 88.7911 156.206 88.329 155.623 87.8204C155.062 87.3303 154.555 86.9045 154.101 86.5362C153.619 86.7955 153.16 87.0419 152.728 87.2735L150.932 85.7071V85.7032C151.526 85.4496 152.148 85.1719 152.795 84.8741C153.446 84.5762 154.081 84.2822 154.699 83.9883C156.013 83.3564 157.23 82.7487 158.347 82.1651ZM158.852 84.128C158.434 84.2874 157.417 84.7885 155.808 85.627C155.625 85.7235 155.443 85.8203 155.263 85.9161C155.608 86.2456 155.998 86.6022 156.438 86.9874C156.859 87.3515 157.247 87.6774 157.605 87.9649C157.902 87.1344 158.169 86.3697 158.402 85.6671C158.642 84.9369 158.791 84.4226 158.852 84.128Z" fill="#FF5729"/>
<path d="M62.8926 76.3936C63.3585 77.1583 64.0818 78.2004 65.0576 79.5245C66.0335 80.8486 66.8049 81.827 67.3672 82.463L65.584 83.7715V83.7755C65.2219 83.1782 64.6923 82.3998 64.002 81.4346C63.4098 81.8144 62.8113 82.2228 62.21 82.6641C61.5042 83.1821 60.8433 83.7069 60.2246 84.2364C60.9401 85.1857 61.5226 85.9149 61.9727 86.4239L60.1895 87.7325V87.7364C59.7356 86.9877 59.0207 85.9533 58.0527 84.6251C57.0848 83.3009 56.3136 82.3067 55.7393 81.6465C56.0807 81.4694 56.4021 81.2759 56.6953 81.0626C56.9883 80.8494 57.2572 80.616 57.498 80.3546C57.9182 81.0441 58.5487 81.9585 59.3838 83.1026C60.0629 82.6756 60.757 82.2053 61.4629 81.6866C62.0719 81.239 62.649 80.7843 63.1992 80.3282C62.3463 79.1709 61.6584 78.2886 61.1338 77.6856C61.4792 77.5085 61.7967 77.3149 62.0898 77.1016C62.3828 76.8884 62.6517 76.6551 62.8926 76.3936Z" fill="#FF5729"/>
<path d="M146.825 74.5577C147.608 74.606 148.589 75.0051 149.77 75.7618C150.412 76.1721 150.966 76.5701 151.424 76.9483C151.882 77.3307 152.34 77.754 152.79 78.2169C153.059 78.4823 153.224 78.6512 153.288 78.7276C153.143 78.8926 153.01 79.0621 152.882 79.2432C152.753 79.4243 152.637 79.6135 152.528 79.8067C152.484 79.891 152.44 79.9714 152.4 80.0557C152.356 80.1402 152.315 80.225 152.279 80.3135C151.866 79.6777 151.388 79.0698 150.846 78.4903C150.303 77.9107 149.668 77.3917 148.945 76.9288C148.379 76.5666 147.937 76.3609 147.616 76.3126C147.295 76.2643 147.058 76.3573 146.905 76.5948C146.781 76.792 146.749 76.993 146.817 77.2022C146.886 77.4074 147.054 77.6407 147.327 77.9063C147.6 78.1679 148.01 78.5065 148.548 78.9171C148.708 79.0376 148.829 79.13 148.905 79.1944C149.6 79.7337 150.143 80.217 150.528 80.6436C150.914 81.0703 151.147 81.4851 151.235 81.8917C151.324 82.2981 151.236 82.7049 150.979 83.1114C150.569 83.7554 149.97 84.0496 149.179 83.9932C148.391 83.9328 147.399 83.5217 146.202 82.7569V82.7374C145.479 82.2745 144.809 81.7507 144.194 81.1671C143.576 80.5834 143.045 79.9958 142.604 79.4122C142.828 79.1586 143.029 78.8931 143.21 78.6114C143.387 78.3296 143.543 78.0394 143.676 77.7335C143.808 78.3735 144.206 79.0503 144.869 79.7628C145.532 80.4751 146.291 81.0992 147.143 81.6465C147.685 81.9925 148.114 82.1855 148.432 82.2217C148.749 82.2579 148.986 82.1535 149.143 81.9122C149.275 81.7029 149.299 81.4971 149.211 81.2999C149.123 81.0986 148.934 80.8691 148.645 80.6075C148.355 80.3458 147.861 79.9513 147.166 79.42C146.459 78.8727 145.909 78.3818 145.516 77.9512C145.122 77.5206 144.877 77.1019 144.78 76.6954C144.684 76.289 144.764 75.8784 145.029 75.4639C145.443 74.8119 146.042 74.5094 146.825 74.5577Z" fill="#FF5729"/>
<path d="M72.459 79.4239L72.4541 79.4161L72.459 79.4131C72.4589 79.4167 72.4591 79.4203 72.459 79.4239Z" fill="#FF5729"/>
<path fill-rule="evenodd" clip-rule="evenodd" d="M75.4834 69.796C76.5196 70.8022 77.5111 71.7325 78.459 72.5938C79.2663 73.3344 80.3032 74.2482 81.5645 75.335L79.291 76.3536C78.9857 76.0136 78.635 75.6402 78.2393 75.2344C77.6829 75.4609 77.0493 75.7306 76.3428 76.0469C75.6629 76.3513 75.0608 76.6369 74.5352 76.8946C74.5679 77.4386 74.5983 77.9526 74.6279 78.4424L72.459 79.4131C72.4788 78.7686 72.4872 78.0922 72.4912 77.3799C72.4912 76.6635 72.4903 75.9627 72.4863 75.2745C72.4662 73.8133 72.4265 72.4523 72.3662 71.1924C72.8241 71.0516 73.3789 70.8423 74.0215 70.5606C74.6639 70.2789 75.1541 70.0253 75.4834 69.796ZM74.3447 71.5518C74.3137 71.9986 74.3396 73.1296 74.4268 74.9483C74.4379 75.1596 74.4497 75.3699 74.4609 75.5792C74.9055 75.4013 75.3946 75.1956 75.9287 74.9561C76.437 74.7283 76.8963 74.5083 77.3076 74.3028C76.6797 73.6818 76.0951 73.118 75.5557 72.6094C74.9907 72.0803 74.5869 71.7303 74.3447 71.5518Z" fill="#FF5729"/>
<path fill-rule="evenodd" clip-rule="evenodd" d="M136.561 69.1241C136.954 69.2972 137.34 69.4625 137.714 69.6114C137.975 69.7119 138.244 69.82 138.513 69.9366C138.782 70.0533 139.071 70.1788 139.368 70.3116C140.718 70.9073 141.638 71.511 142.128 72.1309C142.622 72.7467 142.718 73.3987 142.413 74.087C142.184 74.6101 141.835 74.9484 141.365 75.1094C140.895 75.2704 140.413 75.3108 139.923 75.2383C139.429 75.1619 138.999 75.0448 138.63 74.8839L138.565 75.0333C139.332 75.5564 139.846 76.192 140.115 76.9444C140.384 77.6969 140.53 78.4257 140.55 79.1299L137.91 77.9669C138.099 77.3833 138.176 76.8761 138.132 76.4415C138.088 76.0069 137.923 75.6204 137.634 75.2784C137.345 74.9362 136.918 74.6061 136.348 74.2881C136.207 74.2037 136.051 74.1187 135.874 74.0342C135.697 73.9498 135.517 73.8657 135.332 73.7852C134.963 74.6908 134.753 75.2102 134.705 75.335C134.629 75.52 134.565 75.7011 134.505 75.8741C134.449 76.0472 134.388 76.2166 134.328 76.3897L132.243 75.4678L132.247 75.4551C132.665 74.6863 133.204 73.5512 133.866 72.046C134.529 70.5407 134.999 69.377 135.284 68.5479C135.742 68.7571 136.167 68.9511 136.561 69.1241ZM136.737 70.67C136.589 70.9717 136.441 71.2856 136.292 71.6114C136.144 71.9363 135.987 72.277 135.831 72.6299L136.252 72.8467C136.481 72.9634 136.722 73.0842 136.982 73.213C137.243 73.3418 137.501 73.4634 137.762 73.5801C138.216 73.7814 138.614 73.9096 138.955 73.962C139.296 74.0183 139.582 73.9979 139.811 73.9053C140.039 73.8127 140.204 73.6439 140.312 73.3985C140.465 73.0484 140.405 72.7183 140.128 72.4044C139.851 72.0904 139.396 71.7964 138.766 71.5186C138.533 71.414 138.3 71.3174 138.071 71.2169C137.838 71.1203 137.617 71.0277 137.404 70.9512L136.737 70.67Z" fill="#FF5729"/>
<path d="M90.6709 66.8975C90.8235 67.5053 90.9847 68.1176 91.1494 68.7335C91.4747 69.9369 91.8283 71.1403 92.2139 72.3438L89.3936 73.1046C88.8755 72.6538 88.3571 72.2109 87.8311 71.7803C87.3051 71.3498 86.779 70.9234 86.249 70.5049C85.4416 69.8619 84.6107 69.2276 83.7617 68.6016C83.9573 69.3808 84.1663 70.1603 84.3896 70.9395C84.6989 72.0181 85.0321 73.101 85.3936 74.1837L83.2803 74.7549L83.2725 74.7589C82.9953 73.5272 82.6945 72.3035 82.3691 71.088C82.0438 69.8725 81.69 68.6692 81.3125 67.4698C81.7342 67.4134 82.2321 67.3044 82.8145 67.1514C83.3927 66.9985 83.8547 66.8415 84.2041 66.6885C84.8869 67.2963 85.5823 67.8966 86.2852 68.4883C86.9878 69.0799 87.7068 69.663 88.4336 70.2344C88.7869 70.5161 89.1408 70.7899 89.4941 71.0635C89.5851 71.1339 89.6772 71.2035 89.7686 71.2735C89.572 70.4783 89.3612 69.6844 89.1328 68.8907C88.9842 68.3635 88.8238 67.8199 88.6592 67.2686C88.4945 66.7172 88.3214 66.1694 88.1406 65.626C88.5262 65.5858 88.8918 65.5173 89.2412 65.4288C89.5907 65.3402 89.9203 65.2155 90.2256 65.0626C90.3701 65.6782 90.5183 66.2859 90.6709 66.8975Z" fill="#FF5729"/>
<path d="M123.993 65.211C124.222 65.3076 124.696 65.4653 125.407 65.6827C126.118 65.9 126.886 66.1251 127.713 66.3546C128.661 66.6202 129.521 66.8498 130.296 67.043C131.067 67.2362 131.649 67.3654 132.043 67.4297C131.939 67.7154 131.846 68.0012 131.766 68.2989C131.685 68.5927 131.621 68.8907 131.564 69.1885C131.307 69.0356 130.95 68.8622 130.492 68.669C130.034 68.4758 129.512 68.2748 128.922 68.0655C128.343 67.8683 127.777 67.6789 127.227 67.5098C126.672 67.3368 126.186 67.1995 125.765 67.0909C125.672 67.3847 125.58 67.6788 125.496 67.9766C125.408 68.2704 125.327 68.5683 125.255 68.8702C126.094 69.1197 127.03 69.365 128.062 69.6065C129.095 69.848 129.934 70.0259 130.581 70.1426C130.493 70.3679 130.412 70.6091 130.344 70.8585C130.275 71.112 130.224 71.3582 130.188 71.5997C129.557 71.3702 128.733 71.1039 127.721 70.794C126.709 70.4841 125.781 70.2306 124.941 70.0294C124.761 70.7015 124.62 71.2853 124.52 71.7803C124.977 71.9132 125.488 72.0459 126.059 72.1788C126.629 72.3116 127.187 72.4286 127.741 72.5333C128.319 72.6499 128.857 72.7383 129.359 72.8067C129.857 72.8751 130.259 72.9073 130.564 72.9073C130.46 73.1931 130.368 73.4872 130.283 73.7891C130.199 74.0949 130.135 74.3927 130.079 74.6944L122.025 72.5049L122.021 72.4971C122.319 71.676 122.684 70.4718 123.114 68.8819C123.544 67.2922 123.837 66.0723 123.993 65.211Z" fill="#FF5729"/>
<path d="M103.127 63.4405C103.171 64.0684 103.219 64.6965 103.275 65.3204C103.328 65.9442 103.388 66.5762 103.452 67.2081C103.581 68.4478 103.738 69.6957 103.927 70.9434L101.019 71.2413C100.581 70.714 100.138 70.1948 99.6885 69.6837C99.2386 69.1725 98.7889 68.6691 98.3311 68.17C97.6334 67.4062 96.9176 66.6442 96.1787 65.8887C96.2467 66.6892 96.328 67.4939 96.4238 68.3028C96.5564 69.4218 96.7128 70.541 96.8936 71.668L94.7168 71.8936V71.8848C94.6405 70.6251 94.5397 69.369 94.4111 68.1172C94.2826 66.8655 94.1299 65.6176 93.9492 64.378C94.375 64.3901 94.8851 64.3661 95.4795 64.3057C96.078 64.2494 96.5563 64.1689 96.9258 64.0723C97.5041 64.7807 98.0901 65.4854 98.6885 66.1817C99.2868 66.8779 99.9017 67.5698 100.532 68.254C100.833 68.588 101.139 68.9182 101.444 69.2442C101.523 69.3279 101.602 69.4115 101.681 69.4952C101.614 68.6799 101.535 67.8624 101.437 67.043C101.372 66.4956 101.304 65.9359 101.228 65.3643C101.151 64.7929 101.071 64.2255 100.979 63.6622C101.364 63.6823 101.737 63.6779 102.099 63.6417C102.46 63.6095 102.802 63.5411 103.127 63.4405Z" fill="#FF5729"/>
<path d="M111.632 63.4727C112.037 63.5693 112.431 63.6374 112.805 63.6817C113.178 63.726 113.576 63.75 113.993 63.7501C114.154 64.547 114.396 65.5854 114.717 66.8653C114.938 67.7145 115.146 68.4756 115.343 69.1397C115.479 69.6101 115.595 69.9714 115.686 70.2237C115.947 69.815 116.368 69.0839 116.941 68.0294C117.644 66.7373 118.296 65.5054 118.902 64.334C119.288 64.4266 119.661 64.4949 120.015 64.5391C120.368 64.5794 120.746 64.6036 121.144 64.6036C120.417 65.7467 119.745 66.858 119.139 67.9327C118.532 69.0073 117.845 70.2709 117.082 71.7198L113.894 71.3419C113.785 70.891 113.677 70.4438 113.572 70.001C113.468 69.5583 113.355 69.1232 113.238 68.6885C112.797 67.0626 112.262 65.324 111.632 63.4727Z" fill="#FF5729"/>
<path d="M106.629 63.4688C107.03 63.5332 107.42 63.5691 107.798 63.5772C108.175 63.5853 108.546 63.5567 108.907 63.4922C108.823 64.3817 108.774 65.6538 108.762 67.2999C108.75 68.9462 108.778 70.1948 108.851 71.0401L106.541 71.0157H106.545C106.629 70.1463 106.677 68.8864 106.697 67.2442C106.717 65.6022 106.693 64.3423 106.629 63.4688Z" fill="#FF5729"/>
</svg>
