<svg width="204" height="264" viewBox="0 0 204 264" fill="none" xmlns="http://www.w3.org/2000/svg">
<path d="M197.326 20.4639C197.326 20.5766 197.334 20.6813 197.338 20.7899C197.363 21.3655 197.464 21.9291 197.629 22.4564C198.473 25.1452 200.976 27.1054 203.936 27.1457V34.0367C200.278 34.0931 197.326 37.0636 197.326 40.7265C197.326 41.918 197.641 43.041 198.194 44.0111C198.465 44.4941 198.792 44.9409 199.18 45.3313C200.209 46.4181 201.618 47.1628 203.189 47.36C203.435 47.3882 203.681 47.4083 203.932 47.4123V54.235C203.714 54.235 203.504 54.2511 203.294 54.2712C203.278 54.2712 203.266 54.2712 203.249 54.2792C203.035 54.3034 202.825 54.3396 202.616 54.3839C202.329 54.4443 202.046 54.5248 201.776 54.6214C201.699 54.6496 201.618 54.6777 201.546 54.7099C201.521 54.718 201.501 54.7301 201.477 54.7341C201.404 54.7623 201.336 54.7945 201.263 54.8267C201.19 54.8549 201.122 54.8911 201.053 54.9233C200.992 54.9515 200.936 54.9837 200.883 55.0118C200.718 55.1004 200.56 55.193 200.403 55.2936C200.326 55.3419 200.25 55.3902 200.181 55.4425C200.1 55.4989 200.015 55.5592 199.939 55.6196C199.858 55.68 199.781 55.7404 199.704 55.8088C199.632 55.8692 199.555 55.9336 199.482 56.006C199.41 56.0745 199.337 56.1429 199.264 56.2153C199.123 56.3562 198.99 56.5011 198.861 56.6581C197.928 57.7731 197.359 59.1899 197.322 60.7437C197.322 60.8242 197.322 60.9087 197.322 60.9892C197.322 63.5935 198.82 65.8435 200.996 66.9464C201.881 67.3972 202.878 67.6548 203.932 67.6709V74.4936C203.714 74.4936 203.496 74.5137 203.286 74.5338C203.177 74.5459 203.068 74.558 202.967 74.5781C202.882 74.5902 202.797 74.6023 202.712 74.6224C202.591 74.6465 202.466 74.6747 202.345 74.7069C202.244 74.7311 202.143 74.7592 202.042 74.7914C201.941 74.8196 201.844 74.8559 201.747 74.8921C201.651 74.9243 201.554 74.9645 201.457 75.0048C201.36 75.041 201.267 75.0853 201.174 75.1296C201.081 75.1698 200.988 75.2181 200.9 75.2664C200.807 75.3147 200.718 75.363 200.629 75.4194C200.556 75.4596 200.488 75.4999 200.415 75.5482C200.298 75.6206 200.189 75.7011 200.076 75.7816C200.003 75.8299 199.939 75.8823 199.87 75.9386C199.708 76.0594 199.559 76.1962 199.41 76.3411C198.126 77.5527 197.322 79.2755 197.322 81.1834V81.2518C197.322 82.721 197.799 84.0815 198.61 85.1884C198.667 85.2689 198.731 85.3535 198.796 85.4299C198.857 85.5105 198.917 85.5909 198.994 85.6634C199.054 85.7399 199.123 85.8164 199.2 85.8848C199.268 85.9572 199.337 86.0257 199.41 86.0941C199.486 86.1666 199.567 86.239 199.644 86.3074C199.717 86.3799 199.797 86.4403 199.878 86.5006C199.939 86.553 199.999 86.6013 200.068 86.6455C200.096 86.6697 200.132 86.6938 200.161 86.718C200.233 86.7663 200.302 86.8146 200.375 86.8589C200.443 86.9072 200.512 86.9474 200.585 86.9877C200.657 87.036 200.738 87.0803 200.815 87.1205C200.896 87.1648 200.984 87.2091 201.069 87.2493C201.142 87.2855 201.214 87.3218 201.287 87.354C201.723 87.5512 202.179 87.7001 202.656 87.8008C202.85 87.841 203.048 87.8732 203.249 87.8974C203.266 87.8974 203.274 87.8974 203.286 87.8974C203.5 87.9215 203.714 87.9336 203.932 87.9376V94.7603C201.562 94.7925 199.486 96.0564 198.32 97.9361C197.734 98.886 197.375 99.9889 197.33 101.172C197.33 101.265 197.322 101.353 197.322 101.446V101.514C197.322 101.587 197.322 101.659 197.33 101.728C197.33 101.877 197.342 102.026 197.359 102.171C197.383 102.481 197.435 102.778 197.508 103.076C197.641 103.636 197.851 104.163 198.11 104.662C199.228 106.739 201.408 108.164 203.932 108.2V115.019C200.847 115.071 198.267 117.188 197.532 120.046C197.427 120.473 197.359 120.92 197.334 121.375V121.411C197.326 121.511 197.322 121.608 197.322 121.709V121.777C197.322 121.878 197.322 121.974 197.33 122.071C197.411 123.939 198.263 125.601 199.567 126.768V126.776C200.734 127.807 202.256 128.443 203.932 128.467V135.29C200.367 135.342 197.472 138.168 197.33 141.702C197.33 141.794 197.322 141.883 197.322 141.975V142.044C197.322 145.707 200.274 148.677 203.932 148.73V155.548C203.847 155.548 203.762 155.548 203.669 155.564C202.244 155.637 200.944 156.156 199.894 156.977C198.412 158.136 197.427 159.903 197.33 161.9C197.322 162.021 197.318 162.145 197.318 162.27V162.302C197.318 162.415 197.318 162.524 197.33 162.636C197.338 162.842 197.359 163.043 197.391 163.236C197.843 166.456 200.589 168.936 203.932 168.988V175.811C201.622 175.843 199.595 177.043 198.412 178.85C198.106 179.305 197.863 179.804 197.686 180.335C197.496 180.874 197.379 181.442 197.338 182.03C197.338 182.038 197.338 182.046 197.338 182.05C197.33 182.126 197.326 182.211 197.322 182.287C197.322 182.38 197.322 182.472 197.322 182.565C197.322 182.658 197.322 182.746 197.33 182.835C197.359 183.616 197.532 184.36 197.807 185.053C198.32 186.325 199.208 187.399 200.346 188.14C200.754 188.414 201.194 188.643 201.655 188.816H201.671C202.373 189.086 203.14 189.235 203.936 189.247V196.069C200.536 196.122 197.754 198.686 197.371 201.986C197.351 202.155 197.338 202.333 197.334 202.51C197.334 202.57 197.334 202.63 197.326 202.691V202.82C197.326 202.876 197.326 202.936 197.326 202.989C197.326 203.061 197.326 203.134 197.338 203.202C197.419 204.659 197.972 205.991 198.844 207.05C198.905 207.127 198.97 207.207 199.042 207.28C199.107 207.352 199.176 207.428 199.248 207.497C199.39 207.642 199.535 207.779 199.688 207.903C199.765 207.972 199.842 208.032 199.922 208.093C199.991 208.149 200.056 208.201 200.128 208.25C200.153 208.266 200.173 208.282 200.201 208.298C200.274 208.35 200.346 208.399 200.419 208.443C200.496 208.499 200.577 208.547 200.657 208.592C200.677 208.604 200.694 208.616 200.714 208.624C200.786 208.668 200.867 208.708 200.944 208.745C201.057 208.805 201.166 208.861 201.283 208.914C201.356 208.946 201.424 208.978 201.497 209.002C201.59 209.043 201.683 209.079 201.78 209.115C201.949 209.175 202.131 209.232 202.309 209.28C202.393 209.304 202.478 209.324 202.567 209.344C202.805 209.401 203.052 209.441 203.302 209.465C203.516 209.489 203.726 209.501 203.944 209.505V216.324C203.843 216.324 203.73 216.332 203.633 216.34C203.274 216.364 202.93 216.413 202.591 216.489C202.083 216.602 201.59 216.771 201.13 216.992C198.893 218.079 197.342 220.361 197.342 223.014C197.342 223.891 197.516 224.729 197.827 225.501C198.34 226.773 199.228 227.848 200.367 228.589C200.774 228.862 201.214 229.092 201.675 229.265H201.691C202.393 229.535 203.161 229.684 203.956 229.696V236.587C202.305 236.611 200.803 237.231 199.648 238.237C199.232 238.595 198.865 239.006 198.558 239.457C197.799 240.535 197.347 241.86 197.347 243.276C197.347 246.939 200.298 249.906 203.956 249.966V256.97C203.956 256.97 203.94 256.97 203.932 256.97C203.859 256.962 203.778 256.954 203.702 256.946C203.645 256.946 203.585 256.938 203.532 256.934C203.419 256.926 203.306 256.922 203.189 256.922C203.088 256.922 202.979 256.922 202.882 256.93C202.712 256.938 202.539 256.954 202.377 256.97C199.87 257.276 197.791 258.954 196.923 261.233C196.717 261.768 196.579 262.34 196.519 262.931C196.499 263.104 196.487 263.29 196.487 263.467H189.57C189.498 260.049 186.861 257.268 183.502 256.95C183.397 256.938 183.284 256.93 183.175 256.926C183.074 256.926 182.965 256.918 182.864 256.918C182.69 256.918 182.521 256.926 182.355 256.938C182.282 256.946 182.198 256.95 182.129 256.962C179.803 257.216 177.837 258.653 176.844 260.657C176.59 261.168 176.404 261.72 176.291 262.295C176.218 262.678 176.17 263.068 176.166 263.467H169.249C169.177 260.13 166.661 257.397 163.419 256.982C163.314 256.966 163.209 256.958 163.104 256.95C162.959 256.934 162.818 256.926 162.672 256.926C162.632 256.926 162.583 256.926 162.547 256.926H162.515C162.422 256.926 162.333 256.926 162.24 256.934C162.05 256.946 161.865 256.962 161.675 256.986C161.61 256.998 161.55 257.006 161.485 257.014C159.588 257.316 157.96 258.403 156.955 259.933V259.941C156.636 260.412 156.386 260.919 156.2 261.462C155.986 262.094 155.865 262.77 155.849 263.471H148.924C148.856 259.941 146.042 257.091 142.525 256.934C142.428 256.934 142.323 256.926 142.218 256.926H142.19C140.252 256.938 138.512 257.763 137.284 259.083C136.913 259.49 136.59 259.949 136.319 260.44C135.819 261.345 135.536 262.376 135.516 263.475H128.599C128.531 260.267 126.201 257.618 123.137 257.047C122.939 257.006 122.737 256.974 122.531 256.958C122.426 256.946 122.313 256.938 122.204 256.934C122.103 256.934 121.998 256.926 121.897 256.926C121.796 256.926 121.691 256.926 121.59 256.934C121.506 256.934 121.429 256.942 121.352 256.95C121.263 256.958 121.174 256.966 121.086 256.974C120.92 256.994 120.755 257.022 120.589 257.055C120.5 257.075 120.411 257.091 120.323 257.111C120.258 257.127 120.201 257.143 120.137 257.159C119.349 257.373 118.623 257.723 117.981 258.182C117.537 258.5 117.137 258.874 116.782 259.285C115.813 260.42 115.223 261.881 115.187 263.471H108.27C108.198 260.094 105.622 257.332 102.319 256.97C102.23 256.958 102.146 256.95 102.057 256.946H102.041C101.968 256.938 101.899 256.934 101.831 256.934C101.738 256.926 101.653 256.926 101.564 256.926C101.455 256.926 101.346 256.926 101.245 256.934C101.132 256.934 101.031 256.946 100.926 256.958C100.716 256.978 100.506 257.006 100.308 257.043C99.9007 257.119 99.509 257.236 99.1295 257.385C98.6248 257.582 98.1524 257.835 97.7164 258.141C96.0327 259.321 94.9143 261.269 94.8659 263.471H87.9455C87.8729 260.053 85.2364 257.268 81.8812 256.954C81.7721 256.942 81.6672 256.934 81.5541 256.93C81.4491 256.93 81.3482 256.922 81.2432 256.922C81.1584 256.922 81.0737 256.922 80.9848 256.922C80.8435 256.922 80.7062 256.934 80.573 256.95C80.4963 256.958 80.4277 256.966 80.359 256.974C79.9512 257.026 79.5596 257.119 79.1841 257.24C76.5314 258.097 74.6055 260.548 74.5409 263.463H67.6287C67.5681 260.597 65.6987 258.178 63.1147 257.292C63.034 257.264 62.9492 257.236 62.8644 257.212C62.828 257.195 62.7877 257.187 62.7473 257.175C62.6787 257.155 62.6141 257.139 62.5454 257.123C62.2265 257.038 61.8994 256.982 61.5643 256.954C61.4997 256.946 61.4472 256.942 61.3866 256.938C61.2938 256.93 61.1928 256.926 61.0919 256.922H61.0758C61.0233 256.922 60.9667 256.922 60.9183 256.922H60.886C60.781 256.922 60.6801 256.922 60.5751 256.93C60.3611 256.942 60.1512 256.962 59.9372 256.994C59.9372 256.994 59.921 256.994 59.917 256.994C56.7273 257.465 54.2846 260.17 54.2119 263.467H47.2957C47.2512 261.394 46.2661 259.558 44.7439 258.359C44.2635 257.98 43.7184 257.666 43.1451 257.425C42.382 257.111 41.5502 256.93 40.6701 256.922C40.6458 256.922 40.6176 256.922 40.5893 256.922C40.3592 256.922 40.129 256.934 39.8989 256.954C39.802 256.966 39.7091 256.978 39.6122 256.99C39.5194 257.002 39.4225 257.014 39.3296 257.034C39.2367 257.055 39.1439 257.071 39.051 257.095C36.3822 257.723 34.3271 259.937 33.9435 262.694C33.9112 262.947 33.887 263.205 33.883 263.467H26.9667C26.9424 262.472 26.7083 261.531 26.2964 260.693C25.9573 260.001 25.5091 259.377 24.9681 258.846C23.8336 257.731 22.3033 257.014 20.6035 256.93C20.4864 256.93 20.3815 256.922 20.2644 256.922C20.1715 256.922 20.0787 256.922 19.9858 256.93C19.8727 256.93 19.7678 256.942 19.6587 256.954C16.2793 257.252 13.6267 260.041 13.554 263.471H6.6377C6.62155 262.633 6.45197 261.832 6.14915 261.1C5.21648 258.802 3.04429 257.147 0.456231 256.946C0.395668 256.946 0.335116 256.938 0.278591 256.934C0.205915 256.934 0.133232 256.934 0.0565191 256.926H0V249.966C3.14928 249.878 5.7656 247.632 6.38334 244.653C6.4762 244.21 6.52465 243.751 6.52465 243.281C6.52465 243.051 6.51657 242.818 6.49235 242.588C6.15319 239.34 3.49247 236.788 0.189765 236.611C0.125164 236.603 0.0686297 236.595 0.00402915 236.595V229.696C3.6257 229.595 6.52868 226.649 6.52868 223.018C6.52868 222.161 6.37526 221.347 6.07244 220.595C5.88268 220.092 5.62024 219.621 5.31742 219.186C5.17611 218.981 5.02268 218.787 4.86118 218.602C4.85311 218.594 4.84504 218.586 4.841 218.582C3.65396 217.242 1.92589 216.384 0.00402915 216.328V209.501C3.1533 209.413 5.76963 207.167 6.38737 204.188C6.48023 203.745 6.52868 203.287 6.52868 202.816C6.52868 202.755 6.52868 202.695 6.52868 202.634C6.52868 202.562 6.52869 202.494 6.52061 202.421C6.52061 202.321 6.51254 202.22 6.49639 202.123C6.48428 202.019 6.47217 201.918 6.46005 201.817C6.19358 199.857 5.07114 198.171 3.47631 197.14C2.83838 196.73 2.12777 196.42 1.36468 196.243C0.928622 196.138 0.472383 196.078 0.00402915 196.065V189.235C3.43593 189.138 6.22183 186.486 6.50042 183.121C6.52061 182.935 6.52465 182.746 6.52465 182.557V182.485C6.52465 182.332 6.52464 182.179 6.51253 182.034C6.28643 178.612 3.46824 175.895 0 175.799V168.968C0.0646005 168.968 0.121123 168.968 0.185723 168.96C2.01876 168.859 3.65801 168.03 4.8087 166.75C5.75349 165.708 6.36718 164.363 6.49235 162.878C6.50446 162.769 6.51253 162.665 6.51657 162.556C6.52465 162.467 6.52465 162.379 6.52465 162.286V162.218C6.52465 161.107 6.25817 160.06 5.77771 159.139C5.49508 158.591 5.13171 158.088 4.71988 157.645C3.53284 156.385 1.86534 155.584 0 155.532V148.701C3.19369 148.613 5.83423 146.306 6.40756 143.267C6.46813 142.978 6.50042 142.676 6.51253 142.374C6.52061 142.253 6.52465 142.14 6.52465 142.02C6.52465 141.943 6.52465 141.867 6.52465 141.794C6.52465 141.722 6.52465 141.645 6.51657 141.573C6.32277 138.115 3.50053 135.37 0.00402915 135.273V128.443C3.62166 128.346 6.51657 125.408 6.52868 121.781V121.757C6.52868 121.62 6.52868 121.483 6.51657 121.346C6.49638 120.924 6.4439 120.509 6.34296 120.115C5.6485 117.241 3.08467 115.091 0.00402915 115.007V108.18C1.75632 108.132 3.35923 107.407 4.53011 106.252C5.01865 105.781 5.43451 105.226 5.75751 104.622C5.84634 104.449 5.93113 104.268 6.00784 104.087C6.04821 103.994 6.08456 103.901 6.11686 103.809C6.1532 103.716 6.18953 103.624 6.21376 103.527C6.38333 102.992 6.48831 102.428 6.52061 101.845C6.52869 101.728 6.53273 101.615 6.53273 101.494C6.53273 101.374 6.53273 101.269 6.52465 101.156C6.52465 101.044 6.51253 100.939 6.50042 100.83C6.20568 97.4732 3.42786 94.8327 0.00807063 94.7442V87.9135C0.169572 87.9135 0.323004 87.8974 0.480467 87.8853C0.637931 87.8692 0.791355 87.8491 0.944781 87.8209C1.1507 87.7887 1.34853 87.7484 1.54233 87.6921C1.64327 87.6679 1.74017 87.6397 1.83707 87.6075C1.93397 87.5834 2.03087 87.5472 2.12373 87.5109C2.22063 87.4787 2.3135 87.4385 2.40637 87.3982C2.49923 87.362 2.59209 87.3218 2.68092 87.2775C2.77378 87.2372 2.86261 87.193 2.94739 87.1447C3.03622 87.1004 3.12101 87.0521 3.20983 86.9998C3.29462 86.9515 3.37941 86.8991 3.4642 86.8428C3.54899 86.7904 3.62974 86.7381 3.71049 86.6737C5.35781 85.5064 6.45198 83.6186 6.52465 81.4692C6.52465 81.4169 6.52465 81.3605 6.52465 81.3042V81.1633C6.52465 81.0747 6.52465 80.9862 6.51657 80.9016C6.49235 80.1691 6.34699 79.4727 6.09666 78.8206C6.02803 78.6274 5.94728 78.4423 5.85845 78.2611C5.72925 77.9914 5.57987 77.7298 5.41433 77.4803C5.41433 77.4803 5.40625 77.4803 5.40625 77.4722C5.29724 77.3072 5.18015 77.1421 5.05095 76.9852C4.92578 76.8282 4.78851 76.6793 4.65123 76.5343C4.5826 76.4619 4.50992 76.3894 4.43724 76.321C4.36457 76.2486 4.2919 76.1842 4.21519 76.1198C4.14251 76.0473 4.06176 75.9869 3.98504 75.9265C3.91237 75.8621 3.83566 75.8058 3.75894 75.7535C3.66608 75.685 3.57321 75.6247 3.48035 75.5643C3.40364 75.5079 3.32289 75.4596 3.24214 75.4154C3.15735 75.359 3.06851 75.3107 2.97969 75.2664C2.8949 75.2141 2.80609 75.1698 2.71322 75.1296C2.62036 75.0853 2.5275 75.041 2.43463 75.0048C2.34581 74.9645 2.25293 74.9323 2.16007 74.8961C1.88552 74.7915 1.6029 74.7069 1.3122 74.6385C1.21126 74.6143 1.10628 74.5942 1.0013 74.5781C0.916512 74.558 0.831726 74.5499 0.738863 74.5379C0.609662 74.5137 0.476427 74.5057 0.339151 74.4936C0.2261 74.4815 0.117088 74.4775 0 74.4735V67.6428C0.488541 67.6307 0.960924 67.5663 1.41717 67.4536C2.25697 67.2483 3.02814 66.8901 3.71452 66.403C5.27705 65.2921 6.33893 63.521 6.49639 61.5044C6.5085 61.4038 6.51253 61.3032 6.51657 61.2025C6.52465 61.126 6.52465 61.0455 6.52465 60.965C6.52465 60.8483 6.52465 60.7396 6.51657 60.6269C6.51657 60.5182 6.50446 60.4136 6.49235 60.3049C6.43582 59.6206 6.27836 58.9686 6.02803 58.3608C5.04691 55.9819 2.72533 54.2913 0 54.2189V47.3882C0.763094 47.3681 1.48984 47.2191 2.16411 46.9655C2.23679 46.9414 2.30542 46.9172 2.37406 46.8891C2.52749 46.8247 2.67688 46.7603 2.82223 46.6878C4.23133 45.9874 5.35377 44.804 5.97959 43.359C6.19761 42.872 6.35104 42.3487 6.43583 41.8053C6.50447 41.4471 6.52868 41.0808 6.52868 40.7064C6.52868 37.0717 3.62973 34.1213 0.00402915 34.0206V27.1215C0.763085 27.1014 1.47773 26.9525 2.16007 26.7069C4.71179 25.7691 6.52868 23.3177 6.52868 20.4438C6.52868 19.5462 6.35508 18.6848 6.03207 17.9039C5.05095 15.525 2.72936 13.8345 0.00402915 13.762V6.88302C0.104967 6.88302 0.197839 6.88302 0.302815 6.87497C0.407791 6.86692 0.516799 6.85887 0.625813 6.85082C4.00927 6.50466 6.65385 3.65484 6.65385 0.189183C6.65385 0.12478 6.64173 0.0684316 6.64173 0.00402909H13.558C13.558 0.0684316 13.558 0.12478 13.558 0.189183C13.558 3.7917 16.4085 6.73006 19.9858 6.87497C20.0787 6.87497 20.1796 6.88302 20.2724 6.88302H20.333C24.0112 6.85082 26.9788 3.86013 26.9788 0.189183C26.9788 0.12478 26.9667 0.0684316 26.9667 0.00402909H33.8911C33.8911 0.0684316 33.8789 0.12478 33.8789 0.189183C33.8789 0.527296 33.9072 0.857362 33.9556 1.17937C34.4119 4.29082 37.0282 6.70189 40.23 6.87497C40.3471 6.87497 40.4722 6.88302 40.5893 6.88302H40.6135C40.7266 6.88302 40.8275 6.88302 40.9406 6.87095C41.0133 6.87095 41.0859 6.8629 41.1586 6.85485C41.2353 6.85485 41.308 6.84277 41.3807 6.83069C41.4937 6.81459 41.5987 6.80252 41.7158 6.78239C41.8288 6.76227 41.9378 6.74214 42.0428 6.71397C43.3671 6.42818 44.5421 5.74793 45.4384 4.80604C46.5891 3.60654 47.2997 1.97635 47.2997 0.18516C47.2997 0.120757 47.2916 0.0644025 47.2916 0H54.2119C54.2119 0.0644025 54.1998 0.120757 54.1998 0.18516C54.1998 3.65082 56.8404 6.50063 60.2279 6.8468C60.3086 6.85485 60.3934 6.8629 60.4742 6.86692C60.5186 6.86692 60.563 6.87497 60.6034 6.87497C60.7043 6.87497 60.8093 6.88302 60.9143 6.88302C61.0192 6.88302 61.1282 6.88302 61.2373 6.87095C61.3503 6.87095 61.4553 6.85887 61.5643 6.8468C61.5764 6.8468 61.5885 6.8468 61.5966 6.8468C61.9438 6.8146 62.2789 6.75422 62.606 6.66969C63.2641 6.50063 63.8899 6.22289 64.4592 5.86868C66.3568 4.68931 67.6246 2.58818 67.6246 0.193212C67.6246 0.128809 67.6125 0.0724546 67.6085 0.00805203H74.5248C74.5248 0.0724546 74.5248 0.128809 74.5248 0.193212C74.5248 2.84579 76.0792 5.14013 78.3281 6.23095C78.4816 6.3034 78.635 6.37585 78.7925 6.43623C78.8732 6.4644 78.9539 6.49661 79.0387 6.52478C79.1558 6.56503 79.2729 6.60126 79.394 6.63749C79.5555 6.68176 79.713 6.72202 79.8785 6.75824C79.9956 6.78239 80.1127 6.80252 80.2339 6.82265C80.3267 6.83472 80.4196 6.8468 80.5124 6.85485C80.5286 6.85485 80.5367 6.85485 80.5528 6.85485C80.6659 6.86692 80.7708 6.87497 80.8879 6.879H80.9C81.001 6.879 81.106 6.88704 81.2109 6.88704H81.2392C81.3522 6.88704 81.4613 6.88705 81.5622 6.879C85.1193 6.70994 87.9536 3.77963 87.9536 0.193212C87.9536 0.128809 87.9415 0.0724546 87.9415 0.00805203H94.8659C94.8659 0.0724546 94.8537 0.128809 94.8537 0.193212C94.8537 2.48755 96.0125 4.51221 97.781 5.71573C98.217 6.02164 98.6934 6.26315 99.2022 6.45636C99.5211 6.57711 99.8482 6.66969 100.187 6.74214C100.199 6.74214 100.212 6.75019 100.228 6.75422C100.381 6.7824 100.539 6.81459 100.7 6.83069C100.878 6.85484 101.063 6.87095 101.249 6.879C101.354 6.879 101.459 6.88704 101.56 6.88704C101.661 6.88704 101.77 6.88705 101.871 6.879C105.432 6.71397 108.27 3.78365 108.27 0.193212C108.27 0.128809 108.258 0.0724546 108.254 0.00805203H115.175C115.175 0.0724546 115.167 0.128809 115.167 0.193212C115.167 1.65837 115.643 3.01887 116.438 4.12176C116.761 4.56453 117.133 4.95899 117.553 5.30918C118.187 5.84855 118.926 6.26717 119.733 6.53686C119.741 6.53686 119.745 6.53686 119.757 6.54491C119.899 6.59321 120.048 6.63749 120.197 6.67371C120.197 6.67371 120.209 6.67371 120.213 6.67371C120.258 6.68579 120.306 6.69787 120.351 6.70189C120.472 6.73007 120.597 6.75824 120.722 6.77837C120.734 6.77837 120.746 6.77837 120.755 6.78642C120.924 6.81057 121.098 6.83875 121.271 6.85485C121.372 6.8629 121.469 6.87094 121.578 6.87497C121.679 6.87497 121.78 6.88302 121.885 6.88302C121.99 6.88302 122.099 6.88302 122.2 6.87497C125.753 6.70994 128.591 3.77962 128.591 0.189183C128.591 0.12478 128.591 0.0684316 128.591 0.00402909H135.508C135.508 0.0684316 135.508 0.12478 135.508 0.189183C135.508 0.929812 135.629 1.64629 135.859 2.31447C136.041 2.86591 136.291 3.38516 136.606 3.86013C137.494 5.21258 138.859 6.2229 140.462 6.65359C140.478 6.65359 140.49 6.66164 140.506 6.66567H140.518C140.7 6.71799 140.89 6.75421 141.083 6.78642C141.18 6.80654 141.273 6.82265 141.374 6.83472C141.459 6.84277 141.54 6.85082 141.633 6.85887C141.725 6.86692 141.814 6.87497 141.907 6.88302C142 6.88302 142.093 6.89107 142.186 6.89107H142.214C145.929 6.89107 148.932 3.89233 148.932 0.197235C148.932 0.132832 148.916 0.0764836 148.916 0.0120811H155.845C155.845 0.0764836 155.829 0.132832 155.829 0.197235C155.829 0.31799 155.829 0.434719 155.841 0.555474C155.873 1.19547 155.994 1.81132 156.2 2.39094C156.919 4.45585 158.623 6.06189 160.742 6.64956C160.783 6.66164 160.819 6.66969 160.859 6.67774C160.936 6.70189 161.025 6.71799 161.11 6.73812C161.215 6.76227 161.316 6.78642 161.421 6.80252C161.522 6.82265 161.626 6.83472 161.731 6.8468C161.816 6.85887 161.909 6.86692 161.998 6.87095C162.079 6.879 162.159 6.88302 162.232 6.88704C162.341 6.88704 162.442 6.8951 162.543 6.8951C162.628 6.8951 162.721 6.89509 162.813 6.88704C166.391 6.74616 169.257 3.80377 169.257 0.201258C169.257 0.136855 169.249 0.0805066 169.245 0.0161041H176.166C176.166 0.0805066 176.158 0.136855 176.158 0.201258C176.158 0.466918 176.174 0.728556 176.198 0.990191C176.581 4.21434 179.25 6.73409 182.549 6.89107C182.654 6.89107 182.763 6.89913 182.868 6.89913C183.062 6.89913 183.264 6.89107 183.457 6.87497C183.47 6.87497 183.482 6.87497 183.494 6.87497C183.821 6.84679 184.144 6.79045 184.459 6.70994C184.556 6.68579 184.661 6.65761 184.758 6.62943C186.623 6.09006 188.145 4.76176 188.952 3.039C189.36 2.18164 189.582 1.21962 189.582 0.20931C189.582 0.144907 189.582 0.0885586 189.582 0.0241561H196.499C196.499 0.0885586 196.487 0.144907 196.487 0.20931C196.487 3.19195 198.441 5.7117 201.142 6.58113C201.174 6.59321 201.206 6.60529 201.235 6.60931C201.352 6.64554 201.469 6.67774 201.59 6.70591C201.756 6.74617 201.925 6.7824 202.099 6.81057C202.204 6.83472 202.317 6.8468 202.426 6.85887C202.68 6.88705 202.939 6.90315 203.201 6.90315C203.294 6.90315 203.387 6.90315 203.484 6.8951C203.576 6.88705 203.669 6.879 203.762 6.87095H203.77C203.77 6.87095 203.807 6.87095 203.823 6.87095C203.839 6.87095 203.851 6.87095 203.875 6.87095C203.891 6.87095 203.899 6.87094 203.924 6.86289C203.944 6.86289 203.956 6.8629 203.972 6.85485V13.7821C200.314 13.8345 197.363 16.8091 197.363 20.4679L197.326 20.4639Z" fill="#FAFAF9"/>
<path d="M37.3418 47.6055C37.2085 46.897 36.9178 45.774 36.4697 44.2324C36.0215 42.6948 35.6622 41.5878 35.3916 40.9197C35.8802 40.7788 36.3283 40.6459 36.7321 40.5252C37.1358 40.4044 37.5154 40.2917 37.8666 40.1871C38.1331 40.1066 38.4036 40.0261 38.6701 39.9456C38.9366 39.8651 39.2152 39.7886 39.4978 39.7121C40.5476 39.4263 41.4883 39.3217 42.316 39.3982C43.1437 39.4706 43.822 39.7121 44.3469 40.1187C44.8718 40.5252 45.223 41.0847 45.4007 41.7931C45.5783 42.5096 45.5258 43.1737 45.2472 43.7896C44.9687 44.4054 44.4801 44.9488 43.7816 45.4198C43.0872 45.8907 42.207 46.2691 41.1451 46.5589C40.8585 46.6354 40.5637 46.7159 40.2649 46.8004C39.9662 46.8849 39.6593 46.9654 39.3484 47.0459C38.5409 47.2673 38.1412 47.38 37.3337 47.6095L37.3418 47.6055ZM37.7294 41.4993C37.9393 42.3164 38.1412 43.0369 38.3189 43.6568C38.4198 44.007 38.5207 44.3652 38.6297 44.7234C38.7388 45.0817 38.8478 45.4439 38.9527 45.8022C39.1223 45.766 39.2071 45.7498 39.3726 45.7136C39.5866 45.6734 39.8249 45.6251 40.0833 45.5647C40.3457 45.5043 40.592 45.4439 40.8262 45.3795C41.4883 45.1984 42.0374 44.9569 42.4694 44.655C42.9015 44.3531 43.2043 43.9989 43.3698 43.5924C43.5394 43.1858 43.5636 42.7511 43.4425 42.2842C43.3213 41.8213 43.0952 41.459 42.7521 41.1853C42.4129 40.9156 41.9769 40.7587 41.4479 40.7104C40.919 40.6621 40.3255 40.7305 39.6593 40.9116C39.5543 40.9398 39.4413 40.972 39.3242 41.0082C39.2071 41.0444 39.0819 41.0807 38.9527 41.1249C38.763 41.1893 38.5611 41.2537 38.3471 41.3222C38.1331 41.3906 37.9272 41.447 37.7253 41.4953L37.7294 41.4993Z" fill="#F44E22"/>
<path d="M47.3639 44.9327C47.2387 44.1357 46.9965 43.0006 46.6371 41.5274C46.2778 40.0542 45.9669 38.9352 45.7045 38.1705C45.9467 38.1423 46.4191 38.0537 47.1257 37.9088C47.8322 37.7639 48.5913 37.5989 49.4028 37.4218C50.3355 37.2165 51.1753 37.0233 51.9263 36.8462C52.6773 36.6691 53.2385 36.5242 53.6059 36.4074C53.6382 36.6852 53.6826 36.9629 53.7432 37.2366C53.7997 37.5103 53.8724 37.784 53.9531 38.0497C53.6665 38.0336 53.2829 38.0457 52.8065 38.0859C52.33 38.1262 51.789 38.1866 51.1995 38.2751C50.6181 38.3637 50.0529 38.4643 49.5038 38.573C48.9547 38.6817 48.127 38.7944 48.0664 38.8869C48.018 38.9634 48.1754 39.4464 48.236 39.7242C48.2966 40.0019 48.3612 40.2796 48.4338 40.5533C49.2575 40.3803 50.1579 40.1629 51.139 39.9093C52.1201 39.6557 52.9155 39.4384 53.5171 39.2532C53.5373 39.4746 53.5736 39.7081 53.6261 39.9415C53.6786 40.179 53.7392 40.4004 53.8078 40.6137C53.1739 40.6983 52.3583 40.8311 51.3691 41.0243C50.3759 41.2135 49.4836 41.4188 48.6842 41.6281C48.8335 42.256 48.9749 42.7913 49.1121 43.2341C49.5522 43.1375 50.0408 43.0168 50.5737 42.8759C51.1067 42.735 51.6316 42.582 52.1403 42.4291C52.6732 42.2681 53.1699 42.1151 53.6221 41.9541C54.0702 41.7931 54.4255 41.6482 54.6839 41.5194C54.7162 41.7971 54.7647 42.0789 54.8212 42.3647C54.8818 42.6505 54.9545 42.9242 55.0352 43.1938C51.9586 43.8419 50.4203 44.1881 47.3599 44.9367L47.3639 44.9327Z" fill="#F44E22"/>
<path d="M59.0723 42.3807C58.9876 41.5797 58.8018 40.4326 58.5152 38.9433C58.2285 37.4539 57.9741 36.3229 57.7521 35.546C58.2446 35.4575 58.6888 35.377 59.0925 35.3005C59.4922 35.224 59.8799 35.1516 60.2352 35.0711C60.4855 35.0147 60.7479 34.9583 61.0184 34.906C61.2889 34.8537 61.5756 34.8014 61.8744 34.749C62.8434 34.58 63.6388 34.5196 64.2525 34.5719C64.8662 34.6202 65.3467 34.7933 65.6818 35.0912C66.0209 35.389 66.2349 35.8318 66.3278 36.4155C66.4085 36.9347 66.3601 37.3936 66.1824 37.7921C66.0048 38.1906 65.6495 38.5367 65.1206 38.8305C64.5916 39.1244 63.8568 39.3498 62.912 39.5148C61.9471 39.6839 61.4666 39.7684 60.5016 39.9455C60.4168 39.4947 60.3765 39.2653 60.2917 38.8144C60.3724 38.7983 60.4532 38.7863 60.5339 38.7742C60.6147 38.7621 60.6914 38.7541 60.7681 38.746C61.0023 38.7178 61.2445 38.6736 61.4827 38.6373C61.721 38.6011 61.9551 38.5609 62.1974 38.5206C63.013 38.3757 63.5944 38.1704 63.9416 37.8967C64.2888 37.623 64.4261 37.2728 64.3534 36.8542C64.3009 36.5443 64.1717 36.3148 63.9699 36.1659C63.764 36.017 63.4773 35.9365 63.1099 35.9204C62.7425 35.9043 62.266 35.9485 61.6887 36.0492C61.5595 36.0733 61.4303 36.0975 61.2889 36.1256C61.1476 36.1538 61.0063 36.182 60.861 36.2142C60.7116 36.2464 60.5622 36.2786 60.4168 36.3108C60.2715 36.339 60.1342 36.3672 59.9969 36.3913C60.1504 37.4016 60.3401 38.4482 60.5662 39.5269C60.7923 40.6097 61.0023 41.4268 61.2042 41.9823C60.3482 42.1392 59.9202 42.2197 59.0683 42.3848L59.0723 42.3807Z" fill="#F44E22"/>
<path d="M75.989 36.2907C76.0778 37.0474 75.989 37.7196 75.7185 38.3033C75.4479 38.8909 75.0119 39.3659 74.4143 39.7362C73.8127 40.1065 73.0739 40.348 72.1897 40.4688C71.2731 40.5936 70.4818 40.5614 69.8116 40.3641C69.1413 40.1669 68.6043 39.8248 68.2006 39.3337C67.7968 38.8426 67.5384 38.2147 67.4213 37.458C67.3042 36.7013 67.1912 36.021 67.0822 35.4213C66.9732 34.8215 66.8722 34.3425 66.7834 33.9803C67.1427 33.9803 67.5142 33.9521 67.9018 33.8997C68.2854 33.8434 68.6326 33.7629 68.9435 33.6582C68.9677 34.0366 69.0121 34.5236 69.0848 35.1234C69.1575 35.7231 69.2503 36.4195 69.3674 37.2165C69.4401 37.7116 69.5854 38.1221 69.8075 38.4482C70.0296 38.7742 70.3243 39.0037 70.6958 39.1405C71.0672 39.2774 71.5073 39.3136 72.0201 39.2411C72.5288 39.1727 72.9406 39.0238 73.2596 38.7903C73.5786 38.5568 73.8047 38.255 73.9298 37.8806C74.059 37.5063 74.0913 37.0716 74.0267 36.5805C73.9177 35.7392 73.8208 35.0268 73.736 34.4472C73.6472 33.8675 73.5665 33.3966 73.4897 33.0384C73.8491 33.0504 74.2246 33.0303 74.6122 32.986C74.9998 32.9418 75.347 32.8693 75.6539 32.7727C75.6619 33.1269 75.6983 33.618 75.7629 34.2499C75.8234 34.8819 75.9001 35.5621 75.9849 36.2947L75.989 36.2907Z" fill="#F44E22"/>
<path d="M77.7418 39.535C77.661 38.3717 77.556 37.2165 77.4268 36.0653C77.2976 34.9141 77.1402 33.7629 76.9585 32.6198C77.3703 32.6198 77.8629 32.5956 78.4362 32.5352C79.0096 32.4789 79.4779 32.4024 79.8292 32.3098C80.3823 32.9619 80.9435 33.61 81.5088 34.258C82.0781 34.902 82.6514 35.5461 83.2409 36.182C83.5235 36.492 83.8061 36.8019 84.0888 37.1038C84.3714 37.4097 84.6581 37.7156 84.9407 38.0215C84.7065 38.102 84.5935 38.1383 84.3593 38.2188C84.3068 37.1722 84.226 36.1216 84.1211 35.0711C84.0686 34.5679 84.0161 34.0487 83.9555 33.5214C83.895 32.9941 83.8263 32.4668 83.7496 31.9476C84.1211 31.9717 84.4804 31.9717 84.8276 31.9476C85.1749 31.9234 85.5059 31.8671 85.8249 31.7785C85.8491 32.3581 85.8814 32.9378 85.9178 33.5174C85.9541 34.093 85.9945 34.6766 86.0389 35.2643C86.1277 36.4115 86.2448 37.5627 86.3902 38.7179C85.296 38.8024 84.7509 38.8467 83.6567 38.9433C83.253 38.4522 82.8412 37.9692 82.4253 37.4942C82.0054 37.0193 81.5815 36.5523 81.1535 36.0894C80.2975 35.1677 79.3931 34.254 78.4483 33.3523C78.6825 33.2678 78.8036 33.2235 79.0378 33.139C79.1145 34.1574 79.2114 35.1798 79.3366 36.2102C79.4618 37.2406 79.6111 38.2751 79.7807 39.3136C78.9651 39.3981 78.5533 39.4424 77.7377 39.535H77.7418Z" fill="#F44E22"/>
<path d="M90.3555 38.4441C90.3757 37.8243 90.3555 36.9508 90.2949 35.8318C90.2384 34.7088 90.1617 33.6783 90.0729 32.7365C89.3744 32.7928 88.7688 32.8612 88.256 32.9498C87.7432 33.0383 87.2547 33.143 86.7863 33.2718C86.8186 33.0102 86.8267 32.7485 86.8065 32.4869C86.7863 32.2293 86.7419 31.9717 86.6733 31.7141C88.3246 31.6376 89.7822 31.5651 91.0459 31.4967C92.3097 31.4242 93.7672 31.3317 95.4145 31.227C95.3782 31.4887 95.3661 31.7503 95.3782 32.0079C95.3863 32.2655 95.4226 32.5271 95.4751 32.7848C94.9906 32.7123 94.4859 32.66 93.9651 32.6278C93.4442 32.5996 92.8265 32.5956 92.1199 32.6197C92.1361 33.5777 92.1845 34.6162 92.2653 35.7352C92.346 36.8542 92.4268 37.7156 92.5156 38.3234C91.6516 38.3677 91.2195 38.3918 90.3515 38.4441H90.3555Z" fill="#F44E22"/>
<path d="M94.5574 38.2227C94.7956 37.6752 95.046 37.0916 95.3003 36.4838C95.5547 35.872 95.8009 35.2722 96.0392 34.6805C96.5398 33.4247 97.0001 32.2493 97.4119 31.1505C97.8722 31.1907 98.4415 31.2068 99.1198 31.1988C99.7981 31.1907 100.327 31.1464 100.707 31.074C101.244 32.3016 101.768 33.4569 102.265 34.5316C102.689 35.4493 103.242 36.6086 103.912 37.9972C102.98 38.0013 102.511 38.0053 101.579 38.0174C101.369 37.4015 101.094 36.681 100.751 35.8599C100.388 34.9864 100.04 34.1975 99.7174 33.4891C99.3903 32.7806 99.1521 32.3177 99.0068 32.1004C99.035 32.1004 99.0471 32.1004 99.0754 32.1004C98.8977 32.4143 98.49 33.4086 97.8682 35.083C97.6744 35.6143 97.4846 36.1416 97.3029 36.6609C97.1212 37.1801 96.9476 37.6712 96.7902 38.1341C95.8979 38.1663 95.4537 38.1824 94.5614 38.2186L94.5574 38.2227ZM97.4725 35.6264C97.9732 35.6345 98.5424 35.6305 99.1763 35.6184C99.8102 35.6063 100.375 35.5781 100.876 35.5459C101.042 36.0048 101.122 36.2342 101.284 36.6891C100.67 36.673 99.9556 36.673 99.14 36.6931C98.3244 36.7132 97.6098 36.7454 96.9961 36.7897C97.1858 36.3228 97.2787 36.0893 97.4725 35.6224V35.6264Z" fill="#F44E22"/>
<path d="M107.539 38.0135C107.616 37.297 107.664 36.1377 107.68 34.5357C107.696 32.9337 107.676 31.7745 107.612 31.054C108.116 31.058 108.577 31.062 108.996 31.062C109.416 31.062 109.808 31.062 110.167 31.062C110.446 31.062 110.724 31.062 110.999 31.062C111.278 31.062 111.56 31.066 111.851 31.0741C112.929 31.1023 113.854 31.2754 114.617 31.5813C115.384 31.8912 115.957 32.3138 116.341 32.8572C116.724 33.3966 116.898 34.0326 116.862 34.7611C116.825 35.4977 116.583 36.1176 116.139 36.6288C115.695 37.14 115.077 37.5184 114.278 37.7679C113.482 38.0175 112.541 38.1262 111.447 38.098C111.152 38.0899 110.85 38.0819 110.543 38.0779C110.236 38.0698 109.921 38.0618 109.602 38.0497C108.774 38.0296 108.358 38.0215 107.531 38.0094L107.539 38.0135ZM109.659 32.2776C109.622 33.1189 109.606 33.8676 109.598 34.5116C109.594 34.8738 109.586 35.2482 109.586 35.6225C109.586 35.9969 109.586 36.3712 109.586 36.7496C109.755 36.7657 109.84 36.7697 110.01 36.7858C110.224 36.8099 110.462 36.8301 110.729 36.8462C110.991 36.8663 111.245 36.8784 111.484 36.8824C112.166 36.8985 112.751 36.826 113.252 36.661C113.753 36.496 114.136 36.2424 114.415 35.9043C114.689 35.5662 114.839 35.1556 114.859 34.6726C114.879 34.1976 114.766 33.779 114.52 33.4248C114.273 33.0706 113.906 32.7928 113.418 32.5956C112.929 32.3984 112.344 32.2897 111.661 32.2736C111.552 32.2736 111.435 32.2696 111.314 32.2696C111.193 32.2696 111.064 32.2696 110.926 32.2736C110.729 32.2776 110.515 32.2857 110.297 32.2857C110.074 32.2857 109.86 32.2857 109.655 32.2736L109.659 32.2776Z" fill="#F44E22"/>
<path d="M117.823 38.3355C117.936 37.5345 118.033 36.3793 118.113 34.8658C118.194 33.3523 118.222 32.1931 118.194 31.384C118.432 31.4283 118.905 31.4807 119.619 31.541C120.334 31.6054 121.101 31.6658 121.925 31.7302C122.87 31.8027 123.73 31.859 124.497 31.9033C125.264 31.9476 125.837 31.9677 126.221 31.9637C126.172 32.2374 126.136 32.5151 126.112 32.7969C126.088 33.0786 126.075 33.3564 126.079 33.6381C125.809 33.5415 125.446 33.4409 124.977 33.3403C124.513 33.2397 123.98 33.143 123.39 33.0585C122.813 32.978 122.244 32.9096 121.691 32.8532C121.138 32.7969 120.318 32.6721 120.233 32.7405C120.164 32.7969 120.177 33.3081 120.152 33.5898C120.128 33.8716 120.112 34.1574 120.1 34.4432C120.932 34.5116 121.852 34.5639 122.862 34.6042C123.871 34.6444 124.686 34.6646 125.316 34.6605C125.272 34.8819 125.24 35.1114 125.219 35.3529C125.199 35.5944 125.195 35.8238 125.199 36.0492C124.569 35.9486 123.758 35.8439 122.757 35.7393C121.755 35.6346 120.847 35.5742 120.027 35.5501C119.987 36.1941 119.971 36.7456 119.975 37.2125C120.423 37.2447 120.919 37.2729 121.469 37.289C122.018 37.3091 122.563 37.3091 123.092 37.3091C123.645 37.3091 124.166 37.3051 124.638 37.2809C125.11 37.2568 125.49 37.2205 125.777 37.1682C125.728 37.4419 125.692 37.7277 125.668 38.0175C125.643 38.3073 125.631 38.5931 125.631 38.8708C122.51 38.6052 120.948 38.5005 117.823 38.3355Z" fill="#F44E22"/>
<path d="M126.898 38.9835C127.051 37.8283 127.184 36.6731 127.289 35.5179C127.394 34.3626 127.475 33.2074 127.527 32.0482C127.915 32.1407 128.299 32.2051 128.674 32.2414C129.05 32.2816 129.397 32.2856 129.72 32.2534C129.607 32.8572 129.486 33.7468 129.356 34.9221C129.223 36.1377 129.13 37.1521 129.086 37.9531C129.861 38.0215 130.871 38.0819 132.126 38.1382C133.378 38.1946 134.254 38.1946 134.755 38.1302C134.686 38.4643 134.638 38.7541 134.609 38.9996C134.581 39.2451 134.561 39.5068 134.549 39.7885C131.492 39.4142 129.962 39.2532 126.902 38.9755L126.898 38.9835Z" fill="#F44E22"/>
<path d="M138.518 40.3119C138.7 39.5229 138.894 38.3798 139.104 36.8784C139.313 35.377 139.439 34.2218 139.479 33.4168C139.713 33.4812 140.182 33.5738 140.888 33.6985C141.595 33.8233 142.358 33.9521 143.177 34.0809C144.118 34.2339 144.966 34.3627 145.729 34.4754C146.492 34.5841 147.066 34.6565 147.449 34.6847C147.376 34.9544 147.316 35.2281 147.267 35.5058C147.219 35.7836 147.183 36.0613 147.162 36.339C146.904 36.2183 146.545 36.0895 146.088 35.9486C145.632 35.8117 145.111 35.6668 144.526 35.534C143.957 35.4012 143.391 35.2885 142.846 35.1838C142.297 35.0792 141.49 34.8819 141.401 34.9463C141.328 34.9987 141.296 35.5058 141.247 35.7876C141.199 36.0694 141.159 36.3511 141.122 36.6329C141.95 36.7738 142.862 36.9066 143.868 37.0314C144.873 37.1561 145.689 37.2447 146.315 37.297C146.25 37.5104 146.201 37.7398 146.161 37.9773C146.121 38.2148 146.092 38.4442 146.084 38.6696C145.463 38.5126 144.659 38.3395 143.67 38.1504C142.681 37.9612 141.776 37.8203 140.961 37.7277C140.868 38.3637 140.799 38.9151 140.763 39.378C141.207 39.4505 141.7 39.5189 142.249 39.5833C142.794 39.6477 143.339 39.7 143.868 39.7443C144.421 39.7926 144.938 39.8288 145.414 39.849C145.891 39.8651 146.27 39.861 146.561 39.8369C146.488 40.1066 146.428 40.3843 146.379 40.6701C146.331 40.9559 146.294 41.2376 146.27 41.5194C143.177 40.9881 141.623 40.7466 138.518 40.3159V40.3119Z" fill="#F44E22"/>
<path d="M151.81 42.6465C151.018 42.4895 150.251 42.2681 149.508 41.9823C148.765 41.6925 148.091 41.3785 147.494 41.0324C147.599 40.7385 147.675 40.4366 147.732 40.1348C147.784 39.8329 147.813 39.527 147.817 39.221C148.168 39.7242 148.761 40.1629 149.597 40.5413C150.433 40.9237 151.317 41.2054 152.258 41.3906C152.855 41.5073 153.3 41.5315 153.59 41.459C153.881 41.3866 154.059 41.2175 154.111 40.9599C154.156 40.7345 154.111 40.5534 153.962 40.4085C153.816 40.2636 153.57 40.1267 153.219 39.9979C152.872 39.8691 152.294 39.692 151.495 39.4666C150.675 39.2371 150.013 39.0037 149.512 38.7702C149.012 38.5368 148.64 38.263 148.406 37.9491C148.172 37.6351 148.091 37.2527 148.168 36.81C148.293 36.1096 148.709 35.6427 149.428 35.4132C150.142 35.1838 151.168 35.1919 152.5 35.4495C153.227 35.5903 153.865 35.7514 154.414 35.9325C154.963 36.1136 155.524 36.339 156.09 36.5886C156.421 36.7335 156.631 36.8301 156.715 36.8703C156.643 37.0555 156.578 37.2487 156.53 37.4459C156.477 37.6432 156.437 37.8444 156.409 38.0457C156.396 38.1302 156.388 38.2188 156.376 38.3033C156.368 38.3919 156.36 38.4764 156.356 38.5649C155.767 38.1423 155.129 37.772 154.438 37.4459C153.748 37.1239 152.997 36.8824 152.185 36.7254C151.551 36.6047 151.083 36.5765 150.776 36.6409C150.473 36.7053 150.296 36.8663 150.247 37.1239C150.207 37.3373 150.255 37.5184 150.389 37.6754C150.522 37.8283 150.76 37.9732 151.095 38.1061C151.43 38.2389 151.915 38.3959 152.541 38.5649C152.726 38.6132 152.868 38.6535 152.956 38.6857C153.764 38.9192 154.414 39.1607 154.903 39.4062C155.391 39.6477 155.742 39.9335 155.96 40.2555C156.174 40.5775 156.235 40.9599 156.142 41.3946C155.993 42.0829 155.561 42.5297 154.846 42.735C154.131 42.9403 153.122 42.9081 151.81 42.6505V42.6465Z" fill="#F44E22"/>
<path d="M159.114 44.0834C159.307 43.4917 159.533 42.6504 159.796 41.5596C160.058 40.4688 160.276 39.4545 160.458 38.5247C159.768 38.3798 159.162 38.2791 158.645 38.2187C158.124 38.1584 157.624 38.1221 157.135 38.1141C157.24 37.8726 157.321 37.623 157.377 37.3694C157.434 37.1158 157.462 36.8542 157.466 36.5926C159.081 36.983 160.507 37.3252 161.75 37.615C162.99 37.9048 164.423 38.2228 166.05 38.589C165.941 38.8306 165.856 39.0761 165.792 39.3297C165.727 39.5833 165.687 39.8409 165.667 40.1025C165.218 39.8932 164.746 39.704 164.249 39.5269C163.753 39.3498 163.159 39.1727 162.473 38.9996C162.218 39.9254 161.972 40.9357 161.73 42.0306C161.488 43.1254 161.326 43.9747 161.237 44.5865C160.389 44.3853 159.966 44.2847 159.114 44.0914V44.0834Z" fill="#F44E22"/>
<path d="M165.122 45.5324C165.389 44.7717 165.712 43.6567 166.091 42.1875C166.467 40.7183 166.721 39.5873 166.854 38.7903C167.08 38.8789 167.541 39.0238 168.231 39.2291C168.926 39.4343 169.672 39.6436 170.476 39.8691C171.396 40.1267 172.232 40.3521 172.983 40.5493C173.734 40.7465 174.299 40.8794 174.679 40.9518C174.574 41.2135 174.485 41.4751 174.404 41.7488C174.324 42.0185 174.259 42.2922 174.207 42.5659C173.96 42.417 173.617 42.2479 173.177 42.0587C172.737 41.8696 172.228 41.6683 171.663 41.467C171.11 41.2738 170.557 41.0967 170.02 40.9317C169.483 40.7667 168.699 40.4809 168.603 40.5332C168.526 40.5775 168.433 41.0766 168.356 41.3503C168.275 41.624 168.203 41.8977 168.138 42.1755C168.95 42.4089 169.846 42.6424 170.835 42.8799C171.824 43.1173 172.632 43.2985 173.254 43.4192C173.169 43.6245 173.092 43.8459 173.024 44.0794C172.955 44.3128 172.907 44.5382 172.866 44.7596C172.265 44.5342 171.477 44.2726 170.512 43.9707C169.543 43.6728 168.659 43.4313 167.852 43.2421C167.686 43.866 167.561 44.4054 167.472 44.8602C167.908 44.981 168.393 45.1058 168.934 45.2305C169.475 45.3553 170.012 45.468 170.532 45.5727C171.078 45.6814 171.594 45.778 172.067 45.8504C172.539 45.9229 172.923 45.9591 173.213 45.9672C173.112 46.2288 173.02 46.4985 172.939 46.7762C172.858 47.054 172.789 47.3317 172.737 47.6054C169.701 46.7279 168.179 46.3133 165.122 45.5324Z" fill="#F44E22"/>
<path d="M49.1369 215.193C49.1369 216.944 48.7533 218.449 47.9902 219.717C47.2271 220.985 46.1168 221.951 44.6633 222.619C43.2098 223.288 41.4656 223.622 39.4387 223.622C37.4119 223.622 35.5708 223.288 34.1294 222.619C32.688 221.951 31.6019 220.985 30.8751 219.729C30.1484 218.469 29.785 216.96 29.785 215.193C29.785 213.426 29.7688 211.848 29.7325 210.443C29.6961 209.043 29.6437 207.915 29.571 207.062C30.3543 207.191 31.1779 207.259 32.0339 207.263C32.8898 207.271 33.6731 207.203 34.3878 207.062C34.3151 207.932 34.2626 209.059 34.2263 210.443C34.1899 211.832 34.1738 213.45 34.1738 215.298C34.1738 216.449 34.3676 217.431 34.7511 218.244C35.1347 219.057 35.7201 219.677 36.5075 220.112C37.2907 220.546 38.2719 220.764 39.4387 220.764C40.6056 220.764 41.5665 220.546 42.3498 220.112C43.1331 219.677 43.7225 219.053 44.1142 218.232C44.5058 217.415 44.7037 216.437 44.7037 215.298C44.7037 213.349 44.6875 211.699 44.6592 210.347C44.631 208.994 44.5825 207.899 44.5099 207.058C45.2931 207.187 46.1168 207.255 46.9808 207.259C47.8449 207.267 48.6241 207.199 49.3266 207.058C49.2539 207.867 49.2055 209.002 49.1772 210.463C49.149 211.921 49.1328 213.498 49.1328 215.189L49.1369 215.193Z" fill="#F44E22"/>
<path d="M52.2172 223.066C52.3746 221.219 52.4513 218.55 52.4513 215.064C52.4513 211.578 52.3706 208.91 52.2172 207.062C53.2871 207.078 54.2844 207.082 55.2049 207.082C56.1255 207.082 57.0137 207.066 57.8697 207.038C58.4673 207.01 59.081 206.994 59.7108 206.986C60.3407 206.978 61.0028 206.974 61.7013 206.974C64.8425 206.974 67.156 207.36 68.6499 208.137C70.1398 208.914 70.8867 210.097 70.8867 211.691C70.8867 212.899 70.4991 213.861 69.7199 214.573C68.9406 215.286 68.0403 215.781 67.0107 216.054C65.9811 216.328 65.0404 216.469 64.1844 216.469V216.811C66.1265 217.165 67.6809 217.958 68.8518 219.19C70.0227 220.422 70.9271 221.714 71.569 223.062H65.4239C65.2947 221.766 65.004 220.72 64.5478 219.915C64.0915 219.11 63.4334 218.498 62.5775 218.079C61.7215 217.66 60.5991 217.387 59.2182 217.258C58.875 217.214 58.4955 217.185 58.0716 217.173C57.6517 217.157 57.2277 217.153 56.7998 217.153C56.8563 219.23 56.8926 220.41 56.9047 220.695C56.9209 221.122 56.9451 221.529 56.9814 221.911C57.0178 222.297 57.0501 222.68 57.0783 223.062H52.2172V223.066ZM56.7796 214.509L57.7849 214.573C58.3259 214.601 58.9074 214.629 59.5291 214.658C60.1509 214.686 60.7606 214.702 61.3581 214.702C62.416 214.702 63.3002 214.609 64.0108 214.424C64.7254 214.239 65.2624 213.957 65.6258 213.583C65.9892 213.205 66.1709 212.734 66.1709 212.162C66.1709 211.353 65.7671 210.761 64.9596 210.391C64.1521 210.021 63.0135 209.836 61.5439 209.836C61.0028 209.836 60.4618 209.836 59.9288 209.848C59.3919 209.856 58.8831 209.872 58.3986 209.9L56.8563 209.92C56.828 210.633 56.8078 211.369 56.7917 212.13C56.7755 212.891 56.7715 213.684 56.7715 214.509H56.7796Z" fill="#F44E22"/>
<path d="M92.4191 215.193C92.4191 216.944 92.0356 218.449 91.2725 219.717C90.5094 220.985 89.399 221.951 87.9455 222.619C86.492 223.288 84.7478 223.622 82.721 223.622C80.6941 223.622 78.853 223.288 77.4116 222.619C75.9702 221.951 74.8841 220.985 74.1574 219.729C73.4306 218.469 73.0672 216.96 73.0672 215.193C73.0672 213.426 73.0511 211.848 73.0147 210.443C72.9784 209.043 72.9259 207.915 72.8532 207.062C73.6365 207.191 74.4602 207.259 75.3161 207.263C76.1721 207.271 76.9554 207.203 77.67 207.062C77.5973 207.932 77.5449 209.059 77.5085 210.443C77.4722 211.832 77.456 213.45 77.456 215.298C77.456 216.449 77.6498 217.431 78.0334 218.244C78.417 219.057 79.0024 219.677 79.7897 220.112C80.573 220.546 81.5541 220.764 82.721 220.764C83.8878 220.764 84.8488 220.546 85.632 220.112C86.4153 219.677 87.0048 219.053 87.3964 218.232C87.7881 217.415 87.9859 216.437 87.9859 215.298C87.9859 213.349 87.9698 211.699 87.9415 210.347C87.9132 208.994 87.8648 207.899 87.7921 207.058C88.5754 207.187 89.3991 207.255 90.2631 207.259C91.1271 207.267 91.9064 207.199 92.6089 207.058C92.5362 207.867 92.4878 209.002 92.4595 210.463C92.4312 211.921 92.4151 213.498 92.4151 215.189L92.4191 215.193Z" fill="#F44E22"/>
<path d="M105.819 223.388C103.449 223.388 101.427 223.046 99.751 222.366C98.0754 221.681 96.8036 220.707 95.9396 219.443C95.0755 218.176 94.6435 216.69 94.6435 214.984C94.6435 213.192 95.0998 211.671 96.0123 210.427C96.9248 209.183 98.241 208.246 99.961 207.61C101.681 206.978 103.732 206.66 106.114 206.66C107.697 206.66 109.376 206.796 111.157 207.074C112.934 207.352 114.613 207.819 116.2 208.471C116.087 209.28 116.03 210.033 116.03 210.721C116.03 211.409 116.079 212.021 116.18 212.544C114.823 211.675 113.269 210.991 111.512 210.483C109.756 209.98 107.959 209.727 106.118 209.727C104.677 209.727 103.433 209.94 102.383 210.367C101.334 210.793 100.53 211.401 99.9771 212.19C99.4199 212.979 99.1414 213.909 99.1414 214.976C99.1414 216.042 99.4038 216.98 99.9327 217.793C100.462 218.602 101.229 219.234 102.234 219.681C103.239 220.128 104.435 220.353 105.819 220.353C107.063 220.353 108.303 220.136 109.546 219.701C110.786 219.266 111.823 218.473 112.651 217.322C112.094 217.322 111.533 217.322 110.971 217.334C110.406 217.342 109.853 217.358 109.312 217.387C108.226 217.415 107.245 217.467 106.356 217.536C105.472 217.608 104.794 217.693 104.321 217.793C104.422 217.294 104.459 216.71 104.439 216.042C104.418 215.374 104.35 214.734 104.237 214.122C106.179 214.223 108.214 214.271 110.35 214.271C112.485 214.271 114.464 214.223 116.289 214.122C116.188 214.79 116.139 215.571 116.139 216.461C116.139 217.35 116.188 218.172 116.289 218.924C115.376 220.333 113.963 221.428 112.049 222.213C110.136 222.994 108.06 223.388 105.819 223.388Z" fill="#F44E22"/>
<path d="M137.994 215.193C137.994 216.944 137.611 218.449 136.848 219.717C136.085 220.985 134.974 221.951 133.521 222.619C132.067 223.288 130.323 223.622 128.296 223.622C126.269 223.622 124.428 223.288 122.987 222.619C121.545 221.951 120.459 220.985 119.733 219.729C119.006 218.469 118.642 216.96 118.642 215.193C118.642 213.426 118.626 211.848 118.59 210.443C118.554 209.043 118.501 207.915 118.428 207.062C119.212 207.191 120.035 207.259 120.891 207.263C121.747 207.271 122.531 207.203 123.245 207.062C123.172 207.932 123.12 209.059 123.084 210.443C123.047 211.832 123.031 213.45 123.031 215.298C123.031 216.449 123.225 217.431 123.609 218.244C123.992 219.057 124.578 219.677 125.365 220.112C126.148 220.546 127.129 220.764 128.296 220.764C129.463 220.764 130.424 220.546 131.207 220.112C131.99 219.677 132.58 219.053 132.972 218.232C133.363 217.415 133.561 216.437 133.561 215.298C133.561 213.349 133.545 211.699 133.517 210.347C133.488 208.994 133.44 207.899 133.367 207.058C134.151 207.187 134.974 207.255 135.838 207.259C136.702 207.267 137.482 207.199 138.184 207.058C138.111 207.867 138.063 209.002 138.035 210.463C138.006 211.921 137.99 213.498 137.99 215.189L137.994 215.193Z" fill="#F44E22"/>
<path d="M138.402 223.066C139.004 221.826 139.613 220.518 140.243 219.138C140.869 217.757 141.479 216.401 142.064 215.06C143.291 212.214 144.398 209.546 145.383 207.058C146.396 207.187 147.652 207.259 149.15 207.271C150.648 207.288 151.819 207.215 152.663 207.058C153.805 209.904 154.924 212.573 156.022 215.06C156.95 217.193 158.17 219.862 159.684 223.062H154.374C153.918 221.641 153.317 219.975 152.578 218.067C151.794 216.046 151.056 214.215 150.361 212.573C149.671 210.93 149.166 209.852 148.851 209.34H149C148.585 210.053 147.632 212.315 146.134 216.127C145.661 217.334 145.201 218.53 144.753 219.713C144.305 220.893 143.877 222.012 143.481 223.062H138.406L138.402 223.066ZM145.209 217.346C146.336 217.403 147.616 217.431 149.041 217.431C150.466 217.431 151.746 217.403 152.872 217.346L153.749 219.991C152.364 219.935 150.749 219.906 148.9 219.906C147.05 219.906 145.435 219.935 144.05 219.991L145.205 217.346H145.209Z" fill="#F44E22"/>
<path d="M163.706 223.066C163.819 222.1 163.876 221.134 163.876 220.176C163.876 219.218 163.819 218.26 163.706 217.306C162.551 215.728 161.207 213.989 159.681 212.098C158.267 210.318 156.874 208.64 155.506 207.062C156.434 207.191 157.403 207.259 158.417 207.263C159.43 207.271 160.266 207.203 160.92 207.062C161.663 208.258 162.539 209.618 163.553 211.14C164.651 212.717 165.587 214.022 166.359 215.044H165.696C166.722 213.679 167.651 212.375 168.478 211.14C169.363 209.86 170.243 208.499 171.111 207.062C171.765 207.203 172.576 207.271 173.541 207.263C174.506 207.255 175.451 207.187 176.376 207.062C175.047 208.6 173.658 210.278 172.201 212.098C171.515 212.951 170.836 213.812 170.166 214.682C169.496 215.551 168.83 216.425 168.176 217.306C168.075 218.244 168.026 219.194 168.026 220.156C168.026 221.118 168.083 222.088 168.196 223.07H163.702L163.706 223.066Z" fill="#F44E22"/>
<path d="M60.7376 202.658C60.7901 202.091 60.8183 201.29 60.8264 200.255C60.8345 199.221 60.8264 198.271 60.7981 197.402C60.1764 197.414 59.6353 197.442 59.175 197.49C58.7148 197.538 58.2747 197.607 57.8507 197.691C57.8951 197.454 57.9194 197.212 57.9194 196.975C57.9194 196.737 57.8951 196.496 57.8507 196.258C59.3123 196.299 60.6003 196.319 61.7187 196.319C62.8371 196.319 64.1291 196.299 65.5907 196.258C65.5503 196.496 65.5301 196.737 65.5301 196.975C65.5301 197.212 65.5503 197.454 65.5907 197.691C65.1627 197.607 64.7186 197.538 64.2543 197.49C63.7899 197.442 63.2449 197.414 62.6191 197.402C62.5908 198.283 62.5868 199.241 62.6029 200.268C62.6191 201.298 62.6554 202.095 62.7038 202.658H60.7335H60.7376Z" fill="#F44E22"/>
<path d="M74.7446 199.507C74.7446 200.207 74.5912 200.811 74.2884 201.318C73.9815 201.825 73.5374 202.212 72.956 202.477C72.3746 202.743 71.6761 202.88 70.8686 202.88C70.0611 202.88 69.3222 202.747 68.7448 202.477C68.1675 202.212 67.7354 201.825 67.4447 201.322C67.154 200.819 67.0087 200.215 67.0087 199.507C67.0087 198.798 67.0006 198.166 66.9885 197.607C66.9724 197.047 66.9522 196.597 66.9239 196.254C67.2388 196.307 67.5659 196.331 67.9091 196.335C68.2523 196.335 68.5672 196.311 68.8498 196.254C68.8215 196.601 68.8014 197.051 68.7852 197.607C68.7691 198.162 68.765 198.81 68.765 199.547C68.765 200.01 68.8417 200.4 68.9952 200.726C69.1486 201.052 69.3828 201.298 69.6977 201.475C70.0126 201.648 70.4043 201.737 70.8726 201.737C71.341 201.737 71.7245 201.648 72.0354 201.475C72.3504 201.302 72.5845 201.052 72.742 200.722C72.8995 200.396 72.9762 200.006 72.9762 199.547C72.9762 198.766 72.9721 198.106 72.96 197.567C72.9479 197.027 72.9277 196.589 72.8995 196.25C73.2144 196.303 73.5414 196.327 73.8887 196.331C74.2359 196.335 74.5468 196.307 74.8254 196.25C74.7971 196.576 74.7769 197.027 74.7648 197.611C74.7527 198.195 74.7486 198.827 74.7486 199.503L74.7446 199.507Z" fill="#F44E22"/>
<path d="M76.8357 202.658C76.9003 201.918 76.9286 200.851 76.9286 199.458C76.9286 198.066 76.8963 196.999 76.8357 196.258C77.2637 196.262 77.6634 196.267 78.0308 196.267C78.3982 196.267 78.7536 196.262 79.0967 196.25C79.335 196.238 79.5813 196.23 79.8316 196.23C80.0819 196.23 80.3484 196.226 80.627 196.226C81.8826 196.226 82.8072 196.379 83.4048 196.693C84.0023 197.007 84.3011 197.478 84.3011 198.114C84.3011 198.597 84.1477 198.983 83.8328 199.265C83.5219 199.551 83.1585 199.748 82.7507 199.857C82.3389 199.97 81.9634 200.022 81.6202 200.022V200.159C82.3954 200.3 83.0172 200.618 83.4855 201.109C83.9539 201.6 84.3173 202.119 84.5716 202.658H82.1128C82.0603 202.139 81.9432 201.721 81.7615 201.399C81.5798 201.077 81.3174 200.831 80.9742 200.666C80.631 200.497 80.1828 200.388 79.6297 200.336C79.4924 200.32 79.339 200.308 79.1735 200.304C79.0039 200.3 78.8343 200.296 78.6647 200.296C78.6889 201.125 78.7011 201.6 78.7091 201.713C78.7132 201.882 78.7253 202.047 78.7374 202.2C78.7495 202.353 78.7657 202.505 78.7778 202.662H76.8357V202.658ZM78.6567 199.233L79.0604 199.257C79.2784 199.269 79.5086 199.281 79.7589 199.289C80.0052 199.301 80.2515 199.306 80.4897 199.306C80.9136 199.306 81.2649 199.269 81.5516 199.193C81.8382 199.116 82.0522 199.008 82.1976 198.855C82.3429 198.706 82.4156 198.517 82.4156 198.287C82.4156 197.961 82.2541 197.728 81.9311 197.579C81.6081 197.43 81.1518 197.357 80.5664 197.357C80.3484 197.357 80.1344 197.357 79.9204 197.361C79.7064 197.361 79.5005 197.369 79.3067 197.381L78.6889 197.39C78.6768 197.675 78.6688 197.969 78.6647 198.271C78.6607 198.577 78.6567 198.891 78.6567 199.225V199.233Z" fill="#F44E22"/>
<path d="M86.3727 202.658C86.4373 201.918 86.4655 200.851 86.4655 199.458C86.4655 198.066 86.4332 196.999 86.3727 196.258C86.7159 196.311 87.047 196.335 87.37 196.339C87.693 196.343 88.0079 196.315 88.3147 196.258C88.2501 197.015 88.2219 198.094 88.2299 199.491C88.234 200.887 88.2744 201.946 88.343 202.663H86.3727V202.658Z" fill="#F44E22"/>
<path d="M94.5307 202.759C93.7999 202.759 93.0813 202.69 92.3707 202.553C91.6601 202.417 91.01 202.239 90.4205 202.026C90.4649 201.74 90.4892 201.459 90.4892 201.177C90.4892 200.895 90.4649 200.613 90.4205 200.336C90.8081 200.734 91.4057 201.036 92.2051 201.241C93.0046 201.447 93.8403 201.547 94.7003 201.547C95.2494 201.547 95.6451 201.487 95.8914 201.366C96.1377 201.245 96.2588 201.064 96.2588 200.819C96.2588 200.609 96.1821 200.452 96.0287 200.348C95.8753 200.247 95.633 200.167 95.306 200.114C94.9789 200.062 94.4419 200.001 93.699 199.941C92.94 199.873 92.3182 199.776 91.8418 199.647C91.3653 199.518 90.9939 199.329 90.7355 199.084C90.4771 198.834 90.3479 198.504 90.3479 198.09C90.3479 197.433 90.6386 196.946 91.224 196.62C91.8094 196.294 92.6977 196.133 93.8928 196.133C94.5429 196.133 95.1202 196.166 95.6249 196.226C96.1296 196.29 96.6505 196.383 97.1874 196.508C97.5024 196.576 97.7002 196.62 97.7769 196.645C97.7487 196.826 97.7285 197.011 97.7204 197.2C97.7123 197.389 97.7123 197.574 97.7244 197.764C97.7285 197.844 97.7366 197.925 97.7446 198.001C97.7527 198.081 97.7648 198.162 97.7729 198.238C97.1834 197.969 96.5616 197.755 95.9076 197.59C95.2535 197.425 94.559 197.341 93.8282 197.341C93.2589 197.341 92.8431 197.397 92.5927 197.506C92.3384 197.619 92.2132 197.792 92.2132 198.029C92.2132 198.23 92.2859 198.387 92.4272 198.504C92.5685 198.621 92.7986 198.709 93.1176 198.774C93.4325 198.838 93.8807 198.891 94.4581 198.935C94.6276 198.947 94.7569 198.959 94.8457 198.967C95.5926 199.035 96.2023 199.132 96.6747 199.261C97.1471 199.39 97.5064 199.579 97.7527 199.828C98.003 200.078 98.1242 200.408 98.1242 200.819C98.1242 201.467 97.8254 201.95 97.2318 202.268C96.6383 202.586 95.7339 202.747 94.5267 202.747L94.5307 202.759Z" fill="#F44E22"/>
<path d="M100.14 202.658C100.205 201.918 100.233 200.851 100.233 199.458C100.233 198.066 100.201 196.999 100.14 196.258C100.484 196.303 100.94 196.327 101.505 196.331C102.074 196.331 102.506 196.311 102.809 196.258C103.124 197.208 103.427 198.066 103.718 198.827C103.996 199.559 104.34 200.392 104.743 201.318L104.453 201.31C104.78 200.618 105.139 199.785 105.531 198.818C105.886 197.925 106.197 197.072 106.471 196.258C106.79 196.311 107.23 196.335 107.784 196.335C108.337 196.335 108.777 196.311 109.1 196.258C109.035 197.015 109.007 198.094 109.015 199.491C109.019 200.887 109.059 201.946 109.128 202.663H107.202C107.234 202.248 107.267 201.515 107.287 200.469C107.303 199.249 107.303 198.203 107.279 197.329L107.594 197.313C107.21 198.126 106.802 199.064 106.37 200.123C106.035 200.944 105.704 201.797 105.385 202.691H103.79C103.484 201.825 103.157 200.972 102.813 200.131C102.397 199.116 101.99 198.191 101.598 197.349L101.905 197.357C101.889 198.219 101.889 199.197 101.905 200.296C101.921 201.395 101.957 202.184 102.006 202.671H100.132L100.14 202.658Z" fill="#F44E22"/>
<path d="M115.398 202.803C114.485 202.803 113.698 202.671 113.044 202.405C112.386 202.139 111.885 201.757 111.538 201.254C111.191 200.751 111.017 200.147 111.017 199.438C111.017 198.73 111.191 198.126 111.538 197.623C111.885 197.12 112.39 196.733 113.044 196.472C113.698 196.206 114.485 196.073 115.398 196.073C116.31 196.073 117.098 196.206 117.752 196.472C118.406 196.738 118.91 197.12 119.254 197.623C119.597 198.126 119.77 198.73 119.77 199.438C119.77 200.147 119.597 200.747 119.254 201.254C118.906 201.757 118.406 202.143 117.752 202.405C117.094 202.671 116.31 202.803 115.398 202.803ZM115.398 201.668C115.939 201.668 116.407 201.584 116.795 201.411C117.182 201.242 117.481 200.992 117.687 200.662C117.893 200.336 117.994 199.942 117.994 199.479C117.994 199.016 117.893 198.601 117.687 198.263C117.481 197.925 117.186 197.667 116.795 197.486C116.407 197.305 115.943 197.217 115.398 197.217C114.853 197.217 114.384 197.305 113.997 197.486C113.609 197.667 113.318 197.925 113.117 198.263C112.915 198.601 112.814 199.008 112.814 199.479C112.814 199.95 112.915 200.332 113.117 200.662C113.318 200.988 113.613 201.238 113.997 201.411C114.38 201.58 114.849 201.668 115.398 201.668Z" fill="#F44E22"/>
<path d="M125.084 202.658C125.148 201.918 125.177 200.851 125.177 199.458C125.177 198.066 125.144 196.999 125.084 196.258C125.294 196.287 125.718 196.311 126.351 196.331C126.985 196.351 127.668 196.363 128.398 196.371C129.238 196.375 129.997 196.371 130.676 196.359C131.354 196.343 131.863 196.323 132.202 196.287C132.178 196.544 132.17 196.802 132.17 197.059C132.17 197.317 132.182 197.575 132.202 197.832C131.956 197.764 131.624 197.704 131.205 197.643C130.785 197.583 130.308 197.538 129.779 197.498C129.258 197.466 128.754 197.438 128.261 197.422C127.769 197.406 127.337 197.398 126.965 197.406C126.953 197.667 126.945 197.929 126.941 198.191C126.937 198.452 126.937 198.714 126.941 198.975C127.688 198.992 128.516 198.988 129.416 198.955C130.316 198.923 131.047 198.883 131.608 198.831C131.584 199.036 131.576 199.249 131.576 199.471C131.576 199.692 131.588 199.905 131.608 200.111C131.039 200.066 130.3 200.026 129.4 199.998C128.499 199.97 127.68 199.966 126.941 199.99C126.941 200.582 126.957 201.093 126.985 201.519C127.389 201.523 127.841 201.519 128.338 201.503C128.835 201.487 129.323 201.459 129.804 201.419C130.304 201.387 130.768 201.338 131.196 201.282C131.62 201.226 131.96 201.161 132.21 201.093C132.186 201.35 132.178 201.612 132.178 201.878C132.178 202.143 132.19 202.409 132.21 202.663H125.096L125.084 202.658Z" fill="#F44E22"/>
<path d="M134.213 202.658C134.257 201.588 134.281 200.521 134.281 199.454C134.281 198.388 134.257 197.321 134.213 196.258C134.572 196.303 135.008 196.327 135.517 196.331C136.03 196.331 136.441 196.311 136.764 196.258C137.192 196.907 137.632 197.551 138.077 198.191C138.525 198.831 138.985 199.467 139.461 200.098C139.688 200.404 139.918 200.71 140.152 201.012C140.382 201.314 140.616 201.616 140.85 201.918L140.309 202.055C140.342 201.093 140.354 200.127 140.334 199.153C140.329 198.686 140.317 198.207 140.305 197.72C140.289 197.229 140.269 196.746 140.241 196.258C140.568 196.311 140.883 196.335 141.189 196.339C141.496 196.339 141.795 196.315 142.082 196.258C142.066 196.794 142.054 197.325 142.041 197.861C142.033 198.392 142.029 198.931 142.029 199.471C142.029 200.529 142.054 201.592 142.106 202.663H139.615C139.288 202.179 138.957 201.7 138.622 201.234C138.287 200.763 137.947 200.3 137.604 199.837C136.918 198.915 136.203 197.997 135.456 197.08L135.997 196.943C135.969 197.881 135.961 198.827 135.977 199.781C135.993 200.734 136.025 201.692 136.086 202.663H134.221L134.213 202.658Z" fill="#F44E22"/>
<path d="M43.4793 233.354C42.8858 233.354 42.3205 233.302 41.7835 233.197C41.2465 233.093 40.7418 232.956 40.2654 232.779C40.2896 232.634 40.2977 232.489 40.2977 232.348C40.2977 232.207 40.2856 232.066 40.2654 231.925C40.5763 232.179 41.0406 232.38 41.6583 232.525C42.2761 232.67 42.91 232.742 43.5519 232.742C44.1455 232.742 44.5775 232.678 44.852 232.545C45.1225 232.412 45.2598 232.211 45.2598 231.937C45.2598 231.7 45.175 231.523 45.0014 231.41C44.8318 231.293 44.5936 231.209 44.2908 231.161C43.988 231.112 43.5358 231.064 42.9261 231.016C42.2882 230.959 41.7795 230.891 41.408 230.802C41.0366 230.718 40.7418 230.581 40.5319 230.392C40.3179 230.207 40.2129 229.945 40.2129 229.607C40.2129 229.124 40.435 228.762 40.8831 228.52C41.3313 228.279 42.0015 228.158 42.8979 228.158C43.3945 228.158 43.8346 228.182 44.2101 228.234C44.5856 228.283 44.9933 228.363 45.4334 228.468C45.6151 228.508 45.7685 228.544 45.8937 228.568C45.8816 228.669 45.8695 228.766 45.8654 228.858C45.8614 228.951 45.8614 229.043 45.8654 229.128C45.8695 229.168 45.8735 229.208 45.8776 229.245C45.8816 229.281 45.8856 229.321 45.8897 229.361C45.3931 229.18 44.9005 229.035 44.42 228.923C43.9395 228.81 43.4228 228.758 42.8736 228.758C42.2599 228.758 41.8158 228.826 41.5291 228.959C41.2465 229.092 41.1052 229.301 41.1052 229.579C41.1052 229.788 41.1779 229.953 41.3232 230.07C41.4686 230.186 41.6866 230.275 41.9894 230.335C42.2882 230.396 42.7081 230.448 43.2532 230.492C43.3703 230.5 43.4591 230.508 43.5196 230.513C44.101 230.557 44.5734 230.625 44.9368 230.71C45.3002 230.794 45.5949 230.935 45.813 231.124C46.031 231.318 46.14 231.579 46.14 231.917C46.14 232.4 45.9179 232.759 45.4738 232.992C45.0297 233.225 44.3594 233.342 43.4712 233.342L43.4793 233.354Z" fill="#F44E22"/>
<path d="M49.0835 233.286C49.1078 232.67 49.1199 231.958 49.1199 231.149C49.1199 230.34 49.1199 229.563 49.1077 228.818C48.6192 228.822 48.167 228.834 47.7471 228.854C47.3272 228.874 46.9194 228.903 46.5157 228.939C46.5318 228.826 46.5439 228.709 46.5439 228.589C46.5439 228.468 46.5358 228.351 46.5157 228.234C47.5977 228.255 48.6071 228.263 49.5479 228.263C50.4886 228.263 51.498 228.255 52.5841 228.234C52.5679 228.351 52.5558 228.472 52.5558 228.589C52.5558 228.705 52.5639 228.822 52.5841 228.939C52.1763 228.903 51.7645 228.874 51.3445 228.854C50.9246 228.834 50.4684 228.822 49.9758 228.818C49.9678 229.571 49.9637 230.348 49.9758 231.157C49.9839 231.966 49.996 232.674 50.0202 233.286H49.0835Z" fill="#F44E22"/>
<path d="M51.8054 233.286C52.0114 232.884 52.2173 232.469 52.4272 232.038C52.6372 231.608 52.8431 231.185 53.045 230.766C53.5295 229.76 53.9251 228.919 54.232 228.239C54.4339 228.263 54.6761 228.275 54.9628 228.275C55.2495 228.275 55.4796 228.263 55.6532 228.239C55.9883 228.975 56.388 229.816 56.8524 230.766C57.2198 231.519 57.6316 232.356 58.1 233.286H57.0865C56.9816 232.988 56.8039 232.57 56.5536 232.022C56.3557 231.559 56.1256 231.048 55.8591 230.489C55.5926 229.929 55.2737 229.317 54.9022 228.649H54.9426C54.8861 228.742 54.4944 229.563 53.7596 231.113C53.5941 231.479 53.4326 231.841 53.267 232.207C53.1015 232.574 52.944 232.932 52.7866 233.282H51.8135L51.8054 233.286ZM53.4003 231.583C53.8767 231.592 54.3895 231.596 54.9466 231.596C55.5038 231.596 56.0206 231.592 56.493 231.583L56.6505 232.115C56.1296 232.107 55.5523 232.103 54.9224 232.103C54.2926 232.103 53.7152 232.107 53.1944 232.115L53.4003 231.583Z" fill="#F44E22"/>
<path d="M58.9155 233.286C58.9437 232.586 58.9558 231.744 58.9558 230.762C58.9558 229.78 58.9437 228.939 58.9155 228.239C59.0931 228.259 59.3192 228.267 59.5938 228.271C59.8683 228.271 60.0863 228.263 60.2438 228.239C60.5628 228.971 60.906 229.724 61.2693 230.493C61.8467 231.632 62.202 232.368 62.3433 232.706H62.1859C62.416 232.252 62.7834 231.511 63.2962 230.489C63.6919 229.668 64.0431 228.919 64.35 228.243C64.5195 228.267 64.7376 228.275 65 228.275C65.2625 228.275 65.4805 228.263 65.6501 228.243C65.6258 228.975 65.6178 229.829 65.6178 230.803C65.6178 231.777 65.6379 232.606 65.6702 233.29H64.7537C64.7658 232.771 64.778 232.199 64.786 231.575C64.7901 231.024 64.786 230.078 64.7739 228.734L64.9112 228.722C64.5963 229.337 64.1965 230.138 63.712 231.125C63.4335 231.712 63.0903 232.437 62.6784 233.302H61.8427C61.6125 232.755 61.2734 232.03 60.8212 231.125C60.4134 230.279 60.0217 229.482 59.6382 228.742H59.7674C59.7593 229.49 59.7553 230.283 59.7674 231.121C59.7795 231.958 59.7876 232.682 59.8118 233.29H58.9155V233.286Z" fill="#F44E22"/>
<path d="M66.9617 233.286C66.99 232.614 67.0021 231.781 67.0021 230.79C67.0021 229.8 66.99 228.951 66.9617 228.239C67.2847 228.243 67.5916 228.247 67.8782 228.247C68.1649 228.247 68.4475 228.247 68.7221 228.239C68.9118 228.234 69.1097 228.23 69.3035 228.226C69.4973 228.222 69.6992 228.226 69.9051 228.226C70.4703 228.226 70.9347 228.287 71.298 228.408C71.6614 228.528 71.936 228.713 72.1177 228.967C72.2993 229.221 72.3922 229.543 72.3922 229.933C72.3922 230.291 72.3115 230.601 72.1459 230.859C71.9804 231.116 71.722 231.314 71.3626 231.455C71.0033 231.595 70.543 231.668 69.9818 231.668H67.7127V231.12H67.9711C68.0559 231.12 68.1447 231.121 68.2335 231.129C68.4879 231.133 68.7463 231.137 69.0007 231.141C69.255 231.141 69.5134 231.141 69.7759 231.141C70.3573 231.141 70.7933 231.044 71.084 230.847C71.3747 230.65 71.5241 230.36 71.5241 229.977C71.5241 229.708 71.4595 229.486 71.3263 229.313C71.1931 229.14 70.9992 229.011 70.7368 228.931C70.4784 228.85 70.1473 228.806 69.7517 228.806H69.2873C69.1258 228.806 68.9684 228.806 68.8069 228.814C68.6413 228.814 68.4798 228.814 68.3143 228.814C68.1488 228.814 67.9913 228.814 67.8338 228.814C67.8217 229.579 67.8177 230.36 67.8258 231.161C67.8338 231.962 67.8581 232.666 67.9025 233.274H66.9658L66.9617 233.286Z" fill="#F44E22"/>
<path d="M75.3793 233.286C75.3955 232.445 75.4076 231.604 75.4076 230.762C75.4076 229.921 75.3995 229.08 75.3793 228.239C75.557 228.259 75.7669 228.267 76.0092 228.271C76.2514 228.271 76.4533 228.263 76.6108 228.239C77.067 228.77 77.5273 229.301 77.9957 229.833C78.46 230.364 78.9324 230.891 79.4088 231.414C79.643 231.668 79.8731 231.922 80.1033 232.175C80.3334 232.429 80.5676 232.678 80.7977 232.932L80.5312 232.992C80.5434 232.328 80.5474 231.535 80.5393 230.617C80.5393 230.227 80.5393 229.833 80.5272 229.434C80.5191 229.036 80.5111 228.637 80.4949 228.243C80.6483 228.267 80.8018 228.279 80.9471 228.279C81.0925 228.279 81.2378 228.267 81.3791 228.243C81.371 228.665 81.363 229.088 81.363 229.506C81.363 229.925 81.363 230.348 81.363 230.77C81.363 231.736 81.3751 232.578 81.3953 233.29H80.184C79.8408 232.9 79.4976 232.509 79.1544 232.119C78.8112 231.728 78.464 231.346 78.1168 230.96C77.4223 230.187 76.7158 229.418 75.9931 228.657L76.2393 228.597C76.2272 229.37 76.2232 230.151 76.2272 230.931C76.2353 231.716 76.2474 232.501 76.2716 233.286H75.3793Z" fill="#F44E22"/>
<path d="M88.5953 230.738C88.5953 231.294 88.4742 231.773 88.236 232.171C87.9977 232.57 87.6505 232.88 87.2023 233.089C86.7542 233.302 86.2172 233.407 85.5954 233.407C84.9736 233.407 84.4245 233.302 83.9804 233.089C83.5322 232.876 83.1931 232.57 82.9589 232.171C82.7247 231.773 82.6076 231.294 82.6076 230.738C82.6076 230.247 82.6076 229.792 82.5996 229.374C82.5955 228.955 82.5874 228.577 82.5713 228.239C82.7207 228.263 82.8781 228.275 83.0396 228.275C83.2011 228.275 83.3505 228.263 83.4878 228.239C83.4757 228.577 83.4636 228.955 83.4596 229.374C83.4555 229.792 83.4515 230.255 83.4515 230.758C83.4515 231.189 83.5322 231.563 83.6978 231.873C83.8633 232.183 84.1056 232.421 84.4286 232.582C84.7516 232.743 85.1392 232.827 85.5914 232.827C86.0436 232.827 86.4352 232.747 86.7582 232.582C87.0812 232.417 87.3235 232.179 87.493 231.873C87.6586 231.563 87.7434 231.193 87.7434 230.758C87.7434 230.235 87.7434 229.768 87.7313 229.354C87.7191 228.939 87.7151 228.569 87.707 228.239C87.8564 228.263 88.0139 228.275 88.1754 228.275C88.3369 228.275 88.4863 228.263 88.6236 228.239C88.6114 228.565 88.5993 228.947 88.5953 229.378C88.5913 229.808 88.5872 230.263 88.5872 230.738H88.5953Z" fill="#F44E22"/>
<path d="M89.8225 233.286C89.8508 232.586 89.8629 231.744 89.8629 230.762C89.8629 229.78 89.8508 228.939 89.8225 228.239C90.0002 228.259 90.2263 228.267 90.5008 228.271C90.7754 228.271 90.9934 228.263 91.1509 228.239C91.4698 228.971 91.813 229.724 92.1764 230.493C92.7538 231.632 93.1091 232.368 93.2504 232.706H93.0929C93.3231 232.252 93.6905 231.511 94.2032 230.489C94.5989 229.668 94.9502 228.919 95.257 228.243C95.4266 228.267 95.6446 228.275 95.9071 228.275C96.1695 228.275 96.3875 228.263 96.5571 228.243C96.5329 228.975 96.5248 229.829 96.5248 230.803C96.5248 231.777 96.545 232.606 96.5773 233.29H95.6608C95.6729 232.771 95.685 232.199 95.6931 231.575C95.6971 231.024 95.6931 230.078 95.681 228.734L95.8182 228.722C95.5033 229.337 95.1036 230.138 94.6191 231.125C94.3405 231.712 93.9973 232.437 93.5855 233.302H92.7497C92.5196 232.755 92.1804 232.03 91.7282 231.125C91.3204 230.279 90.9288 229.482 90.5452 228.742H90.6744C90.6664 229.49 90.6623 230.283 90.6744 231.121C90.6865 231.958 90.6946 232.682 90.7188 233.29H89.8225V233.286Z" fill="#F44E22"/>
<path d="M97.8688 233.286C97.897 232.582 97.9091 231.736 97.9091 230.75C97.9091 229.764 97.897 228.919 97.8688 228.214H98.4906C98.7005 228.214 98.9145 228.214 99.1285 228.206C99.399 228.206 99.6776 228.206 99.9643 228.206C100.251 228.206 100.554 228.206 100.869 228.206C101.648 228.206 102.237 228.307 102.637 228.508C103.033 228.709 103.235 229.032 103.235 229.474C103.235 229.841 103.097 230.118 102.823 230.312C102.548 230.505 102.189 230.609 101.749 230.63V230.706C102.302 230.718 102.742 230.827 103.069 231.032C103.396 231.237 103.558 231.547 103.558 231.962C103.558 232.34 103.412 232.63 103.126 232.831C102.839 233.033 102.488 233.165 102.076 233.226C101.664 233.29 101.204 233.322 100.703 233.322C100.388 233.322 100.089 233.322 99.8068 233.322C99.5242 233.322 99.2577 233.318 99.0114 233.31C98.8257 233.306 98.6359 233.302 98.4462 233.298C98.2564 233.298 98.0666 233.298 97.8728 233.298L97.8688 233.286ZM98.7409 230.485C99.0841 230.489 99.4354 230.493 99.7947 230.493H100.877C101.369 230.493 101.737 230.424 101.975 230.279C102.213 230.134 102.334 229.921 102.334 229.631C102.334 229.341 102.213 229.112 101.971 228.987C101.729 228.862 101.365 228.798 100.877 228.798H99.7099C99.3384 228.798 99.0195 228.798 98.753 228.806C98.749 229.08 98.7449 229.354 98.7409 229.631C98.7409 229.909 98.7409 230.195 98.7409 230.485ZM98.7449 231.004C98.7449 231.29 98.7449 231.575 98.7449 231.857C98.7449 232.139 98.749 232.421 98.757 232.698C99.0599 232.702 99.3708 232.706 99.6938 232.711C100.017 232.711 100.372 232.711 100.756 232.711C101.434 232.711 101.914 232.63 102.189 232.473C102.464 232.312 102.601 232.099 102.601 231.829C102.601 231.559 102.472 231.366 102.213 231.217C101.955 231.068 101.511 230.996 100.873 230.996H99.7907C99.4313 230.996 99.08 230.996 98.7409 231.004H98.7449Z" fill="#F44E22"/>
<path d="M104.486 233.286C104.515 232.566 104.527 231.716 104.527 230.738C104.527 229.76 104.515 228.927 104.486 228.239C104.761 228.251 105.124 228.263 105.577 228.271C106.029 228.279 106.501 228.287 106.994 228.291C107.539 228.291 108.044 228.291 108.516 228.279C108.988 228.271 109.388 228.263 109.711 228.255C109.703 228.379 109.699 228.5 109.699 228.625C109.699 228.75 109.703 228.875 109.711 228.995C109.432 228.963 109.118 228.935 108.762 228.915C108.407 228.891 108.031 228.871 107.628 228.854C107.232 228.838 106.84 228.822 106.453 228.818C106.065 228.81 105.706 228.806 105.375 228.806C105.371 229.092 105.367 229.378 105.363 229.663C105.363 229.949 105.363 230.235 105.363 230.521C105.992 230.525 106.655 230.521 107.349 230.509C108.044 230.497 108.665 230.477 109.214 230.452C109.206 230.557 109.202 230.666 109.202 230.774C109.202 230.883 109.206 230.992 109.214 231.096C108.661 231.072 108.039 231.056 107.345 231.044C106.651 231.032 105.992 231.032 105.367 231.044C105.367 231.744 105.375 232.3 105.387 232.702C105.734 232.702 106.101 232.702 106.485 232.69C106.873 232.682 107.252 232.67 107.632 232.654C108.023 232.642 108.399 232.622 108.75 232.598C109.105 232.574 109.424 232.546 109.707 232.517C109.699 232.646 109.695 232.775 109.695 232.904C109.695 233.033 109.699 233.161 109.707 233.282H104.478L104.486 233.286Z" fill="#F44E22"/>
<path d="M110.732 233.286C110.761 232.586 110.773 231.744 110.773 230.762C110.773 229.78 110.761 228.939 110.732 228.239C111.047 228.243 111.35 228.247 111.637 228.247C111.923 228.247 112.206 228.247 112.485 228.239C112.674 228.234 112.872 228.23 113.066 228.226C113.26 228.222 113.466 228.226 113.676 228.226C114.56 228.226 115.222 228.347 115.65 228.585C116.082 228.822 116.296 229.197 116.296 229.7C116.296 230.11 116.163 230.424 115.9 230.642C115.638 230.859 115.331 231.004 114.984 231.076C114.637 231.145 114.273 231.181 113.894 231.181V231.249C114.519 231.334 115.044 231.555 115.472 231.905C115.9 232.256 116.243 232.714 116.502 233.286H115.331C115.21 232.835 115.032 232.473 114.81 232.199C114.588 231.926 114.301 231.724 113.95 231.587C113.599 231.451 113.167 231.374 112.646 231.35C112.44 231.346 112.25 231.342 112.077 231.338C111.903 231.338 111.742 231.338 111.596 231.338C111.604 231.901 111.612 232.26 111.616 232.409C111.616 232.557 111.616 232.706 111.629 232.847C111.641 232.988 111.641 233.133 111.645 233.282H110.72L110.732 233.286ZM111.604 230.794L112.036 230.807C112.25 230.811 112.464 230.815 112.674 230.819C112.884 230.823 113.082 230.827 113.264 230.827C113.752 230.827 114.152 230.794 114.459 230.734C114.766 230.674 115 230.565 115.161 230.412C115.323 230.259 115.4 230.05 115.4 229.78C115.4 229.434 115.254 229.184 114.96 229.035C114.665 228.887 114.229 228.81 113.655 228.81H113.013C112.799 228.81 112.594 228.81 112.388 228.818L111.62 228.826C111.616 229.144 111.612 229.466 111.608 229.796C111.604 230.126 111.608 230.456 111.608 230.794H111.604Z" fill="#F44E22"/>
<path d="M124.888 231.112C124.88 231.161 124.876 231.229 124.876 231.314C124.876 231.398 124.88 231.463 124.888 231.507C124.109 231.495 123.152 231.487 122.017 231.487C120.883 231.487 119.93 231.495 119.146 231.507C119.159 231.463 119.167 231.398 119.167 231.314C119.167 231.229 119.159 231.161 119.146 231.112C119.922 231.12 120.879 231.124 122.013 231.124C123.148 231.124 124.105 231.12 124.888 231.112Z" fill="#F44E22"/>
<path d="M133.735 230.738C133.735 231.294 133.613 231.773 133.375 232.171C133.137 232.57 132.79 232.88 132.342 233.089C131.893 233.302 131.356 233.407 130.735 233.407C130.113 233.407 129.564 233.302 129.12 233.089C128.672 232.876 128.332 232.57 128.098 232.171C127.864 231.773 127.747 231.294 127.747 230.738C127.747 230.247 127.747 229.792 127.739 229.374C127.735 228.955 127.727 228.577 127.711 228.239C127.86 228.263 128.017 228.275 128.179 228.275C128.34 228.275 128.49 228.263 128.627 228.239C128.615 228.577 128.603 228.955 128.599 229.374C128.595 229.792 128.591 230.255 128.591 230.758C128.591 231.189 128.672 231.563 128.837 231.873C129.003 232.183 129.245 232.421 129.568 232.582C129.891 232.743 130.278 232.827 130.731 232.827C131.183 232.827 131.574 232.747 131.897 232.582C132.22 232.417 132.463 232.179 132.632 231.873C132.798 231.563 132.883 231.193 132.883 230.758C132.883 230.235 132.883 229.768 132.871 229.354C132.858 228.939 132.854 228.569 132.846 228.239C132.996 228.263 133.153 228.275 133.315 228.275C133.476 228.275 133.626 228.263 133.763 228.239C133.751 228.565 133.739 228.947 133.735 229.378C133.731 229.808 133.727 230.263 133.727 230.738H133.735Z" fill="#F44E22"/>
<path d="M136.831 233.286C136.847 232.964 136.86 232.638 136.86 232.316C136.86 231.994 136.851 231.668 136.831 231.346C136.359 230.774 135.931 230.247 135.535 229.776C135.156 229.325 134.712 228.814 134.207 228.239C134.385 228.263 134.57 228.275 134.764 228.275C134.958 228.275 135.123 228.263 135.261 228.239C135.515 228.585 135.858 229.032 136.286 229.579C136.456 229.829 136.807 230.267 137.34 230.891H137.215C137.643 230.372 137.994 229.933 138.265 229.579C138.543 229.221 138.882 228.774 139.286 228.239C139.419 228.267 139.577 228.279 139.767 228.275C139.956 228.271 140.138 228.259 140.316 228.239C139.892 228.726 139.452 229.237 138.995 229.776C138.777 230.034 138.559 230.295 138.341 230.557C138.123 230.819 137.909 231.08 137.695 231.346C137.683 231.664 137.675 231.986 137.675 232.308C137.675 232.63 137.683 232.956 137.703 233.286H136.831Z" fill="#F44E22"/>
<path d="M146.101 233.387C145.37 233.387 144.744 233.278 144.227 233.065C143.711 232.851 143.315 232.545 143.044 232.151C142.774 231.756 142.637 231.286 142.637 230.738C142.637 230.191 142.778 229.708 143.065 229.317C143.351 228.927 143.759 228.629 144.288 228.428C144.817 228.226 145.447 228.126 146.174 228.126C146.614 228.126 147.054 228.166 147.502 228.251C147.95 228.335 148.431 228.48 148.939 228.689C148.919 228.834 148.911 228.967 148.911 229.088C148.911 229.209 148.919 229.345 148.939 229.494C148.431 229.213 147.954 229.015 147.506 228.903C147.058 228.79 146.626 228.734 146.214 228.73C145.661 228.73 145.18 228.81 144.777 228.967C144.369 229.124 144.058 229.353 143.836 229.655C143.618 229.957 143.509 230.315 143.509 230.734C143.509 231.153 143.61 231.507 143.812 231.813C144.013 232.119 144.316 232.352 144.72 232.521C145.124 232.686 145.612 232.771 146.186 232.771C146.702 232.771 147.187 232.694 147.639 232.537C148.095 232.384 148.527 232.123 148.943 231.752C148.931 231.885 148.931 232.014 148.943 232.143C148.955 232.272 148.972 232.4 148.992 232.537C148.608 232.823 148.184 233.036 147.724 233.177C147.264 233.314 146.723 233.387 146.101 233.387Z" fill="#F44E22"/>
<path d="M149.504 230.211C149.52 230.082 149.533 229.965 149.533 229.857C149.533 229.748 149.525 229.627 149.504 229.494C149.718 229.462 149.936 229.386 150.15 229.269C150.368 229.152 150.554 228.999 150.708 228.822C150.861 228.641 150.954 228.448 150.99 228.239C151.14 228.263 151.297 228.275 151.463 228.275C151.628 228.275 151.773 228.263 151.903 228.239C151.895 228.456 151.886 228.681 151.878 228.911C151.87 229.14 151.866 229.374 151.866 229.603C151.862 230.155 151.862 230.746 151.866 231.374C151.87 232.006 151.886 232.642 151.907 233.282H150.99C151.022 232.449 151.043 231.084 151.051 229.184V228.899H150.982C150.966 229.052 150.885 229.229 150.748 229.426C150.611 229.623 150.433 229.796 150.215 229.945C149.997 230.094 149.759 230.183 149.504 230.211Z" fill="#F44E22"/>
<path d="M158.481 230.669C158.481 231.233 158.364 231.716 158.125 232.118C157.887 232.521 157.544 232.827 157.088 233.036C156.635 233.249 156.082 233.354 155.44 233.354C155.093 233.354 154.73 233.318 154.346 233.241C153.963 233.165 153.583 233.044 153.204 232.871C153.228 232.738 153.236 232.614 153.236 232.493C153.236 232.372 153.224 232.231 153.204 232.074C153.454 232.271 153.769 232.432 154.148 232.557C154.528 232.686 154.928 232.75 155.348 232.75C155.848 232.75 156.304 232.65 156.708 232.448C157.112 232.247 157.407 231.933 157.592 231.503C157.778 231.072 157.794 230.528 157.645 229.868H157.576C157.584 230.392 157.403 230.798 157.023 231.084C156.648 231.37 156.09 231.515 155.356 231.515C154.944 231.515 154.552 231.462 154.185 231.354C153.817 231.245 153.51 231.076 153.272 230.838C153.034 230.601 152.913 230.295 152.913 229.925C152.913 229.514 153.038 229.18 153.288 228.918C153.539 228.657 153.87 228.468 154.274 228.347C154.681 228.23 155.125 228.17 155.61 228.17C156.466 228.17 157.156 228.363 157.685 228.749C158.214 229.136 158.481 229.78 158.481 230.673V230.669ZM157.399 229.917C157.399 229.546 157.241 229.261 156.93 229.059C156.615 228.858 156.179 228.757 155.61 228.757C155.041 228.757 154.593 228.858 154.274 229.059C153.955 229.261 153.793 229.546 153.793 229.909C153.793 230.138 153.866 230.331 154.007 230.492C154.148 230.653 154.358 230.778 154.629 230.863C154.899 230.947 155.218 230.991 155.594 230.991C155.969 230.991 156.288 230.947 156.559 230.863C156.829 230.778 157.035 230.653 157.181 230.492C157.326 230.331 157.395 230.138 157.395 229.917H157.399Z" fill="#F44E22"/>
<path d="M159.219 230.847C159.219 230.283 159.336 229.8 159.57 229.393C159.805 228.991 160.152 228.685 160.608 228.472C161.064 228.258 161.613 228.154 162.259 228.154C162.607 228.154 162.97 228.19 163.354 228.266C163.737 228.343 164.117 228.468 164.496 228.645C164.472 228.774 164.464 228.894 164.464 229.015C164.464 229.136 164.476 229.277 164.496 229.434C164.246 229.236 163.927 229.075 163.547 228.947C163.168 228.818 162.768 228.757 162.352 228.757C161.852 228.757 161.395 228.858 160.992 229.059C160.588 229.261 160.293 229.575 160.103 230.009C159.918 230.444 159.901 230.987 160.055 231.648H160.124C160.115 231.124 160.297 230.718 160.677 230.428C161.052 230.138 161.609 229.993 162.344 229.993C162.752 229.993 163.14 230.046 163.511 230.154C163.883 230.263 164.189 230.436 164.428 230.673C164.666 230.911 164.787 231.217 164.787 231.591C164.787 232.002 164.662 232.336 164.411 232.597C164.161 232.859 163.83 233.048 163.422 233.169C163.014 233.286 162.566 233.346 162.082 233.346C161.234 233.346 160.543 233.153 160.015 232.767C159.486 232.38 159.219 231.736 159.219 230.842V230.847ZM160.301 231.599C160.301 231.97 160.459 232.255 160.77 232.457C161.08 232.658 161.521 232.758 162.09 232.758C162.659 232.758 163.099 232.658 163.422 232.457C163.745 232.255 163.907 231.97 163.907 231.607C163.907 231.378 163.834 231.185 163.693 231.024C163.551 230.863 163.341 230.738 163.071 230.649C162.8 230.561 162.477 230.516 162.102 230.516C161.726 230.516 161.412 230.561 161.141 230.649C160.871 230.738 160.665 230.863 160.519 231.024C160.374 231.185 160.305 231.378 160.305 231.599H160.301Z" fill="#F44E22"/>
<path d="M98.1365 55.1486C98.1567 54.2188 98.1688 53.289 98.1688 52.3592C98.1688 51.4294 98.1567 50.5036 98.1365 49.5697C98.3343 49.5899 98.5645 49.6019 98.8309 49.6019C99.0974 49.6019 99.3195 49.5939 99.4971 49.5697C100.002 50.1574 100.511 50.7451 101.027 51.3328C101.544 51.9204 102.061 52.5 102.586 53.0797C102.844 53.3614 103.099 53.6432 103.353 53.9209C103.607 54.1987 103.862 54.4764 104.12 54.7541L103.825 54.8226C103.842 54.09 103.842 53.2125 103.833 52.1982C103.833 51.7675 103.833 51.3287 103.821 50.89C103.813 50.4512 103.801 50.0125 103.789 49.5738C103.959 49.5979 104.128 49.614 104.29 49.614C104.451 49.614 104.609 49.6019 104.766 49.5738C104.758 50.0407 104.75 50.5076 104.746 50.9705C104.746 51.4334 104.746 51.9003 104.746 52.3672C104.746 53.4339 104.758 54.3597 104.782 55.1526H103.442C103.062 54.7219 102.683 54.2872 102.303 53.8606C101.924 53.4299 101.54 53.0032 101.157 52.5806C100.389 51.7272 99.6062 50.8779 98.8108 50.0367L99.0813 49.9682C99.0651 50.8216 99.0611 51.683 99.0691 52.5484C99.0772 53.4138 99.0934 54.2832 99.1176 55.1526H98.1325L98.1365 55.1486Z" fill="#F44E22"/>
<path d="M101.568 188.808C100.914 188.808 100.288 188.752 99.6949 188.635C99.1014 188.518 98.5442 188.365 98.0193 188.176C98.0435 188.015 98.0557 187.858 98.0557 187.701C98.0557 187.544 98.0435 187.391 98.0193 187.234C98.3625 187.516 98.8753 187.737 99.5576 187.898C100.24 188.059 100.938 188.14 101.649 188.14C102.303 188.14 102.784 188.067 103.082 187.923C103.381 187.778 103.535 187.552 103.535 187.25C103.535 186.989 103.442 186.795 103.252 186.667C103.062 186.538 102.8 186.445 102.469 186.393C102.138 186.337 101.633 186.284 100.963 186.236C100.256 186.176 99.6989 186.099 99.2871 186.003C98.8753 185.906 98.5523 185.757 98.3181 185.552C98.0839 185.346 97.9668 185.057 97.9668 184.682C97.9668 184.151 98.2131 183.748 98.7097 183.483C99.2023 183.217 99.9452 183.084 100.934 183.084C101.484 183.084 101.968 183.112 102.384 183.169C102.8 183.225 103.252 183.31 103.736 183.426C103.938 183.471 104.108 183.511 104.245 183.539C104.229 183.652 104.221 183.756 104.213 183.861C104.205 183.966 104.209 184.062 104.213 184.159C104.217 184.203 104.225 184.248 104.229 184.288C104.233 184.328 104.241 184.372 104.245 184.417C103.696 184.215 103.155 184.054 102.622 183.934C102.089 183.813 101.52 183.752 100.914 183.752C100.24 183.752 99.7433 183.825 99.4325 183.974C99.1216 184.123 98.9641 184.348 98.9641 184.658C98.9641 184.888 99.0449 185.069 99.2023 185.202C99.3598 185.334 99.6061 185.431 99.9371 185.495C100.268 185.56 100.733 185.62 101.334 185.668C101.467 185.681 101.564 185.685 101.629 185.693C102.271 185.741 102.792 185.817 103.195 185.91C103.599 186.007 103.922 186.159 104.164 186.369C104.407 186.578 104.528 186.872 104.528 187.242C104.528 187.778 104.282 188.172 103.789 188.43C103.296 188.687 102.558 188.82 101.576 188.82L101.568 188.808Z" fill="#F44E22"/>
<path d="M168.333 123.142C168.365 122.349 168.377 121.411 168.377 120.328C168.377 119.245 168.361 118.328 168.333 117.567C168.636 117.583 169.035 117.595 169.536 117.603C170.037 117.611 170.558 117.619 171.103 117.627C171.704 117.627 172.265 117.627 172.786 117.615C173.307 117.607 173.747 117.599 174.107 117.587C174.094 117.724 174.09 117.861 174.09 117.997C174.09 118.134 174.094 118.271 174.107 118.408C173.8 118.372 173.448 118.344 173.057 118.319C172.665 118.295 172.249 118.271 171.805 118.251C171.365 118.231 170.933 118.219 170.509 118.211C170.081 118.203 169.685 118.199 169.318 118.199C169.314 118.517 169.31 118.831 169.306 119.145C169.306 119.459 169.306 119.777 169.306 120.091C170 120.095 170.735 120.091 171.502 120.074C172.269 120.058 172.956 120.038 173.561 120.014C173.549 120.131 173.545 120.248 173.545 120.368C173.545 120.489 173.549 120.606 173.561 120.722C172.952 120.698 172.261 120.678 171.494 120.666C170.727 120.654 169.996 120.654 169.306 120.666C169.306 121.439 169.314 122.051 169.33 122.498C169.714 122.498 170.117 122.498 170.545 122.486C170.973 122.477 171.393 122.465 171.813 122.445C172.245 122.429 172.661 122.409 173.049 122.381C173.44 122.353 173.792 122.325 174.107 122.292C174.094 122.433 174.09 122.574 174.09 122.719C174.09 122.864 174.094 123.001 174.107 123.138H168.333V123.142Z" fill="#F44E22"/>
<path d="M28.7073 117.567C28.8849 117.583 29.0586 117.591 29.2281 117.591C29.3977 117.591 29.5713 117.583 29.7449 117.567C30.6736 120.384 31.2267 122.172 31.4084 122.932H31.2631C31.4246 122.421 31.582 121.91 31.7314 121.407C31.8808 120.904 32.0302 120.405 32.1796 119.913C32.4905 118.891 32.7004 118.11 32.8094 117.567C33.0436 117.583 33.2737 117.591 33.5039 117.591C33.734 117.591 33.9642 117.583 34.1943 117.567C34.3518 118.215 34.5859 119.08 34.8968 120.163C35.2239 121.254 35.5025 122.176 35.7286 122.932H35.5832C35.9708 121.785 36.2857 120.783 36.5199 119.921C36.6491 119.503 36.7743 119.1 36.8954 118.706C37.0125 118.311 37.1296 117.933 37.2467 117.567C37.4122 117.583 37.5818 117.591 37.7514 117.591C37.9209 117.591 38.0905 117.583 38.2601 117.567C38.0784 118.018 37.8886 118.545 37.6868 119.141C37.4889 119.736 37.2507 120.489 36.9802 121.399L36.3382 123.142H34.9089C34.7434 122.429 34.5012 121.536 34.1903 120.465C34.053 119.974 33.9197 119.507 33.7825 119.064C33.6452 118.625 33.512 118.223 33.3747 117.861H33.6008C33.2818 118.746 33.0153 119.612 32.7973 120.465C32.6721 120.912 32.547 121.367 32.4259 121.825C32.3047 122.284 32.1876 122.723 32.0786 123.142H30.6009C30.5161 122.912 30.4273 122.679 30.3385 122.445C30.2496 122.212 30.1608 121.978 30.0679 121.749C29.7974 120.819 29.5511 120.018 29.3331 119.354C29.1151 118.69 28.9051 118.094 28.6992 117.571L28.7073 117.567Z" fill="#F44E22"/>
<path d="M109.882 111.867L104.637 117.084C105.438 117.855 105.937 118.937 105.938 120.135C105.938 121.316 105.452 122.384 104.67 123.153L109.889 128.358L101.656 134.021L93.4199 128.358L98.666 123.127C97.9001 122.36 97.4258 121.303 97.4258 120.135C97.4258 118.956 97.9076 117.89 98.6855 117.121L93.4199 111.871L101.657 106.208L109.882 111.867Z" fill="#F44E22"/>
<path fill-rule="evenodd" clip-rule="evenodd" d="M109.611 100.732L146.692 75.21V75.2178L121.101 112.18L162.746 120.11L121.097 128.043L146.696 165.016L146.526 164.898L146.523 164.896L109.59 139.479L101.657 180.646L93.7188 139.482L56.6143 165.016L56.8643 164.657L56.8848 164.641L57.3604 164.167L82.2842 127.987L41.6797 120.11L82.2549 112.239L56.6143 75.2061L56.7881 75.3271L93.6973 100.729L101.657 59.21L109.611 100.732ZM94.3916 102.42L62.9863 80.8076L91.8574 110.33L93.4082 111.879L93.4004 111.883L93.3838 111.899L93.3877 111.903L87.707 120.114L82.876 113.137L46.9287 120.11L83.9746 127.297L61.1924 160.364L93.4335 128.345L101.656 134.021L94.6172 138.864L101.656 175.362L108.897 137.789L142.603 160.982L109.906 128.347L109.91 128.342L109.931 128.326L109.927 128.322L115.607 120.115L120.474 127.144L157.399 120.11L119.403 112.874L142.771 79.123L142.766 79.126L109.882 111.867L101.657 106.208L108.711 101.352L108.629 100.921L101.656 64.5244L94.3916 102.42Z" fill="#F44E22"/>
<path d="M146.527 164.898L101.658 134.021L109.891 128.358L109.898 128.362L109.907 128.346L146.527 164.898ZM101.623 120.183L93.4229 128.345L93.4326 128.359L56.9756 164.728L87.707 120.115L87.7061 120.114L93.3867 111.903L101.623 120.183ZM115.606 120.114L109.926 128.322L101.689 120.114L109.926 111.903L115.606 120.114ZM115.607 120.114L109.926 111.903L109.931 111.899L109.91 111.884L109.898 111.867L109.89 111.871L109.882 111.867L146.692 75.2178L115.607 120.114ZM101.658 106.208L93.4219 111.871L93.418 111.867L93.4092 111.879L56.7891 75.3271L101.658 106.208Z" fill="#FBBBA6"/>
<circle cx="101.707" cy="120.259" r="5.02734" fill="#F44E22"/>
</svg>
