<svg width="204" height="264" viewBox="0 0 204 264" fill="none" xmlns="http://www.w3.org/2000/svg">
<path d="M197.327 20.4639C197.327 20.5766 197.335 20.6813 197.339 20.7899C197.363 21.3655 197.464 21.9291 197.63 22.4564C198.474 25.1452 200.977 27.1054 203.936 27.1457V34.0367C200.278 34.0931 197.327 37.0636 197.327 40.7265C197.327 41.918 197.642 43.041 198.195 44.0111C198.465 44.4941 198.793 44.9409 199.18 45.3313C200.21 46.4181 201.619 47.1628 203.189 47.36C203.436 47.3882 203.682 47.4083 203.932 47.4123V54.235C203.714 54.235 203.504 54.2511 203.294 54.2712C203.278 54.2712 203.266 54.2712 203.25 54.2792C203.036 54.3034 202.826 54.3396 202.616 54.3839C202.329 54.4443 202.047 54.5248 201.776 54.6214C201.7 54.6496 201.619 54.6777 201.546 54.7099C201.522 54.718 201.502 54.7301 201.477 54.7341C201.405 54.7623 201.336 54.7945 201.264 54.8267C201.191 54.8549 201.122 54.8911 201.054 54.9233C200.993 54.9515 200.936 54.9837 200.884 55.0118C200.718 55.1004 200.561 55.193 200.404 55.2936C200.327 55.3419 200.25 55.3902 200.181 55.4425C200.101 55.4989 200.016 55.5592 199.939 55.6196C199.858 55.68 199.782 55.7404 199.705 55.8088C199.632 55.8692 199.556 55.9336 199.483 56.006C199.41 56.0745 199.338 56.1429 199.265 56.2153C199.124 56.3562 198.99 56.5011 198.861 56.6581C197.928 57.7731 197.359 59.1899 197.323 60.7437C197.323 60.8242 197.323 60.9087 197.323 60.9892C197.323 63.5935 198.821 65.8435 200.997 66.9464C201.881 67.3972 202.879 67.6548 203.932 67.6709V74.4936C203.714 74.4936 203.496 74.5137 203.286 74.5338C203.177 74.5459 203.068 74.558 202.967 74.5781C202.883 74.5902 202.798 74.6023 202.713 74.6224C202.592 74.6465 202.467 74.6747 202.346 74.7069C202.245 74.7311 202.144 74.7592 202.043 74.7914C201.942 74.8196 201.845 74.8559 201.748 74.8921C201.651 74.9243 201.554 74.9645 201.457 75.0048C201.36 75.041 201.268 75.0853 201.175 75.1296C201.082 75.1698 200.989 75.2181 200.9 75.2664C200.807 75.3147 200.718 75.363 200.63 75.4194C200.557 75.4596 200.488 75.4999 200.416 75.5482C200.299 75.6206 200.19 75.7011 200.076 75.7816C200.004 75.8299 199.939 75.8823 199.871 75.9386C199.709 76.0594 199.56 76.1962 199.41 76.3411C198.126 77.5527 197.323 79.2755 197.323 81.1834V81.2518C197.323 82.721 197.799 84.0815 198.611 85.1884C198.667 85.2689 198.732 85.3535 198.797 85.4299C198.857 85.5105 198.918 85.5909 198.994 85.6634C199.055 85.7399 199.124 85.8164 199.2 85.8848C199.269 85.9572 199.338 86.0257 199.41 86.0941C199.487 86.1666 199.568 86.239 199.644 86.3074C199.717 86.3799 199.798 86.4403 199.879 86.5006C199.939 86.553 200 86.6013 200.068 86.6455C200.097 86.6697 200.133 86.6938 200.161 86.718C200.234 86.7663 200.303 86.8146 200.375 86.8589C200.444 86.9072 200.513 86.9474 200.585 86.9877C200.658 87.036 200.739 87.0803 200.815 87.1205C200.896 87.1648 200.985 87.2091 201.07 87.2493C201.142 87.2855 201.215 87.3218 201.288 87.354C201.724 87.5512 202.18 87.7001 202.656 87.8008C202.85 87.841 203.048 87.8732 203.25 87.8974C203.266 87.8974 203.274 87.8974 203.286 87.8974C203.5 87.9215 203.714 87.9336 203.932 87.9376V94.7603C201.562 94.7925 199.487 96.0564 198.32 97.9361C197.735 98.886 197.375 99.9889 197.331 101.172C197.331 101.265 197.323 101.353 197.323 101.446V101.514C197.323 101.587 197.323 101.659 197.331 101.728C197.331 101.877 197.343 102.026 197.359 102.171C197.383 102.481 197.436 102.778 197.509 103.076C197.642 103.636 197.852 104.163 198.11 104.662C199.229 106.739 201.409 108.164 203.932 108.2V115.019C200.848 115.071 198.268 117.188 197.533 120.046C197.428 120.473 197.359 120.92 197.335 121.375V121.411C197.327 121.511 197.323 121.608 197.323 121.709V121.777C197.323 121.878 197.323 121.974 197.331 122.071C197.412 123.939 198.264 125.601 199.568 126.768V126.776C200.735 127.807 202.257 128.443 203.932 128.467V135.29C200.367 135.342 197.472 138.168 197.331 141.702C197.331 141.794 197.323 141.883 197.323 141.975V142.044C197.323 145.707 200.274 148.677 203.932 148.73V155.548C203.848 155.548 203.763 155.548 203.67 155.564C202.245 155.637 200.945 156.156 199.895 156.977C198.413 158.136 197.428 159.903 197.331 161.9C197.323 162.021 197.319 162.145 197.319 162.27V162.302C197.319 162.415 197.319 162.524 197.331 162.636C197.339 162.842 197.359 163.043 197.391 163.236C197.844 166.456 200.589 168.936 203.932 168.988V175.811C201.623 175.843 199.596 177.043 198.413 178.85C198.106 179.305 197.864 179.804 197.686 180.335C197.496 180.874 197.379 181.442 197.339 182.03C197.339 182.038 197.339 182.046 197.339 182.05C197.331 182.126 197.327 182.211 197.323 182.287C197.323 182.38 197.323 182.472 197.323 182.565C197.323 182.658 197.323 182.746 197.331 182.835C197.359 183.616 197.533 184.36 197.807 185.053C198.32 186.325 199.208 187.399 200.347 188.14C200.755 188.414 201.195 188.643 201.655 188.816H201.671C202.374 189.086 203.141 189.235 203.936 189.247V196.069C200.537 196.122 197.755 198.686 197.371 201.986C197.351 202.155 197.339 202.333 197.335 202.51C197.335 202.57 197.335 202.63 197.327 202.691V202.82C197.327 202.876 197.327 202.936 197.327 202.989C197.327 203.061 197.327 203.134 197.339 203.202C197.42 204.659 197.973 205.991 198.845 207.05C198.906 207.127 198.97 207.207 199.043 207.28C199.107 207.352 199.176 207.428 199.249 207.497C199.39 207.642 199.535 207.779 199.689 207.903C199.766 207.972 199.842 208.032 199.923 208.093C199.992 208.149 200.056 208.201 200.129 208.25C200.153 208.266 200.173 208.282 200.202 208.298C200.274 208.35 200.347 208.399 200.42 208.443C200.496 208.499 200.577 208.547 200.658 208.592C200.678 208.604 200.694 208.616 200.714 208.624C200.787 208.668 200.868 208.708 200.945 208.745C201.058 208.805 201.167 208.861 201.284 208.914C201.356 208.946 201.425 208.978 201.498 209.002C201.591 209.043 201.683 209.079 201.78 209.115C201.95 209.175 202.132 209.232 202.309 209.28C202.394 209.304 202.479 209.324 202.568 209.344C202.806 209.401 203.052 209.441 203.302 209.465C203.516 209.489 203.726 209.501 203.944 209.505V216.324C203.843 216.324 203.73 216.332 203.634 216.34C203.274 216.364 202.931 216.413 202.592 216.489C202.083 216.602 201.591 216.771 201.13 216.992C198.893 218.079 197.343 220.361 197.343 223.014C197.343 223.891 197.517 224.729 197.828 225.501C198.34 226.773 199.229 227.848 200.367 228.589C200.775 228.862 201.215 229.092 201.675 229.265H201.691C202.394 229.535 203.161 229.684 203.957 229.696V236.587C202.305 236.611 200.803 237.231 199.648 238.237C199.233 238.595 198.865 239.006 198.558 239.457C197.799 240.535 197.347 241.86 197.347 243.276C197.347 246.939 200.299 249.906 203.957 249.966V256.97C203.957 256.97 203.94 256.97 203.932 256.97C203.86 256.962 203.779 256.954 203.702 256.946C203.646 256.946 203.585 256.938 203.533 256.934C203.42 256.926 203.306 256.922 203.189 256.922C203.088 256.922 202.979 256.922 202.883 256.93C202.713 256.938 202.539 256.954 202.378 256.97C199.871 257.276 197.791 258.954 196.923 261.233C196.717 261.768 196.58 262.34 196.519 262.931C196.499 263.104 196.487 263.29 196.487 263.467H189.571C189.498 260.049 186.862 257.268 183.502 256.95C183.397 256.938 183.284 256.93 183.175 256.926C183.074 256.926 182.965 256.918 182.864 256.918C182.691 256.918 182.521 256.926 182.356 256.938C182.283 256.946 182.198 256.95 182.13 256.962C179.804 257.216 177.838 258.653 176.844 260.657C176.59 261.168 176.404 261.72 176.291 262.295C176.219 262.678 176.17 263.068 176.166 263.467H169.25C169.177 260.13 166.662 257.397 163.42 256.982C163.315 256.966 163.21 256.958 163.105 256.95C162.959 256.934 162.818 256.926 162.673 256.926C162.632 256.926 162.584 256.926 162.547 256.926H162.515C162.422 256.926 162.333 256.926 162.241 256.934C162.051 256.946 161.865 256.962 161.675 256.986C161.611 256.998 161.55 257.006 161.486 257.014C159.588 257.316 157.961 258.403 156.955 259.933V259.941C156.637 260.412 156.386 260.919 156.2 261.462C155.986 262.094 155.865 262.77 155.849 263.471H148.925C148.856 259.941 146.042 257.091 142.525 256.934C142.428 256.934 142.323 256.926 142.218 256.926H142.19C140.252 256.938 138.512 257.763 137.285 259.083C136.913 259.49 136.59 259.949 136.32 260.44C135.819 261.345 135.536 262.376 135.516 263.475H128.6C128.531 260.267 126.202 257.618 123.137 257.047C122.939 257.006 122.737 256.974 122.531 256.958C122.426 256.946 122.313 256.938 122.204 256.934C122.103 256.934 121.998 256.926 121.897 256.926C121.797 256.926 121.692 256.926 121.591 256.934C121.506 256.934 121.429 256.942 121.352 256.95C121.264 256.958 121.175 256.966 121.086 256.974C120.92 256.994 120.755 257.022 120.589 257.055C120.501 257.075 120.412 257.091 120.323 257.111C120.258 257.127 120.202 257.143 120.137 257.159C119.35 257.373 118.623 257.723 117.981 258.182C117.537 258.5 117.137 258.874 116.782 259.285C115.813 260.42 115.223 261.881 115.187 263.471H108.271C108.198 260.094 105.622 257.332 102.319 256.97C102.231 256.958 102.146 256.95 102.057 256.946H102.041C101.968 256.938 101.9 256.934 101.831 256.934C101.738 256.926 101.653 256.926 101.564 256.926C101.455 256.926 101.346 256.926 101.245 256.934C101.132 256.934 101.031 256.946 100.926 256.958C100.717 256.978 100.507 257.006 100.309 257.043C99.9009 257.119 99.5093 257.236 99.1298 257.385C98.6251 257.582 98.1527 257.835 97.7166 258.141C96.033 259.321 94.9146 261.269 94.8661 263.471H87.9458C87.8731 260.053 85.2366 257.268 81.8814 256.954C81.7724 256.942 81.6674 256.934 81.5543 256.93C81.4494 256.93 81.3484 256.922 81.2435 256.922C81.1587 256.922 81.0739 256.922 80.9851 256.922C80.8437 256.922 80.7065 256.934 80.5732 256.95C80.4965 256.958 80.4279 256.966 80.3592 256.974C79.9514 257.026 79.5598 257.119 79.1843 257.24C76.5316 258.097 74.6057 260.548 74.5411 263.463H67.6289C67.5683 260.597 65.6989 258.178 63.1149 257.292C63.0341 257.264 62.9493 257.236 62.8646 257.212C62.8282 257.195 62.7879 257.187 62.7475 257.175C62.6788 257.155 62.6142 257.139 62.5456 257.123C62.2266 257.038 61.8996 256.982 61.5645 256.954C61.4999 256.946 61.4474 256.942 61.3868 256.938C61.2939 256.93 61.193 256.926 61.0921 256.922H61.0759C61.0234 256.922 60.9669 256.922 60.9185 256.922H60.8862C60.7812 256.922 60.6803 256.922 60.5753 256.93C60.3613 256.942 60.1513 256.962 59.9373 256.994C59.9373 256.994 59.9212 256.994 59.9172 256.994C56.7275 257.465 54.2848 260.17 54.2121 263.467H47.2958C47.2514 261.394 46.2662 259.558 44.7441 258.359C44.2636 257.98 43.7185 257.666 43.1452 257.425C42.3821 257.111 41.5504 256.93 40.6702 256.922C40.6459 256.922 40.6177 256.922 40.5894 256.922C40.3593 256.922 40.1291 256.934 39.899 256.954C39.8021 256.966 39.7092 256.978 39.6123 256.99C39.5195 257.002 39.4226 257.014 39.3297 257.034C39.2369 257.055 39.144 257.071 39.0511 257.095C36.3823 257.723 34.3272 259.937 33.9436 262.694C33.9113 262.947 33.8871 263.205 33.8831 263.467H26.9667C26.9425 262.472 26.7083 261.531 26.2965 260.693C25.9574 260.001 25.5092 259.377 24.9682 258.846C23.8336 257.731 22.3034 257.014 20.6036 256.93C20.4865 256.93 20.3815 256.922 20.2644 256.922C20.1716 256.922 20.0787 256.922 19.9858 256.93C19.8728 256.93 19.7678 256.942 19.6588 256.954C16.2794 257.252 13.6267 260.041 13.554 263.471H6.63772C6.62157 262.633 6.45199 261.832 6.14917 261.1C5.2165 258.802 3.0443 257.147 0.456232 256.946C0.395669 256.946 0.335117 256.938 0.278592 256.934C0.205916 256.934 0.133233 256.934 0.0565192 256.926H0V249.966C3.14928 249.878 5.76561 247.632 6.38336 244.653C6.47622 244.21 6.52467 243.751 6.52467 243.281C6.52467 243.051 6.51659 242.818 6.49237 242.588C6.15321 239.34 3.49248 236.788 0.189765 236.611C0.125164 236.603 0.0686299 236.595 0.00402917 236.595V229.696C3.62571 229.595 6.5287 226.649 6.5287 223.018C6.5287 222.161 6.37527 221.347 6.07246 220.595C5.88269 220.092 5.62025 219.621 5.31744 219.186C5.17612 218.981 5.0227 218.787 4.86119 218.602C4.85312 218.594 4.84505 218.586 4.84101 218.582C3.65397 217.242 1.9259 216.384 0.00402917 216.328V209.501C3.15331 209.413 5.76964 207.167 6.38739 204.188C6.48025 203.745 6.5287 203.287 6.5287 202.816C6.5287 202.755 6.5287 202.695 6.5287 202.634C6.5287 202.562 6.52871 202.494 6.52063 202.421C6.52063 202.321 6.51256 202.22 6.49641 202.123C6.48429 202.019 6.47218 201.918 6.46007 201.817C6.19359 199.857 5.07115 198.171 3.47632 197.14C2.83839 196.73 2.12778 196.42 1.36468 196.243C0.928625 196.138 0.472384 196.078 0.00402917 196.065V189.235C3.43594 189.138 6.22185 186.486 6.50044 183.121C6.52062 182.935 6.52467 182.746 6.52467 182.557V182.485C6.52467 182.332 6.52466 182.179 6.51255 182.034C6.28645 178.612 3.46825 175.895 0 175.799V168.968C0.0646007 168.968 0.121123 168.968 0.185724 168.96C2.01877 168.859 3.65802 168.03 4.80872 166.75C5.7535 165.708 6.3672 164.363 6.49237 162.878C6.50448 162.769 6.51255 162.665 6.51659 162.556C6.52466 162.467 6.52467 162.379 6.52467 162.286V162.218C6.52467 161.107 6.25819 160.06 5.77772 159.139C5.4951 158.591 5.13172 158.088 4.71989 157.645C3.53285 156.385 1.86535 155.584 0 155.532V148.701C3.1937 148.613 5.83425 146.306 6.40758 143.267C6.46814 142.978 6.50044 142.676 6.51255 142.374C6.52062 142.253 6.52467 142.14 6.52467 142.02C6.52467 141.943 6.52467 141.867 6.52467 141.794C6.52467 141.722 6.52466 141.645 6.51659 141.573C6.32279 138.115 3.50054 135.37 0.00402917 135.273V128.443C3.62167 128.346 6.51659 125.408 6.5287 121.781V121.757C6.5287 121.62 6.5287 121.483 6.51659 121.346C6.4964 120.924 6.44392 120.509 6.34298 120.115C5.64852 117.241 3.08468 115.091 0.00402917 115.007V108.18C1.75632 108.132 3.35924 107.407 4.53013 106.252C5.01867 105.781 5.43453 105.226 5.75753 104.622C5.84636 104.449 5.93114 104.268 6.00786 104.087C6.04823 103.994 6.08458 103.901 6.11688 103.809C6.15321 103.716 6.18955 103.624 6.21377 103.527C6.38335 102.992 6.48833 102.428 6.52063 101.845C6.52871 101.728 6.53274 101.615 6.53274 101.494C6.53274 101.374 6.53275 101.269 6.52467 101.156C6.52467 101.044 6.51255 100.939 6.50044 100.83C6.2057 97.4732 3.42787 94.8327 0.00807065 94.7442V87.9135C0.169572 87.9135 0.323005 87.8974 0.480469 87.8853C0.637933 87.8692 0.791357 87.8491 0.944784 87.8209C1.1507 87.7887 1.34853 87.7484 1.54233 87.6921C1.64327 87.6679 1.74018 87.6397 1.83708 87.6075C1.93398 87.5834 2.03088 87.5472 2.12374 87.5109C2.22064 87.4787 2.31351 87.4385 2.40637 87.3982C2.49924 87.362 2.5921 87.3218 2.68092 87.2775C2.77379 87.2372 2.86261 87.193 2.9474 87.1447C3.03623 87.1004 3.12101 87.0521 3.20984 86.9998C3.29463 86.9515 3.37942 86.8991 3.46421 86.8428C3.549 86.7904 3.62975 86.7381 3.7105 86.6737C5.35782 85.5064 6.452 83.6186 6.52467 81.4692C6.52467 81.4169 6.52467 81.3605 6.52467 81.3042V81.1633C6.52467 81.0747 6.52466 80.9862 6.51659 80.9016C6.49236 80.1691 6.34701 79.4727 6.09668 78.8206C6.02804 78.6274 5.94729 78.4423 5.85847 78.2611C5.72927 77.9914 5.57989 77.7298 5.41435 77.4803C5.41435 77.4803 5.40627 77.4803 5.40627 77.4722C5.29725 77.3072 5.18016 77.1421 5.05096 76.9852C4.9258 76.8282 4.78852 76.6793 4.65125 76.5343C4.58261 76.4619 4.50993 76.3894 4.43726 76.321C4.36458 76.2486 4.29191 76.1842 4.2152 76.1198C4.14252 76.0473 4.06177 75.9869 3.98505 75.9265C3.91238 75.8621 3.83567 75.8058 3.75895 75.7535C3.66609 75.685 3.57322 75.6247 3.48036 75.5643C3.40365 75.5079 3.3229 75.4596 3.24215 75.4154C3.15736 75.359 3.06852 75.3107 2.9797 75.2664C2.89491 75.2141 2.80609 75.1698 2.71323 75.1296C2.62037 75.0853 2.5275 75.041 2.43464 75.0048C2.34581 74.9645 2.25294 74.9323 2.16008 74.8961C1.88552 74.7915 1.60291 74.7069 1.3122 74.6385C1.21126 74.6143 1.10628 74.5942 1.0013 74.5781C0.916515 74.558 0.831729 74.5499 0.738865 74.5379C0.609664 74.5137 0.476429 74.5057 0.339152 74.4936C0.226101 74.4815 0.117089 74.4775 0 74.4735V67.6428C0.488543 67.6307 0.960927 67.5663 1.41717 67.4536C2.25698 67.2483 3.02815 66.8901 3.71453 66.403C5.27706 65.2921 6.33894 63.521 6.49641 61.5044C6.50852 61.4038 6.51255 61.3032 6.51659 61.2025C6.52466 61.126 6.52467 61.0455 6.52467 60.965C6.52467 60.8483 6.52466 60.7396 6.51659 60.6269C6.51659 60.5182 6.50448 60.4136 6.49237 60.3049C6.43584 59.6206 6.27838 58.9686 6.02805 58.3608C5.04693 55.9819 2.72534 54.2913 0 54.2189V47.3882C0.763096 47.3681 1.48985 47.2191 2.16412 46.9655C2.23679 46.9414 2.30543 46.9172 2.37407 46.8891C2.52749 46.8247 2.67689 46.7603 2.82224 46.6878C4.23134 45.9874 5.35378 44.804 5.9796 43.359C6.19763 42.872 6.35106 42.3487 6.43585 41.8053C6.50448 41.4471 6.5287 41.0808 6.5287 40.7064C6.5287 37.0717 3.62974 34.1213 0.00402917 34.0206V27.1215C0.763087 27.1014 1.47773 26.9525 2.16008 26.7069C4.7118 25.7691 6.5287 23.3177 6.5287 20.4438C6.5287 19.5462 6.3551 18.6848 6.03209 17.9039C5.05097 15.525 2.72937 13.8345 0.00402917 13.762V6.88302C0.104968 6.88302 0.19784 6.88302 0.302816 6.87497C0.407792 6.86692 0.516801 6.85887 0.625814 6.85082C4.00928 6.50466 6.65386 3.65484 6.65386 0.189183C6.65386 0.12478 6.64175 0.0684316 6.64175 0.00402909H13.5581C13.5581 0.0684316 13.5581 0.12478 13.5581 0.189183C13.5581 3.7917 16.4086 6.73006 19.9858 6.87497C20.0787 6.87497 20.1796 6.88302 20.2725 6.88302H20.3331C24.0113 6.85082 26.9789 3.86013 26.9789 0.189183C26.9789 0.12478 26.9667 0.0684316 26.9667 0.00402909H33.8911C33.8911 0.0684316 33.879 0.12478 33.879 0.189183C33.879 0.527296 33.9073 0.857362 33.9557 1.17937C34.412 4.29082 37.0283 6.70189 40.2301 6.87497C40.3472 6.87497 40.4723 6.88302 40.5894 6.88302H40.6137C40.7267 6.88302 40.8276 6.88302 40.9407 6.87095C41.0134 6.87095 41.0861 6.8629 41.1587 6.85485C41.2354 6.85485 41.3081 6.84277 41.3808 6.83069C41.4938 6.81459 41.5988 6.80252 41.7159 6.78239C41.8289 6.76227 41.938 6.74214 42.0429 6.71397C43.3673 6.42818 44.5422 5.74793 45.4385 4.80604C46.5892 3.60654 47.2998 1.97635 47.2998 0.18516C47.2998 0.120757 47.2917 0.0644025 47.2917 0H54.2121C54.2121 0.0644025 54.2 0.120757 54.2 0.18516C54.2 3.65082 56.8405 6.50063 60.228 6.8468C60.3088 6.85485 60.3936 6.8629 60.4743 6.86692C60.5187 6.86692 60.5632 6.87497 60.6035 6.87497C60.7045 6.87497 60.8095 6.88302 60.9144 6.88302C61.0194 6.88302 61.1284 6.88302 61.2374 6.87095C61.3505 6.87095 61.4555 6.85887 61.5645 6.8468C61.5766 6.8468 61.5887 6.8468 61.5968 6.8468C61.944 6.8146 62.2791 6.75422 62.6062 6.66969C63.2643 6.50063 63.8901 6.22289 64.4594 5.86868C66.357 4.68931 67.6248 2.58818 67.6248 0.193212C67.6248 0.128809 67.6127 0.0724546 67.6087 0.00805203H74.525C74.525 0.0724546 74.525 0.128809 74.525 0.193212C74.525 2.84579 76.0794 5.14013 78.3284 6.23095C78.4818 6.3034 78.6352 6.37585 78.7927 6.43623C78.8734 6.4644 78.9542 6.49661 79.039 6.52478C79.156 6.56503 79.2731 6.60126 79.3943 6.63749C79.5558 6.68176 79.7132 6.72202 79.8788 6.75824C79.9959 6.78239 80.113 6.80252 80.2341 6.82265C80.3269 6.83472 80.4198 6.8468 80.5127 6.85485C80.5288 6.85485 80.5369 6.85485 80.553 6.85485C80.6661 6.86692 80.7711 6.87497 80.8882 6.879H80.9003C81.0012 6.879 81.1062 6.88704 81.2112 6.88704H81.2394C81.3525 6.88704 81.4615 6.88705 81.5624 6.879C85.1195 6.70994 87.9539 3.77963 87.9539 0.193212C87.9539 0.128809 87.9417 0.0724546 87.9417 0.00805203H94.8661C94.8661 0.0724546 94.854 0.128809 94.854 0.193212C94.854 2.48755 96.0128 4.51221 97.7812 5.71573C98.2173 6.02164 98.6937 6.26315 99.2025 6.45636C99.5214 6.57711 99.8485 6.66969 100.188 6.74214C100.2 6.74214 100.212 6.75019 100.228 6.75422C100.381 6.7824 100.539 6.81459 100.7 6.83069C100.878 6.85484 101.064 6.87095 101.249 6.879C101.354 6.879 101.459 6.88704 101.56 6.88704C101.661 6.88704 101.77 6.88705 101.871 6.879C105.432 6.71397 108.271 3.78365 108.271 0.193212C108.271 0.128809 108.259 0.0724546 108.255 0.00805203H115.175C115.175 0.0724546 115.167 0.128809 115.167 0.193212C115.167 1.65837 115.643 3.01887 116.439 4.12176C116.762 4.56453 117.133 4.95899 117.553 5.30918C118.187 5.84855 118.926 6.26717 119.733 6.53686C119.741 6.53686 119.745 6.53686 119.758 6.54491C119.899 6.59321 120.048 6.63749 120.198 6.67371C120.198 6.67371 120.21 6.67371 120.214 6.67371C120.258 6.68579 120.307 6.69787 120.351 6.70189C120.472 6.73007 120.597 6.75824 120.723 6.77837C120.735 6.77837 120.747 6.77837 120.755 6.78642C120.924 6.81057 121.098 6.83875 121.272 6.85485C121.373 6.8629 121.47 6.87094 121.579 6.87497C121.679 6.87497 121.78 6.88302 121.885 6.88302C121.99 6.88302 122.099 6.88302 122.2 6.87497C125.753 6.70994 128.592 3.77962 128.592 0.189183C128.592 0.12478 128.592 0.0684316 128.592 0.00402909H135.508C135.508 0.0684316 135.508 0.12478 135.508 0.189183C135.508 0.929812 135.629 1.64629 135.859 2.31447C136.041 2.86591 136.291 3.38516 136.606 3.86013C137.495 5.21258 138.859 6.2229 140.462 6.65359C140.478 6.65359 140.49 6.66164 140.507 6.66567H140.519C140.7 6.71799 140.89 6.75421 141.084 6.78642C141.181 6.80654 141.274 6.82265 141.375 6.83472C141.459 6.84277 141.54 6.85082 141.633 6.85887C141.726 6.86692 141.815 6.87497 141.908 6.88302C142 6.88302 142.093 6.89107 142.186 6.89107H142.214C145.929 6.89107 148.933 3.89233 148.933 0.197235C148.933 0.132832 148.917 0.0764836 148.917 0.0120811H155.845C155.845 0.0764836 155.829 0.132832 155.829 0.197235C155.829 0.31799 155.829 0.434719 155.841 0.555474C155.873 1.19547 155.995 1.81132 156.2 2.39094C156.919 4.45585 158.623 6.06189 160.743 6.64956C160.783 6.66164 160.819 6.66969 160.86 6.67774C160.937 6.70189 161.025 6.71799 161.11 6.73812C161.215 6.76227 161.316 6.78642 161.421 6.80252C161.522 6.82265 161.627 6.83472 161.732 6.8468C161.817 6.85887 161.91 6.86692 161.998 6.87095C162.079 6.879 162.16 6.88302 162.233 6.88704C162.342 6.88704 162.443 6.8951 162.543 6.8951C162.628 6.8951 162.721 6.89509 162.814 6.88704C166.391 6.74616 169.258 3.80377 169.258 0.201258C169.258 0.136855 169.25 0.0805066 169.246 0.0161041H176.166C176.166 0.0805066 176.158 0.136855 176.158 0.201258C176.158 0.466918 176.174 0.728556 176.198 0.990191C176.582 4.21434 179.251 6.73409 182.549 6.89107C182.654 6.89107 182.763 6.89913 182.868 6.89913C183.062 6.89913 183.264 6.89107 183.458 6.87497C183.47 6.87497 183.482 6.87497 183.494 6.87497C183.821 6.84679 184.144 6.79045 184.459 6.70994C184.556 6.68579 184.661 6.65761 184.758 6.62943C186.623 6.09006 188.146 4.76176 188.953 3.039C189.361 2.18164 189.583 1.21962 189.583 0.20931C189.583 0.144907 189.583 0.0885586 189.583 0.0241561H196.499C196.499 0.0885586 196.487 0.144907 196.487 0.20931C196.487 3.19195 198.441 5.7117 201.142 6.58113C201.175 6.59321 201.207 6.60529 201.235 6.60931C201.352 6.64554 201.469 6.67774 201.591 6.70591C201.756 6.74617 201.926 6.7824 202.099 6.81057C202.204 6.83472 202.317 6.8468 202.426 6.85887C202.681 6.88705 202.939 6.90315 203.202 6.90315C203.294 6.90315 203.387 6.90315 203.484 6.8951C203.577 6.88705 203.67 6.879 203.763 6.87095H203.771C203.771 6.87095 203.807 6.87095 203.823 6.87095C203.839 6.87095 203.852 6.87095 203.876 6.87095C203.892 6.87095 203.9 6.87094 203.924 6.86289C203.944 6.86289 203.957 6.8629 203.973 6.85485V13.7821C200.315 13.8345 197.363 16.8091 197.363 20.4679L197.327 20.4639Z" fill="#FAFAF9"/>
<path d="M107.584 227.772C97.0621 233.894 85.6757 238.068 75.8281 240.857C69.7356 242.588 63.8491 243.908 58.5156 244.915H54.4375C60.728 243.844 68.0278 242.326 75.6426 240.165C85.0581 237.492 95.875 233.556 105.997 227.852H106.001C106.53 227.828 107.063 227.804 107.584 227.772Z" fill="#F44E22"/>
<path d="M134.677 221.417C123.283 232.783 108.001 240.177 94.1602 244.915H91.8867C105.525 240.451 120.86 233.407 132.545 222.475C133.284 222.141 133.994 221.787 134.677 221.417Z" fill="#F44E22"/>
<path d="M141.259 123.351C163.082 160.378 167.627 191.006 154.788 214.408C147.121 228.375 134.008 238.136 120.288 244.915H118.648C132.731 238.164 146.325 228.323 154.154 214.062C166.864 190.897 162.318 160.503 140.641 123.721C140.164 122.92 139.696 122.131 139.231 121.335C139.413 121.17 139.599 121.009 139.772 120.832C140.265 121.669 140.762 122.51 141.259 123.351Z" fill="#F44E22"/>
<path d="M169.039 210.319C167.9 214.09 166.386 217.705 164.492 221.163C160.576 228.307 153.737 236.913 141.794 244.915H140.485C149.917 238.784 158.327 230.907 163.858 220.816C166.144 216.642 167.876 212.239 169.039 207.598V210.319Z" fill="#F44E22"/>
<path d="M176.007 224.322C175.454 225.537 174.848 226.741 174.202 227.917C171.376 233.081 167.023 239.014 160.324 244.915H159.259C164.943 240.02 169.893 234.285 173.567 227.571C174.153 226.5 174.702 225.421 175.215 224.322H176.007Z" fill="#F44E22"/>
<path d="M180.256 240.503C179.17 242.033 178.015 243.498 176.796 244.915H175.839C177.417 243.115 178.899 241.228 180.256 239.248V240.503Z" fill="#F44E22"/>
<path d="M84.4561 226.898C84.9082 226.966 85.3688 227.031 85.833 227.087C79.1347 230.026 72.4558 232.3 66.3672 234.043C44.4313 240.326 25.1684 241.292 24.9746 241.304L24.9424 240.58C25.1322 240.572 44.3264 239.609 66.1855 233.342C71.9148 231.704 78.1615 229.595 84.4561 226.898Z" fill="#F44E22"/>
<path d="M68.6338 222.603C68.9447 222.744 69.2564 222.877 69.5713 223.018C65.6549 224.507 61.4432 225.908 56.9131 227.22C43.6094 231.064 31.303 232.944 23.668 233.83V233.105C31.2787 232.22 43.5166 230.348 56.7314 226.524C60.9708 225.296 64.9314 223.984 68.6338 222.599V222.603Z" fill="#F44E22"/>
<path d="M58.8594 215.874C59.0289 216.067 59.2149 216.252 59.3965 216.437C55.686 217.842 51.7126 219.166 47.457 220.406C38.7562 222.938 30.4752 224.628 23.668 225.747V225.018C30.4308 223.907 38.6394 222.225 47.2676 219.71C51.297 218.538 55.161 217.254 58.8594 215.878V215.874Z" fill="#F44E22"/>
<path d="M110.884 193.949C111.122 194.033 111.361 194.117 111.587 194.21C108.276 198.565 103.855 203.19 97.9316 207.726C97.5643 207.706 97.205 207.682 96.8457 207.646C102.962 203.054 107.508 198.364 110.884 193.949Z" fill="#F44E22"/>
<path d="M97.5889 192.528C94.2539 196.086 90.1355 199.733 85.0361 203.279C84.8787 203.102 84.7373 202.925 84.6162 202.752C89.1261 199.616 93.1153 196.235 96.5674 192.612H96.5635C96.8985 192.576 97.2417 192.552 97.5889 192.528Z" fill="#F44E22"/>
<path d="M100.449 164.588C100.558 164.588 100.667 164.589 100.78 164.597C99.7184 167.737 98.3776 170.768 96.7627 173.69C96.0845 174.909 95.362 176.113 94.5869 177.296C94.3204 177.252 94.0619 177.199 93.8115 177.151C94.627 175.919 95.4022 174.644 96.1289 173.336C97.6834 170.522 98.9759 167.611 100.018 164.592C100.163 164.584 100.304 164.585 100.449 164.585V164.588Z" fill="#F44E22"/>
<path d="M111.079 166.702C111.309 166.822 111.523 166.963 111.725 167.096C110.877 170.461 109.726 173.718 108.276 176.845C107.986 176.93 107.679 177.01 107.368 177.083C108.951 173.758 110.183 170.296 111.079 166.702Z" fill="#F44E22"/>
<path fill-rule="evenodd" clip-rule="evenodd" d="M101.96 146.962C109.704 146.962 116.394 147.78 122.034 149.41C127.675 151.04 132.011 153.403 135.052 156.499C138.088 159.594 139.606 163.301 139.606 167.628C139.606 172.953 137.672 176.861 133.8 179.357C129.928 181.853 125.087 183.398 119.281 183.998V185.596C124.821 185.93 129.492 186.844 133.3 188.341C137.107 189.839 139.973 191.867 141.911 194.431C143.845 196.995 144.814 199.97 144.814 203.363C144.814 207.754 143.062 211.534 139.558 214.694C136.053 217.854 131.083 220.248 124.639 221.878C118.199 223.509 110.636 224.326 101.964 224.326H101.96C93.2833 224.326 85.7252 223.509 79.2812 221.878C72.8414 220.248 67.8669 217.854 64.3623 214.694C60.8577 211.534 59.1055 207.754 59.1055 203.363C59.1055 199.97 60.0748 196.991 62.0088 194.431C63.9427 191.871 66.813 189.839 70.6201 188.341C74.4234 186.844 79.0952 185.93 84.6387 185.596V183.998C78.8329 183.398 73.992 181.853 70.1201 179.357C66.2481 176.861 64.3135 172.953 64.3135 167.628C64.3135 163.305 65.8321 159.594 68.8682 156.499C71.9044 153.403 76.2413 151.04 81.8857 149.41C87.5261 147.78 94.2162 146.962 101.96 146.962ZM101.96 188.792C98.0194 188.792 94.5148 189.239 91.4463 190.14C88.3737 191.038 85.9714 192.338 84.2393 194.033C82.5031 195.727 81.6348 197.744 81.6348 200.071C81.6349 202.397 82.5032 204.43 84.2393 206.161C85.9754 207.891 88.3942 209.204 91.499 210.101C94.6038 210.999 98.0881 211.45 101.96 211.45C105.832 211.45 109.32 210.999 112.421 210.101C115.526 209.204 117.945 207.891 119.681 206.161C121.417 204.43 122.285 202.401 122.285 200.071C122.285 196.613 120.399 193.868 116.628 191.836C112.857 189.807 107.968 188.792 101.96 188.792ZM101.964 160.938C98.3624 160.938 95.2535 161.357 92.6533 162.186C90.0494 163.019 88.0629 164.218 86.6982 165.78C85.3295 167.346 84.6465 169.157 84.6465 171.222C84.6465 174.35 86.1494 176.829 89.1533 178.657C92.1563 180.488 96.4221 181.4 101.963 181.401C107.501 181.401 111.772 180.488 114.775 178.657C117.779 176.829 119.281 174.35 119.281 171.222C119.281 169.161 118.594 167.346 117.229 165.78C115.861 164.218 113.874 163.019 111.274 162.186C108.67 161.357 105.565 160.938 101.964 160.938Z" fill="#F44E22"/>
<path d="M25.0811 212.4C25.408 212.428 25.8601 212.447 26.4453 212.46C27.0308 212.472 27.6654 212.476 28.3438 212.476L28.3477 212.48C29.0501 212.48 29.6554 212.633 30.1641 212.935C30.6728 213.241 31.0607 213.684 31.3271 214.263C31.5936 214.843 31.7305 215.539 31.7305 216.344C31.7304 217.149 31.5976 217.886 31.3271 218.461C31.0607 219.037 30.6726 219.468 30.168 219.757C29.6634 220.047 29.058 220.192 28.3477 220.192C27.637 220.192 27.0026 220.2 26.4414 220.212C25.8803 220.229 25.4281 220.249 25.085 220.277C25.1374 219.963 25.162 219.637 25.166 219.294C25.166 218.952 25.1414 218.639 25.085 218.357C25.4321 218.385 25.8844 218.405 26.4414 218.421C26.9986 218.438 27.6489 218.441 28.3877 218.441C28.852 218.441 29.2442 218.364 29.5713 218.211C29.8981 218.059 30.1447 217.825 30.3223 217.511C30.4957 217.197 30.5839 216.807 30.584 216.34C30.584 215.874 30.4957 215.491 30.3223 215.181C30.1487 214.867 29.8975 214.633 29.5664 214.476C29.2394 214.319 28.8478 214.243 28.3877 214.243C27.6045 214.243 26.9424 214.247 26.4014 214.259C25.8603 214.271 25.4202 214.292 25.0811 214.32C25.1335 214.006 25.1581 213.68 25.1621 213.334C25.1661 212.988 25.1375 212.678 25.0811 212.4Z" fill="#F44E22"/>
<path d="M54.4453 207.791C49.3097 209.936 43.8189 211.872 38.001 213.579C36.5919 213.993 35.1904 214.388 33.8096 214.751V214.009C35.1297 213.655 36.466 213.281 37.8145 212.886C42.9935 211.361 48.6045 209.45 54.2881 207.051C54.3365 207.3 54.3929 207.55 54.4453 207.791Z" fill="#F44E22"/>
<path fill-rule="evenodd" clip-rule="evenodd" d="M31.5078 205.134C30.9871 205.187 30.5671 205.303 30.2441 205.484C29.9211 205.665 29.6743 205.927 29.5088 206.269C29.3392 206.611 29.2302 207.059 29.1777 207.61C29.1616 207.747 29.1495 207.899 29.1455 208.064C29.1415 208.233 29.1377 208.403 29.1377 208.572C29.9688 208.548 30.4451 208.535 30.5586 208.527C30.7282 208.523 30.8944 208.511 31.0479 208.499C31.2011 208.487 31.3544 208.471 31.5117 208.459V210.395H31.5078C30.7649 210.331 29.6948 210.302 28.2979 210.302C26.9009 210.302 25.8308 210.335 25.0879 210.395C25.0919 209.969 25.0957 209.57 25.0957 209.204C25.0957 208.838 25.0922 208.483 25.0801 208.141C25.068 207.904 25.0596 207.657 25.0596 207.408C25.0596 207.158 25.0557 206.892 25.0557 206.615C25.0557 205.363 25.2095 204.442 25.5244 203.846C25.8393 203.251 26.3113 202.953 26.9492 202.953C27.4337 202.953 27.8219 203.106 28.1045 203.419C28.3909 203.729 28.5883 204.091 28.6973 204.498C28.8103 204.908 28.8633 205.283 28.8633 205.626H29C29.1413 204.853 29.4605 204.232 29.9531 203.765C30.4457 203.298 30.9668 202.937 31.5078 202.683V205.134ZM27.123 204.833C26.796 204.833 26.5615 204.993 26.4121 205.315C26.2627 205.637 26.1905 206.092 26.1904 206.675C26.1904 206.893 26.1903 207.107 26.1943 207.32C26.1943 207.533 26.2027 207.738 26.2148 207.931L26.2227 208.547C26.5092 208.559 26.8038 208.568 27.1064 208.572C27.4132 208.576 27.7284 208.58 28.0635 208.58H28.0713L28.0957 208.177C28.1078 207.96 28.1199 207.73 28.1279 207.481C28.14 207.236 28.1445 206.99 28.1445 206.753C28.1445 206.33 28.1079 205.98 28.0312 205.694C27.9545 205.408 27.8458 205.194 27.6924 205.049C27.543 204.905 27.3531 204.833 27.123 204.833Z" fill="#F44E22"/>
<path d="M55.9229 194.874C55.7331 195.24 55.564 195.603 55.3984 195.973C49.2735 199.254 42.1309 202.353 33.8096 205.11V204.349C42.3893 201.487 49.701 198.275 55.9229 194.874Z" fill="#F44E22"/>
<path d="M135.654 123.955C153.04 155.886 156.83 182.81 146.938 204.131C146.95 203.879 146.959 203.623 146.959 203.363C146.959 203.029 146.951 202.699 146.935 202.373C155.894 181.506 151.897 155.302 135.032 124.321C135.238 124.204 135.448 124.083 135.654 123.955Z" fill="#F44E22"/>
<path d="M25.0811 193.429C25.408 193.457 25.8601 193.477 26.4453 193.489C27.0308 193.501 27.6654 193.505 28.3438 193.505L28.3477 193.509C29.05 193.509 29.6554 193.663 30.1641 193.964C30.6728 194.27 31.0607 194.713 31.3271 195.293C31.5936 195.872 31.7305 196.569 31.7305 197.374C31.7305 198.179 31.5976 198.915 31.3271 199.491C31.0607 200.066 30.6727 200.497 30.168 200.787C29.6634 201.076 29.0581 201.221 28.3477 201.221C27.637 201.221 27.0026 201.23 26.4414 201.242C25.8803 201.258 25.4281 201.278 25.085 201.306C25.1374 200.992 25.162 200.666 25.166 200.324C25.166 199.982 25.1415 199.668 25.085 199.386C25.4321 199.414 25.8844 199.435 26.4414 199.451C26.9986 199.467 27.6489 199.47 28.3877 199.47C28.852 199.47 29.2442 199.395 29.5713 199.242C29.8982 199.089 30.1447 198.854 30.3223 198.541C30.4957 198.227 30.584 197.836 30.584 197.37C30.584 196.903 30.4958 196.52 30.3223 196.211C30.1487 195.897 29.8975 195.663 29.5664 195.506C29.2394 195.349 28.8479 195.272 28.3877 195.272C27.6045 195.272 26.9424 195.277 26.4014 195.289C25.8603 195.301 25.4202 195.321 25.0811 195.349C25.1335 195.035 25.1581 194.709 25.1621 194.363C25.1661 194.017 25.1375 193.707 25.0811 193.429Z" fill="#F44E22"/>
<path d="M61.7734 177.566C61.9026 177.771 62.0364 177.972 62.1777 178.173C55.2937 183.97 46.0958 189.746 33.8096 194.769V193.997C45.9302 189.01 54.9904 183.298 61.7734 177.562V177.566Z" fill="#F44E22"/>
<path d="M29.8428 183.132C30.4079 183.499 30.8482 184.058 31.1631 184.823C31.478 185.583 31.6347 186.413 31.6348 187.306L31.6396 187.315C31.6396 188.261 31.5021 189.066 31.2275 189.734C30.953 190.402 30.5614 190.909 30.0527 191.252C29.544 191.598 28.946 191.766 28.2637 191.766C27.5451 191.766 26.9352 191.586 26.4346 191.219C25.934 190.857 25.559 190.329 25.3047 189.645C25.0503 188.961 24.9248 188.14 24.9248 187.19C24.9248 186.558 24.9818 185.89 25.0908 185.181C25.2039 184.473 25.389 183.804 25.6514 183.172C25.9783 183.217 26.2772 183.241 26.5557 183.241C26.8343 183.241 27.0772 183.221 27.2871 183.181C26.9399 183.721 26.6649 184.34 26.459 185.041C26.2571 185.741 26.1562 186.457 26.1562 187.19C26.1563 187.766 26.2414 188.261 26.415 188.679C26.5846 189.098 26.8306 189.416 27.1455 189.641C27.4644 189.863 27.8358 189.975 28.2637 189.975C28.6916 189.975 29.0675 189.871 29.3945 189.658C29.7215 189.449 29.9716 189.142 30.1533 188.74C30.335 188.337 30.4238 187.862 30.4238 187.311C30.4238 186.816 30.3347 186.321 30.1611 185.826C29.9875 185.331 29.6693 184.916 29.2051 184.586C29.2051 184.807 29.205 185.032 29.209 185.253C29.209 185.479 29.2204 185.7 29.2285 185.914C29.2406 186.348 29.2608 186.739 29.2891 187.093C29.3173 187.447 29.3543 187.717 29.3906 187.902C29.1887 187.862 28.958 187.846 28.6875 187.854C28.4213 187.862 28.1631 187.89 27.917 187.934C27.9573 187.162 27.9775 186.349 27.9775 185.5C27.9775 184.65 27.9574 183.857 27.917 183.132C28.1834 183.173 28.4984 183.193 28.8535 183.193C29.2088 183.193 29.54 183.173 29.8428 183.132Z" fill="#F44E22"/>
<path d="M179.912 182.654C180.271 183.161 180.542 183.716 180.716 184.316C180.893 184.92 180.982 185.632 180.982 186.458L180.986 186.465C180.986 187.399 180.849 188.201 180.57 188.869C180.292 189.537 179.9 190.048 179.388 190.398C178.875 190.748 178.277 190.921 177.587 190.921C176.864 190.921 176.246 190.732 175.745 190.358C175.245 189.984 174.866 189.448 174.611 188.755C174.357 188.063 174.231 187.242 174.231 186.293C174.231 185.733 174.284 185.165 174.389 184.589C174.494 184.014 174.68 183.402 174.942 182.758C175.241 182.799 175.512 182.819 175.754 182.819C175.996 182.819 176.275 182.799 176.577 182.758C176.173 183.394 175.887 184.002 175.722 184.582C175.556 185.157 175.471 185.697 175.463 186.2C175.459 186.795 175.536 187.315 175.701 187.753C175.867 188.192 176.109 188.531 176.428 188.768C176.747 189.006 177.135 189.127 177.583 189.127C178.031 189.126 178.386 189.017 178.713 188.804C179.04 188.591 179.295 188.269 179.477 187.842C179.658 187.416 179.751 186.884 179.751 186.256C179.751 185.628 179.637 184.992 179.407 184.409C179.177 183.825 178.818 183.281 178.321 182.774C178.592 182.802 178.85 182.802 179.108 182.774C179.367 182.746 179.634 182.706 179.912 182.654Z" fill="#F44E22"/>
<path d="M130.611 126.41C142.102 150.448 145.356 171.44 140.325 189.102L140.321 189.106C140.119 188.937 139.918 188.772 139.712 188.607C141.533 182.082 142.215 175.094 141.755 167.66V167.628C141.682 166.456 141.585 165.269 141.452 164.074C140.217 152.606 136.377 140.116 129.929 126.664C130.159 126.583 130.385 126.494 130.611 126.41Z" fill="#F44E22"/>
<path d="M59.5586 163.511C59.4623 163.948 59.3914 164.39 59.3311 164.838C53.5977 171.09 45.4296 177.651 33.8096 183.576V182.766C45.6908 176.669 53.898 169.899 59.5586 163.511Z" fill="#F44E22"/>
<path d="M25.0811 173.548C25.408 173.577 25.8601 173.597 26.4453 173.609C27.0308 173.621 27.6654 173.626 28.3438 173.626L28.3477 173.629C29.0499 173.629 29.6555 173.782 30.1641 174.084C30.6728 174.389 31.0607 174.833 31.3271 175.413C31.5935 175.992 31.7305 176.689 31.7305 177.494C31.7304 178.299 31.5976 179.035 31.3271 179.611C31.0607 180.186 30.6726 180.617 30.168 180.907C29.6634 181.196 29.058 181.341 28.3477 181.341C27.637 181.341 27.0026 181.35 26.4414 181.362C25.8803 181.378 25.4281 181.398 25.085 181.426C25.1374 181.112 25.162 180.786 25.166 180.444C25.166 180.102 25.1415 179.787 25.085 179.505C25.4321 179.534 25.8844 179.554 26.4414 179.57C26.9986 179.586 27.6489 179.59 28.3877 179.59C28.852 179.59 29.2442 179.514 29.5713 179.361C29.8981 179.208 30.1447 178.975 30.3223 178.661C30.4958 178.347 30.584 177.956 30.584 177.489C30.5839 177.022 30.4958 176.639 30.3223 176.33C30.1487 176.016 29.8975 175.783 29.5664 175.626C29.2394 175.469 28.8478 175.392 28.3877 175.392C27.6045 175.392 26.9424 175.397 26.4014 175.409C25.8604 175.421 25.4202 175.44 25.0811 175.468C25.1335 175.155 25.1581 174.829 25.1621 174.483C25.1661 174.137 25.1376 173.826 25.0811 173.548Z" fill="#F44E22"/>
<path fill-rule="evenodd" clip-rule="evenodd" d="M177.603 172.305C178.313 172.305 178.915 172.478 179.424 172.82C179.929 173.166 180.316 173.666 180.578 174.318C180.845 174.974 180.979 175.755 180.979 176.665C180.978 177.574 180.845 178.359 180.578 179.011C180.312 179.667 179.928 180.166 179.424 180.512C178.919 180.858 178.313 181.032 177.603 181.032C176.892 181.032 176.287 180.858 175.782 180.512C175.278 180.166 174.889 179.663 174.627 179.011C174.361 178.359 174.228 177.574 174.228 176.665C174.228 175.755 174.361 174.97 174.627 174.318C174.893 173.666 175.278 173.162 175.782 172.82C176.287 172.478 176.892 172.305 177.603 172.305ZM177.644 174.076C177.179 174.076 176.763 174.177 176.424 174.382C176.085 174.588 175.826 174.881 175.645 175.271C175.463 175.657 175.374 176.121 175.374 176.665C175.374 177.208 175.463 177.675 175.645 178.061C175.826 178.447 176.085 178.737 176.424 178.938C176.763 179.139 177.171 179.24 177.644 179.24C178.116 179.24 178.499 179.139 178.83 178.938C179.157 178.737 179.407 178.443 179.581 178.061C179.751 177.679 179.84 177.212 179.84 176.665C179.84 176.125 179.755 175.657 179.581 175.271C179.411 174.885 179.161 174.588 178.83 174.382C178.503 174.177 178.108 174.076 177.644 174.076Z" fill="#F44E22"/>
<path d="M143.236 116.383C145.417 120.441 147.783 124.603 150.335 128.87C159.585 144.435 165.823 158.881 169.041 172.14V175.441C166.11 161.409 159.661 145.984 149.713 129.24C147.234 125.11 144.936 121.069 142.809 117.121C142.954 116.883 143.099 116.633 143.236 116.383Z" fill="#F44E22"/>
<path fill-rule="evenodd" clip-rule="evenodd" d="M31.5088 166.247C31.1371 166.365 30.7231 166.512 30.2676 166.679C30.2492 167.187 30.2412 167.767 30.2412 168.42C30.2412 169.058 30.2511 169.627 30.2666 170.126C30.7015 170.292 31.1156 170.449 31.5088 170.594V172.615C31.0122 172.377 30.4867 172.132 29.9336 171.882C29.3806 171.633 28.8357 171.391 28.2988 171.158C27.1562 170.667 26.0861 170.228 25.0889 169.834C25.1414 169.431 25.1698 168.927 25.1738 168.332C25.1778 167.736 25.1494 167.269 25.0889 166.931C26.2315 166.476 27.3016 166.03 28.2988 165.591C29.1548 165.221 30.2248 164.733 31.5088 164.129V166.247ZM29.2188 167.076C28.5203 167.348 27.8812 167.605 27.3018 167.849C26.6969 168.104 26.2834 168.293 26.0605 168.421C26.3973 168.6 27.2867 168.974 28.7266 169.536C28.8902 169.6 29.0542 169.661 29.2168 169.723C29.2345 169.317 29.2432 168.868 29.2432 168.369C29.2432 167.895 29.2331 167.465 29.2188 167.076Z" fill="#F44E22"/>
<path d="M63.8896 125.96C64.1197 126.052 64.3537 126.137 64.5918 126.213C63.647 133.571 61.394 140.434 57.833 146.782C53.7672 154.031 46.5601 162.931 33.8057 171.214V170.353C46.1929 162.226 53.2261 153.524 57.2031 146.431C60.744 140.12 62.9691 133.285 63.8896 125.96Z" fill="#F44E22"/>
<path fill-rule="evenodd" clip-rule="evenodd" d="M180.834 165.165C180.313 165.217 179.893 165.333 179.57 165.514C179.247 165.695 179.001 165.957 178.835 166.299C178.665 166.641 178.556 167.089 178.504 167.64C178.488 167.777 178.476 167.93 178.472 168.094C178.468 168.263 178.464 168.433 178.464 168.602C179.295 168.578 179.771 168.565 179.885 168.557C180.054 168.553 180.221 168.541 180.374 168.529C180.527 168.517 180.681 168.501 180.838 168.489V170.425H180.834C180.091 170.361 179.021 170.333 177.624 170.333C176.227 170.333 175.157 170.365 174.414 170.425C174.418 169.999 174.422 169.6 174.422 169.234C174.422 168.868 174.418 168.513 174.406 168.171C174.394 167.934 174.386 167.688 174.386 167.438C174.386 167.189 174.382 166.923 174.382 166.645C174.382 165.394 174.536 164.472 174.851 163.877C175.166 163.281 175.637 162.983 176.275 162.983C176.76 162.983 177.148 163.136 177.431 163.45C177.717 163.76 177.914 164.122 178.023 164.528C178.136 164.938 178.189 165.314 178.189 165.656H178.326C178.467 164.883 178.787 164.262 179.279 163.795C179.772 163.329 180.293 162.967 180.834 162.713V165.165ZM176.449 164.858C176.122 164.858 175.888 165.019 175.738 165.341C175.589 165.663 175.517 166.118 175.517 166.702C175.517 166.919 175.516 167.133 175.521 167.346C175.521 167.559 175.529 167.765 175.541 167.958L175.549 168.574C175.835 168.586 176.13 168.594 176.433 168.598C176.739 168.602 177.055 168.606 177.39 168.606H177.397L177.422 168.204C177.434 167.986 177.446 167.757 177.454 167.507C177.466 167.262 177.471 167.015 177.471 166.778C177.471 166.355 177.434 166.005 177.357 165.719C177.281 165.434 177.172 165.221 177.019 165.076C176.869 164.931 176.679 164.858 176.449 164.858Z" fill="#F44E22"/>
<path d="M25.0928 156.615C25.7105 157.142 26.3846 157.698 27.1113 158.282C27.4545 158.555 27.7982 158.825 28.1494 159.09C28.4966 159.356 28.8479 159.622 29.2031 159.883C29.5786 159.924 29.9622 159.944 30.3457 159.944C30.7292 159.944 31.1211 159.92 31.5127 159.876V161.667L31.5088 161.67C31.1212 161.626 30.7332 161.602 30.3496 161.602C29.9661 161.602 29.5827 161.626 29.1992 161.67C28.5653 162.133 27.8704 162.665 27.1113 163.277C26.3968 163.84 25.7225 164.396 25.0928 164.939C25.1453 164.569 25.1698 164.182 25.1738 163.78C25.1779 163.377 25.1493 163.043 25.0928 162.782C25.5731 162.488 26.118 162.137 26.7275 161.731C27.272 161.354 27.7321 161.026 28.1123 160.745C27.6294 160.387 27.1693 160.06 26.7275 159.766C26.215 159.412 25.6699 159.062 25.0928 158.716C25.1493 158.455 25.1779 158.132 25.1738 157.746C25.1738 157.363 25.1452 156.985 25.0928 156.615Z" fill="#F44E22"/>
<path d="M59.5605 163.51L59.5586 163.511L59.5605 163.506V163.51Z" fill="#F44E22"/>
<path fill-rule="evenodd" clip-rule="evenodd" d="M180.834 155.653C180.313 155.705 179.893 155.821 179.57 156.003C179.247 156.184 179.001 156.446 178.835 156.788C178.665 157.13 178.556 157.577 178.504 158.128C178.488 158.265 178.476 158.419 178.472 158.584C178.468 158.752 178.464 158.921 178.464 159.09C179.295 159.066 179.771 159.054 179.885 159.046C180.054 159.042 180.221 159.03 180.374 159.018C180.527 159.006 180.681 158.989 180.838 158.977V160.914H180.834C180.091 160.849 179.021 160.821 177.624 160.821C176.227 160.821 175.157 160.853 174.414 160.914C174.418 160.487 174.422 160.089 174.422 159.722C174.422 159.356 174.418 159.002 174.406 158.66C174.394 158.422 174.386 158.177 174.386 157.927C174.386 157.678 174.382 157.412 174.382 157.134C174.382 155.883 174.536 154.961 174.851 154.365C175.166 153.769 175.638 153.471 176.275 153.471C176.76 153.471 177.148 153.624 177.431 153.938C177.717 154.248 177.914 154.611 178.023 155.017C178.136 155.428 178.189 155.802 178.189 156.144H178.326C178.467 155.371 178.787 154.752 179.279 154.285C179.772 153.818 180.293 153.455 180.834 153.202V155.653ZM176.449 155.351C176.122 155.351 175.888 155.512 175.738 155.834C175.589 156.156 175.517 156.611 175.517 157.195C175.517 157.412 175.516 157.625 175.521 157.838C175.521 158.052 175.529 158.258 175.541 158.451L175.549 159.066C175.835 159.078 176.13 159.086 176.433 159.09C176.739 159.094 177.055 159.098 177.39 159.098H177.397L177.422 158.696C177.434 158.479 177.446 158.249 177.454 158C177.466 157.754 177.471 157.508 177.471 157.271C177.471 156.848 177.434 156.498 177.357 156.212C177.281 155.927 177.172 155.713 177.019 155.568C176.869 155.423 176.679 155.351 176.449 155.351Z" fill="#F44E22"/>
<path fill-rule="evenodd" clip-rule="evenodd" d="M31.5088 151.06C31.1371 151.178 30.7231 151.325 30.2676 151.493C30.2491 152.001 30.2412 152.583 30.2412 153.238C30.2412 153.874 30.2512 154.44 30.2666 154.938C30.7016 155.104 31.1155 155.262 31.5088 155.408V157.428C31.0122 157.191 30.4867 156.945 29.9336 156.696C29.3806 156.446 28.8357 156.205 28.2988 155.971C27.1563 155.48 26.0861 155.041 25.0889 154.647C25.1414 154.245 25.1698 153.741 25.1738 153.145C25.1779 152.55 25.1494 152.083 25.0889 151.745C26.2315 151.29 27.3016 150.843 28.2988 150.404C29.1548 150.034 30.2249 149.547 31.5088 148.943V151.06ZM29.2188 151.889C28.5203 152.161 27.8812 152.418 27.3018 152.663C26.6968 152.918 26.2834 153.106 26.0605 153.235C26.3974 153.414 27.2869 153.787 28.7266 154.349C28.8903 154.413 29.0542 154.474 29.2168 154.537C29.2344 154.131 29.2432 153.683 29.2432 153.185C29.2432 152.71 29.2332 152.28 29.2188 151.889Z" fill="#F44E22"/>
<path d="M26.1104 18.564C27.6648 31.3881 32.8007 46.1242 41.5137 62.6998C57.5144 93.3835 59.7518 119.39 48.1641 140.011L48.1592 140.007C45.2603 145.163 40.7669 151.161 33.8105 157.182V156.289C39.5558 151.233 44.1508 145.67 47.5342 139.657C58.9966 119.261 56.7517 93.488 40.8721 63.0338C32.1026 46.3576 26.9342 31.5049 25.3838 18.564H26.1104Z" fill="#F44E22"/>
<path d="M145.425 108.425C149.24 116.621 153.895 125.279 159.398 134.392C163.073 140.522 166.291 146.479 169.04 152.259V153.955C166.157 147.76 162.738 141.36 158.777 134.758C153.52 126.048 149.026 117.744 145.304 109.859C145.364 109.392 145.409 108.912 145.425 108.425Z" fill="#F44E22"/>
<path d="M180.837 151.394L180.833 151.406C180.09 151.341 179.02 151.314 177.623 151.314C176.226 151.314 175.156 151.345 174.413 151.406C174.441 151.196 174.465 150.774 174.485 150.142C174.506 149.51 174.518 148.83 174.526 148.102C174.53 147.265 174.526 146.508 174.514 145.832C174.498 145.156 174.478 144.648 174.441 144.31C174.7 144.334 174.958 144.342 175.217 144.342C175.475 144.342 175.734 144.33 175.992 144.31C175.924 144.556 175.862 144.886 175.802 145.304C175.741 145.723 175.697 146.198 175.656 146.725C175.624 147.244 175.596 147.748 175.58 148.239C175.564 148.73 175.555 149.161 175.563 149.531C175.826 149.543 176.089 149.55 176.352 149.554C176.614 149.558 176.876 149.558 177.139 149.554C177.155 148.81 177.15 147.985 177.118 147.087C177.086 146.19 177.046 145.461 176.993 144.902C177.199 144.926 177.413 144.934 177.635 144.934C177.857 144.934 178.071 144.922 178.277 144.902C178.233 145.469 178.192 146.206 178.164 147.103C178.136 148.001 178.132 148.818 178.156 149.554C178.75 149.554 179.263 149.538 179.69 149.51C179.694 149.108 179.69 148.657 179.674 148.162C179.658 147.667 179.629 147.18 179.589 146.701C179.557 146.202 179.509 145.739 179.452 145.312C179.396 144.89 179.33 144.552 179.262 144.302C179.52 144.326 179.783 144.335 180.05 144.335C180.316 144.335 180.583 144.322 180.837 144.302V151.394Z" fill="#F44E22"/>
<path d="M74.7275 128.962L74.6787 129.671C74.1362 137.026 72.3399 143.908 69.2812 150.299C69.2812 150.307 69.2725 150.307 69.2725 150.307C68.8566 150.581 68.4491 150.855 68.0615 151.141C71.5419 144.282 73.5202 136.827 74.0088 128.809C74.247 128.865 74.4853 128.914 74.7275 128.962Z" fill="#F44E22"/>
<path d="M124.723 128.346C127.844 135.958 130.069 143.235 131.409 150.178H131.405C131.131 150.001 130.852 149.833 130.565 149.668C129.225 142.942 127.044 135.898 124.028 128.54C124.258 128.479 124.493 128.419 124.723 128.346Z" fill="#F44E22"/>
<path d="M31.5127 141.979C31.0282 142.305 30.5474 142.635 30.0791 142.969C29.6068 143.303 29.1429 143.642 28.6787 143.984C27.9718 144.507 27.2665 145.046 26.5625 145.604C27.2447 145.616 27.9315 145.618 28.6221 145.606C29.5789 145.59 30.5398 145.558 31.5127 145.498V147.357L31.5088 147.365C30.4349 147.321 29.3648 147.296 28.2949 147.296C27.225 147.296 26.1548 147.321 25.0889 147.365C25.1333 147.007 25.1571 146.572 25.1611 146.065C25.1611 145.554 25.1414 145.143 25.0889 144.821C25.7389 144.394 26.3854 143.956 27.0273 143.513C27.6692 143.067 28.3067 142.607 28.9404 142.132C29.2473 141.907 29.5546 141.677 29.8574 141.444C29.9352 141.385 30.0121 141.325 30.0898 141.265C29.3938 141.251 28.6951 141.249 27.9922 141.263C27.5239 141.267 27.0432 141.279 26.5547 141.292C26.0621 141.308 25.5774 141.328 25.0889 141.356C25.1413 141.03 25.1659 140.716 25.1699 140.41C25.1699 140.104 25.1454 139.806 25.0889 139.52C25.6259 139.536 26.1593 139.548 26.6963 139.56C27.229 139.568 27.7698 139.573 28.3105 139.573C29.3724 139.573 30.4387 139.548 31.5127 139.496V141.979Z" fill="#F44E22"/>
<path d="M118.099 129.864C119.98 135.471 121.345 140.888 122.193 146.109C121.979 146.041 121.761 145.976 121.543 145.916C121.507 145.904 121.462 145.892 121.426 145.884C120.574 140.777 119.221 135.471 117.372 129.985C117.614 129.949 117.86 129.904 118.099 129.864Z" fill="#F44E22"/>
<path d="M84.5127 130.552C84.5975 135.564 84.1297 140.37 83.1123 144.966V144.97C82.8499 145.027 82.5953 145.079 82.3369 145.139C83.3907 140.462 83.8797 135.563 83.7949 130.456C84.0328 130.488 84.2707 130.516 84.5127 130.552Z" fill="#F44E22"/>
<path d="M110.709 130.898C111.892 135.454 112.704 139.878 113.148 144.153C112.906 144.117 112.659 144.084 112.417 144.056C111.961 139.834 111.149 135.466 109.979 130.97C110.221 130.95 110.467 130.926 110.709 130.898Z" fill="#F44E22"/>
<path d="M93.1211 131.305C93.3632 131.325 93.6094 131.337 93.8516 131.341C94.2593 135.539 94.3079 139.597 93.9971 143.521H94.001C93.7588 143.533 93.5125 143.554 93.2744 143.57C93.5893 139.621 93.541 135.532 93.1211 131.305Z" fill="#F44E22"/>
<path d="M102.618 131.406C103.357 135.511 103.769 139.505 103.862 143.373V143.377C103.624 143.368 103.382 143.356 103.136 143.356C103.043 139.504 102.623 135.531 101.888 131.429C102.13 131.421 102.38 131.418 102.618 131.406Z" fill="#F44E22"/>
<path fill-rule="evenodd" clip-rule="evenodd" d="M177.603 133.917C178.313 133.917 178.915 134.09 179.424 134.432C179.928 134.778 180.316 135.277 180.578 135.929C180.845 136.585 180.978 137.366 180.979 138.276C180.979 139.186 180.845 139.971 180.578 140.623C180.312 141.279 179.929 141.778 179.424 142.125C178.919 142.471 178.313 142.643 177.603 142.643C176.892 142.643 176.287 142.471 175.782 142.125C175.278 141.778 174.889 141.275 174.627 140.623C174.361 139.971 174.228 139.185 174.228 138.276C174.228 137.366 174.361 136.581 174.627 135.929C174.893 135.277 175.278 134.774 175.782 134.432C176.287 134.09 176.892 133.917 177.603 133.917ZM177.644 135.688C177.179 135.688 176.763 135.788 176.424 135.994C176.085 136.199 175.826 136.493 175.645 136.883C175.463 137.27 175.374 137.733 175.374 138.276C175.374 138.819 175.463 139.287 175.645 139.673C175.826 140.06 176.085 140.349 176.424 140.55C176.763 140.752 177.171 140.852 177.644 140.852C178.116 140.852 178.499 140.752 178.83 140.55C179.157 140.349 179.407 140.056 179.581 139.673C179.751 139.291 179.84 138.823 179.84 138.276C179.84 137.737 179.755 137.27 179.581 136.883C179.411 136.497 179.161 136.199 178.83 135.994C178.503 135.789 178.108 135.688 177.644 135.688Z" fill="#F44E22"/>
<path d="M171.264 18.564C162.038 22.6214 153.325 28.7073 147.64 37.8443C133.807 60.0712 140.817 94.4098 168.47 139.898H168.466C168.66 140.212 168.849 140.534 169.039 140.852V142.261C168.647 141.597 168.251 140.937 167.852 140.269C140.041 94.5313 133.032 59.9389 147.022 37.4625C152.493 28.6715 160.722 22.6616 169.516 18.564H171.264Z" fill="#F44E22"/>
<path d="M33.8066 59.9029C48.0428 88.8395 49.6138 113.497 38.4824 133.241C37.2389 135.447 35.7042 137.809 33.8066 140.256V139.078C35.2763 137.117 36.6332 135.048 37.8525 132.886C48.685 113.67 47.3282 89.6886 33.8066 61.5611V59.9029Z" fill="#F44E22"/>
<path d="M30.5879 125.931C30.9472 126.438 31.218 126.994 31.3916 127.597C31.5692 128.201 31.6582 128.914 31.6582 129.739L31.6621 129.743C31.6621 130.677 31.5247 131.478 31.2461 132.146C30.9676 132.814 30.5761 133.325 30.0635 133.675C29.5508 134.025 28.953 134.199 28.2627 134.199C27.54 134.199 26.9216 134.01 26.4209 133.635C25.9205 133.261 25.5414 132.726 25.2871 132.034C25.0327 131.341 24.9072 130.52 24.9072 129.57C24.9072 129.011 24.9595 128.443 25.0645 127.868C25.1694 127.288 25.3557 126.68 25.6182 126.036C25.9168 126.076 26.1875 126.096 26.4297 126.096C26.6718 126.096 26.9503 126.076 27.2529 126.036C26.8493 126.672 26.563 127.279 26.3975 127.859C26.2319 128.438 26.1468 128.974 26.1387 129.477C26.1346 130.073 26.2115 130.592 26.377 131.031C26.5425 131.47 26.7846 131.808 27.1035 132.045C27.4225 132.283 27.8106 132.404 28.2588 132.404C28.7067 132.404 29.0618 132.295 29.3887 132.082C29.7157 131.868 29.9707 131.546 30.1523 131.12C30.334 130.693 30.4267 130.162 30.4268 129.534C30.4268 128.906 30.3131 128.27 30.083 127.686C29.8529 127.103 29.4936 126.559 28.9971 126.052C29.2674 126.08 29.5259 126.08 29.7842 126.052C30.0425 126.024 30.3094 125.984 30.5879 125.931Z" fill="#F44E22"/>
<path d="M180.253 21.8804C170.736 25.9619 161.733 32.149 155.902 41.5074H155.906C143.382 61.609 147.807 91.5768 169.036 130.713V132.218C147.129 92.2648 142.498 61.6577 155.289 41.1295C161.273 31.5254 170.522 25.2261 180.253 21.0963V21.8804Z" fill="#F44E22"/>
<path fill-rule="evenodd" clip-rule="evenodd" d="M180.833 122.896C180.462 123.014 180.05 123.16 179.596 123.327C179.577 123.835 179.569 124.416 179.569 125.07C179.569 125.706 179.579 126.274 179.595 126.772C180.028 126.938 180.441 127.094 180.833 127.239V129.264C180.336 129.027 179.811 128.78 179.258 128.531C178.705 128.281 178.16 128.041 177.623 127.807C176.48 127.316 175.41 126.877 174.413 126.483C174.466 126.08 174.494 125.577 174.498 124.981C174.502 124.386 174.474 123.919 174.413 123.581C175.556 123.126 176.626 122.679 177.623 122.24C178.479 121.87 179.549 121.383 180.833 120.779V122.896ZM178.547 123.723C177.847 123.996 177.206 124.252 176.626 124.494C176.021 124.749 175.608 124.938 175.385 125.067C175.722 125.246 176.611 125.618 178.051 126.18C178.216 126.245 178.381 126.307 178.545 126.37C178.563 125.964 178.571 125.515 178.571 125.017C178.571 124.543 178.561 124.113 178.547 123.723Z" fill="#F44E22"/>
<path d="M100.857 50.3668C112.272 50.3668 121.264 51.997 127.841 55.2574C134.414 58.5178 137.7 63.3441 137.7 69.732C137.7 73.3908 136.63 76.5186 134.494 79.1148C132.358 81.7109 129.653 83.7395 126.383 85.2047C123.112 86.6698 119.741 87.5678 116.269 87.9019V89.4996C124.678 90.0349 131.288 91.8137 136.093 94.8404C140.897 97.8713 143.3 102.046 143.3 107.367C143.3 114.552 139.162 119.761 130.885 122.989C122.608 126.217 112.494 127.831 100.547 127.831L100.559 127.819C93.1498 127.819 85.5914 127.07 77.8838 125.573C70.1722 124.075 64.4147 122.063 60.6113 119.535C61.1442 116.476 61.4111 113.598 61.4111 110.901C61.4111 108.204 61.1443 105.097 60.6113 101.567C62.5453 103.829 65.7191 105.943 70.124 107.907C74.5289 109.871 79.4872 111.433 84.9902 112.6C90.4973 113.763 95.6854 114.347 100.559 114.347C106.433 114.347 110.956 113.518 114.125 111.851C117.294 110.189 118.881 107.794 118.881 104.663C118.881 100.803 116.777 98.0927 112.57 96.5269C108.367 94.9652 102.593 94.1802 95.249 94.1802C93.6462 94.1803 91.7967 94.2652 89.6934 94.4302C87.5941 94.5993 85.4706 94.7808 83.335 94.982L75.7236 95.5816C75.9901 93.6536 76.124 91.6571 76.124 89.5923C76.124 87.5276 75.9901 85.5672 75.7236 83.7037L77.4277 83.9048C79.3617 84.1061 81.4817 84.3032 83.7871 84.5045C86.0884 84.7057 88.5755 84.8023 91.2441 84.8023C100.389 84.8023 106.796 83.8201 110.471 81.8599C114.141 79.8997 115.978 77.251 115.979 73.9263C115.979 70.6016 114.444 68.4197 111.371 67.188C108.299 65.9564 104.196 65.3404 99.0566 65.3404C91.8497 65.3404 85.0384 66.0735 78.6309 67.5386C72.2233 69.0038 66.4493 71.4306 61.3096 74.8238C62.0444 72.0947 62.4286 69.0998 62.4609 65.8394C62.4932 62.5791 62.174 59.584 61.5078 56.855C66.914 54.8586 73.2372 53.2811 80.4805 52.1138C87.7236 50.9506 94.5146 50.3668 100.857 50.3668Z" fill="#F44E22"/>
<path d="M31.5127 123.966L31.5088 123.975C30.7659 123.911 29.6958 123.882 28.2988 123.882C26.9018 123.882 25.8318 123.915 25.0889 123.975C25.1171 123.766 25.1409 123.342 25.1611 122.711C25.1813 122.079 25.1941 121.399 25.2021 120.67C25.2062 119.833 25.2016 119.076 25.1895 118.4C25.1733 117.724 25.1535 117.216 25.1172 116.882C25.3756 116.907 25.6342 116.915 25.8926 116.915C26.1509 116.915 26.4096 116.903 26.668 116.882C26.5993 117.128 26.5381 117.458 26.4775 117.877C26.421 118.295 26.3724 118.77 26.332 119.297C26.2997 119.817 26.272 120.32 26.2559 120.811C26.2397 121.302 26.2312 121.733 26.2393 122.103C26.5017 122.115 26.7649 122.123 27.0273 122.128C27.2896 122.132 27.5522 122.132 27.8145 122.128C27.8306 121.383 27.8262 120.557 27.7939 119.66C27.7616 118.762 27.7214 118.034 27.6689 117.474C27.8747 117.498 28.0886 117.506 28.3105 117.506C28.5326 117.506 28.7472 117.494 28.9531 117.474C28.9087 118.042 28.8681 118.779 28.8398 119.676C28.8116 120.574 28.8078 121.391 28.832 122.128C29.4254 122.127 29.9383 122.111 30.3662 122.083C30.3702 121.68 30.3657 121.23 30.3496 120.735C30.3335 120.24 30.305 119.752 30.2646 119.273C30.2323 118.774 30.1844 118.311 30.1279 117.884C30.0714 117.462 30.0061 117.124 29.9375 116.875C30.1959 116.899 30.4591 116.907 30.7256 116.907C30.992 116.907 31.2584 116.895 31.5127 116.875V123.966Z" fill="#F44E22"/>
<path d="M180.255 29.7496C173.94 33.5815 168.28 38.6013 164.174 45.1783C153.414 62.426 155.068 86.9073 169.034 118.199V119.942C154.362 87.7127 152.501 62.5232 163.556 44.7964C167.803 37.9819 173.694 32.8173 180.251 28.9048H180.255V29.7496Z" fill="#F44E22"/>
<path d="M180.837 119.189L180.833 119.197C180.09 119.132 179.02 119.104 177.623 119.104C176.226 119.104 175.156 119.136 174.413 119.197C174.441 118.987 174.465 118.565 174.485 117.933C174.506 117.301 174.518 116.621 174.526 115.892C174.53 115.055 174.526 114.299 174.514 113.623C174.498 112.947 174.478 112.439 174.441 112.105C174.7 112.129 174.958 112.137 175.217 112.137C175.475 112.137 175.734 112.125 175.992 112.105C175.924 112.351 175.862 112.681 175.802 113.099C175.745 113.518 175.697 113.993 175.656 114.52C175.624 115.039 175.596 115.542 175.58 116.033C175.564 116.524 175.555 116.955 175.563 117.326C175.826 117.338 176.089 117.345 176.352 117.349C176.614 117.353 176.876 117.353 177.139 117.349C177.155 116.605 177.15 115.78 177.118 114.882C177.086 113.985 177.046 113.256 176.993 112.697C177.199 112.721 177.413 112.728 177.635 112.728C177.857 112.728 178.071 112.717 178.277 112.697C178.233 113.264 178.192 114.001 178.164 114.898C178.136 115.796 178.132 116.613 178.156 117.349C178.75 117.349 179.263 117.333 179.69 117.305C179.694 116.903 179.69 116.452 179.674 115.957C179.658 115.462 179.629 114.975 179.589 114.496C179.557 113.997 179.509 113.534 179.452 113.107C179.396 112.684 179.33 112.346 179.262 112.096C179.52 112.12 179.783 112.128 180.05 112.128C180.316 112.128 180.583 112.116 180.837 112.096V119.189Z" fill="#F44E22"/>
<path d="M31.5127 109.489C31.0283 109.815 30.5474 110.144 30.0791 110.478C29.6068 110.812 29.1429 111.155 28.6787 111.493C27.9719 112.016 27.2664 112.555 26.5625 113.113C27.2447 113.125 27.9315 113.126 28.6221 113.115C29.5789 113.099 30.5398 113.067 31.5127 113.006V114.866L31.5088 114.874C30.4349 114.829 29.3648 114.805 28.2949 114.805C27.225 114.805 26.1548 114.829 25.0889 114.874C25.1332 114.515 25.1571 114.081 25.1611 113.574C25.1611 113.063 25.1414 112.652 25.0889 112.33C25.7388 111.903 26.3854 111.465 27.0273 111.018C27.6692 110.571 28.3066 110.112 28.9404 109.641C29.2473 109.412 29.5546 109.186 29.8574 108.953C29.9352 108.894 30.0121 108.833 30.0898 108.774C29.3938 108.76 28.6951 108.758 27.9922 108.772C27.5239 108.776 27.0432 108.788 26.5547 108.8C26.0661 108.812 25.5774 108.837 25.0889 108.865C25.1414 108.539 25.1659 108.224 25.1699 107.919C25.1699 107.613 25.1454 107.315 25.0889 107.029C25.6259 107.045 26.1593 107.057 26.6963 107.069C27.229 107.077 27.7698 107.082 28.3105 107.082C29.3724 107.082 30.4387 107.057 31.5127 107.004V109.489Z" fill="#F44E22"/>
<path d="M33.8096 79.0904C36.9427 92.0675 36.9427 103.954 33.8096 114.665V111.831C35.9776 102.822 35.9737 92.997 33.8096 82.4029V79.0904Z" fill="#F44E22"/>
<path d="M90.8926 97.9039C93.0688 102.247 94.9625 106.502 96.5977 110.644C96.3354 110.636 96.0691 110.623 95.7988 110.607C94.1718 106.489 92.2775 102.268 90.1055 97.9488C90.3719 97.9287 90.6342 97.9159 90.8926 97.9039Z" fill="#F44E22"/>
<path d="M97.0908 97.8843C99.4487 102.187 101.557 106.393 103.406 110.506C103.156 110.531 102.901 110.555 102.643 110.567C100.773 106.425 98.6373 102.183 96.2432 97.8521C96.5298 97.8642 96.8083 97.8723 97.0908 97.8843Z" fill="#F44E22"/>
<path fill-rule="evenodd" clip-rule="evenodd" d="M180.834 104.839C180.313 104.892 179.893 105.008 179.57 105.189C179.247 105.37 179.001 105.632 178.835 105.974C178.665 106.316 178.556 106.764 178.504 107.315C178.488 107.452 178.476 107.604 178.472 107.769C178.468 107.938 178.464 108.108 178.464 108.277C179.295 108.253 179.771 108.24 179.885 108.232C180.054 108.228 180.221 108.217 180.374 108.205C180.527 108.193 180.681 108.176 180.838 108.164V110.1H180.834C180.091 110.036 179.021 110.007 177.624 110.007C176.227 110.007 175.157 110.04 174.414 110.1C174.418 109.674 174.422 109.275 174.422 108.909C174.422 108.543 174.418 108.188 174.406 107.846C174.394 107.609 174.386 107.363 174.386 107.114C174.386 106.864 174.382 106.598 174.382 106.321C174.382 105.069 174.536 104.147 174.851 103.551C175.161 102.956 175.637 102.658 176.275 102.658C176.76 102.658 177.148 102.815 177.431 103.125C177.713 103.434 177.914 103.793 178.023 104.204C178.132 104.614 178.189 104.989 178.189 105.331H178.326C178.467 104.558 178.787 103.937 179.279 103.47C179.772 103.003 180.293 102.642 180.834 102.388V104.839ZM176.449 104.534C176.122 104.534 175.888 104.694 175.738 105.016C175.589 105.338 175.517 105.793 175.517 106.377C175.517 106.594 175.516 106.808 175.521 107.021C175.521 107.234 175.529 107.439 175.541 107.632L175.549 108.249C175.835 108.261 176.13 108.269 176.433 108.273C176.739 108.277 177.055 108.281 177.39 108.281H177.397L177.422 107.878C177.434 107.661 177.446 107.432 177.454 107.182C177.466 106.933 177.471 106.691 177.471 106.454C177.471 106.031 177.434 105.681 177.357 105.395C177.281 105.109 177.172 104.895 177.019 104.751C176.869 104.606 176.679 104.534 176.449 104.534Z" fill="#F44E22"/>
<path d="M84.5742 98.3834C86.3102 102.308 87.8163 106.151 89.084 109.915L88.2812 109.787V109.778C87.0216 106.091 85.5313 102.312 83.8154 98.4556C84.0644 98.4316 84.3173 98.4074 84.5742 98.3834Z" fill="#F44E22"/>
<path d="M103.369 98.4068V98.4156C103.898 99.3695 104.443 100.328 104.988 101.294V101.297C106.531 104.002 107.977 106.675 109.329 109.311C109.103 109.392 108.873 109.468 108.635 109.541C107.306 106.948 105.881 104.316 104.363 101.647C103.725 100.524 103.095 99.4053 102.485 98.2984C102.788 98.3306 103.083 98.3706 103.369 98.4068Z" fill="#F44E22"/>
<path d="M77.8721 98.9468C79.0792 102.11 80.1133 105.222 80.9854 108.273C80.711 108.213 80.4441 108.14 80.1738 108.068C79.3138 105.101 78.2959 102.082 77.125 99.0025L77.8682 98.9468H77.8721Z" fill="#F44E22"/>
<path d="M109.779 99.9371C109.981 100.009 110.171 100.089 110.345 100.162V100.17C111.37 102.066 112.429 103.974 113.543 105.91C113.462 106.175 113.34 106.449 113.171 106.723C111.818 104.373 110.531 102.058 109.315 99.772C109.473 99.8283 109.626 99.8808 109.779 99.9371Z" fill="#F44E22"/>
<path d="M61.8057 77.8668C65.3103 84.7981 68.1127 91.4883 70.2041 97.9205C70.3817 98.4557 70.5476 98.9831 70.7051 99.5103C71.3389 101.547 71.8994 103.552 72.3799 105.532H72.376C72.0976 105.423 71.8232 105.306 71.5488 105.198C69.421 96.6927 65.9727 87.7083 61.1963 78.2613L61.8057 77.8668Z" fill="#F44E22"/>
<path d="M26.5264 97.7066C26.4416 98.1332 26.3727 98.5759 26.3242 99.0386C26.2758 99.5015 26.2475 100.046 26.2354 100.669C27.1196 100.698 28.0808 100.701 29.1104 100.685C30.1439 100.669 30.9436 100.633 31.5088 100.585V102.549C30.9396 102.497 30.136 102.469 29.0986 102.461C28.061 102.452 27.1075 102.461 26.2354 102.489C26.2475 103.109 26.2758 103.648 26.3242 104.107C26.3727 104.566 26.4416 105.005 26.5264 105.427C26.2882 105.383 26.0458 105.359 25.8076 105.359C25.5694 105.359 25.3271 105.383 25.0889 105.427C25.1292 103.97 25.1494 102.686 25.1494 101.567C25.1494 100.448 25.1292 99.1637 25.0889 97.7066C25.3271 97.7469 25.5694 97.7672 25.8076 97.7672C26.0458 97.7671 26.2882 97.7469 26.5264 97.7066Z" fill="#F44E22"/>
<path d="M169.041 55.523C164.168 67.4777 164.172 82.2703 169.041 99.7838V102.376C163.215 82.8618 163.211 66.5879 169.041 53.6793V55.523Z" fill="#F44E22"/>
<path d="M180.837 100.581L180.833 100.588C180.09 100.524 179.02 100.496 177.623 100.496C176.226 100.496 175.156 100.528 174.413 100.588C174.441 100.379 174.465 99.9564 174.485 99.3248C174.506 98.6928 174.518 98.0123 174.526 97.2838C174.53 96.4468 174.526 95.6903 174.514 95.0142C174.498 94.3382 174.478 93.8307 174.441 93.4966C174.7 93.5208 174.958 93.5289 175.217 93.5289C175.475 93.5289 175.734 93.5168 175.992 93.4966C175.924 93.7422 175.862 94.0722 175.802 94.4908C175.745 94.9093 175.697 95.3845 175.656 95.9117C175.624 96.4308 175.596 96.9344 175.58 97.4254C175.564 97.9163 175.555 98.3471 175.563 98.7173C175.826 98.7294 176.089 98.7368 176.352 98.7408C176.614 98.7448 176.876 98.7448 177.139 98.7408C177.155 97.9963 177.15 97.1713 177.118 96.274C177.086 95.3766 177.046 94.6479 176.993 94.0884C177.199 94.1126 177.413 94.1207 177.635 94.1207C177.857 94.1207 178.071 94.1086 178.277 94.0884C178.233 94.6559 178.192 95.3923 178.164 96.2896C178.136 97.1871 178.132 98.0043 178.156 98.7408C178.75 98.7408 179.263 98.725 179.69 98.6968C179.694 98.2943 179.69 97.8433 179.674 97.3482C179.658 96.8532 179.629 96.3662 179.589 95.8873C179.557 95.3882 179.509 94.9252 179.452 94.4986C179.396 94.0762 179.33 93.7384 179.262 93.4888C179.52 93.513 179.783 93.5201 180.05 93.5201C180.316 93.5201 180.583 93.5089 180.837 93.4888V100.581Z" fill="#F44E22"/>
<path d="M56.748 81.1998C59.534 87.8212 61.6179 94.2013 63.0068 100.332H63.0029C62.6477 100.022 62.3246 99.7072 62.042 99.3892C60.6773 93.6775 58.7065 87.7484 56.1387 81.606L56.748 81.1998Z" fill="#F44E22"/>
<path d="M31.5137 96.1207L31.5098 96.1285C30.7669 96.0641 29.6967 96.0367 28.2998 96.0367C26.9029 96.0367 25.8327 96.0681 25.0898 96.1285C25.1181 95.919 25.1419 95.4964 25.1621 94.8648C25.1823 94.2329 25.1951 93.5523 25.2031 92.8238C25.2072 91.9868 25.2025 91.2303 25.1904 90.5543C25.1743 89.8782 25.1545 89.3708 25.1182 89.0367C25.3765 89.0608 25.6352 89.0689 25.8936 89.0689C26.1519 89.0689 26.4106 89.0568 26.6689 89.0367C26.6003 89.2822 26.5391 89.6122 26.4785 90.0308C26.422 90.4494 26.3734 90.9245 26.333 91.4517C26.3007 91.9709 26.273 92.4744 26.2568 92.9654C26.2407 93.4563 26.2322 93.8872 26.2402 94.2574C26.5025 94.2695 26.7651 94.2768 27.0273 94.2808C27.2898 94.2848 27.553 94.2848 27.8154 94.2808C27.8316 93.5363 27.8272 92.7114 27.7949 91.814C27.7626 90.9166 27.7224 90.1879 27.6699 89.6285C27.8757 89.6526 28.0896 89.6607 28.3115 89.6607C28.5336 89.6607 28.7482 89.6486 28.9541 89.6285C28.9097 90.1959 28.8691 90.9323 28.8408 91.8297C28.8126 92.7271 28.8088 93.5443 28.833 94.2808C29.4263 94.2808 29.9393 94.265 30.3672 94.2369C30.3712 93.8344 30.3667 93.3833 30.3506 92.8882C30.3344 92.3933 30.306 91.9062 30.2656 91.4273C30.2333 90.9282 30.1854 90.4653 30.1289 90.0386C30.0724 89.6162 30.0071 89.2784 29.9385 89.0289C30.1969 89.053 30.4601 89.0611 30.7266 89.0611C30.9929 89.0611 31.2594 89.049 31.5137 89.0289V96.1207Z" fill="#F44E22"/>
<path d="M135.551 81.731C136.564 85.6233 137.828 89.6643 139.358 93.8423C139.011 93.5405 138.652 93.2424 138.272 92.9566C136.98 89.322 135.882 85.7959 134.978 82.3746C135.179 82.1613 135.369 81.9483 135.551 81.731Z" fill="#F44E22"/>
<path d="M23.2891 90.6509C23.4141 90.84 23.539 91.0331 23.6641 91.2261C23.9949 91.7209 24.2254 92.055 24.3506 92.2242C24.3385 92.3208 24.335 92.5264 24.335 92.8404C24.335 93.1537 24.3385 93.3588 24.3506 93.4556C24.1405 93.2383 23.7367 92.9162 23.1436 92.4898C23.1309 92.4774 23.0582 92.4248 22.9297 92.3287C22.97 92.1193 22.9902 91.7452 22.9902 91.2144C22.9902 90.6831 22.9701 90.3125 22.9297 90.0992C23.0427 90.2763 23.1639 90.4577 23.2891 90.6509Z" fill="#F44E22"/>
<path fill-rule="evenodd" clip-rule="evenodd" d="M177.603 83.0992C178.313 83.0992 178.915 83.2727 179.424 83.6148C179.928 83.9609 180.316 84.4599 180.578 85.1119C180.845 85.768 180.979 86.5489 180.979 87.4586C180.979 88.3682 180.845 89.1532 180.578 89.8052C180.312 90.4612 179.928 90.9601 179.424 91.3062C178.919 91.6524 178.313 91.8257 177.603 91.8257C176.892 91.8257 176.287 91.6523 175.782 91.3062C175.278 90.9601 174.889 90.4573 174.627 89.8052C174.361 89.1492 174.228 88.3682 174.228 87.4586C174.228 86.5489 174.36 85.7639 174.627 85.1119C174.893 84.4558 175.278 83.9569 175.782 83.6148C176.287 83.2728 176.892 83.0992 177.603 83.0992ZM177.644 84.8707C177.179 84.8707 176.763 84.971 176.424 85.1763C176.085 85.3816 175.826 85.6756 175.645 86.066C175.463 86.4524 175.374 86.9152 175.374 87.4586C175.374 88.0018 175.463 88.4687 175.645 88.855C175.826 89.2374 176.085 89.5317 176.424 89.733C176.763 89.9342 177.171 90.0347 177.644 90.0347C178.116 90.0347 178.499 89.9341 178.83 89.733C179.157 89.5317 179.407 89.2374 179.581 88.855C179.751 88.4727 179.84 88.0059 179.84 87.4586C179.84 86.9192 179.755 86.4524 179.581 86.066C179.411 85.6796 179.161 85.3816 178.83 85.1763C178.503 84.9712 178.108 84.8707 177.644 84.8707Z" fill="#F44E22"/>
<path d="M129.981 86.5816C130.248 87.3663 130.523 88.1549 130.81 88.9517C130.519 88.835 130.224 88.727 129.925 88.6304C129.731 88.0709 129.541 87.5189 129.352 86.9634C129.566 86.8427 129.772 86.7104 129.978 86.5816H129.981Z" fill="#F44E22"/>
<path d="M29.6631 79.4888C30.3131 79.4888 30.7982 79.7868 31.1172 80.3785C31.4361 80.9701 31.5976 81.8675 31.5977 83.0748H31.6094C31.6094 83.8033 31.5406 84.5206 31.4033 85.2291C31.2661 85.9372 31.0889 86.5851 30.875 87.1685C30.5883 87.1242 30.3051 87.1002 30.0225 87.1002C29.74 87.1002 29.4572 87.1243 29.1787 87.1685C29.5784 86.7822 29.882 86.187 30.0879 85.3902C30.2938 84.5932 30.3945 83.7593 30.3945 82.9019C30.3945 82.3546 30.334 81.9599 30.2129 81.7144C30.0918 81.469 29.9093 81.3482 29.6631 81.3482C29.4535 81.3483 29.2963 81.425 29.1914 81.5777C29.0905 81.7307 29.0095 81.9724 28.957 82.2984C28.9046 82.6244 28.8438 83.1596 28.7832 83.9C28.7146 84.6565 28.6174 85.2726 28.4883 85.7515C28.3591 86.2304 28.1701 86.5974 27.9238 86.855C27.6735 87.1127 27.3416 87.2369 26.9258 87.2369C26.2678 87.2368 25.7791 86.9474 25.4521 86.3638C25.1251 85.7802 24.9639 84.8941 24.9639 83.7027C24.9639 83.0548 24.9961 82.4792 25.0566 81.9761C25.1212 81.4731 25.2147 80.9538 25.3398 80.4185C25.4085 80.1047 25.4523 79.9071 25.4766 79.8306C25.6583 79.8588 25.8444 79.8792 26.0342 79.8873C26.2237 79.8953 26.4091 79.8954 26.5986 79.8834C26.6793 79.8793 26.7603 79.8709 26.8369 79.8629C26.9176 79.8548 26.9986 79.8426 27.0752 79.8345C26.8047 80.4222 26.5913 81.0428 26.4258 81.6949C26.2603 82.3468 26.1748 83.0388 26.1748 83.7672C26.1748 84.3347 26.2318 84.75 26.3408 84.9996C26.4538 85.2528 26.6273 85.3774 26.8652 85.3775C27.067 85.3775 27.2247 85.3053 27.3418 85.1646C27.4589 85.0238 27.5477 84.794 27.6123 84.4761C27.6769 84.1581 27.73 83.7148 27.7744 83.1392C27.7865 82.9705 27.7986 82.8418 27.8066 82.7574C27.8753 82.0129 27.9714 81.405 28.1006 80.9341C28.2298 80.4633 28.4196 80.1045 28.6699 79.8589C28.9202 79.6135 29.2515 79.4889 29.6631 79.4888Z" fill="#F44E22"/>
<path d="M66.5254 75.1382C67.2319 76.4946 67.9589 77.8672 68.7139 79.2437C69.2629 80.254 69.7996 81.2564 70.3164 82.2505L70.5957 84.2105C70.6078 84.2828 70.6121 84.3511 70.6201 84.4234C69.8167 82.8255 68.9602 81.2115 68.0801 79.5894C67.3251 78.2049 66.5942 76.8326 65.8877 75.4722C66.1016 75.3556 66.3156 75.2469 66.5254 75.1382Z" fill="#F44E22"/>
<path d="M83.3838 70.0416C84.8212 73.636 86.4486 77.3395 88.2695 81.1392V81.1431C88.0031 81.1431 87.7323 81.1347 87.4658 81.1226C85.6733 77.3674 84.0704 73.7168 82.6533 70.1588C82.8955 70.1145 83.1416 70.0778 83.3838 70.0416Z" fill="#F44E22"/>
<path d="M89.8145 69.2847C91.1912 73.0884 92.7897 77.0053 94.6025 81.0464C94.3522 81.0585 94.0896 81.0705 93.8271 81.0826C92.0225 77.0537 90.4398 73.1415 89.0752 69.3541C89.3174 69.3299 89.5641 69.3089 89.8145 69.2847Z" fill="#F44E22"/>
<path d="M77.3008 71.2291C78.6735 74.3445 80.1749 77.537 81.8223 80.7974V80.8013C81.5357 80.7772 81.2571 80.7444 80.9746 80.7203C79.3839 77.5487 77.9223 74.4456 76.5859 71.4068C76.8242 71.3464 77.0626 71.2854 77.3008 71.2291Z" fill="#F44E22"/>
<path d="M96.583 68.983C97.7902 72.69 99.2152 76.5102 100.858 80.4507V80.4547C100.62 80.4909 100.378 80.527 100.128 80.5591C98.4686 76.5866 97.0392 72.7309 95.832 68.9918C96.0824 68.9918 96.3327 68.983 96.583 68.983Z" fill="#F44E22"/>
<path d="M71.6777 72.9244C72.8122 75.295 74.0196 77.7096 75.3115 80.1607L75.3076 80.1568L74.4434 80.0523C73.22 77.7258 72.0731 75.4274 70.9951 73.1773C71.2212 73.0928 71.4476 73.0089 71.6777 72.9244Z" fill="#F44E22"/>
<path d="M103.703 69.3619C104.603 72.429 105.657 75.5807 106.872 78.8209C106.67 78.9174 106.452 79.0104 106.214 79.107C104.946 75.734 103.856 72.4531 102.928 69.2652C103.19 69.2974 103.453 69.3257 103.703 69.3619Z" fill="#F44E22"/>
<path d="M33.9883 18.564C34.9331 32.6762 40.473 49.272 50.583 68.2144H50.5791C52.2789 71.4345 53.8335 74.5981 55.2305 77.7134L54.9395 78.8209C53.4536 75.4558 51.7815 72.0342 49.9404 68.5484C39.7699 49.4974 34.2065 32.7969 33.2617 18.564H33.9883Z" fill="#F44E22"/>
<path d="M31.5127 77.4839H31.5088C30.7659 77.4195 29.6958 77.3922 28.2988 77.3922C26.9019 77.3922 25.8318 77.4236 25.0889 77.4839C25.1413 77.1419 25.1659 76.8117 25.1699 76.4898C25.1699 76.168 25.1453 75.8542 25.0889 75.5484C25.8479 75.6128 26.93 75.6404 28.3311 75.6324C29.7321 75.6284 30.794 75.5885 31.5127 75.5201V77.4839Z" fill="#F44E22"/>
<path d="M31.5127 66.2584C31.0969 66.2262 30.3621 66.1935 29.3125 66.1734C28.3742 66.1611 27.5377 66.1583 26.8037 66.1685C27.4564 66.4614 28.1772 66.768 28.9648 67.0875C29.7885 67.4216 30.6447 67.7519 31.541 68.0699V69.6558C30.6729 69.9617 29.8165 70.2873 28.9727 70.6295C28.2138 70.9387 27.5045 71.2437 26.8428 71.5406C27.5399 71.5468 28.3046 71.5469 29.1387 71.5347C30.2407 71.5186 31.032 71.4824 31.5205 71.4341V73.3023H31.5088C30.7659 73.2379 29.6958 73.2095 28.2988 73.2095C26.9018 73.2095 25.8318 73.2419 25.0889 73.3023C25.1333 72.9602 25.1571 72.5054 25.1611 71.942C25.1611 71.3744 25.1414 70.9431 25.0889 70.6412C26.0417 70.3272 26.902 70.0257 27.665 69.7359C28.311 69.4918 29.0337 69.195 29.8301 68.8541C29.2047 68.5692 28.4793 68.2595 27.6572 67.9283C26.7609 67.5741 25.9045 67.2645 25.0889 66.9908C25.1414 66.6728 25.166 66.2338 25.166 65.6783C25.166 65.1232 25.1413 64.6887 25.0889 64.3668C25.8479 64.4312 26.93 64.4588 28.3311 64.4507C29.7321 64.4467 30.794 64.4069 31.5127 64.3384V66.2584Z" fill="#F44E22"/>
<path d="M42.1758 18.564C42.2848 32.7125 47.2751 49.5462 57.1348 68.9273C57.0904 69.3659 57.042 69.7968 56.9814 70.2193C46.7503 50.3431 41.5702 33.0747 41.4531 18.564H42.1758Z" fill="#F44E22"/>
<path fill-rule="evenodd" clip-rule="evenodd" d="M28.2793 53.732C28.9898 53.732 29.5919 53.9046 30.1006 54.2466C30.6053 54.5928 30.9924 55.0926 31.2549 55.7447C31.5213 56.4008 31.6553 57.1817 31.6553 58.0914C31.6552 59.0009 31.5213 59.786 31.2549 60.438C30.9884 61.0939 30.6052 61.5929 30.1006 61.939C29.5959 62.2852 28.9899 62.4586 28.2793 62.4586C27.5689 62.4585 26.9636 62.2851 26.459 61.939C25.9543 61.5929 25.5662 61.0901 25.3037 60.438C25.0373 59.782 24.9043 59.0009 24.9043 58.0914C24.9043 57.1818 25.0373 56.3967 25.3037 55.7447C25.5702 55.0886 25.9543 54.5888 26.459 54.2466C26.9635 53.9047 27.569 53.7321 28.2793 53.732ZM28.3203 55.5025C27.856 55.5025 27.4397 55.6039 27.1006 55.8091C26.7615 56.0144 26.5029 56.3084 26.3213 56.6988C26.1397 57.0851 26.0508 57.5482 26.0508 58.0914C26.0508 58.6346 26.1396 59.1015 26.3213 59.4879C26.503 59.8702 26.7614 60.1645 27.1006 60.3658C27.4397 60.567 27.848 60.6675 28.3203 60.6675C28.7924 60.6675 29.1759 60.5668 29.5068 60.3658C29.8338 60.1645 30.0842 59.8702 30.2578 59.4879C30.4274 59.1055 30.5166 58.6387 30.5166 58.0914C30.5166 57.5521 30.4314 57.0852 30.2578 56.6988C30.0882 56.3124 29.8379 56.0144 29.5068 55.8091C29.1799 55.6039 28.7845 55.5025 28.3203 55.5025Z" fill="#F44E22"/>
<path d="M155.845 18.564C149.385 22.3799 143.554 27.4473 139.367 34.1773C135.608 40.2271 133.396 47.1832 132.729 55.0162C132.511 54.8351 132.286 54.6615 132.06 54.5005C132.774 46.7361 135.003 39.8291 138.75 33.7955C142.779 27.319 148.311 22.3557 154.452 18.564H155.845Z" fill="#F44E22"/>
<path d="M50.4971 18.5679C49.9197 28.8837 52.0996 40.7291 57.0449 54.0513L56.3721 54.2994C51.3978 40.9037 49.201 28.973 49.7783 18.5679H50.4971Z" fill="#F44E22"/>
<path d="M57.0459 54.0543L57.0449 54.0513L57.0498 54.0504L57.0459 54.0543Z" fill="#F44E22"/>
<path d="M59.083 18.564C57.8475 28.2404 59.225 39.382 63.21 51.9283C62.9799 52.0007 62.7456 52.0697 62.5195 52.1422C58.5224 39.5354 57.1331 28.3291 58.3564 18.564H59.083Z" fill="#F44E22"/>
<path d="M180.257 39.5474C177.293 42.2402 174.649 45.3233 172.444 48.8492C172.085 49.4247 171.738 50.0086 171.407 50.6002H170.579C170.975 49.8757 171.391 49.1677 171.827 48.4673C174.185 44.6837 177.047 41.4066 180.253 38.5689H180.257V39.5474Z" fill="#F44E22"/>
<path d="M142.117 18.564C137.858 21.8002 134.062 25.7327 131.099 30.5064C127.473 36.3429 125.305 43.0211 124.578 50.524C124.348 50.4314 124.114 50.3468 123.884 50.2623C124.635 42.7312 126.832 36.0092 130.481 30.1285C133.328 25.548 136.921 21.7319 140.95 18.5601H142.113L142.117 18.564Z" fill="#F44E22"/>
<path d="M23.6719 37.5591C25.194 41.6848 26.9948 45.9475 29.0781 50.3589H28.2705C26.5465 46.676 25.0123 43.0937 23.6719 39.608V37.5591Z" fill="#F44E22"/>
<path d="M67.9434 18.5679C66.054 27.704 66.6754 38.2526 69.8076 50.1734C69.5697 50.2297 69.3394 50.2821 69.1055 50.3384C65.9684 38.3758 65.3347 27.7694 67.2041 18.5679H67.9434Z" fill="#F44E22"/>
<path d="M77.1182 18.564C74.5462 27.2503 74.442 37.3375 76.7959 48.773C76.5658 48.8092 76.327 48.8539 76.0928 48.8941C73.7389 37.4305 73.8315 27.3108 76.3711 18.5601H77.1143L77.1182 18.564Z" fill="#F44E22"/>
<path d="M129.562 18.564C127.034 20.9952 124.753 23.741 122.827 26.8443H122.831C119.004 33.0228 116.804 40.1431 116.238 48.1851C116 48.1368 115.762 48.0926 115.523 48.0523C116.101 39.9296 118.334 32.7246 122.214 26.4615C124.035 23.5232 126.174 20.8986 128.532 18.564H129.562Z" fill="#F44E22"/>
<path d="M86.6465 18.564C83.3438 26.8799 82.5161 36.6007 84.1553 47.6939C83.9171 47.7181 83.6787 47.7507 83.4365 47.7789C81.7973 36.6815 82.6089 26.9283 85.8672 18.564H86.6465Z" fill="#F44E22"/>
<path d="M117.945 18.564C116.787 19.9686 115.709 21.4539 114.724 23.0396C110.472 29.8904 108.235 37.9049 108.009 47.0621C107.771 47.0379 107.532 47.0175 107.29 47.0054C107.52 37.7357 109.793 29.6091 114.113 22.6578C115.01 21.2168 115.979 19.8521 117.013 18.564H117.945Z" fill="#F44E22"/>
<path d="M96.5742 18.564C92.4439 26.582 90.866 36.0653 91.835 46.9693C91.5968 46.9814 91.3583 47.002 91.1201 47.0181C90.1592 36.1261 91.7057 26.6224 95.7715 18.564H96.5742Z" fill="#F44E22"/>
<path d="M106.461 19.3648C101.701 27.0247 99.4849 36.1584 99.7998 46.7164H99.085C98.77 36.0256 101.015 26.7676 105.848 18.983C105.932 18.8421 106.025 18.7049 106.114 18.564H106.966C106.796 18.8297 106.622 19.0992 106.461 19.3648Z" fill="#F44E22"/>
</svg>
