<svg width="204" height="264" viewBox="0 0 204 264" fill="none" xmlns="http://www.w3.org/2000/svg">
<path d="M197.326 20.4639C197.326 20.5766 197.334 20.6813 197.338 20.7899C197.363 21.3655 197.464 21.9291 197.629 22.4564C198.473 25.1452 200.976 27.1054 203.936 27.1457V34.0367C200.278 34.0931 197.326 37.0636 197.326 40.7265C197.326 41.918 197.641 43.041 198.194 44.0111C198.465 44.4941 198.792 44.9409 199.18 45.3313C200.209 46.4181 201.618 47.1628 203.189 47.36C203.435 47.3882 203.681 47.4083 203.932 47.4123V54.235C203.714 54.235 203.504 54.2511 203.294 54.2712C203.278 54.2712 203.266 54.2712 203.249 54.2792C203.035 54.3034 202.825 54.3396 202.616 54.3839C202.329 54.4443 202.046 54.5248 201.776 54.6214C201.699 54.6496 201.618 54.6777 201.546 54.7099C201.521 54.718 201.501 54.7301 201.477 54.7341C201.404 54.7623 201.336 54.7945 201.263 54.8267C201.19 54.8549 201.122 54.8911 201.053 54.9233C200.992 54.9515 200.936 54.9837 200.883 55.0118C200.718 55.1004 200.56 55.193 200.403 55.2936C200.326 55.3419 200.25 55.3902 200.181 55.4425C200.1 55.4989 200.015 55.5592 199.939 55.6196C199.858 55.68 199.781 55.7404 199.704 55.8088C199.632 55.8692 199.555 55.9336 199.482 56.006C199.41 56.0745 199.337 56.1429 199.264 56.2153C199.123 56.3562 198.99 56.5011 198.861 56.6581C197.928 57.7731 197.359 59.1899 197.322 60.7437C197.322 60.8242 197.322 60.9087 197.322 60.9892C197.322 63.5935 198.82 65.8435 200.996 66.9464C201.881 67.3972 202.878 67.6548 203.932 67.6709V74.4936C203.714 74.4936 203.496 74.5137 203.286 74.5338C203.177 74.5459 203.068 74.558 202.967 74.5781C202.882 74.5902 202.797 74.6023 202.712 74.6224C202.591 74.6465 202.466 74.6747 202.345 74.7069C202.244 74.7311 202.143 74.7592 202.042 74.7914C201.941 74.8196 201.844 74.8559 201.747 74.8921C201.651 74.9243 201.554 74.9645 201.457 75.0048C201.36 75.041 201.267 75.0853 201.174 75.1296C201.081 75.1698 200.988 75.2181 200.9 75.2664C200.807 75.3147 200.718 75.363 200.629 75.4194C200.556 75.4596 200.488 75.4999 200.415 75.5482C200.298 75.6206 200.189 75.7011 200.076 75.7816C200.003 75.8299 199.939 75.8823 199.87 75.9386C199.708 76.0594 199.559 76.1962 199.41 76.3411C198.126 77.5527 197.322 79.2755 197.322 81.1834V81.2518C197.322 82.721 197.799 84.0815 198.61 85.1884C198.667 85.2689 198.731 85.3535 198.796 85.4299C198.857 85.5105 198.917 85.5909 198.994 85.6634C199.054 85.7399 199.123 85.8164 199.2 85.8848C199.268 85.9572 199.337 86.0257 199.41 86.0941C199.486 86.1666 199.567 86.239 199.644 86.3074C199.717 86.3799 199.797 86.4403 199.878 86.5006C199.939 86.553 199.999 86.6013 200.068 86.6455C200.096 86.6697 200.132 86.6938 200.161 86.718C200.233 86.7663 200.302 86.8146 200.375 86.8589C200.443 86.9072 200.512 86.9474 200.585 86.9877C200.657 87.036 200.738 87.0803 200.815 87.1205C200.896 87.1648 200.984 87.2091 201.069 87.2493C201.142 87.2855 201.214 87.3218 201.287 87.354C201.723 87.5512 202.179 87.7001 202.656 87.8008C202.85 87.841 203.048 87.8732 203.249 87.8974C203.266 87.8974 203.274 87.8974 203.286 87.8974C203.5 87.9215 203.714 87.9336 203.932 87.9376V94.7603C201.562 94.7925 199.486 96.0564 198.32 97.9361C197.734 98.886 197.375 99.9889 197.33 101.172C197.33 101.265 197.322 101.353 197.322 101.446V101.514C197.322 101.587 197.322 101.659 197.33 101.728C197.33 101.877 197.342 102.026 197.359 102.171C197.383 102.481 197.435 102.778 197.508 103.076C197.641 103.636 197.851 104.163 198.11 104.662C199.228 106.739 201.408 108.164 203.932 108.2V115.019C200.847 115.071 198.267 117.188 197.532 120.046C197.427 120.473 197.359 120.92 197.334 121.375V121.411C197.326 121.511 197.322 121.608 197.322 121.709V121.777C197.322 121.878 197.322 121.974 197.33 122.071C197.411 123.939 198.263 125.601 199.567 126.768V126.776C200.734 127.807 202.256 128.443 203.932 128.467V135.29C200.367 135.342 197.472 138.168 197.33 141.702C197.33 141.794 197.322 141.883 197.322 141.975V142.044C197.322 145.707 200.274 148.677 203.932 148.73V155.548C203.847 155.548 203.762 155.548 203.669 155.564C202.244 155.637 200.944 156.156 199.894 156.977C198.412 158.136 197.427 159.903 197.33 161.9C197.322 162.021 197.318 162.145 197.318 162.27V162.302C197.318 162.415 197.318 162.524 197.33 162.636C197.338 162.842 197.359 163.043 197.391 163.236C197.843 166.456 200.589 168.936 203.932 168.988V175.811C201.622 175.843 199.595 177.043 198.412 178.85C198.106 179.305 197.863 179.804 197.686 180.335C197.496 180.874 197.379 181.442 197.338 182.03C197.338 182.038 197.338 182.046 197.338 182.05C197.33 182.126 197.326 182.211 197.322 182.287C197.322 182.38 197.322 182.472 197.322 182.565C197.322 182.658 197.322 182.746 197.33 182.835C197.359 183.616 197.532 184.36 197.807 185.053C198.32 186.325 199.208 187.399 200.346 188.14C200.754 188.414 201.194 188.643 201.655 188.816H201.671C202.373 189.086 203.14 189.235 203.936 189.247V196.069C200.536 196.122 197.754 198.686 197.371 201.986C197.351 202.155 197.338 202.333 197.334 202.51C197.334 202.57 197.334 202.63 197.326 202.691V202.82C197.326 202.876 197.326 202.936 197.326 202.989C197.326 203.061 197.326 203.134 197.338 203.202C197.419 204.659 197.972 205.991 198.844 207.05C198.905 207.127 198.97 207.207 199.042 207.28C199.107 207.352 199.176 207.428 199.248 207.497C199.39 207.642 199.535 207.779 199.688 207.903C199.765 207.972 199.842 208.032 199.922 208.093C199.991 208.149 200.056 208.201 200.128 208.25C200.153 208.266 200.173 208.282 200.201 208.298C200.274 208.35 200.346 208.399 200.419 208.443C200.496 208.499 200.577 208.547 200.657 208.592C200.677 208.604 200.694 208.616 200.714 208.624C200.786 208.668 200.867 208.708 200.944 208.745C201.057 208.805 201.166 208.861 201.283 208.914C201.356 208.946 201.424 208.978 201.497 209.002C201.59 209.043 201.683 209.079 201.78 209.115C201.949 209.175 202.131 209.232 202.309 209.28C202.393 209.304 202.478 209.324 202.567 209.344C202.805 209.401 203.052 209.441 203.302 209.465C203.516 209.489 203.726 209.501 203.944 209.505V216.324C203.843 216.324 203.73 216.332 203.633 216.34C203.274 216.364 202.93 216.413 202.591 216.489C202.083 216.602 201.59 216.771 201.13 216.992C198.893 218.079 197.342 220.361 197.342 223.014C197.342 223.891 197.516 224.729 197.827 225.501C198.34 226.773 199.228 227.848 200.367 228.589C200.774 228.862 201.214 229.092 201.675 229.265H201.691C202.393 229.535 203.161 229.684 203.956 229.696V236.587C202.305 236.611 200.803 237.231 199.648 238.237C199.232 238.595 198.865 239.006 198.558 239.457C197.799 240.535 197.347 241.86 197.347 243.276C197.347 246.939 200.298 249.906 203.956 249.966V256.97C203.956 256.97 203.94 256.97 203.932 256.97C203.859 256.962 203.778 256.954 203.702 256.946C203.645 256.946 203.585 256.938 203.532 256.934C203.419 256.926 203.306 256.922 203.189 256.922C203.088 256.922 202.979 256.922 202.882 256.93C202.712 256.938 202.539 256.954 202.377 256.97C199.87 257.276 197.791 258.954 196.923 261.233C196.717 261.768 196.579 262.34 196.519 262.931C196.499 263.104 196.487 263.29 196.487 263.467H189.57C189.498 260.049 186.861 257.268 183.502 256.95C183.397 256.938 183.284 256.93 183.175 256.926C183.074 256.926 182.965 256.918 182.864 256.918C182.69 256.918 182.521 256.926 182.355 256.938C182.282 256.946 182.198 256.95 182.129 256.962C179.803 257.216 177.837 258.653 176.844 260.657C176.59 261.168 176.404 261.72 176.291 262.295C176.218 262.678 176.17 263.068 176.166 263.467H169.249C169.177 260.13 166.661 257.397 163.419 256.982C163.314 256.966 163.209 256.958 163.104 256.95C162.959 256.934 162.818 256.926 162.672 256.926C162.632 256.926 162.583 256.926 162.547 256.926H162.515C162.422 256.926 162.333 256.926 162.24 256.934C162.05 256.946 161.865 256.962 161.675 256.986C161.61 256.998 161.55 257.006 161.485 257.014C159.588 257.316 157.96 258.403 156.955 259.933V259.941C156.636 260.412 156.386 260.919 156.2 261.462C155.986 262.094 155.865 262.77 155.849 263.471H148.924C148.856 259.941 146.042 257.091 142.525 256.934C142.428 256.934 142.323 256.926 142.218 256.926H142.19C140.252 256.938 138.512 257.763 137.284 259.083C136.913 259.49 136.59 259.949 136.319 260.44C135.819 261.345 135.536 262.376 135.516 263.475H128.599C128.531 260.267 126.201 257.618 123.137 257.047C122.939 257.006 122.737 256.974 122.531 256.958C122.426 256.946 122.313 256.938 122.204 256.934C122.103 256.934 121.998 256.926 121.897 256.926C121.796 256.926 121.691 256.926 121.59 256.934C121.506 256.934 121.429 256.942 121.352 256.95C121.263 256.958 121.174 256.966 121.086 256.974C120.92 256.994 120.755 257.022 120.589 257.055C120.5 257.075 120.411 257.091 120.323 257.111C120.258 257.127 120.201 257.143 120.137 257.159C119.349 257.373 118.623 257.723 117.981 258.182C117.537 258.5 117.137 258.874 116.782 259.285C115.813 260.42 115.223 261.881 115.187 263.471H108.27C108.198 260.094 105.622 257.332 102.319 256.97C102.23 256.958 102.146 256.95 102.057 256.946H102.041C101.968 256.938 101.899 256.934 101.831 256.934C101.738 256.926 101.653 256.926 101.564 256.926C101.455 256.926 101.346 256.926 101.245 256.934C101.132 256.934 101.031 256.946 100.926 256.958C100.716 256.978 100.506 257.006 100.308 257.043C99.9007 257.119 99.509 257.236 99.1295 257.385C98.6248 257.582 98.1524 257.835 97.7164 258.141C96.0327 259.321 94.9143 261.269 94.8659 263.471H87.9455C87.8729 260.053 85.2364 257.268 81.8812 256.954C81.7721 256.942 81.6672 256.934 81.5541 256.93C81.4491 256.93 81.3482 256.922 81.2432 256.922C81.1584 256.922 81.0737 256.922 80.9848 256.922C80.8435 256.922 80.7062 256.934 80.573 256.95C80.4963 256.958 80.4277 256.966 80.359 256.974C79.9512 257.026 79.5596 257.119 79.1841 257.24C76.5314 258.097 74.6055 260.548 74.5409 263.463H67.6287C67.5681 260.597 65.6987 258.178 63.1147 257.292C63.034 257.264 62.9492 257.236 62.8644 257.212C62.828 257.195 62.7877 257.187 62.7473 257.175C62.6787 257.155 62.6141 257.139 62.5454 257.123C62.2265 257.038 61.8994 256.982 61.5643 256.954C61.4997 256.946 61.4472 256.942 61.3866 256.938C61.2938 256.93 61.1928 256.926 61.0919 256.922H61.0758C61.0233 256.922 60.9667 256.922 60.9183 256.922H60.886C60.781 256.922 60.6801 256.922 60.5751 256.93C60.3611 256.942 60.1512 256.962 59.9372 256.994C59.9372 256.994 59.921 256.994 59.917 256.994C56.7273 257.465 54.2846 260.17 54.2119 263.467H47.2957C47.2512 261.394 46.2661 259.558 44.7439 258.359C44.2635 257.98 43.7184 257.666 43.1451 257.425C42.382 257.111 41.5502 256.93 40.6701 256.922C40.6458 256.922 40.6176 256.922 40.5893 256.922C40.3592 256.922 40.129 256.934 39.8989 256.954C39.802 256.966 39.7091 256.978 39.6122 256.99C39.5194 257.002 39.4225 257.014 39.3296 257.034C39.2367 257.055 39.1439 257.071 39.051 257.095C36.3822 257.723 34.3271 259.937 33.9435 262.694C33.9112 262.947 33.887 263.205 33.883 263.467H26.9667C26.9424 262.472 26.7083 261.531 26.2964 260.693C25.9573 260.001 25.5091 259.377 24.9681 258.846C23.8336 257.731 22.3033 257.014 20.6035 256.93C20.4864 256.93 20.3815 256.922 20.2644 256.922C20.1715 256.922 20.0787 256.922 19.9858 256.93C19.8727 256.93 19.7678 256.942 19.6587 256.954C16.2793 257.252 13.6267 260.041 13.554 263.471H6.6377C6.62155 262.633 6.45197 261.832 6.14915 261.1C5.21648 258.802 3.04429 257.147 0.456231 256.946C0.395668 256.946 0.335116 256.938 0.278591 256.934C0.205915 256.934 0.133232 256.934 0.0565191 256.926H0V249.966C3.14928 249.878 5.7656 247.632 6.38334 244.653C6.4762 244.21 6.52465 243.751 6.52465 243.281C6.52465 243.051 6.51657 242.818 6.49235 242.588C6.15319 239.34 3.49247 236.788 0.189765 236.611C0.125164 236.603 0.0686297 236.595 0.00402915 236.595V229.696C3.6257 229.595 6.52868 226.649 6.52868 223.018C6.52868 222.161 6.37526 221.347 6.07244 220.595C5.88268 220.092 5.62024 219.621 5.31742 219.186C5.17611 218.981 5.02268 218.787 4.86118 218.602C4.85311 218.594 4.84504 218.586 4.841 218.582C3.65396 217.242 1.92589 216.384 0.00402915 216.328V209.501C3.1533 209.413 5.76963 207.167 6.38737 204.188C6.48023 203.745 6.52868 203.287 6.52868 202.816C6.52868 202.755 6.52868 202.695 6.52868 202.634C6.52868 202.562 6.52869 202.494 6.52061 202.421C6.52061 202.321 6.51254 202.22 6.49639 202.123C6.48428 202.019 6.47217 201.918 6.46005 201.817C6.19358 199.857 5.07114 198.171 3.47631 197.14C2.83838 196.73 2.12777 196.42 1.36468 196.243C0.928622 196.138 0.472383 196.078 0.00402915 196.065V189.235C3.43593 189.138 6.22183 186.486 6.50042 183.121C6.52061 182.935 6.52465 182.746 6.52465 182.557V182.485C6.52465 182.332 6.52464 182.179 6.51253 182.034C6.28643 178.612 3.46824 175.895 0 175.799V168.968C0.0646005 168.968 0.121123 168.968 0.185723 168.96C2.01876 168.859 3.65801 168.03 4.8087 166.75C5.75349 165.708 6.36718 164.363 6.49235 162.878C6.50446 162.769 6.51253 162.665 6.51657 162.556C6.52465 162.467 6.52465 162.379 6.52465 162.286V162.218C6.52465 161.107 6.25817 160.06 5.77771 159.139C5.49508 158.591 5.13171 158.088 4.71988 157.645C3.53284 156.385 1.86534 155.584 0 155.532V148.701C3.19369 148.613 5.83423 146.306 6.40756 143.267C6.46813 142.978 6.50042 142.676 6.51253 142.374C6.52061 142.253 6.52465 142.14 6.52465 142.02C6.52465 141.943 6.52465 141.867 6.52465 141.794C6.52465 141.722 6.52465 141.645 6.51657 141.573C6.32277 138.115 3.50053 135.37 0.00402915 135.273V128.443C3.62166 128.346 6.51657 125.408 6.52868 121.781V121.757C6.52868 121.62 6.52868 121.483 6.51657 121.346C6.49638 120.924 6.4439 120.509 6.34296 120.115C5.6485 117.241 3.08467 115.091 0.00402915 115.007V108.18C1.75632 108.132 3.35923 107.407 4.53011 106.252C5.01865 105.781 5.43451 105.226 5.75751 104.622C5.84634 104.449 5.93113 104.268 6.00784 104.087C6.04821 103.994 6.08456 103.901 6.11686 103.809C6.1532 103.716 6.18953 103.624 6.21376 103.527C6.38333 102.992 6.48831 102.428 6.52061 101.845C6.52869 101.728 6.53273 101.615 6.53273 101.494C6.53273 101.374 6.53273 101.269 6.52465 101.156C6.52465 101.044 6.51253 100.939 6.50042 100.83C6.20568 97.4732 3.42786 94.8327 0.00807063 94.7442V87.9135C0.169572 87.9135 0.323004 87.8974 0.480467 87.8853C0.637931 87.8692 0.791355 87.8491 0.944781 87.8209C1.1507 87.7887 1.34853 87.7484 1.54233 87.6921C1.64327 87.6679 1.74017 87.6397 1.83707 87.6075C1.93397 87.5834 2.03087 87.5472 2.12373 87.5109C2.22063 87.4787 2.3135 87.4385 2.40637 87.3982C2.49923 87.362 2.59209 87.3218 2.68092 87.2775C2.77378 87.2372 2.86261 87.193 2.94739 87.1447C3.03622 87.1004 3.12101 87.0521 3.20983 86.9998C3.29462 86.9515 3.37941 86.8991 3.4642 86.8428C3.54899 86.7904 3.62974 86.7381 3.71049 86.6737C5.35781 85.5064 6.45198 83.6186 6.52465 81.4692C6.52465 81.4169 6.52465 81.3605 6.52465 81.3042V81.1633C6.52465 81.0747 6.52465 80.9862 6.51657 80.9016C6.49235 80.1691 6.34699 79.4727 6.09666 78.8206C6.02803 78.6274 5.94728 78.4423 5.85845 78.2611C5.72925 77.9914 5.57987 77.7298 5.41433 77.4803C5.41433 77.4803 5.40625 77.4803 5.40625 77.4722C5.29724 77.3072 5.18015 77.1421 5.05095 76.9852C4.92578 76.8282 4.78851 76.6793 4.65123 76.5343C4.5826 76.4619 4.50992 76.3894 4.43724 76.321C4.36457 76.2486 4.2919 76.1842 4.21519 76.1198C4.14251 76.0473 4.06176 75.9869 3.98504 75.9265C3.91237 75.8621 3.83566 75.8058 3.75894 75.7535C3.66608 75.685 3.57321 75.6247 3.48035 75.5643C3.40364 75.5079 3.32289 75.4596 3.24214 75.4154C3.15735 75.359 3.06851 75.3107 2.97969 75.2664C2.8949 75.2141 2.80609 75.1698 2.71322 75.1296C2.62036 75.0853 2.5275 75.041 2.43463 75.0048C2.34581 74.9645 2.25293 74.9323 2.16007 74.8961C1.88552 74.7915 1.6029 74.7069 1.3122 74.6385C1.21126 74.6143 1.10628 74.5942 1.0013 74.5781C0.916512 74.558 0.831726 74.5499 0.738863 74.5379C0.609662 74.5137 0.476427 74.5057 0.339151 74.4936C0.2261 74.4815 0.117088 74.4775 0 74.4735V67.6428C0.488541 67.6307 0.960924 67.5663 1.41717 67.4536C2.25697 67.2483 3.02814 66.8901 3.71452 66.403C5.27705 65.2921 6.33893 63.521 6.49639 61.5044C6.5085 61.4038 6.51253 61.3032 6.51657 61.2025C6.52465 61.126 6.52465 61.0455 6.52465 60.965C6.52465 60.8483 6.52465 60.7396 6.51657 60.6269C6.51657 60.5182 6.50446 60.4136 6.49235 60.3049C6.43582 59.6206 6.27836 58.9686 6.02803 58.3608C5.04691 55.9819 2.72533 54.2913 0 54.2189V47.3882C0.763094 47.3681 1.48984 47.2191 2.16411 46.9655C2.23679 46.9414 2.30542 46.9172 2.37406 46.8891C2.52749 46.8247 2.67688 46.7603 2.82223 46.6878C4.23133 45.9874 5.35377 44.804 5.97959 43.359C6.19761 42.872 6.35104 42.3487 6.43583 41.8053C6.50447 41.4471 6.52868 41.0808 6.52868 40.7064C6.52868 37.0717 3.62973 34.1213 0.00402915 34.0206V27.1215C0.763085 27.1014 1.47773 26.9525 2.16007 26.7069C4.71179 25.7691 6.52868 23.3177 6.52868 20.4438C6.52868 19.5462 6.35508 18.6848 6.03207 17.9039C5.05095 15.525 2.72936 13.8345 0.00402915 13.762V6.88302C0.104967 6.88302 0.197839 6.88302 0.302815 6.87497C0.407791 6.86692 0.516799 6.85887 0.625813 6.85082C4.00927 6.50466 6.65385 3.65484 6.65385 0.189183C6.65385 0.12478 6.64173 0.0684316 6.64173 0.00402909H13.558C13.558 0.0684316 13.558 0.12478 13.558 0.189183C13.558 3.7917 16.4085 6.73006 19.9858 6.87497C20.0787 6.87497 20.1796 6.88302 20.2724 6.88302H20.333C24.0112 6.85082 26.9788 3.86013 26.9788 0.189183C26.9788 0.12478 26.9667 0.0684316 26.9667 0.00402909H33.8911C33.8911 0.0684316 33.8789 0.12478 33.8789 0.189183C33.8789 0.527296 33.9072 0.857362 33.9556 1.17937C34.4119 4.29082 37.0282 6.70189 40.23 6.87497C40.3471 6.87497 40.4722 6.88302 40.5893 6.88302H40.6135C40.7266 6.88302 40.8275 6.88302 40.9406 6.87095C41.0133 6.87095 41.0859 6.8629 41.1586 6.85485C41.2353 6.85485 41.308 6.84277 41.3807 6.83069C41.4937 6.81459 41.5987 6.80252 41.7158 6.78239C41.8288 6.76227 41.9378 6.74214 42.0428 6.71397C43.3671 6.42818 44.5421 5.74793 45.4384 4.80604C46.5891 3.60654 47.2997 1.97635 47.2997 0.18516C47.2997 0.120757 47.2916 0.0644025 47.2916 0H54.2119C54.2119 0.0644025 54.1998 0.120757 54.1998 0.18516C54.1998 3.65082 56.8404 6.50063 60.2279 6.8468C60.3086 6.85485 60.3934 6.8629 60.4742 6.86692C60.5186 6.86692 60.563 6.87497 60.6034 6.87497C60.7043 6.87497 60.8093 6.88302 60.9143 6.88302C61.0192 6.88302 61.1282 6.88302 61.2373 6.87095C61.3503 6.87095 61.4553 6.85887 61.5643 6.8468C61.5764 6.8468 61.5885 6.8468 61.5966 6.8468C61.9438 6.8146 62.2789 6.75422 62.606 6.66969C63.2641 6.50063 63.8899 6.22289 64.4592 5.86868C66.3568 4.68931 67.6246 2.58818 67.6246 0.193212C67.6246 0.128809 67.6125 0.0724546 67.6085 0.00805203H74.5248C74.5248 0.0724546 74.5248 0.128809 74.5248 0.193212C74.5248 2.84579 76.0792 5.14013 78.3281 6.23095C78.4816 6.3034 78.635 6.37585 78.7925 6.43623C78.8732 6.4644 78.9539 6.49661 79.0387 6.52478C79.1558 6.56503 79.2729 6.60126 79.394 6.63749C79.5555 6.68176 79.713 6.72202 79.8785 6.75824C79.9956 6.78239 80.1127 6.80252 80.2339 6.82265C80.3267 6.83472 80.4196 6.8468 80.5124 6.85485C80.5286 6.85485 80.5367 6.85485 80.5528 6.85485C80.6659 6.86692 80.7708 6.87497 80.8879 6.879H80.9C81.001 6.879 81.106 6.88704 81.2109 6.88704H81.2392C81.3522 6.88704 81.4613 6.88705 81.5622 6.879C85.1193 6.70994 87.9536 3.77963 87.9536 0.193212C87.9536 0.128809 87.9415 0.0724546 87.9415 0.00805203H94.8659C94.8659 0.0724546 94.8537 0.128809 94.8537 0.193212C94.8537 2.48755 96.0125 4.51221 97.781 5.71573C98.217 6.02164 98.6934 6.26315 99.2022 6.45636C99.5211 6.57711 99.8482 6.66969 100.187 6.74214C100.199 6.74214 100.212 6.75019 100.228 6.75422C100.381 6.7824 100.539 6.81459 100.7 6.83069C100.878 6.85484 101.063 6.87095 101.249 6.879C101.354 6.879 101.459 6.88704 101.56 6.88704C101.661 6.88704 101.77 6.88705 101.871 6.879C105.432 6.71397 108.27 3.78365 108.27 0.193212C108.27 0.128809 108.258 0.0724546 108.254 0.00805203H115.175C115.175 0.0724546 115.167 0.128809 115.167 0.193212C115.167 1.65837 115.643 3.01887 116.438 4.12176C116.761 4.56453 117.133 4.95899 117.553 5.30918C118.187 5.84855 118.926 6.26717 119.733 6.53686C119.741 6.53686 119.745 6.53686 119.757 6.54491C119.899 6.59321 120.048 6.63749 120.197 6.67371C120.197 6.67371 120.209 6.67371 120.213 6.67371C120.258 6.68579 120.306 6.69787 120.351 6.70189C120.472 6.73007 120.597 6.75824 120.722 6.77837C120.734 6.77837 120.746 6.77837 120.755 6.78642C120.924 6.81057 121.098 6.83875 121.271 6.85485C121.372 6.8629 121.469 6.87094 121.578 6.87497C121.679 6.87497 121.78 6.88302 121.885 6.88302C121.99 6.88302 122.099 6.88302 122.2 6.87497C125.753 6.70994 128.591 3.77962 128.591 0.189183C128.591 0.12478 128.591 0.0684316 128.591 0.00402909H135.508C135.508 0.0684316 135.508 0.12478 135.508 0.189183C135.508 0.929812 135.629 1.64629 135.859 2.31447C136.041 2.86591 136.291 3.38516 136.606 3.86013C137.494 5.21258 138.859 6.2229 140.462 6.65359C140.478 6.65359 140.49 6.66164 140.506 6.66567H140.518C140.7 6.71799 140.89 6.75421 141.083 6.78642C141.18 6.80654 141.273 6.82265 141.374 6.83472C141.459 6.84277 141.54 6.85082 141.633 6.85887C141.725 6.86692 141.814 6.87497 141.907 6.88302C142 6.88302 142.093 6.89107 142.186 6.89107H142.214C145.929 6.89107 148.932 3.89233 148.932 0.197235C148.932 0.132832 148.916 0.0764836 148.916 0.0120811H155.845C155.845 0.0764836 155.829 0.132832 155.829 0.197235C155.829 0.31799 155.829 0.434719 155.841 0.555474C155.873 1.19547 155.994 1.81132 156.2 2.39094C156.919 4.45585 158.623 6.06189 160.742 6.64956C160.783 6.66164 160.819 6.66969 160.859 6.67774C160.936 6.70189 161.025 6.71799 161.11 6.73812C161.215 6.76227 161.316 6.78642 161.421 6.80252C161.522 6.82265 161.626 6.83472 161.731 6.8468C161.816 6.85887 161.909 6.86692 161.998 6.87095C162.079 6.879 162.159 6.88302 162.232 6.88704C162.341 6.88704 162.442 6.8951 162.543 6.8951C162.628 6.8951 162.721 6.89509 162.813 6.88704C166.391 6.74616 169.257 3.80377 169.257 0.201258C169.257 0.136855 169.249 0.0805066 169.245 0.0161041H176.166C176.166 0.0805066 176.158 0.136855 176.158 0.201258C176.158 0.466918 176.174 0.728556 176.198 0.990191C176.581 4.21434 179.25 6.73409 182.549 6.89107C182.654 6.89107 182.763 6.89913 182.868 6.89913C183.062 6.89913 183.264 6.89107 183.457 6.87497C183.47 6.87497 183.482 6.87497 183.494 6.87497C183.821 6.84679 184.144 6.79045 184.459 6.70994C184.556 6.68579 184.661 6.65761 184.758 6.62943C186.623 6.09006 188.145 4.76176 188.952 3.039C189.36 2.18164 189.582 1.21962 189.582 0.20931C189.582 0.144907 189.582 0.0885586 189.582 0.0241561H196.499C196.499 0.0885586 196.487 0.144907 196.487 0.20931C196.487 3.19195 198.441 5.7117 201.142 6.58113C201.174 6.59321 201.206 6.60529 201.235 6.60931C201.352 6.64554 201.469 6.67774 201.59 6.70591C201.756 6.74617 201.925 6.7824 202.099 6.81057C202.204 6.83472 202.317 6.8468 202.426 6.85887C202.68 6.88705 202.939 6.90315 203.201 6.90315C203.294 6.90315 203.387 6.90315 203.484 6.8951C203.576 6.88705 203.669 6.879 203.762 6.87095H203.77C203.77 6.87095 203.807 6.87095 203.823 6.87095C203.839 6.87095 203.851 6.87095 203.875 6.87095C203.891 6.87095 203.899 6.87094 203.924 6.86289C203.944 6.86289 203.956 6.8629 203.972 6.85485V13.7821C200.314 13.8345 197.363 16.8091 197.363 20.4679L197.326 20.4639Z" fill="#FAFAF9"/>
<path d="M90.9844 229.816C90.9723 230.106 90.965 230.445 90.9609 230.827C90.9569 231.209 90.9522 231.616 90.9521 232.038L90.9561 232.042C90.9561 232.537 90.8516 232.96 90.6377 233.318C90.4237 233.677 90.1165 233.947 89.7168 234.136C89.3172 234.325 88.8409 234.417 88.2881 234.417C87.7351 234.417 87.2462 234.325 86.8506 234.136C86.4509 233.947 86.1473 233.677 85.9414 233.318C85.7356 232.96 85.6309 232.537 85.6309 232.042C85.6309 231.604 85.6311 231.201 85.623 230.827C85.623 230.457 85.6107 230.118 85.5986 229.82C85.7319 229.84 85.8733 229.853 86.0146 229.853C86.1559 229.853 86.293 229.844 86.4141 229.82C86.4019 230.122 86.3937 230.457 86.3896 230.827C86.3856 231.201 86.3818 231.612 86.3818 232.059C86.3818 232.445 86.4543 232.775 86.5996 233.049C86.745 233.323 86.9633 233.536 87.25 233.681C87.5366 233.826 87.8796 233.898 88.2832 233.898C88.687 233.898 89.0346 233.826 89.3213 233.681C89.6079 233.536 89.8262 233.327 89.9756 233.049C90.125 232.775 90.1973 232.445 90.1973 232.059C90.1973 231.592 90.1975 231.177 90.1895 230.811C90.1814 230.444 90.177 230.114 90.1689 229.816C90.3022 229.837 90.4437 229.849 90.585 229.849C90.7262 229.849 90.8633 229.841 90.9844 229.816Z" fill="#F44E22"/>
<path fill-rule="evenodd" clip-rule="evenodd" d="M109.425 229.731C109.917 229.731 110.353 229.828 110.732 230.021C111.112 230.215 111.407 230.485 111.617 230.835C111.827 231.185 111.932 231.592 111.932 232.055C111.932 232.517 111.827 232.936 111.617 233.286C111.407 233.64 111.112 233.91 110.732 234.104C110.353 234.297 109.917 234.393 109.425 234.393C108.932 234.393 108.496 234.297 108.116 234.104C107.737 233.91 107.442 233.64 107.228 233.286C107.018 232.932 106.913 232.521 106.913 232.055C106.913 231.588 107.018 231.185 107.228 230.835C107.437 230.485 107.733 230.215 108.116 230.021C108.496 229.828 108.932 229.731 109.425 229.731ZM109.412 230.283C109.069 230.283 108.787 230.356 108.528 230.505C108.27 230.654 108.076 230.863 107.935 231.133C107.793 231.402 107.725 231.72 107.725 232.078C107.725 232.436 107.793 232.755 107.935 233.028C108.076 233.302 108.274 233.515 108.528 233.664C108.783 233.813 109.077 233.89 109.412 233.89C109.751 233.89 110.054 233.813 110.312 233.664C110.571 233.515 110.769 233.302 110.91 233.028C111.051 232.755 111.12 232.436 111.12 232.078C111.12 231.72 111.051 231.402 110.91 231.133C110.769 230.863 110.571 230.654 110.312 230.505C110.054 230.356 109.755 230.283 109.412 230.283Z" fill="#F44E22"/>
<path d="M97.2988 229.82C96.9194 230.255 96.5277 230.71 96.124 231.188C95.9302 231.418 95.7358 231.652 95.542 231.886C95.3483 232.119 95.1585 232.353 94.9648 232.586C94.9527 232.868 94.9492 233.154 94.9492 233.443C94.9492 233.733 94.9575 234.019 94.9736 234.312H94.1982V234.309C94.2144 234.023 94.2217 233.733 94.2217 233.447C94.2217 233.162 94.2144 232.872 94.1982 232.586C93.7783 232.075 93.3941 231.611 93.0469 231.188C92.7118 230.786 92.3163 230.331 91.8643 229.82C92.0217 229.84 92.1877 229.853 92.3613 229.853C92.5347 229.853 92.6798 229.844 92.8008 229.82C93.0269 230.126 93.3343 230.525 93.7139 231.012C93.8572 231.224 94.1538 231.591 94.5947 232.111C94.9527 231.678 95.2431 231.314 95.4736 231.012C95.7199 230.694 96.0225 230.295 96.3818 229.82C96.4989 229.844 96.641 229.857 96.8105 229.853C96.976 229.853 97.1374 229.84 97.2988 229.82Z" fill="#F44E22"/>
<path d="M102.213 230.416C102.205 230.621 102.205 230.827 102.205 231.032C102.201 231.523 102.201 232.047 102.205 232.61C102.205 233.17 102.221 233.737 102.241 234.309H101.426C101.454 233.568 101.474 232.352 101.482 230.662V230.408H101.422C101.406 230.545 101.337 230.702 101.216 230.875C101.095 231.048 100.937 231.205 100.739 231.338C100.546 231.471 100.331 231.551 100.105 231.575L100.098 231.571C100.114 231.459 100.122 231.354 100.122 231.258C100.122 231.161 100.114 231.052 100.098 230.936C100.287 230.907 100.481 230.839 100.675 230.734C100.869 230.63 101.035 230.497 101.168 230.336C101.301 230.175 101.39 230.002 101.422 229.816C101.555 229.837 101.696 229.849 101.842 229.849C101.987 229.849 102.116 229.841 102.233 229.816C102.225 230.01 102.217 230.211 102.213 230.416Z" fill="#F44E22"/>
<path d="M105.499 230.416C105.491 230.621 105.491 230.827 105.491 231.032C105.487 231.523 105.487 232.047 105.491 232.61C105.491 233.17 105.507 233.737 105.527 234.309H104.712C104.74 233.568 104.76 232.352 104.769 230.662V230.408H104.708C104.692 230.545 104.623 230.702 104.502 230.875C104.381 231.048 104.223 231.205 104.025 231.338C103.832 231.471 103.618 231.551 103.392 231.575L103.384 231.571C103.4 231.459 103.408 231.354 103.408 231.258C103.408 231.161 103.4 231.052 103.384 230.936C103.573 230.907 103.767 230.839 103.961 230.734C104.155 230.63 104.321 230.497 104.454 230.336C104.587 230.175 104.676 230.002 104.708 229.816C104.841 229.837 104.983 229.849 105.128 229.849C105.273 229.849 105.402 229.841 105.52 229.816C105.511 230.01 105.503 230.211 105.499 230.416Z" fill="#F44E22"/>
<path fill-rule="evenodd" clip-rule="evenodd" d="M116.187 229.794C116.186 229.791 116.187 229.787 116.187 229.784C116.328 229.8 116.469 229.809 116.606 229.809C116.744 229.809 116.881 229.8 117.015 229.784C116.994 230.416 116.986 231.173 116.986 232.059C116.986 232.372 116.989 232.667 116.993 232.946C117.409 232.933 117.802 232.917 118.173 232.892C118.161 232.968 118.157 233.053 118.157 233.146C118.157 233.238 118.161 233.322 118.173 233.398C117.89 233.39 117.527 233.383 117.083 233.383C117.055 233.383 117.027 233.382 116.999 233.382C117.006 233.719 117.015 234.028 117.026 234.309H116.187C116.198 234.026 116.205 233.716 116.211 233.378C116.025 233.376 115.832 233.375 115.634 233.375C115.109 233.375 114.632 233.375 114.147 233.383C113.659 233.387 113.239 233.394 112.888 233.402L112.884 233.407C112.9 233.307 112.908 233.205 112.908 233.104C112.908 233.004 112.9 232.903 112.884 232.803C113.191 232.573 113.655 232.167 114.272 231.596C114.624 231.274 114.963 230.947 115.294 230.621C115.625 230.295 115.9 230.014 116.118 229.78C116.141 229.786 116.164 229.789 116.187 229.794ZM113.506 232.968C114.374 232.976 115.206 232.976 116.001 232.968C116.073 232.967 116.145 232.964 116.216 232.963C116.219 232.672 116.223 232.362 116.223 232.034C116.223 231.436 116.214 230.902 116.203 230.433L113.506 232.968Z" fill="#F44E22"/>
<path fill-rule="evenodd" clip-rule="evenodd" d="M127.389 222.435C128.01 222.435 128.551 222.527 128.999 222.712C129.447 222.897 129.79 223.163 130.024 223.513C130.259 223.863 130.38 224.282 130.38 224.769C130.38 225.256 130.263 225.67 130.024 226.021C129.79 226.371 129.447 226.636 128.999 226.821C128.551 227.006 128.014 227.1 127.389 227.1V227.096C126.767 227.096 126.229 227.003 125.781 226.817C125.333 226.632 124.99 226.367 124.752 226.017C124.514 225.666 124.396 225.252 124.396 224.765C124.397 224.278 124.514 223.855 124.752 223.505C124.99 223.155 125.333 222.889 125.781 222.708C126.229 222.527 126.767 222.435 127.389 222.435ZM127.389 222.945C126.932 222.945 126.528 223.018 126.197 223.167C125.866 223.316 125.612 223.525 125.435 223.803C125.257 224.076 125.168 224.407 125.168 224.789C125.168 225.171 125.257 225.493 125.435 225.763C125.612 226.032 125.866 226.238 126.197 226.375C126.528 226.516 126.924 226.584 127.389 226.584C127.853 226.584 128.248 226.516 128.579 226.375C128.91 226.234 129.165 226.028 129.343 225.763C129.52 225.493 129.609 225.167 129.609 224.789C129.609 224.411 129.52 224.08 129.343 223.803C129.165 223.529 128.906 223.316 128.575 223.167C128.244 223.018 127.845 222.945 127.389 222.945Z" fill="#F44E22"/>
<path d="M105.064 222.446C105.48 222.446 105.92 222.487 106.396 222.563C106.869 222.64 107.329 222.768 107.77 222.953C107.753 223.09 107.745 223.219 107.745 223.344C107.745 223.468 107.75 223.573 107.762 223.674C107.358 223.452 106.921 223.284 106.453 223.171C105.985 223.058 105.529 223.002 105.085 223.002C104.593 223.002 104.172 223.074 103.821 223.215C103.47 223.356 103.199 223.562 103.018 223.823C102.832 224.085 102.739 224.399 102.739 224.757C102.739 225.115 102.827 225.433 103.005 225.702C103.183 225.972 103.437 226.186 103.776 226.335C104.111 226.484 104.515 226.56 104.976 226.56C105.512 226.56 105.985 226.455 106.393 226.246C106.8 226.037 107.079 225.698 107.225 225.228H106.72C106.55 225.228 106.384 225.231 106.215 225.235C105.884 225.239 105.573 225.248 105.271 225.26C104.972 225.272 104.701 225.284 104.459 225.296C104.471 225.207 104.475 225.103 104.475 224.99C104.475 224.874 104.463 224.765 104.442 224.66C105.008 224.676 105.581 224.685 106.171 224.685C106.76 224.685 107.321 224.676 107.866 224.66C107.854 224.761 107.851 224.885 107.851 225.03C107.851 225.175 107.854 225.32 107.866 225.469C107.701 226.012 107.354 226.419 106.829 226.688C106.304 226.958 105.686 227.096 104.972 227.096L104.983 227.092C104.342 227.092 103.797 226.999 103.345 226.81C102.893 226.62 102.554 226.351 102.319 226.001C102.089 225.647 101.972 225.232 101.972 224.749C101.972 224.266 102.093 223.835 102.339 223.493C102.585 223.147 102.941 222.889 103.401 222.712C103.866 222.535 104.419 222.446 105.064 222.446Z" fill="#F44E22"/>
<path d="M59.5332 222.454C59.977 222.454 60.3643 222.478 60.6992 222.522C61.0343 222.567 61.3985 222.635 61.7861 222.728C61.9474 222.764 62.0844 222.796 62.1934 222.82C62.1812 222.909 62.173 222.998 62.1689 223.078V223.319C62.173 223.356 62.1776 223.393 62.1816 223.425C62.1817 223.457 62.1893 223.493 62.1934 223.529C61.7494 223.368 61.3136 223.239 60.8857 223.139C60.4578 223.038 59.9972 222.993 59.5127 222.993C58.9676 222.993 58.5717 223.054 58.3174 223.175C58.0631 223.296 57.9375 223.477 57.9375 223.727C57.9376 223.912 58.0027 224.056 58.1318 224.165C58.261 224.27 58.4553 224.35 58.7217 224.402C58.9881 224.455 59.3635 224.503 59.8438 224.543C59.9487 224.551 60.0295 224.559 60.082 224.563C60.5988 224.604 61.0188 224.664 61.3418 224.74C61.6648 224.817 61.9273 224.942 62.1211 225.111C62.3147 225.28 62.4111 225.518 62.4111 225.815C62.4111 226.246 62.2139 226.564 61.8184 226.773C61.4227 226.983 60.8285 227.087 60.0371 227.087L60.042 227.079C59.5131 227.079 59.0117 227.031 58.5312 226.938C58.0549 226.846 57.6025 226.721 57.1826 226.568C57.2028 226.44 57.2148 226.31 57.2148 226.186C57.2148 226.061 57.2028 225.936 57.1826 225.808C57.4572 226.033 57.8737 226.214 58.4229 226.343C58.9718 226.472 59.5333 226.536 60.1064 226.536C60.6352 226.536 61.0185 226.475 61.2607 226.358C61.503 226.242 61.624 226.061 61.624 225.819C61.624 225.61 61.5477 225.453 61.3945 225.349C61.2412 225.244 61.0309 225.171 60.7646 225.127C60.4982 225.083 60.0897 225.038 59.5527 224.998C58.9836 224.95 58.5351 224.885 58.2041 224.809C57.8732 224.732 57.6145 224.611 57.4248 224.442C57.2353 224.277 57.1426 224.044 57.1426 223.742C57.1426 223.312 57.3406 222.99 57.7402 222.776C58.1399 222.563 58.7338 222.454 59.5332 222.454Z" fill="#F44E22"/>
<path d="M141.007 222.454C141.451 222.454 141.838 222.478 142.173 222.522C142.508 222.567 142.872 222.635 143.26 222.728C143.421 222.764 143.558 222.796 143.667 222.82C143.655 222.909 143.647 222.998 143.643 223.078V223.319C143.647 223.356 143.651 223.393 143.655 223.425C143.655 223.457 143.663 223.493 143.667 223.529C143.223 223.368 142.787 223.239 142.359 223.139C141.931 223.038 141.471 222.993 140.986 222.993C140.441 222.993 140.045 223.054 139.791 223.175C139.537 223.296 139.411 223.477 139.411 223.727C139.411 223.912 139.476 224.056 139.605 224.165C139.735 224.27 139.929 224.35 140.195 224.402C140.462 224.455 140.837 224.503 141.317 224.543C141.422 224.551 141.503 224.559 141.556 224.563C142.072 224.604 142.492 224.664 142.815 224.74C143.138 224.817 143.401 224.942 143.595 225.111C143.788 225.28 143.885 225.518 143.885 225.815C143.885 226.246 143.688 226.564 143.292 226.773C142.896 226.983 142.302 227.087 141.511 227.087L141.516 227.079C140.987 227.079 140.485 227.031 140.005 226.938C139.529 226.846 139.076 226.721 138.656 226.568C138.676 226.44 138.688 226.31 138.688 226.186C138.688 226.061 138.676 225.936 138.656 225.808C138.931 226.033 139.347 226.214 139.896 226.343C140.445 226.472 141.007 226.536 141.58 226.536C142.109 226.536 142.492 226.475 142.734 226.358C142.977 226.242 143.098 226.061 143.098 225.819C143.098 225.61 143.021 225.453 142.868 225.349C142.715 225.244 142.505 225.171 142.238 225.127C141.972 225.083 141.563 225.038 141.026 224.998C140.457 224.95 140.009 224.885 139.678 224.809C139.347 224.732 139.088 224.611 138.898 224.442C138.709 224.277 138.616 224.044 138.616 223.742C138.616 223.312 138.814 222.99 139.214 222.776C139.614 222.563 140.207 222.454 141.007 222.454Z" fill="#F44E22"/>
<path fill-rule="evenodd" clip-rule="evenodd" d="M114.496 222.494C115.19 222.494 115.715 222.583 116.066 222.764C116.422 222.945 116.596 223.231 116.596 223.625C116.596 223.947 116.475 224.197 116.229 224.37C115.986 224.543 115.667 224.635 115.271 224.651V224.72C115.764 224.732 116.156 224.829 116.446 225.01C116.737 225.191 116.883 225.469 116.883 225.835C116.883 226.173 116.753 226.426 116.499 226.607C116.245 226.784 115.93 226.902 115.562 226.962C115.195 227.018 114.787 227.047 114.339 227.047H113.539C113.285 227.047 113.051 227.042 112.833 227.038C112.667 227.038 112.498 227.03 112.328 227.03H111.819L111.831 227.015C111.855 226.387 111.868 225.633 111.868 224.756C111.868 223.879 111.855 223.126 111.831 222.498H112.385C112.57 222.498 112.76 222.498 112.95 222.494H114.496ZM112.61 224.981V225.746C112.61 225.996 112.615 226.246 112.619 226.495C112.885 226.495 113.164 226.503 113.454 226.503H114.399C115.005 226.503 115.429 226.431 115.671 226.29C115.913 226.149 116.038 225.956 116.038 225.719C116.038 225.481 115.925 225.308 115.695 225.175C115.465 225.042 115.069 224.978 114.504 224.978H113.543C113.22 224.978 112.909 224.977 112.61 224.981ZM112.614 223.029C112.614 223.271 112.606 223.516 112.606 223.766V224.526C112.909 224.526 113.225 224.531 113.548 224.531H114.509C114.949 224.531 115.271 224.466 115.485 224.342C115.699 224.217 115.805 224.023 115.805 223.766C115.805 223.508 115.695 223.303 115.481 223.19C115.267 223.078 114.94 223.021 114.504 223.021H113.467C113.136 223.021 112.852 223.021 112.614 223.029Z" fill="#F44E22"/>
<path fill-rule="evenodd" clip-rule="evenodd" d="M120.872 222.494C121.566 222.494 122.091 222.583 122.442 222.764C122.798 222.945 122.972 223.231 122.972 223.625C122.972 223.947 122.851 224.197 122.604 224.37C122.362 224.543 122.043 224.635 121.647 224.651V224.72C122.14 224.732 122.532 224.829 122.822 225.01C123.113 225.191 123.259 225.469 123.259 225.835C123.259 226.173 123.129 226.426 122.875 226.607C122.621 226.784 122.306 226.902 121.938 226.962C121.571 227.018 121.163 227.047 120.715 227.047H119.915C119.661 227.047 119.427 227.042 119.209 227.038C119.043 227.038 118.874 227.03 118.704 227.03H118.195L118.207 227.015C118.231 226.387 118.244 225.633 118.244 224.756C118.244 223.879 118.231 223.126 118.207 222.498H118.761C118.946 222.498 119.136 222.498 119.326 222.494H120.872ZM118.986 224.981V225.746C118.986 225.996 118.991 226.246 118.995 226.495C119.261 226.495 119.54 226.503 119.83 226.503H120.775C121.381 226.503 121.805 226.431 122.047 226.29C122.289 226.149 122.414 225.956 122.414 225.719C122.414 225.481 122.301 225.308 122.071 225.175C121.841 225.042 121.445 224.978 120.88 224.978H119.919C119.596 224.978 119.285 224.977 118.986 224.981ZM118.99 223.029C118.99 223.271 118.982 223.516 118.982 223.766V224.526C119.285 224.526 119.601 224.531 119.924 224.531H120.885C121.325 224.531 121.647 224.466 121.861 224.342C122.075 224.217 122.181 224.023 122.181 223.766C122.181 223.508 122.071 223.303 121.857 223.19C121.643 223.078 121.316 223.021 120.88 223.021H119.843C119.512 223.021 119.228 223.021 118.99 223.029Z" fill="#F44E22"/>
<path d="M89.043 222.559C89.4467 222.567 89.8668 222.575 90.3027 222.579C90.7871 222.579 91.2394 222.579 91.6592 222.571C92.0791 222.567 92.435 222.559 92.7217 222.551C92.7136 222.659 92.709 222.772 92.709 222.881C92.709 222.99 92.7096 223.102 92.7217 223.211C92.4755 223.183 92.1927 223.159 91.8779 223.139C91.563 223.119 91.2275 223.102 90.8682 223.082C90.5129 223.066 90.1654 223.054 89.8223 223.05C89.4792 223.046 89.16 223.042 88.8613 223.042C88.8573 223.296 88.8535 223.553 88.8535 223.803V224.563C89.4147 224.568 90.0043 224.564 90.6221 224.552C91.2397 224.54 91.7928 224.523 92.2812 224.503C92.2732 224.596 92.2695 224.692 92.2695 224.789C92.2695 224.885 92.2692 224.982 92.2812 225.074C91.7888 225.054 91.2358 225.038 90.6182 225.03C90.0004 225.018 89.4146 225.018 88.8574 225.03C88.8574 225.654 88.8658 226.146 88.8779 226.508C89.1846 226.508 89.5115 226.508 89.8545 226.5C90.1976 226.496 90.5369 226.484 90.876 226.468C91.2272 226.456 91.5591 226.439 91.874 226.415C92.1888 226.391 92.4713 226.371 92.7256 226.347C92.7175 226.459 92.7129 226.576 92.7129 226.688C92.7129 226.801 92.7135 226.919 92.7256 227.027H88.0742V227.015C88.0984 226.375 88.1103 225.618 88.1104 224.749C88.1104 223.88 88.0984 223.138 88.0742 222.526C88.3164 222.538 88.6393 222.551 89.043 222.559Z" fill="#F44E22"/>
<path d="M98.9395 222.526C98.5599 222.961 98.1684 223.417 97.7646 223.896C97.5709 224.125 97.3764 224.358 97.1826 224.592C96.9889 224.825 96.7992 225.059 96.6055 225.292C96.5934 225.574 96.5898 225.86 96.5898 226.149C96.5898 226.439 96.5981 226.725 96.6143 227.019H95.8389V227.015C95.855 226.729 95.8623 226.439 95.8623 226.153C95.8623 225.868 95.855 225.578 95.8389 225.292C95.419 224.781 95.0347 224.318 94.6875 223.896C94.3524 223.493 93.9571 223.038 93.5049 222.526C93.6623 222.546 93.8283 222.559 94.002 222.559C94.1753 222.559 94.3204 222.55 94.4414 222.526C94.6675 222.832 94.975 223.231 95.3545 223.718C95.4979 223.93 95.7942 224.298 96.2354 224.818C96.5935 224.385 96.8836 224.02 97.1143 223.718C97.3605 223.4 97.6632 223.001 98.0225 222.526C98.1395 222.551 98.2816 222.563 98.4512 222.559C98.6166 222.559 98.7781 222.546 98.9395 222.526Z" fill="#F44E22"/>
<path d="M68.6328 222.522C68.6167 222.627 68.6084 222.732 68.6084 222.841C68.6084 222.949 68.6167 223.05 68.6328 223.15C68.2694 223.118 67.9017 223.094 67.5303 223.074C67.1548 223.054 66.7506 223.046 66.3105 223.042C66.3025 223.71 66.3025 224.403 66.3105 225.123C66.3146 225.843 66.3314 226.471 66.3516 227.015H65.5156C65.5358 226.467 65.5478 225.836 65.5479 225.115C65.5479 224.395 65.5481 223.702 65.54 223.042C65.104 223.042 64.6996 223.058 64.3281 223.074C63.9568 223.09 63.5936 223.118 63.2344 223.15C63.2505 223.05 63.2588 222.945 63.2588 222.841C63.2588 222.736 63.2505 222.631 63.2344 222.522C64.1953 222.539 65.0959 222.547 65.9316 222.547C66.7674 222.547 67.6679 222.539 68.6328 222.522Z" fill="#F44E22"/>
<path fill-rule="evenodd" clip-rule="evenodd" d="M71.8428 222.526C72.1375 223.182 72.4965 223.931 72.9082 224.772C73.2352 225.441 73.6027 226.19 74.0186 227.015H73.1182C73.0309 226.769 72.8853 226.424 72.6807 225.979C72.2308 225.972 71.7357 225.968 71.1963 225.968C70.6715 225.968 70.1891 225.972 69.749 225.979C69.7373 226.005 69.7266 226.031 69.7148 226.057C69.5655 226.383 69.4284 226.701 69.2871 227.015H68.4229C68.6045 226.657 68.7899 226.29 68.9756 225.908C69.1613 225.526 69.3477 225.147 69.5254 224.772C69.9573 223.879 70.3086 223.13 70.5791 222.526C70.7566 222.546 70.9744 222.559 71.2285 222.559C71.4829 222.559 71.6853 222.551 71.8428 222.526ZM71.1914 222.923C71.101 223.096 70.7552 223.817 70.1553 225.083C70.0921 225.225 70.0274 225.365 69.9639 225.506C70.3525 225.512 70.7682 225.518 71.2168 225.518C71.6669 225.518 72.0838 225.515 72.4736 225.506C72.3389 225.2 72.1906 224.873 72.0244 224.527C71.7907 224.042 71.5144 223.505 71.1914 222.923Z" fill="#F44E22"/>
<path d="M80.499 223.646C80.495 224.016 80.499 224.394 80.499 224.769C80.499 225.626 80.507 226.375 80.5312 227.011H79.4531C79.1505 226.661 78.8438 226.315 78.5371 225.969C78.2303 225.623 77.9232 225.28 77.6123 224.938C77.0638 224.326 76.5041 223.72 75.9365 223.118C75.9281 223.712 75.9257 224.31 75.9326 224.91C75.9407 225.606 75.9525 226.307 75.9727 227.007H75.1816L75.1777 227.015C75.1939 226.266 75.2021 225.517 75.2021 224.769C75.2021 224.02 75.1939 223.275 75.1777 222.522C75.3352 222.539 75.5212 222.547 75.7393 222.551C75.9531 222.551 76.1351 222.543 76.2764 222.522C76.6842 222.997 77.0919 223.469 77.5078 223.939C77.9236 224.41 78.3388 224.882 78.7627 225.345C78.9686 225.57 79.175 225.795 79.3809 226.021C79.5086 226.16 79.636 226.299 79.7637 226.438C79.7713 225.915 79.7747 225.314 79.7646 224.636C79.7646 224.286 79.7639 223.935 79.7559 223.581C79.7478 223.227 79.7406 222.873 79.7285 222.522C79.8656 222.543 79.9987 222.555 80.1318 222.555C80.261 222.555 80.3905 222.547 80.5156 222.522C80.5076 222.901 80.5031 223.275 80.499 223.646Z" fill="#F44E22"/>
<path d="M82.9541 222.522C82.9339 223.179 82.922 223.819 82.918 224.447C82.9099 225.2 82.9099 225.884 82.918 226.5C83.4953 226.5 84.1536 226.479 84.8965 226.451C85.6394 226.423 86.2453 226.387 86.7217 226.343C86.7136 226.476 86.709 226.593 86.709 226.697C86.709 226.802 86.7096 226.902 86.7217 227.015H82.1309C82.147 226.266 82.1553 225.517 82.1553 224.769C82.1553 224.02 82.147 223.275 82.1309 222.522C82.2761 222.543 82.4213 222.555 82.5625 222.555C82.7037 222.555 82.8331 222.547 82.9541 222.522Z" fill="#F44E22"/>
<path d="M110.163 222.522C110.143 223.154 110.135 223.908 110.135 224.781C110.135 225.654 110.152 226.399 110.176 227.015H109.34C109.364 226.391 109.376 225.642 109.376 224.769C109.376 223.895 109.364 223.146 109.34 222.522C109.485 222.543 109.626 222.555 109.768 222.555C109.905 222.555 110.038 222.547 110.163 222.522Z" fill="#F44E22"/>
<path d="M137.093 223.646C137.089 224.016 137.093 224.394 137.093 224.769C137.093 225.626 137.101 226.375 137.125 227.011H136.047C135.744 226.661 135.438 226.315 135.131 225.969C134.824 225.623 134.517 225.28 134.206 224.938C133.658 224.326 133.098 223.72 132.53 223.118C132.522 223.712 132.519 224.31 132.526 224.91C132.534 225.606 132.546 226.307 132.566 227.007H131.775L131.771 227.015C131.788 226.266 131.796 225.517 131.796 224.769C131.796 224.02 131.788 223.275 131.771 222.522C131.929 222.539 132.115 222.547 132.333 222.551C132.547 222.551 132.729 222.543 132.87 222.522C133.278 222.997 133.686 223.469 134.102 223.939C134.517 224.41 134.933 224.882 135.356 225.345C135.562 225.57 135.769 225.795 135.975 226.021C136.102 226.16 136.23 226.299 136.357 226.438C136.365 225.915 136.368 225.314 136.358 224.636C136.358 224.286 136.358 223.935 136.35 223.581C136.342 223.227 136.334 222.873 136.322 222.522C136.459 222.543 136.592 222.555 136.726 222.555C136.855 222.555 136.984 222.547 137.109 222.522C137.101 222.901 137.097 223.275 137.093 223.646Z" fill="#F44E22"/>
<path d="M104.515 202.937L106.344 207.308L101.955 205.488L97.5664 207.308L99.3955 202.937L97.5664 198.561L101.955 200.385L106.344 198.561L104.515 202.937Z" fill="#F44E22"/>
<path d="M54.1318 168.364C54.0753 169.012 54.035 169.914 54.0107 171.077C53.9865 172.24 53.9785 173.496 53.9785 174.845H53.9824C53.9824 176.241 53.6799 177.441 53.0703 178.451C52.4607 179.461 51.5765 180.23 50.418 180.766C49.2592 181.297 47.8699 181.567 46.2549 181.567C44.6399 181.567 43.1701 181.301 42.0234 180.766C40.873 180.234 40.009 179.466 39.4316 178.46C38.8502 177.458 38.5596 176.25 38.5596 174.845C38.5596 173.44 38.5429 172.176 38.5146 171.062C38.4864 169.947 38.4423 169.045 38.3857 168.364C39.0115 168.465 39.6654 168.521 40.3477 168.525C41.03 168.529 41.6563 168.477 42.2256 168.364C42.1691 169.057 42.1249 169.955 42.0967 171.062C42.0684 172.168 42.0518 173.457 42.0518 174.93C42.0518 175.847 42.2049 176.632 42.5117 177.276C42.8186 177.924 43.2874 178.419 43.9092 178.766C44.535 179.112 45.3145 179.285 46.2471 179.285C47.1796 179.285 47.9426 179.112 48.5684 178.766C49.1941 178.42 49.6626 177.92 49.9775 177.269C50.2884 176.617 50.4463 175.835 50.4463 174.93C50.4463 173.376 50.4333 172.059 50.4131 170.984C50.3889 169.906 50.3485 169.036 50.292 168.364C50.9178 168.465 51.5763 168.521 52.2627 168.525C52.949 168.529 53.5747 168.477 54.1318 168.364Z" fill="#F44E22"/>
<path d="M92.0439 168.364C91.9874 169.012 91.9471 169.914 91.9229 171.077C91.8986 172.24 91.8906 173.496 91.8906 174.845H91.8945C91.8945 176.241 91.592 177.441 90.9824 178.451C90.3728 179.461 89.4886 180.23 88.3301 180.766C87.1713 181.297 85.782 181.567 84.167 181.567C82.552 181.567 81.0822 181.301 79.9355 180.766C78.7851 180.234 77.9211 179.466 77.3438 178.46C76.7623 177.458 76.4717 176.25 76.4717 174.845C76.4717 173.44 76.455 172.176 76.4268 171.062C76.3985 169.947 76.3544 169.045 76.2979 168.364C76.9236 168.465 77.5775 168.521 78.2598 168.525C78.9421 168.529 79.5684 168.477 80.1377 168.364C80.0812 169.057 80.0371 169.955 80.0088 171.062C79.9805 172.168 79.9639 173.457 79.9639 174.93C79.9639 175.847 80.117 176.632 80.4238 177.276C80.7307 177.924 81.1995 178.419 81.8213 178.766C82.4471 179.112 83.2266 179.285 84.1592 179.285C85.0917 179.285 85.8547 179.112 86.4805 178.766C87.1062 178.42 87.5747 177.92 87.8896 177.269C88.2005 176.617 88.3584 175.835 88.3584 174.93C88.3584 173.376 88.3454 172.059 88.3252 170.984C88.301 169.906 88.2606 169.036 88.2041 168.364C88.8299 168.465 89.4884 168.521 90.1748 168.525C90.8611 168.529 91.4868 168.477 92.0439 168.364Z" fill="#F44E22"/>
<path d="M131.782 168.364C131.726 169.012 131.685 169.914 131.661 171.077C131.637 172.24 131.629 173.496 131.629 174.845H131.633C131.633 176.241 131.33 177.441 130.721 178.451C130.111 179.461 129.227 180.23 128.068 180.766C126.91 181.297 125.52 181.567 123.905 181.567C122.29 181.567 120.82 181.301 119.674 180.766C118.523 180.234 117.659 179.466 117.082 178.46C116.501 177.458 116.21 176.25 116.21 174.845C116.21 173.44 116.193 172.176 116.165 171.062C116.137 169.947 116.093 169.045 116.036 168.364C116.662 168.465 117.316 168.521 117.998 168.525C118.68 168.529 119.307 168.477 119.876 168.364C119.819 169.057 119.775 169.955 119.747 171.062C119.719 172.168 119.702 173.457 119.702 174.93C119.702 175.847 119.855 176.632 120.162 177.276C120.469 177.924 120.938 178.419 121.56 178.766C122.185 179.112 122.965 179.285 123.897 179.285C124.83 179.285 125.593 179.112 126.219 178.766C126.844 178.42 127.313 177.92 127.628 177.269C127.939 176.617 128.097 175.835 128.097 174.93C128.097 173.376 128.084 172.059 128.063 170.984C128.039 169.906 127.999 169.036 127.942 168.364C128.568 168.465 129.227 168.521 129.913 168.525C130.599 168.529 131.225 168.477 131.782 168.364Z" fill="#F44E22"/>
<path d="M104.521 168.042C105.784 168.042 107.121 168.151 108.538 168.372C109.955 168.593 111.296 168.964 112.556 169.487C112.463 170.135 112.418 170.731 112.418 171.282C112.418 171.834 112.458 172.317 112.539 172.735C111.457 172.043 110.218 171.496 108.821 171.094C107.424 170.691 105.99 170.489 104.521 170.489C103.37 170.489 102.381 170.659 101.545 171.001C100.709 171.343 100.068 171.826 99.6279 172.454C99.1878 173.082 98.9609 173.823 98.9609 174.672C98.961 175.521 99.171 176.27 99.5908 176.918C100.011 177.566 100.625 178.065 101.424 178.423C102.223 178.781 103.181 178.959 104.283 178.959C105.272 178.959 106.261 178.785 107.25 178.439C108.239 178.093 109.063 177.461 109.726 176.543C109.281 176.543 108.833 176.544 108.385 176.552C107.937 176.556 107.493 176.572 107.061 176.596C106.197 176.62 105.414 176.66 104.707 176.717C104.001 176.773 103.463 176.841 103.088 176.922C103.169 176.523 103.201 176.061 103.181 175.525C103.165 174.994 103.107 174.482 103.019 173.995C104.565 174.076 106.189 174.112 107.893 174.112C109.596 174.112 111.171 174.072 112.628 173.995C112.547 174.526 112.507 175.151 112.507 175.859C112.507 176.568 112.547 177.224 112.628 177.823C111.901 178.946 110.775 179.819 109.249 180.443C107.723 181.067 106.068 181.378 104.283 181.378C102.394 181.378 100.783 181.104 99.4463 180.561C98.1099 180.017 97.0956 179.24 96.4092 178.229C95.719 177.219 95.376 176.036 95.376 174.676C95.376 173.247 95.7391 172.035 96.4658 171.045C97.1926 170.055 98.2425 169.306 99.6152 168.799C100.988 168.292 102.619 168.042 104.521 168.042Z" fill="#F44E22"/>
<path fill-rule="evenodd" clip-rule="evenodd" d="M65.6992 168.296C68.2023 168.296 70.0474 168.606 71.2344 169.222C72.4213 169.842 73.0186 170.784 73.0186 172.056C73.0185 173.022 72.7075 173.786 72.0898 174.354C71.4681 174.921 70.7493 175.316 69.9297 175.537C69.1102 175.758 68.359 175.867 67.6768 175.867V176.141C69.2231 176.422 70.4628 177.059 71.3955 178.037C72.3281 179.019 73.0507 180.045 73.5635 181.124H68.666C68.5651 180.094 68.3311 179.256 67.9678 178.616C67.6044 177.976 67.0797 177.489 66.3975 177.155C65.7152 176.821 64.8228 176.604 63.7207 176.499C63.4462 176.467 63.1427 176.443 62.8076 176.431C62.4727 176.419 62.1338 176.415 61.7949 176.415C61.8393 178.069 61.8668 179.011 61.8789 179.24C61.891 179.578 61.9112 179.904 61.9395 180.21C61.9677 180.516 61.9924 180.822 62.0166 181.128H58.1445V181.124C58.2697 179.651 58.3301 177.526 58.3301 174.744C58.3301 171.963 58.2657 169.841 58.1445 168.364C58.9964 168.376 59.7917 168.381 60.5225 168.381C61.2533 168.381 61.9641 168.369 62.6465 168.349C63.1229 168.324 63.6117 168.312 64.1123 168.304C64.6129 168.3 65.1422 168.296 65.6992 168.296ZM64.2939 170.582C63.866 170.586 63.4618 170.602 63.0742 170.626L61.8467 170.643C61.8225 171.21 61.807 171.798 61.7949 172.401C61.7828 173.005 61.7783 173.641 61.7783 174.297V174.302L62.582 174.354C63.014 174.378 63.4782 174.398 63.9707 174.422C64.4673 174.446 64.9523 174.454 65.4287 174.454C66.2683 174.454 66.9748 174.382 67.5439 174.233C68.1132 174.084 68.5413 173.862 68.832 173.561C69.1226 173.259 69.2676 172.884 69.2676 172.43C69.2676 171.782 68.9447 171.314 68.3027 171.017C67.6608 170.723 66.7526 170.574 65.582 170.574C65.1501 170.574 64.7218 170.574 64.2939 170.582Z" fill="#F44E22"/>
<path fill-rule="evenodd" clip-rule="evenodd" d="M145.024 168.364C145.933 170.63 146.825 172.76 147.701 174.744C148.44 176.447 149.414 178.572 150.621 181.124H146.39C146.153 180.384 145.865 179.564 145.53 178.66C144.51 178.624 143.341 178.604 142.024 178.604C140.761 178.604 139.635 178.623 138.645 178.656C138.314 179.524 138.001 180.347 137.709 181.124H133.663C134.139 180.138 134.628 179.095 135.129 177.992C135.629 176.893 136.114 175.811 136.578 174.744C137.555 172.478 138.439 170.349 139.223 168.364C140.03 168.465 141.032 168.521 142.227 168.533C143.422 168.545 144.354 168.489 145.024 168.364ZM142.051 170.296C141.692 170.963 140.948 172.73 139.824 175.598C139.697 175.926 139.571 176.253 139.445 176.578C140.254 176.612 141.152 176.632 142.138 176.632C143.085 176.632 143.953 176.613 144.735 176.582C144.191 175.192 143.676 173.918 143.191 172.764C142.687 171.561 142.304 170.737 142.051 170.296Z" fill="#F44E22"/>
<path d="M165.641 168.368C164.583 169.592 163.472 170.933 162.313 172.382C161.769 173.062 161.227 173.746 160.694 174.438C160.161 175.131 159.632 175.827 159.107 176.531C159.027 177.28 158.991 178.037 158.991 178.802C158.991 179.566 159.035 180.339 159.128 181.124H155.535C155.628 180.351 155.672 179.586 155.672 178.817C155.672 178.049 155.628 177.288 155.535 176.531C154.615 175.271 153.544 173.891 152.329 172.382C151.203 170.965 150.092 169.624 149.002 168.368C149.741 168.469 150.516 168.525 151.323 168.529C152.131 168.533 152.798 168.481 153.318 168.368C153.908 169.322 154.61 170.405 155.418 171.616C156.172 172.7 156.827 173.62 157.389 174.373C158.103 173.414 158.755 172.495 159.342 171.616C160.048 170.594 160.747 169.511 161.441 168.368C161.966 168.481 162.609 168.537 163.38 168.529C164.147 168.525 164.902 168.469 165.641 168.368Z" fill="#F44E22"/>
<path d="M82.5352 154.884C82.5069 155.21 82.4867 155.661 82.4746 156.244C82.4625 156.828 82.459 157.46 82.459 158.137L82.4541 158.141C82.4541 158.841 82.3008 159.445 81.998 159.952C81.6912 160.459 81.2473 160.846 80.666 161.111C80.0846 161.377 79.3856 161.514 78.5781 161.514C77.7709 161.514 77.0323 161.381 76.4551 161.111C75.8777 160.846 75.445 160.459 75.1543 159.956C74.8636 159.453 74.7188 158.849 74.7188 158.141C74.7188 157.432 74.7104 156.8 74.6982 156.24C74.6821 155.681 74.662 155.23 74.6338 154.888C74.9487 154.94 75.276 154.965 75.6191 154.969C75.9622 154.969 76.277 154.944 76.5596 154.888C76.5313 155.234 76.5113 155.685 76.4951 156.24C76.479 156.796 76.4746 157.444 76.4746 158.181C76.4746 158.644 76.5517 159.034 76.7051 159.36C76.8584 159.686 77.0926 159.931 77.4072 160.108C77.7221 160.281 78.1139 160.37 78.582 160.37C79.0504 160.37 79.4342 160.281 79.7451 160.108C80.06 159.935 80.2947 159.686 80.4521 159.356C80.6096 159.03 80.6865 158.64 80.6865 158.181C80.6865 157.4 80.682 156.74 80.6699 156.2C80.6578 155.661 80.6376 155.222 80.6094 154.884C80.9243 154.936 81.2514 154.961 81.5986 154.965C81.9458 154.969 82.2566 154.94 82.5352 154.884Z" fill="#F44E22"/>
<path fill-rule="evenodd" clip-rule="evenodd" d="M35.1738 154.703C36.0862 154.703 36.8733 154.836 37.5273 155.102C38.1814 155.367 38.6861 155.75 39.0293 156.253C39.3724 156.756 39.5459 157.36 39.5459 158.068C39.5458 158.777 39.3724 159.377 39.0293 159.884C38.6821 160.387 38.1812 160.773 37.5273 161.034C36.8693 161.3 36.0862 161.433 35.1738 161.433C34.2613 161.433 33.4734 161.3 32.8193 161.034C32.1615 160.769 31.6606 160.387 31.3135 159.884C30.9663 159.381 30.793 158.777 30.793 158.068C30.793 157.36 30.9664 156.756 31.3135 156.253C31.6606 155.75 32.1655 155.363 32.8193 155.102C33.4734 154.836 34.2613 154.703 35.1738 154.703ZM35.1738 155.846C34.6288 155.846 34.1601 155.935 33.7725 156.116C33.3851 156.297 33.0944 156.555 32.8926 156.893C32.6907 157.231 32.5898 157.637 32.5898 158.108C32.5899 158.579 32.6907 158.962 32.8926 159.292C33.0944 159.618 33.3892 159.867 33.7725 160.04C34.156 160.209 34.6247 160.298 35.1738 160.298C35.7147 160.298 36.1828 160.213 36.5703 160.04C36.9578 159.871 37.257 159.622 37.4629 159.292C37.6688 158.966 37.7695 158.571 37.7695 158.108C37.7695 157.646 37.6688 157.231 37.4629 156.893C37.257 156.554 36.9619 156.297 36.5703 156.116C36.1828 155.935 35.7188 155.846 35.1738 155.846Z" fill="#F44E22"/>
<path fill-rule="evenodd" clip-rule="evenodd" d="M68.2861 154.703C69.1985 154.703 69.9856 154.836 70.6396 155.102C71.2937 155.367 71.7984 155.75 72.1416 156.253C72.4848 156.756 72.6582 157.36 72.6582 158.068C72.6581 158.777 72.4847 159.377 72.1416 159.884C71.7944 160.387 71.2936 160.773 70.6396 161.034C69.9816 161.3 69.1985 161.433 68.2861 161.433C67.3737 161.433 66.5857 161.3 65.9316 161.034C65.2738 160.769 64.7729 160.387 64.4258 159.884C64.0786 159.381 63.9053 158.777 63.9053 158.068C63.9053 157.36 64.0787 156.756 64.4258 156.253C64.7729 155.75 65.2778 155.363 65.9316 155.102C66.5857 154.836 67.3737 154.703 68.2861 154.703ZM68.2861 155.846C67.7411 155.846 67.2724 155.935 66.8848 156.116C66.4974 156.297 66.2067 156.555 66.0049 156.893C65.803 157.231 65.7021 157.637 65.7021 158.108C65.7022 158.579 65.803 158.962 66.0049 159.292C66.2067 159.618 66.5015 159.867 66.8848 160.04C67.2683 160.209 67.737 160.298 68.2861 160.298C68.827 160.298 69.2951 160.213 69.6826 160.04C70.0701 159.871 70.3693 159.622 70.5752 159.292C70.7811 158.966 70.8818 158.571 70.8818 158.108C70.8818 157.646 70.7811 157.231 70.5752 156.893C70.3693 156.555 70.0742 156.297 69.6826 156.116C69.2951 155.935 68.8311 155.846 68.2861 155.846Z" fill="#F44E22"/>
<path d="M57.6553 154.767C58.3053 154.767 58.883 154.799 59.3877 154.859C59.8923 154.924 60.4133 155.017 60.9502 155.142C61.2646 155.21 61.4622 155.254 61.5391 155.278C61.5108 155.459 61.4905 155.645 61.4824 155.834C61.4744 156.023 61.4752 156.208 61.4873 156.397C61.4913 156.478 61.4988 156.558 61.5068 156.635C61.5149 156.715 61.5271 156.796 61.5352 156.872C60.9457 156.602 60.3239 156.389 59.6699 156.224C59.0159 156.059 58.3215 155.975 57.5908 155.975C57.0217 155.975 56.6058 156.031 56.3555 156.14C56.1011 156.252 55.9756 156.426 55.9756 156.663C55.9756 156.864 56.0483 157.021 56.1895 157.138C56.3307 157.254 56.561 157.343 56.8799 157.407C57.1948 157.472 57.6433 157.524 58.2207 157.568C58.3902 157.58 58.5196 157.593 58.6084 157.601C59.3552 157.669 59.9652 157.766 60.4375 157.895C60.9097 158.023 61.2694 158.212 61.5156 158.462C61.7658 158.711 61.8867 159.042 61.8867 159.452C61.8867 160.1 61.5877 160.583 60.9941 160.901C60.4006 161.219 59.4962 161.38 58.2891 161.38L58.293 161.393C57.5623 161.393 56.8433 161.324 56.1328 161.188C55.4223 161.051 54.772 160.873 54.1826 160.66C54.227 160.374 54.252 160.092 54.252 159.811C54.252 159.529 54.227 159.246 54.1826 158.969C54.5702 159.367 55.1683 159.67 55.9678 159.875C56.7672 160.08 57.603 160.181 58.4629 160.181C59.012 160.181 59.408 160.121 59.6543 160C59.9005 159.879 60.0215 159.698 60.0215 159.452C60.0215 159.243 59.9444 159.086 59.791 158.981C59.6376 158.881 59.3954 158.8 59.0684 158.748C58.7414 158.696 58.2046 158.636 57.4619 158.575C56.703 158.507 56.0809 158.41 55.6045 158.281C55.1282 158.152 54.7564 157.963 54.498 157.718C54.2397 157.468 54.1104 157.138 54.1104 156.724C54.1104 156.068 54.4009 155.58 54.9863 155.254C55.5718 154.928 56.4602 154.767 57.6553 154.767Z" fill="#F44E22"/>
<path d="M126.487 154.767C127.137 154.767 127.715 154.799 128.22 154.859C128.724 154.924 129.245 155.017 129.782 155.142C130.097 155.21 130.294 155.254 130.371 155.278C130.343 155.459 130.323 155.645 130.314 155.834C130.306 156.023 130.307 156.208 130.319 156.397C130.323 156.478 130.331 156.558 130.339 156.635C130.347 156.715 130.359 156.796 130.367 156.872C129.778 156.602 129.156 156.389 128.502 156.224C127.848 156.059 127.154 155.975 126.423 155.975C125.854 155.975 125.438 156.031 125.188 156.14C124.933 156.252 124.808 156.426 124.808 156.663C124.808 156.864 124.88 157.021 125.021 157.138C125.163 157.254 125.393 157.343 125.712 157.407C126.027 157.472 126.475 157.524 127.053 157.568C127.222 157.58 127.352 157.593 127.44 157.601C128.187 157.669 128.797 157.766 129.27 157.895C129.742 158.023 130.101 158.212 130.348 158.462C130.598 158.711 130.719 159.042 130.719 159.452C130.719 160.1 130.42 160.583 129.826 160.901C129.233 161.219 128.328 161.38 127.121 161.38L127.125 161.393C126.394 161.393 125.675 161.324 124.965 161.188C124.254 161.051 123.604 160.873 123.015 160.66C123.059 160.374 123.084 160.092 123.084 159.811C123.084 159.529 123.059 159.246 123.015 158.969C123.402 159.367 124 159.67 124.8 159.875C125.599 160.08 126.435 160.181 127.295 160.181C127.844 160.181 128.24 160.121 128.486 160C128.732 159.879 128.854 159.698 128.854 159.452C128.853 159.243 128.776 159.086 128.623 158.981C128.47 158.881 128.227 158.8 127.9 158.748C127.573 158.696 127.037 158.636 126.294 158.575C125.535 158.507 124.913 158.41 124.437 158.281C123.96 158.152 123.588 157.963 123.33 157.718C123.072 157.468 122.942 157.138 122.942 156.724C122.942 156.068 123.233 155.58 123.818 155.254C124.404 154.928 125.292 154.767 126.487 154.767Z" fill="#F44E22"/>
<path d="M41.7754 154.888C42.0338 154.928 42.6151 154.96 43.5273 154.98C44.4358 155.005 45.3729 155.009 46.3379 154.997C47.2988 154.985 48.0096 154.956 48.4658 154.912C48.4416 155.17 48.4336 155.428 48.4336 155.686C48.4336 155.943 48.4456 156.201 48.4658 156.458C47.9732 156.321 47.2378 156.212 46.2607 156.132C45.284 156.051 44.4122 156.019 43.6533 156.031C43.6372 156.321 43.625 156.619 43.625 156.921C43.625 157.223 43.6246 157.537 43.6367 157.858C44.3029 157.874 45.0338 157.867 45.8252 157.839C46.6165 157.807 47.2949 157.766 47.8682 157.714C47.844 157.919 47.8359 158.132 47.8359 158.354C47.8359 158.575 47.848 158.789 47.8682 158.994C47.2868 158.95 46.5998 158.913 45.8125 158.889C45.0254 158.865 44.2987 158.861 43.6367 158.877C43.6367 159.851 43.6889 160.656 43.7979 161.292H41.7793L41.7754 161.288C41.84 160.547 41.8682 159.481 41.8682 158.088C41.8682 156.695 41.836 155.628 41.7754 154.888Z" fill="#F44E22"/>
<path d="M101.47 154.888C101.405 155.644 101.377 156.723 101.385 158.12C101.389 159.517 101.429 160.576 101.498 161.292H99.6123V161.288C99.664 160.696 99.6909 159.895 99.7002 158.886C99.1028 158.849 98.4862 158.829 97.8516 158.829C97.104 158.829 96.3837 158.856 95.6904 158.907C95.7049 159.921 95.7418 160.717 95.7969 161.292H93.9111V161.288C93.9757 160.547 94.0039 159.481 94.0039 158.088C94.0039 156.695 93.9717 155.628 93.9111 154.888C94.2382 154.94 94.5535 154.965 94.8604 154.969C95.1671 154.973 95.4699 154.944 95.7686 154.888C95.7104 155.569 95.6829 156.511 95.6836 157.71C96.3664 157.759 97.0803 157.786 97.8271 157.786C98.47 157.786 99.0946 157.765 99.7021 157.729C99.697 156.51 99.6675 155.563 99.6123 154.888C99.9392 154.94 100.254 154.965 100.561 154.969C100.867 154.973 101.171 154.944 101.47 154.888Z" fill="#F44E22"/>
<path d="M104.065 154.888C104.275 154.916 104.699 154.941 105.333 154.961C105.967 154.981 106.649 154.993 107.38 155.001C108.22 155.005 108.979 155 109.657 154.988C110.336 154.972 110.844 154.952 111.184 154.916C111.159 155.174 111.151 155.432 111.151 155.689C111.151 155.947 111.163 156.204 111.184 156.462C110.937 156.393 110.606 156.333 110.187 156.272C109.767 156.212 109.29 156.168 108.761 156.128C108.24 156.096 107.736 156.068 107.243 156.052C106.751 156.036 106.319 156.027 105.947 156.035C105.935 156.297 105.927 156.559 105.923 156.82C105.919 157.082 105.919 157.344 105.923 157.605C106.67 157.622 107.497 157.617 108.397 157.585C109.298 157.553 110.029 157.512 110.59 157.46C110.566 157.665 110.558 157.879 110.558 158.101C110.558 158.322 110.57 158.535 110.59 158.74C110.021 158.696 109.282 158.656 108.382 158.628C107.482 158.6 106.662 158.595 105.923 158.619C105.923 159.211 105.939 159.723 105.967 160.149C106.37 160.153 106.823 160.149 107.319 160.133C107.816 160.117 108.305 160.089 108.785 160.049C109.286 160.017 109.751 159.967 110.179 159.911C110.602 159.855 110.941 159.791 111.191 159.723C111.167 159.98 111.159 160.241 111.159 160.507C111.159 160.772 111.171 161.038 111.191 161.292H104.077L104.065 161.288C104.13 160.547 104.158 159.481 104.158 158.088C104.158 156.695 104.126 155.628 104.065 154.888Z" fill="#F44E22"/>
<path d="M141.846 154.888C142.056 154.916 142.48 154.941 143.113 154.961C143.747 154.981 144.43 154.993 145.16 155.001C146 155.005 146.759 155 147.438 154.988C148.116 154.972 148.625 154.952 148.964 154.916C148.94 155.174 148.932 155.432 148.932 155.689C148.932 155.947 148.944 156.204 148.964 156.462C148.718 156.393 148.387 156.333 147.967 156.272C147.547 156.212 147.07 156.168 146.541 156.128C146.02 156.096 145.516 156.068 145.023 156.052C144.531 156.036 144.099 156.027 143.728 156.035C143.715 156.297 143.707 156.559 143.703 156.82C143.699 157.082 143.699 157.344 143.703 157.605C144.45 157.622 145.278 157.617 146.178 157.585C147.078 157.553 147.809 157.512 148.37 157.46C148.346 157.665 148.338 157.879 148.338 158.101C148.338 158.322 148.35 158.535 148.37 158.74C147.801 158.696 147.062 158.656 146.162 158.628C145.262 158.6 144.442 158.595 143.703 158.619C143.703 159.211 143.719 159.723 143.747 160.149C144.151 160.153 144.603 160.149 145.1 160.133C145.596 160.117 146.085 160.089 146.565 160.049C147.066 160.017 147.531 159.967 147.959 159.911C148.383 159.855 148.721 159.791 148.972 159.723C148.947 159.98 148.939 160.241 148.939 160.507C148.939 160.772 148.952 161.038 148.972 161.292H141.857L141.846 161.288C141.91 160.547 141.938 159.481 141.938 158.088C141.938 156.695 141.906 155.628 141.846 154.888Z" fill="#F44E22"/>
<path fill-rule="evenodd" clip-rule="evenodd" d="M155.104 154.855C156.359 154.855 157.284 155.009 157.882 155.323C158.479 155.637 158.778 156.108 158.778 156.744C158.778 157.227 158.624 157.613 158.31 157.895C157.999 158.18 157.635 158.378 157.228 158.486C156.816 158.599 156.44 158.651 156.097 158.651V158.788C156.872 158.929 157.494 159.247 157.962 159.738C158.43 160.229 158.794 160.749 159.049 161.288H156.59C156.537 160.769 156.42 160.35 156.238 160.028C156.057 159.706 155.794 159.461 155.451 159.296C155.108 159.127 154.66 159.018 154.106 158.966C153.969 158.95 153.816 158.938 153.65 158.934C153.481 158.93 153.311 158.926 153.142 158.926C153.166 159.754 153.177 160.228 153.186 160.342C153.19 160.511 153.202 160.676 153.214 160.829C153.226 160.982 153.243 161.135 153.255 161.292H151.312V161.288C151.377 160.547 151.405 159.481 151.405 158.088C151.405 156.695 151.373 155.628 151.312 154.888C151.74 154.892 152.14 154.896 152.508 154.896C152.875 154.896 153.23 154.892 153.573 154.88C153.811 154.868 154.058 154.86 154.309 154.86C154.559 154.86 154.825 154.855 155.104 154.855ZM154.401 155.995C154.187 155.995 153.981 156.004 153.787 156.016L153.17 156.023C153.158 156.309 153.15 156.603 153.146 156.904C153.141 157.21 153.138 157.524 153.138 157.858V157.867L153.541 157.891C153.759 157.903 153.989 157.915 154.239 157.923C154.486 157.935 154.732 157.939 154.971 157.939C155.395 157.939 155.746 157.903 156.032 157.826C156.319 157.75 156.533 157.641 156.679 157.488C156.824 157.339 156.896 157.15 156.896 156.921C156.896 156.595 156.735 156.361 156.412 156.212C156.089 156.063 155.632 155.991 155.047 155.991C154.829 155.991 154.615 155.991 154.401 155.995Z" fill="#F44E22"/>
<path d="M169.025 156.49C169.017 157.022 169.013 157.561 169.013 158.101C169.013 159.159 169.037 160.221 169.09 161.292H166.599C166.272 160.809 165.941 160.33 165.605 159.863C165.27 159.392 164.931 158.93 164.588 158.467C164.063 157.762 163.521 157.06 162.962 156.358C162.95 157.038 162.949 157.722 162.961 158.41C162.977 159.364 163.009 160.322 163.069 161.292H161.204L161.196 161.288C161.241 160.217 161.265 159.151 161.265 158.084C161.265 157.017 161.241 155.95 161.196 154.888C161.556 154.932 161.991 154.957 162.5 154.961C163.013 154.961 163.425 154.94 163.748 154.888C164.176 155.536 164.616 156.18 165.061 156.82C165.509 157.46 165.969 158.097 166.445 158.729C166.671 159.034 166.902 159.34 167.136 159.642C167.195 159.719 167.255 159.796 167.314 159.874C167.329 159.18 167.332 158.483 167.317 157.782C167.313 157.315 167.301 156.837 167.289 156.35C167.273 155.859 167.253 155.375 167.225 154.888C167.551 154.94 167.866 154.965 168.173 154.969C168.48 154.969 168.779 154.944 169.065 154.888C169.049 155.423 169.038 155.955 169.025 156.49Z" fill="#F44E22"/>
<path d="M91.9824 154.888C91.9421 155.125 91.9219 155.367 91.9219 155.604C91.9219 155.842 91.942 156.084 91.9824 156.321C91.5544 156.237 91.1098 156.168 90.6455 156.12C90.1813 156.072 89.6364 156.043 89.0107 156.031C88.9825 156.913 88.978 157.871 88.9941 158.897C89.0103 159.928 89.0473 160.725 89.0957 161.288H87.1289C87.1814 160.721 87.2097 159.919 87.2178 158.885C87.2258 157.85 87.2177 156.901 87.1895 156.031C86.5677 156.043 86.0267 156.072 85.5664 156.12C85.1062 156.168 84.6661 156.237 84.2422 156.321C84.2866 156.084 84.3105 155.842 84.3105 155.604C84.3105 155.367 84.2866 155.125 84.2422 154.888C85.7038 154.928 86.992 154.948 88.1104 154.948C89.2287 154.948 90.5209 154.928 91.9824 154.888Z" fill="#F44E22"/>
<path fill-rule="evenodd" clip-rule="evenodd" d="M118.598 154.888C119.054 156.027 119.502 157.094 119.942 158.088C120.314 158.941 120.803 160.008 121.408 161.288H119.284C119.166 160.919 119.019 160.507 118.852 160.055C118.341 160.036 117.757 160.028 117.1 160.028C116.461 160.028 115.892 160.038 115.392 160.054C115.225 160.486 115.069 160.897 114.924 161.288H112.896C113.135 160.793 113.382 160.27 113.632 159.719C113.882 159.167 114.124 158.623 114.358 158.088C114.851 156.949 115.291 155.882 115.687 154.888C116.09 154.94 116.595 154.969 117.192 154.973C117.79 154.977 118.259 154.948 118.598 154.888ZM117.102 155.856C116.922 156.192 116.549 157.08 115.985 158.515C115.921 158.679 115.858 158.844 115.795 159.008C116.202 159.025 116.653 159.034 117.152 159.034C117.629 159.034 118.061 159.023 118.453 159.009C118.18 158.311 117.922 157.672 117.677 157.094C117.42 156.49 117.231 156.078 117.102 155.856Z" fill="#F44E22"/>
<path d="M139.916 154.888C139.876 155.125 139.855 155.367 139.855 155.604C139.855 155.842 139.876 156.084 139.916 156.321C139.488 156.237 139.043 156.168 138.579 156.12C138.115 156.072 137.57 156.043 136.944 156.031C136.916 156.913 136.912 157.871 136.928 158.897C136.944 159.928 136.981 160.725 137.029 161.288H135.062C135.115 160.721 135.143 159.919 135.151 158.885C135.159 157.85 135.151 156.901 135.123 156.031C134.501 156.043 133.96 156.072 133.5 156.12C133.04 156.168 132.6 156.237 132.176 156.321C132.22 156.084 132.244 155.842 132.244 155.604C132.244 155.367 132.22 155.125 132.176 154.888C133.637 154.928 134.926 154.948 136.044 154.948C137.162 154.948 138.455 154.928 139.916 154.888Z" fill="#F44E22"/>
<path d="M103.955 138.075C103.927 138.16 103.91 138.288 103.91 138.453C103.91 138.618 103.927 138.747 103.955 138.823C102.917 138.795 101.637 138.779 100.115 138.779C98.5931 138.779 97.3168 138.795 96.2832 138.823C96.3154 138.743 96.3359 138.622 96.3359 138.453C96.3359 138.284 96.3157 138.16 96.2754 138.075C97.309 138.099 98.5892 138.107 100.111 138.107C101.633 138.107 102.917 138.095 103.955 138.075Z" fill="#F44E22"/>
<path fill-rule="evenodd" clip-rule="evenodd" d="M59.2021 110.048C61.023 110.048 62.5854 110.31 63.8936 110.837C65.2017 111.364 66.1992 112.129 66.8896 113.135C67.576 114.137 67.9229 115.345 67.9229 116.75C67.9228 118.155 67.58 119.362 66.8896 120.364C66.1992 121.367 65.2017 122.135 63.8936 122.662C62.5854 123.189 61.023 123.451 59.2021 123.451C57.3813 123.451 55.8189 123.189 54.5107 122.662C53.2027 122.135 52.2013 121.37 51.5068 120.364C50.8124 119.362 50.4649 118.155 50.4648 116.75C50.4648 115.345 50.8124 114.137 51.5068 113.135C52.2013 112.133 53.2027 111.364 54.5107 110.837C55.8189 110.31 57.3813 110.048 59.2021 110.048ZM59.2021 112.326C58.1201 112.326 57.1792 112.503 56.4121 112.861C55.645 113.22 55.06 113.735 54.6562 114.411C54.2525 115.087 54.0498 115.892 54.0498 116.834C54.0498 117.776 54.2525 118.536 54.6562 119.188C55.06 119.841 55.6451 120.336 56.4121 120.678C57.1792 121.016 58.108 121.189 59.2021 121.189C60.2842 121.189 61.2092 121.02 61.9844 120.678C62.7593 120.336 63.349 119.84 63.7607 119.188C64.1684 118.536 64.374 117.752 64.374 116.834C64.374 115.916 64.1684 115.087 63.7607 114.411C63.353 113.735 62.7594 113.22 61.9844 112.861C61.2092 112.503 60.2842 112.326 59.2021 112.326Z" fill="#F44E22"/>
<path fill-rule="evenodd" clip-rule="evenodd" d="M143.475 110.048C145.295 110.048 146.858 110.31 148.166 110.837C149.474 111.364 150.472 112.129 151.162 113.135C151.848 114.137 152.195 115.345 152.195 116.75C152.195 118.155 151.852 119.362 151.162 120.364C150.472 121.367 149.474 122.135 148.166 122.662C146.858 123.189 145.296 123.451 143.475 123.451C141.654 123.451 140.091 123.189 138.783 122.662C137.475 122.135 136.474 121.37 135.779 120.364C135.085 119.362 134.737 118.155 134.737 116.75C134.737 115.345 135.085 114.137 135.779 113.135C136.474 112.133 137.475 111.364 138.783 110.837C140.091 110.31 141.654 110.048 143.475 110.048ZM143.475 112.326C142.393 112.326 141.452 112.503 140.685 112.861C139.917 113.22 139.332 113.735 138.929 114.411C138.525 115.087 138.322 115.892 138.322 116.834C138.322 117.776 138.525 118.536 138.929 119.188C139.332 119.841 139.918 120.336 140.685 120.678C141.452 121.016 142.38 121.189 143.475 121.189C144.557 121.189 145.482 121.02 146.257 120.678C147.032 120.336 147.621 119.84 148.033 119.188C148.441 118.536 148.646 117.752 148.646 116.834C148.646 115.916 148.441 115.087 148.033 114.411C147.625 113.735 147.032 113.22 146.257 112.861C145.482 112.503 144.557 112.326 143.475 112.326Z" fill="#F44E22"/>
<path fill-rule="evenodd" clip-rule="evenodd" d="M122.046 110.302C123.943 110.302 125.578 110.555 126.951 111.066C128.32 111.578 129.37 112.31 130.093 113.268C130.815 114.226 131.175 115.378 131.175 116.714C131.175 118.05 130.795 119.221 130.04 120.191C129.285 121.161 128.195 121.902 126.773 122.421C125.352 122.936 123.652 123.194 121.67 123.194H120.031C119.474 123.194 118.905 123.19 118.323 123.178L114.568 123.162H114.576C114.701 121.846 114.762 119.72 114.762 116.782C114.762 113.844 114.701 111.719 114.576 110.402C115.464 110.402 116.276 110.398 117.015 110.386C117.753 110.374 118.44 110.362 119.078 110.354C119.567 110.341 120.055 110.329 120.544 110.317C121.032 110.305 121.533 110.302 122.046 110.302ZM121.153 112.516C120.94 112.524 120.71 112.531 120.472 112.539C120.12 112.563 119.744 112.58 119.353 112.592C118.961 112.604 118.582 112.604 118.219 112.592L118.227 112.6C118.19 114.141 118.182 115.51 118.19 116.697C118.19 117.365 118.194 118.046 118.206 118.73C118.218 119.419 118.23 120.107 118.238 120.795L119.006 120.848C119.393 120.884 119.825 120.912 120.302 120.932C120.778 120.956 121.234 120.964 121.666 120.964C122.893 120.964 123.952 120.799 124.84 120.461C125.728 120.127 126.407 119.64 126.879 119C127.351 118.36 127.585 117.595 127.585 116.709C127.585 115.824 127.355 115.083 126.895 114.447C126.434 113.811 125.765 113.328 124.889 113.002C124.013 112.676 122.971 112.507 121.768 112.507C121.574 112.507 121.367 112.508 121.153 112.516Z" fill="#F44E22"/>
<path fill-rule="evenodd" clip-rule="evenodd" d="M104.115 110.402C105.024 112.668 105.916 114.798 106.792 116.782C107.531 118.481 108.505 120.61 109.712 123.162H105.48C105.243 122.422 104.955 121.601 104.62 120.697C103.602 120.662 102.437 120.642 101.124 120.642C99.8578 120.642 98.7283 120.66 97.7363 120.693C97.4053 121.561 97.0923 122.385 96.7998 123.166H92.7539V123.162C93.2303 122.176 93.7231 121.133 94.2197 120.03C94.7203 118.932 95.2047 117.849 95.6689 116.782C96.646 114.512 97.5302 112.387 98.3135 110.402C99.121 110.503 100.122 110.559 101.317 110.571C102.512 110.583 103.445 110.527 104.115 110.402ZM101.142 112.334C100.784 113.001 100.043 114.767 98.915 117.635C98.7871 117.963 98.6622 118.29 98.5361 118.616C99.3462 118.65 100.245 118.67 101.232 118.67C102.177 118.67 103.044 118.651 103.827 118.62C103.282 117.23 102.767 115.956 102.282 114.802C101.774 113.6 101.394 112.775 101.142 112.334Z" fill="#F44E22"/>
<path d="M87.8408 110.402C87.8085 111.469 87.7808 112.531 87.7646 113.59C87.7485 114.652 87.7402 115.719 87.7402 116.794C87.7402 118.903 87.7926 121.024 87.8936 123.157H82.9277C82.2777 122.195 81.6194 121.245 80.9492 120.308C80.279 119.374 79.6003 118.444 78.918 117.526C77.8732 116.118 76.7895 114.718 75.6709 113.318C75.6465 114.676 75.6436 116.041 75.6641 117.414C75.6923 119.314 75.7649 121.225 75.8779 123.153H72.1592C72.2518 121.023 72.2969 118.896 72.2969 116.773C72.2969 114.648 72.252 112.523 72.1592 110.402C72.8738 110.491 73.7423 110.539 74.7598 110.547C75.7769 110.555 76.6044 110.503 77.2422 110.402C78.094 111.694 78.9661 112.978 79.8623 114.254C80.7546 115.53 81.6754 116.798 82.6201 118.054C83.0763 118.666 83.5329 119.273 83.9932 119.873C84.1122 120.028 84.232 120.183 84.3516 120.339C84.3801 118.954 84.3836 117.563 84.3604 116.166C84.3482 115.236 84.3281 114.283 84.2998 113.309C84.2715 112.335 84.2274 111.364 84.1709 110.402C84.8209 110.503 85.4508 110.558 86.0645 110.562C86.6781 110.567 87.2716 110.515 87.8408 110.402Z" fill="#F44E22"/>
<path d="M69.4727 92.4219C69.3475 93.9312 69.2906 96.0764 69.3027 98.8574C69.3148 101.643 69.3881 103.749 69.5254 105.178H65.6855C65.7542 104.349 65.8101 102.891 65.8545 100.806C65.8792 98.9455 65.8821 97.2862 65.8623 95.8262C65.279 97.1192 64.6694 98.5454 64.0303 100.105C63.36 101.74 62.7053 103.442 62.0674 105.226H58.8945C58.2809 103.503 57.6305 101.8 56.9482 100.122C56.3259 98.6132 55.7163 97.1967 55.1211 95.876C55.1085 97.2609 55.1152 98.7839 55.1396 100.443C55.1719 102.633 55.2398 104.211 55.3447 105.173H51.6104L51.6064 105.182C51.7316 103.708 51.792 101.579 51.792 98.8018C51.792 96.0246 51.7316 93.8951 51.6064 92.4219C52.2888 92.5104 53.1976 92.5584 54.3281 92.5664C55.4583 92.5744 56.3262 92.5225 56.9277 92.4219C57.5535 94.3136 58.1549 96.0205 58.7363 97.542C59.2262 98.8265 59.8147 100.263 60.498 101.847C61.0668 100.602 61.6859 99.1628 62.3545 97.5254C63.061 95.7465 63.6864 94.0439 64.2314 92.4219C64.8694 92.5225 65.7422 92.5742 66.8525 92.5742C67.9627 92.5742 68.8348 92.5225 69.4727 92.4219Z" fill="#F44E22"/>
<path fill-rule="evenodd" clip-rule="evenodd" d="M142.598 92.3213C144.495 92.3213 146.13 92.5748 147.503 93.0859C148.872 93.5971 149.922 94.3292 150.645 95.2871C151.367 96.2451 151.727 97.397 151.727 98.7334C151.727 100.07 151.347 101.241 150.592 102.211C149.837 103.181 148.746 103.921 147.325 104.44C145.904 104.956 144.204 105.214 142.222 105.214H140.583C140.026 105.214 139.456 105.209 138.875 105.197L135.12 105.182H135.128C135.253 103.865 135.313 101.74 135.313 98.8018C135.313 95.8635 135.253 93.7381 135.128 92.4219C136.016 92.4219 136.828 92.4173 137.566 92.4053C138.305 92.3932 138.992 92.3811 139.63 92.373C140.118 92.361 140.607 92.349 141.096 92.3369C141.584 92.3248 142.085 92.3213 142.598 92.3213ZM141.705 94.5312C141.491 94.5393 141.261 94.5466 141.023 94.5547C140.672 94.5788 140.296 94.5953 139.904 94.6074C139.513 94.6195 139.134 94.6195 138.771 94.6074L138.778 94.6152C138.742 96.1568 138.734 97.5255 138.742 98.7129C138.742 99.3811 138.746 100.062 138.758 100.746C138.77 101.434 138.782 102.122 138.79 102.811L139.558 102.863C139.945 102.899 140.377 102.927 140.854 102.947C141.33 102.971 141.786 102.979 142.218 102.979C143.445 102.979 144.503 102.815 145.392 102.477C146.28 102.142 146.958 101.656 147.431 101.016C147.903 100.376 148.137 99.6101 148.137 98.7246C148.137 97.8393 147.906 97.0988 147.446 96.4629C146.986 95.8271 146.316 95.3436 145.44 95.0176C144.564 94.6916 143.522 94.5225 142.319 94.5225C142.126 94.5225 141.919 94.5232 141.705 94.5312Z" fill="#F44E22"/>
<path fill-rule="evenodd" clip-rule="evenodd" d="M92.2324 92.4219C93.1409 94.688 94.033 96.8174 94.9092 98.8018C95.648 100.5 96.6219 102.63 97.8291 105.182H93.5977C93.3606 104.441 93.0718 103.621 92.7373 102.717C91.7193 102.681 90.554 102.662 89.2412 102.662C87.975 102.662 86.8455 102.68 85.8535 102.713C85.5224 103.581 85.2095 104.404 84.917 105.186H80.8711V105.182C81.3475 104.195 81.8403 103.153 82.3369 102.05C82.8335 100.947 83.3219 99.8683 83.7861 98.8018C84.7632 96.5317 85.6474 94.4062 86.4307 92.4219C87.2381 92.5225 88.2395 92.5787 89.4346 92.5908C90.6295 92.6029 91.5622 92.5466 92.2324 92.4219ZM89.2588 94.3535C88.9008 95.0206 88.1599 96.7877 87.0322 99.6553C86.9044 99.9828 86.7793 100.31 86.6533 100.636C87.4634 100.67 88.3621 100.689 89.3496 100.689C90.2944 100.689 91.161 100.671 91.9443 100.64C91.3996 99.2496 90.884 97.9758 90.3994 96.8213C89.8911 95.619 89.5111 94.7948 89.2588 94.3535Z" fill="#F44E22"/>
<path d="M113.046 92.4219C112.953 93.5449 112.896 95.1872 112.876 97.3525C112.852 99.5985 112.872 101.458 112.929 102.932C114.33 102.92 116.155 102.838 118.403 102.686C120.656 102.533 122.22 102.344 123.096 102.114C123.051 102.738 123.026 103.278 123.026 103.729C123.026 104.179 123.051 104.666 123.096 105.173H109.174C109.266 103.042 109.312 100.915 109.312 98.793C109.312 96.6679 109.267 94.5429 109.174 92.4219C109.868 92.5225 110.547 92.579 111.213 92.583C111.879 92.587 112.489 92.5346 113.046 92.4219Z" fill="#F44E22"/>
<path d="M151.234 88.3887H125.147V85.9814C125.152 85.9815 136.433 86.219 142.149 86.2432C146.239 86.2593 151.234 85.9814 151.234 85.9814V88.3887Z" fill="#F44E22"/>
<path fill-rule="evenodd" clip-rule="evenodd" d="M101.168 74.083C102.989 74.083 104.551 74.3447 105.859 74.876C107.167 75.4032 108.165 76.1678 108.855 77.1699C109.542 78.1722 109.889 79.3804 109.889 80.7852C109.889 82.1898 109.546 83.3972 108.855 84.3994C108.165 85.4017 107.168 86.1701 105.859 86.6934C104.551 87.2206 102.989 87.4863 101.168 87.4863C99.3471 87.4863 97.7847 87.2247 96.4766 86.6934C95.1684 86.1661 94.1671 85.4016 93.4727 84.3994C92.7782 83.3972 92.4307 82.1898 92.4307 80.7852C92.4307 79.3804 92.7782 78.1722 93.4727 77.1699C94.1671 76.1679 95.1686 75.3992 96.4766 74.876C97.7847 74.3487 99.3472 74.083 101.168 74.083ZM101.168 76.3652C100.086 76.3652 99.1451 76.5462 98.3779 76.9004C97.6109 77.2546 97.0258 77.7742 96.6221 78.4463C96.2184 79.1224 96.0157 79.9274 96.0156 80.8691C96.0156 81.811 96.2183 82.5725 96.6221 83.2246C97.0258 83.8764 97.611 84.3718 98.3779 84.7139C99.145 85.056 100.074 85.2246 101.168 85.2246C102.25 85.2246 103.175 85.056 103.95 84.7139C104.725 84.3718 105.315 83.8765 105.727 83.2246C106.134 82.5725 106.34 81.7869 106.34 80.8691C106.34 79.9516 106.134 79.1224 105.727 78.4463C105.319 77.7742 104.725 77.2546 103.95 76.9004C103.175 76.5462 102.25 76.3652 101.168 76.3652Z" fill="#F44E22"/>
<path d="M88.0781 74.4414C87.9974 74.9163 87.957 75.3952 87.957 75.8701C87.957 76.345 87.9974 76.8239 88.0781 77.2988C87.2262 77.1298 86.3375 76.997 85.417 76.9004C84.4964 76.8038 83.4098 76.7439 82.1582 76.7197C82.1017 78.4786 82.0898 80.3828 82.1221 82.4355C82.1584 84.4882 82.2232 86.0743 82.3281 87.1973H78.4082C78.5091 86.0622 78.5688 84.4679 78.585 82.4111C78.6011 80.3544 78.585 78.4585 78.5244 76.7197C77.2852 76.7439 76.2074 76.8038 75.291 76.9004C74.3745 76.997 73.4981 77.1298 72.6543 77.2988C72.7471 76.8239 72.792 76.345 72.792 75.8701C72.792 75.3952 72.7471 74.9203 72.6543 74.4414C75.5654 74.5219 78.1375 74.5615 80.3662 74.5615C82.5949 74.5615 85.1672 74.5219 88.0781 74.4414Z" fill="#F44E22"/>
<path d="M67.0635 74.4336C67.0312 75.5001 67.0035 76.5626 66.9873 77.6211C66.9712 78.6837 66.9629 79.7504 66.9629 80.8291C66.9629 82.9381 67.0153 85.0593 67.1162 87.1885H62.1504C61.5004 86.2265 60.8421 85.2767 60.1719 84.3389C59.5016 83.401 58.823 82.4753 58.1406 81.5576C57.0958 80.1524 56.0123 78.7501 54.8936 77.3496C54.8691 78.7074 54.8663 80.0723 54.8867 81.4453C54.915 83.345 54.9876 85.2567 55.1006 87.1846H51.3818C51.4743 85.0594 51.5195 82.9298 51.5195 80.8086C51.5195 78.6836 51.4747 76.5585 51.3818 74.4375C52.0965 74.5301 52.965 74.574 53.9824 74.582C54.9995 74.5901 55.827 74.5381 56.4648 74.4375C57.3167 75.7296 58.1896 77.0131 59.0859 78.2891C59.9782 79.5649 60.8981 80.8331 61.8428 82.0889C62.299 82.7006 62.7556 83.3085 63.2158 83.9082C63.3349 84.0633 63.4547 84.2185 63.5742 84.374C63.6027 82.9894 63.6063 81.5984 63.583 80.2012C63.5709 79.2715 63.5507 78.3177 63.5225 77.3438C63.4942 76.3698 63.4501 75.3995 63.3936 74.4336C64.0436 74.5342 64.6734 74.5897 65.2871 74.5938C65.9007 74.5978 66.4942 74.5463 67.0635 74.4336Z" fill="#F44E22"/>
<path fill-rule="evenodd" clip-rule="evenodd" d="M130.376 74.5537C131.704 74.5537 132.852 74.7306 133.812 75.0889C134.773 75.4471 135.504 75.9627 136.009 76.6309C136.513 77.303 136.768 78.1042 136.768 79.042C136.768 79.9799 136.501 80.7973 135.972 81.4775C135.443 82.1576 134.68 82.6769 133.687 83.0391C132.689 83.4012 131.502 83.5781 130.117 83.5781H128.971C128.579 83.5781 128.184 83.5785 127.776 83.5664L125.147 83.5547C125.236 82.6329 125.276 81.1467 125.276 79.0898C125.276 77.0332 125.232 75.5477 125.147 74.626C125.769 74.626 126.339 74.6263 126.855 74.6143C127.372 74.6062 127.853 74.5979 128.301 74.5898C128.644 74.5818 128.987 74.5745 129.326 74.5664C129.669 74.5584 130.021 74.5537 130.376 74.5537ZM129.759 76.0996C129.605 76.1036 129.448 76.1112 129.282 76.1152C129.036 76.1313 128.773 76.1443 128.499 76.1523C128.224 76.1604 127.957 76.1604 127.703 76.1523V76.1562C127.679 77.2349 127.671 78.1932 127.679 79.0264C127.679 79.4931 127.679 79.9684 127.691 80.4473C127.699 80.926 127.707 81.4088 127.715 81.8916L128.252 81.9277C128.522 81.9519 128.826 81.9722 129.161 81.9883C129.496 82.0044 129.815 82.0127 130.117 82.0127C130.977 82.0127 131.716 81.8955 132.338 81.6621C132.96 81.4287 133.437 81.0864 133.764 80.6396C134.091 80.1929 134.26 79.6578 134.26 79.0381C134.26 78.4182 134.098 77.8989 133.775 77.4521C133.452 77.0095 132.985 76.6708 132.371 76.4414C131.757 76.212 131.03 76.0957 130.187 76.0957C130.053 76.0957 129.908 76.0956 129.759 76.0996Z" fill="#F44E22"/>
<path d="M141.066 74.627C141.361 74.6672 141.951 74.6994 142.835 74.7275C143.719 74.7557 144.672 74.7712 145.689 74.7793C146.86 74.7873 147.918 74.7798 148.867 74.7637C149.816 74.7435 150.523 74.7114 150.991 74.6631C150.959 75.0211 150.942 75.3791 150.942 75.7412C150.942 76.1035 150.959 76.4621 150.991 76.8203C150.648 76.7237 150.183 76.6391 149.598 76.5586C149.012 76.4781 148.35 76.4097 147.607 76.3574C146.885 76.3091 146.178 76.2732 145.487 76.249C144.797 76.2249 144.195 76.2166 143.679 76.2246C143.663 76.5868 143.651 76.9531 143.643 77.3193C143.635 77.6856 143.635 78.0478 143.643 78.4141C144.684 78.4382 145.835 78.43 147.095 78.3857C148.354 78.3415 149.372 78.2853 150.151 78.2129C150.119 78.4987 150.103 78.7965 150.103 79.1064C150.103 79.4164 150.119 79.7142 150.151 80C149.356 79.9356 148.326 79.883 147.07 79.8428C145.811 79.8025 144.668 79.7989 143.643 79.8311C143.643 80.656 143.663 81.3682 143.703 81.9639C144.268 81.9719 144.898 81.9646 145.589 81.9404C146.283 81.9163 146.962 81.8756 147.632 81.8232C148.334 81.775 148.98 81.7143 149.573 81.6338C150.166 81.5533 150.639 81.4656 150.986 81.373C150.954 81.7311 150.938 82.0976 150.938 82.4678C150.938 82.838 150.954 83.2044 150.986 83.5625H141.062L141.066 83.5547C141.155 82.5243 141.195 81.0348 141.195 79.0908C141.195 77.147 141.151 75.6574 141.066 74.627Z" fill="#F44E22"/>
<path d="M122.878 56.457C122.753 57.9665 122.696 60.1123 122.708 62.8936C122.72 65.6787 122.793 67.784 122.931 69.2129H119.091C119.159 68.3877 119.215 66.9299 119.26 64.8408C119.284 62.9823 119.287 61.3244 119.268 59.8652C118.684 61.1583 118.075 62.5844 117.436 64.1445C116.765 65.7787 116.111 67.4856 115.473 69.2646H112.3C111.686 67.542 111.036 65.8395 110.354 64.1611C109.731 62.6523 109.122 61.236 108.526 59.917C108.514 61.3026 108.52 62.8268 108.545 64.4873C108.577 66.6768 108.645 68.2508 108.75 69.2168H105.012C105.137 67.7436 105.197 65.6182 105.197 62.8369C105.197 60.0556 105.137 57.9343 105.012 56.457C105.694 56.5496 106.603 56.5975 107.733 56.6016C108.864 56.6056 109.731 56.5576 110.333 56.457C110.959 58.3488 111.56 60.0597 112.142 61.5771C112.631 62.8617 113.22 64.2979 113.903 65.8818C114.472 64.6368 115.091 63.1979 115.76 61.5605C116.466 59.7816 117.092 58.079 117.637 56.457C118.275 56.5577 119.147 56.6094 120.258 56.6094C121.368 56.6094 122.24 56.5576 122.878 56.457Z" fill="#F44E22"/>
<path fill-rule="evenodd" clip-rule="evenodd" d="M86.7002 56.457C87.6086 58.7272 88.5008 60.8525 89.377 62.8369C90.1158 64.5396 91.0897 66.6648 92.2969 69.2168H88.0654C87.8284 68.4765 87.5394 67.6564 87.2051 66.7529C86.1871 66.7174 85.0217 66.6973 83.709 66.6973C82.4423 66.6973 81.3126 66.7159 80.3203 66.749C79.9894 67.6166 79.6772 68.4396 79.3848 69.2207H75.3389V69.2168C75.8153 68.2306 76.3081 67.1879 76.8047 66.085C77.3053 64.9862 77.7896 63.9035 78.2539 62.8369C79.231 60.5708 80.1152 58.4414 80.8984 56.457C81.7059 56.5577 82.7073 56.6139 83.9023 56.626C85.0973 56.6381 86.03 56.5818 86.7002 56.457ZM83.7266 58.3887C83.3686 59.0557 82.6277 60.8227 81.5 63.6904C81.3721 64.018 81.2471 64.3454 81.1211 64.6709C81.9312 64.7048 82.8299 64.7246 83.8174 64.7246C84.7618 64.7246 85.6281 64.706 86.4111 64.6748C85.8665 63.2849 85.3518 62.0109 84.8672 60.8564C84.3588 59.6541 83.9789 58.8299 83.7266 58.3887Z" fill="#F44E22"/>
<path d="M66.1221 56.4609C66.0413 56.9359 66.001 57.4147 66.001 57.8896C66.001 58.3645 66.0414 58.8435 66.1221 59.3184C65.2702 59.1493 64.3815 59.0165 63.4609 58.9199C62.5404 58.8233 61.4538 58.7634 60.2021 58.7393C60.1456 60.4982 60.1337 62.4023 60.166 64.4551C60.2024 66.5078 60.2671 68.0938 60.3721 69.2168H56.4521C56.5531 68.0817 56.6128 66.4875 56.6289 64.4307C56.6451 62.3739 56.6289 60.4781 56.5684 58.7393C55.3291 58.7634 54.2513 58.8233 53.335 58.9199C52.4185 59.0165 51.5421 59.1493 50.6982 59.3184C50.7911 58.8435 50.8359 58.3645 50.8359 57.8896C50.8359 57.4147 50.7911 56.9358 50.6982 56.4609C53.6093 56.5414 56.1814 56.582 58.4102 56.582C60.6388 56.582 63.2111 56.5414 66.1221 56.4609Z" fill="#F44E22"/>
<path d="M136.92 56.457C137.34 56.5134 138.184 56.5613 139.443 56.6016C140.707 56.6418 142.064 56.6666 143.521 56.6787C145.193 56.6908 146.707 56.6784 148.06 56.6543C149.412 56.6261 150.425 56.5772 151.096 56.5088C151.051 57.02 151.027 57.5315 151.027 58.0508C151.027 58.57 151.051 59.0817 151.096 59.5889C150.607 59.452 149.945 59.3266 149.109 59.2139C148.274 59.1012 147.324 59.0043 146.267 58.9238C145.233 58.8554 144.223 58.8077 143.238 58.7715C142.253 58.7353 141.393 58.7273 140.654 58.7354C140.63 59.2585 140.615 59.7776 140.603 60.3008C140.59 60.8239 140.59 61.3431 140.603 61.8662C142.092 61.9024 143.736 61.8867 145.532 61.8223C147.329 61.7619 148.786 61.6778 149.9 61.5771C149.856 61.9835 149.832 62.41 149.832 62.8525C149.832 63.2953 149.856 63.7183 149.9 64.1289C148.762 64.0363 147.296 63.9636 145.5 63.9072C143.703 63.8509 142.072 63.8473 140.603 63.8916C140.603 65.0708 140.63 66.0853 140.687 66.9346C141.494 66.9466 142.395 66.9345 143.384 66.9023C144.373 66.8661 145.346 66.8099 146.303 66.7334C147.304 66.665 148.229 66.5757 149.077 66.459C149.925 66.3463 150.599 66.2218 151.1 66.085C151.055 66.596 151.031 67.1152 151.031 67.6504C151.031 68.1857 151.055 68.7056 151.1 69.2168H136.92C137.045 67.7436 137.105 65.6182 137.105 62.8369C137.105 60.0556 137.045 57.9343 136.92 56.457Z" fill="#F44E22"/>
<path fill-rule="evenodd" clip-rule="evenodd" d="M58.8906 38.3682C60.7882 38.3682 62.4232 38.6217 63.7959 39.1328C65.1645 39.644 66.2148 40.3761 66.9375 41.334C67.6602 42.292 68.0195 43.4399 68.0195 44.7803C68.0195 46.1205 67.6397 47.2878 66.8848 48.2578C66.1298 49.2278 65.0393 49.9721 63.6182 50.4873C62.197 51.0025 60.497 51.2607 58.5146 51.2607H56.876C56.3188 51.2607 55.7494 51.2562 55.168 51.2441L51.4209 51.2285C51.5458 49.912 51.6064 47.7881 51.6064 44.8525C51.6064 41.9143 51.5461 39.7889 51.4209 38.4727C52.309 38.4727 53.1206 38.4681 53.8594 38.4561C54.5982 38.444 55.285 38.432 55.9229 38.4199C56.4114 38.4078 56.9001 38.3959 57.3887 38.3838C57.8772 38.3717 58.3779 38.3682 58.8906 38.3682ZM57.998 40.5977C57.7843 40.6057 57.5544 40.614 57.3164 40.6221C56.9651 40.6462 56.5889 40.6618 56.1973 40.6738C55.8083 40.6858 55.4314 40.6857 55.0703 40.6738C55.0341 42.2139 55.0271 43.5811 55.0352 44.7676C55.0352 45.4358 55.0387 46.1165 55.0508 46.8008C55.0629 47.4889 55.0749 48.1771 55.083 48.8652L55.8506 48.918C56.2381 48.9542 56.6702 48.9818 57.1465 49.002C57.6228 49.0261 58.0788 49.0381 58.5107 49.0381C59.7382 49.0381 60.7963 48.8692 61.6846 48.5352C62.5728 48.2011 63.2513 47.7142 63.7236 47.0742C64.196 46.4343 64.4297 45.6695 64.4297 44.7881C64.4297 43.9066 64.1995 43.1614 63.7393 42.5254C63.2791 41.8897 62.6091 41.411 61.7334 41.0811C60.8573 40.751 59.8154 40.5899 58.6123 40.5898C58.4185 40.5898 58.212 40.5896 57.998 40.5977Z" fill="#F44E22"/>
<path fill-rule="evenodd" clip-rule="evenodd" d="M125.18 38.4727C126.088 40.7388 126.98 42.8682 127.856 44.8525C128.595 46.5552 129.569 48.6805 130.776 51.2324H126.545C126.308 50.4933 126.02 49.6743 125.687 48.7725C124.668 48.7369 123.502 48.7168 122.188 48.7168C120.921 48.7168 119.791 48.7354 118.799 48.7686C118.468 49.6347 118.156 50.4564 117.864 51.2363H113.818V51.2324C114.295 50.2463 114.788 49.2035 115.284 48.1006C115.785 47.0018 116.269 45.9191 116.733 44.8525C117.71 42.5865 118.595 40.457 119.378 38.4727C120.185 38.5733 121.187 38.6295 122.382 38.6416C123.577 38.6537 124.509 38.5974 125.18 38.4727ZM122.206 40.4043C121.848 41.0713 121.107 42.8384 119.979 45.7061C119.851 46.035 119.725 46.3635 119.599 46.6904C120.409 46.7244 121.309 46.7441 122.297 46.7441C123.242 46.7441 124.109 46.7255 124.893 46.6943C124.347 45.3029 123.832 44.0276 123.347 42.8721C122.838 41.6698 122.458 40.8455 122.206 40.4043Z" fill="#F44E22"/>
<path d="M51.4209 51.2324L51.4131 51.2285H51.4209V51.2324Z" fill="#F44E22"/>
<path fill-rule="evenodd" clip-rule="evenodd" d="M102.795 38.4043C104.523 38.4043 105.916 38.5409 106.966 38.8105C108.02 39.0842 108.799 39.535 109.304 40.1709C109.808 40.8068 110.062 41.6681 110.062 42.7549C110.062 43.7169 109.849 44.534 109.425 45.2021C109.001 45.8703 108.274 46.3942 107.257 46.7686C106.239 47.1429 104.87 47.3271 103.154 47.3271H99.0518C99.1047 48.9921 99.2033 50.291 99.3516 51.2236H95.4268L95.4229 51.2324C95.548 49.7593 95.6084 47.6337 95.6084 44.8525C95.6084 42.0714 95.548 39.9499 95.4229 38.4727C96.299 38.4847 97.0948 38.4883 97.8135 38.4883C98.532 38.4883 99.2145 38.4762 99.8604 38.4561C100.317 38.4319 100.785 38.4202 101.27 38.4121C101.754 38.4081 102.262 38.4043 102.795 38.4043ZM101.366 40.6865C101.116 40.6905 100.861 40.7019 100.599 40.71C100.324 40.722 100.058 40.7303 99.7959 40.7344C99.5336 40.7384 99.283 40.7422 99.0449 40.7422C99.0012 42.1898 98.9886 43.6835 99.0059 45.2227C99.0734 45.2237 99.1402 45.2228 99.2061 45.2266C99.3474 45.2306 99.4888 45.2429 99.6221 45.251C100.054 45.2631 100.482 45.275 100.91 45.2871C101.338 45.2992 101.766 45.3027 102.198 45.3027C103.676 45.3027 104.762 45.1052 105.448 44.7148C106.134 44.3244 106.481 43.7368 106.481 42.9561C106.481 42.3766 106.324 41.9257 106.014 41.5957C105.699 41.2656 105.226 41.0325 104.588 40.8916C103.95 40.7508 103.114 40.6777 102.081 40.6777C101.855 40.6777 101.612 40.6785 101.366 40.6865Z" fill="#F44E22"/>
<path fill-rule="evenodd" clip-rule="evenodd" d="M144.221 38.4043C146.724 38.4043 148.569 38.7143 149.756 39.3301C150.943 39.9499 151.54 40.8913 151.54 42.1631C151.54 43.1251 151.229 43.8945 150.611 44.458C149.99 45.0252 149.271 45.4193 148.452 45.6406C147.633 45.862 146.881 45.9707 146.199 45.9707V46.2451C147.745 46.5269 148.984 47.1627 149.917 48.1406C150.85 49.1227 151.573 50.1489 152.086 51.2275H147.188C147.087 50.1974 146.853 49.3606 146.489 48.7207C146.126 48.0807 145.601 47.5929 144.919 47.2588C144.237 46.9247 143.344 46.7082 142.242 46.6035C141.968 46.5713 141.664 46.5463 141.329 46.5342C140.994 46.5221 140.655 46.5186 140.316 46.5186C140.361 48.1718 140.388 49.1135 140.4 49.3438C140.413 49.6819 140.433 50.0085 140.461 50.3145C140.489 50.6203 140.514 50.9266 140.538 51.2324H136.662C136.787 49.7593 136.848 47.6337 136.848 44.8525C136.848 42.0714 136.787 39.9499 136.662 38.4727C137.514 38.4847 138.309 38.4883 139.044 38.4883C139.779 38.4883 140.486 38.4762 141.168 38.4561C141.644 38.4319 142.137 38.4202 142.634 38.4121C143.13 38.4041 143.664 38.4043 144.221 38.4043ZM142.812 40.6943C142.384 40.7024 141.979 40.7141 141.592 40.7383L140.364 40.7549C140.34 41.3223 140.325 41.91 140.312 42.5137C140.3 43.1214 140.296 43.7532 140.296 44.4092V44.4131L141.1 44.4658C141.532 44.49 141.996 44.51 142.488 44.5342C142.985 44.5583 143.47 44.5664 143.946 44.5664C144.786 44.5664 145.492 44.4936 146.062 44.3447C146.631 44.1958 147.059 43.9747 147.35 43.6729C147.64 43.371 147.785 42.9967 147.785 42.542C147.785 41.8939 147.462 41.4268 146.82 41.1289C146.178 40.8311 145.27 40.6866 144.1 40.6865C143.668 40.6865 143.239 40.6863 142.812 40.6943Z" fill="#F44E22"/>
<path d="M74.5039 38.4727C74.9238 38.529 75.7677 38.5769 77.0273 38.6172C78.2871 38.6574 79.6479 38.6823 81.1055 38.6943C82.7769 38.7064 84.291 38.6941 85.6436 38.6699C86.9961 38.6417 88.0095 38.5928 88.6797 38.5244C88.6353 39.0356 88.6113 39.5473 88.6113 40.0625C88.6113 40.5776 88.6353 41.0926 88.6797 41.5996C88.1912 41.4628 87.529 41.3383 86.6934 41.2256C85.8576 41.1129 84.9084 41.0161 83.8506 40.9355C82.8171 40.8671 81.8074 40.8154 80.8223 40.7832C79.8373 40.747 78.9771 40.739 78.2383 40.7471C78.2141 41.2702 78.1986 41.7894 78.1865 42.3125C78.1744 42.8357 78.1744 43.3548 78.1865 43.8779C79.6763 43.9101 81.3197 43.8984 83.1162 43.834C84.9127 43.7736 86.3701 43.6895 87.4844 43.5889C87.44 43.9952 87.416 44.4217 87.416 44.8643C87.416 45.307 87.44 45.7341 87.4844 46.1406C86.3459 46.0481 84.8804 45.9753 83.084 45.9189C81.2874 45.8626 79.6561 45.8591 78.1865 45.9033C78.1865 47.0825 78.214 48.0971 78.2705 48.9463C79.078 48.9584 79.9787 48.9464 80.9678 48.9102C81.9568 48.878 82.9299 48.8207 83.8867 48.7402C84.888 48.6718 85.8133 48.5835 86.6611 48.4668C87.5088 48.3541 88.183 48.2296 88.6836 48.0928C88.6392 48.6039 88.6152 49.123 88.6152 49.6582C88.6152 50.1935 88.6392 50.7134 88.6836 51.2246H74.5049C74.6296 49.7517 74.6895 47.629 74.6895 44.8525C74.6895 42.0713 74.6291 39.9499 74.5039 38.4727Z" fill="#F44E22"/>
</svg>
