<svg width="223" height="82" viewBox="0 0 223 82" fill="none" xmlns="http://www.w3.org/2000/svg">
  <g
    stroke="currentColor"
    stroke-width="1.5"
    stroke-miterlimit="10"
    stroke-linecap="round"
    stroke-linejoin="round"
  >
    <path
      d="M1.45291 35.3745C1.01287 34.4912 1.62188 38.1803 1.64117 38.3174C1.9681 40.626 1.89061 43.7868 2.943 45.8987"
    />
    <path
      d="M1.32413 36.079C-1.77966 32.2494 8.71538 37.0967 8.6407 41.7803C8.5587 46.927 0.176999 46.1187 2.14651 43.4989"
    />
    <path d="M12.5462 38.7141C11.5574 40.0298 12.8508 46.2913 13.4974 45.4312" />
    <path d="M13.6097 34.4368L14.1941 35.4709" />
    <path
      d="M23.5701 43.1137C23.5487 42.8505 23.2595 40.5166 22.9544 40.1912C20.7364 37.8301 17.0269 42.817 17.7044 45.0156C18.7584 48.437 23.8036 45.9856 23.5701 43.1137Z"
    />
    <path
      d="M24.4719 41.5455C21.7888 45.0622 27.6053 50.8363 23.6132 55.0172C21.2804 57.46 17.4989 51.9963 18.5407 49.5779"
    />
    <path d="M27.4153 40.2592C27.0896 41.2102 28.0236 46.8744 29.3322 46.2342" />
    <path d="M30.9518 35.1081L29.1145 34.6877" />
    <path d="M34.9526 34.236C33.7503 36.5088 34.0363 43.5436 36.3288 45.2924" />
    <path d="M31.5698 39.6996C31.0058 39.5063 35.6399 39.7648 36.8108 39.774" />
    <path
      d="M40.364 36.4016C44.1407 34.5522 46.41 41.7528 44.9634 42.4617C44.7253 42.5778 44.5871 42.0829 44.4378 41.8637C43.1122 39.9154 39.9093 38.4177 39.2262 42.009C38.2447 47.1671 45.5946 43.4339 46.8724 41.7592"
    />
    <path d="M48.3258 31.8808C46.9221 34.2915 47.7831 46.9839 51.5562 45.1363" />
    <path
      d="M67.9924 38.2499C68.4712 35.7334 64.3021 35.7687 63.4429 37.5269C62.8413 38.7594 66.7902 41.4278 66.861 43.0768C66.9372 44.8272 63.6571 44.1919 64.7111 42.8101"
    />
    <path d="M71.6998 35.1909C70.9607 36.9066 72.3614 45.6417 73.0883 44.6873" />
    <path d="M69.6641 39.9168C69.2038 39.5661 75.5281 38.9058 76.8498 38.7277" />
    <path
      d="M80.4201 37.1339C80.1848 35.3856 87.9732 36.7017 84.0497 43.4354C84.0007 43.5202 78.0848 36.4592 78.035 42.5744C77.9998 46.8844 84.8014 43.7892 85.744 43.1481"
    />
    <path
      d="M88.8754 37.1101C87.8477 37.9484 88.6041 45.296 89.8987 45.5425C90.1289 45.5861 90.2441 44.1149 90.2542 44.0483C90.5289 42.157 90.7534 36.224 92.5108 35.1741C93.2737 34.7179 93.2646 40.3885 93.2758 40.8585C93.2922 41.5661 93.4944 43.5181 94.0463 43.0771C94.3062 42.8699 96.6794 34.9964 98.0716 36.2372C98.9652 37.4348 98.3406 45.6252 101.552 43.4403"
    />
    <path
      d="M101.342 38.7721C103.065 32.2037 100.811 47.4168 100.829 48.1904C100.837 48.5582 100.628 49.4034 100.976 49.2834C101.792 49.0028 101.827 35.7923 104.624 34.2119C106.644 33.0711 108.567 36.6076 106.76 40.5139C105.206 43.8737 99.4018 46.1703 101.342 38.7721Z"
    />
    <path
      d="M126.017 33.6086C123.194 29.1603 117.713 38.3048 122.67 41.9338C124.6 43.3475 127.426 42.346 129.049 40.9856C129.331 40.7484 130.773 37.7709 129.843 38.3235C127.522 39.7027 131.169 44.3472 134.112 42.4493C138.087 39.8882 133.544 35.4725 130.28 37.4117"
    />
    <path d="M138.009 32.3069C136.909 34.6035 138.157 43.8881 142.094 40.8289" />
    <path d="M143.363 31.8282C141.467 32.2526 142.633 39.6496 144.96 41.5769" />
    <path
      d="M147.674 38.1995C151.86 39.1231 153.736 34.4466 150.128 35.0241C148.549 35.2766 147.75 36.3759 147.33 37.2514C145.562 40.9456 150.602 41.2049 153.022 41.4189"
    />
    <path
      d="M159.606 37.3656C159.546 33.8791 155.646 35.7218 155.164 38.2813C154.386 42.4137 160.206 43.4709 161.848 40.0411"
    />
    <path d="M163.48 29.6138C161.153 31.4211 163.232 38.2676 164.947 39.9236" />
    <path
      d="M160.424 32.3133C159.743 31.9875 162.385 31.8074 162.742 31.8219C164.17 31.8821 165.386 32.1155 166.757 32.4643"
    />
    <path d="M168.581 33.3373C167.834 34.8964 168.744 41.8439 170.503 40.0233" />
    <path d="M170.882 31.8772C170.038 31.2856 170.373 31.5764 169.834 31.0559" />
    <path
      d="M174.041 35.3118C175.479 35.3118 172.928 38.5298 174.577 40.2119C176.343 42.0154 179.325 39.6668 179.506 37.6089C179.675 35.6977 174.04 32.8387 174.041 35.3118Z"
    />
    <path
      d="M181.883 36.2609C181.297 47.6514 182.867 35.2797 183.915 34.7566C186.96 33.2357 187.038 39.8894 187.061 41.2269"
    />
    <path d="M199.573 32.488C199.591 33.559 199.057 40.8461 200.752 41.0597" />
    <path
      d="M198.55 36.9621C198.15 36.4461 203.496 37.0609 205.003 36.53C206.278 36.0804 207.486 32.2842 205.703 32.0605C205.595 32.0475 205.494 32.162 205.447 32.2589C204.552 34.1275 205.178 39.4962 207.266 40.4958"
    />
    <path
      d="M212.9 31.4152C207.546 31.8954 207.498 45.7003 217.126 41.1865C220.977 38.5429 216.165 28.6783 212.012 33.6721"
    />
    <path
      d="M213.643 38.3786C212.999 36.8362 216.142 37.7564 216.608 38.1595C218.956 40.1832 218.121 45.0768 222.192 42.332"
    />
    <path d="M1.17627 68.3464C1.5903 70.8322 1.62853 77.8004 4.04644 79.0546" />
    <path d="M1.31509 68.5587C0.0652279 67.9102 7.44454 67.2867 9.39688 68.3" />
    <path
      d="M1.68135 72.5822C1.2608 72.5758 2.5227 72.5941 2.94335 72.6006C4.33026 72.6217 5.65188 72.5587 7.04453 72.6612"
    />
    <path
      d="M8.66317 75.3602C8.52958 75.359 14.6946 76.5332 14.2399 73.8023C13.8319 71.3518 10.3323 73.9458 10.1153 75.3192C9.32276 80.335 14.8853 79.1849 16.5127 78.0018"
    />
    <path
      d="M17.0001 74.9164C15.9836 76.8765 25.1906 73.8528 20.6472 71.5634C17.7927 70.5913 13.6062 80.1141 20.0987 78.7498C21.1691 78.524 22.1001 78.1156 23.1423 77.7844"
    />
    <path
      d="M29.7601 75.5541C30.7719 67.5545 17.4002 76.6149 25.7869 78.2023C30.2099 79.0386 31.5288 71.2186 30.1441 67.2555C27.4696 65.345 28.8548 75.0523 31.4842 77.0244"
    />
    <path
      d="M35.6326 69.6393C35.4477 70.809 35.5523 71.924 35.5811 73.1096C35.7993 82.1171 37.6412 69.4856 39.8725 73.11C42.1649 76.8329 37.1952 79.5177 34.2534 76.7762"
    />
    <path
      d="M43.9974 71.5933C47.9657 69.4034 48.8398 76.0249 47.5227 76.4425C46.5356 76.7552 43.9423 72.7847 42.4381 74.5995C40.1967 78.3096 45.4185 77.3081 47.7128 76.3822"
    />
    <path d="M54.6428 71.6607C48.8594 63.7058 48.6763 84.1062 57.9363 75.1176" />
    <path d="M58.9191 64.6759C56.962 66.099 60.6026 74.6103 61.2646 76.7012" />
    <path
      d="M61.0773 74.8282C61.1061 72.8796 67.3133 70.8802 65.3647 70.8531C60.1207 70.7746 58.046 77.7772 66.8806 74.9776"
    />
    <path d="M84.0963 68.757C83.4005 70.0993 83.4716 76.7627 85.8075 76.7977" />
    <path
      d="M82.134 67.624C84.0595 67.4065 86.2209 68.3789 86.4357 68.54C87.8289 69.5855 89.0806 71.2851 89.3347 73.0638C89.9325 77.2569 79.3015 79.5766 81.5261 75.2878"
    />
    <path
      d="M89.9413 74.6504C91.9536 75.2311 96.9978 72.4232 93.959 71.8071C92.1563 71.7237 91.2615 73.7869 91.8854 75.6073C92.3956 77.096 94.8259 77.258 96.288 76.5118C97.4466 75.9197 98.1389 73.6893 98.1389 73.6893C98.1389 73.6893 98.5002 75.1096 98.505 75.9137C98.5079 76.2622 99.1726 80.9359 99.6318 80.79C100.081 80.6476 99.5119 79.8544 99.3999 79.3977C98.9242 77.4557 95.7475 67.0127 100.933 69.7012C106.853 72.7722 98.8105 79.1518 98.3295 74.547"
    />
    <path
      d="M107.554 65.8241C106.228 66.7879 107.923 71.6955 108.077 73.0891C108.104 73.3306 108.413 76.6735 108.61 75.4322"
    />
    <path
      d="M103.849 69.9811C104.3 69.7294 106.306 69.7186 106.802 69.7256C108.047 69.7442 110.498 69.6584 111.329 70.803"
    />
    <path d="M115.546 75.8515L113.959 76.4588" />
    <path d="M2.93935 7.60587C2.80965 9.36375 1.92126 15.1839 3.75922 16.1379" />
    <path
      d="M2.28953 8.85853C1.41793 6.10829 6.3143 3.2736 7.69956 5.78332C10.7406 11.2938 -2.93099 10.8473 6.51546 13.2756C7.39571 13.5025 8.28246 13.987 9.22011 13.8843C11.4734 13.6362 11.8139 8.9559 10.478 9.92719C8.598 11.2937 13.0911 14.5479 15.0984 13.2774C18.9412 10.8454 13.3273 7.85569 10.9884 9.55539"
    />
    <path
      d="M18.8157 5.19148C18.3887 4.60412 18.933 7.08193 18.9731 7.33906C19.2013 8.80618 19.2719 10.23 19.4133 11.7001C19.4898 12.4975 19.4162 14.6433 19.9464 14.0432C20.7062 13.1834 20.419 11.2581 21.1393 10.2113C21.8126 9.23334 22.9779 9.49349 23.5332 10.4992C25.6413 14.3198 19.8973 16.8199 19.515 13.3425"
    />
    <path
      d="M26.3074 10.6665C27.3071 12.0422 32.273 10.3799 31.3229 8.65818C30.9322 7.95036 29.4643 8.08164 28.8687 8.18022C22.7638 9.1971 26.7556 16.6636 30.3015 13.6923C31.0615 13.0548 31.7969 12.363 32.4777 11.6417"
    />
    <path
      d="M34.7236 9.15099C34.4238 10.1892 34.8389 11.4267 35.0525 12.5008C35.1692 13.0878 35.5861 14.8109 35.595 14.2127C35.639 11.2505 32.3991 7.24149 37.0946 6.72499"
    />
    <path
      d="M43.1912 4.16485C42.177 6.12005 42.8986 9.26577 43.2737 11.3604C43.3047 11.534 43.9687 13.8842 43.6307 12.8174"
    />
    <path d="M39.9521 9.79641C39.791 9.71287 45.5631 9.57554 46.7071 9.6445" />
    <path
      d="M63.4555 12.2914C61.4716 12.2617 53.6405 2.6724 57.0589 1.02566C58.2392 0.457618 62.0318 0.676169 62.1482 2.55255C62.3593 5.95795 55.1856 7.86638 54.4501 10.9587C53.7812 13.7708 61.2367 8.59989 61.8227 7.47077"
    />
    <path
      d="M72.377 6.42887C72.2933 6.31187 72.4378 12.2329 73.0213 14.0748C73.0658 14.216 73.1832 14.4037 73.3318 14.3945C75.4823 14.2618 73.8403 8.03622 73.6303 7.07849C73.3294 5.70812 73.5425 6.33764 73.0276 5.1766C72.8517 4.78004 72.7399 3.5846 72.5399 3.96976C71.6781 5.6317 74.7315 11.8585 76.9139 11.1666C78.3586 10.7089 79.1478 8.60218 79.6839 7.35763C79.9788 6.67453 80.375 4.49351 80.0331 5.15441C79.3814 6.40963 80.0458 13.2086 82.0686 12.5684"
    />
    <path
      d="M84.4632 8.56464C85.9229 5.7501 89.497 7.25693 89.6772 10.1564C89.6813 10.2196 89.6735 11.1022 89.6634 11.1027C89.1684 10.4359 87.9503 9.49354 86.6481 10.1744C82.4651 12.3614 86.7403 14.0868 91.5005 10.6251"
    />
    <path d="M94.3308 7.00722C93.8826 8.43751 94.821 13.8302 96.5015 13.8549" />
    <path d="M94.9704 10.2947C95.2361 7.95511 98.6401 6.88209 99.9496 6.90065" />
    <path d="M101.944 8.57173C101.783 9.58637 101.97 11.3969 102.583 12.2412" />
    <path d="M103.286 3.22695L102.224 2.51709" />
    <path
      d="M106.175 8.38206C105.782 7.84134 106.458 9.68853 106.588 10.3442C106.963 12.2296 107.232 14.2582 106.754 16.1532C105.902 19.5254 102.407 17.7929 103.739 15.2248"
    />
    <path
      d="M108.183 4.9721C108.003 4.52433 107.87 4.0587 107.698 3.60825C107.525 3.15775 108.361 5.42083 108.183 4.9721Z"
    />
    <path
      d="M109.836 8.37344C109.005 7.2308 115.035 6.49678 114.535 10.6521C114.154 13.8199 112.737 9.86114 110.814 10.4709C109.294 10.9521 108.276 12.8251 110.522 13.1803C113.698 13.6816 115.342 9.65432 117.894 9.69232C118.679 9.70364 117.98 12.3442 117.792 12.3415C117.453 12.3358 117.675 11.6693 117.681 11.3302C117.701 9.99372 118.178 6.31486 119.904 6.12442C122.443 5.84552 122.179 11.3242 122.645 12.7922"
    />
    <path
      d="M126.288 7.08139C127.223 6.17364 128.824 6.93948 129.493 7.94949C130.313 9.1857 130.322 10.6617 130.379 12.0648C130.39 12.3386 130.43 12.8861 130.43 12.8861C130.43 12.8861 130.467 12.6705 130.435 12.5699C129.911 10.918 124.883 8.19762 124.835 11.4139C124.786 14.7521 130.119 12.8797 131.637 12.3983"
    />
  </g>
</svg>
