<svg xmlns="http://www.w3.org/2000/svg" width="110" height="110" fill="none" viewBox="0 0 110 110">
  <path
    fill="currentColor"
    d="M39.531 89.077a1.2 1.2 0 0 1-1.612.53 1.2 1.2 0 0 1-.53-1.611A1.2 1.2 0 0 1 39 87.465c.593.299.83 1.019.531 1.612m-8.543-8.469-4.093 3.822-1.37-1.468c-.721-.771-.703-1.795.033-2.483.737-.688 1.76-.636 2.48.136l.689.736 1.578-1.474zm-2.905 1.344-.715-.766c-.322-.345-.786-.35-1.154-.006-.369.344-.396.808-.074 1.153l.715.766zm-2.141-7.431c.695 1.065.189 2.456-1.231 3.383s-2.897.83-3.592-.235-.19-2.456 1.23-3.383 2.897-.83 3.593.234m-.77.502c-.386-.589-1.285-.547-2.276.1-.992.648-1.392 1.454-1.007 2.043s1.284.547 2.275-.1c.992-.647 1.392-1.453 1.007-2.043m-3.036-3.619-.365-.853c.383-.225.5-.745.282-1.252-.223-.522-.676-.746-1.117-.557-.382.163-.5.518-.366 1.096l.074.316c.255 1.083-.012 1.78-.814 2.124-.934.4-1.849-.01-2.28-1.017-.419-.978-.148-1.973.645-2.356l.365.853c-.326.192-.415.656-.217 1.12.211.493.632.704 1.044.528.353-.151.466-.478.346-1.001l-.074-.316c-.266-1.13.01-1.867.842-2.223.963-.412 1.902.013 2.349 1.057.444 1.037.141 2.08-.714 2.481m-1.268-7.746-4.599 1.063.357 1.543-.858.198-.936-4.053.857-.198.355 1.535 4.599-1.062zm-.98-5.05.052.967-5.673-1.22-.074-1.39 5.512-1.816.052.983-1.37.441.092 1.742zm-2.3-.486-.068-1.262-2.291.739.001.032zm.047-7.041-.873-.11.25-1.984 3.127.393-.11.873-.634-.08-.005.032c.41.334.626.796.561 1.312-.136 1.08-1.417 1.717-3.052 1.511-1.723-.217-2.788-1.237-2.629-2.5.116-.92.838-1.596 1.737-1.628l-.12.96c-.379.058-.65.355-.7.752-.09.714.614 1.27 1.813 1.42 1.174.149 2.023-.188 2.104-.831.07-.564-.481-1.044-1.339-1.152zm3.068-4.69-5.352-1.648.992-3.226.841.258-.698 2.272 1.315.404.612-1.988.84.259-.61 1.988 1.513.466.699-2.271.84.258zm4.492-10.596-4.46-3.388.992-1.306c.832-1.095 2.308-1.16 3.633-.154s1.659 2.446.826 3.542zm-.096-1.33.387-.509c.488-.643.206-1.501-.73-2.212-.937-.712-1.84-.754-2.328-.11l-.387.51zm2.97-10.337 2.61 2.817c.723.78.652 1.905-.158 2.655s-1.936.735-2.66-.045l-2.609-2.817.734-.68 2.61 2.817c.363.393.906.414 1.3.05.398-.37.413-.907.05-1.3l-2.61-2.817zm6.056 2.284-3.02-4.716 2.844-1.82.474.74-2 1.282.741 1.158 1.752-1.121.475.74-1.752 1.122.854 1.334 2-1.28.475.74zm10.494-8.115a1.2 1.2 0 0 1 .909-1.433 1.2 1.2 0 0 1 1.433.909 1.2 1.2 0 0 1-.908 1.433 1.2 1.2 0 0 1-1.434-.909m14.993.282.96.125c-.217.916-1.057 1.476-2.025 1.349-1.285-.169-2.02-1.451-1.8-3.14.222-1.69 1.264-2.74 2.533-2.574.928.122 1.576.836 1.595 1.742l-.96-.125c-.055-.379-.35-.651-.747-.703-.714-.094-1.274.607-1.429 1.79-.155 1.19.214 2.004.944 2.1.436.057.795-.162.929-.564m5.18 2.755c-1.213-.383-1.704-1.779-1.194-3.397s1.712-2.48 2.926-2.097c1.213.382 1.704 1.779 1.194 3.396-.51 1.618-1.713 2.48-2.926 2.098m.277-.878c.671.212 1.34-.391 1.695-1.52.356-1.13.154-2.007-.517-2.219s-1.34.392-1.696 1.521-.154 2.006.518 2.218m4.123 2.39 2.576-4.972.888.46-2.171 4.19 2.038 1.057-.405.781zm4.968 2.71 3.412-4.441.793.61-2.876 3.742 1.82 1.399-.535.697zm4.74 3.774 4.136-3.776 2.277 2.494-.65.593-1.602-1.755-1.016.928 1.402 1.536-.65.593-1.402-1.536-1.17 1.068 1.602 1.755-.65.593zm6.964 6.347.517.818c-.842.42-1.81.132-2.331-.692-.693-1.096-.178-2.482 1.261-3.393 1.44-.91 2.913-.782 3.598.3.5.79.366 1.746-.318 2.34l-.518-.818c.256-.285.276-.686.063-1.024-.385-.608-1.283-.59-2.29.047-1.014.642-1.404 1.447-1.01 2.07.235.37.633.507 1.028.352m.883 4.928 4.363-1.8-.604-1.465.813-.335 1.587 3.845-.814.336-.6-1.457-4.364 1.8zm2.843 11.87c-.05-1.271 1.099-2.205 2.793-2.27 1.695-.067 2.913.774 2.963 2.045s-1.1 2.205-2.794 2.27c-1.695.067-2.912-.774-2.962-2.045m.92-.036c.027.703.82 1.129 2.003 1.083s1.94-.533 1.913-1.236c-.027-.704-.82-1.129-2.004-1.083-1.183.046-1.94.532-1.913 1.236m.288 7.84 4.082.556-.124.912-5.549-.756.179-1.308 4.812-1.008.004-.031-4.59-.626.125-.912 5.549.757-.204 1.49-4.28.894zm-3.852 8.426 4.954 2.61-.765 1.451c-.641 1.218-2.086 1.523-3.558.747s-2.037-2.14-1.396-3.358zm.312 1.294-.298.567c-.377.715.043 1.514 1.083 2.063 1.04.548 1.937.442 2.314-.273l.298-.566zm-3.68 4.693L88 78.128l-2.072 2.666-.694-.54 1.457-1.876-1.086-.845-1.276 1.643-.695-.54 1.276-1.642-1.251-.972-1.458 1.876-.695-.54zm-3.972 4.779 3.746 4.162-.743.67-3.158-3.51-1.707 1.537-.588-.654zm-4.217 3.655.467.746-.984.615 2.035 3.256.97-.606.467.746-2.788 1.743-.467-.747.97-.606-2.035-3.256-.984.615-.466-.747zm-6.106 3.508 3.557 4.601-.934.379-2.836-3.737-.03.012.567 4.657-.919.372-.65-5.779zm-4.978 1.886L65.46 94l-3.304.696-.181-.861 2.325-.49-.284-1.347-2.035.43-.182-.862 2.035-.429-.326-1.55-2.325.49-.182-.86zm-7.03 4.382-1.039.034c-.456.015-.757.329-.742.785s.336.75.792.734l1.04-.034zm.895-3.231.184 5.597-1.999.065c-1.04.035-1.79-.613-1.82-1.58-.025-.72.357-1.285.973-1.546l-1.28-2.407 1.096-.036 1.211 2.282.712-.024-.077-2.318zm-7.473-.09-.29 2.335 1.37 3.443-1.072-.133-.924-2.42-1.49 2.12-1.04-.13 2.172-3.003.29-2.334z"
    style="mix-blend-mode: hard-light"
  />
</svg>
