<svg
  xmlns="http://www.w3.org/2000/svg"
  width="300"
  height="450"
  fill="none"
  viewBox="0 0 300 450"
>
  <g clip-path="url(#a)">
    <path
      fill="currentColor"
      d="M145.26 412.531c.328 0 .615.122.861.368a.994.994 0 0 1 .368.799c0 .123-.061.492-.184 1.107a28.84 28.84 0 0 1-.553 2.213c-.246.819-.574 1.7-.984 2.643-.41.943-.901 1.824-1.475 2.643a7.896 7.896 0 0 1-1.906 1.967 4.098 4.098 0 0 1-2.458.799c-1.353 0-2.459-.553-3.32-1.659-.574-.697-1.024-1.599-1.352-2.705-.287-1.147-.492-2.438-.615-3.873-.041-.041-.061-.123-.061-.245-.164-2.172-.984-4.365-2.459-6.578a20.917 20.917 0 0 0-5.348-5.716 178.404 178.404 0 0 1-3.504 7.56c-1.229 2.459-2.582 4.672-4.057 6.639-1.475 1.967-3.114 3.565-4.917 4.795-1.763 1.188-3.75 1.782-5.963 1.782s-4.2-.368-5.963-1.106a11.9 11.9 0 0 1-4.487-3.442 14.466 14.466 0 0 1-2.459-4.488c-.532-1.721-.799-3.565-.799-5.532 0-2.09.328-4.139.984-6.147.656-2.008 1.598-3.791 2.827-5.348a14.546 14.546 0 0 1 4.488-3.872c1.803-.984 3.831-1.476 6.085-1.476.328 0 .615.123.861.369s.369.533.369.861c0 .327-.123.614-.369.86a1.18 1.18 0 0 1-.861.369c-1.885 0-3.565.43-5.04 1.291a11.913 11.913 0 0 0-3.75 3.258c-1.024 1.352-1.803 2.889-2.336 4.61a17.576 17.576 0 0 0-.799 5.225c0 1.68.225 3.258.676 4.733.451 1.434 1.127 2.684 2.029 3.75 2.049 2.418 4.897 3.627 8.544 3.627 1.844 0 3.524-.554 5.041-1.66 1.557-1.107 2.991-2.582 4.302-4.426 1.312-1.844 2.541-3.934 3.689-6.27a171.403 171.403 0 0 0 3.319-7.315 10.331 10.331 0 0 0-.983-.43 10.237 10.237 0 0 0-.984-.43 16.061 16.061 0 0 0-2.336-.615 9.838 9.838 0 0 0-2.705-.123c-.901.082-1.823.348-2.766.799-.942.41-1.864 1.066-2.766 1.967a1.25 1.25 0 0 1-.922.369c-.328 0-.615-.123-.86-.369-.492-.574-.492-1.147 0-1.721 1.803-1.803 3.831-2.93 6.085-3.381 2.254-.451 4.631-.205 7.131.738l2.028.922a283.387 283.387 0 0 1 3.074-6.885c1.024-2.213 2.09-4.159 3.196-5.839 1.147-1.722 2.377-3.094 3.688-4.119 1.353-1.024 2.828-1.537 4.426-1.537.41 0 .717.144.922.431.287.368.369.717.246 1.045-.41 1.721-.902 3.934-1.475 6.638a186.63 186.63 0 0 0-1.476 8.606 165.79 165.79 0 0 0-1.106 9.036c-.246 2.992-.287 5.635-.123 7.93v.246c.041.041.061.102.061.184v.185c.082 1.188.226 2.233.431 3.134.246.902.594 1.619 1.045 2.152.369.492.84.738 1.414.738.696 0 1.352-.39 1.967-1.168a12.456 12.456 0 0 0 1.598-2.705 24.62 24.62 0 0 0 1.106-3.012c.287-.984.431-1.66.431-2.029 0-.327.123-.594.368-.799.246-.246.533-.368.861-.368Zm-18.502-10.573c2.827 1.967 5.102 4.405 6.823 7.315a84.25 84.25 0 0 1 .676-7.008c.328-2.418.676-4.713 1.045-6.885.369-2.172.737-4.159 1.106-5.962.369-1.803.676-3.258.922-4.365-1.024.41-2.008 1.148-2.95 2.213-.902 1.066-1.783 2.377-2.643 3.934a57.842 57.842 0 0 0-2.521 5.041 265.66 265.66 0 0 0-2.458 5.717Zm26.637.307c.368 0 .84.143 1.413.43.615.246 1.127.902 1.537 1.967.246.574.41 1.23.492 1.967.123.738.184 1.558.184 2.459 0 1.68-.205 3.463-.614 5.348a21.259 21.259 0 0 1-1.722 5.164c-.778 1.557-1.741 2.868-2.889 3.934-1.106 1.024-2.417 1.536-3.934 1.536-1.557 0-2.704-.655-3.442-1.967l-.061-.061c0-.041-.021-.082-.062-.123l-.307 1.168c-.123.656-.513.983-1.168.983a.687.687 0 0 1-.308-.061 1.13 1.13 0 0 1-.737-.553 1.073 1.073 0 0 1-.185-.922l7.746-33.317a1.13 1.13 0 0 1 .553-.738c.287-.205.594-.266.922-.184.328.082.574.266.738.553.204.287.266.594.184.922l-3.381 14.507c.738-.942 1.516-1.68 2.336-2.213.861-.533 1.762-.799 2.705-.799Zm-5.533 20.347c1.025 0 1.947-.451 2.766-1.353.82-.901 1.517-2.028 2.09-3.381a18.67 18.67 0 0 0 1.353-4.364c.328-1.598.492-3.073.492-4.426 0-.737-.041-1.393-.123-1.967-.041-.615-.164-1.127-.369-1.537a2.105 2.105 0 0 0-.246-.553c-.123-.205-.266-.307-.43-.307-.779 0-1.619.471-2.521 1.414-.86.901-1.659 2.069-2.397 3.503-.738 1.394-1.352 2.93-1.844 4.611-.451 1.68-.676 3.278-.676 4.794 0 1.271.184 2.213.553 2.828.287.492.738.738 1.352.738Zm29.004-10.204c.328.082.594.266.799.553.205.287.267.594.185.922-.123.533-.349 1.168-.677 1.905-.286.697-.717 1.373-1.29 2.029-.574.615-1.291 1.147-2.152 1.598-.82.41-1.824.615-3.012.615h-.676a3.13 3.13 0 0 1-.615-.062c-.778 1.476-1.68 2.705-2.704 3.689-1.025.942-2.131 1.413-3.32 1.413-1.475 0-2.582-.532-3.319-1.598-.697-.942-1.066-2.151-1.107-3.627a22.513 22.513 0 0 1 .308-4.425c.205-1.476.471-2.787.799-3.934.328-1.189.533-1.906.614-2.152.205-.656.636-.942 1.291-.86.205-1.517.656-2.767 1.353-3.75.532-.779 1.188-1.373 1.967-1.783a5.055 5.055 0 0 1 2.581-.676c.328 0 .738.062 1.23.184.492.123.963.431 1.414.923.45.45.84 1.126 1.168 2.028.327.861.491 2.029.491 3.504 0 1.311-.143 2.725-.43 4.241a27.308 27.308 0 0 1-1.229 4.426h.184c.984 0 1.762-.205 2.336-.615.615-.409 1.086-.86 1.414-1.352.369-.533.614-1.024.737-1.475.123-.451.185-.697.185-.738.082-.328.266-.594.553-.799.287-.205.594-.266.922-.184Zm-13.462 10.204c.574 0 1.168-.287 1.783-.861.655-.615 1.27-1.455 1.844-2.52a8.86 8.86 0 0 1-3.074-2.705 11.37 11.37 0 0 1-1.659-3.811c-.205.861-.39 1.762-.554 2.705a31.779 31.779 0 0 0-.368 2.643c-.041.819-.021 1.578.061 2.274.123.697.328 1.25.615 1.66.123.164.266.307.43.43.205.123.512.185.922.185Zm4.672-5.656a23.131 23.131 0 0 0 1.229-4.057c.287-1.434.431-2.766.431-3.995 0-.287-.021-.676-.062-1.168a6.598 6.598 0 0 0-.246-1.352 3.416 3.416 0 0 0-.553-1.168 1.169 1.169 0 0 0-.984-.492c-1.065 0-1.905.471-2.52 1.414-.655.983-.983 2.213-.983 3.688 0 1.434.307 2.827.922 4.18.655 1.352 1.577 2.336 2.766 2.95Zm24.206-4.303c.328.082.574.267.738.554.205.287.266.594.184.922-.082.451-.307 1.291-.676 2.52a25.499 25.499 0 0 1-1.352 3.688 13.997 13.997 0 0 1-2.152 3.32c-.86.942-1.864 1.413-3.012 1.413-.901 0-1.598-.143-2.09-.43-.492-.328-.86-.656-1.106-.983a4.66 4.66 0 0 1-.554-1.107 8.992 8.992 0 0 1-1.967 1.783 4.24 4.24 0 0 1-2.397.737c-.779 0-1.393-.143-1.844-.43-.451-.287-.799-.594-1.045-.922a3.489 3.489 0 0 1-.676-1.66c-.123-.655-.164-1.27-.123-1.844 0-.573.061-1.086.184-1.536.082-.492.144-.8.185-.923l3.319-14.506a1.13 1.13 0 0 1 .553-.738c.287-.205.595-.266.922-.184.328.081.574.266.738.553.205.287.266.594.184.922l-3.319 14.568v.062c-.205.573-.328 1.27-.369 2.09-.041.778.082 1.352.369 1.721.164.246.471.369.922.369.533 0 1.066-.246 1.598-.738a10.204 10.204 0 0 0 1.476-1.721 16.6 16.6 0 0 0 1.29-2.152 22.56 22.56 0 0 0 .861-2.028l2.951-12.724a1.13 1.13 0 0 1 .553-.738c.287-.205.594-.266.922-.184.328.081.574.266.737.553.205.287.267.594.185.922l-3.75 16.228v.061c-.082.246-.143.595-.184 1.045-.041.451.041.799.246 1.045.246.287.655.431 1.229.431.451 0 .922-.287 1.414-.861.492-.574.942-1.311 1.352-2.213.451-.901.84-1.885 1.168-2.95.369-1.066.656-2.07.861-3.012a1.13 1.13 0 0 1 .553-.738c.287-.205.594-.267.922-.185Zm7.316 0c.779.205 1.107.697.984 1.476a600.74 600.74 0 0 0-.676 2.52 21.812 21.812 0 0 1-1.414 3.688 13.997 13.997 0 0 1-2.152 3.32c-.86.942-1.844 1.413-2.95 1.413-.943 0-1.66-.143-2.152-.43-.491-.328-.86-.656-1.106-.983a3.257 3.257 0 0 1-.553-1.291 4.716 4.716 0 0 1-.185-1.23c0-.409.041-.758.123-1.045.041-.328.082-.553.123-.676l3.135-13.523h-1.414a1.18 1.18 0 0 1-.86-.369 1.18 1.18 0 0 1-.369-.861c0-.327.123-.614.369-.86a1.18 1.18 0 0 1 .86-.369h1.967l1.783-7.745c.082-.328.266-.594.553-.799.287-.205.595-.267.922-.185.328.082.574.267.738.553.205.287.266.595.184.923l-1.659 7.253h1.475c.328 0 .615.123.861.369.245.246.368.533.368.86 0 .328-.123.615-.368.861a1.18 1.18 0 0 1-.861.369h-2.029l-3.257 14.138v.061c-.082.246-.144.595-.185 1.045 0 .451.103.799.308 1.045.163.287.573.431 1.229.431.451 0 .901-.287 1.352-.861.492-.574.943-1.311 1.353-2.213.45-.901.86-1.885 1.229-2.95.369-1.066.656-2.07.861-3.012.082-.328.245-.574.491-.738.287-.205.595-.267.922-.185ZM145.26 57.593c.328 0 .615.123.861.369a.993.993 0 0 1 .368.799c0 .123-.061.492-.184 1.106a28.828 28.828 0 0 1-.553 2.213c-.246.82-.574 1.7-.984 2.643-.41.943-.901 1.824-1.475 2.644a7.914 7.914 0 0 1-1.906 1.967 4.1 4.1 0 0 1-2.458.799c-1.353 0-2.459-.553-3.32-1.66-.574-.697-1.024-1.598-1.352-2.705-.287-1.147-.492-2.438-.615-3.872-.041-.041-.061-.123-.061-.246-.164-2.172-.984-4.364-2.459-6.577a20.925 20.925 0 0 0-5.348-5.717 178.377 178.377 0 0 1-3.504 7.56c-1.229 2.46-2.582 4.672-4.057 6.64-1.475 1.966-3.114 3.565-4.917 4.794-1.763 1.189-3.75 1.783-5.963 1.783s-4.2-.37-5.963-1.107a11.895 11.895 0 0 1-4.487-3.442c-1.065-1.311-1.885-2.807-2.459-4.487-.532-1.721-.799-3.566-.799-5.533 0-2.09.328-4.139.984-6.147.656-2.008 1.598-3.79 2.827-5.348a14.552 14.552 0 0 1 4.488-3.872c1.803-.984 3.831-1.475 6.085-1.475.328 0 .615.123.861.368.246.246.369.533.369.861 0 .328-.123.615-.369.86a1.18 1.18 0 0 1-.861.37c-1.885 0-3.565.43-5.04 1.29a11.917 11.917 0 0 0-3.75 3.258c-1.024 1.352-1.803 2.89-2.336 4.61a17.577 17.577 0 0 0-.799 5.225c0 1.68.225 3.258.676 4.734.451 1.434 1.127 2.684 2.029 3.75 2.049 2.417 4.897 3.626 8.544 3.626 1.844 0 3.524-.553 5.041-1.66 1.557-1.106 2.991-2.581 4.302-4.426 1.312-1.844 2.541-3.934 3.689-6.27a171.398 171.398 0 0 0 3.319-7.314 10.335 10.335 0 0 0-.983-.43 10.265 10.265 0 0 0-.984-.431 16.062 16.062 0 0 0-2.336-.615 9.842 9.842 0 0 0-2.705-.123c-.901.082-1.823.349-2.766.8-.942.41-1.864 1.065-2.766 1.967a1.25 1.25 0 0 1-.922.368c-.328 0-.615-.123-.86-.368-.492-.574-.492-1.148 0-1.722 1.803-1.803 3.831-2.93 6.085-3.38 2.254-.451 4.631-.205 7.131.737l2.028.922a283.52 283.52 0 0 1 3.074-6.884c1.024-2.213 2.09-4.16 3.196-5.84 1.147-1.721 2.377-3.094 3.688-4.119 1.353-1.024 2.828-1.536 4.426-1.536.41 0 .717.143.922.43.287.369.369.717.246 1.045-.41 1.721-.902 3.934-1.475 6.639a186.434 186.434 0 0 0-1.476 8.605c-.45 2.992-.819 6.004-1.106 9.037-.246 2.991-.287 5.634-.123 7.93v.245c.041.041.061.102.061.184v.185c.082 1.188.226 2.233.431 3.135.246.901.594 1.619 1.045 2.151.369.492.84.738 1.414.738.696 0 1.352-.39 1.967-1.168a12.432 12.432 0 0 0 1.598-2.705 24.56 24.56 0 0 0 1.106-3.012c.287-.983.431-1.66.431-2.028 0-.328.123-.594.368-.8a1.18 1.18 0 0 1 .861-.368ZM126.758 47.02c2.827 1.967 5.102 4.405 6.823 7.315.123-2.295.348-4.63.676-7.008.328-2.417.676-4.712 1.045-6.884a181.9 181.9 0 0 1 1.106-5.963c.369-1.803.676-3.258.922-4.364-1.024.41-2.008 1.147-2.95 2.213-.902 1.065-1.783 2.377-2.643 3.934a57.72 57.72 0 0 0-2.521 5.04 265.626 265.626 0 0 0-2.458 5.717Zm26.637.307c.368 0 .84.144 1.413.43.615.247 1.127.902 1.537 1.968.246.573.41 1.23.492 1.967.123.737.184 1.557.184 2.459 0 1.68-.205 3.462-.614 5.347a21.242 21.242 0 0 1-1.722 5.164c-.778 1.557-1.741 2.868-2.889 3.934-1.106 1.025-2.417 1.537-3.934 1.537-1.557 0-2.704-.656-3.442-1.967l-.061-.062c0-.04-.021-.082-.062-.123l-.307 1.168c-.123.656-.513.984-1.168.984a.687.687 0 0 1-.308-.062 1.13 1.13 0 0 1-.737-.553 1.073 1.073 0 0 1-.185-.922l7.746-33.317c.082-.328.266-.573.553-.737.287-.205.594-.267.922-.185.328.082.574.267.738.553.204.287.266.595.184.923l-3.381 14.506c.738-.942 1.516-1.68 2.336-2.212.861-.533 1.762-.8 2.705-.8Zm-5.533 20.347c1.025 0 1.947-.45 2.766-1.352.82-.902 1.517-2.029 2.09-3.381a18.675 18.675 0 0 0 1.353-4.365c.328-1.598.492-3.073.492-4.425 0-.738-.041-1.394-.123-1.968-.041-.614-.164-1.126-.369-1.536a2.092 2.092 0 0 0-.246-.553c-.123-.205-.266-.308-.43-.308-.779 0-1.619.471-2.521 1.414-.86.902-1.659 2.07-2.397 3.504-.738 1.393-1.352 2.93-1.844 4.61-.451 1.68-.676 3.278-.676 4.795 0 1.27.184 2.213.553 2.827.287.492.738.738 1.352.738Zm29.004-10.204c.328.082.594.266.799.553.205.287.267.594.185.922-.123.533-.349 1.168-.677 1.906-.286.697-.717 1.373-1.29 2.028-.574.615-1.291 1.148-2.152 1.599-.82.41-1.824.614-3.012.614h-.676c-.205 0-.41-.02-.615-.061-.778 1.475-1.68 2.704-2.704 3.688-1.025.943-2.131 1.414-3.32 1.414-1.475 0-2.582-.533-3.319-1.599-.697-.942-1.066-2.15-1.107-3.626a22.522 22.522 0 0 1 .308-4.426c.205-1.475.471-2.787.799-3.934.328-1.189.533-1.906.614-2.151.205-.656.636-.943 1.291-.861.205-1.516.656-2.766 1.353-3.75.532-.778 1.188-1.373 1.967-1.782a5.057 5.057 0 0 1 2.581-.677c.328 0 .738.062 1.23.185s.963.43 1.414.922c.45.45.84 1.127 1.168 2.028.327.861.491 2.029.491 3.504 0 1.312-.143 2.725-.43 4.242a27.306 27.306 0 0 1-1.229 4.425h.184c.984 0 1.762-.205 2.336-.614.615-.41 1.086-.86 1.414-1.353.369-.532.614-1.024.737-1.475.123-.45.185-.697.185-.738.082-.327.266-.594.553-.799.287-.205.594-.266.922-.184Zm-13.462 10.204c.574 0 1.168-.287 1.783-.86.655-.615 1.27-1.455 1.844-2.52a8.85 8.85 0 0 1-3.074-2.706 11.37 11.37 0 0 1-1.659-3.81c-.205.86-.39 1.761-.554 2.704a31.836 31.836 0 0 0-.368 2.643 13.67 13.67 0 0 0 .061 2.275c.123.696.328 1.25.615 1.66.123.163.266.307.43.43.205.123.512.184.922.184Zm4.672-5.655a23.157 23.157 0 0 0 1.229-4.057c.287-1.435.431-2.766.431-3.996a14.9 14.9 0 0 0-.062-1.168 6.615 6.615 0 0 0-.246-1.352 3.425 3.425 0 0 0-.553-1.168 1.169 1.169 0 0 0-.984-.492c-1.065 0-1.905.471-2.52 1.414-.655.983-.983 2.213-.983 3.688 0 1.434.307 2.828.922 4.18.655 1.352 1.577 2.336 2.766 2.95Zm24.206-4.303c.328.082.574.266.738.553.205.287.266.594.184.922-.082.45-.307 1.291-.676 2.52a25.501 25.501 0 0 1-1.352 3.689 13.994 13.994 0 0 1-2.152 3.319c-.86.943-1.864 1.414-3.012 1.414-.901 0-1.598-.144-2.09-.43-.492-.328-.86-.656-1.106-.984a4.656 4.656 0 0 1-.554-1.106 8.993 8.993 0 0 1-1.967 1.782 4.234 4.234 0 0 1-2.397.738c-.779 0-1.393-.144-1.844-.43-.451-.287-.799-.595-1.045-.923a3.488 3.488 0 0 1-.676-1.66c-.123-.655-.164-1.27-.123-1.843 0-.574.061-1.086.184-1.537.082-.492.144-.8.185-.922l3.319-14.507c.082-.328.266-.574.553-.738.287-.205.595-.266.922-.184.328.082.574.266.738.553.205.287.266.594.184.922l-3.319 14.569v.061c-.205.574-.328 1.27-.369 2.09-.041.779.082 1.352.369 1.721.164.246.471.369.922.369.533 0 1.066-.246 1.598-.738a10.17 10.17 0 0 0 1.476-1.72c.491-.697.922-1.415 1.29-2.152.369-.779.656-1.455.861-2.029l2.951-12.724c.082-.328.266-.574.553-.738.287-.205.594-.266.922-.184.328.082.574.266.737.553.205.287.267.594.185.922l-3.75 16.228v.062c-.082.246-.143.594-.184 1.045-.041.45.041.799.246 1.045.246.287.655.43 1.229.43.451 0 .922-.287 1.414-.86.492-.574.942-1.312 1.352-2.213.451-.902.84-1.886 1.168-2.951a26.39 26.39 0 0 0 .861-3.012 1.13 1.13 0 0 1 .553-.738c.287-.205.594-.266.922-.184Zm7.316 0c.779.205 1.107.697.984 1.475-.123.45-.348 1.291-.676 2.52a21.814 21.814 0 0 1-1.414 3.689 13.994 13.994 0 0 1-2.152 3.319c-.86.943-1.844 1.414-2.95 1.414-.943 0-1.66-.144-2.152-.43-.491-.328-.86-.656-1.106-.984a3.25 3.25 0 0 1-.553-1.29 4.712 4.712 0 0 1-.185-1.23c0-.41.041-.758.123-1.045.041-.328.082-.553.123-.676l3.135-13.524h-1.414a1.18 1.18 0 0 1-.86-.369 1.18 1.18 0 0 1-.369-.86c0-.328.123-.615.369-.86a1.18 1.18 0 0 1 .86-.37h1.967l1.783-7.745c.082-.328.266-.594.553-.799.287-.205.595-.266.922-.184.328.082.574.266.738.553.205.287.266.594.184.922l-1.659 7.253h1.475c.328 0 .615.123.861.37.245.245.368.532.368.86 0 .328-.123.614-.368.86a1.18 1.18 0 0 1-.861.37h-2.029l-3.257 14.137v.062c-.082.246-.144.594-.185 1.045 0 .45.103.799.308 1.045.163.287.573.43 1.229.43.451 0 .901-.287 1.352-.86.492-.574.943-1.312 1.353-2.213.45-.902.86-1.886 1.229-2.951a26.39 26.39 0 0 0 .861-3.012c.082-.328.245-.574.491-.738.287-.205.595-.266.922-.184Z"
    />
    <path
      stroke="currentColor"
      stroke-linecap="round"
      stroke-linejoin="round"
      stroke-width="2"
      d="M14 17.19h269.709M14 28.192h25.895m53.87 0h35.625m18.071 0h136.248M14 39.191h9.133m260.576 0h-81.163M14 50.192h4.493m265.216 0h-81.163M14 61.192h2.409m267.3 0h-80.265M14 72.192h.39m269.319 0H227.13M14 83.194h2.409m267.3 0H227.13M14 94.193h53.093m216.616 0h-48.625M23.081 105.194h23.715m236.913 0h-43.42m-208.604 11H48.48m235.229 0h-39.522M14 127.195h14.16m244.89 0h-28.863M14 138.195h11.045m258.664 0h-42.891M14 149.196h13.152m256.557-.001h-41.653M14 160.196h48.916m220.793 0h-40.364M14 171.196h69.093m200.616 0h-38.976M14 182.197h59.496m210.213-.001h-38.143M14 193.197h32.852m236.857 0h-36.895M14 204.198l44.229-.001m225.48 0h-35.923M14 215.198h12.921m256.788 0h-34.952m34.952 11h-32.732M85.399 39.192h11.15m18.101 0h8.253m33.74 0h35.332m-116.304 11H90m1.302 11H68.247m-11.348 11h40.21m102.802 0h18.398m-.912 11.001H52.411m158.326 11H189.19m-14.844 11.001h-4.799m-12.997 11h-26.986m72.982 22.001h-63.63m63.63 11h-51.824m50.996 11.001h-48.237m46.43 11h-55.227m54.258 11.001H156.55m41.56 11h-20.791m19.403 11h-12.21m10.823 11.001h-4.925m-.487 22h-5.411m-17.979-11h7.813m-43.763 0h-6.377m45.053-11h3.205m-44.194 0h-6.133M63.68 204.197h-1.822m64.43 0h4.295m35.95 0h1.664M115.101 72.193h15.482M68.247 193.197h-.34m25.91 0h1.77m-33.729 0h2.333m59.251 0h-3.734m-9.822-11h8.247m-24.316-11.001h-5.162m7.846-11h-5.184m-4.77-11h-3.8m33.981-11.001h-6.842m9.822-11h52.756m-65.889 0h-9.378m-28.95 11h-3.553m-2.836-11h-3.964m1.503-11.001h-5.475m54.281 0h8.525m-34.634-11H70.793m31.165 0h53.481m-68.891-11h83.897M60.2 138.194h-2.505m16.206 11.001H40.303m43.273 11h-9.675m5.716 22.001h-1.553m25.834 0h-4.492m12.576 11h-10.989M14 116.194h4.095M197.55 127.195h-9.377M217.397 108.939l-38.109-12.513m38.109 12.513-38.109 13.962m38.109-13.962-51.891 8.405m51.891-8.405-33.993-2.351M210.093 111.909v6.21M195.379 349.631c43.641-2.501 74.277-9.599 88.808-14.327M103.115 351.32c-9.216-.582-15.226-1.522-17.819-2.727-7.767-3.613-8.851-29.445-12.645-45.703 15.175 5.178 55.892 15.463 97.368 15.174 43.322-.302 85.384-8.677 114.168-18.484m-175.74 59.042c-11.569.575-19.868 5.763-30.68 6.251-22.256 1.003-48.187-2.421-64.47-4.109M202.469 399.57c2.172-.217 8.134-.052 14.601 2.347m-11.994 6.128c1.478-.087 5.19.052 8.214 1.304m-9.909 8.735c1.652-.087 5.294-.522 6.649-1.565"
    />
    <path
      stroke="currentColor"
      stroke-linecap="round"
      stroke-linejoin="round"
      stroke-width="2"
      d="M75.759 317.285c18.995 7.797 72.939 21.222 139.048 13.312 31.758-3.801 54.328-9.084 69.751-14.233M81.74 345.327c-4.87.98-17.335 2.725-28.238 1.862M114.421 349.794c-34.288 5.877-79.126 3.757-101.089 1.236M72.642 303.195c30.587 3.624 88.26 6.052 136.449-2.141M192.861 249.171v-10.08h61.675v14.342M204.538 118.323h35.919v7.34h-35.919zM235.437 101.865l-13.07-13.07m0 0V67.628m0 21.167-8.859 8.859M209.118 135.156l28.196 16.448M204.538 194.506l38.938 22.714M206.353 161.781l34.102 19.894M207.575 149.523l30.834 17.987M202.837 209.762l42.283 24.665M205.186 177.348l36.591 21.345M209.311 101.855h26.37v7.167m0 8.938v-3.659M210.023 125.931h24.938l11.53 112.892h-47.999l11.531-112.892Z"
    />
    <path
      stroke="currentColor"
      stroke-linecap="round"
      stroke-linejoin="round"
      stroke-width="2"
      d="m247.056 249.387 10.369 6.232c3.559.297 5.687-.614 8.99.001l17.652 21.887m-37.011-28.12-14.924 22.779 1.571 12.724-5.525 13.187m18.878-48.69-27.949 12.417m27.949-12.417H189.56m29.547 12.417-15.095 15.703-22.15 10.525m37.245-26.228-29.547-12.417m-7.698 38.645-9.112 16.966m9.112-16.966-3.783-23.905m3.783 23.905-14.77-15.026m22.468-23.619-5.931 3.198-5.55 11.542m0 0-10.987 8.879m0 0 2.109 12.541L150 306.079m104.889-62.088 21.847-10.923 7.331 2.144M257.738 255.985l-6.754 13.824m0 0 8.011 9.426m-8.011-9.426-12.086 5.084-5.251 10.189M240.638 301.972c10.997-2.449 31.703-7.502 43.778-11.764"
    />
    <path
      stroke="currentColor"
      stroke-linecap="round"
      stroke-linejoin="round"
      stroke-width="2"
      d="M219.846 299.224c13.757-1.989 44.683-7.474 64.921-14.318M177.849 264.04c-11.44 1.057-39.803-.769-60.565-1.705m-39.643 7.8c-13.132-.972-44.377 1.046-64.27 2.645m154.178.983c-10.027-.282-27.378-.886-42.186-1.376m42.186 7.474c-11.813-.951-39.016-4.165-61.657-1.326-4.453.558-9.874-.56-12.43-.56m75.24 6.246c-36.256-5.686-56.742.503-77.58 0m70.659 8.248c-9.787.861-41.672 2.563-61.91 2.563-1.78 0-3.511-.019-5.198-.052m-21.462 10.637c-5.786-.985-24.97-4.713-35.753-3.384-7.182.886-16.63 1.22-24.088 1.308m61.128 10.018c-2.955.369-18.538.714-32.424-1.354-10.19-1.518-21.203-1.272-28.704-.693m63.273 14.989c-6.833-1.169-30.229-5.054-42.693-3.217-8.5 1.252-15.354 1.796-20.58 2.033m64.841 9.714c-5.221-2.202-16.495-5.338-30.767-1.866-13.202 3.212-27.56.491-34.074.883m57.796 6.702c-7.109.692-23.024 3.865-37.216 2.204-7.46-.872-15.702-2.911-20.58-2.374m61.128-58.939c-14.224.301-28.056.039-38.517-1.337-7.517-.989-15.788-.866-22.61-.209m74.464-19.282c-19.184-1.356-53.178 2.801-74.465.32m61.981 27.593c-27.434-2.02-30.11-.546-41.109.341-6.951.561-15.291-1.009-20.872-1.934m65.906 7.426c-15.822-.984-24.724-2.395-36.252-1.561-10.676.771-21.396 1.455-29.654 1.799m86.5-22.713c2.724 0 13.753.303 19.193.303m-37.497-6.768c-3.326-.362-8.92-.868-17.324 0M123.481 268.015c3.368.187 12.865.422 18.736.383m7.986 0c-1.144.115-2.432.2-3.809.261M92.009 289.03c4.464.35 17.343.637 29.669-1.043m19.959-.894c-.561-.108-1.751-.198-3.651-.184m-63.072-11.363c-1.746.312-4.036.704-8.44.653m-8.345-.653c1.508.229 3.004.388 4.455.492m66.768 11.38c1.857-.178 3.491-.301 4.914-.381M13.49 318.746c2.309-.147 2.363-.501 15.336-.737M92.686 107.741l32.258 32.258M71.348 88.295l7.595 7.596M131.288 145.638l9.62 9.619M145.234 147.158v6.611M132.931 160.215h6.333M92.996 148.323l28.395 28.395m13.648 13.648-4.246-4.247M71.942 126.305l7.596 7.596M144.575 198.446l9.62 9.619M158.521 199.966v6.61M146.095 212.392h6.333M13.537 106.169l26.635 26.634M44.499 124.704v6.611M32.073 138.29h6.332M161.826 211.104 156.93 216M161.826 216l-4.896-4.896M47.803 135.842l-4.896 4.896M47.804 140.738l-4.896-4.896M148.351 158.159l-4.896 4.896M148.352 163.055l-4.896-4.896M57.152 190.468l-4.896 4.896M57.152 195.364l-4.896-4.896M122.247 153.769l-4.896 4.896M122.247 158.665l-4.896-4.896M210.208 309.21l19.274 3.581M227.722 306.079l-9.339 1.162M227.722 306.079l17.849 3.356M125.639 113.939l-4.896 4.896M125.64 118.835l-4.896-4.896M71.01 157.767l-4.897 4.896M71.01 162.663l-4.896-4.896M35.884 146.45l-4.896 4.896M35.885 151.346l-4.896-4.896M71.942 113.939l-4.896 4.896M71.942 118.835l-4.895-4.896M168.838 188.02l-4.896 4.896M168.839 192.916l-4.896-4.896M164.275 102.845l-4.896 4.895M164.275 107.741l-4.896-4.896M113.436 204.604l-4.896 4.896M113.437 209.5l-4.896-4.896M283.708 125.207l-4.896 4.896M283.709 130.103l-4.896-4.896M72.245 218.087c-4.674-11.463-.785-25.005 9.933-32.102a26.426 26.426 0 0 1 10.991-4.161c-7.746 8.387-9.083 21.271-2.5 31.215 6.18 9.332 17.465 13.253 27.712 10.513a26.44 26.44 0 0 1-6.921 6.66 26.478 26.478 0 0 1-7.137 3.331M98.406 300.231c4.217.335 12.252.759 20.035.663m37.324-1.339c-15.327-1.648-20.518 2.555-31.555 1.159M85.436 299.466c-6.838.097-16.305.246-21.27-.923-4.964-1.168-10.537-1.411-12.703-1.387"
    />
    <path
      stroke="currentColor"
      stroke-linecap="round"
      stroke-linejoin="round"
      stroke-width="2"
      d="M117.351 215.948a15.34 15.34 0 0 1-4.659.982m-15.144-9.896c2.02 5.327 6.683 8.876 11.931 9.721M137.745 251.268c-6.999-3.302-11.558-5.973-22.341-11.659m0 0c-20.516-10.816-49.418-25.406-61.228-25.909-10.726-.457-27.78 6.702-40.385 13.132m101.613 12.777c7.967-3.733 20.822-13.045 29.884-13.924 11.736-1.139 31.878 10.348 47.374 22.697M210.208 309.232v2.713M246.904 384.635c-.645-6.166 1.277-18.815 14.118-20.079 16.052-1.581 23.35 6.929 18.97 23.904-4.38 16.974-6.05 22.577-16.877 27.237-2.18.939-4.799.847-7.573.051m1.492-29.407c-10.399-2.378-16.208-1.475-19.684.97m19.684-.97c1.671.382 3.201.612 4.6.714 1.075.078 2.073.079 2.998.014m-7.598-.728c-.435-1.21 1.267-4.819 7.935-8.471m-7.353-4.998c8.412-3.796 14.211-2.228 16.548 1.591 1.173 1.916 1.161 5.886-1.304 8.871m-17.318 32.414c-1.464 3.788-6.987 10.265-17.371 5.869-7.964-3.371-12.072-8.62-13.262-12.969m30.633 7.1c-8.414-2.412-18.254-11.295-21.598-17.522m0 0c-1.029-1.917-1.443-3.583-1.009-4.731.905-2.392 2.175-4.608 4.415-6.184m-3.406 10.915c-1.136.13-3.492.733-5.758 2.158m10.451 22.265c-.727 1.944-3.743 5.098-9.998 2.166-5.403-2.532-8.495-6.4-9.372-9.558m5.642-6.609c-.749-2.739-.341-5.12.99-6.452a13.117 13.117 0 0 1 2.287-1.812m-3.277 8.264a6.827 6.827 0 0 0-1.841.246c-1.324.354-2.843 1.147-3.658 2.734-.485.946-.536 2.216-.143 3.629m8.789 9.948c-.494 1.165-2.655 2.933-7.351.692-2.349-1.121-3.861-3.029-4.504-4.923m3.066-5.717c-.902.022-1.623.283-2.166.714-1.291 1.025-1.579 3.006-.9 5.003m5.48 5.867c-.579.568-2.086 1.176-4.116.009-.859.764-2.862 2.039-4.009 1.022m2.645-6.898c-.95.43-2.217 1.615-1.25 3.381m13.235-23.971c1.152 2.631 4.831 8.843 10.34 12.652m-3.56-21.751c.962.611 3.868 3.063 7.795 7.983 4.909 6.149 8.977 8.763 10.467 9.626m-15.878-21.583c1.991.549 7.161 3.091 11.918 8.869s7.383 7.956 8.101 8.323m20.179-25.382c-.046 2.394-1.287 7.669-5.888 9.615m-7.028-1.667c.227-1.269 1.563-3.061 4.254-4.043 2.754-1.006 3.84.127 3.974.308m-8.228 3.735c4.003-.28 6.631-1.8 8.228-3.735m-21.971 1.36c.224-2.062 1.883-6.709 6.727-8.794m5.677-8.553c-3.088.125-10.422 1.92-12.879 9.973M52.347 65.652c.645 6.166-1.277 18.815-14.119 20.079-16.051 1.58-23.35-6.929-18.97-23.904 4.381-16.975 6.05-22.577 16.878-27.238 2.18-.938 4.8-.846 7.573-.05m-1.492 29.407c10.399 2.377 16.209 1.475 19.684-.97m-19.684.97a30.612 30.612 0 0 0-4.6-.714 21.112 21.112 0 0 0-2.998-.015m7.598.729c.435 1.21-1.267 4.82-7.935 8.47m7.353 5c-8.412 3.795-14.21 2.227-16.548-1.592-1.173-1.917-1.161-5.886 1.304-8.871m17.318-32.415c1.464-3.787 6.987-10.264 17.37-5.868 7.965 3.371 12.073 8.62 13.263 12.97m-30.633-7.102c8.414 2.413 18.254 11.295 21.598 17.523m0 0c1.03 1.917 1.443 3.583 1.009 4.73-.905 2.393-2.175 4.61-4.415 6.185m3.406-10.915c1.136-.13 3.492-.733 5.758-2.158m-10.45-22.265c.726-1.944 3.742-5.098 9.997-2.167 5.403 2.533 8.495 6.4 9.373 9.559m-5.643 6.61c.749 2.737.341 5.119-.99 6.45a13.066 13.066 0 0 1-2.287 1.813m3.277-8.264a6.88 6.88 0 0 0 1.84-.246c1.325-.354 2.844-1.148 3.659-2.734.485-.946.536-2.216.144-3.63m-8.79-9.948c.494-1.164 2.655-2.932 7.35-.691 2.35 1.12 3.862 3.029 4.505 4.923m-3.066 5.717c.902-.022 1.623-.284 2.166-.715 1.29-1.024 1.578-3.005.9-5.002m-5.48-5.867c.579-.568 2.086-1.177 4.116-.009.858-.764 2.862-2.039 4.008-1.022m-2.644 6.898c.95-.43 2.217-1.615 1.25-3.382M71.065 49.903c-1.151-2.63-4.831-8.843-10.34-12.652m3.56 21.75c-.962-.61-3.868-3.062-7.795-7.982-4.909-6.15-8.977-8.763-10.467-9.626M61.9 62.976c-1.99-.549-7.161-3.091-11.918-8.87-4.756-5.777-7.383-7.955-8.101-8.322M21.703 71.165c.046-2.394 1.287-7.668 5.888-9.614m7.028 1.666c-.227 1.27-1.563 3.062-4.254 4.044-2.754 1.006-3.84-.127-3.974-.308m8.228-3.736c-4.003.28-6.63 1.801-8.228 3.736m21.971-1.36c-.224 2.062-1.883 6.709-6.727 8.794m-5.677 8.552c3.088-.125 10.422-1.919 12.879-9.972M273.497 415.489c3.02-.7 9.908-4.072 11.823-10.837M266.472 359.94c2.999.131 12.351-.22 16.544-2.08M10.29 405.334c5.563-2.208 16.463-5.3 15.557 0-1.132 6.625-20.095 11.72-11.604 16.107 8.491 4.387 22.926-23.492 38.35-20.945 15.426 2.548-1.839 16.982 10.473 16.699 1.698-.039 9.98-.715 21.852-15.283m-73.112-4.669c7.217-.562 22.871-3.829 23.381 1.272.284 2.831 1.699.708 11.322-1.981s18.255.283 18.255 5.378m-51.511-10.897c7.594-.634 23.716-5.02 25.614 0 .935 2.474 7.642-4.904 20.52 0m-39.647 44.49c13.14-5.874 22.381-26.932 28.551-27.881 7.799-1.2 2.4 5.999 2.7 11.698.24 4.559 5.697 5.516 8.396 5.424 3.257-.111 13.445-.905 23.743-10.651m-69.877-31.347c8.05-.812 25.06-1.948 28.702 0 4.554 2.435 10.639-5.629 28.758-.928 13.462 3.493 38.236-10.001 57.815-25.601m10.608-8.494c7.282-4.296 16.876-4.656 27.63-3.367m55.463 9.45c-10.442-.676-21.433-2.983-32.12-5.222M66.961 391.015c2.168 1.753 5.953 6.727 3.752 12.601-2.75 7.343 10.834-3.855 10.834-10.097 0-6.241 13.401-.308 35.981-20.009m4.773-4.406c8.165-7.87 28.489-23.836 44.465-24.746m0 0c7.361.881 15.265 2.535 23.343 4.228m-80.993 40.665c7.221-4.929 19.158-16.09 36.683-28.959 18.18-13.35 30.539-14.476 44.31-11.706"
    />
    <path
      stroke="currentColor"
      stroke-linecap="round"
      stroke-linejoin="round"
      stroke-width="2"
      d="M144.043 361.63c3.278-2.423 12.067-5.497 22.439-2.602m70.407 15.495c-6.272 2.661-39.726 1.901-59.304-10.454a48.48 48.48 0 0 0-2.367-1.403m-8.736-3.638c11.103-8.264 29.731-4.032 53.3 0 23.57 4.033 43.781-2.816 50.941-6.744m-104.241 6.744c2.755.769 5.681 1.943 8.736 3.638m0 0c4.478-1.331 5.86-3.503 27.3 0 15.488 2.53 26.111 8.259 51.478 0"
    />
    <path
      stroke="currentColor"
      stroke-linecap="round"
      stroke-linejoin="round"
      stroke-width="2"
      d="M140.545 378.74c1.856-2.394 7.794-8.441 16.703-13.47 8.909-5.029 18.56-2.096 22.272 0M223.65 383.876c-4.468-.401-16.619-3.732-31.189-13.079m-155.607 65.08c2.694-2.272 3.737-9.467 6.757-10.628 3.31-1.272.27 8.272 10.415 10.628 4.005.93 21.07-1.628 32.624-14.26m67.368-37.741c4.709-5.118 19.538-12.911 41.183-3.142 21.646 9.77 30.409 10.935 32.085 10.296m-61.775 1.916c4.948-5.028 19.538-12.978 38.31-4.55 7.676 3.447 13.265 5.543 17.245 6.756M78.46 437.486c4.823-2.279 14.593-7.503 15.102-10.173.635-3.338-2.862 9.219 11.444 8.265 14.306-.953 13.194-7.312 21.3-6.835 8.107.477 11.763 6.835 19.87 5.087m-2.888-3.341c15.006-2.614 25.552 2.853 34.295 3.341 8.743.487 13.041 0 26.294-5.087m-85.708 8.743c1.442-1.802 5.777-5.055 11.582-3.656 7.257 1.748 7.431 8.978 27.631 3.656M224.393 436.049c4.681-2.386 17.79-6.443 32.77-3.579 9.433 1.803 16.885.498 21.891-1.426m4.27-12.343c-1.744 2.937-7.601 8.812-17.074 8.812M235.29 353.721c21.812-.798 38.391-6.979 48.788-12.837M13 373.929c6.713-.798 21.835-2.154 28.615-1.197 8.474 1.197 12.063-4.287 32.502-2.393 20.44 1.895 28.914-10.069 57.03-24.925"
    />
  </g>
  <rect
    width="298"
    height="448"
    x="1"
    y="1"
    stroke="currentColor"
    stroke-width="2"
    rx="13"
  />
  <defs>
    <clipPath id="a">
      <rect width="300" height="450" fill="currentColor" rx="14" />
    </clipPath>
  </defs>
</svg>
