<svg xmlns="http://www.w3.org/2000/svg" width="300" height="450" fill="none" viewBox="0 0 300 450">
  <rect width="298" height="448" x="1" y="1" stroke-width="2" rx="13" />
  <path
    fill="currentColor"
    fill-rule="evenodd"
    d="M40.348 33.032a.995.995 0 0 0-.093.421v382.062h-2.122c-4.033 0-7.302-3.227-7.302-7.208V40.24c0-3.981 3.27-7.208 7.302-7.208h2.215Zm13.146 382.483h9.9a1 1 0 0 1-.25-.662v-8.973h-9.4v8.973a1 1 0 0 1-.25.662Zm.25-11.653h192.513v-9.316a1.049 1.049 0 0 1-.271.036H54.018c-.095 0-.187-.013-.274-.037v9.317Zm0-11.262c.087-.024.18-.037.274-.037h40.123c.178-.151.41-.242.664-.242 27.282 0 49.406-21.918 49.406-48.965a51.484 51.484 0 0 0-9.996-30.462 53.95 53.95 0 0 1-3.986 4.38l-4.985 4.908.366.47c.066.085.116.177.151.273 5.865 6.479 9.433 15.052 9.433 24.45 0 20.191-16.467 36.57-36.795 36.57a36.787 36.787 0 0 1-25.509-10.214l-19.146 18.852v.017Zm0-2.867 17.717-17.445c-5.45-5.82-9.015-13.407-9.727-21.8a1.005 1.005 0 0 1-.025-.154l-7.965-95.311v134.71ZM51.7 230.514v3.871h-9.4v-9.28h9.4v5.409Zm2.326 3.344 8.726 104.413c4.071-15.788 18.482-27.465 35.646-27.465 7.367 0 14.226 2.15 19.978 5.854l-64.35-82.802Zm68.241 88.405a34.74 34.74 0 0 0-23.868-9.439c-19.187 0-34.752 15.462-34.752 34.551 0 9.071 3.515 17.324 9.263 23.487l49.357-48.599Zm-47.93 50.043a34.744 34.744 0 0 0 24.061 9.621c19.187 0 34.752-15.463 34.752-34.552 0-9.166-3.589-17.495-9.444-23.679l-49.368 48.61Zm49.652-51.739 4.796-4.722a51.948 51.948 0 0 0 4.157-4.613 52.092 52.092 0 0 0-4.156-4.613l-66.597-65.573 61.8 79.521Zm-69.778-90.226 39.485 38.878v-13.351c0-1.198.725-2.233 1.767-2.692l27.035-14.624a49.448 49.448 0 0 0-25.688-8.37 3.208 3.208 0 0 1-1.815-.65 3.113 3.113 0 0 1-2.16.864h-7.191c-.8 0-1.53-.299-2.08-.791-.551.492-1.281.791-2.082.791h-2.006c-.8 0-1.53-.299-2.081-.791-.55.492-1.28.791-2.08.791h-2.008c-.8 0-1.53-.299-2.08-.791-.55.492-1.28.791-2.081.791h-2.007c-.8 0-1.53-.299-2.08-.791-.551.492-1.28.791-2.081.791H60.97c-.8 0-1.53-.299-2.081-.791-.55.492-1.28.791-2.08.791h-2.008c-.202 0-.4-.019-.59-.055Zm5.701-3.008c0 .577.474 1.045 1.059 1.045h2.007c.584 0 1.058-.468 1.058-1.045v-5.084c0-.577-.474-1.045-1.059-1.045h-2.006c-.585 0-1.059.468-1.059 1.045v5.084Zm-2.044-5.084v5.084c0 .577-.474 1.045-1.059 1.045h-2.006a1.052 1.052 0 0 1-1.06-1.045v-5.084c0-.577.475-1.045 1.06-1.045h2.006c.585 0 1.059.468 1.059 1.045Zm1.022-2.272a3.112 3.112 0 0 1 2.08-.791h2.008c.8 0 1.53.299 2.08.791a3.112 3.112 0 0 1 2.081-.791h2.007c.8 0 1.53.299 2.08.791a3.112 3.112 0 0 1 2.081-.791h2.007c.8 0 1.53.299 2.08.791a3.112 3.112 0 0 1 2.082-.791h2.006c.801 0 1.53.299 2.081.791a3.112 3.112 0 0 1 2.081-.791h7.19c.81 0 1.546.305 2.099.806a3.212 3.212 0 0 1 1.877-.699 49.449 49.449 0 0 0 25.617-8.323l-27.108-14.995a2.942 2.942 0 0 1-1.623-2.623v-14.621L53.744 218.07v1.299c.33-.119.687-.183 1.059-.183h2.006c.8 0 1.53.299 2.081.791Zm-7.19-6.17h-9.4v9.28h9.4v-9.28Zm-9.4-2.018h9.4v-9.281h-9.4v9.281Zm0-11.299h9.4v-9.28h-9.4v9.28Zm0-11.298h9.4v-9.281h-9.4v9.281Zm0-11.299h9.4v-9.28h-9.4v9.28Zm0-11.298h9.4v-9.281h-9.4v9.281Zm0-11.299h9.4v-9.28h-9.4v9.28Zm0-11.298h9.4v-9.28h-9.4v9.28Zm0-11.298h9.4v-9.281h-9.4v9.281Zm0-11.299h9.4v-9.28h-9.4v9.28Zm0-11.298h9.4v-9.281h-9.4v9.281Zm0-11.299h9.4v-9.28h-9.4v9.28Zm0-11.298h9.4v-9.28h-9.4v9.28Zm0-11.299h9.4v-9.28h-9.4v9.28Zm0-11.298h9.4v-9.28h-9.4v9.28Zm0-11.299h9.4v-9.28h-9.4v9.28Zm0-11.298h9.4v-8.859c0-.15.033-.293.093-.421h-9.587c.06.128.093.27.093.421v8.86Zm11.35-9.28c.06.128.094.27.094.421v8.86h9.4v-8.86c0-.15.034-.293.093-.421h-9.586Zm11.445 0c.06.128.093.27.093.421v8.86h9.4v-8.86c0-.15.034-.293.094-.421h-9.587Zm11.445 0c.06.128.093.27.093.421v8.86h9.4v-8.86c0-.15.034-.293.093-.421H76.54Zm11.444 0c.06.128.093.27.093.421v8.86h9.4v-8.86c0-.15.034-.293.094-.421h-9.587Zm11.445 0c.06.128.093.27.093.421v8.86h9.4v-8.86c0-.15.034-.293.093-.421h-9.586Zm11.444 0a.99.99 0 0 1 .093.421v8.86h9.401v-8.86a.99.99 0 0 1 .093-.421h-9.587Zm11.445 0a.99.99 0 0 1 .093.421v8.86h9.4v-8.86c0-.15.034-.293.093-.421h-9.586Zm11.444 0c.06.128.094.27.094.421v8.86h9.4v-8.86a.99.99 0 0 1 .093-.421h-9.587Zm11.445 0a.99.99 0 0 1 .093.421v8.86h9.4v-8.86c0-.15.034-.293.093-.421h-9.586Zm11.445 0c.059.128.093.27.093.421v8.86h9.4v-8.86a.99.99 0 0 1 .093-.421h-9.586Zm11.444 0a.99.99 0 0 1 .093.421v8.86h9.401v-8.86a.99.99 0 0 1 .093-.421h-9.587Zm11.445 0c.059.128.093.27.093.421v8.86h9.4v-8.86a.99.99 0 0 1 .093-.421h-9.586Zm11.444 0a.99.99 0 0 1 .093.421v8.86h9.401v-8.86a.99.99 0 0 1 .093-.421h-9.587Zm11.445 0c.059.128.093.27.093.421v8.86h9.4v-8.86a.99.99 0 0 1 .093-.421h-9.586Zm11.444 0a.99.99 0 0 1 .093.421v8.86h9.401v-8.86a.99.99 0 0 1 .093-.421h-9.587Zm11.445 0a.99.99 0 0 1 .093.421v8.86h9.4v-8.86c0-.15.034-.293.093-.421h-9.586Zm11.444 0a.99.99 0 0 1 .093.421v8.86h9.401v-8.86a.99.99 0 0 1 .093-.421h-9.587Zm11.445 0a.99.99 0 0 1 .093.421v8.86h9.4v-8.86c0-.15.034-.293.093-.421h-9.586Zm11.444 0h2.215c4.032 0 7.301 3.227 7.301 7.208v368.067c0 3.981-3.269 7.208-7.301 7.208h-2.122V33.453a.99.99 0 0 0-.093-.421Zm-1.951 11.298h-9.4v9.28h9.4v-9.28Zm0 11.299h-9.4v9.28h9.4v-9.28Zm0 11.298h-9.4v9.28h9.4v-9.28Zm0 11.298h-9.4v9.28h9.4v-9.28Zm0 11.299h-9.4v9.28h9.4v-9.28Zm0 11.298h-9.4v9.281h9.4v-9.281Zm0 11.299h-9.4v9.28h9.4v-9.28Zm0 11.298h-9.4v9.281h9.4v-9.281Zm0 11.299h-9.4v9.28h9.4v-9.28Zm0 11.298h-9.4v9.28h9.4v-9.28Zm0 11.298h-9.4v9.281h9.4v-9.281Zm0 11.299h-9.4v9.28h9.4v-9.28Zm0 11.298h-9.4v9.281h9.4v-9.281Zm0 11.299h-9.4v9.28h9.4v-9.28Zm0 11.298h-9.4v9.281h9.4v-9.281Zm0 11.299h-9.4v7.755c.051.221.078.451.078.687v.838h9.322v-9.28Zm0 11.298h-9.322v2.228c0 .236-.027.466-.078.686v6.366h9.4v-9.28Zm0 11.298h-9.4v9.281h9.4v-9.281Zm0 11.299h-9.4v9.28h9.4v-9.28Zm0 11.298h-9.4v9.281h9.4V259Zm0 11.299h-9.4v9.28h9.4v-9.28Zm0 11.298h-9.4v9.281h9.4v-9.281Zm0 11.299h-9.4v9.28h9.4v-9.28Zm0 11.298h-9.4v9.28h9.4v-9.28Zm0 11.299h-9.4v9.28h9.4v-9.28Zm0 11.298h-9.4v9.28h9.4v-9.28Zm0 11.298h-9.4v9.281h9.4v-9.281Zm0 11.299h-9.4v9.28h9.4v-9.28Zm0 11.298h-9.4v9.281h9.4v-9.281Zm0 11.299h-9.4v9.28h9.4v-9.28Zm0 11.298h-9.4v9.28h9.4v-9.28Zm0 11.299h-9.4v9.28h9.4v-9.28Zm0 11.298h-9.4v8.973c0 .107-.017.211-.048.307h9.448v-9.28Zm-11.194 9.635a.998.998 0 0 1-.25-.662v-8.973h-9.401v8.973a.998.998 0 0 1-.25.662h9.901Zm-11.445 0a1.003 1.003 0 0 1-.25-.662v-8.973h-9.4v8.973a.998.998 0 0 1-.25.662h9.9Zm-11.444 0a.998.998 0 0 1-.25-.662v-8.973h-9.401v8.973a.998.998 0 0 1-.25.662h9.901Zm-11.445 0a.998.998 0 0 1-.25-.662v-8.973h-9.4v8.973a.998.998 0 0 1-.25.662h9.9Zm-11.444 0a.998.998 0 0 1-.25-.662v-8.973h-9.401v8.973a.998.998 0 0 1-.25.662h9.901Zm-11.445 0a.998.998 0 0 1-.25-.662v-8.973h-9.4v8.973c0 .253-.095.485-.25.662h9.9Zm-11.444 0a.998.998 0 0 1-.25-.662v-8.973h-9.401v8.973a.998.998 0 0 1-.25.662h9.901Zm-11.445 0a.998.998 0 0 1-.25-.662v-8.973h-9.4v8.973c0 .253-.095.485-.25.662h9.9Zm-11.444 0a.999.999 0 0 1-.251-.662v-8.973h-9.4v8.973a.998.998 0 0 1-.25.662h9.901Zm-11.445 0a.998.998 0 0 1-.25-.662v-8.973h-9.4v8.973a.999.999 0 0 1-.251.662h9.901Zm-11.445 0a1.003 1.003 0 0 1-.25-.662v-8.973h-9.4v8.973a.998.998 0 0 1-.25.662h9.9Zm-11.444 0a.998.998 0 0 1-.25-.662v-8.973h-9.401v8.973a.998.998 0 0 1-.25.662h9.901Zm-11.445 0a1.003 1.003 0 0 1-.25-.662v-8.973h-9.4v8.973a1 1 0 0 1-.25.662h9.9Zm-11.444 0a1 1 0 0 1-.25-.662v-8.973h-9.4v8.973a1 1 0 0 1-.25.662h9.9Zm-11.445 0a1 1 0 0 1-.25-.662v-8.973h-9.4v8.973a1 1 0 0 1-.25.662h9.9Zm-11.444 0a1 1 0 0 1-.25-.662v-8.973h-9.4v8.973a1 1 0 0 1-.25.662h9.9Zm171.418-25.142V247.242l-8.528 102.036c-.458 8.88-4.104 16.926-9.824 23.026l18.352 18.069Zm-19.801-19.496c5.119-5.481 8.471-12.619 9.15-20.516a.955.955 0 0 1-.002-.193l.085-1.024c.03-.586.045-1.175.045-1.769 0-19.089-15.565-34.551-34.751-34.551a34.742 34.742 0 0 0-23.885 9.454l49.358 48.599Zm-50.796-47.165 49.368 48.609a34.747 34.747 0 0 1-24.045 9.606c-19.187 0-34.752-15.463-34.752-34.552 0-9.158 3.583-17.481 9.429-23.663Zm5.283-7.013a36.791 36.791 0 0 1 20.04-5.893c17.131 0 31.521 11.632 35.623 27.375l8.718-104.323-64.381 82.841Zm64.053-86.303h-1.726a3.11 3.11 0 0 1-2.081-.791 3.113 3.113 0 0 1-2.081.791h-2.007c-.8 0-1.53-.299-2.081-.791a3.11 3.11 0 0 1-2.08.791h-2.007c-.801 0-1.53-.299-2.081-.791a3.11 3.11 0 0 1-2.081.791h-2.006a3.11 3.11 0 0 1-2.081-.791 3.113 3.113 0 0 1-2.081.791h-2.007c-.8 0-1.53-.299-2.08-.791a3.114 3.114 0 0 1-2.081.791h-7.183a3.112 3.112 0 0 1-2.489-1.234 3.202 3.202 0 0 1-2.223 1.02 49.45 49.45 0 0 0-25.761 8.419l26.994 14.563a2.946 2.946 0 0 1 1.794 2.704v13.351l39.429-38.823Zm-41.262 40.628a.998.998 0 0 1-.211-.614v-14.542a.923.923 0 0 0-.365-.736l-.256-.138a.934.934 0 0 0-.31-.053h-21.239a.928.928 0 0 0-.931.927v21.048c0 .121.023.236.065.341l.125.221c.171.222.44.365.741.365h14.562c.25 0 .478.088.656.234l7.163-7.053Zm-8.974 8.837h-13.407a2.98 2.98 0 0 1-2.434-1.251l-.017-.024a2.925 2.925 0 0 1-.249-.431l-14.834-26.097a1.038 1.038 0 0 1-.384.074h-.128a48.873 48.873 0 0 0-2.78 4.718 1.008 1.008 0 0 1-.541 1.082 48.578 48.578 0 0 0-1.903 4.488.993.993 0 0 1 .148.523c0 .43-.273.797-.657.942a48.196 48.196 0 0 0-1.227 4.418 1.004 1.004 0 0 1-.295 1.392 48.6 48.6 0 0 0-.686 4.693.994.994 0 0 1-.078.904 49.154 49.154 0 0 0-.148 3.816 51.475 51.475 0 0 0 9.955 30.406 53.879 53.879 0 0 1 3.94-4.324l25.725-25.329Zm-32.368 29.353a53.445 53.445 0 0 1-2.432-3.921 1.023 1.023 0 0 1-.243.029h-19.431c-.29 0-.552-.119-.738-.311a53.75 53.75 0 0 1-2.589 4.203h25.433Zm-26.513 1.527-.364.491a53.974 53.974 0 0 1 2.665 3.892h22.905a53.447 53.447 0 0 1 2.707-3.949l-.051-.069c-.146.08-.315.126-.494.126h-26.491c-.373 0-.699-.197-.877-.491Zm27.095 5.204a51.37 51.37 0 0 1 2.117-3.107 53.664 53.664 0 0 0 4.031 4.436l4.984 4.908-.365.47a.987.987 0 0 0-.169.326c-5.837 6.473-9.385 15.025-9.385 24.397 0 20.191 16.467 36.57 36.796 36.57 9.898 0 18.88-3.883 25.492-10.199l19.111 18.817h-40.462a1.027 1.027 0 0 0-.665-.242 49.474 49.474 0 0 1-42.117-23.354 1.017 1.017 0 0 0-.194-.316 48.472 48.472 0 0 1-4.91-10.851 1 1 0 0 0-.319-1.068 48.474 48.474 0 0 1-1.772-10.342.998.998 0 0 0-.069-1.476 51.385 51.385 0 0 1 .737-10.368 1.001 1.001 0 0 0 .196-1.059 51.443 51.443 0 0 1 3.283-10.566 1.006 1.006 0 0 0 .493-1.102 51.397 51.397 0 0 1 2.482-4.721 1.011 1.011 0 0 0 .705-1.153Zm-3.084 1.197h-20.515a53.731 53.731 0 0 1 1.986 3.892h16.542a53.342 53.342 0 0 1 1.987-3.892Zm-2.866 5.91H142.24a53.183 53.183 0 0 1 1.428 3.895.897.897 0 0 1 .074-.003h11.855a53.272 53.272 0 0 1 1.427-3.892Zm-2.036 5.91h-10.712c.36 1.284.672 2.582.935 3.892h8.843c.263-1.31.575-2.608.934-3.892Zm-1.3 5.91h-8.112c.208 1.289.368 2.588.481 3.895l.081-.003h7.069c.113-1.306.274-2.604.481-3.892Zm-.616 5.91h-6.879a53.794 53.794 0 0 1 .045 3.892h6.788a52.47 52.47 0 0 1 .046-3.892Zm.046 5.91h-6.972a50.763 50.763 0 0 1-.404 3.892h7.781a50.267 50.267 0 0 1-.405-3.892Zm.735 5.911h-8.267a.985.985 0 0 1-.173-.015 49.6 49.6 0 0 1-.883 3.907h10.204a50.81 50.81 0 0 1-.881-3.892Zm1.468 5.91h-11.378a50.404 50.404 0 0 1-1.399 3.892h14.177a50.412 50.412 0 0 1-1.4-3.892Zm2.272 5.91h-15.248a1.03 1.03 0 0 1-.59-.185 50.823 50.823 0 0 1-2.076 4.077h19.907a51.073 51.073 0 0 1-1.993-3.892Zm3.201 5.91h-22.177c-.048 0-.095-.004-.141-.01a50.72 50.72 0 0 1-2.72 3.902h27.752a51.234 51.234 0 0 1-2.714-3.892Zm4.349 5.91h-30.719c-.094 0-.185-.013-.272-.036a51.628 51.628 0 0 1-3.716 3.928h38.392a51.698 51.698 0 0 1-3.685-3.892Zm5.935 5.91H128.88c-.192 0-.371-.052-.525-.143a51.528 51.528 0 0 1-5.41 4.035h53.374a51.678 51.678 0 0 1-5.241-3.892Zm8.615 5.902a1.138 1.138 0 0 1-.131.008h-59.121c-.211 0-.408-.064-.571-.172a51.354 51.354 0 0 1-11.555 4.672h82.634a51.33 51.33 0 0 1-11.256-4.508Zm-4.332-67.488-4.796-4.722a51.92 51.92 0 0 1-4.2-4.667 51.862 51.862 0 0 1 4.114-4.559l66.963-65.934-62.081 79.882Zm-41.146-10.998a51.478 51.478 0 0 0 9.995-30.461 48.425 48.425 0 0 0-8.368-27.275 1.009 1.009 0 0 1-.2-.283l-14.926 26.39a1.412 1.412 0 0 1-.04.065 2.975 2.975 0 0 1-2.765 1.856h-13.407l25.725 25.329a54.105 54.105 0 0 1 3.986 4.379Zm-31.576-31.545c.165-.114.367-.181.584-.181h14.688a.93.93 0 0 0 .931-.927v-21.048a.93.93 0 0 0-.931-.927h-21.24a.927.927 0 0 0-.325.059l-.229.123a.924.924 0 0 0-.377.745v14.655c0 .202-.06.39-.163.548l7.062 6.953Zm-2.455-25.101h17.727c1.647 0 2.975 1.322 2.975 2.945V273.5l13.446-23.773a49.468 49.468 0 0 0-9.988-9.872l-24.16 13.068Zm26.121-14.129a51.522 51.522 0 0 1 9.114 9.012l5.103-9.023a16.515 16.515 0 0 1-5.097-4.922l-9.12 4.933Zm8.107-6.687a16.15 16.15 0 0 1-1.688-7.21c0-2.615.62-5.086 1.722-7.278l-10.034-5.551a51.485 51.485 0 0 1-27.52 9.241 1.114 1.114 0 0 0-.97.629c.01.102.015.206.015.311v5.084c0 .074-.002.148-.008.221.168.343.527.595.963.612a51.5 51.5 0 0 1 27.609 9.303l9.911-5.362Zm-8.199-21.356 9.254 5.119a16.518 16.518 0 0 1 5.069-4.868l-5.167-9.269a51.56 51.56 0 0 1-9.156 9.018Zm10.497-10.798 1.381 2.477a1.02 1.02 0 0 1 .617-.205h22.438l1.372-2.441a51.08 51.08 0 0 1-.998-1.451h-23.487c-.065 0-.129-.006-.191-.018-.367.554-.744 1.1-1.132 1.638Zm2.392-3.638h21.146a50.918 50.918 0 0 1-2.102-3.892h-16.942a50.918 50.918 0 0 1-2.102 3.892Zm3.027-5.91h15.092a50.377 50.377 0 0 1-1.492-3.892h-11.986c-.041 0-.08-.003-.119-.007a50.56 50.56 0 0 1-1.495 3.899Zm2.125-5.911h10.843a50.34 50.34 0 0 1-.964-3.891h-8.916a49.882 49.882 0 0 1-.963 3.891Zm1.336-5.91h8.171a50.744 50.744 0 0 1-.483-3.892h-7.206a50.744 50.744 0 0 1-.482 3.892Zm.613-5.91h6.944a51.874 51.874 0 0 1-.028-3.892h-6.888a52.326 52.326 0 0 1-.028 3.892Zm-.07-5.91h7.085c.088-1.305.224-2.603.407-3.892h-7.9c.183 1.289.319 2.587.408 3.892Zm-.731-5.893c.06-.011.122-.017.185-.017h8.364c.237-1.309.523-2.607.857-3.892h-10.266c.335 1.29.622 2.594.86 3.909Zm-1.387-5.798c.147-.082.318-.129.5-.129h10.859a53.816 53.816 0 0 1 1.341-3.892h-14.08a53.525 53.525 0 0 1 1.38 4.021Zm-2.158-5.916a1.02 1.02 0 0 1 .489-.123h15.2a53.633 53.633 0 0 1 1.887-3.892h-19.516a53.316 53.316 0 0 1 1.94 4.015Zm-3.044-5.977c.105-.036.218-.056.336-.056h21.422a53.838 53.838 0 0 1 2.539-3.892h-26.87a53.912 53.912 0 0 1 2.573 3.948Zm-3.675-5.966h28.988a54.077 54.077 0 0 1-2.729-3.892h-23.364a1.04 1.04 0 0 1-.158-.012 53.867 53.867 0 0 1-2.737 3.904Zm3.954-5.91h21.081a53.531 53.531 0 0 1-2.039-3.892h-16.92c-.028 0-.055-.001-.082-.003a54.005 54.005 0 0 1-2.04 3.895Zm2.941-5.91h15.198a53.962 53.962 0 0 1-1.471-3.892h-12.017c-.079 0-.156-.009-.23-.026a53.564 53.564 0 0 1-1.48 3.918Zm2.101-5.91h10.996a53.325 53.325 0 0 1-.974-3.892h-9.047a53.85 53.85 0 0 1-.975 3.892Zm1.359-5.91h8.278a53.244 53.244 0 0 1-.518-3.892h-7.115c-.042 0-.084-.003-.126-.008a52.848 52.848 0 0 1-.519 3.9Zm.673-5.91h6.932a53.178 53.178 0 0 1-.082-3.892h-6.768a53.178 53.178 0 0 1-.082 3.892Zm.01-5.91h6.912c.073-1.311.195-2.61.366-3.892h-7.644c.171 1.283.294 2.581.366 3.892Zm-.675-5.907c.028-.002.057-.003.086-.003h8.177c.23-1.316.51-2.614.84-3.892h-9.943c.329 1.28.61 2.579.84 3.895Zm-1.405-5.913h11.072c.4-1.321.852-2.62 1.354-3.892h-13.78a49.775 49.775 0 0 1 1.354 3.891Zm-2.163-5.825c.126-.055.266-.086.413-.086h15.023a50.664 50.664 0 0 1 1.939-3.891h-19.351a50.903 50.903 0 0 1 1.976 3.977Zm-3.154-5.996h21.706a50.865 50.865 0 0 1 2.647-3.892h-26.999a51.144 51.144 0 0 1 2.646 3.892Zm-4.24-5.91h30.186a51.588 51.588 0 0 1 3.589-3.892H130.95a51.38 51.38 0 0 1 3.589 3.892Zm-5.768-5.904c.036-.004.073-.006.11-.006H170.5a51.686 51.686 0 0 1 5.068-3.892h-51.872a51.62 51.62 0 0 1 5.075 3.898Zm-8.325-5.916h58.372a51.4 51.4 0 0 1 11.261-4.754h-80.894a51.38 51.38 0 0 1 11.261 4.754ZM94.799 55.63h.006c27.282 0 49.406 21.918 49.406 48.964a51.48 51.48 0 0 1-10.597 31.264 54.198 54.198 0 0 0-3.385-3.656l-4.725-4.652c6.018-6.487 9.691-15.141 9.691-24.643 0-20.12-16.471-36.436-36.796-36.436-9.672 0-18.472 3.695-25.038 9.737L53.743 56.892v-1.3c.087.024.18.037.274.037H94.8Zm-41.055-1.982c.087-.024.18-.036.274-.036h191.968c.094 0 .185.012.271.035V44.33H53.744v9.317Zm192.513 1.946a1.036 1.036 0 0 1-.271.036h-41.527c-8.686 0-16.849 2.221-23.941 6.123-.147.38-.519.65-.956.65h-.189a49.574 49.574 0 0 0-7.269 5.187 1.02 1.02 0 0 1-.806.708 49.487 49.487 0 0 0-4.7 4.838 1.014 1.014 0 0 1-.887 1.078 49.019 49.019 0 0 0-3.325 4.699 1.012 1.012 0 0 1-.711 1.18 48.483 48.483 0 0 0-4.527 10.35 1.007 1.007 0 0 1-.399 1.388 48.517 48.517 0 0 0-1.629 10.199 1.002 1.002 0 0 1-.055 1.515 51.373 51.373 0 0 0 .867 10.507.999.999 0 0 1 .138.707 51.46 51.46 0 0 0 6.815 17.105 51.776 51.776 0 0 0 2.806 4.048 53.76 53.76 0 0 1 3.431-3.71l4.669-4.598-.042-.053a1.012 1.012 0 0 1-.177-.335c-5.836-6.449-9.385-14.969-9.385-24.309 0-20.12 16.471-36.436 36.796-36.436 9.664 0 18.457 3.689 25.022 9.722l19.902-19.596c.103-.101.222-.177.35-.226v-.777Zm0 3.509-18.794 18.505c5.966 6.122 9.787 14.307 10.265 23.367l8.529 99.903V59.102Zm-.933 154.877-8.705-101.962c-4.085 15.713-18.489 27.326-35.636 27.326-7.277 0-14.06-2.092-19.769-5.7l64.11 80.336Zm-68.592-86.421a34.81 34.81 0 0 0 24.251 9.767c19.19 0 34.752-15.407 34.752-34.419 0-.602-.016-1.201-.047-1.796l-.084-.984a.985.985 0 0 1 .002-.196c-.699-8.09-4.224-15.379-9.591-20.898l-49.283 48.526Zm47.825-49.94c-6.195-5.667-14.477-9.13-23.574-9.13-19.19 0-34.751 15.407-34.751 34.418 0 8.939 3.44 17.082 9.08 23.2l49.245-48.488Zm-49.492 51.581-4.5 4.431a51.617 51.617 0 0 0-3.579 3.903 51.844 51.844 0 0 0 3.493 3.798l66.596 65.572-62.01-77.704Zm71.192 89.421a1.025 1.025 0 0 1-.437-.255l-40.253-39.634v14.621a2.944 2.944 0 0 1-1.7 2.661l-27.022 14.905a49.446 49.446 0 0 0 25.695 8.375 3.197 3.197 0 0 1 2.267 1.07 3.11 3.11 0 0 1 2.445-1.177h7.183c.8 0 1.53.299 2.081.791a3.11 3.11 0 0 1 2.08-.791h2.007c.801 0 1.53.299 2.081.791a3.11 3.11 0 0 1 2.081-.791h2.006a3.11 3.11 0 0 1 2.081.791 3.113 3.113 0 0 1 2.081-.791h2.007c.8 0 1.53.299 2.08.791a3.114 3.114 0 0 1 2.081-.791h2.007c.801 0 1.53.299 2.081.791a3.11 3.11 0 0 1 2.081-.791h2.006c.343 0 .673.054.981.156v-.722Zm0 3.234a1.06 1.06 0 0 0-.981-.65h-2.006c-.585 0-1.059.468-1.059 1.045v5.084c0 .577.474 1.045 1.059 1.045h2.006c.443 0 .823-.269.981-.65v-5.874Zm-6.09 5.479v-5.084c0-.577-.474-1.045-1.059-1.045h-2.007c-.584 0-1.058.468-1.058 1.045v5.084c0 .577.474 1.045 1.058 1.045h2.007c.585 0 1.059-.468 1.059-1.045Zm-6.169 0v-5.084c0-.577-.474-1.045-1.058-1.045h-2.007c-.585 0-1.059.468-1.059 1.045v5.084c0 .577.474 1.045 1.059 1.045h2.007c.584 0 1.058-.468 1.058-1.045Zm-6.168 0v-5.084c0-.577-.474-1.045-1.059-1.045h-2.006c-.585 0-1.059.468-1.059 1.045v5.084c0 .577.474 1.045 1.059 1.045h2.006c.585 0 1.059-.468 1.059-1.045Zm-6.168 0v-5.084c0-.577-.474-1.045-1.059-1.045h-2.007c-.584 0-1.058.468-1.058 1.045v5.084c0 .577.474 1.045 1.058 1.045h2.007c.585 0 1.059-.468 1.059-1.045Zm-6.169 0v-5.084c0-.577-.474-1.045-1.058-1.045h-7.183c-.584 0-1.058.468-1.058 1.045v5.084c0 .577.474 1.045 1.058 1.045h7.183c.584 0 1.058-.468 1.058-1.045Zm-40.487-17.713 24.157-13.324h-17.81c-1.647 0-2.975-1.322-2.975-2.944v-17.615l-13.441 23.903a49.475 49.475 0 0 0 10.069 9.98Zm-11.153-8.051a51.51 51.51 0 0 0 9.208 9.124l-9.913 5.469a16.505 16.505 0 0 0-4.774-4.85l5.479-9.743Zm-7.244 8.724 3.402-6.05h-20.91l3.235 5.802a16.546 16.546 0 0 1 6.876-1.484c2.66 0 5.173.624 7.397 1.732Zm7.522 7.638 10.729-5.918a51.487 51.487 0 0 0 27.598 9.296c.608.024 1.066.505 1.066 1.051v4.756c0 .545-.458 1.026-1.066 1.05a51.49 51.49 0 0 0-27.682 9.355l-10.613-5.726a16.145 16.145 0 0 0 1.538-6.898c0-2.491-.563-4.853-1.57-6.966Zm-.943 15.638a16.5 16.5 0 0 1-4.762 4.878l5.398 9.496a51.52 51.52 0 0 1 9.151-9.094l-9.787-5.28Zm11.748 6.338a49.473 49.473 0 0 0-10.02 9.956l13.462 23.683v-17.678c0-1.623 1.328-2.945 2.975-2.945h17.711l-24.128-13.016Zm-12.442 9.819-1.992-3.505h-21.19c-.208 0-.401-.061-.562-.165l-1.996 3.527c.127.176.252.353.376.53h25.09l.274-.387Zm-1.614 2.406h-22.41a50.367 50.367 0 0 1 2.221 3.892h17.969a50.356 50.356 0 0 1 2.22-3.892Zm-3.201 5.91h-16.008a50.121 50.121 0 0 1 1.591 3.892h12.826a50.518 50.518 0 0 1 1.591-3.892Zm-2.272 5.91h-11.464c.4 1.276.752 2.574 1.052 3.892h9.361c.3-1.318.651-2.616 1.051-3.892Zm-1.467 5.91h-8.529a50.77 50.77 0 0 1 .563 3.892h7.402c.138-1.313.327-2.611.564-3.892Zm-.736 5.91h-7.058a51.2 51.2 0 0 1 .106 3.892h6.847a51.665 51.665 0 0 1 .105-3.892Zm-.046 5.91h-6.966a53.033 53.033 0 0 1-.331 3.892h7.628a53.59 53.59 0 0 1-.331-3.892Zm.617 5.91h-8.2a53.134 53.134 0 0 1-.776 3.892h9.753a53.139 53.139 0 0 1-.777-3.892Zm1.3 5.91h-10.561c-.08 0-.157-.009-.231-.026a53.646 53.646 0 0 1-1.261 3.918h13.306a53.266 53.266 0 0 1-1.253-3.892Zm2.035 5.91h-14.316c-.182 0-.353-.047-.501-.129a53.337 53.337 0 0 1-1.839 4.021h18.442a53.777 53.777 0 0 1-1.786-3.892Zm-17.313-55.209h19.558l-2.689-4.73a16.54 16.54 0 0 1-7.454 1.76c-2.46 0-4.795-.533-6.891-1.491l-2.524 4.461Zm23.829-46.388 14.975-26.634a2.976 2.976 0 0 1 2.752-1.822h14.696l-27.014-26.599a54.208 54.208 0 0 1-3.34-3.602 51.485 51.485 0 0 0-10.555 31.21c0 .899.024 1.793.073 2.681a.996.996 0 0 1 .077 1.162 48.402 48.402 0 0 0 8.336 23.604Zm34.469-26.442a1.446 1.446 0 0 1-.093.004h-16.649a.928.928 0 0 0-.931.926v21.049c0 .515.42.926.931.926h21.239a.953.953 0 0 0 .359-.071l.179-.099a.925.925 0 0 0 .393-.756v-16.166c0-.139.028-.27.079-.39l-5.507-5.423ZM53.744 59.742v134.962l7.865-92.414c.16-9.575 4.05-18.252 10.295-24.667l-18.16-17.881Zm19.608 19.306c-5.312 5.47-8.816 12.674-9.557 20.671a.993.993 0 0 1 .05.407l-.193 2.264c-.003.172-.004.344-.004.516 0 19.012 15.562 34.419 34.751 34.419a34.817 34.817 0 0 0 24.236-9.751L73.351 79.048Zm44.607 54.727c-5.666 3.527-12.372 5.568-19.56 5.568-17.074 0-31.43-11.515-35.584-27.128L54.14 214.149l63.819-80.374Zm-54.388 71.768 60.66-76.397 4.554 4.484a51.933 51.933 0 0 1 3.536 3.851 51.905 51.905 0 0 1-3.535 3.85l-65.215 64.212Zm70.043-66.439a51.486 51.486 0 0 1 10.596 31.264 48.434 48.434 0 0 1-8.6 27.613l-14.976-26.866a2.976 2.976 0 0 0-2.723-1.756h-14.696l27.014-26.599a53.466 53.466 0 0 0 3.385-3.656Zm-32.405 32.23-5.547 5.462c.05.12.078.252.078.39v16.166c0 .331.175.62.435.784l.09.049c.123.06.261.093.406.093h21.24c.51 0 .931-.411.931-.926v-21.049a.929.929 0 0 0-.931-.926h-16.408a1.02 1.02 0 0 1-.294-.043Zm-1.128 24.962 24.188 13.38a49.528 49.528 0 0 0 10.023-9.875l-13.406-24.048v17.599c0 1.622-1.328 2.944-2.975 2.944h-17.83Zm24.083-70.292c5.584-6.107 8.987-14.208 8.987-23.098 0-19.011-15.562-34.418-34.752-34.418-9.105 0-17.393 3.469-23.59 9.145l49.237 48.48a1.01 1.01 0 0 1 .118-.109Zm12.424 91.929a.973.973 0 0 0 .24-.411 14.466 14.466 0 0 1 12.384-6.943c7.974 0 14.445 6.407 14.445 14.318s-6.471 14.318-14.445 14.318-14.444-6.407-14.444-14.318c0-2.528.661-4.903 1.82-6.964Zm125.279-186.92c5.161 0 9.345 4.131 9.345 9.227v368.067c0 5.095-4.184 9.226-9.345 9.226H38.133c-5.162 0-9.346-4.131-9.346-9.226V40.24c0-5.096 4.184-9.226 9.346-9.226h223.734ZM93.822 221.872a1.06 1.06 0 0 0-.987-.667h-7.191c-.585 0-1.059.468-1.059 1.045v5.084c0 .577.474 1.045 1.059 1.045h7.19c.463 0 .857-.293 1-.702a3.004 3.004 0 0 1-.051-.56v-4.756c0-.167.013-.33.039-.489Zm-11.28 5.462v-5.084c0-.577-.475-1.045-1.06-1.045h-2.006c-.585 0-1.059.468-1.059 1.045v5.084c0 .577.474 1.045 1.059 1.045h2.006c.585 0 1.06-.468 1.06-1.045Zm-6.17 0v-5.084c0-.577-.473-1.045-1.058-1.045h-2.007c-.584 0-1.058.468-1.058 1.045v5.084c0 .577.474 1.045 1.058 1.045h2.007c.585 0 1.059-.468 1.059-1.045Zm-6.168 0v-5.084c0-.577-.473-1.045-1.058-1.045h-2.007c-.585 0-1.059.468-1.059 1.045v5.084c0 .577.474 1.045 1.06 1.045h2.006c.585 0 1.058-.468 1.058-1.045Zm-27.905 9.07v9.281h9.4v-9.281h-9.4Zm9.4 11.299h-9.4v9.28h9.4v-9.28Zm0 11.298h-9.4v9.281h9.4V259Zm0 11.299h-9.4v9.28h9.4v-9.28Zm0 11.298h-9.4v9.281h9.4v-9.281Zm0 11.299h-9.4v9.28h9.4v-9.28Zm0 11.298h-9.4v9.28h9.4v-9.28Zm0 11.299h-9.4v9.28h9.4v-9.28Zm0 11.298h-9.4v9.28h9.4v-9.28Zm0 11.298h-9.4v9.281h9.4v-9.281Zm0 11.299h-9.4v9.28h9.4v-9.28Zm0 11.298h-9.4v9.281h9.4v-9.281Zm0 11.299h-9.4v9.28h9.4v-9.28Zm0 11.298h-9.4v9.28h9.4v-9.28Zm0 11.299h-9.4v9.28h9.4v-9.28Zm0 11.298h-9.4V415.16h9.449a.995.995 0 0 1-.048-.307v-8.973ZM6.515 47.53c-2.087-1.143-2.087-4 0-5.143l9.543-5.225c2.087-1.143 4.696.286 4.696 2.571v10.45c0 2.286-2.609 3.715-4.696 2.572L6.515 47.53ZM7.56 44.1a.965.965 0 0 0 0 1.715l9.543 5.225c.695.38 1.565-.095 1.565-.857v-10.45c0-.763-.87-1.239-1.566-.858L7.56 44.101ZM6.515 65.535c-2.087-1.143-2.087-4 0-5.143l9.543-5.225c2.087-1.143 4.696.286 4.696 2.571v10.45c0 2.286-2.609 3.715-4.696 2.572l-9.543-5.225Zm1.044-3.429a.965.965 0 0 0 0 1.715l9.543 5.225c.695.38 1.565-.096 1.565-.857v-10.45c0-.763-.87-1.239-1.566-.858L7.56 62.106ZM6.515 83.54c-2.087-1.143-2.087-4 0-5.143l9.543-5.225c2.087-1.143 4.696.286 4.696 2.571v10.45c0 2.286-2.609 3.715-4.696 2.572L6.515 83.54ZM7.56 80.11a.965.965 0 0 0 0 1.715l9.543 5.225c.695.38 1.565-.096 1.565-.857v-10.45c0-.763-.87-1.239-1.566-.858L7.56 80.111ZM6.515 101.545c-2.087-1.143-2.087-4 0-5.143l9.543-5.225c2.087-1.143 4.696.286 4.696 2.571V104.2c0 2.285-2.609 3.714-4.696 2.571l-9.543-5.225Zm1.044-3.429a.965.965 0 0 0 0 1.715l9.543 5.225c.695.381 1.565-.095 1.565-.857v-10.45c0-.763-.87-1.239-1.566-.858L7.56 98.116ZM6.515 119.55c-2.087-1.143-2.087-4 0-5.143l9.543-5.225c2.087-1.143 4.696.286 4.696 2.571v10.451c0 2.285-2.609 3.714-4.696 2.571l-9.543-5.225Zm1.044-3.429a.966.966 0 0 0 0 1.715l9.543 5.225c.695.381 1.565-.095 1.565-.857v-10.451c0-.762-.87-1.238-1.566-.857l-9.542 5.225ZM6.515 137.555c-2.087-1.143-2.087-4 0-5.143l9.543-5.225c2.087-1.143 4.696.286 4.696 2.571v10.451c0 2.285-2.609 3.714-4.696 2.571l-9.543-5.225Zm1.044-3.429a.966.966 0 0 0 0 1.715l9.543 5.225c.695.381 1.565-.095 1.565-.857v-10.451c0-.762-.87-1.238-1.566-.857l-9.542 5.225ZM6.515 155.56c-2.087-1.143-2.087-4 0-5.143l9.543-5.225c2.087-1.143 4.696.286 4.696 2.571v10.451c0 2.285-2.609 3.714-4.696 2.571l-9.543-5.225Zm1.044-3.428a.965.965 0 0 0 0 1.714l9.543 5.225c.695.381 1.565-.095 1.565-.857v-10.451c0-.762-.87-1.238-1.566-.857l-9.542 5.226ZM6.515 173.565c-2.087-1.143-2.087-4 0-5.143l9.543-5.225c2.087-1.143 4.696.286 4.696 2.571v10.451c0 2.285-2.609 3.714-4.696 2.571l-9.543-5.225Zm1.044-3.428a.965.965 0 0 0 0 1.714l9.543 5.225c.695.381 1.565-.095 1.565-.857v-10.451c0-.761-.87-1.238-1.566-.857l-9.542 5.226ZM6.515 191.57c-2.087-1.143-2.087-4 0-5.143l9.543-5.225c2.087-1.143 4.696.286 4.696 2.571v10.451c0 2.285-2.609 3.714-4.696 2.571l-9.543-5.225Zm1.044-3.429a.966.966 0 0 0 0 1.715l9.543 5.225c.695.381 1.565-.095 1.565-.857v-10.451c0-.762-.87-1.238-1.566-.857l-9.542 5.225ZM6.515 209.575c-2.087-1.143-2.087-4 0-5.143l9.543-5.225c2.087-1.143 4.696.286 4.696 2.571v10.451c0 2.285-2.609 3.714-4.696 2.571l-9.543-5.225Zm1.044-3.428a.965.965 0 0 0 0 1.714l9.543 5.225c.695.381 1.565-.095 1.565-.857v-10.451c0-.761-.87-1.238-1.566-.857l-9.542 5.226ZM6.515 227.58c-2.087-1.143-2.087-4 0-5.142l9.543-5.226c2.087-1.142 4.696.286 4.696 2.571v10.451c0 2.285-2.609 3.714-4.696 2.571l-9.543-5.225Zm1.044-3.428a.965.965 0 0 0 0 1.714l9.543 5.225c.695.381 1.565-.095 1.565-.857v-10.451c0-.761-.87-1.238-1.566-.857l-9.542 5.226ZM6.515 245.585c-2.087-1.143-2.087-4 0-5.142l9.543-5.226c2.087-1.142 4.696.286 4.696 2.571v10.451c0 2.285-2.609 3.714-4.696 2.571l-9.543-5.225Zm1.044-3.428a.965.965 0 0 0 0 1.714l9.543 5.225c.695.381 1.565-.095 1.565-.857v-10.451c0-.761-.87-1.238-1.566-.857l-9.542 5.226ZM6.515 263.59c-2.087-1.143-2.087-4 0-5.142l9.543-5.226c2.087-1.142 4.696.286 4.696 2.571v10.451c0 2.285-2.609 3.714-4.696 2.571l-9.543-5.225Zm1.044-3.428a.965.965 0 0 0 0 1.714l9.543 5.225c.695.381 1.565-.095 1.565-.857v-10.451c0-.761-.87-1.238-1.566-.857l-9.542 5.226ZM6.515 281.595c-2.087-1.143-2.087-4 0-5.142l9.543-5.226c2.087-1.142 4.696.286 4.696 2.571v10.451c0 2.285-2.609 3.714-4.696 2.571l-9.543-5.225Zm1.044-3.428a.965.965 0 0 0 0 1.714l9.543 5.225c.695.381 1.565-.095 1.565-.857v-10.451c0-.761-.87-1.238-1.566-.857l-9.542 5.226ZM6.515 299.6c-2.087-1.143-2.087-4 0-5.142l9.543-5.226c2.087-1.142 4.696.286 4.696 2.572v10.45c0 2.285-2.609 3.714-4.696 2.571L6.515 299.6Zm1.044-3.428a.965.965 0 0 0 0 1.714l9.543 5.225c.695.381 1.565-.095 1.565-.857v-10.45c0-.762-.87-1.238-1.566-.858l-9.542 5.226ZM6.515 317.605c-2.087-1.143-2.087-4 0-5.142l9.543-5.226c2.087-1.142 4.696.286 4.696 2.571v10.451c0 2.285-2.609 3.714-4.696 2.571l-9.543-5.225Zm1.044-3.428a.965.965 0 0 0 0 1.714l9.543 5.225c.695.381 1.565-.095 1.565-.857v-10.451c0-.761-.87-1.238-1.566-.857l-9.542 5.226ZM6.515 335.61c-2.087-1.143-2.087-4 0-5.142l9.543-5.226c2.087-1.142 4.696.286 4.696 2.572v10.45c0 2.286-2.609 3.714-4.696 2.571l-9.543-5.225Zm1.044-3.428a.965.965 0 0 0 0 1.714l9.543 5.225c.695.381 1.565-.095 1.565-.857v-10.45c0-.762-.87-1.238-1.566-.858l-9.542 5.226ZM6.515 353.615c-2.087-1.143-2.087-4 0-5.142l9.543-5.226c2.087-1.142 4.696.286 4.696 2.572v10.45c0 2.286-2.609 3.714-4.696 2.571l-9.543-5.225Zm1.044-3.428a.965.965 0 0 0 0 1.714l9.543 5.225c.695.381 1.565-.095 1.565-.857v-10.45c0-.762-.87-1.238-1.566-.857l-9.542 5.225ZM6.515 371.62c-2.087-1.143-2.087-4 0-5.142l9.543-5.226c2.087-1.142 4.696.286 4.696 2.572v10.45c0 2.286-2.609 3.714-4.696 2.571l-9.543-5.225Zm1.044-3.428a.965.965 0 0 0 0 1.714l9.543 5.225c.695.381 1.565-.095 1.565-.857v-10.45c0-.762-.87-1.238-1.566-.857l-9.542 5.225ZM6.515 389.625c-2.087-1.143-2.087-4 0-5.142l9.543-5.226c2.087-1.142 4.696.286 4.696 2.572v10.45c0 2.286-2.609 3.714-4.696 2.571l-9.543-5.225Zm1.044-3.428a.965.965 0 0 0 0 1.714l9.543 5.225c.695.381 1.565-.095 1.565-.857v-10.45c0-.762-.87-1.238-1.566-.857l-9.542 5.225ZM6.515 407.63c-2.087-1.143-2.087-4 0-5.142l9.543-5.226c2.087-1.142 4.696.286 4.696 2.572v10.45c0 2.286-2.609 3.714-4.696 2.571l-9.543-5.225Zm1.044-3.428a.965.965 0 0 0 0 1.714l9.543 5.225c.695.381 1.565-.095 1.565-.857v-10.45c0-.762-.87-1.238-1.566-.857l-9.542 5.225ZM260.616 8.148c1.205-1.98 4.217-1.98 5.422 0l5.509 9.05c1.205 1.98-.301 4.454-2.711 4.454h-11.019c-2.41 0-3.916-2.474-2.711-4.453l5.51-9.05Zm3.614.99c-.401-.66-1.405-.66-1.807 0l-5.509 9.05c-.402.66.1 1.485.903 1.485h11.019c.804 0 1.306-.825.904-1.485l-5.51-9.05ZM241.632 8.148c1.205-1.98 4.217-1.98 5.422 0l5.509 9.05c1.205 1.98-.301 4.454-2.711 4.454h-11.019c-2.409 0-3.916-2.474-2.711-4.453l5.51-9.05Zm3.615.99c-.402-.66-1.406-.66-1.808 0l-5.509 9.05c-.402.66.1 1.485.903 1.485h11.019c.804 0 1.306-.825.904-1.485l-5.509-9.05ZM222.647 8.148c1.205-1.98 4.217-1.98 5.422 0l5.51 9.05c1.204 1.98-.302 4.454-2.711 4.454h-11.02c-2.409 0-3.915-2.474-2.711-4.453l5.51-9.05Zm3.615.99c-.402-.66-1.406-.66-1.808 0l-5.509 9.05c-.402.66.1 1.485.903 1.485h11.02c.803 0 1.305-.825.903-1.485l-5.509-9.05ZM203.663 8.148c1.205-1.98 4.217-1.98 5.422 0l5.51 9.05c1.205 1.98-.302 4.454-2.711 4.454h-11.019c-2.41 0-3.916-2.474-2.711-4.453l5.509-9.05Zm3.615.99c-.402-.66-1.406-.66-1.808 0l-5.509 9.05c-.402.66.1 1.485.904 1.485h11.019c.803 0 1.305-.825.903-1.485l-5.509-9.05ZM184.679 8.148c1.205-1.98 4.217-1.98 5.422 0l5.51 9.05c1.205 1.98-.301 4.454-2.711 4.454h-11.019c-2.41 0-3.916-2.474-2.711-4.453l5.509-9.05Zm3.615.99c-.402-.66-1.406-.66-1.807 0l-5.51 9.05c-.402.66.1 1.485.904 1.485H192.9c.803 0 1.305-.825.903-1.485l-5.509-9.05ZM165.693 8.148c1.205-1.98 4.217-1.98 5.422 0l5.51 9.05c1.205 1.98-.301 4.454-2.711 4.454h-11.019c-2.41 0-3.916-2.474-2.711-4.453l5.509-9.05Zm3.615.99c-.402-.66-1.406-.66-1.807 0l-5.51 9.05c-.401.66.101 1.485.904 1.485h11.019c.803 0 1.305-.825.904-1.485l-5.51-9.05ZM146.709 8.148c1.205-1.98 4.218-1.98 5.422 0l5.51 9.05c1.205 1.98-.301 4.454-2.711 4.454h-11.019c-2.41 0-3.916-2.474-2.711-4.453l5.509-9.05Zm3.615.99c-.401-.66-1.406-.66-1.807 0l-5.51 9.05c-.401.66.101 1.485.904 1.485h11.019c.803 0 1.305-.825.904-1.485l-5.51-9.05ZM127.726 8.148c1.204-1.98 4.217-1.98 5.422 0l5.509 9.05c1.205 1.98-.301 4.454-2.711 4.454h-11.019c-2.41 0-3.916-2.474-2.711-4.453l5.51-9.05Zm3.614.99c-.401-.66-1.405-.66-1.807 0l-5.51 9.05c-.401.66.101 1.485.904 1.485h11.019c.803 0 1.305-.825.904-1.485l-5.51-9.05ZM108.741 8.148c1.205-1.98 4.217-1.98 5.422 0l5.509 9.05c1.205 1.98-.301 4.454-2.711 4.454h-11.019c-2.41 0-3.916-2.474-2.711-4.453l5.51-9.05Zm3.614.99c-.401-.66-1.405-.66-1.807 0l-5.509 9.05c-.402.66.1 1.485.903 1.485h11.019c.804 0 1.306-.825.904-1.485l-5.51-9.05ZM89.756 8.148c1.205-1.98 4.217-1.98 5.422 0l5.509 9.05c1.205 1.98-.301 4.454-2.71 4.454h-11.02c-2.41 0-3.916-2.474-2.71-4.453l5.509-9.05Zm3.615.99c-.402-.66-1.406-.66-1.808 0l-5.51 9.05c-.401.66.101 1.485.904 1.485h11.02c.803 0 1.305-.825.903-1.485l-5.51-9.05ZM70.77 8.148c1.205-1.98 4.217-1.98 5.422 0l5.51 9.05c1.204 1.98-.302 4.454-2.712 4.454H67.971c-2.41 0-3.916-2.474-2.71-4.453l5.509-9.05Zm3.615.99c-.402-.66-1.406-.66-1.808 0l-5.51 9.05c-.4.66.101 1.485.904 1.485h11.02c.803 0 1.305-.825.903-1.485l-5.51-9.05ZM51.786 8.148c1.205-1.98 4.217-1.98 5.422 0l5.51 9.05c1.204 1.98-.302 4.454-2.711 4.454h-11.02c-2.41 0-3.915-2.474-2.71-4.453l5.51-9.05Zm3.615.99c-.402-.66-1.406-.66-1.808 0l-5.51 9.05c-.4.66.101 1.485.904 1.485h11.02c.803 0 1.305-.825.903-1.485l-5.51-9.05ZM32.802 8.148c1.205-1.98 4.217-1.98 5.422 0l5.51 9.05c1.205 1.98-.302 4.454-2.711 4.454h-11.02c-2.41 0-3.915-2.474-2.71-4.453l5.51-9.05Zm3.615.99c-.402-.66-1.406-.66-1.808 0l-5.509 9.05c-.402.66.1 1.485.904 1.485h11.019c.803 0 1.305-.825.903-1.485l-5.51-9.05ZM260.616 441.071c1.205 1.979 4.217 1.979 5.422 0l5.509-9.05c1.205-1.98-.301-4.454-2.711-4.454h-11.019c-2.41 0-3.916 2.474-2.711 4.454l5.51 9.05Zm3.614-.99c-.401.66-1.405.66-1.807 0l-5.509-9.05c-.402-.66.1-1.485.903-1.485h11.019c.804 0 1.306.825.904 1.485l-5.51 9.05ZM241.632 441.071c1.205 1.979 4.217 1.979 5.422 0l5.509-9.05c1.205-1.98-.301-4.454-2.711-4.454h-11.019c-2.409 0-3.916 2.474-2.711 4.454l5.51 9.05Zm3.615-.99c-.402.66-1.406.66-1.808 0l-5.509-9.05c-.402-.66.1-1.485.903-1.485h11.019c.804 0 1.306.825.904 1.485l-5.509 9.05ZM222.647 441.071c1.205 1.979 4.217 1.979 5.422 0l5.51-9.05c1.204-1.98-.302-4.454-2.711-4.454h-11.02c-2.409 0-3.915 2.474-2.711 4.454l5.51 9.05Zm3.615-.99c-.402.66-1.406.66-1.808 0l-5.509-9.05c-.402-.66.1-1.485.903-1.485h11.02c.803 0 1.305.825.903 1.485l-5.509 9.05ZM203.663 441.071c1.205 1.979 4.217 1.979 5.422 0l5.51-9.05c1.205-1.98-.302-4.454-2.711-4.454h-11.019c-2.41 0-3.916 2.474-2.711 4.454l5.509 9.05Zm3.615-.99c-.402.66-1.406.66-1.808 0l-5.509-9.05c-.402-.66.1-1.485.904-1.485h11.019c.803 0 1.305.825.903 1.485l-5.509 9.05ZM184.679 441.071c1.205 1.979 4.217 1.979 5.422 0l5.51-9.05c1.205-1.98-.301-4.454-2.711-4.454h-11.019c-2.41 0-3.916 2.474-2.711 4.454l5.509 9.05Zm3.615-.99c-.402.66-1.406.66-1.807 0l-5.51-9.05c-.402-.66.1-1.485.904-1.485H192.9c.803 0 1.305.825.903 1.485l-5.509 9.05ZM165.693 441.071c1.205 1.979 4.217 1.979 5.422 0l5.51-9.05c1.205-1.98-.301-4.454-2.711-4.454h-11.019c-2.41 0-3.916 2.474-2.711 4.454l5.509 9.05Zm3.615-.99c-.402.66-1.406.66-1.807 0l-5.51-9.05c-.401-.66.101-1.485.904-1.485h11.019c.803 0 1.305.825.904 1.485l-5.51 9.05ZM146.709 441.071c1.205 1.979 4.218 1.979 5.422 0l5.51-9.05c1.205-1.98-.301-4.454-2.711-4.454h-11.019c-2.41 0-3.916 2.474-2.711 4.454l5.509 9.05Zm3.615-.99c-.401.66-1.406.66-1.807 0l-5.51-9.05c-.401-.66.101-1.485.904-1.485h11.019c.803 0 1.305.825.904 1.485l-5.51 9.05ZM127.726 441.071c1.204 1.979 4.217 1.979 5.422 0l5.509-9.05c1.205-1.98-.301-4.454-2.711-4.454h-11.019c-2.41 0-3.916 2.474-2.711 4.454l5.51 9.05Zm3.614-.99c-.401.66-1.405.66-1.807 0l-5.51-9.05c-.401-.66.101-1.485.904-1.485h11.019c.803 0 1.305.825.904 1.485l-5.51 9.05ZM108.741 441.071c1.205 1.979 4.217 1.979 5.422 0l5.509-9.05c1.205-1.98-.301-4.454-2.711-4.454h-11.019c-2.41 0-3.916 2.474-2.711 4.454l5.51 9.05Zm3.614-.99c-.401.66-1.405.66-1.807 0l-5.509-9.05c-.402-.66.1-1.485.903-1.485h11.019c.804 0 1.306.825.904 1.485l-5.51 9.05ZM89.756 441.071c1.205 1.979 4.217 1.979 5.422 0l5.509-9.05c1.205-1.98-.301-4.454-2.71-4.454h-11.02c-2.41 0-3.916 2.474-2.71 4.454l5.509 9.05Zm3.615-.99c-.402.66-1.406.66-1.808 0l-5.51-9.05c-.401-.66.101-1.485.904-1.485h11.02c.803 0 1.305.825.903 1.485l-5.51 9.05ZM70.77 441.071c1.205 1.979 4.217 1.979 5.422 0l5.51-9.05c1.204-1.98-.302-4.454-2.712-4.454H67.971c-2.41 0-3.916 2.474-2.71 4.454l5.509 9.05Zm3.615-.99c-.402.66-1.406.66-1.808 0l-5.51-9.05c-.4-.66.101-1.485.904-1.485h11.02c.803 0 1.305.825.903 1.485l-5.51 9.05ZM51.786 441.071c1.205 1.979 4.217 1.979 5.422 0l5.51-9.05c1.204-1.98-.302-4.454-2.711-4.454h-11.02c-2.41 0-3.915 2.474-2.71 4.454l5.51 9.05Zm3.615-.99c-.402.66-1.406.66-1.808 0l-5.51-9.05c-.4-.66.101-1.485.904-1.485h11.02c.803 0 1.305.825.903 1.485l-5.51 9.05ZM32.802 441.071c1.205 1.979 4.217 1.979 5.422 0l5.51-9.05c1.205-1.98-.302-4.454-2.711-4.454h-11.02c-2.41 0-3.915 2.474-2.71 4.454l5.51 9.05Zm3.615-.99c-.402.66-1.406.66-1.808 0l-5.509-9.05c-.402-.66.1-1.485.904-1.485h11.019c.803 0 1.305.825.903 1.485l-5.51 9.05ZM10.079 24.126c-1.205-1.98.3-4.453 2.71-4.453h11.02c2.41 0 3.915 2.474 2.71 4.453l-5.509 9.05c-1.205 1.98-4.217 1.98-5.422 0l-5.51-9.05Zm2.71-2.474c-.803 0-1.305.825-.903 1.484l5.51 9.05c.401.66 1.405.66 1.807 0l5.51-9.05c.4-.66-.101-1.484-.904-1.484h-11.02ZM10.079 425.093c-1.205 1.979.3 4.453 2.71 4.453h11.02c2.41 0 3.915-2.474 2.71-4.453l-5.509-9.05c-1.205-1.98-4.217-1.98-5.422 0l-5.51 9.05Zm2.71 2.474c-.803 0-1.305-.825-.903-1.484l5.51-9.051c.401-.659 1.405-.659 1.807 0l5.51 9.051c.4.659-.101 1.484-.904 1.484h-11.02ZM289.922 24.126c1.205-1.98-.301-4.453-2.711-4.453h-11.019c-2.41 0-3.916 2.474-2.711 4.453l5.509 9.05c1.205 1.98 4.218 1.98 5.422 0l5.51-9.05Zm-2.711-2.474c.803 0 1.305.825.904 1.484l-5.51 9.05c-.401.66-1.406.66-1.807 0l-5.51-9.05c-.401-.66.101-1.484.904-1.484h11.019ZM289.922 425.093c1.205 1.979-.301 4.453-2.711 4.453h-11.019c-2.41 0-3.916-2.474-2.711-4.453l5.509-9.05c1.205-1.98 4.218-1.98 5.422 0l5.51 9.05Zm-2.711 2.474c.803 0 1.305-.825.904-1.484l-5.51-9.051c-.401-.659-1.406-.659-1.807 0l-5.51 9.051c-.401.659.101 1.484.904 1.484h11.019ZM293.485 47.53c2.087-1.143 2.087-4 0-5.143l-9.543-5.225c-2.086-1.143-4.695.286-4.695 2.571v10.45c0 2.286 2.609 3.715 4.695 2.572l9.543-5.225Zm-1.043-3.429a.965.965 0 0 1 0 1.715l-9.543 5.225c-.696.38-1.565-.095-1.565-.857v-10.45c0-.763.869-1.239 1.565-.858l9.543 5.225ZM293.485 65.535c2.087-1.143 2.087-4 0-5.143l-9.543-5.225c-2.086-1.143-4.695.286-4.695 2.571v10.45c0 2.286 2.609 3.715 4.695 2.572l9.543-5.225Zm-1.043-3.429a.965.965 0 0 1 0 1.715l-9.543 5.225c-.696.38-1.565-.096-1.565-.857v-10.45c0-.763.869-1.239 1.565-.858l9.543 5.225ZM293.485 83.54c2.087-1.143 2.087-4 0-5.143l-9.543-5.225c-2.086-1.143-4.695.286-4.695 2.571v10.45c0 2.286 2.609 3.715 4.695 2.572l9.543-5.225Zm-1.043-3.429a.965.965 0 0 1 0 1.715l-9.543 5.225c-.696.38-1.565-.096-1.565-.857v-10.45c0-.763.869-1.239 1.565-.858l9.543 5.225ZM293.485 101.545c2.087-1.143 2.087-4 0-5.143l-9.543-5.225c-2.086-1.143-4.695.286-4.695 2.571V104.2c0 2.285 2.609 3.714 4.695 2.571l9.543-5.225Zm-1.043-3.429a.965.965 0 0 1 0 1.715l-9.543 5.225c-.696.381-1.565-.095-1.565-.857v-10.45c0-.763.869-1.239 1.565-.858l9.543 5.225ZM293.485 119.55c2.087-1.143 2.087-4 0-5.143l-9.543-5.225c-2.086-1.143-4.695.286-4.695 2.571v10.451c0 2.285 2.609 3.714 4.695 2.571l9.543-5.225Zm-1.043-3.429a.966.966 0 0 1 0 1.715l-9.543 5.225c-.696.381-1.565-.095-1.565-.857v-10.451c0-.762.869-1.238 1.565-.857l9.543 5.225ZM293.485 137.555c2.087-1.143 2.087-4 0-5.143l-9.543-5.225c-2.086-1.143-4.695.286-4.695 2.571v10.451c0 2.285 2.609 3.714 4.695 2.571l9.543-5.225Zm-1.043-3.429a.966.966 0 0 1 0 1.715l-9.543 5.225c-.696.381-1.565-.095-1.565-.857v-10.451c0-.762.869-1.238 1.565-.857l9.543 5.225ZM293.485 155.56c2.087-1.143 2.087-4 0-5.143l-9.543-5.225c-2.086-1.143-4.695.286-4.695 2.571v10.451c0 2.285 2.609 3.714 4.695 2.571l9.543-5.225Zm-1.043-3.428a.965.965 0 0 1 0 1.714l-9.543 5.225c-.696.381-1.565-.095-1.565-.857v-10.451c0-.762.869-1.238 1.565-.857l9.543 5.226ZM293.485 173.565c2.087-1.143 2.087-4 0-5.143l-9.543-5.225c-2.086-1.143-4.695.286-4.695 2.571v10.451c0 2.285 2.609 3.714 4.695 2.571l9.543-5.225Zm-1.043-3.428a.965.965 0 0 1 0 1.714l-9.543 5.225c-.696.381-1.565-.095-1.565-.857v-10.451c0-.761.869-1.238 1.565-.857l9.543 5.226ZM293.485 191.57c2.087-1.143 2.087-4 0-5.143l-9.543-5.225c-2.086-1.143-4.695.286-4.695 2.571v10.451c0 2.285 2.609 3.714 4.695 2.571l9.543-5.225Zm-1.043-3.429a.966.966 0 0 1 0 1.715l-9.543 5.225c-.696.381-1.565-.095-1.565-.857v-10.451c0-.762.869-1.238 1.565-.857l9.543 5.225ZM293.485 209.575c2.087-1.143 2.087-4 0-5.143l-9.543-5.225c-2.086-1.143-4.695.286-4.695 2.571v10.451c0 2.285 2.609 3.714 4.695 2.571l9.543-5.225Zm-1.043-3.428a.965.965 0 0 1 0 1.714l-9.543 5.225c-.696.381-1.565-.095-1.565-.857v-10.451c0-.761.869-1.238 1.565-.857l9.543 5.226ZM293.485 227.58c2.087-1.143 2.087-4 0-5.142l-9.543-5.226c-2.086-1.142-4.695.286-4.695 2.571v10.451c0 2.285 2.609 3.714 4.695 2.571l9.543-5.225Zm-1.043-3.428a.965.965 0 0 1 0 1.714l-9.543 5.225c-.696.381-1.565-.095-1.565-.857v-10.451c0-.761.869-1.238 1.565-.857l9.543 5.226ZM293.485 245.585c2.087-1.143 2.087-4 0-5.142l-9.543-5.226c-2.086-1.142-4.695.286-4.695 2.571v10.451c0 2.285 2.609 3.714 4.695 2.571l9.543-5.225Zm-1.043-3.428a.965.965 0 0 1 0 1.714l-9.543 5.225c-.696.381-1.565-.095-1.565-.857v-10.451c0-.761.869-1.238 1.565-.857l9.543 5.226ZM293.485 263.59c2.087-1.143 2.087-4 0-5.142l-9.543-5.226c-2.086-1.142-4.695.286-4.695 2.571v10.451c0 2.285 2.609 3.714 4.695 2.571l9.543-5.225Zm-1.043-3.428a.965.965 0 0 1 0 1.714l-9.543 5.225c-.696.381-1.565-.095-1.565-.857v-10.451c0-.761.869-1.238 1.565-.857l9.543 5.226ZM293.485 281.595c2.087-1.143 2.087-4 0-5.142l-9.543-5.226c-2.086-1.142-4.695.286-4.695 2.571v10.451c0 2.285 2.609 3.714 4.695 2.571l9.543-5.225Zm-1.043-3.428a.965.965 0 0 1 0 1.714l-9.543 5.225c-.696.381-1.565-.095-1.565-.857v-10.451c0-.761.869-1.238 1.565-.857l9.543 5.226ZM293.485 299.6c2.087-1.143 2.087-4 0-5.142l-9.543-5.226c-2.086-1.142-4.695.286-4.695 2.572v10.45c0 2.285 2.609 3.714 4.695 2.571l9.543-5.225Zm-1.043-3.428a.965.965 0 0 1 0 1.714l-9.543 5.225c-.696.381-1.565-.095-1.565-.857v-10.45c0-.762.869-1.238 1.565-.858l9.543 5.226ZM293.485 317.605c2.087-1.143 2.087-4 0-5.142l-9.543-5.226c-2.086-1.142-4.695.286-4.695 2.571v10.451c0 2.285 2.609 3.714 4.695 2.571l9.543-5.225Zm-1.043-3.428a.965.965 0 0 1 0 1.714l-9.543 5.225c-.696.381-1.565-.095-1.565-.857v-10.451c0-.761.869-1.238 1.565-.857l9.543 5.226ZM293.485 335.61c2.087-1.143 2.087-4 0-5.142l-9.543-5.226c-2.086-1.142-4.695.286-4.695 2.572v10.45c0 2.286 2.609 3.714 4.695 2.571l9.543-5.225Zm-1.043-3.428a.965.965 0 0 1 0 1.714l-9.543 5.225c-.696.381-1.565-.095-1.565-.857v-10.45c0-.762.869-1.238 1.565-.858l9.543 5.226ZM293.485 353.615c2.087-1.143 2.087-4 0-5.142l-9.543-5.226c-2.086-1.142-4.695.286-4.695 2.572v10.45c0 2.286 2.609 3.714 4.695 2.571l9.543-5.225Zm-1.043-3.428a.965.965 0 0 1 0 1.714l-9.543 5.225c-.696.381-1.565-.095-1.565-.857v-10.45c0-.762.869-1.238 1.565-.857l9.543 5.225ZM293.485 371.62c2.087-1.143 2.087-4 0-5.142l-9.543-5.226c-2.086-1.142-4.695.286-4.695 2.572v10.45c0 2.286 2.609 3.714 4.695 2.571l9.543-5.225Zm-1.043-3.428a.965.965 0 0 1 0 1.714l-9.543 5.225c-.696.381-1.565-.095-1.565-.857v-10.45c0-.762.869-1.238 1.565-.857l9.543 5.225ZM293.485 389.625c2.087-1.143 2.087-4 0-5.142l-9.543-5.226c-2.086-1.142-4.695.286-4.695 2.572v10.45c0 2.286 2.609 3.714 4.695 2.571l9.543-5.225Zm-1.043-3.428a.965.965 0 0 1 0 1.714l-9.543 5.225c-.696.381-1.565-.095-1.565-.857v-10.45c0-.762.869-1.238 1.565-.857l9.543 5.225ZM293.485 407.63c2.087-1.143 2.087-4 0-5.142l-9.543-5.226c-2.086-1.142-4.695.286-4.695 2.572v10.45c0 2.286 2.609 3.714 4.695 2.571l9.543-5.225Zm-1.043-3.428a.965.965 0 0 1 0 1.714l-9.543 5.225c-.696.381-1.565-.095-1.565-.857v-10.45c0-.762.869-1.238 1.565-.857l9.543 5.225Z"
    clip-rule="evenodd"
  />
  <path
    fill="currentColor"
    fill-rule="evenodd"
    d="M291.677 2.054H8.323c-3.447 0-6.242 2.76-6.242 6.163v433.566c0 3.404 2.795 6.163 6.242 6.163h283.354c3.447 0 6.242-2.759 6.242-6.163V8.217c0-3.404-2.795-6.163-6.242-6.163ZM8.323 0C3.726 0 0 3.679 0 8.217v433.566C0 446.321 3.726 450 8.323 450h283.354c4.597 0 8.323-3.679 8.323-8.217V8.217C300 3.679 296.274 0 291.677 0H8.323Z"
    clip-rule="evenodd"
  />
</svg>
