<svg
  xmlns="http://www.w3.org/2000/svg"
  width="300"
  height="450"
  fill="none"
  viewBox="0 0 300 450"
>
  <path
    fill="currentColor"
    d="M104.758 408.589v1.536c0 1.107.082 2.234.246 3.381.164 1.148.471 2.213.922 3.197a6.809 6.809 0 0 0 1.967 2.335c.82.574 1.885.861 3.196.861 1.558 0 2.931-.246 4.119-.738 1.229-.491 2.295-1.106 3.196-1.844.943-.737 1.722-1.536 2.336-2.397a20.179 20.179 0 0 0 1.598-2.397c.41-.738.697-1.353.861-1.844.205-.492.307-.759.307-.8.082-.327.267-.573.554-.737.286-.205.594-.267.922-.185.327.082.573.267.737.554.205.246.267.532.185.86l-.369 1.107c-.205.614-.553 1.373-1.045 2.274-.451.902-1.066 1.865-1.844 2.889-.738.984-1.66 1.906-2.766 2.766-1.066.861-2.336 1.578-3.812 2.152-1.434.532-3.093.799-4.979.799-2.827 0-4.999-1.066-6.515-3.197-1.517-2.131-2.275-5.143-2.275-9.036v-1.659c-2.09-.246-3.872-.717-5.348-1.414-1.475-.697-2.663-1.537-3.565-2.52-.901-1.025-1.557-2.131-1.967-3.32a10.876 10.876 0 0 1-.615-3.565c0-1.434.246-2.869.738-4.303a14.306 14.306 0 0 1 2.213-3.934c.983-1.27 2.11-2.233 3.38-2.889 1.271-.656 2.582-.984 3.935-.984.328 0 .615.123.86.369.246.205.369.492.369.861 0 .328-.123.615-.369.86a1.176 1.176 0 0 1-.86.369c-2.008 0-3.811.984-5.41 2.951-1.598 1.967-2.397 4.2-2.397 6.7 0 2.377.8 4.282 2.397 5.717 1.599 1.434 3.894 2.315 6.885 2.643.369-2.951 1.086-5.983 2.152-9.098 1.065-3.114 2.376-5.962 3.934-8.544 1.598-2.582 3.401-4.692 5.409-6.331 2.008-1.681 4.118-2.521 6.331-2.521 1.804 0 3.217.738 4.242 2.213 1.065 1.476 1.598 3.463 1.598 5.963 0 2.336-.451 4.692-1.352 7.069a23.476 23.476 0 0 1-3.75 6.516 29.378 29.378 0 0 1-2.52 2.581c-.984.861-2.131 1.64-3.443 2.336-1.311.697-2.807 1.271-4.487 1.721-1.639.451-3.463.677-5.471.677h-.43Zm4.918-17.089a44.9 44.9 0 0 0-3.012 7.192c-.779 2.541-1.332 5.02-1.66 7.438h.184c1.803 0 3.422-.185 4.856-.553 1.476-.41 2.787-.922 3.935-1.537 1.147-.656 2.151-1.352 3.012-2.09a22.686 22.686 0 0 0 2.212-2.275 21.218 21.218 0 0 0 3.32-5.778c.819-2.131 1.229-4.2 1.229-6.208 0-.697-.061-1.373-.184-2.029a6.11 6.11 0 0 0-.615-1.844c-.246-.573-.594-1.024-1.045-1.352-.41-.328-.922-.492-1.537-.492-1.803 0-3.626.84-5.47 2.52-1.845 1.64-3.586 3.975-5.225 7.008Z"
  />
  <path
    fill="currentColor"
    d="M140.309 409.695c.328.082.594.266.799.553.205.287.266.594.184.922-.123.533-.348 1.168-.676 1.906-.287.697-.717 1.373-1.291 2.028-.573.615-1.291 1.148-2.151 1.599-.82.409-1.824.614-3.012.614h-.676c-.205 0-.41-.02-.615-.061-.779 1.475-1.68 2.705-2.705 3.688-1.024.943-2.131 1.414-3.319 1.414-1.475 0-2.582-.533-3.32-1.598-.696-.943-1.065-2.152-1.106-3.627a22.523 22.523 0 0 1 .307-4.426c.205-1.475.472-2.787.799-3.934.328-1.188.533-1.906.615-2.151.205-.656.635-.943 1.291-.861.205-1.516.656-2.766 1.352-3.75.533-.778 1.189-1.373 1.967-1.782a5.06 5.06 0 0 1 2.582-.676c.328 0 .738.061 1.23.184.491.123.963.43 1.413.922.451.451.84 1.127 1.168 2.029.328.86.492 2.028.492 3.503 0 1.312-.143 2.725-.43 4.242a27.238 27.238 0 0 1-1.23 4.426h.185c.983 0 1.762-.205 2.336-.615.614-.41 1.086-.861 1.413-1.352.369-.533.615-1.025.738-1.476.123-.451.184-.696.184-.737.082-.328.267-.595.554-.8.287-.204.594-.266.922-.184Zm-13.462 10.204c.574 0 1.168-.287 1.782-.861.656-.614 1.271-1.454 1.845-2.52a8.847 8.847 0 0 1-3.074-2.704 11.356 11.356 0 0 1-1.66-3.812 45.052 45.052 0 0 0-.553 2.705 31.489 31.489 0 0 0-.369 2.643c-.041.82-.02 1.578.062 2.275.123.696.328 1.25.615 1.659.122.164.266.308.43.431.205.123.512.184.922.184Zm4.672-5.655a23.269 23.269 0 0 0 1.229-4.057c.287-1.434.43-2.766.43-3.996 0-.287-.02-.676-.061-1.168a6.623 6.623 0 0 0-.246-1.352 3.425 3.425 0 0 0-.553-1.168 1.169 1.169 0 0 0-.984-.492c-1.065 0-1.905.472-2.52 1.414-.656.984-.984 2.213-.984 3.688 0 1.435.308 2.828.922 4.18.656 1.353 1.578 2.336 2.767 2.951Z"
  />
  <path
    fill="currentColor"
    d="M155.913 409.941c.779.205 1.107.697.984 1.475a600.74 600.74 0 0 0-.676 2.52 21.821 21.821 0 0 1-1.414 3.689 14.018 14.018 0 0 1-2.151 3.319c-.861.943-1.865 1.414-3.012 1.414-.902 0-1.599-.144-2.09-.43-.492-.328-.861-.656-1.107-.984a4.144 4.144 0 0 1-.615-1.291 6.919 6.919 0 0 1-.123-1.229c0-.41.021-.758.062-1.045.082-.328.143-.553.184-.676l2.767-11.864c.081-.328.122-.738.122-1.229.041-.533-.061-.963-.307-1.291a1.823 1.823 0 0 0-.246-.185c-.082-.082-.287-.123-.614-.123-.738 0-1.455.349-2.152 1.045-.656.697-1.27 1.599-1.844 2.705-.533 1.106-1.045 2.377-1.537 3.811a72.72 72.72 0 0 0-1.352 4.242 296.645 296.645 0 0 1-1.107 4.179 317.093 317.093 0 0 1-.86 3.381c-.123.656-.512.984-1.168.984a.682.682 0 0 1-.307-.062 1.13 1.13 0 0 1-.738-.553 1.072 1.072 0 0 1-.184-.922l4.671-19.978c.082-.327.267-.573.553-.737.287-.205.595-.267.923-.185.327.082.573.267.737.554.205.286.267.594.185.922l-.246.983c.655-.819 1.352-1.496 2.09-2.028.737-.533 1.516-.799 2.336-.799.778 0 1.393.143 1.844.43.45.287.778.574.983.86.328.41.533.881.615 1.414.123.492.184.963.184 1.414 0 .451-.041.84-.123 1.168a9.419 9.419 0 0 0-.061.553l-2.766 11.925v.062c-.082.246-.144.594-.185 1.045-.041.451.041.799.246 1.045.246.287.656.43 1.23.43.45 0 .922-.287 1.413-.861.492-.573.943-1.311 1.353-2.212.45-.902.84-1.885 1.168-2.951.368-1.065.655-2.069.86-3.012.082-.328.267-.574.553-.738.287-.205.595-.266.922-.184Z"
  />
  <path
    fill="currentColor"
    d="M163.281 409.941c.779.205 1.107.697.984 1.475-.123.451-.349 1.291-.676 2.52a21.907 21.907 0 0 1-1.414 3.689 13.99 13.99 0 0 1-2.152 3.319c-.86.943-1.844 1.414-2.95 1.414-.943 0-1.66-.144-2.152-.43-.491-.328-.86-.656-1.106-.984a3.25 3.25 0 0 1-.553-1.291 4.71 4.71 0 0 1-.185-1.229c0-.41.041-.758.123-1.045.041-.328.082-.553.123-.676l3.135-13.524h-1.414c-.328 0-.614-.123-.86-.369a1.176 1.176 0 0 1-.369-.86c0-.328.123-.615.369-.861s.532-.369.86-.369h1.967l1.783-7.745c.082-.328.266-.594.553-.799.287-.205.594-.266.922-.184.328.082.574.266.738.553.205.287.266.594.184.922l-1.659 7.253h1.475c.328 0 .615.123.86.369.246.246.369.533.369.861 0 .328-.123.615-.369.86a1.176 1.176 0 0 1-.86.369h-2.029l-3.258 14.138v.062c-.082.246-.143.594-.184 1.045 0 .451.102.799.307 1.045.164.287.574.43 1.23.43.451 0 .901-.287 1.352-.861.492-.573.943-1.311 1.352-2.212.451-.902.861-1.885 1.23-2.951.369-1.065.656-2.069.86-3.012.082-.328.246-.574.492-.738.287-.205.594-.266.922-.184Z"
  />
  <path
    fill="currentColor"
    d="M180.378 409.941c.328.082.574.266.738.553.205.287.267.594.185.922-.082.451-.308 1.291-.677 2.52a25.275 25.275 0 0 1-1.352 3.689 14.018 14.018 0 0 1-2.151 3.319c-.861.943-1.865 1.414-3.012 1.414-1.107 0-1.967-.41-2.582-1.23-.328-.491-.594-1.126-.799-1.905-.697.942-1.496 1.701-2.398 2.274-.901.574-1.905.861-3.012.861-1.557 0-2.704-.656-3.442-1.967-.615-.984-.922-2.336-.922-4.057 0-1.598.266-3.381.799-5.348a25.768 25.768 0 0 1 2.152-5.471c.901-1.68 1.946-3.094 3.135-4.241 1.188-1.148 2.458-1.721 3.811-1.721.409 0 .901.143 1.475.43.574.246 1.086.901 1.537 1.967l.307-1.414a1.13 1.13 0 0 1 .553-.738c.287-.204.594-.266.922-.184.328.082.574.266.738.553.205.287.266.594.184.922l-3.012 12.909c-.123.451-.225.942-.307 1.475a20.544 20.544 0 0 0-.184 1.66c0 .533.02 1.024.061 1.475.041.451.164.799.369 1.045l.184.185c.082.041.226.061.431.061.45 0 .901-.287 1.352-.861.492-.573.942-1.311 1.352-2.212.451-.902.861-1.885 1.23-2.951.368-1.065.655-2.069.86-3.012.082-.328.267-.574.553-.738.287-.205.595-.266.922-.184Zm-15.06 9.958c1.025 0 1.947-.451 2.767-1.352.86-.902 1.577-2.029 2.151-3.381a23.579 23.579 0 0 0 1.352-4.364c.328-1.599.492-3.074.492-4.426 0-1.517-.184-2.705-.553-3.566a2.725 2.725 0 0 0-.246-.491c-.082-.205-.225-.308-.43-.308-.779 0-1.619.472-2.521 1.414-.86.902-1.659 2.07-2.397 3.504-.738 1.393-1.352 2.93-1.844 4.61-.451 1.68-.676 3.279-.676 4.795 0 1.27.184 2.213.553 2.827.287.492.738.738 1.352.738Z"
  />
  <path
    fill="currentColor"
    d="M195.275 409.634c.328.082.574.266.738.553.205.287.266.594.184.922-.041.082-.143.43-.307 1.045-.164.574-.43 1.27-.799 2.09-.369.819-.84 1.721-1.414 2.705a13.004 13.004 0 0 1-2.151 2.643c-.82.778-1.803 1.434-2.951 1.967-1.147.532-2.459.799-3.934.799-2.049 0-3.647-.861-4.795-2.582-.86-1.352-1.29-3.155-1.29-5.409 0-1.475.204-3.074.614-4.795a20.305 20.305 0 0 1 1.783-4.795c.778-1.516 1.701-2.766 2.766-3.749 1.065-.984 2.254-1.475 3.565-1.475 1.844 0 3.115.778 3.811 2.335.287.697.41 1.455.369 2.275a10.332 10.332 0 0 1-.43 2.459 9.93 9.93 0 0 1-1.045 2.335c-.41.738-.861 1.353-1.352 1.845a1.183 1.183 0 0 1-.861.368c-.328 0-.615-.123-.861-.368a1.183 1.183 0 0 1-.368-.861c0-.369.123-.656.368-.861.369-.409.697-.881.984-1.413a7.785 7.785 0 0 0 .738-1.722 6.427 6.427 0 0 0 .368-1.659c.041-.574-.02-1.045-.184-1.414a1.358 1.358 0 0 0-.43-.553c-.205-.205-.574-.308-1.107-.308-.737 0-1.475.369-2.213 1.107-.737.737-1.413 1.7-2.028 2.889-.574 1.188-1.066 2.52-1.475 3.995a17.945 17.945 0 0 0-.554 4.365c0 1.762.308 3.135.922 4.118.615.943 1.517 1.414 2.705 1.414 1.721 0 3.156-.471 4.303-1.414 1.188-.983 2.131-2.049 2.828-3.196.737-1.189 1.249-2.254 1.536-3.197.328-.983.492-1.495.492-1.536a1.13 1.13 0 0 1 .553-.738c.287-.205.595-.266.922-.184Z"
  />
  <path
    fill="currentColor"
    d="M202.42 409.941c.779.205 1.107.697.984 1.475-.123.451-.349 1.291-.676 2.52a21.821 21.821 0 0 1-1.414 3.689 13.99 13.99 0 0 1-2.152 3.319c-.86.943-1.844 1.414-2.95 1.414-.943 0-1.66-.144-2.152-.43-.491-.328-.86-.656-1.106-.984a3.25 3.25 0 0 1-.553-1.291 4.71 4.71 0 0 1-.185-1.229c0-.41.041-.758.123-1.045.041-.328.082-.553.123-.676l3.135-13.524h-1.414c-.328 0-.614-.123-.86-.369a1.176 1.176 0 0 1-.369-.86c0-.328.123-.615.369-.861s.532-.369.86-.369h1.967l1.783-7.745c.082-.328.266-.594.553-.799.287-.205.594-.266.922-.184.328.082.574.266.738.553.205.287.266.594.184.922l-1.659 7.253h1.475c.328 0 .615.123.86.369.246.246.369.533.369.861 0 .328-.123.615-.369.86a1.176 1.176 0 0 1-.86.369h-2.029l-3.258 14.138v.062c-.081.246-.143.594-.184 1.045 0 .451.103.799.307 1.045.164.287.574.43 1.23.43.451 0 .901-.287 1.352-.861.492-.573.943-1.311 1.352-2.212.451-.902.861-1.885 1.23-2.951.369-1.065.656-2.069.86-3.012.082-.328.246-.574.492-.738.287-.205.594-.266.922-.184ZM104.758 50.904v1.536c0 1.107.082 2.234.246 3.381.164 1.148.471 2.213.922 3.197a6.813 6.813 0 0 0 1.967 2.336c.82.573 1.885.86 3.196.86 1.558 0 2.931-.246 4.119-.737 1.229-.492 2.295-1.107 3.196-1.844.943-.738 1.722-1.537 2.336-2.398.656-.86 1.189-1.66 1.598-2.397.41-.738.697-1.352.861-1.844.205-.492.307-.758.307-.8a1.13 1.13 0 0 1 .554-.737c.286-.205.594-.266.922-.184.327.081.573.266.737.553.205.246.267.533.185.86l-.369 1.107c-.205.615-.553 1.373-1.045 2.274-.451.902-1.066 1.865-1.844 2.89-.738.983-1.66 1.905-2.766 2.765-1.066.861-2.336 1.578-3.812 2.152-1.434.533-3.093.799-4.979.799-2.827 0-4.999-1.066-6.515-3.196-1.517-2.131-2.275-5.143-2.275-9.036v-1.66c-2.09-.246-3.872-.717-5.348-1.414-1.475-.697-2.663-1.537-3.565-2.52-.901-1.025-1.557-2.131-1.967-3.32a10.877 10.877 0 0 1-.615-3.565c0-1.434.246-2.869.738-4.303a14.308 14.308 0 0 1 2.213-3.934c.983-1.27 2.11-2.233 3.38-2.889 1.271-.656 2.582-.983 3.935-.983.328 0 .615.122.86.368.246.205.369.492.369.861 0 .328-.123.615-.369.86a1.177 1.177 0 0 1-.86.37c-2.008 0-3.811.983-5.41 2.95-1.598 1.967-2.397 4.2-2.397 6.7 0 2.377.8 4.282 2.397 5.717 1.599 1.434 3.894 2.315 6.885 2.643.369-2.95 1.086-5.983 2.152-9.098 1.065-3.114 2.376-5.962 3.934-8.544 1.598-2.582 3.401-4.692 5.409-6.331 2.008-1.68 4.118-2.52 6.331-2.52 1.804 0 3.217.737 4.242 2.212 1.065 1.476 1.598 3.463 1.598 5.963 0 2.336-.451 4.692-1.352 7.069a23.476 23.476 0 0 1-3.75 6.516 29.38 29.38 0 0 1-2.52 2.582c-.984.86-2.131 1.639-3.443 2.335-1.311.697-2.807 1.27-4.487 1.722-1.639.45-3.463.676-5.471.676h-.43Zm4.918-17.089a44.907 44.907 0 0 0-3.012 7.192c-.779 2.54-1.332 5.02-1.66 7.438h.184c1.803 0 3.422-.184 4.856-.553 1.476-.41 2.787-.922 3.935-1.537 1.147-.656 2.151-1.352 3.012-2.09a22.673 22.673 0 0 0 2.212-2.274 21.221 21.221 0 0 0 3.32-5.779c.819-2.13 1.229-4.2 1.229-6.208 0-.697-.061-1.373-.184-2.029a6.101 6.101 0 0 0-.615-1.844c-.246-.573-.594-1.024-1.045-1.352-.41-.328-.922-.492-1.537-.492-1.803 0-3.626.84-5.47 2.52-1.845 1.64-3.586 3.976-5.225 7.008Z"
  />
  <path
    fill="currentColor"
    d="M140.309 52.01c.328.082.594.267.799.553.205.287.266.595.184.922-.123.533-.348 1.168-.676 1.906-.287.697-.717 1.373-1.291 2.029-.573.614-1.291 1.147-2.151 1.598-.82.41-1.824.614-3.012.614h-.676c-.205 0-.41-.02-.615-.061-.779 1.475-1.68 2.705-2.705 3.688-1.024.943-2.131 1.414-3.319 1.414-1.475 0-2.582-.533-3.32-1.598-.696-.943-1.065-2.152-1.106-3.627a22.522 22.522 0 0 1 .307-4.426c.205-1.475.472-2.786.799-3.934.328-1.188.533-1.905.615-2.151.205-.656.635-.943 1.291-.86.205-1.517.656-2.767 1.352-3.75.533-.78 1.189-1.373 1.967-1.783a5.063 5.063 0 0 1 2.582-.676c.328 0 .738.061 1.23.184.491.123.963.43 1.413.922.451.45.84 1.127 1.168 2.029.328.86.492 2.028.492 3.503 0 1.312-.143 2.726-.43 4.242a27.21 27.21 0 0 1-1.23 4.426h.185c.983 0 1.762-.205 2.336-.615.614-.41 1.086-.86 1.413-1.352.369-.533.615-1.025.738-1.476.123-.45.184-.696.184-.737.082-.328.267-.594.554-.8.287-.204.594-.266.922-.184Zm-13.462 10.204c.574 0 1.168-.287 1.782-.86.656-.615 1.271-1.455 1.845-2.52a8.852 8.852 0 0 1-3.074-2.705 11.352 11.352 0 0 1-1.66-3.811c-.205.86-.389 1.762-.553 2.704a31.438 31.438 0 0 0-.369 2.644c-.041.82-.02 1.577.062 2.274.123.697.328 1.25.615 1.66.122.163.266.307.43.43.205.123.512.184.922.184Zm4.672-5.655a23.245 23.245 0 0 0 1.229-4.057c.287-1.434.43-2.766.43-3.996 0-.286-.02-.676-.061-1.167a6.615 6.615 0 0 0-.246-1.353 3.426 3.426 0 0 0-.553-1.168 1.17 1.17 0 0 0-.984-.491c-1.065 0-1.905.47-2.52 1.413-.656.984-.984 2.213-.984 3.688 0 1.435.308 2.828.922 4.18.656 1.353 1.578 2.336 2.767 2.951Z"
  />
  <path
    fill="currentColor"
    d="M155.913 52.256c.779.205 1.107.697.984 1.475-.123.451-.348 1.291-.676 2.52a21.808 21.808 0 0 1-1.414 3.689 14.023 14.023 0 0 1-2.151 3.32c-.861.942-1.865 1.413-3.012 1.413-.902 0-1.599-.143-2.09-.43-.492-.328-.861-.656-1.107-.984a4.143 4.143 0 0 1-.615-1.29 6.921 6.921 0 0 1-.123-1.23c0-.41.021-.758.062-1.045.082-.328.143-.553.184-.676l2.767-11.864c.081-.328.122-.738.122-1.23.041-.532-.061-.962-.307-1.29a1.843 1.843 0 0 0-.246-.185c-.082-.081-.287-.122-.614-.122-.738 0-1.455.348-2.152 1.044-.656.697-1.27 1.599-1.844 2.705a34.968 34.968 0 0 0-1.537 3.811 72.945 72.945 0 0 0-1.352 4.242 297.207 297.207 0 0 1-1.107 4.18 324.487 324.487 0 0 1-.86 3.38c-.123.656-.512.984-1.168.984a.682.682 0 0 1-.307-.061 1.13 1.13 0 0 1-.738-.554 1.072 1.072 0 0 1-.184-.922l4.671-19.977c.082-.328.267-.574.553-.738.287-.205.595-.266.923-.184.327.081.573.266.737.553.205.287.267.594.185.922l-.246.983c.655-.82 1.352-1.495 2.09-2.028.737-.533 1.516-.8 2.336-.8.778 0 1.393.144 1.844.431.45.287.778.574.983.86.328.41.533.882.615 1.414.123.492.184.963.184 1.414 0 .451-.041.84-.123 1.168a9.405 9.405 0 0 0-.061.553l-2.766 11.925v.062c-.082.246-.144.594-.185 1.045-.041.45.041.8.246 1.045.246.287.656.43 1.23.43.45 0 .922-.287 1.413-.86.492-.574.943-1.312 1.353-2.213.45-.902.84-1.885 1.168-2.95a26.58 26.58 0 0 0 .86-3.013c.082-.328.267-.574.553-.737.287-.205.595-.267.922-.185Z"
  />
  <path
    fill="currentColor"
    d="M163.281 52.256c.779.205 1.107.697.984 1.475-.123.451-.349 1.291-.676 2.52a21.893 21.893 0 0 1-1.414 3.689 13.995 13.995 0 0 1-2.152 3.32c-.86.942-1.844 1.413-2.95 1.413-.943 0-1.66-.143-2.152-.43-.491-.328-.86-.656-1.106-.984a3.25 3.25 0 0 1-.553-1.29 4.71 4.71 0 0 1-.185-1.23c0-.41.041-.758.123-1.045.041-.328.082-.553.123-.676l3.135-13.524h-1.414c-.328 0-.614-.123-.86-.368a1.18 1.18 0 0 1-.369-.861c0-.328.123-.615.369-.86.246-.246.532-.37.86-.37h1.967l1.783-7.745c.082-.327.266-.594.553-.799.287-.205.594-.266.922-.184.328.082.574.266.738.553.205.287.266.594.184.922l-1.659 7.254h1.475c.328 0 .615.123.86.368.246.246.369.533.369.861 0 .328-.123.615-.369.86a1.176 1.176 0 0 1-.86.37h-2.029l-3.258 14.138v.061c-.082.246-.143.594-.184 1.045 0 .45.102.8.307 1.045.164.287.574.43 1.23.43.451 0 .901-.287 1.352-.86.492-.574.943-1.312 1.352-2.213.451-.902.861-1.885 1.23-2.95.369-1.066.656-2.07.86-3.013.082-.328.246-.574.492-.737.287-.205.594-.267.922-.185Z"
  />
  <path
    fill="currentColor"
    d="M180.378 52.256c.328.082.574.267.738.553.205.287.267.595.185.922-.082.451-.308 1.291-.677 2.52a25.258 25.258 0 0 1-1.352 3.689 14.023 14.023 0 0 1-2.151 3.32c-.861.942-1.865 1.413-3.012 1.413-1.107 0-1.967-.41-2.582-1.23-.328-.491-.594-1.126-.799-1.905-.697.943-1.496 1.7-2.398 2.274-.901.574-1.905.861-3.012.861-1.557 0-2.704-.656-3.442-1.967-.615-.984-.922-2.336-.922-4.057 0-1.598.266-3.38.799-5.348a25.768 25.768 0 0 1 2.152-5.47c.901-1.68 1.946-3.095 3.135-4.242 1.188-1.148 2.458-1.721 3.811-1.721.409 0 .901.143 1.475.43.574.246 1.086.901 1.537 1.967l.307-1.414c.082-.328.266-.573.553-.737.287-.205.594-.267.922-.185.328.082.574.267.738.553.205.287.266.595.184.922l-3.012 12.91c-.123.45-.225.942-.307 1.474a20.536 20.536 0 0 0-.184 1.66c0 .533.02 1.025.061 1.475.041.451.164.8.369 1.045l.184.185c.082.04.226.061.431.061.45 0 .901-.287 1.352-.86.492-.574.942-1.312 1.352-2.213.451-.902.861-1.885 1.23-2.95a26.58 26.58 0 0 0 .86-3.013c.082-.328.267-.574.553-.737.287-.205.595-.267.922-.185Zm-15.06 9.958c1.025 0 1.947-.45 2.767-1.352.86-.902 1.577-2.029 2.151-3.381a23.584 23.584 0 0 0 1.352-4.364c.328-1.598.492-3.074.492-4.426 0-1.516-.184-2.705-.553-3.565a2.695 2.695 0 0 0-.246-.492c-.082-.205-.225-.307-.43-.307-.779 0-1.619.47-2.521 1.413-.86.902-1.659 2.07-2.397 3.504-.738 1.393-1.352 2.93-1.844 4.61-.451 1.68-.676 3.279-.676 4.795 0 1.27.184 2.213.553 2.828.287.491.738.737 1.352.737Z"
  />
  <path
    fill="currentColor"
    d="M195.275 51.949c.328.082.574.266.738.553.205.287.266.594.184.922-.041.082-.143.43-.307 1.045-.164.574-.43 1.27-.799 2.09-.369.82-.84 1.721-1.414 2.705a12.981 12.981 0 0 1-2.151 2.643c-.82.779-1.803 1.434-2.951 1.967-1.147.533-2.459.799-3.934.799-2.049 0-3.647-.86-4.795-2.582-.86-1.352-1.29-3.155-1.29-5.41 0-1.474.204-3.073.614-4.794a20.288 20.288 0 0 1 1.783-4.794c.778-1.517 1.701-2.767 2.766-3.75 1.065-.984 2.254-1.475 3.565-1.475 1.844 0 3.115.778 3.811 2.335.287.697.41 1.455.369 2.275-.041.82-.184 1.64-.43 2.459a9.937 9.937 0 0 1-1.045 2.336c-.41.737-.861 1.352-1.352 1.844a1.18 1.18 0 0 1-.861.369 1.18 1.18 0 0 1-.861-.37 1.182 1.182 0 0 1-.368-.86c0-.369.123-.656.368-.86.369-.41.697-.882.984-1.414a7.778 7.778 0 0 0 .738-1.721 6.433 6.433 0 0 0 .368-1.66c.041-.574-.02-1.045-.184-1.414a1.36 1.36 0 0 0-.43-.553c-.205-.205-.574-.307-1.107-.307-.737 0-1.475.368-2.213 1.106-.737.738-1.413 1.7-2.028 2.889-.574 1.188-1.066 2.52-1.475 3.996a17.94 17.94 0 0 0-.554 4.364c0 1.762.308 3.135.922 4.118.615.943 1.517 1.414 2.705 1.414 1.721 0 3.156-.471 4.303-1.414 1.188-.983 2.131-2.049 2.828-3.196.737-1.188 1.249-2.254 1.536-3.197.328-.983.492-1.495.492-1.536.082-.328.266-.574.553-.738.287-.205.595-.266.922-.184Z"
  />
  <path
    fill="currentColor"
    d="M202.42 52.256c.779.205 1.107.697.984 1.475-.123.451-.349 1.291-.676 2.52a21.808 21.808 0 0 1-1.414 3.689 13.995 13.995 0 0 1-2.152 3.32c-.86.942-1.844 1.413-2.95 1.413-.943 0-1.66-.143-2.152-.43-.491-.328-.86-.656-1.106-.984a3.25 3.25 0 0 1-.553-1.29 4.71 4.71 0 0 1-.185-1.23c0-.41.041-.758.123-1.045.041-.328.082-.553.123-.676l3.135-13.524h-1.414c-.328 0-.614-.123-.86-.368a1.18 1.18 0 0 1-.369-.861c0-.328.123-.615.369-.86.246-.246.532-.37.86-.37h1.967l1.783-7.745c.082-.327.266-.594.553-.799.287-.205.594-.266.922-.184.328.082.574.266.738.553.205.287.266.594.184.922l-1.659 7.254h1.475c.328 0 .615.123.86.368.246.246.369.533.369.861 0 .328-.123.615-.369.86a1.176 1.176 0 0 1-.86.37h-2.029l-3.258 14.138v.061c-.081.246-.143.594-.184 1.045 0 .45.103.8.307 1.045.164.287.574.43 1.23.43.451 0 .901-.287 1.352-.86.492-.574.943-1.312 1.352-2.213.451-.902.861-1.885 1.23-2.95.369-1.066.656-2.07.86-3.013.082-.328.246-.574.492-.737.287-.205.594-.267.922-.185Z"
  />
  <path
    fill="currentColor"
    fill-rule="evenodd"
    d="M79.34 331.851a1 1 0 0 1 1.405.162c15.943 20.095 36.037 19.786 43.94 17.219a1 1 0 1 1 .618 1.902c-8.587 2.789-29.594 2.958-46.125-17.878a1 1 0 0 1 .162-1.405Z"
    clip-rule="evenodd"
  />
  <path
    fill="currentColor"
    fill-rule="evenodd"
    d="M85.698 339.236a1 1 0 0 1 1.302-.551c12.277 4.977 26.895 4.152 32.64 3.114a1 1 0 0 1 .356 1.968c-5.954 1.076-20.992 1.942-33.747-3.229a1 1 0 0 1-.551-1.302ZM211.512 349.214c-2.21 1.773-4.465 3.583-6.78 5.423-23.207 18.443-51.639 16.393-63.01 13.052a1 1 0 0 1 .564-1.919c10.972 3.223 38.664 5.212 61.202-12.699 2.329-1.851 4.602-3.676 6.833-5.468 25.085-20.141 44.851-36.013 78.621-35.837a1 1 0 0 1-.011 2c-33.034-.172-52.259 15.257-77.419 35.448Z"
    clip-rule="evenodd"
  />
  <path
    fill="currentColor"
    fill-rule="evenodd"
    d="M209.734 349.36a.999.999 0 0 1-.274 1.387c-3.965 2.657-9.639 4.69-15.044 6.154-5.427 1.47-10.682 2.394-13.879 2.795a1 1 0 1 1-.25-1.984c3.113-.391 8.276-1.298 13.606-2.741 5.35-1.45 10.767-3.415 14.454-5.885a.999.999 0 0 1 1.387.274Z"
    clip-rule="evenodd"
  />
  <path
    fill="currentColor"
    fill-rule="evenodd"
    d="M216.376 344.083a1 1 0 0 1-.268 1.389c-4.394 2.975-9.716 4.378-14.53 4.941-4.818.564-9.211.298-11.817-.13a1 1 0 1 1 .325-1.974c2.425.399 6.63.66 11.26.118 4.634-.543 9.608-1.88 13.641-4.611a1 1 0 0 1 1.389.267ZM207.314 296.073a1 1 0 0 1-.873 1.113c-4.804.58-9.253 3.005-12.894 5.867-2.995 2.354-5.392 4.963-6.93 6.971 5.012 1.291 9.766 3.977 12.986 6.995 5.33 4.997 11.344 5.507 13.54 5.184a.999.999 0 1 1 .291 1.978c-2.739.403-9.381-.249-15.199-5.703-3.271-3.066-8.327-5.806-13.509-6.835-5.419-1.077-10.78-.258-14.467 3.736a1 1 0 0 1-1.469-1.357c4.169-4.516 10.058-5.431 15.68-4.461 1.594-2.221 4.329-5.32 7.841-8.081 3.803-2.989 8.592-5.64 13.891-6.28a1 1 0 0 1 1.112.873ZM271.02 288.097c-3.784.881-7.405 2.063-9.572 2.877a1 1 0 1 1-.704-1.872c2.238-.841 5.943-2.049 9.822-2.953 3.846-.896 7.998-1.525 11.065-1.119 2.983.394 5.094 1.179 6.532 2.045 1.407.847 2.247 1.82 2.528 2.637a1 1 0 1 1-1.89.652c-.071-.204-.479-.859-1.669-1.575-1.159-.698-2.995-1.41-5.763-1.777-2.684-.355-6.532.196-10.349 1.085Zm-21.059 5.137a1 1 0 0 1-.518 1.316c-2.113.918-5.31 1.383-8.337 1.613a74.87 74.87 0 0 1-7.959.161 1 1 0 0 1 .077-1.999c1.8.069 4.754.069 7.731-.156 3.012-.229 5.912-.68 7.69-1.453a1 1 0 0 1 1.316.518Zm-37.862 2.09a1 1 0 0 1 1-1h12.686a1 1 0 1 1 0 2h-12.686a1 1 0 0 1-1-1ZM99.816 315.515a1 1 0 0 1 1.371-.345c.721.431 2.178.846 4.228 1.199 2.004.346 4.437.611 7.001.812 5.125.4 10.703.534 14.271.534a1 1 0 1 1 0 2c-3.605 0-9.237-.135-14.427-.54-2.594-.203-5.095-.475-7.184-.835-2.043-.352-3.84-.81-4.916-1.454a1 1 0 0 1-.344-1.371ZM17.914 267.924a1 1 0 0 1 1.4.194c1.592 2.104 4.25 5.354 7.039 8.249 1.394 1.447 2.808 2.792 4.127 3.858 1.337 1.08 2.504 1.812 3.41 2.114a1 1 0 0 1-.632 1.897c-1.254-.418-2.647-1.334-4.035-2.456-1.406-1.136-2.883-2.544-4.31-4.026-2.856-2.964-5.566-6.277-7.194-8.429a1 1 0 0 1 .195-1.401Zm7.479 55.055c-2.357.265-4.484.628-5.482.883a1 1 0 1 1-.497-1.937c1.13-.29 3.365-.664 5.755-.934 2.387-.269 5.027-.444 6.954-.307a1 1 0 0 1-.142 1.995c-1.739-.124-4.23.034-6.588.3Z"
    clip-rule="evenodd"
  />
  <path
    fill="currentColor"
    fill-rule="evenodd"
    d="M191.624 99.67a3.776 3.776 0 0 1 1.334 7.433c-2.18.391-9.996 4.56-14.683 20.383-.568 1.919-1.062 4.459-1.526 6.844l-.076.388a1 1 0 0 1-1.963-.382l.083-.425c.457-2.349.968-4.978 1.565-6.993 4.806-16.226 13.041-21.208 16.246-21.784a1.776 1.776 0 0 0-.627-3.495c-4.112.738-10.866 5.162-15.947 16.057a1.001 1.001 0 0 1-1.813-.845c5.249-11.255 12.441-16.289 17.407-17.18Zm-31.935 3.257a3.776 3.776 0 0 1 7.495.919c-.327 2.666.488 10.107 6.924 16.922a1 1 0 0 1-1.454 1.373c-6.865-7.269-7.851-15.311-7.455-18.538a1.777 1.777 0 0 0-3.525-.432c-.558 4.551.986 14.915 10.496 23.453a1 1 0 0 1 .297 1.004c-.475 1.766-1.366 5.157-1.742 7.09a1 1 0 0 1-1.963-.382c.352-1.809 1.121-4.782 1.616-6.64-9.63-8.927-11.311-19.699-10.689-24.769Zm42.749 1.68a3.775 3.775 0 0 1 5.018-1.825c8.522 3.977 20.828 14.267 26.523 31.356a1 1 0 0 1-1.898.633c-5.501-16.508-17.386-26.404-25.471-30.176a1.774 1.774 0 1 0-1.501 3.217c8.539 3.985 22.2 15.792 25.621 36.224.284 1.693.497 3.448.632 5.264a1 1 0 0 1-1.995.148 55.417 55.417 0 0 0-.61-5.082c-3.295-19.68-16.451-30.988-24.494-34.741a3.775 3.775 0 0 1-1.825-5.018Zm40.123.254a3.775 3.775 0 0 1 4.558 2.781c1.155 4.77 1.938 12.323.545 19.766-1.259 6.72-4.394 13.782-11.083 18.286.781 6.26.687 13.159-.579 20.7a1 1 0 1 1-1.972-.331c1.276-7.605 1.326-14.511.487-20.729a1.001 1.001 0 0 1 .455-.978c6.427-4.08 9.494-10.737 10.726-17.316 1.331-7.108.581-14.37-.523-18.927a1.775 1.775 0 1 0-3.451.835c1.012 4.18 1.703 10.924.483 17.438-.974 5.207-3.129 10.109-7.185 13.535a1 1 0 0 1-1.29-1.528c3.588-3.031 5.587-7.445 6.51-12.375 1.156-6.179.498-12.632-.462-16.599a3.776 3.776 0 0 1 2.781-4.558Zm-45.382 30.166a3.775 3.775 0 0 1 4.559-2.778c7.301 1.772 21.451 8.335 29.642 21.98a1 1 0 1 1-1.715 1.029c-7.837-13.055-21.449-19.379-28.399-21.066a1.776 1.776 0 1 0-.837 3.451c7.833 1.901 24.644 10.205 29.964 27.999a.995.995 0 0 1 .027.46c-.282 1.599-.542 2.574-.893 3.885-.111.416-.231.867-.364 1.383a1 1 0 0 1-1.937-.5c.142-.55.267-1.018.38-1.443.326-1.217.554-2.071.802-3.438-5.112-16.692-21.022-24.599-28.451-26.402a3.776 3.776 0 0 1-2.778-4.56Zm54.489 4.21a3.776 3.776 0 1 1 7.549.164c-.122 5.605-2.057 15.288-7.835 24.173 7.216-.632 11.632-5.427 13.083-8.138a3.776 3.776 0 0 1 6.657 3.565c-2.785 5.201-11.574 14.083-25.654 11.854a41.16 41.16 0 0 1-10.332 7.45.999.999 0 1 1-.906-1.783 39.185 39.185 0 0 0 10.183-7.441 1 1 0 0 1 .885-.282c13.282 2.338 21.517-5.99 24.061-10.742a1.776 1.776 0 0 0-3.131-1.676c-1.828 3.415-7.503 9.415-16.8 9.26a1 1 0 0 1-.797-1.581c6.382-8.934 8.465-19.081 8.587-24.703a1.777 1.777 0 0 0-3.55-.077c-.127 5.838-2.663 17.367-10.807 26.28a35.707 35.707 0 0 1-8.395 6.791 1 1 0 0 1-1.008-1.728 33.734 33.734 0 0 0 7.927-6.412c7.742-8.473 10.164-19.495 10.283-24.974Zm1.958 32.92a3.775 3.775 0 0 1 4.213 3.28c.384 3.081.581 7.94-.068 12.72-.537 3.962-1.751 8.621-4.6 11.917.75 1.95 1.664 3.801 2.762 5.465a1 1 0 1 1-1.669 1.102c-1.305-1.978-2.353-4.171-3.182-6.444a.998.998 0 0 1 .215-1.032c2.706-2.841 3.943-7.23 4.493-11.277.621-4.576.431-9.259.065-12.204a1.776 1.776 0 0 0-3.524.439c.337 2.705.512 7.073-.06 11.287-.269 1.983-.686 3.796-1.256 5.353a1 1 0 0 1-1.925-.175c-.509-2.984-.679-5.68-.642-7.632a1.777 1.777 0 0 0-3.551-.066c-.067 3.607.49 9.375 2.368 15.133 1.685 5.162 4.496 10.505 9.057 14.191a1 1 0 0 1 .269 1.219c-2.405 4.888-5.555 9.826-9.641 14.409a1 1 0 1 1-1.492-1.331c3.756-4.213 6.7-8.744 8.988-13.259-4.604-3.986-7.406-9.471-9.082-14.609-1.956-5.993-2.537-11.986-2.466-15.791a3.775 3.775 0 0 1 7.549.141c-.004.255-.005.524-.002.807.349-3.58.185-7.146-.099-9.43a3.776 3.776 0 0 1 3.28-4.213Zm11.74 10.643a3.777 3.777 0 0 1 3.875 3.674c.06 2.242-.099 5.182-.586 8.585.895-.67 1.462-1.539 1.693-2.123a3.775 3.775 0 1 1 7.021 2.779c-1.01 2.551-4.363 7.287-10.448 7.829-2.599 9.829-7.738 21.492-17.156 31.438 3.031 8.087 4.169 14.441 3.604 20.268-.351 3.62-1.348 6.886-2.762 10.081a1 1 0 0 1-1.829-.809c1.348-3.046 2.274-6.103 2.6-9.465.538-5.544-.566-11.738-3.705-19.953a1 1 0 0 1 .214-1.052c9.627-9.972 14.766-21.829 17.28-31.709a.998.998 0 0 1 .938-.753c5.462-.166 8.516-4.367 9.404-6.611a1.775 1.775 0 0 0-3.302-1.307c-.508 1.284-1.999 3.352-4.561 4.095a1.001 1.001 0 0 1-1.264-1.129c.704-4.11.926-7.608.86-10.111a1.776 1.776 0 0 0-3.55.095c.13 4.87-.94 13.758-4.72 23.407a1 1 0 1 1-1.862-.729c3.686-9.411 4.705-18.033 4.582-22.625a3.777 3.777 0 0 1 3.674-3.875Zm-28.939 32.065a1 1 0 0 1 1.406.149c2.702 3.343 5.121 6.648 7.102 9.874a1 1 0 0 1-1.704 1.047c-1.923-3.131-4.286-6.364-6.953-9.663a1 1 0 0 1 .149-1.407Zm.534 9.728a1 1 0 0 1 1.393.244c2.365 3.373 3.751 5.989 4.986 8.982 3.841 9.312 5.017 15.6 4.504 20.895-.514 5.293-2.732 9.823-6.205 15.654-.79 1.327-1.646 2.722-2.552 4.2l-.001.001a1 1 0 1 1-1.705-1.046c.908-1.48 1.757-2.864 2.54-4.178 3.451-5.794 5.464-10 5.932-14.824.468-4.828-.576-10.763-4.362-19.94-1.177-2.854-2.492-5.341-4.775-8.595a1 1 0 0 1 .245-1.393Zm29.982 12.041a3.776 3.776 0 1 1 5.585 5.082c-6.673 7.334-9.715 16.402-10.857 22.645a21.663 21.663 0 0 0 7.219-6.835 3.775 3.775 0 1 1 6.304 4.157c-8.198 12.431-22.209 14.29-30.066 13.649-.447.735-.906 1.483-1.376 2.248-3.19 5.202-6.877 11.215-10.791 19.228a59.73 59.73 0 0 0-1.718 3.861 1 1 0 0 1-1.855-.749 62.09 62.09 0 0 1 1.776-3.99c3.958-8.103 7.687-14.184 10.879-19.389l.004-.006.004-.006c.583-.95 1.147-1.87 1.692-2.768a1 1 0 0 1 .957-.477c7.377.758 20.995-.829 28.824-12.702a1.775 1.775 0 1 0-2.964-1.955c-2.66 4.033-6.133 6.723-9.759 8.457a1 1 0 0 1-1.423-1.035c.861-6.427 3.9-17.139 11.67-25.679a1.776 1.776 0 0 0-2.626-2.39c-9.465 10.403-12.421 23.689-12.826 30.246a1 1 0 0 1-.778.914 31.49 31.49 0 0 1-7.105.763 1.001 1.001 0 0 1 .016-2 29.537 29.537 0 0 0 5.927-.561c.594-7.074 3.776-20.255 13.287-30.708Zm-7.798 44.928a3.776 3.776 0 0 1 6.027 4.549c-3.802 5.039-7.659 9.14-11.432 12.452a1 1 0 1 1-1.32-1.503c3.666-3.218 7.431-7.218 11.156-12.154a1.776 1.776 0 0 0-2.835-2.139c-12.446 16.492-24.902 21.621-31.769 22.619a1 1 0 0 1-.288-1.979c6.275-.912 18.285-5.712 30.461-21.845Zm-27.898 4.334a1 1 0 0 1 .401 1.357 181.321 181.321 0 0 0-3.675 7.119 65.979 65.979 0 0 0-4.591 12.47 69.754 69.754 0 0 0-1.672 8.81 1 1 0 1 1-1.985-.248 71.67 71.67 0 0 1 1.721-9.062 67.855 67.855 0 0 1 4.73-12.847 184.586 184.586 0 0 1 3.715-7.198 1 1 0 0 1 1.356-.401Zm-19.6 1.088a1 1 0 0 1 1.046.951c.472 9.917 3.298 17.649 6.298 23.021a1 1 0 0 1-1.747.975c-3.136-5.617-6.06-13.648-6.549-23.9a1 1 0 0 1 .952-1.047Zm-5.545.264a1 1 0 0 1 1.046.952c.86 18.041 8.874 29.89 13.694 34.404a.996.996 0 0 1 .316.749c-.291 14.615 3.647 27.175 6.823 33.527a1.776 1.776 0 0 0 3.176-1.588c-3.911-7.822-9.146-26.034-4.857-45.391a1 1 0 0 1 .935-.783c4.773-.199 12.162-2.294 20.431-8.261a1 1 0 0 1 1.092-.051c2.72 1.599 6.054 2.331 9.027 2.634 3.158.321 6.114.177 7.916-.064a1.776 1.776 0 1 0-.469-3.519c-1.544.206-4.222.341-7.087.05a28.21 28.21 0 0 1-1.835-.246 1 1 0 1 1 .332-1.972c.558.094 1.128.169 1.705.228 2.701.275 5.222.144 6.62-.043a3.776 3.776 0 1 1 .999 7.485c-1.948.26-5.061.408-8.383.07-2.917-.296-6.319-.999-9.267-2.578-7.916 5.586-15.13 7.828-20.222 8.219-3.878 18.543 1.149 35.922 4.852 43.327a3.776 3.776 0 1 1-6.754 3.377c-3.279-6.558-7.252-19.249-7.041-34.02-5.199-5.058-13.134-17.264-14-35.459a1 1 0 0 1 .951-1.047ZM165.833 262.86a1 1 0 0 1 1.125.857l2.108 15.657a1 1 0 0 1-1.982.266l-2.108-15.656a1 1 0 0 1 .857-1.124ZM169.005 289.155a1 1 0 0 1 1 1v72.882a1 1 0 1 1-2 0v-72.882a1 1 0 0 1 1-1Z"
    clip-rule="evenodd"
  />
  <path
    fill="currentColor"
    fill-rule="evenodd"
    d="M152.901 257.48a1 1 0 0 1-.355 1.369c-.242.143-.724.606-1.245 1.85-.512 1.223-1.019 3.102-1.385 5.913-1.254 9.653-4.283 22.752-6.19 29.855-.92 3.425-1.492 9.084-1.598 14.778-.106 5.703.258 11.275 1.138 14.544 1.816 6.746 5.893 16.774 7.499 20.597l.172.413c.766 1.831 1.508 3.609 2.813 4.922 1.323 1.331 3.319 2.26 6.847 1.863 1.552-.175 2.609-.95 3.402-2.145.822-1.238 1.35-2.916 1.744-4.812.255-1.223.44-2.455.624-3.674.104-.69.207-1.376.322-2.054.302-1.782.689-3.55 1.452-4.759a1 1 0 1 1 1.691 1.066c-.519.824-.862 2.205-1.171 4.027-.102.603-.201 1.254-.302 1.928-.191 1.261-.394 2.605-.658 3.873-.409 1.965-.998 3.948-2.036 5.511-1.067 1.607-2.615 2.775-4.844 3.026-4.035.455-6.67-.609-8.489-2.44-1.596-1.606-2.485-3.743-3.218-5.507l-.193-.464c-1.601-3.811-5.73-13.957-7.586-20.852-.957-3.552-1.314-9.359-1.207-15.1.108-5.75.684-11.601 1.666-15.26 1.896-7.062 4.901-20.066 6.139-29.593.379-2.917.919-4.986 1.523-6.429.596-1.422 1.298-2.343 2.076-2.8a1 1 0 0 1 1.369.354Zm2.801 3.053a1.001 1.001 0 0 1-.121 1.409c-.3.253-.614.809-.888 1.863-.266 1.021-.453 2.332-.636 3.904-.064.557-.128 1.142-.194 1.753-.305 2.798-.666 6.124-1.442 9.561-.597 2.65-1.28 5.153-1.976 7.701-1.822 6.677-3.726 13.657-4.392 24.376-.889 14.312 3.776 22.135 6.106 26.044l.146.245c.652 1.094 1.103 2.487 1.5 3.857.114.396.224.79.333 1.181.281 1.011.558 2.001.891 2.944.46 1.302.985 2.371 1.661 3.107.641.698 1.428 1.112 2.537 1.112 1.115 0 1.827-.406 2.342-1.033.554-.674.928-1.667 1.17-2.885.239-1.207.329-2.533.387-3.802l.033-.791c.038-.955.075-1.873.172-2.576.196-1.412.982-4.478 1.856-7.658a421.66 421.66 0 0 1 2.53-8.794 1 1 0 0 1 1.916.575 424.799 424.799 0 0 0-2.518 8.749c-.886 3.224-1.628 6.149-1.803 7.404-.082.595-.114 1.374-.151 2.307-.012.278-.023.57-.037.874-.058 1.283-.153 2.737-.423 4.1-.268 1.352-.728 2.721-1.586 3.767-.898 1.092-2.178 1.763-3.888 1.763-1.716 0-3.024-.686-4.01-1.759-.951-1.036-1.585-2.41-2.074-3.794-.357-1.011-.662-2.103-.95-3.136-.105-.377-.207-.745-.31-1.099-.397-1.374-.79-2.54-1.296-3.391l-.135-.226c-2.41-4.042-7.322-12.284-6.395-27.209.679-10.939 2.659-18.194 4.495-24.923.684-2.509 1.349-4.944 1.918-7.47.748-3.315 1.095-6.505 1.4-9.3.068-.622.133-1.225.201-1.805.183-1.573.382-3.007.687-4.177.296-1.137.736-2.216 1.535-2.889a1 1 0 0 1 1.409.121Zm1.942.618a1 1 0 0 1 1.325-.493c1.056.483 2.288 1.694 3.248 3.455.977 1.794 1.715 4.233 1.715 7.28 0 4.963.776 11.034 1.686 16.138.455 2.547.94 4.84 1.373 6.616.444 1.823.809 2.993 1.004 3.383.257.513.474 1.241.662 1.996.193.775.373 1.656.536 2.518.134.709.254 1.391.362 2.001.163.92.296 1.677.403 2.112a1 1 0 1 1-1.943.476c-.12-.492-.276-1.371-.452-2.363-.105-.597-.218-1.235-.335-1.854a45.404 45.404 0 0 0-.511-2.407c-.185-.741-.36-1.283-.511-1.585-.314-.628-.726-2.029-1.158-3.804a112.097 112.097 0 0 1-1.398-6.738c-.92-5.154-1.718-11.356-1.718-16.489 0-2.718-.657-4.828-1.472-6.323-.832-1.528-1.789-2.349-2.323-2.593a1 1 0 0 1-.493-1.326Zm.602 4.865c-.008.096-.03.296-.064.584-.121 1.033.007 2.658.334 4.701.323 2.017.824 4.352 1.394 6.762a339.292 339.292 0 0 0 1.803 7.16l.219.842c.509 1.953.977 3.745 1.324 5.195.808 3.373 1.854 11.269 2.261 19.252.204 4 .248 8.05.018 11.592-.229 3.507-.733 6.636-1.696 8.714-2.747 5.928-3.929 13.431-4.171 16.425a1.001 1.001 0 0 1-1.943.244c-1.483-4.324-4.994-14.296-7.204-19.674-1.464-3.561-2.228-9.483-2.263-15.542-.035-6.075.662-12.479 2.243-17.03 1.495-4.305 3.058-12.668 4.185-19.45a536.038 536.038 0 0 0 1.344-8.558c.102-.681.174-1.164.211-1.381l.001-.008c.007-.043.022-.135.041-.205.004-.014.014-.052.032-.098.01-.026.039-.089.058-.126.039-.065.185-.242.305-.34.298-.142.979-.094 1.278.111.117.139.238.375.263.457.029.11.031.203.032.217v.002c.002.072-.004.142-.005.153v.001Zm-1.587 10.102c-1.12 6.742-2.707 15.283-4.268 19.779-1.476 4.248-2.168 10.396-2.133 16.362.034 5.983.798 11.593 2.113 14.794 1.697 4.129 4.138 10.897 5.864 15.81.639-3.711 1.828-8.654 3.79-12.886.797-1.721 1.288-4.532 1.514-8.003.224-3.438.182-7.405-.02-11.36-.403-7.926-1.441-15.684-2.208-18.888-.342-1.429-.804-3.199-1.314-5.155l-.22-.844a337.065 337.065 0 0 1-1.813-7.203 127.331 127.331 0 0 1-.974-4.429c-.105.652-.216 1.329-.331 2.023Zm.677 13.83a1 1 0 0 1 .829.772c1.108 4.987 3.393 16.53 3.544 22.423.077 3.011-.515 6.826-1.264 10.322-.751 3.512-1.677 6.777-2.304 8.721-.068.209-.202.39-.383.515a1.107 1.107 0 0 1-.854.175 1.228 1.228 0 0 1-.565-.287c-.219-.191-.378-.45-.499-.679-.255-.488-.536-1.25-.847-2.35-.629-2.218-1.439-6.017-2.404-12.256-1.964-12.689 1.621-23.129 3.729-26.859.204-.36.609-.558 1.018-.497Zm-.5 4.126c-1.821 4.647-3.798 13.061-2.271 22.924.961 6.21 1.756 9.915 2.352 12.017l.044.155a96.383 96.383 0 0 0 1.529-6.124c.74-3.457 1.29-7.084 1.219-9.852-.121-4.74-1.705-13.458-2.873-19.12Zm-18.841 22.141a.998.998 0 0 1 .629 1.136c-.582 2.856-.205 6.592.452 9.913.656 3.312 1.556 6.045 1.908 6.839.309.695.783 1.876 1.435 3.5l.645 1.607c.999 2.48 2.324 5.736 4.026 9.729 2.568 6.025 7.544 7.959 9.555 8.186a1 1 0 0 1-.225 1.988c-2.625-.297-8.282-2.613-11.17-9.39a514.447 514.447 0 0 1-4.041-9.766l-.661-1.646c-.645-1.608-1.099-2.738-1.391-3.396-.434-.977-1.371-3.866-2.043-7.262-.459-2.32-.812-4.954-.775-7.431-1.876 1.63-4.735 3.051-8.421 2.486a1 1 0 0 1 .302-1.977c4.576.701 7.619-2.423 8.555-4.073a.998.998 0 0 1 1.22-.443Zm-11.958 9.255a1 1 0 0 1 1.167-.798c.897.169 2.305.371 3.594.43.647.029 1.232.021 1.695-.036.231-.029.41-.067.54-.108a.69.69 0 0 0 .165-.069l-.002.001a1 1 0 0 1 1.643.728c.053 1.406.328 3.8.987 6.328.663 2.542 1.689 5.124 3.187 6.986 2.058 2.556 2.672 5.805 3.214 8.668l.129.681c.608 3.155 1.256 5.7 3.308 7.274.561.43 1.098.852 1.621 1.261 4.019 3.15 7.109 5.572 12.677 5.681a1 1 0 1 1-.039 2c-6.271-.123-9.884-2.966-13.887-6.115-.521-.41-1.049-.825-1.59-1.24-2.736-2.099-3.465-5.424-4.054-8.483l-.112-.585c-.567-2.974-1.095-5.739-2.824-7.888-1.754-2.178-2.871-5.072-3.565-7.735a35.064 35.064 0 0 1-.96-5.427 7.5 7.5 0 0 1-.194.027c-.619.076-1.328.081-2.03.049a29.856 29.856 0 0 1-3.873-.462 1 1 0 0 1-.797-1.168Zm2.873 15.435c.906-.434 1.983-.602 3.227-.435 1.497.2 2.623 1.268 3.454 2.545.841 1.292 1.492 2.966 1.996 4.723 1.012 3.524 1.501 7.625 1.646 10.328a1 1 0 0 1-1.997.106c-.14-2.609-.614-6.549-1.571-9.882-.48-1.671-1.064-3.13-1.751-4.185-.696-1.07-1.389-1.566-2.043-1.653-.907-.122-1.584.011-2.097.257-.519.248-.934.643-1.265 1.138-.679 1.019-.939 2.379-.948 3.326a1.001 1.001 0 0 1-2-.02c.012-1.194.323-2.974 1.284-4.415.49-.735 1.162-1.401 2.065-1.833Zm2.3 3.689a1 1 0 0 1 .923.808l2.23 11.477a1 1 0 0 1-1.963.381l-1.433-7.374c-.933 3.62-1.898 8.3-1.898 11.709a1 1 0 0 1-2 0c0-5.257 2.1-13.085 3.13-16.307a1 1 0 0 1 1.011-.694Z"
    clip-rule="evenodd"
  />
  <path
    fill="currentColor"
    fill-rule="evenodd"
    d="M130.035 250.941a1 1 0 0 1 1.338-.459l11.195 5.473a1 1 0 0 1 .495 1.255c-.353.927-.865 2.561-1.223 4.391-.36 1.842-.549 3.799-.314 5.408a1 1 0 0 1-1.852.649c-.422-.72-1.234-1.891-2.265-2.994-1.044-1.117-2.229-2.074-3.383-2.492a1 1 0 1 1 .682-1.88c1.592.577 3.036 1.802 4.162 3.006.214.229.419.46.615.69.077-.947.22-1.888.393-2.771a31.966 31.966 0 0 1 1.01-3.857l-10.393-5.081a1 1 0 0 1-.46-1.338Zm16.526 7.665a1 1 0 0 1 .566 1.296c-.678 1.728-1.422 4.569-1.611 8.003-.245 4.445-2.553 15.079-3.657 19.778a1.001 1.001 0 0 1-1.972-.296c.055-.814-.066-2.15-.321-3.814-.251-1.641-.621-3.527-1.032-5.402-.824-3.76-1.799-7.42-2.283-8.92-.106-.328-.49-.837-1.274-1.482-.749-.617-1.736-1.257-2.832-1.878-2.19-1.241-4.705-2.345-6.348-2.98a1 1 0 0 1 .72-1.865c1.708.659 4.317 1.803 6.614 3.105 1.147.65 2.244 1.355 3.117 2.074.838.69 1.615 1.507 1.907 2.412.511 1.585 1.502 5.314 2.332 9.105.267 1.216.518 2.443.732 3.615 1.039-4.892 2.141-10.674 2.3-13.562.2-3.645.99-6.696 1.746-8.623a1 1 0 0 1 1.296-.566Zm-23.104 6.229a1 1 0 0 1 1.393-.244c.544.382 1.408.778 2.548 1.275l.377.163c1.016.441 2.173.943 3.315 1.539 1.44.752 2.358 2.175 3.072 4.093.715 1.921 1.289 4.521 1.923 7.857.639 3.367 1.276 7.639 1.754 11.372.473 3.707.801 6.966.801 8.268 0 1.341-.465 4.581-1.164 7.853-.353 1.653-.773 3.346-1.236 4.848-.458 1.485-.978 2.847-1.549 3.8-.986 1.642-2.394 2.336-3.746 2.488-1.054.118-2.051-.093-2.79-.379l-.336 10.888h2.808a1 1 0 0 1 .99 1.136c-.028.209-.004.612.113 1.214.112.576.29 1.246.504 1.944a43.815 43.815 0 0 0 1.349 3.732.999.999 0 0 1-1.37 1.279c-.179-.089-.468-.14-.906-.084-.432.056-.933.207-1.466.429-1.065.444-2.113 1.114-2.741 1.591a1.001 1.001 0 0 1-1.604-.828l1.62-52.425-10.193-5.221a1 1 0 1 1 .912-1.78l10.756 5.509c.343.176.555.535.543.921l-.643 20.815c-.034 1.119.334 2.255.857 3.254.131.251.27.489.41.711a118.983 118.983 0 0 0 1.629-6.981c.684-3.429 1.13-6.695.944-8.591-.251-2.553-.923-7.457-1.588-11.93-.332-2.233-.661-4.35-.934-6.002-.271-1.639-.475-2.747-.567-3.096a.943.943 0 0 0-.103-.129 4.046 4.046 0 0 0-.514-.455c-.466-.359-1.105-.762-1.833-1.175a48.022 48.022 0 0 0-4.267-2.107 1 1 0 1 1 .794-1.835 49.79 49.79 0 0 1 4.46 2.202c.763.433 1.493.889 2.066 1.331.286.22.555.453.773.692.205.226.435.532.541.903.126.449.354 1.713.623 3.343.275 1.666.606 3.794.939 6.034.665 4.471 1.344 9.421 1.6 12.028.219 2.231-.293 5.773-.972 9.179a121.389 121.389 0 0 1-2.191 9.041 1 1 0 0 1-1.668.433c-.333-.332-.75-.823-1.166-1.428l-.104 3.36c.124.011.249.045.367.105a4.017 4.017 0 0 0 2.135.384c.786-.088 1.615-.465 2.254-1.529.443-.74.907-1.914 1.353-3.361.441-1.429.846-3.061 1.191-4.676.696-3.262 1.12-6.323 1.12-7.435 0-1.151-.308-4.277-.785-8.014-.475-3.71-1.106-7.939-1.735-11.253-.636-3.347-1.184-5.79-1.833-7.532-.649-1.745-1.334-2.606-2.123-3.018-1.073-.561-2.163-1.033-3.185-1.477l-.379-.165c-1.091-.475-2.157-.95-2.899-1.471a1 1 0 0 1-.244-1.393Zm4.3 65.821-.203 6.557c.475-.271.991-.533 1.517-.753.63-.263 1.311-.48 1.98-.566l.071-.009a42.588 42.588 0 0 1-.8-2.349 21.663 21.663 0 0 1-.555-2.148 10.309 10.309 0 0 1-.117-.732h-1.893Zm-7.422-57.827a1.001 1.001 0 0 1 1.341-.452l6.418 3.185a1 1 0 1 1-.889 1.791l-6.418-3.184a1 1 0 0 1-.452-1.34Zm-2.029 3.611a1 1 0 0 1 1.351-.42l7.762 4.08a1.001 1.001 0 0 1-.931 1.771l-7.762-4.08a1 1 0 0 1-.42-1.351Z"
    clip-rule="evenodd"
  />
  <path
    fill="currentColor"
    fill-rule="evenodd"
    d="M126.707 257.797a.999.999 0 0 1 1.343-.443l3.906 1.969a1 1 0 0 1-.901 1.786l-3.906-1.969a1 1 0 0 1-.442-1.343ZM128.048 253.931a1 1 0 0 1 1.346-.435l8.176 4.181a.999.999 0 1 1-.91 1.78l-8.177-4.181a1 1 0 0 1-.435-1.345Zm38.984 21.486a1 1 0 0 1 1.347-.43l24.3 12.546a1 1 0 0 1-.917 1.777l-24.3-12.546a1 1 0 0 1-.43-1.347ZM131.619 247.528a1 1 0 0 1 1.342-.445l17.073 8.57a1 1 0 0 1-.898 1.787l-17.072-8.57a1 1 0 0 1-.445-1.342Zm34.145 17.14a.999.999 0 0 1 1.342-.445l44.113 22.144a.999.999 0 1 1-.897 1.787l-44.113-22.144a1 1 0 0 1-.445-1.342Zm.628 5.63a1 1 0 0 1 1.34-.45l34.696 17.241a1.001 1.001 0 0 1-.89 1.791l-34.696-17.241a1 1 0 0 1-.45-1.341Zm1.525 12.01a.999.999 0 0 1 1.012-.098l12.487 5.838a1 1 0 0 1-.847 1.812l-10.843-5.069.204 1.605a1 1 0 0 1-1.984.252l-.432-3.406a1 1 0 0 1 .403-.934Z"
    clip-rule="evenodd"
  />
  <path
    fill="currentColor"
    fill-rule="evenodd"
    d="M238.496 285.94a1 1 0 0 1-.941 1.056l-68.479 3.923a1 1 0 1 1-.114-1.996l68.479-3.924a1 1 0 0 1 1.055.941Z"
    clip-rule="evenodd"
  />
  <path
    fill="currentColor"
    fill-rule="evenodd"
    d="M134.416 239.906a1 1 0 0 1 1.337-.46l94.16 46.01a.999.999 0 1 1-.878 1.797l-94.16-46.01a1 1 0 0 1-.459-1.337ZM133.328 244.246a1 1 0 0 1 1.34-.452l85.262 42.199a1 1 0 0 1-.887 1.793l-85.262-42.2a1 1 0 0 1-.453-1.34ZM121.422 112.628c-6.93-3.521-13.839-2.876-20.745-.958-4.287 1.191-8.094 1.579-11.92 1.969-.52.053-1.042.106-1.565.161-4.37.461-8.924 1.07-14.565 2.98-4.278 1.448-6.88 4.485-8.407 7.756-1.536 3.292-1.956 6.771-1.873 8.933a1 1 0 0 1-1.998.077c-.094-2.434.37-6.236 2.059-9.856 1.699-3.64 4.664-7.142 9.578-8.805 5.847-1.979 10.572-2.607 14.996-3.074.53-.056 1.057-.109 1.579-.163 3.833-.391 7.467-.762 11.581-1.905 7.116-1.977 14.611-2.747 22.186 1.102a1 1 0 1 1-.906 1.783Zm-34.366 4.866c2.167-1.445 4.505-2.661 6.813-2.661 2.385 0 4.405 1.352 6.188 3.075 1.39 1.343 2.753 3.033 4.111 4.716.382.473.763.946 1.145 1.411 3.603 4.387 7.248 8.05 12.293 7.42 6.023-.753 12.554 2.109 17.817 5.76 2.652 1.84 5.029 3.911 6.919 5.902 1.876 1.978 3.32 3.927 4.048 5.53.546 1.201 1.858 2.52 3.855 3.838 1.971 1.301 4.495 2.53 7.3 3.595 5.616 2.133 12.217 3.561 17.468 3.647 5.575.091 9.673 1.56 12.933 3.999 3.234 2.42 5.569 5.742 7.71 9.398 2.073 3.543 5.189 7.521 8.633 10.534 3.485 3.05 7.107 4.939 10.225 4.705 1.77-.133 3.057-.156 4.109.042 1.113.209 1.914.654 2.741 1.33.494.404 1.04.93 1.68 1.548.345.333.719.693 1.126 1.075 1.2 1.124 2.808 2.548 5.163 4.336 2.367 1.797 4.068 2.71 5.245 2.978.57.129.944.09 1.193-.005.236-.091.459-.27.665-.624.451-.776.704-2.199.688-4.404-.016-2.158-.285-4.891-.726-8.15-1.35-9.993-7.585-14.072-10.364-14.887-9.242-1.516-13.851-3.6-17.484-7.303-1.786-1.821-3.307-4.004-5.026-6.593-.303-.456-.613-.925-.932-1.409-1.503-2.279-3.215-4.876-5.423-7.881-9.721-13.226-23.849-12.807-32.687-12.544-.642.019-1.255.037-1.837.049-2.427.051-4.218-.877-5.596-2.264-1.336-1.346-2.281-3.122-3.097-4.764l-.372-.755c-.688-1.4-1.301-2.651-2.041-3.622-.835-1.096-1.711-1.674-2.877-1.674-1.311 0-2.462.264-3.625.591-.233.066-.47.135-.711.206-.929.272-1.917.561-2.935.708a9.158 9.158 0 0 1-4.375-.397c-1.609-.543-3.368-1.568-5.406-3.275a1 1 0 1 1 1.284-1.533c1.913 1.602 3.457 2.473 4.761 2.913a7.173 7.173 0 0 0 3.451.312c.863-.124 1.675-.361 2.584-.627.259-.076.526-.154.805-.232 1.222-.344 2.581-.666 4.167-.666 2.014 0 3.415 1.079 4.468 2.463.869 1.14 1.584 2.599 2.264 3.988.117.239.233.477.349.71.82 1.65 1.642 3.154 2.725 4.245 1.042 1.048 2.322 1.711 4.136 1.674.579-.012 1.197-.032 1.851-.052 8.795-.273 23.958-.744 34.325 13.362 2.241 3.049 3.985 5.694 5.489 7.974.316.481.623.945.921 1.394 1.721 2.592 3.15 4.629 4.788 6.299 3.208 3.27 7.336 5.251 16.437 6.739a.993.993 0 0 1 .111.024c3.494.989 10.386 5.689 11.854 16.559.444 3.281.727 6.115.744 8.404.016 2.241-.216 4.144-.958 5.422-.391.673-.941 1.204-1.679 1.487-.724.278-1.524.276-2.352.088-1.618-.368-3.606-1.509-6.011-3.335-2.418-1.836-4.079-3.306-5.321-4.469-.481-.451-.884-.84-1.238-1.182-.585-.565-1.033-.998-1.468-1.353-.631-.517-1.133-.779-1.843-.913-.771-.144-1.826-.145-3.591-.013-3.952.297-8.107-2.057-11.691-5.193-3.627-3.173-6.874-7.326-9.043-11.03-2.101-3.59-4.273-6.631-7.181-8.807-2.882-2.156-6.56-3.515-11.767-3.6-5.53-.091-12.362-1.58-18.147-3.777-2.896-1.1-5.563-2.39-7.691-3.796-2.101-1.388-3.794-2.963-4.573-4.679-.597-1.313-1.871-3.076-3.679-4.981-1.795-1.892-4.068-3.874-6.608-5.636-5.121-3.552-11.139-6.08-16.429-5.419-6.267.784-10.575-3.86-14.086-8.134-.413-.503-.815-1.001-1.21-1.49-1.343-1.664-2.599-3.22-3.89-4.469-1.67-1.613-3.207-2.513-4.799-2.513-1.668 0-3.573.904-5.703 2.325-1.046.698-2.106 1.491-3.18 2.308l-.504.384c-.903.688-1.817 1.384-2.715 2.022-2.093 1.487-4.311 2.821-6.445 3.022-1.109.105-2.205-.093-3.226-.72-1.007-.617-1.872-1.608-2.613-2.97a1 1 0 0 1 1.757-.956c.629 1.156 1.278 1.839 1.901 2.222.61.373 1.262.502 1.992.433 1.545-.146 3.37-1.165 5.475-2.661.87-.618 1.751-1.29 2.655-1.978l.512-.39c1.076-.818 2.179-1.644 3.281-2.38ZM94.64 137.941a1 1 0 0 1 .832.015l41.657 20.01a1.001 1.001 0 0 1-.866 1.803l-39.21-18.835 12.201 27.541 27.908 14.726a1 1 0 1 1-.933 1.769l-25.667-13.543 5.597 12.635 20.999 10.95a.999.999 0 1 1-.925 1.773l-18.774-9.79 15.559 35.123 4.154 2.249a1 1 0 0 1-.953 1.758l-3.979-2.154-11.624 6.246a1 1 0 1 1-.947-1.762l11.284-6.062-16.049-36.226-17.323 9.043 13.735 33.749a1 1 0 1 1-1.852.754l-16.838-41.369-1.452-.598 4.859 41.474a1.001 1.001 0 0 1-1.987.233L88.99 186.29a1 1 0 0 1 1.374-1.041l1.205.497-6.34-15.577a.98.98 0 0 1-.103-.031l-4.31-1.568 3.981 21.133a1 1 0 0 1 .253 1.339l7.18 38.109a1 1 0 1 1-1.966.37l-7.233-38.389-8.507-3.241 15.133 41.1a1 1 0 0 1-1.877.691l-15.892-43.163a1 1 0 0 1 1.294-1.28l9.415 3.587-.336-1.785a.926.926 0 0 1-.079-.05l-12.28-8.669a1 1 0 1 1 1.153-1.634l10.675 7.535-3.205-17.007a.999.999 0 0 1 1.325-1.125l4.366 1.587-8.343-20.497a1 1 0 0 1 .527-1.294l18.24-7.946Zm2.183 55.409 17.269-9.015-6.088-13.743-16.757 9.057 5.576 13.701Zm-6.334-15.564 16.703-9.028-12.664-28.587-16.435 7.16 12.396 30.455Z"
    clip-rule="evenodd"
  />
  <path
    fill="currentColor"
    fill-rule="evenodd"
    d="M55.957 161.502c0-22.626 18.342-40.968 40.968-40.968 1.433 0 3.781.209 5.115.344a1 1 0 1 1-.201 1.99c-1.345-.137-3.597-.334-4.914-.334-21.521 0-38.968 17.446-38.968 38.968v15.699a1 1 0 0 1-2 0v-15.699Zm68.33-29.151a1.001 1.001 0 0 1 1.415-.009c7.525 7.427 12.191 17.749 12.191 29.16v75.115a1 1 0 1 1-2 0v-5.821H52.751a.996.996 0 0 1-.399-.083l-24.26-10.556a1 1 0 0 1 .399-1.917H70.16c.172 0 .341.045.491.129l18.476 10.427h46.766v-67.294c0-10.854-4.436-20.67-11.596-27.737a1 1 0 0 1-.01-1.414Zm-39.229 96.445-15.161-8.556H33.295l19.664 8.556h32.099Z"
    clip-rule="evenodd"
  />
  <path
    fill="currentColor"
    fill-rule="evenodd"
    d="M72.38 124.056a1 1 0 0 1-.259 1.391c-11.525 7.91-19.08 21.177-19.08 36.207v15.547a1 1 0 0 1-2 0v-15.547c0-15.717 7.903-29.588 19.948-37.856a1 1 0 0 1 1.39.258Zm62.795 14.08a1 1 0 0 1 1.368.358 45.675 45.675 0 0 1 6.266 23.16v76.038l93.651 46.423v-53.139c0-4.401-.128-11.044-.513-16.998-.192-2.979-.448-5.769-.781-8.013-.166-1.123-.35-2.093-.55-2.875-.205-.801-.409-1.331-.587-1.621a1 1 0 1 1 1.705-1.045c.338.552.602 1.317.82 2.17.223.873.419 1.917.591 3.077.344 2.323.604 5.174.798 8.178.388 6.01.517 12.698.517 17.127v54.75a1 1 0 0 1-1.444.896l-95.651-47.414a1.001 1.001 0 0 1-.556-.896v-76.658a43.675 43.675 0 0 0-5.991-22.149 1.001 1.001 0 0 1 .357-1.369ZM54.304 229.534a1 1 0 0 1 1 1v8.754a1 1 0 0 1-2 0v-8.754a1 1 0 0 1 1-1Z"
    clip-rule="evenodd"
  />
  <path
    fill="currentColor"
    fill-rule="evenodd"
    d="M27.504 177.343a1 1 0 0 1 1-1h41.738a1 1 0 0 1 1 1v41.61a1 1 0 0 1-1.812.584l-21.035-29.276-19.054 29.213a1 1 0 0 1-1.837-.546v-41.585Zm2 1v37.221l11.788-18.074-11.572-19.147h-.216Zm2.553 0 10.448 17.287 5.012-7.684a1 1 0 0 1 1.65-.038l5.652 7.867 12.056-17.432H32.057Zm37.185.094-13.184 19.062 13.184 18.349v-37.411ZM135.714 239.402a1 1 0 0 1 .486 1.328l-31.736 68.447a46.748 46.748 0 0 1-42.411 27.084c-20.658 0-34.762-20.891-27.04-40.051l22.01-54.608a.998.998 0 0 1 .906-.626l68.115-1.508a1 1 0 1 1 .044 1.999l-67.456 1.494-21.764 53.997c-7.192 17.845 5.944 37.303 25.185 37.303a44.75 44.75 0 0 0 40.597-25.925l31.736-68.447a1 1 0 0 1 1.328-.487Z"
    clip-rule="evenodd"
  />
  <path
    fill="currentColor"
    fill-rule="evenodd"
    d="M129.605 233.838a.998.998 0 0 1 .46 1.337l-35.3 72.301A46.403 46.403 0 0 1 54.44 333.5c-20.098.595-34.21-19.618-26.727-38.28L50.9 237.407a1.001 1.001 0 0 1 1.511-.44l6.052 4.35a1 1 0 1 1-1.167 1.624l-5.015-3.605-22.71 56.628c-6.948 17.325 6.153 36.089 24.81 35.536a44.4 44.4 0 0 0 38.586-24.901l35.301-72.301a1 1 0 0 1 1.337-.46Z"
    clip-rule="evenodd"
  />
  <path
    fill="currentColor"
    fill-rule="evenodd"
    d="M128.451 234.064a1 1 0 0 1 1.412-.075l5.993 5.385a1 1 0 1 1-1.337 1.488l-5.993-5.386a.999.999 0 0 1-.075-1.412ZM150.116 233.085c-.176.264-.317.686-.317 1.202 0 .516.141.938.317 1.201.181.271.32.283.339.283.019 0 .159-.012.339-.283.176-.263.318-.685.318-1.201a1 1 0 1 1 2 0c0 .856-.23 1.676-.654 2.311-.419.628-1.107 1.173-2.003 1.173-.896 0-1.584-.545-2.003-1.173-.424-.635-.653-1.455-.653-2.311 0-.856.229-1.676.653-2.312.419-.628 1.107-1.173 2.003-1.173a1 1 0 0 1 0 2c-.019 0-.158.012-.339.283ZM167.135 241.723c-.176.263-.318.685-.318 1.201s.142.938.318 1.202c.18.271.32.283.339.283.019 0 .158-.012.339-.283.176-.264.317-.686.317-1.202a1 1 0 0 1 2 0c0 .856-.229 1.676-.653 2.312-.419.628-1.108 1.173-2.003 1.173-.896 0-1.585-.545-2.003-1.173-.424-.636-.654-1.456-.654-2.312 0-.856.23-1.676.654-2.311.418-.628 1.107-1.173 2.003-1.173a1 1 0 0 1 0 2c-.019 0-.159.012-.339.283ZM183.389 249.978c-.176.263-.318.685-.318 1.201 0 .517.142.939.318 1.202.18.271.32.283.339.283.019 0 .159-.012.339-.283.176-.263.317-.685.317-1.202a1 1 0 0 1 2 0c0 .856-.229 1.676-.653 2.312-.419.628-1.107 1.173-2.003 1.173-.896 0-1.584-.545-2.003-1.173-.424-.636-.654-1.456-.654-2.312 0-.855.23-1.676.654-2.311.419-.628 1.107-1.173 2.003-1.173a1 1 0 0 1 0 2c-.019 0-.159.012-.339.283ZM200.637 258.798c-.175.264-.317.686-.317 1.202 0 .516.142.938.317 1.202.181.27.321.282.34.282.019 0 .158-.012.339-.282.176-.264.317-.686.317-1.202a1 1 0 0 1 2 0c0 .856-.229 1.676-.653 2.311-.419.629-1.108 1.173-2.003 1.173-.896 0-1.585-.544-2.004-1.173-.423-.635-.653-1.455-.653-2.311 0-.856.23-1.676.653-2.311.419-.629 1.108-1.173 2.004-1.173a1 1 0 1 1 0 2c-.019 0-.159.011-.34.282ZM215.545 265.705c-.176.264-.317.686-.317 1.202 0 .516.141.938.317 1.202.18.271.32.282.339.282.019 0 .159-.011.339-.282.176-.264.317-.686.317-1.202a1 1 0 0 1 2 0c0 .856-.229 1.676-.653 2.311-.419.629-1.107 1.173-2.003 1.173-.896 0-1.584-.544-2.003-1.173-.424-.635-.653-1.455-.653-2.311 0-.856.229-1.676.653-2.311.419-.629 1.107-1.173 2.003-1.173a1 1 0 0 1 0 2c-.019 0-.159.011-.339.282ZM230.902 273.283c-.176.264-.317.686-.317 1.202 0 .516.141.938.317 1.202.181.271.32.282.339.282.02 0 .159-.011.34-.282.176-.264.317-.686.317-1.202a1 1 0 0 1 2 0c0 .856-.23 1.676-.653 2.312-.419.628-1.108 1.172-2.004 1.172-.895 0-1.584-.544-2.003-1.172-.423-.636-.653-1.456-.653-2.312 0-.856.23-1.676.653-2.311.419-.628 1.108-1.173 2.003-1.173a1 1 0 1 1 0 2c-.019 0-.158.012-.339.282ZM182.177 202.301a1 1 0 0 1 1 1v23.51a6.002 6.002 0 0 0 3.316 5.367l7.115 3.557a2 2 0 0 0 2.894-1.789v-21.575a1 1 0 0 1 2 0v21.575c0 2.974-3.129 4.908-5.788 3.578l-7.115-3.557a8.002 8.002 0 0 1-4.422-7.156v-23.51a1 1 0 0 1 1-1Z"
    clip-rule="evenodd"
  />
  <path
    fill="currentColor"
    fill-rule="evenodd"
    d="M147.114 183.989a1 1 0 0 1 1 1v12.038c0 1.8.969 3.462 2.535 4.35l3.389 1.92a1 1 0 0 0 1.493-.87v-.65a1 1 0 1 1 2 0v.65c0 2.299-2.48 3.744-4.48 2.61l-3.388-1.92a7 7 0 0 1-3.549-6.09v-12.038a1 1 0 0 1 1-1Zm9.417 3.925a1 1 0 0 1 1 1v7.606a2 2 0 0 0 1.039 1.754l23.696 12.979a1 1 0 0 1-.96 1.755l-23.697-12.98a4 4 0 0 1-2.078-3.508v-7.606a1 1 0 0 1 1-1ZM43.13 111.518a1 1 0 0 1 0 1.414l-4.895 4.896a1 1 0 1 1-1.414-1.414l4.896-4.896a1 1 0 0 1 1.414 0Z"
    clip-rule="evenodd"
  />
  <path
    fill="currentColor"
    fill-rule="evenodd"
    d="M43.13 117.828a1 1 0 0 1-1.413 0l-4.896-4.896a1 1 0 1 1 1.414-1.414l4.896 4.896a1 1 0 0 1 0 1.414ZM74.217 78.518a1 1 0 0 1 0 1.414l-4.896 4.896a1 1 0 0 1-1.414-1.414l4.896-4.896a1 1 0 0 1 1.414 0Z"
    clip-rule="evenodd"
  />
  <path
    fill="currentColor"
    fill-rule="evenodd"
    d="M74.217 84.828a1 1 0 0 1-1.414 0l-4.896-4.896a1 1 0 0 1 1.415-1.414l4.895 4.896a1 1 0 0 1 0 1.414ZM247.238 23.518a1 1 0 0 1 0 1.414l-4.896 4.896a1 1 0 1 1-1.414-1.414l4.896-4.896a1 1 0 0 1 1.414 0Z"
    clip-rule="evenodd"
  />
  <path
    fill="currentColor"
    fill-rule="evenodd"
    d="M247.237 29.828a1 1 0 0 1-1.414 0l-4.896-4.896a1 1 0 0 1 1.414-1.414l4.896 4.896a1 1 0 0 1 0 1.414ZM227.429 56.518a1 1 0 0 1 0 1.414l-4.896 4.896a1 1 0 1 1-1.414-1.414l4.896-4.896a1 1 0 0 1 1.414 0Z"
    clip-rule="evenodd"
  />
  <path
    fill="currentColor"
    fill-rule="evenodd"
    d="M227.429 62.828a1 1 0 0 1-1.414 0l-4.896-4.896a1 1 0 1 1 1.414-1.414l4.896 4.896a1 1 0 0 1 0 1.414ZM270.057 56.518a1 1 0 0 1 0 1.414l-4.896 4.896a1 1 0 1 1-1.414-1.414l4.896-4.896a1 1 0 0 1 1.414 0Z"
    clip-rule="evenodd"
  />
  <path
    fill="currentColor"
    fill-rule="evenodd"
    d="M270.058 62.828a1 1 0 0 1-1.414 0l-4.896-4.896a1 1 0 1 1 1.414-1.414l4.896 4.896a1 1 0 0 1 0 1.414ZM32.77 243.518a1 1 0 0 1 0 1.415l-4.895 4.895a1 1 0 1 1-1.415-1.414l4.896-4.896a1 1 0 0 1 1.415 0Z"
    clip-rule="evenodd"
  />
  <path
    fill="currentColor"
    fill-rule="evenodd"
    d="M32.77 249.829a1 1 0 0 1-1.414 0l-4.895-4.896a1.001 1.001 0 0 1 1.414-1.415l4.896 4.896a1 1 0 0 1 0 1.415ZM36.73 364.519a1 1 0 0 1 0 1.414l-4.897 4.896a1 1 0 0 1-1.414-1.414l4.896-4.896a1 1 0 0 1 1.414 0Z"
    clip-rule="evenodd"
  />
  <path
    fill="currentColor"
    fill-rule="evenodd"
    d="M36.73 370.829a1 1 0 0 1-1.415 0l-4.896-4.896a1 1 0 1 1 1.414-1.414l4.896 4.896a1 1 0 0 1 0 1.414ZM66.94 281.071a1 1 0 0 1 0 1.415l-4.896 4.896a1 1 0 0 1-1.414-1.415l4.896-4.896a1 1 0 0 1 1.414 0Z"
    clip-rule="evenodd"
  />
  <path
    fill="currentColor"
    fill-rule="evenodd"
    d="M66.94 287.382a1 1 0 0 1-1.414 0l-4.896-4.896a1.001 1.001 0 0 1 1.414-1.415l4.896 4.896a1 1 0 0 1 0 1.415ZM50.3 292.653a1 1 0 0 1 0 1.414l-4.897 4.896a1 1 0 0 1-1.414-1.414l4.896-4.896a1 1 0 0 1 1.414 0Z"
    clip-rule="evenodd"
  />
  <path
    fill="currentColor"
    fill-rule="evenodd"
    d="M50.3 298.963a1 1 0 0 1-1.415 0l-4.896-4.896a1 1 0 1 1 1.415-1.414l4.895 4.896a1 1 0 0 1 0 1.414ZM225.09 218.246a.999.999 0 0 1 0 1.414l-4.896 4.896a.999.999 0 1 1-1.414-1.414l4.896-4.896a.999.999 0 0 1 1.414 0Z"
    clip-rule="evenodd"
  />
  <path
    fill="currentColor"
    fill-rule="evenodd"
    d="M225.091 224.556a.999.999 0 0 1-1.414 0l-4.896-4.896a.999.999 0 1 1 1.414-1.414l4.896 4.896a1 1 0 0 1 0 1.414ZM130.29 112.577a1 1 0 0 1 0 1.414l-4.896 4.896a1 1 0 0 1-1.415-1.414l4.896-4.896a1 1 0 0 1 1.415 0Z"
    clip-rule="evenodd"
  />
  <path
    fill="currentColor"
    fill-rule="evenodd"
    d="M130.29 118.887a1 1 0 0 1-1.414 0l-4.896-4.896a.999.999 0 1 1 1.414-1.414l4.896 4.896a.999.999 0 0 1 0 1.414ZM71.186 386.519a1 1 0 0 1 0 1.414l-4.896 4.896a1 1 0 0 1-1.415-1.414l4.896-4.896a1 1 0 0 1 1.415 0Z"
    clip-rule="evenodd"
  />
  <path
    fill="currentColor"
    fill-rule="evenodd"
    d="M71.186 392.829a1 1 0 0 1-1.415 0l-4.895-4.896a1 1 0 1 1 1.414-1.414l4.896 4.896a1 1 0 0 1 0 1.414ZM28.403 408.519a1 1 0 0 1 0 1.414l-4.896 4.896a1 1 0 0 1-1.414-1.414l4.896-4.896a1 1 0 0 1 1.414 0Z"
    clip-rule="evenodd"
  />
  <path
    fill="currentColor"
    fill-rule="evenodd"
    d="M28.403 414.829a1 1 0 0 1-1.414 0l-4.896-4.896a1 1 0 1 1 1.414-1.414l4.896 4.896a1 1 0 0 1 0 1.414ZM36.059 419.94a1 1 0 0 1 0 1.414l-4.896 4.896a1 1 0 0 1-1.415-1.414l4.896-4.896a1 1 0 0 1 1.415 0Z"
    clip-rule="evenodd"
  />
  <path
    fill="currentColor"
    fill-rule="evenodd"
    d="M36.059 426.25a1 1 0 0 1-1.414 0l-4.896-4.896a1 1 0 1 1 1.414-1.414l4.896 4.896a1 1 0 0 1 0 1.414ZM57.24 397.66a1 1 0 0 1 0 1.414l-4.895 4.896a1 1 0 1 1-1.414-1.414l4.896-4.896a1 1 0 0 1 1.414 0Z"
    clip-rule="evenodd"
  />
  <path
    fill="currentColor"
    fill-rule="evenodd"
    d="M57.24 403.97a1 1 0 0 1-1.413 0l-4.896-4.896a1 1 0 1 1 1.414-1.414l4.896 4.896a1 1 0 0 1 0 1.414ZM268.688 342.519a.999.999 0 0 1 0 1.414l-4.896 4.896a1 1 0 0 1-1.414-1.415l4.896-4.895a.999.999 0 0 1 1.414 0Z"
    clip-rule="evenodd"
  />
  <path
    fill="currentColor"
    fill-rule="evenodd"
    d="M268.689 348.829c-.391.39-1.024.39-1.415 0l-4.896-4.896a1 1 0 0 1 1.415-1.414l4.896 4.896a1 1 0 0 1 0 1.414ZM256.114 331.519a1 1 0 0 1 0 1.414l-4.896 4.896a1 1 0 0 1-1.414-1.415l4.896-4.895a.999.999 0 0 1 1.414 0Z"
    clip-rule="evenodd"
  />
  <path
    fill="currentColor"
    fill-rule="evenodd"
    d="M256.114 337.829a1 1 0 0 1-1.414 0l-4.896-4.896a1 1 0 0 1 1.414-1.414l4.896 4.896a.999.999 0 0 1 0 1.414ZM27.216 122.518a1 1 0 0 1 0 1.414l-4.896 4.896a1 1 0 1 1-1.414-1.414l4.896-4.896a1 1 0 0 1 1.414 0Z"
    clip-rule="evenodd"
  />
  <path
    fill="currentColor"
    fill-rule="evenodd"
    d="M27.216 128.828a1 1 0 0 1-1.414 0l-4.896-4.896a1 1 0 1 1 1.415-1.414l4.895 4.896a1 1 0 0 1 0 1.414ZM276.354 221.518a.999.999 0 0 1 0 1.414l-4.896 4.896a.999.999 0 1 1-1.414-1.414l4.896-4.896a1 1 0 0 1 1.414 0Z"
    clip-rule="evenodd"
  />
  <path
    fill="currentColor"
    fill-rule="evenodd"
    d="M276.355 227.828a1 1 0 0 1-1.415 0l-4.896-4.896a1 1 0 0 1 1.415-1.414l4.896 4.896a1 1 0 0 1 0 1.414ZM27.875 254.833a1 1 0 0 1 0 1.414l-4.896 4.896a1 1 0 0 1-1.415-1.415l4.896-4.895a1 1 0 0 1 1.415 0Z"
    clip-rule="evenodd"
  />
  <path
    fill="currentColor"
    fill-rule="evenodd"
    d="M27.875 261.143a1 1 0 0 1-1.415 0l-4.896-4.896a1 1 0 1 1 1.415-1.414l4.896 4.896a1 1 0 0 1 0 1.414ZM249.988 373.134a1 1 0 0 1 1.414 0l3.676 3.676 3.677-3.676a1 1 0 0 1 1.414 1.414l-4.091 4.091v4.734l3.676-3.676a.999.999 0 1 1 1.414 1.414l-5.09 5.09v29.221l5.09 5.09a1 1 0 1 1-1.414 1.415l-3.676-3.676v4.741l4.091 4.09a1 1 0 0 1-1.414 1.414l-3.677-3.676-3.676 3.676a.999.999 0 1 1-1.414-1.414l4.09-4.09v-4.76l-3.464 3.464a.999.999 0 1 1-1.414-1.414l4.878-4.879V386.22l-4.878-4.879a1 1 0 0 1 1.414-1.414l3.464 3.465v-4.753l-4.09-4.091a1 1 0 0 1 0-1.414Z"
    clip-rule="evenodd"
  />
  <path
    fill="currentColor"
    fill-rule="evenodd"
    d="M282.865 395.619a.999.999 0 0 1 0 1.414l-3.676 3.676 3.676 3.676a1 1 0 1 1-1.414 1.415l-4.09-4.091h-4.734l3.675 3.676a1 1 0 1 1-1.414 1.414l-5.09-5.09h-29.221l-5.09 5.09a.999.999 0 1 1-1.414-1.414l3.676-3.676h-4.741l-4.091 4.091a1 1 0 0 1-1.414-1.415l3.676-3.676-3.676-3.676a1 1 0 0 1 1.414-1.414l4.091 4.09h4.76l-3.465-3.464a1 1 0 0 1 1.414-1.414l4.879 4.878h29.183l4.879-4.878a1 1 0 0 1 1.414 1.414l-3.464 3.464h4.753l4.09-4.09a1 1 0 0 1 1.414 0Z"
    clip-rule="evenodd"
  />
  <path
    fill="currentColor"
    fill-rule="evenodd"
    d="M267.2 381.722a1 1 0 0 1 1.084.909l.399 4.544 4.544.399a1 1 0 1 1-.175 1.992l-4.915-.431-2.388 2.388 4.472.392a1 1 0 1 1-.175 1.992l-6.142-.539-16.163 16.163.539 6.142a1 1 0 1 1-1.993.175l-.392-4.471-2.392 2.392.432 4.915a1 1 0 0 1-1.993.175l-.398-4.545-4.545-.399a1 1 0 1 1 .175-1.992l4.915.432 2.403-2.403-4.212-.369a1.001 1.001 0 0 1 .175-1.993l5.882.516 16.142-16.141-.516-5.883a.999.999 0 1 1 1.992-.175l.369 4.212 2.399-2.398-.431-4.916a.998.998 0 0 1 .908-1.083Z"
    clip-rule="evenodd"
  />
  <path
    fill="currentColor"
    fill-rule="evenodd"
    d="M274.634 413.198a1 1 0 0 1-.921 1.074l-4.582.349-.349 4.582a1 1 0 0 1-1.994-.152l.379-4.98-2.469-2.469-.344 4.507a1 1 0 1 1-1.994-.152l.474-6.219-16.568-16.568-6.22.474a1.001 1.001 0 0 1-.152-1.995l4.508-.343-2.473-2.474-4.98.38a1 1 0 0 1-.152-1.994l4.582-.35.349-4.581a1 1 0 0 1 1.994.152l-.379 4.979 2.484 2.484.324-4.245a1 1 0 1 1 1.994.152l-.454 5.957 16.546 16.547 5.958-.454a1 1 0 0 1 .152 1.994l-4.246.324 2.481 2.48 4.979-.38a1 1 0 0 1 1.073.921ZM37.947 22.824a1 1 0 0 1 1.414 0l3.677 3.676 3.676-3.676a1 1 0 0 1 1.414 1.414l-4.09 4.09v4.735l3.675-3.676a1 1 0 0 1 1.414 1.414l-5.09 5.09v29.221l5.09 5.09a1 1 0 0 1-1.414 1.415l-3.675-3.676v4.74l4.09 4.091a1 1 0 0 1-1.414 1.414l-3.676-3.676-3.677 3.676a1 1 0 0 1-1.414-1.414l4.09-4.09v-4.76l-3.464 3.464a1 1 0 1 1-1.414-1.414l4.879-4.879V35.91l-4.879-4.878a1 1 0 0 1 1.414-1.415l3.465 3.465v-4.753l-4.09-4.09a1 1 0 0 1 0-1.415Z"
    clip-rule="evenodd"
  />
  <path
    fill="currentColor"
    fill-rule="evenodd"
    d="M70.824 45.31a1 1 0 0 1 0 1.413L67.148 50.4l3.676 3.676a1 1 0 0 1-1.414 1.414l-4.09-4.09h-4.734l3.675 3.675a1 1 0 0 1-1.414 1.414l-5.09-5.09H28.536l-5.09 5.09a1 1 0 1 1-1.414-1.414l3.675-3.675h-4.74l-4.09 4.09a1 1 0 0 1-1.415-1.415l3.676-3.675-3.676-3.676a1 1 0 0 1 1.414-1.415l4.09 4.09h4.76l-3.464-3.464a1 1 0 1 1 1.414-1.414l4.88 4.879h29.182l4.879-4.879a1 1 0 0 1 1.414 1.414L60.567 49.4h4.753l4.09-4.09a1 1 0 0 1 1.414 0Z"
    clip-rule="evenodd"
  />
  <path
    fill="currentColor"
    fill-rule="evenodd"
    d="M55.873 30.719a1 1 0 0 1 1.063.932l.303 4.617 4.617.303a1 1 0 1 1-.131 1.996l-5.04-.33-2.547 2.546 4.543.297a1 1 0 0 1-.131 1.996l-6.293-.412-16.952 16.952.413 6.293a1 1 0 1 1-1.996.13l-.298-4.542-2.55 2.55.33 5.04a1 1 0 0 1-1.995.131l-.303-4.617-4.617-.302a1 1 0 1 1 .13-1.996l5.04.33 2.562-2.562-4.277-.28a1 1 0 1 1 .13-1.995l6.028.394 16.93-16.93-.395-6.027a1 1 0 0 1 1.996-.13l.28 4.277 2.557-2.558-.33-5.04a1 1 0 0 1 .933-1.063Z"
    clip-rule="evenodd"
  />
  <path
    fill="currentColor"
    fill-rule="evenodd"
    d="M63.162 63.474a1 1 0 0 1-.94 1.057l-4.642.27-.27 4.641a1 1 0 0 1-1.997-.116l.296-5.082-2.6-2.6-.265 4.567a1 1 0 1 1-1.997-.116l.37-6.343L33.9 42.536l-6.343.37a1 1 0 0 1-.116-1.997l4.566-.266-2.604-2.604-5.081.297a1 1 0 0 1-.117-1.997l4.642-.27.27-4.642a1 1 0 1 1 1.997.117l-.296 5.081 2.614 2.615.25-4.3a1 1 0 0 1 1.997.117l-.354 6.076L52.52 58.326l6.076-.354a1 1 0 0 1 .116 1.997l-4.3.25 2.611 2.611 5.082-.296a1 1 0 0 1 1.057.94ZM53.304 15.673a1 1 0 0 1 1-1h229.331a1 1 0 0 1 0 2H54.305a1 1 0 0 1-1-1ZM54.523 26.673a1 1 0 0 1 1-1h35.059a1 1 0 1 1 0 2h-35.06a1 1 0 0 1-1-1Zm75.118 0a1 1 0 0 1 1-1h106.027a1 1 0 0 1 0 2H130.641a1 1 0 0 1-1-1Zm120.303 0a1 1 0 0 1 1-1h32.766a1 1 0 1 1 0 2h-32.766a1 1 0 0 1-1-1ZM13.935 26.673a1 1 0 0 1 1-1H32.66a1 1 0 1 1 0 2H14.935a1 1 0 0 1-1-1ZM13.935 70.673a1 1 0 0 0 1 1h10.38a1 1 0 1 0 0-2h-10.38a1 1 0 0 0-1 1ZM13.935 37.673a1 1 0 0 1 1-1h4.478a1 1 0 1 1 0 2h-4.478a1 1 0 0 1-1-1ZM13.935 59.673a1 1 0 0 0 1 1h4.478a1 1 0 1 0 0-2h-4.478a1 1 0 0 0-1 1Z"
    clip-rule="evenodd"
  />
  <path
    fill="currentColor"
    fill-rule="evenodd"
    d="M54.466 16.673H14.602a1 1 0 1 1 0-2h39.864a1 1 0 1 1 0 2ZM206.243 37.673a1 1 0 0 1 1-1h76.467a1 1 0 0 1 0 2h-76.467a1 1 0 0 1-1-1Zm-13.307 1H166.9a1 1 0 0 1 0-2h26.036a1 1 0 0 1 0 2Zm-38.925 0h-23.845a1 1 0 1 1 0-2h23.845a1 1 0 0 1 0 2Zm-68.065 0h-16.86a1 1 0 0 1 0-2h16.86a1 1 0 1 1 0 2ZM73.214 48.673a1 1 0 0 1 1-1h12.901a1 1 0 0 1 0 2h-12.9a1 1 0 0 1-1-1Zm136.015 0a1 1 0 0 1 1-1h73.481a1 1 0 0 1 0 2h-73.481a1 1 0 0 1-1-1ZM70.063 59.673a1 1 0 0 1 1-1h23.782a1 1 0 0 1 0 2H71.063a1 1 0 0 1-1-1Zm138.796 0a1 1 0 0 1 1-1h7.359a1 1 0 0 1 0 2h-7.359a1 1 0 0 1-1-1Zm22.613 0a1 1 0 0 1 1-1h28.071a1 1 0 0 1 0 2h-28.071a1 1 0 0 1-1-1Zm41.911 0a1 1 0 0 1 1-1h9.327a1 1 0 0 1 0 2h-9.327a1 1 0 0 1-1-1ZM68.129 70.673a1 1 0 0 1 1-1H283.71a1 1 0 1 1 0 2H69.129a1 1 0 0 1-1-1ZM13.936 81.673a1 1 0 0 1 1-1h48.89a1 1 0 1 1 0 2h-48.89a1 1 0 0 1-1-1Zm63.626 0a1 1 0 0 1 1-1H283.71a1 1 0 0 1 0 2H78.562a1 1 0 0 1-1-1ZM13.936 92.673a1 1 0 0 1 1-1H283.71a1 1 0 0 1 0 2H14.936a1 1 0 0 1-1-1ZM155.584 104.673H14.936a1 1 0 0 1 0-2h140.648a1 1 0 1 1 0 2Zm13.73-1a1 1 0 0 1 1-1h10.389a1 1 0 0 1 0 2h-10.389a1 1 0 0 1-1-1Zm44.451 0a1 1 0 0 1 1-1h23.277a1 1 0 1 1 0 2h-23.277a1 1 0 0 1-1-1Zm35.508 0a1 1 0 0 1 1-1h33.437a1 1 0 0 1 0 2h-33.437a1 1 0 0 1-1-1ZM13.936 114.673a1 1 0 0 1 1-1h18.48a1 1 0 0 1 0 2h-18.48a1 1 0 0 1-1-1Zm269.774 1h-33.154a1 1 0 1 1 0-2h33.154a1 1 0 0 1 0 2Zm-151.359-1a1 1 0 0 1 1-1h24.589a1 1 0 0 1 0 2h-24.589a1 1 0 0 1-1-1Zm-64.921 1H46.291a1 1 0 0 1 0-2H67.43a1 1 0 0 1 0 2Zm119.627-1a1 1 0 0 1 1-1h19.639a1 1 0 1 1 0 2h-19.639a1 1 0 0 1-1-1Zm37.594 0a1 1 0 0 1 1-1h12.742a1 1 0 0 1 0 2h-12.742a1 1 0 0 1-1-1ZM18.41 126.673h-3.474a1 1 0 0 1 0-2h3.474a1 1 0 0 1 0 2Zm10.439-1a1 1 0 0 1 1-1h28.06a1 1 0 0 1 0 2H29.85a1 1 0 0 1-1-1Zm254.861 1h-30.987a1 1 0 0 1 0-2h30.987a1 1 0 0 1 0 2Zm-100.887-1a1 1 0 0 1 1-1h31.009a1 1 0 1 1 0 2h-31.009a1 1 0 0 1-1-1ZM261.503 136.673a1 1 0 0 1 1-1h21.207a1 1 0 0 1 0 2h-21.207a1 1 0 0 1-1-1Zm-247.567 0a1 1 0 0 1 1-1H53.09a1 1 0 0 1 0 2H14.936a1 1 0 0 1-1-1Zm200.925 0a1 1 0 0 1 1-1h7.581a1 1 0 0 1 0 2h-7.581a1 1 0 0 1-1-1ZM13.936 147.673a1 1 0 0 1 1-1h32.491a1 1 0 0 1 0 2H14.936a1 1 0 0 1-1-1Zm269.774 1h-22.277a1 1 0 0 1 0-2h22.277a1 1 0 0 1 0 2Zm-82.006-1a1 1 0 0 1 1-1h8.278a1 1 0 0 1 0 2h-8.278a1 1 0 0 1-1-1Zm38.601 0a1 1 0 0 1 1-1h5.315a1 1 0 0 1 0 2h-5.315a1 1 0 0 1-1-1ZM47.365 159.673h-32.43a1 1 0 1 1 0-2h32.43a1 1 0 0 1 0 2Zm162.28-1a1 1 0 0 1 1-1h11.065a1 1 0 0 1 0 2h-11.065a1 1 0 0 1-1-1Zm64.541 0a1 1 0 0 1 1-1h8.524a1 1 0 0 1 0 2h-8.524a1 1 0 0 1-1-1ZM13.936 169.673a1 1 0 0 1 1-1h32.149a1 1 0 0 1 0 2h-32.15a1 1 0 0 1-1-1Zm269.774 1h-15.177a1 1 0 1 1 0-2h15.177a1 1 0 0 1 0 2ZM13.936 180.673a1 1 0 0 1 1-1h9.131a1 1 0 0 1 0 2h-9.131a1 1 0 0 1-1-1Zm247.141 0a1 1 0 0 1 1-1h21.633a1 1 0 0 1 0 2h-21.633a1 1 0 0 1-1-1ZM13.936 191.673a1 1 0 0 1 1-1h9.262a1 1 0 0 1 0 2h-9.262a1 1 0 0 1-1-1Zm269.774 1h-3.687a1 1 0 1 1 0-2h3.687a1 1 0 0 1 0 2ZM24.563 203.673h-9.627a1 1 0 1 1 0-2h9.627a1 1 0 0 1 0 2Zm250.936-1a1 1 0 0 1 1-1h7.211a1 1 0 0 1 0 2h-7.211a1 1 0 0 1-1-1ZM13.936 213.673a1 1 0 0 1 1-1h9.434a1 1 0 0 1 0 2h-9.434a1 1 0 0 1-1-1Zm269.774 1h-16.477a1 1 0 1 1 0-2h16.477a1 1 0 0 1 0 2ZM30.303 225.673H14.936a1 1 0 1 1 0-2h15.367a1 1 0 0 1 0 2Zm229.994-1a1 1 0 0 1 1-1h6.414a1 1 0 0 1 0 2h-6.414a1 1 0 0 1-1-1Zm17.828 0a1 1 0 0 1 1-1h4.585a1 1 0 0 1 0 2h-4.585a1 1 0 0 1-1-1ZM46.398 236.673H14.936a1 1 0 1 1 0-2h31.462a1 1 0 0 1 0 2Zm205.793-1a1 1 0 0 1 1-1h9.964a1 1 0 1 1 0 2h-9.964a1 1 0 0 1-1-1Zm24.49 0a1 1 0 0 1 1-1h6.029a1 1 0 0 1 0 2h-6.029a1 1 0 0 1-1-1ZM23.275 247.673h-8.34a1 1 0 1 1 0-2h8.34a1 1 0 0 1 0 2Zm11.715-1a1 1 0 0 1 1-1h6.837a1 1 0 0 1 0 2H35.99a1 1 0 0 1-1-1Zm238.221 0a1 1 0 0 1 1-1h9.499a1 1 0 0 1 0 2h-9.499a1 1 0 0 1-1-1ZM13.936 257.673a1 1 0 0 1 1-1h3.181a1 1 0 0 1 0 2h-3.181a1 1 0 0 1-1-1Zm269.774 1h-5.235a1 1 0 1 1 0-2h5.235a1 1 0 0 1 0 2Zm-253.758-1a1 1 0 0 1 1-1h7.797a1 1 0 0 1 0 2h-7.797a1 1 0 0 1-1-1ZM22.785 268.673a1 1 0 0 1 1-1h9.92a1 1 0 0 1 0 2h-9.92a1 1 0 0 1-1-1Zm260.925 1h-9.216a1 1 0 1 1 0-2h9.216a1 1 0 0 1 0 2ZM245.473 279.673a1 1 0 0 1 1-1h6.972a1 1 0 0 1 0 2h-6.972a1 1 0 0 1-1-1Zm-231.537.001a1 1 0 0 1 1-1h7.642a1 1 0 1 1 0 2h-7.642a1 1 0 0 1-1-1Zm256.608-.001a1 1 0 0 1 1-1h12.166a1 1 0 0 1 0 2h-12.166a1 1 0 0 1-1-1ZM13.936 290.674a1 1 0 0 1 1-1h8.808a1 1 0 1 1 0 2h-8.808a1 1 0 0 1-1-1Zm269.774 1h-11a1 1 0 0 1 0-2h11a1 1 0 1 1 0 2Zm-45.36-1a1 1 0 0 1 1-1h8.855a1 1 0 1 1 0 2h-8.855a1 1 0 0 1-1-1ZM13.936 301.674a1 1 0 0 1 1-1h7.16a1 1 0 1 1 0 2h-7.16a1 1 0 0 1-1-1Zm269.774 1h-11.618a1 1 0 0 1 0-2h11.618a1 1 0 1 1 0 2Zm-172.211-1a1 1 0 0 1 1-1h9.266a1 1 0 1 1 0 2h-9.266a1 1 0 0 1-1-1Zm61.778 0a1 1 0 0 1 1-1h12.973a1 1 0 1 1 0 2h-12.973a1 1 0 0 1-1-1ZM13.936 312.674a1 1 0 0 1 1-1h7.366a1 1 0 1 1 0 2h-7.366a1 1 0 0 1-1-1Zm108.653 1h-14.827a1 1 0 0 1 0-2h14.827a1 1 0 1 1 0 2Zm74.164-1a1 1 0 0 1 1-1h10.09a1 1 0 1 1 0 2h-10.09a1 1 0 0 1-1-1Zm36.037 0a1 1 0 0 1 1-1h24.609a1 1 0 1 1 0 2H233.79a1 1 0 0 1-1-1ZM283.71 324.674h-26.032a1 1 0 1 1 0-2h26.032a1 1 0 1 1 0 2Zm-162.562 0H98.29a1 1 0 0 1 0-2h22.858a1 1 0 1 1 0 2Zm52.747-1a1 1 0 0 1 1-1h23.269a1 1 0 1 1 0 2h-23.269a1 1 0 0 1-1-1Zm54.982 0a1 1 0 0 1 1-1h9.885a1 1 0 1 1 0 2h-9.885a1 1 0 0 1-1-1ZM13.936 334.674a1 1 0 0 1 1-1h21.987a1 1 0 1 1 0 2H14.936a1 1 0 0 1-1-1Zm269.774 1h-23.651a1 1 0 0 1 0-2h23.651a1 1 0 1 1 0 2Zm-195.481-1a1 1 0 0 1 1-1h30.889a1 1 0 1 1 0 2h-30.89a1 1 0 0 1-1-1Zm85.666 0a1 1 0 0 1 1-1h39.95a1 1 0 1 1 0 2h-39.95a1 1 0 0 1-1-1Zm72.964 1h-11.422a1 1 0 0 1 0-2h11.422a1 1 0 1 1 0 2ZM13.936 345.674a1 1 0 0 1 1-1h68.54a1 1 0 1 1 0 2h-68.54a1 1 0 0 1-1-1Zm244.286 1h-22.771a1 1 0 0 1 0-2h22.771a1 1 0 1 1 0 2Zm25.488 0h-11.255a1 1 0 0 1 0-2h11.255a1 1 0 1 1 0 2Zm-81.762 0h-27.114a1 1 0 0 1 0-2h27.114a1 1 0 1 1 0 2ZM13.936 356.674a1 1 0 0 1 1-1h104.462a1 1 0 1 1 0 2H14.936a1 1 0 0 1-1-1Zm269.774 1h-44.459a1 1 0 1 1 0-2h44.459a1 1 0 1 1 0 2Zm-74.473-1a1 1 0 0 1 1-1h9.74a1 1 0 1 1 0 2h-9.74a1 1 0 0 1-1-1ZM13.936 367.674a1 1 0 0 1 1-1h12.46a1 1 0 1 1 0 2h-12.46a1 1 0 0 1-1-1Zm24.919 0a1 1 0 0 1 1-1h96.76a1 1 0 1 1 0 2h-96.76a1 1 0 0 1-1-1Zm244.855 1h-89.948a1 1 0 1 1 0-2h89.948a1 1 0 1 1 0 2ZM13.936 378.674a1 1 0 0 1 1-1h94.5a1 1 0 0 1 0 2h-94.5a1 1 0 0 1-1-1Zm113.891 0a1 1 0 0 1 1-1h107.554a1 1 0 1 1 0 2H128.827a1 1 0 0 1-1-1ZM59.806 390.674h-44.87a1 1 0 0 1 0-2h44.87a1 1 0 0 1 0 2Zm14.52-1a1 1 0 0 1 1-1h11.02a1 1 0 0 1 0 2h-11.02a1 1 0 0 1-1-1Zm58.478 0a1 1 0 0 1 1-1h94.406a1 1 0 0 1 0 2h-94.406a1 1 0 0 1-1-1ZM13.936 400.674a1 1 0 0 1 1-1h32.613a1 1 0 0 1 0 2H14.936a1 1 0 0 1-1-1Zm73.094 1H60.54a1 1 0 0 1 0-2H87.03a1 1 0 0 1 0 2Zm119.208-1a1 1 0 0 1 1-1h15.136a1 1 0 0 1 0 2h-15.136a1 1 0 0 1-1-1ZM13.936 411.674a1 1 0 0 1 1-1h4.416a1 1 0 0 1 0 2h-4.416a1 1 0 0 1-1-1Zm16.872 0a1 1 0 0 1 1-1h64.177a1 1 0 0 1 0 2H31.808a1 1 0 0 1-1-1Zm175.682 0a1 1 0 0 1 1-1h22.114a1 1 0 0 1 0 2H207.49a1 1 0 0 1-1-1ZM13.936 422.674a1 1 0 0 1 1-1h12.037a1 1 0 0 1 0 2H14.936a1 1 0 0 1-1-1Zm84.94 1H39.018a1 1 0 0 1 0-2h59.857a1 1 0 0 1 0 2Zm105.852-1a1 1 0 0 1 1-1h32.781a1 1 0 0 1 0 2h-32.781a1 1 0 0 1-1-1ZM282.242 434.674H14.613a1 1 0 1 1 0-2h267.629a1 1 0 0 1 0 2ZM283.81 423.513a1 1 0 0 1-1 1h-17.724a1 1 0 1 1 0-2h17.724a1 1 0 0 1 1 1ZM283.81 379.513a1 1 0 0 0-1-1h-10.379a1 1 0 1 0 0 2h10.379a1 1 0 0 0 1-1ZM283.81 412.513a1 1 0 0 1-1 1h-4.477a1 1 0 1 1 0-2h4.477a1 1 0 0 1 1 1ZM283.81 390.513a1 1 0 0 0-1-1h-4.477a1 1 0 1 0 0 2h4.477a1 1 0 0 0 1-1Z"
    clip-rule="evenodd"
  />
  <rect
    width="298"
    height="448"
    x="1"
    y="1"
    stroke="currentColor"
    stroke-width="2"
    rx="13"
  />
</svg>
