<svg
  xmlns="http://www.w3.org/2000/svg"
  width="300"
  height="450"
  fill="none"
  viewBox="0 0 300 450"
>
  <path
    fill="currentColor"
    d="M118.059 383.747c1.353 0 2.418.41 3.197 1.229.819.82 1.229 1.906 1.229 3.258 0 .861-.184 1.783-.553 2.766-.369.943-.922 1.845-1.66 2.705-.696.861-1.557 1.598-2.581 2.213-.984.615-2.09 1.004-3.32 1.168-.082.451-.143.922-.184 1.414 0 .451-.041.901-.123 1.352-.205 1.967-.43 4.016-.676 6.147a57.322 57.322 0 0 1-1.045 6.086 34.079 34.079 0 0 1-1.66 5.593c-.656 1.763-1.496 3.32-2.52 4.672a10.896 10.896 0 0 1-3.75 3.074c-1.475.778-3.237 1.168-5.286 1.168-4.59 0-8.176-1.578-10.758-4.734-1.106-1.311-1.946-2.848-2.52-4.61-.574-1.803-.86-3.729-.86-5.778 0-2.09.307-4.159.922-6.208.655-2.05 1.598-3.873 2.827-5.471 1.23-1.64 2.705-2.951 4.426-3.934 1.762-.984 3.75-1.476 5.963-1.476 3.114 0 5.552 1.127 7.315 3.381 1.434 1.926 2.151 4.426 2.151 7.5 0 1.803-.266 3.585-.799 5.347a18.589 18.589 0 0 1-2.213 4.734c-.943 1.393-2.09 2.52-3.442 3.38-1.312.861-2.787 1.291-4.426 1.291-2.131 0-3.832-.799-5.102-2.397-1.27-1.639-1.906-3.832-1.906-6.577 0-1.312.164-2.582.492-3.811.328-1.271.779-2.418 1.352-3.443.697-1.188 1.537-2.11 2.52-2.766a5.647 5.647 0 0 1 3.197-.983c.328 0 .615.123.86.368.246.246.37.533.37.861 0 .369-.123.676-.37.922a1.303 1.303 0 0 1-.86.307c-.86 0-1.598.287-2.213.861-.615.533-1.086 1.086-1.414 1.66-.45.819-.82 1.762-1.106 2.827a14.178 14.178 0 0 0-.369 3.197c0 .287.02.799.061 1.536.083.697.267 1.414.554 2.152a6.484 6.484 0 0 0 1.352 1.967c.615.574 1.475.86 2.582.86 1.23 0 2.356-.368 3.381-1.106a9.902 9.902 0 0 0 2.704-2.828 15.42 15.42 0 0 0 1.721-3.934c.41-1.475.615-2.95.615-4.425 0-1.189-.143-2.295-.43-3.32-.246-1.065-.656-1.967-1.229-2.705-1.23-1.598-3.013-2.397-5.348-2.397-1.844 0-3.484.43-4.918 1.291-1.434.82-2.664 1.926-3.688 3.319-.984 1.394-1.742 2.971-2.275 4.734a17.774 17.774 0 0 0-.799 5.286c0 3.565.943 6.516 2.828 8.852 2.09 2.54 5.04 3.811 8.852 3.811 2.499 0 4.487-.738 5.962-2.213 1.516-1.475 2.705-3.381 3.565-5.717.861-2.377 1.496-5.02 1.906-7.929a216.8 216.8 0 0 0 1.045-8.668 7.22 7.22 0 0 0 .123-1.291c.041-.409.102-.819.184-1.229a8.954 8.954 0 0 1-3.995-1.721 14.288 14.288 0 0 1-3.074-3.381 17.86 17.86 0 0 1-1.905-4.426 17.798 17.798 0 0 1-.676-4.856c0-.328.123-.615.368-.861.246-.245.533-.368.861-.368.328 0 .615.123.861.368.245.246.368.533.368.861 0 1.311.185 2.643.554 3.996.368 1.311.86 2.52 1.475 3.626a11.323 11.323 0 0 0 2.336 2.828c.942.779 1.967 1.27 3.073 1.475.205-1.598.431-3.053.676-4.364.287-1.352.656-2.5 1.107-3.442.451-.984 1.004-1.742 1.66-2.275.655-.533 1.475-.799 2.458-.799Zm-3.38 10.819a6.097 6.097 0 0 0 2.274-1.045 9.384 9.384 0 0 0 1.66-1.721c.491-.615.84-1.23 1.045-1.844.245-.656.368-1.23.368-1.722 0-1.352-.655-2.028-1.967-2.028-.491 0-.922.225-1.291.676-.327.41-.635 1.004-.922 1.783a22.426 22.426 0 0 0-.676 2.643c-.164 1.024-.328 2.11-.491 3.258ZM136.763 411.716c.327.082.573.266.737.553.205.287.267.594.185.922-.082.451-.308 1.291-.677 2.52a25.275 25.275 0 0 1-1.352 3.689 14.038 14.038 0 0 1-2.151 3.319c-.861.942-1.865 1.414-3.012 1.414-.902 0-1.599-.144-2.09-.431-.492-.327-.861-.655-1.107-.983a4.654 4.654 0 0 1-.553-1.107 9.015 9.015 0 0 1-1.967 1.783 4.237 4.237 0 0 1-2.397.738c-.779 0-1.394-.144-1.845-.431-.45-.286-.799-.594-1.045-.922a3.495 3.495 0 0 1-.676-1.659c-.123-.656-.164-1.271-.123-1.844 0-.574.062-1.086.185-1.537.082-.492.143-.799.184-.922l3.32-14.507a1.13 1.13 0 0 1 .553-.738c.287-.205.594-.266.922-.184.328.082.574.266.737.553.205.287.267.594.185.922l-3.319 14.569v.061c-.205.574-.328 1.27-.369 2.09-.041.779.082 1.352.369 1.721.163.246.471.369.922.369.532 0 1.065-.246 1.598-.738a10.121 10.121 0 0 0 1.475-1.721c.492-.697.922-1.414 1.291-2.151.369-.779.656-1.455.861-2.029l2.95-12.724a1.13 1.13 0 0 1 .553-.738c.287-.205.594-.266.922-.184.328.082.574.266.738.553.205.287.266.594.184.922l-3.749 16.228v.062c-.082.246-.144.594-.185 1.045-.041.45.041.799.246 1.045.246.287.656.43 1.23.43.45 0 .922-.287 1.413-.861.492-.573.943-1.311 1.353-2.213.451-.901.84-1.885 1.168-2.95.368-1.066.655-2.07.86-3.012.082-.328.267-.574.553-.738.287-.205.595-.266.923-.184Z"
  />
  <path
    fill="currentColor"
    d="M150.535 411.531c.327.082.573.267.737.554.205.287.267.594.185.922-.123.45-.369 1.291-.738 2.52a21.134 21.134 0 0 1-1.414 3.75 13.96 13.96 0 0 1-2.274 3.38c-.861.984-1.844 1.476-2.951 1.476-.942 0-1.659-.144-2.151-.431-.492-.327-.861-.655-1.107-.983a4.163 4.163 0 0 1-.614-1.291 6.928 6.928 0 0 1-.123-1.229c0-.41.02-.758.061-1.045.082-.328.144-.554.185-.676l3.012-13.216c-.492-.041-1.045-.082-1.66-.123a10.002 10.002 0 0 1-1.844-.431c-.205.984-.389 1.865-.553 2.643a80.739 80.739 0 0 1-.492 2.09 104.54 104.54 0 0 1-.492 1.783 16.738 16.738 0 0 1-.492 1.783c-.205.614-.594.922-1.168.922-.163 0-.266-.021-.307-.062a1.364 1.364 0 0 1-.799-.553.934.934 0 0 1-.123-.922c.369-.984.758-2.295 1.168-3.934.41-1.68.738-3.319.984-4.918l-.123-.123a1.249 1.249 0 0 1-.369-.922c.082-1.352.225-2.376.43-3.073.246-.738.492-1.271.738-1.598.246-.328.491-.513.737-.554.287-.082.492-.123.615-.123.328 0 .615.123.861.369.245.246.368.533.368.861 0 .451-.041 1.024-.123 1.721a30.422 30.422 0 0 1-.368 2.213c.655.205 1.393.348 2.213.43.86.082 1.618.082 2.274 0 .41 0 .758.144 1.045.431.246.286.328.655.246 1.106l-3.381 14.814v.062c-.082.246-.143.594-.184 1.045-.041.45.041.799.245 1.045.246.287.677.43 1.291.43.451 0 .922-.287 1.414-.861.492-.614.963-1.372 1.414-2.274.451-.943.861-1.947 1.229-3.012.369-1.106.677-2.151.922-3.135a1.13 1.13 0 0 1 .554-.738c.286-.164.594-.205.922-.123Z"
  />
  <path
    fill="currentColor"
    d="M158.193 401.143c.369 0 .84.143 1.414.43.614.246 1.127.902 1.536 1.967.246.574.41 1.23.492 1.967.123.738.185 1.558.185 2.459 0 1.68-.205 3.463-.615 5.348a21.3 21.3 0 0 1-1.721 5.164c-.779 1.557-1.742 2.868-2.889 3.934-1.148 1.024-2.459 1.536-3.934 1.536-1.394 0-2.5-.573-3.32-1.721l-3.196 13.769c-.164.656-.553.984-1.168.984-.082 0-.123-.021-.123-.062h-.184a1.126 1.126 0 0 1-.738-.553 1.072 1.072 0 0 1-.184-.922l4.979-21.33c.041-.205.082-.389.123-.553 0-.164.041-.328.122-.492l2.521-10.941a1.13 1.13 0 0 1 .553-.738c.287-.205.594-.266.922-.185.328.082.574.267.738.554.205.287.266.594.184.922l-.246.922c.697-.738 1.414-1.332 2.152-1.783.778-.451 1.577-.676 2.397-.676Zm-5.532 20.347c1.024 0 1.946-.431 2.766-1.291.819-.902 1.516-2.029 2.09-3.381a18.71 18.71 0 0 0 1.352-4.365c.328-1.598.492-3.094.492-4.487 0-1.475-.164-2.643-.492-3.504a2.693 2.693 0 0 0-.246-.491c-.123-.246-.266-.369-.43-.369-.615 0-1.25.287-1.906.86-.655.574-1.29 1.332-1.905 2.275-.615.901-1.189 1.946-1.721 3.135a23.908 23.908 0 0 0-1.291 3.626l-.308 1.353a10.763 10.763 0 0 0-.245 1.598 18.508 18.508 0 0 0-.062 1.537c0 1.229.184 2.151.553 2.766.287.492.738.738 1.353.738ZM179.829 411.531c.328.082.574.267.738.554.204.287.266.594.184.922-.123.45-.369 1.291-.738 2.52a21.206 21.206 0 0 1-1.413 3.75 13.963 13.963 0 0 1-2.275 3.38c-.86.984-1.844 1.476-2.95 1.476-.943 0-1.66-.144-2.152-.431-.492-.327-.86-.655-1.106-.983a4.144 4.144 0 0 1-.615-1.291 6.928 6.928 0 0 1-.123-1.229c0-.41.021-.758.061-1.045.082-.328.144-.554.185-.676l3.012-13.216c-.492-.041-1.045-.082-1.66-.123a10.02 10.02 0 0 1-1.844-.431c-.205.984-.389 1.865-.553 2.643a80.739 80.739 0 0 1-.492 2.09 104.54 104.54 0 0 1-.492 1.783 16.726 16.726 0 0 1-.491 1.783c-.205.614-.595.922-1.168.922-.164 0-.267-.021-.308-.062a1.367 1.367 0 0 1-.799-.553.934.934 0 0 1-.123-.922c.369-.984.758-2.295 1.168-3.934.41-1.68.738-3.319.984-4.918l-.123-.123a1.249 1.249 0 0 1-.369-.922c.082-1.352.225-2.376.43-3.073.246-.738.492-1.271.738-1.598.246-.328.492-.513.738-.554.286-.082.491-.123.614-.123.328 0 .615.123.861.369s.369.533.369.861c0 .451-.041 1.024-.123 1.721a31.026 31.026 0 0 1-.369 2.213c.656.205 1.393.348 2.213.43.86.082 1.619.082 2.274 0 .41 0 .758.144 1.045.431.246.286.328.655.246 1.106l-3.381 14.814v.062c-.082.246-.143.594-.184 1.045-.041.45.041.799.246 1.045.246.287.676.43 1.291.43.45 0 .922-.287 1.413-.861.492-.614.963-1.372 1.414-2.274.451-.943.861-1.947 1.23-3.012.368-1.106.676-2.151.922-3.135a1.13 1.13 0 0 1 .553-.738c.287-.164.594-.205.922-.123Z"
  />
  <path
    fill="currentColor"
    d="M187.057 411.716c.328.082.574.266.738.553.204.287.266.594.184.922a600.74 600.74 0 0 0-.676 2.52 21.821 21.821 0 0 1-1.414 3.689 14.038 14.038 0 0 1-2.151 3.319c-.861.942-1.845 1.414-2.951 1.414-.902 0-1.619-.144-2.151-.431-.492-.327-.861-.655-1.107-.983a3.25 3.25 0 0 1-.553-1.291c-.123-.451-.164-.861-.123-1.229 0-.41.041-.758.123-1.045.041-.328.082-.554.123-.676l3.688-16.167a1.13 1.13 0 0 1 .553-.738c.287-.205.594-.266.922-.184.328.082.574.266.738.553.205.287.266.594.184.922l-3.749 16.228v.062c-.082.246-.144.594-.185 1.045 0 .45.103.799.308 1.045.163.287.573.43 1.229.43.451 0 .902-.287 1.352-.861.492-.573.943-1.311 1.353-2.213.45-.901.86-1.885 1.229-2.95.369-1.066.656-2.07.861-3.012a1.13 1.13 0 0 1 .553-.738c.287-.205.594-.266.922-.184Zm-3.934-12.417c-.574 0-1.045-.205-1.414-.615-.287-.41-.369-.901-.246-1.475.123-.41.348-.738.676-.984a1.96 1.96 0 0 1 1.23-.43c.614 0 1.086.226 1.414.676.286.369.368.84.245 1.414a1.767 1.767 0 0 1-.737 1.045 1.891 1.891 0 0 1-1.168.369Z"
  />
  <path
    fill="currentColor"
    d="M201.635 411.9c.328.082.574.267.738.553.205.287.266.595.184.923 0 .041-.082.327-.245.86-.164.533-.451 1.209-.861 2.029-.41.778-.943 1.639-1.598 2.581-.615.902-1.414 1.742-2.398 2.521-.983.778-2.151 1.434-3.503 1.967-1.353.532-2.91.799-4.672.799a1.18 1.18 0 0 1-.861-.369 1.18 1.18 0 0 1-.369-.861c0-.327.123-.614.369-.86a1.18 1.18 0 0 1 .861-.369c2.787 0 4.18-1.578 4.18-4.733 0-1.271-.287-2.623-.861-4.057a99.534 99.534 0 0 0-1.844-4.426 4.951 4.951 0 0 0-.43-.799l-.369-.861c-.246.861-.492 1.68-.738 2.459a33.432 33.432 0 0 1-.614 2.09 53 53 0 0 1-.431 1.537l-.123.553c-.122.574-.512.861-1.167.861h-.369c-.328-.082-.553-.267-.676-.554a1.385 1.385 0 0 1-.123-.983c0-.082.102-.451.307-1.107.205-.696.43-1.536.676-2.52.287-.983.594-2.049.922-3.196.369-1.148.717-2.275 1.045-3.381-.123-1.025-.123-1.906 0-2.643.123-.738.349-1.332.676-1.783.205-.328.513-.574.922-.738.451-.164.861-.225 1.23-.184.41.041.717.205.922.492.246.246.266.614.061 1.106-.123.328-.307.84-.553 1.537-.205.697-.451 1.496-.738 2.397.082.369.185.779.308 1.23.123.409.287.86.492 1.352.163.328.327.676.491 1.045l.492 1.106a95.801 95.801 0 0 1 1.967 4.734c.656 1.598.984 3.176.984 4.733 0 .533-.041 1.045-.123 1.537-.082.45-.185.881-.308 1.29.902-.614 1.64-1.311 2.213-2.09.615-.778 1.086-1.516 1.414-2.212.369-.697.635-1.291.799-1.783.164-.492.246-.779.246-.861.082-.328.266-.573.553-.737.287-.205.595-.267.922-.185Z"
  />
  <path
    fill="currentColor"
    d="M216.413 411.408c.327.082.573.267.737.554.205.287.267.594.185.922-.041.082-.144.43-.308 1.045-.164.573-.43 1.27-.799 2.09-.328.819-.799 1.721-1.414 2.704a12.916 12.916 0 0 1-2.151 2.644c-.82.778-1.803 1.434-2.951 1.967-1.147.532-2.458.799-3.934.799-2.049 0-3.647-.861-4.794-2.582-.861-1.352-1.291-3.155-1.291-5.409 0-1.476.205-3.074.614-4.795a20.305 20.305 0 0 1 1.783-4.795c.779-1.516 1.701-2.766 2.766-3.749 1.066-.984 2.254-1.476 3.566-1.476 1.844 0 3.114.779 3.811 2.336.287.697.409 1.455.368 2.275 0 .778-.122 1.577-.368 2.397a9.977 9.977 0 0 1-1.045 2.336c-.41.737-.861 1.352-1.353 1.844-1.106 1.27-2.336 2.151-3.688 2.643a6.99 6.99 0 0 1-3.995.185v.799c0 1.762.307 3.135.922 4.118.614.943 1.516 1.414 2.704 1.414 1.721 0 3.176-.471 4.365-1.414 1.188-.983 2.131-2.049 2.827-3.196.697-1.189 1.189-2.254 1.476-3.197.327-.983.491-1.495.491-1.536a1.13 1.13 0 0 1 .554-.738c.286-.205.594-.266.922-.185Zm-7.991-7.622c-.615 0-1.23.267-1.845.799-.573.492-1.147 1.168-1.721 2.029-.532.819-1.004 1.782-1.414 2.889a21.651 21.651 0 0 0-.983 3.381 4.187 4.187 0 0 0 2.828 0c.983-.369 1.885-1.025 2.704-1.967 0-.041.021-.062.062-.062a7.21 7.21 0 0 0 .983-1.414 7.758 7.758 0 0 0 .738-1.721 6.39 6.39 0 0 0 .369-1.659c.041-.574-.021-1.045-.185-1.414a1.352 1.352 0 0 0-.43-.553c-.205-.205-.574-.308-1.106-.308ZM118.059 29.747c1.352 0 2.418.41 3.196 1.23.82.819 1.23 1.905 1.23 3.257 0 .86-.185 1.783-.554 2.766-.368.943-.922 1.844-1.659 2.705a9.704 9.704 0 0 1-2.582 2.213c-.983.615-2.09 1.004-3.319 1.168-.082.45-.144.922-.185 1.414 0 .45-.041.901-.123 1.352-.205 1.967-.43 4.016-.676 6.147a57.06 57.06 0 0 1-1.045 6.086 34.094 34.094 0 0 1-1.66 5.593c-.655 1.763-1.495 3.32-2.52 4.672a10.875 10.875 0 0 1-3.749 3.074c-1.476.778-3.238 1.167-5.287 1.167-4.59 0-8.175-1.577-10.757-4.733-1.107-1.311-1.947-2.848-2.52-4.61-.574-1.803-.86-3.73-.86-5.778 0-2.09.306-4.16.921-6.209.656-2.049 1.598-3.872 2.828-5.47 1.23-1.64 2.704-2.95 4.426-3.934 1.762-.984 3.75-1.476 5.962-1.476 3.115 0 5.553 1.127 7.315 3.381 1.434 1.926 2.151 4.426 2.151 7.5 0 1.803-.266 3.585-.799 5.347a18.518 18.518 0 0 1-2.213 4.733c-.942 1.394-2.089 2.52-3.442 3.381-1.311.86-2.787 1.291-4.426 1.291-2.13 0-3.831-.799-5.102-2.397-1.27-1.64-1.905-3.832-1.905-6.577 0-1.312.164-2.582.492-3.812.327-1.27.778-2.417 1.352-3.442.697-1.188 1.537-2.11 2.52-2.766.984-.656 2.05-.984 3.197-.984.327 0 .614.123.86.37.246.245.369.532.369.86 0 .369-.123.676-.369.922a1.303 1.303 0 0 1-.86.307c-.861 0-1.599.287-2.213.86-.615.534-1.086 1.087-1.414 1.66-.45.82-.82 1.763-1.107 2.828a14.172 14.172 0 0 0-.368 3.197c0 .287.02.799.061 1.536.082.697.266 1.414.553 2.152a6.483 6.483 0 0 0 1.353 1.967c.614.574 1.475.86 2.581.86 1.23 0 2.357-.368 3.381-1.106a9.906 9.906 0 0 0 2.705-2.828 15.507 15.507 0 0 0 1.721-3.934c.41-1.475.615-2.95.615-4.426 0-1.188-.144-2.294-.431-3.319-.245-1.065-.655-1.967-1.229-2.705-1.229-1.598-3.012-2.397-5.348-2.397-1.844 0-3.483.43-4.918 1.29-1.434.82-2.663 1.927-3.688 3.32-.983 1.394-1.741 2.971-2.274 4.733a17.776 17.776 0 0 0-.8 5.287c0 3.565.943 6.516 2.829 8.852 2.09 2.54 5.04 3.81 8.851 3.81 2.5 0 4.487-.737 5.963-2.212 1.516-1.475 2.704-3.381 3.565-5.717.861-2.377 1.496-5.02 1.906-7.93.409-2.91.758-5.798 1.045-8.667.081-.45.122-.88.122-1.29.041-.41.103-.82.185-1.23a8.955 8.955 0 0 1-3.996-1.721 14.268 14.268 0 0 1-3.073-3.381 17.825 17.825 0 0 1-1.906-4.426 17.799 17.799 0 0 1-.676-4.856c0-.328.123-.615.369-.86a1.18 1.18 0 0 1 .86-.37c.328 0 .615.123.861.37.246.245.369.532.369.86 0 1.311.184 2.643.553 3.995.369 1.312.861 2.52 1.475 3.627a11.346 11.346 0 0 0 2.336 2.828c.943.779 1.967 1.27 3.074 1.475.205-1.598.43-3.053.676-4.364.287-1.353.656-2.5 1.106-3.442.451-.984 1.004-1.742 1.66-2.275.656-.533 1.475-.799 2.459-.799Zm-3.381 10.819a6.086 6.086 0 0 0 2.274-1.045 9.357 9.357 0 0 0 1.66-1.721c.492-.615.84-1.23 1.045-1.845.246-.655.369-1.229.369-1.72 0-1.353-.656-2.03-1.967-2.03-.492 0-.922.226-1.291.677-.328.41-.635 1.004-.922 1.783a22.291 22.291 0 0 0-.676 2.643c-.164 1.024-.328 2.11-.492 3.258ZM136.762 57.716c.328.082.574.266.738.553.205.287.266.594.184.922-.082.45-.307 1.29-.676 2.52a25.501 25.501 0 0 1-1.352 3.689 13.995 13.995 0 0 1-2.152 3.319c-.86.942-1.864 1.414-3.012 1.414-.901 0-1.598-.144-2.09-.43-.492-.328-.86-.656-1.106-.984a4.656 4.656 0 0 1-.554-1.107 8.993 8.993 0 0 1-1.967 1.783 4.235 4.235 0 0 1-2.397.738c-.779 0-1.393-.144-1.844-.43-.451-.288-.799-.595-1.045-.923a3.488 3.488 0 0 1-.676-1.66 7.218 7.218 0 0 1-.123-1.843c0-.574.061-1.086.184-1.537.082-.492.144-.8.185-.922l3.319-14.507a1.13 1.13 0 0 1 .553-.738c.287-.205.595-.266.922-.184.328.082.574.266.738.553.205.287.266.594.184.922l-3.319 14.569v.06c-.205.575-.328 1.271-.369 2.09-.041.78.082 1.353.369 1.722.164.246.471.369.922.369.533 0 1.066-.246 1.598-.738a10.17 10.17 0 0 0 1.476-1.72 16.6 16.6 0 0 0 1.29-2.152c.369-.779.656-1.455.861-2.029l2.951-12.724a1.13 1.13 0 0 1 .553-.738c.287-.205.594-.266.922-.184.328.082.574.266.737.553.205.287.267.594.185.922l-3.75 16.228v.062c-.082.246-.143.594-.184 1.045-.041.45.041.799.246 1.045.246.287.655.43 1.229.43.451 0 .922-.287 1.414-.86.492-.574.942-1.312 1.352-2.214.451-.901.84-1.885 1.168-2.95.369-1.066.656-2.07.861-3.012.082-.328.266-.574.553-.738.287-.205.594-.266.922-.184Z"
  />
  <path
    fill="currentColor"
    d="M150.534 57.531c.328.082.574.267.738.554.205.286.266.594.184.922-.123.45-.369 1.29-.737 2.52a21.18 21.18 0 0 1-1.414 3.75 13.971 13.971 0 0 1-2.275 3.38c-.86.984-1.844 1.476-2.95 1.476-.943 0-1.66-.144-2.152-.43-.491-.328-.86-.656-1.106-.984a4.143 4.143 0 0 1-.615-1.291 6.923 6.923 0 0 1-.123-1.23c0-.41.021-.757.062-1.044.082-.328.143-.554.184-.676l3.012-13.217c-.492-.04-1.045-.082-1.659-.123a10.017 10.017 0 0 1-1.845-.43c-.204.984-.389 1.865-.553 2.643a81.825 81.825 0 0 1-.492 2.09 96.131 96.131 0 0 1-.491 1.783 16.732 16.732 0 0 1-.492 1.783c-.205.614-.594.922-1.168.922-.164 0-.266-.02-.307-.062a1.362 1.362 0 0 1-.799-.553.935.935 0 0 1-.123-.922c.368-.984.758-2.295 1.168-3.934.409-1.68.737-3.32.983-4.918l-.123-.123a1.25 1.25 0 0 1-.369-.922c.082-1.352.226-2.377.431-3.073.245-.738.491-1.27.737-1.598.246-.328.492-.513.738-.554.287-.082.492-.123.615-.123.327 0 .614.123.86.37.246.245.369.532.369.86 0 .45-.041 1.024-.123 1.721a31.024 31.024 0 0 1-.369 2.213c.656.205 1.393.348 2.213.43.861.082 1.619.082 2.274 0 .41 0 .759.144 1.045.43.246.287.328.656.246 1.107l-3.381 14.814v.062c-.081.246-.143.594-.184 1.045-.041.45.041.799.246 1.045.246.287.676.43 1.291.43.451 0 .922-.287 1.414-.86.491-.615.963-1.373 1.413-2.275.451-.943.861-1.947 1.23-3.012a42.68 42.68 0 0 0 .922-3.135c.082-.328.266-.574.553-.738.287-.164.594-.205.922-.123Z"
  />
  <path
    fill="currentColor"
    d="M158.192 47.143c.369 0 .841.143 1.414.43.615.246 1.127.902 1.537 1.967.246.574.41 1.23.492 1.967.123.738.184 1.558.184 2.46 0 1.68-.205 3.462-.615 5.347a21.2 21.2 0 0 1-1.721 5.164c-.778 1.557-1.741 2.868-2.889 3.934-1.147 1.024-2.459 1.536-3.934 1.536-1.393 0-2.5-.573-3.319-1.72l-3.197 13.768c-.164.656-.553.984-1.168.984-.082 0-.123-.02-.123-.062h-.184a1.13 1.13 0 0 1-.738-.553 1.075 1.075 0 0 1-.184-.922l4.979-21.33c.041-.205.082-.39.123-.553 0-.164.041-.328.123-.492l2.52-10.941c.082-.328.267-.574.553-.738.287-.205.595-.267.923-.185.327.082.573.267.737.554.205.286.267.594.185.922l-.246.922c.696-.738 1.413-1.332 2.151-1.783.779-.45 1.578-.676 2.397-.676ZM152.66 67.49c1.025 0 1.947-.43 2.766-1.291.82-.902 1.517-2.029 2.09-3.381a18.677 18.677 0 0 0 1.353-4.365c.327-1.598.491-3.094.491-4.487 0-1.475-.164-2.643-.491-3.504a2.695 2.695 0 0 0-.246-.491c-.123-.246-.267-.37-.431-.37-.614 0-1.249.288-1.905.861-.656.574-1.291 1.332-1.906 2.275-.614.901-1.188 1.946-1.721 3.135a23.916 23.916 0 0 0-1.291 3.626l-.307 1.353a10.77 10.77 0 0 0-.246 1.598 18.51 18.51 0 0 0-.061 1.537c0 1.23.184 2.151.553 2.766.287.492.737.738 1.352.738ZM179.828 57.531c.328.082.574.267.738.554.205.286.266.594.184.922-.122.45-.368 1.29-.737 2.52a21.103 21.103 0 0 1-1.414 3.75 13.997 13.997 0 0 1-2.274 3.38c-.861.984-1.844 1.476-2.951 1.476-.942 0-1.66-.144-2.151-.43-.492-.328-.861-.656-1.107-.984a4.143 4.143 0 0 1-.615-1.291 7.01 7.01 0 0 1-.122-1.23c0-.41.02-.757.061-1.044.082-.328.143-.554.184-.676l3.012-13.217c-.491-.04-1.045-.082-1.659-.123a9.988 9.988 0 0 1-1.844-.43c-.205.984-.39 1.865-.554 2.643a81.965 81.965 0 0 1-.491 2.09c-.164.615-.328 1.21-.492 1.783a16.732 16.732 0 0 1-.492 1.783c-.205.614-.594.922-1.168.922-.164 0-.266-.02-.307-.062a1.365 1.365 0 0 1-.799-.553.935.935 0 0 1-.123-.922c.369-.984.758-2.295 1.168-3.934.41-1.68.737-3.32.983-4.918l-.123-.123a1.25 1.25 0 0 1-.368-.922c.081-1.352.225-2.377.43-3.073.246-.738.492-1.27.737-1.598.246-.328.492-.513.738-.554.287-.082.492-.123.615-.123.328 0 .614.123.86.37.246.245.369.532.369.86 0 .45-.041 1.024-.123 1.721a31.024 31.024 0 0 1-.369 2.213 11.17 11.17 0 0 0 2.213.43c.861.082 1.619.082 2.275 0 .41 0 .758.144 1.045.43.246.287.328.656.246 1.107l-3.381 14.814v.062c-.082.246-.144.594-.185 1.045-.041.45.041.799.246 1.045.246.287.676.43 1.291.43.451 0 .922-.287 1.414-.86.492-.615.963-1.373 1.414-2.275.45-.943.86-1.947 1.229-3.012a42.68 42.68 0 0 0 .922-3.135c.082-.328.267-.574.553-.738.287-.164.595-.205.922-.123Z"
  />
  <path
    fill="currentColor"
    d="M187.056 57.716c.328.082.574.266.738.553.205.287.266.594.184.922-.122.45-.348 1.29-.676 2.52a21.814 21.814 0 0 1-1.414 3.689 13.96 13.96 0 0 1-2.151 3.319c-.861.942-1.844 1.414-2.951 1.414-.901 0-1.618-.144-2.151-.43-.492-.328-.861-.656-1.106-.984a3.252 3.252 0 0 1-.554-1.291c-.123-.45-.164-.86-.123-1.23 0-.41.041-.757.123-1.044.041-.328.082-.554.123-.676l3.688-16.167a1.13 1.13 0 0 1 .554-.738c.287-.205.594-.266.922-.184.328.082.573.266.737.553.205.287.267.594.185.922l-3.75 16.228v.062c-.082.246-.143.594-.184 1.045 0 .45.102.799.307 1.045.164.287.574.43 1.229.43.451 0 .902-.287 1.353-.86.492-.574.942-1.312 1.352-2.214.451-.901.861-1.885 1.23-2.95.368-1.066.655-2.07.86-3.012.082-.328.266-.574.553-.738.287-.205.595-.266.922-.184Zm-3.934-12.417c-.573 0-1.045-.205-1.413-.615-.287-.41-.369-.901-.246-1.475.123-.41.348-.738.676-.984.369-.287.778-.43 1.229-.43.615 0 1.086.225 1.414.676.287.37.369.84.246 1.414-.123.45-.369.8-.738 1.045a1.892 1.892 0 0 1-1.168.369Z"
  />
  <path
    fill="currentColor"
    d="M201.635 57.9c.328.082.574.267.737.553.205.287.267.595.185.922 0 .041-.082.328-.246.861-.164.533-.451 1.209-.861 2.029-.409.778-.942 1.639-1.598 2.581-.614.902-1.414 1.742-2.397 2.52-.984.78-2.152 1.435-3.504 1.968-1.352.532-2.909.799-4.672.799a1.18 1.18 0 0 1-.86-.37 1.18 1.18 0 0 1-.369-.86c0-.328.123-.614.369-.86a1.18 1.18 0 0 1 .86-.37c2.787 0 4.18-1.577 4.18-4.732 0-1.27-.286-2.623-.86-4.057a102.443 102.443 0 0 0-1.844-4.426 4.952 4.952 0 0 0-.431-.8l-.368-.86c-.246.86-.492 1.68-.738 2.459-.205.779-.41 1.475-.615 2.09a53.442 53.442 0 0 1-.43 1.537l-.123.553c-.123.574-.512.86-1.168.86h-.369c-.328-.081-.553-.266-.676-.553a1.387 1.387 0 0 1-.123-.983c0-.082.103-.451.307-1.107.205-.696.431-1.536.677-2.52.287-.983.594-2.049.922-3.196.369-1.148.717-2.275 1.045-3.381-.123-1.025-.123-1.906 0-2.643.123-.738.348-1.332.676-1.783.205-.328.512-.574.922-.738.451-.164.861-.225 1.229-.184.41.04.717.205.922.492.246.245.267.614.062 1.106-.123.328-.308.84-.553 1.537-.205.697-.451 1.496-.738 2.397.082.369.184.779.307 1.23.123.41.287.86.492 1.352.164.328.328.676.492 1.045l.492 1.106a96.79 96.79 0 0 1 1.967 4.734c.655 1.598.983 3.175.983 4.733 0 .532-.041 1.045-.123 1.537-.082.45-.184.88-.307 1.29.901-.614 1.639-1.311 2.213-2.09.614-.778 1.086-1.516 1.414-2.213.368-.696.635-1.29.799-1.782.164-.492.246-.779.246-.86.082-.329.266-.575.553-.738.287-.205.594-.267.922-.185Z"
  />
  <path
    fill="currentColor"
    d="M216.412 57.408c.328.082.574.267.738.554.205.286.266.594.184.922-.041.082-.143.43-.307 1.045-.164.573-.43 1.27-.799 2.09-.328.82-.799 1.72-1.414 2.704a12.95 12.95 0 0 1-2.152 2.644c-.819.778-1.803 1.434-2.95 1.967-1.148.532-2.459.799-3.934.799-2.049 0-3.647-.86-4.795-2.582-.86-1.352-1.291-3.156-1.291-5.41 0-1.475.205-3.073.615-4.794a20.288 20.288 0 0 1 1.783-4.795c.778-1.516 1.7-2.766 2.766-3.75 1.065-.983 2.254-1.475 3.565-1.475 1.844 0 3.115.779 3.811 2.336.287.697.41 1.455.369 2.275 0 .778-.123 1.577-.369 2.397a9.937 9.937 0 0 1-1.045 2.336c-.41.737-.86 1.352-1.352 1.844-1.107 1.27-2.336 2.151-3.688 2.643a6.988 6.988 0 0 1-3.996.184v.8c0 1.762.307 3.135.922 4.118.615.943 1.516 1.414 2.705 1.414 1.721 0 3.176-.471 4.364-1.414 1.189-.983 2.131-2.049 2.828-3.196.696-1.189 1.188-2.254 1.475-3.197.328-.983.492-1.495.492-1.536a1.13 1.13 0 0 1 .553-.738c.287-.205.594-.267.922-.185Zm-7.991-7.622c-.615 0-1.229.267-1.844.8-.574.491-1.148 1.167-1.721 2.028-.533.82-1.004 1.782-1.414 2.889a21.573 21.573 0 0 0-.984 3.38 4.19 4.19 0 0 0 2.828 0c.984-.368 1.885-1.024 2.705-1.966 0-.041.02-.062.061-.062.369-.41.697-.88.984-1.414a7.774 7.774 0 0 0 .737-1.72 6.394 6.394 0 0 0 .369-1.66c.041-.574-.02-1.045-.184-1.414a1.361 1.361 0 0 0-.431-.553c-.204-.205-.573-.308-1.106-.308Z"
  />
  <path
    fill="currentColor"
    fill-rule="evenodd"
    d="M90.354 83.537c-8.284 0-15 6.716-15 15v133.466a1 1 0 0 1-2 0V98.537c0-9.389 7.611-17 17-17h195.137a1 1 0 0 1 0 2H90.354Zm-16 153.531a1 1 0 0 1 1 1v21.945a1 1 0 1 1-2 0v-21.945a1 1 0 0 1 1-1Z"
    clip-rule="evenodd"
  />
  <path
    fill="currentColor"
    fill-rule="evenodd"
    d="M79.112 98.302c0-6.075 4.924-11 11-11H267.25a4.848 4.848 0 0 1 4.848 4.849 2.848 2.848 0 0 0 2.848 2.848h10.544a1 1 0 0 1 0 2h-10.544a4.848 4.848 0 0 1-4.848-4.848 2.848 2.848 0 0 0-2.848-2.849H90.111a9 9 0 0 0-9 9v140.606a1 1 0 0 1-2 0V98.302Zm1 145.298a1 1 0 0 1 1 1v16.534a1 1 0 1 1-2 0V244.6a1 1 0 0 1 1-1ZM38.786 207.67a1 1 0 0 1 1.402.183c1.82 2.366 4.35 7.041 6.539 11.814 2.187 4.767 4.115 9.805 4.663 12.913a1 1 0 1 1-1.97.347c-.5-2.834-2.329-7.67-4.511-12.426-2.18-4.752-4.631-9.252-6.306-11.429a1 1 0 0 1 .183-1.402Zm-18.015 3.129a1 1 0 0 1-.139 1.407c-1.748 1.434-3.495 3.18-5.183 5.115a.999.999 0 1 1-1.507-1.314c1.742-1.997 3.568-3.827 5.422-5.347a1 1 0 0 1 1.407.139Zm12.948 9.437a1 1 0 0 1 1.243-.674c5.592 1.662 9.456 6.799 12.015 12.26 2.576 5.499 3.945 11.565 4.421 15.491a1 1 0 0 1-1.985.24c-.457-3.763-1.78-9.615-4.247-14.882-2.486-5.304-6.02-9.779-10.774-11.192a1 1 0 0 1-.673-1.243Zm-11.815 8.705a1 1 0 0 1 1.382.302c1.935 3.017 7.59 10.26 14.567 14.911a1 1 0 0 1-1.11 1.664c-7.282-4.855-13.115-12.338-15.14-15.495a1 1 0 0 1 .301-1.382Zm11.774 3.789a1 1 0 0 1 1.023-.976c3.12.072 8.692 3.104 9.709 13.132a1 1 0 1 1-1.99.201c-.94-9.265-5.878-11.29-7.766-11.334a1 1 0 0 1-.977-1.023Zm-11.537 7.983a1 1 0 0 1 1.256.65c.888 2.789 3.116 5.196 5.665 7.094 2.536 1.889 5.276 3.189 6.998 3.801a.999.999 0 1 1-.669 1.884c-1.89-.67-4.81-2.06-7.524-4.081-2.7-2.01-5.306-4.729-6.376-8.092a1 1 0 0 1 .65-1.256Zm-7.794 2.066a1 1 0 0 1 1.394.242c1.708 2.426 3.818 5.098 6.114 7.431 2.306 2.343 4.746 4.288 7.108 5.328a1 1 0 1 1-.805 1.83c-2.697-1.186-5.346-3.334-7.729-5.755-2.394-2.432-4.573-5.196-6.323-7.683a1 1 0 0 1 .241-1.393Zm-.395 8.179a1 1 0 0 1 1.413-.073c2.613 2.353 5.55 4.838 7.626 6.196a1 1 0 0 1-1.094 1.674c-2.22-1.451-5.258-4.031-7.87-6.384a1 1 0 0 1-.075-1.413Zm-.096 6.417a1 1 0 0 1 1.383-.296c3.353 2.17 6.311 4.789 7.92 6.431a1 1 0 1 1-1.43 1.399c-1.521-1.554-4.367-4.073-7.577-6.151a1 1 0 0 1-.296-1.383Zm.155 57.494a1 1 0 0 1 1.322-.502c13.821 6.218 28.987 10.269 36.838 11.721a1 1 0 1 1-.364 1.966c-7.986-1.476-23.308-5.57-37.294-11.863a1 1 0 0 1-.502-1.322Zm-.071 11.176a1 1 0 0 1 1.165-.801c1.91.354 3.624.634 5.035.837a1 1 0 0 1-.284 1.98 130.63 130.63 0 0 1-5.115-.85 1 1 0 0 1-.801-1.166Zm56.418 4.987a.999.999 0 0 1-.75 1.198c-15.769 3.627-36.692 5.506-54.705 5.153a1 1 0 1 1 .04-2c17.877.351 38.634-1.518 54.216-5.102a1 1 0 0 1 1.198.751ZM201.572 260.142a1 1 0 0 1-1.086.906c-14.272-1.291-27.275 3.688-37.771 10.501-10.499 6.816-18.413 15.42-22.469 21.231a1 1 0 1 1-1.64-1.145c4.191-6.005 12.288-14.796 23.02-21.763 10.736-6.969 24.184-12.16 39.04-10.816a1 1 0 0 1 .906 1.086Zm-.719 20.02a1 1 0 0 1-1.203.744c-24.553-5.775-45.215 7.66-52.445 15.085a1 1 0 1 1-1.433-1.395c7.517-7.719 28.857-21.63 54.336-15.636a1 1 0 0 1 .745 1.202Z"
    clip-rule="evenodd"
  />
  <path
    fill="currentColor"
    fill-rule="evenodd"
    d="M83.016 205.501a1 1 0 0 0-.083 1.412c9.518 10.713 13.238 24.131 13.994 36.621.756 12.494-1.462 23.972-3.727 30.687a1 1 0 1 0 1.895.639c2.34-6.939 4.601-18.675 3.828-31.447-.773-12.776-4.588-26.677-14.495-37.828a1 1 0 0 0-1.412-.084Zm-21.764 18.294c25.536 13.783 26.897 36.57 25.23 46.737a1 1 0 1 0 1.974.323c1.753-10.693.28-34.499-26.254-48.82a1 1 0 0 0-.95 1.76ZM153.026 320.622c6.104-2.863 13.566-4.234 21.803 1.197 8.424 5.554 11.189 13.223 11.233 20.442.044 7.065-2.508 13.706-4.831 17.625 3.003.073 5.211.074 7.092.07a.999.999 0 1 1 .004 2 250.38 250.38 0 0 1-9.209-.129c-1.286-.041-2.7-.095-4.269-.164-7.471-.332-15.789-5.043-23.046-10.619-7.298-5.606-13.704-12.23-17.384-16.652a1 1 0 1 1 1.538-1.279c3.6 4.327 9.901 10.842 17.064 16.345 7.203 5.534 15.099 9.904 21.917 10.207 1.37.06 2.62.109 3.769.147l.758-.87c2.194-3.669 4.639-9.998 4.598-16.669-.042-6.66-2.554-13.654-10.335-18.785-7.471-4.925-14.149-3.731-19.853-1.056-2.74 1.285-5.228 2.901-7.474 4.36l-.34.22c-1.157.751-2.259 1.459-3.277 2.028-1.011.565-1.999 1.027-2.929 1.251-1.677.403-3.62.182-5.105-.134a17.442 17.442 0 0 1-1.939-.527 9.08 9.08 0 0 1-.652-.249 3.297 3.297 0 0 1-.253-.122 1.387 1.387 0 0 1-.323-.233.999.999 0 0 1 1.299-1.513l.077.035c.112.049.28.114.498.189.434.148 1.031.32 1.709.464 1.387.295 2.98.444 4.221.145.664-.16 1.464-.517 2.422-1.052.951-.532 2-1.204 3.164-1.96l.364-.236c2.227-1.447 4.821-3.131 7.689-4.476Zm-20.166 6.88a.107.107 0 0 1 .002.001l-.002-.001Zm35.209 5.565c-4.434-2.938-9.709-4.652-14.153-3.768-3.465.69-5.145 2.694-5.879 4.917-.731 2.213-.529 4.683-.023 6.326a71.805 71.805 0 0 0 4.335 4.595 1 1 0 0 1-1.392 1.437 73.984 73.984 0 0 1-4.606-4.899c-2.486-2.892-4.407-5.561-5.557-7.391a1 1 0 1 1 1.694-1.064c.717 1.142 1.761 2.643 3.072 4.331-.018-1.283.144-2.65.578-3.962.943-2.855 3.164-5.41 7.388-6.251 5.167-1.029 10.986.974 15.648 4.061 4.642 3.075 8.44 7.43 9.331 11.456.85 3.836.459 7.656-1.157 10.44-1.653 2.847-4.563 4.537-8.424 3.993a1 1 0 0 1 .279-1.981c3.017.426 5.151-.838 6.415-3.017 1.303-2.242 1.705-5.521.934-9.003-.729-3.293-4.03-7.271-8.483-10.22Z"
    clip-rule="evenodd"
  />
  <path
    fill="currentColor"
    fill-rule="evenodd"
    d="M159.707 337.147c-.427.55-.873 1.288-1.313 2.199-.707 1.467-.949 2.549-.899 3.246.024.332.111.535.204.66.088.118.227.229.474.304.117.036.424.033.954-.367.503-.38 1.041-1.003 1.509-1.775a8.471 8.471 0 0 0 1.013-2.435c.189-.826.175-1.511-.001-1.992-.232-.633-.46-.84-.551-.893l-.003-.002c-.029-.017-.097-.057-.317.053-.265.132-.634.44-1.07 1.002Zm2.394-2.783c.676.392 1.122 1.11 1.425 1.935.359.979.309 2.094.073 3.126-.24 1.047-.693 2.103-1.253 3.027-.557.918-1.253 1.758-2.014 2.333-.733.554-1.719.996-2.742.684-.603-.184-1.122-.52-1.496-1.023-.369-.497-.549-1.089-.594-1.711-.087-1.21.327-2.67 1.093-4.258.482-1 .999-1.865 1.533-2.555.525-.677 1.113-1.245 1.757-1.566.68-.34 1.476-.422 2.218.008ZM26.771 191.707a1 1 0 0 1 1.396.227c1.992 2.767 2.289 5.942 1.9 8.705-.388 2.754-1.467 5.193-2.362 6.626a1 1 0 0 1-1.696-1.06c.767-1.228 1.733-3.403 2.077-5.845.343-2.433.057-5.036-1.542-7.257a1 1 0 0 1 .227-1.396Zm5.196 1.808a1 1 0 0 1 1.043.954c.05 1.14.67 2.12 1.543 2.922a8.167 8.167 0 0 0 2.584 1.579c.044.016.087.035.129.057 4.124 2.176 7.765 6.849 11.053 12.508 3.308 5.694 6.354 12.559 9.217 19.314.652 1.538 1.294 3.07 1.928 4.582 2.159 5.15 4.22 10.067 6.238 14.213 1.303 2.678 2.572 5.002 3.819 6.838 1.178 1.736 2.29 2.962 3.327 3.658 5.276.236 16.247.823 19.566 1.376a1 1 0 0 1-.329 1.973c-3.225-.538-14.365-1.132-19.593-1.363a1 1 0 0 1-.476-.144c-1.463-.89-2.837-2.443-4.15-4.376-1.324-1.95-2.641-4.37-3.963-7.087-2.044-4.202-4.136-9.19-6.3-14.352-.63-1.503-1.266-3.02-1.909-4.537-2.862-6.754-5.866-13.516-9.105-19.091-3.242-5.579-6.627-9.801-10.198-11.712a10.194 10.194 0 0 1-3.19-1.962c-1.102-1.011-2.106-2.453-2.189-4.307a1 1 0 0 1 .955-1.043Zm-6.024 2.722a1 1 0 0 1 1.089.902c.137 1.462-.555 2.741-1.313 3.67a9.5 9.5 0 0 1-2.372 2.053l-.002.002c-2.789 1.648-5.41 3.772-7.831 6.17a1 1 0 0 1-1.408-1.421c2.51-2.486 5.26-4.721 8.22-6.471a7.47 7.47 0 0 0 1.844-1.598c.605-.741.937-1.506.87-2.218a1 1 0 0 1 .903-1.089Zm77.669 64.015v.011-.011Zm-1.149.66.016.01c-.01-.005-.016-.009-.016-.01Zm1.784 2.222a25.669 25.669 0 0 1 2.075 3.864c.605 1.426.973 2.754.973 3.757 0 .502.027.928.095 1.259.033.163.089.362.194.55.103.183.329.483.748.586a1.17 1.17 0 0 0 .94-.18 1.71 1.71 0 0 0 .391-.379c.178-.231.339-.526.479-.818.358-.745.751-1.825 1.097-2.886.7.767 1.558 1.635 2.507 2.478 1.593 1.416 3.519 2.831 5.436 3.537l.031.012c3.501 1.29 16.527 6.089 25.415 11.055a1 1 0 1 0 .976-1.746c-9.026-5.043-22.161-9.882-25.673-11.176l-.058-.021c-1.567-.578-3.271-1.798-4.799-3.156-1.514-1.346-2.781-2.759-3.473-3.633a1 1 0 0 0-1.745.343c-.219.758-.49 1.628-.769 2.431-.203-.924-.536-1.88-.924-2.794a27.638 27.638 0 0 0-2.299-4.264 19.039 19.039 0 0 0-1.161-1.597c-.348-.425-.712-.812-1.048-1.053-.145-.103-.429-.288-.79-.314a1.145 1.145 0 0 0-.73.191 1.16 1.16 0 0 0-.44.574c-.116.32-.086.648-.055.856.036.244.106.519.2.818.432 1.366.574 2.902.561 4.347-.541-1.046-1.196-1.991-1.861-2.619a1 1 0 0 0-1.66.498l-1.186 5.038a1 1 0 1 0 1.947.458l.7-2.973c.204.351.403.736.586 1.144.53 1.185.867 2.433.867 3.434a1 1 0 0 0 1.968.252c.382-1.468.902-4.713.485-7.873Zm3.822 8.248.004-.004-.004.004Zm124.309 11.594a1 1 0 0 1 .028 1.414c-3.46 3.601-7.862 2.841-9.001 2.644l-.167-.028c-8.967-1.369-19.131.698-28.315 3.889-9.166 3.184-17.25 7.449-22.009 10.36a1 1 0 0 1-1.29-.213c-.205-.246-.65-.669-1.244-1.024-.593-.354-1.271-.604-1.963-.604-.642 0-2.258.026-4.144.056-1.499.024-3.168.05-4.654.069-1.663.02-3.107.031-3.792.015a5.734 5.734 0 0 1-.441-.023c-.029-.004-.087-.011-.154-.027-.03-.008-.099-.025-.179-.061l-.004-.001c-.041-.018-.306-.132-.472-.433a.995.995 0 0 1 .173-1.199c.145-.144.299-.205.331-.218.099-.041.188-.058.212-.063.199-.04.655-.074 1.304-.113 1.188-.071 2.526-.518 3.869-1.182a20.783 20.783 0 0 0 1.907-1.077c-.641.187-1.256.355-1.798.495a2.94 2.94 0 0 1-1.268.284 1 1 0 0 1-.229-1.973c.223-.053.479-.115.76-.187.381-.223.795-.694 1.206-1.49a7.43 7.43 0 0 0 .169-.347c-1.501.775-3.445 1.192-5.71.63a1 1 0 1 1 .482-1.941 6.064 6.064 0 0 0 6.33-2.133 1.002 1.002 0 0 1 1.788.766c-.163.958-.527 2.362-1.123 3.621 1.488-.473 2.847-.991 3.588-1.447.144-.089.331-.195.52-.255.067-.021.315-.1.61-.028.18.044.405.151.577.375.167.218.208.449.212.608.005.271-.097.476-.127.538a1.76 1.76 0 0 1-.147.239c-.092.13-.209.267-.335.404-.501.544-1.406 1.36-2.532 2.211a26.943 26.943 0 0 1-2.995 1.973l1.852-.029c1.909-.03 3.56-.057 4.214-.057 1.163 0 2.196.414 2.989.887.44.263.826.557 1.142.838 4.922-2.949 12.813-7.04 21.719-10.134 9.31-3.234 19.837-5.417 29.273-3.976l.179.029c1.142.19 4.546.756 7.245-2.054a1 1 0 0 1 1.414-.028Zm-85.044 3.406a1 1 0 0 1 1.383-.298c1.157.746 2.204 1.498 3.089 2.245.338.285.669.54.992.769a1 1 0 0 1-1.153 1.634 17.013 17.013 0 0 1-1.129-.875c-.801-.676-1.774-1.377-2.883-2.093a1 1 0 0 1-.299-1.382Zm90.608 3.3a1 1 0 0 1-.662 1.25c-.646.199-1.071.839-1.265 1.899-.188 1.029-.083 2.119.019 2.57 1.045 4.615 1.078 11.161.06 18.277-1.021 7.131-3.107 14.912-6.36 22.011a1 1 0 0 1-1.705.189c-.413-.543-1.527-.878-3.422-.289-1.793.559-3.899 1.862-5.699 3.84-2.849 3.131-3.064 6.147-2.375 8.581.711 2.512 2.409 4.461 3.417 5.239a.998.998 0 0 1 .004 1.58c-7.17 5.592-10.328 12.875-11.633 19.793-.9 4.776-.67 10.575.724 15.54 1.408 5.012 3.917 8.9 7.345 10.283a.999.999 0 1 1-.748 1.854c-4.299-1.733-7.058-6.384-8.522-11.597-1.477-5.259-1.722-11.37-.764-16.451 1.312-6.955 4.442-14.39 11.444-20.253-1.177-1.199-2.531-3.11-3.191-5.443-.868-3.065-.518-6.804 2.82-10.472 2.01-2.209 4.411-3.727 6.584-4.403 1.519-.473 3.165-.59 4.42.018 2.869-6.586 4.739-13.723 5.681-20.303.999-6.983.941-13.262-.031-17.553-.154-.679-.278-2.044-.035-3.372.237-1.296.905-2.914 2.644-3.45a1 1 0 0 1 1.25.662Z"
    clip-rule="evenodd"
  />
  <path
    fill="currentColor"
    fill-rule="evenodd"
    d="M229.706 290.358c-1.232.628-2.561 1.138-3.841.986a1.001 1.001 0 0 1 .236-1.986c.646.076 1.511-.177 2.696-.781.787-.402 1.605-.896 2.499-1.436.442-.266.902-.544 1.385-.827 2.809-1.645 6.274-3.388 10.009-2.651a1 1 0 1 1-.387 1.962c-2.924-.577-5.79.763-8.611 2.414-.425.249-.854.508-1.281.766-.931.562-1.854 1.119-2.705 1.553Zm-8.863-.131a1 1 0 0 1-.232 1.395c-.261.187-.544.396-.846.619-1.523 1.125-3.533 2.61-5.72 3.399-1.339.483-2.804.732-4.329.478-1.535-.256-3.051-1.009-4.503-2.4m26.127-1.705a1 1 0 0 1 .8 1.166c-.22 1.184-.092 2.703.126 4.508l.1.81c.192 1.535.401 3.204.401 4.812 0 6.471-2.211 16.426-5.854 25.632a1 1 0 0 1-1.86-.736c3.588-9.067 5.714-18.762 5.714-24.896 0-1.472-.19-2.998-.382-4.536l-.105-.846c-.213-1.764-.391-3.582-.106-5.113a1 1 0 0 1 1.166-.801Zm-41.594 15.676c-1.797.947-3.103 1.853-3.757 2.512a1 1 0 0 1-1.42-1.409c.868-.875 2.386-1.892 4.244-2.872a41.785 41.785 0 0 1 6.655-2.769c4.916-1.568 10.739-2.425 15.452-.787a1 1 0 0 1-.656 1.889c-4.099-1.424-9.411-.721-14.188.803a39.814 39.814 0 0 0-6.33 2.633Zm7.39 2.125c-2.912.324-5.518 1.441-6.997 2.353a1 1 0 1 1-1.05-1.702c1.695-1.045 4.58-2.277 7.825-2.638 3.26-.363 6.963.148 10.148 2.71a1 1 0 0 1-1.253 1.558c-2.656-2.135-5.776-2.603-8.673-2.281Zm9.851 7.496c-7.707-3.371-14.428-.385-16.752 1.455a1 1 0 1 1-1.241-1.568c2.753-2.18 10.251-5.457 18.794-1.719a1 1 0 0 1-.801 1.832Zm-8.684 4.035c-1.999.178-3.888.792-4.991 1.293a1 1 0 1 1-.827-1.82c1.276-.58 3.383-1.264 5.641-1.465 2.242-.199 4.797.065 6.794 1.578a1 1 0 1 1-1.208 1.594c-1.428-1.082-3.393-1.359-5.409-1.18Zm-5.568 10.816a1 1 0 0 1 1.278-.606c1.579.563 4.093 1.239 6.47 1.434 1.189.098 2.297.071 3.219-.124.926-.196 1.574-.543 1.967-1.011a1 1 0 0 1 1.532 1.286c-.783.933-1.909 1.433-3.084 1.682-1.18.25-2.5.267-3.798.16-2.596-.213-5.285-.939-6.978-1.543a1.001 1.001 0 0 1-.606-1.278Zm.871 7.79a1 1 0 0 1 1.18-.779c1.864.381 4.854.84 7.734.973 1.44.067 2.828.051 4.023-.089 1.216-.142 2.129-.403 2.695-.754a1 1 0 0 1 1.055 1.699c-.939.583-2.2.887-3.518 1.042-1.34.157-2.845.17-4.347.1-3.006-.139-6.101-.614-8.043-1.011a1 1 0 0 1-.779-1.181Zm8.002 6.773c-3.936-.45-6.329 2.398-7.024 3.893a1.001 1.001 0 0 1-1.814-.844c.89-1.913 3.935-5.623 9.065-5.036a1 1 0 0 1-.227 1.987Zm4.553 3.377a.999.999 0 0 1-.902 1.089c-2.585.243-4.613.536-6.073 1.673-1.388 1.081-2.466 3.113-2.586 7.402-.092 3.312 1.084 6.955 2.657 10.22 1.566 3.251 3.478 6.026 4.742 7.567a1 1 0 1 1-1.546 1.269c-1.359-1.657-3.358-4.565-4.998-7.968-1.633-3.389-2.959-7.371-2.854-11.143.127-4.566 1.292-7.318 3.356-8.925 1.991-1.551 4.623-1.852 7.115-2.086a1 1 0 0 1 1.089.902ZM37.258 276.311c-1.435 1.062-2.432 2.144-2.917 3.162a1.001 1.001 0 0 1-1.805-.86c.684-1.437 1.97-2.754 3.532-3.91 1.575-1.165 3.501-2.219 5.564-3.106 4.114-1.768 8.9-2.926 12.746-2.926 7.894 0 16.778 1.954 23.101 7.034 6.405 5.146 10.037 13.383 7.552 25.54a1 1 0 1 1-1.96-.401c2.353-11.504-1.086-18.953-6.844-23.579-5.84-4.692-14.212-6.594-21.85-6.594-3.508 0-8.022 1.073-11.955 2.763-1.96.843-3.743 1.825-5.164 2.877Zm-14.338-1.383a1 1 0 0 1 1.364-.374c1.31.746 2.064 2.049 2.702 3.462.264.583.524 1.227.795 1.897l.189.465c.345.847.721 1.751 1.176 2.707 1.591 3.345 4.171 7.407 9.65 11.568-.513-2.579-.491-5.627.834-8.342 1.916-3.923 6.363-6.79 14.748-6.79 10.485 0 17.944 4.68 21.083 10.525 1.569 2.922 2.053 6.139 1.243 9.148-.576 2.135-1.79 4.117-3.653 5.781 5.468-.172 10.063-1.022 12.936-1.882a1 1 0 1 1 .574 1.916c-3.599 1.077-9.62 2.109-16.65 1.987h-.036a64.179 64.179 0 0 1-4.707-.257c-7.3-.67-15.324-2.702-22.684-7.194a72.63 72.63 0 0 1-2.48-1.581c-7.435-4.95-10.727-9.948-12.664-14.02a52.29 52.29 0 0 1-1.223-2.813l-.196-.483c-.27-.668-.512-1.265-.757-1.809-.615-1.361-1.153-2.139-1.87-2.547a1 1 0 0 1-.374-1.364Zm18.458 21.548.11.288-.93.368.556-.832.264.176Zm0 0c-.967-2.618-1.414-6.29.05-9.287 1.463-2.998 5.021-5.668 12.95-5.668 9.907 0 16.6 4.405 19.32 9.471 1.362 2.535 1.735 5.229 1.074 7.682-.64 2.379-2.279 4.622-5.123 6.317a61.86 61.86 0 0 1-4.298-.244c-7.077-.649-14.788-2.614-21.825-6.909a71.055 71.055 0 0 1-2.148-1.362Zm-15.644-9.978a1.001 1.001 0 0 1 1.247.668c1.073 3.551 6.64 12.866 23.94 17.87a.999.999 0 1 1-.556 1.921c-17.845-5.161-24-14.914-25.298-19.212a1 1 0 0 1 .667-1.247Zm36.667 5.498c-.404.567-.822 1.321-1.225 2.248-.65 1.495-.85 2.585-.772 3.279.037.332.132.531.23.652.093.114.236.22.486.285.118.031.425.017.939-.404.487-.399 1-1.043 1.438-1.832.434-.783.763-1.656.917-2.474.157-.832.115-1.517-.08-1.989-.256-.625-.492-.822-.585-.872l-.003-.001c-.03-.016-.099-.054-.315.065-.26.142-.616.464-1.03 1.043Zm2.283-2.875c.69.366 1.165 1.065 1.5 1.878.397.964.391 2.081.195 3.121-.198 1.055-.609 2.128-1.133 3.073-.52.94-1.183 1.806-1.92 2.41-.711.583-1.679 1.063-2.714.792-.61-.16-1.14-.476-1.535-.964-.388-.482-.591-1.067-.66-1.686-.135-1.206.222-2.681.925-4.298.442-1.018.925-1.903 1.431-2.613.498-.697 1.064-1.287 1.695-1.634.666-.366 1.458-.479 2.216-.079ZM115.707 301.709c-1.521-.317-3.597-.353-6.656.143-4.776.775-7.516 2.792-9.044 4.901-1.362 1.88-1.805 3.894-1.81 5.314l5.133 2.528a1 1 0 0 1-.884 1.794l-5.665-2.79a.998.998 0 0 1-.554-.811c-.16-1.854.308-4.651 2.16-7.208 1.874-2.587 5.109-4.853 10.344-5.702 3.198-.519 5.54-.512 7.385-.127 1.871.391 3.168 1.158 4.283 2.043.532.423 1.009.853 1.479 1.277 1.495 1.351 2.922 2.64 5.871 3.422 4.118 1.093 6.988 1.969 9.033 3.208 2.136 1.294 3.342 2.956 4.248 5.45.913 2.508 1.145 5.888.782 8.773-.183 1.449-.522 2.831-1.04 3.95-.506 1.092-1.259 2.097-2.363 2.507a1 1 0 0 1-.696-1.875c.376-.14.827-.572 1.244-1.472.404-.874.704-2.039.871-3.359.334-2.653.101-5.699-.677-7.841-.785-2.157-1.735-3.411-3.404-4.422-1.76-1.065-4.344-1.88-8.511-2.985-3.461-.919-5.313-2.6-6.854-3.999a25.159 25.159 0 0 0-1.227-1.068c-.935-.742-1.952-1.339-3.448-1.651Zm-7.32 10.441c-.321.428-.387 1.098-.288 1.64a1 1 0 0 1-1.967.361c-.154-.84-.128-2.156.655-3.2.853-1.14 2.355-1.642 4.478-1.262.835.149 1.496.563 1.887 1.269.355.64.416 1.395.391 2.095-.026.715-.151 1.524-.292 2.351l-.106.611c-.116.66-.235 1.345-.336 2.067-.507 3.639-.471 7.816 3.401 11.39a24.092 24.092 0 0 0 5.294-1.732c2.175-1.015 4.124-2.391 5.122-4.123 1.521-2.639 3.385-3.875 5.089-3.829 1.757.047 3.012 1.512 2.678 3.249-.252 1.312-1.181 2.051-2.073 2.428-.871.368-1.812.445-2.431.411a1 1 0 1 1 .111-1.997c.396.022 1.018-.035 1.542-.257.504-.212.801-.516.887-.963.089-.46-.178-.856-.768-.872-.642-.017-1.949.48-3.302 2.829-1.302 2.259-3.694 3.856-6.009 4.937a26.237 26.237 0 0 1-5.529 1.836c-.268 2.211-.818 5.109-1.72 7.902-.956 2.964-2.356 5.964-4.358 7.836-.011.1-.015.235-.007.407.018.363.096.863.283 1.503.375 1.279 1.178 3.074 2.755 5.375 2.399 3.499 4.256 8.33 5.135 13.708a1 1 0 1 1-1.974.323c-.841-5.147-2.608-9.688-4.81-12.9-1.669-2.434-2.579-4.419-3.025-5.944-.119-.406-.208-.79-.269-1.148a6.055 6.055 0 0 1-1.542.494c-1.52.268-3.446.466-5.585.686-.452.046-.914.093-1.383.143-2.713.284-5.734.635-8.831 1.219-6.213 1.172-12.614 3.262-17.358 7.519a1 1 0 1 1-1.336-1.488c5.149-4.621 11.98-6.8 18.323-7.996 3.18-.6 6.269-.957 8.993-1.243l1.417-.147c2.137-.22 3.971-.408 5.413-.663.793-.14 1.538-.525 2.245-1.138 1.706-1.479 3.043-4.161 4.011-7.16.884-2.74 1.416-5.605 1.662-7.73-4.598-4.236-4.573-9.259-4.032-13.141.106-.759.234-1.491.35-2.158l.101-.581c.143-.832.245-1.52.266-2.086.021-.582-.053-.893-.142-1.053-.051-.092-.14-.208-.489-.271-1.665-.297-2.277.159-2.527.493Z"
    clip-rule="evenodd"
  />
  <path
    fill="currentColor"
    fill-rule="evenodd"
    d="M116.199 305.526c-1.492-.578-3.038-.65-3.969-.543a1.002 1.002 0 0 1-.227-1.988c1.205-.137 3.082-.045 4.918.665 1.858.719 3.717 2.092 4.723 4.523a1 1 0 1 1-1.848.765c-.752-1.816-2.126-2.854-3.597-3.422ZM120.372 321.708a1 1 0 0 1 .156 1.406c-2.133 2.666-2.978 5.989-3.125 7.258a1.001 1.001 0 0 1-1.987-.231c.178-1.535 1.124-5.244 3.55-8.277a1 1 0 0 1 1.406-.156ZM95.488 356.154c-3.108-.241-6.158-.158-8.002-.008a1 1 0 0 1-.162-1.994c1.936-.157 5.093-.242 8.319.007 3.19.248 6.602.832 8.944 2.103 2.833 1.538 5.319 3.87 7.159 6.47 1.836 2.594 3.072 5.518 3.322 8.265a1 1 0 1 1-1.992.181c-.21-2.31-1.273-4.904-2.962-7.29-1.685-2.381-3.949-4.494-6.481-5.868-1.95-1.058-5-1.623-8.145-1.866ZM154.126 371.054a.999.999 0 0 1 1.413-.039c11.864 11.214 30.982 20.724 46.684 27a1 1 0 0 1-.743 1.857c-15.753-6.296-35.165-15.919-47.315-27.404a1 1 0 0 1-.039-1.414Zm16.716 4.592a.999.999 0 0 1 1.398-.211c1.422 1.05 4.432 2.449 8.659 3.922 4.192 1.461 9.486 2.962 15.401 4.246 11.839 2.569 26.091 4.248 38.911 3.018a1.001 1.001 0 0 1 .191 1.991c-13.097 1.256-27.569-.46-39.527-3.055-5.984-1.298-11.357-2.821-15.634-4.311-4.242-1.479-7.504-2.958-9.189-4.202a1 1 0 0 1-.21-1.398ZM95.737 101.122a2.8 2.8 0 1 0 0 5.598 2.8 2.8 0 0 0 0-5.598Zm-4.8 2.799a4.8 4.8 0 1 1 9.6.001 4.8 4.8 0 0 1-9.6-.001ZM108.695 101.122a2.799 2.799 0 1 0 0 5.598 2.799 2.799 0 0 0 0-5.598Zm-4.799 2.799a4.8 4.8 0 1 1 9.6 0 4.8 4.8 0 0 1-9.6 0ZM121.653 101.122a2.8 2.8 0 1 0 0 5.6 2.8 2.8 0 0 0 0-5.6Zm-4.8 2.799a4.8 4.8 0 1 1 9.6.001 4.8 4.8 0 0 1-9.6-.001ZM193.217 102.455h-15.222a7 7 0 0 0-7 7v.897a9 9 0 0 1-9 9H91.909a1 1 0 1 1 0-2h70.086a7 7 0 0 0 7-7v-.897a9 9 0 0 1 9-9h15.222a9 9 0 0 1 9 9v.897a7 7 0 0 0 7 7h76.096a1 1 0 0 1 0 2h-76.096a9 9 0 0 1-9-9v-.897a7 7 0 0 0-7-7Z"
    clip-rule="evenodd"
  />
  <path
    fill="currentColor"
    fill-rule="evenodd"
    d="M200.274 109.455a9 9 0 0 1 9-9h15.469a9 9 0 0 1 9 9v5.908a1 1 0 1 1-2 0v-5.908a7 7 0 0 0-7-7h-15.469a7 7 0 0 0-7 7v1.687a1 1 0 0 1-2 0v-1.687ZM137.659 109.455a9 9 0 0 1 9-9h15.259a9 9 0 0 1 9 9v.105a1 1 0 1 1-2 0v-.105a7 7 0 0 0-7-7h-15.259a7 7 0 0 0-7 7v5.908a1 1 0 1 1-2 0v-5.908Z"
    clip-rule="evenodd"
  />
  <path
    fill="currentColor"
    fill-rule="evenodd"
    d="M231.918 109.455a9 9 0 0 1 9-9h15.259a9 9 0 0 1 9 9v5.908a1 1 0 1 1-2 0v-5.908a7 7 0 0 0-7-7h-15.259a7 7 0 0 0-7 7v3.034a1 1 0 0 1-2 0v-3.034Z"
    clip-rule="evenodd"
  />
  <path
    fill="currentColor"
    fill-rule="evenodd"
    d="M272.177 102.455a7 7 0 0 0-7 7v3.265a1 1 0 1 1-2 0v-3.265a9 9 0 0 1 9-9h13.074a1 1 0 0 1 0 2h-13.074ZM100.662 129.788a7 7 0 0 0-7 7v83.458a1 1 0 0 1-2 0v-83.458a9 9 0 0 1 9-9h184.577a1 1 0 0 1 0 2H100.662ZM14.23 16a1 1 0 0 1 1-1h269.541a1 1 0 0 1 0 2H15.231a1 1 0 0 1-1-1Zm0 11a1 1 0 0 1 1-1h14.843a1 1 0 1 1 0 2H15.23a1 1 0 0 1-1-1Zm61.371 0a1 1 0 0 1 1-1h22.915a1 1 0 0 1 0 2H76.601a1 1 0 0 1-1-1Zm48.866 0a1 1 0 0 1 1-1h159.304a1 1 0 0 1 0 2H125.467a1 1 0 0 1-1-1ZM14.231 38a1 1 0 0 1 1-1h13.16a1 1 0 1 1 0 2h-13.16a1 1 0 0 1-1-1Zm69.639 0a1 1 0 0 1 1-1h12.508a1 1 0 1 1 0 2H84.87a1 1 0 0 1-1-1Zm44.724 0a1 1 0 0 1 1-1h155.177a1 1 0 0 1 0 2H129.594a1 1 0 0 1-1-1ZM14.231 49a1 1 0 0 1 1-1h7.414a1 1 0 1 1 0 2h-7.414a1 1 0 0 1-1-1Zm202.931 0a1 1 0 0 1 1-1h66.609a1 1 0 0 1 0 2h-66.609a1 1 0 0 1-1-1ZM14.231 60a1 1 0 0 1 1-1h1.949a1 1 0 1 1 0 2h-1.95a1 1 0 0 1-1-1Zm64.173 0a1 1 0 0 1 1-1H81.2a1 1 0 1 1 0 2h-1.797a1 1 0 0 1-1-1Zm143.569 0a1 1 0 0 1 1-1h61.798a1 1 0 0 1 0 2h-61.798a1 1 0 0 1-1-1ZM14.231 71a1 1 0 0 1 1-1H19a1 1 0 1 1 0 2h-3.77a1 1 0 0 1-1-1Zm59.343 0a1 1 0 0 1 1-1H84.87a1 1 0 0 1 0 2H74.573a1 1 0 0 1-1-1Zm144.717 0a1 1 0 0 1 1-1h65.48a1 1 0 0 1 0 2h-65.48a1 1 0 0 1-1-1ZM14.231 82a1 1 0 0 1 1-1h26.983a1 1 0 1 1 0 2H15.23a1 1 0 0 1-1-1Zm0 11a1 1 0 0 1 1-1h53.966a1 1 0 1 1 0 2H15.23a1 1 0 0 1-1-1Zm0 11a1 1 0 0 1 1-1h53.966a1 1 0 1 1 0 2H15.23a1 1 0 0 1-1-1Zm0 11a1 1 0 0 1 1-1h53.966a1 1 0 1 1 0 2H15.23a1 1 0 0 1-1-1Zm0 11a1 1 0 0 1 1-1h53.966a1 1 0 1 1 0 2H15.23a1 1 0 0 1-1-1Zm0 11a1 1 0 0 1 1-1h53.966a1 1 0 1 1 0 2H15.23a1 1 0 0 1-1-1Zm0 11a1 1 0 0 1 1-1h53.966a1 1 0 0 1 0 2H15.23a1 1 0 0 1-1-1Zm0 11a1 1 0 0 1 1-1h53.966a1 1 0 0 1 0 2H15.23a1 1 0 0 1-1-1Zm0 11a1 1 0 0 1 1-1h53.966a1 1 0 0 1 0 2H15.23a1 1 0 0 1-1-1Zm0 11a1 1 0 0 1 1-1h53.966a1 1 0 0 1 0 2H15.23a1 1 0 0 1-1-1Zm0 11a1 1 0 0 1 1-1h7.79a1 1 0 1 1 0 2h-7.79a1 1 0 0 1-1-1Zm19.892 0a1 1 0 0 1 1-1h34.074a1 1 0 1 1 0 2H35.123a1 1 0 0 1-1-1Zm13.257 11a1 1 0 0 1 1-1h20.817a1 1 0 1 1 0 2H48.38a1 1 0 0 1-1-1Zm7.24 11a1 1 0 0 1 1-1h13.577a1 1 0 1 1 0 2H55.62a1 1 0 0 1-1-1Zm180.149 121a1 1 0 0 1 1-1h49.002a1 1 0 0 1 0 2h-49.002a1 1 0 0 1-1-1Zm-13.162 11a1 1 0 0 1 1-1h62.164a1 1 0 0 1 0 2h-62.164a1 1 0 0 1-1-1Zm1.316 11a1 1 0 0 1 1-1h60.848a1 1 0 0 1 0 2h-60.848a1 1 0 0 1-1-1Zm-3.948 11a1 1 0 0 1 1-1h64.796a1 1 0 0 1 0 2h-64.796a1 1 0 0 1-1-1Zm-8.226 11a1 1 0 0 1 1-1h16.701a1 1 0 0 1 0 2h-16.701a1 1 0 0 1-1-1Zm57.536 0a1 1 0 0 1 1-1h15.486a1 1 0 0 1 0 2h-15.486a1 1 0 0 1-1-1Zm6.133 11a1 1 0 0 1 1-1h9.353a1 1 0 0 1 0 2h-9.353a1 1 0 0 1-1-1Zm5.429 11a1 1 0 0 1 1-1h3.924a1 1 0 0 1 0 2h-3.924a1 1 0 0 1-1-1Zm2.631 10.815a1 1 0 0 1 1-1h1.294a1 1 0 0 1 0 2h-1.294a1 1 0 0 1-1-1ZM282.021 422a1 1 0 0 1 1-1h1.751a1 1 0 0 1 0 2h-1.751a1 1 0 0 1-1-1Zm-64.337 1a1 1 0 0 1 1-1h7.233a1 1 0 0 1 0 2h-7.233a1 1 0 0 1-1-1Zm-13.516 11a1 1 0 0 1 1-1h25.994a1 1 0 1 1 0 2h-25.994a1 1 0 0 1-1-1Zm62.518 0a1 1 0 0 1 1-1h17.085a1 1 0 0 1 0 2h-17.085a1 1 0 0 1-1-1ZM40.71 25.859a6.347 6.347 0 0 1 7.695-3.121l16.605 5.645a6.308 6.308 0 0 1 3.144 2.35 1 1 0 0 0 .137.292l.323.472a6.327 6.327 0 0 1 .094 5.6l-7.94 16.85c-1.157 2.455-3.665 3.706-6.12 2.94-2.237-.697-4.895-1.608-7.718-2.575-1.074-.368-2.172-.745-3.28-1.12-4.578-1.554-8.837-3.2-11.69-4.572-1.295-.623-1.762-2.185-1.012-3.652L40.71 25.86ZM29.048 48.412a4.308 4.308 0 0 0 2.045 2.01c2.96 1.424 7.306 3.1 11.915 4.663 1.09.37 2.178.743 3.246 1.11 2.834.97 5.533 1.896 7.798 2.602 3.54 1.104 7.004-.77 8.525-3.998l7.94-16.85a8.345 8.345 0 0 0 .743-2.591l5.623 8.205a6.347 6.347 0 0 1 .485 6.338l-12.709 26.42c-1.377 2.863-4.652 4.26-7.65 3.25-6.27-2.115-14.623-5.035-20.463-7.388a105.594 105.594 0 0 1-11.224-5.337c-2.78-1.528-3.67-5.027-2.088-7.896l5.814-10.538Zm41.284-17.947a8.303 8.303 0 0 0-4.679-3.975l-16.605-5.646a8.347 8.347 0 0 0-10.12 4.105l-9.754 19.095-7.691 13.94c-2.066 3.744-.963 8.505 2.876 10.615a107.586 107.586 0 0 0 11.44 5.439c5.897 2.376 14.296 5.311 20.57 7.428 3.968 1.338 8.284-.517 10.093-4.278l12.708-26.42a8.347 8.347 0 0 0-.637-8.336l-8.201-11.968ZM58.797 61.663a1 1 0 0 0-.86 1.122l1.959 14.817a1 1 0 1 0 1.982-.262L59.92 62.524a1 1 0 0 0-1.122-.86Z"
    clip-rule="evenodd"
  />
  <path
    fill="currentColor"
    fill-rule="evenodd"
    d="M48.558 31.177a3.043 3.043 0 0 0-2.073 5.723l.959.349-1.326 2.592-1.342-.47a3.052 3.052 0 0 0-3.682 1.407l-.083.152a2.903 2.903 0 0 0 5.064 2.84l.918-1.61.02-.037.01-.02 3.353 1.175-.273.507a3.212 3.212 0 0 0 1.664 4.516l.124.049a3.062 3.062 0 1 0 2.122-5.744l-1-.35 1.34-2.492 1.772.645a3.187 3.187 0 0 0 3.923-1.535c.904-1.754-.004-3.887-1.858-4.495a3.23 3.23 0 0 0-3.845 1.527l-.855 1.59-3.464-1.262.334-.652a3.135 3.135 0 0 0-1.728-4.378l-.074-.027Zm-.271 4.424-1.173-.427a1.206 1.206 0 0 1 .822-2.269l.073.027a1.299 1.299 0 0 1 .716 1.813l-.438.856Zm.896 2.28 3.426 1.248-1.352 2.512-3.39-1.188 1.316-2.571Zm6.05.25.73-1.354a1.393 1.393 0 0 1 1.655-.652c.8.262 1.174 1.178.798 1.908a1.35 1.35 0 0 1-1.663.65l-1.52-.553Zm-3.102 5.761 1.275.447a1.226 1.226 0 1 1-.85 2.299l-.123-.048a1.376 1.376 0 0 1-.713-1.935l.41-.763Zm-6.869-2.405-.783 1.373a1.066 1.066 0 0 1-1.86-1.044l.084-.151c.286-.52.906-.757 1.466-.56l1.093.382ZM261.016 379.971a6.34 6.34 0 0 0-7.686-3.118l-16.589 5.64a6.337 6.337 0 0 0-4.246 5.172 1 1 0 1 1-1.983-.265 8.336 8.336 0 0 1 5.585-6.8l16.589-5.64a8.34 8.34 0 0 1 10.111 4.101l9.745 19.077 7.684 13.926c2.064 3.741.962 8.497-2.874 10.606a107.599 107.599 0 0 1-11.429 5.434c-5.891 2.374-14.282 5.306-20.551 7.42-3.963 1.337-8.276-.516-10.083-4.274l-12.696-26.394a8.34 8.34 0 0 1 .636-8.329l3.092-4.511a1 1 0 1 1 1.649 1.131l-3.091 4.511a6.34 6.34 0 0 0-.484 6.331l12.696 26.394c1.376 2.86 4.648 4.256 7.642 3.246 6.264-2.113 14.609-5.029 20.443-7.38a105.439 105.439 0 0 0 11.213-5.332c2.776-1.526 3.667-5.021 2.086-7.886l-5.808-10.527a4.305 4.305 0 0 1-2.043 2.007c-2.956 1.422-7.299 3.097-11.903 4.659-1.089.369-2.176.742-3.243 1.107-2.831.971-5.527 1.895-7.79 2.6-3.538 1.103-6.999-.769-8.518-3.994l-7.65-16.233a1 1 0 0 1 1.809-.853l7.65 16.234c1.155 2.452 3.66 3.702 6.113 2.937 2.235-.696 4.889-1.606 7.71-2.573 1.073-.368 2.17-.744 3.277-1.119 4.573-1.552 8.828-3.196 11.678-4.567 1.293-.623 1.76-2.182 1.011-3.647l-9.752-19.091Zm-18.069 35.769a1 1 0 0 1 .861 1.122l-1.958 14.803a1 1 0 1 1-1.982-.262l1.957-14.803a1 1 0 0 1 1.122-.86Z"
    clip-rule="evenodd"
  />
  <path
    fill="currentColor"
    fill-rule="evenodd"
    d="M253.177 385.284a3.04 3.04 0 0 1 2.07 5.716l-.957.349 1.325 2.59 1.34-.47a3.052 3.052 0 0 1 3.679 1.406l.083.152a2.9 2.9 0 0 1-5.059 2.837l-.918-1.608-.02-.037-.01-.019-3.349 1.173.273.506a3.209 3.209 0 0 1-1.663 4.512l-.124.048a3.06 3.06 0 1 1-2.12-5.738l1-.35-1.34-2.489-1.769.645a3.186 3.186 0 0 1-3.921-1.534c-.902-1.752.005-3.883 1.858-4.49 1.471-.482 3.1.15 3.84 1.525l.855 1.587 3.46-1.259-.333-.652a3.133 3.133 0 0 1 1.726-4.374l.074-.026Zm.271 4.419 1.172-.427a1.205 1.205 0 0 0-.821-2.266l-.073.026a1.298 1.298 0 0 0-.716 1.812l.438.855Zm-.895 2.279-3.424 1.246 1.351 2.509 3.387-1.186-1.314-2.569Zm-6.045.248-.728-1.352a1.393 1.393 0 0 0-1.654-.652c-.799.262-1.173 1.178-.797 1.907a1.35 1.35 0 0 0 1.661.65l1.518-.553Zm3.1 5.757-1.275.446a1.223 1.223 0 1 0 .849 2.296l.124-.048a1.373 1.373 0 0 0 .712-1.932l-.41-.762Zm6.861-2.403.782 1.371a1.067 1.067 0 0 0 1.859-1.043l-.083-.151a1.216 1.216 0 0 0-1.466-.56l-1.092.383ZM107.291 148a1 1 0 0 1 1-1h53.966a1 1 0 1 1 0 2h-53.966a1 1 0 0 1-1-1Zm8 11a1 1 0 0 1 1-1h101.966a1 1 0 1 1 0 2H116.291a1 1 0 0 1-1-1Zm0 11a1 1 0 0 1 1-1h101.966a1 1 0 1 1 0 2H116.291a1 1 0 0 1-1-1Zm0 11a1 1 0 0 1 1-1h101.966a1 1 0 1 1 0 2H116.291a1 1 0 0 1-1-1Zm-8 11a1 1 0 0 1 1-1h53.966a1 1 0 1 1 0 2h-53.966a1 1 0 0 1-1-1Zm0 11a1 1 0 0 1 1-1h53.966a1 1 0 1 1 0 2h-53.966a1 1 0 0 1-1-1Zm8 11a1 1 0 0 1 1-1h53.966a1 1 0 1 1 0 2h-53.966a1 1 0 0 1-1-1Zm0 11a1 1 0 0 1 1-1h117.966a1 1 0 1 1 0 2H116.291a1 1 0 0 1-1-1Zm122.786 0a1 1 0 0 1 1-1h7.176a1 1 0 0 1 0 2h-7.176a1 1 0 0 1-1-1Z"
    clip-rule="evenodd"
  />
  <rect
    width="298"
    height="448"
    x="1"
    y="1"
    stroke="currentColor"
    stroke-width="2"
    rx="13"
  />
</svg>
