<svg
  xmlns="http://www.w3.org/2000/svg"
  width="300"
  height="450"
  fill="none"
  viewBox="0 0 300 450"
>
  <path
    fill="currentColor"
    d="M161.913 379.644c0 .328-.123.615-.369.861a1.178 1.178 0 0 1-.86.369c-1.23 0-2.316.594-3.258 1.782-.902 1.148-1.721 2.664-2.459 4.549-.738 1.844-1.393 3.934-1.967 6.27a208.489 208.489 0 0 0-1.598 6.885 279.238 279.238 0 0 1-1.906 7.868c-.614 2.5-1.352 4.733-2.213 6.7-.86 1.926-1.885 3.483-3.073 4.672-1.148 1.147-2.541 1.721-4.18 1.721-1.107 0-2.008-.348-2.705-1.045-.696-.738-1.229-1.639-1.598-2.705a15.01 15.01 0 0 1-.738-3.381 33.14 33.14 0 0 1-.184-3.257 42.766 42.766 0 0 1-1.967 4.118c-.697 1.27-1.455 2.377-2.274 3.319-.779.902-1.599 1.619-2.459 2.152a5.163 5.163 0 0 1-2.766.799c-.574 0-1.23-.102-1.967-.307-.697-.246-1.353-.697-1.967-1.353-.615-.696-1.148-1.68-1.599-2.95-.41-1.312-.614-3.012-.614-5.102 0-1.68.164-3.463.491-5.348.328-1.885.677-3.811 1.045-5.778.369-1.681.697-3.34.984-4.979.328-1.681.533-3.279.615-4.795.082-1.516 0-2.889-.246-4.119-.205-1.27-.656-2.335-1.353-3.196-1.352-1.639-3.688-2.459-7.007-2.459-2.418 0-4.467.492-6.147 1.476-1.639.942-2.992 2.151-4.057 3.626a15.458 15.458 0 0 0-2.275 4.672c-.45 1.68-.676 3.258-.676 4.733 0 1.148.123 2.275.369 3.381a10.814 10.814 0 0 0 1.229 2.889 6.592 6.592 0 0 0 2.029 2.09c.82.533 1.803.799 2.95.799.328 0 .615.123.861.369s.369.533.369.861c0 .327-.123.614-.369.86a1.18 1.18 0 0 1-.861.369c-1.352 0-2.581-.287-3.688-.861a8.953 8.953 0 0 1-2.889-2.397c-.778-1.024-1.393-2.233-1.844-3.627-.41-1.434-.615-3.012-.615-4.733 0-2.09.328-4.118.984-6.085.656-1.967 1.598-3.73 2.828-5.287a18.616 18.616 0 0 1 1.782-1.905 12.86 12.86 0 0 1 2.52-1.844c.984-.533 2.09-.963 3.32-1.291 1.229-.369 2.623-.554 4.18-.554 4.098 0 7.069 1.127 8.913 3.381.901 1.066 1.496 2.336 1.783 3.811.327 1.435.45 2.992.368 4.672a34.89 34.89 0 0 1-.553 5.225 251.312 251.312 0 0 1-1.045 5.409 225.82 225.82 0 0 0-1.106 5.656c-.287 1.762-.431 3.421-.431 4.979 0 .819.041 1.659.123 2.52.123.861.308 1.639.554 2.336.286.697.655 1.27 1.106 1.721.492.451 1.127.676 1.906.676 1.065 0 2.131-.615 3.196-1.844.656-.738 1.291-1.619 1.906-2.643a31.24 31.24 0 0 0 1.721-3.504 40.718 40.718 0 0 0 1.536-4.118c.492-1.435.964-2.91 1.414-4.426.205-2.336.451-4.508.738-6.516.287-2.049.553-3.75.799-5.102.451-2.664.84-4.713 1.168-6.147.369-1.434.676-2.479.922-3.135.287-.697.533-1.086.738-1.168.205-.123.43-.184.676-.184.164 0 .43.082.799.246.369.163.553.635.553 1.413 0 .328-.082 1.148-.246 2.459-.164 1.271-.41 2.869-.737 4.795a187.143 187.143 0 0 1-1.23 6.454 117.926 117.926 0 0 1-1.721 7.069 215.667 215.667 0 0 0-.307 4.795 77.336 77.336 0 0 0 0 4.364c.082 1.353.225 2.561.43 3.627.205 1.065.512 1.926.922 2.582.287.45.533.737.738.86.246.082.471.123.676.123 1.147 0 2.151-.553 3.012-1.66.901-1.106 1.701-2.561 2.397-4.364.697-1.803 1.332-3.832 1.906-6.085a337.564 337.564 0 0 0 1.659-6.947c.615-2.745 1.25-5.409 1.906-7.991.656-2.581 1.414-4.856 2.274-6.823.861-2.008 1.886-3.606 3.074-4.794 1.229-1.189 2.705-1.783 4.426-1.783.328 0 .614.123.86.369s.369.533.369.86ZM170.723 408.597c.328.082.594.266.799.553.205.287.267.594.185.922-.123.533-.349 1.168-.677 1.906-.286.696-.717 1.372-1.29 2.028-.574.615-1.291 1.147-2.152 1.598-.82.41-1.824.615-3.012.615h-.676a3.13 3.13 0 0 1-.615-.062c-.778 1.476-1.68 2.705-2.704 3.689-1.025.942-2.131 1.413-3.32 1.413-1.475 0-2.582-.532-3.319-1.598-.697-.942-1.066-2.151-1.107-3.626a22.518 22.518 0 0 1 .308-4.426c.205-1.476.471-2.787.799-3.934.328-1.189.532-1.906.614-2.152.205-.655.636-.942 1.291-.86.205-1.517.656-2.767 1.353-3.75.532-.779 1.188-1.373 1.967-1.783a5.065 5.065 0 0 1 2.581-.676c.328 0 .738.062 1.23.185s.963.43 1.414.922c.45.45.84 1.127 1.168 2.028.327.861.491 2.029.491 3.504 0 1.311-.143 2.725-.43 4.241a27.28 27.28 0 0 1-1.229 4.426h.184c.984 0 1.762-.205 2.336-.615.615-.409 1.086-.86 1.414-1.352.369-.533.614-1.024.737-1.475.123-.451.185-.697.185-.738.082-.328.266-.594.553-.799.287-.205.594-.266.922-.184Zm-13.462 10.204c.574 0 1.168-.287 1.783-.861.655-.615 1.27-1.455 1.844-2.52a8.85 8.85 0 0 1-3.074-2.705 11.37 11.37 0 0 1-1.659-3.811c-.205.861-.39 1.762-.554 2.705a31.779 31.779 0 0 0-.368 2.643c-.041.82-.021 1.578.061 2.274.123.697.328 1.25.615 1.66.123.164.266.307.43.43.205.123.512.185.922.185Zm4.672-5.656a23.131 23.131 0 0 0 1.229-4.057c.287-1.434.431-2.766.431-3.995 0-.287-.021-.676-.062-1.168a6.598 6.598 0 0 0-.246-1.352 3.425 3.425 0 0 0-.553-1.168 1.169 1.169 0 0 0-.984-.492c-1.065 0-1.905.471-2.52 1.414-.655.983-.983 2.213-.983 3.688 0 1.434.307 2.828.922 4.18.655 1.352 1.577 2.336 2.766 2.95Z"
  />
  <path
    fill="currentColor"
    d="M184.484 408.658c.327.082.573.267.737.553.205.287.267.595.185.922-.123.451-.369 1.291-.738 2.521a21.097 21.097 0 0 1-1.414 3.749 13.946 13.946 0 0 1-2.274 3.381c-.861.984-1.844 1.475-2.951 1.475-.942 0-1.659-.143-2.151-.43-.492-.328-.861-.655-1.107-.983a4.163 4.163 0 0 1-.614-1.291 6.93 6.93 0 0 1-.123-1.23c0-.409.02-.758.061-1.045.082-.327.144-.553.185-.676l3.012-13.216c-.492-.041-1.045-.082-1.66-.123a9.998 9.998 0 0 1-1.844-.43c-.205.984-.389 1.865-.553 2.643a81.725 81.725 0 0 1-.492 2.09 104.54 104.54 0 0 1-.492 1.783 16.658 16.658 0 0 1-.492 1.782c-.205.615-.594.922-1.168.922-.163 0-.266-.02-.307-.061a1.364 1.364 0 0 1-.799-.553.934.934 0 0 1-.123-.922c.369-.984.758-2.295 1.168-3.934.41-1.681.738-3.32.984-4.918l-.123-.123a1.25 1.25 0 0 1-.369-.922c.082-1.352.225-2.377.43-3.073.246-.738.492-1.271.738-1.599.246-.327.491-.512.737-.553.287-.082.492-.123.615-.123.328 0 .615.123.861.369.245.246.368.533.368.861 0 .45-.041 1.024-.123 1.721a30.512 30.512 0 0 1-.368 2.213c.655.205 1.393.348 2.213.43.86.082 1.618.082 2.274 0 .41 0 .758.143 1.045.43.246.287.328.656.246 1.107l-3.381 14.814v.061c-.082.246-.143.595-.184 1.045-.041.451.041.8.245 1.045.246.287.677.431 1.291.431.451 0 .922-.287 1.414-.861.492-.615.963-1.373 1.414-2.274.451-.943.86-1.947 1.229-3.012.369-1.107.676-2.152.922-3.135a1.13 1.13 0 0 1 .554-.738c.286-.164.594-.205.922-.123Z"
  />
  <path
    fill="currentColor"
    d="M198.412 408.658c.328.082.574.267.738.553.204.287.266.595.184.922-.082.287-.307 1.025-.676 2.213-.369 1.189-.902 2.459-1.598 3.811a14.423 14.423 0 0 1-2.521 3.566c-1.024 1.024-2.233 1.536-3.626 1.536-.861 0-1.578-.225-2.152-.676a5.274 5.274 0 0 1-1.352-1.782 12.03 12.03 0 0 1-.799-2.336 35.977 35.977 0 0 1-.492-2.397 53.224 53.224 0 0 0-.307-1.537c-.123-.574-.246-.963-.369-1.168-.082-.082-.164-.123-.246-.123l-2.09 9.036c-.082.328-.226.574-.43.738a1.414 1.414 0 0 1-.8.245c-.122 0-.204-.02-.245-.061a1.13 1.13 0 0 1-.738-.553 1.072 1.072 0 0 1-.184-.922l7.683-33.317c.205-.738.697-1.045 1.476-.922.327.082.573.266.737.553.205.287.267.594.185.922l-3.75 16.167a22.998 22.998 0 0 1 3.012-3.258c1.065-.943 2.11-1.414 3.135-1.414.942 0 1.66.369 2.151 1.107.369.573.554 1.27.554 2.09 0 .737-.164 1.598-.492 2.581-.328.943-.84 1.885-1.537 2.828-.656.901-1.475 1.742-2.459 2.52-.983.738-2.131 1.25-3.442 1.537.246.738.43 1.578.553 2.52.246 1.435.533 2.664.861 3.688.328.984.84 1.476 1.537 1.476.778 0 1.495-.369 2.151-1.107.697-.737 1.291-1.618 1.783-2.643a25.204 25.204 0 0 0 1.352-3.073c.369-1.025.615-1.845.738-2.459a1.13 1.13 0 0 1 .553-.738c.287-.164.594-.205.922-.123Zm-5.225-7.745c-.369 0-.84.225-1.414.676-.533.451-1.127 1.045-1.783 1.783a30.485 30.485 0 0 0-1.905 2.581 52.49 52.49 0 0 0-1.906 2.951c.902-.041 1.722-.225 2.459-.553a9.601 9.601 0 0 0 1.967-1.291 6.764 6.764 0 0 0 1.414-1.66c.41-.614.738-1.209.984-1.782.327-.779.471-1.394.43-1.844 0-.492-.041-.779-.123-.861h-.123ZM161.913 24.707c0 .328-.123.615-.369.86a1.178 1.178 0 0 1-.86.37c-1.23 0-2.316.593-3.258 1.782-.902 1.147-1.721 2.664-2.459 4.549-.738 1.844-1.393 3.934-1.967 6.27a208.466 208.466 0 0 0-1.598 6.884 278.5 278.5 0 0 1-1.906 7.868c-.614 2.5-1.352 4.734-2.213 6.7-.86 1.927-1.885 3.484-3.073 4.672-1.148 1.148-2.541 1.721-4.18 1.721-1.107 0-2.008-.348-2.705-1.044-.696-.738-1.229-1.64-1.598-2.705a15.021 15.021 0 0 1-.738-3.381 33.152 33.152 0 0 1-.184-3.258 42.776 42.776 0 0 1-1.967 4.119c-.697 1.27-1.455 2.376-2.274 3.319-.779.902-1.599 1.619-2.459 2.151-.861.533-1.783.8-2.766.8-.574 0-1.23-.103-1.967-.308-.697-.246-1.353-.697-1.967-1.352-.615-.697-1.148-1.68-1.599-2.95-.41-1.312-.614-3.013-.614-5.103 0-1.68.164-3.463.491-5.348.328-1.885.677-3.81 1.045-5.778.369-1.68.697-3.34.984-4.979.328-1.68.533-3.278.615-4.794.082-1.517 0-2.89-.246-4.119-.205-1.27-.656-2.336-1.353-3.197-1.352-1.639-3.688-2.458-7.007-2.458-2.418 0-4.467.491-6.147 1.475-1.639.943-2.992 2.152-4.057 3.627a15.447 15.447 0 0 0-2.275 4.672c-.45 1.68-.676 3.257-.676 4.733 0 1.147.123 2.274.369 3.38a10.802 10.802 0 0 0 1.229 2.89 6.594 6.594 0 0 0 2.029 2.09c.82.532 1.803.799 2.95.799.328 0 .615.123.861.368.246.246.369.533.369.861 0 .328-.123.615-.369.86a1.18 1.18 0 0 1-.861.37c-1.352 0-2.581-.287-3.688-.861a8.97 8.97 0 0 1-2.889-2.398c-.778-1.024-1.393-2.233-1.844-3.626-.41-1.434-.615-3.012-.615-4.733 0-2.09.328-4.119.984-6.086.656-1.967 1.598-3.73 2.828-5.286a18.618 18.618 0 0 1 1.782-1.906 12.909 12.909 0 0 1 2.52-1.844c.984-.533 2.09-.963 3.32-1.29 1.229-.37 2.623-.554 4.18-.554 4.098 0 7.069 1.127 8.913 3.38.901 1.066 1.496 2.337 1.783 3.812.327 1.434.45 2.991.368 4.672a34.888 34.888 0 0 1-.553 5.225 251.339 251.339 0 0 1-1.045 5.409c-.41 1.967-.778 3.852-1.106 5.655-.287 1.762-.431 3.422-.431 4.98 0 .819.041 1.659.123 2.52.123.86.308 1.639.554 2.335.286.697.655 1.27 1.106 1.721.492.451 1.127.677 1.906.677 1.065 0 2.131-.615 3.196-1.844.656-.738 1.291-1.62 1.906-2.644a31.16 31.16 0 0 0 1.721-3.503 40.736 40.736 0 0 0 1.536-4.119c.492-1.434.964-2.91 1.414-4.426.205-2.336.451-4.508.738-6.516.287-2.048.553-3.75.799-5.101.451-2.664.84-4.713 1.168-6.147.369-1.435.676-2.48.922-3.136.287-.696.533-1.085.738-1.167.205-.123.43-.185.676-.185.164 0 .43.082.799.246.369.164.553.635.553 1.414 0 .328-.082 1.147-.246 2.459a126.2 126.2 0 0 1-.737 4.794 187.014 187.014 0 0 1-1.23 6.455 117.929 117.929 0 0 1-1.721 7.069c-.123 1.639-.225 3.237-.307 4.794a77.35 77.35 0 0 0 0 4.365c.082 1.352.225 2.56.43 3.626.205 1.066.512 1.926.922 2.582.287.45.533.738.738.86.246.083.471.124.676.124 1.147 0 2.151-.554 3.012-1.66.901-1.107 1.701-2.561 2.397-4.364.697-1.804 1.332-3.832 1.906-6.086.574-2.295 1.127-4.61 1.659-6.946.615-2.746 1.25-5.41 1.906-7.991.656-2.582 1.414-4.856 2.274-6.823.861-2.008 1.886-3.607 3.074-4.795 1.229-1.188 2.705-1.783 4.426-1.783.328 0 .614.123.86.37.246.245.369.532.369.86ZM170.723 53.66c.328.081.594.266.799.552.205.287.267.595.185.922-.123.533-.349 1.168-.677 1.906-.286.697-.717 1.373-1.29 2.029-.574.614-1.291 1.147-2.152 1.598-.82.41-1.824.614-3.012.614h-.676c-.205 0-.41-.02-.615-.061-.778 1.475-1.68 2.705-2.704 3.688-1.025.943-2.131 1.414-3.32 1.414-1.475 0-2.582-.533-3.319-1.598-.697-.943-1.066-2.152-1.107-3.627a22.522 22.522 0 0 1 .308-4.426c.205-1.475.471-2.786.799-3.934.328-1.188.532-1.905.614-2.151.205-.656.636-.943 1.291-.86.205-1.517.656-2.767 1.353-3.75.532-.78 1.188-1.373 1.967-1.783a5.057 5.057 0 0 1 2.581-.676c.328 0 .738.061 1.23.184s.963.43 1.414.922c.45.45.84 1.127 1.168 2.029.327.86.491 2.028.491 3.503 0 1.312-.143 2.726-.43 4.242a27.307 27.307 0 0 1-1.229 4.426h.184c.984 0 1.762-.205 2.336-.615.615-.41 1.086-.86 1.414-1.352.369-.533.614-1.025.737-1.476.123-.45.185-.696.185-.737.082-.328.266-.595.553-.8.287-.204.594-.266.922-.184Zm-13.462 10.203c.574 0 1.168-.287 1.783-.86.655-.615 1.27-1.455 1.844-2.52a8.85 8.85 0 0 1-3.074-2.705 11.371 11.371 0 0 1-1.659-3.811c-.205.86-.39 1.762-.554 2.704a31.842 31.842 0 0 0-.368 2.643 13.67 13.67 0 0 0 .061 2.275c.123.697.328 1.25.615 1.66.123.163.266.307.43.43.205.123.512.184.922.184Zm4.672-5.655a23.158 23.158 0 0 0 1.229-4.057c.287-1.434.431-2.766.431-3.996 0-.287-.021-.676-.062-1.168a6.615 6.615 0 0 0-.246-1.352 3.427 3.427 0 0 0-.553-1.168 1.17 1.17 0 0 0-.984-.492c-1.065 0-1.905.472-2.52 1.414-.655.984-.983 2.213-.983 3.688 0 1.435.307 2.828.922 4.18.655 1.353 1.577 2.336 2.766 2.951Z"
  />
  <path
    fill="currentColor"
    d="M184.484 53.72c.327.083.573.267.737.554.205.287.267.594.185.922-.123.45-.369 1.29-.738 2.52a21.103 21.103 0 0 1-1.414 3.75 13.968 13.968 0 0 1-2.274 3.38c-.861.984-1.844 1.476-2.951 1.476-.942 0-1.659-.143-2.151-.43-.492-.328-.861-.656-1.107-.984a4.163 4.163 0 0 1-.614-1.29 6.923 6.923 0 0 1-.123-1.23c0-.41.02-.758.061-1.045.082-.328.144-.553.185-.676l3.012-13.216c-.492-.041-1.045-.082-1.66-.123a10.007 10.007 0 0 1-1.844-.43l-.553 2.643a81.825 81.825 0 0 1-.492 2.09c-.164.614-.328 1.209-.492 1.782a16.732 16.732 0 0 1-.492 1.783c-.205.615-.594.922-1.168.922-.163 0-.266-.02-.307-.062a1.365 1.365 0 0 1-.799-.553.935.935 0 0 1-.123-.922c.369-.983.758-2.295 1.168-3.934.41-1.68.738-3.32.984-4.917l-.123-.123a1.25 1.25 0 0 1-.369-.922c.082-1.353.225-2.377.43-3.074.246-.737.492-1.27.738-1.598.246-.328.491-.512.737-.553.287-.082.492-.123.615-.123.328 0 .615.123.861.368.245.246.368.533.368.861 0 .45-.041 1.025-.123 1.721a30.42 30.42 0 0 1-.368 2.213c.655.205 1.393.349 2.213.43.86.082 1.618.082 2.274 0 .41 0 .758.144 1.045.43.246.288.328.656.246 1.107l-3.381 14.815v.06c-.082.247-.143.595-.184 1.046-.041.45.041.799.245 1.045.246.287.677.43 1.291.43.451 0 .922-.287 1.414-.86.492-.615.963-1.373 1.414-2.275.451-.942.86-1.946 1.229-3.012a42.68 42.68 0 0 0 .922-3.135 1.13 1.13 0 0 1 .554-.737c.286-.164.594-.205.922-.123Z"
  />
  <path
    fill="currentColor"
    d="M198.412 53.72c.328.083.574.267.738.554.204.287.266.594.184.922-.082.287-.307 1.024-.676 2.213-.369 1.188-.902 2.459-1.598 3.811a14.42 14.42 0 0 1-2.521 3.565c-1.024 1.025-2.233 1.537-3.626 1.537-.861 0-1.578-.225-2.152-.676a5.276 5.276 0 0 1-1.352-1.783 12.008 12.008 0 0 1-.799-2.336c-.205-.86-.369-1.66-.492-2.397-.082-.45-.185-.963-.307-1.537-.123-.574-.246-.963-.369-1.168-.082-.082-.164-.123-.246-.123l-2.09 9.036c-.082.328-.226.574-.43.738a1.415 1.415 0 0 1-.8.246c-.122 0-.204-.02-.245-.062a1.13 1.13 0 0 1-.738-.553 1.072 1.072 0 0 1-.184-.922l7.683-33.316c.205-.738.697-1.045 1.476-.922.327.081.573.266.737.553.205.287.267.594.185.922l-3.75 16.166a23.002 23.002 0 0 1 3.012-3.258c1.065-.942 2.11-1.413 3.135-1.413.942 0 1.66.368 2.151 1.106.369.574.554 1.27.554 2.09 0 .738-.164 1.598-.492 2.582-.328.942-.84 1.885-1.537 2.827-.656.902-1.475 1.742-2.459 2.52-.983.738-2.131 1.25-3.442 1.537.246.738.43 1.578.553 2.52.246 1.435.533 2.664.861 3.689.328.983.84 1.475 1.537 1.475.778 0 1.495-.369 2.151-1.106.697-.738 1.291-1.619 1.783-2.643a25.21 25.21 0 0 0 1.352-3.074c.369-1.024.615-1.844.738-2.459.082-.328.266-.574.553-.737.287-.164.594-.205.922-.123Zm-5.225-7.745c-.369 0-.84.226-1.414.677-.533.45-1.127 1.045-1.783 1.782a30.538 30.538 0 0 0-1.905 2.582 52.113 52.113 0 0 0-1.906 2.95c.902-.04 1.722-.225 2.459-.553a9.601 9.601 0 0 0 1.967-1.29 6.763 6.763 0 0 0 1.414-1.66c.41-.615.738-1.21.984-1.783.327-.779.471-1.393.43-1.844 0-.492-.041-.779-.123-.86h-.123Z"
  />
  <path
    fill="currentColor"
    fill-rule="evenodd"
    d="M284.709 14.38H63.621a1 1 0 0 1 0-2H284.71a1 1 0 1 1 0 2Zm-247.155 0H16.08a1 1 0 0 1 0-2h21.473a1 1 0 0 1 0 2Zm130.138 10a1 1 0 0 1 1-1H285.25a1 1 0 0 1 0 2H168.692a1 1 0 0 1-1-1Zm-71.986 1H72.168a1 1 0 0 1 0-2h23.538a1 1 0 1 1 0 2Zm-76.1 0H15.54a1 1 0 1 1 0-2h4.065a1 1 0 0 1 0 2Zm175.505 10a1 1 0 0 1 1-1h38.017a1 1 0 0 1 0 2h-38.017a1 1 0 0 1-1-1Zm-33.836 0a1 1 0 0 1 1-1h19.383a1 1 0 0 1 0 2h-19.383a1 1 0 0 1-1-1Zm-68.56 1h-12a1 1 0 0 1 0-2h12a1 1 0 0 1 0 2Zm-75.032 0H15.54a1 1 0 1 1 0-2h2.142a1 1 0 0 1 0 2Zm59.681 10.001a1 1 0 0 1 1-1h17.342a1 1 0 1 1 0 2H78.364a1 1 0 0 1-1-1Zm122.47 0a1 1 0 0 1 1-1h24.32a1 1 0 0 1 0 2h-24.32a1 1 0 0 1-1-1Zm16.773 12h-9.577a1 1 0 0 1 0-2h9.577a1 1 0 0 1 0 2Zm-142.661-1a1 1 0 0 1 1-1h31.587a1 1 0 1 1 0 2H74.946a1 1 0 0 1-1-1Zm-.282 12.001a1 1 0 1 1 0-2h41.424a1 1 0 1 1 0 2H73.664Zm-50.583 0h-7.54a1 1 0 1 1 0-2h7.54a1 1 0 0 1 0 2Zm50.865 10a1 1 0 0 1 1-1h117.089a1 1 0 1 1 0 2H74.945a1 1 0 0 1-1-1Zm14.122 11a1 1 0 0 1 1-1h69.552a1 1 0 0 1 0 2H89.068a1 1 0 0 1-1-1Zm12.803 11.001a1 1 0 0 1 1-1h46.714a1 1 0 0 1 0 2h-46.714a1 1 0 0 1-1-1Zm6.228 11a1 1 0 0 1 1-1h30.105a1 1 0 0 1 0 2h-30.105a1 1 0 0 1-1-1Zm-3.286 11.001a1 1 0 0 1 1-1h22.695a1 1 0 1 1 0 2h-22.695a1 1 0 0 1-1-1Zm-2.942 11a1 1 0 0 1 1-1h14.524a1 1 0 0 1 0 2h-14.524a1 1 0 0 1-1-1Zm-2.465 11a1 1 0 0 1 1-1h18.851a1 1 0 0 1 0 2H99.406a1 1 0 0 1-1-1Zm-2.56 11.001a1 1 0 0 1 1-1h24.893a1 1 0 0 1 0 2H96.846a1 1 0 0 1-1-1Zm-1.862 11a1 1 0 0 1 1-1h30.953a1 1 0 0 1 0 2H94.984a1 1 0 0 1-1-1Zm-2.327 11.001a1 1 0 0 1 1-1h36.305a1 1 0 1 1 0 2H92.657a1 1 0 0 1-1-1Zm-38.167 11a1 1 0 0 1 1-1h74.472a1 1 0 1 1 0 2H54.49a1 1 0 0 1-1-1ZM14.54 200.387a1 1 0 0 1 1-1h102.716a1 1 0 1 1 0 2H15.541a1 1 0 0 1-1-1Zm0 11a1 1 0 0 1 1-1h89.272a1 1 0 0 1 0 2H15.541a1 1 0 0 1-1-1Zm0 11a1 1 0 0 1 1-1h10.09a1 1 0 0 1 0 2h-10.09a1 1 0 0 1-1-1Zm51.981 0a1 1 0 0 1 1-1h29.324a1 1 0 0 1 0 2H67.522a1 1 0 0 1-1-1Zm14.568 11a1 1 0 0 1 1-1h10.567a1 1 0 0 1 0 2H82.09a1 1 0 0 1-1-1ZM14.541 343.392a1 1 0 0 1 1-1h12.675a1 1 0 0 1 0 2H15.541a1 1 0 0 1-1-1Zm262.168 11a1 1 0 0 1 1-1h3.798a1 1 0 1 1 0 2h-3.798a1 1 0 0 1-1-1Zm-262.168 0a1 1 0 0 1 1-1h21.677a1 1 0 0 1 0 2H15.54a1 1 0 0 1-1-1Zm267.152 11a1 1 0 0 1 1-1h2.557a1 1 0 0 1 0 2h-2.557a1 1 0 0 1-1-1Zm-267.152.001a1 1 0 0 1 1-1h26.958a1 1 0 1 1 0 2H15.541a1 1 0 0 1-1-1Zm0 11a1 1 0 0 1 1-1h35.982a1 1 0 0 1 0 2H15.54a1 1 0 0 1-1-1Zm0 11a1 1 0 0 1 1-1h43.465a1 1 0 0 1 0 2H15.54a1 1 0 0 1-1-1Zm0 11.001a1 1 0 0 1 1-1H70.45a1 1 0 1 1 0 2H15.54a1 1 0 0 1-1-1Zm0 11a1 1 0 0 1 1-1h80.163a1 1 0 0 1 0 2H15.541a1 1 0 0 1-1-1Zm0 11.001a1 1 0 0 1 1-1h98.061a1 1 0 1 1 0 2H15.541a1 1 0 0 1-1-1Zm.54 11a1 1 0 0 1 1-1h203.553a1 1 0 0 1 0 2H16.081a1 1 0 0 1-1-1ZM254.807 167.385a1 1 0 0 1 1-1h23.747a1 1 0 0 1 0 2h-23.747a1 1 0 0 1-1-1ZM252.171 177.759a1 1 0 0 1 1-1h33.588a1 1 0 0 1 0 2h-33.588a1 1 0 0 1-1-1ZM286.759 190.523h-42.423a1 1 0 0 1 0-2h42.423a1 1 0 1 1 0 2Zm0 11h-33.784a1 1 0 0 1 0-2h33.784a1 1 0 1 1 0 2Z"
    clip-rule="evenodd"
  />
  <path
    fill="currentColor"
    fill-rule="evenodd"
    d="M286.759 190.523h-42.423a1 1 0 0 1 0-2h42.423a1 1 0 1 1 0 2Zm0 11h-33.784a1 1 0 0 1 0-2h33.784a1 1 0 1 1 0 2ZM54.516 16.76a1 1 0 0 1 .747.24L77.26 36.075a1 1 0 0 1 .317.99L69.22 71.66a1 1 0 0 1-.852.758l-30.513 3.692a1 1 0 0 1-.808-.266L15.087 55.047a1 1 0 0 1-.28-.981l8.94-33.817a1 1 0 0 1 .876-.74l29.893-2.749Zm-29.235 5.516-8.388 31.727 20.31 19.231 8.948-33.59-20.87-17.367Zm22.786 17.946-8.985 33.724 28.357-3.431 7.87-32.573-27.242 2.28Zm26.091-4.19-26.552 2.222L27.21 21.28l27.066-2.49 19.883 17.241Z"
    clip-rule="evenodd"
  />
  <path
    fill="currentColor"
    fill-rule="evenodd"
    d="M35.204 71.685a1 1 0 0 1-.873 1.113l-18.71 2.256a1 1 0 1 1-.24-1.986l18.71-2.256a1 1 0 0 1 1.113.873Zm24.922.057a1 1 0 0 1 1.412-.091l42.666 37.501a1 1 0 0 1 .312.986l-17.193 71.169a1 1 0 0 1-.851.758l-62.773 7.596a1 1 0 0 1-.808-.266l-8.885-8.414a1 1 0 1 1 1.375-1.452l7.685 7.277 19.371-68.575L14.03 92.979a1 1 0 1 1 1.329-1.495l28.534 25.364 57.34-7.646-41.015-36.049a1 1 0 0 1-.09-1.411Zm42.103 39.345-57.875 7.717-19.405 68.691 60.593-7.332 16.687-69.076Z"
    clip-rule="evenodd"
  />
  <path
    fill="currentColor"
    fill-rule="evenodd"
    d="M49.746 72.98a1 1 0 0 1 .721 1.217l-.513 2.011a1 1 0 0 1-1.938-.494l.513-2.011a1 1 0 0 1 1.217-.722Zm-2.053 8.045a1 1 0 0 1 .722 1.216l-1.027 4.022a1 1 0 1 1-1.938-.494l1.027-4.022a1 1 0 0 1 1.216-.722ZM45.127 91.08a1 1 0 0 1 .722 1.216l-1.026 4.022a1 1 0 0 1-1.938-.494l1.026-4.022a1 1 0 0 1 1.216-.722Zm-2.566 10.055a1 1 0 0 1 .722 1.217l-1.026 4.022a1 1 0 1 1-1.938-.495l1.026-4.022a1 1 0 0 1 1.216-.722Zm-2.566 10.056a1 1 0 0 1 .722 1.216l-1.026 4.022a1 1 0 0 1-1.938-.495l1.026-4.022a1 1 0 0 1 1.216-.721Zm-2.565 10.055a1 1 0 0 1 .721 1.216l-1.026 4.022a1 1 0 0 1-1.938-.495l1.026-4.022a1 1 0 0 1 1.217-.721Zm-2.566 10.055a1 1 0 0 1 .722 1.216l-.365 1.428 1.155 1.049a1 1 0 0 1-1.345 1.481l-1.246-1.133-1.465.228a1 1 0 1 1-.307-1.976l1.285-.2.35-1.371a1 1 0 0 1 1.216-.722Zm-7.52 4.031a1 1 0 0 1-.835 1.142l-3.874.603a1 1 0 0 1-.307-1.976l3.874-.603a1 1 0 0 1 1.141.834Zm-9.685 1.507a1 1 0 0 1-.835 1.142l-1.937.301a1 1 0 0 1-.307-1.976l1.937-.302a1 1 0 0 1 1.142.835Zm22.105 2.583a1 1 0 0 1 1.412-.067l3.2 2.907a1 1 0 1 1-1.344 1.48l-3.2-2.907a1 1 0 0 1-.068-1.413Zm8 7.268a1 1 0 0 1 1.413-.068l3.2 2.907a1 1 0 0 1-1.344 1.481l-3.2-2.907a1 1 0 0 1-.068-1.413Zm8.002 7.268a1 1 0 0 1 1.412-.068l1.6 1.453a1 1 0 0 1-1.344 1.481l-1.6-1.454a1 1 0 0 1-.068-1.412Zm7.286 6.618a1 1 0 0 1 1.413-.068l1.464 1.33a1 1 0 0 1-1.345 1.481l-1.464-1.33a1 1 0 0 1-.068-1.413Zm5.857 5.32a1 1 0 0 1 1.412-.068l2.929 2.66a1 1 0 0 1-1.345 1.48l-2.928-2.659a1 1 0 0 1-.068-1.413Zm7.32 6.65a1 1 0 0 1 1.413-.068l2.928 2.66a1 1 0 1 1-1.344 1.48l-2.928-2.66a1 1 0 0 1-.068-1.412Zm7.322 6.65a1 1 0 0 1 1.412-.068l1.464 1.33a1 1 0 1 1-1.345 1.48l-1.464-1.33a1 1 0 0 1-.067-1.412ZM245.544 368.521a1 1 0 0 0-.779.319l-20.077 21.685c-.249.27-.331.654-.213 1.001l11.232 33.08a1 1 0 0 0 .858.674l29.358 2.635c.314.028.622-.093.833-.327l20.137-22.395a1 1 0 0 0 .206-.982l-11.104-33.687a1.001 1.001 0 0 0-.905-.686l-29.546-1.317Zm29.097 4.282 10.377 31.483-18.609 20.697-10.557-30.965 18.789-21.215Zm-20.659 21.926 10.587 31.056-27.177-2.439-10.53-31.01 27.12 2.393Zm-26.441-4.341 26.763 2.362 18.604-21.007-26.99-1.204-18.377 19.849Z"
    clip-rule="evenodd"
  />
  <path
    fill="currentColor"
    fill-rule="evenodd"
    d="M170.731 88.332a.999.999 0 0 1 1.08-.175l30.557 13.619a.994.994 0 0 1 .431.368l18.967 29.109a1 1 0 0 1-.172 1.292l-36.806 32.906 45.542 23.167 15.406-13.994-3.463-18.161a1 1 0 1 1 1.964-.375l3.569 18.712c.065.342-.053.693-.31.927l-15.259 13.861 13.803 7.022a1 1 0 0 1 .512.63l5.18 19.153 11.484-10.992c.303-.29.755-.36 1.132-.176l23.125 11.33a1 1 0 1 1-.88 1.796l-22.498-11.023-52.105 49.873 5.086 8.17 59.058 30.791 10.212-9.656a.999.999 0 1 1 1.374 1.453l-10.319 9.757 12.012 54.968a1 1 0 0 1-1.922.541l-21.101-8.628 21.492 34.527a1 1 0 1 1-1.698 1.057l-47.887-76.933-56.026 55.475 43.82 68.179 4.326-4.68a1 1 0 1 1 1.469 1.357l-4.678 5.061 4.781 7.439a1 1 0 0 1-1.683 1.082l-49.928-77.685-50.219-10.391 18.337 29.285a1 1 0 0 1-1.695 1.061l-18.915-30.206-17.823 17.749a.999.999 0 0 1-.931.265l-57.691-13.367a.998.998 0 0 1-.605-.417l-9.651-14.379-6.366-.585 36.105 54.33 10 2.36a1 1 0 1 1-.46 1.947l-10.383-2.451a1.005 1.005 0 0 1-.604-.42l-36.936-55.58a1 1 0 0 1-.157-.41l-9.603-.883a.998.998 0 0 1-.732-.429l-8.014-11.648a1 1 0 1 1 1.647-1.133l7.749 11.261 16.328 1.501-29.027-43.637a1 1 0 0 1 .137-1.273l8.711-8.424-3.424-5.884-1.456-.234a.999.999 0 1 1 .317-1.974l1.447.232 53.398-48.732-36.158-4.02-17.712 15.634a.999.999 0 1 1-1.324-1.499l18.044-15.927a1 1 0 0 1 .773-.244l38.793 4.312c.294.033.558.194.722.439l10.739 16.113 16.07 1.537-4.13-15.618a1 1 0 0 1 .299-1l41.434-37.232-16.764-54.782a1 1 0 0 1 .283-1.032l49.8-45.36Zm-32.045 102.716-40.359 36.266 23.972 14.193 6.402-6.569-5.453-16.341a.998.998 0 0 1 .282-1.062l23.991-21.45-8.835-5.037Zm10.408 3.632 32.182-28.772-58.026-29.519 16.145 52.761 9.699 5.53Zm-25.746-60.485 59.528 30.283 36.745-32.852-18.336-28.143-29.691-13.233-48.246 43.945Zm59.841 32.686-57.278 51.208 12.946 7.195 56.074 5.257a1 1 0 0 1 .756.467l5.256 8.445 42.943-41.695-60.697-30.877Zm61.876 32.521-43.04 41.788 8.886 14.276 39.176-37.498-5.022-18.566Zm-108.139 27.097-10.967-6.095 4.313 12.922 6.654-6.827Zm2.011.801-52.094 53.456 48.551 6.362 57.173-54.79-53.63-5.028Zm55.703 5.811-57.614 55.213 44.14 68.679 56.047-55.496-42.573-68.396Zm-15.776 124.01-43.715-68.018-48.385-6.34 41.914 63.973 50.186 10.385Zm-52.078-9.623-42.207-64.421-18.256 18.69 43.18 62.942 17.283-17.211Zm-19.708 17.213L64.45 302.572l-50.776-8.462 28.909 43.46 9.694 14.443 54.801 12.698Zm-93.392-72.626 50.998 8.499 19.333-19.794v-.001l32.927-33.786-51.546-4.929-51.712 50.011Zm105.049-46.92 2.128-2.184-22.626-13.396 3.695 13.973 16.803 1.607Zm-37.563-3.592-9.19-13.789-53.93 49.217 3.009 5.169 43.278-41.854c.21-.204.5-.305.79-.277l16.043 1.534Zm183.414 100.125 22.379 9.151-11.538-52.801-56.273-29.338 45.432 72.988Z"
    clip-rule="evenodd"
  />
  <path
    fill="currentColor"
    fill-rule="evenodd"
    d="M171.612 88.849a1 1 0 0 1 1.199.75l.447 1.937a1 1 0 0 1-1.949.45l-.447-1.938a1 1 0 0 1 .75-1.2ZM173.4 96.6a1 1 0 0 1 1.199.75l.894 3.875a1 1 0 1 1-1.949.45l-.894-3.876a1 1 0 0 1 .75-1.2Zm2.235 9.689a1 1 0 0 1 1.199.75l.894 3.876a.999.999 0 1 1-1.948.45l-.895-3.876a1.001 1.001 0 0 1 .75-1.2Zm2.235 9.69a1 1 0 0 1 1.199.75l.895 3.876a1 1 0 0 1-1.949.449l-.894-3.876a1 1 0 0 1 .749-1.199Zm2.235 9.69a1 1 0 0 1 1.2.75l.894 3.876a1 1 0 0 1-1.949.449l-.894-3.876a1 1 0 0 1 .749-1.199Zm2.236 9.69a1 1 0 0 1 1.199.75l.894 3.876a1 1 0 0 1-1.949.449l-.894-3.876a1 1 0 0 1 .75-1.199Zm2.235 9.69a1 1 0 0 1 1.199.749l.336 1.459 1.319.604a1 1 0 1 1-.833 1.818l-1.17-.536-1.044.937a1 1 0 0 1-1.335-1.49l1.093-.979-.315-1.363a1 1 0 0 1 .75-1.199Zm6.826 5.73a1 1 0 0 1 1.325-.492l3.532 1.617a1 1 0 1 1-.833 1.818l-3.531-1.617a1 1 0 0 1-.493-1.326Zm-11.539 2.01a1 1 0 0 1-.077 1.412l-3.064 2.747a.999.999 0 1 1-1.335-1.489l3.064-2.747a1 1 0 0 1 1.412.077Zm20.368 2.034a1 1 0 0 1 1.326-.493l3.531 1.617a1 1 0 1 1-.832 1.819l-3.532-1.618a1 1 0 0 1-.493-1.325Zm8.829 4.043a1 1 0 0 1 1.326-.493l3.532 1.617a1 1 0 0 1-.833 1.819l-3.532-1.617a1 1 0 0 1-.493-1.326Zm-36.858.792a1 1 0 0 1-.077 1.412l-3.064 2.747a1 1 0 0 1-1.336-1.489l3.065-2.747a.999.999 0 0 1 1.412.077Zm45.688 3.251a1 1 0 0 1 1.325-.493l3.532 1.618a1 1 0 1 1-.833 1.818l-3.532-1.617a1 1 0 0 1-.492-1.326Zm-53.349 3.617a1.002 1.002 0 0 1-.077 1.413l-3.065 2.747a1 1 0 1 1-1.335-1.489l3.065-2.748a1 1 0 0 1 1.412.077Zm62.178.427a.999.999 0 0 1 1.325-.493l3.532 1.617a1 1 0 1 1-.833 1.818l-3.531-1.617a1 1 0 0 1-.493-1.325Zm8.829 4.043a1 1 0 0 1 1.326-.493l3.531 1.617a1 1 0 1 1-.832 1.819l-3.532-1.618a1 1 0 0 1-.493-1.325Zm-78.668 2.399a1 1 0 0 1-.077 1.412l-3.065 2.748a1 1 0 1 1-1.335-1.489l3.064-2.748a1.002 1.002 0 0 1 1.413.077Zm87.497 1.644a1 1 0 0 1 1.326-.493l1.766.809a1 1 0 1 1-.833 1.818l-1.766-.808a1 1 0 0 1-.493-1.326Zm-95.159 5.225a.999.999 0 0 1-.077 1.412l-3.064 2.748a1 1 0 0 1-1.335-1.489l3.064-2.748a1 1 0 0 1 1.412.077Zm-7.661 6.869a1 1 0 0 1-.077 1.412l-1.532 1.374a1 1 0 1 1-1.335-1.489l1.532-1.374a1 1 0 0 1 1.412.077ZM136.837 227.313a1 1 0 0 1 1.373.338l1.093 1.807a1 1 0 1 1-1.711 1.035l-1.093-1.807a1 1 0 0 1 .338-1.373Zm4.372 7.226a1 1 0 0 1 1.373.338l2.186 3.613a.999.999 0 1 1-1.711 1.035l-2.186-3.613a1 1 0 0 1 .338-1.373Zm5.465 9.033a1 1 0 0 1 1.373.338l2.186 3.613a1 1 0 1 1-1.711 1.035l-2.186-3.613a1 1 0 0 1 .338-1.373Zm5.465 9.032a1 1 0 0 1 1.373.338l2.186 3.613a.999.999 0 1 1-1.711 1.036l-2.186-3.613a1.001 1.001 0 0 1 .338-1.374Zm5.465 9.033a.999.999 0 0 1 1.373.338l2.186 3.613a1 1 0 1 1-1.711 1.035l-2.186-3.613a1 1 0 0 1 .338-1.373Zm5.465 9.032a1.001 1.001 0 0 1 1.374.338l1.093 1.807a1 1 0 0 1-1.712 1.035l-1.093-1.806a1.002 1.002 0 0 1 .338-1.374Zm10.816 18.365a.999.999 0 0 1 1.382.296l.804 1.242a1 1 0 0 1-1.679 1.086l-.804-1.241a1 1 0 0 1 .297-1.383Zm3.213 4.967a1 1 0 0 1 1.383.296l.546.844 1.753.197a1 1 0 1 1-.223 1.987l-1.735-.195-1.264 1.309a1 1 0 1 1-1.438-1.39l1.054-1.091-.372-.575a1 1 0 0 1 .296-1.382Zm9.248 2.967a.999.999 0 0 1 1.105-.882l2.223.249a1 1 0 0 1-.222 1.988l-2.224-.25a.999.999 0 0 1-.882-1.105Zm10.609 1.19a1 1 0 0 1 1.105-.882l2.079.233a1 1 0 0 1-.223 1.987l-2.078-.233a1 1 0 0 1-.883-1.105Zm8.312.932a1 1 0 0 1 1.106-.882l4.156.466a1 1 0 1 1-.223 1.987l-4.156-.466a1 1 0 0 1-.883-1.105Zm10.391 1.165a.999.999 0 0 1 1.105-.882l4.156.466a1 1 0 1 1-.223 1.988l-4.156-.466a1 1 0 0 1-.882-1.106Zm10.39 1.166a1 1 0 0 1 1.105-.883l4.156.466a1 1 0 0 1-.223 1.988l-4.156-.466a1 1 0 0 1-.882-1.105Zm10.39 1.165a1 1 0 0 1 1.105-.883l2.078.234a.999.999 0 1 1-.223 1.987l-2.078-.233a1 1 0 0 1-.882-1.105Zm-63.723-.576a1 1 0 0 1 .024 1.414l-3.213 3.323a1 1 0 1 1-1.438-1.39l3.213-3.323a1 1 0 0 1 1.414-.024Zm-8.032 8.309a1 1 0 0 1 .024 1.414l-2.95 3.051a1 1 0 1 1-1.438-1.39l2.95-3.051a.999.999 0 0 1 1.414-.024Zm-6.98 7.221a1 1 0 0 1 .024 1.414l-2.687 2.779a1.001 1.001 0 0 1-1.438-1.39l2.687-2.779a.999.999 0 0 1 1.414-.024Zm-6.718 6.949a1 1 0 0 1 .024 1.414l-2.687 2.779a1 1 0 1 1-1.438-1.39l2.687-2.779a1 1 0 0 1 1.414-.024Zm-6.717 6.949a1 1 0 0 1 .023 1.414l-2.687 2.779a.999.999 0 1 1-1.438-1.39l2.688-2.779a1 1 0 0 1 1.414-.024Zm-6.718 6.949a1 1 0 0 1 .024 1.414l-2.687 2.78a1 1 0 0 1-1.438-1.391l2.687-2.779a1 1 0 0 1 1.414-.024Zm-6.718 6.949a.999.999 0 0 1 .024 1.414l-1.343 1.39a1 1 0 1 1-1.438-1.39l1.343-1.39a1 1 0 0 1 1.414-.024ZM244.919 31.794a1 1 0 0 1 .809-.297l41.537 3.894a1 1 0 1 1-.187 1.991l-41.06-3.85-52.095 53.456 48.551 6.362L286.48 51.18a1 1 0 0 1 1.384 1.444l-43.758 41.933 44.808 69.718a1 1 0 0 1-1.044 1.52l-52.924-10.951a.998.998 0 0 1-.633-.431l-43.336-66.144a1 1 0 0 1 .12-1.245l53.822-55.229Zm-2.689 63.541-48.386-6.34 41.914 63.974 50.187 10.384-43.715-68.018Z"
    clip-rule="evenodd"
  />
  <path
    fill="currentColor"
    fill-rule="evenodd"
    d="M246.232 32.266a1 1 0 0 1 1.368.358l1.001 1.712a1 1 0 0 1-1.727 1.01l-1-1.712a1 1 0 0 1 .358-1.368Zm4.003 6.844a1 1 0 0 1 1.368.358l2.001 3.422a1 1 0 1 1-1.726 1.01l-2.001-3.422a1 1 0 0 1 .358-1.368Zm5.004 8.555a1 1 0 0 1 1.368.358l2.001 3.422a1 1 0 1 1-1.726 1.01l-2.002-3.422a1 1 0 0 1 .359-1.368Zm5.003 8.555a1 1 0 0 1 1.368.358L263.612 60a1 1 0 0 1-1.727 1.01l-2.001-3.422a1 1 0 0 1 .358-1.368Zm5.004 8.555a1 1 0 0 1 1.368.358l2.002 3.422a1 1 0 0 1-1.727 1.01l-2.001-3.422a1 1 0 0 1 .358-1.368Zm5.004 8.554a1 1 0 0 1 1.368.359l2.001 3.422a1 1 0 1 1-1.726 1.01l-2.002-3.422a1 1 0 0 1 .359-1.369Zm5.004 8.555a1 1 0 0 1 1.368.359l2.001 3.422a1 1 0 0 1-1.726 1.01l-2.002-3.423a1 1 0 0 1 .359-1.368Zm5.003 8.555a1 1 0 0 1 1.368.358l2.002 3.422a1 1 0 1 1-1.727 1.01l-2.001-3.422a1 1 0 0 1 .358-1.368Zm5.004 8.555a1 1 0 0 1 1.368.358l1.001 1.711a1 1 0 0 1-.148 1.203l-1.463 1.501a1 1 0 0 1-1.432-1.397l.932-.955-.616-1.053a1 1 0 0 1 .358-1.368Zm-3.65 7.86a1 1 0 0 1 .018 1.414l-2.927 3.001a1 1 0 0 1-1.432-1.397l2.927-3.001a1 1 0 0 1 1.414-.017Zm-7.317 7.502a1 1 0 0 1 .017 1.414l-2.926 3a1 1 0 1 1-1.432-1.396l2.927-3.001a1 1 0 0 1 1.414-.017Zm-7.317 7.501a1 1 0 0 1 .017 1.414l-2.927 3.001a1 1 0 1 1-1.431-1.396l2.926-3.001a1.002 1.002 0 0 1 1.415-.018Zm-7.318 7.502a.999.999 0 0 1 .018 1.414l-2.927 3.001a1 1 0 0 1-1.432-1.396l2.927-3.001a1 1 0 0 1 1.414-.018Zm-7.317 7.502a1 1 0 0 1 .018 1.414l-2.927 3.001a1 1 0 0 1-1.432-1.397l2.927-3a.999.999 0 0 1 1.414-.018Zm-7.317 7.502a1 1 0 0 1 .017 1.414l-2.926 3.001a1.001 1.001 0 0 1-1.432-1.397l2.927-3.001a1 1 0 0 1 1.414-.017Zm-7.317 7.502a1 1 0 0 1 .017 1.414l-1.463 1.5a1 1 0 0 1-1.432-1.396l1.463-1.501a1.001 1.001 0 0 1 1.415-.017ZM81.539 127.231c-1.63-1.866-4.476-2.745-8.904-2.279-4.735.497-8.89 2.29-12.49 5.388l-.002.001c-3.216 2.754-5.576 6.114-7.085 10.095l4.002-.421c1-2.687 2.15-4.861 3.47-6.484 2.529-3.126 5.887-4.909 10.01-5.342 3.167-.333 5.752.161 6.92 2.185 1.05 1.777 1.092 3.909.35 6.257-.543 1.721-1.565 3.39-3.017 5.009-.814.926-1.779 1.824-2.888 2.696l-3.61 2.923c-3.433 2.77-5.777 5.114-7.1 7.034l-.002.002c-1.112 1.603-2.11 3.619-2.983 6.065l3.995-.42c.852-2.558 1.818-4.608 2.92-6.103l.003-.004c1.207-1.621 3.293-3.594 6.187-5.908 3.957-3.165 6.614-5.494 8.019-7.006l.005-.005c1.366-1.45 2.41-3.277 3.115-5.51 1.167-3.695.744-6.323-.906-8.163l-.01-.01Zm1.502-1.321c-2.255-2.578-5.914-3.441-10.615-2.947-5.139.54-9.675 2.497-13.584 5.86-3.892 3.332-6.627 7.496-8.198 12.471a.999.999 0 0 0 1.058 1.295l6.189-.65a1 1 0 0 0 .838-.66c1.006-2.84 2.133-4.986 3.354-6.487l.002-.002c2.18-2.697 5.045-4.232 8.664-4.612 3.087-.325 4.469.309 4.98 1.199l.007.01c.671 1.135.801 2.635.168 4.641-.439 1.389-1.29 2.816-2.603 4.28l-.007.008c-.723.823-1.598 1.641-2.63 2.452l-.012.009-3.612 2.925-.001.001c-3.483 2.811-6.003 5.297-7.49 7.453-1.472 2.123-2.712 4.818-3.736 8.06a.999.999 0 0 0 1.058 1.295l6.19-.65c.395-.042.728-.314.848-.693.868-2.748 1.819-4.777 2.824-6.143 1.05-1.408 2.97-3.251 5.83-5.537 3.957-3.166 6.718-5.574 8.234-7.205 1.599-1.697 2.781-3.799 3.564-6.276 1.289-4.08.97-7.539-1.32-10.097ZM63.003 165.441a1 1 0 0 1 .179.934l-2.19 6.933a1 1 0 0 1-.85.694l-6.918.727a1.001 1.001 0 0 1-1.058-1.296l2.19-6.934c.12-.379.453-.651.849-.693l6.919-.727a1 1 0 0 1 .879.362Zm-6.938 2.286-1.533 4.853 4.75-.499 1.533-4.854-4.75.5ZM171.639 266.325c-4.025 3.921-6.104 8.336-6.377 13.263v.004c-.273 4.643 1.003 9.154 3.928 13.553l3.836-3.737c-1.706-2.726-2.797-5.212-3.191-7.445-.803-4.467.681-8.447 4.165-11.841 2.765-2.694 5.514-3.949 8.18-3.371 2.526.524 4.642 1.991 6.33 4.355 1.232 1.724 1.975 3.799 2.246 6.19.171 1.352.164 2.794-.009 4.318l-.468 4.93v.003c-.453 4.664-.3 8.155.375 10.558l.001.004c.612 2.205 1.849 4.708 3.762 7.512l3.813-3.715c-1.713-2.515-2.847-4.763-3.317-6.728l-.002-.008c-.513-2.206-.526-5.332-.119-9.283.553-5.381.713-9.114.518-11.28l-.001-.011c-.166-2.046-1.001-4.195-2.614-6.454-2.642-3.699-5.87-5.612-9.72-5.82h-.008c-3.835-.246-7.602 1.373-11.328 5.003Zm-8.218 13.181c.313-5.634 2.712-10.577 7.056-14.809 4.013-3.909 8.236-5.797 12.638-5.516 4.394.238 8.077 2.454 11.013 6.566 1.765 2.472 2.806 5.001 3.017 7.585.218 2.426.032 6.37-.521 11.752-.4 3.873-.351 6.666.068 8.471.42 1.751 1.563 4.003 3.544 6.777.321.449.26 1.126-.135 1.512l-5.246 5.11c-.396.385-.977.333-1.297-.116-2.317-3.245-3.892-6.253-4.659-9.019-.794-2.826-.917-6.673-.454-11.453l.001-.002.468-4.939.003-.024c.155-1.363.157-2.61.013-3.745l-.002-.017c-.23-2.038-.852-3.739-1.85-5.138-1.436-2.01-3.187-3.208-5.273-3.64l-.008-.002c-1.906-.414-4.096.417-6.634 2.89-3.077 2.997-4.155 6.205-3.521 9.723l.001.004c.352 2.005 1.443 4.471 3.383 7.417a1.202 1.202 0 0 1-.157 1.479l-5.245 5.11c-.396.386-.977.334-1.298-.116-3.557-4.981-5.232-10.277-4.905-15.86Zm33.987 33.004a1.202 1.202 0 0 1 .136-1.511l5.864-5.713c.396-.386.977-.334 1.298.116l4.973 6.964c.32.449.26 1.126-.136 1.512l-5.864 5.713c-.396.385-.977.333-1.298-.116l-4.973-6.965Zm2.014-.581 3.811 5.336 4.432-4.317-3.811-5.337-4.432 4.318Z"
    clip-rule="evenodd"
  />
  <rect
    width="298"
    height="448"
    x="1"
    y="1"
    stroke="currentColor"
    stroke-width="2"
    rx="13"
  />
</svg>
