<svg width="159" height="210" viewBox="0 0 159 210" fill="none" xmlns="http://www.w3.org/2000/svg">
  <path
    d="M115.128 2.807a2.69 2.69 0 0 1-2.685-2.695h-6.536a2.69 2.69 0 0 1-2.685 2.695 2.69 2.69 0 0 1-2.686-2.694l-6.54-.001a2.69 2.69 0 0 1-2.685 2.695A2.69 2.69 0 0 1 88.626.113l-6.54-.001a2.69 2.69 0 0 1-2.685 2.695A2.69 2.69 0 0 1 76.716.113l-6.54-.001a2.69 2.69 0 0 1-2.685 2.695A2.69 2.69 0 0 1 64.806.113l-6.54-.001a2.69 2.69 0 0 1-2.685 2.695A2.69 2.69 0 0 1 52.896.113L46.364.112a2.69 2.69 0 0 1-2.685 2.695A2.69 2.69 0 0 1 40.993.113L34.45.112a2.69 2.69 0 0 1-2.685 2.695A2.69 2.69 0 0 1 29.079.113L22.544.112a2.69 2.69 0 0 1-2.686 2.695A2.69 2.69 0 0 1 17.173.112h-6.54a2.69 2.69 0 0 1-2.685 2.695A2.69 2.69 0 0 1 5.263.112H0v5.936h.014a2.69 2.69 0 0 1 2.685 2.695 2.69 2.69 0 0 1-2.685 2.695H0v6.561h.014a2.69 2.69 0 0 1 2.685 2.695 2.69 2.69 0 0 1-2.685 2.694H0v6.562h.014a2.69 2.69 0 0 1 2.685 2.694A2.69 2.69 0 0 1 .014 35.34H0V41.9h.014a2.69 2.69 0 0 1 2.685 2.694A2.69 2.69 0 0 1 .014 47.29H0v6.562h.014a2.69 2.69 0 0 1 2.685 2.694 2.69 2.69 0 0 1-2.685 2.695H0v6.561h.014a2.69 2.69 0 0 1 2.685 2.695 2.69 2.69 0 0 1-2.685 2.695H0v6.56h.014a2.69 2.69 0 0 1 2.685 2.696 2.69 2.69 0 0 1-2.685 2.694H0v6.562h.014a2.69 2.69 0 0 1 2.685 2.694 2.69 2.69 0 0 1-2.685 2.695H0v6.562h.014a2.69 2.69 0 0 1 2.685 2.694 2.69 2.69 0 0 1-2.685 2.695H0v6.561h.014a2.69 2.69 0 0 1 2.685 2.695 2.69 2.69 0 0 1-2.685 2.695H0v6.561h.014a2.69 2.69 0 0 1 2.685 2.695 2.69 2.69 0 0 1-2.685 2.694H0v6.562h.014a2.69 2.69 0 0 1 2.685 2.695 2.69 2.69 0 0 1-2.685 2.695H0v6.56h.014a2.69 2.69 0 0 1 2.685 2.695 2.69 2.69 0 0 1-2.685 2.695H0v6.562h.014a2.69 2.69 0 0 1 2.685 2.694 2.69 2.69 0 0 1-2.685 2.695H0v6.562h.014a2.69 2.69 0 0 1 2.685 2.694 2.69 2.69 0 0 1-2.685 2.695H0v6.562l.014-.001a2.69 2.69 0 0 1 2.685 2.695A2.69 2.69 0 0 1 .014 190.7H0v6.562h.014a2.69 2.69 0 0 1 2.685 2.694 2.69 2.69 0 0 1-2.685 2.695H0v6.562h.014c.221 0 .437.027.643.078h4.608a2.69 2.69 0 0 1 2.685-2.695 2.69 2.69 0 0 1 2.685 2.695h6.537a2.69 2.69 0 0 1 2.686-2.695 2.69 2.69 0 0 1 2.685 2.695h6.54a2.69 2.69 0 0 1 2.685-2.695 2.69 2.69 0 0 1 2.685 2.695h6.544a2.69 2.69 0 0 1 2.685-2.695 2.69 2.69 0 0 1 2.685 2.695h6.532a2.69 2.69 0 0 1 2.685-2.695 2.69 2.69 0 0 1 2.685 2.695h6.54a2.69 2.69 0 0 1 2.685-2.695 2.69 2.69 0 0 1 2.686 2.695h6.535a2.69 2.69 0 0 1 2.685-2.695 2.69 2.69 0 0 1 2.686 2.695h6.543a2.69 2.69 0 0 1 2.686-2.695A2.69 2.69 0 0 1 94 209.291h6.536a2.69 2.69 0 0 1 2.685-2.695 2.69 2.69 0 0 1 2.685 2.695h6.54a2.69 2.69 0 0 1 2.685-2.695 2.69 2.69 0 0 1 2.685 2.695h6.536a2.69 2.69 0 0 1 2.685-2.695 2.69 2.69 0 0 1 2.685 2.695h6.536a2.69 2.69 0 0 1 2.686-2.695 2.69 2.69 0 0 1 2.685 2.695h6.543a2.69 2.69 0 0 1 2.686-2.695 2.69 2.69 0 0 1 2.685 2.695h4.607c.203-.051.415-.078.633-.078v-6.562a2.69 2.69 0 0 1-2.675-2.695 2.69 2.69 0 0 1 2.675-2.695V190.7a2.69 2.69 0 0 1-2.675-2.695 2.69 2.69 0 0 1 2.675-2.695v-6.561a2.69 2.69 0 0 1-2.675-2.695 2.69 2.69 0 0 1 2.675-2.694v-6.562a2.69 2.69 0 0 1-2.675-2.695 2.69 2.69 0 0 1 2.675-2.695v-6.561a2.69 2.69 0 0 1-2.675-2.695 2.69 2.69 0 0 1 2.675-2.695v-6.561a2.69 2.69 0 0 1-2.675-2.694 2.69 2.69 0 0 1 2.675-2.695v-6.562a2.69 2.69 0 0 1-2.675-2.694 2.69 2.69 0 0 1 2.675-2.695v-6.561a2.69 2.69 0 0 1-2.675-2.695 2.69 2.69 0 0 1 2.675-2.695v-6.561a2.69 2.69 0 0 1-2.675-2.695 2.69 2.69 0 0 1 2.675-2.694v-6.562a2.69 2.69 0 0 1-2.675-2.695 2.69 2.69 0 0 1 2.675-2.695v-6.561a2.69 2.69 0 0 1-2.675-2.695 2.69 2.69 0 0 1 2.675-2.694v-6.561a2.69 2.69 0 0 1-2.675-2.695 2.69 2.69 0 0 1 2.675-2.695v-6.561a2.69 2.69 0 0 1-2.675-2.695 2.69 2.69 0 0 1 2.675-2.695V47.29a2.69 2.69 0 0 1-2.675-2.695 2.69 2.69 0 0 1 2.675-2.694v-6.562a2.69 2.69 0 0 1-2.675-2.695 2.69 2.69 0 0 1 2.675-2.694v-6.562a2.69 2.69 0 0 1-2.675-2.695A2.69 2.69 0 0 1 158.783 18v-6.562a2.69 2.69 0 0 1-2.675-2.694 2.69 2.69 0 0 1 2.675-2.695V.112h-5.243a2.691 2.691 0 0 1-2.686 2.695 2.69 2.69 0 0 1-2.685-2.694l-6.543-.001a2.691 2.691 0 0 1-2.686 2.695 2.69 2.69 0 0 1-2.685-2.694l-6.532-.001a2.69 2.69 0 0 1-2.685 2.695 2.69 2.69 0 0 1-2.685-2.694l-6.54-.001a2.69 2.69 0 0 1-2.685 2.695Z"
    fill="var(--theme-3, currentColor)"
    stroke="var(--panel-overlay)"
    stroke-width="1"
  />
  <path
    d="M68.75 185.588h1.385v-1.947h-.011c-.096.14-.225.264-.4.36-.169.096-.394.18-.664.259l-.186-.698c.31-.079.574-.186.788-.31.214-.123.388-.287.523-.495h.895v2.825h1.03v.636h-3.365v-.636l.005.006Zm5.054.636a3.292 3.292 0 0 1-.726-.27 2.067 2.067 0 0 1-.53-.406l.462-.534c.113.146.248.27.411.377.163.101.355.18.563.231.208.05.433.078.675.078.253 0 .484-.039.675-.123.192-.085.35-.203.456-.361a.979.979 0 0 0 .163-.568 1.524 1.524 0 0 1-.529.315c-.185.068-.427.096-.714.096-.36 0-.681-.051-.951-.146a1.42 1.42 0 0 1-.625-.411.93.93 0 0 1-.214-.614c0-.23.085-.45.254-.636.168-.185.4-.332.692-.433.292-.101.63-.152 1.001-.152.417 0 .771.057 1.064.175.293.112.523.292.68.529.158.236.243.54.243.911 0 .445-.079.816-.242 1.12a1.585 1.585 0 0 1-.732.692c-.32.158-.72.237-1.187.237-.326 0-.625-.034-.895-.102l.006-.005Zm1.61-1.795a.892.892 0 0 0 .365-.214c.09-.09.13-.192.13-.315a.466.466 0 0 0-.13-.321.827.827 0 0 0-.371-.22 1.781 1.781 0 0 0-.54-.078c-.203 0-.366.028-.518.078a.812.812 0 0 0-.355.225.471.471 0 0 0-.124.321c0 .118.045.22.13.31.084.09.208.163.36.214.152.05.332.078.523.078.192 0 .377-.028.53-.078Zm3.145 1.761c-.304-.084-.535-.203-.71-.36a.74.74 0 0 1-.252-.557c0-.152.039-.287.118-.411a.965.965 0 0 1 .326-.31c.14-.084.304-.14.484-.174a1.389 1.389 0 0 1-.371-.175.768.768 0 0 1-.242-.264.697.697 0 0 1-.085-.338c0-.197.073-.365.225-.506.152-.141.36-.248.625-.321a3.43 3.43 0 0 1 .912-.112c.343 0 .652.039.922.112.27.073.479.186.625.327.146.14.225.309.225.512a.68.68 0 0 1-.084.332.857.857 0 0 1-.23.264 1.085 1.085 0 0 1-.35.175c.175.033.332.095.462.174a.894.894 0 0 1 .31.304.76.76 0 0 1 .106.399.755.755 0 0 1-.253.574c-.169.158-.405.282-.71.361a3.889 3.889 0 0 1-1.035.123c-.388 0-.731-.045-1.03-.123l.012-.006Zm1.547-.507a.874.874 0 0 0 .355-.185.361.361 0 0 0 .124-.276.37.37 0 0 0-.124-.281.875.875 0 0 0-.355-.186 1.832 1.832 0 0 0-.517-.068c-.192 0-.36.023-.518.068a.838.838 0 0 0-.355.186.371.371 0 0 0-.13.27c0 .112.046.202.13.287.085.084.203.14.355.185.152.045.32.068.518.068.197 0 .365-.023.517-.068Zm-.073-1.558c.13-.04.23-.096.304-.169a.349.349 0 0 0 .107-.259c0-.101-.04-.18-.113-.253a.708.708 0 0 0-.303-.163 1.488 1.488 0 0 0-.44-.057c-.174 0-.32.017-.45.057a.708.708 0 0 0-.303.163.35.35 0 0 0-.113.253c0 .096.04.186.113.259a.725.725 0 0 0 .303.169 1.812 1.812 0 0 0 .89 0h.005Zm3.405 2.104a3.196 3.196 0 0 1-.726-.27 2.042 2.042 0 0 1-.53-.405l.462-.535c.113.147.248.271.411.377.163.102.354.181.563.231.208.051.433.079.675.079.253 0 .484-.039.675-.124.192-.084.35-.202.456-.36a.98.98 0 0 0 .163-.568 1.523 1.523 0 0 1-.529.315c-.185.067-.427.095-.714.095-.36 0-.681-.05-.951-.146a1.41 1.41 0 0 1-.625-.411.925.925 0 0 1-.214-.613c0-.231.085-.45.253-.636.17-.186.4-.332.692-.433.293-.102.63-.152 1.002-.152.417 0 .771.056 1.064.174.292.113.523.293.68.529.158.237.243.54.243.912 0 .444-.08.816-.242 1.12a1.589 1.589 0 0 1-.732.692c-.32.157-.72.236-1.187.236-.327 0-.625-.034-.895-.101l.006-.006Zm1.609-1.795a.881.881 0 0 0 .366-.214.42.42 0 0 0 .13-.315.466.466 0 0 0-.13-.321.835.835 0 0 0-.372-.219 1.75 1.75 0 0 0-.54-.079 1.58 1.58 0 0 0-.517.079.803.803 0 0 0-.355.225.471.471 0 0 0-.124.321c0 .118.045.219.13.309.084.09.208.164.36.214.152.051.332.079.523.079s.377-.028.529-.079ZM54.035 35.768l1.379 2.622 1.373-2.622h1.277v3.46h-.9v-2.481h-.011l-1.289 2.481h-.878l-1.316-2.481h-.012v2.481h-.9v-3.46h1.277Zm4.913 0h.94v3.46h-.94v-3.46Zm2.898 3.337c-.371-.146-.658-.355-.855-.63a1.608 1.608 0 0 1-.304-.98c0-.377.095-.697.287-.967a1.91 1.91 0 0 1 .804-.636c.344-.152.749-.226 1.216-.226.343 0 .658.051.945.147a2 2 0 0 1 .726.416c.197.18.338.394.422.636l-.85.214a.937.937 0 0 0-.247-.377 1.118 1.118 0 0 0-.422-.248 1.575 1.575 0 0 0-.552-.09c-.281 0-.523.045-.731.141a1.09 1.09 0 0 0-.484.394 1.064 1.064 0 0 0-.169.602c0 .23.062.428.191.602.124.175.304.304.535.394.23.09.5.135.81.135.231 0 .445-.034.642-.096a1.27 1.27 0 0 0 .484-.275.941.941 0 0 0 .264-.417l.872.175c-.073.27-.213.5-.422.703a2.031 2.031 0 0 1-.793.456c-.32.107-.675.158-1.058.158-.5 0-.934-.074-1.305-.22l-.006-.011Zm4.31-3.337h.946v1.31h2.273v-1.31h.945v3.46h-.945v-1.474h-2.273v1.474h-.946v-3.46Zm5.037 0h3.528v.63h-2.617v.777h2.42v.562h-2.42v.85h2.662v.636h-3.579v-3.46l.006.005Zm4.299 0h.945v2.746h2.144v.714h-3.089v-3.46Zm6.438 3.337a1.84 1.84 0 0 1-.81-.63 1.566 1.566 0 0 1-.288-.929c0-.366.102-.692.304-.974a1.94 1.94 0 0 1 .85-.658 3.102 3.102 0 0 1 1.243-.236 3.2 3.2 0 0 1 .946.135c.287.09.529.214.726.377.197.163.32.343.377.551l-.873.186a.673.673 0 0 0-.23-.298 1.133 1.133 0 0 0-.422-.203 1.743 1.743 0 0 0-.518-.073c-.281 0-.534.05-.748.152a1.26 1.26 0 0 0-.512.416 1.023 1.023 0 0 0-.186.608c0 .23.067.428.202.602.135.175.321.31.558.411.236.101.512.146.821.146.259 0 .49-.039.703-.118.214-.079.389-.18.518-.31a.684.684 0 0 0 .208-.444h-2.228v-.535h3.14v1.964h-.754l-.056-.619a1.646 1.646 0 0 1-.445.383 2.26 2.26 0 0 1-.608.248 2.971 2.971 0 0 1-.72.084c-.439 0-.833-.073-1.182-.225l-.016-.011Zm4.574-3.337h.94v3.46h-.94v-3.46Zm4.283 3.421c-.282-.09-.501-.225-.675-.4a1.089 1.089 0 0 1-.31-.607l.917-.192c.017.141.068.265.163.372a.885.885 0 0 0 .355.242c.146.056.315.084.507.084.19 0 .348-.022.489-.073a.666.666 0 0 0 .32-.208.492.492 0 0 0 .113-.315.538.538 0 0 0-.107-.338.628.628 0 0 0-.303-.22 1.314 1.314 0 0 0-.468-.072c-.163 0-.309.022-.45.073a.83.83 0 0 0-.32.18l-.749-.124.107-1.823h2.746v.608h-1.964l-.045.748c.113-.073.248-.124.411-.163.163-.04.326-.056.49-.056.32 0 .602.05.838.146.236.096.422.236.551.41.13.175.197.389.197.63 0 .243-.078.474-.23.66a1.41 1.41 0 0 1-.653.427 2.954 2.954 0 0 1-1.002.152c-.354 0-.67-.045-.945-.14h.017Zm6.623-3.309c.32.141.585.332.788.586l-.422.5a1.87 1.87 0 0 0-.371-.36 1.532 1.532 0 0 0-.462-.225 2.06 2.06 0 0 0-.58-.079c-.236 0-.433.045-.607.13a.9.9 0 0 0-.394.371 1.1 1.1 0 0 0-.14.552c.174-.147.348-.248.534-.315.185-.062.427-.096.726-.096.354 0 .67.05.945.14.276.09.478.231.625.411a.958.958 0 0 1-.04 1.25c-.169.185-.4.332-.698.433a3.234 3.234 0 0 1-1.035.152c-.388 0-.743-.056-1.035-.169a1.393 1.393 0 0 1-.676-.535c-.157-.241-.236-.545-.236-.906 0-.433.073-.799.208-1.102a1.47 1.47 0 0 1 .642-.704c.292-.163.664-.248 1.108-.248.445 0 .8.068 1.12.209v.005Zm-1.637 1.683a.852.852 0 0 0-.366.214.426.426 0 0 0-.13.31c0 .117.045.23.135.326.09.095.214.174.372.225.157.056.337.079.54.079.191 0 .366-.029.518-.085a.822.822 0 0 0 .354-.225.45.45 0 0 0 .124-.32.442.442 0 0 0-.13-.316.927.927 0 0 0-.36-.214 1.538 1.538 0 0 0-.528-.079c-.197 0-.372.023-.53.074v.01Zm4.085 1.626c-.281-.09-.5-.225-.675-.4a1.09 1.09 0 0 1-.31-.607l.917-.192c.017.141.068.265.164.372a.884.884 0 0 0 .354.242c.146.056.315.084.507.084.191 0 .348-.022.489-.073a.664.664 0 0 0 .321-.208.492.492 0 0 0 .112-.315.538.538 0 0 0-.106-.338.631.631 0 0 0-.304-.22 1.314 1.314 0 0 0-.467-.072c-.164 0-.31.022-.451.073a.825.825 0 0 0-.32.18l-.749-.124.107-1.823h2.746v.608h-1.964l-.045.748c.113-.073.248-.124.411-.163.163-.04.327-.056.49-.056.32 0 .602.05.838.146.237.096.422.236.552.41.129.175.197.389.197.63 0 .243-.079.474-.231.66a1.414 1.414 0 0 1-.653.427 2.951 2.951 0 0 1-1.002.152c-.354 0-.669-.045-.945-.14h.017ZM58.672 96.93c-2.836-1.22-5.048-2.943-6.623-5.171-1.576-2.228-2.37-4.76-2.37-7.597 0-2.994.828-5.655 2.488-7.974 1.654-2.318 3.973-4.124 6.944-5.407 2.971-1.29 6.364-1.93 10.185-1.93 2.786 0 5.357.365 7.715 1.091 2.358.732 4.339 1.756 5.926 3.084 1.592 1.328 2.61 2.825 3.061 4.496l-7.158 1.514c-.32-.9-.95-1.711-1.89-2.426-.94-.714-2.088-1.271-3.439-1.67a14.79 14.79 0 0 0-4.215-.597c-2.307 0-4.355.41-6.145 1.232-1.79.822-3.19 1.958-4.198 3.399-1.007 1.446-1.513 3.112-1.513 4.991 0 1.88.551 3.495 1.649 4.913 1.097 1.418 2.627 2.532 4.575 3.342 1.947.81 4.197 1.216 6.74 1.216 2.094 0 4.019-.32 5.769-.957 1.75-.636 3.157-1.485 4.215-2.543 1.058-1.058 1.632-2.28 1.71-3.658h-18.26V81.9h25.7v23.584h-5.65l-.99-12.566h-.04c-.957 1.193-2.166 2.234-3.64 3.123-1.475.89-3.135 1.565-4.992 2.032-1.857.461-3.821.698-5.886.698-3.607 0-6.832-.608-9.668-1.83v-.01ZM93.72 69.644h7.675v28.322h-7.675V69.644Zm35.17 0c2.071 0 3.86.32 5.368.956 1.514.636 2.679 1.554 3.501 2.747.821 1.193 1.232 2.571 1.232 4.136 0 .9-.18 1.755-.535 2.566a5.854 5.854 0 0 1-1.553 2.087 6.786 6.786 0 0 1-2.33 1.312v.118c1.593.371 2.865 1.153 3.821 2.346.957 1.193 1.43 2.6 1.43 4.215 0 1.615-.434 2.91-1.295 4.12s-2.076 2.126-3.64 2.762c-1.565.636-3.41.957-5.532.957h-23.19V69.644h22.723ZM126.7 81.298c.9 0 1.705-.14 2.408-.416.704-.276 1.238-.681 1.61-1.216.371-.529.557-1.142.557-1.829 0-1.035-.416-1.874-1.255-2.526-.833-.648-1.958-.974-3.359-.974h-12.769v6.96H126.7Zm.276 11.935c1.007 0 1.896-.146 2.667-.439.771-.292 1.373-.737 1.812-1.333a3.306 3.306 0 0 0 .658-2.01c0-1.142-.478-2.053-1.429-2.745-.957-.693-2.189-1.036-3.697-1.036h-13.089v7.558h13.089l-.011.005ZM42.848 130.03c-.85-.372-1.553-.867-2.11-1.491a20.898 20.898 0 0 1-1.632-2.088l-2.15-4.215c-.506-.85-1.153-1.514-1.947-1.986a4.918 4.918 0 0 0-2.582-.715h-5.2v10.264h-7.754v-28.322h18.603c2.386 0 4.418.349 6.089 1.053 1.671.703 2.966 1.705 3.877 3.004.917 1.3 1.373 2.853 1.373 4.654 0 1.407-.337 2.668-1.013 3.782-.675 1.114-1.626 2.037-2.841 2.763-1.221.731-2.679 1.198-4.378 1.412v.04c.529.292 1.03.658 1.49 1.091.462.439.856.962 1.177 1.57l2.11 3.821c.293.422.597.754.917.996.321.236.704.36 1.154.36.371 0 .776-.135 1.215-.399a3.26 3.26 0 0 0 1.053-.996l1.79 3.382c-.715.793-1.65 1.423-2.803 1.89-1.154.462-2.313.698-3.483.698s-2.094-.185-2.944-.557l-.01-.011Zm-6.764-15.357c1.165 0 2.167-.157 3.005-.478.833-.321 1.475-.782 1.908-1.39.439-.608.658-1.351.658-2.229 0-.821-.22-1.536-.658-2.149-.439-.608-1.075-1.092-1.908-1.452-.833-.36-1.823-.535-2.965-.535h-8.942v8.233h8.902Zm31.822-13.207h8.953l14.243 28.322h-8.036l-2.746-5.61H64.21l-2.747 5.61h-8.075l14.518-28.322Zm10.54 17.861-6.128-12.69h-.079l-6.128 12.69h12.335Zm23.269-17.861v22.475h17.54v5.847h-25.26v-28.322h7.72Zm-62.626 37.511H27.115v-5.689h31.664v5.689H46.844v22.633h-7.755v-22.633Zm28.998-5.689h8.952l14.243 28.322h-8.036L80.5 156H64.39l-2.747 5.61h-8.075l14.519-28.322Zm10.54 17.861-6.129-12.689h-.079l-6.128 12.689h12.335Zm42.322 10.703c-.85-.371-1.553-.867-2.11-1.491a20.913 20.913 0 0 1-1.632-2.088l-2.15-4.215c-.506-.849-1.153-1.513-1.947-1.986a4.927 4.927 0 0 0-2.583-.715h-9.15v10.264h-7.754v-28.322h22.554c2.386 0 4.417.355 6.089 1.053 1.671.703 2.965 1.705 3.877 3.005.917 1.299 1.373 2.853 1.373 4.653 0 1.407-.338 2.668-1.013 3.782-.675 1.114-1.626 2.037-2.842 2.763-1.221.731-2.678 1.198-4.378 1.412v.04c.529.292 1.03.658 1.491 1.091.462.439.856.963 1.177 1.57l2.11 3.821c.292.422.596.754.917.996.321.237.703.36 1.154.36.371 0 .776-.135 1.215-.399a3.254 3.254 0 0 0 1.052-.996l1.79 3.382c-.715.793-1.649 1.424-2.803 1.891-1.153.461-2.312.697-3.483.697-1.17 0-2.093-.185-2.943-.557l-.011-.011Zm-6.764-15.357c1.165 0 2.166-.157 3.005-.478.833-.321 1.474-.782 1.908-1.39.438-.608.658-1.351.658-2.228 0-.822-.22-1.537-.658-2.15-.439-.608-1.075-1.092-1.908-1.452-.833-.36-1.823-.534-2.966-.534h-12.886v8.232h12.847Z"
    fill="var(--theme-1, currentColor)"
  />
  <path
    d="m39.849 109.435-.327.09-1.853.553c-1.638.488-3.276.975-4.91 1.478l-.006.002h-.003c-1.348.41-2.695.82-4.049 1.247v.332h1.148c1.013-.27 2.026-.54 3.039-.821 1.413-.376 2.825-.769 4.236-1.161.852-.237 1.704-.474 2.556-.708l.444-.129a2.016 2.016 0 0 0-.275-.895v.012ZM34.801 121.955l-.39.229-.003.001-.003.002c-.626.366-1.249.73-1.872 1.102a526.414 526.414 0 0 0-3.793 2.251v.692c1.345-.737 2.69-1.48 4.03-2.229.866-.478 1.733-.956 2.594-1.44a4.247 4.247 0 0 0-.563-.613v.005ZM19.292 131.296l-.253.158c.096-.051.191-.101.293-.158h-.04ZM19.281 139.006c2.11-1.407 4.22-2.825 6.325-4.26v-.523a788.942 788.942 0 0 0-6.325 4.783ZM37.069 125.782l-.614.445c-1.254.91-2.51 1.821-3.759 2.745-1.266.929-2.526 1.857-3.787 2.791h1.041c1.008-.697 2.02-1.401 3.033-2.104 1.241-.858 2.474-1.724 3.71-2.592l.764-.537-.383-.748h-.005ZM37.44 140.491c-1.604 1.835-3.202 3.681-4.8 5.526l-6.702 7.783c-.807.955-1.617 1.906-2.426 2.857l-.001.001a649.319 649.319 0 0 0-4.23 5.003 612.2 612.2 0 0 0 4.623-5.01l.002-.002.003-.003v-.001c.757-.826 1.514-1.651 2.271-2.474l6.848-7.574c1.222-1.348 2.44-2.707 3.656-4.065l.003-.002.003-.004.885-.988v-1.047h-.135ZM32.629 151.791l-6.702 8.739c-.814 1.082-1.632 2.16-2.45 3.239-1.402 1.851-2.806 3.703-4.196 5.573 1.556-1.872 3.095-3.768 4.633-5.662.758-.935 1.517-1.87 2.277-2.801l6.854-8.537c1.514-1.89 3.028-3.787 4.53-5.689v-1.266c-1.654 2.127-3.303 4.26-4.946 6.398v.006ZM26.135 140.491l-.18.164c-.807.727-1.616 1.451-2.426 2.174l-.001.002c-1.42 1.269-2.839 2.538-4.247 3.828 1.47-1.173 2.929-2.366 4.388-3.559.83-.679 1.661-1.359 2.494-2.035l.692-.568h-.714l-.006-.006ZM39.607 129.546c-.141-.157-.282-.32-.422-.489l-1.562 1.353-.008.007-1.553 1.346h1.243c.816-.686 1.632-1.378 2.448-2.07l-.024-.025-.023-.024-.026-.027-.035-.036-.015-.017-.023-.023v.005ZM32.64 140.491l-6.696 6.854c-.773.806-1.548 1.609-2.323 2.412v.001a509.202 509.202 0 0 0-4.346 4.537c1.424-1.33 2.835-2.682 4.247-4.034l.002-.002c.88-.843 1.76-1.687 2.645-2.525l6.842-6.646c.101-.101.204-.201.306-.3l.002-.002c.102-.1.205-.199.306-.3h-.985v.005ZM42.24 131.415a7.766 7.766 0 0 1-.422-.197c-.123.119-.243.24-.362.361l-.004.004-.18.18H42.5l.18-.18a3.732 3.732 0 0 1-.439-.174v.006ZM48.396 131.769h.912c.096-.129.197-.259.304-.383-.405.152-.81.282-1.216.383ZM35.516 89.655a792.819 792.819 0 0 0-16.207-3.197 756.87 756.87 0 0 0 16.055 3.895c1.388.328 2.779.645 4.17.962h.002l.004.002h.002c.714.163 1.427.325 2.14.49l.26.06v-.003l4.626 1.014v.007l5.376 1.146c-.099-.12-.184-.216-.267-.308a4.836 4.836 0 0 1-.576-.753l-4.399-.956v-.001h-.005.005l-.001.01-5.193-1.106a770.654 770.654 0 0 0-5.987-1.257l-.005-.005ZM41.959 95.608l-1.636-.165c-1.582-.16-3.162-.32-4.74-.47a776.05 776.05 0 0 0-16.133-1.419 772.95 772.95 0 0 0 16.054 2.127c1.877.239 3.75.457 5.626.675l.67.078v.002l8.2.908-.005.009 1.637.186 6.258.69-2.178-1.153-3.979-.444-1.067-.116v-.003l-8.707-.905ZM41.178 87.04l2.031.683-.002.006 4.457 1.453.002-.004 1.526.454a8.728 8.728 0 0 1-.339-1.016l-.81-.244.004-.01-4.574-1.456-.002.003c-.951-.303-1.903-.61-2.855-.916l-.007-.002a644.302 644.302 0 0 0-5.155-1.643 821.74 821.74 0 0 0-16.274-4.98 822.815 822.815 0 0 0 16.049 5.656c1.974.683 3.954 1.347 5.934 2.011l.003.001h.001l.006.003.005.002ZM41.455 81.637l-.009-.004c-2.018-.866-4.04-1.734-6.065-2.586a882.204 882.204 0 0 0-16.342-6.77 861.6 861.6 0 0 0 16.055 7.418c2.152.979 4.313 1.94 6.471 2.9l.006.004 1.592.708 5.08 2.108-.003-.025c-.03-.21-.053-.361-.053-.899l-4.675-1.972c-.686-.293-1.371-.588-2.057-.882ZM43.72 78.248c-.803-.43-1.605-.863-2.408-1.295h-.001l-.004-.002c-1.891-1.019-3.785-2.039-5.684-3.041a931.689 931.689 0 0 0-16.297-8.492 971.547 971.547 0 0 0 15.953 9.116c2.093 1.18 4.197 2.344 6.3 3.51l1.73.958 5.037 2.763c.04-.31.096-.624.163-.928l-4.783-2.594-.006.005ZM35.645 68.716l-8.131-5.166c-1.002-.622-2.002-1.247-3.001-1.871l-.002-.001c-1.723-1.077-3.445-2.154-5.18-3.215 1.771 1.24 3.555 2.459 5.337 3.676.869.594 1.737 1.187 2.604 1.782l7.99 5.38c4.626 3.106 9.274 6.173 13.928 9.223.107-.281.23-.557.36-.838-4.62-3.011-9.246-6.01-13.905-8.97ZM35.668 63.527l-8.143-6.038c-.871-.634-1.741-1.27-2.611-1.906a645.33 645.33 0 0 0-5.582-4.053 571.967 571.967 0 0 0 5.386 4.298c.848.671 1.696 1.342 2.543 2.016l7.985 6.24a1842.879 1842.879 0 0 0 15.311 11.79c.124-.192.253-.383.389-.569.022-.028.043-.058.064-.087.021-.03.043-.06.065-.087a1719.905 1719.905 0 0 0-15.402-11.598l-.005-.006ZM51.88 72.39c-5.386-4.642-10.765-9.279-16.196-13.87l-8.142-6.883a1379.57 1379.57 0 0 1-2.619-2.179c-1.857-1.548-3.715-3.097-5.591-4.624 1.67 1.534 3.36 3.05 5.05 4.567.957.858 1.914 1.717 2.867 2.58l7.98 7.067c5.317 4.71 10.686 9.375 16.054 14.029l.855.737c.203-.22.411-.439.63-.653l-.444-.388-.444-.388v.005ZM51.897 68.918l-.025-.024C46.5 63.68 41.123 58.46 35.702 53.303l-8.149-7.755c-.986-.921-1.97-1.846-2.953-2.771a658.131 658.131 0 0 0-5.263-4.916 706.917 706.917 0 0 0 4.938 5.01c.99.997 1.981 1.996 2.969 2.998l7.973 7.94c4.786 4.76 9.613 9.48 14.44 14.2l1.61 1.573c.883.856 1.766 1.711 2.65 2.572.236-.197.472-.383.72-.557l-1.365-1.334c-.454-.444-.908-.889-1.364-1.333l-.011-.012ZM51.913 65.536l-.83-.894c-5.109-5.492-10.214-10.982-15.37-16.426l-8.154-8.61c-.99-1.027-1.977-2.056-2.963-3.086-1.75-1.825-3.497-3.65-5.264-5.456a835.88 835.88 0 0 0 5.036 5.65c.956 1.066 1.912 2.133 2.864 3.202l7.968 8.778c5.069 5.589 10.188 11.127 15.31 16.667l.001.001.738.799c1.463 1.581 2.932 3.157 4.401 4.733.253-.164.506-.321.77-.468a1234.232 1234.232 0 0 0-4.507-4.884v-.006ZM51.93 61.293c-5.38-6.5-10.765-13.004-16.2-19.459l-8.16-9.678c-.958-1.119-1.912-2.24-2.866-3.36a883.676 883.676 0 0 0-5.367-6.263c1.669 2.126 3.358 4.236 5.047 6.346.949 1.185 1.898 2.37 2.843 3.558l7.962 9.848c5.01 6.188 10.07 12.336 15.129 18.482l.915 1.112c2.166 2.616 4.338 5.239 6.51 7.855.26-.13.512-.247.777-.36l.025-.011a.187.187 0 0 1 .026-.011c-2.212-2.69-4.423-5.374-6.64-8.059ZM55.042 61.316c-4.862-6.505-9.73-13.005-14.653-19.47l-7.383-9.69c-.874-1.13-1.746-2.262-2.618-3.393l-.001-.002v-.001c-1.608-2.087-3.214-4.173-4.837-6.244 1.526 2.156 3.073 4.297 4.62 6.438.832 1.15 1.664 2.302 2.493 3.455l7.186 9.842c4.794 6.556 9.64 13.072 14.49 19.588 1.767 2.364 3.534 4.727 5.306 7.085a21.1 21.1 0 0 1 .839-.287 6171.182 6171.182 0 0 0-5.442-7.321ZM58.154 61.338c-4.344-6.505-8.694-13.01-13.095-19.481l-6.606-9.701c-.615-.89-1.228-1.782-1.842-2.673-1.604-2.331-3.21-4.662-4.837-6.978 1.343 2.129 2.705 4.243 4.067 6.36l.002.002c.754 1.171 1.51 2.344 2.261 3.52l6.41 9.83c4.014 6.162 8.083 12.289 12.151 18.414l.78 1.175a4137.612 4137.612 0 0 0 4.316 6.454c.276-.079.557-.146.839-.208-1.48-2.234-2.966-4.474-4.452-6.708l.006-.006ZM61.266 61.36a2610.453 2610.453 0 0 0-11.541-19.492l-5.83-9.712c-.674-1.103-1.345-2.207-2.015-3.31-1.29-2.124-2.581-4.247-3.888-6.358 1.243 2.242 2.507 4.476 3.771 6.71.595 1.05 1.19 2.103 1.783 3.154l5.633 9.826c3.383 5.905 6.817 11.782 10.252 17.661l1.126 1.927.8 1.36a2347.08 2347.08 0 0 0 2.728 4.628c.276-.051.557-.09.844-.13-1.215-2.088-2.436-4.175-3.657-6.263h-.006ZM49.336 32.161c-.587-1.108-1.17-2.217-1.754-3.326a762.094 762.094 0 0 0-3.372-6.358c1 2.1 2.018 4.188 3.036 6.278.581 1.192 1.163 2.385 1.741 3.58l2.358 4.767v-1.07l-2.009-3.865v-.006ZM64.378 61.378c-3.309-6.505-6.623-13.016-9.989-19.499l-.63-1.215h-.647l.732 1.48c3.11 6.29 6.271 12.553 9.435 18.821l.384.762a2740.89 2740.89 0 0 0 2.91 5.706c.275-.028.55-.045.832-.062l-.76-1.508v-.002c-.754-1.496-1.51-2.994-2.267-4.489v.006ZM54.783 32.161c-.468-1.044-.934-2.088-1.4-3.132v-.001a787.407 787.407 0 0 0-2.955-6.568c.799 2.005 1.616 4.003 2.434 6v.002c.525 1.28 1.048 2.559 1.567 3.84l1.137 2.735.258-.501-1.046-2.375h.005ZM67.495 61.4a2484.811 2484.811 0 0 0-8.435-19.51l-.535-1.22h-.618l.602 1.446c2.294 5.523 4.632 11.027 6.97 16.53l.002.006.002.005 1.292 3.042c.805 1.879 1.61 3.753 2.42 5.627h.112c.237 0 .473 0 .704.011-.493-1.164-.987-2.326-1.482-3.487l-.005-.012-1.034-2.432.005-.006ZM60.23 32.161a1596.4 1596.4 0 0 1-1.155-3.154c-.801-2.191-1.602-4.382-2.423-6.564.684 2.133 1.387 4.261 2.09 6.39l.002.005c.378 1.144.757 2.29 1.132 3.436l.692 2.048h.44l-.778-2.16ZM70.607 61.423c-2.273-6.517-4.547-13.027-6.882-19.521l-.41-1.137h-.141c-.158 0-.304-.005-.45-.017l.45 1.334a2586.993 2586.993 0 0 0 6.713 19.572c.67 1.924 1.345 3.854 2.02 5.779.27.022.535.045.805.078-.556-1.617-1.115-3.23-1.674-4.845l-.43-1.243ZM65.672 32.161c-.327-1.136-.65-2.273-.974-3.409-.6-2.11-1.2-4.22-1.823-6.326.54 2.23 1.1 4.456 1.66 6.68v.003l.002.003v.002c.263 1.044.526 2.088.786 3.131l.535 2.077h.422l-.602-2.16h-.006ZM73.72 61.445a2269.693 2269.693 0 0 0-5.33-19.526l-.349-1.244h-.563l.355 1.384c1.642 6.376 3.338 12.736 5.035 19.101l.125.471c.279 1.03.556 2.06.833 3.09.277 1.03.554 2.059.833 3.089l.248.046c.182.034.362.067.54.106-.475-1.797-.954-3.59-1.433-5.385l-.3-1.126.005-.006ZM70.38 28.591h-.001v-.002c-.422-2.06-.844-4.12-1.285-6.18.365 2.264.755 4.523 1.145 6.781v.001c.174 1.009.348 2.018.52 3.026l.377 2.105h.411l-.428-2.16h-.005c-.247-1.185-.49-2.37-.732-3.556v-.002l-.003-.011v-.002ZM76.83 61.468v-.006c-1.238-6.514-2.475-13.029-3.77-19.538l-.252-1.255h-.546l.242 1.345c1.164 6.534 2.38 13.05 3.601 19.572l.598 3.14.002.01v.002c.237 1.244.473 2.488.711 3.73.017.009.035.014.05.019l.012.004c.242.073.473.146.704.23-.317-1.72-.639-3.441-.96-5.16l-.391-2.093ZM80.297 80.28l-.45.095h.467l-.017-.095ZM60.244 79.805a8.248 8.248 0 0 0-.401.637c.832.716 1.665 1.43 2.503 2.14V81.5c-.44-.389-.882-.775-1.325-1.162l-.016-.014-.696-.608a1.03 1.03 0 0 0-.065.088ZM59.38 81.473a7.465 7.465 0 0 0-.252.895c1.066.807 2.137 1.61 3.209 2.412l.006.005.003.002v-1.024l-1.483-1.142c-.493-.382-.987-.763-1.482-1.143v-.005ZM58.83 83.91c-.017.314-.09.579-.13.714a.86.86 0 0 0-.044.174c.238.155 1.126.698 1.978 1.22.763.466 1.497.916 1.712 1.054v-.98c-.205-.137-1.043-.653-1.855-1.152-.745-.459-1.47-.904-1.66-1.03ZM61.553 78.367c-.214.18-.416.37-.608.58.495.477.99.956 1.491 1.428h1.16l-.799-.788-.016-.016c-.407-.403-.814-.806-1.222-1.204h-.006ZM62.881 77.427c-.242.146-.478.292-.698.45.777.838 1.559 1.666 2.347 2.498h1.046c-.894-.984-1.789-1.97-2.69-2.948h-.005ZM64.535 76.65c-.247.09-.495.191-.731.304-.006 0-.01.003-.014.006s-.009.005-.014.005c.95 1.137 1.907 2.274 2.864 3.41h.923c-1.007-1.243-2.015-2.487-3.028-3.725ZM66.077 76.2c-.275.062-.54.13-.804.208a669.576 669.576 0 0 0 3.016 3.973h.855a1144.92 1144.92 0 0 0-3.067-4.181ZM67.81 75.93l.83 1.265c.697 1.062 1.392 2.122 2.085 3.186h-.787c-.99-1.446-1.97-2.898-2.95-4.35.275-.045.543-.078.823-.1ZM69.724 75.874l-.017-.001a9.823 9.823 0 0 0-.394-.01c-.146 0-.287 0-.428.005.895 1.508 1.79 3.01 2.696 4.513h.742c-.86-1.508-1.727-3.01-2.594-4.507h-.005ZM71.783 76.087c-.281-.05-.562-.095-.85-.129.76 1.474 1.526 2.949 2.29 4.423h.699c-.71-1.435-1.418-2.864-2.133-4.294h-.006ZM73.972 76.69a15.239 15.239 0 0 0-.855-.287l.505 1.158c.41.942.819 1.882 1.234 2.82h.653a1032.39 1032.39 0 0 0-1.542-3.692h.005ZM76.313 78.029a3.19 3.19 0 0 0-.258-.208 7.53 7.53 0 0 0-.642-.434c.354 1.002.709 1.998 1.07 3h.624l-.397-1.176-.397-1.177v-.005ZM81.873 79.948h-.005.005ZM81.868 79.949c.016.14.033.28.044.426h-.568l-.006-.055-.02-.18-.008-.074.558-.117ZM132.327 68.44l.053.01c.124.025.251.05.369.08a622.968 622.968 0 0 0 4.507-3.106 910.308 910.308 0 0 0-4.935 3.016h.006ZM120.498 75.857c-.503.32-1.007.644-1.511.967h-.001l-.004.002c-.741.475-1.483.95-2.226 1.422l-1.322.856v.67h.489l1.182-.772c.794-.526 1.588-1.05 2.383-1.575.795-.525 1.59-1.05 2.383-1.576h-1.367l-.006.006ZM103.2 87.055c-.084.056-.174.118-.259.169v.973l.608-.388 1.126-.731v-.99l-1.475.967ZM91.085 95.124v.574l.315-.197c.274-.17.55-.343.822-.517v-.625c-.383.253-.76.507-1.137.765ZM130.352 45.548l-6.854 7.755a1915.882 1915.882 0 0 0-12.92 14.816h1.091a2012.04 2012.04 0 0 0 12.245-14.316l6.702-7.94c.867-1.047 1.738-2.09 2.608-3.135 1.35-1.618 2.7-3.237 4.038-4.872-1.554 1.7-3.089 3.418-4.625 5.135l-.002.003-.003.003c-.759.85-1.519 1.699-2.28 2.546v.005ZM102.941 76.999v1.193l.009-.01.002-.002c.576-.66 1.152-1.32 1.723-1.98v-1.221c-.58.67-1.16 1.345-1.734 2.02ZM91.09 90.972v.692l1.137-1.289v-.748l-1.137 1.345ZM130.363 51.643l-6.848 6.882a1253.16 1253.16 0 0 0-9.443 9.6h1.137c2.909-3.01 5.807-6.027 8.694-9.066l6.708-7.067c.828-.892 1.66-1.78 2.492-2.668l.003-.003.003-.003.001-.001.001-.001.001-.001c1.39-1.484 2.781-2.969 4.156-4.47-1.545 1.496-3.074 3.011-4.604 4.527l-.003.003c-.765.758-1.531 1.517-2.298 2.273v-.005ZM102.941 80.719l.012-.012c.576-.587 1.151-1.174 1.722-1.76v-1.154c-.58.596-1.16 1.198-1.734 1.795v1.13ZM91.09 92.682l1.137-1.148v-.709l-1.137 1.199v.658ZM130.369 57.49l-6.843 6.037a974.35 974.35 0 0 0-5.166 4.592h1.148a954.723 954.723 0 0 0 4.378-4.034l6.708-6.241c.741-.702 1.483-1.4 2.226-2.1a503.24 503.24 0 0 0 4.442-4.214c-1.579 1.34-3.144 2.702-4.709 4.063-.728.633-1.456 1.266-2.184 1.896ZM102.941 82.08v1.07l.004-.003c.578-.517 1.157-1.034 1.73-1.55v-1.098l-.598.545-.002.001c-.379.345-.758.689-1.134 1.035ZM91.09 93.042v.62l1.137-1.002v-.676l-1.137 1.058ZM130.38 63.55l-6.044 4.57h1.007l5.245-4.193c.734-.6 1.469-1.198 2.205-1.795 1.493-1.213 2.988-2.427 4.469-3.663a381.623 381.623 0 0 0-4.411 3.252h-.001c-.823.613-1.645 1.226-2.47 1.835v-.006ZM115.434 75.851v.118a5.197 5.197 0 0 1 .146-.118h-.146ZM102.941 84.652v1.013c.522-.395 1.043-.799 1.56-1.2l.174-.134v-1.04c-.58.45-1.16.905-1.734 1.361ZM91.09 94.083v.586l1.137-.861v-.636l-1.137.911ZM130.037 88.113c-2.127.5-4.255 1.013-6.376 1.542-1.642.399-3.281.813-4.919 1.227l-1.873.472-1.379.355h3.337l1.417-.384c1.182-.32 2.364-.639 3.546-.972 2.195-.603 4.39-1.222 6.579-1.852a1.895 1.895 0 0 0-.327-.388h-.005ZM103.307 94.9l-.079.021c-.096.026-.188.052-.281.074v.872l.259-.065c.086-.02.172-.042.259-.064l1.215-.315v-.89l-1.373.366ZM91.096 98.276v.512c.377-.085.76-.175 1.137-.27v-.563c-.267.07-.53.146-.793.222l-.344.099ZM129.119 76.504a1.31 1.31 0 0 0-.118-.079 761.131 761.131 0 0 0-5.222 2.617c-.489.242-.968.484-1.452.731h1.542c.051-.028.101-.056.152-.078a493.117 493.117 0 0 0 5.391-2.921 2.222 2.222 0 0 0-.287-.27h-.006ZM103.33 89.604l-.087.047-.102.054-.188.102v.928c.137-.074.276-.143.415-.212l.002-.001.16-.08.087-.044 1.069-.552v-.945l-1.356.709v-.006ZM91.096 96.171v.546c.377-.186.76-.377 1.137-.568v-.597c-.383.202-.759.41-1.136.618l-.001.001ZM116.255 87.184l-.815.316v.917l1.688-.67c.274-.108.546-.217.817-.326l.009-.004.581-.233h-2.28ZM103.318 92.249c-.123.05-.247.101-.371.146v.895c.197-.079.394-.152.591-.225l1.142-.445v-.917l-1.362.54v.006ZM91.096 97.223v.524c.377-.141.76-.282 1.137-.417v-.58c-.383.153-.76.31-1.137.473ZM125.18 31.942l-6.032 9.735c-4.024 6.488-7.985 13.016-11.941 19.543a7813.826 7813.826 0 0 0-4.254 7.051v1.626c.832-1.37 1.665-2.739 2.498-4.107l2.499-4.108.001-.002c3.944-6.538 7.888-13.077 11.771-19.649l5.83-9.864c.677-1.169 1.356-2.335 2.036-3.502l.001-.002c1.241-2.13 2.483-4.26 3.708-6.406-1.377 2.146-2.728 4.302-4.08 6.458-.676 1.078-1.352 2.156-2.031 3.232l-.006-.005ZM91.096 88.197v.934l1.137-1.84v-1.018l-1.137 1.924ZM119.739 31.97l-5.256 9.74a2312.479 2312.479 0 0 0-11.743 22.128l-.005.01a1828.02 1828.02 0 0 0-2.236 4.271h.923l.804-1.519c.87-1.645 1.743-3.294 2.612-4.946a2502.718 2502.718 0 0 0 10.219-19.64l5.048-9.853c.582-1.161 1.168-2.321 1.754-3.481l.001-.002.002-.002.001-.003.001-.001c1.076-2.131 2.154-4.263 3.209-6.404-1.18 2.11-2.341 4.232-3.502 6.354-.61 1.115-1.22 2.23-1.832 3.342v.006ZM91.096 86.312v1.092l1.137-2.11v-1.21l-1.137 2.228ZM114.297 31.992l-4.479 9.747c-2.981 6.49-5.905 13.013-8.829 19.536l-.006.013a3700.024 3700.024 0 0 0-3.033 6.826h.861c.973-2.156 1.947-4.322 2.915-6.483 2.909-6.539 5.813-13.066 8.66-19.628l4.271-9.842 1.189-2.785.004-.008.004-.01a748.466 748.466 0 0 0 2.996-7.073 612.329 612.329 0 0 0-3.045 6.469c-.504 1.08-1.007 2.16-1.513 3.238h.005ZM91.096 83.735v1.345l1.137-2.476v-1.491l-1.137 2.622ZM108.856 32.02l-3.697 9.752c-2.391 6.304-4.729 12.635-7.065 18.96l-.217.59c-.827 2.262-1.654 4.53-2.476 6.792h.816c.633-1.706 1.263-3.415 1.893-5.122l.51-1.383c2.391-6.534 4.777-13.061 7.113-19.617l3.494-9.83c.394-1.14.791-2.278 1.189-3.417v-.001l.002-.006.001-.001v-.001l.001-.002v-.002l.001-.001c.747-2.142 1.495-4.285 2.222-6.434a695.129 695.129 0 0 0-2.526 6.48c-.418 1.081-.836 2.163-1.256 3.243h-.005ZM90.972 80.364h.124v1.424l.242-.63.45-1.193.45-1.193v-1.93c-.307.846-.61 1.689-.912 2.533v.004l-.354.985ZM103.414 32.048l-.681 2.268h.45l.597-2.155c.33-1.235.663-2.468.996-3.7.553-2.049 1.106-4.096 1.643-6.148-.626 1.978-1.233 3.963-1.841 5.948-.386 1.262-.772 2.526-1.164 3.787ZM100.809 40.76l-.315 1.046c-1.899 6.343-3.744 12.707-5.587 19.066l-.142.489c-.28.984-.562 1.969-.844 2.953l-.003.01a2333.13 2333.13 0 0 0-1.083 3.795h.776c.493-1.688.983-3.377 1.472-5.063l.425-1.464c1.874-6.528 3.736-13.061 5.554-19.606l.349-1.249c-.18.023-.372.028-.563.028h-.034l-.005-.005ZM89.38 80.364h.63c.748-2.504 1.491-5.02 2.223-7.53v-2.616c-.963 3.377-1.92 6.758-2.853 10.146ZM130.357 39.6l-6.859 8.61c-4.284 5.38-8.527 10.806-12.773 16.233l-.001.001-.001.001-.001.002-.848 1.084c-.664.86-1.333 1.722-2.003 2.583h1.035l.768-.982c.256-.328.512-.656.769-.982 4.513-5.808 9.02-11.61 13.488-17.467l6.702-8.779c.749-.998 1.5-1.995 2.251-2.992a873.309 873.309 0 0 0 4.389-5.86 688.853 688.853 0 0 0-4.501 5.55l-.001.002-.004.005c-.802.996-1.605 1.992-2.41 2.986v.005ZM102.953 74.467v1.249c.579-.731 1.159-1.469 1.733-2.206v-1.283c-.58.743-1.159 1.491-1.733 2.24ZM130.622 31.913l-6.809 9.73c-4.536 6.483-9.021 13.016-13.5 19.544l-1.578 2.315-.004.005c-1.05 1.539-2.1 3.078-3.145 4.618h1.064c.925-1.343 1.849-2.687 2.773-4.033l.001-.002 1.643-2.392h.001c4.462-6.539 8.924-13.078 13.324-19.656l6.601-9.875c.76-1.158 1.524-2.314 2.288-3.47 1.418-2.148 2.837-4.295 4.234-6.457-1.48 2.043-2.937 4.1-4.395 6.156-.831 1.173-1.662 2.347-2.498 3.517ZM102.953 71.99v1.486l.505-.73c.411-.593.821-1.184 1.228-1.78v-1.53c-.58.85-1.159 1.7-1.733 2.555ZM91.102 89.638v1.03l1.136-1.43v-1.305l-1.136 1.705ZM97.984 32.077l-.507 2.29c.141.034.27.073.4.13l.461-2.33c.218-1.151.439-2.302.66-3.453v-.003l.001-.005v-.001a659.57 659.57 0 0 0 1.202-6.37c-.48 2.048-.942 4.098-1.406 6.147v.005l-.001.001v.001c-.271 1.198-.542 2.396-.816 3.593l.006-.005ZM96.07 40.765l-.236 1.08c-1.43 6.511-2.802 13.039-4.17 19.56l-.344 1.666a2175.165 2175.165 0 0 0-3.527 17.304h.602c1.233-5.617 2.42-11.248 3.606-16.876l.406-1.924.44-2.128a2077.74 2077.74 0 0 0 3.561-17.466l.242-1.216c-.107.011-.214.011-.326.011-.079 0-.163 0-.242-.005l-.011-.006ZM67.906 91.523c-1.025-.577-2.474-1.404-3.985-2.266a759.9 759.9 0 0 0-5.58-3.164c-.05.208-.107.433-.17.664.06.071.775.533 1.453.971v.001c.604.39 1.178.762 1.237.823 1.795.968 3.59 1.93 5.39 2.892.687.169 1.407.287 2.162.366l-.507-.287ZM67.929 89.801a351.396 351.396 0 0 0-3.017-2.014h-1.435c1.357.872 2.707 1.738 4.069 2.6l2.386 1.519.253.002.092.002h.085l.088.001c.202 0 .4 0 .596-.011l-3.117-2.099ZM67.764 87.933l-.13-.1-.066-.052h-1.181l1.107.828.03.022 4.332 3.218c.27-.022.54-.05.805-.084l-4.721-3.686h.011l-.187-.145ZM69.504 87.78h-1.001l4.63 3.912c.22-.034.44-.073.654-.118l-4.283-3.793ZM71.091 87.78h-.872l3.91 3.72c.192-.044.378-.09.558-.14l-3.596-3.58ZM72.335 87.78h-.771l3.337 3.518c.169-.05.332-.101.49-.152l-3.056-3.365ZM75.976 90.724 73.59 87.78h-.676l2.724 3.23s.022.028.034.04c.006 0 .01-.002.014-.004l.003-.001.003-.002c.005-.003.008-.005.014-.005.135-.05.27-.101.399-.152l-.124-.157-.005-.006ZM74.586 87.78h-.63l2.312 3.034c.102-.04.2-.084.296-.126l.11-.049-2.088-2.858ZM75.593 87.78h-.585l1.88 2.764c.085-.041.172-.085.256-.128h.001l.125-.063-1.677-2.566v-.006ZM76.6 87.78h-.546l1.463 2.437c.077-.041.15-.085.224-.128l.068-.04a8.17 8.17 0 0 1 .069-.04l-1.272-2.222-.006-.006ZM77.602 87.78h-.512l1.063 2.038c.118-.073.237-.152.344-.236l-.895-1.801ZM78.615 87.78h-.003l-.003-.005.006.006ZM78.612 87.78h-.487l.687 1.56c.118-.096.225-.192.326-.287l-.526-1.272ZM79.628 87.78h-.462l.332.93c.113-.124.214-.248.315-.372l-.185-.551v-.006ZM103.138 97.57l-.18.025v.855l.439-.05 1.294-.164v-.878l-1.378.186h.005l-.18.026ZM51.053 131.296c-.054.079-.109.157-.164.234-.055.077-.11.155-.163.233h1.002l.073-.104c.084-.119.17-.241.253-.363h-1.002ZM32.668 157.412l-6.702 9.674c-.775 1.138-1.553 2.274-2.332 3.41v.001l-.001.001c-1.441 2.103-2.882 4.206-4.307 6.329a730.893 730.893 0 0 0 4.28-5.81c.877-1.2 1.755-2.399 2.636-3.594l6.86-9.476c1.513-2.093 3.021-4.192 4.524-6.291v-1.339c-1.66 2.357-3.309 4.726-4.952 7.101l-.006-.006ZM52.628 131.763h1.024c.096-.151.191-.309.287-.466l-1.018-.001c-.102.158-.197.31-.293.467ZM32.212 164.739l-6.6 10.866c-.762 1.277-1.526 2.551-2.291 3.825-1.418 2.361-2.835 4.722-4.231 7.098 1.572-2.393 3.124-4.805 4.676-7.217.737-1.143 1.473-2.288 2.212-3.43l6.814-10.709a1317.25 1317.25 0 0 0 4.828-7.647v-1.626a1942.78 1942.78 0 0 0-5.407 8.84ZM54.93 131.763h.956c.085-.151.17-.309.253-.467h-.95c-.09.158-.175.31-.26.467ZM37.755 163.119c-.298.545-.59 1.086-.878 1.631l-5.824 10.855c-.678 1.289-1.359 2.575-2.04 3.862-1.24 2.343-2.481 4.686-3.705 7.044 1.339-2.295 2.654-4.604 3.969-6.911v-.001c.713-1.252 1.426-2.503 2.142-3.752l6.032-10.714.566-1.007c.188-.336.377-.673.566-1.007h-.828ZM50.107 140.486l-.003.005h-.002l.005-.005ZM50.104 140.491h1.01l-1.721 3.14-.49.889-.49.89v-1.857c.085-.147.158-.282.237-.428.244-.439.486-.879.728-1.32.241-.438.482-.877.726-1.314ZM57.237 131.763h.889l.22-.467h-.884c-.079.158-.152.31-.225.467ZM41.548 164.762 36.5 175.605c-.579 1.271-1.162 2.539-1.745 3.808l-.001.003c-1.083 2.356-2.166 4.712-3.222 7.078a892.604 892.604 0 0 0 3.505-7.002v-.001c.61-1.225 1.218-2.449 1.83-3.672l5.255-10.72.004-.008.001-.002.001-.003c.319-.654.638-1.308.956-1.967h-.77c-.195.409-.386.822-.576 1.233v.002l-.002.002-.001.002-.002.005-.185.399ZM52.404 141.814l-.001.003c-.212.443-.425.886-.636 1.33l-1.674 3.515-.016.033-1.658 3.481v1.93c.68-1.421 1.363-2.841 2.045-4.262l2.046-4.263c.245-.518.49-1.034.737-1.551.246-.516.492-1.032.737-1.55h-.95l.005.006c-.21.443-.423.886-.635 1.328ZM60.557 131.296h-.833a5.512 5.512 0 0 1-.057.141l-.038.092-.096.234h.821v.04l.077-.186c.043-.104.087-.209.126-.315v-.006ZM46.871 163.119v.002c-.22.551-.439 1.101-.652 1.652l-4.271 10.832c-.397 1.027-.796 2.053-1.194 3.079v.001a910.334 910.334 0 0 0-2.999 7.792c1.027-2.365 2.035-4.741 3.042-7.117v-.002l.002-.003c.504-1.188 1.008-2.377 1.514-3.564l4.48-10.725.4-.965.004-.012.4-.965h-.72l-.006-.005ZM55.97 140.486l-.545 1.342c-.182.447-.363.895-.546 1.342-2.16 5.34-4.316 10.68-6.454 16.038v1.907a2800.343 2800.343 0 0 0 7.71-18.834l.001-.005c.242-.595.484-1.192.724-1.79h-.89ZM62.465 131.296h-.473l-1.638 4.845v2.465c.59-1.773.957-2.911 1.357-4.149.291-.903.6-1.859 1.025-3.155h-.271v-.006ZM58.897 140.486a2944.36 2944.36 0 0 0-6.995 21.158l2.116-4.13c1.581-4.665 3.151-9.341 4.716-14.012.332-1.007.664-2.009 1.001-3.016h-.838ZM51.418 163.119a81.061 81.061 0 0 0-.54 1.665l-3.495 10.821c-.402 1.28-.807 2.559-1.213 3.838l-.002.005a792.025 792.025 0 0 0-2.2 7.012c.834-2.313 1.65-4.636 2.465-6.958.438-1.247.876-2.494 1.316-3.739l3.703-10.731c.22-.636.439-1.272.653-1.908h-.681l-.006-.005ZM123.582 100.273a517.236 517.236 0 0 0-4.824-.055l-1.929-.018-6.752-.022-6.753.028h-.034v.861h.034l6.753.028 6.752-.028 1.926-.018h.001c1.607-.013 3.214-.027 4.826-.055 4.502-.057 9.004-.175 13.506-.355-4.497-.18-8.998-.298-13.506-.36v-.006ZM115.985 105.024l-.011-.001-.002-.001h-.003c-.978-.126-1.955-.253-2.932-.382l-8.047-1.002-1.694-.197v.997l1.598.202 8.053.951 2.379.267.011.002c1.888.213 3.776.426 5.668.62a679.463 679.463 0 0 0 16.133 1.559 741.343 741.343 0 0 0-16.054-2.341h-.006c-1.695-.235-3.393-.454-5.09-.674h-.003ZM52.803 126.018l.416.788c.034-.04.062-.079.096-.124l1.907-3.72a422.45 422.45 0 0 0-2.42 3.05v.006ZM51.84 124.2l.417.788c1.559-1.772 3.112-3.551 4.66-5.329l1.372-2.678a1119.328 1119.328 0 0 0-5.681 6.351l-.768.863v.005ZM59.82 113.447c-3.01 2.926-6.005 5.88-8.993 8.84l.422.794c2.713-2.724 5.425-5.453 8.126-8.205l1.013-1.986-.568.551v.006ZM59.837 111.522c-4.418 3.68-8.807 7.411-13.19 11.153l.45.816.624-.537c4.154-3.575 8.31-7.152 12.436-10.79l1.103-.974.76-1.491-2.183 1.818v.005ZM65.74 125.692a3075.005 3075.005 0 0 0-4.648 17.529l-.254.979 1.632-3.185c1.328-5.104 2.656-10.208 3.95-15.323h-.68ZM55.96 163.124l-.423 1.677-2.718 10.81c-.312 1.285-.628 2.569-.943 3.853l-.001.004a796.874 796.874 0 0 0-1.695 6.981 809.74 809.74 0 0 0 1.829-6.505v-.001c.39-1.403.78-2.805 1.176-4.208l2.92-10.743.254-.934.253-.934h-.653ZM59.853 109.592a782.026 782.026 0 0 0-4.443 3.111l-2.365 1.661-6.793 4.823-1.102.793c.028.045.05.09.073.141l.377.675 1.018-.726 6.77-4.873 1.86-1.351a695.718 695.718 0 0 0 4.887-3.567 456.51 456.51 0 0 0 2.555-1.88l.613-1.199a806.527 806.527 0 0 0-3.455 2.392h.005ZM54.998 110.384l-.001.001-2.014 1.132-2.403 1.361a7.668 7.668 0 0 1-.574 1.39l3.264-1.885c.788-.463 1.577-.924 2.365-1.384l.006-.004.004-.002a903.673 903.673 0 0 0 8.193-4.839l.49-.957c-1.509.827-3.011 1.655-4.514 2.493h.006c-1.611.889-3.216 1.792-4.822 2.694ZM59.87 105.726c-1.571.646-3.14 1.305-4.71 1.965l-2.104.883-2.1.894c.018.231.023.467.023.704 0 .101 0 .202-.005.309l2.307-1.007c.781-.347 1.564-.692 2.347-1.037 1.478-.651 2.957-1.302 4.428-1.968a546.79 546.79 0 0 0 4.721-2.133l.4-.776c-1.773.714-3.54 1.44-5.307 2.172v-.006ZM55 105.114h-.003l-1.862.517-2.837.804c.119.293.22.602.304.906l2.684-.782 1.962-.585.009-.002c1.601-.477 3.203-.954 4.8-1.444a485.98 485.98 0 0 0 5.491-1.7l.332-.647a748.365 748.365 0 0 0-5.953 1.581c-1.643.44-3.283.895-4.922 1.35l-.005.002ZM55.219 102.425c-.669.09-1.337.18-2.006.268l-4.94.692c.281.276.54.569.776.878l4.243-.63c.827-.13 1.654-.258 2.482-.385h.002c1.425-.219 2.851-.438 4.274-.673 2.049-.326 4.097-.664 6.145-1.019l.282-.557c-2.167.254-4.328.518-6.488.799v.006c-1.59.194-3.176.407-4.762.62h-.001l-.007.001ZM59.78 100.2l-8.035-.028-8.03.023-2.066.016c1.103.192 2.122.473 3.04.85l7.056.023 8.035-.028c.884-.009 1.769-.016 2.653-.024h.027c1.343-.011 2.685-.021 4.022-.038l.377-.732a711.82 711.82 0 0 0-5.661-.052l-1.418-.01ZM69.56 115.782l-.399 2.015h.512l.642-3.568-.749 1.553h-.005ZM67.591 125.686c-.563 2.864-1.12 5.729-1.671 8.598l1.159-2.262c.394-2.11.782-4.22 1.165-6.336h-.653ZM60.512 163.119l-.102.562c-.07.375-.138.751-.202 1.126l-1.941 10.798c-.223 1.3-.45 2.599-.677 3.897v.004c-.403 2.305-.805 4.609-1.186 6.915.49-2.283.959-4.573 1.428-6.862l.006-.031c.262-1.278.523-2.556.789-3.833l2.144-10.753c.124-.608.247-1.216.365-1.829h-.624v.006ZM71.097 112.608l-.659 5.189h.496l.675-6.241-.507 1.052h-.005ZM69.442 125.686c-.253 2.026-.5 4.046-.748 6.072h.698c.236-2.02.461-4.046.68-6.072h-.63ZM65.683 157.508c-.275 2.437-.546 4.868-.81 7.304L63.708 175.6c-.13 1.293-.262 2.586-.395 3.879a774.972 774.972 0 0 0-.69 6.919c.328-2.322.635-4.645.943-6.969.166-1.257.332-2.515.502-3.773l1.368-10.754c.298-2.331.586-4.667.873-6.999l.05-.4h-.676v.005ZM72.346 110.037l-.225.467-.034.489-.371 6.804h.484l.247-6.781.012-.363c.004-.121.008-.242.01-.363l-.123-.253ZM70.298 146.484c-.05 1.053-.096 2.094-.135 3.14h.714l.075-1.598c.05-1.067.1-2.134.145-3.196l-.8 1.66v-.006ZM71.288 125.686c-.107 2.026-.208 4.046-.304 6.072h.681c.09-2.02.169-4.046.248-6.072h-.625ZM69.825 157.508c-.101 2.442-.197 4.879-.281 7.321l-.389 10.776c-.03 1.056-.063 2.109-.095 3.163v.017c-.033 1.053-.065 2.107-.096 3.162h.002l.002-.001.007-.004.175-.27c.05-.809.097-1.618.145-2.427.072-1.203.143-2.405.22-3.606l.591-10.765c.135-2.453.26-4.907.383-7.366h-.664ZM73.258 111.922l-.389-.799.118 6.674h.485l-.214-5.875ZM74.968 125.68v.006c.18 1.946.362 3.892.546 5.833h-.002l.027.269h.686l-.003-.036h.001l-.022-.218-.002-.015-.035-.338c-.188-1.83-.377-3.666-.571-5.501h-.625ZM87.773 163.125l.62.002c.06.263.123.527.185.791l.188.804 2.521 10.782h-.005c.267 1.178.536 2.355.805 3.532l.002.007c.553 2.421 1.107 4.842 1.64 7.271a814.021 814.021 0 0 1-1.82-6.956c-.325-1.253-.649-2.505-.976-3.758l-2.724-10.731a354.193 354.193 0 0 0-.3-1.196l-.088-.354-.048-.194ZM78.724 157.525h-.576l.838 8.27-.005.002.086.799.046.454.003-.004.928 8.554.642 5.621.038.01.017.004c.046.01.091.021.136.037-.079-.951-.159-1.901-.24-2.85-.08-.95-.16-1.899-.238-2.85l-.827-9.243.006-.009-.854-8.795ZM73.964 157.514h-.002a.12.12 0 0 1 0 .006l.002-.006ZM73.962 157.525h.658c.045 2.005.085 4.01.124 6.016v.073l.011.61c.004.204.009.408.011.611l.192 10.77-.006.012c.017 1.84.04 3.686.068 5.531h-.192a910.09 910.09 0 0 0-.23-5.537l-.389-10.765c-.09-2.444-.168-4.882-.247-7.321ZM92.296 163.14l.653.002c.079.252.156.505.234.757v.005l.005.012.133.435.105.338 3.297 10.793v-.006c.359 1.203.72 2.404 1.08 3.606.722 2.404 1.443 4.807 2.145 7.215-.8-2.338-1.581-4.688-2.362-7.038l-.002-.007v-.001c-.405-1.216-.809-2.432-1.215-3.646l-3.495-10.72-.432-1.33-.012.004-.134-.419ZM91.696 159.128l-1.889-3.76-2.637-8.235-.002-.002-1.181-3.73-.305-.968c-1.17-3.711-2.34-7.419-3.494-11.137h.743c1.033 3.204 2.05 6.411 3.069 9.619l.707 2.227H86.7l1.188 3.771h.007l3.8 12.215ZM101.368 163.129h.715l.673 1.492 4.856 10.804c.545 1.239 1.093 2.476 1.641 3.713l.002.004c1.051 2.374 2.103 4.748 3.135 7.133a853.824 853.824 0 0 1-3.599-7.468c-.509-1.064-1.018-2.128-1.528-3.19l-5.059-10.703c-.249-.529-.494-1.052-.742-1.584l-.001-.002-.093-.199ZM96.832 163.129h.675c.197.51.387 1.015.578 1.526l4.08 10.798v.006c.444 1.205.892 2.408 1.339 3.612.894 2.407 1.788 4.814 2.662 7.226-.956-2.312-1.896-4.631-2.836-6.951-.504-1.243-1.007-2.486-1.514-3.729l-4.277-10.709-.196-.495-.167-.418-.344-.866ZM102.85 157.423v-1.49l.125.237v-.063c.011.022.024.045.037.067l.036.068-.021.026 3.084 5.82.004-.005c.215.414.432.827.648 1.24l.001.002.008.014.649 1.243 5.627 10.81v-.006c.558 1.089 1.118 2.177 1.677 3.264l.002.003a968.8 968.8 0 0 1 3.881 7.599c-1.264-2.245-2.512-4.506-3.76-6.767-.714-1.292-1.427-2.585-2.143-3.874l-5.83-10.692c-.217-.396-.433-.795-.65-1.193l-.65-1.193.01-.006-2.735-5.104ZM92.234 135.902v1.717l-.052-.097v.021a3303.352 3303.352 0 0 1-3.303-6.247h.883l.952 1.775.002.002.965 1.799.003-.009.55 1.039ZM107.905 152.846l9.82 14.271-.001.003 5.875 8.485c.893 1.27 1.783 2.542 2.673 3.815l.002.002a845.303 845.303 0 0 0 4.781 6.791c-1.521-2.364-3.064-4.714-4.606-7.064l-.012-.018-.002-.002c-.832-1.268-1.664-2.535-2.493-3.805l-5.449-8.212.011-.002-9.587-14.264h-1.012ZM103.636 144.99h-.647l.028-.025h-.076v-1.024c.231.343.462.686.693 1.024h-.015l.017.025ZM74.344 114.178l-.512-1.063.416 4.676h.49l-.394-3.613ZM85.84 175.538l-1.739-10.782-.133-.812-.137-.831h-.602c.101.584.208 1.163.315 1.741v.003l1.947 10.748c.173.916.344 1.832.515 2.748v.001l.61 3.256c.068.039.13.078.192.123l-.524-3.353-.001-.007-.443-2.83v-.005ZM75.97 117.527l-.737-1.52.287 1.784h.495l-.05-.264h.005ZM79.284 125.68h-.647c1.092 4.62 2.2 9.235 3.32 13.849l1.475 2.932-.177-.72a3311.353 3311.353 0 0 0-3.97-16.061ZM90.657 106.278v.484l-1.086-.017a1888.078 1888.078 0 0 1 2.977 1.114v-.917c-.63-.225-1.26-.445-1.89-.664ZM82.38 103.43l-.008-.002-.004-.002c-1.105-.375-2.21-.751-3.314-1.116l.259.507c1.052.411 2.104.821 3.156 1.227l-.09-.614ZM89.098 107.679c-.703-.327-1.4-.653-2.11-.985l-1.643-.028a1548.454 1548.454 0 0 0 5.914 2.941l.028.014h.001l.004.002 1.256.622v-.951a889.881 889.881 0 0 0-3.45-1.615ZM82.56 104.651a296.448 296.448 0 0 0-3.017-1.367l.304.602c.929.476 1.857.945 2.786 1.415l.012.006.005.003-.09-.653v-.006ZM89.053 109.581a748.46 748.46 0 0 0-5.047-2.938l-1.16-.022-.1-.715-.006.006c-.878-.507-1.75-1.007-2.628-1.508l.371.737.002.001.004.003c.786.494 1.572.988 2.358 1.476h-.006a816.609 816.609 0 0 0 5.875 3.641c1.277.793 2.555 1.575 3.832 2.358v-.991a442.698 442.698 0 0 0-3.495-2.054v.006ZM89.076 111.517l-8.131-5.684a1.595 1.595 0 0 0-.07-.048c-.038-.027-.075-.053-.11-.081l.466.928 7.468 5.526c1.283.951 2.566 1.897 3.855 2.836v-1.035a613.4 613.4 0 0 0-3.472-2.448l-.006.006ZM89.098 113.441l-7.534-6.15.568 1.136 6.544 5.633c.883.76 1.769 1.516 2.653 2.272l1.219 1.043v-1.092a549.572 549.572 0 0 0-3.455-2.836l.005-.006ZM89.115 115.298l-6.623-6.156.715 1.424 5.447 5.317c1.263 1.231 2.521 2.451 3.785 3.676v.001l.001.001.108.104v-1.154a891.966 891.966 0 0 0-3.438-3.213h.005ZM89.132 117.234l-5.43-5.684.923 1.835 4.017 4.4c1.3 1.424 2.606 2.848 3.912 4.266v-1.216c-1.132-1.204-2.274-2.402-3.416-3.601h-.006ZM89.143 119.119l-3.933-4.564 1.215 2.426 2.2 2.667.004.004.006.008c1.302 1.577 2.605 3.155 3.913 4.726v-1.277a1205.65 1205.65 0 0 0-3.405-3.979v-.011ZM89.155 121.482l-1.334-1.744 1.812 3.613c.968 1.316 1.941 2.633 2.915 3.95v-1.362c-.878-1.163-1.763-2.319-2.646-3.474l-.747-.977v-.006ZM91.715 127.487l.01.02-.01-.015v-.005ZM91.725 127.507c.196.283.39.569.583.853v.001l.143.21.097.143v.438l-.823-1.645ZM89.819 143.102l-.78-1.998c-1.275-3.271-2.549-6.539-3.835-9.808h-.776c1.002 2.62 2.013 5.238 3.025 7.856l.005.014.002.004.004.011.004.011c.546 1.412 1.092 2.824 1.636 4.237a2339.78 2339.78 0 0 0 3.073 7.867v-2.094l-.987-2.556-.003-.008c-.455-1.178-.91-2.356-1.363-3.536h-.005ZM103.856 122.023l-.549-.394v.788h1.097c-.182-.133-.365-.263-.548-.394ZM87.483 131.296h-.827c1.835 4.03 3.68 8.047 5.526 12.065v-1.924a3395.214 3395.214 0 0 0-4.699-10.141ZM92.041 131.296h-.945l.543.904.543.903v-1.345h.14l-.28-.467v.005ZM112.086 164.537c-.372-.631-.749-1.261-1.126-1.891l-.01.007-5.677-9.517h.004c-.022-.034-.042-.069-.063-.105-.034-.057-.068-.115-.106-.171v-.006h-.968l.119.196.101.165-.008.003 6.009 9.757-.02.008.6.974.599.973 1.463 2.37.007-.025 2.623 4.26.001-.002 2.518 4.072c.81 1.288 1.618 2.578 2.425 3.868 1.413 2.258 2.826 4.515 4.254 6.757a897.88 897.88 0 0 0-4.32-7.43 1943.57 1943.57 0 0 1-2.016-3.448v.006l-2.454-4.154.006-.005-2.82-4.728.001-.004-1.142-1.93ZM121.236 111.556c-1.827-.476-3.659-.933-5.489-1.39l-.005-.002-.01-.002c-.849-.212-1.697-.424-2.543-.637l-8.059-1.976-1.812-.433v1.013l1.615.4 8.07 1.924a835.5 835.5 0 0 1 3.131.728l.01.002.003.001.007.002c1.643.384 3.285.768 4.93 1.135a696.015 696.015 0 0 0 16.206 3.517 706.19 706.19 0 0 0-16.054-4.282ZM90.668 104.139v.85l1.891.473v-.889l-.26-.061c-.542-.126-1.083-.252-1.63-.373ZM79.756 101.707l-.001-.001-1.112-.24.22.434.01.003c1.145.308 2.29.617 3.433.92l-.084-.58h-.006c-.818-.182-1.638-.359-2.46-.536ZM105.237 119.175l-1.919-1.148v1.131l1.486.901 3.939 2.352h1.846l-5.346-3.236h-.006ZM121.314 128.967a19.02 19.02 0 0 0-.461-.282v.901l.03.017.026.016.056.034A900.954 900.954 0 0 0 137.262 139a943.579 943.579 0 0 0-15.953-10.033h.005ZM114.95 115.022l-1.638-.607-8.075-2.955-1.919-.692v1.047l1.638.602 8.092 2.904c1.08.378 2.16.759 3.241 1.141 1.62.573 3.241 1.145 4.862 1.706a767.483 767.483 0 0 0 16.274 5.475 805.14 805.14 0 0 0-16.049-6.223h-.005a835.819 835.819 0 0 0-6.421-2.398ZM113.431 119.305l-8.087-3.928-2.026-.968v1.08l1.666.811 8.103 3.877 1.871.883c.951.45 1.902.9 2.851 1.345h1.924c-1.224-.607-2.45-1.208-3.676-1.809l-.002-.002-.017-.008c-.87-.427-1.739-.853-2.607-1.281ZM121.5 123.283l-.641-.321v.873l.178.083.001.001.181.084a867.016 867.016 0 0 0 16.341 7.445 860.814 860.814 0 0 0-16.054-8.159l-.006-.006ZM94.332 131.291h-1.013c.076.125.16.247.244.372l.065.095h1.025c-.107-.152-.215-.31-.321-.467ZM109.036 139.765c1.626 1.734 3.252 3.467 4.884 5.2h.36c.287 0 .552-.017.816-.034a1071.027 1071.027 0 0 0-3.85-4.161l-.002-.002-.931-1.003h-1.277ZM101.124 131.291l.433.467h1.289c-.147-.152-.293-.31-.434-.467h-1.288ZM130.447 161.723c-.107.084-.213.169-.326.248l1.633 1.688.012.012c1.831 1.895 3.662 3.79 5.507 5.666-1.847-2.097-3.714-4.163-5.584-6.233l-1.242-1.375v-.006ZM116.678 131.291h-1.503l.329.233c.11.078.22.155.329.234h.434c.371 0 .731.011 1.08.028l-.335-.245-.334-.245v-.005ZM129.333 140.643l-.315-.236c.028.214.051.422.068.641h.005c.892.611 1.782 1.224 2.672 1.837l.002.001.005.004h.001c1.831 1.261 3.66 2.521 5.502 3.758-1.819-1.4-3.653-2.779-5.484-4.156-.82-.616-1.639-1.231-2.456-1.849ZM110.566 131.291h-1.468c.185.151.37.308.555.466l.002.001h1.457c-.18-.152-.366-.31-.546-.467ZM129.344 147.334l-1.277-1.097c-.056.107-.112.214-.18.315l-.084.135 1.277 1.041c.822.659 1.643 1.32 2.463 1.982 1.906 1.534 3.811 3.069 5.73 4.579a563.074 563.074 0 0 0-5.265-4.624c-.888-.774-1.777-1.548-2.664-2.325v-.006ZM114.956 139.788a7.686 7.686 0 0 0-.636-.023h-.676l1.089 1.025c1.061.999 2.123 2 3.188 2.993.008-.007.015-.016.023-.025l.022-.031c.152-.214.253-.456.31-.737-1.054-1.022-2.108-2.038-3.167-3.059l-.015-.015-.002-.001-.001-.002-.002-.002-.001-.001-.002-.002-.125-.12h-.005ZM106.081 131.291h-1.384s.023.022.028.034l.237.225.219.208h1.39c-.163-.152-.326-.31-.49-.467ZM129.361 153.789 125 149.534c-.152.096-.309.197-.472.299a.473.473 0 0 1-.046.028l-.022.011 4.052 3.765.422.394.135.129c.951.867 1.901 1.738 2.85 2.609l.002.001.013.012c1.775 1.628 3.552 3.258 5.345 4.868-1.714-1.737-3.448-3.446-5.182-5.157l-.006-.005-.002-.003c-.91-.897-1.82-1.795-2.728-2.696ZM106.689 139.765h-1.238l.018.021a2931.61 2931.61 0 0 0 4.377 5.179h1.204a1965.732 1965.732 0 0 0-4.361-5.2ZM99.531 131.291h-1.187l.194.233c.065.078.13.155.194.234h1.193l-.394-.467ZM129.378 167.08l-2.864-3.478c-.208.051-.416.096-.625.136l3.163 3.68c.977 1.116 1.952 2.236 2.928 3.356l.001.002c1.76 2.021 3.521 4.044 5.298 6.045-1.65-2.066-3.318-4.111-4.986-6.158l-.01-.012-.001-.001c-.968-1.188-1.938-2.377-2.904-3.57ZM103.881 140.908l-.002-.004-.853-1.133h-.079v1.458l.857 1.147.003.004.004.005.003.005c.288.383.575.767.861 1.151l.324.43c.252.333.502.665.75 1h1.182l-.774-1.036-.773-1.035h-.006c-.495-.662-.991-1.322-1.488-1.98l-.009-.012ZM96.628 131.296H95.53l.35.467h1.102l-.192-.254-.08-.105a19.137 19.137 0 0 1-.082-.108ZM129.384 175.302l-7.963-10.833c-.113-.155-.228-.309-.342-.464l-.002-.002-.002-.003a61.047 61.047 0 0 1-.532-.724 7.87 7.87 0 0 1-1.654-.934c.664.872 1.328 1.744 1.998 2.617l8.159 10.652c.95 1.221 1.897 2.444 2.845 3.667l.003.004c1.79 2.312 3.581 4.624 5.391 6.92-1.669-2.34-3.359-4.663-5.049-6.987l-.004-.005-.001-.002c-.947-1.301-1.893-2.602-2.836-3.906h-.011ZM86.392 78.997c-.051.456-.107.917-.163 1.367h.585l.068-.5c.047-.334.093-.668.134-1.002l-.63.13.006.005ZM84.664 79.362c-.017.333-.028.67-.04 1.008h.575l.067-1.131-.602.123ZM83.567 79.593l-.006.001h.006Z"
    fill="var(--theme-1, currentColor)"
  />
  <path
    d="m83.561 79.594-.574.123.011.326c.005.109.009.217.012.327h.568c0-.173-.005-.346-.01-.518v-.003l-.007-.255ZM92.576 32.105l-.31 2.217h.411l.26-2.16c.126-1.156.257-2.31.388-3.466v-.005l.001-.005c.24-2.112.478-4.224.696-6.339-.325 2.091-.63 4.182-.935 6.273-.169 1.162-.338 2.323-.511 3.485ZM91.366 40.743l-.157 1.13a2545.732 2545.732 0 0 0-2.617 19.561l-.067.526c-.569 4.45-1.137 8.895-1.689 13.35.197.383.372.777.507 1.177.675-4.974 1.328-9.955 1.98-14.94.839-6.528 1.666-13.05 2.448-19.589l.141-1.198h-.101c-.152 0-.304-.006-.445-.023v.006ZM87.134 32.133 87 34.322h.406l.084-2.16c.036-1.175.076-2.35.115-3.525v-.016l.001-.01v-.002c.07-2.08.14-4.161.194-6.245a632.4 632.4 0 0 0-.464 6.733v.008c-.067 1.01-.132 2.02-.2 3.028ZM86.544 41.913c-.394 6.522-.732 13.044-1.064 19.56-.186 3.754-.366 7.507-.535 11.26.226.231.44.468.642.71.22-3.973.422-7.94.625-11.919l.078-1.618v-.003c.29-5.981.579-11.964.816-17.956l.05-1.289h-.54l-.072 1.244v.011ZM81.901 28.894v-.002c-.098-2.17-.197-4.342-.32-6.511.01 2.078.037 4.154.063 6.23.016 1.183.031 2.367.043 3.55l.045 2.319c.13-.045.265-.085.4-.124l-.085-2.2.006.005c-.053-1.089-.102-2.178-.152-3.267ZM83.105 61.507c-.202-6.527-.405-13.044-.664-19.566l-.05-1.243a3.214 3.214 0 0 1-.535-.124l.028 1.367c.114 5.98.28 11.958.445 17.937l.045 1.63c.095 3.117.197 6.24.298 9.363.247.157.478.326.708.494-.09-3.285-.179-6.572-.275-9.863v.005ZM76.25 29.271v-.006c-.286-2.292-.572-4.584-.876-6.873.175 2.123.372 4.244.568 6.363v.004c.107 1.142.213 2.284.315 3.425l.208 2.132h.405l-.258-2.16v.005c-.122-.963-.242-1.927-.362-2.89ZM80 61.485c-.721-6.522-1.442-13.039-2.218-19.555l-.152-1.266h-.535l.13 1.317c.635 6.466 1.332 12.922 2.029 19.383l.02.183.001.018.876 7.91c.253.119.5.237.737.36-.292-2.775-.59-5.557-.888-8.339v-.011ZM76.81 125.68h.631c.341 1.893.674 3.79 1.006 5.687v.003l.004.023.312 1.777-.009-.017.003.017-.714-1.418h-.231c-.343-2.02-.68-4.046-1.007-6.072h.005ZM73.129 125.686h.613v.004c.068 2.024.135 4.049.197 6.068h-.68c-.051-2.02-.096-4.046-.13-6.072ZM74.333 145.601l-.765-1.581c.05 1.868.101 3.73.157 5.604h.71l-.102-4.018v-.005Z"
    fill="var(--theme-1, currentColor)"
  />
</svg>
