<svg width="160" height="210" viewBox="0 0 160 210" fill="none" xmlns="http://www.w3.org/2000/svg">
  <path
    d="M6.047.112a2.69 2.69 0 0 0 2.685 2.695A2.69 2.69 0 0 0 11.417.112h6.54a2.69 2.69 0 0 0 2.685 2.695A2.69 2.69 0 0 0 23.327.112h6.536a2.69 2.69 0 0 0 2.685 2.695A2.69 2.69 0 0 0 35.233.113l6.544-.001a2.69 2.69 0 0 0 2.685 2.695A2.69 2.69 0 0 0 47.147.113L53.68.112a2.69 2.69 0 0 0 2.685 2.695A2.69 2.69 0 0 0 59.05.113l6.54-.001a2.69 2.69 0 0 0 2.685 2.695A2.69 2.69 0 0 0 70.96.113L77.5.112a2.69 2.69 0 0 0 2.685 2.695A2.69 2.69 0 0 0 82.87.113l6.54-.001a2.69 2.69 0 0 0 2.685 2.695A2.69 2.69 0 0 0 94.78.113l6.54-.001a2.69 2.69 0 0 0 2.685 2.695A2.69 2.69 0 0 0 106.69.113l6.536-.001a2.69 2.69 0 0 0 2.685 2.695 2.69 2.69 0 0 0 2.685-2.695h6.54a2.69 2.69 0 0 0 2.685 2.695 2.69 2.69 0 0 0 2.686-2.694l6.532-.001a2.69 2.69 0 0 0 2.685 2.695 2.69 2.69 0 0 0 2.685-2.694l6.544-.001a2.69 2.69 0 0 0 2.685 2.695 2.69 2.69 0 0 0 2.685-2.694l5.245-.001v5.936a2.69 2.69 0 0 0-2.676 2.695 2.69 2.69 0 0 0 2.676 2.694V18a2.69 2.69 0 0 0-2.676 2.694 2.69 2.69 0 0 0 2.676 2.695v6.561a2.69 2.69 0 0 0-2.676 2.695 2.69 2.69 0 0 0 2.676 2.695V41.9a2.69 2.69 0 0 0-2.676 2.694 2.69 2.69 0 0 0 2.676 2.695v6.561a2.69 2.69 0 0 0-2.676 2.695 2.69 2.69 0 0 0 2.676 2.695v6.561a2.69 2.69 0 0 0-2.676 2.695 2.69 2.69 0 0 0 2.676 2.695v6.56a2.69 2.69 0 0 0-2.676 2.695 2.69 2.69 0 0 0 2.676 2.695v6.561a2.69 2.69 0 0 0-2.676 2.695 2.69 2.69 0 0 0 2.676 2.695v6.561a2.69 2.69 0 0 0-2.676 2.695 2.69 2.69 0 0 0 2.676 2.695v6.561a2.69 2.69 0 0 0-2.676 2.695 2.689 2.689 0 0 0 2.676 2.694v6.562a2.69 2.69 0 0 0-2.676 2.695 2.689 2.689 0 0 0 2.676 2.694v6.562a2.69 2.69 0 0 0-2.676 2.695 2.689 2.689 0 0 0 2.676 2.694v6.561a2.69 2.69 0 0 0-2.676 2.695 2.69 2.69 0 0 0 2.676 2.695v6.561a2.69 2.69 0 0 0-2.676 2.695 2.69 2.69 0 0 0 2.676 2.695v6.562a2.689 2.689 0 0 0-2.676 2.694 2.69 2.69 0 0 0 2.676 2.695v6.561a2.69 2.69 0 0 0-2.676 2.695 2.69 2.69 0 0 0 2.676 2.695v6.561a2.69 2.69 0 0 0-2.676 2.695 2.69 2.69 0 0 0 2.676 2.695v6.562c-.218 0-.431.027-.635.078h-4.604a2.69 2.69 0 0 0-2.685-2.695 2.69 2.69 0 0 0-2.685 2.695h-6.544a2.69 2.69 0 0 0-2.685-2.695 2.69 2.69 0 0 0-2.685 2.695h-6.536a2.69 2.69 0 0 0-2.685-2.695 2.69 2.69 0 0 0-2.686 2.695h-6.535a2.69 2.69 0 0 0-2.686-2.695 2.69 2.69 0 0 0-2.685 2.695h-6.54a2.69 2.69 0 0 0-2.685-2.695 2.69 2.69 0 0 0-2.685 2.695h-6.536a2.69 2.69 0 0 0-2.685-2.695 2.69 2.69 0 0 0-2.685 2.695h-6.544a2.69 2.69 0 0 0-2.685-2.695 2.69 2.69 0 0 0-2.685 2.695h-6.536a2.69 2.69 0 0 0-2.685-2.695 2.69 2.69 0 0 0-2.686 2.695h-6.54a2.69 2.69 0 0 0-2.684-2.695 2.69 2.69 0 0 0-2.686 2.695h-6.532a2.69 2.69 0 0 0-2.685-2.695 2.69 2.69 0 0 0-2.685 2.695h-6.544a2.69 2.69 0 0 0-2.685-2.695 2.69 2.69 0 0 0-2.685 2.695h-6.54a2.69 2.69 0 0 0-2.685-2.695 2.69 2.69 0 0 0-2.685 2.695h-6.537a2.69 2.69 0 0 0-2.686-2.695 2.69 2.69 0 0 0-2.685 2.695h-4.61a2.68 2.68 0 0 0-.644-.078H.785v-6.562h.012a2.69 2.69 0 0 0 2.685-2.695 2.69 2.69 0 0 0-2.685-2.695H.785V190.7h.012a2.69 2.69 0 0 0 2.685-2.695 2.69 2.69 0 0 0-2.685-2.695H.785v-6.561h.012a2.69 2.69 0 0 0 2.685-2.695 2.69 2.69 0 0 0-2.685-2.694H.785v-6.562h.012a2.69 2.69 0 0 0 2.685-2.695 2.69 2.69 0 0 0-2.685-2.695H.785v-6.561h.012a2.69 2.69 0 0 0 2.685-2.695 2.69 2.69 0 0 0-2.685-2.695H.785v-6.561h.012a2.69 2.69 0 0 0 2.685-2.694 2.69 2.69 0 0 0-2.685-2.695H.785v-6.562h.012a2.69 2.69 0 0 0 2.685-2.694 2.69 2.69 0 0 0-2.685-2.695H.785v-6.562h.012a2.69 2.69 0 0 0 2.685-2.694 2.69 2.69 0 0 0-2.685-2.695H.785v-6.561h.012a2.69 2.69 0 0 0 2.685-2.695 2.69 2.69 0 0 0-2.685-2.695l-.012.001v-6.562h.012a2.69 2.69 0 0 0 2.685-2.695 2.69 2.69 0 0 0-2.685-2.695H.785v-6.561a2.69 2.69 0 0 0 2.697-2.695 2.69 2.69 0 0 0-2.685-2.694H.785V71.19h.012a2.69 2.69 0 0 0 2.685-2.694 2.69 2.69 0 0 0-2.685-2.695H.785v-6.561h.012a2.69 2.69 0 0 0 2.685-2.695A2.69 2.69 0 0 0 .797 53.85H.785V47.29h.012a2.69 2.69 0 0 0 2.685-2.695 2.69 2.69 0 0 0-2.685-2.694H.785v-6.562h.012a2.69 2.69 0 0 0 2.685-2.695A2.69 2.69 0 0 0 .797 29.95H.785v-6.561h.012a2.69 2.69 0 0 0 2.685-2.695A2.69 2.69 0 0 0 .797 18H.785v-6.562h.012a2.69 2.69 0 0 0 2.685-2.694A2.69 2.69 0 0 0 .785 6.048V.112h5.262Z"
    fill="var(--theme-3, currentColor)"
    stroke="var(--panel-overlay)"
    stroke-width="1"
  />
  <path
    d="M34.778 165.114c-.836-.12-1.485-.416-1.94-.905-.455-.489-.682-1.16-.682-2.007 0-.847.216-1.638.648-2.377a5.953 5.953 0 0 1 1.82-1.922c.78-.541 1.695-.927 2.752-1.143.774-.16 1.49-.182 2.133-.074.648.108 1.194.341 1.643.682.444.347.768.779.956 1.302a95.81 95.81 0 0 0-1.922.762 1.713 1.713 0 0 0-.558-.762c-.255-.199-.574-.329-.95-.398-.375-.068-.79-.051-1.245.04a4.66 4.66 0 0 0-1.66.677 3.413 3.413 0 0 0-1.098 1.154c-.256.45-.386.933-.386 1.456 0 .512.142.927.426 1.245.284.319.688.518 1.211.598.523.079 1.132.045 1.826-.091a5.536 5.536 0 0 0 1.45-.495 3.842 3.842 0 0 0 1.092-.808c.29-.318.489-.659.597-1.035.785.04 1.177.069 1.968.131a3.926 3.926 0 0 1-.95 1.706c-.472.512-1.07.944-1.797 1.297-.723.358-1.524.614-2.394.79-1.126.228-2.11.29-2.946.171l.006.006ZM47.321 155.685a73.38 73.38 0 0 1 2.468-.108 826.38 826.38 0 0 1 3.93 7.791c-.887-.011-1.33-.017-2.218-.006-.301-.614-.455-.921-.756-1.535a68.18 68.18 0 0 0-4.447.199c-.302.643-.455.961-.757 1.609-.892.074-1.336.12-2.229.222a679.134 679.134 0 0 1 4.01-8.16v-.012Zm2.912 4.806c-.677-1.382-1.012-2.076-1.689-3.447h-.023c-.676 1.433-1.012 2.15-1.689 3.594a67.852 67.852 0 0 1 3.401-.153v.006ZM57.544 163.516a7.415 7.415 0 0 1-1.723-.706c-.506-.29-.91-.608-1.2-.949.375-.501.557-.751.932-1.246.24.313.575.597.996.853.42.256.904.467 1.444.632.54.164 1.08.267 1.615.301.432.028.808.017 1.132-.034.324-.051.574-.142.75-.279.182-.136.268-.296.268-.478 0-.238-.16-.449-.472-.625-.313-.176-.814-.324-1.49-.449-.648-.137-.973-.205-1.627-.336-1.12-.205-1.933-.478-2.434-.842-.5-.363-.756-.87-.756-1.524 0-.511.176-.955.529-1.33.352-.376.847-.649 1.484-.814.637-.17 1.37-.227 2.207-.176.54.034 1.074.131 1.592.279.517.148.99.347 1.416.586.426.238.773.5 1.04.79-.318.461-.483.694-.801 1.154a4.135 4.135 0 0 0-.876-.676 5.299 5.299 0 0 0-2.383-.711 4.447 4.447 0 0 0-1.092.057c-.324.062-.58.159-.756.29-.176.131-.267.29-.267.472 0 .216.12.398.375.534.256.137.66.256 1.217.364.648.12.972.182 1.627.307 1.245.239 2.15.58 2.712 1.007.563.426.853.978.859 1.643 0 .518-.182.956-.546 1.314-.364.358-.87.614-1.524.773-.654.16-1.41.211-2.27.154a9.958 9.958 0 0 1-1.961-.335h-.017ZM65.474 156.327c3.19.347 4.783.563 7.967 1.012v1.428a226.39 226.39 0 0 0-5.908-.779v1.757c2.19.262 3.281.409 5.465.716v1.274c-2.19-.307-3.282-.455-5.465-.716v1.922c2.405.29 3.61.449 6.016.79v1.439c-3.23-.46-4.85-.677-8.08-1.029v-7.814h.005ZM75.195 157.59c1.149.165 1.717.25 2.866.421 1.246 2.559 1.871 3.838 3.116 6.392h.012c1.24-2.184 1.86-3.276 3.094-5.465 1.154.17 1.734.25 2.888.415v7.813c-.813-.113-1.217-.17-2.03-.29v-5.607h-.023c-1.165 2.07-1.745 3.111-2.911 5.181-.796-.12-1.194-.176-1.985-.296-1.188-2.422-1.785-3.634-2.974-6.056h-.023v5.607c-.813-.12-1.217-.182-2.03-.296v-7.819ZM92.626 160.058c.99.119 1.484.17 2.468.278 1.57 3.293 2.36 4.931 3.93 8.178a97.603 97.603 0 0 1-2.218-.193l-.757-1.621a172.19 172.19 0 0 1-4.447-.495c-.301.58-.455.87-.756 1.456-.893-.114-1.336-.171-2.23-.29 1.605-2.912 2.406-4.368 4.01-7.308v-.005Zm2.912 5.249c-.677-1.468-1.013-2.207-1.69-3.686h-.022c-.677 1.326-1.012 1.985-1.689 3.305 1.36.164 2.041.238 3.4.381ZM102.206 162.475a107.717 107.717 0 0 1-3.304-.216v-1.57c3.497.279 5.243.37 8.741.364v1.57a90.37 90.37 0 0 1-3.293-.051v6.244a93.992 93.992 0 0 1-2.138-.091v-6.244l-.006-.006ZM109.154 161.035c3.19-.056 4.782-.153 7.967-.54v1.428c-2.36.29-3.543.375-5.909.477v1.757a62.998 62.998 0 0 0 5.465-.426v1.274c-2.189.25-3.281.335-5.465.426v1.922c2.406-.102 3.612-.193 6.017-.489v1.439c-3.23.398-4.851.495-8.081.552v-7.814l.006-.006ZM121.466 167.661a5.322 5.322 0 0 1-1.723-.33c-.507-.193-.91-.437-1.2-.733.375-.563.557-.848.932-1.416.239.267.575.489.995.654.421.165.905.267 1.445.295.54.029 1.08-.017 1.615-.136a5.105 5.105 0 0 0 1.132-.381c.324-.154.574-.33.75-.529.182-.193.268-.387.268-.569 0-.238-.16-.398-.472-.466-.313-.068-.814-.057-1.496.023-.648.057-.972.079-1.626.114-1.121.085-1.934-.029-2.44-.296-.506-.267-.756-.728-.756-1.382 0-.512.176-.984.528-1.427.353-.444.848-.808 1.485-1.121.637-.312 1.37-.551 2.206-.733a8.652 8.652 0 0 1 1.592-.199c.518-.017.99.017 1.416.102.427.085.774.222 1.041.404-.318.586-.483.876-.802 1.456a2.642 2.642 0 0 0-.875-.364 4.676 4.676 0 0 0-1.126-.12c-.404 0-.831.057-1.257.154a5.71 5.71 0 0 0-1.092.347c-.324.142-.58.301-.756.472-.177.17-.268.352-.268.534 0 .216.12.37.376.45.256.073.659.096 1.217.056a51.34 51.34 0 0 0 1.626-.159c1.245-.148 2.15-.136 2.713.08.563.216.853.648.858 1.308 0 .517-.182 1.029-.546 1.529-.364.501-.87.944-1.524 1.331a7.605 7.605 0 0 1-2.269.87 7.46 7.46 0 0 1-1.962.182h-.005ZM52.016 174.485a7.04 7.04 0 0 1-1.723-.609c-.506-.261-.91-.551-1.2-.881.376-.523.558-.785.933-1.302.239.301.574.563.995.796.421.233.904.415 1.445.552.54.136 1.08.21 1.615.216.432.005.807-.023 1.131-.091.324-.069.575-.171.751-.319.182-.142.267-.307.267-.489 0-.239-.159-.443-.472-.603-.312-.159-.813-.29-1.49-.375-.648-.102-.972-.154-1.626-.25-1.12-.142-1.934-.37-2.434-.705-.506-.336-.756-.825-.756-1.479 0-.512.176-.967.529-1.359.352-.392.847-.694 1.484-.899.637-.204 1.37-.301 2.206-.29.54.006 1.075.074 1.593.199.517.125.99.302 1.416.518.426.222.773.472 1.04.745-.318.478-.483.711-.802 1.188a3.896 3.896 0 0 0-.875-.637 5.205 5.205 0 0 0-1.126-.437 5.162 5.162 0 0 0-1.257-.16 4.61 4.61 0 0 0-1.092.114c-.324.08-.58.193-.756.33-.177.142-.268.307-.268.483 0 .216.12.393.376.512.256.125.66.222 1.217.296.648.085.972.131 1.626.222 1.246.176 2.15.477 2.713.881.563.404.853.944.858 1.604 0 .517-.181.967-.546 1.336-.363.37-.87.648-1.523.842-.654.187-1.41.273-2.27.261a9.825 9.825 0 0 1-1.962-.233l-.017.023ZM62.444 174.696c-.842-.427-1.495-.967-1.962-1.632a3.81 3.81 0 0 1-.705-2.235c0-.825.239-1.524.71-2.127.473-.603 1.127-1.046 1.963-1.319.836-.273 1.808-.353 2.906-.233 1.103.119 2.075.409 2.911.864.836.455 1.485 1.035 1.957 1.729.466.699.705 1.456.705 2.274 0 .819-.239 1.502-.711 2.076-.472.569-1.126.978-1.956 1.229-.83.25-1.797.312-2.906.193-1.098-.12-2.07-.387-2.912-.813v-.006Zm4.692-.887c.517-.165.921-.427 1.211-.785.29-.364.438-.79.438-1.291 0-.5-.148-.972-.438-1.405-.296-.432-.7-.79-1.211-1.074-.518-.285-1.11-.461-1.786-.535-.682-.074-1.28-.023-1.797.154-.517.17-.921.443-1.211.813-.29.37-.438.807-.438 1.314 0 .506.148.961.438 1.381.29.427.7.774 1.211 1.047.512.273 1.115.443 1.797.517.671.074 1.268.029 1.786-.136Zm-1.502 3.77a2.083 2.083 0 0 1-.819-.728 1.957 1.957 0 0 1-.284-1.04v-.66c.603.062.904.097 1.501.159v.461c0 .25.097.455.29.614.194.159.467.262.82.301.358.04.71.017 1.046-.074a1.97 1.97 0 0 0 .904-.523c.279.393.42.586.705.978a2.33 2.33 0 0 1-.768.569 3.419 3.419 0 0 1-1 .29c-.37.051-.751.051-1.155.006-.478-.057-.893-.171-1.245-.353h.005ZM74.844 176.238c-.71-.398-1.262-.916-1.649-1.541-.386-.632-.574-1.354-.574-2.184v-4.18c.859.119 1.285.182 2.138.301v4.095c0 .512.108.961.319 1.342.21.381.517.688.91.91.397.227.858.381 1.381.455.535.079.996.062 1.382-.046.387-.108.688-.324.904-.642.216-.319.325-.734.325-1.234v-4.106c.852.125 1.279.193 2.132.318v4.18c0 .825-.193 1.501-.58 2.013-.387.518-.938.87-1.65 1.058-.71.188-1.546.21-2.513.068-.972-.142-1.814-.415-2.53-.813l.005.006ZM86.903 170.419c.99.136 1.485.205 2.468.335 1.57 3.333 2.36 4.999 3.93 8.303-.887-.102-1.33-.153-2.218-.267-.301-.66-.455-.984-.756-1.644-1.78-.227-2.667-.352-4.447-.608l-.757 1.439c-.892-.131-1.336-.194-2.229-.324 1.604-2.889 2.406-4.334 4.01-7.234Zm2.912 5.323c-.677-1.49-1.012-2.235-1.689-3.731h-.023l-1.689 3.264c1.36.194 2.042.285 3.401.467ZM102.304 179.898a1.746 1.746 0 0 1-.58-.443 6.752 6.752 0 0 1-.449-.603c-.239-.478-.358-.722-.592-1.2a1.674 1.674 0 0 0-.54-.586 1.497 1.497 0 0 0-.71-.25 93.379 93.379 0 0 1-2.526-.216v2.832c-.858-.08-1.285-.125-2.138-.216v-7.814c2.491.268 3.736.381 6.222.535.659.04 1.217.171 1.677.387.461.216.819.506 1.069.875.251.37.381.802.381 1.297 0 .387-.091.734-.278 1.035-.188.301-.45.546-.785.728-.336.188-.739.296-1.206.33v.011c.148.091.285.199.41.324s.239.279.324.449c.233.433.347.649.58 1.081.08.119.165.216.25.284a.536.536 0 0 0 .319.114.667.667 0 0 0 .335-.097.915.915 0 0 0 .29-.261l.495.949a1.884 1.884 0 0 1-.774.495 2.34 2.34 0 0 1-.961.154 2.019 2.019 0 0 1-.813-.194Zm-1.865-4.35c.324.023.597 0 .83-.08.233-.074.404-.193.529-.352a.982.982 0 0 0 .182-.603c0-.227-.062-.426-.182-.603a1.313 1.313 0 0 0-.529-.432 2.082 2.082 0 0 0-.819-.199 109.106 109.106 0 0 1-3.554-.29v2.275c1.416.13 2.127.193 3.543.284ZM106.279 172.153c3.19.046 4.782.006 7.967-.256v1.428c-2.36.193-3.543.239-5.909.261v1.758c2.19-.017 3.282-.057 5.465-.228v1.274c-2.189.165-3.281.205-5.465.227v1.923c2.406-.023 3.612-.069 6.017-.268v1.439c-3.23.267-4.845.307-8.081.262v-7.814l.006-.006ZM20.574 129.262c4.1-1.962 6.153-2.712 10.265-3.844-.017-4.748-.04-9.497-.057-14.245l-.034.011c-.694 1.228-1.678 2.366-2.946 3.48-1.274 1.109-2.912 2.32-4.925 3.748-.546-1.82-.819-2.73-1.364-4.538 2.297-1.644 4.248-3.111 5.84-4.55 1.592-1.438 2.883-2.991 3.867-4.742 2.644-.649 3.97-.882 6.614-1.206.011 6.853.034 13.699.05 20.552 3.06-.466 4.596-.597 7.655-.694.006 1.843.012 2.77.012 4.641-8.951.699-16.668 2.593-24.971 6.096v-4.709h-.006ZM57.072 117.776c2.23-3.009 4.999-5.579 8.28-7.916-5.96-1.001-11.93-1.9-17.981-2.025-.006-1.945-.012-2.928-.012-4.913 8.758.5 17.294 1.928 25.938 3.338.017 1.746.028 2.61.062 4.339-3.332 2.4-6.068 5.084-8.206 8.121a29.076 29.076 0 0 0-4.572 10.139c-3.321-.534-4.987-.722-8.32-.915.984-3.771 2.582-7.171 4.811-10.174v.006ZM87.613 123.446a38.095 38.095 0 0 1 7.922-8.462c-5.915-.961-11.823-1.99-17.726-3.02-.034-1.984-.046-2.98-.051-4.976 8.581 1.416 17.151 2.861 25.761 4.078.028 1.763.057 2.661.125 4.475-3.361 2.73-5.977 5.704-7.984 9.054-2.008 3.355-3.401 6.932-4.288 10.731a378.424 378.424 0 0 1-8.343-1.82c.973-3.645 2.48-6.978 4.59-10.066l-.006.006ZM117.374 138.653c-1.996-.512-3.77-1.286-5.328-2.27a16.667 16.667 0 0 1-3.964-3.451 129.091 129.091 0 0 0 3.27-3.879 12.606 12.606 0 0 0 3.133 3.077 12.395 12.395 0 0 0 4.169 1.848c1.541.37 3.201.489 4.987.301 1.882-.193 3.537-.796 4.976-1.757a9.993 9.993 0 0 0 3.332-3.702c.785-1.49 1.172-3.15 1.16-4.964-1.217 1.558-2.513 2.752-3.889 3.582-1.377.825-3.139 1.416-5.289 1.666-2.684.319-5.027.023-7.052-.727-2.024-.751-3.594-1.894-4.714-3.333a8.31 8.31 0 0 1-1.786-4.919c-.062-1.854.512-3.458 1.74-4.879 1.223-1.422 2.952-2.525 5.175-3.429 2.224-.905 4.749-1.542 7.564-1.996 3.133-.507 5.806-.706 8.018-.444 2.212.262 3.913 1.035 5.113 2.474 1.194 1.438 1.78 3.628 1.791 6.625.011 3.588-.569 6.921-1.774 9.838-1.206 2.917-2.997 5.414-5.369 7.307-2.371 1.894-5.277 3.123-8.712 3.481-2.371.244-4.549.062-6.545-.449h-.006Zm11.681-15.525c1.154-.677 2.053-1.485 2.701-2.389.648-.904.967-1.854.961-2.832 0-.978-.335-1.751-.995-2.349-.66-.597-1.587-.949-2.781-1.103-1.194-.153-2.553-.091-4.066.148-1.462.233-2.77.603-3.907 1.137-1.143.541-2.019 1.189-2.639 1.985-.619.796-.915 1.649-.892 2.582.022.933.369 1.751 1.023 2.445.66.694 1.57 1.223 2.741 1.541 1.166.319 2.474.393 3.919.182 1.467-.216 2.78-.671 3.935-1.347ZM23.15 93.209v2.587h-1.228v-6.835h1.228v2.576h4.885v1.678H23.15v-.006ZM21.808 87.096l.114-1.66 2.315.159.278-4.01-2.314-.159.113-1.66 6.102.42-.113 1.661-2.6-.176-.278 4.009 2.599.176-.114 1.66-6.102-.42ZM22.758 77.15l1.421-6.073 1.086.256-1.052 4.498 1.337.313.972-4.163.973.228-.973 4.162 1.462.342 1.074-4.584 1.098.256-1.439 6.159-5.954-1.393h-.006ZM32.263 66.27c-.523.473-1.08.763-1.672.865-.591.102-1.188.006-1.785-.284-.592-.29-1.03-.694-1.308-1.212-.285-.517-.41-1.109-.376-1.768.035-.66.228-1.365.598-2.104a5.006 5.006 0 0 1 .972-1.382 3.57 3.57 0 0 1 1.228-.825c.444-.17.887-.227 1.342-.17l-.324 1.512c-.273-.034-.534 0-.796.097-.261.096-.5.25-.728.472a2.837 2.837 0 0 0-.574.802c-.216.443-.336.864-.353 1.273-.017.41.063.768.245 1.081.182.313.455.557.819.74.358.176.728.233 1.097.17.375-.063.722-.245 1.047-.54.324-.296.602-.688.847-1.178.182-.37.301-.733.347-1.091a2.244 2.244 0 0 0-.063-.984 1.646 1.646 0 0 0-.455-.745l.956-1.24c.37.324.63.728.784 1.217.154.49.188 1.024.103 1.615a5.994 5.994 0 0 1-.58 1.803c-.393.79-.848 1.421-1.365 1.9l-.006-.023ZM31.115 55.96l3.65-5.055.905.654-2.707 3.748 1.115.807 2.507-3.469.808.586-2.508 3.47 1.217.88 2.758-3.815.91.66-3.702 5.123-4.959-3.582.006-.006ZM44.877 49.199c-.188.074-.37.102-.551.091a5.31 5.31 0 0 1-.57-.068l-.971-.319a1.203 1.203 0 0 0-.603-.005 1.097 1.097 0 0 0-.507.284l-1.398 1.393 1.563 1.57-1.188 1.183-4.316-4.334 3.452-3.44c.364-.364.727-.62 1.091-.768.364-.148.711-.193 1.052-.13.336.056.643.227.922.5.216.216.352.46.42.733.069.273.063.558-.01.859a2.38 2.38 0 0 1-.456.881h.006c.125-.028.256-.05.392-.05.137 0 .279.016.421.062l.904.261a.85.85 0 0 0 .29.012.42.42 0 0 0 .233-.12.521.521 0 0 0 .126-.244.73.73 0 0 0 .011-.313l.79.245c.012.233-.034.472-.142.716-.108.245-.25.46-.426.637-.17.17-.347.29-.535.364Zm-3.372-1.32c.176-.176.307-.352.387-.528a.852.852 0 0 0 .08-.506.82.82 0 0 0-.24-.438.787.787 0 0 0-.426-.228.972.972 0 0 0-.512.069 1.62 1.62 0 0 0-.534.37l-1.974 1.967 1.257 1.257 1.968-1.957-.006-.005ZM43.695 42.05l5.067-3.633.654.91-3.753 2.695.801 1.115 3.475-2.497.58.808-3.474 2.496.875 1.223 3.828-2.747.653.916-5.135 3.685-3.565-4.97h-.006ZM50.898 36.995l2.024-.96 4.191 3.144h.006l.205-5.232 2.041-.967 2.622 5.528-1.439.682-1.882-3.969h-.017l-.176 4.948-1.405.665-3.986-2.969h-.017l1.882 3.975-1.439.683-2.622-5.528h.012ZM65.39 37.36c-.706-.114-1.292-.364-1.77-.757a2.803 2.803 0 0 1-.938-1.53 2.821 2.821 0 0 1 .137-1.785c.238-.574.648-1.07 1.217-1.49.568-.42 1.273-.734 2.11-.933.841-.204 1.609-.25 2.308-.136.7.114 1.285.37 1.758.768.471.398.784.91.938 1.53a2.8 2.8 0 0 1-.137 1.78c-.244.568-.648 1.063-1.211 1.484-.563.42-1.268.733-2.11.938-.836.205-1.603.25-2.309.136l.006-.005Zm3.314-1.917c.353-.267.603-.574.751-.932.148-.359.176-.728.085-1.104a1.7 1.7 0 0 0-.585-.944c-.296-.244-.66-.403-1.092-.483-.432-.08-.904-.051-1.416.074-.518.125-.95.324-1.303.586-.352.267-.602.574-.75.927a1.757 1.757 0 0 0-.085 1.108c.09.382.284.694.58.945.295.25.66.409 1.097.483.432.074.91.051 1.428-.08.511-.125.944-.318 1.296-.585l-.005.005ZM73.05 29.71l2.048-.108 4.094 4.294h.012l-.245-4.504 1.587-.085.33 6.107-2.03.108-4.112-4.322h-.012l.245 4.533-1.587.085-.33-6.108ZM85.35 33.668l-2.542-4.305 1.826.21 1.689 3.015h.011l2.263-2.56 1.843.211-3.424 3.622-.244 2.116-1.666-.188.244-2.115v-.006ZM95.902 37.774c-.523-.489-.87-1.023-1.04-1.615a2.772 2.772 0 0 1 .08-1.791 2.805 2.805 0 0 1 1.108-1.405c.518-.34 1.138-.529 1.843-.557.71-.028 1.467.108 2.274.404.814.301 1.473.694 1.991 1.177.517.483.858 1.024 1.035 1.615.17.591.148 1.194-.08 1.791a2.767 2.767 0 0 1-1.109 1.4c-.517.335-1.131.523-1.837.55-.705.035-1.461-.102-2.274-.397-.808-.296-1.468-.688-1.99-1.177v.005Zm3.816.262a2.226 2.226 0 0 0 1.143-.358c.324-.216.552-.5.688-.87.137-.37.154-.74.046-1.11a2.296 2.296 0 0 0-.637-1.012c-.319-.307-.722-.545-1.217-.727-.5-.183-.967-.268-1.41-.24-.444.03-.82.143-1.144.353-.324.21-.551.5-.688.87a1.707 1.707 0 0 0-.04 1.104c.109.37.32.71.638 1.012.318.301.727.546 1.228.733.495.182.96.262 1.399.24l-.006.005ZM106.448 35.72l5.294 3.06-.614 1.063-3.85-2.229-.734 1.263 3.407 1.967-.529.916-3.407-1.968-1.188 2.053-1.445-.836 3.06-5.294.006.005ZM117.266 44.603l-1.922-1.728.819-.916 5.089 4.567-.818.915-1.917-1.723-3.264 3.64-1.246-1.12 3.265-3.64-.006.005ZM122.838 48.174l1.046 1.297-1.803 1.456 2.525 3.128 1.803-1.456 1.046 1.296-4.76 3.839-1.046-1.297 2.025-1.637-2.525-3.128-2.025 1.632-1.046-1.297 4.76-3.844v.011ZM128.916 56.114l3.088 5.42-.972.551-2.292-4.014-1.194.682 2.121 3.713-.864.495-2.122-3.713-1.308.745 2.332 4.089-.978.557-3.134-5.494 5.312-3.03h.011ZM134.389 66.987l.495 1.593-2.48.773 3.435 2.303.648 2.076-3.429-2.315-2.394 4.174-.614-1.979 1.757-3.02-1.069-.716-1.689.53-.495-1.593 5.841-1.82-.006-.006ZM136.937 75.92l.91 6.171-1.103.165-.677-4.572-1.359.199.625 4.23-.983.149-.626-4.231-1.49.221.688 4.658-1.114.165-.922-6.256 6.051-.892v-.006ZM134.019 87.067l3.986-3.014v1.837l-2.797 2.018v.012l2.797 1.956v1.854l-3.986-2.991h-2.133V87.06h2.133v.006ZM131.871 94.63c.114-.5.279-.95.495-1.348.216-.398.455-.71.717-.938l.995.728c-.239.187-.455.449-.643.779s-.33.705-.438 1.131a5.124 5.124 0 0 0-.159 1.263c0 .335.028.631.091.887.063.25.148.45.267.586.12.142.251.21.393.21.187 0 .341-.125.46-.37.12-.244.205-.636.262-1.165l.182-1.274c.108-.876.301-1.513.569-1.905.273-.392.665-.592 1.171-.592.398 0 .751.137 1.052.416.301.273.529.66.683 1.16.153.5.233 1.075.233 1.729 0 .426-.046.841-.131 1.245-.085.41-.205.773-.364 1.109-.159.33-.341.603-.546.813l-.961-.626c.176-.187.335-.42.466-.688.137-.267.239-.563.313-.881.074-.319.108-.648.102-.984a3.62 3.62 0 0 0-.096-.853c-.063-.256-.148-.455-.256-.591-.108-.142-.233-.21-.376-.21-.17-.007-.307.09-.403.29-.097.198-.177.517-.233.955l-.154 1.273c-.114.973-.318 1.684-.608 2.122-.291.438-.7.665-1.223.67-.404 0-.762-.141-1.069-.426-.307-.284-.546-.682-.711-1.194-.171-.512-.256-1.103-.256-1.774 0-.524.057-1.035.171-1.536l.005-.011ZM62.441 94.653c0-.358.29-.756.643-.876.352-.125.642.069.642.427s-.284.728-.642.853c-.353.125-.637-.046-.643-.404ZM69.413 97.292a4.146 4.146 0 0 1-.961-.313 2.314 2.314 0 0 1-.671-.46c.21-.302.313-.456.517-.751a1.8 1.8 0 0 0 .552.426c.233.125.5.216.808.29.301.074.602.108.898.114.239 0 .45-.011.631-.045a.958.958 0 0 0 .421-.171c.102-.08.148-.17.148-.273 0-.136-.085-.25-.262-.341-.176-.091-.454-.165-.83-.216a58.067 58.067 0 0 0-.904-.137c-.626-.074-1.075-.182-1.36-.358-.284-.176-.42-.444-.42-.808 0-.284.097-.545.296-.773.193-.227.472-.404.824-.529.353-.12.768-.182 1.229-.176.301 0 .597.04.887.114.29.073.551.176.79.301.24.125.432.273.58.432a44.67 44.67 0 0 1-.449.654 2.191 2.191 0 0 0-.49-.364 2.878 2.878 0 0 0-.625-.25 2.626 2.626 0 0 0-.7-.091c-.22 0-.426.023-.608.068a1.076 1.076 0 0 0-.42.194c-.103.08-.148.17-.148.273 0 .119.062.216.21.284.142.068.37.114.677.16.364.045.546.067.904.124.694.103 1.2.285 1.513.518.313.233.477.54.477.91a1 1 0 0 1-.3.733c-.206.2-.484.347-.854.45a4.509 4.509 0 0 1-1.262.13 5.838 5.838 0 0 1-1.092-.12h-.006ZM73.836 93.145c.472.052.71.086 1.183.148v4.356c-.473-.062-.711-.096-1.183-.147v-4.356ZM76.126 93.454c.586.09.876.142 1.462.245 1.098 1.478 1.65 2.229 2.747 3.724h.005V94.21l1.132.216v4.356c-.58-.113-.87-.17-1.45-.278a396.1 396.1 0 0 0-2.764-3.742h-.006v3.23c-.454-.08-.676-.114-1.131-.188v-4.356l.005.006ZM83.942 99.095a3.091 3.091 0 0 1-1.08-.99 2.34 2.34 0 0 1-.382-1.301c0-.472.12-.853.358-1.15.24-.295.58-.5 1.013-.613.432-.114.944-.12 1.535-.029.432.069.83.188 1.189.359.358.17.665.386.915.642s.427.546.535.865c-.427.062-.643.09-1.07.142a1.39 1.39 0 0 0-.312-.518 1.884 1.884 0 0 0-.529-.392 2.305 2.305 0 0 0-.694-.222c-.352-.057-.66-.051-.927.023-.267.068-.472.199-.614.386-.142.188-.216.427-.216.717 0 .284.08.552.239.796.16.245.387.45.677.614.29.16.63.273 1.018.336a2.4 2.4 0 0 0 .807 0c.245-.046.45-.137.609-.267.159-.131.272-.29.335-.484.438.142.66.21 1.098.341-.091.33-.268.609-.53.83-.26.222-.596.376-1 .456-.404.08-.847.08-1.337.005a4.705 4.705 0 0 1-1.643-.551l.006.005ZM89.367 95.608c1.78.131 2.667.148 4.447 0v.796c-1.32.114-1.973.12-3.293.069v.978c1.217.045 1.831.045 3.048-.051v.71a22.724 22.724 0 0 1-3.048.052v1.069c1.342.051 2.013.045 3.355-.074v.802c-1.802.159-2.7.142-4.503.011v-4.356l-.006-.006ZM97.336 98.19c0-.359.29-.728.642-.853.353-.125.643.045.643.403 0 .359-.284.751-.643.876-.352.125-.637-.068-.642-.426ZM75.098 77.446c1.325-2.934.637-3.366-3.298-2.309 2.991-2.365 2.792-3.196-1.183-4.003 3.975-.813 4.168-1.65 1.183-4.026 3.935 1.075 4.629.648 3.298-2.286 2.957 2.382 3.907 2.263 4.823-.797.95 2.986 1.91 3.048 4.85.563-1.28 3.037-.597 3.503 3.316 2.417-2.98 2.451-2.764 3.304 1.217 4.146-3.964.819-4.163 1.666-1.155 4.1-3.946-1.08-4.646-.614-3.36 2.417-2.952-2.48-3.919-2.417-4.874.569-.916-3.06-1.866-3.18-4.823-.796l.006.005Z"
    fill="var(--theme-1, currentColor)"
  />
</svg>
