<svg
  xmlns="http://www.w3.org/2000/svg"
  width="161"
  height="208"
  fill="none"
  viewBox="0 0 161 208"
  classs="gibralar_1"
>
  <path
    fill="var(--main-theme-2, currentColor)"
    d="M154.847 16.195c0 .086.005.177.011.256.023.45.097.893.228 1.308a5.25 5.25 0 0 0 4.936 3.68v5.408a5.259 5.259 0 0 0-5.175 5.254c0 .933.25 1.814.676 2.576.211.381.472.728.774 1.035a5.223 5.223 0 0 0 3.139 1.593c.193.028.387.04.586.045v5.357c-.171 0-.336.011-.501.029-.011.005-.023.005-.034.01-.17.018-.33.046-.495.08a5.443 5.443 0 0 0-.659.188c-.063.029-.125.046-.182.068-.017.012-.034.017-.051.023-.057.029-.109.046-.165.074-.057.029-.108.051-.165.08l-.137.068a3.998 3.998 0 0 0-.375.222c-.063.04-.12.074-.176.114-.063.045-.131.09-.188.142a1.454 1.454 0 0 0-.182.148 4.589 4.589 0 0 0-.347.319 4.606 4.606 0 0 0-.313.346 5.192 5.192 0 0 0-1.205 3.207v.296c0 .062 0 .12.005.176 0 .063.006.131.017.194 0 .062.012.125.017.181.012.057.018.12.029.177.011.08.028.159.045.233l.052.227c.017.057.028.108.045.165.023.063.04.126.057.188.017.057.04.114.057.17l.068.171a4.265 4.265 0 0 0 .171.37v.011c.039.08.085.16.13.24.006.01.012.016.018.027.039.069.079.131.125.194.057.085.108.17.17.25.068.097.142.193.216.284.052.063.103.12.154.177.006.011.017.017.023.023.034.04.068.073.102.108.051.05.097.096.148.142.006.011.017.017.023.022a.273.273 0 0 0 .017.017c.017.018.034.029.045.046.08.074.165.148.25.21.08.063.16.125.245.182.051.04.102.074.159.108l.188.12c.102.062.205.12.313.17a5.27 5.27 0 0 0 2.297.57v5.356a4.94 4.94 0 0 0-.506.034c-.085.006-.171.023-.25.034-.069.006-.137.023-.199.035l-.29.068c-.08.022-.16.04-.239.068-.08.023-.154.051-.228.074l-.227.085c-.074.034-.148.063-.222.097-.074.034-.148.068-.216.108-.074.04-.142.074-.21.12-.057.033-.108.062-.165.102-.091.062-.177.12-.268.187-.057.04-.108.074-.159.12a3.814 3.814 0 0 0-.364.318 5.202 5.202 0 0 0-1.632 3.799v.051c0 .404.046.79.137 1.166.017.085.039.165.062.245.023.08.046.159.074.238a1.69 1.69 0 0 0 .074.194c.006.017.011.04.023.057.028.09.068.176.108.267.096.216.21.432.341.637.063.102.131.199.199.301.045.063.091.131.148.188.045.068.097.125.153.182.046.062.103.125.16.176.051.057.108.108.165.165l.182.165c.056.051.119.102.182.148.045.04.096.08.147.114.023.022.052.04.074.056.057.04.108.08.165.114a.95.95 0 0 0 .165.097c.057.04.12.074.182.102.063.04.131.074.199.102a5.268 5.268 0 0 0 1.246.432c.153.035.307.058.46.075h.029c.164.017.335.028.506.034v5.357a5.27 5.27 0 0 0-4.396 2.49 5.262 5.262 0 0 0-.774 2.548c0 .074-.005.142-.005.21v.052c0 .062 0 .12.005.17 0 .114.012.228.023.347.023.24.063.478.114.711a5.256 5.256 0 0 0 5.027 4.02v5.352a5.268 5.268 0 0 0-5.01 3.947 5.78 5.78 0 0 0-.154 1.046v.028c-.005.08-.011.154-.011.24v.05a5.241 5.241 0 0 0 1.757 3.918 5.207 5.207 0 0 0 3.412 1.331v5.357a5.253 5.253 0 0 0-5.095 4.362c-.04.222-.063.444-.074.671 0 .074-.006.142-.006.216v.051c0 .074 0 .148.006.222 0 .051 0 .103.011.159.006.091.017.182.029.268a4.971 4.971 0 0 0 .176.83c.057.205.131.404.211.591.051.131.113.256.176.376.034.062.062.125.097.182.136.239.29.466.466.676l.131.16c.045.051.091.102.142.153.045.051.091.097.142.148.216.216.455.409.711.58.057.046.125.08.182.125.04.023.074.046.114.068l.147.086c.12.068.245.131.37.182.063.028.125.051.188.079h.011c.063.029.131.052.193.074.063.023.131.046.199.069.069.022.137.039.205.056l.205.052c.068.017.142.028.21.039l.188.034c.017 0 .028 0 .04.006.062.012.119.017.182.023.017 0 .028 0 .045.006.137.011.273.017.41.022v5.357c-.069 0-.137 0-.205.017a5.193 5.193 0 0 0-2.957 1.109 5.2 5.2 0 0 0-1.155 1.257 5.225 5.225 0 0 0-.853 2.61c-.005.091-.011.188-.011.29v.023c0 .085 0 .176.011.267.006.16.023.313.046.472.017.097.028.194.051.285.011.051.017.096.029.148.051.216.108.432.187.636l.051.137c.034.085.074.171.108.256.04.091.086.182.137.267.051.097.108.199.171.29.005.017.017.029.022.034.057.097.125.188.188.279 0 0 .006.006.006.011.068.091.136.188.21.273.051.063.108.125.165.188.176.193.37.375.569.54.045.034.096.074.147.108.046.034.091.069.137.097.074.057.154.102.233.153.171.108.353.205.535.29.062.035.13.063.193.091a.078.078 0 0 0 .034.012c.057.028.12.051.182.074a4.885 4.885 0 0 0 1.092.278 3.837 3.837 0 0 0 .671.057v5.357a5.248 5.248 0 0 0-3.469 1.382 5.137 5.137 0 0 0-.853 1.001 5.286 5.286 0 0 0-.842 2.502v.012c-.005.062-.011.125-.011.187v.216a5.275 5.275 0 0 0 .381 1.957c.046.119.097.227.154.341 0 .011.011.017.011.028.04.08.08.154.125.228l.068.119c.057.097.114.188.177.279.062.091.125.176.187.261.091.12.194.234.296.342.063.068.131.136.193.199.182.176.376.335.586.489.063.045.131.085.193.13a4.67 4.67 0 0 0 1.024.529h.011c.552.216 1.149.33 1.775.342v5.357a5.253 5.253 0 0 0-5.141 4.646c-.017.13-.029.273-.029.409 0 .046 0 .091-.005.142V159.519c0 .057 0 .114.011.171a.84.84 0 0 0 .017.165c0 .068.012.136.023.199.023.199.057.398.108.591.028.131.068.256.108.381a4.998 4.998 0 0 0 .921 1.684c.046.062.097.125.154.182.051.057.102.119.159.176.108.114.222.222.341.318.063.052.12.103.182.148.051.046.103.086.159.125a.226.226 0 0 0 .057.04c.057.04.114.08.171.114.062.045.125.085.188.119.017.006.028.017.045.023.057.034.12.068.182.097.085.045.176.091.267.136l.04.017a.65.65 0 0 0 .131.052c.074.034.148.062.222.085a5.136 5.136 0 0 0 1.188.278c.165.018.33.029.501.035v5.357c-.08 0-.165.005-.245.017a5.566 5.566 0 0 0-.819.113 4.55 4.55 0 0 0-.614.177 5.255 5.255 0 0 0-3.492 4.947c0 .688.137 1.348.381 1.956a5.272 5.272 0 0 0 1.991 2.429c.318.21.665.392 1.023.529h.012c.222.085.455.159.699.21.347.08.711.125 1.075.125v5.408c-.25.006-.495.029-.733.063a5.201 5.201 0 0 0-3.492 2.189 5.189 5.189 0 0 0-.95 2.997 5.263 5.263 0 0 0 5.095 5.255l.018.261c.022.319.039.637.062.95V201.937h-.023a.961.961 0 0 0-.182-.017 1.039 1.039 0 0 0-.136-.011c-.085 0-.176-.006-.267-.006h-.239a5.247 5.247 0 0 0-4.669 3.378 5.24 5.24 0 0 0-.313 1.336 3.434 3.434 0 0 0-.028.421h-5.414a5.25 5.25 0 0 0-5.01-5.135h-.245c-.136 0-.267 0-.398.011-.057.012-.125.012-.176.017a5.241 5.241 0 0 0-4.567 4.192 5.515 5.515 0 0 0-.096.927h-5.414a5.247 5.247 0 0 0-4.567-5.096c-.079-.011-.164-.023-.25-.023-.114-.017-.222-.017-.335-.017H127.379c-.147.012-.295.023-.443.04-.051.012-.097.017-.148.023a5.245 5.245 0 0 0-3.548 2.292v.011a5.075 5.075 0 0 0-.865 2.775h-5.419a5.244 5.244 0 0 0-5.01-5.135h-.262a5.25 5.25 0 0 0-4.595 2.758 5.133 5.133 0 0 0-.631 2.383h-5.414a5.239 5.239 0 0 0-4.276-5.044 4.203 4.203 0 0 0-.478-.074 1.777 1.777 0 0 0-.256-.017h-.478a.95.95 0 0 0-.187.017c-.069 0-.143.011-.21.023-.132.011-.262.039-.388.062a4.045 4.045 0 0 1-.204.046 1.345 1.345 0 0 0-.148.039 5.141 5.141 0 0 0-1.69.802c-.346.251-.659.541-.938.865a5.221 5.221 0 0 0-1.245 3.292h-5.414a5.241 5.241 0 0 0-4.657-5.106c-.068-.012-.137-.017-.205-.023h-.011c-.057-.006-.108-.012-.165-.012H79.634c-.086 0-.166.012-.251.018-.165.017-.33.039-.483.068a4.837 4.837 0 0 0-.927.267 5.275 5.275 0 0 0-3.344 4.788h-5.414a5.25 5.25 0 0 0-5.004-5.135h-.444a2.08 2.08 0 0 0-.324.023c-.063.006-.114.017-.17.017a5.254 5.254 0 0 0-4.555 5.095h-5.409a5.24 5.24 0 0 0-3.531-4.845c-.063-.028-.131-.045-.194-.068a.528.528 0 0 0-.09-.028 1.103 1.103 0 0 0-.16-.046 5.565 5.565 0 0 0-.768-.136c-.05 0-.09-.006-.142-.012a2.884 2.884 0 0 0-.227-.011H47.787c-.165.011-.33.028-.5.051h-.017a5.241 5.241 0 0 0-4.464 5.084h-5.414a5.211 5.211 0 0 0-1.996-4.009 5.195 5.195 0 0 0-3.19-1.126h-.063c-.182 0-.364.005-.54.023-.074.011-.148.017-.222.034-.074.005-.148.022-.222.034a5.262 5.262 0 0 0-4.214 4.441 4.327 4.327 0 0 0-.045.609h-5.414a5.164 5.164 0 0 0-.523-2.178 5.232 5.232 0 0 0-.916-1.325 5.265 5.265 0 0 0-3.543-1.638h-.483c-.086 0-.17.011-.256.017a5.252 5.252 0 0 0-4.777 5.118H5.574a5.193 5.193 0 0 0-.38-1.865 5.192 5.192 0 0 0-1.007-1.587 5.23 5.23 0 0 0-3.594-1.689H.37v-5.465a5.255 5.255 0 0 0 4.998-4.174c.074-.347.108-.711.108-1.08a5.252 5.252 0 0 0-4.965-5.238c-.05 0-.096-.011-.147-.011v-5.414a5.24 5.24 0 0 0 5.107-5.243c0-.671-.12-1.314-.358-1.9a4.936 4.936 0 0 0-.592-1.109 3.944 3.944 0 0 0-.358-.455c-.006 0-.012-.011-.017-.017a5.255 5.255 0 0 0-3.788-1.768v-5.363a5.25 5.25 0 0 0 5-4.174c.073-.347.107-.711.107-1.075v-.148c0-.057 0-.108-.006-.165a1.7 1.7 0 0 0-.017-.239c-.011-.079-.017-.159-.028-.238a5.219 5.219 0 0 0-2.337-3.674 5.435 5.435 0 0 0-1.655-.705 5.039 5.039 0 0 0-1.064-.142v-5.363a5.246 5.246 0 0 0 5.09-4.8c.017-.148.023-.29.023-.438v-.056c0-.126 0-.245-.012-.359-.176-2.684-2.382-4.816-5.1-4.89v-5.369c.05 0 .096 0 .147-.005a5.244 5.244 0 0 0 3.623-1.729 5.21 5.21 0 0 0 1.32-3.043c.01-.085.016-.17.016-.255.006-.069.006-.143.006-.211v-.051c0-.87-.21-1.695-.586-2.411a5.216 5.216 0 0 0-.83-1.177 5.277 5.277 0 0 0-3.69-1.661v-5.363a5.245 5.245 0 0 0 5.015-4.265 4.11 4.11 0 0 0 .08-.705c.005-.091.01-.182.01-.278v-.177c0-.057 0-.114-.005-.17a5.248 5.248 0 0 0-5.1-4.948v-5.363a5.244 5.244 0 0 0 5.106-5.231v-.017c0-.108 0-.216-.012-.325a4.952 4.952 0 0 0-.136-.966 5.252 5.252 0 0 0-4.959-4.01v-5.362a5.262 5.262 0 0 0 3.543-1.513c.38-.37.71-.802.961-1.28.068-.136.136-.278.193-.42.034-.074.063-.148.086-.216a1.69 1.69 0 0 0 .074-.222c.022-.074.045-.148.062-.228.023-.073.04-.153.057-.227.051-.216.085-.438.102-.665.012-.063.017-.131.017-.2.006-.09.012-.181.012-.272 0-.091 0-.177-.006-.262 0-.091-.011-.176-.017-.256a5.243 5.243 0 0 0-5.084-4.782v-5.363a3.9 3.9 0 0 0 .37-.023l.364-.051a3.51 3.51 0 0 0 .472-.102c.08-.018.153-.04.227-.063.074-.023.154-.051.222-.074l.222-.085c.074-.034.148-.063.216-.097.074-.034.142-.068.21-.102.068-.04.137-.074.205-.114.068-.04.136-.08.199-.125.068-.04.13-.085.193-.13.057-.04.12-.086.177-.132 0 0 .005 0 .011-.005.051-.04.102-.08.148-.126a.044.044 0 0 0 .023-.022c.05-.046.102-.086.153-.137.051-.045.108-.096.16-.153.05-.051.102-.103.153-.16.051-.056.097-.108.142-.164a5.16 5.16 0 0 0 1.217-2.867l.017-.164c.006-.057.011-.108.011-.165v-.239c0-.068 0-.137-.005-.205a5.213 5.213 0 0 0-.33-1.638 3.271 3.271 0 0 0-.188-.438 5.467 5.467 0 0 0-.347-.614s-.005 0-.005-.005a4.338 4.338 0 0 0-.279-.381c-.097-.126-.205-.24-.313-.353a1.132 1.132 0 0 0-.165-.165 2.361 2.361 0 0 0-.176-.16c-.057-.056-.12-.102-.182-.147a2.117 2.117 0 0 0-.176-.142c-.074-.051-.148-.103-.216-.148a3.296 3.296 0 0 0-.188-.114 1.921 1.921 0 0 0-.205-.12 2.432 2.432 0 0 0-.21-.107 6.7 6.7 0 0 0-.216-.097c-.068-.034-.142-.057-.216-.085a5.282 5.282 0 0 0-.666-.2 3.104 3.104 0 0 0-.244-.045 1.28 1.28 0 0 0-.205-.034 2.763 2.763 0 0 0-.313-.034 2.056 2.056 0 0 0-.267-.017v-5.363c.381-.011.75-.062 1.109-.153a5.23 5.23 0 0 0 2.235-1.178c.068-.062.142-.125.205-.193.05-.045.09-.09.136-.142l.017-.017c.006 0 .012-.011.012-.011.028-.029.056-.057.08-.091a2.966 2.966 0 0 0 .222-.262c.073-.091.141-.182.204-.284.034-.051.068-.103.102-.16 0-.005.006-.01.011-.017.035-.056.069-.108.103-.17a1.619 1.619 0 0 0 .102-.188c.034-.062.063-.125.091-.188 0-.005 0-.01.006-.017l.051-.108c.017-.04.034-.074.045-.113.035-.074.063-.154.086-.233a.28.28 0 0 0 .023-.063c.022-.063.045-.125.056-.188.012-.023.017-.051.023-.074v-.017c.017-.051.034-.102.046-.159l.034-.142c.011-.04.017-.086.028-.131.012-.057.017-.114.029-.17a.573.573 0 0 0 .017-.143c0-.011.005-.023.005-.034.012-.062.017-.13.023-.193.011-.074.011-.16.017-.24.006-.056.006-.124.006-.181 0-.091 0-.182-.006-.267 0-.08-.011-.17-.017-.256a5.323 5.323 0 0 0-.364-1.53 5.254 5.254 0 0 0-4.72-3.253V37.38a5.222 5.222 0 0 0 1.695-.336c.057-.017.108-.04.165-.063a5.261 5.261 0 0 0 2.826-2.77c.17-.38.29-.795.358-1.222.051-.278.074-.563.074-.858a5.257 5.257 0 0 0-5.107-5.255v-5.414A5.237 5.237 0 0 0 5.5 16.218c0-.705-.136-1.382-.386-1.99a5.268 5.268 0 0 0-4.72-3.259V5.572c.08 0 .153 0 .233-.011.08-.006.17-.011.256-.023A5.262 5.262 0 0 0 5.603.306C5.603.261 5.59.21 5.59.16h5.414v.147a5.25 5.25 0 0 0 5.033 5.25c.074.005.153.01.222.01h.045A5.258 5.258 0 0 0 21.51.307c0-.045-.012-.096-.012-.147h5.42c0 .05-.012.096-.012.147 0 .268.023.524.063.78a5.248 5.248 0 0 0 4.913 4.47c.091.005.188.01.285.01h.022c.086 0 .17 0 .256-.01.057 0 .114-.006.17-.012l.177-.017c.085-.017.17-.029.262-.04.085-.017.176-.034.256-.051a5.106 5.106 0 0 0 1.421-.54 5.37 5.37 0 0 0 1.234-.961A5.233 5.233 0 0 0 37.42.306c0-.045-.006-.096-.006-.147h5.414c0 .05-.011.096-.011.147a5.257 5.257 0 0 0 4.72 5.232c.063.012.13.012.193.017.034 0 .069.006.103.006.08.006.159.011.244.011.086 0 .165 0 .256-.011.085 0 .17-.006.256-.023h.029c.272-.023.534-.074.79-.142a5.246 5.246 0 0 0 1.45-.631 5.254 5.254 0 0 0 2.48-4.459c0-.045-.012-.096-.012-.147h5.414v.147a5.273 5.273 0 0 0 2.974 4.743c.12.057.239.12.364.16.063.028.125.05.193.068.091.034.182.062.28.085.124.04.25.068.38.09.091.018.182.035.279.052.074.006.148.017.216.023h.034c.085.011.17.017.262.023h.011c.08.005.16.011.245.011H64c.085 0 .177 0 .256-.011A5.257 5.257 0 0 0 69.26.3c0-.045-.01-.096-.01-.147h5.419c0 .051-.012.096-.012.148 0 1.802.904 3.389 2.292 4.339a4.94 4.94 0 0 0 1.115.58c.25.096.506.17.773.227.011 0 .023.006.034.006.12.023.245.051.37.062.142.018.284.035.432.04.08.006.165.012.245.012.08 0 .164 0 .244-.012a5.262 5.262 0 0 0 5.01-5.249c0-.045-.011-.096-.011-.147h5.414c0 .05-.006.096-.006.147a5.32 5.32 0 0 0 .995 3.088c.256.347.546.66.87.933.495.42 1.075.75 1.706.967h.017c.108.04.228.074.342.102h.01c.035.006.075.017.109.023.09.023.193.045.29.062.011.006.017.006.028.012.137.017.268.04.404.05.08 0 .154.012.239.012.08.006.16.012.239.012.08 0 .165 0 .25-.012a5.26 5.26 0 0 0 5.004-5.249V.16h5.414v.147c0 .586.091 1.143.273 1.672a5.215 5.215 0 0 0 3.606 3.406c.011 0 .022 0 .034.006h.011c.142.046.29.069.444.091.074.017.148.029.227.04l.199.017c.074.012.142.012.216.017.074.006.148.012.216.012h.023c2.906 0 5.26-2.36 5.26-5.26 0-.046-.011-.097-.011-.148h5.42c0 .05-.012.096-.012.147 0 .091 0 .188.012.285.028.5.119.984.278 1.438a5.263 5.263 0 0 0 3.554 3.339c.035.011.063.017.091.022.063.017.131.034.194.046.079.017.159.04.244.051.08.017.16.023.245.034.068.006.142.012.21.023.063 0 .125.006.182.011.086.006.165.012.245.012.068 0 .142 0 .21-.012a5.252 5.252 0 0 0 5.044-5.249c0-.045-.005-.096-.011-.147h5.414c0 .05-.006.096-.006.147 0 .21.012.416.034.62.302 2.53 2.389 4.516 4.971 4.635.079.006.164.011.25.011.153 0 .307-.011.46-.022.012 0 .023-.006.029-.006.256-.023.512-.063.756-.13a5.235 5.235 0 0 0 3.515-2.883 5.185 5.185 0 0 0 .494-2.225V.16h5.414c0 .05-.011.096-.011.147a5.258 5.258 0 0 0 3.645 5.005c.028.005.051.017.074.022.091.035.182.052.279.074.13.035.261.063.398.086.079.017.17.028.256.04.199.022.403.034.608.034.074 0 .148 0 .222-.012h.04c.057 0 .119-.011.176-.017h.125c.017 0 .028 0 .04-.005v5.436h-.051a5.251 5.251 0 0 0-5.124 5.249l-.051-.023Z"
  />
  <path
    fill="var(--main-theme-1, currentColor)"
    d="M35.532 160.868c-.836-.12-1.484-.415-1.94-.904-.454-.489-.682-1.16-.682-2.008 0-.847.216-1.638.649-2.377a5.964 5.964 0 0 1 1.82-1.922c.778-.54 1.694-.927 2.752-1.143.773-.159 1.49-.182 2.132-.074.648.108 1.194.341 1.644.683.443.346.767.779.955 1.302-.768.295-1.154.449-1.922.762a1.707 1.707 0 0 0-.557-.762c-.256-.199-.575-.33-.95-.398-.375-.069-.79-.051-1.245.039a4.678 4.678 0 0 0-1.661.677 3.416 3.416 0 0 0-1.098 1.155 2.887 2.887 0 0 0-.386 1.455c0 .512.142.927.426 1.246.285.318.688.517 1.212.597.523.08 1.131.046 1.825-.091a5.5 5.5 0 0 0 1.45-.495 3.858 3.858 0 0 0 1.092-.807c.29-.319.489-.66.597-1.035.785.04 1.177.068 1.968.131a3.931 3.931 0 0 1-.95 1.706c-.472.511-1.07.944-1.797 1.296-.722.358-1.524.614-2.394.791-1.126.227-2.11.29-2.946.17l.006.006ZM48.076 151.44c.99-.057 1.484-.08 2.468-.108 1.57 3.082 2.36 4.64 3.93 7.79-.888-.011-1.331-.017-2.219-.005-.301-.614-.455-.921-.756-1.536a68.89 68.89 0 0 0-4.447.199c-.301.643-.455.961-.756 1.61-.893.074-1.337.119-2.23.222a686.8 686.8 0 0 1 4.01-8.161v-.011Zm2.911 4.805c-.677-1.382-1.012-2.076-1.689-3.446h-.023c-.676 1.433-1.012 2.149-1.688 3.594 1.359-.091 2.041-.12 3.4-.154v.006ZM58.298 159.27a7.371 7.371 0 0 1-1.723-.705c-.506-.29-.91-.609-1.2-.95.375-.5.557-.751.933-1.245.239.312.574.597.995.853.42.256.904.466 1.444.631.54.165 1.08.267 1.615.301.432.029.808.017 1.132-.034.324-.051.574-.142.75-.278.183-.137.268-.296.268-.478 0-.239-.16-.449-.472-.626-.313-.176-.813-.324-1.49-.449-.648-.136-.972-.205-1.626-.335-1.12-.205-1.934-.478-2.434-.842-.5-.364-.757-.87-.757-1.524 0-.512.177-.956.53-1.331.352-.375.846-.648 1.483-.813.637-.171 1.37-.228 2.207-.176.54.034 1.075.13 1.592.278.518.148.99.347 1.416.586.427.239.774.5 1.04.79-.318.461-.483.694-.801 1.155a4.171 4.171 0 0 0-.876-.677 5.3 5.3 0 0 0-2.383-.711 4.548 4.548 0 0 0-1.091.057c-.325.063-.58.159-.757.29-.176.131-.267.29-.267.472 0 .216.12.398.375.535.256.136.66.256 1.217.364.649.119.973.182 1.627.307 1.245.239 2.15.58 2.712 1.006.563.427.853.978.859 1.644 0 .517-.182.955-.546 1.314-.364.358-.87.614-1.524.773-.654.159-1.41.21-2.269.153a9.957 9.957 0 0 1-1.962-.335h-.017ZM66.228 152.082c3.19.346 4.783.563 7.968 1.012v1.427c-2.36-.335-3.543-.495-5.909-.779v1.757c2.19.262 3.281.41 5.465.717v1.274a230.88 230.88 0 0 0-5.465-.717v1.922c2.405.29 3.611.45 6.017.791v1.439c-3.23-.461-4.851-.677-8.081-1.03v-7.813h.005ZM75.95 153.344c1.148.165 1.717.25 2.865.421 1.246 2.559 1.871 3.839 3.117 6.392h.011c1.24-2.184 1.86-3.276 3.094-5.465 1.154.171 1.734.25 2.889.415v7.814c-.814-.114-1.217-.171-2.03-.29v-5.607h-.023c-1.166 2.07-1.746 3.11-2.912 5.18-.796-.119-1.194-.176-1.985-.295-1.188-2.423-1.785-3.634-2.974-6.057h-.023v5.607c-.813-.119-1.217-.182-2.03-.295v-7.82ZM93.38 155.812c.99.119 1.485.171 2.468.279 1.57 3.292 2.36 4.93 3.93 8.177a97.603 97.603 0 0 1-2.218-.193c-.301-.648-.455-.973-.756-1.621a163.74 163.74 0 0 1-4.447-.495c-.302.58-.455.871-.757 1.456-.892-.113-1.336-.17-2.229-.29a1659.89 1659.89 0 0 0 4.01-7.307v-.006Zm2.912 5.249c-.677-1.467-1.012-2.207-1.69-3.685h-.022c-.677 1.325-1.012 1.985-1.689 3.304 1.36.165 2.042.239 3.4.381ZM102.96 158.229a104.784 104.784 0 0 1-3.304-.216v-1.569c3.498.279 5.243.369 8.741.364v1.569a90.44 90.44 0 0 1-3.293-.051v6.244a83.695 83.695 0 0 1-2.138-.091v-6.244l-.006-.006ZM109.908 156.79c3.19-.057 4.783-.154 7.967-.54v1.427c-2.36.29-3.543.375-5.908.478v1.757a62.669 62.669 0 0 0 5.465-.427v1.274c-2.19.25-3.282.336-5.465.427v1.922c2.405-.103 3.611-.194 6.016-.489v1.438c-3.23.399-4.851.495-8.081.552v-7.814l.006-.005ZM122.22 163.416a5.349 5.349 0 0 1-1.723-.33c-.506-.194-.91-.438-1.2-.734.375-.563.557-.847.933-1.416.238.267.574.489.995.654a4.63 4.63 0 0 0 1.444.296 5.945 5.945 0 0 0 1.615-.137 5.005 5.005 0 0 0 1.132-.381c.324-.153.574-.329.751-.528.182-.194.267-.387.267-.569 0-.239-.159-.398-.472-.466-.313-.069-.813-.057-1.496.022-.648.057-.972.08-1.626.114-1.121.085-1.934-.028-2.44-.296-.506-.267-.756-.728-.756-1.382 0-.511.176-.983.529-1.427.352-.444.847-.808 1.484-1.12.637-.313 1.37-.552 2.206-.734a8.75 8.75 0 0 1 1.593-.199c.517-.017.989.017 1.416.102.426.086.773.222 1.04.404-.318.586-.483.876-.801 1.456a2.69 2.69 0 0 0-.876-.364 4.622 4.622 0 0 0-1.126-.119c-.404 0-.83.057-1.257.153a5.71 5.71 0 0 0-1.092.347c-.324.142-.58.301-.756.472-.176.171-.267.353-.267.535 0 .216.119.369.375.449.256.074.66.097 1.217.057.648-.057.972-.086 1.626-.159 1.246-.148 2.15-.137 2.713.079.563.216.853.648.859 1.308 0 .518-.182 1.029-.546 1.53-.364.5-.87.944-1.524 1.331a7.67 7.67 0 0 1-2.269.87 7.51 7.51 0 0 1-1.962.182h-.006ZM52.77 170.239a7.08 7.08 0 0 1-1.722-.608c-.507-.262-.91-.552-1.2-.882.375-.523.557-.784.932-1.302.24.302.575.563.995.796.421.233.905.415 1.445.552.54.136 1.08.21 1.615.216.432.006.807-.023 1.132-.091.324-.068.574-.171.75-.318.182-.143.268-.308.268-.49 0-.238-.16-.443-.472-.602-.313-.16-.814-.29-1.49-.376-.649-.102-.973-.153-1.627-.25-1.12-.142-1.933-.369-2.434-.705-.506-.336-.756-.825-.756-1.479 0-.511.176-.966.529-1.359.352-.392.847-.693 1.484-.898.637-.205 1.37-.302 2.206-.29.54.005 1.075.074 1.593.199.517.125.99.301 1.416.517.426.222.773.472 1.04.745-.318.478-.483.711-.801 1.189a3.866 3.866 0 0 0-.876-.637 5.206 5.206 0 0 0-1.126-.438 5.112 5.112 0 0 0-1.257-.159c-.398 0-.768.034-1.092.114-.324.079-.58.193-.756.329-.176.143-.267.307-.267.484 0 .216.12.392.375.512.256.125.66.221 1.217.295.648.086.972.131 1.626.222 1.246.176 2.15.478 2.713.881.563.404.853.944.859 1.604 0 .518-.182.967-.546 1.337-.364.369-.87.648-1.524.841-.654.188-1.41.273-2.27.262a9.899 9.899 0 0 1-1.961-.233l-.017.022ZM63.198 170.45c-.841-.426-1.495-.966-1.962-1.632a3.807 3.807 0 0 1-.705-2.235c0-.824.24-1.524.711-2.127.472-.602 1.126-1.046 1.962-1.319.836-.273 1.808-.352 2.906-.233 1.103.119 2.076.409 2.912.864.836.455 1.484 1.035 1.956 1.729.466.7.705 1.456.705 2.275s-.239 1.501-.71 2.076c-.473.568-1.127.978-1.957 1.228-.83.25-1.797.313-2.906.193-1.098-.119-2.07-.386-2.912-.813v-.006Zm4.692-.887c.517-.165.921-.426 1.211-.785a2 2 0 0 0 .438-1.29c0-.501-.148-.973-.438-1.405a3.485 3.485 0 0 0-1.211-1.075c-.517-.284-1.109-.461-1.786-.534-.682-.074-1.28-.023-1.797.153-.517.171-.921.444-1.211.813-.29.37-.438.808-.438 1.314s.148.961.438 1.382c.29.426.7.773 1.211 1.046.512.273 1.115.444 1.797.518.671.074 1.269.028 1.786-.137Zm-1.501 3.771a2.091 2.091 0 0 1-.82-.728 1.958 1.958 0 0 1-.284-1.041v-.66c.603.063.905.097 1.502.16v.46c0 .25.096.455.29.614.193.16.466.262.819.302.358.04.71.017 1.046-.074a1.98 1.98 0 0 0 .904-.523c.279.392.421.585.705.978-.21.239-.466.426-.767.568a3.39 3.39 0 0 1-1.001.29c-.37.052-.75.052-1.155.006-.477-.057-.892-.17-1.245-.352h.006ZM75.599 171.992c-.711-.398-1.263-.916-1.65-1.541-.386-.631-.574-1.354-.574-2.184v-4.18c.859.12 1.285.182 2.138.302v4.094c0 .512.108.961.319 1.342.21.381.517.688.91.91.398.228.858.381 1.382.455.534.08.995.063 1.381-.045.387-.108.689-.324.905-.643.216-.318.324-.734.324-1.234v-4.106c.853.125 1.28.194 2.132.319v4.179c0 .825-.193 1.502-.58 2.014-.386.517-.938.87-1.649 1.057-.71.188-1.547.211-2.513.069-.973-.143-1.815-.416-2.531-.814l.006.006ZM87.658 166.173c.99.137 1.484.205 2.468.336 1.57 3.332 2.36 4.999 3.93 8.303-.888-.103-1.331-.154-2.219-.268-.301-.659-.455-.984-.756-1.643-1.78-.228-2.667-.353-4.447-.609l-.756 1.439c-.893-.131-1.337-.193-2.23-.324 1.604-2.889 2.406-4.333 4.01-7.234Zm2.911 5.323c-.677-1.49-1.012-2.235-1.689-3.73h-.022l-1.69 3.264c1.36.193 2.042.284 3.401.466ZM103.058 175.653a1.762 1.762 0 0 1-.58-.444 6.752 6.752 0 0 1-.449-.603c-.239-.477-.358-.722-.591-1.199a1.677 1.677 0 0 0-.541-.586 1.472 1.472 0 0 0-.71-.25 93.313 93.313 0 0 1-2.525-.217v2.832c-.859-.079-1.286-.125-2.139-.216v-7.813c2.491.267 3.737.381 6.222.534.659.04 1.217.171 1.677.387.461.216.819.506 1.07.876.25.369.381.802.381 1.296 0 .387-.091.734-.279 1.035a2.06 2.06 0 0 1-.785.728c-.335.188-.739.296-1.206.33v.011c.148.091.285.2.41.325s.239.278.324.449l.58 1.08c.08.12.165.216.25.285a.54.54 0 0 0 .319.113.675.675 0 0 0 .335-.096.907.907 0 0 0 .29-.262l.495.95a1.897 1.897 0 0 1-.773.495c-.319.119-.637.17-.961.153a2.011 2.011 0 0 1-.814-.193Zm-1.865-4.351c.324.023.597 0 .83-.079a1.05 1.05 0 0 0 .529-.353.982.982 0 0 0 .182-.603c0-.227-.062-.426-.182-.602a1.3 1.3 0 0 0-.529-.433 2.1 2.1 0 0 0-.818-.199 103.663 103.663 0 0 1-3.555-.29v2.275c1.416.131 2.127.193 3.543.284ZM107.033 167.908c3.19.045 4.783.005 7.967-.256v1.427c-2.36.194-3.543.239-5.908.262v1.757c2.189-.017 3.281-.057 5.465-.227v1.273c-2.19.165-3.282.205-5.465.228v1.922c2.405-.023 3.611-.068 6.016-.267v1.438c-3.23.268-4.845.308-8.081.262v-7.814l.006-.005ZM21.328 125.017c4.1-1.962 6.153-2.713 10.265-3.845-.017-4.748-.04-9.497-.057-14.245l-.034.011c-.694 1.229-1.678 2.366-2.946 3.481-1.274 1.109-2.912 2.32-4.925 3.747-.546-1.82-.819-2.729-1.364-4.538 2.297-1.643 4.248-3.11 5.84-4.549 1.592-1.439 2.883-2.992 3.867-4.743 2.644-.648 3.97-.882 6.613-1.206.012 6.853.035 13.7.052 20.552 3.06-.466 4.595-.597 7.654-.693.006 1.842.011 2.769.011 4.64-8.95.7-16.668 2.593-24.97 6.096v-4.708h-.006ZM57.826 113.53c2.23-3.008 4.999-5.579 8.28-7.916-5.96-1.001-11.93-1.899-17.981-2.024-.006-1.945-.012-2.929-.012-4.914 8.758.5 17.294 1.928 25.938 3.338.017 1.746.028 2.611.062 4.339-3.332 2.4-6.067 5.084-8.206 8.121a29.08 29.08 0 0 0-4.572 10.14c-3.321-.535-4.987-.723-8.32-.916.984-3.77 2.582-7.171 4.811-10.174v.006ZM88.367 119.2a38.098 38.098 0 0 1 7.922-8.462c-5.915-.961-11.823-1.99-17.726-3.019-.034-1.985-.046-2.98-.051-4.976 8.581 1.416 17.151 2.86 25.761 4.077.028 1.763.057 2.662.125 4.476-3.361 2.729-5.977 5.703-7.984 9.053-2.008 3.355-3.401 6.932-4.288 10.731a367.014 367.014 0 0 1-8.343-1.82c.973-3.645 2.48-6.977 4.59-10.065l-.006.005ZM118.128 134.407c-1.996-.512-3.77-1.285-5.328-2.269a16.692 16.692 0 0 1-3.964-3.452 127.796 127.796 0 0 0 3.27-3.878 12.585 12.585 0 0 0 3.133 3.076 12.384 12.384 0 0 0 4.169 1.848c1.541.37 3.201.489 4.987.302 1.882-.194 3.537-.796 4.976-1.757a10.003 10.003 0 0 0 3.332-3.703c.785-1.489 1.172-3.15 1.161-4.964-1.217 1.558-2.514 2.752-3.89 3.583-1.376.824-3.139 1.416-5.289 1.666-2.684.318-5.027.023-7.052-.728-2.024-.751-3.594-1.894-4.714-3.333a8.304 8.304 0 0 1-1.786-4.919c-.062-1.854.512-3.457 1.741-4.879 1.222-1.422 2.951-2.525 5.175-3.429 2.223-.904 4.748-1.541 7.563-1.996 3.133-.506 5.806-.705 8.018-.444 2.212.262 3.913 1.035 5.113 2.474 1.194 1.439 1.78 3.628 1.791 6.625.011 3.589-.569 6.921-1.774 9.838-1.206 2.918-2.997 5.414-5.369 7.308-2.371 1.894-5.277 3.122-8.712 3.48-2.371.245-4.549.063-6.545-.449h-.006Zm11.681-15.525c1.154-.677 2.053-1.484 2.701-2.388.648-.905.967-1.854.961-2.832 0-.979-.335-1.752-.995-2.349-.66-.597-1.587-.95-2.781-1.103-1.194-.154-2.553-.091-4.066.147-1.461.234-2.769.603-3.907 1.138-1.143.54-2.019 1.188-2.638 1.985-.62.796-.916 1.649-.893 2.581.022.933.369 1.752 1.023 2.446.66.693 1.57 1.222 2.741 1.541 1.166.318 2.474.392 3.919.182 1.467-.216 2.78-.671 3.935-1.348ZM23.904 88.963v2.588h-1.228v-6.836h1.228v2.576h4.885v1.678h-4.885v-.006ZM22.563 82.85l.113-1.66 2.315.159.278-4.01-2.314-.158.114-1.661 6.102.42-.114 1.661-2.599-.176-.279 4.01 2.6.176-.115 1.66-6.102-.42ZM23.512 72.905l1.421-6.073 1.087.256-1.052 4.498 1.336.313.972-4.163.973.227-.973 4.163 1.462.341 1.075-4.583 1.097.255-1.439 6.16-5.954-1.394h-.005ZM33.017 62.025c-.523.472-1.08.762-1.672.864-.59.103-1.188.006-1.785-.284-.592-.29-1.03-.694-1.308-1.211-.284-.518-.41-1.11-.375-1.769.034-.66.227-1.365.597-2.104a5.008 5.008 0 0 1 .972-1.382 3.57 3.57 0 0 1 1.228-.825c.444-.17.888-.227 1.343-.17l-.325 1.513c-.273-.035-.534 0-.796.096-.261.097-.5.25-.728.472a2.837 2.837 0 0 0-.574.802c-.216.444-.336.864-.353 1.274-.017.41.063.768.245 1.08.182.313.455.558.819.74.358.176.728.233 1.097.17.376-.062.723-.244 1.047-.54.324-.296.602-.688.847-1.177.182-.37.301-.734.347-1.092a2.246 2.246 0 0 0-.063-.984 1.646 1.646 0 0 0-.454-.745l.955-1.24c.37.325.631.728.785 1.218.153.489.187 1.023.102 1.615a5.994 5.994 0 0 1-.58 1.802c-.392.79-.847 1.422-1.365 1.9l-.006-.023ZM31.869 51.715l3.65-5.055.905.654-2.707 3.747 1.115.808 2.508-3.47.807.587-2.508 3.469 1.217.881 2.758-3.816.91.66-3.702 5.124-4.959-3.583.006-.006ZM45.631 44.953c-.187.074-.37.103-.551.091a5.31 5.31 0 0 1-.569-.068l-.972-.318a1.203 1.203 0 0 0-.603-.006 1.096 1.096 0 0 0-.506.284l-1.4 1.394 1.565 1.57-1.189 1.182-4.316-4.333 3.452-3.44c.364-.365.728-.62 1.092-.769.364-.147.71-.193 1.052-.13.335.057.642.227.92.5.217.216.353.46.422.734.068.273.062.557-.012.858a2.378 2.378 0 0 1-.455.882h.006c.125-.029.256-.051.392-.051.137 0 .28.017.421.062l.904.262a.852.852 0 0 0 .29.011.42.42 0 0 0 .234-.12.521.521 0 0 0 .125-.244.73.73 0 0 0 .011-.313l.79.245c.012.233-.034.472-.142.717-.108.244-.25.46-.426.636-.17.171-.347.29-.535.364Zm-3.372-1.319c.176-.176.307-.353.387-.529.08-.176.108-.341.08-.506a.82.82 0 0 0-.24-.438.787.787 0 0 0-.426-.227.972.972 0 0 0-.512.068 1.62 1.62 0 0 0-.534.37l-1.974 1.967 1.257 1.257 1.968-1.956-.006-.006ZM44.45 37.805l5.066-3.634.654.91-3.753 2.696.802 1.114 3.474-2.496.58.807L47.8 39.7l.876 1.223 3.827-2.747.654.915-5.136 3.685-3.565-4.97h-.006ZM51.652 32.75l2.024-.961 4.192 3.145h.005l.205-5.232 2.042-.967 2.621 5.527-1.438.683-1.883-3.97h-.017l-.176 4.948-1.405.665-3.986-2.968h-.017l1.882 3.975-1.439.682-2.621-5.527h.011ZM66.143 33.114c-.705-.114-1.29-.364-1.768-.756a2.802 2.802 0 0 1-.939-1.53 2.82 2.82 0 0 1 .137-1.786c.239-.574.648-1.069 1.217-1.49.569-.42 1.274-.733 2.11-.932.841-.205 1.609-.25 2.308-.137.7.114 1.286.37 1.758.768s.785.91.938 1.53a2.8 2.8 0 0 1-.136 1.78c-.245.568-.649 1.063-1.212 1.484-.563.42-1.268.734-2.11.938-.835.205-1.603.25-2.308.137l.005-.006Zm3.316-1.916c.352-.268.602-.575.75-.933a1.75 1.75 0 0 0 .086-1.103 1.7 1.7 0 0 0-.586-.944c-.296-.245-.66-.404-1.092-.484-.432-.08-.904-.05-1.416.074-.517.125-.95.325-1.302.586-.353.267-.603.574-.75.927a1.757 1.757 0 0 0-.086 1.109c.09.38.284.694.58.944s.66.41 1.097.483c.433.074.91.052 1.428-.08.512-.124.944-.318 1.296-.585l-.005.006ZM73.805 25.465l2.047-.108 4.094 4.293h.012l-.245-4.504 1.587-.085.33 6.108-2.03.108-4.112-4.322h-.011l.244 4.532-1.587.085-.33-6.107ZM86.105 29.423l-2.543-4.305 1.826.21 1.689 3.014h.011l2.264-2.559 1.842.21-3.423 3.623-.245 2.115-1.666-.187.245-2.116v-.005ZM96.656 33.529c-.523-.49-.87-1.024-1.04-1.615a2.772 2.772 0 0 1 .08-1.792 2.806 2.806 0 0 1 1.108-1.404c.518-.341 1.138-.53 1.843-.558.71-.028 1.467.108 2.275.404.813.302 1.473.694 1.99 1.177.518.484.859 1.024 1.035 1.615a2.765 2.765 0 0 1-.08 1.792 2.762 2.762 0 0 1-1.109 1.399c-.517.335-1.131.523-1.836.551-.706.034-1.462-.102-2.275-.398-.808-.296-1.467-.688-1.99-1.177v.006Zm3.816.261a2.226 2.226 0 0 0 1.143-.358c.325-.216.552-.5.689-.87.136-.37.153-.74.045-1.109a2.287 2.287 0 0 0-.637-1.012c-.318-.307-.722-.546-1.217-.728-.5-.182-.967-.267-1.41-.239-.444.029-.82.142-1.143.353-.324.21-.552.5-.688.87a1.708 1.708 0 0 0-.04 1.103c.108.37.318.71.637 1.012.318.302.728.546 1.228.734.495.182.961.261 1.399.239l-.006.005ZM107.202 31.475l5.294 3.06-.614 1.063-3.85-2.23-.733 1.263 3.406 1.968-.529.915-3.406-1.967-1.189 2.053-1.444-.836 3.059-5.295.006.006ZM118.02 40.358l-1.922-1.73.819-.915 5.09 4.567-.819.916-1.917-1.724-3.264 3.64-1.245-1.12 3.264-3.64-.006.006ZM123.592 43.929l1.046 1.296-1.802 1.456 2.524 3.128 1.803-1.456 1.047 1.297-4.76 3.838-1.047-1.296 2.025-1.638-2.525-3.128-2.025 1.632-1.046-1.296 4.76-3.845v.012ZM129.67 51.869l3.088 5.42-.972.55-2.292-4.014-1.194.682 2.121 3.714-.864.495-2.121-3.714-1.308.745 2.331 4.089-.978.557-3.133-5.493 5.311-3.031h.011ZM135.143 62.742l.495 1.592-2.479.773 3.434 2.304.649 2.075-3.429-2.314-2.395 4.174-.614-1.98 1.757-3.019-1.069-.716-1.689.528-.494-1.592 5.84-1.82-.006-.005ZM137.691 71.675l.91 6.17-1.103.165-.677-4.572-1.359.2.626 4.23-.984.148-.626-4.23-1.49.22.689 4.658-1.115.165-.921-6.255 6.05-.893v-.006ZM134.773 82.821l3.987-3.014v1.837l-2.798 2.019v.011l2.798 1.956v1.854l-3.987-2.991h-2.132v-1.678h2.132v.006ZM132.626 90.384c.113-.5.278-.95.494-1.347.216-.399.455-.711.717-.939l.995.728c-.239.188-.455.45-.643.78-.187.329-.329.704-.438 1.13a5.124 5.124 0 0 0-.159 1.263c0 .336.029.632.091.887.063.25.148.45.268.586.119.142.25.21.392.21.188 0 .341-.124.461-.369.119-.245.204-.637.261-1.166l.182-1.274c.108-.876.302-1.512.569-1.905.273-.392.665-.591 1.171-.591.398 0 .751.136 1.052.415.302.273.529.66.683 1.16.153.5.233 1.075.233 1.729 0 .426-.046.841-.131 1.245-.085.41-.205.774-.364 1.11-.159.329-.341.602-.546.812l-.961-.625c.176-.188.336-.421.466-.688a4.075 4.075 0 0 0 .416-1.865c0-.313-.035-.598-.097-.854-.063-.255-.148-.454-.256-.591-.108-.142-.233-.21-.375-.21-.171-.006-.307.09-.404.29-.097.199-.176.517-.233.955l-.154 1.274c-.114.972-.318 1.683-.608 2.121-.29.438-.7.665-1.223.671-.404 0-.762-.142-1.069-.426-.307-.285-.546-.683-.711-1.195-.171-.511-.256-1.103-.256-1.774 0-.523.057-1.035.171-1.535l.006-.012ZM63.195 90.408c0-.359.29-.757.643-.876.352-.125.643.068.643.426 0 .359-.285.728-.643.853-.353.125-.637-.045-.643-.403ZM70.167 93.046a4.145 4.145 0 0 1-.96-.313 2.313 2.313 0 0 1-.672-.46c.21-.301.313-.455.518-.75a1.8 1.8 0 0 0 .551.426c.233.125.5.216.808.29.301.074.603.108.898.114.24 0 .45-.012.632-.046a.96.96 0 0 0 .42-.17c.103-.08.148-.171.148-.274 0-.136-.085-.25-.261-.34-.177-.092-.455-.166-.83-.217a58.26 58.26 0 0 0-.905-.136c-.625-.074-1.075-.182-1.359-.359-.284-.176-.42-.443-.42-.807 0-.285.096-.546.295-.774.193-.227.472-.403.825-.528.352-.12.767-.182 1.228-.177.301 0 .597.04.887.114.29.074.552.176.79.301.24.126.433.273.58.433a44.67 44.67 0 0 1-.449.654 2.193 2.193 0 0 0-.489-.364 2.881 2.881 0 0 0-.625-.25 2.626 2.626 0 0 0-.7-.092c-.222 0-.426.023-.608.069a1.076 1.076 0 0 0-.421.193c-.103.08-.148.17-.148.273 0 .12.063.216.21.284.142.069.37.114.677.16.364.045.546.068.904.125.694.102 1.2.284 1.513.517.313.233.478.54.478.91a1 1 0 0 1-.302.734c-.204.199-.483.347-.853.449a4.51 4.51 0 0 1-1.262.13 5.837 5.837 0 0 1-1.092-.119h-.006ZM74.59 88.9c.472.051.71.085 1.183.148v4.356c-.472-.063-.711-.097-1.183-.148V88.9ZM76.88 89.208c.586.091.877.142 1.462.245 1.098 1.478 1.65 2.23 2.747 3.725h.006v-3.213c.454.085.682.13 1.131.216v4.356c-.58-.114-.87-.17-1.45-.279a397.852 397.852 0 0 0-2.764-3.742h-.005v3.23c-.455-.08-.677-.113-1.132-.187v-4.356l.006.005ZM84.696 94.85a3.092 3.092 0 0 1-1.08-.99 2.34 2.34 0 0 1-.382-1.302c0-.472.12-.853.359-1.149.239-.295.58-.5 1.012-.614.432-.114.944-.12 1.535-.028.433.068.83.187 1.189.358.358.17.665.387.915.643.25.255.427.546.535.864-.426.063-.643.091-1.07.142a1.39 1.39 0 0 0-.312-.517 1.883 1.883 0 0 0-.529-.393 2.304 2.304 0 0 0-.694-.222c-.352-.056-.66-.05-.927.023a1.077 1.077 0 0 0-.614.387c-.142.188-.216.426-.216.716 0 .285.08.552.24.797.158.244.386.449.676.614.29.159.631.273 1.018.335a2.4 2.4 0 0 0 .807 0c.245-.045.45-.136.609-.267.159-.13.273-.29.335-.483.438.142.66.21 1.098.34-.091.33-.267.61-.53.831-.26.222-.596.375-1 .455-.404.08-.847.08-1.336.006a4.705 4.705 0 0 1-1.644-.552l.006.006ZM90.121 91.363c1.78.13 2.667.148 4.447 0v.796c-1.32.114-1.973.12-3.293.068v.978c1.218.046 1.832.046 3.049-.05v.71a22.74 22.74 0 0 1-3.049.051v1.07c1.343.05 2.014.045 3.356-.075v.802c-1.803.16-2.701.142-4.504.012v-4.356l-.006-.006ZM98.09 93.944c0-.358.29-.728.642-.853.353-.125.643.046.643.404 0 .358-.284.75-.642.876-.353.125-.638-.069-.643-.427ZM75.852 73.2c1.325-2.934.637-3.366-3.298-2.308 2.991-2.366 2.792-3.196-1.183-4.004 3.975-.813 4.169-1.649 1.183-4.026 3.935 1.075 4.629.648 3.298-2.286 2.957 2.383 3.907 2.263 4.823-.796.95 2.985 1.91 3.048 4.85.563-1.279 3.036-.597 3.503 3.316 2.417-2.98 2.45-2.764 3.304 1.217 4.145-3.964.82-4.163 1.667-1.155 4.1-3.946-1.08-4.646-.614-3.36 2.417-2.952-2.48-3.919-2.416-4.874.57-.916-3.06-1.865-3.18-4.822-.797l.005.006Z"
  />
</svg>
