<svg
  xmlns="http://www.w3.org/2000/svg"
  width="161"
  height="208"
  fill="none"
  viewBox="0 0 161 208"
>
  <path
    fill="var(--main-theme-2, currentColor)"
    d="M155.172 16.622c0 .086.006.177.011.257.023.45.097.895.228 1.31a5.264 5.264 0 0 0 4.947 3.688v5.42a5.27 5.27 0 0 0-5.186 5.266c0 .934.251 1.818.678 2.581.211.382.473.73.775 1.038a5.236 5.236 0 0 0 3.146 1.595c.194.029.388.04.587.046v5.368c-.171 0-.336.012-.501.029-.012.006-.023.006-.035.011-.171.017-.33.046-.496.08a5.457 5.457 0 0 0-.661.188c-.062.029-.125.046-.182.069a.2.2 0 0 1-.051.022c-.057.029-.109.046-.166.074-.057.029-.108.052-.165.08l-.137.069a4.152 4.152 0 0 0-.376.222c-.062.04-.119.074-.176.114-.063.045-.131.091-.188.142-.063.046-.126.092-.183.149a2.122 2.122 0 0 0-.176.153c-.057.052-.114.109-.171.166a4.425 4.425 0 0 0-.314.347 5.206 5.206 0 0 0-1.208 3.215v.296c0 .063 0 .12.006.177 0 .062.005.13.017.193 0 .063.011.126.017.183.011.057.017.12.028.176.012.08.029.16.046.234l.051.228c.017.057.029.108.046.165.023.063.04.126.057.188.017.057.04.114.057.171l.068.171a4.28 4.28 0 0 0 .171.37v.012c.04.08.086.16.131.24.006.01.012.017.017.028.04.068.08.131.126.194.057.085.108.17.171.25a5.144 5.144 0 0 0 .37.462c.006.012.017.017.023.023.034.04.068.074.102.108.052.052.097.097.149.143.005.011.017.017.022.022l.018.018c.017.017.034.028.045.045.08.074.165.148.251.211.08.063.159.125.245.182.051.04.103.074.16.109l.188.12c.102.062.205.119.313.17.69.354 1.476.553 2.302.57v5.369c-.171 0-.342.017-.507.034-.085.006-.171.023-.251.034-.068.006-.136.023-.199.034l-.291.069c-.079.023-.159.04-.239.068-.08.023-.154.051-.228.074-.074.029-.154.057-.228.086-.074.034-.148.062-.222.096a2.675 2.675 0 0 0-.217.109c-.074.04-.142.074-.211.12-.057.034-.108.062-.165.102-.091.063-.177.12-.268.188-.057.04-.108.074-.159.12-.126.097-.245.2-.365.319a5.21 5.21 0 0 0-1.636 3.807v.051c0 .405.046.792.137 1.169.017.085.04.165.063.245.023.08.045.16.074.239a1.693 1.693 0 0 0 .074.194c.006.017.011.04.023.057.028.09.068.176.108.268.097.216.211.433.342.638.063.103.131.2.199.302.046.063.092.131.149.188.045.068.097.125.153.182.046.063.103.126.16.177.051.057.108.108.165.165l.183.165c.057.052.119.103.182.149.046.04.097.08.148.114.023.022.052.04.074.057.057.04.109.08.166.114.051.04.108.068.165.097.057.04.12.074.182.102a1.3 1.3 0 0 0 .2.103c.057.028.114.057.171.08.342.153.701.273 1.077.353.154.034.308.057.461.074h.029c.165.017.336.029.507.034v5.369a5.28 5.28 0 0 0-4.405 2.496 5.262 5.262 0 0 0-.775 2.553c0 .074-.006.142-.006.21v.052c0 .063 0 .12.006.171a5.88 5.88 0 0 0 .136 1.06 5.268 5.268 0 0 0 5.038 4.03v5.362a5.279 5.279 0 0 0-5.02 3.955c-.08.337-.137.69-.154 1.049v.028c-.006.08-.012.154-.012.24v.051a5.254 5.254 0 0 0 1.761 3.927 5.22 5.22 0 0 0 3.42 1.333v5.369a5.265 5.265 0 0 0-5.181 5.043c0 .075-.005.143-.005.217v.051c0 .074 0 .149.005.223 0 .051 0 .102.012.159.005.091.017.183.028.268.012.097.029.194.046.291.034.182.074.364.131.541.057.205.131.405.211.593.051.131.114.256.176.376.035.063.063.125.097.182.137.24.291.468.468.678l.131.16c.045.051.091.103.142.154a4.632 4.632 0 0 0 .855.729c.057.046.125.08.182.126l.114.068.149.086c.119.068.245.131.37.182.063.029.125.051.188.08h.011c.063.028.132.051.194.074.063.023.131.045.2.068.068.023.136.04.205.057l.205.052c.068.017.142.028.211.039l.188.035c.017 0 .028 0 .04.005.063.012.12.017.182.023.017 0 .029 0 .046.006.137.011.273.017.41.023v5.368c-.068 0-.137 0-.205.017a5.206 5.206 0 0 0-2.964 1.112c-.45.353-.843.775-1.156 1.259a5.22 5.22 0 0 0-.855 2.616 4.354 4.354 0 0 0-.012.291v.022c0 .086 0 .177.012.268.005.16.022.314.045.473.017.097.029.194.052.285.011.052.017.097.028.148.051.217.108.434.188.639l.051.136c.035.086.075.171.109.257.04.091.085.182.136.268.052.097.109.199.171.29.006.018.018.029.023.035.057.096.126.188.188.279 0 0 .006.006.006.011.068.091.137.188.211.274.051.063.108.125.165.188.177.194.371.376.57.541.046.034.097.074.148.109.046.034.091.068.137.096.074.057.154.103.234.154.171.109.353.205.535.291.063.034.131.063.194.091.012.006.023.012.034.012.057.028.12.051.183.074a4.9 4.9 0 0 0 .706.211.91.91 0 0 0 .177.034c.068.017.143.028.211.034.051.011.103.017.154.023.171.023.342.034.518.034v5.368a5.257 5.257 0 0 0-3.476 1.385 5.189 5.189 0 0 0-1.425 2.172 5.223 5.223 0 0 0-.273 1.339v.011c-.006.063-.012.126-.012.188v.217a5.293 5.293 0 0 0 .536 2.302c0 .012.011.017.011.029.04.08.08.154.126.228l.068.119c.057.097.114.189.177.28a4.22 4.22 0 0 0 .484.604 5.273 5.273 0 0 0 .781.689c.063.046.131.086.194.131.319.217.667.399 1.026.53h.011a5.092 5.092 0 0 0 1.778.342v5.369a5.265 5.265 0 0 0-5.152 4.656 3.257 3.257 0 0 0-.028.41c0 .046 0 .092-.006.143V160.256c0 .057 0 .114.011.17 0 .057.006.109.018.166 0 .068.011.137.022.199.023.2.057.399.109.593.028.131.068.256.108.382.017.062.04.125.063.188.199.553.495 1.06.86 1.499.046.062.097.125.154.182.051.057.103.12.16.177.108.114.222.222.342.319.062.051.119.102.182.148.051.046.102.086.159.125a.203.203 0 0 0 .057.04c.057.04.114.08.171.114.063.046.126.086.188.12.018.006.029.017.046.023a13.305 13.305 0 0 0 .45.233l.04.018a.737.737 0 0 0 .131.051c.074.034.148.063.223.085.136.052.273.092.416.131l.199.052c.188.045.382.074.576.097.165.017.33.028.501.034v5.368c-.08 0-.165.006-.245.017a5.575 5.575 0 0 0-.821.114c-.21.046-.416.103-.615.177a5.265 5.265 0 0 0-3.499 4.958 5.277 5.277 0 0 0 2.376 4.394c.319.211.667.393 1.026.53h.011c.223.086.456.16.701.211.348.08.713.125 1.078.125v5.42a6.313 6.313 0 0 0-.736.063 5.217 5.217 0 0 0-2.644 1.231 4.926 4.926 0 0 0-.855.963 5.202 5.202 0 0 0-.952 3.003 5.273 5.273 0 0 0 5.107 5.266l.017.262c.023.32.04.639.063.952V202.765h-.023a.902.902 0 0 0-.183-.017 1.04 1.04 0 0 0-.136-.012c-.086 0-.177-.005-.268-.005h-.24a5.258 5.258 0 0 0-4.679 3.385 5.262 5.262 0 0 0-.313 1.339 3.436 3.436 0 0 0-.029.422h-5.425a5.261 5.261 0 0 0-4.764-5.129 1.79 1.79 0 0 0-.257-.017h-.245c-.137 0-.268 0-.399.011-.057.011-.125.011-.176.017a5.252 5.252 0 0 0-4.577 4.2 5.55 5.55 0 0 0-.097.929h-5.425a5.257 5.257 0 0 0-4.577-5.106 1.683 1.683 0 0 0-.25-.023c-.114-.017-.223-.017-.337-.017H127.646c-.149.011-.297.023-.445.04a5.255 5.255 0 0 0-3.704 2.319v.012c-.251.37-.445.769-.593 1.197a5.357 5.357 0 0 0-.274 1.584h-5.431a5.254 5.254 0 0 0-5.021-5.146h-.262a5.256 5.256 0 0 0-4.605 2.764 5.139 5.139 0 0 0-.632 2.388h-5.426a5.25 5.25 0 0 0-4.285-5.055 4.22 4.22 0 0 0-.736-.092h-.479c-.068 0-.125.006-.187.017-.069 0-.143.012-.211.023-.131.012-.263.04-.388.063a4.057 4.057 0 0 1-.205.046 5.161 5.161 0 0 0-1.84.843 5.232 5.232 0 0 0-2.188 4.166h-5.427a5.254 5.254 0 0 0-4.667-5.118c-.069-.011-.137-.017-.205-.023h-.012c-.057-.005-.108-.011-.165-.011H79.797c-.086 0-.166.011-.251.017-.166.017-.331.04-.485.069-.319.056-.627.148-.929.267a5.284 5.284 0 0 0-3.351 4.799h-5.425a5.26 5.26 0 0 0-5.015-5.146h-.446c-.107 0-.216.005-.324.023-.063.005-.114.017-.17.017-.32.039-.628.114-.924.211a5.263 5.263 0 0 0-3.642 4.895h-5.42a5.252 5.252 0 0 0-3.539-4.856c-.062-.028-.13-.045-.194-.068a.641.641 0 0 0-.09-.029c-.052-.017-.103-.034-.16-.045a5.746 5.746 0 0 0-.77-.137c-.05 0-.09-.006-.142-.011a2.901 2.901 0 0 0-.228-.012H47.882c-.166.012-.33.029-.502.052h-.017a5.252 5.252 0 0 0-4.474 5.095h-5.425a5.223 5.223 0 0 0-2-4.018 5.21 5.21 0 0 0-3.198-1.129h-.062c-.183 0-.365.006-.542.023-.074.012-.148.017-.222.034-.074.006-.148.023-.222.035a5.274 5.274 0 0 0-4.223 4.45c-.029.2-.046.405-.046.61h-5.426a5.167 5.167 0 0 0-.524-2.182 5.232 5.232 0 0 0-1.043-1.459 5.276 5.276 0 0 0-3.425-1.511h-.484c-.086 0-.171.012-.257.017a5.265 5.265 0 0 0-4.787 5.13H5.578a5.21 5.21 0 0 0-.382-1.87 5.216 5.216 0 0 0-1.009-1.59 5.24 5.24 0 0 0-3.46-1.681c-.045 0-.096-.006-.142-.011H.363v-5.477a5.268 5.268 0 0 0 5.01-4.183c.074-.348.108-.713.108-1.083a5.265 5.265 0 0 0-4.975-5.249c-.052 0-.097-.011-.149-.011v-5.426a5.25 5.25 0 0 0 5.118-5.254c0-.673-.12-1.317-.359-1.904a4.947 4.947 0 0 0-.593-1.111 3.87 3.87 0 0 0-.359-.456c-.005 0-.011-.011-.017-.017a5.272 5.272 0 0 0-3.795-1.773v-5.374a5.26 5.26 0 0 0 5.009-4.183c.074-.347.108-.712.108-1.077v-.148c0-.057 0-.108-.005-.165a1.7 1.7 0 0 0-.017-.24c-.012-.08-.018-.159-.029-.239a5.23 5.23 0 0 0-2.342-3.682 5.43 5.43 0 0 0-1.659-.706 5.06 5.06 0 0 0-1.065-.143v-5.374a5.258 5.258 0 0 0 5.1-4.81c.017-.148.023-.291.023-.439v-.057c0-.125 0-.245-.011-.359-.177-2.69-2.388-4.827-5.112-4.901v-5.38c.05 0 .096 0 .148-.006a5.255 5.255 0 0 0 3.63-1.732 5.222 5.222 0 0 0 1.322-3.049c.012-.086.017-.171.017-.257.006-.068.006-.142.006-.211v-.051c0-.872-.21-1.698-.587-2.416a5.256 5.256 0 0 0-.832-1.18 5.288 5.288 0 0 0-3.699-1.664v-5.374a5.258 5.258 0 0 0 5.027-4.275c.045-.227.074-.467.08-.706.005-.091.011-.183.011-.279v-.177c0-.057 0-.114-.006-.171a5.258 5.258 0 0 0-5.112-4.958v-5.374a5.256 5.256 0 0 0 5.118-5.244v-.017c0-.108 0-.216-.011-.325a4.963 4.963 0 0 0-.137-.968 5.263 5.263 0 0 0-4.97-4.018V85.7a5.273 5.273 0 0 0 3.55-1.516c.383-.37.713-.804.964-1.283a5.64 5.64 0 0 0 .194-.421c.034-.075.062-.148.085-.217.029-.074.057-.148.074-.222a2.66 2.66 0 0 0 .063-.228c.023-.074.04-.154.057-.228.051-.217.085-.439.103-.667a1.13 1.13 0 0 0 .017-.2c.005-.09.011-.182.011-.273 0-.091 0-.177-.006-.262 0-.091-.011-.177-.017-.257a5.254 5.254 0 0 0-5.095-4.792V69.76c.126 0 .251-.011.37-.023l.365-.05c.16-.023.314-.058.473-.103.08-.017.154-.04.228-.063.075-.023.154-.051.223-.074l.222-.086c.074-.034.148-.062.217-.097.074-.034.142-.068.21-.102.069-.04.137-.074.206-.114.068-.04.136-.08.199-.125.068-.04.131-.086.194-.132.057-.04.12-.085.176-.13 0 0 .006 0 .012-.006.051-.04.102-.08.148-.126a.044.044 0 0 0 .023-.022c.051-.046.102-.086.154-.137.051-.046.108-.097.16-.154.05-.051.102-.103.153-.16.051-.057.097-.108.143-.165a5.17 5.17 0 0 0 1.22-2.872l.016-.166c.006-.056.012-.108.012-.165v-.24c0-.067 0-.136-.006-.204a5.224 5.224 0 0 0-.33-1.642 3.28 3.28 0 0 0-.189-.438 5.49 5.49 0 0 0-.347-.616s-.006 0-.006-.006a4.35 4.35 0 0 0-.28-.382c-.096-.125-.204-.239-.313-.353a1.131 1.131 0 0 0-.165-.165 2.348 2.348 0 0 0-.177-.16c-.057-.057-.12-.102-.182-.148a2.144 2.144 0 0 0-.177-.142c-.074-.052-.148-.103-.216-.148-.063-.04-.126-.08-.188-.114a1.911 1.911 0 0 0-.205-.12 2.443 2.443 0 0 0-.211-.108 6.523 6.523 0 0 0-.217-.097c-.068-.034-.142-.057-.216-.086a5.303 5.303 0 0 0-.667-.2 3.116 3.116 0 0 0-.245-.045 1.285 1.285 0 0 0-.205-.034 2.775 2.775 0 0 0-.314-.034 2.047 2.047 0 0 0-.268-.017v-5.375a5.12 5.12 0 0 0 1.112-.154 5.241 5.241 0 0 0 2.24-1.18c.068-.062.142-.125.204-.193.052-.045.092-.091.137-.142l.017-.018c.006 0 .012-.01.012-.01a.61.61 0 0 0 .08-.092c.034-.034.068-.074.096-.108.046-.052.086-.103.126-.154.074-.091.142-.183.205-.285.034-.052.068-.103.103-.16 0-.005.005-.011.01-.017.035-.057.07-.108.104-.17 0-.007.005-.012.01-.018.035-.057.064-.108.092-.17.034-.064.063-.126.091-.189 0-.006 0-.011.006-.017l.051-.108c.017-.04.034-.074.046-.114.034-.074.063-.154.085-.234a.278.278 0 0 0 .023-.063c.023-.062.046-.125.057-.188.012-.023.017-.051.023-.074v-.017c.017-.051.034-.102.046-.16l.034-.142c.011-.04.017-.086.028-.131.012-.057.017-.114.029-.171a.574.574 0 0 0 .017-.142c0-.012.006-.023.006-.035.01-.062.017-.13.022-.194.012-.074.012-.16.017-.239.006-.057.006-.125.006-.182 0-.091 0-.183-.006-.268 0-.08-.011-.171-.017-.256a5.335 5.335 0 0 0-.364-1.534 5.265 5.265 0 0 0-4.73-3.26v-5.374a5.233 5.233 0 0 0 1.698-.336c.057-.017.108-.04.165-.063a5.273 5.273 0 0 0 2.832-2.776c.171-.38.291-.797.36-1.224a4.74 4.74 0 0 0 .074-.86c0-2.862-2.274-5.181-5.118-5.267V21.9a5.248 5.248 0 0 0 5.118-5.255c0-.707-.137-1.385-.388-1.994a5.28 5.28 0 0 0-4.73-3.266V5.977c.08 0 .154 0 .233-.012.08-.006.171-.011.257-.023A5.273 5.273 0 0 0 5.606.7c0-.045-.011-.097-.011-.148h5.425V.7a5.261 5.261 0 0 0 5.044 5.26c.074.006.154.012.222.012h.046A5.27 5.27 0 0 0 21.546.699c0-.045-.011-.097-.011-.148h5.431c0 .051-.011.097-.011.148 0 .268.023.525.062.781a5.26 5.26 0 0 0 4.924 4.48c.092.005.189.01.285.01h.023c.086 0 .171 0 .257-.01.057 0 .114-.006.17-.012l.177-.017c.086-.017.171-.028.262-.04.086-.017.177-.034.257-.051a5.116 5.116 0 0 0 1.425-.542 5.382 5.382 0 0 0 1.236-.963A5.244 5.244 0 0 0 37.493.7c0-.045-.006-.097-.006-.148h5.425c0 .051-.011.097-.011.148 0 2.73 2.068 4.97 4.73 5.243.063.012.131.012.194.018.034 0 .068.005.102.005.08.006.16.012.245.012.086 0 .166 0 .257-.012a1.3 1.3 0 0 0 .256-.023h.029a4.52 4.52 0 0 0 .792-.142 5.256 5.256 0 0 0 1.453-.633A5.265 5.265 0 0 0 53.444.7c0-.045-.012-.097-.012-.148h5.426V.7a5.284 5.284 0 0 0 2.98 4.753c.12.057.24.12.365.16.063.028.126.051.194.068.091.034.183.063.28.086.125.04.25.068.381.09.091.018.183.035.28.052.073.006.148.017.216.023h.034c.086.011.171.017.262.023h.012c.08.006.16.011.245.011h.023c.085 0 .176 0 .256-.011a5.268 5.268 0 0 0 5.015-5.26c0-.046-.011-.097-.011-.149h5.431c0 .052-.011.097-.011.149 0 1.806.906 3.396 2.296 4.348.342.24.718.433 1.117.581.251.097.508.171.775.228.012 0 .023.006.035.006.12.023.245.051.37.063.142.017.285.034.433.04.08.005.165.01.245.01.08 0 .165 0 .245-.01A5.273 5.273 0 0 0 85.347.7c0-.046-.011-.098-.011-.149h5.425c0 .051-.005.097-.005.148 0 1.151.376 2.223.997 3.095.256.347.547.661.872.935a5.28 5.28 0 0 0 1.71.968h.017c.108.04.228.074.342.103h.011c.034.006.074.017.108.023.091.023.194.045.29.062.012.006.018.006.03.012.136.017.267.04.404.051.08 0 .154.012.24.012.08.005.159.01.239.01.08 0 .165 0 .25-.01A5.272 5.272 0 0 0 101.283.7V.55h5.425V.7c0 .587.091 1.146.274 1.676.142.433.336.843.587 1.22a5.222 5.222 0 0 0 3.026 2.194c.011 0 .023 0 .034.005h.012c.142.046.29.069.444.091.074.018.148.029.228.04l.2.017c.074.012.142.012.216.018.074.005.148.01.217.01h.022A5.274 5.274 0 0 0 117.239.7c0-.046-.011-.098-.011-.149h5.431c0 .051-.012.097-.012.148 0 .091 0 .188.012.285.028.502.12.986.279 1.442a5.273 5.273 0 0 0 3.562 3.345c.034.012.063.018.091.023.063.017.131.034.194.046.08.017.16.04.245.051.08.017.16.023.245.034.068.006.143.012.211.023.063 0 .125.006.182.012.086.005.166.01.245.01.069 0 .143 0 .211-.01A5.263 5.263 0 0 0 133.179.7c0-.046-.005-.098-.011-.149h5.425c0 .051-.005.097-.005.148 0 .211.011.416.034.621a5.272 5.272 0 0 0 4.981 4.645c.08.006.165.012.251.012.153 0 .307-.012.461-.023.012 0 .023-.006.029-.006.256-.023.513-.063.758-.131a5.245 5.245 0 0 0 3.522-2.89c.319-.672.496-1.43.496-2.228V.551h5.425c0 .051-.011.097-.011.148a5.269 5.269 0 0 0 3.653 5.015c.028.006.051.018.074.023.091.034.182.052.279.074.131.035.262.063.399.086.08.017.171.028.256.04.2.022.405.034.61.034.074 0 .148 0 .223-.011h.039c.057 0 .12-.012.177-.018h.125c.018 0 .029 0 .04-.005v5.448h-.051a5.263 5.263 0 0 0-5.135 5.26l-.051-.023Z"
  />
  <path
    fill="var(--main-theme-1, currentColor)"
    d="M69.696 185.432h1.384v-1.947h-.011a1.133 1.133 0 0 1-.4.36c-.168.096-.394.18-.664.259l-.185-.698c.31-.079.574-.185.787-.309.214-.124.389-.287.524-.495h.894v2.824h1.03v.636H69.69v-.636l.006.006Zm5.053.636a3.292 3.292 0 0 1-.726-.27 2.066 2.066 0 0 1-.529-.405l.462-.535c.112.146.247.27.41.377.164.101.355.18.563.231.208.05.433.079.675.079.254 0 .484-.04.676-.124.191-.085.349-.203.456-.36a.984.984 0 0 0 .163-.569 1.51 1.51 0 0 1-.53.315c-.185.068-.427.096-.714.096-.36 0-.68-.051-.95-.146a1.42 1.42 0 0 1-.626-.411.927.927 0 0 1-.213-.613.93.93 0 0 1 .253-.636c.169-.186.4-.332.692-.434.293-.101.63-.152 1.002-.152.416 0 .77.057 1.063.175.293.112.523.293.681.529.158.236.242.54.242.911 0 .445-.079.816-.242 1.12a1.585 1.585 0 0 1-.731.692c-.321.158-.72.237-1.188.237-.326 0-.624-.034-.895-.101l.006-.006Zm1.61-1.795a.892.892 0 0 0 .365-.214.42.42 0 0 0 .13-.315.466.466 0 0 0-.13-.321.818.818 0 0 0-.371-.219 1.75 1.75 0 0 0-.54-.079 1.58 1.58 0 0 0-.518.079.795.795 0 0 0-.355.225.467.467 0 0 0-.123.32c0 .119.045.22.129.31a.87.87 0 0 0 .36.214c.152.05.332.079.523.079.192 0 .378-.029.53-.079Zm3.145 1.761c-.304-.084-.535-.202-.709-.36a.738.738 0 0 1-.253-.557c0-.152.04-.287.118-.411a.953.953 0 0 1 .326-.309 1.45 1.45 0 0 1 .484-.175 1.418 1.418 0 0 1-.371-.174.762.762 0 0 1-.242-.265.696.696 0 0 1-.084-.337c0-.197.073-.366.225-.507.152-.141.36-.247.624-.321a3.43 3.43 0 0 1 .912-.112c.343 0 .653.039.923.112.27.074.478.186.624.327.147.14.225.309.225.512a.677.677 0 0 1-.084.332.844.844 0 0 1-.23.264 1.085 1.085 0 0 1-.35.175c.175.034.333.095.462.174a.893.893 0 0 1 .31.304.76.76 0 0 1 .106.4.757.757 0 0 1-.253.574c-.169.157-.405.281-.709.36a3.886 3.886 0 0 1-1.035.124c-.389 0-.732-.045-1.03-.124l.011-.006Zm1.548-.506a.874.874 0 0 0 .354-.186.361.361 0 0 0 .124-.276.371.371 0 0 0-.124-.281.874.874 0 0 0-.354-.186 1.833 1.833 0 0 0-.518-.067c-.191 0-.36.022-.518.067a.838.838 0 0 0-.354.186.373.373 0 0 0-.13.27c0 .113.045.203.13.287a.818.818 0 0 0 .354.186c.152.045.321.067.518.067s.366-.022.518-.067Zm-.074-1.559a.713.713 0 0 0 .304-.169.347.347 0 0 0 .107-.259c0-.101-.04-.18-.112-.253a.707.707 0 0 0-.304-.163 1.49 1.49 0 0 0-.44-.056c-.174 0-.32.016-.45.056a.707.707 0 0 0-.303.163.351.351 0 0 0-.113.253c0 .096.04.186.113.259.073.073.174.13.304.169.13.039.281.056.444.056.163 0 .315-.022.445-.056h.005Zm3.405 2.105a3.245 3.245 0 0 1-.726-.271 2.043 2.043 0 0 1-.529-.405l.462-.534c.112.146.247.27.41.377.163.101.355.18.563.23.208.051.433.079.675.079.254 0 .484-.039.676-.124a1.04 1.04 0 0 0 .455-.36.979.979 0 0 0 .164-.568 1.524 1.524 0 0 1-.53.315c-.185.068-.427.096-.714.096-.36 0-.681-.051-.951-.147a1.41 1.41 0 0 1-.625-.41.93.93 0 0 1-.213-.614c0-.231.084-.45.253-.636.168-.185.4-.332.692-.433.293-.101.63-.152 1.002-.152.416 0 .77.056 1.063.175.293.112.523.292.681.529.157.236.242.54.242.911 0 .445-.079.816-.242 1.12a1.585 1.585 0 0 1-.732.692c-.32.158-.72.236-1.187.236-.326 0-.625-.033-.895-.101l.006-.005Zm1.61-1.796a.88.88 0 0 0 .365-.213c.09-.09.13-.192.13-.316a.464.464 0 0 0-.13-.32.827.827 0 0 0-.371-.22 1.78 1.78 0 0 0-.54-.079c-.203 0-.366.029-.518.079a.812.812 0 0 0-.355.225.471.471 0 0 0-.123.321c0 .118.045.22.129.31s.208.163.36.213c.152.051.332.079.523.079.192 0 .377-.028.53-.079ZM53.713 35.612h1.267l1.378 2.622 1.373-2.622h1.278v3.46h-.9v-2.48h-.012l-1.289 2.48h-.877l-1.317-2.48h-.012v2.48h-.9v-3.46h.011Zm6.18 0h.939v3.46h-.94v-3.46Zm2.897 3.337c-.371-.146-.658-.355-.855-.63a1.61 1.61 0 0 1-.304-.98c0-.376.096-.697.287-.967.191-.27.461-.484.805-.636.343-.152.748-.225 1.215-.225.343 0 .658.05.946.146.286.096.528.236.725.417.197.18.338.393.422.635l-.85.214a.94.94 0 0 0-.247-.377 1.117 1.117 0 0 0-.422-.247 1.575 1.575 0 0 0-.551-.09c-.282 0-.524.044-.732.14a1.09 1.09 0 0 0-.484.394 1.064 1.064 0 0 0-.169.602c0 .23.062.428.192.602.123.175.303.304.534.394.231.09.501.135.81.135.231 0 .445-.033.642-.095a1.27 1.27 0 0 0 .484-.276.941.941 0 0 0 .264-.416l.873.174c-.073.27-.214.5-.422.703a2.03 2.03 0 0 1-.794.456c-.32.107-.675.158-1.058.158-.5 0-.934-.074-1.305-.22l-.006-.011Zm4.31-3.337h.946v1.311h2.273v-1.311h.946v3.46h-.946v-1.474h-2.273v1.475h-.945v-3.461Zm5.037 0h3.528v.63H73.05v.777h2.42v.563h-2.42v.85h2.661v.635h-3.579v-3.46l.006.005Zm4.3 0h.945v2.746h2.144v.715h-3.09v-3.461Zm6.437 3.337a1.841 1.841 0 0 1-.81-.63 1.567 1.567 0 0 1-.287-.929c0-.365.1-.692.303-.973a1.94 1.94 0 0 1 .85-.659 3.104 3.104 0 0 1 1.244-.236 3.2 3.2 0 0 1 .945.135c.287.09.53.214.726.377.197.163.32.343.377.552l-.872.185a.673.673 0 0 0-.23-.298 1.134 1.134 0 0 0-.423-.203 1.747 1.747 0 0 0-.518-.073c-.281 0-.534.05-.748.152-.22.102-.388.242-.512.417a1.023 1.023 0 0 0-.186.607c0 .231.068.428.203.602.135.175.32.31.557.411.236.102.512.147.821.147.26 0 .49-.04.704-.119.214-.078.388-.18.517-.31a.684.684 0 0 0 .209-.444h-2.229v-.534h3.14v1.964h-.754l-.056-.62a1.643 1.643 0 0 1-.445.383 2.26 2.26 0 0 1-.607.248 2.97 2.97 0 0 1-.72.084 2.93 2.93 0 0 1-1.182-.225l-.017-.011Zm4.575-3.337h.94v3.46h-.94v-3.46Zm4.282 3.421c-.281-.09-.5-.225-.675-.4a1.09 1.09 0 0 1-.31-.607l.918-.191c.016.14.067.264.163.371a.886.886 0 0 0 .354.242c.147.056.316.085.507.085s.349-.023.49-.074a.666.666 0 0 0 .32-.208.49.49 0 0 0 .113-.315.538.538 0 0 0-.107-.338.628.628 0 0 0-.304-.219 1.312 1.312 0 0 0-.467-.073c-.163 0-.31.022-.45.073a.826.826 0 0 0-.321.18l-.749-.124.107-1.823h2.746v.608h-1.963l-.046.748c.113-.073.248-.124.411-.163.163-.04.327-.056.49-.056.32 0 .602.05.838.146.237.096.422.236.552.41.13.175.197.39.197.631 0 .242-.079.473-.231.658a1.411 1.411 0 0 1-.653.428 2.954 2.954 0 0 1-1.001.152c-.355 0-.67-.045-.946-.14h.017Zm6.623-3.308c.321.14.586.332.788.585l-.422.5a1.868 1.868 0 0 0-.371-.36 1.53 1.53 0 0 0-.462-.225 2.065 2.065 0 0 0-.58-.078c-.236 0-.433.045-.607.129a.9.9 0 0 0-.394.371 1.1 1.1 0 0 0-.14.552c.174-.146.348-.248.534-.315.186-.062.428-.096.726-.096.354 0 .67.05.945.14.276.09.479.232.625.412a.958.958 0 0 1-.04 1.249c-.168.186-.399.332-.697.433a3.235 3.235 0 0 1-1.036.152c-.388 0-.743-.056-1.035-.169a1.395 1.395 0 0 1-.675-.534c-.158-.242-.237-.546-.237-.906 0-.434.073-.8.209-1.103a1.47 1.47 0 0 1 .641-.704c.293-.163.664-.247 1.109-.247.444 0 .799.067 1.12.208v.006Zm-1.637 1.682a.853.853 0 0 0-.366.214.426.426 0 0 0-.13.31c0 .118.046.23.136.326.09.096.214.174.371.225.158.056.338.079.54.079.192 0 .366-.028.518-.085a.82.82 0 0 0 .355-.225.45.45 0 0 0 .123-.32.443.443 0 0 0-.129-.316.93.93 0 0 0-.36-.214 1.537 1.537 0 0 0-.53-.078c-.196 0-.37.022-.528.073v.011Zm4.085 1.626a1.633 1.633 0 0 1-.675-.4 1.09 1.09 0 0 1-.31-.607l.918-.191c.017.14.067.264.163.371a.888.888 0 0 0 .354.242c.147.056.316.085.507.085s.349-.023.489-.074a.664.664 0 0 0 .321-.208.492.492 0 0 0 .113-.315.539.539 0 0 0-.107-.338.631.631 0 0 0-.304-.219 1.312 1.312 0 0 0-.467-.073c-.163 0-.31.022-.45.073a.827.827 0 0 0-.321.18l-.748-.124.106-1.823h2.747v.608h-1.964l-.045.748c.112-.073.247-.124.41-.163.164-.04.327-.056.49-.056.321 0 .602.05.838.146.237.096.423.236.552.41.129.175.197.39.197.631 0 .242-.079.473-.231.658a1.41 1.41 0 0 1-.653.428 2.95 2.95 0 0 1-1.001.152c-.355 0-.67-.045-.946-.14h.017ZM59.617 96.775c-2.836-1.222-5.047-2.943-6.623-5.172-1.575-2.228-2.369-4.76-2.369-7.597 0-2.993.827-5.655 2.487-7.973 1.655-2.319 3.973-4.125 6.944-5.408 2.972-1.289 6.365-1.93 10.186-1.93 2.785 0 5.357.365 7.715 1.091 2.357.732 4.338 1.756 5.925 3.084 1.593 1.328 2.611 2.825 3.061 4.496l-7.157 1.514c-.321-.9-.951-1.71-1.891-2.425-.94-.715-2.088-1.272-3.438-1.672-1.351-.4-2.758-.596-4.215-.596-2.308 0-4.356.41-6.145 1.232-1.79.822-3.19 1.959-4.198 3.4-1.008 1.445-1.514 3.11-1.514 4.99 0 1.88.552 3.495 1.649 4.913 1.097 1.418 2.628 2.532 4.575 3.343 1.947.81 4.198 1.215 6.741 1.215 2.094 0 4.018-.32 5.768-.957 1.75-.635 3.157-1.485 4.215-2.543 1.058-1.058 1.632-2.28 1.71-3.658h-18.26v-4.378h25.7v23.584h-5.65l-.99-12.566h-.04c-.956 1.193-2.166 2.234-3.64 3.123-1.475.89-3.135 1.565-4.992 2.032-1.857.461-3.82.698-5.886.698-3.607 0-6.831-.608-9.668-1.83v-.01Zm35.047-27.287h7.676V97.81h-7.676V69.488Zm12.453 0h22.717c2.071 0 3.861.32 5.369.957 1.513.636 2.678 1.553 3.5 2.746.821 1.193 1.232 2.572 1.232 4.136 0 .9-.18 1.755-.534 2.566a5.856 5.856 0 0 1-1.554 2.088 6.782 6.782 0 0 1-2.329 1.31v.119c1.592.371 2.864 1.154 3.821 2.347.956 1.192 1.429 2.6 1.429 4.214 0 1.615-.433 2.91-1.294 4.12s-2.077 2.127-3.641 2.762c-1.564.636-3.41.957-5.532.957h-23.19V69.488h.006Zm20.528 11.654c.901 0 1.705-.14 2.409-.416.703-.276 1.238-.681 1.609-1.216.372-.529.557-1.142.557-1.829 0-1.035-.416-1.873-1.255-2.526-.832-.647-1.958-.974-3.359-.974h-12.768v6.961h12.807Zm.276 11.936c1.007 0 1.896-.147 2.667-.44.771-.292 1.373-.737 1.812-1.333a3.307 3.307 0 0 0 .659-2.009c0-1.142-.479-2.054-1.43-2.746-.956-.692-2.189-1.035-3.697-1.035h-13.089v7.557h13.089l-.011.006Zm-84.127 36.796c-.85-.371-1.554-.866-2.11-1.491a20.898 20.898 0 0 1-1.633-2.088l-2.15-4.215c-.506-.849-1.153-1.513-1.946-1.986a4.927 4.927 0 0 0-2.583-.715h-5.2v10.264h-7.754v-28.322h18.604c2.386 0 4.417.349 6.088 1.053 1.672.703 2.966 1.705 3.877 3.005.918 1.3 1.374 2.853 1.374 4.653 0 1.407-.338 2.668-1.013 3.782-.676 1.114-1.627 2.037-2.842 2.763-1.221.731-2.679 1.199-4.378 1.412v.04c.529.292 1.03.658 1.491 1.091.462.439.855.963 1.176 1.57l2.11 3.821c.293.422.597.754.918.996.32.237.703.361 1.153.361.372 0 .777-.136 1.216-.4a3.24 3.24 0 0 0 1.052-.996l1.79 3.382c-.715.793-1.65 1.424-2.803 1.891-1.153.461-2.313.697-3.483.697s-2.093-.185-2.943-.557l-.011-.011Zm-6.764-15.357c1.164 0 2.166-.157 3.005-.478.832-.321 1.474-.782 1.907-1.39.44-.608.659-1.35.659-2.228 0-.822-.22-1.536-.659-2.15-.439-.608-1.075-1.092-1.907-1.452-.833-.36-1.824-.534-2.966-.534h-8.942v8.232h8.903Zm31.822-13.207h8.953l14.242 28.322h-8.035l-2.746-5.61H65.154l-2.747 5.61h-8.075l14.519-28.322Zm10.54 17.861-6.129-12.689h-.078l-6.128 12.689h12.335Zm15.553-17.861h7.715v22.475h17.54v5.847H94.94V101.31h.005Zm-54.91 37.511H28.06v-5.689h31.664v5.689H47.79v22.633h-7.754v-22.633Zm28.997-5.689h8.953l14.242 28.322h-8.035l-2.746-5.61H65.334l-2.746 5.61h-8.075l14.518-28.322Zm10.54 17.861-6.128-12.689h-.08l-6.127 12.689h12.335Zm42.322 10.703c-.849-.371-1.553-.866-2.11-1.491a20.913 20.913 0 0 1-1.632-2.088l-2.15-4.214c-.506-.85-1.153-1.514-1.947-1.987a4.926 4.926 0 0 0-2.582-.715h-9.15v10.265h-7.755v-28.322h22.554c2.386 0 4.418.354 6.089 1.052 1.671.703 2.966 1.705 3.877 3.005.917 1.3 1.373 2.853 1.373 4.654 0 1.406-.337 2.667-1.013 3.781-.675 1.114-1.626 2.037-2.841 2.763-1.222.732-2.679 1.199-4.378 1.412v.04a7.452 7.452 0 0 1 1.491 1.092c.461.438.855.962 1.176 1.57l2.11 3.82c.293.423.597.755.917.997.321.236.704.36 1.154.36.371 0 .776-.135 1.215-.4a3.247 3.247 0 0 0 1.053-.996l1.789 3.382c-.714.794-1.649 1.424-2.802 1.891-1.154.461-2.313.698-3.483.698-1.171 0-2.094-.186-2.944-.557l-.011-.012Zm-6.764-15.357c1.165 0 2.167-.157 3.005-.478.833-.321 1.475-.782 1.908-1.39.439-.608.658-1.35.658-2.228 0-.822-.219-1.536-.658-2.15-.439-.608-1.075-1.091-1.908-1.452-.833-.36-1.823-.534-2.965-.534h-12.887v8.232h12.847Z"
  />
  <path
    fill="var(--main-theme-2, currentColor)"
    d="M78.199 163.874c.045-.034.118-.096.22-.175.1-.084.219-.236.354-.455.135-.225.287-.546.45-.968.163-.422.332-.996.512-1.722.096-.388.214-.878.371-1.48.152-.597.321-1.238.501-1.919s.366-1.379.552-2.105c.185-.72.371-1.406.545-2.059.175-.653.333-1.238.473-1.767.14-.529.253-.94.332-1.233a6.5 6.5 0 0 0-.653.473c-.185.152-.388.327-.596.518a10.27 10.27 0 0 0-.613.608 1.563 1.563 0 0 1-.355-.422c-.045-.074-.09-.147-.124-.231a1.522 1.522 0 0 1-.107-.546c0-.186.147-.383.44-.58.151-.107.382-.258.691-.455.31-.197.693-.394 1.154-.591a9.61 9.61 0 0 1 1.598-.501 8.968 8.968 0 0 1 2.02-.208c.737 0 1.334.146 1.784.439.45.292.8.652 1.036 1.074.242.422.393.867.467 1.34.067.467.09.878.05 1.232-.073.658-.281 1.345-.636 2.06a7.218 7.218 0 0 1-1.457 1.98c-.619.603-1.379 1.115-2.268 1.537-.889.422-1.913.664-3.061.72-.096.445-.186.9-.281 1.373a45.33 45.33 0 0 1-.299 1.379c-.107.45-.214.872-.326 1.266a9.203 9.203 0 0 1-.343 1.013c-.118.304-.27.546-.456.731-.186.18-.49.27-.895.27-.208 0-.405-.05-.59-.157a1.908 1.908 0 0 1-.501-.439h.01Zm4.17-8.019c-.034.186-.08.433-.13.732-.05.298-.112.635-.186 1.012.316-.045.67-.129 1.053-.253a6.634 6.634 0 0 0 1.159-.501 7.454 7.454 0 0 0 1.137-.765c.371-.298.709-.647 1.013-1.035.303-.394.557-.839.765-1.34.202-.5.337-1.052.394-1.66.056-.585.028-1.074-.096-1.468a2.39 2.39 0 0 0-.534-.951 2.001 2.001 0 0 0-.81-.512 2.857 2.857 0 0 0-.918-.152c-.31 0-.58.039-.861.123a6.427 6.427 0 0 0-.844.316.301.301 0 0 1 .124.09.597.597 0 0 1 .157.298 313.17 313.17 0 0 0-.692 2.847c-.18.76-.326 1.385-.433 1.863-.13.563-.23 1.013-.299 1.356ZM97.375 157.701a12.845 12.845 0 0 1-1.198 1.503c-.445.489-.918.922-1.418 1.299-.501.383-1.008.687-1.531.923a3.661 3.661 0 0 1-1.52.349c-.258 0-.534-.062-.832-.185a2.362 2.362 0 0 1-.816-.574 2.768 2.768 0 0 1-.591-1.002c-.146-.411-.191-.906-.13-1.497.046-.478.198-.985.45-1.519a6.827 6.827 0 0 1 .935-1.469 5.393 5.393 0 0 1 1.25-1.109c.46-.292.928-.439 1.395-.439.467 0 .765.113.968.332.197.226.287.501.264.828a2.429 2.429 0 0 1-.31 1.001c-.168.304-.37.58-.607.828a6.436 6.436 0 0 1-.749.669c-.264.197-.512.383-.748.546-.259.174-.507.343-.737.501-.237.157-.44.304-.614.433.012.293.062.54.158.737.096.197.208.36.349.484.14.124.304.208.484.265.18.05.365.078.551.078.4 0 .816-.123 1.25-.377a8.928 8.928 0 0 0 1.277-.911c.416-.36.805-.732 1.16-1.114.36-.389.652-.721.888-1.002a.477.477 0 0 1 .253-.169c.09-.017.158-.005.214.034.05.039.079.113.079.208 0 .096-.04.214-.124.343v.006Zm-4.502-2.707c-.14 0-.31.068-.5.209-.192.14-.383.343-.574.607a5.341 5.341 0 0 0-.53.968 5.827 5.827 0 0 0-.37 1.311c.14-.107.292-.214.455-.326.163-.113.326-.231.495-.36.507-.388.856-.726 1.058-1.019.197-.292.31-.546.332-.754.023-.225 0-.382-.073-.484a.339.339 0 0 0-.298-.152h.005Z"
  />
  <path
    fill="var(--main-theme-2, currentColor)"
    d="M101.694 161.797c-.27 0-.5-.051-.692-.152a1.335 1.335 0 0 1-.467-.394 1.38 1.38 0 0 1-.231-.574 1.842 1.842 0 0 1 .034-.692c.034-.163.096-.383.175-.658.084-.276.168-.574.253-.895.09-.321.169-.647.248-.968.078-.321.123-.613.151-.878a1.963 1.963 0 0 0-.033-.653c-.045-.169-.147-.253-.299-.253-.185 0-.382.062-.579.186-.197.124-.4.292-.608.501-.203.213-.41.455-.613.731a37.02 37.02 0 0 0-.608.856c-.107.399-.191.748-.264 1.046l-.186.81c-.056.242-.101.451-.152.631-.045.18-.09.354-.124.517-.034.119-.14.231-.315.344a2.637 2.637 0 0 1-.563.27 1.52 1.52 0 0 1-.517.107c-.147 0-.209-.051-.186-.158.011-.073.05-.231.112-.473.062-.247.141-.534.231-.872.09-.337.18-.686.27-1.063.09-.377.18-.732.265-1.075.056-.27.123-.568.191-.895.056-.281.13-.608.22-.985s.19-.787.309-1.232c.084-.073.169-.124.253-.169.09-.039.18-.073.27-.095a1.64 1.64 0 0 1 .298-.074 1.46 1.46 0 0 1 .535.079.729.729 0 0 1 .236.13 4.224 4.224 0 0 0-.123.343c-.045.146-.096.304-.141.467a6.69 6.69 0 0 1-.174.58 9.32 9.32 0 0 1 .517-.642c.192-.214.405-.411.63-.591.231-.174.473-.321.732-.433.259-.113.523-.169.793-.169a.97.97 0 0 1 .597.191c.174.13.315.31.411.535.101.231.157.501.174.816.017.315-.028.664-.129 1.035l-.192.777a24.224 24.224 0 0 1-.545 1.969 1.843 1.843 0 0 0-.079.67c.017.186.129.281.343.281.214 0 .478-.129.799-.388.321-.259.647-.568.974-.934.326-.366.641-.737.934-1.114.292-.377.517-.687.669-.923.107-.152.203-.253.299-.298.095-.045.168-.051.219-.017.051.034.079.112.079.236 0 .124-.045.282-.141.467a9.256 9.256 0 0 1-.377.653c-.169.27-.371.557-.608.861-.236.304-.489.613-.754.923a8.51 8.51 0 0 1-.844.844 5.011 5.011 0 0 1-.872.613c-.287.158-.563.237-.816.237l.011.011Z"
  />
  <path
    fill="var(--main-theme-2, currentColor)"
    d="M110.378 161.797c-.27 0-.501-.051-.692-.152a1.335 1.335 0 0 1-.467-.394 1.366 1.366 0 0 1-.231-.574 1.822 1.822 0 0 1 .034-.692c.034-.163.095-.383.174-.658.085-.276.169-.574.253-.895.091-.321.169-.647.248-.968.079-.321.124-.613.152-.878a1.96 1.96 0 0 0-.034-.653c-.045-.169-.146-.253-.298-.253-.186 0-.383.062-.58.186a3.525 3.525 0 0 0-.607.501 7.494 7.494 0 0 0-.614.731c-.202.276-.405.563-.607.856-.107.399-.192.748-.265 1.046-.067.298-.129.569-.186.81-.05.242-.101.451-.152.631-.045.18-.09.354-.123.517-.034.119-.141.231-.315.344a2.651 2.651 0 0 1-.563.27 1.523 1.523 0 0 1-.518.107c-.146 0-.208-.051-.186-.158.012-.073.051-.231.113-.473.062-.247.141-.534.231-.872.09-.337.18-.686.27-1.063.09-.377.18-.732.264-1.075.056-.27.124-.568.192-.895.056-.281.129-.608.219-.985s.191-.787.31-1.232c.084-.073.168-.124.253-.169.09-.039.18-.073.27-.095.096-.034.191-.057.298-.074a1.469 1.469 0 0 1 .535.079.726.726 0 0 1 .236.13 4.066 4.066 0 0 0-.124.343c-.045.146-.095.304-.14.467a6.494 6.494 0 0 1-.175.58c.152-.209.326-.423.518-.642.191-.214.405-.411.63-.591.231-.174.473-.321.732-.433a1.96 1.96 0 0 1 .793-.169c.225 0 .422.062.597.191.174.13.315.31.41.535.102.231.158.501.175.816.017.315-.028.664-.13 1.035l-.191.777a24.224 24.224 0 0 1-.546 1.969 1.888 1.888 0 0 0-.079.67c.017.186.13.281.344.281.213 0 .478-.129.799-.388a8.3 8.3 0 0 0 .973-.934c.327-.366.642-.737.934-1.114.293-.383.518-.687.67-.923.107-.152.203-.253.298-.298.096-.045.169-.051.22-.017.05.034.079.112.079.236 0 .124-.046.282-.141.467a9.673 9.673 0 0 1-.985 1.514c-.236.304-.49.613-.754.923a8.51 8.51 0 0 1-.844.844 5.049 5.049 0 0 1-.872.613c-.287.158-.563.237-.816.237l.011.011Z"
  />
  <path
    fill="var(--main-theme-2, currentColor)"
    d="M118.455 154.887c.152-.118.304-.208.45-.27.146-.062.276-.107.394-.129.129-.034.259-.045.388-.034.315.022.512.124.591.298.079.175.085.456.028.844a5.43 5.43 0 0 1-.208.754c-.107.304-.231.676-.371 1.115-.141.438-.293.939-.45 1.502a26.02 26.02 0 0 0-.451 1.902c-.14.574-.292 1.238-.455 1.986-.141.659-.31 1.447-.501 2.375-.192.929-.4 1.987-.625 3.185-.056.293-.186.462-.377.512a.934.934 0 0 1-.608-.073c-.084-.045-.157-.101-.23-.157-.057-.057-.124-.124-.192-.203a.859.859 0 0 1-.174-.31c.27-.984.506-1.879.715-2.689a96.74 96.74 0 0 1 .551-2.111 62.32 62.32 0 0 1 .495-1.862c.056-.248.113-.49.169-.732.051-.242.107-.478.169-.714a6.323 6.323 0 0 1-.495.703 3.385 3.385 0 0 1-.58.58 2.452 2.452 0 0 1-.675.377c-.237.084-.49.112-.749.078-.636-.084-1.08-.315-1.345-.703-.264-.388-.377-.889-.343-1.514.011-.247.045-.517.107-.81.056-.293.124-.574.191-.844.074-.27.135-.512.203-.732.062-.214.113-.371.152-.467.141-.444.242-.827.309-1.142.062-.315.017-.58-.152-.794.164-.106.321-.18.468-.219.146-.039.275-.073.393-.096.13-.011.259-.011.389 0 .315.045.501.164.551.349.051.186.034.467-.062.844a8.114 8.114 0 0 1-.23.766c-.107.309-.22.63-.332.956a29.86 29.86 0 0 0-.316.906c-.095.276-.146.473-.157.591-.107.529-.113.934-.017 1.221.096.287.298.434.613.434.152 0 .321-.068.512-.203.186-.135.377-.315.574-.535.192-.225.383-.478.574-.765a12.48 12.48 0 0 0 .94-1.733c.124-.282.214-.535.27-.754.085-.434.135-.777.158-1.019a.824.824 0 0 0-.248-.669l-.011.005ZM49.462 84.54c.444 0 .827.17 1.153.501.321.332.58.777.766 1.317.185.546.31 1.17.36 1.88.05.709.04 1.44-.045 2.189-.175 1.513-.473 2.768-.895 3.77-.422 1.002-.883 1.8-1.379 2.391-.5.591-1.001 1.013-1.513 1.255-.512.248-.946.372-1.312.372a1.53 1.53 0 0 1-.832-.265c-.276-.174-.524-.456-.749-.844-.225-.388-.405-.883-.546-1.485-.14-.602-.22-1.334-.23-2.19a8.264 8.264 0 0 1 .174-1.783 14.507 14.507 0 0 1 1.362-3.889 9.837 9.837 0 0 1 1.064-1.643 5.417 5.417 0 0 1 1.249-1.153c.444-.287.9-.434 1.373-.434v.011Zm.878 5.42c0-.057.01-.209.033-.45.023-.243.04-.524.045-.845.006-.32 0-.658-.017-1.013a4.353 4.353 0 0 0-.151-.973 2.006 2.006 0 0 0-.36-.737.774.774 0 0 0-.625-.293c-.259 0-.585.225-.974.67-.394.444-.776 1.063-1.142 1.846-.371.787-.687 1.721-.951 2.807-.264 1.087-.388 2.268-.377 3.546 0 .13.017.337.045.624.028.287.084.58.157.873.08.292.186.551.327.776.14.225.32.332.546.332.337 0 .692-.22 1.063-.658.372-.44.715-1.008 1.036-1.7.32-.692.602-1.463.844-2.313.242-.85.405-1.677.5-2.487v-.005ZM56.644 95.885c.096-.422.214-.929.371-1.514.152-.585.31-1.204.473-1.846-.585.023-1.193.068-1.812.141-.619.073-1.294.203-2.02.405a.871.871 0 0 1-.248-.23c-.067-.096-.135-.18-.191-.265-.056-.096-.118-.191-.175-.298a1.852 1.852 0 0 1-.174-.659c-.011-.202.084-.388.281-.551.107-.084.248-.22.434-.405.18-.186.394-.417.641-.687.248-.27.518-.574.816-.911.298-.338.62-.704.957-1.092a48.759 48.759 0 0 0 1.497-1.8c.326-.428.517-.732.562-.907.282-.118.535-.208.755-.27.224-.062.416-.118.58-.169l.472-.107c.337-.056.551-.033.63.073.084.107.079.327-.017.67-.045.163-.124.456-.23.872-.108.417-.226.895-.36 1.435-.136.54-.27 1.115-.406 1.734-.135.613-.259 1.204-.377 1.766.175.023.332.062.473.113.14.05.259.124.354.214.096.09.152.197.17.332a1.07 1.07 0 0 1-.08.484 1.643 1.643 0 0 1-.107.247c-.073.164-.157.377-.264.63a1.026 1.026 0 0 0-.214-.253 1.828 1.828 0 0 0-.264-.202c-.107-.056-.209-.113-.316-.158a68.499 68.499 0 0 0-.422 2.904c-.106.878-.146 1.581-.123 2.11a1.682 1.682 0 0 1-.828.422c-.14.034-.275.05-.405.05-.281 0-.467-.084-.563-.252-.095-.17-.135-.389-.123-.659.011-.208.04-.439.09-.675.045-.242.101-.467.157-.675l.006-.017Zm-1.215-4.328a14.661 14.661 0 0 0 1.378-.112c.366-.05.698-.096.996-.13.107-.41.208-.81.31-1.198.101-.388.197-.749.292-1.092.186-.692.338-1.283.456-1.778.118-.495.208-.895.282-1.216-.141.175-.31.383-.501.614-.192.236-.4.484-.625.748-.225.265-.45.535-.675.81l-.659.783c-.4.478-.804.956-1.215 1.435-.41.472-.754.883-1.036 1.22.13-.022.282-.038.45-.044.17-.006.355-.023.552-.045l-.005.005Z"
  />
  <path
    fill="var(--main-theme-1, currentColor)"
    d="m40.79 109.278-.326.09c-2.257.676-4.513 1.34-6.764 2.032-1.35.411-2.701.821-4.058 1.249v.332h1.148c1.013-.27 2.026-.54 3.04-.822 2.267-.602 4.53-1.249 6.791-1.868l.445-.129a2.014 2.014 0 0 0-.276-.895v.011Zm-5.048 12.521c-.76.444-1.513.883-2.267 1.334a493.85 493.85 0 0 0-3.793 2.25v.693c1.345-.738 2.69-1.48 4.029-2.229.867-.478 1.733-.956 2.594-1.44a4.204 4.204 0 0 0-.563-.614v.006Zm-15.508 9.341-.254.158c.096-.051.192-.102.293-.158h-.04Zm-.012 7.709c2.11-1.406 4.22-2.824 6.325-4.259v-.524a839.336 839.336 0 0 0-6.325 4.783Zm17.788-13.224c-1.457 1.058-2.92 2.116-4.372 3.191-1.266.929-2.527 1.857-3.787 2.791h1.04l3.034-2.104c1.497-1.036 2.982-2.082 4.474-3.129l-.383-.749h-.006Zm.372 14.71c-1.604 1.835-3.202 3.68-4.8 5.526l-6.703 7.783c-2.217 2.622-4.45 5.216-6.657 7.861 2.319-2.476 4.604-4.997 6.9-7.49l6.848-7.574c1.52-1.677 3.033-3.371 4.547-5.059v-1.047h-.135Zm-4.812 11.3-6.702 8.739c-2.211 2.937-4.445 5.852-6.646 8.812 2.325-2.797 4.61-5.644 6.91-8.463l6.855-8.537c1.513-1.891 3.027-3.787 4.53-5.689v-1.266c-1.655 2.127-3.304 4.26-4.947 6.398v.006Zm-6.494-11.3-.18.163c-2.222 2.004-4.462 3.979-6.674 6.005 2.308-1.841 4.587-3.731 6.883-5.594l.692-.568h-.715l-.006-.006Zm13.472-10.945c-.14-.157-.281-.321-.422-.489-1.041.9-2.082 1.806-3.123 2.706h1.243c.816-.686 1.632-1.378 2.448-2.071-.05-.05-.095-.101-.146-.152v.006Zm-6.967 10.945-6.696 6.854c-2.223 2.319-4.462 4.609-6.668 6.95 2.313-2.161 4.592-4.378 6.893-6.562l6.843-6.645c.203-.203.41-.4.613-.603h-.985v.006Zm9.6-9.077a7.077 7.077 0 0 1-.421-.197c-.186.18-.366.366-.546.546h1.227l.18-.18a3.914 3.914 0 0 1-.44-.174v.005Zm6.157.355h.911c.096-.13.197-.259.304-.383-.405.152-.81.282-1.215.383Zm-12.88-42.114a792.141 792.141 0 0 0-16.207-3.197 756.867 756.867 0 0 0 16.054 3.894c2.19.518 4.384 1.008 6.578 1.514a3.56 3.56 0 0 1 .062-.338c.028-.163.068-.32.102-.484-2.195-.467-4.384-.934-6.584-1.384l-.006-.005Zm6.544 6.482a5.168 5.168 0 0 1-.102-.529c-2.127-.214-4.254-.433-6.375-.636a777.424 777.424 0 0 0-16.134-1.418 773.04 773.04 0 0 0 16.055 2.127c2.217.282 4.428.535 6.646.794-.029-.107-.057-.22-.085-.332l-.005-.006Zm1.496-9.2c-2.7-.861-5.402-1.745-8.103-2.589a821.48 821.48 0 0 0-16.274-4.98 822.573 822.573 0 0 0 16.05 5.655c2.666.923 5.345 1.812 8.018 2.713a14.333 14.333 0 0 1 .4-.771l-.085-.028h-.006Zm-.045-4.418c-2.706-1.16-5.413-2.33-8.131-3.472a882.893 882.893 0 0 0-16.342-6.77 861.604 861.604 0 0 0 16.055 7.417c2.684 1.221 5.38 2.414 8.07 3.613l2.459 1.086a5.905 5.905 0 0 1 .816-.596l-2.927-1.278Zm.209-4.271c-2.696-1.446-5.391-2.91-8.098-4.339a931 931 0 0 0-16.297-8.491 971.542 971.542 0 0 0 15.954 9.116c2.667 1.502 5.351 2.983 8.03 4.468l5.036 2.763c.04-.31.096-.625.163-.928l-4.783-2.595-.005.006Zm-8.075-9.532-8.132-5.166c-2.73-1.694-5.441-3.41-8.182-5.087 2.634 1.845 5.295 3.64 7.94 5.458l7.99 5.38c4.626 3.106 9.274 6.173 13.928 9.223.107-.282.231-.557.36-.839-4.62-3.01-9.245-6.01-13.904-8.97Zm.022-5.189-8.143-6.038c-2.729-1.986-5.447-3.995-8.193-5.96 2.622 2.128 5.284 4.21 7.929 6.315l7.985 6.24c5.076 3.962 10.19 7.878 15.312 11.79.123-.192.253-.383.388-.569.045-.056.084-.118.13-.174a1719.895 1719.895 0 0 0-15.402-11.598l-.006-.006Zm16.212 8.863c-5.385-4.642-10.765-9.28-16.195-13.871l-8.143-6.882c-2.735-2.268-5.453-4.558-8.21-6.804 2.617 2.403 5.278 4.761 7.918 7.147l7.98 7.068c5.317 4.71 10.685 9.375 16.054 14.029l.855.737c.203-.22.41-.44.63-.653-.298-.259-.59-.518-.889-.777v.006Zm.017-3.472c-5.38-5.222-10.765-10.45-16.195-15.616l-8.149-7.754c-2.74-2.56-5.458-5.149-8.215-7.687 2.616 2.69 5.272 5.335 7.906 8.008l7.974 7.94c5.318 5.29 10.686 10.529 16.049 15.773.883.855 1.767 1.71 2.65 2.572.236-.197.473-.383.72-.557-.911-.89-1.817-1.779-2.729-2.668l-.011-.01Zm.017-3.382C47.47 59.59 42.09 53.8 36.654 48.06L28.5 39.45c-2.746-2.848-5.464-5.718-8.227-8.543 2.611 2.966 5.267 5.898 7.9 8.852l7.969 8.779c5.312 5.858 10.68 11.66 16.049 17.467 1.463 1.58 2.932 3.157 4.4 4.732.254-.163.507-.32.771-.467-1.497-1.632-3.005-3.258-4.507-4.884v-.006Zm.017-4.243c-5.38-6.5-10.765-13.005-16.201-19.459L28.51 32c-2.746-3.207-5.464-6.432-8.232-9.622 2.605 3.32 5.261 6.6 7.89 9.904l7.962 9.847c5.312 6.562 10.68 13.078 16.043 19.594a8168.85 8168.85 0 0 0 6.51 7.856c.26-.13.513-.248.777-.36.017-.006.034-.017.05-.023-2.21-2.69-4.422-5.374-6.64-8.058Zm3.112.023c-4.862-6.505-9.73-13.005-14.654-19.47L33.947 32c-2.487-3.214-4.952-6.444-7.456-9.64 2.347 3.314 4.744 6.595 7.113 9.892l7.186 9.842c4.794 6.556 9.64 13.073 14.49 19.589 1.767 2.363 3.534 4.727 5.307 7.085.275-.102.557-.197.838-.287a6254.272 6254.272 0 0 0-5.441-7.321Zm3.111.022c-4.344-6.505-8.694-13.01-13.094-19.481l-6.606-9.702c-2.223-3.219-4.43-6.449-6.68-9.65 2.088 3.308 4.22 6.583 6.33 9.88l6.41 9.832c4.271 6.556 8.604 13.072 12.931 19.588 1.435 2.15 2.876 4.3 4.317 6.455.275-.08.557-.147.838-.209-1.48-2.234-2.965-4.473-4.451-6.707l.005-.006Zm3.112.023a2608.445 2608.445 0 0 0-11.541-19.493l-5.83-9.713c-1.97-3.224-3.916-6.46-5.903-9.667 1.829 3.297 3.703 6.578 5.554 9.864l5.633 9.825c3.753 6.55 7.569 13.067 11.378 19.589 1.176 1.998 2.347 3.99 3.529 5.987.275-.05.557-.09.844-.13a3626.138 3626.138 0 0 0-3.658-6.262h-.006Zm-11.93-29.2c-1.71-3.23-3.393-6.466-5.126-9.685 1.57 3.298 3.185 6.567 4.778 9.86l2.357 4.766v-1.07l-2.008-3.865v-.006ZM65.32 61.22c-3.309-6.505-6.623-13.015-9.988-19.498l-.63-1.215h-.648l.732 1.48c3.236 6.544 6.528 13.06 9.82 19.582.968 1.902 1.935 3.804 2.909 5.706.276-.028.551-.045.833-.061-1.008-1.998-2.015-4.001-3.028-6v.006Zm-9.594-29.216c-1.452-3.236-2.881-6.477-4.356-9.702 1.311 3.292 2.673 6.562 4.001 9.842l1.137 2.735.259-.5-1.047-2.375h.006Zm12.712 29.24a2484.832 2484.832 0 0 0-8.435-19.51l-.535-1.222h-.62l.603 1.446c2.718 6.545 5.498 13.061 8.266 19.583.805 1.88 1.61 3.754 2.42 5.627h.113c.236 0 .472 0 .703.012-.838-1.981-1.682-3.956-2.52-5.931l.005-.006Zm-7.265-29.24c-1.193-3.242-2.363-6.488-3.579-9.718 1.052 3.28 2.15 6.55 3.224 9.83l.693 2.049h.439l-.777-2.161Zm10.377 29.262c-2.274-6.517-4.547-13.028-6.883-19.521l-.41-1.137h-.141c-.158 0-.304-.006-.45-.017l.45 1.334a2586.993 2586.993 0 0 0 6.713 19.571 2378.2 2378.2 0 0 0 2.02 5.78c.27.022.535.044.805.078-.698-2.031-1.401-4.057-2.104-6.088Zm-4.936-29.262c-.934-3.247-1.84-6.494-2.796-9.735.793 3.28 1.632 6.55 2.448 9.82l.534 2.076h.422l-.602-2.161h-.005Zm8.047 29.284a2271.681 2271.681 0 0 0-5.328-19.526l-.35-1.244h-.562l.354 1.384c1.683 6.533 3.422 13.05 5.16 19.572.558 2.06 1.11 4.119 1.666 6.178.265.051.53.096.788.152-.574-2.172-1.154-4.338-1.733-6.51l.005-.006Zm-2.605-29.284c-.675-3.247-1.322-6.5-2.02-9.752.529 3.275 1.109 6.539 1.666 9.808l.377 2.105h.41l-.427-2.161h-.006Zm5.717 29.307c-1.238-6.517-2.476-13.033-3.77-19.544l-.253-1.255h-.546l.242 1.345c1.165 6.533 2.38 13.05 3.601 19.572.44 2.296.873 4.592 1.312 6.882.022.011.045.017.061.022.242.073.473.147.704.231-.445-2.42-.9-4.84-1.35-7.253Zm3.467 18.812-.45.095h.467l-.017-.095ZM61.25 79.56c-.034.04-.062.084-.09.123a8.284 8.284 0 0 0-.377.603c.833.714 1.665 1.429 2.504 2.138v-1.08c-.675-.597-1.356-1.188-2.037-1.784Zm-.929 1.755a7.477 7.477 0 0 0-.253.895c1.07.81 2.144 1.615 3.219 2.42v-1.024c-.99-.76-1.975-1.525-2.966-2.285v-.005ZM62.1 85.15c-.016.315-.09.58-.129.714a.861.861 0 0 0-.045.175c.45.292.906.585 1.362.878v-.98c-.394-.264-.788-.523-1.188-.787Zm.394-6.939a6.55 6.55 0 0 0-.607.58c.495.478.99.956 1.49 1.43h1.16c-.68-.67-1.356-1.346-2.037-2.01h-.006Zm1.328-.94a10.64 10.64 0 0 0-.697.45c.776.84 1.558 1.666 2.346 2.5h1.047c-.895-.986-1.79-1.97-2.69-2.95h-.006Zm1.655-.776c-.248.09-.495.191-.732.304-.011 0-.017.011-.028.011.951 1.137 1.908 2.273 2.864 3.41h.923c-1.007-1.243-2.014-2.487-3.027-3.725Zm1.542-.45c-.276.062-.54.13-.805.208a666.343 666.343 0 0 0 3.016 3.973h.855a1144.957 1144.957 0 0 0-3.066-4.181Zm1.738-.27c-.28.022-.551.056-.827.1.98 1.453 1.959 2.905 2.949 4.35h.788c-.968-1.485-1.942-2.965-2.915-4.45h.005Zm1.908-.057c-.14-.005-.276-.01-.41-.01-.147 0-.288 0-.428.005.894 1.508 1.79 3.01 2.695 4.513h.743c-.861-1.508-1.728-3.01-2.594-4.508h-.006Zm2.06.214c-.282-.05-.563-.096-.85-.13.76 1.475 1.525 2.95 2.29 4.424h.698c-.709-1.435-1.418-2.864-2.133-4.294h-.005Zm2.189.602a15.181 15.181 0 0 0-.856-.287c.58 1.328 1.154 2.656 1.74 3.979h.652c-.512-1.233-1.024-2.46-1.542-3.692h.006Zm2.34 1.34c-.078-.074-.168-.141-.258-.209a7.491 7.491 0 0 0-.642-.433c.355 1.002.71 1.998 1.07 3h.624l-.793-2.353v-.005Zm5.56 1.918-.562.119.033.31h.569a9.993 9.993 0 0 0-.045-.428h.005Zm50.454-11.507c.141.028.287.056.422.09a642.624 642.624 0 0 0 4.508-3.106 873.152 873.152 0 0 0-4.935 3.016h.005ZM121.44 75.7c-1.244.794-2.493 1.599-3.742 2.392l-1.323.855v.67h.49l1.182-.77c1.586-1.053 3.179-2.1 4.766-3.152h-1.368l-.005.006ZM104.142 86.9c-.085.056-.175.118-.259.168v.974l.608-.388 1.125-.732v-.99l-1.474.968Zm-12.116 8.07v.573c.377-.236.76-.472 1.137-.715v-.624c-.383.253-.76.506-1.137.765Zm39.267-49.577-6.854 7.754a1917.772 1917.772 0 0 0-12.92 14.817h1.092c4.096-4.755 8.182-9.51 12.245-14.316l6.702-7.94c2.211-2.673 4.445-5.318 6.645-8.007-2.324 2.543-4.608 5.126-6.91 7.686v.006Zm-27.41 31.45v1.194c.579-.664 1.159-1.328 1.733-1.992v-1.221c-.58.67-1.159 1.345-1.733 2.02ZM92.032 90.816v.692l1.136-1.288v-.749l-1.136 1.345Zm39.272-39.329-6.848 6.883c-3.162 3.179-6.308 6.38-9.442 9.6h1.136c2.91-3.011 5.808-6.027 8.694-9.066l6.708-7.068c2.217-2.386 4.457-4.743 6.657-7.146-2.318 2.245-4.603 4.535-6.905 6.803v-.006Zm-27.421 27.95v1.126c.579-.59 1.159-1.181 1.733-1.772v-1.154c-.58.597-1.159 1.199-1.733 1.795v.006ZM92.032 91.874v.653l1.136-1.148v-.71l-1.136 1.2v.005Zm39.278-34.54-6.843 6.038a1060.593 1060.593 0 0 0-5.166 4.592h1.148a905.18 905.18 0 0 0 4.378-4.035l6.708-6.24c2.223-2.105 4.463-4.187 6.668-6.314-2.312 1.964-4.597 3.973-6.893 5.96Zm-27.427 24.591v1.07c.579-.518 1.159-1.036 1.733-1.554v-1.097c-.58.529-1.159 1.052-1.733 1.581ZM92.032 92.88v.625l1.136-1.002v-.675l-1.136 1.058v-.005Zm39.289-29.486-6.043 4.569h1.007l5.245-4.192c2.222-1.818 4.462-3.613 6.673-5.459-2.312 1.672-4.586 3.394-6.882 5.087v-.005Zm-14.946 12.3v.119c.051-.04.096-.079.147-.118h-.147Zm-12.492 8.802v1.013c.579-.44 1.159-.89 1.733-1.334v-1.041c-.58.45-1.159.906-1.733 1.362Zm-11.851 9.431v.585l1.136-.86v-.636l-1.136.911Zm38.946-5.97a501.79 501.79 0 0 0-6.376 1.542c-2.267.55-4.53 1.13-6.792 1.699l-1.378.354h3.337c1.654-.45 3.308-.889 4.963-1.356a548.025 548.025 0 0 0 6.578-1.851 1.856 1.856 0 0 0-.326-.388h-.006Zm-26.729 6.786c-.124.034-.242.068-.361.096v.872c.175-.045.344-.085.518-.13l1.216-.315v-.889l-1.373.366ZM92.037 98.12v.513c.377-.085.76-.175 1.137-.27v-.563c-.383.101-.76.213-1.137.32Zm38.024-21.771c-.04-.029-.079-.057-.118-.08a734.706 734.706 0 0 0-5.222 2.617c-.49.242-.968.484-1.452.732h1.542a491.424 491.424 0 0 0 5.542-3 2.158 2.158 0 0 0-.287-.27h-.005Zm-25.79 13.1-.377.202v.929c.22-.118.445-.225.664-.338l1.069-.551v-.946l-1.356.71v-.006Zm-12.234 6.567v.546c.377-.186.76-.377 1.137-.569v-.596c-.383.202-.76.41-1.137.619Zm25.16-8.987-.816.315v.917l1.688-.67c.473-.185.94-.376 1.407-.562h-2.285.006Zm-12.937 5.065c-.124.05-.248.1-.372.146v.895c.197-.08.394-.152.591-.225l1.143-.445v-.917l-1.362.54v.006Zm-12.223 4.974v.524c.377-.141.76-.282 1.137-.417v-.58c-.383.152-.76.31-1.137.473Zm34.085-65.282-6.033 9.735c-4.023 6.489-7.985 13.016-11.941 19.544a7676.502 7676.502 0 0 0-4.254 7.05v1.627l4.997-8.216c3.945-6.538 7.889-13.077 11.772-19.65l5.83-9.864c1.913-3.304 3.849-6.59 5.746-9.91-2.066 3.219-4.075 6.46-6.112 9.69l-.005-.006ZM92.037 88.041v.934l1.137-1.84v-1.019l-1.137 1.925Zm28.643-56.227-5.256 9.74a2343.34 2343.34 0 0 0-10.388 19.544c-1.198 2.29-2.402 4.575-3.595 6.865h.922c1.137-2.15 2.279-4.305 3.416-6.466a2470.888 2470.888 0 0 0 10.219-19.639l5.048-9.853c1.654-3.298 3.337-6.584 4.969-9.893-1.801 3.219-3.557 6.466-5.335 9.696v.006ZM92.037 86.156v1.092l1.137-2.11v-1.21l-1.137 2.228Zm23.202-54.32-4.48 9.746c-2.982 6.494-5.908 13.022-8.834 19.55a3570.627 3570.627 0 0 0-3.034 6.825h.861c.974-2.155 1.947-4.321 2.915-6.482 2.91-6.54 5.813-13.067 8.661-19.628l4.271-9.842c1.401-3.292 2.819-6.573 4.192-9.876-1.547 3.224-3.039 6.471-4.558 9.707h.006ZM92.037 83.579v1.345l1.137-2.477v-1.49l-1.137 2.622Zm17.76-51.715-3.697 9.752c-2.465 6.5-4.873 13.027-7.282 19.55a3289.75 3289.75 0 0 0-2.476 6.791h.816c.805-2.166 1.604-4.338 2.403-6.505 2.392-6.533 4.778-13.06 7.113-19.616l3.494-9.831c1.137-3.287 2.302-6.567 3.416-9.865-1.283 3.23-2.521 6.483-3.781 9.724h-.006ZM91.914 80.208h.123v1.424l.242-.63c.299-.794.603-1.593.9-2.387v-1.93c-.427 1.176-.843 2.347-1.265 3.523Zm12.441-48.316-.68 2.268h.45l.596-2.155c.878-3.287 1.778-6.562 2.639-9.848-1.024 3.236-1.997 6.488-3.005 9.735Zm-2.605 8.711-.315 1.047c-1.947 6.505-3.838 13.033-5.729 19.555-.641 2.25-1.288 4.502-1.93 6.758h.777c.636-2.178 1.266-4.355 1.896-6.528 1.874-6.527 3.737-13.06 5.554-19.605l.349-1.25c-.18.023-.371.029-.563.029h-.033l-.006-.006ZM90.321 80.208h.63c.749-2.504 1.492-5.02 2.223-7.53v-2.616a1233.66 1233.66 0 0 0-2.853 10.146ZM131.3 39.444l-6.86 8.61c-4.569 5.74-9.093 11.53-13.623 17.32-.664.861-1.334 1.722-2.004 2.583h1.036c.512-.652 1.024-1.31 1.536-1.963 4.513-5.808 9.02-11.61 13.488-17.468l6.703-8.778c2.211-2.949 4.439-5.88 6.64-8.852-2.324 2.825-4.609 5.695-6.916 8.542v.006Zm-27.405 34.867v1.249c.58-.732 1.159-1.469 1.733-2.206V72.07a362.13 362.13 0 0 0-1.733 2.24Zm27.669-42.554-6.809 9.73c-4.535 6.482-9.02 13.016-13.499 19.543-1.576 2.313-3.157 4.626-4.727 6.939h1.063c1.475-2.139 2.943-4.283 4.418-6.427 4.462-6.539 8.924-13.078 13.325-19.656l6.601-9.876c2.172-3.308 4.372-6.6 6.522-9.926-2.324 3.207-4.592 6.449-6.894 9.673ZM103.894 71.83v1.491c.58-.838 1.159-1.671 1.733-2.51v-1.53c-.579.85-1.159 1.7-1.733 2.555v-.006Zm-11.85 17.653v1.03l1.136-1.43v-1.305l-1.137 1.705Zm6.881-57.562-.506 2.29c.14.035.27.074.4.13l.46-2.33c.62-3.275 1.267-6.55 1.863-9.83-.759 3.247-1.48 6.5-2.222 9.746l.005-.006Zm-1.913 8.689-.236 1.08c-1.43 6.511-2.803 13.039-4.17 19.56-1.306 6.32-2.617 12.64-3.872 18.97h.602c1.373-6.257 2.69-12.532 4.013-18.8 1.35-6.534 2.706-13.056 4-19.595l.242-1.215a3.122 3.122 0 0 1-.326.011c-.079 0-.163 0-.242-.005l-.011-.006ZM68.847 91.367c-2.408-1.356-4.822-2.69-7.236-4.035-.05.208-.107.433-.169.664a7.9 7.9 0 0 0 .36.4c1.795.967 3.59 1.93 5.391 2.892.687.169 1.407.287 2.161.366l-.507-.287Zm.023-1.722a349.082 349.082 0 0 0-3.016-2.015h-1.435c1.356.872 2.707 1.74 4.068 2.6l2.386 1.52c.17 0 .344.005.518.005.203 0 .4 0 .596-.011l-3.117-2.1Zm.022-1.722-.382-.298h-1.182l1.137.85 4.333 3.218c.27-.022.54-.05.805-.084l-4.722-3.686h.011Zm1.554-.298h-1.002l4.631 3.91c.22-.033.44-.073.653-.118l-4.282-3.792Zm1.587 0h-.873l3.911 3.72c.192-.046.377-.09.557-.141l-3.595-3.58Zm1.243 0h-.77l3.336 3.517c.169-.051.332-.102.49-.152l-3.056-3.365Zm3.641 2.943-2.386-2.943h-.675l2.723 3.23.034.04c.017 0 .023-.012.034-.012.135-.05.27-.102.4-.152l-.124-.158-.006-.005Zm-1.384-2.943h-.636l2.313 3.033c.14-.057.275-.118.405-.175l-2.088-2.858h.006Zm1.001 0h-.585l1.88 2.763c.129-.062.259-.13.382-.192l-1.677-2.566v-.005Zm1.008 0h-.546l1.463 2.436c.124-.067.242-.14.36-.208l-1.272-2.223-.005-.005Zm1.001 0h-.512l1.064 2.037a3.72 3.72 0 0 0 .343-.237l-.895-1.8Zm1.013 0h-.49l.687 1.558c.118-.095.225-.191.326-.287l-.528-1.277.005.006Zm1.013 0h-.461l.332.928c.112-.124.213-.248.315-.371l-.186-.552v-.005Zm23.691 9.763-.36.05v.856l.439-.05 1.294-.164v-.878l-1.379.186h.006ZM51.994 131.14c-.107.158-.22.31-.327.467h1.002c.107-.152.22-.309.327-.467h-1.002ZM33.61 157.256l-6.702 9.673c-2.212 3.247-4.446 6.472-6.64 9.741 2.323-3.112 4.608-6.274 6.915-9.403l6.86-9.476a1666.27 1666.27 0 0 0 4.524-6.291v-1.34c-1.66 2.358-3.309 4.727-4.952 7.102l-.005-.006Zm20.252-26.116c-.101.158-.197.31-.293.467h1.025c.095-.152.191-.309.287-.467h-1.019Zm-20.708 33.443-6.6 10.866c-2.173 3.641-4.373 7.265-6.523 10.923 2.319-3.529 4.592-7.096 6.888-10.647l6.814-10.709c1.616-2.543 3.23-5.092 4.829-7.647v-1.626a1933.839 1933.839 0 0 0-5.408 8.84ZM56.13 131.14c-.09.158-.175.31-.259.467h.957c.084-.152.168-.309.253-.467h-.951Zm-17.433 31.822c-.299.546-.591 1.086-.878 1.632l-5.824 10.855c-1.914 3.635-3.85 7.254-5.746 10.906 2.065-3.54 4.074-7.113 6.111-10.664l6.033-10.714c.377-.67.754-1.345 1.13-2.015h-.826Zm12.351-22.633c-.489.878-.967 1.762-1.457 2.64-.079.146-.152.281-.236.427v1.857l.979-1.778 1.722-3.14h-1.013l.005-.006Zm7.355-9.189c-.078.158-.152.31-.225.467h.89l.219-.467h-.884Zm-15.148 31.822c-.26.546-.512 1.098-.766 1.643l-5.047 10.844c-1.655 3.63-3.343 7.248-4.969 10.889 1.8-3.545 3.556-7.119 5.335-10.675l5.255-10.72c.321-.658.642-1.317.963-1.981h-.771Zm10.725-22.633c-.422.89-.85 1.773-1.271 2.662-1.115 2.341-2.235 4.688-3.349 7.029v1.93c1.362-2.842 2.73-5.684 4.091-8.526.49-1.035.985-2.065 1.475-3.1h-.951l.005.005Zm7.518-9.189h-.832c-.062.158-.13.31-.192.467h.822v.04c.067-.169.14-.332.202-.501v-.006Zm-13.685 31.822c-.22.552-.44 1.103-.653 1.655l-4.271 10.832c-1.401 3.624-2.82 7.237-4.192 10.872 1.542-3.551 3.038-7.124 4.558-10.686l4.48-10.726c.27-.647.534-1.294.804-1.941h-.72l-.006-.006Zm9.1-22.633c-.367.895-.727 1.79-1.093 2.685-2.16 5.34-4.316 10.68-6.454 16.037v1.908a2825.307 2825.307 0 0 0 7.197-17.568c.411-1.019.827-2.037 1.238-3.062h-.889Zm6.493-9.189h-.473l-1.637 4.845v2.465c1.018-3.067 2.037-6.139 3.044-9.212l-.934 1.908v-.006Zm-3.568 9.189c-.304.901-.607 1.801-.906 2.707-2.042 6.145-4.085 12.29-6.088 18.452l2.115-4.13c1.582-4.665 3.152-9.342 4.716-14.012a622.7 622.7 0 0 1 1.002-3.017h-.839Zm-7.478 22.633a83.188 83.188 0 0 0-.54 1.666l-3.495 10.821c-1.137 3.618-2.302 7.226-3.416 10.855 1.283-3.556 2.521-7.135 3.782-10.697l3.702-10.731c.22-.636.44-1.272.653-1.908h-.68l-.006-.006Zm72.164-62.845c-2.251-.039-4.502-.051-6.753-.073l-6.753-.023-6.753.029h-.033v.861h.033l6.753.028 6.753-.028c2.251-.023 4.496-.034 6.753-.074 4.501-.056 9.003-.174 13.505-.354-4.496-.18-8.998-.298-13.505-.36v-.006Zm-2.505 5.425c-2.678-.372-5.362-.704-8.041-1.058l-8.047-1.002-1.694-.197v.996l1.598.203 8.053.951c2.684.298 5.368.613 8.058.889a679.04 679.04 0 0 0 16.134 1.559 735.286 735.286 0 0 0-16.055-2.341h-.006Zm-67.076-8.374c.005-.146.022-.287.039-.433l-2.307-.259-1.188-.13c-.174.31-.36.592-.551.85l1.638.186 2.38.26a3.234 3.234 0 0 1-.011-.468v-.006Zm-1.199 28.694.416.788c.034-.04.062-.079.096-.124l1.908-3.72c-.81 1.013-1.62 2.032-2.42 3.05v.006Zm-.962-1.818.416.788a1415.73 1415.73 0 0 0 4.66-5.329l1.373-2.679c-2.161 2.392-4.305 4.806-6.45 7.215v.005Zm7.98-10.753c-3.011 2.926-6.005 5.88-8.993 8.84l.422.793c2.712-2.723 5.424-5.452 8.126-8.204l1.013-1.987-.569.552v.006Zm.016-1.925c-4.417 3.68-8.807 7.411-13.19 11.153l.45.816c4.361-3.753 8.728-7.507 13.06-11.328l1.104-.973.76-1.491-2.184 1.817v.006Zm5.903 14.169a3119.866 3119.866 0 0 0-4.648 17.529l-.253.979 1.632-3.185a2320.118 2320.118 0 0 0 3.95-15.323h-.681Zm-9.78 37.433c-.14.557-.282 1.114-.422 1.677l-2.718 10.81c-.878 3.612-1.784 7.22-2.64 10.838 1.025-3.568 1.998-7.141 3.006-10.714l2.92-10.743.507-1.868H56.9Zm3.894-53.532c-2.273 1.575-4.536 3.179-6.809 4.772l-6.792 4.822-1.103.794c.028.045.05.09.073.14l.377.676 1.019-.726 6.77-4.873c2.25-1.638 4.507-3.264 6.746-4.919.856-.624 1.705-1.249 2.555-1.879l.613-1.199a812.867 812.867 0 0 0-3.455 2.392h.006Zm-.034-1.902c-2.285 1.26-4.558 2.549-6.837 3.826l-2.403 1.362a7.668 7.668 0 0 1-.574 1.39l3.264-1.885c2.262-1.328 4.524-2.639 6.78-3.979a806.65 806.65 0 0 0 3.788-2.25l.49-.957c-1.509.827-3.011 1.654-4.514 2.493h.006Zm.05-1.964c-2.273.934-4.54 1.896-6.814 2.847l-2.099.895c.017.231.023.467.023.703 0 .102 0 .203-.006.31l2.307-1.007c2.257-1.002 4.525-1.987 6.776-3.005a613.594 613.594 0 0 0 4.72-2.133l.4-.777a613.88 613.88 0 0 0-5.306 2.173v-.006Zm.057-1.964c-2.268.608-4.53 1.244-6.792 1.868l-2.836.805c.118.293.22.602.304.906l2.684-.782c2.256-.676 4.519-1.34 6.77-2.032 1.834-.557 3.663-1.12 5.492-1.699l.332-.647a671.56 671.56 0 0 0-5.954 1.581Zm.062-1.958c-2.262.275-4.519.591-6.775.889l-4.941.692c.281.276.54.568.777.878l4.243-.63c2.25-.355 4.507-.687 6.758-1.058 2.048-.327 4.096-.664 6.145-1.019l.281-.557c-2.166.253-4.327.518-6.488.799v.006Zm-.208-1.604-8.036-.028-8.03.022-2.065.017c1.103.192 2.121.473 3.038.85l7.057.022 8.036-.028c2.234-.022 4.473-.033 6.702-.062l.377-.731c-2.358-.034-4.721-.045-7.08-.062Zm9.78 15.582-.4 2.014h.513l.641-3.567-.748 1.553h-.006Zm-1.97 9.904c-.562 2.864-1.12 5.728-1.67 8.598l1.158-2.262c.394-2.11.782-4.22 1.165-6.336h-.653Zm-7.079 37.432c-.101.563-.208 1.126-.303 1.688l-1.942 10.799c-.619 3.607-1.266 7.209-1.863 10.816.766-3.568 1.48-7.153 2.223-10.726l2.144-10.753c.124-.608.248-1.216.366-1.829h-.625v.005Zm10.585-50.51-.658 5.188h.495l.675-6.24-.506 1.052h-.006Zm-1.654 13.078c-.254 2.026-.501 4.046-.749 6.072h.698c.237-2.021.462-4.046.681-6.072h-.63Zm-3.76 31.822c-.275 2.436-.545 4.867-.81 7.304l-1.164 10.788c-.36 3.601-.749 7.197-1.087 10.798.507-3.579.963-7.158 1.447-10.742l1.367-10.754c.315-2.465.62-4.935.923-7.4h-.675v.006Zm9.275 18.097-.192-10.77c-.005-.406-.017-.816-.022-1.222v-.073c-.04-2.009-.08-4.018-.124-6.026h-.659c.08 2.442.158 4.884.248 7.332l.388 10.765c.085 1.845.158 3.691.231 5.537h.191c-.028-1.846-.05-3.691-.067-5.532l.005-.011Zm-1.216-49.919h-.613c.033 2.026.078 4.051.129 6.072h.68c-.061-2.021-.129-4.046-.196-6.072Zm.59 19.915-.764-1.582c.05 1.869.1 3.731.157 5.605h.71c-.035-1.339-.068-2.678-.102-4.018v-.005Zm.626 30.004-.192-10.77c-.005-.406-.017-.816-.022-1.222v-.073c-.04-2.009-.08-4.018-.124-6.026h-.659c.08 2.442.158 4.884.248 7.332l.388 10.765c.085 1.845.158 3.691.231 5.537h.191c-.028-1.846-.05-3.691-.067-5.532l.005-.011Zm-1.216-49.919h-.613c.033 2.026.078 4.051.129 6.072h.68c-.061-2.021-.129-4.046-.196-6.072Zm.59 19.915-.764-1.582c.05 1.869.1 3.731.157 5.605h.71c-.035-1.339-.068-2.678-.102-4.018v-.005Zm-1.986-35.565-.225.467c-.01.164-.022.327-.033.49l-.372 6.803h.484l.248-6.78c.005-.242.017-.484.022-.726l-.124-.254Zm-2.048 36.448a300.02 300.02 0 0 0-.135 3.14h.715c.073-1.598.152-3.202.22-4.794l-.8 1.66v-.006Zm.99-20.798c-.106 2.026-.208 4.046-.303 6.072h.68c.09-2.021.17-4.046.248-6.072h-.624Zm-1.463 31.822c-.1 2.442-.197 4.879-.28 7.321l-.39 10.776c-.061 2.116-.129 4.226-.19 6.342 0 0 .005 0 .01-.006l.175-.27c.124-2.009.237-4.023.366-6.032l.59-10.765c.136-2.454.26-4.907.383-7.366h-.664Zm5.132 18.097-.19-10.77c-.007-.406-.018-.816-.023-1.222v-.073c-.04-2.009-.08-4.018-.124-6.026h-.659c.08 2.442.158 4.884.248 7.332l.388 10.765c.085 1.845.158 3.691.231 5.537h.191c-.028-1.846-.05-3.691-.067-5.532l.005-.011Zm-1.215-49.919h-.613c.033 2.026.078 4.051.129 6.072h.68c-.061-2.021-.129-4.046-.196-6.072Zm.59 19.915-.764-1.582c.05 1.869.1 3.731.157 5.605h.71c-.035-1.339-.068-2.678-.102-4.018v-.005Zm.626 30.004-.192-10.77c-.005-.406-.017-.816-.022-1.222v-.073c-.04-2.009-.08-4.018-.124-6.026h-.659c.08 2.442.158 4.884.248 7.332l.388 10.765c.085 1.845.158 3.691.231 5.537h.191c-.028-1.846-.05-3.691-.067-5.532l.005-.011Zm-1.216-49.919h-.613c.033 2.026.078 4.051.129 6.072h.68c-.061-2.021-.129-4.046-.196-6.072Zm.59 19.915-.764-1.582c.05 1.869.1 3.731.157 5.605h.71c-.035-1.339-.068-2.678-.102-4.018v-.005ZM74.2 111.766l-.388-.8.118 6.674h.484l-.214-5.874Zm2.33 13.764h-.62c.186 2.026.378 4.051.57 6.072h.68c-.208-2.021-.416-4.046-.63-6.072Zm4.811 49.885-.895-10.005a2.396 2.396 0 0 1-.523.231l1.064 9.803.641 5.621c.068.017.13.028.191.051-.157-1.902-.32-3.799-.478-5.701Zm-6.055-61.393-.512-1.064.416 4.677h.49l-.394-3.613Zm1.244 11.502h-.62c.186 2.026.378 4.052.57 6.072h.68c-.208-2.02-.416-4.046-.63-6.072Zm1.846 0h-.63c.326 2.026.663 4.052 1.006 6.072h.231l.715 1.418c-.44-2.498-.872-4.997-1.323-7.49Zm8.407 49.858-1.74-10.782-.27-1.643h-.602c.102.585.209 1.164.316 1.744l1.947 10.748c.377 2.003.748 4.007 1.125 6.004.068.04.13.079.191.124-.32-2.065-.647-4.13-.967-6.19v-.005Zm-10.248-49.858h-.619c.186 2.026.377 4.052.569 6.072h.68c-.208-2.02-.416-4.046-.63-6.072Zm.377-8.154-.737-1.519.287 1.784h.495l-.05-.265h.005Zm-.377 8.154h-.619c.186 2.026.377 4.052.569 6.072h.68c-.208-2.02-.416-4.046-.63-6.072Zm1.846 0h-.63a715.3 715.3 0 0 0 1.007 6.072h.23l.716 1.418c-.44-2.498-.873-4.997-1.323-7.49Zm13.849 49.824-2.521-10.782c-.124-.535-.254-1.075-.377-1.609h-.62c.147.591.293 1.17.44 1.755l2.723 10.732c.934 3.573 1.84 7.146 2.797 10.714-.794-3.613-1.632-7.209-2.448-10.81h.006Zm-12.003-49.824h-.647c1.091 4.62 2.2 9.234 3.32 13.849l1.474 2.932c-1.373-5.594-2.746-11.193-4.147-16.781Zm-1.846 0h-.63a715.3 715.3 0 0 0 1.007 6.072h.23l.716 1.418c-.44-2.498-.873-4.997-1.323-7.49Zm0 0h-.63a715.3 715.3 0 0 0 1.007 6.072h.23l.716 1.418c-.44-2.498-.873-4.997-1.323-7.49Zm-1.846 0h-.619c.186 2.026.377 4.052.569 6.072h.68c-.208-2.02-.416-4.046-.63-6.072Zm15.064-19.403v.484l-1.085-.017c.99.372 1.986.743 2.976 1.115v-.918c-.63-.225-1.26-.444-1.89-.664Zm-8.277-2.847a392.565 392.565 0 0 0-3.326-1.12l.259.507c1.052.41 2.105.821 3.157 1.226l-.09-.613Zm6.719 4.249c-.704-.327-1.401-.653-2.11-.985l-1.644-.028c1.154.579 2.313 1.159 3.467 1.727 1.243.619 2.487 1.233 3.736 1.852v-.951a767.924 767.924 0 0 0-3.45-1.615Zm-6.54-3.028a296.448 296.448 0 0 0-3.015-1.367l.304.602c.934.478 1.868.951 2.802 1.423l-.09-.652v-.006Zm6.495 4.93a748.46 748.46 0 0 0-5.048-2.938l-1.165-.022a782.384 782.384 0 0 0 5.875 3.64c1.278.794 2.555 1.576 3.832 2.358v-.99a444.537 444.537 0 0 0-3.494-2.054v.006Zm-6.314-3.669c-.878-.507-1.75-1.008-2.628-1.508l.371.737c.788.495 1.576.99 2.364 1.48l-.101-.715-.006.006Zm6.336 5.604-8.131-5.683c-.062-.045-.124-.085-.18-.13l.467.929 7.467 5.526c1.283.951 2.566 1.896 3.855 2.836v-1.035a613.4 613.4 0 0 0-3.472-2.448l-.006.005Zm.023 1.925-7.535-6.151.568 1.137 6.545 5.633c1.288 1.108 2.583 2.211 3.871 3.314v-1.091a519.192 519.192 0 0 0-3.455-2.836l.006-.006Zm.017 1.857-6.624-6.156.715 1.423 5.447 5.318c1.3 1.266 2.594 2.521 3.894 3.782v-1.154a899.414 899.414 0 0 0-3.438-3.213h.006Zm.016 1.936-5.43-5.684.923 1.835 4.018 4.4c1.3 1.424 2.605 2.848 3.91 4.266v-1.216a666.121 666.121 0 0 0-3.415-3.601h-.005Zm.012 1.885-3.934-4.564 1.216 2.425 2.2 2.668c1.306 1.581 2.611 3.162 3.922 4.738v-1.278a1120.463 1120.463 0 0 0-3.404-3.978v-.011Zm.011 2.363-1.334-1.744 1.812 3.612c.968 1.317 1.942 2.634 2.915 3.951v-1.362c-1.125-1.491-2.262-2.971-3.393-4.451v-.006Zm2.56 6.005.833 1.665v-.439c-.276-.405-.551-.816-.833-1.221v-.005Zm5.009 47.994-3.298-10.793c-.163-.523-.32-1.046-.484-1.57h-.641c.191.591.382 1.182.574 1.767l3.494 10.72c1.193 3.562 2.364 7.141 3.579 10.692-1.052-3.613-2.15-7.214-3.224-10.821v.005Zm-7.203-23.392-.017.163a6.781 6.781 0 0 1-.27 1.283c.191-.158.388-.298.596-.428-.107-.337-.208-.675-.315-1.013l.006-.005Zm-2.814-8.947c-1.255-3.951-2.504-7.901-3.776-11.846h-.743c1.255 4.041 2.527 8.07 3.799 12.104l1.182 3.731c.033.017.061.034.09.051.377.247.703.523.979.838l-1.536-4.878h.005Zm2.814 8.947-.017.163a6.781 6.781 0 0 1-.27 1.283c.191-.158.388-.298.596-.428-.107-.337-.208-.675-.315-1.013l.006-.005Zm.298-8.987c-1.536-3.939-3.067-7.872-4.614-11.806h-.777c1.548 4.046 3.118 8.087 4.676 12.132 1.019 2.623 2.043 5.245 3.073 7.867v-2.093c-.782-2.031-1.57-4.063-2.352-6.1h-.006Zm12.346 32.351-4.08-10.798c-.19-.513-.382-1.019-.58-1.531h-.674l.709 1.784 4.276 10.708c1.452 3.562 2.882 7.13 4.35 10.681-1.311-3.618-2.667-7.225-4.001-10.838v-.006Zm-12.639-23.359-.016.164a6.789 6.789 0 0 1-.27 1.283c.19-.158.388-.299.596-.428-.107-.338-.208-.675-.315-1.013l.005-.006Zm0 0-.016.164a6.789 6.789 0 0 1-.27 1.283c.19-.158.388-.299.596-.428-.107-.338-.208-.675-.315-1.013l.005-.006Zm13.782-30.465v.787h1.097c-.366-.264-.732-.523-1.097-.787Zm-15.824 9.667h-.828c1.835 4.029 3.68 8.047 5.527 12.065v-1.925a3282.145 3282.145 0 0 0-4.7-10.14Zm20.128 44.129-4.856-10.804-.675-1.497h-.715c.282.602.557 1.193.839 1.789l5.059 10.703c1.705 3.551 3.393 7.119 5.126 10.658-1.57-3.629-3.185-7.231-4.778-10.849Zm-17.85-44.129h-.883c1.098 2.082 2.2 4.164 3.304 6.246v-1.733c-.805-1.508-1.615-3.01-2.42-4.513Zm13.214 24.816v.225c.022-.033.045-.061.073-.095-.023-.045-.051-.09-.073-.135v.005Zm10.072 19.279-5.627-10.81c-.433-.832-.872-1.665-1.305-2.498a2.255 2.255 0 0 1-.541.45c.434.793.867 1.593 1.3 2.386l5.83 10.692c1.97 3.545 3.917 7.113 5.903 10.641-1.829-3.635-3.703-7.242-5.56-10.866v.005ZM92.983 131.14h-.946c.36.602.726 1.204 1.087 1.807v-1.345h.14c-.09-.152-.185-.31-.281-.467v.005Zm20.044 33.24c-.371-.63-.748-1.26-1.125-1.89-.113.073-.225.146-.338.202a3.121 3.121 0 0 1-.281.135l1.198 1.947 1.463 2.369c.079-.287.152-.562.225-.833l-1.142-1.93Zm6.41 10.822-2.927-4.952c-.067.005-.135.011-.202.011a2.4 2.4 0 0 1-.45-.045l3.235 5.233c2.229 3.54 4.435 7.102 6.68 10.624-2.088-3.64-4.221-7.247-6.336-10.877v.006Zm-13.388-22.504h-.968c.119.197.242.394.361.591.067-.039.135-.073.202-.107.158-.073.315-.129.473-.174a.544.544 0 0 1 .101-.028c-.056-.091-.107-.186-.169-.276v-.006Zm16.128-41.298c-2.679-.698-5.368-1.356-8.047-2.032l-8.058-1.975-1.812-.433v1.013l1.615.399 8.069 1.925c2.696.619 5.386 1.266 8.081 1.868a694.978 694.978 0 0 0 16.207 3.517 706.272 706.272 0 0 0-16.055-4.282Zm-30.567-7.417v.85l1.89.472v-.889c-.63-.146-1.254-.292-1.89-.433Zm-8.452-1.896c-1.188-.265-2.38-.518-3.574-.777l.22.433c1.148.31 2.296.619 3.444.923l-.085-.579h-.005Zm23.021 16.932-1.919-1.148v1.131l1.485.901 3.94 2.352h1.845l-5.346-3.236h-.005Zm16.077 9.791c-.152-.095-.31-.191-.462-.281v.9l.113.068a903.432 903.432 0 0 0 16.296 9.347 946.004 946.004 0 0 0-15.953-10.034h.006Zm.056-11.547c-2.684-1.018-5.374-2.009-8.058-3.005l-8.075-2.954-1.919-.692v1.047l1.637.602 8.092 2.903c2.701.946 5.403 1.914 8.104 2.848a763.68 763.68 0 0 0 16.274 5.475 809.951 809.951 0 0 0-16.049-6.224h-.006Zm-7.94 1.885-8.086-3.927-2.026-.968v1.08l1.665.811 8.104 3.877c1.575.742 3.151 1.491 4.721 2.228h1.925c-2.099-1.041-4.204-2.065-6.303-3.101Zm8.069 3.979-.641-.321v.872c.118.057.242.113.36.169a867.104 867.104 0 0 0 16.342 7.445 854.83 854.83 0 0 0-16.055-8.159l-.006-.006Zm-27.168 8.008H94.26c.096.157.203.309.31.467h1.024c-.107-.152-.214-.31-.32-.467Zm8.61 12.65v1.024h.692c-.231-.338-.461-.681-.692-1.024Zm4.974 8.913s.034.056.057.079c.107-.034.213-.056.32-.079h-.377Zm16.027 22.47-6.038-9.099c-.062.286-.124.585-.18.894l5.874 8.486c2.488 3.534 4.947 7.09 7.457 10.608-2.347-3.647-4.744-7.26-7.113-10.889Zm-13.635-35.559h-1.272c1.626 1.733 3.253 3.467 4.885 5.2h.36c.287 0 .551-.017.816-.034-1.587-1.728-3.185-3.444-4.783-5.166h-.006Zm-7.901-8.474h-1.283c.147.157.287.309.433.467h1.289c-.146-.152-.292-.31-.433-.467h-.006Zm28.041 30.432c-.107.084-.214.169-.327.247 2.381 2.459 4.755 4.93 7.153 7.366-2.257-2.56-4.542-5.075-6.826-7.608v-.005Zm-13.77-30.432h-1.503c.22.157.439.309.659.467h.433c.372 0 .732.011 1.081.028-.226-.163-.445-.327-.67-.49v-.005Zm12.656 9.352-.316-.236c.029.214.051.422.068.641h.006c2.729 1.868 5.441 3.759 8.182 5.599-2.634-2.026-5.296-4.006-7.94-6.004Zm-18.767-9.352h-1.469c.186.151.371.309.557.467h1.458a38.67 38.67 0 0 1-.546-.467Zm18.778 16.043-1.278-1.097c-.056.106-.112.213-.18.315l-.084.135 1.277 1.041c2.73 2.189 5.448 4.4 8.194 6.561-2.623-2.341-5.284-4.631-7.929-6.95v-.005Zm-14.389-7.546a7.67 7.67 0 0 0-.636-.023h-.675c1.424 1.339 2.847 2.684 4.277 4.018a.552.552 0 0 0 .045-.056 1.88 1.88 0 0 0 .309-.737c-1.103-1.07-2.206-2.133-3.314-3.202h-.006Zm-8.869-8.497h-1.389s.022.022.028.033c.152.147.309.293.455.434h1.39c-.163-.152-.326-.31-.489-.467h.005Zm23.275 22.497-4.361-4.254c-.152.096-.31.197-.473.298-.023.017-.045.028-.068.04l4.052 3.764.422.394.135.13c2.735 2.493 5.453 5.014 8.21 7.49-2.616-2.651-5.278-5.239-7.917-7.862Zm-22.672-14.023h-1.238c1.463 1.733 2.926 3.467 4.394 5.2h1.205a1997.348 1997.348 0 0 0-4.361-5.2Zm-7.158-8.474h-1.188c.13.157.26.309.389.467h1.193l-.394-.467Zm29.847 35.789-2.865-3.478c-.208.051-.416.096-.624.135l3.162 3.68c2.741 3.129 5.464 6.292 8.227 9.404-2.611-3.27-5.267-6.489-7.9-9.741Zm-24.001-24.18c-.782-1.047-1.57-2.088-2.352-3.129h-.079v1.457c.574.771 1.154 1.542 1.728 2.313.36.478.72.951 1.075 1.429h1.182l-1.548-2.07h-.006Zm-8.75-11.604h-1.097l.349.467h1.103c-.113-.152-.237-.309-.355-.467Zm15.796 22.065a3.65 3.65 0 0 0-.557-.276c.112.152.225.298.337.45l.057-.039c.061-.045.129-.085.196-.124l-.033-.017v.006Zm16.96 21.94-7.962-10.832c-.293-.4-.591-.794-.878-1.193a7.87 7.87 0 0 1-1.655-.934c.664.872 1.328 1.744 1.998 2.616l8.16 10.653c2.746 3.528 5.469 7.079 8.238 10.59-2.605-3.652-5.262-7.265-7.889-10.9h-.012ZM87.333 78.84c-.05.456-.107.918-.163 1.368h.585c.068-.501.14-1.002.203-1.503l-.63.13.005.006Zm-1.727.366c-.017.332-.029.67-.04 1.007h.574l.068-1.13-.602.123Zm-1.098.23-.58.125c.006.22.017.433.023.652h.568c0-.258-.01-.517-.016-.776h.005Zm9.01-47.487-.31 2.217h.41l.26-2.161c.36-3.27.748-6.539 1.086-9.814-.507 3.253-.963 6.505-1.447 9.758Zm-1.21 8.637-.158 1.132a2545.045 2545.045 0 0 0-2.617 19.56c-.59 4.625-1.181 9.245-1.755 13.877.197.382.371.776.506 1.176.675-4.975 1.328-9.955 1.98-14.94.84-6.528 1.666-13.05 2.449-19.59l.14-1.198h-.1a3.81 3.81 0 0 1-.445-.022v.005Zm-4.232-8.61-.135 2.19h.405l.084-2.161c.102-3.264.225-6.528.31-9.797-.248 3.258-.445 6.516-.664 9.769Zm-.591 9.78c-.394 6.523-.732 13.045-1.064 19.561-.185 3.754-.365 7.507-.534 11.26.225.231.439.467.641.71.22-3.974.422-7.94.625-11.92.315-6.521.636-13.043.895-19.576l.05-1.289h-.54l-.073 1.244v.01Zm-4.49-9.751c-.158-3.258-.288-6.522-.473-9.78.017 3.263.073 6.522.107 9.78l.045 2.318c.13-.045.264-.084.4-.123l-.085-2.2.005.005Zm1.052 29.346c-.203-6.528-.405-13.044-.664-19.566l-.05-1.244a3.224 3.224 0 0 1-.535-.123l.028 1.367c.123 6.522.31 13.044.49 19.566.095 3.118.196 6.24.297 9.364.248.157.479.326.71.495-.09-3.286-.18-6.573-.276-9.865v.006Zm-6.494-29.346c-.41-3.258-.805-6.517-1.238-9.77.27 3.27.59 6.534.883 9.792l.209 2.133h.405l-.26-2.16v.005Zm3.388 29.323c-.72-6.522-1.441-13.038-2.218-19.554l-.152-1.266h-.534l.13 1.316c.64 6.528 1.344 13.044 2.048 19.566l.877 7.93c.254.117.501.236.738.36-.293-2.78-.591-5.566-.89-8.352Zm-32.02 26.87a8.856 8.856 0 0 0-.31.614l-.083.186.438.146c.012-.146.017-.315.023-.507v-.421l-.062-.017h-.006Zm-1.277 3.658c-.05.282-.096.574-.135.873l.68.151c.09-.27.187-.551.265-.844l-.816-.18h.006Z"
  />
</svg>
