<svg width="161" height="208" viewBox="0 0 161 208" fill="none" xmlns="http://www.w3.org/2000/svg">
  <path
    d="M155.168 16.622c0 .086.006.177.011.257.023.45.097.895.228 1.31a5.264 5.264 0 0 0 4.947 3.688v5.42a5.27 5.27 0 0 0-5.186 5.266c0 .934.251 1.818.678 2.581.211.382.473.73.775 1.038a5.238 5.238 0 0 0 3.146 1.595c.194.029.388.04.587.046v5.368c-.171 0-.336.012-.501.029-.012.006-.023.006-.035.011-.171.017-.33.046-.495.08a5.356 5.356 0 0 0-.661.188c-.063.029-.126.046-.183.069a.2.2 0 0 1-.051.022c-.057.029-.108.046-.165.074-.057.029-.109.052-.166.08l-.136.069a4.036 4.036 0 0 0-.377.222c-.062.04-.119.074-.176.114-.063.045-.131.091-.188.142-.063.046-.126.092-.183.149a2.122 2.122 0 0 0-.176.153c-.057.052-.114.109-.171.166a4.425 4.425 0 0 0-.314.347 5.206 5.206 0 0 0-1.208 3.215v.296c0 .063 0 .12.006.177 0 .062.005.13.017.193 0 .063.011.126.017.183.011.057.017.12.028.176.012.08.029.16.046.234l.051.228c.017.057.029.108.046.165.023.063.04.126.057.188.017.057.04.114.057.171l.068.171a4.28 4.28 0 0 0 .171.37v.012c.04.08.086.16.131.24.006.01.012.017.017.028.04.068.08.131.126.194.057.085.108.17.171.25.068.097.142.194.216.285.052.063.103.12.154.177.006.012.017.017.023.023a1.6 1.6 0 0 0 .103.108c.051.052.096.097.148.143.005.011.017.017.023.022a.274.274 0 0 0 .017.018c.017.017.034.028.045.045.08.074.165.148.251.211.08.063.16.125.245.182.051.04.103.074.16.109l.188.12c.102.062.205.119.313.17.69.354 1.476.553 2.303.57v5.369a4.97 4.97 0 0 0-.508.034c-.085.006-.171.023-.25.034-.069.006-.137.023-.2.034l-.291.069c-.079.023-.159.04-.239.068-.08.023-.154.051-.228.074-.074.029-.154.057-.228.086-.074.034-.148.062-.222.096-.074.035-.148.069-.217.109-.074.04-.142.074-.211.12-.057.034-.108.062-.165.102-.091.063-.176.12-.268.188-.057.04-.108.074-.159.12-.126.097-.245.2-.365.319a5.21 5.21 0 0 0-1.636 3.807v.051c0 .405.046.792.137 1.169.017.085.04.165.063.245.023.08.045.16.074.239a1.693 1.693 0 0 0 .074.194c.006.017.011.04.023.057.028.09.068.176.108.268.097.216.211.433.342.638.063.103.131.2.2.302.045.063.091.131.148.188.045.068.097.125.154.182.045.063.102.126.159.177.051.057.108.108.165.165l.183.165c.057.052.119.103.182.149.046.04.097.08.148.114.023.022.052.04.074.057.057.04.109.08.166.114.051.04.108.068.165.097.057.04.12.074.182.102a1.3 1.3 0 0 0 .2.103c.057.028.114.057.171.08.342.153.701.273 1.077.353.154.034.308.057.462.074h.028c.165.017.336.029.507.034v5.369a5.28 5.28 0 0 0-4.405 2.496 5.262 5.262 0 0 0-.775 2.553c0 .074-.006.142-.006.21v.052c0 .063 0 .12.006.171a5.693 5.693 0 0 0 .137 1.06 5.265 5.265 0 0 0 5.038 4.03v5.362a5.28 5.28 0 0 0-5.021 3.955c-.08.337-.137.69-.154 1.049v.028c-.006.08-.012.154-.012.24v.051a5.258 5.258 0 0 0 1.761 3.927 5.22 5.22 0 0 0 3.42 1.333v5.369a5.266 5.266 0 0 0-5.181 5.043c0 .075-.005.143-.005.217v.051c0 .074 0 .149.005.223 0 .051 0 .102.012.159.005.091.017.183.028.268.012.097.029.194.046.291.034.182.074.364.131.541.057.205.131.405.211.593.051.131.114.256.177.376.034.063.062.125.096.182.137.24.291.468.468.678l.131.16c.045.051.091.103.142.154a4.632 4.632 0 0 0 .855.729c.057.046.125.08.182.126l.114.068.149.086c.119.068.245.131.37.182.063.029.125.051.188.08h.012c.062.028.131.051.193.074.063.023.131.045.2.068.068.023.137.04.205.057l.205.052c.068.017.143.028.211.039l.188.035c.017 0 .029 0 .04.005.063.012.12.017.182.023.017 0 .029 0 .046.006.137.011.273.017.41.023v5.368c-.068 0-.137 0-.205.017a5.2 5.2 0 0 0-2.963 1.112 5.158 5.158 0 0 0-1.157 1.259 5.22 5.22 0 0 0-.855 2.616 4.354 4.354 0 0 0-.012.291v.022c0 .086 0 .177.012.268.005.16.023.314.045.473.017.097.029.194.052.285.011.052.017.097.028.148.051.217.108.434.188.639l.052.136c.034.086.074.171.108.257.04.091.085.182.137.268.051.097.108.199.171.29.005.018.017.029.022.035.057.096.126.188.188.279 0 0 .006.006.006.011.069.091.137.188.211.274.051.063.108.125.165.188.177.194.371.376.57.541.046.034.097.074.148.109.046.034.092.068.137.096.074.057.154.103.234.154.171.109.353.205.535.291.063.034.132.063.194.091.012.006.023.012.034.012.057.028.12.051.183.074a4.9 4.9 0 0 0 .707.211.9.9 0 0 0 .176.034c.069.017.143.028.211.034.051.011.103.017.154.023.171.023.342.034.519.034v5.368a5.257 5.257 0 0 0-3.477 1.385 5.189 5.189 0 0 0-1.425 2.172 5.223 5.223 0 0 0-.273 1.339v.011c-.006.063-.012.126-.012.188v.217a5.293 5.293 0 0 0 .536 2.302c0 .012.011.017.011.029.04.08.08.154.126.228l.068.119c.057.097.114.189.177.28a4.22 4.22 0 0 0 .484.604 5.366 5.366 0 0 0 .781.689c.063.046.131.086.194.131.319.217.667.399 1.026.53h.011a5.092 5.092 0 0 0 1.778.342v5.369a5.265 5.265 0 0 0-5.152 4.656 3.257 3.257 0 0 0-.028.41c0 .046 0 .092-.006.143V160.256c0 .057 0 .114.011.17 0 .057.006.109.018.166 0 .068.011.137.022.199.023.2.057.399.109.593.028.131.068.256.108.382.017.062.04.125.063.188.199.553.495 1.06.86 1.499.046.062.097.125.154.182.051.057.103.12.16.177.108.114.222.222.342.319.062.051.119.102.182.148.051.046.103.086.16.125a.178.178 0 0 0 .057.04c.057.04.114.08.171.114.062.046.125.086.188.12.017.006.028.017.045.023.057.034.12.068.183.097.085.045.176.091.267.136l.04.018a.737.737 0 0 0 .131.051c.074.034.149.063.223.085.136.052.273.092.416.131l.199.052c.188.045.382.074.576.097.165.017.33.028.501.034v5.368c-.08 0-.165.006-.245.017a5.543 5.543 0 0 0-.82.114 4.536 4.536 0 0 0-.616.177 5.265 5.265 0 0 0-3.499 4.958c0 .69.137 1.351.382 1.961a5.283 5.283 0 0 0 1.994 2.433c.319.211.667.393 1.026.53h.012c.222.086.455.16.701.211.347.08.712.125 1.077.125v5.42a6.313 6.313 0 0 0-.736.063 5.221 5.221 0 0 0-2.644 1.231 4.926 4.926 0 0 0-.855.963 5.202 5.202 0 0 0-.952 3.003 5.273 5.273 0 0 0 5.107 5.266l.017.262c.023.32.04.639.063.952V202.765h-.023a.902.902 0 0 0-.183-.017 1.04 1.04 0 0 0-.136-.012c-.086 0-.177-.005-.268-.005h-.24a5.255 5.255 0 0 0-5.02 5.146h-5.426a5.261 5.261 0 0 0-4.764-5.129 1.79 1.79 0 0 0-.257-.017h-.245c-.137 0-.268 0-.399.011-.057.011-.125.011-.176.017a5.252 5.252 0 0 0-4.577 4.2 5.55 5.55 0 0 0-.097.929h-5.425a5.257 5.257 0 0 0-4.576-5.106 1.709 1.709 0 0 0-.251-.023c-.114-.017-.222-.017-.336-.017H127.642c-.149.011-.297.023-.445.04a5.255 5.255 0 0 0-3.704 2.319v.012c-.251.37-.445.769-.593 1.197a5.357 5.357 0 0 0-.274 1.584h-5.431a5.254 5.254 0 0 0-5.021-5.146h-.262a5.26 5.26 0 0 0-4.605 2.764 5.139 5.139 0 0 0-.632 2.388h-5.426a5.25 5.25 0 0 0-4.285-5.055 4.22 4.22 0 0 0-.736-.092h-.479c-.068 0-.125.006-.187.017-.069 0-.143.012-.211.023-.131.012-.262.04-.388.063a4.057 4.057 0 0 1-.205.046 5.161 5.161 0 0 0-1.84.843 5.232 5.232 0 0 0-2.188 4.166h-5.427a5.254 5.254 0 0 0-4.667-5.118c-.069-.011-.137-.017-.205-.023h-.012c-.057-.005-.108-.011-.165-.011H79.792c-.085 0-.165.011-.25.017-.166.017-.33.04-.485.069-.319.056-.627.148-.929.267a5.284 5.284 0 0 0-3.351 4.799h-5.425a5.26 5.26 0 0 0-5.015-5.146h-.445c-.108 0-.217.005-.325.023-.063.005-.114.017-.17.017-.32.039-.628.114-.924.211a5.263 5.263 0 0 0-3.642 4.895h-5.42a5.252 5.252 0 0 0-3.539-4.856c-.062-.028-.13-.045-.193-.068a.641.641 0 0 0-.092-.029c-.05-.017-.102-.034-.16-.045a5.746 5.746 0 0 0-.769-.137c-.05 0-.09-.006-.142-.011a2.901 2.901 0 0 0-.228-.012H47.878c-.166.012-.33.029-.502.052h-.017a5.252 5.252 0 0 0-4.474 5.095H37.46a5.223 5.223 0 0 0-2-4.018 5.21 5.21 0 0 0-3.198-1.129H32.2c-.183 0-.365.006-.542.023-.074.012-.148.017-.222.034-.074.006-.148.023-.222.035a5.274 5.274 0 0 0-4.223 4.45c-.029.2-.046.405-.046.61H21.52a5.167 5.167 0 0 0-.525-2.182 5.232 5.232 0 0 0-1.043-1.459 5.276 5.276 0 0 0-3.425-1.511h-.484c-.086 0-.171.012-.257.017A5.265 5.265 0 0 0 11 207.9H5.574a5.21 5.21 0 0 0-.382-1.87 5.216 5.216 0 0 0-1.009-1.59 5.24 5.24 0 0 0-3.46-1.681c-.045 0-.096-.006-.142-.011H.36v-5.477a5.268 5.268 0 0 0 5.01-4.183c.074-.348.108-.713.108-1.083a5.265 5.265 0 0 0-4.975-5.249c-.052 0-.097-.011-.149-.011v-5.426a5.25 5.25 0 0 0 5.118-5.254c0-.673-.12-1.317-.359-1.904a4.947 4.947 0 0 0-.593-1.111 3.87 3.87 0 0 0-.359-.456c-.005 0-.011-.011-.017-.017a5.272 5.272 0 0 0-3.795-1.773v-5.374a5.26 5.26 0 0 0 5.01-4.183c.073-.347.107-.712.107-1.077v-.148c0-.057 0-.108-.005-.165a1.7 1.7 0 0 0-.017-.24c-.012-.08-.017-.159-.029-.239a5.23 5.23 0 0 0-2.342-3.682 5.43 5.43 0 0 0-1.659-.706 5.06 5.06 0 0 0-1.065-.143v-5.374a5.258 5.258 0 0 0 5.1-4.81c.017-.148.023-.291.023-.439v-.057c0-.125 0-.245-.011-.359-.177-2.69-2.388-4.827-5.112-4.901v-5.38c.05 0 .097 0 .148-.006a5.255 5.255 0 0 0 3.63-1.732 5.222 5.222 0 0 0 1.322-3.049c.012-.086.017-.171.017-.257.006-.068.006-.142.006-.211v-.051c0-.872-.21-1.698-.587-2.416a5.257 5.257 0 0 0-.832-1.18 5.288 5.288 0 0 0-3.699-1.664v-5.374a5.258 5.258 0 0 0 5.027-4.275c.046-.227.074-.467.08-.706.005-.091.011-.183.011-.279v-.177c0-.057 0-.114-.006-.171a5.258 5.258 0 0 0-5.112-4.958v-5.374a5.256 5.256 0 0 0 5.118-5.244v-.017c0-.108 0-.216-.011-.325a4.961 4.961 0 0 0-.137-.968 5.263 5.263 0 0 0-4.97-4.018V85.7a5.273 5.273 0 0 0 3.55-1.516c.383-.37.713-.804.964-1.283a5.64 5.64 0 0 0 .194-.421c.034-.075.062-.148.085-.217.029-.074.057-.148.074-.222.023-.074.046-.148.063-.228.023-.074.04-.154.057-.228.051-.217.086-.439.103-.667.011-.063.017-.131.017-.2.005-.09.011-.182.011-.273 0-.091 0-.177-.006-.262 0-.091-.011-.177-.017-.257a5.254 5.254 0 0 0-5.095-4.792V69.76c.126 0 .251-.011.37-.023l.366-.05c.16-.023.313-.058.473-.103.08-.017.153-.04.228-.063.074-.023.153-.051.222-.074l.222-.086c.074-.034.148-.062.217-.097.074-.034.142-.068.21-.102.069-.04.137-.074.206-.114.068-.04.136-.08.2-.125.067-.04.13-.086.193-.132.057-.04.12-.085.177-.13 0 0 .005 0 .01-.006.052-.04.104-.08.15-.126a.044.044 0 0 0 .022-.022c.051-.046.102-.086.154-.137.051-.046.108-.097.16-.154.05-.051.102-.103.153-.16.052-.057.097-.108.143-.165a5.17 5.17 0 0 0 1.22-2.872l.016-.166c.006-.056.012-.108.012-.165v-.24c0-.067 0-.136-.006-.204a5.224 5.224 0 0 0-.33-1.642 3.281 3.281 0 0 0-.189-.438 5.493 5.493 0 0 0-.347-.616s-.006 0-.006-.006a4.345 4.345 0 0 0-.28-.382c-.096-.125-.204-.239-.313-.353a1.131 1.131 0 0 0-.165-.165 2.348 2.348 0 0 0-.176-.16c-.057-.057-.12-.102-.183-.148a2.144 2.144 0 0 0-.177-.142 14.555 14.555 0 0 0-.216-.148c-.063-.04-.125-.08-.188-.114a1.911 1.911 0 0 0-.205-.12 2.442 2.442 0 0 0-.211-.108 6.523 6.523 0 0 0-.217-.097c-.068-.034-.142-.057-.216-.086a5.304 5.304 0 0 0-.667-.2c-.08-.016-.16-.034-.245-.045a1.285 1.285 0 0 0-.205-.034 2.775 2.775 0 0 0-.314-.034 2.047 2.047 0 0 0-.268-.017v-5.375a5.12 5.12 0 0 0 1.112-.154 5.241 5.241 0 0 0 2.24-1.18c.068-.062.142-.125.205-.193.05-.045.09-.091.136-.142l.017-.018c.006 0 .012-.01.012-.01.028-.03.057-.058.08-.092a1.66 1.66 0 0 0 .097-.108c.045-.052.085-.103.125-.154.074-.091.142-.183.205-.285.034-.052.068-.103.103-.16 0-.005.005-.011.011-.017.034-.057.068-.108.103-.17 0-.007.005-.012.011-.018.034-.057.063-.108.091-.17.034-.064.063-.126.091-.189 0-.006 0-.011.006-.017l.051-.108c.017-.04.035-.074.046-.114.034-.074.063-.154.085-.234a.278.278 0 0 0 .023-.063c.023-.062.046-.125.057-.188.012-.023.017-.051.023-.074v-.017c.017-.051.034-.102.046-.16l.034-.142c.011-.04.017-.086.028-.131.012-.057.017-.114.029-.171a.575.575 0 0 0 .017-.142c0-.012.006-.023.006-.035.011-.062.017-.13.022-.194.012-.074.012-.16.018-.239.005-.057.005-.125.005-.182 0-.091 0-.183-.006-.268 0-.08-.01-.171-.017-.256a5.334 5.334 0 0 0-.364-1.534 5.265 5.265 0 0 0-4.73-3.26v-5.374a5.233 5.233 0 0 0 1.698-.336c.057-.017.108-.04.165-.063a5.273 5.273 0 0 0 2.832-2.776c.171-.38.291-.797.36-1.224a4.74 4.74 0 0 0 .074-.86c0-2.862-2.274-5.181-5.118-5.267V21.9A5.248 5.248 0 0 0 5.5 16.645c0-.707-.137-1.385-.388-1.994a5.28 5.28 0 0 0-4.73-3.266V5.977c.08 0 .154 0 .234-.012.08-.006.17-.011.256-.023A5.273 5.273 0 0 0 5.602.7c0-.045-.011-.097-.011-.148h5.425V.7a5.261 5.261 0 0 0 5.044 5.26c.074.006.154.012.222.012h.046A5.27 5.27 0 0 0 21.542.699c0-.045-.011-.097-.011-.148h5.431c0 .051-.011.097-.011.148 0 .268.023.525.063.781a5.26 5.26 0 0 0 4.924 4.48c.09.005.188.01.284.01h.023c.086 0 .171 0 .257-.01.057 0 .114-.006.17-.012l.177-.017c.086-.017.171-.028.263-.04.085-.017.176-.034.256-.051a5.116 5.116 0 0 0 1.425-.542 5.382 5.382 0 0 0 1.236-.963A5.244 5.244 0 0 0 37.49.7c0-.045-.006-.097-.006-.148h5.425c0 .051-.011.097-.011.148 0 2.73 2.069 4.97 4.73 5.243.063.012.131.012.194.018.034 0 .068.005.102.005.08.006.16.012.245.012.086 0 .166 0 .257-.012a1.3 1.3 0 0 0 .256-.023h.029c.273-.022.535-.074.792-.142a5.255 5.255 0 0 0 1.453-.633A5.265 5.265 0 0 0 53.44.7c0-.045-.011-.097-.011-.148h5.425V.7a5.284 5.284 0 0 0 2.98 4.753c.12.057.24.12.365.16.063.028.126.051.194.068.091.034.183.063.28.086.125.04.25.068.381.09.091.018.183.035.28.052.074.006.148.017.216.023h.034c.086.011.171.017.262.023h.012c.08.006.16.011.245.011h.023c.085 0 .176 0 .256-.011a5.268 5.268 0 0 0 5.015-5.26c0-.046-.011-.097-.011-.149h5.431c0 .052-.011.097-.011.149 0 1.806.906 3.396 2.296 4.348.342.24.718.433 1.117.581.251.097.508.171.776.228.01 0 .022.006.034.006.12.023.245.051.37.063.143.017.285.034.433.04.08.005.166.01.245.01.08 0 .166 0 .245-.01A5.273 5.273 0 0 0 85.343.7c0-.046-.011-.098-.011-.149h5.425c0 .051-.005.097-.005.148 0 1.151.376 2.223.997 3.095.256.347.547.661.872.935a5.281 5.281 0 0 0 1.71.968h.017c.108.04.228.074.342.103h.011c.034.006.074.017.108.023.092.023.194.045.291.062.011.006.017.006.029.012.136.017.267.04.404.051.08 0 .154.012.24.012.08.005.16.01.239.01.08 0 .165 0 .25-.01A5.272 5.272 0 0 0 101.279.7V.55h5.425V.7c0 .587.091 1.146.274 1.676a5.225 5.225 0 0 0 3.613 3.414c.011 0 .023 0 .034.005h.012c.142.046.29.069.444.091.074.018.148.029.228.04l.2.017c.074.012.142.012.216.018.074.005.148.01.217.01h.023A5.274 5.274 0 0 0 117.235.7c0-.046-.011-.098-.011-.149h5.431c0 .051-.011.097-.011.148 0 .091 0 .188.011.285.028.502.12.986.279 1.442a5.273 5.273 0 0 0 3.562 3.345c.034.012.063.018.091.023.063.017.131.034.194.046.08.017.16.04.245.051.08.017.16.023.245.034.069.006.143.012.211.023.063 0 .125.006.182.012.086.005.166.01.245.01.069 0 .143 0 .211-.01A5.263 5.263 0 0 0 133.175.7c0-.046-.005-.098-.011-.149h5.425c0 .051-.005.097-.005.148 0 .211.011.416.034.621.302 2.537 2.394 4.526 4.981 4.645.08.006.165.012.251.012.154 0 .307-.012.461-.023.012 0 .023-.006.029-.006.256-.023.513-.063.758-.131a5.245 5.245 0 0 0 3.522-2.89c.319-.672.496-1.43.496-2.228V.551h5.425c0 .051-.011.097-.011.148a5.269 5.269 0 0 0 3.653 5.015c.028.006.051.018.074.023.091.034.182.052.279.074.131.035.262.063.399.086.08.017.171.028.257.04.199.022.404.034.609.034.074 0 .149 0 .223-.011h.039c.057 0 .12-.012.177-.018h.126c.017 0 .028 0 .039-.005v5.448h-.051a5.263 5.263 0 0 0-5.135 5.26l-.051-.023Z"
    fill="var(--main-theme-2, currentColor)"
  />
  <path
    d="M69.696 185.432h1.384v-1.947h-.011a1.133 1.133 0 0 1-.4.36c-.168.096-.394.18-.664.259l-.185-.698c.31-.079.574-.186.787-.309.214-.124.389-.287.524-.495h.894v2.824h1.03v.636H69.69v-.636l.006.006Zm5.053.636a3.292 3.292 0 0 1-.726-.27 2.066 2.066 0 0 1-.529-.405l.462-.535c.112.146.247.27.41.377.164.101.355.18.563.231.208.05.433.079.675.079.254 0 .484-.04.676-.124.191-.085.349-.203.456-.36a.984.984 0 0 0 .163-.569 1.51 1.51 0 0 1-.53.315c-.185.068-.427.096-.714.096-.36 0-.68-.051-.95-.146a1.42 1.42 0 0 1-.626-.411.927.927 0 0 1-.213-.613.93.93 0 0 1 .253-.636c.169-.186.4-.332.692-.434.293-.101.63-.152 1.002-.152.416 0 .77.057 1.063.175.293.112.523.293.681.529.158.236.242.54.242.911 0 .445-.079.816-.242 1.12a1.585 1.585 0 0 1-.731.692c-.321.158-.72.237-1.188.237-.326 0-.624-.034-.895-.101l.006-.006Zm1.61-1.795a.892.892 0 0 0 .365-.214.42.42 0 0 0 .13-.315.466.466 0 0 0-.13-.321.819.819 0 0 0-.371-.219 1.75 1.75 0 0 0-.54-.079 1.58 1.58 0 0 0-.518.079.795.795 0 0 0-.355.225.467.467 0 0 0-.123.32c0 .119.045.22.129.31a.87.87 0 0 0 .36.214c.152.05.332.079.523.079.192 0 .378-.029.53-.079Zm3.145 1.761c-.304-.084-.535-.202-.709-.36a.738.738 0 0 1-.253-.557c0-.152.04-.287.118-.411a.953.953 0 0 1 .326-.309 1.45 1.45 0 0 1 .484-.175 1.418 1.418 0 0 1-.371-.174.763.763 0 0 1-.242-.265.696.696 0 0 1-.084-.337c0-.197.073-.366.225-.507.152-.141.36-.247.624-.321a3.43 3.43 0 0 1 .912-.112c.343 0 .653.039.923.112.27.074.478.186.624.327.147.14.225.309.225.512a.677.677 0 0 1-.084.332.844.844 0 0 1-.23.264 1.085 1.085 0 0 1-.35.175c.175.034.333.095.462.174a.893.893 0 0 1 .31.304.76.76 0 0 1 .106.4.757.757 0 0 1-.253.574c-.169.157-.405.281-.709.36a3.886 3.886 0 0 1-1.035.124c-.389 0-.732-.045-1.03-.124l.011-.006Zm1.548-.506a.874.874 0 0 0 .354-.186.361.361 0 0 0 .124-.276.371.371 0 0 0-.124-.281.874.874 0 0 0-.354-.186 1.833 1.833 0 0 0-.518-.067c-.191 0-.36.022-.518.067a.838.838 0 0 0-.354.186.373.373 0 0 0-.13.27c0 .113.045.203.13.287a.818.818 0 0 0 .354.186c.152.045.321.067.518.067s.366-.022.518-.067Zm-.074-1.559a.713.713 0 0 0 .304-.169.347.347 0 0 0 .107-.259c0-.101-.04-.18-.112-.253a.707.707 0 0 0-.304-.163 1.49 1.49 0 0 0-.44-.056c-.174 0-.32.016-.45.056a.707.707 0 0 0-.303.163.351.351 0 0 0-.113.253c0 .096.04.186.113.259.073.073.174.13.304.169.13.039.281.056.444.056.163 0 .315-.022.445-.056h.005Zm3.405 2.105a3.245 3.245 0 0 1-.726-.271 2.043 2.043 0 0 1-.529-.405l.462-.534c.112.146.247.27.41.377.163.101.355.18.563.23.208.051.433.079.675.079.254 0 .484-.039.676-.124a1.04 1.04 0 0 0 .455-.36.979.979 0 0 0 .164-.568 1.524 1.524 0 0 1-.53.315c-.185.068-.427.096-.714.096-.36 0-.681-.051-.951-.147a1.41 1.41 0 0 1-.625-.41.93.93 0 0 1-.213-.614c0-.23.084-.45.253-.636.168-.185.4-.332.692-.433.293-.101.63-.152 1.002-.152.416 0 .77.056 1.063.175.293.112.523.292.681.529.157.236.242.54.242.911 0 .445-.079.816-.242 1.12a1.585 1.585 0 0 1-.732.692c-.32.158-.72.236-1.187.236-.326 0-.625-.033-.895-.101l.006-.005Zm1.61-1.796a.88.88 0 0 0 .365-.213c.09-.09.13-.192.13-.316a.464.464 0 0 0-.13-.32.827.827 0 0 0-.371-.22 1.78 1.78 0 0 0-.54-.079c-.203 0-.366.029-.518.079a.812.812 0 0 0-.355.225.471.471 0 0 0-.123.321c0 .118.045.22.129.31s.208.163.36.213c.152.051.332.079.523.079.192 0 .377-.028.53-.079ZM54.98 35.612l1.378 2.622 1.373-2.622h1.278v3.46h-.9v-2.48h-.012l-1.289 2.48h-.877l-1.317-2.48h-.012v2.48h-.9v-3.46h1.277Zm4.912 0h.94v3.46h-.94v-3.46Zm2.898 3.337c-.371-.146-.658-.355-.855-.63a1.61 1.61 0 0 1-.304-.98c0-.376.096-.697.287-.967.191-.27.461-.484.805-.636.343-.152.748-.225 1.215-.225.343 0 .658.05.946.146.286.096.528.236.725.417.197.18.338.393.422.635l-.85.214a.94.94 0 0 0-.247-.377 1.117 1.117 0 0 0-.422-.247 1.575 1.575 0 0 0-.551-.09c-.282 0-.524.044-.732.14a1.09 1.09 0 0 0-.484.394 1.064 1.064 0 0 0-.169.602c0 .23.062.428.192.602.123.175.303.304.534.394.231.09.501.135.81.135.231 0 .445-.033.642-.095a1.27 1.27 0 0 0 .484-.276.941.941 0 0 0 .264-.416l.873.174c-.073.27-.214.5-.422.703a2.03 2.03 0 0 1-.794.456c-.32.107-.675.158-1.058.158-.5 0-.934-.074-1.305-.22l-.006-.011Zm4.31-3.337h.946v1.311h2.273v-1.311h.946v3.46h-.946v-1.474h-2.273v1.475h-.945v-3.461Zm5.037 0h3.528v.63H73.05v.777h2.42v.563h-2.42v.85h2.661v.635h-3.579v-3.46l.006.005Zm4.3 0h.945v2.746h2.144v.715h-3.09v-3.461Zm6.437 3.337a1.841 1.841 0 0 1-.81-.63 1.567 1.567 0 0 1-.287-.929c0-.365.1-.692.303-.973.203-.282.484-.507.85-.659a3.104 3.104 0 0 1 1.244-.236 3.2 3.2 0 0 1 .945.135c.287.09.53.214.726.377.197.163.32.343.377.552l-.872.185a.673.673 0 0 0-.23-.298 1.134 1.134 0 0 0-.423-.203 1.747 1.747 0 0 0-.518-.073c-.281 0-.534.05-.748.152-.22.102-.388.242-.512.417a1.023 1.023 0 0 0-.186.607c0 .231.068.428.203.602.135.175.32.31.557.411.236.102.512.147.821.147.26 0 .49-.04.704-.119.214-.078.388-.18.517-.31a.684.684 0 0 0 .209-.444h-2.229v-.534h3.14v1.964h-.754l-.056-.62a1.644 1.644 0 0 1-.445.383 2.26 2.26 0 0 1-.607.248 2.97 2.97 0 0 1-.72.084 2.93 2.93 0 0 1-1.182-.225l-.017-.011Zm4.575-3.337h.94v3.46h-.94v-3.46Zm4.282 3.421c-.281-.09-.5-.225-.675-.4a1.09 1.09 0 0 1-.31-.607l.918-.191c.016.14.067.264.163.371a.886.886 0 0 0 .354.242c.147.056.315.085.507.085.191 0 .349-.023.49-.074a.666.666 0 0 0 .32-.208.49.49 0 0 0 .113-.315.538.538 0 0 0-.107-.338.628.628 0 0 0-.304-.219 1.312 1.312 0 0 0-.467-.073c-.163 0-.31.022-.45.073a.826.826 0 0 0-.321.18l-.749-.124.107-1.823h2.746v.608h-1.963l-.046.748c.113-.073.248-.124.411-.163.163-.04.327-.056.49-.056.32 0 .602.05.838.146.237.096.422.236.552.41.13.175.197.39.197.631 0 .242-.079.473-.231.658a1.411 1.411 0 0 1-.653.428 2.954 2.954 0 0 1-1.001.152c-.355 0-.67-.045-.946-.14h.017Zm6.623-3.308c.321.14.586.332.788.585l-.422.5a1.87 1.87 0 0 0-.371-.36 1.53 1.53 0 0 0-.462-.225 2.065 2.065 0 0 0-.58-.078c-.236 0-.433.045-.607.129a.9.9 0 0 0-.394.371 1.1 1.1 0 0 0-.14.552c.174-.146.348-.248.534-.315.186-.062.428-.096.726-.096.354 0 .67.05.945.14.276.09.479.232.625.412a.958.958 0 0 1-.04 1.249c-.168.186-.399.332-.697.433a3.235 3.235 0 0 1-1.036.152c-.388 0-.743-.056-1.035-.169a1.395 1.395 0 0 1-.675-.534c-.158-.242-.237-.546-.237-.906 0-.434.073-.8.209-1.103a1.47 1.47 0 0 1 .641-.704c.293-.163.664-.247 1.109-.247.444 0 .799.067 1.12.208v.006Zm-1.637 1.682a.853.853 0 0 0-.366.214.426.426 0 0 0-.13.31c0 .118.046.23.136.326.09.096.214.174.371.225.158.056.338.079.54.079.192 0 .366-.028.518-.085a.82.82 0 0 0 .355-.225.45.45 0 0 0 .123-.32.443.443 0 0 0-.129-.316.93.93 0 0 0-.36-.214 1.537 1.537 0 0 0-.53-.078c-.196 0-.37.022-.528.073v.011Zm4.085 1.626a1.633 1.633 0 0 1-.675-.4 1.09 1.09 0 0 1-.31-.607l.918-.191c.017.14.067.264.163.371a.888.888 0 0 0 .354.242c.147.056.316.085.507.085s.349-.023.489-.074a.664.664 0 0 0 .321-.208.492.492 0 0 0 .113-.315.539.539 0 0 0-.107-.338.631.631 0 0 0-.304-.219 1.312 1.312 0 0 0-.467-.073c-.163 0-.31.022-.45.073a.827.827 0 0 0-.321.18l-.748-.124.106-1.823h2.747v.608h-1.964l-.045.748c.112-.073.247-.124.41-.163.164-.04.327-.056.49-.056.321 0 .602.05.838.146.237.096.423.236.552.41.129.175.197.39.197.631 0 .242-.079.473-.231.658a1.41 1.41 0 0 1-.653.428 2.95 2.95 0 0 1-1.001.152c-.355 0-.67-.045-.946-.14h.017ZM59.617 96.775c-2.836-1.222-5.047-2.943-6.623-5.172-1.575-2.228-2.369-4.76-2.369-7.597 0-2.993.827-5.655 2.487-7.973 1.655-2.319 3.973-4.125 6.944-5.408 2.972-1.289 6.365-1.93 10.186-1.93 2.785 0 5.357.365 7.715 1.091 2.357.732 4.338 1.756 5.925 3.084 1.593 1.328 2.611 2.825 3.061 4.496l-7.157 1.514c-.321-.9-.951-1.71-1.891-2.425-.94-.715-2.088-1.272-3.438-1.672-1.351-.4-2.758-.596-4.215-.596-2.308 0-4.356.41-6.145 1.232-1.79.822-3.19 1.959-4.198 3.4-1.008 1.445-1.514 3.11-1.514 4.99 0 1.88.552 3.495 1.649 4.913 1.097 1.418 2.628 2.532 4.575 3.343 1.947.81 4.198 1.215 6.741 1.215 2.094 0 4.018-.32 5.768-.957 1.75-.635 3.157-1.485 4.215-2.543 1.058-1.058 1.632-2.28 1.71-3.658h-18.26v-4.378h25.7v23.584h-5.65l-.99-12.566h-.04c-.956 1.193-2.166 2.234-3.64 3.123-1.475.89-3.135 1.565-4.992 2.032-1.857.461-3.82.698-5.886.698-3.607 0-6.831-.608-9.668-1.83v-.01Zm35.047-27.287h7.676V97.81h-7.676V69.488Zm35.17 0c2.071 0 3.861.32 5.369.957 1.513.636 2.678 1.553 3.5 2.746.821 1.193 1.232 2.572 1.232 4.136 0 .9-.18 1.755-.534 2.566a5.856 5.856 0 0 1-1.554 2.088 6.782 6.782 0 0 1-2.329 1.31v.119c1.592.371 2.864 1.154 3.821 2.347.956 1.192 1.429 2.6 1.429 4.214 0 1.615-.433 2.91-1.294 4.12s-2.077 2.127-3.641 2.762c-1.564.636-3.41.957-5.532.957h-23.19V69.488h22.723Zm-2.189 11.654c.901 0 1.705-.14 2.409-.416.703-.276 1.238-.681 1.609-1.216.372-.529.557-1.142.557-1.829 0-1.035-.416-1.873-1.255-2.526-.832-.647-1.958-.974-3.359-.974h-12.768v6.961h12.807Zm.276 11.936c1.007 0 1.896-.147 2.667-.44.771-.292 1.373-.737 1.812-1.333a3.307 3.307 0 0 0 .659-2.009c0-1.142-.479-2.054-1.43-2.746-.956-.692-2.189-1.035-3.697-1.035h-13.089v7.557h13.089l-.011.006Zm-84.127 36.796c-.85-.371-1.554-.866-2.11-1.491a20.898 20.898 0 0 1-1.633-2.088l-2.15-4.215c-.506-.849-1.153-1.513-1.946-1.986a4.927 4.927 0 0 0-2.583-.715h-5.2v10.264h-7.754v-28.322h18.604c2.386 0 4.417.349 6.088 1.053 1.672.703 2.966 1.705 3.877 3.005.918 1.3 1.374 2.853 1.374 4.653 0 1.407-.338 2.668-1.013 3.782-.676 1.114-1.627 2.037-2.842 2.763-1.221.731-2.679 1.199-4.378 1.412v.04c.529.292 1.03.658 1.491 1.091.462.439.855.963 1.176 1.57l2.11 3.821c.293.422.597.754.918.996.32.237.703.361 1.153.361.372 0 .777-.136 1.216-.4a3.24 3.24 0 0 0 1.052-.996l1.79 3.382c-.715.793-1.65 1.424-2.803 1.891-1.153.461-2.313.697-3.483.697s-2.093-.185-2.943-.557l-.011-.011Zm-6.764-15.357c1.164 0 2.166-.157 3.005-.478.832-.321 1.474-.782 1.907-1.39.44-.608.659-1.35.659-2.228 0-.822-.22-1.536-.659-2.15-.439-.608-1.075-1.092-1.907-1.452-.833-.36-1.824-.534-2.966-.534h-8.942v8.232h8.903Zm31.822-13.207h8.953l14.242 28.322h-8.035l-2.746-5.61H65.154l-2.747 5.61h-8.075l14.519-28.322Zm10.54 17.861-6.129-12.689h-.078l-6.128 12.689h12.335Zm23.268-17.861v22.475h17.54v5.847H94.94V101.31h7.72Zm-62.625 37.511H28.06v-5.689h31.664v5.689H47.79v22.633h-7.754v-22.633Zm28.997-5.689h8.953l14.242 28.322h-8.035l-2.746-5.61H65.334l-2.746 5.61h-8.075l14.518-28.322Zm10.54 17.861-6.128-12.689h-.08l-6.127 12.689h12.335Zm42.322 10.703c-.849-.371-1.553-.866-2.11-1.491a20.913 20.913 0 0 1-1.632-2.088l-2.15-4.214c-.506-.85-1.153-1.514-1.947-1.987a4.926 4.926 0 0 0-2.582-.715h-9.15v10.265h-7.755v-28.322h22.554c2.386 0 4.418.354 6.089 1.052 1.671.703 2.966 1.705 3.877 3.005.917 1.3 1.373 2.853 1.373 4.654 0 1.406-.337 2.667-1.013 3.781-.675 1.114-1.626 2.037-2.841 2.763-1.222.732-2.679 1.199-4.378 1.412v.04a7.452 7.452 0 0 1 1.491 1.092c.461.438.855.962 1.176 1.57l2.11 3.82c.293.423.597.755.917.997.321.236.704.36 1.154.36.371 0 .776-.135 1.215-.4a3.247 3.247 0 0 0 1.053-.996l1.789 3.382c-.714.794-1.649 1.424-2.802 1.891-1.154.461-2.313.698-3.483.698-1.171 0-2.094-.186-2.944-.557l-.011-.012Zm-6.764-15.357c1.165 0 2.167-.157 3.005-.478.833-.321 1.475-.782 1.908-1.39.439-.608.658-1.35.658-2.228 0-.822-.219-1.536-.658-2.15-.439-.607-1.075-1.091-1.908-1.452-.833-.36-1.823-.534-2.965-.534h-12.887v8.232h12.847Z"
    fill="var(--main-theme-1, currentColor)"
  />
  <path
    d="m40.794 109.279-.326.09-1.854.553a605.7 605.7 0 0 0-4.91 1.478l-.006.002-.002.001c-1.348.41-2.696.82-4.05 1.246v.333h1.148c1.013-.271 2.026-.541 3.039-.822 1.414-.375 2.825-.768 4.236-1.161.852-.237 1.704-.474 2.556-.707l.445-.13a2.01 2.01 0 0 0-.276-.894v.011ZM35.746 121.799l-.39.229-.002.001-.002.001-.001.001c-.627.366-1.25.73-1.873 1.102a526.394 526.394 0 0 0-3.792 2.251v.692c1.345-.737 2.69-1.48 4.029-2.228.866-.479 1.733-.957 2.594-1.441a4.241 4.241 0 0 0-.563-.613v.005ZM20.238 131.141l-.254.157c.096-.05.192-.101.293-.157h-.04ZM20.226 138.85c2.11-1.407 4.22-2.825 6.325-4.26v-.523a813.36 813.36 0 0 0-6.325 4.783ZM38.014 125.626l-.613.445c-1.254.91-2.511 1.821-3.76 2.746a904.929 904.929 0 0 0-3.786 2.791h1.04c1.008-.698 2.02-1.401 3.034-2.105 1.24-.858 2.474-1.724 3.709-2.592l.764-.537-.382-.748h-.006ZM38.386 140.336c-1.604 1.834-3.202 3.68-4.8 5.526l-6.703 7.782c-.807.955-1.616 1.906-2.426 2.857v.001a647.086 647.086 0 0 0-4.23 5.003 613.994 613.994 0 0 0 4.623-5.01l.001-.001.003-.003.001-.002c.757-.826 1.513-1.651 2.27-2.474l6.849-7.574c1.221-1.348 2.439-2.707 3.656-4.065l.002-.002.003-.004.886-.988v-1.046h-.136ZM33.574 151.635l-6.702 8.739c-.814 1.082-1.632 2.16-2.45 3.239-1.402 1.851-2.806 3.703-4.196 5.574 1.556-1.873 3.095-3.769 4.633-5.663.758-.935 1.517-1.87 2.278-2.801l6.854-8.536a1123.65 1123.65 0 0 0 4.53-5.69v-1.266c-1.655 2.127-3.304 4.26-4.947 6.398v.006ZM27.08 140.336l-.18.163c-.807.727-1.616 1.451-2.426 2.175l-.001.001c-1.42 1.269-2.839 2.538-4.247 3.828a439.55 439.55 0 0 0 4.388-3.559c.83-.679 1.661-1.359 2.494-2.034l.693-.569h-.715l-.006-.005ZM40.552 129.391a19.42 19.42 0 0 1-.422-.49l-1.562 1.353-.008.008-1.553 1.346h1.243c.816-.687 1.632-1.379 2.448-2.071l-.024-.025-.023-.023-.026-.028-.034-.036-.016-.017-.023-.023v.006ZM33.585 140.336l-6.696 6.854c-.773.806-1.548 1.608-2.322 2.411l-.001.001a523.21 523.21 0 0 0-4.345 4.537c1.424-1.33 2.835-2.682 4.246-4.034l.002-.001c.88-.844 1.761-1.688 2.645-2.526l6.843-6.646c.1-.101.203-.2.306-.3l.002-.002c.102-.099.204-.199.305-.3h-.985v.006ZM43.185 131.259a7.766 7.766 0 0 1-.422-.197c-.122.119-.243.241-.362.361l-.004.004-.18.181h1.227l.18-.18a3.73 3.73 0 0 1-.439-.175v.006ZM49.342 131.613h.911c.096-.129.197-.259.304-.382-.405.152-.81.281-1.215.382ZM36.461 89.499a792.141 792.141 0 0 0-16.206-3.196 757.015 757.015 0 0 0 16.054 3.894c1.389.328 2.78.645 4.171.962h.002l.004.002h.002c.713.163 1.426.325 2.139.49l.26.06v-.003l4.627 1.015-.001.006 5.376 1.146c-.098-.12-.184-.216-.267-.308a4.834 4.834 0 0 1-.576-.753l-4.398-.956v-.001h-.006l.006.001-.002.008-5.193-1.105a770.654 770.654 0 0 0-5.986-1.256l-.006-.006ZM42.904 95.453l-1.636-.166c-1.581-.16-3.162-.32-4.74-.47a777.475 777.475 0 0 0-16.133-1.418 773.62 773.62 0 0 0 16.055 2.127c1.877.238 3.75.456 5.625.674l.671.078v.003l8.2.907-.006.009 1.637.186 6.258.69-2.177-1.153-3.98-.443-1.067-.117v-.002l-8.707-.905ZM42.124 86.885l2.03.682-.002.007 4.457 1.453.002-.005 1.526.454a8.722 8.722 0 0 1-.338-1.016l-.811-.244.004-.009-4.574-1.457-.001.004c-.952-.304-1.904-.61-2.855-.916l-.007-.002c-1.719-.553-3.437-1.106-5.156-1.644a821.48 821.48 0 0 0-16.274-4.98 821.91 821.91 0 0 0 16.049 5.656c1.974.683 3.954 1.347 5.934 2.011l.003.002h.002l.005.002.006.002ZM42.4 81.481l-.008-.004a862.427 862.427 0 0 0-6.066-2.585 882.893 882.893 0 0 0-16.342-6.77 860.953 860.953 0 0 0 16.055 7.417c2.153.98 4.313 1.94 6.471 2.901l.007.003 1.591.708 5.081 2.108-.004-.024c-.03-.21-.053-.362-.053-.9l-4.675-1.971-2.057-.883ZM44.666 78.093l-2.409-1.296-.004-.002c-1.892-1.019-3.786-2.038-5.685-3.041a931.348 931.348 0 0 0-16.297-8.492 971.117 971.117 0 0 0 15.954 9.117c2.093 1.178 4.196 2.344 6.299 3.508l1.73.96 5.037 2.763c.04-.31.096-.625.163-.929l-4.783-2.594-.005.005ZM36.59 68.56l-8.131-5.166a1108.05 1108.05 0 0 1-3-1.871l-.002-.001c-1.723-1.077-3.446-2.154-5.18-3.215 1.77 1.241 3.554 2.46 5.337 3.677.868.593 1.737 1.186 2.603 1.782l7.99 5.38c4.626 3.105 9.274 6.172 13.928 9.222.107-.281.23-.557.36-.838a1425.7 1425.7 0 0 0-13.905-8.97ZM36.613 63.372l-8.143-6.038c-.87-.634-1.74-1.27-2.61-1.907a645.912 645.912 0 0 0-5.583-4.053c1.783 1.447 3.584 2.872 5.386 4.298.848.671 1.696 1.343 2.543 2.016l7.985 6.24c5.076 3.962 10.19 7.879 15.312 11.79a12.646 12.646 0 0 1 .453-.656c.02-.03.042-.059.064-.087a1719.895 1719.895 0 0 0-15.402-11.598l-.005-.005ZM52.825 72.235c-5.385-4.643-10.765-9.28-16.195-13.872l-8.143-6.882c-.874-.724-1.746-1.452-2.619-2.179a633.498 633.498 0 0 0-5.591-4.624c1.671 1.534 3.36 3.05 5.05 4.567.957.859 1.914 1.717 2.867 2.58l7.98 7.067c5.318 4.71 10.686 9.375 16.054 14.03l.856.736c.202-.22.41-.439.63-.653-.149-.129-.297-.258-.444-.388l-.445-.388v.006ZM52.842 68.763l-.025-.025c-5.371-5.213-10.749-10.433-16.17-15.591l-8.149-7.755c-.986-.92-1.97-1.846-2.953-2.771-1.748-1.645-3.498-3.29-5.262-4.915a704.796 704.796 0 0 0 4.937 5.008c.99.999 1.981 1.997 2.969 3l7.974 7.94c4.785 4.76 9.612 9.479 14.439 14.198l1.61 1.575c.883.855 1.767 1.71 2.65 2.571.236-.197.473-.382.72-.557l-1.364-1.334-1.365-1.333-.011-.011ZM52.859 65.38l-.832-.893c-5.107-5.493-10.213-10.983-15.37-16.427l-8.153-8.61c-.99-1.026-1.977-2.056-2.963-3.085-1.749-1.826-3.497-3.65-5.264-5.457a833.47 833.47 0 0 0 5.036 5.651c.956 1.066 1.912 2.132 2.865 3.2l7.968 8.78c5.068 5.588 10.187 11.126 15.309 16.666l.002.002.738.798c1.463 1.581 2.932 3.157 4.4 4.733.254-.163.507-.321.771-.467a1208.401 1208.401 0 0 0-3.356-3.64l-1.151-1.245v-.005ZM52.876 61.138c-5.38-6.5-10.765-13.005-16.201-19.46L28.515 32a1640.86 1640.86 0 0 1-2.865-3.36c-1.782-2.092-3.564-4.185-5.367-6.263a833.15 833.15 0 0 0 5.046 6.346c.949 1.185 1.898 2.37 2.843 3.558l7.963 9.848c5.01 6.188 10.07 12.336 15.128 18.482l.915 1.112c2.166 2.617 4.339 5.239 6.51 7.856a13.886 13.886 0 0 1 .828-.383c-2.212-2.69-4.423-5.374-6.64-8.058ZM55.987 61.16c-4.861-6.505-9.729-13.004-14.653-19.47L33.951 32c-.874-1.13-1.746-2.262-2.617-3.393l-.002-.002v-.001a956.015 956.015 0 0 0-4.837-6.244c1.526 2.156 3.074 4.297 4.62 6.438.833 1.15 1.665 2.302 2.493 3.455l7.186 9.842c4.794 6.556 9.64 13.072 14.49 19.588 1.767 2.364 3.534 4.727 5.307 7.085.275-.101.557-.197.838-.287a6171.26 6171.26 0 0 0-5.442-7.32ZM59.1 61.183c-4.345-6.505-8.695-13.01-13.095-19.482L39.398 32l-1.842-2.673c-1.604-2.33-3.209-4.662-4.837-6.978 1.343 2.129 2.705 4.244 4.067 6.36l.002.002c.755 1.172 1.51 2.344 2.262 3.52l6.409 9.83c4.014 6.162 8.083 12.29 12.151 18.414l.78 1.175c.86 1.288 1.723 2.577 2.586 3.867l1.73 2.587c.276-.079.558-.146.839-.208-1.48-2.234-2.966-4.474-4.451-6.708l.005-.005ZM62.211 61.205A2610.453 2610.453 0 0 0 50.67 41.712L44.84 32c-.674-1.103-1.344-2.206-2.015-3.31-1.29-2.124-2.58-4.247-3.888-6.358a894.198 894.198 0 0 0 3.772 6.71c.594 1.051 1.19 2.103 1.782 3.155l5.633 9.825c3.384 5.905 6.818 11.783 10.253 17.662l1.125 1.926.8 1.36a2318.35 2318.35 0 0 0 2.729 4.628c.275-.05.557-.09.844-.13-1.216-2.087-2.437-4.175-3.658-6.263h-.006ZM50.282 32.005c-.587-1.108-1.171-2.217-1.755-3.326a762.094 762.094 0 0 0-3.372-6.358c1 2.1 2.018 4.188 3.037 6.279.58 1.191 1.162 2.384 1.74 3.58l2.358 4.766v-1.07l-2.008-3.865v-.006ZM65.323 61.222c-3.309-6.505-6.623-13.016-9.988-19.498l-.63-1.216h-.648l.732 1.48c3.11 6.29 6.271 12.554 9.435 18.822l.385.76a2740.89 2740.89 0 0 0 2.909 5.707c.275-.028.551-.045.833-.062l-.76-1.507-.001-.003c-.754-1.496-1.509-2.994-2.267-4.489v.006ZM55.729 32.005c-.469-1.043-.935-2.088-1.4-3.132-.98-2.193-1.957-4.385-2.956-6.57a678.295 678.295 0 0 0 2.434 6l.001.003c.524 1.28 1.048 2.559 1.566 3.84l1.137 2.735.259-.501-1.047-2.375h.006ZM68.44 61.245a2486.44 2486.44 0 0 0-8.435-19.51l-.534-1.221h-.62l.603 1.446a2219.874 2219.874 0 0 0 6.97 16.53l.002.006.002.005 1.292 3.042c.805 1.88 1.61 3.753 2.42 5.627h.113c.236 0 .472 0 .703.011-.493-1.163-.987-2.325-1.481-3.486l-.006-.013-1.034-2.432.006-.005ZM61.176 32.005c-.387-1.05-.772-2.103-1.156-3.154-.8-2.19-1.602-4.382-2.423-6.564a770.607 770.607 0 0 0 2.091 6.391l.001.004c.378 1.144.757 2.29 1.132 3.436l.693 2.048h.438l-.776-2.16ZM71.552 61.267c-2.273-6.516-4.546-13.027-6.882-19.52l-.41-1.138h-.141c-.158 0-.304-.005-.45-.017l.45 1.334a2586.969 2586.969 0 0 0 6.713 19.572c.67 1.924 1.345 3.854 2.02 5.779.27.022.535.045.805.079-.555-1.617-1.114-3.23-1.674-4.846l-.43-1.243ZM66.617 32.005c-.327-1.136-.65-2.273-.974-3.409-.6-2.11-1.2-4.219-1.822-6.326.54 2.23 1.1 4.456 1.66 6.68v.006l.001.002c.263 1.044.526 2.088.787 3.132l.534 2.076h.422l-.602-2.16h-.006ZM74.664 61.29a2270.687 2270.687 0 0 0-5.329-19.527l-.348-1.244h-.563l.354 1.385c1.642 6.376 3.338 12.736 5.035 19.1l.126.471.832 3.09.833 3.089.249.047c.181.033.361.066.539.105-.475-1.797-.953-3.59-1.433-5.384l-.3-1.127.005-.006ZM71.324 28.436v-.003c-.421-2.06-.843-4.12-1.285-6.18.365 2.264.755 4.523 1.145 6.782.174 1.009.349 2.018.52 3.027l.378 2.104h.41l-.427-2.16h-.006c-.246-1.185-.489-2.37-.732-3.556v-.002l-.002-.011v-.002ZM77.776 61.312v-.006c-1.239-6.514-2.476-13.029-3.77-19.537l-.253-1.255h-.546l.242 1.345c1.165 6.533 2.38 13.05 3.601 19.571.2 1.047.4 2.093.598 3.14l.002.01v.002l.712 3.73a.308.308 0 0 0 .049.019l.012.004c.242.073.473.146.704.23-.316-1.72-.638-3.44-.96-5.16l-.39-2.093ZM81.243 80.124l-.45.096h.466l-.016-.096ZM61.19 79.65a8.27 8.27 0 0 0-.402.637c.832.715 1.665 1.43 2.504 2.138v-1.08c-.44-.389-.883-.775-1.326-1.162l-.016-.014-.695-.608a1.037 1.037 0 0 0-.066.089ZM60.326 81.317a7.483 7.483 0 0 0-.253.895c1.066.808 2.137 1.61 3.209 2.412l.006.005.004.002v-1.024c-.496-.38-.99-.761-1.483-1.142-.494-.382-.988-.763-1.483-1.142v-.006ZM59.776 83.754c-.017.315-.09.58-.13.714a.854.854 0 0 0-.045.175c.238.154 1.126.698 1.979 1.22.762.466 1.497.915 1.712 1.053v-.98c-.206-.137-1.044-.652-1.855-1.152a117.72 117.72 0 0 1-1.661-1.03ZM62.498 78.21c-.214.18-.416.372-.607.58.495.479.99.957 1.49 1.43h1.16l-.798-.789-.016-.016a223.23 223.23 0 0 0-1.223-1.204h-.006ZM63.826 77.27c-.242.147-.478.294-.697.451.776.839 1.558 1.666 2.346 2.499h1.047c-.895-.985-1.79-1.97-2.69-2.95h-.006ZM65.48 76.494c-.247.09-.495.192-.73.304-.007 0-.01.003-.015.006-.004.003-.008.005-.014.005.951 1.137 1.908 2.274 2.864 3.41h.923c-1.007-1.243-2.014-2.487-3.027-3.725ZM67.023 76.044c-.276.062-.54.13-.805.208a669.596 669.596 0 0 0 3.016 3.973h.855a1136.37 1136.37 0 0 0-3.066-4.18ZM68.756 75.775l.83 1.264c.696 1.062 1.392 2.123 2.085 3.186h-.788c-.99-1.446-1.97-2.898-2.949-4.35.274-.044.543-.078.822-.1ZM70.669 75.718h-.017a9.82 9.82 0 0 0-.394-.011c-.146 0-.287 0-.427.005.894 1.508 1.789 3.01 2.695 4.513h.743c-.861-1.508-1.728-3.01-2.594-4.507h-.006ZM72.729 75.932c-.282-.051-.563-.096-.85-.13.76 1.475 1.525 2.949 2.29 4.423h.698c-.71-1.435-1.418-2.864-2.133-4.293h-.005ZM74.918 76.534a15.181 15.181 0 0 0-.856-.287l.505 1.159c.41.94.82 1.882 1.234 2.82h.653a1006.9 1006.9 0 0 0-1.542-3.692h.006ZM77.259 77.873c-.08-.073-.169-.14-.259-.208a7.523 7.523 0 0 0-.642-.433c.355 1.001.71 1.997 1.07 2.999h.624l-.397-1.176-.396-1.176v-.006ZM82.818 79.792l-.005.001v-.001h.005ZM82.813 79.793c.017.14.033.28.045.427h-.569l-.006-.056-.02-.18-.007-.074.557-.117ZM133.272 68.284l.054.01c.124.026.25.05.368.08a646.046 646.046 0 0 0 4.508-3.106 879.009 879.009 0 0 0-4.935 3.016h.005ZM121.444 75.701l-1.512.967h-.001l-.003.003c-.742.474-1.484.95-2.226 1.421l-1.323.856v.67h.49l1.181-.771c.794-.527 1.589-1.051 2.384-1.576l2.383-1.576h-1.368l-.005.006ZM104.146 86.9c-.085.055-.175.117-.259.168v.974l.607-.389 1.126-.731v-.99l-1.474.967ZM92.03 94.969v.574l.316-.198c.273-.17.549-.342.82-.517v-.625c-.382.254-.759.507-1.136.766ZM131.297 45.392l-6.854 7.755a1917.772 1917.772 0 0 0-12.92 14.816h1.092a2014.15 2014.15 0 0 0 12.244-14.315l6.703-7.94c.866-1.048 1.737-2.092 2.607-3.135 1.35-1.619 2.701-3.237 4.038-4.873a648.293 648.293 0 0 0-4.624 5.135l-.003.003-.002.003c-.76.85-1.52 1.7-2.281 2.546v.005ZM103.887 76.843v1.193l.008-.01.002-.002c.576-.66 1.152-1.32 1.723-1.98v-1.22c-.58.669-1.159 1.344-1.733 2.02ZM92.036 90.816v.692l1.136-1.289v-.748l-1.136 1.345ZM131.308 51.487l-6.848 6.882c-3.163 3.18-6.308 6.381-9.443 9.6h1.137c2.909-3.01 5.807-6.027 8.694-9.065l6.708-7.068c.829-.892 1.66-1.78 2.492-2.667l.003-.003.003-.004.001-.001.001-.001h.001a526.945 526.945 0 0 0 4.156-4.47 545.356 545.356 0 0 0-4.603 4.526l-.004.003c-.765.759-1.531 1.518-2.298 2.273v-.005ZM103.887 80.563l.011-.012c.576-.587 1.152-1.174 1.722-1.76v-1.154c-.58.596-1.159 1.198-1.733 1.795v1.13ZM92.036 92.526l1.136-1.147v-.71l-1.136 1.199v.658ZM131.314 57.334l-6.843 6.038a1055.34 1055.34 0 0 0-5.166 4.591h1.148a954.748 954.748 0 0 0 4.378-4.034l6.708-6.24c.741-.702 1.484-1.401 2.227-2.1 1.485-1.398 2.971-2.797 4.441-4.215a538.67 538.67 0 0 0-4.709 4.063c-.728.633-1.455 1.266-2.184 1.897ZM103.887 81.925v1.069l.003-.003a449.2 449.2 0 0 0 1.73-1.55v-1.098l-.598.545-.002.001a239.5 239.5 0 0 0-1.133 1.036ZM92.036 92.887v.619l1.136-1.002v-.675l-1.136 1.058ZM131.325 63.394l-6.043 4.57h1.007l5.244-4.193c.734-.6 1.47-1.197 2.206-1.795 1.493-1.213 2.987-2.427 4.468-3.663a380.464 380.464 0 0 0-4.411 3.252l-.001.001c-.822.612-1.645 1.225-2.47 1.834v-.006ZM116.379 75.695v.119l.069-.056.078-.063h-.147ZM103.887 84.496v1.013c.521-.394 1.042-.798 1.56-1.2l.173-.133v-1.041c-.58.45-1.159.906-1.733 1.361ZM92.036 93.928v.585l1.136-.861v-.636l-1.136.912ZM130.982 87.957a501.79 501.79 0 0 0-6.376 1.542c-1.642.4-3.281.813-4.919 1.227-.624.158-1.249.316-1.873.472l-1.379.355h3.337l1.418-.384c1.182-.32 2.364-.639 3.546-.972a548.025 548.025 0 0 0 6.578-1.852 1.856 1.856 0 0 0-.326-.388h-.006ZM104.252 94.744l-.079.021a7.916 7.916 0 0 1-.281.074v.873l.259-.065.259-.065 1.216-.315v-.89l-1.374.367ZM92.041 98.12v.512c.377-.084.76-.175 1.137-.27v-.563c-.266.07-.53.146-.792.222h-.001l-.344.099ZM130.065 76.348c-.04-.028-.079-.056-.118-.079a756.854 756.854 0 0 0-5.223 2.617c-.489.242-.967.484-1.451.732h1.541a2.21 2.21 0 0 1 .152-.08 489.728 489.728 0 0 0 5.391-2.92 2.158 2.158 0 0 0-.287-.27h-.005ZM104.275 89.448l-.086.047-.103.055-.188.1v.93c.137-.075.277-.144.415-.213l.002-.001.16-.08.087-.044 1.069-.552v-.945l-1.356.709v-.006ZM92.041 96.015v.546c.377-.186.76-.377 1.137-.568v-.597c-.382.203-.759.41-1.135.619h-.002ZM117.201 87.029l-.816.315v.917l1.688-.67c.274-.107.546-.217.817-.326l.009-.004.581-.232h-2.279ZM104.264 92.093c-.124.05-.248.101-.372.146v.895c.197-.079.394-.152.591-.225l1.143-.445v-.917l-1.362.54v.006ZM92.041 97.068v.523c.377-.14.76-.281 1.137-.416v-.58c-.383.152-.76.31-1.137.473ZM126.126 31.786l-6.033 9.735c-4.023 6.488-7.985 13.016-11.941 19.544-1.418 2.346-2.836 4.698-4.254 7.05v1.627l2.498-4.108 2.499-4.108.001-.002c3.944-6.538 7.889-13.076 11.771-19.648l5.83-9.865a1541.1 1541.1 0 0 1 2.036-3.502l.001-.001a831.009 831.009 0 0 0 3.708-6.407c-1.376 2.146-2.728 4.302-4.08 6.458a1503.24 1503.24 0 0 1-2.031 3.232l-.005-.005ZM92.041 88.041v.935l1.137-1.84v-1.019l-1.137 1.924ZM120.684 31.814l-5.256 9.74a2341.763 2341.763 0 0 0-11.743 22.128l-.004.01c-.747 1.423-1.494 2.846-2.237 4.271h.923l.804-1.518a2130.11 2130.11 0 0 0 2.612-4.947 2500.95 2500.95 0 0 0 10.219-19.64l5.048-9.853c.582-1.161 1.169-2.32 1.755-3.48l.001-.003.001-.002.001-.003.001-.001a739.71 739.71 0 0 0 3.21-6.403 732.709 732.709 0 0 0-3.502 6.353c-.61 1.115-1.22 2.23-1.833 3.342v.006ZM92.041 86.156v1.092l1.137-2.11v-1.21l-1.137 2.228ZM115.243 31.837l-4.48 9.746c-2.98 6.49-5.905 13.013-8.829 19.536l-.006.013a4289.153 4289.153 0 0 0-3.033 6.826h.861c.974-2.155 1.947-4.322 2.915-6.483 2.91-6.539 5.813-13.066 8.661-19.628l4.271-9.842c.395-.929.792-1.857 1.189-2.785l.003-.008.004-.01a748.466 748.466 0 0 0 2.996-7.073c-1.032 2.15-2.038 4.31-3.045 6.47-.503 1.079-1.007 2.159-1.513 3.238h.006ZM92.041 83.58v1.344l1.137-2.476v-1.491l-1.137 2.622ZM109.801 31.865l-3.697 9.752c-2.391 6.304-4.728 12.634-7.064 18.96l-.218.589a3289.75 3289.75 0 0 0-2.476 6.792h.816c.634-1.706 1.264-3.415 1.893-5.122l.51-1.383c2.392-6.534 4.778-13.061 7.113-19.617l3.494-9.83c.394-1.14.792-2.278 1.189-3.417l.001-.001.001-.005.001-.002v-.001l.001-.001v-.002h.001v-.002a659.004 659.004 0 0 0 2.222-6.434 724.236 724.236 0 0 0-2.526 6.48c-.418 1.082-.835 2.163-1.255 3.244h-.006ZM91.918 80.208h.123v1.424l.242-.63.45-1.193.45-1.193v-1.93c-.307.846-.609 1.689-.911 2.533l-.001.004-.353.985ZM104.359 31.893l-.681 2.268h.451l.596-2.156c.33-1.235.663-2.468.996-3.7.553-2.049 1.106-4.096 1.643-6.147a634.31 634.31 0 0 0-1.84 5.947c-.387 1.262-.773 2.526-1.165 3.788ZM101.754 40.604l-.315 1.046c-1.898 6.343-3.743 12.707-5.587 19.067l-.142.488c-.28.985-.562 1.969-.844 2.954l-.002.01a2304.71 2304.71 0 0 0-1.084 3.794h.777c.493-1.688.983-3.377 1.471-5.063l.425-1.464a2331.94 2331.94 0 0 0 5.554-19.605l.349-1.25c-.18.023-.371.028-.563.028h-.033l-.006-.005ZM90.325 80.208h.63c.749-2.504 1.492-5.02 2.223-7.529v-2.617c-.962 3.377-1.919 6.759-2.853 10.146ZM131.303 39.445l-6.86 8.61c-4.283 5.38-8.527 10.805-12.773 16.232v.001l-.002.002-.849 1.085a751.1 751.1 0 0 1-2.003 2.583h1.036l.768-.982.768-.982c4.513-5.807 9.02-11.61 13.488-17.467l6.702-8.779c.749-.998 1.5-1.995 2.252-2.992 1.466-1.947 2.934-3.894 4.389-5.86a667.95 667.95 0 0 0-4.502 5.55l-.001.002-.004.005c-.802.996-1.604 1.992-2.409 2.986v.006ZM103.898 74.311v1.25c.58-.732 1.159-1.47 1.733-2.207v-1.283a362.13 362.13 0 0 0-1.733 2.24ZM131.567 31.758l-6.809 9.73c-4.535 6.482-9.02 13.015-13.5 19.543-.525.772-1.052 1.543-1.578 2.315l-.003.005c-1.05 1.54-2.1 3.079-3.145 4.618h1.063c.926-1.342 1.849-2.687 2.773-4.032l.001-.003 1.643-2.391.001-.001c4.462-6.539 8.924-13.077 13.325-19.655l6.601-9.876c.76-1.158 1.523-2.314 2.287-3.47a777.22 777.22 0 0 0 4.235-6.457 705.57 705.57 0 0 0-4.395 6.156c-.831 1.173-1.663 2.347-2.499 3.518ZM103.898 71.835v1.486l.505-.73c.411-.593.821-1.185 1.228-1.78v-1.53c-.579.849-1.159 1.699-1.733 2.554ZM92.047 89.482v1.03l1.137-1.43v-1.305l-1.137 1.705ZM98.93 31.92l-.507 2.291c.14.034.27.073.4.13l.46-2.33c.218-1.15.44-2.302.66-3.453v-.003l.002-.005c.407-2.122.815-4.245 1.201-6.37-.479 2.048-.942 4.098-1.406 6.147v.006l-.816 3.594.005-.006ZM97.016 40.61l-.237 1.08c-1.429 6.51-2.802 13.038-4.17 19.56l-.343 1.665a2175.14 2175.14 0 0 0-3.528 17.305h.602c1.233-5.617 2.42-11.248 3.607-16.876l.406-1.925.44-2.128a2083.383 2083.383 0 0 0 3.56-17.466l.242-1.216c-.106.012-.213.012-.326.012-.079 0-.163 0-.242-.006l-.011-.006ZM68.851 91.367c-1.025-.577-2.473-1.403-3.985-2.266a759.9 759.9 0 0 0-5.58-3.164c-.05.208-.107.433-.169.664.06.071.774.533 1.452.972.604.39 1.179.762 1.237.823 1.795.968 3.59 1.93 5.391 2.892.686.17 1.407.287 2.16.366l-.506-.287ZM68.874 89.645a349.082 349.082 0 0 0-3.016-2.014h-1.435c1.356.872 2.706 1.739 4.068 2.6l2.386 1.519.253.003.092.001.085.001h.088c.203 0 .4 0 .596-.01l-3.117-2.1ZM68.71 87.778l-.13-.102-.066-.05h-1.182l1.107.827.03.022 4.333 3.219c.27-.023.54-.051.804-.085l-4.72-3.686h.01l-.186-.145ZM70.45 87.625h-1.002l4.631 3.911c.22-.034.44-.073.653-.118l-4.282-3.793ZM72.037 87.625h-.873l3.911 3.72c.191-.045.377-.09.557-.141l-3.596-3.579ZM73.28 87.625h-.77l3.336 3.517c.169-.05.332-.101.49-.152l-3.056-3.365ZM76.92 90.568l-2.385-2.943h-.675l2.723 3.23.034.04c.006 0 .01-.002.015-.004l.002-.001.004-.002a.025.025 0 0 1 .013-.005c.135-.05.27-.101.4-.152l-.124-.157-.006-.006ZM75.531 87.625h-.63l2.313 3.033c.1-.04.2-.084.295-.126l.11-.048-2.088-2.859ZM76.538 87.625h-.585l1.88 2.763c.086-.041.172-.085.257-.128l.125-.063-1.677-2.566v-.006ZM77.546 87.625H77l1.463 2.437c.076-.042.15-.085.223-.129l.068-.04.069-.04-1.272-2.222-.005-.006ZM78.547 87.625h-.512l1.064 2.037a3.72 3.72 0 0 0 .343-.236l-.895-1.8ZM79.56 87.625h-.003l-.002-.005.005.005Z"
    fill="var(--main-theme-1, currentColor)"
  />
  <path
    d="M79.557 87.625h-.487l.687 1.559c.118-.096.225-.191.326-.287l-.526-1.272ZM80.573 87.625h-.461l.332.929c.112-.124.213-.248.315-.372l-.186-.551v-.006ZM104.084 97.414l-.18.025v.855l.439-.05 1.294-.163v-.878l-1.379.185h.006l-.18.026ZM51.998 131.141a15.68 15.68 0 0 1-.163.233c-.055.077-.11.155-.164.234h1.002l.073-.104c.085-.12.17-.241.253-.363h-1.001ZM33.614 157.257l-6.702 9.673c-.776 1.138-1.554 2.274-2.332 3.41l-.001.001-.001.001c-1.44 2.103-2.882 4.206-4.307 6.329a733.37 733.37 0 0 0 4.28-5.81c.878-1.199 1.755-2.399 2.636-3.593l6.86-9.477c1.514-2.093 3.022-4.192 4.524-6.291v-1.339c-1.66 2.358-3.309 4.727-4.952 7.101l-.005-.005ZM53.573 131.608h1.025c.095-.152.19-.31.286-.467h-1.018c-.101.157-.197.309-.293.467ZM33.158 164.583l-6.601 10.867c-.761 1.276-1.526 2.55-2.291 3.824-1.417 2.361-2.835 4.722-4.231 7.098a897.822 897.822 0 0 0 4.677-7.216c.736-1.144 1.472-2.288 2.21-3.431l6.815-10.708c1.615-2.544 3.23-5.093 4.829-7.648v-1.626a1933.839 1933.839 0 0 0-5.408 8.84ZM55.875 131.608h.957c.084-.152.168-.31.253-.467h-.951c-.09.157-.175.309-.259.467ZM38.7 162.963c-.298.546-.59 1.086-.877 1.632l-5.825 10.855c-.678 1.288-1.359 2.575-2.04 3.861-1.24 2.343-2.48 4.687-3.705 7.044a754.919 754.919 0 0 0 3.969-6.911v-.001c.713-1.252 1.426-2.503 2.142-3.751l6.033-10.715a770.76 770.76 0 0 0 1.13-2.014h-.826ZM51.052 140.33l-.003.006h-.002l.005-.006ZM51.05 140.336h1.01l-1.722 3.14-.49.889-.49.889v-1.857c.085-.147.158-.282.237-.428.245-.439.487-.879.729-1.319.24-.439.482-.877.725-1.314ZM58.182 131.608h.89l.219-.467h-.884c-.078.157-.152.309-.225.467ZM42.493 164.606l-5.047 10.844c-.58 1.27-1.162 2.539-1.745 3.808l-.002.002a733.567 733.567 0 0 0-3.222 7.078 892.604 892.604 0 0 0 3.506-7.002v-.001c.609-1.224 1.217-2.449 1.829-3.672l5.255-10.719.004-.008.001-.003.002-.002c.318-.655.637-1.309.956-1.968h-.771c-.194.409-.386.822-.576 1.233v.002l-.002.002v.002l-.003.005-.185.399ZM53.35 141.658l-.002.003c-.212.443-.425.886-.636 1.331l-1.674 3.514-.016.034-1.658 3.48v1.93l2.045-4.262 2.046-4.263c.245-.518.491-1.034.737-1.55.247-.517.493-1.033.738-1.551h-.951l.005.006c-.21.444-.422.886-.635 1.328ZM61.502 131.141h-.833l-.057.141-.038.092a9.932 9.932 0 0 0-.096.234h.822v.039l.076-.185c.044-.105.087-.209.126-.316v-.005ZM47.817 162.963l-.001.002c-.22.551-.439 1.101-.652 1.652l-4.271 10.833-1.194 3.078v.001a913.675 913.675 0 0 0-2.998 7.792c1.027-2.365 2.034-4.741 3.041-7.116v-.002l.001-.001.002-.003c.504-1.188 1.007-2.377 1.514-3.564l4.479-10.725.4-.965.005-.012c.132-.321.265-.643.4-.965h-.72l-.006-.005ZM56.916 140.33c-.183.447-.364.895-.546 1.342a3660.026 3660.026 0 0 0-7 17.38v1.907a2775.816 2775.816 0 0 0 7.197-17.568l.513-1.266.002-.004c.241-.596.483-1.193.723-1.791h-.889ZM63.41 131.141h-.473l-1.637 4.845v2.464c.589-1.773.956-2.911 1.356-4.149.292-.903.6-1.859 1.025-3.155h-.271v-.005ZM59.842 140.33a2965.811 2965.811 0 0 0-6.995 21.158l2.116-4.13c1.582-4.665 3.152-9.341 4.716-14.012.332-1.007.664-2.009 1.002-3.016h-.839ZM52.364 162.963a81.061 81.061 0 0 0-.54 1.665l-3.495 10.822c-.402 1.28-.808 2.558-1.214 3.837l-.001.005a781.935 781.935 0 0 0-2.2 7.013c.834-2.314 1.65-4.637 2.464-6.959.438-1.247.876-2.494 1.317-3.739l3.702-10.731c.22-.636.44-1.272.653-1.908h-.68l-.006-.005ZM124.527 100.118c-1.608-.029-3.216-.042-4.824-.056l-1.928-.018-6.753-.022-6.753.028h-.033v.861h.033l6.753.028 6.753-.028 1.925-.017h.001c1.607-.014 3.214-.028 4.826-.056 4.502-.056 9.004-.175 13.506-.355-4.496-.18-8.998-.298-13.506-.36v-.005ZM116.931 104.868l-.011-.001h-.003l-.003-.001c-.978-.126-1.955-.252-2.932-.382l-8.047-1.001-1.694-.197v.996l1.598.202 8.053.951c.793.088 1.586.178 2.379.268l.011.001c1.888.213 3.777.427 5.668.62a673.84 673.84 0 0 0 16.134 1.559 747.684 747.684 0 0 0-16.055-2.341h-.006c-1.695-.235-3.393-.454-5.09-.673l-.002-.001ZM53.748 125.862l.416.788c.034-.039.062-.079.096-.124l1.908-3.719c-.81 1.013-1.621 2.031-2.42 3.05v.005ZM52.786 124.045l.416.788c1.559-1.773 3.112-3.551 4.66-5.33l1.372-2.678c-1.903 2.106-3.792 4.23-5.68 6.352l-.768.862v.006ZM60.765 113.291c-3.01 2.926-6.004 5.88-8.992 8.84l.422.794c2.712-2.724 5.424-5.453 8.126-8.205l1.012-1.986-.568.551v.006ZM60.782 111.366a1454.105 1454.105 0 0 0-13.19 11.154l.45.816.625-.538c4.153-3.574 8.31-7.152 12.436-10.79l1.103-.974.76-1.491-2.184 1.818v.005ZM66.685 125.536a3075.005 3075.005 0 0 0-4.648 17.529l-.253.979 1.632-3.185c1.328-5.104 2.656-10.208 3.95-15.323h-.681ZM56.905 162.968c-.14.557-.282 1.115-.422 1.677l-2.718 10.81c-.312 1.285-.628 2.569-.944 3.853v.004a793.308 793.308 0 0 0-1.695 6.981c.622-2.166 1.225-4.335 1.828-6.504v-.002c.39-1.403.781-2.805 1.176-4.208l2.921-10.742.253-.935c.085-.31.17-.621.253-.934h-.652ZM60.799 109.436a782.026 782.026 0 0 0-4.444 3.111l-2.365 1.661-6.792 4.823-1.103.793c.028.045.05.09.073.141l.377.675 1.018-.726 6.77-4.873 1.86-1.351a695.7 695.7 0 0 0 4.887-3.567 414.44 414.44 0 0 0 2.555-1.88l.613-1.198a729.808 729.808 0 0 0-3.455 2.391h.006ZM55.943 110.229l-2.015 1.132-2.403 1.362a7.698 7.698 0 0 1-.574 1.39l3.264-1.886 2.365-1.384.007-.004.003-.002c1.47-.859 2.939-1.717 4.406-2.588a806.802 806.802 0 0 0 3.787-2.251l.49-.957c-1.509.828-3.011 1.655-4.514 2.493h.006c-1.61.889-3.216 1.792-4.822 2.695ZM60.816 105.57c-1.572.646-3.14 1.305-4.71 1.965l-2.105.883-2.099.895c.017.23.023.467.023.703 0 .101 0 .203-.006.309l2.307-1.007c.782-.347 1.565-.692 2.348-1.037 1.478-.651 2.956-1.302 4.427-1.968a545.418 545.418 0 0 0 4.722-2.133l.4-.776c-1.773.715-3.54 1.44-5.307 2.172v-.006ZM55.945 104.958l-.002.001-1.863.516-2.836.804c.118.293.22.603.304.906l2.684-.782 1.962-.585.008-.002c1.601-.477 3.203-.953 4.8-1.444 1.834-.557 3.663-1.12 5.492-1.7l.332-.647a748.365 748.365 0 0 0-5.954 1.581c-1.643.441-3.282.896-4.921 1.35l-.006.002ZM56.164 102.269c-.669.09-1.337.18-2.005.268l-4.941.692c.281.276.54.569.776.878l4.243-.63c.827-.13 1.655-.257 2.483-.385h.002c1.425-.219 2.85-.438 4.274-.673 2.048-.326 4.096-.664 6.145-1.018l.281-.557c-2.166.253-4.327.517-6.488.799v.005c-1.59.194-3.176.407-4.762.62l-.001.001h-.007ZM60.726 100.044l-8.036-.028-8.03.023-2.065.017c1.103.191 2.121.472 3.038.849l7.057.023 8.036-.028c.883-.009 1.768-.016 2.653-.023l.027-.001a765.8 765.8 0 0 0 4.022-.038l.377-.732c-1.886-.027-3.775-.039-5.662-.052l-1.417-.01ZM70.506 115.626l-.4 2.015h.512l.642-3.568-.749 1.553h-.005ZM68.536 125.53c-.562 2.865-1.12 5.729-1.671 8.599l1.16-2.262c.393-2.111.781-4.221 1.164-6.337h-.653ZM61.457 162.963l-.102.562c-.069.375-.138.751-.202 1.126l-1.941 10.799c-.223 1.299-.45 2.598-.676 3.896l-.001.004c-.402 2.305-.804 4.609-1.186 6.915.49-2.283.959-4.573 1.428-6.862l.006-.03c.262-1.279.524-2.557.79-3.833l2.143-10.754c.124-.608.248-1.215.366-1.829h-.625v.006ZM72.042 112.453l-.658 5.188h.495l.675-6.241-.506 1.053h-.006ZM70.388 125.53c-.254 2.026-.501 4.046-.749 6.072h.698c.236-2.02.462-4.046.68-6.072h-.63ZM66.629 157.352c-.276 2.437-.546 4.868-.81 7.305l-1.166 10.787c-.129 1.294-.262 2.586-.395 3.879a771.509 771.509 0 0 0-.69 6.92c.328-2.323.636-4.646.943-6.97.166-1.257.333-2.515.503-3.773l1.367-10.753c.298-2.332.586-4.668.874-7l.049-.4h-.675v.005ZM73.291 109.881l-.225.467-.034.49-.37 6.803h.483l.248-6.781c.002-.121.007-.242.01-.363.005-.121.01-.242.012-.363l-.124-.253ZM71.243 146.329c-.05 1.052-.096 2.093-.135 3.14h.715l.074-1.599c.05-1.067.1-2.134.145-3.196l-.799 1.66v-.005ZM72.233 125.53c-.107 2.026-.208 4.046-.303 6.072h.68c.09-2.02.17-4.046.248-6.072h-.625ZM70.77 157.352a1061.9 1061.9 0 0 0-.281 7.321l-.388 10.777c-.031 1.055-.064 2.109-.096 3.162v.017c-.032 1.054-.065 2.107-.096 3.163l.002-.001h.002l.008-.005.174-.27c.05-.808.098-1.618.146-2.427.071-1.202.142-2.405.22-3.606l.59-10.765c.136-2.453.26-4.907.383-7.366h-.664ZM74.203 111.766l-.388-.799.118 6.674h.484l-.214-5.875ZM75.914 125.525v.005c.178 1.946.362 3.892.545 5.833h-.002l.027.269h.687l-.004-.036h.001l-.022-.217-.002-.016-.034-.337c-.189-1.831-.378-3.666-.572-5.501h-.624ZM88.719 162.969l.619.002c.06.263.123.527.185.791l.189.805 2.52 10.781h-.005c.267 1.178.536 2.355.805 3.532l.002.007c.554 2.421 1.107 4.842 1.64 7.271a814.021 814.021 0 0 1-1.82-6.956c-.324-1.252-.648-2.505-.976-3.758l-2.724-10.731-.145-.583-.154-.613-.088-.354-.048-.194ZM79.67 157.369h-.577l.838 8.271-.005.001.087.799.046.455.002-.005.928 8.554.642 5.622.038.009.017.004c.047.011.091.021.136.037l-.239-2.85-.24-2.85-.826-9.242.006-.01-.853-8.795ZM74.91 157.358h-.003v.006l.002-.006ZM74.907 157.369h.659c.045 2.006.084 4.011.123 6.016v.073l.012.611c.004.204.008.408.01.61l.192 10.771-.006.011c.017 1.84.04 3.686.068 5.531h-.191a910.09 910.09 0 0 0-.231-5.537l-.388-10.765c-.09-2.444-.169-4.882-.248-7.321ZM93.24 162.984l.654.002.234.758.001.004.004.012.134.436.104.337 3.298 10.793v-.006c.358 1.203.719 2.405 1.08 3.607.721 2.403 1.443 4.806 2.144 7.214-.8-2.338-1.581-4.688-2.362-7.038l-.002-.006v-.001c-.404-1.216-.808-2.433-1.215-3.646l-3.494-10.72c-.145-.441-.289-.886-.433-1.331l-.012.004-.134-.419ZM92.641 158.972l-1.889-3.76-2.636-8.235-.002-.001-1.182-3.731-.305-.968c-1.17-3.711-2.339-7.419-3.494-11.136h.743c1.033 3.203 2.05 6.41 3.069 9.618l.707 2.227h-.005l1.187 3.772.007-.001 3.8 12.215ZM102.313 162.973h.715l.673 1.492 4.856 10.805c.546 1.239 1.094 2.476 1.641 3.712l.002.005a874.372 874.372 0 0 1 3.135 7.132c-1.215-2.481-2.407-4.975-3.599-7.468-.509-1.064-1.018-2.128-1.528-3.19l-5.058-10.703c-.25-.528-.494-1.052-.743-1.583l-.001-.003-.093-.199ZM97.777 162.973h.676c.196.511.387 1.016.577 1.526l4.08 10.799v.005c.445 1.205.892 2.409 1.339 3.612a964.467 964.467 0 0 1 2.662 7.226c-.956-2.311-1.896-4.63-2.836-6.95-.503-1.244-1.007-2.487-1.514-3.73l-4.276-10.709-.197-.495-.166-.418-.345-.866ZM103.795 157.268v-1.491l.125.237v-.063l.037.068.037.067-.022.026 3.085 5.82.003-.005.649 1.241.001.002.007.014c.217.414.434.828.649 1.242l5.627 10.81v-.006c.558 1.089 1.118 2.177 1.678 3.264l.001.003c1.301 2.53 2.602 5.058 3.881 7.599a918.166 918.166 0 0 1-3.76-6.767 1818.27 1818.27 0 0 0-2.143-3.874l-5.83-10.692a1104.182 1104.182 0 0 1-1.3-2.385l.011-.007-2.736-5.103ZM93.18 135.746v1.718l-.053-.098v.021a3302.642 3302.642 0 0 1-3.303-6.246h.884c.316.591.634 1.182.952 1.774l.001.003c.322.599.644 1.198.965 1.799l.003-.01.55 1.039ZM108.851 152.69l9.819 14.272-.001.002 5.875 8.486c.894 1.269 1.784 2.541 2.673 3.814l.002.002c1.587 2.269 3.174 4.538 4.781 6.791-1.521-2.364-3.064-4.714-4.606-7.063l-.012-.019-.001-.002c-.833-1.268-1.665-2.535-2.493-3.805l-5.45-8.212.011-.002-9.587-14.264h-1.011ZM104.582 144.834h-.647l.027-.025h-.075v-1.024c.23.343.461.687.692 1.024h-.014l.017.025ZM75.289 114.023l-.512-1.064.416 4.676h.49l-.394-3.612ZM86.785 175.382 85.047 164.6l-.134-.812-.136-.831h-.603c.101.584.208 1.163.315 1.742v.003l1.948 10.748.514 2.747v.001l.611 3.256c.068.039.13.079.191.124-.173-1.118-.349-2.236-.524-3.353v-.008l-.444-2.829v-.006ZM76.915 117.371l-.737-1.52.287 1.784h.495l-.05-.264h.005ZM80.23 125.525h-.647c1.091 4.62 2.2 9.234 3.32 13.848l1.474 2.932-.177-.72a3299.34 3299.34 0 0 0-3.97-16.06ZM91.602 106.122v.484l-1.086-.017 1.489.557 1.488.557v-.917c-.63-.225-1.26-.445-1.89-.664ZM83.325 103.274l-.007-.002-.005-.002c-1.105-.375-2.21-.751-3.314-1.115l.259.506c1.052.411 2.105.822 3.157 1.227l-.09-.614ZM90.044 107.523c-.704-.326-1.401-.653-2.11-.985l-1.644-.028c1.154.58 2.313 1.159 3.467 1.728.815.406 1.63.809 2.447 1.213l.029.014v.001l.004.001 1.256.622v-.951c-1.148-.54-2.301-1.08-3.45-1.615ZM83.505 104.496a276.125 276.125 0 0 0-3.016-1.368l.303.602c.93.476 1.858.946 2.786 1.416l.012.006.005.002-.09-.653v-.005ZM89.999 109.425a708.074 708.074 0 0 0-5.048-2.937l-1.16-.023-.1-.715-.006.006c-.878-.506-1.75-1.007-2.628-1.508l.371.737.002.001.004.003c.786.494 1.572.988 2.358 1.476h-.006a780.46 780.46 0 0 0 5.875 3.641c1.277.793 2.555 1.576 3.832 2.358v-.991A444.537 444.537 0 0 0 90 109.419v.006ZM90.021 111.361l-8.131-5.684-.069-.048c-.038-.027-.076-.053-.111-.081l.467.928 7.467 5.526c1.283.951 2.566 1.897 3.855 2.836v-1.035a669.163 669.163 0 0 0-3.472-2.448l-.006.006ZM90.044 113.285l-7.535-6.15.568 1.136 6.545 5.633a840.4 840.4 0 0 0 2.652 2.272l1.22 1.043v-1.092a552.481 552.481 0 0 0-3.456-2.836l.006-.006ZM90.06 115.142l-6.623-6.156.715 1.424 5.447 5.318c1.264 1.23 2.522 2.45 3.785 3.675v.001l.001.001.108.104v-1.153c-1.142-1.075-2.29-2.144-3.438-3.214h.005ZM90.077 117.078l-5.43-5.683.923 1.834 4.018 4.401c1.3 1.423 2.605 2.847 3.91 4.265v-1.215c-1.13-1.205-2.273-2.403-3.415-3.602h-.006ZM90.089 118.963l-3.934-4.563 1.216 2.425 2.2 2.667.003.004.006.008c1.303 1.577 2.605 3.155 3.913 4.726v-1.277a1120.463 1120.463 0 0 0-3.404-3.978v-.012ZM90.1 121.327l-1.334-1.745 1.812 3.613c.968 1.317 1.942 2.634 2.915 3.95v-1.361c-.878-1.164-1.762-2.32-2.646-3.475l-.747-.977v-.005ZM92.66 127.331l.01.02-.01-.014v-.006ZM92.67 127.351c.197.283.39.569.583.853l.001.001.142.21.097.143v.439l-.823-1.646ZM90.764 142.947l-.78-1.998a3317.81 3317.81 0 0 0-3.834-9.808h-.777c1.002 2.62 2.014 5.237 3.025 7.856l.006.014.001.003.004.011.005.011c.545 1.412 1.091 2.824 1.635 4.237 1.019 2.622 2.043 5.245 3.073 7.867v-2.093l-.986-2.557-.004-.008c-.454-1.177-.91-2.355-1.362-3.535h-.006ZM104.801 121.867l-.549-.394v.788h1.098l-.549-.394ZM88.429 131.141H87.6c1.835 4.029 3.68 8.047 5.526 12.064v-1.924a3282.145 3282.145 0 0 0-4.698-10.14ZM92.987 131.141h-.946l.543.903.543.903v-1.345h.141c-.09-.152-.186-.309-.281-.467v.006ZM113.031 164.381c-.371-.63-.748-1.261-1.125-1.891l-.011.007-5.676-9.516.003-.001-.063-.104a2.211 2.211 0 0 0-.106-.172v-.005h-.968l.119.195.101.165-.008.003 6.009 9.757-.019.009.599.973.599.974 1.463 2.369.007-.024 2.623 4.259.002-.001 2.517 4.072c.811 1.287 1.618 2.577 2.425 3.867a963.248 963.248 0 0 0 4.255 6.757c-1.426-2.487-2.873-4.957-4.321-7.43-.672-1.148-1.345-2.297-2.016-3.448v.006l-2.454-4.154.006-.005-2.82-4.728.001-.004-1.142-1.93ZM122.181 111.4c-1.827-.476-3.659-.933-5.489-1.39l-.005-.001-.01-.003-2.543-.637-8.058-1.975-1.812-.434v1.013l1.615.4 8.069 1.924c1.045.24 2.088.484 3.132.728l.009.003h.003l.007.002c1.643.384 3.285.768 4.93 1.136a701.218 701.218 0 0 0 16.206 3.517 699.645 699.645 0 0 0-16.054-4.283ZM91.614 103.983v.85l1.89.473v-.889l-.26-.061c-.542-.126-1.082-.251-1.63-.373ZM80.702 101.551H80.7l-1.112-.24.22.433.011.003c1.144.308 2.288.617 3.433.92l-.085-.58h-.005c-.818-.182-1.639-.359-2.46-.536ZM106.183 119.02l-1.919-1.148v1.131l1.485.9 3.939 2.352h1.846l-5.346-3.235h-.005ZM122.26 128.811c-.152-.096-.31-.191-.462-.281v.9a.396.396 0 0 1 .03.018l.027.016.056.033a897.454 897.454 0 0 0 16.296 9.347 939.592 939.592 0 0 0-15.953-10.033h.006ZM115.895 114.866l-1.637-.607-8.075-2.954-1.919-.693v1.047l1.637.602 8.092 2.904c1.08.378 2.161.76 3.241 1.141 1.621.573 3.242 1.146 4.862 1.706a771.386 771.386 0 0 0 16.275 5.476 803.806 803.806 0 0 0-16.049-6.224h-.006c-2.138-.812-4.281-1.605-6.421-2.398ZM114.376 119.149l-8.086-3.928-2.026-.968v1.081l1.665.81 8.104 3.877 1.87.884c.952.45 1.902.899 2.851 1.345h1.924c-1.224-.608-2.45-1.209-3.675-1.81l-.003-.001-.017-.009c-.869-.426-1.739-.853-2.607-1.281ZM122.445 123.127l-.641-.32v.872l.178.083.001.001a873.515 873.515 0 0 0 16.523 7.53 860.945 860.945 0 0 0-16.055-8.16l-.006-.006ZM95.277 131.135h-1.013c.076.126.16.248.245.372l.065.095h1.024c-.107-.152-.214-.31-.321-.467ZM109.981 139.61a4654.24 4654.24 0 0 0 4.884 5.199h.361c.287 0 .551-.017.816-.034a1156.157 1156.157 0 0 0-3.851-4.161l-.001-.001-.932-1.003h-1.277ZM102.069 131.135l.433.467h1.289a15.946 15.946 0 0 1-.433-.467h-1.289ZM131.393 161.567a6.68 6.68 0 0 1-.327.248c.545.562 1.089 1.125 1.633 1.689l.012.012c1.831 1.894 3.663 3.79 5.508 5.665a691.982 691.982 0 0 0-5.584-6.233l-1.242-1.375v-.006ZM117.623 131.135h-1.503l.33.234.329.233h.433c.371 0 .732.011 1.08.028a40.917 40.917 0 0 1-.334-.245l-.335-.244v-.006ZM130.279 140.488l-.316-.237c.029.214.051.422.068.642h.006c.891.61 1.781 1.223 2.671 1.836l.002.001.006.004.001.001c1.83 1.26 3.66 2.52 5.502 3.757-1.82-1.4-3.653-2.778-5.485-4.156-.819-.615-1.638-1.231-2.455-1.848ZM111.512 131.135h-1.469c.185.152.37.309.556.466l.001.001h1.457c-.18-.152-.365-.309-.545-.467ZM130.29 147.178l-1.278-1.097c-.056.107-.112.214-.18.315l-.084.135 1.277 1.041c.822.659 1.643 1.321 2.464 1.982 1.905 1.534 3.81 3.069 5.73 4.58-1.744-1.557-3.504-3.09-5.266-4.625-.888-.774-1.777-1.548-2.663-2.325v-.006ZM115.901 139.632a7.696 7.696 0 0 0-.636-.022h-.675l1.088 1.024c1.061.999 2.123 2 3.188 2.994a.285.285 0 0 0 .045-.057c.152-.214.254-.456.31-.737-1.054-1.022-2.108-2.038-3.167-3.059l-.015-.015-.001-.001-.002-.002-.001-.001-.002-.002-.002-.001-.124-.121h-.006ZM107.027 131.135h-1.385s.023.023.029.034l.236.225.219.208h1.39a35.123 35.123 0 0 1-.489-.467ZM130.307 153.633l-4.361-4.254c-.152.095-.31.197-.473.298a.378.378 0 0 1-.046.028l-.022.011 4.052 3.765.422.394.135.129c.951.867 1.901 1.738 2.851 2.609l.001.001.013.012a665.8 665.8 0 0 0 5.345 4.868 547.451 547.451 0 0 0-5.182-5.156l-.005-.006-.003-.003c-.91-.897-1.82-1.795-2.727-2.696ZM107.634 139.61h-1.238l.018.021c1.457 1.726 2.915 3.452 4.377 5.178h1.205a1816.197 1816.197 0 0 0-4.362-5.199ZM100.477 131.135h-1.188l.194.234c.065.077.13.154.194.233h1.193l-.393-.467ZM130.324 166.924l-2.865-3.477c-.208.05-.416.095-.624.135l3.162 3.68c.978 1.116 1.953 2.236 2.928 3.357l.002.001a805.934 805.934 0 0 0 5.297 6.045 783.124 783.124 0 0 0-4.986-6.158l-.01-.012c-.969-1.189-1.938-2.377-2.904-3.571ZM104.827 140.752l-.003-.003-.853-1.134h-.079v1.458l.857 1.147.004.004.003.005.004.005.86 1.152.324.429c.252.333.503.665.751 1h1.181l-.773-1.036-.774-1.035h-.006c-.494-.662-.991-1.321-1.487-1.98l-.009-.012ZM97.573 131.141h-1.097l.349.467h1.102a13.103 13.103 0 0 0-.192-.254l-.08-.106a7.144 7.144 0 0 1-.082-.107ZM130.329 175.146l-7.962-10.833-.343-.463-.002-.003-.002-.003a51.531 51.531 0 0 1-.531-.724 7.82 7.82 0 0 1-1.655-.934c.664.872 1.328 1.745 1.998 2.617l8.16 10.652c.949 1.221 1.897 2.444 2.844 3.667l.003.004c1.79 2.312 3.581 4.624 5.391 6.92-1.669-2.34-3.359-4.663-5.049-6.986l-.004-.006-.001-.002c-.946-1.301-1.893-2.602-2.836-3.906h-.011ZM87.337 78.84c-.05.457-.107.918-.163 1.368h.585l.069-.5c.046-.334.092-.668.134-1.002l-.63.13.005.005ZM85.61 79.207c-.017.332-.029.67-.04 1.007h.574l.067-1.131-.602.124ZM84.512 79.437l-.005.002v-.002h.005ZM84.507 79.439l-.575.122c.003.11.007.218.012.327l.011.326h.568c0-.173-.005-.345-.01-.518v-.003l-.007-.254ZM93.521 31.949l-.31 2.217h.412l.258-2.16c.128-1.156.258-2.31.39-3.466v-.01c.24-2.112.478-4.224.697-6.339a645.6 645.6 0 0 0-.935 6.274c-.17 1.161-.339 2.323-.512 3.484ZM92.311 40.587l-.157 1.131a2545.045 2545.045 0 0 0-2.617 19.56l-.067.526c-.568 4.45-1.136 8.895-1.689 13.351.197.383.372.777.507 1.176.675-4.974 1.328-9.954 1.98-14.94.84-6.528 1.666-13.05 2.449-19.589l.14-1.198h-.101a3.81 3.81 0 0 1-.445-.023v.006ZM88.08 31.977l-.135 2.19h.405l.084-2.162c.037-1.174.076-2.349.115-3.524v-.01l.001-.004v-.014c.07-2.08.14-4.161.194-6.245-.17 2.245-.317 4.49-.464 6.733v.008c-.066 1.01-.132 2.02-.2 3.028ZM87.489 41.757c-.394 6.522-.732 13.044-1.064 19.56-.185 3.754-.365 7.507-.534 11.26.225.231.439.468.641.71.22-3.973.422-7.94.625-11.919l.078-1.618v-.002c.29-5.982.58-11.965.817-17.957l.05-1.288h-.54l-.073 1.243v.011ZM82.847 28.738v-.002c-.1-2.17-.198-4.342-.321-6.51.01 2.078.037 4.154.064 6.229.015 1.184.03 2.367.043 3.55l.045 2.319c.129-.045.264-.085.4-.124l-.085-2.2.005.005c-.052-1.088-.102-2.178-.151-3.267ZM84.05 61.352c-.202-6.528-.404-13.044-.663-19.566l-.051-1.244a3.234 3.234 0 0 1-.535-.124l.028 1.367c.114 5.98.28 11.958.445 17.937l.045 1.63c.096 3.117.197 6.24.298 9.363.248.157.478.326.708.495h.001c-.09-3.286-.18-6.572-.275-9.864v.006ZM77.195 29.116v-.006a812.369 812.369 0 0 0-.876-6.874c.175 2.124.372 4.244.569 6.363v.004c.106 1.142.212 2.284.314 3.425l.209 2.133h.405L77.556 32v.005l-.36-2.89ZM80.944 61.329c-.72-6.522-1.44-13.038-2.217-19.555l-.152-1.266h-.534l.13 1.317c.635 6.467 1.33 12.922 2.028 19.383l.02.183.002.018.875 7.91c.254.119.501.237.737.36-.292-2.775-.59-5.557-.887-8.339v-.003l-.002-.008ZM77.756 125.524h.63c.342 1.894.674 3.79 1.006 5.688v.002l.005.023.311 1.777-.008-.017.003.017-.715-1.418h-.231c-.343-2.02-.68-4.046-1.007-6.072h.006ZM74.074 125.53h.614v.004c.067 2.024.135 4.049.197 6.068h-.681c-.051-2.02-.096-4.046-.13-6.072ZM75.278 145.445l-.765-1.581c.05 1.868.101 3.731.158 5.605h.709l-.102-4.018v-.006Z"
    fill="var(--main-theme-1, currentColor)"
  />
</svg>
