<svg
  width="268"
  height="233"
  viewBox="0 0 268 233"
  fill="none"
  xmlns="http://www.w3.org/2000/svg"
>
  <path
    fill-rule="evenodd"
    clip-rule="evenodd"
    d="M200.42 0.388672H200.125V0.403262H167.585H167.296H167.289H167H134.328H134.032H134.031H133.735H101.067H100.774H100.771H100.478H67.8096H67.5141H67.5127H67.2172H34.5525H34.257H34.2557H33.9602H7.98695C3.96421 0.403262 0.703125 3.66435 0.703125 7.6871V33.4054V33.6998V33.7009V33.9953V66.4066V66.702V66.7021V66.9975V99.4069V99.7024V99.7032V99.9987V132.406V132.702V132.703V132.999V165.408V165.703V165.704V165.998V198.705V199H0.704278V224.734C0.704278 228.757 3.96536 232.018 7.98811 232.018H33.9621H34.2576H34.2582H34.5537H67.216H67.5115H67.516H67.8115H100.478H100.77H100.773H101.065H133.736H134.031H134.032H134.327H167.001H167.289H167.297H167.585H200.555H200.851V232.002H233.446V232.015H233.742H260.012C264.035 232.015 267.296 228.754 267.296 224.731V198.997H267.297V198.702V165.997V165.702V165.701V165.405V132.996V132.7V132.405V99.9957V99.7002V99.6995V99.404V66.9945V66.699V66.4037V33.9933V33.6978V33.4025V7.68515C267.297 3.6624 264.036 0.401316 260.013 0.401316H233.974V0.388672H233.679H200.42ZM200.851 231.411V199.001H233.385V231.411H200.851ZM200.126 199.017H167.592V231.427H200.126V199.017ZM200.125 198.409V165.999H167.591V198.409H200.125ZM200.125 165.393V165.407H167.591V132.999H200.125V165.393ZM200.849 165.393H233.383V132.984H200.849V132.999V165.393ZM233.383 198.394H200.849V165.998V165.985H233.383V198.394ZM233.383 132.393V99.9833H200.849V99.9987V132.393H233.383ZM200.125 132.393V99.9987H167.591V132.406H200.125V132.393ZM200.125 99.3923V99.4069H167.591V66.9977H200.125V99.3923ZM200.849 99.3921V66.9975V66.9821H233.383V99.3921H200.849ZM200.125 66.3911V33.9965H167.591V66.4064H200.125V66.3911ZM200.125 33.3899V33.4043H167.591V0.994276H200.125V33.3899ZM233.383 66.3909H200.849V33.9953V33.9809H233.383V66.3909ZM200.849 33.3897H233.383V0.979684H200.849V33.3897ZM266.706 165.405H234.039V132.996H266.706V165.405ZM234.039 165.997V198.406H266.706V165.997H234.039ZM266.706 99.404H234.039V66.9947H266.706V99.404ZM234.039 99.9957V132.405H266.706V99.9957H234.039ZM234.039 0.99233V33.4023H266.706V7.68515C266.706 3.98881 263.71 0.99233 260.013 0.99233H234.039ZM133.736 231.427V199.017H101.069V231.427H133.736ZM166.994 231.427H134.327V199.017H166.994V231.427ZM133.735 165.999H101.069V198.409H133.735V165.999ZM134.328 198.409V165.999H166.994V198.409H134.328ZM101.069 132.999H133.735V165.407H101.069V132.999ZM134.328 132.406H166.994V99.9987H134.328V132.406ZM101.069 132.406H133.735V99.9987H101.069V132.406ZM166.994 165.407H134.328V132.999H166.994V165.407ZM166.994 99.4069V66.9977H134.328V99.4069H166.994ZM133.735 99.4069V66.9977H101.069V99.4069H133.735ZM133.735 33.9965H101.069V66.4064H133.735V33.9965ZM134.328 66.4064V33.9965H166.994V66.4064H134.328ZM133.735 33.4043V0.994276H101.069V33.4043H133.735ZM166.994 33.4043H134.328V0.994276H166.994V33.4043ZM67.216 231.427V199.017H34.5537V231.427H67.216ZM100.474 231.427H67.8115V199.017H100.474V231.427ZM67.2172 165.999H34.5525V198.409H67.2172V165.999ZM67.8096 198.409V165.999H100.476V198.409H67.8096ZM34.5525 132.999H67.2172V165.407H34.5525V132.999ZM67.8096 132.406H100.476V99.9987H67.8096V132.406ZM34.5525 132.406H67.2172V99.9987H34.5525V132.406ZM100.476 165.407H67.8096V132.999H100.476V165.407ZM100.476 99.4069V66.9977H67.8096V99.4069H100.476ZM67.2172 99.4069V66.9977H34.5525V99.4069H67.2172ZM67.2172 33.9965H34.5525L34.5525 66.4064H67.2172V33.9965ZM67.8096 66.4064V33.9965H100.476V66.4064H67.8096ZM67.2172 33.4043V0.994276H34.5525L34.5525 33.4043H67.2172ZM100.476 33.4043H67.8096V0.994276H100.476V33.4043ZM33.9621 199.017H1.29529V224.734C1.29529 228.43 4.29177 231.427 7.98811 231.427H33.9621V199.017ZM33.9602 198.409V165.999H1.29414V198.409H33.9602ZM33.9602 132.406V99.9987H1.29414V132.406H33.9602ZM33.9602 132.999H1.29414V165.407H33.9602V132.999ZM1.29414 99.4069H33.9602V66.9977H1.29414V99.4069ZM33.9602 66.4064V33.9965H1.29414V66.4064H33.9602ZM33.9602 0.994276H7.98695C4.29061 0.994276 1.29414 3.99076 1.29414 7.6871V33.4043H33.9602V0.994276ZM234.039 66.4035V33.9935H266.706V66.4035H234.039ZM234.037 199.014V231.424H260.012C263.708 231.424 266.705 228.428 266.705 224.731V199.014H234.037Z"
    fill="var(--text-alt2, currentColor)"
  />
</svg>
