<svg width="159" height="210" viewBox="0 0 159 210" fill="none" xmlns="http://www.w3.org/2000/svg">
  <path
    d="M115.128 2.807a2.69 2.69 0 0 1-2.685-2.695h-6.536a2.69 2.69 0 0 1-2.685 2.695 2.69 2.69 0 0 1-2.686-2.694l-6.54-.001a2.69 2.69 0 0 1-2.685 2.695A2.69 2.69 0 0 1 88.626.113l-6.54-.001a2.69 2.69 0 0 1-2.685 2.695A2.69 2.69 0 0 1 76.716.113l-6.54-.001a2.69 2.69 0 0 1-2.685 2.695A2.69 2.69 0 0 1 64.806.113l-6.54-.001a2.69 2.69 0 0 1-2.685 2.695A2.69 2.69 0 0 1 52.896.113L46.364.112a2.69 2.69 0 0 1-2.685 2.695A2.69 2.69 0 0 1 40.993.113L34.45.112a2.69 2.69 0 0 1-2.685 2.695A2.69 2.69 0 0 1 29.079.113L22.544.112a2.69 2.69 0 0 1-2.686 2.695A2.69 2.69 0 0 1 17.173.112h-6.54a2.69 2.69 0 0 1-2.685 2.695A2.69 2.69 0 0 1 5.263.112H0v5.936h.014a2.69 2.69 0 0 1 2.685 2.695 2.69 2.69 0 0 1-2.685 2.695H0v6.561h.014a2.69 2.69 0 0 1 2.685 2.695 2.69 2.69 0 0 1-2.685 2.694H0v6.562h.014a2.69 2.69 0 0 1 2.685 2.694A2.69 2.69 0 0 1 .014 35.34H0V41.9h.014a2.69 2.69 0 0 1 2.685 2.694A2.69 2.69 0 0 1 .014 47.29H0v6.562h.014a2.69 2.69 0 0 1 2.685 2.694 2.69 2.69 0 0 1-2.685 2.695H0v6.561h.014a2.69 2.69 0 0 1 2.685 2.695 2.69 2.69 0 0 1-2.685 2.695H0v6.56h.014a2.69 2.69 0 0 1 2.685 2.696 2.69 2.69 0 0 1-2.685 2.694H0v6.562h.014a2.69 2.69 0 0 1 2.685 2.694 2.69 2.69 0 0 1-2.685 2.695H0v6.562h.014a2.69 2.69 0 0 1 2.685 2.694 2.69 2.69 0 0 1-2.685 2.695H0v6.561h.014a2.69 2.69 0 0 1 2.685 2.695 2.69 2.69 0 0 1-2.685 2.695H0v6.561h.014a2.69 2.69 0 0 1 2.685 2.695 2.69 2.69 0 0 1-2.685 2.694H0v6.562h.014a2.69 2.69 0 0 1 2.685 2.695 2.69 2.69 0 0 1-2.685 2.695H0v6.56h.014a2.69 2.69 0 0 1 2.685 2.695 2.69 2.69 0 0 1-2.685 2.695H0v6.562h.014a2.69 2.69 0 0 1 2.685 2.694 2.69 2.69 0 0 1-2.685 2.695H0v6.562h.014a2.69 2.69 0 0 1 2.685 2.694 2.69 2.69 0 0 1-2.685 2.695H0v6.562l.014-.001a2.69 2.69 0 0 1 2.685 2.695A2.69 2.69 0 0 1 .014 190.7H0v6.562h.014a2.69 2.69 0 0 1 2.685 2.694 2.69 2.69 0 0 1-2.685 2.695H0v6.562h.014c.221 0 .437.027.643.078h4.608a2.69 2.69 0 0 1 2.685-2.695 2.69 2.69 0 0 1 2.685 2.695h6.537a2.69 2.69 0 0 1 2.686-2.695 2.69 2.69 0 0 1 2.685 2.695h6.54a2.69 2.69 0 0 1 2.685-2.695 2.69 2.69 0 0 1 2.685 2.695h6.544a2.69 2.69 0 0 1 2.685-2.695 2.69 2.69 0 0 1 2.685 2.695h6.532a2.69 2.69 0 0 1 2.685-2.695 2.69 2.69 0 0 1 2.685 2.695h6.54a2.69 2.69 0 0 1 2.685-2.695 2.69 2.69 0 0 1 2.686 2.695h6.535a2.69 2.69 0 0 1 2.685-2.695 2.69 2.69 0 0 1 2.686 2.695h6.543a2.69 2.69 0 0 1 2.686-2.695A2.69 2.69 0 0 1 94 209.291h6.536a2.69 2.69 0 0 1 2.685-2.695 2.69 2.69 0 0 1 2.685 2.695h6.54a2.69 2.69 0 0 1 2.685-2.695 2.69 2.69 0 0 1 2.685 2.695h6.536a2.69 2.69 0 0 1 2.685-2.695 2.69 2.69 0 0 1 2.685 2.695h6.536a2.69 2.69 0 0 1 2.686-2.695 2.69 2.69 0 0 1 2.685 2.695h6.543a2.69 2.69 0 0 1 2.686-2.695 2.69 2.69 0 0 1 2.685 2.695h4.607c.203-.051.415-.078.633-.078v-6.562a2.69 2.69 0 0 1-2.675-2.695 2.69 2.69 0 0 1 2.675-2.695V190.7a2.69 2.69 0 0 1-2.675-2.695 2.69 2.69 0 0 1 2.675-2.695v-6.561a2.69 2.69 0 0 1-2.675-2.695 2.69 2.69 0 0 1 2.675-2.694v-6.562a2.69 2.69 0 0 1-2.675-2.695 2.69 2.69 0 0 1 2.675-2.695v-6.561a2.69 2.69 0 0 1-2.675-2.695 2.69 2.69 0 0 1 2.675-2.695v-6.561a2.69 2.69 0 0 1-2.675-2.694 2.69 2.69 0 0 1 2.675-2.695v-6.562a2.69 2.69 0 0 1-2.675-2.694 2.69 2.69 0 0 1 2.675-2.695v-6.561a2.69 2.69 0 0 1-2.675-2.695 2.69 2.69 0 0 1 2.675-2.695v-6.561a2.69 2.69 0 0 1-2.675-2.695 2.69 2.69 0 0 1 2.675-2.694v-6.562a2.69 2.69 0 0 1-2.675-2.695 2.69 2.69 0 0 1 2.675-2.695v-6.561a2.69 2.69 0 0 1-2.675-2.695 2.69 2.69 0 0 1 2.675-2.694v-6.561a2.69 2.69 0 0 1-2.675-2.695 2.69 2.69 0 0 1 2.675-2.695v-6.561a2.69 2.69 0 0 1-2.675-2.695 2.69 2.69 0 0 1 2.675-2.695V47.29a2.69 2.69 0 0 1-2.675-2.695 2.69 2.69 0 0 1 2.675-2.694v-6.562a2.69 2.69 0 0 1-2.675-2.695 2.69 2.69 0 0 1 2.675-2.694v-6.562a2.69 2.69 0 0 1-2.675-2.695A2.69 2.69 0 0 1 158.783 18v-6.562a2.69 2.69 0 0 1-2.675-2.694 2.69 2.69 0 0 1 2.675-2.695V.112h-5.243a2.691 2.691 0 0 1-2.686 2.695 2.69 2.69 0 0 1-2.685-2.694l-6.543-.001a2.691 2.691 0 0 1-2.686 2.695 2.69 2.69 0 0 1-2.685-2.694l-6.532-.001a2.69 2.69 0 0 1-2.685 2.695 2.69 2.69 0 0 1-2.685-2.694l-6.54-.001a2.69 2.69 0 0 1-2.685 2.695Z"
    fill="var(--theme-3, currentColor)"
    stroke="var(--panel-overlay)"
    stroke-width="1"
  />
</svg>
