<svg viewBox="0 0 56 29" fill="none" xmlns="http://www.w3.org/2000/svg">
  <g
    stroke-width="1.44"
    stroke-miterlimit="10"
    stroke-linecap="round"
    stroke-linejoin="round"
    stroke="currentColor"
  >
    <path
      d="M24.6762 14.4447C24.6741 13.5891 23.8431 15.5193 23.812 15.6223C23.4085 16.9602 23.4488 18.7738 23.9352 20.0644C25.0792 23.0969 26.9981 22.6142 28.2099 20.1399"
    />
    <path d="M28.4238 10.6092L27.8457 10.3223" />
    <path
      d="M30.9779 16.2554C30.2448 17.1298 30.5609 18.7231 30.5224 19.8258C30.5046 20.3522 29.9745 21.5759 30.4675 21.4047C30.8496 21.2722 31.9093 17.2914 32.3652 16.651C35.1333 12.7615 35.9528 20.247 35.9549 21.6441"
    />
    <path
      d="M36.9066 13.804C36.4148 13.8146 38.1756 13.4268 38.6899 13.1613C40.9662 11.9884 38.6422 13.5042 41.058 11.6001C42.1713 10.7229 47.9262 5.48866 43.4698 4.35679C42.0412 3.99414 41.6474 8.11293 41.5565 8.68891C40.9996 12.2111 40.7449 15.7852 40.6225 19.3458C40.571 20.8386 40.6587 22.0712 40.8562 23.5111C40.9003 23.8331 40.8483 24.7694 40.9883 24.4753C41.1297 24.1792 41.0886 23.8266 41.1548 23.5047"
    />
    <path d="M38.2185 18.1876C38.2105 17.5716 42.0097 17.7064 42.6927 17.7904" />
    <path
      d="M46.5782 13.5074C45.1793 18.9781 51.5087 20.0578 52.764 16.187C53.5763 13.681 47.2691 10.8032 46.5782 13.5074Z"
    />
    <path
      d="M6.66354 10.0126C0.267059 10.0126 -1.98438 21.1691 5.06586 21.9524C17.0711 23.2859 13.7872 5.46369 4.68931 10.0126"
    />
    <path d="M6.19601 15.8418C5.81657 16.6 6.75616 18.2855 7.60576 18.2855" />
    <path d="M7.04144 13.0215C6.9788 13.0215 6.91616 13.0215 6.85352 13.0215" />
  </g>
</svg>
