<svg viewBox="0 0 98 22" fill="none" xmlns="http://www.w3.org/2000/svg">
  <g
    stroke-width="1.44"
    stroke-miterlimit="10"
    stroke-linecap="round"
    stroke-linejoin="round"
    stroke="currentColor"
  >
    <path
      d="M3.6678 9.44084C3.36356 9.38326 2.44158 5.19155 2.83495 4.64932C3.06086 4.33751 8.38024 4.00459 8.54955 4.24115C8.75046 4.52089 8.21776 6.35294 8.22944 6.71757C8.34748 10.2569 7.72539 10.2051 3.6678 9.44084Z"
    />
    <path
      d="M12.8198 5.31024C13.3926 6.14851 12.5072 9.18871 13.1319 9.29248C13.3302 9.32553 17.7293 9.74418 17.763 9.69813C18.1572 9.15534 17.7735 7.24459 17.9722 6.5253C18.0987 6.06684 18.9342 5.50008 18.5496 5.22038C17.6713 4.58294 12.3805 4.66745 12.8198 5.31024Z"
    />
    <path
      d="M12.7481 14.0625C11.9417 12.9356 13.3311 18.18 13.3311 18.18C13.3311 18.18 11.5509 14.8642 12.4621 13.6089C12.5788 13.4475 18.0674 13.914 18.1704 14.0577C18.3872 14.3605 18.0614 16.3273 18.0923 16.7098C18.3796 20.2622 17.267 19.7431 13.8894 19.4466"
    />
    <path
      d="M4.15666 15.3608C4.03686 15.2599 3.08587 18.7519 3.50019 19.0986C3.69419 19.2609 3.72901 18.0188 3.74464 17.8736C3.82774 17.105 3.7531 16.3822 3.68454 15.6151C3.64667 15.1915 3.0174 14.266 3.43162 14.3644C4.64213 14.6514 5.67204 15.0133 7.01617 14.8933C7.15234 14.8814 8.68391 14.4329 8.75163 14.5261C8.98137 14.8411 8.69727 16.2932 8.73584 16.7206C9.0642 20.3997 8.00434 20.1199 4.50798 19.2915"
    />
    <path
      d="M30.6685 10.8748C30.7606 11.2366 29.7861 11.0206 29.668 11.3748C29.3633 12.2876 29.6532 13.5602 30.3667 14.2751C32.0392 15.9492 37.279 14.7881 37.1179 12.0287C36.9984 9.97326 30.0292 8.35707 30.6685 10.8748Z"
    />
    <path
      d="M40.6189 9.53047C40.5225 10.7693 40.7639 11.8429 41.1168 13.0313C41.2789 13.5779 41.5214 15.2498 41.5657 14.6818C41.7504 12.301 41.2537 3.75118 46.1705 6.88386"
    />
    <path
      d="M54.8202 9.93983C53.3171 6.51205 47.0093 9.40829 47.6685 12.3854C48.3617 15.5132 56.6468 14.1041 54.8202 9.93983Z"
    />
    <path
      d="M54.5216 6.3392C54.4969 6.31426 55.3943 11.0849 55.4182 12.1397C55.4704 14.3708 53.0681 23.1084 51.1652 17.3873"
    />
    <path
      d="M59.2205 9.24213C58.7481 5.92268 63.5048 6.19584 64.9208 8.1456C66.8287 10.7726 64.6005 14.9291 64.5674 14.6955"
    />
    <path
      d="M64.7918 13.521C64.7597 10.1557 59.8394 9.99311 59.9669 13.4926C60.0761 16.499 64.8201 16.4393 64.7918 13.521Z"
    />
    <path
      d="M68.5201 7.84747C68.3217 8.44084 68.9584 13.7522 69.6667 13.3987C69.7066 13.3782 68.5893 6.696 72.1708 6.40004C75.2763 6.14256 72.1622 12.6495 74.967 13.0015C76.307 13.1696 78.5629 7.99596 77.8707 7.30292C77.011 6.4421 78.7553 14.1365 79.568 11.7041"
    />
    <path d="M79.5764 2.70414C79.0498 2.30925 79.3342 2.4565 78.7266 2.25391" />
    <path
      d="M83.9233 7.15726C81.1604 5.57608 87.1874 3.16921 87.774 6.10977C88.1786 8.13949 82.9582 13.7948 85.6687 14.4084C90.2644 15.449 98.5004 6.85864 94.4745 5.5137C88.337 3.46396 92.6933 17.8774 96.87 12.315"
    />
    <path d="M85.3219 9.95791C84.9735 10.3057 89.7969 9.76104 90.7224 9.76143" />
  </g>
</svg>
