<svg viewBox="0 0 94 35" fill="none" xmlns="http://www.w3.org/2000/svg">
  <g
    stroke="currentColor"
    stroke-width="1.44"
    stroke-miterlimit="10"
    stroke-linecap="round"
    stroke-linejoin="round"
  >
    <path
      d="M60.8054 13.9335C62.9871 12.4601 65.363 11.2464 66.563 8.74582C66.9525 7.93389 66.7336 4.31216 65.0082 5.03461C61.0559 6.69093 63.1643 18.9603 63.6269 21.3772C63.8683 22.6364 64.2592 23.7908 64.8226 24.9408C64.9706 25.2432 65.6313 25.8076 65.2955 25.8329C64.9252 25.861 63.6459 24.6993 63.3377 24.4726"
    />
    <path d="M60.1238 21.0602C60.2576 19.0649 65.5278 17.9561 67.1154 17.6346" />
    <path
      d="M71.1028 14.3777C73.1222 12.6116 76.6657 11.6987 77.5838 8.78672C77.8816 7.84235 76.8566 5.28839 75.5393 6.27301C72.4215 8.6027 72.2611 15.8337 72.6245 19.1926C72.7108 19.9923 74.8781 24.4816 74.7777 23.1485"
    />
    <path d="M71.2898 18.3654C72.0215 16.5793 75.726 16.8185 77.329 16.926" />
    <path
      d="M80.3048 14.0925C82.0145 13.7478 88.7334 7.63302 84.7846 6.56489C81.3058 5.62322 80.0154 16.3688 81.1577 18.4944C84.0022 23.7848 93.263 17.5976 89.9341 14.1233C86.9622 11.02 85.8979 23.9521 92.2287 18.4164"
    />
    <path
      d="M34.2237 14.7316C29.0051 10.8977 37.5179 28.1056 32.7993 27.4231C30.0007 27.0186 31.4059 23.5543 32.6489 22.3313C36.1623 18.8746 41.8159 18.9773 44.8162 14.4578C45.3679 13.6263 46.6623 10.0256 45.4103 9.25149C43.4118 8.01509 40.6867 21.8153 41.5979 23.3402C41.927 23.8912 42.9126 21.1245 42.9858 20.9743C43.5039 19.9156 44.5493 16.3762 46.121 16.3896C47.9734 16.4046 46.0027 22.3918 48.5456 22.4124C50.039 22.4243 53.2115 17.5576 52.1491 16.342C51.9594 16.1256 51.4034 18.4305 51.3863 18.5452C51.2316 19.6178 51.4074 21.9575 52.7723 22.3266C54.4906 22.7918 55.2339 19.0076 56.0652 19.0635C56.3509 19.0832 56.9307 21.8109 57.2878 22.2196"
    />
    <path
      d="M0.943264 16.0139C-0.0546556 15.8029 2.60718 14.9317 2.9427 14.8396C4.8543 14.3111 7.16694 14.3399 8.92518 15.3457C14.9242 18.7787 10.8519 27.3424 21.0089 22.6257"
    />
    <path
      d="M18.377 20.3174C17.0436 20.4686 21.7149 20.0798 22.2801 21.2966C22.6329 22.0576 21.4795 23.6402 21.9496 24.6525"
    />
    <path
      d="M3.64453 25.1879C12.4199 27.0477 9.60542 17.7733 11.5523 14.4556C13.1269 11.77 16.0876 12.2819 18.6198 11.9946"
    />
    <path
      d="M17.0512 8.6173C15.0216 7.00162 17.8526 9.6397 18.7447 9.96586C19.4445 10.2222 20.8464 9.68938 20.9306 10.4288C21.0314 11.3166 18.371 15.2471 17.7705 16.0016"
    />
  </g>
</svg>
