<svg viewBox="0 0 83 28" fill="none" xmlns="http://www.w3.org/2000/svg">
  <g
    stroke="currentColor"
    stroke-width="2"
    stroke-miterlimit="10"
    stroke-linecap="round"
    stroke-linejoin="round"
  >
    <path d="M17.3992 17.4808C17.2205 17.4608 20.2107 22.0943 23.1019 21.6433" />
    <path d="M7.03171 10.6916C4.2255 10.9536 12.8978 11.3976 15.4783 10.2614" />

    <path
      d="M11.0884 7.24532C10.9166 5.4024 10.1516 13.8576 10.3334 15.8022"
      class="plus-vertical"
    />
    <path
      d="M10.7021 2.23542C0.304486 2.23542 -3.54376 18.829 8.30554 20.1451C26.3135 22.1452 20.521 -4.71032 6.87412 2.11312"
    />
    <path
      d="M42.0933 13.7574C42.1854 14.1192 41.2109 13.9032 41.0928 14.2574C40.7881 15.1702 41.078 16.4428 41.7915 17.1578C43.464 18.8318 48.7038 17.6707 48.5427 14.9113C48.4232 12.8559 41.454 11.2397 42.0933 13.7574Z"
    />
    <path
      d="M74.4429 14.454C76.6368 12.9594 80.0857 8.39553 75.8065 8.83364C71.1371 10.7758 73.2745 20.1911 81.1053 17.3713"
    />
    <path
      d="M31.2121 12.7056C35.7963 14.9654 40.1882 2.64664 37.4965 2.66246C31.6385 2.69515 30.4977 24.0851 39.1083 17.5501"
    />
    <path
      d="M61.9126 10.5785C61.3802 16.146 64.3304 21.3533 64.0079 26.8068C63.7086 22.5102 60.8111 11.7134 66.267 9.80469C73.2503 7.36321 71.5546 19.0914 63.8939 19.0407"
    />
    <path
      d="M47.7896 16.8118C49.5313 16.856 54.0009 10.9372 52.7358 9.69522C51.7641 8.9154 51.6483 12.8752 51.6308 12.9899C51.4736 14.0621 51.729 16.4122 53.3285 16.8118C55.3422 17.3154 57.5039 11.2968 58.4745 11.3707C58.808 11.3966 59.3995 19.2267 59.8247 19.6443"
    />
  </g>
</svg>
