<svg viewBox="0 0 72 15" fill="none" xmlns="http://www.w3.org/2000/svg">
  <g
    stroke="currentColor"
    stroke-width="1.44"
    stroke-miterlimit="10"
    stroke-linecap="round"
    stroke-linejoin="round"
  >
    <path
      d="M25.5167 3.14315C23.9147 3.39299 29.6639 2.33553 30.4847 3.98073C31.7015 6.41915 26.1748 8.15615 26.447 9.90251C26.6565 11.2429 31.5006 8.9825 32.0651 8.28209"
    />
    <path d="M26.5954 6.07592C26.3578 5.96619 31.8169 5.45607 33.2309 5.41309" />
    <path
      d="M34.9943 3.87676C33.365 7.06456 36.2601 9.99748 39.1523 7.34198C42.7279 4.05979 36.8167 0.313264 34.9943 3.87676Z"
    />
    <path
      d="M46.178 3.20758C46.5229 3.43042 43.6133 2.25609 43.0539 5.57601C42.7695 7.26297 44.2016 8.60247 45.7251 8.92164C49.5209 9.71674 52.5377 3.39715 49.1782 1.10654C47.6655 0.074929 44.1217 1.88105 46.178 3.20758Z"
    />
    <path
      d="M54.8255 2.58215C54.7225 3.50238 55.3424 8.02636 56.5801 8.26216C58.3636 8.60214 58.1792 0.942781 59.5796 0.724405C60.6316 0.560317 61.7109 5.26537 61.8491 5.99329C61.9261 6.40269 61.9542 7.42638 62.2796 7.16646C63.2171 6.41802 61.4632 1.25634 63.6023 0.799936C67.9914 -0.136712 64.647 11.8559 69.7597 6.0825C70.3624 5.40196 70.8729 5.43011 71.1702 4.78758"
    />
    <path d="M4.34165 5.32745C3.33005 5.42192 6.45628 5.58197 7.38652 5.17236" />
    <path d="M5.64739 4.08528C5.58547 3.42093 5.30971 6.46891 5.37523 7.1699" />
    <path
      d="M4.49763 1.38143C4.54155 1.40656 0.620428 2.8264 0.722668 6.20788C0.805468 8.93308 3.5681 10.872 6.11978 10.3274C10.4189 9.41022 11.9057 3.71394 7.61955 1.12187C6.84987 0.656386 2.83083 0.429949 4.49763 1.38143Z"
    />
    <path d="M8.44729 8.80719C8.25937 8.7861 11.4835 14.0391 14.5227 13.5651" />
  </g>
</svg>
