<svg xmlns="http://www.w3.org/2000/svg" fill="none" viewBox="0 0 531 291">
  <path
    stroke="currentColor"
    d="M0 .5h531M0 261.5h531m-531 29h531M0 87.5h138.415m269.833 0H531M0 58.5h135.608m148.414 0h9.718m5.223 0H531m-531 87h142.277m262.585 0H531m-531-29h140.833m265.721 0H531m-531 58h143.662m257.597 0H531m-531 29h146.86m251.022 0H531M0 29.5h267.225m8.676 0H531m-339.122 203h8.072m6.158 0h9.631m5.229 0H531m-531 0h150.052m28.883 0h3.917"
  />
  <path
    stroke="currentColor"
    d="M385.457 210.049c-.084-.005-.162-.004-.243-.005a4.9 4.9 0 0 0-1.252.143 4.99 4.99 0 0 0-3.762 4.474l-5.127-.299a4.99 4.99 0 0 0-4.692-5.193 4.95 4.95 0 0 0-2.481.502 4.5 4.5 0 0 0-1.025.673 4.95 4.95 0 0 0-1.754 3.435l-5.077-.296a5 5 0 0 0-.003-.508 5 5 0 0 0-.191-1.108c-.018-.058-.035-.119-.056-.175-.005-.018-.013-.033-.015-.052q-.028-.081-.06-.162c-.017-.055-.041-.108-.062-.16q-.03-.07-.059-.13a5.3 5.3 0 0 0-.542-.909 2 2 0 0 0-.137-.173q-.072-.085-.146-.171a4.914 4.914 0 0 0-3.286-1.637l-.182-.011a4.98 4.98 0 0 0-4.592 2.467 4.96 4.96 0 0 0-.666 2.146l-5.076-.296a5 5 0 0 0-.021-.72q-.007-.094-.022-.19a4 4 0 0 0-.047-.276 3 3 0 0 0-.05-.229 3 3 0 0 0-.062-.223q-.032-.11-.071-.22-.036-.11-.081-.215a3 3 0 0 0-.09-.21 3 3 0 0 0-.102-.207 2 2 0 0 0-.087-.164c-.048-.09-.104-.175-.159-.262-.032-.056-.069-.106-.108-.16a4 4 0 0 0-.279-.359 4.96 4.96 0 0 0-3.513-1.758l-.051-.003a4.95 4.95 0 0 0-3.172.912 1.3 1.3 0 0 0-.182.136q-.091.063-.174.144a3 3 0 0 0-.165.146q-.086.083-.169.165c-.057.05-.105.108-.154.165a1.4 1.4 0 0 0-.116.134c-.019.02-.038.046-.058.066q-.058.077-.114.153a2 2 0 0 0-.105.15c-.039.052-.075.11-.108.165a3 3 0 0 0-.107.183q-.046.078-.087.157a4.9 4.9 0 0 0-.49 1.432l-.001.027a5 5 0 0 0-.058.478l-5.076-.297a4.98 4.98 0 0 0-2.121-4.3 4.94 4.94 0 0 0-2.365-.874c-.069-.004-.134-.014-.203-.018l-.051-.003q-.082-.006-.159-.004a3 3 0 0 0-.331.002 4 4 0 0 0-.68.072 5.2 5.2 0 0 0-1.206.377 4.99 4.99 0 0 0-2.884 4.165l-5.074-.296a4.996 4.996 0 0 0-3.464-4.965 5.4 5.4 0 0 0-.979-.204l-.027-.002a3 3 0 0 0-.221-.022l-.051-.003q-.112-.007-.219-.006a4.98 4.98 0 0 0-3.592 1.455h-.006a5 5 0 0 0-1.447 3.164l-5.076-.296a4.983 4.983 0 0 0-4.486-5.175c-.068-.004-.134-.014-.203-.018l-.051-.003a4.983 4.983 0 0 0-5.26 4.613l-5.074-.296c.004-.063.008-.126 0-.196a4.94 4.94 0 0 0-.888-2.861 4.97 4.97 0 0 0-3.552-2.116 5 5 0 0 0-.275-.025l-.024-.001c-.084-.005-.165-.01-.249-.006a4 4 0 0 0-.449.019 4.986 4.986 0 0 0-4.563 4.603l-5.076-.297a4.97 4.97 0 0 0-2.022-4.225 4.6 4.6 0 0 0-1.074-.604 4.8 4.8 0 0 0-1.246-.331l-.015-.001a3 3 0 0 0-.176-.022l-.207-.012q-.101-.007-.201-.006a4.947 4.947 0 0 0-4.077 2.007 4.7 4.7 0 0 0-.56.941l-.001.012a4.9 4.9 0 0 0-.418 1.661l-5.077-.296a4.99 4.99 0 0 0-4.118-5.126 4 4 0 0 0-.388-.05 1 1 0 0 1-.134-.014l-.096-.005-.126-.008c-.054-.003-.108-.006-.159 0a4.94 4.94 0 0 0-2.928.95c-.06.042-.123.086-.18.137-.056.045-.116.093-.17.143a4 4 0 0 0-.322.309 3 3 0 0 0-.151.166 2 2 0 0 0-.125.146c-.013.017-.026.031-.04.051a3 3 0 0 0-.117.156 2 2 0 0 0-.121.17q-.015.02-.026.041c-.036.052-.07.11-.1.165q-.075.12-.141.244-.042.077-.075.155a4.3 4.3 0 0 0-.301.779 5.333 5.333 0 0 0-.179 1.014l-5.073-.296a3 3 0 0 0 .001-.231 5 5 0 0 0-.066-.779 5 5 0 0 0-.311-1.106 4.99 4.99 0 0 0-4.316-3.07 5 5 0 0 0-1.872.251 4.94 4.94 0 0 0-2.407 1.75c-.221.29-.411.607-.56.941v.012a4.9 4.9 0 0 0-.419 1.661l-5.127-.299a4.96 4.96 0 0 0-1.042-3.267 4.6 4.6 0 0 0-.86-.861 4.96 4.96 0 0 0-2.79-1.065 4.99 4.99 0 0 0-5.263 4.613l-5.211-.304.001-.018.028-.17c.002-.042.011-.086.016-.125a4 4 0 0 0 .024-.254c.004-.075.009-.156.007-.228a4.988 4.988 0 0 0-4.587-5.028l.299-5.13a4.986 4.986 0 0 0 5.143-4.46c.005-.075.016-.156.02-.23a5 5 0 0 0 .007-.379c-.003-.054-.002-.117-.008-.168a4.99 4.99 0 0 0-2.521-4.081 4.8 4.8 0 0 0-1.195-.481 5 5 0 0 0-.866-.144l.299-5.13a4.98 4.98 0 0 0 5.077-4.044c.017-.077.027-.154.038-.232q.027-.159.036-.319l.006-.093.001-.024q.007-.102.006-.204a8 8 0 0 0-.014-.422 4.962 4.962 0 0 0-1.988-3.629h-.006a4.8 4.8 0 0 0-1.1-.626 5 5 0 0 0-1.479-.348l.299-5.136a4.98 4.98 0 0 0 5.141-4.463c.004-.072.015-.15.019-.228l.001-.02a5 5 0 0 0-1.393-3.733 5.3 5.3 0 0 0-.967-.775 4.85 4.85 0 0 0-2.224-.727l.3-5.131a4.98 4.98 0 0 0 5.019-3.773q.059-.217.092-.445c.013-.077.024-.161.032-.242.004-.075.015-.152.019-.227q.008-.114.008-.228.004-.093-.002-.177l-.006-.199a5 5 0 0 0-.039-.372l-.03-.2-.028-.14a5 5 0 0 0-1.436-2.581 4.98 4.98 0 0 0-3.046-1.364l.299-5.131a4.98 4.98 0 0 0 5.124-4.326v-.012q.013-.079.018-.155a3.235 3.235 0 0 0 .026-.434c.005-.084 0-.159-.004-.238a4.82 4.82 0 0 0-.24-1.351 4.99 4.99 0 0 0-4.344-3.427l.299-5.133a4.983 4.983 0 0 0 5.144-4.457c.004-.078.014-.153.019-.23l.011-.192a3 3 0 0 0-.003-.307l-.009-.16a4.991 4.991 0 0 0-4.576-4.597l.299-5.127a4.98 4.98 0 0 0 4.857-3.263c.014-.026.022-.056.032-.085q.026-.073.048-.148.115-.35.168-.72c.009-.048.014-.086.02-.131q.014-.104.025-.218v-.012l.007-.117.002-.024q.008-.116.007-.23 0-.238-.02-.477l.001-.015a4.98 4.98 0 0 0-4.569-4.512l.299-5.13a4.97 4.97 0 0 0 4.675-2.817 4.9 4.9 0 0 0 .481-1.814l.004-.06q.014-.256.006-.514l-.015-.214q-.006-.106-.021-.212c-.011-.07-.019-.139-.033-.209a5 5 0 0 0-4.517-4.11l.299-5.13a5 5 0 0 0 2.093-.377 5 5 0 0 0 1.432-.905 4.96 4.96 0 0 0 1.614-3.154c.005-.087.016-.165.021-.252q.007-.103.006-.207c.005-.084 0-.162-.004-.243a4.98 4.98 0 0 0-4.585-4.811l.3-5.13a4.982 4.982 0 0 0 5.122-4.302c.002-.046.011-.09.017-.132q.003-.08.015-.164l.003-.042 5.178.302a4.986 4.986 0 0 0 5.209 5.136 4.98 4.98 0 0 0 4.72-4.416c.008-.048.017-.09.02-.137l5.133.3a4.981 4.981 0 0 0 8.06 4.07 4.98 4.98 0 0 0 1.886-3.49l5.079.296a4.99 4.99 0 0 0 4.693 5.13l.134.007q.08.007.16.004.112.006.222-.005l.229-.014a4.95 4.95 0 0 0 3.61-2.01 5 5 0 0 0 .949-2.53l5.083.297a4.98 4.98 0 0 0 4.686 5.127l.054.003c.114.006.228.013.336.01a4.99 4.99 0 0 0 4.921-4.56l5.082.296c-.002.048-.005.09-.002.139a4.97 4.97 0 0 0 1.445 3.525 4.9 4.9 0 0 0 2.808 1.416q.119.021.238.032.098.014.201.018l.051.003a4.96 4.96 0 0 0 3.48-1.14 4.98 4.98 0 0 0 1.776-3.41l5.083.297a4.984 4.984 0 0 0 3.766 4.989c.213.057.436.094.66.116.089.011.173.02.263.025l.168.01q.082.006.165.003a4.98 4.98 0 0 0 4.969-4.557l5.082.296a4.98 4.98 0 0 0 4.674 5.129h.018q.153.013.306.01c.316.003.626-.018.924-.076a4.99 4.99 0 0 0 4.075-4.48l5.079.296a4.97 4.97 0 0 0 1.239 3.441c.329.383.725.715 1.16.981a6 6 0 0 0 .589.302c.068.031.135.062.206.084a5.1 5.1 0 0 0 1.498.325c.09.005.168.01.252.009.084.005.163 0 .244-.004a4.974 4.974 0 0 0 4.809-4.552l5.083.297c-.007.12-.002.234 0 .351q.007.176.028.347.02.231.07.45.02.112.05.222c.014.072.037.146.059.216q.032.11.072.215.034.106.078.209.039.105.087.203.044.1.097.201.048.097.106.196c.035.065.07.127.115.19a4.96 4.96 0 0 0 3.75 2.313l.123.007.105.006q.1.007.195.006a4.8 4.8 0 0 0 1.567-.222 4.797 4.797 0 0 0 1.026-.448s.001-.005.007-.005a4.5 4.5 0 0 0 .73-.52q.086-.072.168-.149.084-.075.16-.156c.057-.05.105-.108.153-.162q.076-.078.139-.16.081-.1.153-.199.067-.082.121-.17.067-.091.122-.188.063-.092.113-.192a3 3 0 0 0 .105-.201c.034-.065.062-.132.093-.2a5 5 0 0 0 .287-.845c.018-.062.028-.125.041-.193.024-.095.035-.193.05-.294.014-.084.022-.164.03-.251l5.082.296q-.017.544.08 1.06a5 5 0 0 0 .682 1.75 4.96 4.96 0 0 0 3.748 2.303q.086.013.177.017c.086.005.167.01.251.008.081.005.16 0 .241-.004a4.9 4.9 0 0 0 1.467-.26 4.99 4.99 0 0 0 3.342-4.291l5.083.296a4.9 4.9 0 0 0 .22 1.624q.022.082.048.159.061.174.131.34a4.98 4.98 0 0 0 4.29 3.01 4.983 4.983 0 0 0 5.257-4.55l5.133.3a4.972 4.972 0 0 0 4.686 5.13 5 5 0 0 0 1.911-.26 4.99 4.99 0 0 0 3.343-4.29l5.118.298c-.004.075-.008.144-.007.222l.004.24a4.996 4.996 0 0 0 4.696 4.76c.048.004.09-.003.138 0l-.299 5.13-.138-.008a4.983 4.983 0 0 0-5.252 4.478c-.004.069-.015.143-.019.212l-.002.045a4.99 4.99 0 0 0 4.693 5.22c.048.003.09-.004.138 0l-.299 5.136c-.048-.003-.09-.015-.138-.017a4.99 4.99 0 0 0-5.249 4.42c-.005.087-.016.18-.021.267l-.001.017c-.005.084-.01.16-.006.244q-.003.081.003.162-.003.085.008.166c.007.084.012.163.022.25q.014.127.036.246a4.9 4.9 0 0 0 1.273 2.602 4.97 4.97 0 0 0 3.358 1.58c.048.004.09 0 .138.003l-.299 5.133c-.048-.003-.09-.014-.138-.017a4.993 4.993 0 0 0-5.243 4.364c-.002.033-.01.066-.011.096-.005.075-.015.152-.02.23-.004.078-.009.159-.005.24-.005.084 0 .162.004.244l-.001.024q.014.388.088.756c.097.496.277.972.516 1.41a4.98 4.98 0 0 0 4.086 2.594c.047.003.09-.004.138-.004l-.299 5.13-.138-.008a5.01 5.01 0 0 0-4.657 2.559c-.06.111-.121.222-.173.336-.024.058-.052.117-.076.179q-.052.127-.099.258c-.04.118-.077.233-.111.354q-.034.128-.064.261-.02.103-.036.205l-.001.03a3 3 0 0 0-.033.248v.009c-.005.075-.015.152-.02.23l-.001.021q-.01.127-.008.24a4.99 4.99 0 0 0 4.698 5.031c.048.003.091-.004.138-.001l-.299 5.136c-.048-.002-.089-.014-.137-.017a4.98 4.98 0 0 0-4.236 1.932c-.246.31-.447.653-.613 1.022a5 5 0 0 0-.255.719c0 .009-.007.017-.011.029-.027.113-.058.228-.077.347a4 4 0 0 0-.06.405c-.004.078-.015.156-.019.231-.004.074-.009.155-.007.231a4.99 4.99 0 0 0 4.697 5.037c.048.002.091-.004.139-.004l-.3 5.133c-.048-.003-.089-.011-.137-.014a5 5 0 0 0-2.978.773q-.515.33-.932.775a4.9 4.9 0 0 0-1.008 1.564c0 .006 0 .009-.007.017a4 4 0 0 0-.115.321v.012a1 1 0 0 0-.027.101q-.041.134-.073.272 0 .014-.007.024c-.026.124-.054.252-.074.38-.01.075-.02.146-.028.227-.004.075-.015.149-.019.227a4.99 4.99 0 0 0 4.69 5.265l.138.008-.299 5.13-.138-.008a4.9 4.9 0 0 0-1.597.169 4.976 4.976 0 0 0-3.427 3.226q-.003.016-.011.032l-.001.009a4 4 0 0 0-.114.414 2 2 0 0 0-.048.214l-.03.19-.029.203c-.004.069-.014.137-.018.206l-.002.021a4.99 4.99 0 0 0 4.69 5.274c.048.003.091-.007.139-.004l-.3 5.139c-.048-.002-.089-.017-.137-.02-.09-.005-.177-.01-.267-.006a4.8 4.8 0 0 0-1.381.187 5 5 0 0 0-3.366 3.184c-.01.03-.018.056-.026.086-.021.056-.037.121-.055.183a3 3 0 0 0-.108.456 2 2 0 0 0-.03.197q-.013.091-.022.173c-.004.081-.015.155-.019.23a4.992 4.992 0 0 0 4.69 5.271c.048.003.09 0 .138-.001l-.299 5.134c-.048-.003-.09-.012-.138-.014a6 6 0 0 0-.588-.005 4.996 4.996 0 0 0-4.666 4.455c-.004.078-.015.159-.019.237a5 5 0 0 0-.008.438l-.001.027q.01.367.081.723a4.98 4.98 0 0 0 2.537 3.492c.62.34 1.326.547 2.078.59l.138.008-.3 5.131c-.048-.003-.089-.015-.137-.017a4.99 4.99 0 0 0-5.277 4.9l.006.207-.001.006-.002.039-.002.039a.1.1 0 0 0 .004.037c-.001.015-.002.024.004.036l-5.155-.301a4.985 4.985 0 0 0-4.688-5.193zM391.558 74.408l-82.533 125.293m77.011-125.619-82.535 125.296m77.014-125.622-82.537 125.299M374.993 73.43 292.454 198.73m77.018-125.628L286.93 198.408m77.02-125.63-82.544 125.307m77.023-125.634-82.546 125.311m77.024-125.637-82.548 125.314m77.027-125.64-82.55 125.317m77.028-125.644-82.552 125.321m77.03-125.647L253.788 196.47m77.033-125.65-82.556 125.327m77.034-125.653-82.558 125.33m77.037-125.657-82.561 125.334m77.039-125.66-82.562 125.337m77.041-125.663-82.565 125.34m77.043-125.666-82.567 125.343m77.045-125.67-80.045 121.515M292.17 68.536l-73.904 112.192M286.648 68.21l-67.762 102.869m62.241-103.196-61.622 93.547m56.1-93.873-55.48 84.224m49.959-84.55-49.34 74.901m43.818-75.227-43.198 65.578m37.676-65.904-37.056 56.255m31.535-56.582-30.916 46.933m25.394-47.259-24.774 37.61M242.476 65.6l-18.634 28.287m13.112-28.613-12.492 18.964m6.971-19.29-6.351 9.64m.829-9.967-.62.94m163.452 135.037-2.388 3.625m2.909-13.124-8.433 12.801m8.954-22.301-14.478 21.978m14.999-31.477-20.522 31.154m21.043-40.654-26.567 40.331m27.089-49.83-32.612 49.507m33.133-59.007-38.657 58.684m39.178-68.184-44.702 67.861m45.223-77.36-50.746 77.037m51.267-86.537-56.791 86.214m57.312-95.713-62.835 95.39m63.357-104.89L325.595 200.67m69.402-114.067-74.926 113.744m75.447-123.243-80.97 122.92"
  />
  <path
    fill="currentColor"
    d="m163.897 225.925-.402.915-3.974-1.745.403-.915zM173.35 224.845l-.403.915-14.033-6.164.201-.458.2-.458zM182.803 223.764l-.201.458-.201.458-24.096-10.584.402-.916zM192.255 222.684l-.201.458-.2.457-34.158-15.003.201-.457.201-.458zM201.707 221.604l-.401.915-44.218-19.422.402-.915zM211.159 220.523l-.2.458-.201.458-54.279-23.842.403-.915zM220.611 219.443l-.2.458-.201.457-64.34-28.259.201-.459.201-.457zM230.065 218.362l-.402.915-74.4-32.678.402-.916zM209.271 203.997q0 .07-.003.14a3 3 0 0 1-.024.254c-.005.039-.014.083-.016.125l-.029.17-.001.018 1.94.112 28.38 12.466-.202.457-.201.459-84.462-37.099.403-.915zM224.368 205.395q0 .096-.003.193l.51.03 24.095 10.583-.403.916-33.264-14.611a5 5 0 0 1 .692-.789zM258.422 215.121l-.402.915-27.889-12.25q.154-.268.34-.513.121-.165.256-.317zM267.874 214.041l-.402.915-22.525-9.894.048-.101q.033-.077.075-.155.066-.124.141-.244c.03-.055.064-.113.1-.165q.01-.021.026-.041a2 2 0 0 1 .116-.164zM277.326 212.959l-.402.916-17.079-7.501q.072-.209.162-.408l.001-.012q.112-.253.254-.49zM286.778 211.879l-.402.915-11.589-5.09q.12-.496.33-.947zM279.923 203.888l.024.001q.14.009.275.026.272.028.533.085l1.766.777a5 5 0 0 1 1.57 1.782l-5.721-2.513q.416-.108.855-.144.219-.024.449-.02c.084-.004.165.001.249.006M264.646 203.006q.098-.001.201.006l.206.012a4 4 0 0 1 .191.023q.655.085 1.246.331a4.6 4.6 0 0 1 1.073.604c.382.282.719.616 1.005.99l-4.437-1.949q.254-.023.515-.017M250.394 202.205a4.96 4.96 0 0 1 2.219.992l-2.282-1.002zM204.809 196.804l-.063 1.065-50.701-22.269.201-.458.2-.458zM207.909 192.933a5 5 0 0 1-1.184.572L153.437 170.1l.201-.457.201-.459zM210.156 188.689q.005.182-.006.372c-.004.075-.015.155-.019.23-.008.08-.019.164-.032.242l-.037.206-57.234-25.139.201-.457.2-.458zM205.701 181.5l-.061 1.065-53.42-23.464.402-.916zM208.998 177.715a5 5 0 0 1-1.098.61l-56.289-24.724.403-.915zM211.017 173.37q.013.196.013.392.001.103-.006.204l-.002.024-.004.093a3 3 0 0 1-.038.319l-.006.042-59.972-26.341.402-.916zM206.591 166.194l-.063 1.065-56.133-24.655.201-.459.201-.457zM210.069 162.49a5 5 0 0 1-1.021.643l-59.263-26.029.403-.916zM211.877 158.051q.048.411.026.838l-.001.022c-.004.077-.015.155-.019.227l-.002.008-62.704-27.541.201-.459.201-.457zM207.48 150.888l-.062 1.066-58.85-25.849.202-.457.201-.459zM211.126 147.257q-.438.391-.957.672l-62.209-27.324.402-.915zM212.722 142.726l.02.135q.026.186.038.372l.007.199q.006.084.002.177c.002.075-.003.154-.008.228l-.001.007-65.429-28.738.402-.916zM208.376 135.584l-.063 1.066-61.57-27.044.403-.915zM212.176 132.022q-.408.4-.898.698l-65.144-28.613.402-.915zM213.552 127.394q.047.208.076.424c.018.148.031.305.037.462.004.078.009.154.004.238l-.001.02-68.143-29.93.403-.916zM209.269 120.28l-.063 1.065-64.289-28.237.402-.916zM213.216 116.782a5 5 0 0 1-.841.723l-68.066-29.896.201-.46.201-.456zM214.371 112.057l.025.083a5 5 0 0 1 .155 1.043l.002.046-70.853-31.12.403-.916zM210.167 104.978l-.063 1.064-67.012-29.433.402-.915zM214.247 101.539a5 5 0 0 1-.785.747l-70.98-31.176.403-.916zM215.168 96.71a5 5 0 0 1 .243 1.165l.002.036-73.538-32.301.402-.915zM211.057 89.672l-.063 1.065-69.728-30.627.402-.914zM215.264 86.288a5 5 0 0 1-.211.257 5 5 0 0 1-.529.51l-69.666-30.6.402-.914zM215.941 81.353c.134.327.236.67.298 1.024q.02.105.033.21v.004l-61.797-27.144.402-.915zM211.949 74.367l-.062 1.065-47.796-20.993.402-.916zM216.274 71.035q-.306.431-.694.787L173.706 53.43l.402-.915zM216.689 65.986c.194.399.334.827.415 1.274l-33.782-14.838.403-.916zM261.509 59.51a5 5 0 0 1-1.027.64l-6.92-3.038a5 5 0 0 1-.216-1.188zM212.839 59.061l-.063 1.066-19.838-8.713.403-.916zM272.435 59.077l-.201.458-.201.458-3.154-1.386a5 5 0 0 1-.391-1.264zM246.81 58.286a5 5 0 0 1-.888.702l-7.523-3.304a5 5 0 0 1-.084-1.082l-2.742-.16-13.785-6.055.401-.915zM232.062 57.04a5 5 0 0 1-.771.754l-8.045-3.533q-.021-.268-.014-.542l-1.407-.082-9.653-4.24.2-.459.201-.457zM217.271 55.776a5 5 0 0 1-.649.807l-14.067-6.178.402-.915zM265.912 56.211l-2.574-.149q-.006.052-.013.105l-22.305-9.796.402-.916zM252.175 55.41l-2.866-.167-17.906-7.865.403-.914zM271.83 53.579l-.402.916-20.792-9.133.201-.457.201-.46zM271.225 48.08l-.403.917-10.57-4.643.402-.916zM270.621 42.584l-.202.456-.201.459-1.031-.455.403-.915z"
  />
  <path
    fill="currentColor"
    d="M274.654 29.177c.006.052.006.1.006.12v.019a4.49 4.49 0 0 0 3.562 3.905l.012.003.008.002h.006l.039.008q.118.023.235.037l.005.001q.174.023.345.032l.018.001.015.002a4.723 4.723 0 0 0 .873-.044l.204-.04.022-.004.036-.005.603-.39.708 6.428-.49.06a4.485 4.485 0 0 0-3.9 4.94l.052.463c.062.294.152.578.268.843a4.49 4.49 0 0 0 4.535 2.664l.491-.048.671 6.085-.489.062a4.49 4.49 0 0 0-3.55 2.647l-.522-.03a5 5 0 0 1-.83 2.353 5.486 5.486 0 0 1 4.291-5.878l-.46-4.171a5.49 5.49 0 0 1-5.053-3.282 5.4 5.4 0 0 1-.386-1.337l-.001-.002c-.008-.054-.028-.165-.039-.26l-.06-.555h.054a5.49 5.49 0 0 1 4.318-5.402l-.456-4.136-.071.01a6 6 0 0 1-.632.036 3 3 0 0 1-.271-.012 5.5 5.5 0 0 1-.823-.106h-.001a5.49 5.49 0 0 1-4.278-4.413l-4.132.455a5.4 5.4 0 0 1-.284 2.006 5.49 5.49 0 0 1-3.088 3.297l.001.002a7 7 0 0 1-.232.091h-.001c-.249.093-.509.17-.775.222l-.02.004-.04.005c-.146.027-.296.05-.442.066-.05.006-.1.01-.138.012l-.098.008-.024.003a5.495 5.495 0 0 1-5.69-4.242l-.003-.012-.05-.269-4.127.455a5.493 5.493 0 0 1-4.663 5.666l-.001-.002a3 3 0 0 1-.35.043l-.098.008-.014.002h-.013l-.169.007h-.003l-.025.002a3 3 0 0 1-.207.003c-.069 0-.159-.001-.251-.008l-.023-.001c-.094-.005-.183-.017-.249-.025l-.004.002-.172-.024a2 2 0 0 1-.125-.017 5.5 5.5 0 0 1-4.073-3.062 5.3 5.3 0 0 1-.444-1.397l-4.128.455a5.49 5.49 0 0 1-4.884 5.695l-.021.003-.125.01-.081.006-.022.003h-.022l-.102.002-.103.003-.196.003h-.013q-.136 0-.262-.014a5 5 0 0 1-.382-.039l-.011.002-.037-.005h-.002l-.024-.002-.011-.003-.031-.005a5.48 5.48 0 0 1-4.13-3.121 5.3 5.3 0 0 1-.425-1.345l-4.139.456a5.49 5.49 0 0 1-4.605 5.656l.001.001h-.005l-.012.003h-.001a4 4 0 0 1-.389.047q-.056.003-.092.007l-.019.002q-.14.009-.249.01h-.007c-.146.003-.298-.005-.412-.008l-.166-.005-.017-.014q-.077-.006-.145-.013-.04 0-.072-.003h-.009l-.06-.007a4 4 0 0 1-.311-.054h-.004l-.065-.014-.063-.013-.004-.003a5.4 5.4 0 0 1-1.829-.792 5.4 5.4 0 0 1-1.014-.867l-.001-.002a5.5 5.5 0 0 1-1.333-2.73l-4.126.455a5.49 5.49 0 0 1-4.611 5.657l.001.002h-.005l-.011.002h-.002a4 4 0 0 1-.383.046l-.096.008-.023.002q-.22.015-.437.01c-.147.001-.295-.012-.397-.02l-.031-.003q-.018-.003-.033-.006a6 6 0 0 1-.601-.093l-.206-.05a5.3 5.3 0 0 1-1.225-.479 5.48 5.48 0 0 1-2.817-3.877l-4.128.455a5.49 5.49 0 0 1-4.605 5.656h.001-.004l-.012.004-.001-.001a4 4 0 0 1-.26.036l-.021.003c-.05.005-.098.009-.135.011l-.094.008-.027.003a4 4 0 0 1-.245.01l-.038.003-.023.001c-.081.002-.161 0-.229-.001h-.009l-.009-.001a8 8 0 0 1-.287-.02l-.006-.002a7 7 0 0 1-.394-.053l-.011-.002a7 7 0 0 1-.291-.058c-.057-.012-.173-.042-.192-.047h-.007l-.008-.003c-.142-.037-.279-.085-.395-.125l-.005-.002a5.51 5.51 0 0 1-3.578-4.221l-4.127.455a5.49 5.49 0 0 1-2.09 4.548 5.45 5.45 0 0 1-2.243 1.054l-.024.005-.02.002a3 3 0 0 1-.226.042 3.921 3.921 0 0 1-.508.06l-.059.006h-.049l-.013.002a5.493 5.493 0 0 1-5.653-4.525l-4.128.453a5.47 5.47 0 0 1-1.124 3.57h.001a5.4 5.4 0 0 1-2.592 1.863l-.001-.001a4 4 0 0 1-.252.083l-.003.002c-.093.027-.192.05-.258.066h-.001a1.5 1.5 0 0 1-.21.045q-.055.013-.128.025a3 3 0 0 1-.293.045l-.017.002-.15.012-.117.011-.012.001h-.014a5.49 5.49 0 0 1-5.709-4.521l-4.128.455a5.487 5.487 0 0 1-4.827 5.689l-.048.006-.128.01-.086.008-.019.001a5.484 5.484 0 0 1-5.773-4.516l-4.131.455a5.495 5.495 0 0 1-4.327 5.608l-.007.002-.005.001.459 4.162a5.49 5.49 0 0 1 4.783 2.855l.119.232c.267.55.442 1.157.513 1.795a5.47 5.47 0 0 1-2.989 5.497l-.004.001a5.7 5.7 0 0 1-1.23.44l.461 4.19a5.48 5.48 0 0 1 5.438 5.78c-.02.45-.097.893-.231 1.314a5.5 5.5 0 0 1-2.067 2.861l-.2.135a6 6 0 0 1-.341.203l-.004.001a3 3 0 0 1-.18.09l-.001-.001a5.4 5.4 0 0 1-1.224.442l.456 4.136a5.49 5.49 0 0 1 4.783 2.857c.257.471.443.985.55 1.532.015.065.035.157.048.257l.001-.001c.019.103.029.202.038.286.006.047.012.12.014.195h.002c.005.066.009.153.009.244l.001.001a5.46 5.46 0 0 1-3.594 5.305h.001a5 5 0 0 1-.655.193l.456 4.138q.07 0 .142.005c.045 0 .111.002.18.009l.001-.001q.137.004.275.022l-.001.001q.36.044.712.134l.004.001c.042.011.131.034.211.058.085.023.168.051.234.075q.114.034.234.087.104.04.224.097.113.046.247.12.094.047.205.11l.001-.001q.096.051.211.128c.04.025.119.074.198.132q.098.065.204.148.101.076.198.158c.114.097.239.206.359.325l.162.17.009-.001.172.207.034.043.055.067v.004q.183.23.34.48.13.203.243.434c.263.511.446 1.068.531 1.665a3 3 0 0 1 .03.21l.027.244a5.46 5.46 0 0 1-1.82 4.495 3 3 0 0 1-.193.166l-.001-.001q-.09.075-.182.143-.096.074-.21.15l-.001-.001a3 3 0 0 1-.208.135l-.001-.001q-.097.06-.193.112v.001a3 3 0 0 1-.216.114l.001.001c-.059.031-.14.07-.228.106l-.034.015-.001-.001a3 3 0 0 1-.193.079l.002.001a4 4 0 0 1-.493.165l-.001-.001a5 5 0 0 1-.266.07l.456 4.136a5.48 5.48 0 0 1 5.334 4.389l.028.131q.011.06.019.128c.019.103.029.198.039.284q.016.147.022.288c.026.466-.008.924-.094 1.365l.001.001c-.013.101-.039.194-.057.26l.001.001a3 3 0 0 1-.068.245l.001.001a6 6 0 0 1-.153.452l-.003.008a5.4 5.4 0 0 1-.849 1.437 5.48 5.48 0 0 1-3.026 1.887l.455 4.135a5.49 5.49 0 0 1 5.121 3.61l.084.244c.077.247.131.5.171.752.023.118.035.233.045.326l.002.019a5.48 5.48 0 0 1-4.224 5.927l.456 4.137a5.48 5.48 0 0 1 5.371 4.571c.015.075.023.147.028.191l.019.167c.01.096.016.187.02.282l.001.001c.017.246.019.5-.005.753h-.002a5.48 5.48 0 0 1-4.237 4.906l.456 4.138a5.48 5.48 0 0 1 3.536 1.317l.004.002a5.467 5.467 0 0 1 1.875 3.564l.006.051c.006.058.012.136.015.218l.002.001a4 4 0 0 1 .01.277 5.4 5.4 0 0 1-1.021 3.298l-.001-.001a5.47 5.47 0 0 1-3.228 2.149l.456 4.137a5.49 5.49 0 0 1 5.364 4.518l-.001.001c.025.128.04.258.052.365l.006.054c.016.141.029.298.03.46l.001.001a5.48 5.48 0 0 1-4.251 5.478l.456 4.138q.32.001.631.04c.559.067 1.094.22 1.589.442l.21.1a5.45 5.45 0 0 1 2.765 3.257l.082.292.002.007.046.201.035.149q.014.075.022.152c.012.062.019.118.024.157l.014.134q.064.575.009 1.13a5.49 5.49 0 0 1-4.23 4.814l.456 4.138a5.48 5.48 0 0 1 3.63 1.406l.008.007.027.023q.22.201.425.437c.28.322.537.682.74 1.082a5.3 5.3 0 0 1 .585 1.929 5.48 5.48 0 0 1-4.223 5.939l.462 4.195a5.48 5.48 0 0 1 5.323 4.316l.052.284a6 6 0 0 1 .045 1.409 5.48 5.48 0 0 1-4.231 4.813l.466 4.229a5.476 5.476 0 0 1 5.403 4.281l4.177-.46a5.48 5.48 0 0 1 4.387-5.367q.056-.013.131-.028l.163-.025a4 4 0 0 1 .349-.042l.107-.008.025-.003a5.46 5.46 0 0 1 3.72 1.171c.488.385.908.854 1.244 1.385l.148.248c.253.453.441.949.558 1.473l4.183-.461v-.145a5.5 5.5 0 0 1 3.451-4.947l.196-.075c.077-.028.173-.058.21-.07.091-.031.184-.053.246-.068h.002l.103-.025.105-.025.009-.002.01-.002q.27-.055.551-.086l.063-.007a5.4 5.4 0 0 1 1.814.123l.245.064.004.002c.362.108.717.251 1.052.428l.327.19.248.164a5.47 5.47 0 0 1 2.196 3.288l4.181-.461a5.476 5.476 0 0 1 4.077-5.297l.036-.01.022-.002a6 6 0 0 1 .457-.097l.268-.037.172-.019a5 5 0 0 1 .372-.016h.224q.304.006.603.051.077.009.166.024l.003.001.01.001.028.005.045.011.218.044.202.05a5.48 5.48 0 0 1 3.935 4.093l4.177-.459a5.5 5.5 0 0 1 3.234-4.999h.001c.292-.131.603-.242.933-.322l.005-.002.162-.036c.106-.024.225-.048.354-.062l.191-.022.23-.019.018-.002c.097-.008.188-.01.281-.01l-.001.001a5.48 5.48 0 0 1 5.42 4.285l4.186-.461a5.49 5.49 0 0 1 1.855-4.108l.252-.21a6 6 0 0 1 .54-.372l.289-.162q.439-.234.929-.385l.002-.001q.236-.07.482-.121l.129-.028.161-.025c.084-.014.169-.025.235-.032.063-.007.146-.017.24-.019l.115-.006.033-.003q.121-.007.24-.004a5.48 5.48 0 0 1 5.323 4.284l4.181-.461a5.47 5.47 0 0 1 .94-3.066l.002-.002c.249-.361.539-.704.873-1.004a5.5 5.5 0 0 1 1.66-1.026l.01-.004.06-.022.073-.029.011-.003.105-.036.087-.028.014-.004q.19-.06.394-.11l.008-.002.008-.001.098-.02.097-.02q.076-.018.196-.034c.091-.017.183-.027.25-.035l.132-.011.094-.008.019-.002c.085-.006.176-.01.263-.01h.019q.26-.005.498.019a5.485 5.485 0 0 1 4.925 4.267l4.179-.461a5.3 5.3 0 0 1 .401-2.059c.173-.419.394-.82.66-1.186l.003-.004a5.5 5.5 0 0 1 3.79-2.196l.024-.003.228-.018.021-.003a5.48 5.48 0 0 1 5.703 4.273l4.185-.461q0-.603.126-1.178l.001-.002q.136-.609.408-1.167l-.001-.011.069-.134a5.45 5.45 0 0 1 3.42-2.786l.008-.003.008-.002c.045-.011.077-.018.109-.027l.013-.004.015-.004q.22-.053.434-.09c.092-.018.178-.027.244-.034l.116-.013q.188-.021.376-.02a3 3 0 0 1 .243-.001l.001-.001a5.48 5.48 0 0 1 5.236 4.281l4.178-.46q0-.24.019-.471v-.004c.03-.358.094-.711.193-1.051l.11-.336a5.5 5.5 0 0 1 4.127-3.521l.02-.004q.194-.037.409-.06c.048-.006.098-.01.135-.013q.058-.003.094-.007l.019-.002c.088-.006.183-.01.272-.01l.001-.001a5.49 5.49 0 0 1 5.431 4.287l4.18-.46a5.488 5.488 0 0 1 4.224-5.334l.011-.002.396-.076c.089-.017.183-.026.249-.034l.069-.006-.462-4.192a5.487 5.487 0 0 1-5.478-4.884 5.45 5.45 0 0 1 .641-3.223c.21-.395.471-.762.776-1.09l.163-.17.071-.068a5 5 0 0 1 1.099.371 4.5 4.5 0 0 0-.597.543l-.002.003a4.2 4.2 0 0 0-.63.885l-.003.006a4.46 4.46 0 0 0-.524 2.634 4.49 4.49 0 0 0 4.885 3.975l.488-.045.68 6.174-.543.06-.027-.001h-.16l-.064.005h-.054a3 3 0 0 0-.404.042l-.009.002-.009.001q-.163.027-.334.064a4.49 4.49 0 0 0-3.453 4.402v.006c-.001.113.004.233.016.342l.055.497-6.092.671-.063-.484a4.49 4.49 0 0 0-4.511-3.901h-.01c-.06 0-.128.002-.194.006-.046.005-.091.01-.126.012l-.097.008a4 4 0 0 0-.338.052l-.001-.001c-.084.018-.083.016-.114.025l-.016.005-.015.002a4.49 4.49 0 0 0-3.241 2.85l-.001.001c-.13.355-.213.734-.246 1.125l.001.001c-.021.268-.024.531.002.789l.048.494-6.085.671-.065-.486a4.48 4.48 0 0 0-4.348-3.894l-.012-.001a2 2 0 0 0-.198.002h-.017q-.135 0-.266.014l-.116.013a2 2 0 0 0-.158.021l-.012.002a6 6 0 0 0-.383.079h-.001l-.123.032.001.001a4.46 4.46 0 0 0-2.725 2.147l.001.003-.073.136a4.2 4.2 0 0 0-.387 1.062 4.5 4.5 0 0 0-.085 1.368l.043.487-6.088.67-.064-.487a4.48 4.48 0 0 0-4.724-3.888l-.116.01-.096.008-.018.002-.238.034a4.5 4.5 0 0 0-2.863 1.76l.001.001a4.8 4.8 0 0 0-.544.981l-.001.001a4.35 4.35 0 0 0-.309 2.076l.044.489-6.082.67-.064-.485a4.485 4.485 0 0 0-4.101-3.885h-.009a3 3 0 0 0-.392-.015h-.019a3 3 0 0 0-.319.017l-.094.009a2 2 0 0 0-.187.024l-.019.004-.021.002c-.032.003-.064.01-.122.022l-.007.002-.097.02-.091.018a5 5 0 0 0-.318.089l-.001-.001-.09.032-.077.024-.059.022q-.032.014-.073.03a4.5 4.5 0 0 0-2.067 1.658h.002a4.5 4.5 0 0 0-.752 2.908l.043.486-6.081.67-.063-.485a4.48 4.48 0 0 0-4.431-3.897h-.013l-.15.002-.017.002h-.028a1 1 0 0 0-.1.006l-.022.002h-.021a2 2 0 0 0-.156.014 3 3 0 0 0-.195.025l-.019.004-.021.002c-.05.006-.096.017-.177.035l-.008.001q-.215.045-.408.102l.001.001q-.392.12-.756.312l.001.001a4.5 4.5 0 0 0-.679.438l-.205.17a4.49 4.49 0 0 0-1.502 3.761l.043.488-6.085.671-.064-.486a4.484 4.484 0 0 0-4.507-3.9h-.008q-.103 0-.206.008l-.118.009-.094.008-.192.022a2 2 0 0 0-.243.043l-.008.002-.149.034-.001-.001a4.3 4.3 0 0 0-.753.263l-.001-.001a4.49 4.49 0 0 0-2.627 4.489l.043.487-6.077.669-.065-.485a4.47 4.47 0 0 0-3.451-3.781h-.003a3 3 0 0 0-.163-.035l-.034-.006-.016-.005-.004.001-.005-.002-.037-.006-.124-.018-.013-.002a4 4 0 0 0-.652-.04l-.008.001-.012-.001c-.034 0-.062 0-.103.002l-.01.001a4 4 0 0 0-.178.01l-.15.016c-.08.008-.136.015-.191.025l-.01.002a5 5 0 0 0-.421.09l-.036.009-.013.002a4.48 4.48 0 0 0-3.28 4.722l.043.488-6.082.67-.063-.485a4.48 4.48 0 0 0-3.202-3.724l-.201-.053a4.4 4.4 0 0 0-1.261-.118l-.218.017-.055.007q-.225.024-.458.071l-.092.023-.103.024c-.074.018-.122.03-.164.044-.094.032-.126.04-.181.061l-.012.003a4.5 4.5 0 0 0-2.966 4.624l.047.49-6.083.671-.065-.485a4.48 4.48 0 0 0-1.668-2.934 4.46 4.46 0 0 0-3.034-.959l-.125.01-.108.01a2 2 0 0 0-.162.023l-.02.004-.023.003c-.05.005-.1.016-.184.035l-.011.002a4.48 4.48 0 0 0-3.577 4.79l.043.488-6.082.67-.064-.486a4.4 4.4 0 0 0-.497-1.541l-.002-.004a4.48 4.48 0 0 0-4.087-2.351l-.001-.001-.069.005-.059.002q-.055.005-.128.008l-.539.06-.676-6.136.481-.067a4.49 4.49 0 0 0 3.852-4.007v-.002q.044-.452-.007-.924a5 5 0 0 0-.071-.459 4.48 4.48 0 0 0-4.627-3.523l-.018.001-.017-.001h-.057l-.02.001-.497.055-.672-6.091.483-.067a4.482 4.482 0 0 0 3.366-6.505l-.005-.01a4.3 4.3 0 0 0-.603-.879l-.002-.003a5 5 0 0 0-.335-.345l-.013-.009-.011-.01a4.48 4.48 0 0 0-3.38-1.149l-.484.039-.664-6.023.482-.066a4.49 4.49 0 0 0 3.852-4.008 4.5 4.5 0 0 0-.008-.926l-.014-.135c-.007-.057-.01-.082-.015-.103l-.006-.027-.003-.027a1 1 0 0 0-.025-.138l-.007-.024-.049-.214-.066-.238a4.472 4.472 0 0 0-3.727-3.102l-.004-.001a4.3 4.3 0 0 0-.914-.018l-.485.041-.665-6.028.482-.067a4.48 4.48 0 0 0 3.868-4.55l-.001-.013c0-.111-.01-.23-.025-.365l-.006-.054c-.013-.117-.023-.208-.039-.291l-.002-.008a4.49 4.49 0 0 0-4.785-3.679l-.484.041-.666-6.042.497-.055a1 1 0 0 0 .075-.01l.016-.003.018-.003a4.47 4.47 0 0 0 2.908-1.812l.002-.001c.551-.763.86-1.702.834-2.7l-.001-.014q0-.103-.007-.204l-.002-.027c0-.04-.004-.082-.012-.154l-.006-.051a4.45 4.45 0 0 0-.721-1.997l-.002-.002a4.5 4.5 0 0 0-.813-.919 4.5 4.5 0 0 0-3.29-1.061l-.485.04-.664-6.027.482-.067a4.486 4.486 0 0 0 3.858-4.089l.001-.011.014-.287q0-.148-.01-.301l-.019-.243-.018-.167c-.007-.059-.01-.087-.015-.108l-.005-.028a4.48 4.48 0 0 0-4.79-3.72l-.485.04-.664-6.028.482-.066a4.48 4.48 0 0 0 3.846-4.917l-.002-.017c-.012-.105-.02-.184-.035-.26l-.002-.01-.001-.01a4 4 0 0 0-.204-.801l-.002-.007a4.49 4.49 0 0 0-4.587-2.938l-.485.039-.664-6.024.482-.067a4.48 4.48 0 0 0 2.866-1.615l.003-.006c.288-.347.524-.747.694-1.174q.07-.183.126-.373l.002-.005q.028-.09.047-.178l.003-.01.002-.009c.021-.076.031-.117.036-.153l.002-.016.004-.015q.111-.555.08-1.146l-.001-.007a4 4 0 0 0-.017-.227c-.01-.092-.016-.152-.028-.214l-.004-.018-.002-.018c-.005-.05-.016-.1-.035-.185l-.002-.011a4.474 4.474 0 0 0-4.759-3.58l-.486.041-.666-6.042.497-.055c.092-.01.171-.027.298-.051q.157-.034.297-.076l.013-.003q.202-.054.371-.123l.022-.009a2 2 0 0 0 .171-.071l.018-.007.017-.007c.037-.014.082-.035.146-.069l.023-.011c.046-.021.092-.047.16-.086l.007-.005.009-.004a2 2 0 0 0 .154-.09l.011-.007.013-.006q.075-.043.139-.091l.011-.008.013-.007c.047-.03.094-.066.152-.109l.006-.004q.074-.054.148-.116l.006-.005.007-.006c.053-.042.09-.072.123-.105l.011-.01.011-.01a4.46 4.46 0 0 0 1.487-3.665l-.024-.218c-.008-.07-.012-.111-.019-.146l-.004-.015-.003-.016a4.2 4.2 0 0 0-.429-1.349l-.005-.012a3 3 0 0 0-.195-.345l-.002-.004a5 5 0 0 0-.338-.469l-.017-.018-.012-.017a4 4 0 0 0-.258-.281l-.006-.006a5 5 0 0 0-.453-.395l-.006-.005-.005-.004a2 2 0 0 0-.147-.106l-.017-.012-.017-.013c-.03-.024-.061-.043-.138-.091l-.012-.007-.012-.008a1 1 0 0 0-.127-.077l-.009-.004-.008-.005c-.059-.035-.12-.065-.195-.103l-.013-.007-.012-.008a1 1 0 0 0-.129-.061l-.02-.008-.018-.01a2 2 0 0 0-.15-.064l-.021-.008-.02-.009a1 1 0 0 0-.141-.054l-.008-.002-.01-.003a3 3 0 0 0-.181-.06l-.012-.004-.013-.003c-.052-.017-.089-.024-.186-.05l-.001-.001a4.4 4.4 0 0 0-.577-.109l-.002.001a2 2 0 0 0-.193-.016l-.021-.001-.02-.002-.172-.006c-.066-.005-.129-.002-.251.001h-.01c-.063 0-.127.005-.215.011l-.482.037-.664-6.026.483-.066a4.4 4.4 0 0 0 .926-.229h.001a4.5 4.5 0 0 0 1.449-.869l.175-.164a4.46 4.46 0 0 0 1.314-3.303v-.01l-.001-.01c0-.052-.002-.108-.007-.186l-.002-.015v-.017c0-.026-.004-.06-.011-.124-.01-.089-.016-.152-.027-.215l-.004-.017-.002-.019c-.005-.047-.016-.096-.035-.182l-.003-.013a4.4 4.4 0 0 0-.449-1.258l-.166-.277a4.49 4.49 0 0 0-4.145-2.042l-.485.04-.664-6.029.482-.065a4.4 4.4 0 0 0 1.405-.44l.009-.004.009-.005q.069-.032.118-.058a4.487 4.487 0 0 0 2.137-2.616l.002-.006c.107-.335.17-.692.186-1.059v-.008l.001-.008a4.483 4.483 0 0 0-4.845-4.707l-.486.04-.67-6.077.483-.068a4.47 4.47 0 0 0 3.844-4.927 4.5 4.5 0 0 0-.418-1.467l-.097-.19a4.49 4.49 0 0 0-4.311-2.319l-.484.041-.67-6.077.497-.055c.076-.008.127-.015.183-.025l.222-.041a4.497 4.497 0 0 0 3.518-4.883l-.004-.018c-.004-.019-.015-.065-.02-.118l-.055-.497 6.102-.672.071.634a4.48 4.48 0 0 0 4.76 3.985l-.001.001.109-.01.085-.005.04-.005a4.49 4.49 0 0 0 3.924-4.948l-.004-.019c-.004-.02-.014-.066-.02-.118l-.054-.496 6.107-.674.055.497c.005.052.006.1.006.12v.019q.02.166.05.33l.075.324v.002a4.49 4.49 0 0 0 4.579 3.336l.13-.012c.047-.003.083-.006.117-.01l.017-.002c.087-.009.137-.015.19-.027l.025-.005.026-.003a1 1 0 0 0 .105-.02l.028-.006.028-.004q.003.001.021-.004c.015-.003.032-.009.06-.017l.009-.002c.098-.025.153-.038.228-.059l.195-.062.012-.005.012-.004a4.4 4.4 0 0 0 2.112-1.518l.001-.002a4.47 4.47 0 0 0 .897-3.217c0-.004 0-.011-.004-.034l-.016-.101-.055-.497 6.106-.673.054.497c.006.052.006.1.006.119v.019a4.49 4.49 0 0 0 4.494 3.999l.159-.004h-.001l.071-.003h.001c.048-.005.097-.009.134-.011l.095-.008c.082-.009.136-.014.184-.025l.027-.007.028-.003c.051-.006.1-.016.184-.035l.028-.007.026-.003a4 4 0 0 0 .633-.185c.42-.16.818-.39 1.173-.67a4.48 4.48 0 0 0 1.686-4.015l-.004-.01-.008-.037-.01-.058-.092-.524 6.134-.676.07.634a4.51 4.51 0 0 0 3.292 3.849l.166.04.006.002q.117.025.248.048c.114.019.223.035.335.046q.106.01.226.016.093.002.167.002l.031-.003h.026c.074 0 .141-.003.214-.009q.07-.007.125-.01c.04-.002.069-.005.097-.008l.021-.003c.088-.01.148-.016.198-.026l.008-.002h.008a4.49 4.49 0 0 0 3.756-4.925l-.004-.019c-.004-.019-.015-.065-.021-.117l-.054-.497 6.108-.674.055.497c.006.052.006.1.007.12 0 .024-.001.023-.001.019a4.47 4.47 0 0 0 2.118 3.333l.239.137a4.3 4.3 0 0 0 .994.387l.331.071a5 5 0 0 0 .346.046l-.001.001.031.003.01.002.29.016h.018q.171.005.353-.007c.046-.005.09-.007.124-.01l.095-.009q.116-.01.189-.024l.008-.002h.009a4.49 4.49 0 0 0 3.762-4.927c0 .006 0 .007-.004-.01l-.008-.037-.012-.057-.092-.525 6.138-.676.055.497c.005.043.007.082.008.102l.002.035c.107.977.523 1.85 1.133 2.528q.277.303.603.549l.224.158.003.004c.454.308.968.53 1.516.651h.006q.018.004.035.01.118.025.239.043l.011-.002.067.01.016.003h.034l.035.004q.132.017.241.025.013-.001.028-.001.018.001.039.005c.116.004.211.009.309.008l.001-.001c.077-.003.139-.004.207-.01l.114-.009.095-.007c.081-.009.141-.015.192-.025l.009-.002.008-.001a4.49 4.49 0 0 0 3.755-4.925l-.07-.635 6.102-.672.07.634q.063.559.251 1.06l.138.328.002.007q.182.398.433.746l.174.225.001.002a4.48 4.48 0 0 0 2.737 1.574l.012-.001.069.011c.11.02.231.03.371.038l.019.001c.062.006.117.009.175.01l.178-.003.102-.002.091-.002.175-.014.02-.002a4.49 4.49 0 0 0 3.993-4.724l-.017-.217-.004-.015c-.004-.018-.018-.072-.024-.134l-.056-.497 6.111-.674.055.497c.007.062.004.118.004.137-.001.024 0 .017-.001.005l.031.213.002.011.001.012q.078.48.249.911l.123.282.002.003a4.51 4.51 0 0 0 3.062 2.454l.269.053.01.001.001.001.041.004.027.003.028.005c.035.007.05.005.154.018l.193.02h.012l.011.002.192.005.014-.001c.045.001.098.001.15-.002l.027-.001c.046 0 .091-.004.147-.007l.115-.009a3 3 0 0 0 .249-.03l.024-.003a4.49 4.49 0 0 0 3.79-4.928l-.004-.027-.006-.032-.01-.047-.091-.525 6.138-.675.055.497c.004.043.006.082.007.102l.002.036q.03.258.084.522l.05.198a4.496 4.496 0 0 0 4.597 3.272q.067-.007.12-.01l.1-.009c.129-.014.264-.034.391-.059l.021-.005.019-.001q.31-.063.606-.175l.003-.001a4.485 4.485 0 0 0 2.719-2.776l.001-.004a4.4 4.4 0 0 0 .21-1.93l-.07-.634 6.103-.672z"
  />
</svg>
