<svg xmlns="http://www.w3.org/2000/svg" width="548" height="711" fill="none" viewBox="0 0 548 711">
  <path
    fill="var(--background)"
    stroke="var(--outline, currentColor)"
    stroke-width="2"
    d="M529.95 55.991c0 .3.02.6.03.88.07 1.55.34 3.07.78 4.49 2.27 7.24 8.99 12.52 16.94 12.63v18.56c-9.82.16-17.75 8.16-17.75 18.03 0 3.2.85 6.22 2.33 8.84.73 1.3 1.61 2.5 2.65 3.56 2.77 2.93 6.55 4.93 10.77 5.46.66.09 1.32.14 2 .15v18.38c-.58 0-1.15.03-1.71.09-.04.02-.08.02-.12.03-.58.06-1.14.15-1.7.27-.77.17-1.53.38-2.26.64-.21.09-.42.16-.62.24-.06.03-.12.05-.18.07-.19.09-.38.16-.57.25-.19.09-.38.17-.56.27-.16.08-.31.15-.46.23-.44.24-.87.49-1.29.77-.21.13-.41.26-.6.39-.22.15-.44.31-.65.49-.22.15-.42.32-.63.51-.2.15-.4.33-.6.52-.2.18-.39.37-.58.56-.38.38-.74.78-1.08 1.19-2.5 3-4.03 6.82-4.13 11-.01.23-.01.44-.01.67 0 .12 0 .24.01.35 0 .21 0 .41.02.61.01.22.02.44.05.66.01.21.03.42.06.63.03.2.05.4.09.6.04.27.1.54.15.8.05.26.11.53.18.79.05.19.1.38.15.56.07.22.13.43.2.64.06.19.13.39.2.58.07.2.15.39.23.58.1.26.21.51.33.76.08.17.16.34.25.51 0 0 .01.02.01.03.14.28.29.55.44.82.02.03.04.06.05.09.14.23.28.45.42.67.19.29.38.58.59.86.24.33.49.66.75.97.17.21.35.41.53.6.02.03.05.05.07.08.12.13.24.26.36.38.17.17.34.34.51.49.02.03.05.05.07.07.02.02.03.04.05.05.05.05.11.1.16.15.28.25.57.5.86.73.27.22.54.43.83.62.18.13.36.25.54.37.21.14.42.28.64.41a18.13 18.13 0 0 0 8.95 2.54v18.37c-.59.01-1.17.06-1.74.12-.29.02-.58.07-.86.12-.23.02-.46.07-.68.11-.33.08-.66.15-.99.23-.27.07-.54.14-.81.24-.27.07-.53.17-.79.26-.26.1-.52.19-.78.3-.26.11-.51.22-.76.34-.25.11-.5.24-.74.37-.25.13-.49.26-.73.41-.2.12-.38.22-.57.35-.31.21-.61.41-.91.64-.19.13-.37.26-.55.41-.43.34-.84.69-1.24 1.09-3.45 3.26-5.6 7.89-5.6 13.03v.18c0 1.38.15 2.71.46 3.99.06.29.13.56.21.84.07.28.16.55.25.82.05.19.11.36.19.54 0 .02.02.05.03.07 0 .01.01.03.02.04.02.06.04.13.07.19.1.31.24.61.37.91.33.75.72 1.48 1.17 2.18.21.35.45.69.69 1.03.15.21.32.44.5.64.16.23.33.43.53.63.16.22.35.42.55.61.18.19.37.38.56.56l.63.57c.2.18.41.36.63.51.16.14.33.27.51.39.08.08.17.13.25.19.19.14.38.27.57.39.18.13.37.23.56.34.2.13.41.25.62.36.22.13.45.25.68.35.19.1.39.2.59.28 1.17.53 2.4.94 3.68 1.2.52.11 1.05.2 1.59.26.04 0 .07.01.1.01.57.06 1.15.1 1.74.11v18.38c-6.36.1-11.94 3.49-15.07 8.55a17.967 17.967 0 0 0-2.66 8.73c-.01.25-.02.48-.02.73v.18c0 .21 0 .4.02.59 0 .39.03.79.08 1.19a17 17 0 0 0 .4 2.44c.36 1.5.92 2.93 1.62 4.26 3 5.61 8.86 9.43 15.63 9.54v18.36a18.08 18.08 0 0 0-17.19 13.54 19.2 19.2 0 0 0-.53 3.58v.1c-.02.27-.03.53-.03.81v.18c0 .26.01.52.02.78.22 5.04 2.5 9.51 6.01 12.66h.01c3.12 2.79 7.21 4.51 11.71 4.57v18.37c-8.78.13-16.06 6.55-17.48 14.97-.14.76-.22 1.52-.25 2.3-.01.25-.02.49-.02.74v.18c0 .26.01.51.02.77 0 .18.01.36.03.54.02.31.05.62.09.92.04.34.09.66.15.99.11.63.26 1.25.44 1.85.19.7.44 1.38.73 2.03.18.44.39.87.61 1.28.11.21.22.42.34.62.46.82 1 1.6 1.6 2.33l.45.54c.16.18.31.35.48.52.16.17.32.34.49.5.75.74 1.56 1.4 2.43 1.99.2.15.42.28.63.42.13.08.26.16.39.23.17.1.33.2.51.29.41.23.84.44 1.27.63.21.09.42.18.64.27.01.01.02.01.03.01.21.09.44.17.66.25.22.08.45.16.68.23.23.07.46.14.7.2.23.06.46.12.7.17.24.05.48.1.72.14.22.04.43.08.65.11.05.01.09.01.13.02.21.03.41.05.62.07.05.01.1.01.15.02.47.04.94.06 1.41.07v18.37c-.23 0-.46.01-.7.05a17.69 17.69 0 0 0-10.14 3.81 18.062 18.062 0 0 0-3.96 4.31 17.756 17.756 0 0 0-2.92 8.95c-.02.32-.03.65-.03 1v.08c0 .3.01.61.03.91.02.54.08 1.08.16 1.62.05.33.1.66.17.98.03.17.06.34.1.5.17.75.38 1.48.65 2.19.05.15.11.31.17.46.12.3.25.59.38.88.14.31.3.62.46.92.18.34.37.68.58 1 .02.05.05.09.07.12a12.433 12.433 0 0 0 .67.99c.23.32.47.64.73.94.18.22.37.43.56.64.6.66 1.26 1.28 1.96 1.86.16.12.33.25.5.38.15.12.31.23.47.34.26.19.53.36.8.53.58.37 1.2.71 1.83 1 .22.11.44.21.67.31.03.02.07.03.11.04a16.993 16.993 0 0 0 2.61.87c.14.04.29.07.43.1.2.05.4.09.61.12.24.05.48.09.73.12.17.03.35.06.52.07.59.07 1.18.11 1.78.12v18.38c-4.58.07-8.75 1.85-11.89 4.75-1.12 1.01-2.1 2.17-2.93 3.44-.82 1.23-1.47 2.58-1.95 4-.51 1.46-.82 2.98-.93 4.58-.01 0-.01.03 0 .04-.02.22-.03.43-.04.65 0 .25-.01.5-.01.75 0 .23.01.48.02.72.08 2.1.54 4.11 1.28 5.98.16.4.33.79.52 1.17.01.03.03.06.04.09.14.27.28.53.42.79.08.14.16.28.24.41.19.33.4.65.61.96.21.31.43.61.65.9.32.41.66.8 1.01 1.18.21.23.44.46.67.69.62.6 1.29 1.16 2 1.67l.66.45c1.1.75 2.28 1.36 3.51 1.82h.04c1.89.74 3.95 1.13 6.08 1.17v18.38c-3.24.05-6.27.95-8.88 2.5a18.007 18.007 0 0 0-8.75 13.44c-.05.45-.09.93-.1 1.4-.01.16-.01.32-.02.49v.36c0 .14 0 .31.01.45 0 .19.01.39.03.58.01.19.02.38.05.56.01.23.03.46.07.69.08.69.2 1.37.37 2.03.1.44.23.87.38 1.3.06.22.14.43.22.64.69 1.89 1.7 3.62 2.95 5.14.16.22.34.42.53.62.17.2.36.4.55.6.38.39.77.76 1.18 1.09.21.18.41.36.63.51.18.16.36.29.55.42.06.05.12.09.19.13.19.14.39.27.59.39.21.16.42.29.64.41.05.02.1.06.15.08.2.12.41.24.62.33.3.16.6.31.91.46.04.02.09.04.13.05.15.07.29.13.44.18.25.11.5.22.76.3.46.17.94.31 1.42.44.23.06.46.12.69.17.64.15 1.3.26 1.97.33.57.06 1.14.1 1.72.11v18.37c-.27 0-.57.02-.84.05-.96.06-1.89.19-2.8.39-.72.16-1.42.36-2.1.61-.63.21-1.23.47-1.82.76h-.01c-6.01 2.93-10.17 9.07-10.17 16.21 0 2.36.47 4.62 1.3 6.71 1.38 3.42 3.76 6.32 6.82 8.32 1.1.73 2.28 1.34 3.51 1.82h.04c.77.29 1.57.54 2.39.72 1.19.27 2.43.42 3.69.43v18.56c-.85.02-1.69.09-2.51.22-3.44.53-6.56 2.03-9.06 4.22-1.12.98-2.1 2.07-2.93 3.29-2.04 2.9-3.25 6.46-3.25 10.28 0 9.78 7.78 17.71 17.48 18.02.02.3.04.6.05.89l.21 3.25c0 .03 0 .05.01.08v14.66h-.07a6.2 6.2 0 0 0-.62-.06c-.15-.02-.31-.03-.46-.04-.3-.01-.61-.02-.92-.02h-.82c-.46.02-.92.06-1.36.12-6.73.82-12.32 5.33-14.65 11.47-.55 1.44-.92 2.98-1.08 4.59-.05.46-.09.95-.09 1.44h-18.57c-.19-9.21-7.28-16.71-16.3-17.56-.28-.03-.58-.05-.88-.06h-.83c-.47 0-.92 0-1.37.04-.2.03-.42.03-.61.06-6.25.68-11.53 4.55-14.19 9.96-.68 1.38-1.18 2.85-1.49 4.4-.19 1.04-.32 2.08-.34 3.17h-18.57c-.2-8.99-6.95-16.36-15.66-17.48-.28-.03-.56-.07-.85-.08-.39-.05-.77-.06-1.16-.06h-1.17c-.51.03-1.01.08-1.52.14-.17.04-.34.05-.51.08a17.9 17.9 0 0 0-12.17 7.86v.03c-.86 1.27-1.53 2.63-2.03 4.09-.57 1.7-.9 3.52-.94 5.42h-18.59c-.18-9.51-7.74-17.19-17.18-17.62H381.81c-5.2.02-9.88 2.26-13.17 5.81-1 1.09-1.87 2.33-2.59 3.64-1.34 2.44-2.1 5.22-2.16 8.18h-18.57c-.18-8.65-6.44-15.79-14.67-17.31-.53-.12-1.07-.19-1.63-.25-.28-.03-.58-.05-.88-.06h-1.64c-.23.01-.43.02-.64.05-.24 0-.48.03-.72.07-.45.04-.89.13-1.33.21-.24.05-.48.11-.71.16-.17.03-.33.08-.5.13-2.11.57-4.07 1.51-5.79 2.75a17.957 17.957 0 0 0-7.5 14.25h-18.57c-.19-9.11-7.11-16.54-15.98-17.51-.24-.04-.47-.05-.7-.08h-.04c-.19-.02-.38-.03-.56-.03h-1.58a17.445 17.445 0 0 0-2.52.3c-1.1.2-2.15.51-3.17.91-1.36.54-2.62 1.22-3.8 2.04-4.52 3.19-7.53 8.43-7.66 14.37h-18.58c-.19-9.21-7.27-16.72-16.28-17.56-.29-.03-.58-.05-.88-.06H217.46c-.38 0-.75.02-1.11.07-.21.02-.39.05-.58.06-1.09.14-2.15.39-3.16.73-7.12 2.3-12.29 8.9-12.47 16.76h-18.56c-.16-7.73-5.18-14.24-12.12-16.62-.22-.09-.44-.16-.67-.23-.1-.03-.21-.07-.31-.09-.18-.05-.36-.11-.54-.15-.86-.22-1.73-.38-2.63-.46-.17-.01-.31-.02-.48-.04-.25-.02-.52-.03-.79-.03h-1.39c-.57.03-1.14.09-1.71.18h-.05c-8.56 1.26-15.13 8.56-15.32 17.43H127a17.942 17.942 0 0 0-6.85-13.76c-1.29-1.03-2.75-1.87-4.29-2.52-2.05-.84-4.28-1.33-6.65-1.34h-.22c-.62 0-1.24.02-1.85.08-.26.04-.51.06-.77.11-.25.02-.51.07-.76.12-.25.04-.5.09-.75.15-7.17 1.69-12.69 7.67-13.71 15.08-.09.68-.15 1.38-.16 2.09H72.42c-.06-2.68-.69-5.22-1.8-7.48-.82-1.68-1.87-3.21-3.14-4.54a18.022 18.022 0 0 0-12.15-5.6H53.67c-.3.01-.59.03-.88.06-9.08.81-16.2 8.32-16.39 17.56H17.83a17.7 17.7 0 0 0-1.31-6.4c-.82-2.02-1.99-3.86-3.45-5.44a17.923 17.923 0 0 0-11.84-5.75l-.48-.03H0v-18.75c8.46-.24 15.48-6.3 17.14-14.31.25-1.19.38-2.43.38-3.71 0-.61-.02-1.25-.09-1.85-.91-8.75-8.06-15.62-16.93-16.11-.17-.01-.33-.04-.5-.04v-18.58c9.73-.26 17.52-8.2 17.52-17.99 0-2.31-.41-4.5-1.22-6.52-.51-1.36-1.21-2.63-2.03-3.8a17 17 0 0 0-1.23-1.57c-.02-.01-.04-.04-.05-.05-3.19-3.6-7.83-5.91-12.99-6.07v-18.39c8.46-.24 15.48-6.29 17.14-14.31.25-1.19.38-2.43.38-3.69 0-.17 0-.34-.01-.5 0-.19-.01-.37-.02-.56 0-.28-.02-.55-.06-.81-.03-.27-.06-.55-.1-.82-.72-5.28-3.73-9.81-8.01-12.6-1.71-1.1-3.62-1.94-5.67-2.41-1.17-.29-2.4-.44-3.65-.49v-18.4c9.22-.26 16.7-7.4 17.45-16.47.05-.5.07-1 .07-1.51v-.19c0-.42 0-.83-.03-1.22-.61-9.21-8.17-16.52-17.49-16.78v-18.41c.17 0 .33-.01.5-.02 4.92-.26 9.32-2.5 12.42-5.94a17.75 17.75 0 0 0 4.52-10.43 13 13 0 0 0 .06-.88c.02-.24.02-.48.02-.73v-.18c0-2.99-.72-5.81-2.01-8.28a18.29 18.29 0 0 0-2.84-4.03A18.08 18.08 0 0 0 0 419.901v-18.4c8.58-.24 15.67-6.44 17.21-14.63.16-.79.25-1.6.28-2.42.02-.32.03-.63.03-.95 0-.2 0-.41-.01-.61 0-.2-.01-.39-.02-.59-.52-9.31-8.1-16.72-17.49-16.98v-18.39c9.71-.27 17.49-8.18 17.52-17.94v-.06c0-.37-.01-.74-.03-1.12-.05-1.13-.2-2.25-.47-3.31-1.87-7.75-8.75-13.54-17.02-13.76v-18.4c4.71-.13 9.01-2.08 12.15-5.19 1.31-1.27 2.43-2.76 3.3-4.39.24-.46.47-.95.67-1.44.11-.25.21-.5.29-.75.1-.25.19-.5.26-.76.08-.26.16-.51.22-.78.08-.26.14-.52.19-.79.18-.74.29-1.5.35-2.28.03-.22.05-.45.06-.68.02-.31.03-.62.03-.94 0-.32-.01-.6-.02-.9-.01-.31-.03-.6-.06-.88-.79-9.05-8.25-16.16-17.44-16.4v-18.4c.43-.01.85-.04 1.27-.07.42-.05.84-.11 1.25-.18.55-.08 1.08-.2 1.61-.35.27-.05.53-.14.79-.22.26-.07.52-.17.77-.26.26-.1.51-.19.76-.3.25-.11.5-.22.74-.33.25-.11.49-.24.72-.36.24-.13.47-.25.7-.39.23-.14.46-.28.68-.42.23-.14.45-.29.66-.45.2-.14.41-.29.6-.45.01 0 .02-.01.03-.02.18-.14.35-.28.51-.42.03-.02.06-.04.08-.07.18-.15.36-.3.53-.47.18-.16.37-.34.54-.52.18-.17.35-.35.52-.54.17-.19.34-.37.49-.57 2.31-2.7 3.82-6.11 4.17-9.84.02-.19.04-.37.05-.56.02-.19.03-.38.04-.57.01-.14.01-.28.01-.44v-.38c0-.24-.01-.47-.02-.7-.07-1.98-.46-3.86-1.13-5.62-.18-.51-.4-1.01-.64-1.51-.35-.73-.75-1.43-1.19-2.1-.01-.01-.02-.01-.02-.02-.29-.44-.61-.88-.95-1.31-.34-.42-.7-.82-1.07-1.2-.18-.21-.38-.4-.57-.57-.19-.19-.39-.37-.6-.55-.2-.19-.41-.36-.62-.51-.2-.18-.4-.33-.61-.48-.25-.18-.5-.35-.75-.51a6.08 6.08 0 0 0-.64-.39 5.66 5.66 0 0 0-.71-.41c-.23-.14-.47-.26-.72-.37-.25-.12-.5-.24-.75-.33-.24-.12-.49-.2-.74-.3-.74-.27-1.5-.51-2.28-.69-.27-.06-.55-.12-.83-.15-.23-.05-.46-.09-.7-.11-.35-.06-.71-.1-1.07-.12-.3-.04-.6-.05-.91-.06v-18.39c1.31-.04 2.58-.22 3.81-.52a17.8 17.8 0 0 0 6.17-2.83c.53-.37 1.03-.78 1.51-1.21.24-.21.48-.43.7-.66.17-.15.32-.31.47-.48.02-.02.03-.04.05-.06.02-.01.03-.03.04-.04.1-.1.19-.2.28-.31.12-.12.23-.25.33-.38.15-.17.29-.35.42-.53.25-.31.48-.63.7-.97.12-.18.24-.36.35-.55.01-.02.02-.03.03-.05.12-.19.24-.38.35-.59.01-.02.02-.03.03-.05.11-.19.21-.38.31-.58.11-.21.21-.42.31-.64 0-.02 0-.03.02-.05.06-.12.12-.25.17-.38.06-.13.11-.26.16-.39.11-.26.21-.53.3-.8.03-.07.05-.14.07-.21.08-.21.15-.43.2-.65.03-.08.05-.17.07-.25 0-.02.01-.03.01-.05.06-.18.11-.36.15-.54.04-.16.08-.32.11-.49.03-.14.06-.29.09-.44.03-.19.06-.39.09-.59.03-.16.05-.32.06-.48 0-.04.02-.07.02-.11.03-.22.05-.44.07-.67.03-.26.04-.54.05-.81.02-.2.02-.42.02-.63 0-.31-.01-.62-.02-.92-.01-.28-.03-.58-.06-.87-.15-1.84-.58-3.59-1.25-5.24-2.64-6.41-8.87-10.96-16.19-11.16v-18.39c2.05-.05 4-.46 5.81-1.15.19-.06.38-.13.56-.21.41-.17.81-.35 1.2-.54 3.78-1.89 6.8-5.07 8.48-8.96.59-1.31 1-2.73 1.22-4.19.18-.95.25-1.94.25-2.95 0-9.8-7.79-17.74-17.52-18.02v-18.58c2.04-.05 3.96-.45 5.79-1.12a17.967 17.967 0 0 0 11.73-16.87c0-2.41-.47-4.74-1.33-6.83-2.64-6.42-8.87-10.97-16.19-11.17v-18.52c.27 0 .52 0 .8-.03.28-.02.58-.03.87-.07 9.09-.93 16.19-8.6 16.19-17.94 0-.16-.03-.33-.03-.5H36.4c0 .17-.01.34-.01.5 0 9.7 7.65 17.62 17.26 18.01.25.02.52.03.77.03h.16c9.88-.1 17.85-8.14 17.85-18.04 0-.16-.03-.33-.03-.5h18.59c0 .17-.03.34-.03.5 0 .92.08 1.8.21 2.67 1.23 8.38 8.25 14.88 16.85 15.34.31.02.65.03.97.03h.07c.3 0 .58 0 .88-.04l.58-.03.6-.06c.3-.05.59-.09.9-.13.3-.05.6-.11.88-.18 1.74-.38 3.38-1.01 4.88-1.85 1.58-.89 3.01-2 4.24-3.3 3.09-3.22 5-7.61 5-12.45 0-.16-.02-.33-.02-.5h18.58c0 .17-.03.34-.03.5 0 9.34 7.09 17.01 16.19 17.94.22.03.44.04.66.05.12.01.24.02.35.02.27.02.55.03.83.03.28 0 .57 0 .87-.04.3 0 .59-.02.88-.07.03.01.06.01.09 0 .93-.08 1.83-.25 2.71-.48 1.77-.46 3.45-1.2 4.98-2.16 5.1-3.18 8.5-8.84 8.5-15.29 0-.16-.03-.33-.04-.5h18.57c0 .17-.01.34-.01.5 0 7.16 4.17 13.34 10.21 16.26.41.19.82.4 1.25.55.22.09.43.17.66.24.31.12.63.21.95.3.43.13.86.24 1.3.32.31.06.63.12.95.18.25.02.5.06.75.08.04 0 .07.01.11.01.3.04.59.05.9.07h.03c.27.02.55.03.83.03h.08c.3 0 .6 0 .87-.03 9.55-.45 17.16-8.34 17.16-18.01 0-.16-.03-.33-.03-.5h18.59c-.01.17-.03.34-.03.5 0 6.18 3.11 11.63 7.86 14.88 1.17.82 2.45 1.48 3.82 1.99.86.33 1.74.58 2.65.78.03 0 .07.02.11.02.41.08.84.17 1.27.21.48.06.98.11 1.48.13.28.02.56.03.84.03.28 0 .56 0 .84-.03 9.56-.44 17.19-8.34 17.19-18.01 0-.16-.03-.33-.04-.5h18.58c0 .17-.02.34-.02.5 0 3.95 1.28 7.61 3.42 10.59a18.16 18.16 0 0 0 2.99 3.2c1.7 1.44 3.69 2.57 5.85 3.31.02 0 .03 0 .06.01.38.13.78.25 1.18.36h.04c.12.02.25.06.37.07.32.08.66.15 1 .21.03.02.06.02.09.03.46.06.92.13 1.39.18.27 0 .53.03.82.04.27.02.54.03.82.03.28 0 .57 0 .85-.03 9.54-.44 17.16-8.34 17.16-18.01v-.5h18.57c0 .17-.01.34-.01.5 0 2 .32 3.93.94 5.73a17.45 17.45 0 0 0 2.01 4.17c2.38 3.64 6.05 6.35 10.35 7.52.04 0 .08.01.12.02h.03c.49.15 1 .24 1.52.32.26.05.51.1.78.14.23.02.45.03.69.05.25.03.49.04.74.06.25.02.5.03.75.03h.08c9.97 0 18.04-8.09 18.04-18.04 0-.16-.04-.33-.04-.5h18.6c-.01.17-.04.34-.04.5 0 .32.01.65.03.97.09 1.71.41 3.38.96 4.94 1.93 5.56 6.5 9.88 12.2 11.46.11.04.21.05.31.08.21.06.44.11.67.16.28.06.55.13.84.18.27.05.55.08.83.12.23.02.48.04.72.07l.63.03c.29.02.56.03.84.03.23 0 .48 0 .73-.03 9.61-.38 17.3-8.29 17.3-18.01 0-.16-.02-.33-.03-.5h18.58c0 .17-.02.34-.02.5 0 .73.04 1.42.11 2.12 1.03 8.68 8.2 15.48 17.05 15.89.28.02.57.03.86.03.52 0 1.06-.03 1.58-.07.03 0 .07-.02.1-.02.88-.08 1.75-.22 2.59-.44.26-.06.54-.14.8-.22 5.01-1.44 9.1-5.03 11.26-9.67 1.09-2.31 1.69-4.89 1.69-7.62v-.5h18.57c0 .17-.03.34-.03.5 0 8.04 5.25 14.82 12.5 17.17.09.02.17.06.25.07.31.11.63.18.95.26.45.11.9.22 1.37.29.28.06.58.09.88.13.68.07 1.38.12 2.08.12.25 0 .5 0 .76-.03.05 0 .09-.01.14-.01.2-.01.41-.03.61-.05h.02s.1 0 .14-.01c.04 0 .08-.01.14-.01.04 0 .07-.01.13-.01.05 0 .09-.01.13-.02v18.65c-.06 0-.12 0-.18.01-9.74.23-17.57 8.2-17.57 18l-.03-.02Z"
  />
  <path
    fill="var(--foreground, currentColor)"
    d="M465.638 107.122H78.356a1.867 1.867 0 1 1 0-3.736h387.282a1.868 1.868 0 1 1 0 3.736ZM465.638 97.217H78.356a1.867 1.867 0 1 1 0-3.735h387.282a1.867 1.867 0 1 1 0 3.735ZM465.638 116.941H78.356a1.867 1.867 0 1 1 0-3.735h387.282a1.867 1.867 0 1 1 0 3.735ZM465.632 126.753h-42.135a1.867 1.867 0 0 1-1.867-1.868c0-1.032.835-1.868 1.867-1.868h42.135a1.867 1.867 0 1 1 0 3.736ZM135.904 126.753H78.361a1.867 1.867 0 0 1-1.868-1.868c0-1.032.835-1.868 1.868-1.868h57.543a1.867 1.867 0 1 1 0 3.736ZM350.731 126.753h-96.338a1.867 1.867 0 1 1 0-3.736h96.338a1.867 1.867 0 0 1 0 3.736ZM465.633 136.576h-26.11a1.868 1.868 0 1 1 0-3.736h26.11a1.868 1.868 0 1 1 0 3.736ZM119.226 136.576H78.361a1.867 1.867 0 0 1-1.868-1.868c0-1.032.835-1.868 1.868-1.868h40.865a1.868 1.868 0 1 1 0 3.736ZM465.633 146.4h-17.238a1.866 1.866 0 0 1-1.868-1.867c0-1.033.835-1.868 1.868-1.868h17.238c1.032 0 1.867.835 1.867 1.868a1.866 1.866 0 0 1-1.867 1.867ZM108.244 146.4H78.361a1.866 1.866 0 0 1-1.868-1.867c0-1.033.835-1.868 1.868-1.868h29.883a1.867 1.867 0 1 1 0 3.735ZM465.633 156.226h-12.42a1.868 1.868 0 0 1 0-3.736h12.42a1.867 1.867 0 1 1 0 3.736ZM100.549 156.226H78.361a1.867 1.867 0 0 1-1.868-1.868c0-1.033.835-1.868 1.868-1.868h22.188c1.032 0 1.867.835 1.867 1.868a1.867 1.867 0 0 1-1.867 1.868ZM465.633 166.031h-11.168a1.866 1.866 0 0 1-1.868-1.867c0-1.033.835-1.868 1.868-1.868h11.168a1.867 1.867 0 1 1 0 3.735ZM95.263 166.031H78.36a1.866 1.866 0 1 1 0-3.735h16.903a1.867 1.867 0 1 1 0 3.735ZM465.633 175.855h-14.062a1.867 1.867 0 1 1 0-3.736h14.062c1.032 0 1.867.836 1.867 1.868a1.867 1.867 0 0 1-1.867 1.868ZM91.92 175.855H78.361a1.867 1.867 0 0 1-1.868-1.868c0-1.032.835-1.868 1.868-1.868H91.92a1.868 1.868 0 0 1 0 3.736ZM465.633 185.679h-21.776a1.866 1.866 0 0 1-1.868-1.868c0-1.032.835-1.867 1.868-1.867h21.776a1.867 1.867 0 1 1 0 3.735ZM90.294 185.679H78.362a1.866 1.866 0 0 1-1.868-1.868c0-1.032.835-1.867 1.868-1.867h11.933a1.866 1.866 0 1 1 0 3.735ZM465.632 195.502h-36.906a1.866 1.866 0 0 1-1.867-1.867c0-1.033.835-1.868 1.867-1.868h36.906c1.033 0 1.868.835 1.868 1.868a1.866 1.866 0 0 1-1.868 1.867ZM90.24 195.502H78.36a1.866 1.866 0 1 1 0-3.735h11.88a1.867 1.867 0 1 1 0 3.735ZM465.633 205.308h-82.647a1.866 1.866 0 0 1-1.868-1.868c0-1.032.835-1.867 1.868-1.867h82.647a1.867 1.867 0 1 1 0 3.735ZM91.752 205.308H78.36a1.866 1.866 0 0 1-1.867-1.868c0-1.032.835-1.867 1.867-1.867h13.392a1.867 1.867 0 1 1 0 3.735ZM465.632 215.133h-94.078a1.865 1.865 0 0 1-1.866-1.867c0-1.033.834-1.868 1.866-1.868h94.078c1.033 0 1.868.835 1.868 1.868a1.866 1.866 0 0 1-1.868 1.867ZM93.544 215.133H78.362a1.866 1.866 0 0 1-1.868-1.867c0-1.033.835-1.868 1.868-1.868h15.183a1.867 1.867 0 1 1 0 3.735ZM465.632 224.958H365.055a1.867 1.867 0 0 1 0-3.736h100.577a1.867 1.867 0 1 1 0 3.736ZM103.014 224.958H78.36a1.866 1.866 0 0 1-1.867-1.868c0-1.032.835-1.868 1.867-1.868h24.654a1.868 1.868 0 1 1 0 3.736ZM166.628 224.958h-1.456a1.867 1.867 0 1 1 0-3.736h1.456a1.868 1.868 0 1 1 0 3.736ZM178.451 234.781h-24.972a1.867 1.867 0 1 1 0-3.735h24.972c1.032 0 1.867.835 1.867 1.867a1.866 1.866 0 0 1-1.867 1.868ZM465.633 234.781H359.66a1.866 1.866 0 0 1-1.868-1.868c0-1.032.834-1.867 1.868-1.867h105.973a1.867 1.867 0 1 1 0 3.735ZM110.279 234.781H78.36a1.866 1.866 0 0 1-1.867-1.868c0-1.032.835-1.867 1.867-1.867h31.919a1.867 1.867 0 1 1 0 3.735ZM186.894 244.606h-47.907a1.867 1.867 0 0 1-1.868-1.868c0-1.033.835-1.868 1.868-1.868h47.907a1.867 1.867 0 1 1 0 3.736ZM465.632 244.606H354.541a1.868 1.868 0 1 1 0-3.736h111.091a1.867 1.867 0 1 1 0 3.736ZM120.926 244.606H78.36a1.866 1.866 0 0 1-1.867-1.868c0-1.033.835-1.868 1.867-1.868h42.566a1.867 1.867 0 1 1 0 3.736ZM465.633 254.41H349.609a1.865 1.865 0 0 1-1.867-1.867c0-1.033.834-1.868 1.867-1.868h116.024c1.032 0 1.867.835 1.867 1.868a1.866 1.866 0 0 1-1.867 1.867ZM193.3 254.41H78.361a1.866 1.866 0 0 1-1.868-1.867c0-1.033.835-1.868 1.868-1.868H193.3a1.868 1.868 0 1 1 0 3.735ZM465.633 264.237h-49.028a1.867 1.867 0 0 1-1.868-1.868c0-1.033.835-1.868 1.868-1.868h49.028c1.032 0 1.867.835 1.867 1.868a1.867 1.867 0 0 1-1.867 1.868ZM198.436 264.237H78.36a1.866 1.866 0 0 1-1.867-1.868c0-1.033.835-1.868 1.867-1.868h120.076c1.033 0 1.868.835 1.868 1.868a1.867 1.867 0 0 1-1.868 1.868ZM465.633 274.061h-33.377a1.867 1.867 0 0 1-1.867-1.868c0-1.032.835-1.868 1.867-1.868h33.377a1.868 1.868 0 1 1 0 3.736ZM202.695 274.061H78.361a1.867 1.867 0 0 1-1.868-1.868c0-1.032.835-1.868 1.868-1.868h124.334a1.867 1.867 0 1 1 0 3.736ZM465.633 283.883h-22.58a1.865 1.865 0 0 1-1.868-1.867c0-1.033.834-1.867 1.868-1.867h22.58a1.866 1.866 0 1 1 0 3.734ZM200.303 283.883H78.36a1.865 1.865 0 0 1-1.868-1.867c0-1.033.835-1.867 1.868-1.867h121.943a1.867 1.867 0 1 1 0 3.734ZM465.633 293.689h-16.622a1.865 1.865 0 0 1-1.867-1.868c0-1.032.834-1.867 1.867-1.867h16.622a1.867 1.867 0 1 1 0 3.735ZM193.393 293.689H78.36a1.866 1.866 0 1 1 0-3.735h115.033a1.867 1.867 0 1 1 0 3.735ZM465.632 303.513h-22.488a1.867 1.867 0 1 1 0-3.735h22.488c1.033 0 1.868.835 1.868 1.868a1.866 1.866 0 0 1-1.868 1.867ZM187.604 303.513H56.451a1.866 1.866 0 0 1-1.867-1.867c0-1.033.834-1.868 1.867-1.868h131.153c1.033 0 1.868.835 1.868 1.868a1.866 1.866 0 0 1-1.868 1.867ZM465.633 313.339h-49.42a1.867 1.867 0 1 1 0-3.736h49.42c1.032 0 1.867.836 1.867 1.868a1.867 1.867 0 0 1-1.867 1.868ZM192.198 313.339H55.948a1.867 1.867 0 0 1-1.867-1.868c0-1.032.834-1.868 1.867-1.868h136.25a1.867 1.867 0 1 1 0 3.736ZM465.633 323.163h-69.684a1.866 1.866 0 0 1-1.868-1.868c0-1.032.835-1.868 1.868-1.868h69.684c1.032 0 1.867.836 1.867 1.868a1.866 1.866 0 0 1-1.867 1.868ZM218.048 323.163h-162.1a1.867 1.867 0 1 1 0-3.736h162.1a1.868 1.868 0 1 1 0 3.736ZM465.633 332.968h-77.921a1.867 1.867 0 1 1 0-3.736h77.921c1.032 0 1.867.836 1.867 1.868a1.867 1.867 0 0 1-1.867 1.868ZM219.132 332.968H55.948a1.867 1.867 0 1 1 0-3.736h163.184a1.867 1.867 0 0 1 0 3.736ZM465.632 342.792h-84.719a1.866 1.866 0 0 1-1.867-1.868c0-1.032.835-1.867 1.867-1.867h84.719c1.033 0 1.868.835 1.868 1.867a1.866 1.866 0 0 1-1.868 1.868ZM219.56 342.792H55.948a1.867 1.867 0 1 1 0-3.735H219.56a1.867 1.867 0 1 1 0 3.735ZM465.632 352.616h-90.678a1.867 1.867 0 0 1 0-3.736h90.678a1.867 1.867 0 1 1 0 3.736ZM219.41 352.616H55.947a1.867 1.867 0 1 1 0-3.736H219.41a1.868 1.868 0 0 1 0 3.736ZM465.633 362.44h-96.039a1.867 1.867 0 0 1-1.867-1.868c0-1.032.835-1.868 1.867-1.868h96.039a1.868 1.868 0 1 1 0 3.736ZM218.701 362.44H55.948a1.867 1.867 0 0 1-1.867-1.868c0-1.032.834-1.868 1.867-1.868h162.753a1.868 1.868 0 1 1 0 3.736ZM465.633 372.246H364.738a1.867 1.867 0 0 1 0-3.736h100.895c1.032 0 1.867.836 1.867 1.868a1.867 1.867 0 0 1-1.867 1.868ZM217.412 372.246H55.947a1.866 1.866 0 0 1-1.867-1.868c0-1.032.835-1.868 1.867-1.868h161.465a1.868 1.868 0 1 1 0 3.736ZM465.632 382.071H360.329a1.867 1.867 0 0 1-1.866-1.868c0-1.032.835-1.868 1.866-1.868h105.303a1.867 1.867 0 1 1 0 3.736ZM215.431 382.071H55.947a1.866 1.866 0 0 1-1.867-1.868c0-1.032.835-1.868 1.867-1.868h159.484a1.868 1.868 0 1 1 0 3.736ZM465.632 391.895H356.39a1.866 1.866 0 0 1-1.867-1.867c0-1.033.835-1.868 1.867-1.868h109.242c1.033 0 1.868.835 1.868 1.868a1.866 1.866 0 0 1-1.868 1.867ZM212.669 391.895H55.949a1.866 1.866 0 0 1-1.868-1.867c0-1.033.834-1.868 1.867-1.868H212.67a1.867 1.867 0 1 1 0 3.735ZM465.632 401.719H352.99a1.868 1.868 0 0 1 0-3.736h112.642a1.867 1.867 0 1 1 0 3.736ZM208.84 401.719H55.948a1.867 1.867 0 1 1 0-3.736H208.84a1.867 1.867 0 1 1 0 3.736ZM288.854 411.524h-6.408a1.865 1.865 0 0 1-1.867-1.867c0-1.033.834-1.868 1.867-1.868h6.408c1.032 0 1.867.835 1.867 1.868a1.866 1.866 0 0 1-1.867 1.867ZM465.633 411.524H350.19a1.865 1.865 0 0 1-1.868-1.867c0-1.033.834-1.868 1.868-1.868h115.443c1.032 0 1.867.835 1.867 1.868a1.866 1.866 0 0 1-1.867 1.867ZM203.498 411.524H55.948a1.866 1.866 0 0 1-1.867-1.867c0-1.033.834-1.868 1.867-1.868h147.55a1.867 1.867 0 1 1 0 3.735ZM288.89 421.348h-11.468a1.867 1.867 0 0 1-1.867-1.868c0-1.032.835-1.868 1.867-1.868h11.468c1.032 0 1.867.836 1.867 1.868a1.867 1.867 0 0 1-1.867 1.868ZM465.633 421.348H348.209a1.868 1.868 0 1 1 0-3.736h117.424a1.868 1.868 0 1 1 0 3.736ZM195.542 421.348H55.948a1.867 1.867 0 1 1 0-3.736h139.594a1.867 1.867 0 1 1 0 3.736ZM287.097 431.174h-15.07a1.867 1.867 0 1 1 0-3.735h15.07a1.867 1.867 0 1 1 0 3.735ZM465.632 431.174H347.181a1.865 1.865 0 0 1-1.867-1.868c0-1.032.834-1.867 1.867-1.867h118.451c1.033 0 1.868.835 1.868 1.867a1.866 1.866 0 0 1-1.868 1.868ZM187.099 431.174H55.949a1.866 1.866 0 0 1-1.868-1.868c0-1.032.834-1.867 1.867-1.867H187.1a1.867 1.867 0 1 1 0 3.735ZM283.082 440.997h-16.791a1.866 1.866 0 0 1-1.868-1.867c0-1.033.835-1.868 1.868-1.868h16.791a1.867 1.867 0 1 1 0 3.735ZM491.762 440.997H345.351a1.866 1.866 0 0 1-1.867-1.867c0-1.033.835-1.868 1.867-1.868h146.411a1.867 1.867 0 1 1 0 3.735ZM180.861 440.997H55.947a1.866 1.866 0 0 1-1.867-1.867c0-1.033.835-1.868 1.867-1.868h124.914a1.867 1.867 0 1 1 0 3.735ZM276.375 450.803h-16.061a1.867 1.867 0 1 1 0-3.735h16.061c1.033 0 1.868.835 1.868 1.867a1.866 1.866 0 0 1-1.868 1.868ZM491.78 450.803H342.307a1.867 1.867 0 1 1 0-3.735H491.78a1.868 1.868 0 1 1 0 3.735ZM176.135 450.803H55.947a1.866 1.866 0 0 1-1.867-1.868c0-1.032.835-1.867 1.867-1.867h120.188a1.867 1.867 0 1 1 0 3.735ZM266.627 460.627h-12.551a1.867 1.867 0 0 1-1.867-1.868c0-1.032.835-1.868 1.867-1.868h12.551c1.032 0 1.867.836 1.867 1.868a1.867 1.867 0 0 1-1.867 1.868ZM491.781 460.627H337.957a1.867 1.867 0 1 1 0-3.736h153.824a1.868 1.868 0 1 1 0 3.736ZM172.588 460.627H55.948a1.867 1.867 0 0 1-1.867-1.868c0-1.032.834-1.868 1.867-1.868h116.64a1.868 1.868 0 0 1 0 3.736ZM254.468 470.451h-6.818a1.868 1.868 0 1 1 0-3.736h6.818a1.868 1.868 0 1 1 0 3.736ZM491.78 470.451H332.221a1.868 1.868 0 1 1 0-3.736H491.78a1.868 1.868 0 1 1 0 3.736ZM169.99 470.451H55.947a1.866 1.866 0 0 1-1.867-1.868c0-1.032.835-1.868 1.867-1.868H169.99a1.868 1.868 0 1 1 0 3.736ZM244.531 480.276h-2.651a1.866 1.866 0 0 1-1.868-1.868c0-1.032.835-1.867 1.868-1.867h2.651a1.867 1.867 0 1 1 0 3.735ZM491.78 480.276H324.861a1.865 1.865 0 0 1-1.866-1.868c0-1.032.834-1.867 1.866-1.867H491.78a1.867 1.867 0 1 1 0 3.735ZM168.198 480.276H55.948a1.867 1.867 0 1 1 0-3.735h112.25a1.867 1.867 0 1 1 0 3.735ZM238.668 490.082h-.261a1.867 1.867 0 1 1 0-3.736h.261a1.868 1.868 0 1 1 0 3.736ZM234.972 558.836h-.17a1.866 1.866 0 0 1-1.867-1.868c0-1.033.835-1.867 1.867-1.867 1.033 0 1.954.834 1.954 1.867s-.752 1.868-1.784 1.868ZM491.78 490.082H315.393a1.867 1.867 0 0 1-1.867-1.868c0-1.032.835-1.868 1.867-1.868H491.78a1.868 1.868 0 1 1 0 3.736ZM167.134 490.082H55.948a1.867 1.867 0 0 1-1.867-1.868c0-1.032.834-1.868 1.867-1.868h111.186a1.868 1.868 0 1 1 0 3.736ZM491.78 499.905H302.319a1.867 1.867 0 1 1 0-3.735H491.78a1.868 1.868 0 1 1 0 3.735ZM166.741 499.905H55.947a1.866 1.866 0 0 1-1.867-1.867c0-1.033.835-1.868 1.867-1.868h110.794c1.033 0 1.868.835 1.868 1.868a1.866 1.866 0 0 1-1.868 1.867ZM491.78 509.73H291.131a1.867 1.867 0 0 1-1.867-1.868c0-1.032.835-1.868 1.867-1.868H491.78a1.868 1.868 0 1 1 0 3.736ZM166.891 509.73H55.947a1.866 1.866 0 0 1-1.867-1.868c0-1.032.835-1.868 1.867-1.868h110.944a1.868 1.868 0 1 1 0 3.736ZM491.78 519.553H286.537a1.868 1.868 0 1 1 0-3.736H491.78a1.868 1.868 0 1 1 0 3.736ZM166.891 519.553H55.947a1.866 1.866 0 0 1-1.867-1.868c0-1.032.835-1.868 1.867-1.868h110.944a1.868 1.868 0 1 1 0 3.736ZM491.78 529.362H284.669a1.866 1.866 0 0 1-1.867-1.868c0-1.032.835-1.867 1.867-1.867H491.78a1.867 1.867 0 1 1 0 3.735ZM166.891 529.362H55.947a1.866 1.866 0 0 1-1.867-1.868c0-1.032.835-1.867 1.867-1.867h110.944a1.867 1.867 0 1 1 0 3.735ZM491.781 539.184h-207.13a1.868 1.868 0 1 1 0-3.735h207.13a1.867 1.867 0 1 1 0 3.735ZM166.891 539.184H55.947a1.866 1.866 0 0 1-1.867-1.869c0-1.031.835-1.866 1.867-1.866h110.944a1.867 1.867 0 1 1 0 3.735ZM491.781 549.005h-207.13a1.868 1.868 0 1 1 0-3.735h207.13a1.867 1.867 0 1 1 0 3.735ZM167.039 549.005H55.949a1.867 1.867 0 1 1 0-3.735h111.09c1.033 0 1.868.835 1.868 1.867a1.866 1.866 0 0 1-1.868 1.868ZM491.78 558.836H279.536a1.866 1.866 0 0 1-1.867-1.868c0-1.033.835-1.867 1.867-1.867H491.78a1.867 1.867 0 1 1 0 3.735ZM170.14 558.836H55.947a1.866 1.866 0 0 1-1.867-1.868c0-1.033.835-1.867 1.867-1.867H170.14a1.867 1.867 0 1 1 0 3.735ZM491.786 568.648H228.301a1.866 1.866 0 0 1-1.868-1.867c0-1.033.835-1.868 1.868-1.868h263.485a1.867 1.867 0 1 1 0 3.735ZM173.553 568.648H55.943a1.866 1.866 0 0 1-1.868-1.867c0-1.033.835-1.868 1.868-1.868h117.61c1.032 0 1.867.835 1.867 1.868a1.866 1.866 0 0 1-1.867 1.867ZM491.786 578.469H55.943a1.866 1.866 0 1 1 0-3.734h435.843a1.866 1.866 0 1 1 0 3.734ZM491.786 588.282H55.943a1.866 1.866 0 1 1 0-3.735h435.843a1.866 1.866 0 1 1 0 3.735Z"
  />
  <path
    fill="var(--foreground, currentColor)"
    d="M261.084 560.042h-7.799c-9.906 0-17.966-8.057-17.966-17.963v-15.967c.042-1.539 1.238-36.657 20.968-51.83 18.838-14.489 40.189-30.914 38.27-63.566-1.924-32.681-47.112-100.569-47.569-101.251a1.866 1.866 0 0 1 .515-2.59 1.864 1.864 0 0 1 2.59.514c1.885 2.819 46.21 69.421 48.192 103.108 2.036 34.626-20.147 51.691-39.722 66.747-18.336 14.103-19.5 48.572-19.509 48.919v15.916c0 7.845 6.384 14.229 14.231 14.229h7.799c7.846 0 14.23-6.384 14.23-14.229v-14.43c.015-1.057.597-25.394 20.563-36.649 19.035-10.729 40.449-36.318 42.48-67.139 2.151-32.603 33.238-95.521 56.381-114.104a1.863 1.863 0 0 1 2.624.286 1.864 1.864 0 0 1-.287 2.625c-22.567 18.124-52.887 79.571-54.989 111.437-2.123 32.208-24.491 58.941-44.373 70.15-18.12 10.21-18.659 33.191-18.662 33.422v14.402c0 9.906-8.061 17.963-17.967 17.963Z"
  />
  <path
    fill="var(--foreground, currentColor)"
    d="M431.032 296.76c-7.939.432-8.973.949-17.172 5.35l-3.019 1.639c-5.696 3.02-9.493 4.832-14.841 5.609-.26.086-.519.086-.777.086-4.316.518-9.666.432-17.863-.259-8.543-.777-11.477-2.416-13.891-3.71-2.074-1.208-3.799-2.07-6.817-2.07-1.727 0-3.885.258-6.818.862a161.53 161.53 0 0 1-10.353 1.726c-.259 0-.605 0-.865.086-12.597 1.812-28.821 2.934-43.143 2.589-.605 0-1.294 0-1.898-.087-1.294 0-2.589 0-3.796-.085-3.623-.259-7.163-.519-10.615-.691-7.248-.518-13.979-.95-20.191-1.121-3.451-.174-6.731-.174-9.836 0-.432 0-.864 0-1.296.085-3.106.086-5.953.345-8.629.777-6.471 1.122-8.455-.691-10.613-2.588-1.725-1.468-3.537-3.107-6.99-2.848-.171 0-.343 0-.602.086-1.726.259-3.625.863-5.61 1.381-5.522 1.725-11.648 3.537-18.205 0 3.968-7.076 21.658-36.241 40.813-37.795 16.308-1.38 67.476 2.071 94.832 4.056-7.682.949-15.879 1.898-24.508 2.847-.172 0-18.983 1.122-31.408 0-.086-.085-14.411-1.208-18.726-1.985a1.867 1.867 0 0 0-2.157 1.554 1.865 1.865 0 0 0 1.555 2.157c4.4.777 18.465 1.899 19.07 1.985 12.597 1.122 31.148 0 32.012 0 26.059-2.934 48.063-5.609 65.665-7.766 6.989-.862 13.547-1.639 19.586-2.416 16.138-1.899 40.472 20.796 45.302 25.541-.775 1.554-2.932 4.66-8.196 5.005Zm11.735-6.817c-1.208-1.208-29.509-29.855-49.356-27.44-6.04.777-12.512 1.553-19.501 2.417-6.818.862-14.326 1.726-22.437 2.761-.172-.087-.431-.173-.602-.173-.863-.086-6.301-.517-14.325-1.121-1.208-.088-2.589-.259-3.969-.346a887.321 887.321 0 0 0-7.681-.517 906.206 906.206 0 0 0-3.969-.26v-.085c-2.243-.087-4.571-.259-6.99-.432-1.293-.086-2.587-.173-3.968-.259-1.035-.086-2.071-.086-3.106-.173-1.123-.086-2.331-.172-3.538-.259-1.208-.086-2.502-.172-3.797-.259-1.207 0-2.416-.086-3.71-.172-.432 0-.864-.086-1.38-.086-1.209-.086-2.503-.172-3.798-.259-.775 0-1.466-.086-2.243-.086-1.295-.086-2.504-.173-3.796-.173l-3.883-.259c-1.208-.086-2.503-.086-3.71-.172-.95 0-1.985-.087-3.022-.087-1.206-.086-2.501-.172-3.709-.172-.777-.087-1.553-.087-2.33-.087-1.295-.086-2.503-.172-3.71-.172-1.295-.087-2.503-.087-3.712-.087-1.293-.085-2.586-.085-3.796-.085-.775-.087-1.553-.087-2.329-.087-1.294-.086-2.676-.086-3.883-.086h-2.158c-1.38 0-2.675 0-3.969.086-1.295-.086-2.589 0-3.71.087-1.123 0-2.157 0-3.02.085-.259 0-.433 0-.691.087-1.726.172-3.451.604-5.176 1.122-.95.345-1.899.69-2.935 1.208a35.748 35.748 0 0 0-5.351 2.847c-1.121.691-2.157 1.468-3.191 2.158-2.244 1.811-4.487 3.71-6.559 5.695-.947 1.035-1.898 1.984-2.848 3.02-10.44 11.217-17.344 24.333-17.859 25.283-.432.776-.174 1.811.602 2.415 8.542 5.696 16.738 3.193 22.781 1.382 1.379-.433 2.675-.865 3.883-1.036.518-.173 1.034-.259 1.553-.346 1.036-.086 1.727.087 2.502.517.518.347 1.12.777 1.725 1.382 2.331 2.071 5.523 4.919 13.721 3.538 2.416-.432 5.005-.691 7.852-.777 1.382-.086 2.848-.172 4.314-.172 1.898 0 3.798 0 5.867.086 1.468 0 2.934.086 4.403.086 1.639.086 3.278.172 5.003.258 1.552.173 3.107.259 4.746.346.778 0 1.639.086 2.503.173 1.38.086 2.933.172 4.4.259.259 0 .518 0 .778.085 1.812.087 3.71.173 5.608.346 1.466.086 2.848.173 4.314.258h.346c1.207.087 2.414.087 3.624.173 1.379.086 2.761.086 4.227.086.346.087.692.087 1.035.087h4.314c1.555 0 3.194-.087 4.747-.087 1.554-.086 3.02-.086 4.572-.172 1.21-.087 2.418-.172 3.625-.172 1.382-.087 2.675-.173 4.057-.259 2.759-.26 5.522-.432 8.197-.691 1.38-.173 2.676-.259 3.969-.432l4.142-.517c1.379-.173 2.762-.345 4.055-.518.777-.086 1.466-.259 2.156-.345 1.555-.259 3.022-.432 4.402-.777 1.295-.173 2.416-.344 3.537-.604 7.076-1.467 8.544-.69 11.048.691 1.292.776 2.759 1.64 5.175 2.329 1.295.519 2.848.864 4.659 1.208a64.04 64.04 0 0 0 5.523.691c.518.086 1.122.086 1.639.086 1.468.173 2.934.258 4.23.346 2.33.085 4.398.172 6.298.172h1.467c2.157-.087 4.141-.172 5.953-.518 5.524-.777 9.839-2.674 15.964-5.953l3.106-1.64c7.94-4.228 8.456-4.488 15.618-4.919 7.681-.431 11.218-5.867 11.909-8.715.171-.69 0-1.38-.432-1.812Zm-194.926 16.826c-3.106.086-5.953.345-8.629.777-6.471 1.122-8.455-.691-10.613-2.588-1.725-1.468-3.537-3.107-6.99-2.848.863 0 1.555.518 1.814 1.295.344.949.603 1.897.948 2.932.518.347 1.12.777 1.725 1.382 2.331 2.071 5.523 4.919 13.721 3.538 2.416-.432 5.005-.691 7.852-.777-.432-.604-.69-.949-.69-1.036-.604-.863-.345-1.984.517-2.589.086-.086.258-.086.345-.086Zm47.632 1.899c-.605 0-1.294 0-1.898-.087-1.294 0-2.589 0-3.796-.085-3.623-.259-7.163-.519-10.615-.691-7.248-.518-13.979-.95-20.191-1.121-3.451-.174-6.731-.174-9.836 0 .429.085.689.345.948.689.173.259.863 1.295 1.898 2.935 1.898 0 3.798 0 5.867.086 1.468 0 2.934.086 4.403.086 1.639.086 3.278.172 5.003.258 1.552.173 3.107.259 4.746.346.778 0 1.639.086 2.503.173 1.38.086 2.933.172 4.4.259.259 0 .518 0 .778.085 1.812.087 3.71.173 5.608.346 1.466.086 2.848.173 4.314.258h.346c1.207.087 2.414.087 3.624.173 1.379.086 2.761.086 4.227.086.346.087.692.087 1.035.087h4.314c1.555 0 3.194-.087 4.747-.087 1.554-.086 3.02-.086 4.572-.172 1.21-.087 2.418-.172 3.625-.172 1.382-.087 2.675-.173 4.057-.259 2.759-.26 5.522-.432 8.197-.691 1.38-.173 2.676-.259 3.969-.432l4.142-.517c.604-1.898 1.036-2.934 1.036-3.019.171-.518.602-.95 1.12-1.123-12.597 1.812-28.821 2.934-43.143 2.589Z"
  />
  <path
    fill="var(--foreground, currentColor)"
    d="M336.546 350.863c1.036-4.833 2.156-10.01 3.193-15.015.258-.172.43-.431.517-.689 3.366-6.818 10.01-14.497 14.497-19.157-3.625 11.39-12.426 26.06-18.207 34.861Zm22.435-42.455a1.977 1.977 0 0 0-2.156.259c-.433.432-8.283 7.767-14.583 16.309 1.984-8.197 3.797-14.669 4.831-16.395.605-.862.259-2.071-.605-2.588-.861-.518-1.984-.259-2.587.603-.346.605-.778 1.553-1.21 2.762-3.969 11.131-10.785 45.646-11.56 49.961-.173.862.257 1.727 1.034 2.071.259.086.518.173.778.173.602 0 1.12-.346 1.553-.777.95-1.381 23.124-32.79 25.453-50.479.087-.776-.259-1.553-.948-1.899Z"
  />
  <path
    fill="var(--foreground, currentColor)"
    d="M325.998 416.185a1.866 1.866 0 0 1-1.673-2.694c.159-.474 1.646-5.798 1.461-38.029-.207-36.107 11.577-67.953 11.696-68.271a1.869 1.869 0 0 1 3.499 1.312c-.117.312-11.663 31.543-11.459 66.937.133 23.366-.591 37.923-1.987 39.941a1.862 1.862 0 0 1-1.537.804Z"
  />
  <path
    fill="var(--foreground, currentColor)"
    d="M332.823 398.406a1.868 1.868 0 0 1-1.866-1.984c.522-8.268.694-27.262.696-27.454.004-.436.162-.857.442-1.189.135-.161 13.54-16.069 19.853-29.362l1.914-4.055c7.181-15.23 11.825-24.618 16.633-25.688.99-.212 2.002.41 2.229 1.418a1.87 1.87 0 0 1-1.42 2.229c-3.263.726-9.25 13.428-14.062 23.633l-1.92 4.064c-5.946 12.521-17.512 26.73-19.94 29.652-.036 3.473-.224 19.511-.697 26.986a1.867 1.867 0 0 1-1.862 1.75Z"
  />
  <path
    fill="var(--foreground, currentColor)"
    d="M340.625 394.177a1.866 1.866 0 0 1-1.85-2.134c.192-1.328 4.916-32.787 24.529-58.485 12.016-15.747 15.285-20.324 16.166-21.654a1.86 1.86 0 0 1 .472-.903c.686-.724 1.977-.909 2.734-.264 1.662 1.415 1.662 1.415-16.403 25.086-19.029 24.936-23.757 56.437-23.803 56.753a1.866 1.866 0 0 1-1.845 1.601ZM324.185 337.977a1.867 1.867 0 0 1-1.844-1.586c-.801-5.257-3.518-19.946-6.438-24.712a1.867 1.867 0 1 1 3.185-1.951c2.072 3.38 3.862 10.274 5.107 16.133 1.857-7.508 4.43-15.537 4.593-16.043a1.867 1.867 0 1 1 3.556 1.144c-.059.183-5.913 18.45-6.292 25.251a1.868 1.868 0 0 1-1.775 1.762c-.032.002-.06.002-.092.002ZM320.468 378.452a1.868 1.868 0 0 1-1.868-1.858c-.068-14.504-.726-26.734-1.957-36.352-2.976-23.259-8.851-27.947-8.91-27.987a1.868 1.868 0 1 1 2.138-3.064c.736.514 7.297 5.743 10.478 30.577 1.25 9.769 1.919 22.152 1.987 36.807a1.868 1.868 0 0 1-1.859 1.877h-.009ZM296.424 348.838a1.867 1.867 0 0 1-1.705-1.106c-.135-.304-13.616-30.435-20.467-36.76a1.87 1.87 0 0 1-.104-2.64 1.87 1.87 0 0 1 2.64-.104c5.621 5.191 14.673 23.641 18.961 32.795.98-13.957-10.844-29.556-10.98-29.73a1.869 1.869 0 0 1 2.962-2.276c.675.879 16.461 21.722 10.453 38.581a1.865 1.865 0 0 1-1.688 1.238c-.024.002-.048.002-.072.002ZM308.818 416.183a1.866 1.866 0 0 1-1.862-1.76c-.544-9.423-2.244-19.278-5.682-32.954-7.606-30.24-33.898-70.625-34.163-71.029a1.871 1.871 0 0 1 .54-2.587 1.872 1.872 0 0 1 2.587.54c1.094 1.673 26.901 41.32 34.658 72.165 3.501 13.916 5.231 23.979 5.788 33.649a1.865 1.865 0 0 1-1.866 1.976Z"
  />
  <path
    fill="var(--foreground, currentColor)"
    d="M317.585 408.298a1.867 1.867 0 0 1-1.862-1.749c-.009-.147-.97-15.056-3.248-41.687-3.255-38.039-13.916-52.65-14.023-52.794a1.864 1.864 0 0 1 .374-2.614 1.863 1.863 0 0 1 2.613.374c.465.618 11.413 15.62 14.756 54.716 2.284 26.676 3.247 41.619 3.256 41.767a1.868 1.868 0 0 1-1.866 1.987Z"
  />
  <path
    fill="var(--foreground, currentColor)"
    d="M310.43 388.604a1.865 1.865 0 0 1-1.843-1.582c-2.505-16.165-8.221-30.16-8.279-30.299a1.865 1.865 0 0 1-.043-1.302c6.501-19.509-7.278-44.062-7.419-44.309a1.872 1.872 0 0 1 .699-2.547 1.86 1.86 0 0 1 2.546.697c.6 1.049 14.46 25.714 7.929 46.681 1.176 2.984 5.964 15.695 8.258 30.507a1.867 1.867 0 0 1-1.848 2.154ZM302.826 411.644a1.866 1.866 0 0 1-1.847-1.603c-.033-.228-3.358-23.035-11.542-41.696-6.116-13.946-31.881-58.439-32.14-58.888a1.868 1.868 0 0 1 3.232-1.871c1.063 1.834 26.129 45.122 32.33 59.26 8.393 19.137 11.682 41.713 11.819 42.666a1.869 1.869 0 0 1-1.852 2.132ZM333.832 269.581a1.865 1.865 0 0 1-1.68-2.679c11.892-24.653 26.373-53.013 31.352-58.677 10.762-12.239 28.501-22.114 34.755-22.544 1.013-.024 1.921.705 1.992 1.737a1.869 1.869 0 0 1-1.736 1.991c-4.915.337-21.897 9.558-32.206 21.282-3.898 4.434-15.985 27.135-30.794 57.833a1.863 1.863 0 0 1-1.683 1.057Z"
  />
  <path
    fill="var(--foreground, currentColor)"
    d="M209.532 569.721h-16.566c-11.284 0-20.465-9.18-20.465-20.465v-45.67c-.149-1.896-3.447-50.153 27.205-80.334 16.621-16.366 22.482-42.19 24.47-60.969 2.556-24.129-.306-46.349-4.273-57.665a1.866 1.866 0 1 1 3.524-1.236c9.003 25.672 9.715 92.191-21.102 122.533-29.395 28.944-26.13 77.047-26.094 77.531l.006 45.81c0 9.224 7.506 16.729 16.729 16.729h16.566c9.224 0 16.729-7.505 16.729-16.729v-34.917c-.073-1.006-1.756-27.849 11.532-47.782 10.125-15.188 37.023-55.533 47.23-87.458a1.86 1.86 0 0 1 2.348-1.209 1.864 1.864 0 0 1 1.208 2.348c-10.365 32.425-37.473 73.084-47.678 88.391-12.59 18.884-10.927 45.315-10.908 45.582l.003 35.045c0 11.285-9.18 20.465-20.464 20.465Z"
  />
  <path
    fill="var(--foreground, currentColor)"
    d="M213.294 568.75a1.87 1.87 0 0 1-1.259-3.246c3.042-2.78 5.426-9.919 5.426-16.253v-30.537a1.867 1.867 0 1 1 3.735 0v30.537c0 6.433-2.282 15.029-6.641 19.011-.359.325-.81.488-1.261.488ZM207.235 568.698a1.869 1.869 0 0 1-1.608-2.814c1.665-2.829 2.969-10.134 2.969-16.629v-29.698c0-1.033.835-1.867 1.868-1.867 1.032 0 1.867.834 1.867 1.867v29.698c0 6.262-1.197 14.635-3.484 18.522a1.867 1.867 0 0 1-1.612.921ZM201.378 568.9l-.128-.003a1.87 1.87 0 0 1-1.738-1.99c.214-3.166.244-10.701.244-17.654v-29.417a1.866 1.866 0 1 1 3.734 0v29.417c0 7.016-.029 14.628-.249 17.906a1.868 1.868 0 0 1-1.863 1.741ZM195.15 568.585a1.865 1.865 0 0 1-1.711-1.116c-1.673-3.802-2.548-12.04-2.548-18.214v-29.642c0-1.032.835-1.867 1.868-1.867 1.032 0 1.868.835 1.868 1.867v29.642c0 6.633.959 13.818 2.231 16.711a1.866 1.866 0 0 1-1.708 2.619ZM189.091 568.545c-.494 0-.989-.195-1.356-.584-3.748-3.953-5.709-12.404-5.709-18.71v-30.426c0-1.032.836-1.867 1.868-1.867s1.868.835 1.868 1.867v30.426c0 6.384 2.013 13.324 4.684 16.141a1.867 1.867 0 0 1-1.355 3.153ZM212.877 279.859a1.87 1.87 0 0 1-1.76-1.237c-6.634-18.463-16.884-41.664-37.411-57.303-17.363-13.227-24.491-11.864-37.445-9.404-8.399 1.6-18.852 3.59-35.428 2.3a1.868 1.868 0 0 1-1.693-1.527l-3.073-16.822c-4.329-38.248 29.371-66.902 64.442-72.581 29.404-4.753 71.428 2.955 102.11 8.587 5.339.982 10.308 1.894 14.772 2.658 28.434 4.866 75.855 2.866 76.331 2.845 1.011-.083 1.902.754 1.948 1.785a1.867 1.867 0 0 1-1.785 1.947c-.481.021-48.291 2.041-77.125-2.896-4.476-.766-9.46-1.68-14.817-2.664-30.415-5.582-72.068-13.228-100.837-8.573-33.343 5.399-65.406 32.439-61.346 68.347l2.794 15.273c15.256 1.033 25.075-.837 33.011-2.349 13.078-2.484 21.721-4.131 40.406 10.101 21.304 16.234 31.854 40.065 38.664 59.014a1.868 1.868 0 0 1-1.758 2.499Z"
  />
  <path
    fill="var(--foreground, currentColor)"
    d="M329.85 193.693c-13.85 0-27.77-3.391-41.357-6.699-8.563-2.086-16.652-4.056-24.554-5.162-6.657-.936-14.611-1.443-23.823-2.028-26.021-1.656-58.406-3.715-88.382-16.998-15.099-6.69-31.048-5.641-47.41 3.116a1.87 1.87 0 0 1-2.529-.766 1.87 1.87 0 0 1 .766-2.529c17.182-9.196 34.709-10.311 50.687-3.235 29.365 13.01 61.381 15.047 87.106 16.684 9.288.591 17.307 1.101 24.106 2.057 8.083 1.131 16.26 3.123 24.917 5.231 18.377 4.478 37.383 9.108 55.524 4.994 28.645-6.49 56.458-3.278 66.931-2.068 12.696 1.444 23.265-4.11 31.374-16.518 2.654-4.062 2.63-9.764-.068-15.643-4.49-9.79-17.912-22.304-40.954-25.357-33.711-4.448-68.457 12.409-68.803 12.581a1.873 1.873 0 0 1-2.502-.852 1.868 1.868 0 0 1 .853-2.5c1.458-.718 36.113-17.532 70.94-12.932 24.527 3.249 38.74 16.337 43.861 27.504 3.245 7.069 3.171 14.083-.2 19.242-8.947 13.691-20.704 19.812-34.927 18.184-10.3-1.189-37.658-4.348-65.68 2.004-5.266 1.192-10.567 1.69-15.876 1.69ZM129.546 239.98c-10.338 0-23.366-23.635-24.83-26.355a1.867 1.867 0 1 1 3.29-1.77c5.109 9.483 15.415 24.391 21.511 24.391.05 0 .102-.002.152-.004 7.232-.3 26.765-17.192 33.681-23.674a1.868 1.868 0 0 1 2.639.085 1.865 1.865 0 0 1-.086 2.639c-2.648 2.483-26.159 24.27-36.078 24.682a6.423 6.423 0 0 1-.279.006Z"
  />
  <path
    fill="var(--foreground, currentColor)"
    d="M131.916 231.425a1.866 1.866 0 0 1-1.076-3.396c.961-.673 23.544-16.525 27.543-18.524a1.867 1.867 0 1 1 1.671 3.341c-3.114 1.556-20.595 13.695-27.066 18.24-.326.23-.703.339-1.072.339ZM125.909 223.712a1.867 1.867 0 0 1-.937-3.485c3.565-2.058 21.483-12.359 24.214-13.04a1.866 1.866 0 1 1 .905 3.622c-1.706.453-14.623 7.672-23.25 12.653-.294.17-.614.25-.932.25Z"
  />
  <path
    fill="var(--foreground, currentColor)"
    d="M222.491 271.39a1.866 1.866 0 0 1-1.728-1.158c-.172-.418-17.375-41.951-38.494-61.54-20.699-19.196-71.313-7.832-71.822-7.718a1.865 1.865 0 0 1-2.24-1.4 1.87 1.87 0 0 1 1.401-2.24c.537-.124 13.318-3.032 28.99-3.502 21.325-.644 36.847 3.438 46.21 12.121 21.728 20.154 38.698 61.125 39.409 62.86a1.866 1.866 0 0 1-1.726 2.577ZM159.665 186.257c-.104 0-.211-.01-.314-.026-16.297-2.769-51.775-2.486-52.134-2.486h-.017a1.866 1.866 0 0 1-1.866-1.852 1.865 1.865 0 0 1 1.851-1.883c1.137-.009 22.185-.176 39.346 1.059-11.064-4.153-27.205-9.289-38.01-8.95-1.009.088-1.895-.771-1.93-1.802a1.866 1.866 0 0 1 1.803-1.93c18.706-.627 50.687 13.691 52.039 14.3a1.867 1.867 0 0 1-.768 3.57ZM238.826 263.537a1.873 1.873 0 0 1-1.76-1.243c-.083-.233-8.567-23.621-27.727-40.047-13.29-11.388-20.756-28.052-25.696-39.077-2.37-5.286-4.414-9.85-5.917-11.089a1.865 1.865 0 0 1-.254-2.628 1.863 1.863 0 0 1 2.628-.253c2.178 1.793 4.181 6.26 6.952 12.443 4.804 10.721 12.065 26.925 24.716 37.77 19.941 17.09 28.465 40.636 28.818 41.63a1.868 1.868 0 0 1-1.76 2.494Z"
  />
  <path
    fill="var(--foreground, currentColor)"
    d="M189.193 194.111a1.863 1.863 0 0 1-1.403-.635c-19.743-22.478-72.208-31.658-72.735-31.749a1.866 1.866 0 0 1-1.527-2.155 1.868 1.868 0 0 1 2.154-1.526c2.207.376 54.296 9.492 74.914 32.964a1.866 1.866 0 0 1-1.403 3.101ZM230.031 264.793a1.867 1.867 0 0 1-1.757-1.235c-.096-.268-9.791-26.969-21.436-43.209a1.866 1.866 0 0 1 .429-2.607 1.863 1.863 0 0 1 2.605.429c11.952 16.669 21.514 43.009 21.916 44.121a1.866 1.866 0 0 1-1.757 2.501ZM246.832 264.816a1.87 1.87 0 0 1-1.763-1.253c-.033-.095-3.386-9.651-12.354-30.367-8.903-20.573-39.502-58.063-39.81-58.439a1.867 1.867 0 1 1 2.889-2.368c1.272 1.554 31.24 38.277 40.349 59.322 9.033 20.868 12.42 30.528 12.453 30.623a1.868 1.868 0 0 1-1.764 2.482Z"
  />
  <path
    fill="var(--foreground, currentColor)"
    d="M252.741 265.006c-.94 0-1.747-.704-1.855-1.66-.008-.06-.856-6.775-7.739-25.561-7.949-21.705-34.328-60.142-34.592-60.528a1.868 1.868 0 0 1 3.076-2.119c1.096 1.592 26.914 39.217 35.025 61.363 7.092 19.359 7.911 26.148 7.943 26.429a1.87 1.87 0 0 1-1.858 2.076Z"
  />
  <path
    fill="var(--foreground, currentColor)"
    d="M258.714 265.433a1.87 1.87 0 0 1-1.866-1.813c-.002-.106-.358-10.734-4.392-23.735-4.056-13.074-31.808-60.568-32.089-61.046a1.869 1.869 0 0 1 3.225-1.886c1.151 1.968 28.249 48.344 32.432 61.823 4.194 13.519 4.546 24.284 4.559 24.737a1.865 1.865 0 0 1-1.812 1.918c-.019.002-.039.002-.057.002ZM267.948 262.244c-.086-2.501-1.036-7.766-3.709-19.932-3.885-17.948-19.243-53.758-23.041-62.387-.516-1.036-.775-1.725-.862-1.898a1.959 1.959 0 0 0-2.416-.95c-.95.432-1.38 1.554-.95 2.503v.086c.777 1.726 19.501 44.18 23.643 63.423 2.675 12.857 3.452 17.43 3.626 18.983.084.345.171.603.171.69-.087.345 0 .69.085.949.345.777 1.037 1.208 1.728 1.208.256 0 .517-.086.775-.173.691-.344 1.209-.517.95-2.502ZM272.146 265.125h-.046a1.872 1.872 0 0 1-1.822-1.914c.007-.301.717-30.341-.914-45.601-.882-8.247-12.57-37.336-12.689-37.627a1.868 1.868 0 0 1 3.466-1.397c.489 1.216 11.999 29.868 12.937 38.627 1.658 15.504.965 44.848.936 46.09a1.871 1.871 0 0 1-1.868 1.822ZM274.07 205.206c-.932 0-1.723-.69-1.851-1.616-.564-4.14-6.278-17.26-8.433-21.966a1.869 1.869 0 0 1 3.397-1.554c.202.443 3.256 7.129 5.708 13.44.195-4.341.22-8.776-.276-10.908a1.865 1.865 0 0 1 1.396-2.242 1.863 1.863 0 0 1 2.241 1.395c1.266 5.436-.257 21.102-.323 21.766a1.87 1.87 0 0 1-1.825 1.685h-.034ZM278.874 265.07h-.042a1.87 1.87 0 0 1-1.826-1.909c.085-3.716.951-10.691 1.868-18.075 1.268-10.191 2.844-22.873 2.173-26.68-1.211-6.861-2.385-33.794-2.433-34.937a1.867 1.867 0 0 1 1.785-1.947 1.852 1.852 0 0 1 1.946 1.786c.013.277 1.213 27.828 2.379 34.449.77 4.359-.71 16.27-2.141 27.79-.906 7.286-1.762 14.17-1.84 17.697a1.872 1.872 0 0 1-1.869 1.826ZM287.701 213.53a1.868 1.868 0 0 1-1.87-1.867c0-3.528-.991-26.36-1.001-26.592a1.866 1.866 0 0 1 1.784-1.946c1.114-.075 1.905.755 1.948 1.786.022.496.299 6.871.556 13.329 1.832-6.301 4.01-11.972 6.131-13.094a1.868 1.868 0 0 1 1.747 3.301c-1.713 1.314-5.225 13.287-7.471 23.614a1.87 1.87 0 0 1-1.824 1.469ZM286.296 265.872a1.867 1.867 0 0 1-1.831-2.24c7.354-36.17 18.983-74 19.099-74.378a1.852 1.852 0 0 1 2.334-1.234 1.866 1.866 0 0 1 1.233 2.335c-.115.376-11.689 38.036-19.007 74.022a1.866 1.866 0 0 1-1.828 1.495ZM292.314 266.475a1.866 1.866 0 0 1-1.848-2.148c3.197-20.987 20.791-71.778 21.539-73.931a1.86 1.86 0 0 1 2.376-1.15 1.865 1.865 0 0 1 1.152 2.376c-.181.524-18.229 52.619-21.375 73.266a1.867 1.867 0 0 1-1.844 1.587ZM297.528 266.073a1.87 1.87 0 0 1-1.817-2.313c7.183-29.329 27.6-71.933 27.804-72.36a1.875 1.875 0 0 1 2.494-.873 1.865 1.865 0 0 1 .873 2.493c-.204.424-20.453 42.68-27.541 71.63a1.87 1.87 0 0 1-1.813 1.423ZM305.149 265.672a1.867 1.867 0 0 1-1.836-2.224c.159-.818 3.993-20.2 13.148-33.017 8.891-12.45 27.094-40.97 27.279-41.256a1.868 1.868 0 0 1 3.147 2.01c-.181.287-18.438 28.888-27.388 41.416-8.685 12.164-12.481 31.365-12.519 31.558a1.868 1.868 0 0 1-1.831 1.513ZM311.666 267.096a1.87 1.87 0 0 1-1.676-2.692c.046-.095 1.206-2.485 7.072-16.368 6.01-14.222 33.282-56.831 34.44-58.638a1.864 1.864 0 0 1 2.581-.565 1.87 1.87 0 0 1 .563 2.582c-.281.439-28.257 44.145-34.144 58.076-5.968 14.125-7.115 16.47-7.161 16.563a1.869 1.869 0 0 1-1.675 1.042ZM352.071 202.903a1.866 1.866 0 0 1-1.575-2.869l8.021-12.635a1.863 1.863 0 0 1 2.577-.574c.87.552 1.13 1.705.575 2.577l-2.224 3.502c4.318-3.187 9.292-6.543 12.457-7.666a1.867 1.867 0 1 1 1.249 3.52c-4.841 1.719-15.996 10.483-19.887 13.714-.345.287-.77.431-1.193.431ZM322.299 268.587a1.87 1.87 0 0 1-1.711-2.614c.796-1.828 19.726-44.991 40.598-65.664 6.134-6.074 12.669-11.004 19.423-14.656a1.87 1.87 0 0 1 1.777 3.287c-6.442 3.482-12.689 8.201-18.57 14.024-20.366 20.17-39.61 64.059-39.802 64.501a1.87 1.87 0 0 1-1.715 1.122ZM74.833 620.079c2.416-2.762 5.35-4.228 8.715-4.228 3.367 0 6.558.345 9.58.949l1.81-5.608-1.725-.519c-3.453-.862-6.643-1.294-9.665-1.294-3.279 0-6.299.69-8.972 2.244-2.676 1.468-4.92 3.365-6.645 5.694-1.812 2.33-3.28 5.092-4.488 8.112-2.243 5.694-3.366 11.736-3.366 18.208 0 8.886 4.487 13.287 13.462 13.287 3.45 0 7.163-.517 11.304-1.64l.519-5.953-1.555.259c-3.364.518-6.558.776-9.32.776-4.485 0-6.641-2.415-6.641-7.248 0-4.4.515-8.715 1.638-12.77 1.207-4.056 2.934-7.508 5.349-10.269ZM133.941 639.926h-12.339l11.045-23.298h1.639l-.345 23.298Zm-5.694-29.856-21.746 46.08h7.593l4.574-9.581h15.1v9.581h7.422l.431-46.08h-13.374ZM203.058 610.068l-8.629 38.227h-1.034l-4.403-38.227h-12.338l-10.701 46.08h7.163l8.975-38.658h1.034l4.832 38.658h11.736l10.697-46.08h-7.332ZM251.897 639.926h-12.339l10.96-23.298h1.725l-.346 23.298Zm-5.694-29.856-21.746 46.08h7.507l4.66-9.581h15.1v9.581h7.423l.431-46.08h-13.375ZM314.715 631.986c-.604 2.848-1.465 5.609-2.501 8.284-1.122 2.675-2.674 4.919-4.659 6.731-1.984 1.725-4.142 2.675-6.56 2.675h-8.024l7.508-33.049h7.249c2.674 0 4.657.604 5.953 1.726 1.293 1.122 1.899 3.02 1.899 5.609a37.9 37.9 0 0 1-.865 8.024Zm-5.52-21.917h-14.583l-10.703 46.079h16.311c3.797 0 7.246-.95 10.354-2.935 3.021-1.898 5.437-4.487 7.249-7.679 3.624-6.471 5.522-13.634 5.522-21.572 0-9.234-4.746-13.893-14.15-13.893ZM366.229 639.926h-12.338l11.044-23.298h1.64l-.346 23.298Zm-5.694-29.856-21.659 46.08h7.509l4.658-9.581h15.014v9.581h7.508l.345-46.08h-13.375ZM433.707 620.341c0-3.193-1.034-5.523-3.108-6.989-2.068-1.553-5.262-2.331-9.662-2.331-4.488 0-8.716.864-12.857 2.417l-.691 5.09 1.727-.258a59.24 59.24 0 0 1 10.182-.863c4.488 0 6.731 1.725 6.731 5.004 0 2.157-.95 4.141-2.936 5.782-1.984 1.639-3.969 2.502-5.953 2.589l-8.714.344-1.383 5.609 8.545.087c2.414 0 4.141.432 5.176 1.207 1.034.778 1.552 1.985 1.552 3.624 0 2.762-1.034 4.833-3.018 6.472-2.071 1.554-4.574 2.329-7.682 2.329-3.105 0-7.075-.344-12.165-1.121l-1.552 5.179 1.898.602c1.207.432 2.932.864 5.175 1.209 2.244.431 4.314.604 6.302.604 5.52 0 10.008-1.468 13.458-4.314 3.454-2.848 5.179-6.559 5.179-11.304 0-2.417-.432-4.142-1.123-5.438-.689-1.206-1.898-2.243-3.623-3.191 2.934-1.295 5.091-2.934 6.471-4.833 1.381-1.897 2.071-4.4 2.071-7.506ZM482.718 627.245c-1.379 1.382-3.019 2.502-4.833 3.193h-6.21c-1.382-.691-2.33-1.38-2.762-2.156-.519-.691-.777-1.727-.777-2.935 0-2.071.864-3.883 2.676-5.521 1.811-1.554 4.228-2.417 7.246-2.417 4.574 0 6.904 1.811 6.904 5.264 0 1.64-.775 3.106-2.244 4.572Zm-5.003 20.624c-1.899 1.812-4.4 2.675-7.336 2.675-2.847 0-4.919-.431-6.039-1.295-1.21-.863-1.812-2.331-1.812-4.314 0-1.985.776-3.625 2.157-5.091 1.467-1.381 3.278-2.416 5.436-3.106h6.212c1.642.518 2.762 1.206 3.366 1.984.689.691 1.035 1.811 1.035 3.279 0 2.071-1.035 4.056-3.019 5.868ZM484.1 633.2c5.867-3.02 8.886-7.421 8.886-13.288 0-2.589-1.206-4.747-3.45-6.471-2.244-1.641-5.522-2.418-9.837-2.418-6.039 0-10.786 1.467-14.152 4.488-3.364 3.019-5.09 6.558-5.09 10.613 0 1.38.259 2.675.689 3.623.433 1.037 1.469 2.159 3.022 3.453-2.676 1.38-4.919 3.279-6.818 5.522-1.984 2.243-2.932 4.747-2.932 7.68 0 7.075 4.571 10.613 13.718 10.613 6.213 0 11.218-1.553 14.928-4.659 3.623-3.194 5.523-6.73 5.523-10.614 0-3.968-1.555-6.817-4.487-8.542ZM63.79 290.03h-6.3v-3.106c0-.95.258-1.554.69-2.072.519-.431 1.295-.604 2.33-.604 2.157 0 3.28.863 3.28 2.676v3.106Zm2.069 0v-3.106c0-1.726-.43-3.02-1.38-3.884-.862-.948-2.245-1.38-3.97-1.38-3.45 0-5.175 1.812-5.175 5.264v5.608h15.357v-2.502H65.86ZM67.413 274.411c-.863.518-2.33.691-4.314.691-2.07 0-3.54-.259-4.487-.777-.863-.517-1.382-1.467-1.382-2.848 0-1.38.519-2.416 1.382-2.848.948-.517 2.416-.776 4.487-.776 2.07 0 3.45.173 4.314.69.865.518 1.294 1.468 1.294 2.934 0 1.467-.43 2.416-1.294 2.934Zm1.64-7.765c-1.294-.95-3.28-1.382-5.954-1.382-2.761 0-4.746.432-6.04 1.382-1.295.948-1.987 2.501-1.987 4.831 0 2.331.692 3.884 1.988 4.832 1.293.949 3.278 1.381 6.04 1.381 2.674 0 4.659-.432 5.953-1.381 1.208-.862 1.898-2.501 1.898-4.832 0-2.33-.69-3.969-1.898-4.831ZM69.743 251.976c-.777-.862-1.984-1.38-3.623-1.38-1.296 0-2.246.345-2.762.95-.604.689-1.123 1.725-1.553 3.278-.431 1.554-.777 2.502-1.122 2.934-.259.432-.778.691-1.467.691-1.295 0-1.985-.95-1.985-2.848 0-.863.172-2.33.345-4.402l-1.985-.258-.172.777a25.25 25.25 0 0 0-.347 4.142c0 1.553.346 2.847 1.037 3.71.692.949 1.812 1.38 3.194 1.38 1.38 0 2.33-.345 3.02-1.122.604-.69 1.122-1.811 1.467-3.278.43-1.467.775-2.33 1.034-2.762.346-.431.778-.69 1.467-.69 1.641 0 2.416.949 2.416 2.848 0 1.036-.086 2.588-.345 4.573l1.984.259.089-.776c.343-1.553.516-2.935.516-4.229 0-1.639-.432-2.848-1.208-3.797ZM57.575 240.328v-4.4h-2.24v11.217h2.24v-4.314h13.116v-2.503H57.575ZM65.169 230.059l-7.766-1.898v-1.123l7.766-1.812v4.833Zm5.521-6.213v-2.502l-15.357 3.797v5.004l15.357 3.796v-2.502l-3.277-.862v-5.868l3.277-.863ZM70.778 209.005c-.173-1.209-.259-2.071-.343-2.503H62.58v4.4h2.244v-1.897h3.71c.173.518.173 1.38.173 2.415 0 1.553-.346 2.589-1.206 3.106-.865.433-2.332.691-4.488.691-2.244 0-3.71-.258-4.487-.776-.865-.518-1.207-1.553-1.207-2.934 0-1.467.084-3.107.342-4.919l-1.984-.086-.172.863c-.26 1.64-.433 3.107-.433 4.401 0 2.243.605 3.796 1.901 4.66 1.207.948 3.277 1.379 5.954 1.379 2.762 0 4.745-.431 6.04-1.294 1.294-.862 1.984-2.502 1.984-4.832 0-.517-.086-1.466-.173-2.674ZM68.447 191.488v7.249h-4.485v-5.868h-2.157v5.868H57.49v-7.249h-2.157v9.665H70.69v-9.665h-2.243ZM63.79 176.906h-6.3V173.8c0-.95.258-1.64.69-2.072.519-.431 1.295-.604 2.33-.604 2.157 0 3.28.863 3.28 2.676v3.106Zm2.069 0v-3.193c0-1.726-.43-3.02-1.38-3.883-.862-.862-2.245-1.294-3.97-1.294-3.45 0-5.175 1.726-5.175 5.177v5.695h15.357v-2.502H65.86ZM67.413 161.2c-.863.518-2.33.777-4.314.777-2.07 0-3.54-.259-4.487-.777-.863-.518-1.382-1.466-1.382-2.847 0-1.466.519-2.416 1.382-2.934.948-.517 2.416-.776 4.487-.776 2.07 0 3.45.259 4.314.776.865.518 1.294 1.468 1.294 2.934 0 1.381-.43 2.329-1.294 2.847Zm1.64-7.765c-1.294-.863-3.28-1.381-5.954-1.381-2.761 0-4.746.518-6.04 1.381-1.295.949-1.987 2.588-1.987 4.918 0 2.244.692 3.883 1.988 4.833 1.293.949 3.278 1.38 6.04 1.38 2.674 0 4.659-.431 5.953-1.38 1.208-.95 1.898-2.589 1.898-4.833 0-2.33-.69-3.969-1.898-4.918ZM69.743 138.852c-.777-.948-1.984-1.38-3.623-1.38-1.296 0-2.246.345-2.762.95-.604.603-1.123 1.724-1.553 3.192-.431 1.553-.777 2.588-1.122 3.02-.259.431-.778.691-1.467.691-1.295 0-1.985-.95-1.985-2.848 0-.863.172-2.416.345-4.488l-1.985-.172-.172.776a25.04 25.04 0 0 0-.347 4.056c0 1.64.346 2.847 1.037 3.797.692.862 1.812 1.294 3.194 1.294 1.38 0 2.33-.345 3.02-1.036.604-.69 1.122-1.811 1.467-3.279.43-1.466.775-2.415 1.034-2.847.346-.432.778-.604 1.467-.604 1.641 0 2.416.949 2.416 2.762 0 1.122-.086 2.589-.345 4.659l1.984.259.089-.863c.343-1.554.516-2.933.516-4.228 0-1.553-.432-2.762-1.208-3.711ZM57.575 127.117v-4.313h-2.24v11.216h2.24v-4.401h13.116v-2.502H57.575ZM68.447 108.823v7.162h-4.485v-5.781h-2.157v5.781H57.49v-7.162h-2.157v9.665H70.69v-9.665h-2.243ZM69.743 95.794c-.777-.95-1.984-1.38-3.623-1.38-1.296 0-2.246.26-2.762.949-.604.604-1.123 1.64-1.553 3.193-.431 1.552-.777 2.502-1.122 3.02-.259.431-.778.603-1.467.603-1.295 0-1.985-.948-1.985-2.847 0-.863.172-2.33.345-4.4l-1.985-.173-.172.776a25.025 25.025 0 0 0-.347 4.056c0 1.64.346 2.847 1.037 3.797.692.862 1.812 1.294 3.194 1.294 1.38 0 2.33-.345 3.02-1.036.604-.776 1.122-1.812 1.467-3.279.43-1.466.775-2.415 1.034-2.848.346-.43.778-.603 1.467-.603 1.641 0 2.416.95 2.416 2.762 0 1.035-.086 2.588-.345 4.659l1.984.172.089-.777c.343-1.553.516-2.933.516-4.227 0-1.553-.432-2.848-1.208-3.71ZM488.845 92.947c-1.38-.948-3.711-1.466-7.075-1.466-3.279 0-5.696.518-7.075 1.466-1.467.863-2.244 2.675-2.244 5.264 0 1.64.259 3.365.604 5.091l2.417-.087c-.26-1.553-.432-3.192-.432-4.745s.518-2.59 1.466-3.107c.864-.604 2.675-.863 5.264-.863 2.503 0 4.314.26 5.177.863.95.518 1.468 1.64 1.468 3.193 0 1.553-.173 3.106-.432 4.659l2.33.173c.432-1.898.688-3.624.688-5.177 0-2.59-.688-4.315-2.156-5.264ZM475.385 115.036l-.173-.43c-.259-1.036-.431-1.9-.431-2.762 0-1.121.604-1.639 1.811-1.639 1.21 0 1.899.603 1.985 1.812l.259 3.019h-3.451Zm10.095-6.902-2.07.086.085.862c.174 1.641.174 3.02.174 4.142 0 .605-.087 1.035-.346 1.382-.345.258-.778.43-1.465.43h-.952l-.345-3.365c-.087-1.466-.43-2.589-1.034-3.278-.605-.69-1.553-1.036-2.848-1.036-2.847 0-4.228 1.295-4.228 3.883 0 1.466.345 2.848 1.036 4.228-.691.777-1.036 1.985-1.036 3.452l2.244.086c0-.345.171-.691.345-.863.172-.172.432-.259.862-.259h5.956c1.465 0 2.588-.346 3.276-1.036.692-.777 1.037-1.898 1.037-3.451 0-1.639-.259-3.365-.691-5.263ZM485.048 126.34h.778v-2.761h-13.03v2.848h10.096l.172.345c.345.863.518 1.726.518 2.588 0 .95-.259 1.554-.864 1.899-.602.259-1.638.431-3.019.431h-6.903v2.848h6.99c2.243 0 3.883-.346 4.832-.949 1.035-.691 1.553-1.899 1.553-3.625 0-1.122-.432-2.329-1.123-3.624ZM485.826 140.492v-1.64h-2.417v1.64h-6.039c-1.898 0-3.194.259-3.883.862-.691.518-1.036 1.554-1.036 3.021 0 .603.172 1.467.345 2.674l2.33-.085-.086-2.158c0-.69.172-1.036.517-1.208.344-.173 1.035-.259 2.072-.259h5.78v3.625h2.417v-3.625h3.796v-2.847h-3.796ZM491.26 151.365h-18.465v2.847h10.269l.086.432c.345.862.432 1.638.432 2.502 0 .949-.259 1.553-.864 1.898-.603.259-1.639.432-3.019.432h-6.904v2.847h6.991c2.243 0 3.882-.345 4.832-.949 1.035-.604 1.554-1.812 1.554-3.538 0-1.121-.346-2.33-1.038-3.624h6.126v-2.847ZM475.385 174.576l-.173-.432c-.259-1.036-.431-1.899-.431-2.762 0-1.12.604-1.639 1.811-1.639 1.21 0 1.899.604 1.985 1.812l.259 3.021h-3.451Zm10.095-6.904-2.07.086.085.863c.174 1.641.174 3.02.174 4.142 0 .605-.087 1.036-.346 1.381-.345.259-.778.432-1.465.432h-.952l-.345-3.366c-.087-1.467-.43-2.589-1.034-3.279-.605-.69-1.553-1.035-2.848-1.035-2.847 0-4.228 1.294-4.228 3.883 0 1.466.345 2.847 1.036 4.227-.691.777-1.036 1.986-1.036 3.452l2.244.086c0-.344.171-.69.345-.862.172-.173.432-.259.862-.259h5.956c1.465 0 2.588-.346 3.276-1.035.692-.777 1.037-1.899 1.037-3.452 0-1.639-.259-3.366-.691-5.264ZM484.273 185.88h1.553v-2.762h-13.03v2.847h9.147l.173.518c.516 1.121.861 2.33 1.207 3.883h2.848a14.317 14.317 0 0 0-1.898-4.486ZM482.977 201.67c-.517.345-1.379.604-2.673.604v-5.522c1.206 0 2.156.258 2.673.69.518.431.777 1.122.777 2.071 0 1.036-.259 1.725-.777 2.157Zm-3.797-7.765c-2.33 0-4.055.431-5.091 1.208-1.034.862-1.639 2.243-1.639 4.228 0 1.553.259 3.279.605 5.264l2.157-.088-.087-.689c-.086-1.295-.173-2.59-.173-3.797 0-1.294.26-2.071.776-2.589.518-.432 1.296-.69 2.418-.69v8.111l1.985.172c3.968 0 6.04-1.812 6.04-5.522 0-3.711-2.33-5.608-6.991-5.608ZM491.261 210.041h-18.465v2.847h18.465v-2.847ZM491.261 218.754h-18.465v2.847h18.465v-2.847ZM479.009 230.06h6.817v-2.935h-6.817c-2.418 0-4.143.346-5.092.95-.949.603-1.466 1.812-1.466 3.624 0 1.035.431 2.243 1.12 3.538h-.775v2.848h13.03v-2.848h-10.097l-.172-.432c-.345-.777-.517-1.639-.517-2.588 0-.95.259-1.553.777-1.812.516-.259 1.639-.345 3.192-.345ZM485.134 244.297c-.688-.949-1.724-1.381-3.018-1.381-1.382 0-2.243.345-2.762.95-.518.69-.863 1.726-1.123 3.192-.257 1.381-.429 2.33-.689 2.675-.172.346-.517.518-1.036.518-.516 0-.948-.172-1.121-.518-.259-.431-.345-1.122-.345-1.984 0-.95.086-2.416.432-4.574l-2.417-.086-.086.777c-.346 1.639-.518 3.02-.518 4.056 0 1.724.345 3.019 1.036 3.882.603.863 1.639 1.294 3.019 1.294 1.379 0 2.33-.259 2.848-.863.519-.689.95-1.725 1.207-3.106.26-1.467.432-2.416.691-2.847.173-.346.518-.518.948-.518.518 0 .864.172 1.037.518.258.345.345.949.345 1.898s-.172 2.416-.432 4.487l2.417.086.086-.863a19.01 19.01 0 0 0 .431-4.055c0-1.467-.345-2.675-.95-3.538ZM484.618 266.473c-1.036-.863-2.848-1.294-5.264-1.294-2.416 0-4.229.431-5.265 1.208-1.034.862-1.638 2.243-1.638 4.227 0 .863.172 2.244.517 3.97l2.244-.087-.172-3.02c0-1.38.259-2.33.95-2.76.602-.432 1.725-.605 3.364-.605 1.639 0 2.762.173 3.364.691.604.431.864 1.294.864 2.674 0 .605-.087 1.64-.173 3.02l2.243.087.087-.605c.259-1.294.432-2.415.432-3.279 0-1.983-.519-3.364-1.553-4.227ZM472.796 282.268h13.03v-2.85h-13.03v2.85Zm15.273 0h3.022v-2.85h-3.022v2.85ZM485.048 290.633h.778v-2.762h-13.03v2.849h10.096l.172.345c.345.863.518 1.639.518 2.588 0 .95-.259 1.554-.864 1.812-.602.345-1.638.518-3.019.518h-6.903v2.761h6.99c2.243 0 3.883-.258 4.832-.949 1.035-.604 1.553-1.812 1.553-3.538 0-1.121-.432-2.329-1.123-3.624ZM485.048 307.029h.778v-2.848h-13.03v2.848h10.096l.172.431c.345.777.518 1.639.518 2.503 0 .949-.259 1.639-.864 1.898-.602.345-1.638.431-3.019.431h-6.903v2.848h6.99c2.243 0 3.883-.345 4.832-.949 1.035-.604 1.553-1.812 1.553-3.538 0-1.122-.432-2.329-1.123-3.624ZM475.385 327.393l-.173-.432c-.259-.949-.431-1.898-.431-2.761 0-1.122.604-1.64 1.811-1.64 1.21 0 1.899.604 1.985 1.813l.259 3.02h-3.451Zm10.095-6.903-2.07.086.085.862c.174 1.64.174 3.021.174 4.142 0 .604-.087 1.036-.346 1.381-.345.345-.778.432-1.465.432h-.952l-.345-3.366c-.087-1.467-.43-2.502-1.034-3.278-.605-.691-1.553-1.036-2.848-1.036-2.847 0-4.228 1.295-4.228 3.883 0 1.467.345 2.848 1.036 4.227-.691.865-1.036 1.986-1.036 3.453l2.244.086c0-.345.171-.604.345-.777.172-.258.432-.345.862-.345h5.956c1.465 0 2.588-.345 3.276-1.035.692-.691 1.037-1.899 1.037-3.452 0-1.639-.259-3.366-.691-5.263ZM482.632 343.615c-.603.345-1.726.604-3.278.604-1.553 0-2.675-.259-3.364-.777-.606-.431-.951-1.38-.951-2.761 0-.345 0-.949.086-1.985h7.938l.173.432c.259.863.345 1.726.345 2.502 0 .95-.345 1.554-.949 1.985Zm8.628-7.679h-18.465l-.085.862c-.174 1.812-.26 3.106-.26 3.883 0 2.416.518 4.055 1.552 5.005.951.949 2.763 1.381 5.266 1.381 2.589 0 4.4-.346 5.35-1.209 1.035-.777 1.553-2.07 1.553-3.883 0-.948-.259-2.071-.777-3.279h5.866v-2.76ZM475.385 358.888l-.173-.519c-.259-.949-.431-1.897-.431-2.761 0-1.035.604-1.553 1.811-1.553 1.21 0 1.899.605 1.985 1.812l.259 3.021h-3.451Zm10.095-6.904-2.07.087.085.777c.174 1.725.174 3.106.174 4.227 0 .603-.087 1.036-.346 1.381-.345.259-.778.432-1.465.432h-.952l-.345-3.366c-.087-1.467-.43-2.589-1.034-3.279-.605-.69-1.553-1.035-2.848-1.035-2.847 0-4.228 1.294-4.228 3.882 0 1.382.345 2.848 1.036 4.229-.691.776-1.036 1.985-1.036 3.451l2.244.087c0-.432.171-.691.345-.864.172-.172.432-.258.862-.258h5.956c1.465 0 2.588-.431 3.276-1.122.692-.691 1.037-1.811 1.037-3.452 0-1.553-.259-3.278-.691-5.177ZM484.273 370.191h1.553v-2.847h-13.03v2.847h9.147l.173.604c.516 1.037.861 2.33 1.207 3.884h2.848c-.345-1.554-.95-3.02-1.898-4.488ZM472.796 381.755h13.03v-2.85h-13.03v2.85Zm15.273 0h3.022v-2.85h-3.022v2.85ZM485.048 390.124h.778v-2.847h-13.03v2.847h10.096l.172.432c.345.777.518 1.638.518 2.502 0 .949-.259 1.64-.864 1.899-.602.345-1.638.431-3.019.431h-6.903v2.848h6.99c2.243 0 3.883-.346 4.832-.95 1.035-.604 1.553-1.811 1.553-3.538 0-1.121-.432-2.329-1.123-3.624ZM479.009 406.347h6.817v-2.848h-6.817c-2.418 0-4.143.345-5.092.949-.949.603-1.466 1.813-1.466 3.624 0 1.036.431 2.244 1.12 3.537h-.775v2.763h13.03v-2.763h-10.097l-.172-.43c-.345-.777-.517-1.64-.517-2.588 0-.951.259-1.554.777-1.813.516-.259 1.639-.431 3.192-.431ZM485.134 420.67c-.688-.949-1.724-1.379-3.018-1.379-1.382 0-2.243.343-2.762.947-.518.691-.863 1.727-1.123 3.194-.257 1.379-.429 2.244-.689 2.674-.172.346-.517.517-1.036.517-.516 0-.948-.171-1.121-.603-.259-.344-.345-1.036-.345-1.898 0-.949.086-2.503.432-4.573l-2.417-.088-.086.777c-.346 1.64-.518 3.021-.518 4.056 0 1.726.345 2.934 1.036 3.883.603.863 1.639 1.294 3.019 1.294 1.379 0 2.33-.345 2.848-.948.519-.604.95-1.641 1.207-3.106.26-1.382.432-2.331.691-2.762.173-.346.518-.517.948-.517.518 0 .864.171 1.037.517.258.345.345.949.345 1.897 0 .951-.172 2.417-.432 4.488h2.417l.086-.776c.346-1.641.431-3.02.431-4.142 0-1.382-.345-2.589-.95-3.452ZM363.885 264.121h-17.264a1.866 1.866 0 0 1-1.867-1.867c0-1.033.835-1.868 1.867-1.868h17.264c1.033 0 1.868.835 1.868 1.868a1.866 1.866 0 0 1-1.868 1.867ZM252.274 560.043c-1.558 0-3.068-.734-4.369-2.123-2.887-3.184-4.53-9.301-4.205-15.606l.021-.898v-9.931c0-1.032.836-1.866 1.868-1.866s1.868.834 1.868 1.866l-.024 10.932c-.318 6.188 1.387 10.953 3.219 12.971.383.41.994.92 1.622.92a1.867 1.867 0 1 1 0 3.735Z"
  />
  <path
    fill="var(--foreground, currentColor)"
    d="M253.881 560.042c-1.851 0-1.932-1.749-2.006-3.293-.098-2.656-.211-8.017.141-14.275l-.004-10.597a1.868 1.868 0 1 1 3.736 0v10.702a156.976 156.976 0 0 0-.141 14.013c.024.48.044.842.066 1.058a1.866 1.866 0 0 1-1.792 2.392Z"
  />
  <path
    fill="var(--foreground, currentColor)"
    d="M255.511 560.044a1.866 1.866 0 1 1 0-3.735c.342 0 .802-.307 1.26-.842 1.834-2.148 3.188-7.072 3.537-12.85.024-.278.02-.682.02-.858V531.58a1.868 1.868 0 1 1 3.735 0v10.179c0 .274-.007.937-.036 1.186-.39 6.544-2.044 12.171-4.416 14.949-1.519 1.779-3.068 2.15-4.1 2.15Z"
  />
  <path
    fill="var(--foreground, currentColor)"
    d="M257.142 560.05a1.866 1.866 0 0 1-1.868-1.868c0-1.032.835-1.867 1.868-1.867a9.344 9.344 0 0 0 4.6-1.234c3.875-2.19 6.514-6.904 6.881-12.305.024-.258.021-.63.021-.862v-11.449a1.867 1.867 0 1 1 3.735 0v11.449c0 .327-.004.852-.031 1.159-.452 6.596-3.812 12.461-8.767 15.26a13.092 13.092 0 0 1-6.439 1.717ZM491.786 77.282H55.943a1.867 1.867 0 1 1 0-3.735h435.843a1.867 1.867 0 1 1 0 3.735ZM491.786 86.282H55.943a1.867 1.867 0 1 1 0-3.735h435.843a1.867 1.867 0 1 1 0 3.735ZM491.786 58.282H55.943a1.867 1.867 0 1 1 0-3.735h435.843a1.867 1.867 0 1 1 0 3.735ZM491.786 67.282H55.943a1.867 1.867 0 1 1 0-3.735h435.843a1.867 1.867 0 1 1 0 3.735Z"
  />
</svg>
