<svg width="549" height="710" viewBox="0 0 549 710" fill="none" xmlns="http://www.w3.org/2000/svg">
  <path
    stroke="var(--outline, currentColor)"
    stroke-width="2"
    fill="var(--background)"
    d="M530.538 55.1816C530.538 55.4816 530.558 55.7816 530.568 56.0616C530.638 57.6116 530.908 59.1316 531.348 60.5516C533.618 67.7916 540.338 73.0716 548.288 73.1816V91.7416C538.468 91.9016 530.538 99.9016 530.538 109.772C530.538 112.972 531.388 115.992 532.868 118.612C533.598 119.912 534.478 121.112 535.518 122.172C538.288 125.102 542.068 127.102 546.288 127.632C546.948 127.722 547.608 127.772 548.288 127.782V146.162C547.708 146.162 547.138 146.192 546.578 146.252C546.538 146.272 546.498 146.272 546.458 146.282C545.878 146.342 545.318 146.432 544.758 146.552C543.988 146.722 543.228 146.932 542.498 147.192C542.288 147.282 542.078 147.352 541.878 147.432C541.818 147.462 541.758 147.482 541.698 147.502C541.508 147.592 541.318 147.662 541.128 147.752C540.938 147.842 540.748 147.922 540.568 148.022C540.408 148.102 540.258 148.172 540.108 148.252C539.668 148.492 539.238 148.742 538.818 149.022C538.608 149.152 538.408 149.282 538.218 149.412C537.998 149.562 537.778 149.722 537.568 149.902C537.348 150.052 537.148 150.222 536.938 150.412C536.738 150.562 536.538 150.742 536.338 150.932C536.138 151.112 535.948 151.302 535.758 151.492C535.378 151.872 535.018 152.272 534.678 152.682C532.178 155.682 530.648 159.502 530.548 163.682C530.538 163.912 530.538 164.122 530.538 164.352C530.538 164.472 530.538 164.592 530.548 164.702C530.548 164.912 530.548 165.112 530.568 165.312C530.578 165.532 530.588 165.752 530.618 165.972C530.628 166.182 530.648 166.392 530.678 166.602C530.708 166.802 530.728 167.002 530.768 167.202C530.808 167.472 530.868 167.742 530.918 168.002C530.968 168.262 531.028 168.532 531.098 168.792C531.148 168.982 531.198 169.172 531.248 169.352C531.318 169.572 531.378 169.782 531.448 169.992C531.508 170.182 531.578 170.382 531.648 170.572C531.718 170.772 531.798 170.962 531.878 171.152C531.978 171.412 532.088 171.662 532.208 171.912C532.288 172.082 532.368 172.252 532.458 172.422C532.458 172.422 532.468 172.442 532.468 172.452C532.608 172.732 532.758 173.002 532.908 173.272C532.928 173.302 532.948 173.332 532.958 173.362C533.098 173.592 533.238 173.812 533.378 174.032C533.568 174.322 533.758 174.612 533.968 174.892C534.208 175.222 534.458 175.552 534.718 175.862C534.888 176.072 535.068 176.272 535.248 176.462C535.268 176.492 535.298 176.512 535.318 176.542C535.438 176.672 535.558 176.802 535.678 176.922C535.848 177.092 536.018 177.262 536.188 177.412C536.208 177.442 536.238 177.462 536.258 177.482C536.278 177.502 536.288 177.522 536.308 177.532C536.358 177.582 536.418 177.632 536.468 177.682C536.748 177.932 537.038 178.182 537.328 178.412C537.598 178.632 537.868 178.842 538.158 179.032C538.338 179.162 538.518 179.282 538.698 179.402C538.908 179.542 539.118 179.682 539.338 179.812C539.688 180.022 540.048 180.222 540.408 180.402C542.778 181.602 545.458 182.302 548.288 182.352V200.722C547.698 200.732 547.118 200.782 546.548 200.842C546.258 200.862 545.968 200.912 545.688 200.962C545.458 200.982 545.228 201.032 545.008 201.072C544.678 201.152 544.348 201.222 544.018 201.302C543.748 201.372 543.478 201.442 543.208 201.542C542.938 201.612 542.678 201.712 542.418 201.802C542.158 201.902 541.898 201.992 541.638 202.102C541.378 202.212 541.128 202.322 540.878 202.442C540.628 202.552 540.378 202.682 540.138 202.812C539.888 202.942 539.648 203.072 539.408 203.222C539.208 203.342 539.028 203.442 538.838 203.572C538.528 203.782 538.228 203.982 537.928 204.212C537.738 204.342 537.558 204.472 537.378 204.622C536.948 204.962 536.538 205.312 536.138 205.712C532.688 208.972 530.538 213.602 530.538 218.742V218.922C530.538 220.302 530.688 221.632 530.998 222.912C531.058 223.202 531.128 223.472 531.208 223.752C531.278 224.032 531.368 224.302 531.458 224.572C531.508 224.762 531.568 224.932 531.648 225.112C531.648 225.132 531.668 225.162 531.678 225.182C531.678 225.192 531.688 225.212 531.698 225.222C531.718 225.282 531.738 225.352 531.768 225.412C531.868 225.722 532.008 226.022 532.138 226.322C532.468 227.072 532.858 227.802 533.308 228.502C533.518 228.852 533.758 229.192 533.998 229.532C534.148 229.742 534.318 229.972 534.498 230.172C534.658 230.402 534.828 230.602 535.028 230.802C535.188 231.022 535.378 231.222 535.578 231.412C535.758 231.602 535.948 231.792 536.138 231.972L536.768 232.542C536.968 232.722 537.178 232.902 537.398 233.052C537.558 233.192 537.728 233.322 537.908 233.442C537.988 233.522 538.078 233.572 538.158 233.632C538.348 233.772 538.538 233.902 538.728 234.022C538.908 234.152 539.098 234.252 539.288 234.362C539.488 234.492 539.698 234.612 539.908 234.722C540.128 234.852 540.358 234.972 540.588 235.072C540.778 235.172 540.978 235.272 541.178 235.352C542.348 235.882 543.578 236.292 544.858 236.552C545.378 236.662 545.908 236.752 546.448 236.812C546.488 236.812 546.518 236.822 546.548 236.822C547.118 236.882 547.698 236.922 548.288 236.932V255.312C541.928 255.412 536.348 258.802 533.218 263.862C531.648 266.422 530.678 269.402 530.558 272.592C530.548 272.842 530.538 273.072 530.538 273.322V273.502C530.538 273.712 530.538 273.902 530.558 274.092C530.558 274.482 530.588 274.882 530.638 275.282C530.708 276.102 530.848 276.912 531.038 277.722C531.398 279.222 531.958 280.652 532.658 281.982C535.658 287.592 541.518 291.412 548.288 291.522V309.882C540.008 310.032 533.078 315.722 531.098 323.422C530.818 324.572 530.628 325.782 530.568 327.002V327.102C530.548 327.372 530.538 327.632 530.538 327.912V328.092C530.538 328.352 530.548 328.612 530.558 328.872C530.778 333.912 533.058 338.382 536.568 341.532H536.578C539.698 344.322 543.788 346.042 548.288 346.102V364.472C539.508 364.602 532.228 371.022 530.808 379.442C530.668 380.202 530.588 380.962 530.558 381.742C530.548 381.992 530.538 382.232 530.538 382.482V382.662C530.538 382.922 530.548 383.172 530.558 383.432C530.558 383.612 530.568 383.792 530.588 383.972C530.608 384.282 530.638 384.592 530.678 384.892C530.718 385.232 530.768 385.552 530.828 385.882C530.938 386.512 531.088 387.132 531.268 387.732C531.458 388.432 531.708 389.112 531.998 389.762C532.178 390.202 532.388 390.632 532.608 391.042C532.718 391.252 532.828 391.462 532.948 391.662C533.408 392.482 533.948 393.262 534.548 393.992C534.698 394.172 534.848 394.352 534.998 394.532C535.158 394.712 535.308 394.882 535.478 395.052C535.638 395.222 535.798 395.392 535.968 395.552C536.718 396.292 537.528 396.952 538.398 397.542C538.598 397.692 538.818 397.822 539.028 397.962C539.158 398.042 539.288 398.122 539.418 398.192C539.588 398.292 539.748 398.392 539.928 398.482C540.338 398.712 540.768 398.922 541.198 399.112C541.408 399.202 541.618 399.292 541.838 399.382C541.848 399.392 541.858 399.392 541.868 399.392C542.078 399.482 542.308 399.562 542.528 399.642C542.748 399.722 542.978 399.802 543.208 399.872C543.438 399.942 543.668 400.012 543.908 400.072C544.138 400.132 544.368 400.192 544.608 400.242C544.848 400.292 545.088 400.342 545.328 400.382C545.548 400.422 545.758 400.462 545.978 400.492C546.028 400.502 546.068 400.502 546.108 400.512C546.318 400.542 546.518 400.562 546.728 400.582C546.778 400.592 546.828 400.592 546.878 400.602C547.348 400.642 547.818 400.662 548.288 400.672V419.042C548.058 419.042 547.828 419.052 547.588 419.092C543.758 419.282 540.268 420.672 537.448 422.902C535.908 424.112 534.568 425.562 533.488 427.212C531.778 429.802 530.728 432.862 530.568 436.162C530.548 436.482 530.538 436.812 530.538 437.162V437.242C530.538 437.542 530.548 437.852 530.568 438.152C530.588 438.692 530.648 439.232 530.728 439.772C530.778 440.102 530.828 440.432 530.898 440.752C530.928 440.922 530.958 441.092 530.998 441.252C531.168 442.002 531.378 442.732 531.648 443.442C531.698 443.592 531.758 443.752 531.818 443.902C531.938 444.202 532.068 444.492 532.198 444.782C532.338 445.092 532.498 445.402 532.658 445.702C532.838 446.042 533.028 446.382 533.238 446.702C533.258 446.752 533.288 446.792 533.308 446.822C533.508 447.152 533.728 447.472 533.958 447.782C533.968 447.792 533.978 447.802 533.978 447.812C534.208 448.132 534.448 448.452 534.708 448.752C534.888 448.972 535.078 449.182 535.268 449.392C535.868 450.052 536.528 450.672 537.228 451.252C537.388 451.372 537.558 451.502 537.728 451.632C537.878 451.752 538.038 451.862 538.198 451.972C538.458 452.162 538.728 452.332 538.998 452.502C539.578 452.872 540.198 453.212 540.828 453.502C541.048 453.612 541.268 453.712 541.498 453.812C541.528 453.832 541.568 453.842 541.608 453.852C541.808 453.942 542.018 454.022 542.228 454.102C542.878 454.352 543.538 454.552 544.218 454.722C544.358 454.762 544.508 454.792 544.648 454.822C544.848 454.872 545.048 454.912 545.258 454.942C545.498 454.992 545.738 455.032 545.988 455.062C546.158 455.092 546.338 455.122 546.508 455.132C547.098 455.202 547.688 455.242 548.288 455.252V473.632C543.708 473.702 539.538 475.482 536.398 478.382C535.278 479.392 534.298 480.552 533.468 481.822C532.648 483.052 531.998 484.402 531.518 485.822C531.008 487.282 530.698 488.802 530.588 490.402C530.578 490.402 530.578 490.432 530.588 490.442C530.568 490.662 530.558 490.872 530.548 491.092C530.548 491.342 530.538 491.592 530.538 491.842C530.538 492.072 530.548 492.322 530.558 492.562C530.638 494.662 531.098 496.672 531.838 498.542C531.998 498.942 532.168 499.332 532.358 499.712C532.368 499.742 532.388 499.772 532.398 499.802C532.538 500.072 532.678 500.332 532.818 500.592C532.898 500.732 532.978 500.872 533.058 501.002C533.248 501.332 533.458 501.652 533.668 501.962C533.878 502.272 534.098 502.572 534.318 502.862C534.638 503.272 534.978 503.662 535.328 504.042C535.538 504.272 535.768 504.502 535.998 504.732C536.618 505.332 537.288 505.892 537.998 506.402C538.218 506.552 538.438 506.702 538.658 506.852C539.758 507.602 540.938 508.212 542.168 508.672H542.208C544.098 509.412 546.158 509.802 548.288 509.842V528.222C545.048 528.272 542.018 529.172 539.408 530.722C534.668 533.512 531.318 538.432 530.658 544.162C530.608 544.612 530.568 545.092 530.558 545.562C530.548 545.722 530.548 545.882 530.538 546.052V546.412C530.538 546.552 530.538 546.722 530.548 546.862C530.548 547.052 530.558 547.252 530.578 547.442C530.588 547.632 530.598 547.822 530.628 548.002C530.638 548.232 530.658 548.462 530.698 548.692C530.778 549.382 530.898 550.062 531.068 550.722C531.168 551.162 531.298 551.592 531.448 552.022C531.508 552.242 531.588 552.452 531.668 552.662C532.358 554.552 533.368 556.282 534.618 557.802C534.778 558.022 534.958 558.222 535.148 558.422C535.318 558.622 535.508 558.822 535.698 559.022C536.078 559.412 536.468 559.782 536.878 560.112C537.088 560.292 537.288 560.472 537.508 560.622C537.688 560.782 537.868 560.912 538.058 561.042C538.118 561.092 538.178 561.132 538.248 561.172C538.438 561.312 538.638 561.442 538.838 561.562C539.048 561.722 539.258 561.852 539.478 561.972C539.528 561.992 539.578 562.032 539.628 562.052C539.828 562.172 540.038 562.292 540.248 562.382C540.548 562.542 540.848 562.692 541.158 562.842C541.198 562.862 541.248 562.882 541.288 562.892C541.438 562.962 541.578 563.022 541.728 563.072C541.978 563.182 542.228 563.292 542.488 563.372C542.948 563.542 543.428 563.682 543.908 563.812C544.138 563.872 544.368 563.932 544.598 563.982C545.238 564.132 545.898 564.242 546.568 564.312C547.138 564.372 547.708 564.412 548.288 564.422V582.792C548.018 582.792 547.718 582.812 547.448 582.842C546.488 582.902 545.558 583.032 544.648 583.232C543.928 583.392 543.228 583.592 542.548 583.842C541.918 584.052 541.318 584.312 540.728 584.602H540.718C534.708 587.532 530.548 593.672 530.548 600.812C530.548 603.172 531.018 605.432 531.848 607.522C533.228 610.942 535.608 613.842 538.668 615.842C539.768 616.572 540.948 617.182 542.178 617.662H542.218C542.988 617.952 543.788 618.202 544.608 618.382C545.798 618.652 547.038 618.802 548.298 618.812V637.372C547.448 637.392 546.608 637.462 545.788 637.592C542.348 638.122 539.228 639.622 536.728 641.812C535.608 642.792 534.628 643.882 533.798 645.102C531.758 648.002 530.548 651.562 530.548 655.382C530.548 665.162 538.328 673.092 548.028 673.402C548.048 673.702 548.068 674.002 548.078 674.292C548.148 675.382 548.218 676.472 548.288 677.542C548.288 677.572 548.288 677.592 548.298 677.622V692.282C548.298 692.282 548.258 692.282 548.228 692.282C548.028 692.252 547.818 692.232 547.608 692.222C547.458 692.202 547.298 692.192 547.148 692.182C546.848 692.172 546.538 692.162 546.228 692.162C545.958 692.162 545.668 692.162 545.408 692.162C544.948 692.182 544.488 692.222 544.048 692.282C537.318 693.102 531.728 697.612 529.398 703.752C528.848 705.192 528.478 706.732 528.318 708.342C528.268 708.802 528.228 709.292 528.228 709.782H509.658C509.468 700.572 502.378 693.072 493.358 692.222C493.078 692.192 492.778 692.172 492.478 692.162C492.208 692.162 491.918 692.162 491.648 692.162C491.178 692.162 490.728 692.162 490.278 692.202C490.078 692.232 489.858 692.232 489.668 692.262C483.418 692.942 478.138 696.812 475.478 702.222C474.798 703.602 474.298 705.072 473.988 706.622C473.798 707.662 473.668 708.702 473.648 709.792H455.078C454.878 700.802 448.128 693.432 439.418 692.312C439.138 692.282 438.858 692.242 438.568 692.232C438.178 692.182 437.798 692.172 437.408 692.172C437.298 692.172 437.168 692.172 437.068 692.172H436.978C436.728 692.172 436.488 692.172 436.238 692.172C435.728 692.202 435.228 692.252 434.718 692.312C434.548 692.352 434.378 692.362 434.208 692.392C429.108 693.202 424.738 696.132 422.038 700.252V700.282C421.178 701.552 420.508 702.912 420.008 704.372C419.438 706.072 419.108 707.892 419.068 709.792H400.478C400.298 700.282 392.738 692.602 383.298 692.172C383.038 692.172 382.758 692.172 382.478 692.172H382.398C377.198 692.192 372.518 694.432 369.228 697.982C368.228 699.072 367.358 700.312 366.638 701.622C365.298 704.062 364.538 706.842 364.478 709.802H345.908C345.728 701.152 339.468 694.012 331.238 692.492C330.708 692.372 330.168 692.302 329.608 692.242C329.328 692.212 329.028 692.192 328.728 692.182C328.458 692.182 328.178 692.182 327.908 692.182C327.638 692.182 327.358 692.182 327.088 692.182C326.858 692.192 326.658 692.202 326.448 692.232C326.208 692.232 325.968 692.262 325.728 692.302C325.278 692.342 324.838 692.432 324.398 692.512C324.158 692.562 323.918 692.622 323.688 692.672C323.518 692.702 323.358 692.752 323.188 692.802C321.078 693.372 319.118 694.312 317.398 695.552C316.208 696.402 315.128 697.402 314.178 698.512C311.578 701.572 309.988 705.502 309.898 709.802H291.328C291.138 700.692 284.218 693.262 275.348 692.292C275.108 692.252 274.878 692.242 274.648 692.212H274.608C274.418 692.192 274.228 692.182 274.048 692.182C273.798 692.182 273.568 692.182 273.328 692.182C273.038 692.182 272.738 692.182 272.468 692.182C272.168 692.192 271.898 692.212 271.608 692.242C271.048 692.302 270.478 692.372 269.948 692.482C268.848 692.682 267.798 692.992 266.778 693.392C265.418 693.932 264.158 694.612 262.978 695.432C258.458 698.622 255.448 703.862 255.318 709.802H236.738C236.548 700.592 229.468 693.082 220.458 692.242C220.168 692.212 219.878 692.192 219.578 692.182C219.298 692.182 219.028 692.182 218.738 692.182C218.508 692.182 218.278 692.182 218.048 692.182C217.668 692.182 217.298 692.202 216.938 692.252C216.728 692.272 216.548 692.302 216.358 692.312C215.268 692.452 214.208 692.702 213.198 693.042C206.078 695.342 200.908 701.942 200.728 709.802H182.168C182.008 702.072 176.988 695.562 170.048 693.182C169.828 693.092 169.608 693.022 169.378 692.952C169.278 692.922 169.168 692.882 169.068 692.862C168.888 692.812 168.708 692.752 168.528 692.712C167.668 692.492 166.798 692.332 165.898 692.252C165.728 692.242 165.588 692.232 165.418 692.212C165.168 692.192 164.898 692.182 164.628 692.182H164.588C164.448 692.182 164.298 692.182 164.168 692.182H164.078C163.798 692.182 163.528 692.182 163.238 692.182C162.668 692.212 162.098 692.272 161.528 692.362C161.518 692.362 161.488 692.362 161.478 692.362C152.918 693.622 146.348 700.922 146.158 709.792H127.588C127.468 704.202 124.828 699.252 120.738 696.032C119.448 695.002 117.988 694.162 116.448 693.512C114.398 692.672 112.168 692.182 109.798 692.172C109.728 692.172 109.658 692.172 109.578 692.172C108.958 692.172 108.338 692.192 107.728 692.252C107.468 692.292 107.218 692.312 106.958 692.362C106.708 692.382 106.448 692.432 106.198 692.482C105.948 692.522 105.698 692.572 105.448 692.632C98.2777 694.322 92.7576 700.302 91.7376 707.712C91.6476 708.392 91.5877 709.092 91.5777 709.802H73.0077C72.9477 707.122 72.3176 704.582 71.2076 702.322C70.3876 700.642 69.3377 699.112 68.0677 697.782C67.9277 697.632 67.7877 697.482 67.6377 697.342C64.5877 694.342 60.4777 692.422 55.9177 692.182C55.6077 692.182 55.3177 692.182 55.0077 692.182C54.7577 692.182 54.5077 692.182 54.2577 692.182C53.9577 692.192 53.6677 692.212 53.3777 692.242C44.2977 693.052 37.1776 700.562 36.9876 709.802H18.4177C18.3777 707.542 17.9177 705.382 17.1077 703.402C16.2877 701.382 15.1177 699.542 13.6577 697.962C10.6677 694.712 6.49766 692.572 1.81766 692.212C1.65766 692.202 1.48765 692.192 1.33765 692.182C1.13765 692.182 0.94764 692.182 0.73764 692.182H0.587646V673.432C9.04765 673.192 16.0677 667.132 17.7277 659.122C17.9777 657.932 18.1077 656.692 18.1077 655.412C18.1077 654.802 18.0876 654.162 18.0176 653.562C17.1076 644.812 9.95765 637.942 1.08765 637.452C0.917646 637.442 0.757646 637.412 0.587646 637.412V618.832C10.3176 618.572 18.1077 610.632 18.1077 600.842C18.1077 598.532 17.6977 596.342 16.8877 594.322C16.3777 592.962 15.6777 591.692 14.8577 590.522C14.4777 589.972 14.0677 589.452 13.6277 588.952C13.6077 588.942 13.5877 588.912 13.5777 588.902C10.3877 585.302 5.74765 582.992 0.587646 582.832V564.442C9.04765 564.202 16.0677 558.152 17.7277 550.132C17.9777 548.942 18.1077 547.702 18.1077 546.442C18.1077 546.272 18.1077 546.102 18.0977 545.942C18.0977 545.752 18.0877 545.572 18.0777 545.382C18.0777 545.102 18.0576 544.832 18.0176 544.572C17.9876 544.302 17.9577 544.022 17.9177 543.752C17.1977 538.472 14.1877 533.942 9.90765 531.152C8.19765 530.052 6.28764 529.212 4.23764 528.742C3.06764 528.452 1.83765 528.302 0.587646 528.252V509.852C9.80765 509.592 17.2877 502.452 18.0377 493.382C18.0877 492.882 18.1077 492.382 18.1077 491.872V491.682C18.1077 491.262 18.1077 490.852 18.0777 490.462C17.4677 481.252 9.90765 473.942 0.587646 473.682V455.272C0.757646 455.272 0.917646 455.262 1.08765 455.252C6.00765 454.992 10.4077 452.752 13.5077 449.312C16.0477 446.502 17.6876 442.882 18.0276 438.882C18.0576 438.582 18.0776 438.302 18.0876 438.002C18.1076 437.762 18.1077 437.522 18.1077 437.272V437.092C18.1077 434.102 17.3877 431.282 16.0977 428.812C15.3377 427.332 14.3577 425.972 13.2577 424.782C10.0677 421.392 5.58765 419.242 0.587646 419.092V400.692C9.16765 400.452 16.2576 394.252 17.7976 386.062C17.9576 385.272 18.0477 384.462 18.0777 383.642C18.0977 383.322 18.1077 383.012 18.1077 382.692C18.1077 382.492 18.1077 382.282 18.0977 382.082C18.0977 381.882 18.0877 381.692 18.0777 381.492C17.5577 372.182 9.97765 364.772 0.587646 364.512V346.122C10.2976 345.852 18.0777 337.942 18.1077 328.182V328.122C18.1077 327.752 18.0977 327.382 18.0777 327.002C18.0277 325.872 17.8777 324.752 17.6077 323.692C15.7377 315.942 8.85765 310.152 0.587646 309.932V291.532C5.29765 291.402 9.59764 289.452 12.7376 286.342C14.0476 285.072 15.1677 283.582 16.0377 281.952C16.2777 281.492 16.5076 281.002 16.7076 280.512C16.8176 280.262 16.9177 280.012 16.9977 279.762C17.0977 279.512 17.1877 279.262 17.2577 279.002C17.3377 278.742 17.4177 278.492 17.4777 278.222C17.5577 277.962 17.6177 277.702 17.6677 277.432C17.8477 276.692 17.9576 275.932 18.0176 275.152C18.0476 274.932 18.0677 274.702 18.0777 274.472C18.0977 274.162 18.1077 273.852 18.1077 273.532C18.1077 273.212 18.0976 272.932 18.0876 272.632C18.0776 272.322 18.0576 272.032 18.0276 271.752C17.2376 262.702 9.77765 255.592 0.587646 255.352V236.952C1.01765 236.942 1.43767 236.912 1.85767 236.882C2.27767 236.832 2.69767 236.772 3.10767 236.702C3.65767 236.622 4.18765 236.502 4.71765 236.352C4.98765 236.302 5.24766 236.212 5.50766 236.132C5.76766 236.062 6.02765 235.962 6.27765 235.872C6.53765 235.772 6.78766 235.682 7.03766 235.572C7.28766 235.462 7.53765 235.352 7.77765 235.242C8.02765 235.132 8.26765 235.002 8.49765 234.882C8.73765 234.752 8.96766 234.632 9.19766 234.492C9.42766 234.352 9.65765 234.212 9.87766 234.072C10.1077 233.932 10.3277 233.782 10.5377 233.622C10.7377 233.482 10.9477 233.332 11.1377 233.172C11.1477 233.172 11.1577 233.162 11.1677 233.152C11.3477 233.012 11.5176 232.872 11.6776 232.732C11.7076 232.712 11.7377 232.692 11.7577 232.662C11.9377 232.512 12.1177 232.362 12.2877 232.192C12.4677 232.032 12.6577 231.852 12.8277 231.672C13.0077 231.502 13.1777 231.322 13.3477 231.132C13.5177 230.942 13.6876 230.762 13.8376 230.562C16.1476 227.862 17.6577 224.452 18.0077 220.722C18.0277 220.532 18.0476 220.352 18.0576 220.162C18.0776 219.972 18.0877 219.782 18.0977 219.592C18.1077 219.452 18.1077 219.312 18.1077 219.152V218.772C18.1077 218.532 18.0976 218.302 18.0876 218.072C18.0176 216.092 17.6276 214.212 16.9576 212.452C16.7776 211.942 16.5577 211.442 16.3177 210.942C15.9677 210.212 15.5677 209.512 15.1277 208.842C15.1177 208.832 15.1077 208.832 15.1077 208.822C14.8177 208.382 14.4977 207.942 14.1577 207.512C13.8177 207.092 13.4576 206.692 13.0876 206.312C12.9076 206.102 12.7076 205.912 12.5176 205.742C12.3276 205.552 12.1277 205.372 11.9177 205.192C11.7177 205.002 11.5076 204.832 11.2976 204.682C11.0976 204.502 10.8977 204.352 10.6877 204.202C10.4377 204.022 10.1877 203.852 9.93765 203.692C9.72765 203.552 9.51764 203.412 9.29764 203.302C9.06764 203.142 8.82765 203.012 8.58765 202.892C8.35765 202.752 8.11765 202.632 7.86765 202.522C7.61765 202.402 7.36765 202.282 7.11765 202.192C6.87765 202.072 6.62766 201.992 6.37766 201.892C5.63766 201.622 4.87766 201.382 4.09766 201.202C3.82766 201.142 3.54764 201.082 3.26764 201.052C3.03764 201.002 2.80766 200.962 2.56766 200.942C2.21766 200.882 1.85765 200.842 1.49765 200.822C1.19765 200.782 0.897646 200.772 0.587646 200.762V182.372C1.89765 182.332 3.16764 182.152 4.39764 181.852C6.64764 181.312 8.72766 180.332 10.5677 179.022C11.0977 178.652 11.5977 178.242 12.0777 177.812C12.3177 177.602 12.5576 177.382 12.7776 177.152C12.9476 177.002 13.0977 176.842 13.2477 176.672C13.2677 176.652 13.2776 176.632 13.2976 176.612C13.3176 176.602 13.3276 176.582 13.3376 176.572C13.4376 176.472 13.5276 176.372 13.6176 176.262C13.7376 176.142 13.8477 176.012 13.9477 175.882C14.0977 175.712 14.2376 175.532 14.3676 175.352C14.6176 175.042 14.8477 174.722 15.0677 174.382C15.1877 174.202 15.3077 174.022 15.4177 173.832C15.4277 173.812 15.4377 173.802 15.4477 173.782C15.5677 173.592 15.6876 173.402 15.7976 173.192C15.8076 173.172 15.8177 173.162 15.8277 173.142C15.9377 172.952 16.0377 172.762 16.1377 172.562C16.2477 172.352 16.3477 172.142 16.4477 171.922C16.4477 171.902 16.4477 171.892 16.4677 171.872C16.5277 171.752 16.5877 171.622 16.6377 171.492C16.6977 171.362 16.7476 171.232 16.7976 171.102C16.9076 170.842 17.0077 170.572 17.0977 170.302C17.1277 170.232 17.1477 170.162 17.1677 170.092C17.2477 169.882 17.3176 169.662 17.3676 169.442C17.3976 169.362 17.4177 169.272 17.4377 169.192C17.4377 169.172 17.4477 169.162 17.4477 169.142C17.5077 168.962 17.5577 168.782 17.5977 168.602C17.6377 168.442 17.6776 168.282 17.7076 168.112C17.7376 167.972 17.7676 167.822 17.7976 167.672C17.8276 167.482 17.8577 167.282 17.8877 167.082C17.9177 166.922 17.9377 166.762 17.9477 166.602C17.9477 166.562 17.9677 166.532 17.9677 166.492C17.9977 166.272 18.0177 166.052 18.0377 165.822C18.0677 165.562 18.0776 165.282 18.0876 165.012C18.1076 164.812 18.1077 164.592 18.1077 164.382C18.1077 164.072 18.0976 163.762 18.0876 163.462C18.0776 163.182 18.0576 162.882 18.0276 162.592C17.8776 160.752 17.4476 159.002 16.7776 157.352C14.1376 150.942 7.90765 146.392 0.587646 146.192V127.802C2.63765 127.752 4.58764 127.342 6.39764 126.652C6.58764 126.592 6.77764 126.522 6.95764 126.442C7.36764 126.272 7.76765 126.092 8.15765 125.902C11.9377 124.012 14.9577 120.832 16.6377 116.942C17.2277 115.632 17.6377 114.212 17.8577 112.752C18.0377 111.802 18.1077 110.812 18.1077 109.802C18.1077 100.002 10.3176 92.0616 0.587646 91.7816V73.2016C2.62765 73.1516 4.54766 72.7516 6.37766 72.0816C13.2277 69.5616 18.1077 62.9516 18.1077 55.2116C18.1077 52.8016 17.6376 50.4716 16.7776 48.3816C14.1376 41.9616 7.90765 37.4116 0.587646 37.2116V18.6916C0.857646 18.6916 1.10766 18.6916 1.38766 18.6616C1.66766 18.6416 1.96766 18.6316 2.25766 18.5916C11.3477 17.6616 18.4477 9.99161 18.4477 0.651611C18.4477 0.491611 18.4177 0.321611 18.4177 0.151611H36.9876C36.9876 0.321611 36.9777 0.491611 36.9777 0.651611C36.9777 10.3516 44.6276 18.2716 54.2376 18.6616C54.4876 18.6816 54.7577 18.6916 55.0077 18.6916H55.1677C65.0477 18.5916 73.0176 10.5516 73.0176 0.651611C73.0176 0.491611 72.9876 0.321611 72.9876 0.151611H91.5777C91.5777 0.321611 91.5476 0.491611 91.5476 0.651611C91.5476 1.57161 91.6277 2.45161 91.7577 3.32161C92.9877 11.7016 100.008 18.2016 108.608 18.6616C108.918 18.6816 109.258 18.6916 109.578 18.6916H109.648C109.948 18.6916 110.228 18.6916 110.528 18.6516C110.728 18.6416 110.918 18.6316 111.108 18.6216C111.318 18.6016 111.508 18.5816 111.708 18.5616C112.008 18.5116 112.298 18.4716 112.608 18.4316C112.908 18.3816 113.208 18.3216 113.488 18.2516C115.228 17.8716 116.868 17.2416 118.368 16.4016C119.948 15.5116 121.378 14.4016 122.608 13.1016C125.698 9.88161 127.608 5.49161 127.608 0.651611C127.608 0.491611 127.588 0.321611 127.588 0.151611H146.168C146.168 0.321611 146.138 0.491611 146.138 0.651611C146.138 9.99161 153.228 17.6616 162.328 18.5916C162.548 18.6216 162.768 18.6316 162.988 18.6416C163.108 18.6516 163.228 18.6616 163.338 18.6616C163.608 18.6816 163.888 18.6916 164.168 18.6916C164.448 18.6916 164.738 18.6916 165.038 18.6516C165.338 18.6516 165.628 18.6316 165.918 18.5816C165.948 18.5916 165.978 18.5916 166.008 18.5816C166.938 18.5016 167.838 18.3316 168.718 18.1016C170.488 17.6416 172.168 16.9016 173.698 15.9416C178.798 12.7616 182.198 7.10161 182.198 0.651611C182.198 0.491611 182.168 0.321611 182.158 0.151611H200.728C200.728 0.321611 200.718 0.491611 200.718 0.651611C200.718 7.81161 204.888 13.9916 210.928 16.9116C211.338 17.1016 211.748 17.3116 212.178 17.4616C212.398 17.5516 212.608 17.6316 212.838 17.7016C213.148 17.8216 213.468 17.9116 213.788 18.0016C214.218 18.1316 214.648 18.2416 215.088 18.3216C215.398 18.3816 215.718 18.4416 216.038 18.5016C216.288 18.5216 216.538 18.5616 216.788 18.5816C216.828 18.5816 216.858 18.5916 216.898 18.5916C217.198 18.6316 217.488 18.6416 217.798 18.6616H217.828C218.098 18.6816 218.378 18.6916 218.658 18.6916H218.738C219.038 18.6916 219.338 18.6916 219.608 18.6616C229.158 18.2116 236.768 10.3216 236.768 0.651611C236.768 0.491611 236.738 0.321611 236.738 0.151611H255.328C255.318 0.321611 255.298 0.491611 255.298 0.651611C255.298 6.83161 258.408 12.2816 263.158 15.5316C264.328 16.3516 265.608 17.0116 266.978 17.5216C267.838 17.8516 268.718 18.1016 269.628 18.3016C269.658 18.3016 269.698 18.3216 269.738 18.3216C270.148 18.4016 270.578 18.4916 271.008 18.5316C271.488 18.5916 271.988 18.6416 272.488 18.6616C272.768 18.6816 273.048 18.6916 273.328 18.6916C273.608 18.6916 273.888 18.6916 274.168 18.6616C283.728 18.2216 291.358 10.3216 291.358 0.651611C291.358 0.491611 291.328 0.321611 291.318 0.151611H309.898C309.898 0.321611 309.878 0.491611 309.878 0.651611C309.878 4.60161 311.158 8.26161 313.298 11.2416C314.168 12.4316 315.168 13.5016 316.288 14.4416C317.988 15.8816 319.978 17.0116 322.138 17.7516C322.158 17.7516 322.168 17.7516 322.198 17.7616C322.578 17.8916 322.978 18.0116 323.378 18.1216C323.388 18.1216 323.408 18.1216 323.418 18.1216C323.538 18.1416 323.668 18.1816 323.788 18.1916C324.108 18.2716 324.448 18.3416 324.788 18.4016C324.818 18.4216 324.848 18.4216 324.878 18.4316C325.338 18.4916 325.798 18.5616 326.268 18.6116C326.538 18.6116 326.798 18.6416 327.088 18.6516C327.358 18.6716 327.628 18.6816 327.908 18.6816C328.188 18.6816 328.478 18.6816 328.758 18.6516C338.298 18.2116 345.918 10.3116 345.918 0.641602C345.918 0.481602 345.918 0.311602 345.918 0.141602H364.488C364.488 0.311602 364.478 0.481602 364.478 0.641602C364.478 2.6416 364.798 4.57161 365.418 6.37161C365.908 7.86161 366.578 9.25161 367.428 10.5416C369.808 14.1816 373.478 16.8916 377.778 18.0616C377.818 18.0616 377.858 18.0716 377.898 18.0816H377.928C378.418 18.2316 378.928 18.3216 379.448 18.4016C379.708 18.4516 379.958 18.5016 380.228 18.5416C380.458 18.5616 380.678 18.5716 380.918 18.5916C381.168 18.6216 381.408 18.6316 381.658 18.6516C381.908 18.6716 382.158 18.6816 382.408 18.6816H382.488C392.458 18.6816 400.528 10.5916 400.528 0.641602C400.528 0.481602 400.488 0.311602 400.488 0.141602H419.088C419.078 0.311602 419.048 0.481602 419.048 0.641602C419.048 0.961602 419.058 1.2916 419.078 1.6116C419.168 3.3216 419.488 4.99161 420.038 6.55161C421.968 12.1116 426.538 16.4316 432.238 18.0116C432.348 18.0516 432.448 18.0616 432.548 18.0916C432.758 18.1516 432.988 18.2016 433.218 18.2516C433.498 18.3116 433.768 18.3816 434.058 18.4316C434.328 18.4816 434.608 18.5116 434.888 18.5516C435.118 18.5716 435.368 18.5916 435.608 18.6216C435.828 18.6316 436.038 18.6416 436.238 18.6516C436.528 18.6716 436.798 18.6816 437.078 18.6816C437.308 18.6816 437.558 18.6816 437.808 18.6516C447.418 18.2716 455.108 10.3616 455.108 0.641602C455.108 0.481602 455.088 0.311602 455.078 0.141602H473.658C473.658 0.311602 473.638 0.481602 473.638 0.641602C473.638 1.3716 473.678 2.06161 473.748 2.76161C474.778 11.4416 481.948 18.2416 490.798 18.6516C491.078 18.6716 491.368 18.6816 491.658 18.6816C492.178 18.6816 492.718 18.6516 493.238 18.6116C493.268 18.6116 493.308 18.5916 493.338 18.5916C494.218 18.5116 495.088 18.3716 495.928 18.1516C496.188 18.0916 496.468 18.0116 496.728 17.9316C501.738 16.4916 505.828 12.9016 507.988 8.26161C509.078 5.95161 509.678 3.3716 509.678 0.641602C509.678 0.481602 509.678 0.311602 509.678 0.141602H528.248C528.248 0.311602 528.218 0.481602 528.218 0.641602C528.218 8.6816 533.468 15.4616 540.718 17.8116C540.808 17.8316 540.888 17.8716 540.968 17.8816C541.278 17.9916 541.598 18.0616 541.918 18.1416C542.368 18.2516 542.818 18.3616 543.288 18.4316C543.568 18.4916 543.868 18.5216 544.168 18.5616C544.848 18.6316 545.548 18.6816 546.248 18.6816C546.498 18.6816 546.748 18.6816 547.008 18.6516C547.058 18.6516 547.098 18.6416 547.148 18.6416C547.348 18.6316 547.558 18.6116 547.758 18.5916H547.778C547.778 18.5916 547.878 18.5916 547.918 18.5816C547.958 18.5816 547.998 18.5716 548.058 18.5716C548.098 18.5716 548.128 18.5616 548.188 18.5616C548.238 18.5616 548.278 18.5516 548.318 18.5416V37.1916C548.258 37.1916 548.198 37.1916 548.138 37.2016C538.398 37.4316 530.568 45.4016 530.568 55.2016L530.538 55.1816Z"
  />

  <path
    d="M121.268 551.462C118.388 551.052 116.178 550.042 114.618 548.352C113.058 546.662 112.288 544.382 112.288 541.472C112.288 538.562 113.028 535.862 114.508 533.322C115.988 530.792 118.068 528.572 120.738 526.722C123.408 524.872 126.558 523.542 130.168 522.802C132.828 522.252 135.268 522.172 137.488 522.542C139.708 522.912 141.588 523.702 143.118 524.882C144.648 526.062 145.738 527.562 146.398 529.362C143.758 530.372 142.448 530.902 139.808 531.982C139.408 530.912 138.768 530.042 137.888 529.362C137.008 528.682 135.928 528.222 134.628 528.002C133.338 527.782 131.908 527.822 130.358 528.142C128.198 528.582 126.308 529.372 124.668 530.462C123.038 531.562 121.778 532.892 120.898 534.432C120.018 535.972 119.578 537.642 119.578 539.422C119.578 541.182 120.068 542.602 121.048 543.692C122.028 544.792 123.418 545.462 125.208 545.732C126.998 546.002 129.088 545.892 131.478 545.412C133.288 545.052 134.948 544.492 136.448 543.722C137.958 542.952 139.198 542.032 140.198 540.942C141.188 539.852 141.878 538.672 142.248 537.382C144.948 537.522 146.288 537.612 148.988 537.822C148.438 539.972 147.348 541.922 145.728 543.682C144.108 545.442 142.058 546.922 139.568 548.132C137.078 549.342 134.348 550.242 131.358 550.842C127.488 551.622 124.118 551.842 121.248 551.432L121.268 551.462Z"
    fill="var(--foreground, currentColor)"
  />
  <path
    d="M164.288 519.112C167.678 518.912 169.368 518.832 172.758 518.732C177.298 527.612 181.788 536.522 186.238 545.452C183.198 545.412 181.678 545.402 178.628 545.432C177.588 543.322 177.068 542.262 176.028 540.162C169.928 540.272 166.878 540.402 160.778 540.852C159.738 543.052 159.218 544.152 158.178 546.362C155.118 546.612 153.588 546.762 150.538 547.112C155.068 537.752 159.648 528.422 164.278 519.112H164.288ZM174.268 535.602C171.948 530.852 170.788 528.492 168.468 523.792C168.438 523.792 168.428 523.792 168.388 523.792C166.068 528.702 164.908 531.172 162.588 536.122C167.258 535.812 169.588 535.712 174.258 535.602H174.268Z"
    fill="var(--foreground, currentColor)"
  />
  <path
    d="M199.368 545.962C197.168 545.352 195.198 544.542 193.458 543.542C191.708 542.542 190.338 541.452 189.338 540.272C190.618 538.552 191.258 537.702 192.538 535.992C193.368 537.072 194.508 538.052 195.948 538.922C197.388 539.802 199.038 540.512 200.898 541.082C202.758 541.652 204.598 541.992 206.438 542.122C207.918 542.222 209.208 542.192 210.318 542.012C211.428 541.832 212.278 541.512 212.898 541.052C213.508 540.592 213.818 540.042 213.818 539.412C213.818 538.582 213.278 537.862 212.198 537.262C211.118 536.662 209.408 536.142 207.078 535.722C204.848 535.252 203.738 535.022 201.508 534.582C197.668 533.892 194.878 532.952 193.148 531.702C191.418 530.452 190.548 528.722 190.548 526.482C190.548 524.722 191.148 523.202 192.358 521.922C193.568 520.642 195.258 519.702 197.438 519.122C199.618 518.542 202.148 518.342 205.008 518.522C206.868 518.642 208.688 518.962 210.468 519.472C212.248 519.982 213.868 520.652 215.328 521.472C216.788 522.292 217.978 523.202 218.908 524.192C217.808 525.772 217.258 526.572 216.158 528.152C215.328 527.302 214.328 526.532 213.148 525.842C211.968 525.152 210.678 524.592 209.288 524.162C207.898 523.732 206.448 523.492 204.978 523.412C203.608 523.332 202.348 523.382 201.228 523.602C200.108 523.812 199.248 524.152 198.628 524.592C198.008 525.042 197.718 525.592 197.708 526.202C197.698 526.942 198.108 527.562 198.988 528.032C199.868 528.502 201.258 528.912 203.168 529.282C205.398 529.692 206.508 529.902 208.738 530.332C213.008 531.152 216.108 532.322 218.038 533.782C219.968 535.242 220.958 537.142 220.978 539.412C220.978 541.182 220.358 542.692 219.118 543.922C217.878 545.152 216.128 546.022 213.888 546.572C211.638 547.122 209.048 547.292 206.108 547.092C203.828 546.942 201.588 546.552 199.388 545.942L199.368 545.962Z"
    fill="var(--foreground, currentColor)"
  />
  <path
    d="M226.568 521.302C237.508 522.492 242.968 523.232 253.908 524.772V529.672C245.808 528.522 241.748 527.972 233.648 527.002V533.032C241.148 533.932 244.898 534.432 252.398 535.482V539.852C244.898 538.802 241.148 538.292 233.648 537.402V543.992C241.898 544.982 246.028 545.542 254.288 546.712V551.642C243.198 550.072 237.658 549.322 226.568 548.112V521.302Z"
    fill="var(--foreground, currentColor)"
  />
  <path
    d="M259.898 525.632C263.828 526.202 265.798 526.492 269.728 527.082C274.008 535.852 276.148 540.242 280.418 549.012C280.438 549.012 280.438 549.012 280.458 549.012C284.708 541.512 286.828 537.762 291.078 530.252C295.038 530.832 297.018 531.112 300.978 531.672C300.978 542.392 300.978 547.762 300.978 558.482C298.188 558.092 296.798 557.892 294.008 557.492C294.008 549.792 294.008 545.942 294.008 538.252C293.978 538.252 293.968 538.252 293.928 538.242C289.938 545.362 287.938 548.912 283.948 556.022C281.218 555.612 279.858 555.412 277.128 555.002C273.048 546.692 271.008 542.542 266.918 534.232C266.888 534.232 266.878 534.232 266.838 534.222V553.462C264.048 553.052 262.658 552.842 259.868 552.442V525.632H259.898Z"
    fill="var(--foreground, currentColor)"
  />
  <path
    d="M319.698 534.112C323.088 534.512 324.777 534.702 328.167 535.062C332.637 544.422 337.128 553.772 341.648 563.112C338.608 562.872 337.087 562.742 334.037 562.452C332.997 560.232 332.478 559.122 331.438 556.892C325.337 556.292 322.288 555.942 316.188 555.192C315.148 557.192 314.628 558.182 313.588 560.182C310.528 559.792 308.998 559.592 305.948 559.182C310.548 550.842 315.128 542.482 319.688 534.122L319.698 534.112ZM329.677 552.122C327.357 547.082 326.198 544.552 323.878 539.492C323.848 539.492 323.837 539.492 323.797 539.492C321.477 544.042 320.317 546.302 317.997 550.832C322.667 551.392 324.997 551.662 329.667 552.132L329.677 552.122Z"
    fill="var(--foreground, currentColor)"
  />
  <path
    d="M352.568 542.401C348.038 542.161 345.768 542.011 341.238 541.651V536.271C351.168 537.111 361.248 537.561 371.208 537.521V542.901C366.688 542.901 364.428 542.861 359.908 542.721V564.151C356.968 564.051 355.498 563.991 352.568 563.841C352.568 555.271 352.568 550.981 352.568 542.411V542.401Z"
    fill="var(--foreground, currentColor)"
  />
  <path
    d="M376.407 537.472C387.347 537.272 392.807 536.952 403.747 535.622V540.522C395.647 541.512 391.587 541.822 383.487 542.162C383.487 544.572 383.487 545.782 383.487 548.192C390.987 547.872 394.737 547.592 402.237 546.732V551.102C394.737 551.972 390.987 552.242 383.487 552.562V559.152C391.737 558.802 395.868 558.482 404.128 557.462V562.392C393.038 563.762 387.497 564.092 376.417 564.292V537.482L376.407 537.472Z"
    fill="var(--foreground, currentColor)"
  />
  <path
    d="M418.638 560.192C416.438 560.102 414.468 559.721 412.728 559.061C410.978 558.401 409.608 557.551 408.608 556.541C409.888 554.611 410.528 553.642 411.808 551.692C412.638 552.612 413.778 553.371 415.218 553.931C416.658 554.501 418.308 554.842 420.168 554.942C422.028 555.042 423.868 554.891 425.708 554.481C427.188 554.151 428.478 553.711 429.588 553.181C430.698 552.651 431.548 552.041 432.168 551.371C432.778 550.701 433.088 550.051 433.088 549.421C433.088 548.591 432.548 548.062 431.468 547.822C430.388 547.582 428.678 547.621 426.348 547.901C424.118 548.091 423.008 548.171 420.778 548.301C416.938 548.591 414.148 548.211 412.418 547.301C410.688 546.381 409.818 544.801 409.818 542.561C409.818 540.801 410.418 539.181 411.628 537.671C412.838 536.161 414.528 534.892 416.708 533.822C418.888 532.752 421.418 531.921 424.278 531.311C426.138 530.911 427.958 530.681 429.738 530.621C431.518 530.561 433.138 530.681 434.598 530.971C436.058 531.271 437.248 531.731 438.178 532.361C437.078 534.361 436.528 535.361 435.428 537.351C434.598 536.801 433.598 536.381 432.418 536.101C431.238 535.811 429.948 535.681 428.558 535.681C427.168 535.681 425.718 535.881 424.248 536.211C422.878 536.521 421.618 536.901 420.498 537.401C419.378 537.901 418.518 538.441 417.898 539.031C417.278 539.621 416.988 540.241 416.978 540.861C416.968 541.611 417.378 542.132 418.258 542.392C419.138 542.652 420.528 542.732 422.438 542.582C424.668 542.392 425.778 542.281 428.008 542.031C432.278 541.531 435.378 541.561 437.308 542.291C439.238 543.021 440.228 544.521 440.248 546.781C440.258 548.551 439.628 550.312 438.388 552.022C437.148 553.722 435.398 555.261 433.158 556.591C430.908 557.921 428.318 558.932 425.378 559.582C423.098 560.092 420.858 560.291 418.658 560.211L418.638 560.192Z"
    fill="var(--foreground, currentColor)"
  />
  <path
    d="M180.388 583.602C178.188 583.112 176.218 582.422 174.478 581.512C172.728 580.612 171.358 579.612 170.358 578.492C171.638 576.692 172.278 575.802 173.558 574.022C174.388 575.052 175.518 575.962 176.968 576.752C178.408 577.542 180.058 578.172 181.918 578.642C183.778 579.112 185.618 579.362 187.448 579.392C188.928 579.422 190.218 579.322 191.328 579.092C192.438 578.862 193.288 578.502 193.908 578.012C194.518 577.522 194.828 576.962 194.828 576.332C194.828 575.502 194.288 574.812 193.208 574.262C192.128 573.712 190.418 573.272 188.088 572.972C185.858 572.612 184.748 572.442 182.518 572.122C178.678 571.632 175.888 570.852 174.158 569.702C172.428 568.552 171.558 566.872 171.558 564.642C171.558 562.882 172.158 561.322 173.368 559.972C174.578 558.622 176.268 557.582 178.448 556.882C180.628 556.182 183.158 555.842 186.018 555.882C187.878 555.912 189.698 556.132 191.478 556.562C193.258 556.992 194.878 557.582 196.338 558.342C197.798 559.092 198.988 559.952 199.918 560.902C198.818 562.532 198.268 563.352 197.168 564.982C196.338 564.162 195.338 563.442 194.158 562.802C192.978 562.172 191.688 561.672 190.298 561.302C188.908 560.932 187.458 560.772 185.988 560.762C184.618 560.762 183.358 560.872 182.238 561.142C181.118 561.412 180.258 561.792 179.638 562.282C179.018 562.762 178.728 563.332 178.718 563.942C178.708 564.682 179.118 565.282 179.998 565.702C180.878 566.122 182.268 566.462 184.178 566.722C186.408 567.012 187.518 567.162 189.748 567.492C194.018 568.102 197.118 569.142 199.048 570.512C200.978 571.892 201.968 573.742 201.988 576.022C201.988 577.792 201.368 579.332 200.128 580.602C198.888 581.882 197.138 582.832 194.898 583.482C192.648 584.132 190.058 584.422 187.118 584.372C184.838 584.332 182.598 584.072 180.398 583.572L180.388 583.602Z"
    fill="var(--foreground, currentColor)"
  />
  <path
    d="M216.178 584.322C213.288 582.862 211.048 581.002 209.438 578.722C207.828 576.442 207.028 573.892 207.028 571.052C207.028 568.212 207.838 565.832 209.458 563.752C211.078 561.682 213.328 560.162 216.198 559.222C219.068 558.282 222.388 558.012 226.158 558.422C229.948 558.832 233.278 559.832 236.138 561.382C238.998 562.942 241.238 564.922 242.838 567.322C244.448 569.712 245.248 572.322 245.248 575.132C245.248 577.942 244.438 580.292 242.818 582.252C241.198 584.212 238.968 585.612 236.118 586.462C233.268 587.312 229.948 587.522 226.158 587.122C222.388 586.712 219.068 585.792 216.178 584.332V584.322ZM232.278 581.272C234.048 580.712 235.438 579.822 236.438 578.572C237.438 577.332 237.948 575.852 237.948 574.142C237.948 572.432 237.448 570.802 236.438 569.322C235.428 567.842 234.048 566.612 232.278 565.642C230.508 564.672 228.468 564.052 226.158 563.802C223.828 563.552 221.768 563.722 219.998 564.322C218.228 564.912 216.838 565.852 215.838 567.122C214.838 568.392 214.328 569.892 214.328 571.622C214.328 573.352 214.828 574.912 215.838 576.362C216.838 577.822 218.228 579.012 219.998 579.952C221.768 580.892 223.818 581.482 226.158 581.732C228.468 581.982 230.508 581.832 232.278 581.272ZM227.118 594.202C225.898 593.582 224.968 592.742 224.318 591.702C223.668 590.652 223.338 589.462 223.338 588.132V585.872C225.398 586.082 226.438 586.192 228.498 586.422V588.002C228.498 588.852 228.828 589.562 229.498 590.112C230.168 590.662 231.098 591.012 232.298 591.152C233.528 591.292 234.728 591.212 235.898 590.902C237.068 590.592 238.098 589.992 239.008 589.102C239.968 590.442 240.458 591.112 241.418 592.462C240.688 593.272 239.808 593.922 238.778 594.402C237.748 594.882 236.608 595.212 235.348 595.392C234.098 595.562 232.778 595.572 231.398 595.412C229.768 595.222 228.338 594.822 227.128 594.192L227.118 594.202Z"
    fill="var(--foreground, currentColor)"
  />
  <path
    d="M258.708 589.602C256.258 588.232 254.378 586.472 253.058 584.312C251.738 582.152 251.078 579.662 251.078 576.822V562.472C254.018 562.882 255.488 563.092 258.418 563.512V577.562C258.418 579.322 258.778 580.852 259.508 582.162C260.238 583.472 261.278 584.512 262.628 585.292C263.988 586.072 265.568 586.592 267.378 586.862C269.208 587.132 270.788 587.082 272.128 586.702C273.458 586.322 274.498 585.592 275.238 584.492C275.978 583.402 276.348 581.982 276.348 580.252V566.172C279.268 566.612 280.728 566.832 283.658 567.262V581.612C283.658 584.452 282.988 586.752 281.658 588.522C280.328 590.292 278.448 591.502 276.008 592.162C273.578 592.812 270.698 592.892 267.388 592.402C264.048 591.902 261.158 590.972 258.708 589.602Z"
    fill="var(--foreground, currentColor)"
  />
  <path
    d="M300.078 569.662C303.468 570.142 305.158 570.372 308.548 570.822C313.028 580.322 317.518 589.822 322.028 599.302C318.988 598.952 317.468 598.772 314.418 598.382C313.378 596.132 312.858 595.002 311.818 592.742C305.718 591.962 302.668 591.532 296.568 590.662C295.528 592.642 295.008 593.622 293.968 595.602C290.908 595.162 289.378 594.932 286.328 594.482C290.918 586.212 295.498 577.942 300.078 569.662ZM310.058 587.922C307.738 582.812 306.578 580.252 304.258 575.132C304.228 575.132 304.218 575.132 304.178 575.122C301.858 579.612 300.698 581.852 298.378 586.322C303.048 586.982 305.378 587.302 310.048 587.912L310.058 587.922Z"
    fill="var(--foreground, currentColor)"
  />
  <path
    d="M352.908 602.172C352.108 601.782 351.438 601.272 350.908 600.652C350.378 600.032 349.868 599.342 349.368 598.582C348.558 596.932 348.148 596.112 347.338 594.462C346.858 593.632 346.248 592.962 345.488 592.452C344.738 591.952 343.918 591.662 343.038 591.592C339.578 591.332 337.838 591.182 334.378 590.862C334.378 594.752 334.378 596.692 334.378 600.582C331.438 600.312 329.968 600.162 327.038 599.842V573.032C335.578 573.942 339.848 574.332 348.388 574.872C350.648 575.012 352.568 575.452 354.148 576.192C355.728 576.932 356.958 577.932 357.818 579.192C358.688 580.452 359.118 581.942 359.118 583.642C359.118 584.972 358.798 586.152 358.158 587.182C357.518 588.212 356.618 589.052 355.468 589.692C354.308 590.332 352.928 590.712 351.328 590.822V590.862C351.828 591.172 352.298 591.542 352.738 591.972C353.178 592.412 353.548 592.922 353.848 593.512C354.648 595.002 355.048 595.742 355.848 597.222C356.128 597.632 356.418 597.962 356.718 598.202C357.018 598.442 357.388 598.572 357.808 598.582C358.158 598.592 358.538 598.482 358.958 598.252C359.368 598.012 359.708 597.712 359.958 597.342C360.638 598.642 360.978 599.292 361.648 600.592C360.968 601.322 360.088 601.892 358.988 602.292C357.898 602.692 356.798 602.872 355.698 602.822C354.648 602.772 353.718 602.552 352.908 602.162V602.172ZM346.508 587.262C347.608 587.332 348.558 587.242 349.348 586.992C350.138 586.742 350.738 586.332 351.158 585.782C351.568 585.232 351.778 584.532 351.778 583.702C351.778 582.922 351.568 582.232 351.158 581.632C350.748 581.032 350.138 580.542 349.348 580.152C348.558 579.762 347.618 579.532 346.538 579.462C341.658 579.132 339.218 578.932 334.338 578.472V586.262C339.198 586.712 341.638 586.922 346.498 587.242L346.508 587.262Z"
    fill="var(--foreground, currentColor)"
  />
  <path
    d="M366.538 575.592C377.478 575.742 382.938 575.612 393.878 574.722V579.622C385.778 580.282 381.718 580.442 373.618 580.512V586.542C381.118 586.482 384.868 586.342 392.368 585.772V590.142C384.868 590.712 381.118 590.852 373.618 590.912V597.502C381.868 597.432 385.998 597.262 394.258 596.582V601.512C383.168 602.432 377.628 602.562 366.548 602.412C366.548 591.692 366.548 586.322 366.548 575.602L366.538 575.592Z"
    fill="var(--foreground, currentColor)"
  />
  <path
    d="M72.5376 428.471C83.8576 423.041 95.6476 418.611 107.758 415.291C107.708 399.001 107.628 382.711 107.568 366.421C107.518 366.431 107.498 366.441 107.448 366.451C105.068 370.661 101.698 374.571 97.3376 378.381C92.9776 382.191 87.3476 386.341 80.4376 391.241C78.5576 384.991 77.6276 381.881 75.7476 375.671C83.6376 370.041 90.3176 365.011 95.7876 360.071C101.258 355.141 105.668 349.811 109.048 343.791C118.128 341.571 122.658 340.771 131.738 339.651C131.758 363.151 131.848 386.651 131.908 410.151C142.408 408.561 147.668 408.111 158.168 407.771C158.188 414.091 158.198 417.261 158.208 423.691C127.808 425.601 100.428 432.311 72.5476 444.611C72.5476 438.151 72.5476 434.921 72.5476 428.461L72.5376 428.471Z"
    fill="var(--foreground, currentColor)"
  />
  <path
    d="M197.738 389.061C205.578 378.491 215.438 369.501 226.148 361.901C205.558 358.591 185.308 355.781 164.458 354.961C164.428 348.281 164.418 344.921 164.418 338.111C194.428 339.461 223.798 344.731 253.398 349.571C253.448 355.551 253.498 358.531 253.608 364.461C242.828 372.171 233.118 381.481 225.468 392.321C218.078 402.791 212.738 414.631 209.778 427.101C200.388 425.541 190.738 424.461 181.238 423.971C184.478 411.421 190.018 399.481 197.748 389.071L197.738 389.061Z"
    fill="var(--foreground, currentColor)"
  />
  <path
    d="M302.518 408.532C310.018 397.542 319.238 387.742 329.698 379.512C309.408 376.182 289.148 372.682 268.888 369.162C268.768 362.352 268.728 358.932 268.718 352.102C298.128 356.952 327.528 362.192 357.078 366.092C357.178 372.142 357.267 375.222 357.497 381.442C346.647 390.152 337.247 400.552 330.107 412.502C323.287 423.902 318.398 436.382 315.398 449.312C305.838 447.342 296.298 445.242 286.778 443.072C290.038 430.772 295.338 419.052 302.518 408.542V408.532Z"
    fill="var(--foreground, currentColor)"
  />
  <path
    d="M404.598 460.672C397.758 458.922 391.668 456.252 386.328 452.882C380.978 449.512 376.448 445.532 372.728 441.052C377.228 435.892 379.458 433.232 383.938 427.742C386.868 431.842 390.448 435.392 394.698 438.302C398.938 441.222 403.708 443.372 408.998 444.642C414.288 445.912 419.988 446.312 426.108 445.672C432.558 445.002 438.238 442.952 443.178 439.652C448.108 436.362 451.918 432.062 454.608 426.952C457.288 421.852 458.628 416.142 458.588 409.932C454.408 415.272 449.958 419.382 445.248 422.212C440.538 425.042 434.488 427.062 427.098 427.932C417.898 429.022 409.848 428.012 402.908 425.432C395.968 422.852 390.578 418.942 386.728 414.002C382.888 409.062 380.828 403.402 380.608 397.132C380.388 390.772 382.368 385.262 386.568 380.392C390.768 375.522 396.698 371.732 404.318 368.622C411.938 365.512 420.608 363.342 430.268 361.782C441.018 360.042 450.188 359.352 457.778 360.252C465.368 361.152 471.208 363.802 475.308 368.732C479.418 373.662 481.408 381.192 481.458 391.452C481.518 402.892 479.528 414.612 475.358 425.202C471.828 434.172 464.388 444.282 456.948 450.262C448.258 457.252 437.528 460.632 427.058 462.192C419.338 463.342 411.448 462.412 404.608 460.652L404.598 460.672ZM444.668 407.422C448.618 405.112 451.708 402.332 453.928 399.232C456.148 396.132 457.248 392.862 457.238 389.512C457.218 386.162 456.088 383.492 453.828 381.452C451.568 379.412 448.388 378.192 444.288 377.672C440.188 377.152 435.538 377.362 430.348 378.182C425.328 378.972 420.848 380.252 416.938 382.092C413.018 383.932 410.008 386.162 407.888 388.892C405.768 391.622 404.758 394.552 404.828 397.742C404.908 400.932 406.088 403.742 408.348 406.132C410.608 408.522 413.738 410.322 417.748 411.422C421.748 412.522 426.228 412.772 431.188 412.042C436.228 411.302 440.728 409.732 444.678 407.422H444.668Z"
    fill="var(--foreground, currentColor)"
  />
  <path
    d="M81.3776 304.791V313.661H77.1676V290.201H81.3776V299.041H98.1476V304.791H81.3776Z"
    fill="var(--foreground, currentColor)"
  />
  <path
    d="M76.7776 283.821L77.1676 278.121L85.1076 278.671L86.0576 264.911L78.1176 264.361L78.5076 258.661L99.4376 260.101L99.0476 265.801L90.1376 265.191L89.1876 278.951L98.0976 279.561L97.7076 285.261L76.7776 283.821Z"
    fill="var(--foreground, currentColor)"
  />
  <path
    d="M80.0276 249.712L84.8976 228.882L88.6276 229.752L85.0176 245.192L89.6076 246.262L92.9476 231.972L96.2776 232.752L92.9376 247.042L97.9576 248.212L101.638 232.492L105.398 233.372L100.458 254.492L80.0276 249.712Z"
    fill="var(--foreground, currentColor)"
  />
  <path
    d="M112.648 212.381C110.858 214.011 108.948 214.991 106.908 215.351C104.868 215.701 102.828 215.371 100.788 214.371C98.7575 213.371 97.2675 211.981 96.2975 210.211C95.3275 208.441 94.8975 206.421 95.0075 204.131C95.1175 201.851 95.7975 199.441 97.0475 196.901C97.9675 195.031 99.0775 193.451 100.378 192.151C101.678 190.851 103.088 189.911 104.598 189.321C106.118 188.731 107.648 188.541 109.198 188.731L108.078 193.931C107.148 193.821 106.238 193.931 105.348 194.261C104.458 194.591 103.638 195.131 102.858 195.871C102.088 196.621 101.428 197.541 100.888 198.631C100.138 200.151 99.7375 201.601 99.6675 202.991C99.6075 204.381 99.8775 205.621 100.498 206.691C101.118 207.761 102.058 208.611 103.308 209.231C104.538 209.841 105.798 210.031 107.078 209.811C108.358 209.591 109.558 208.971 110.658 207.951C111.768 206.931 112.728 205.581 113.558 203.911C114.188 202.641 114.578 201.391 114.748 200.161C114.918 198.931 114.848 197.811 114.538 196.791C114.228 195.771 113.708 194.921 112.978 194.231L116.268 189.971C117.538 191.081 118.438 192.471 118.958 194.141C119.478 195.811 119.598 197.661 119.308 199.691C119.018 201.721 118.358 203.781 117.318 205.871C115.978 208.581 114.418 210.751 112.628 212.381H112.648Z"
    fill="var(--foreground, currentColor)"
  />
  <path
    d="M108.698 177.022L121.228 159.682L124.328 161.922L115.048 174.772L118.868 177.532L127.458 165.642L130.228 167.642L121.638 179.532L125.818 182.552L135.278 169.462L138.408 171.722L125.708 189.302L108.698 177.012V177.022Z"
    fill="var(--foreground, currentColor)"
  />
  <path
    d="M155.908 153.822C155.268 154.072 154.638 154.182 154.018 154.142C153.398 154.102 152.748 154.022 152.068 153.902L148.738 152.812C148.028 152.632 147.338 152.622 146.678 152.792C146.008 152.962 145.438 153.282 144.948 153.772L140.148 158.562L145.518 163.942L141.448 168.002L126.638 153.142L138.468 141.342C139.718 140.092 140.968 139.222 142.218 138.712C143.458 138.202 144.668 138.052 145.818 138.262C146.978 138.462 148.028 139.042 148.968 139.982C149.708 140.722 150.188 141.562 150.408 142.492C150.628 143.422 150.618 144.412 150.358 145.432C150.098 146.452 149.578 147.462 148.798 148.462L148.818 148.482C149.248 148.362 149.698 148.292 150.168 148.272C150.638 148.262 151.118 148.332 151.608 148.482L154.708 149.382C155.088 149.452 155.418 149.462 155.708 149.422C155.998 149.382 156.268 149.242 156.498 149.002C156.688 148.812 156.838 148.522 156.928 148.162C157.018 147.792 157.028 147.432 156.958 147.092L159.668 147.932C159.708 148.722 159.548 149.542 159.188 150.392C158.828 151.242 158.338 151.972 157.728 152.582C157.148 153.162 156.528 153.582 155.888 153.832L155.908 153.822ZM144.328 149.302C144.938 148.692 145.378 148.082 145.658 147.482C145.928 146.882 146.018 146.302 145.928 145.752C145.838 145.202 145.568 144.702 145.108 144.242C144.678 143.812 144.188 143.552 143.638 143.462C143.088 143.372 142.498 143.452 141.878 143.702C141.248 143.952 140.638 144.372 140.038 144.972L133.278 151.712L137.588 156.032L144.328 149.312V149.302Z"
    fill="var(--foreground, currentColor)"
  />
  <path
    d="M151.848 129.302L169.228 116.832L171.458 119.942L158.578 129.182L161.328 133.012L173.248 124.452L175.238 127.232L163.318 135.792L166.328 139.982L179.448 130.562L181.698 133.702L164.078 146.352L151.848 129.312V129.302Z"
    fill="var(--foreground, currentColor)"
  />
  <path
    d="M176.558 111.971L183.508 108.681L197.888 119.471H197.918L198.608 101.521L205.608 98.2012L214.598 117.161L209.668 119.491L203.218 105.881L203.168 105.911L202.558 122.861L197.738 125.141L184.068 114.951L184.018 114.981L190.468 128.591L185.538 130.921L176.548 111.961L176.558 111.971Z"
    fill="var(--foreground, currentColor)"
  />
  <path
    d="M226.258 113.212C223.838 112.832 221.818 111.972 220.198 110.622C218.578 109.282 217.508 107.532 216.978 105.372C216.458 103.252 216.618 101.212 217.438 99.2418C218.258 97.2718 219.658 95.5718 221.618 94.1318C223.578 92.6918 225.998 91.6218 228.858 90.9318C231.738 90.2318 234.378 90.0718 236.778 90.4618C239.178 90.8518 241.188 91.7218 242.818 93.0818C244.438 94.4418 245.518 96.1918 246.038 98.3318C246.558 100.452 246.398 102.482 245.568 104.432C244.738 106.382 243.348 108.082 241.408 109.522C239.468 110.962 237.048 112.042 234.168 112.742C231.308 113.442 228.668 113.592 226.248 113.212H226.258ZM237.618 106.632C238.818 105.722 239.678 104.652 240.188 103.432C240.698 102.202 240.798 100.942 240.478 99.6418C240.158 98.3218 239.488 97.2418 238.478 96.4018C237.468 95.5618 236.208 95.0118 234.728 94.7518C233.248 94.4918 231.618 94.5818 229.858 95.0118C228.088 95.4418 226.598 96.1118 225.388 97.0218C224.188 97.9318 223.328 98.9918 222.808 100.212C222.298 101.432 222.198 102.692 222.518 104.012C222.838 105.312 223.498 106.382 224.518 107.242C225.538 108.102 226.788 108.652 228.278 108.902C229.768 109.152 231.398 109.072 233.168 108.632C234.928 108.202 236.408 107.532 237.608 106.622L237.618 106.632Z"
    fill="var(--foreground, currentColor)"
  />
  <path
    d="M252.548 86.9816L259.578 86.6016L273.618 101.342H273.648L272.818 85.8916L278.258 85.6016L279.388 106.552L272.418 106.932L258.308 92.1116H258.278L259.118 107.652L253.678 107.942L252.548 86.9916V86.9816Z"
    fill="var(--foreground, currentColor)"
  />
  <path
    d="M294.738 100.552L286.018 85.792L292.288 86.512L298.078 96.842H298.108L305.868 88.062L312.188 88.782L300.448 101.202L299.618 108.462L293.908 107.812L294.738 100.552Z"
    fill="var(--foreground, currentColor)"
  />
  <path
    d="M330.928 114.631C329.138 112.961 327.938 111.121 327.348 109.101C326.758 107.081 326.838 105.031 327.608 102.951C328.368 100.901 329.638 99.3012 331.418 98.1212C333.198 96.9512 335.308 96.3112 337.748 96.2212C340.178 96.1212 342.778 96.5912 345.548 97.6112C348.328 98.6412 350.608 99.9812 352.378 101.641C354.148 103.301 355.328 105.151 355.918 107.191C356.508 109.231 356.418 111.281 355.658 113.341C354.898 115.391 353.638 116.991 351.858 118.141C350.078 119.291 347.978 119.931 345.568 120.041C343.148 120.151 340.548 119.691 337.768 118.661C335.008 117.641 332.728 116.291 330.938 114.631H330.928ZM344.028 115.521C345.538 115.441 346.838 115.031 347.948 114.301C349.058 113.571 349.838 112.581 350.308 111.321C350.778 110.051 350.828 108.781 350.458 107.511C350.088 106.241 349.358 105.091 348.268 104.051C347.178 103.011 345.788 102.171 344.088 101.551C342.378 100.921 340.768 100.641 339.258 100.721C337.748 100.801 336.448 101.201 335.338 101.931C334.228 102.651 333.448 103.651 332.978 104.921C332.518 106.171 332.468 107.441 332.828 108.711C333.198 109.991 333.918 111.151 335.018 112.191C336.108 113.231 337.508 114.071 339.228 114.701C340.928 115.331 342.528 115.601 344.028 115.521Z"
    fill="var(--foreground, currentColor)"
  />
  <path
    d="M367.108 107.602L385.268 118.102L383.158 121.752L369.938 114.112L367.428 118.452L379.108 125.202L377.298 128.342L365.618 121.592L361.548 128.632L356.598 125.772L367.098 107.612L367.108 107.602Z"
    fill="var(--foreground, currentColor)"
  />
  <path
    d="M404.208 138.062L397.608 132.142L400.418 129.002L417.878 144.662L415.068 147.802L408.488 141.902L397.288 154.382L393.008 150.542L404.208 138.062Z"
    fill="var(--foreground, currentColor)"
  />
  <path
    d="M423.338 150.312L426.928 154.762L420.738 159.762L429.398 170.492L435.588 165.492L439.178 169.942L422.848 183.122L419.258 178.672L426.208 173.062L417.548 162.332L410.598 167.942L407.008 163.492L423.338 150.312Z"
    fill="var(--foreground, currentColor)"
  />
  <path
    d="M444.167 177.552L454.768 196.132L451.438 198.032L443.588 184.262L439.487 186.602L446.758 199.352L443.787 201.042L436.518 188.292L432.037 190.842L440.037 204.872L436.688 206.782L425.938 187.942L444.167 177.552Z"
    fill="var(--foreground, currentColor)"
  />
  <path
    d="M462.958 214.852L464.657 220.312L456.157 222.962V222.992L467.938 230.862L470.157 237.982L458.398 230.042L450.177 244.362L448.068 237.582L454.097 227.212L450.427 224.742L444.638 226.552L442.938 221.092L462.968 214.852H462.958Z"
    fill="var(--foreground, currentColor)"
  />
  <path
    d="M471.688 245.482L474.818 266.642L471.028 267.202L468.708 251.522L464.047 252.212L466.198 266.732L462.818 267.232L460.677 252.712L455.578 253.462L457.938 269.432L454.117 269.992L450.948 248.542L471.698 245.472L471.688 245.482Z"
    fill="var(--foreground, currentColor)"
  />
  <path
    d="M461.678 283.732L475.348 273.392V279.702L465.738 286.622V286.652L475.348 293.372V299.732L461.678 289.482H454.368V283.732H461.678Z"
    fill="var(--foreground, currentColor)"
  />
  <path
    d="M454.318 309.672C454.708 307.952 455.278 306.412 456.008 305.042C456.748 303.672 457.568 302.602 458.468 301.812L461.888 304.312C461.068 304.962 460.328 305.852 459.688 306.982C459.048 308.112 458.548 309.402 458.188 310.862C457.828 312.312 457.638 313.762 457.638 315.192C457.638 316.352 457.738 317.362 457.948 318.232C458.158 319.092 458.458 319.772 458.858 320.252C459.258 320.732 459.708 320.972 460.198 320.972C460.848 320.972 461.368 320.552 461.778 319.702C462.178 318.862 462.478 317.522 462.678 315.692L463.298 311.332C463.668 308.322 464.328 306.142 465.258 304.792C466.188 303.432 467.528 302.762 469.278 302.762C470.658 302.762 471.858 303.232 472.888 304.172C473.918 305.112 474.698 306.442 475.228 308.152C475.758 309.862 476.028 311.832 476.028 314.072C476.028 315.522 475.878 316.952 475.588 318.342C475.298 319.742 474.878 321.002 474.338 322.142C473.798 323.282 473.178 324.212 472.468 324.942L469.168 322.792C469.778 322.142 470.308 321.362 470.778 320.432C471.238 319.512 471.598 318.502 471.858 317.412C472.108 316.322 472.228 315.202 472.208 314.042C472.208 312.962 472.098 311.982 471.888 311.112C471.668 310.242 471.378 309.562 471.008 309.082C470.638 308.602 470.198 308.362 469.708 308.362C469.118 308.342 468.658 308.672 468.318 309.362C467.988 310.052 467.718 311.142 467.528 312.632L466.998 316.992C466.608 320.332 465.908 322.762 464.908 324.272C463.908 325.782 462.508 326.552 460.728 326.572C459.338 326.572 458.108 326.082 457.058 325.112C456.008 324.142 455.188 322.772 454.608 321.012C454.028 319.252 453.738 317.222 453.738 314.932C453.738 313.142 453.938 311.392 454.328 309.672H454.318Z"
    fill="var(--foreground, currentColor)"
  />
  <path
    d="M216.168 309.752C216.158 308.532 217.158 307.162 218.378 306.742C219.598 306.322 220.578 306.982 220.578 308.202C220.578 309.422 219.608 310.702 218.378 311.132C217.158 311.552 216.188 310.982 216.168 309.752Z"
    fill="var(--foreground, currentColor)"
  />
  <path
    d="M240.088 318.801C238.858 318.551 237.768 318.191 236.788 317.731C235.818 317.261 235.048 316.741 234.488 316.151C235.198 315.111 235.558 314.601 236.268 313.581C236.728 314.141 237.358 314.621 238.168 315.041C238.968 315.461 239.898 315.791 240.928 316.031C241.968 316.281 242.988 316.411 244.018 316.431C244.848 316.451 245.568 316.401 246.178 316.271C246.798 316.151 247.268 315.951 247.618 315.691C247.958 315.421 248.128 315.111 248.128 314.761C248.128 314.301 247.828 313.911 247.228 313.591C246.628 313.271 245.678 313.021 244.368 312.851C243.128 312.651 242.508 312.551 241.258 312.391C239.118 312.141 237.558 311.761 236.598 311.161C235.638 310.561 235.148 309.641 235.148 308.401C235.148 307.421 235.488 306.531 236.158 305.751C236.828 304.971 237.778 304.361 238.998 303.941C240.218 303.521 241.618 303.311 243.218 303.331C244.258 303.341 245.268 303.471 246.258 303.721C247.248 303.971 248.158 304.321 248.968 304.761C249.778 305.201 250.448 305.691 250.968 306.241C250.358 307.131 250.048 307.581 249.438 308.481C248.978 308.011 248.418 307.601 247.758 307.231C247.098 306.871 246.378 306.581 245.608 306.371C244.828 306.161 244.028 306.071 243.208 306.061C242.448 306.061 241.738 306.131 241.118 306.291C240.498 306.451 240.008 306.671 239.668 306.951C239.328 307.231 239.158 307.541 239.158 307.891C239.158 308.301 239.378 308.631 239.868 308.861C240.358 309.091 241.138 309.261 242.198 309.401C243.438 309.551 244.058 309.641 245.308 309.831C247.688 310.191 249.418 310.811 250.498 311.611C251.578 312.411 252.128 313.461 252.138 314.731C252.138 315.721 251.788 316.561 251.098 317.261C250.408 317.951 249.428 318.461 248.178 318.801C246.928 319.141 245.478 319.281 243.838 319.251C242.568 319.231 241.318 319.091 240.088 318.841V318.801Z"
    fill="var(--foreground, currentColor)"
  />
  <path
    d="M255.268 304.581C256.888 304.761 257.698 304.871 259.318 305.091C259.318 311.071 259.318 314.061 259.318 320.041C257.698 319.821 256.888 319.711 255.268 319.531C255.268 313.551 255.268 310.561 255.268 304.581Z"
    fill="var(--foreground, currentColor)"
  />
  <path
    d="M263.097 305.642C265.107 305.952 266.107 306.122 268.117 306.482C271.887 311.552 273.777 314.122 277.547 319.262C277.547 319.262 277.557 319.262 277.567 319.262C277.567 314.852 277.567 312.642 277.567 308.232C279.117 308.532 279.897 308.682 281.457 308.982C281.457 314.962 281.457 317.952 281.457 323.932C279.467 323.552 278.467 323.352 276.477 322.972C272.687 317.812 270.797 315.232 267.007 310.142C267.007 310.142 266.997 310.142 266.987 310.142C266.987 314.582 266.987 316.792 266.987 321.232C265.437 320.962 264.657 320.832 263.107 320.592C263.107 314.612 263.107 311.622 263.107 305.642H263.097Z"
    fill="var(--foreground, currentColor)"
  />
  <path
    d="M289.927 324.992C288.327 324.082 287.088 322.942 286.218 321.592C285.348 320.242 284.917 318.752 284.917 317.122C284.917 315.492 285.327 314.202 286.157 313.172C286.987 312.152 288.148 311.452 289.638 311.062C291.128 310.672 292.888 310.652 294.898 310.972C296.378 311.212 297.747 311.622 298.977 312.212C300.217 312.802 301.267 313.542 302.117 314.422C302.967 315.312 303.578 316.292 303.948 317.382C302.478 317.592 301.748 317.692 300.278 317.862C300.058 317.202 299.698 316.612 299.208 316.082C298.718 315.552 298.108 315.112 297.388 314.742C296.668 314.382 295.868 314.122 295.008 313.992C293.798 313.802 292.748 313.822 291.838 314.072C290.928 314.312 290.227 314.762 289.737 315.412C289.247 316.062 288.997 316.882 288.997 317.872C288.997 318.852 289.268 319.762 289.818 320.612C290.368 321.462 291.138 322.162 292.138 322.712C293.138 323.272 294.308 323.652 295.638 323.862C296.648 324.022 297.567 324.012 298.407 323.862C299.247 323.702 299.947 323.392 300.497 322.952C301.047 322.502 301.428 321.952 301.638 321.292C303.138 321.782 303.898 322.012 305.398 322.462C305.088 323.592 304.488 324.542 303.578 325.312C302.678 326.072 301.528 326.602 300.148 326.872C298.758 327.142 297.238 327.152 295.568 326.892C293.408 326.552 291.527 325.922 289.927 325.002V324.992Z"
    fill="var(--foreground, currentColor)"
  />
  <path
    d="M308.538 313.041C314.638 313.481 317.688 313.551 323.788 313.031C323.788 314.121 323.788 314.671 323.788 315.761C319.268 316.141 317.008 316.161 312.488 315.991V319.351C316.668 319.511 318.758 319.501 322.948 319.181V321.621C318.768 321.931 316.678 321.941 312.488 321.791V325.461C317.088 325.631 319.388 325.611 323.998 325.211C323.998 326.311 323.998 326.861 323.998 327.961C317.818 328.501 314.728 328.441 308.538 327.991C308.538 322.011 308.538 319.021 308.538 313.041Z"
    fill="var(--foreground, currentColor)"
  />
  <path
    d="M335.857 321.891C335.847 320.671 336.848 319.381 338.058 318.961C339.278 318.541 340.268 319.121 340.268 320.341C340.268 321.561 339.298 322.921 338.058 323.351C336.838 323.771 335.867 323.121 335.857 321.891Z"
    fill="var(--foreground, currentColor)"
  />
  <path
    d="M259.568 250.721C264.118 240.651 261.747 239.171 248.247 242.811C258.517 234.691 257.828 231.841 244.198 229.071C257.828 226.291 258.497 223.411 248.247 215.261C261.747 218.951 264.128 217.481 259.568 207.421C269.708 215.601 272.977 215.181 276.107 204.691C279.367 214.941 282.668 215.151 292.758 206.621C288.358 217.041 290.708 218.651 304.138 214.911C293.928 223.321 294.647 226.241 308.307 229.121C294.707 231.931 294.027 234.831 304.347 243.191C290.807 239.481 288.408 241.081 292.818 251.491C282.698 242.981 279.377 243.201 276.107 253.451C272.977 242.961 269.708 242.551 259.568 250.721Z"
    fill="var(--foreground, currentColor)"
  />
</svg>
