<svg width="506" height="656" viewBox="0 0 506 656" fill="none" xmlns="http://www.w3.org/2000/svg">
  <path
    d="M489.059 51.4113C489.059 51.6913 489.079 51.9513 489.089 52.2213C489.149 53.6513 489.399 55.0513 489.809 56.3613C491.899 63.0413 498.099 67.9113 505.429 68.0113V85.1313C496.369 85.2713 489.059 92.6513 489.059 101.751C489.059 104.711 489.839 107.501 491.209 109.911C491.879 111.111 492.689 112.221 493.649 113.191C496.199 115.891 499.689 117.741 503.579 118.231C504.189 118.301 504.799 118.351 505.419 118.361V135.311C504.879 135.311 504.359 135.351 503.839 135.401C503.799 135.401 503.769 135.401 503.729 135.421C503.199 135.481 502.679 135.571 502.159 135.681C501.449 135.831 500.749 136.031 500.079 136.271C499.889 136.341 499.689 136.411 499.509 136.491C499.449 136.511 499.399 136.541 499.339 136.551C499.159 136.621 498.989 136.701 498.809 136.781C498.629 136.851 498.459 136.941 498.289 137.021C498.139 137.091 497.999 137.171 497.869 137.241C497.459 137.461 497.069 137.691 496.679 137.941C496.489 138.061 496.299 138.181 496.129 138.311C495.929 138.451 495.719 138.601 495.529 138.751C495.329 138.901 495.139 139.051 494.949 139.221C494.769 139.371 494.579 139.531 494.399 139.711C494.219 139.881 494.039 140.051 493.859 140.231C493.509 140.581 493.179 140.941 492.859 141.331C490.549 144.101 489.139 147.621 489.049 151.481C489.049 151.681 489.049 151.891 489.049 152.091C489.049 158.561 492.759 164.151 498.149 166.891C500.339 168.011 502.809 168.651 505.419 168.691V185.641C504.879 185.641 504.339 185.691 503.819 185.741C503.549 185.771 503.279 185.801 503.029 185.851C502.819 185.881 502.609 185.911 502.399 185.961C502.099 186.021 501.789 186.091 501.489 186.171C501.239 186.231 500.989 186.301 500.739 186.381C500.489 186.451 500.249 186.541 500.009 186.631C499.769 186.711 499.529 186.811 499.289 186.911C499.049 187.001 498.819 187.111 498.589 187.221C498.359 187.321 498.129 187.441 497.909 187.561C497.679 187.681 497.459 187.801 497.239 187.941C497.059 188.041 496.889 188.141 496.709 188.261C496.419 188.441 496.149 188.641 495.869 188.841C495.689 188.961 495.529 189.091 495.359 189.231C494.959 189.531 494.589 189.871 494.219 190.231C491.039 193.241 489.049 197.521 489.049 202.261V202.431C489.049 206.081 490.229 209.461 492.239 212.211C492.379 212.411 492.539 212.621 492.699 212.811C492.849 213.011 492.999 213.211 493.189 213.391C493.339 213.581 493.509 213.771 493.699 213.941C493.869 214.121 494.039 214.291 494.219 214.461C494.409 214.641 494.609 214.821 494.799 214.991C494.979 215.171 495.179 215.321 495.379 215.471C495.529 215.601 495.679 215.721 495.849 215.831C495.919 215.891 496.009 215.951 496.079 216.011C496.259 216.131 496.429 216.251 496.609 216.361C496.779 216.481 496.949 216.581 497.129 216.681C497.309 216.801 497.509 216.911 497.699 217.011C497.899 217.121 498.119 217.231 498.329 217.331C498.509 217.421 498.689 217.511 498.869 217.591C499.949 218.081 501.079 218.451 502.259 218.701C502.739 218.801 503.229 218.881 503.729 218.941C503.769 218.941 503.789 218.941 503.819 218.941C504.349 219.001 504.879 219.031 505.419 219.041V235.991C499.549 236.071 494.409 239.211 491.519 243.881C490.069 246.241 489.179 248.981 489.069 251.921C489.069 252.151 489.049 252.371 489.049 252.601V252.771C489.049 252.951 489.049 253.131 489.069 253.301C489.069 253.671 489.099 254.041 489.139 254.401C489.199 255.171 489.329 255.911 489.509 256.651C489.839 258.041 490.359 259.351 490.999 260.591C493.769 265.751 499.169 269.291 505.419 269.381V286.321C497.779 286.451 491.389 291.711 489.569 298.811C489.309 299.871 489.139 300.981 489.079 302.111V302.201C489.059 302.451 489.049 302.691 489.049 302.941V303.111C489.049 303.361 489.049 303.601 489.069 303.841C489.269 308.481 491.379 312.611 494.609 315.511V315.531C497.499 318.091 501.269 319.671 505.419 319.731V336.681C496.589 336.811 489.419 343.831 489.069 352.611C489.069 352.841 489.049 353.061 489.049 353.291V353.461C489.049 362.561 496.359 369.941 505.419 370.071V387.011C505.209 387.011 504.999 387.011 504.769 387.051C501.239 387.231 498.019 388.521 495.419 390.561C491.749 393.441 489.309 397.831 489.069 402.791C489.049 403.091 489.039 403.401 489.039 403.711V403.791C489.039 404.071 489.039 404.341 489.069 404.621C489.089 405.131 489.139 405.631 489.219 406.111C490.339 414.111 497.139 420.271 505.419 420.401V437.351C499.699 437.431 494.679 440.411 491.749 444.901C490.989 446.031 490.389 447.271 489.949 448.591C489.479 449.931 489.189 451.341 489.089 452.801C489.089 452.821 489.089 452.841 489.089 452.851C489.069 453.041 489.059 453.251 489.049 453.441C489.049 453.671 489.049 453.901 489.049 454.131C489.049 454.361 489.049 454.581 489.069 454.801C489.139 456.741 489.569 458.591 490.249 460.311C491.519 463.471 493.719 466.141 496.539 467.981C497.549 468.661 498.639 469.231 499.779 469.661H499.819C501.559 470.331 503.459 470.701 505.429 470.731V487.681C497.009 487.811 490.119 494.181 489.169 502.381C489.119 502.801 489.089 503.241 489.079 503.681C489.079 503.831 489.079 503.981 489.059 504.131V504.451C489.059 504.591 489.059 504.741 489.059 504.871C489.059 505.051 489.059 505.231 489.089 505.401C489.289 509.021 490.659 512.331 492.819 514.961C492.969 515.151 493.129 515.351 493.309 515.531C493.469 515.711 493.639 515.901 493.819 516.071C494.169 516.431 494.529 516.771 494.909 517.081C495.099 517.251 495.289 517.401 495.489 517.551C495.659 517.691 495.819 517.821 495.999 517.941C496.059 517.981 496.109 518.021 496.179 518.061C496.359 518.191 496.539 518.311 496.719 518.421C496.909 518.561 497.109 518.681 497.309 518.791C497.359 518.821 497.399 518.851 497.449 518.871C497.629 518.981 497.829 519.081 498.019 519.171C498.299 519.321 498.569 519.461 498.859 519.591C499.039 519.671 499.209 519.751 499.389 519.811C499.619 519.911 499.849 520.001 500.089 520.091C500.509 520.241 500.959 520.381 501.399 520.501C501.609 520.561 501.819 520.611 502.039 520.661C502.629 520.801 503.239 520.901 503.859 520.961C504.389 521.021 504.909 521.051 505.449 521.061V538.001C505.199 538.001 504.919 538.021 504.679 538.041C503.789 538.101 502.939 538.221 502.099 538.411C500.839 538.691 499.619 539.111 498.479 539.661C492.939 542.361 489.099 548.031 489.099 554.621C489.099 556.801 489.529 558.881 490.299 560.801C491.569 563.961 493.769 566.631 496.589 568.471C497.599 569.151 498.689 569.721 499.829 570.151H499.869C501.609 570.821 503.509 571.191 505.479 571.221V588.341C501.389 588.401 497.669 589.941 494.809 592.441C493.779 593.331 492.869 594.351 492.109 595.471C490.229 598.151 489.109 601.441 489.109 604.961C489.109 614.061 496.419 621.431 505.479 621.581V638.981C505.479 638.981 505.439 638.981 505.419 638.981C505.239 638.961 505.039 638.941 504.849 638.921C504.709 638.921 504.559 638.901 504.429 638.891C504.149 638.871 503.869 638.861 503.579 638.861C503.329 638.861 503.059 638.861 502.819 638.881C502.399 638.901 501.969 638.941 501.569 638.981C495.359 639.741 490.209 643.911 488.059 649.571C487.549 650.901 487.209 652.321 487.059 653.791C487.009 654.221 486.979 654.681 486.979 655.121H469.849C469.669 646.631 463.139 639.721 454.819 638.931C454.559 638.901 454.279 638.881 454.009 638.871C453.759 638.871 453.489 638.851 453.239 638.851C452.809 638.851 452.389 638.871 451.979 638.901C451.799 638.921 451.589 638.931 451.419 638.961C445.659 639.591 440.789 643.161 438.329 648.141C437.699 649.411 437.239 650.781 436.959 652.211C436.779 653.161 436.659 654.131 436.649 655.121H419.519C419.339 646.831 413.109 640.041 405.079 639.011C404.819 638.971 404.559 638.951 404.299 638.931C403.939 638.891 403.589 638.871 403.229 638.871C403.129 638.871 403.009 638.871 402.919 638.871H402.839C402.609 638.871 402.389 638.871 402.159 638.891C401.689 638.921 401.229 638.961 400.759 639.021C400.599 639.051 400.449 639.071 400.289 639.091C395.589 639.841 391.559 642.541 389.069 646.341V646.361C388.279 647.531 387.659 648.791 387.199 650.141C386.669 651.711 386.369 653.391 386.329 655.131H369.179C369.009 646.361 362.039 639.281 353.329 638.891C353.089 638.891 352.829 638.871 352.569 638.871H352.499C347.699 638.901 343.389 640.951 340.349 644.231C339.429 645.241 338.629 646.381 337.959 647.601C336.719 649.851 336.019 652.411 335.969 655.141H318.839C318.669 647.171 312.899 640.591 305.309 639.171C304.819 639.071 304.319 638.991 303.809 638.951C303.549 638.921 303.269 638.901 302.999 638.891C302.749 638.891 302.489 638.871 302.239 638.871C301.989 638.871 301.729 638.871 301.479 638.891C301.269 638.891 301.079 638.911 300.889 638.931C300.669 638.951 300.449 638.971 300.229 638.991C299.819 639.041 299.409 639.111 298.999 639.191C298.779 639.241 298.559 639.281 298.339 639.331C298.179 639.371 298.039 639.411 297.879 639.451C295.929 639.981 294.129 640.851 292.539 641.991C291.439 642.781 290.449 643.711 289.569 644.731C287.169 647.551 285.709 651.181 285.619 655.131H268.489C268.309 646.741 261.929 639.881 253.749 638.981C253.529 638.951 253.319 638.931 253.099 638.921H253.059C252.879 638.901 252.709 638.891 252.539 638.891C252.309 638.871 252.099 638.871 251.879 638.871C251.609 638.871 251.339 638.871 251.089 638.891C250.809 638.891 250.559 638.921 250.299 638.951C249.779 639.001 249.259 639.071 248.769 639.161C247.759 639.351 246.789 639.641 245.849 640.011C244.599 640.501 243.429 641.131 242.349 641.891C238.179 644.821 235.409 649.661 235.289 655.131H218.149C217.969 646.641 211.439 639.721 203.129 638.941C202.859 638.911 202.599 638.891 202.319 638.881C202.059 638.881 201.809 638.861 201.549 638.861C201.339 638.861 201.129 638.861 200.909 638.861C200.559 638.861 200.219 638.891 199.889 638.931C199.699 638.951 199.529 638.971 199.359 638.991C198.349 639.121 197.379 639.351 196.449 639.651C189.879 641.781 185.109 647.871 184.949 655.111H167.829C167.679 647.991 163.049 641.981 156.649 639.781C156.449 639.711 156.239 639.641 156.029 639.581C155.939 639.541 155.839 639.521 155.739 639.491C155.569 639.441 155.409 639.401 155.239 639.361C154.449 639.151 153.639 639.011 152.809 638.941C152.649 638.921 152.519 638.911 152.369 638.901C152.139 638.881 151.889 638.871 151.639 638.861H151.599C151.469 638.861 151.329 638.861 151.209 638.861H151.129C150.869 638.861 150.619 638.861 150.359 638.881C149.829 638.911 149.309 638.961 148.779 639.041C148.779 639.041 148.739 639.041 148.729 639.041C140.829 640.211 134.779 646.931 134.599 655.121H117.469C117.359 649.971 114.919 645.411 111.149 642.431C109.959 641.491 108.609 640.711 107.189 640.111C105.299 639.331 103.239 638.881 101.059 638.861C100.999 638.861 100.929 638.861 100.859 638.861C100.289 638.861 99.7189 638.891 99.1489 638.941C98.9089 638.971 98.6789 639.001 98.4389 639.031C98.2089 639.061 97.9689 639.091 97.7389 639.141C97.5089 639.191 97.2789 639.231 97.0489 639.291C90.4389 640.851 85.3489 646.351 84.3989 653.201C84.3189 653.831 84.2589 654.471 84.2489 655.121H67.1189C67.0589 652.651 66.4789 650.311 65.4589 648.231C64.6189 646.511 63.5089 644.961 62.1689 643.641C59.3589 640.871 55.5689 639.091 51.3589 638.881C51.0689 638.881 50.8089 638.861 50.5189 638.861C50.2889 638.861 50.0589 638.861 49.8289 638.881C49.5489 638.881 49.2889 638.911 49.0189 638.941C40.6489 639.681 34.0789 646.611 33.8989 655.131H16.7689C16.7289 653.051 16.3089 651.061 15.5589 649.241C13.2489 643.531 7.86889 639.421 1.45889 638.921C1.30889 638.921 1.15892 638.901 1.01892 638.891C0.838921 638.891 0.658903 638.891 0.468903 638.871H0.328918V621.581C8.12892 621.361 14.6089 615.781 16.1389 608.381C16.3689 607.281 16.4889 606.141 16.4889 604.971C16.4889 604.401 16.4689 603.821 16.4089 603.251C15.5689 595.181 8.97892 588.841 0.79892 588.401C0.63892 588.381 0.498898 588.361 0.338898 588.361V571.221C9.3089 570.971 16.4989 563.651 16.4989 554.631C16.4989 552.501 16.1189 550.481 15.3689 548.611C14.8989 547.361 14.2489 546.191 13.4989 545.111C13.1489 544.601 12.7689 544.121 12.3689 543.661C12.3489 543.641 12.3289 543.621 12.3189 543.611C9.37891 540.281 5.0989 538.151 0.338898 538.011V521.051C8.1389 520.831 14.6189 515.251 16.1489 507.851C16.3789 506.751 16.4989 505.611 16.4989 504.441C16.4989 504.291 16.4989 504.141 16.4989 503.991C16.4989 503.811 16.4989 503.641 16.4789 503.461C16.4789 503.211 16.4589 502.961 16.4189 502.721C16.3889 502.461 16.3589 502.211 16.3289 501.961C15.6689 497.091 12.8889 492.901 8.9389 490.341C7.3589 489.321 5.59889 488.551 3.70889 488.111C2.62889 487.851 1.4989 487.701 0.338898 487.671V470.701C8.8389 470.461 15.7389 463.871 16.4289 455.511C16.4789 455.051 16.4889 454.581 16.4889 454.111V453.931C16.4889 453.551 16.4889 453.171 16.4589 452.811C15.8989 444.311 8.91892 437.561 0.328918 437.321V420.351C0.488918 420.351 0.62891 420.351 0.78891 420.331C5.32891 420.081 9.38892 418.021 12.2389 414.841C14.5789 412.251 16.0989 408.911 16.4089 405.221C16.4389 404.951 16.4589 404.691 16.4689 404.421C16.4889 404.201 16.4889 403.981 16.4889 403.751V403.581C16.4889 400.821 15.8289 398.221 14.6389 395.931C13.9389 394.571 13.0389 393.321 12.0189 392.221C9.07892 389.091 4.94892 387.101 0.328918 386.971V370.001C8.23892 369.781 14.7789 364.051 16.1989 356.501C16.3489 355.781 16.4289 355.031 16.4589 354.281C16.4789 353.981 16.4889 353.701 16.4889 353.401C16.4889 353.211 16.4889 353.021 16.4889 352.841C16.4889 352.661 16.4889 352.471 16.4689 352.291C15.9889 343.701 8.9989 336.881 0.338898 336.641V319.671C9.2989 319.431 16.4689 312.131 16.4989 303.121V303.061C16.4989 302.721 16.4989 302.381 16.4689 302.041C16.4189 300.991 16.2889 299.961 16.0389 298.981C14.3189 291.841 7.9689 286.501 0.338898 286.291V269.331C4.6789 269.211 8.64892 267.411 11.5489 264.541C12.7589 263.371 13.7889 261.991 14.5889 260.491C14.8089 260.061 15.0189 259.611 15.2089 259.161C15.3089 258.931 15.3989 258.701 15.4789 258.471C15.5689 258.241 15.6589 258.011 15.7189 257.771C16.1389 256.441 16.3989 255.041 16.4789 253.591C16.4989 253.301 16.5089 253.021 16.5089 252.721C16.5089 252.421 16.5089 252.161 16.4889 251.881C16.4889 251.601 16.4589 251.341 16.4289 251.071C15.6989 242.731 8.81891 236.171 0.348907 235.951V218.981C0.748907 218.981 1.12892 218.941 1.51892 218.911C1.90892 218.871 2.28891 218.821 2.66891 218.751C3.17891 218.671 3.6689 218.571 4.1489 218.431C4.3989 218.371 4.63891 218.301 4.87891 218.221C5.11891 218.161 5.3589 218.071 5.5889 217.981C5.8289 217.901 6.05891 217.801 6.28891 217.701C6.51891 217.611 6.7489 217.511 6.9689 217.401C7.1989 217.301 7.41891 217.191 7.62891 217.071C7.84891 216.961 8.0589 216.841 8.2789 216.711C8.4889 216.591 8.6989 216.461 8.90891 216.321C9.11891 216.191 9.31892 216.061 9.51892 215.901C13.5989 213.001 16.3089 208.311 16.4889 202.971C16.4889 202.841 16.4889 202.701 16.4889 202.561V202.211C16.4889 201.991 16.4889 201.771 16.4689 201.561C16.4089 199.741 16.0489 198.011 15.4289 196.391C15.2589 195.911 15.0589 195.451 14.8389 195.001C14.5189 194.331 14.1489 193.681 13.7389 193.061C13.7389 193.061 13.7189 193.061 13.7189 193.041C13.4489 192.631 13.1589 192.221 12.8389 191.831C12.5289 191.441 12.1889 191.071 11.8489 190.711C11.6789 190.531 11.4989 190.351 11.3189 190.181C11.1389 190.001 10.9589 189.841 10.7689 189.681C10.5889 189.501 10.3889 189.351 10.1989 189.201C10.0189 189.041 9.82892 188.901 9.63892 188.771C9.40892 188.601 9.17891 188.451 8.94891 188.301C8.75891 188.161 8.55892 188.041 8.35892 187.931C8.14892 187.791 7.92889 187.671 7.70889 187.561C7.49889 187.431 7.27892 187.321 7.04892 187.221C6.81892 187.111 6.58892 187.001 6.35892 186.911C6.13892 186.811 5.90889 186.731 5.67889 186.641C4.99889 186.381 4.29892 186.171 3.57892 186.001C3.32892 185.941 3.0689 185.891 2.8089 185.851C2.5989 185.801 2.38891 185.781 2.15891 185.751C1.83891 185.691 1.50891 185.671 1.16891 185.641C0.888915 185.611 0.618918 185.601 0.328918 185.591V168.621C1.53892 168.591 2.7089 168.431 3.8389 168.151C5.9189 167.641 7.8289 166.751 9.5289 165.541C13.3989 162.781 16.0289 158.381 16.4189 153.371C16.4489 153.121 16.4589 152.871 16.4689 152.621C16.4889 152.431 16.4889 152.231 16.4889 152.031C16.4889 151.741 16.4889 151.471 16.4689 151.191C16.4689 150.921 16.4389 150.661 16.4089 150.391C16.2689 148.691 15.8789 147.071 15.2589 145.561C12.8289 139.651 7.07892 135.451 0.328918 135.271V118.301C2.21892 118.251 4.0189 117.881 5.6889 117.251C5.8689 117.191 6.03889 117.131 6.20889 117.061C6.58889 116.901 6.95891 116.741 7.31891 116.561C10.8089 114.821 13.5889 111.881 15.1389 108.291C15.6789 107.081 16.0589 105.781 16.2689 104.431C16.4389 103.541 16.4989 102.631 16.4989 101.701C16.4989 92.6713 9.3189 85.3413 0.338898 85.0913V67.9513C2.2189 67.9013 3.98889 67.5313 5.67889 66.9213C11.9989 64.5913 16.4989 58.5013 16.4989 51.3613C16.4989 49.1313 16.0689 46.9913 15.2689 45.0513C12.8389 39.1413 7.0889 34.9413 0.338898 34.7613V17.6713C0.588898 17.6713 0.818918 17.6713 1.07892 17.6513C1.33892 17.6313 1.60891 17.6113 1.87891 17.5913C10.2589 16.7313 16.8089 9.65129 16.8089 1.04129C16.8089 0.88129 16.7789 0.741299 16.7789 0.581299H33.9089C33.9089 0.741299 33.9089 0.88129 33.9089 1.04129C33.9089 9.99129 40.9689 17.2913 49.8289 17.6513C50.0589 17.6513 50.3089 17.6713 50.5389 17.6713H50.6889C59.7989 17.5913 67.1489 10.1613 67.1489 1.04129C67.1489 0.88129 67.1189 0.741299 67.1189 0.581299H84.2689C84.2689 0.741299 84.2389 0.88129 84.2389 1.04129C84.2389 1.88129 84.3089 2.7013 84.4289 3.5013C85.5589 11.2313 92.0389 17.2213 99.9689 17.6513C100.259 17.6513 100.569 17.6713 100.859 17.6713H100.919C101.199 17.6713 101.449 17.6713 101.729 17.6413C101.909 17.6413 102.089 17.6213 102.269 17.6013C102.459 17.6013 102.639 17.5713 102.819 17.5413C103.099 17.5013 103.359 17.4713 103.649 17.4213C103.929 17.3713 104.199 17.3213 104.459 17.2513C107.739 16.5413 110.649 14.8513 112.869 12.5113C115.719 9.53129 117.479 5.4813 117.479 1.0313C117.479 0.871296 117.459 0.731289 117.459 0.571289H134.599C134.599 0.731289 134.569 0.871296 134.569 1.0313C134.569 9.6413 141.109 16.7213 149.499 17.5813C149.699 17.6013 149.909 17.6213 150.109 17.6313C150.219 17.6313 150.329 17.6513 150.429 17.6513C150.679 17.6513 150.939 17.6713 151.199 17.6713C151.459 17.6713 151.729 17.6713 151.999 17.6413C152.279 17.6413 152.539 17.6113 152.809 17.5813C152.839 17.5813 152.869 17.5813 152.889 17.5813C153.749 17.5013 154.579 17.3513 155.389 17.1413C157.019 16.7213 158.569 16.0313 159.979 15.1513C164.679 12.2213 167.819 7.0013 167.819 1.0513C167.819 0.8913 167.789 0.751293 167.779 0.591293H184.909C184.909 0.751293 184.909 0.8913 184.909 1.0513C184.909 7.6413 188.759 13.3413 194.329 16.0513C194.709 16.2313 195.089 16.4113 195.479 16.5613C195.679 16.6313 195.879 16.7113 196.089 16.7813C196.379 16.8813 196.669 16.9713 196.969 17.0613C197.369 17.1713 197.759 17.2713 198.169 17.3613C198.459 17.4213 198.749 17.4713 199.049 17.5213C199.279 17.5513 199.509 17.5813 199.739 17.6013C199.779 17.6013 199.799 17.6013 199.839 17.6013C200.119 17.6313 200.379 17.6513 200.669 17.6613H200.699C200.949 17.6613 201.209 17.6813 201.469 17.6813H201.539C201.819 17.6813 202.089 17.6813 202.339 17.6613C211.149 17.2413 218.169 9.9613 218.169 1.0513C218.169 0.8913 218.139 0.751293 218.139 0.591293H235.289C235.289 0.751293 235.259 0.8913 235.259 1.0513C235.259 6.7513 238.129 11.7813 242.509 14.7713C243.589 15.5313 244.769 16.1313 246.029 16.6113C246.819 16.9113 247.629 17.1413 248.469 17.3213C248.499 17.3213 248.529 17.3413 248.569 17.3513C248.949 17.4213 249.339 17.5013 249.739 17.5413C250.179 17.6013 250.639 17.6413 251.099 17.6613C251.359 17.6613 251.619 17.6813 251.869 17.6813C252.119 17.6813 252.389 17.6813 252.639 17.6613C261.459 17.2513 268.489 9.9713 268.489 1.0513C268.489 0.8913 268.459 0.751293 268.449 0.591293H285.589C285.589 0.751293 285.569 0.8913 285.569 1.0513C285.569 4.6913 286.749 8.07129 288.719 10.8113C289.519 11.9113 290.439 12.8913 291.479 13.7613C293.049 15.1013 294.879 16.1413 296.879 16.8113C296.899 16.8113 296.909 16.8113 296.939 16.8313C297.289 16.9513 297.659 17.0613 298.029 17.1513C298.029 17.1513 298.059 17.1513 298.069 17.1513C298.179 17.1813 298.299 17.2113 298.409 17.2213C298.709 17.2913 299.019 17.3613 299.329 17.4113C299.359 17.4113 299.389 17.4113 299.409 17.4313C299.829 17.4913 300.259 17.5613 300.689 17.6013C300.939 17.6213 301.179 17.6413 301.449 17.6513C301.699 17.6513 301.949 17.6713 302.209 17.6713C302.469 17.6713 302.739 17.6713 302.989 17.6513C311.789 17.2413 318.819 9.96129 318.819 1.04129C318.819 0.88129 318.819 0.741299 318.819 0.581299H335.949C335.949 0.741299 335.949 0.88129 335.949 1.04129C335.949 2.88129 336.249 4.66129 336.819 6.32129C337.269 7.69129 337.889 8.9813 338.669 10.1613C340.869 13.5213 344.249 16.0313 348.219 17.1013C348.259 17.1013 348.289 17.1213 348.329 17.1313H348.359C348.809 17.2613 349.279 17.3513 349.759 17.4313C349.999 17.4813 350.229 17.5213 350.479 17.5513C350.689 17.5713 350.889 17.5913 351.119 17.6113C351.349 17.6313 351.569 17.6513 351.799 17.6713C352.029 17.6713 352.259 17.6913 352.489 17.6913H352.559C361.759 17.6913 369.199 10.2413 369.199 1.06129C369.199 0.901295 369.159 0.761303 369.159 0.601303H386.319C386.319 0.761303 386.279 0.901295 386.279 1.06129C386.279 1.36129 386.279 1.65129 386.309 1.95129C386.389 3.54129 386.689 5.07129 387.199 6.51129C388.979 11.6413 393.199 15.6313 398.449 17.0913C398.549 17.1213 398.639 17.1413 398.739 17.1613C398.929 17.2213 399.149 17.2613 399.359 17.3113C399.619 17.3713 399.869 17.4313 400.129 17.4713C400.379 17.5213 400.639 17.5513 400.899 17.5813C401.109 17.6113 401.339 17.6313 401.559 17.6413C401.759 17.6613 401.959 17.6713 402.139 17.6813C402.409 17.6813 402.659 17.7013 402.909 17.7013C403.119 17.7013 403.349 17.7013 403.579 17.6813C412.439 17.3313 419.539 10.0213 419.539 1.07129C419.539 0.911289 419.519 0.771298 419.509 0.611298H436.649C436.649 0.771298 436.629 0.911289 436.629 1.07129C436.629 1.73129 436.669 2.3813 436.729 3.0313C437.679 11.0413 444.289 17.3013 452.459 17.6913C452.719 17.6913 452.989 17.7113 453.249 17.7113C453.729 17.7113 454.229 17.6913 454.709 17.6513C454.739 17.6513 454.769 17.6513 454.799 17.6513C455.609 17.5813 456.409 17.4413 457.189 17.2413C457.429 17.1813 457.689 17.1113 457.929 17.0413C462.549 15.7013 466.319 12.4013 468.319 8.12129C469.329 5.99129 469.879 3.60129 469.879 1.09129C469.879 0.931293 469.879 0.791302 469.879 0.631302H487.009C487.009 0.791302 486.979 0.931293 486.979 1.09129C486.979 8.50129 491.819 14.7613 498.509 16.9213C498.589 16.9513 498.669 16.9813 498.739 16.9913C499.029 17.0813 499.319 17.1613 499.619 17.2313C500.029 17.3313 500.449 17.4213 500.879 17.4913C501.139 17.5513 501.419 17.5813 501.689 17.6113C502.319 17.6813 502.959 17.7213 503.609 17.7213C503.839 17.7213 504.069 17.7213 504.309 17.7013C504.539 17.6813 504.769 17.6613 504.999 17.6413H505.019C505.019 17.6413 505.109 17.6413 505.149 17.6413C505.189 17.6413 505.219 17.6413 505.279 17.6413C505.319 17.6413 505.339 17.6413 505.399 17.6213C505.449 17.6213 505.479 17.6213 505.519 17.6013V34.8113C496.459 34.9413 489.149 42.3313 489.149 51.4213L489.059 51.4113Z"
    fill="var(--background)"
    stroke="var(--outline, currentColor)"
    stroke-width="2"
  />
  <path
    d="M269.019 570.661C242.959 585.871 214.759 596.242 190.369 603.172C175.279 607.472 160.699 610.751 147.489 613.251H137.389C152.969 610.591 171.049 606.821 189.909 601.451C213.229 594.811 240.019 585.031 265.089 570.861H265.099C266.409 570.801 267.729 570.741 269.019 570.661Z"
    fill="var(--foreground, currentColor)"
  />
  <path
    d="M336.119 554.871C307.899 583.111 270.049 601.481 235.769 613.251H230.139C263.919 602.161 301.899 584.661 330.839 557.501C332.669 556.671 334.429 555.791 336.119 554.871Z"
    fill="var(--foreground, currentColor)"
  />
  <path
    d="M352.419 311.241C406.469 403.231 417.729 479.321 385.929 537.461C366.939 572.161 334.459 596.411 300.479 613.251H296.419C331.299 596.481 364.969 572.031 384.359 536.602C415.839 479.052 404.579 403.541 350.889 312.161C349.709 310.171 348.549 308.211 347.399 306.231C347.849 305.821 348.309 305.421 348.739 304.981C349.959 307.061 351.189 309.151 352.419 311.241Z"
    fill="var(--foreground, currentColor)"
  />
  <path
    d="M421.229 527.302C418.409 536.672 414.659 545.651 409.969 554.241C400.269 571.991 383.329 593.371 353.749 613.251H350.509C373.869 598.021 394.699 578.452 408.399 553.382C414.059 543.012 418.349 532.071 421.229 520.541V527.302Z"
    fill="var(--foreground, currentColor)"
  />
  <path
    d="M438.489 562.092C437.119 565.112 435.619 568.102 434.019 571.021C427.019 583.851 416.238 598.591 399.649 613.251H397.009C411.089 601.091 423.349 586.841 432.449 570.161C433.899 567.501 435.259 564.821 436.528 562.092H438.489Z"
    fill="var(--foreground, currentColor)"
  />
  <path
    d="M449.009 602.291C446.319 606.091 443.459 609.731 440.439 613.251H438.068C441.978 608.781 445.649 604.092 449.009 599.172V602.291Z"
    fill="var(--foreground, currentColor)"
  />
  <path
    d="M211.739 568.491C212.859 568.661 213.999 568.821 215.149 568.961C198.559 576.261 182.019 581.911 166.939 586.241C112.615 601.849 64.9094 604.251 64.4191 604.281L64.339 602.481C64.8149 602.461 112.353 600.07 166.489 584.501C180.679 580.431 196.15 575.191 211.739 568.491Z"
    fill="var(--foreground, currentColor)"
  />
  <path
    d="M172.549 557.821C173.319 558.171 174.089 558.502 174.869 558.852C165.169 562.552 154.739 566.031 143.519 569.291C110.569 578.841 80.0888 583.511 61.1788 585.711V583.911C80.0287 581.711 110.339 577.061 143.068 567.562C153.568 564.512 163.379 561.252 172.549 557.812V557.821Z"
    fill="var(--foreground, currentColor)"
  />
  <path
    d="M148.339 541.102C148.759 541.581 149.219 542.041 149.669 542.501C140.479 545.991 130.639 549.281 120.099 552.361C98.5488 558.651 78.0388 562.852 61.1788 565.632V563.821C77.9288 561.061 98.259 556.882 119.629 550.632C129.609 547.722 139.179 544.531 148.339 541.111V541.102Z"
    fill="var(--foreground, currentColor)"
  />
  <path
    d="M277.189 486.632C277.779 486.842 278.369 487.051 278.929 487.281C270.729 498.101 259.779 509.591 245.109 520.861C244.199 520.811 243.309 520.751 242.419 520.661C257.569 509.251 268.829 497.602 277.189 486.632Z"
    fill="var(--foreground, currentColor)"
  />
  <path
    d="M244.259 483.102C235.999 491.942 225.799 501.002 213.169 509.812C212.779 509.372 212.429 508.931 212.129 508.501C223.299 500.711 233.179 492.311 241.729 483.312H241.719C242.549 483.222 243.399 483.162 244.259 483.102Z"
    fill="var(--foreground, currentColor)"
  />
  <path
    d="M251.349 413.691C251.619 413.691 251.889 413.691 252.169 413.711C249.539 421.511 246.219 429.042 242.219 436.302C240.539 439.332 238.749 442.322 236.829 445.262C236.169 445.152 235.529 445.021 234.909 444.901C236.929 441.842 238.849 438.672 240.649 435.422C244.499 428.432 247.698 421.201 250.278 413.701C250.638 413.681 250.989 413.682 251.349 413.682V413.691Z"
    fill="var(--foreground, currentColor)"
  />
  <path
    d="M277.669 418.941C278.239 419.241 278.769 419.592 279.269 419.922C277.169 428.282 274.319 436.372 270.729 444.142C270.009 444.352 269.249 444.551 268.479 444.731C272.399 436.471 275.449 427.871 277.669 418.941Z"
    fill="var(--foreground, currentColor)"
  />
  <path
    fill-rule="evenodd"
    clip-rule="evenodd"
    d="M251.339 369.901C270.519 369.901 287.089 371.931 301.059 375.981C315.029 380.031 325.769 385.902 333.299 393.592C340.819 401.282 344.579 410.491 344.579 421.241C344.579 434.471 339.789 444.182 330.199 450.382C320.609 456.582 308.619 460.421 294.239 461.911V465.882C307.959 466.712 319.529 468.981 328.959 472.701C338.389 476.421 345.489 481.461 350.289 487.831C355.079 494.201 357.479 501.591 357.479 510.021C357.479 520.931 353.139 530.322 344.459 538.172C335.779 546.022 323.469 551.971 307.509 556.021C291.559 560.071 272.829 562.102 251.349 562.102H251.339C229.849 562.102 211.129 560.071 195.169 556.021C179.219 551.972 166.899 546.022 158.219 538.172C149.539 530.322 145.199 520.931 145.199 510.021C145.199 501.591 147.599 494.191 152.389 487.831C157.179 481.471 164.289 476.421 173.719 472.701C183.139 468.981 194.709 466.712 208.439 465.882V461.911C194.059 460.421 182.069 456.582 172.479 450.382C162.889 444.182 158.099 434.471 158.099 421.241C158.099 410.501 161.859 401.282 169.379 393.592C176.899 385.902 187.639 380.031 201.619 375.981C215.589 371.932 232.159 369.901 251.339 369.901ZM251.339 473.821C241.579 473.821 232.899 474.932 225.299 477.172C217.689 479.402 211.739 482.632 207.449 486.842C203.149 491.052 200.999 496.062 200.999 501.842C200.999 507.622 203.149 512.672 207.449 516.972C211.749 521.271 217.739 524.532 225.429 526.762C233.119 528.992 241.749 530.111 251.339 530.111C260.929 530.111 269.569 528.992 277.249 526.762C284.939 524.532 290.929 521.272 295.229 516.972C299.529 512.672 301.679 507.632 301.679 501.842C301.679 493.252 297.009 486.432 287.669 481.382C278.329 476.342 266.219 473.821 251.339 473.821ZM251.349 404.621C242.429 404.621 234.729 405.662 228.289 407.722C221.839 409.792 216.919 412.771 213.539 416.651C210.149 420.541 208.459 425.042 208.459 430.172C208.459 437.942 212.179 444.102 219.619 448.642C227.057 453.19 237.624 455.459 251.349 455.46C265.064 455.459 275.641 453.191 283.079 448.642C290.519 444.102 294.239 437.942 294.239 430.172C294.239 425.052 292.539 420.541 289.159 416.651C285.769 412.771 280.849 409.792 274.409 407.722C267.959 405.662 260.269 404.621 251.349 404.621Z"
    fill="var(--foreground, currentColor)"
  />
  <path
    d="M60.6788 532.472C61.4888 532.542 62.6088 532.591 64.0587 532.621C65.5087 532.651 67.0789 532.661 68.7589 532.661L68.7687 532.672C70.5087 532.672 72.0087 533.052 73.2687 533.802C74.5287 534.562 75.4886 535.662 76.1486 537.102C76.8086 538.542 77.1486 540.271 77.1486 542.271C77.1486 544.271 76.8185 546.101 76.1486 547.531C75.4886 548.961 74.5284 550.031 73.2784 550.751C72.0285 551.471 70.5286 551.831 68.7687 551.831C67.0088 551.831 65.4389 551.852 64.049 551.882C62.659 551.922 61.5386 551.971 60.6886 552.041C60.8186 551.261 60.8788 550.451 60.8888 549.602C60.8888 548.752 60.8286 547.971 60.6886 547.271C61.5486 547.341 62.669 547.392 64.049 547.432C65.4289 547.472 67.0393 547.481 68.8693 547.481C70.0191 547.481 70.989 547.291 71.799 546.911C72.6088 546.531 73.2193 545.952 73.6593 545.172C74.0893 544.392 74.3087 543.422 74.3087 542.262C74.3087 541.102 74.0891 540.152 73.6593 539.382C73.2294 538.602 72.609 538.022 71.7892 537.632C70.9793 537.242 70.0091 537.052 68.8693 537.052C66.9295 537.052 65.2893 537.062 63.9493 537.092C62.6093 537.122 61.5188 537.171 60.6788 537.241C60.8088 536.461 60.869 535.651 60.879 534.791C60.889 533.931 60.8188 533.161 60.6788 532.472Z"
    fill="var(--foreground, currentColor)"
  />
  <path
    d="M444.479 539.041L449.009 549.901L438.139 545.371L427.278 549.901L431.799 539.041L427.278 528.172L438.139 532.701L449.009 528.172L444.479 539.041Z"
    fill="var(--foreground, currentColor)"
  />
  <path
    d="M137.019 519.185C137.139 519.804 137.28 520.422 137.409 521.021C124.689 526.351 111.089 531.161 96.6788 535.401C93.1889 536.431 89.7189 537.412 86.299 538.312V536.472C89.5689 535.592 92.8789 534.662 96.2189 533.682C109.046 529.893 122.942 525.143 137.019 519.185Z"
    fill="var(--foreground, currentColor)"
  />
  <path
    fill-rule="evenodd"
    clip-rule="evenodd"
    d="M76.5988 514.422C75.3088 514.552 74.2688 514.842 73.4689 515.292C72.669 515.742 72.0585 516.391 71.6486 517.241C71.2286 518.091 70.9592 519.201 70.8292 520.571C70.7892 520.911 70.7592 521.291 70.7491 521.701C70.7391 522.121 70.7286 522.542 70.7286 522.962C72.7886 522.902 73.9691 522.872 74.2491 522.852C74.6691 522.842 75.0792 522.811 75.4591 522.781C75.8389 522.751 76.2187 522.712 76.6085 522.682V527.491H76.5988C74.7588 527.331 72.1084 527.262 68.6486 527.262C65.189 527.262 62.5393 527.341 60.6993 527.491C60.7093 526.431 60.7189 525.441 60.7189 524.531C60.7189 523.621 60.7088 522.741 60.6788 521.892C60.6488 521.302 60.629 520.691 60.629 520.071C60.629 519.451 60.6193 518.791 60.6193 518.102C60.6193 514.992 60.9985 512.702 61.7784 511.222C62.5584 509.742 63.7288 509.002 65.3087 509.002C66.5086 509.002 67.4691 509.381 68.1691 510.161C68.8791 510.931 69.3688 511.832 69.6388 512.842C69.9188 513.862 70.049 514.792 70.049 515.642H70.3888C70.7388 513.722 71.5291 512.181 72.7491 511.021C73.969 509.862 75.2589 508.962 76.5988 508.332V514.422ZM65.7394 513.672C64.9295 513.672 64.3486 514.071 63.9786 514.871C63.6086 515.671 63.4288 516.802 63.4288 518.252C63.4288 518.792 63.4286 519.322 63.4386 519.852C63.4386 520.381 63.4594 520.891 63.4894 521.371L63.5089 522.901C64.2189 522.931 64.9493 522.952 65.6993 522.962C66.4591 522.972 67.2388 522.981 68.0685 522.981H68.089L68.1486 521.981C68.1786 521.442 68.2086 520.872 68.2286 520.252C68.2586 519.642 68.2687 519.031 68.2687 518.441C68.2687 517.392 68.1794 516.521 67.9894 515.812C67.7994 515.102 67.5286 514.572 67.1486 514.212C66.7787 513.852 66.3092 513.672 65.7394 513.672Z"
    fill="var(--foreground, currentColor)"
  />
  <path
    d="M137.019 519.185V519.182H137.028C137.025 519.183 137.022 519.183 137.019 519.185Z"
    fill="var(--foreground, currentColor)"
  />
  <path
    d="M141.068 488.932C140.599 489.841 140.179 490.741 139.769 491.661C124.599 499.811 106.909 507.511 86.299 514.361V512.472C107.549 505.362 125.659 497.382 141.068 488.932Z"
    fill="var(--foreground, currentColor)"
  />
  <path
    d="M338.539 312.741C381.599 392.071 390.989 458.961 366.489 511.931C366.519 511.304 366.539 510.668 366.539 510.021C366.539 509.192 366.519 508.371 366.479 507.562C388.669 455.722 378.769 390.621 336.999 313.651C337.509 313.361 338.029 313.061 338.539 312.741Z"
    fill="var(--foreground, currentColor)"
  />
  <path
    d="M60.6788 485.342C61.4888 485.412 62.6088 485.461 64.0587 485.491C65.5087 485.521 67.0789 485.531 68.7589 485.531L68.7687 485.542C70.5087 485.542 72.0087 485.922 73.2687 486.672C74.5287 487.432 75.4886 488.532 76.1486 489.972C76.8086 491.412 77.1486 493.142 77.1486 495.142C77.1486 497.142 76.8185 498.971 76.1486 500.401C75.4886 501.831 74.5284 502.901 73.2784 503.621C72.0285 504.341 70.5286 504.701 68.7687 504.701C67.0088 504.701 65.4389 504.722 64.049 504.752C62.659 504.792 61.5386 504.841 60.6886 504.911C60.8186 504.131 60.8788 503.322 60.8888 502.472C60.8888 501.622 60.8286 500.842 60.6886 500.142C61.5486 500.212 62.669 500.262 64.049 500.302C65.4289 500.342 67.0393 500.352 68.8693 500.352C70.0191 500.352 70.989 500.161 71.799 499.781C72.6088 499.401 73.2193 498.822 73.6593 498.042C74.0893 497.262 74.3087 496.292 74.3087 495.132C74.3087 493.972 74.0891 493.022 73.6593 492.252C73.2294 491.472 72.609 490.892 71.7892 490.502C70.9793 490.112 70.0091 489.922 68.8693 489.922C66.9295 489.922 65.2893 489.932 63.9493 489.962C62.6093 489.992 61.5188 490.041 60.6788 490.111C60.8088 489.331 60.869 488.521 60.879 487.661C60.889 486.801 60.8188 486.032 60.6788 485.342Z"
    fill="var(--foreground, currentColor)"
  />
  <path
    d="M155.559 445.932C155.879 446.442 156.209 446.941 156.559 447.441C139.509 461.841 116.729 476.192 86.299 488.672V486.751C116.319 474.361 138.759 460.172 155.559 445.922V445.932Z"
    fill="var(--foreground, currentColor)"
  />
  <path
    d="M72.4689 459.762C73.8688 460.672 74.9594 462.062 75.7394 463.962C76.5192 465.852 76.9093 467.912 76.9093 470.132L76.9191 470.151C76.9191 472.501 76.5785 474.501 75.8986 476.161C75.2186 477.821 74.2493 479.082 72.9894 479.932C71.7294 480.792 70.2487 481.212 68.5587 481.212C66.7788 481.212 65.2684 480.762 64.0284 479.852C62.7886 478.952 61.8586 477.641 61.2286 475.941C60.5987 474.242 60.2892 472.202 60.2892 469.842C60.2892 468.272 60.4293 466.612 60.6993 464.852C60.9793 463.092 61.439 461.431 62.089 459.861C62.899 459.971 63.6392 460.031 64.3292 460.031C65.019 460.031 65.6189 459.982 66.1388 459.882C65.2789 461.222 64.5989 462.762 64.089 464.502C63.5891 466.242 63.339 468.022 63.339 469.842C63.339 471.272 63.5487 472.502 63.9786 473.542C64.3986 474.582 65.0093 475.372 65.7892 475.932C66.5791 476.481 67.4989 476.762 68.5587 476.762C69.6186 476.762 70.5486 476.502 71.3585 475.972C72.1685 475.452 72.7894 474.691 73.2394 473.691C73.6893 472.691 73.9093 471.511 73.9093 470.142C73.9093 468.912 73.6889 467.681 73.2589 466.451C72.8289 465.221 72.0387 464.191 70.8888 463.371C70.8888 463.921 70.8886 464.481 70.8986 465.031C70.8986 465.591 70.9293 466.142 70.9493 466.672C70.9793 467.752 71.0288 468.722 71.0988 469.602C71.1687 470.481 71.2588 471.151 71.3488 471.611C70.8488 471.511 70.2784 471.471 69.6085 471.491C68.9488 471.511 68.3091 471.581 67.6993 471.691C67.7993 469.771 67.8488 467.752 67.8488 465.642C67.8488 463.532 67.7993 461.562 67.6993 459.762C68.3592 459.862 69.139 459.911 70.0187 459.911C70.8987 459.911 71.7189 459.862 72.4689 459.762Z"
    fill="var(--foreground, currentColor)"
  />
  <path
    d="M444.159 458.571C445.049 459.831 445.719 461.211 446.149 462.701C446.589 464.201 446.809 465.971 446.809 468.021L446.818 468.042C446.818 470.362 446.479 472.352 445.789 474.012C445.099 475.672 444.129 476.942 442.859 477.812C441.589 478.681 440.108 479.111 438.399 479.111C436.609 479.111 435.079 478.642 433.839 477.712C432.599 476.782 431.658 475.451 431.028 473.731C430.398 472.012 430.089 469.971 430.089 467.611C430.089 466.221 430.219 464.812 430.479 463.382C430.739 461.952 431.199 460.432 431.849 458.832C432.589 458.932 433.259 458.981 433.859 458.981C434.458 458.981 435.149 458.932 435.899 458.832C434.899 460.412 434.188 461.922 433.778 463.361C433.368 464.791 433.159 466.132 433.139 467.382C433.129 468.862 433.319 470.151 433.729 471.241C434.139 472.331 434.739 473.172 435.528 473.762C436.318 474.352 437.279 474.651 438.389 474.651C439.499 474.651 440.379 474.381 441.189 473.852C441.999 473.322 442.629 472.522 443.079 471.462C443.529 470.402 443.759 469.081 443.759 467.521C443.759 465.962 443.479 464.382 442.909 462.932C442.339 461.482 441.449 460.131 440.219 458.871C440.889 458.941 441.529 458.941 442.169 458.871C442.809 458.801 443.469 458.701 444.159 458.571Z"
    fill="var(--foreground, currentColor)"
  />
  <path
    d="M326.049 318.842C354.509 378.562 362.569 430.712 350.109 474.592L350.099 474.602C349.599 474.182 349.099 473.771 348.589 473.361C353.099 457.151 354.789 439.791 353.649 421.321V421.241C353.469 418.331 353.229 415.381 352.899 412.411C349.839 383.921 340.328 352.892 324.359 319.472C324.928 319.272 325.489 319.052 326.049 318.842Z"
    fill="var(--foreground, currentColor)"
  />
  <path
    d="M150.076 411.015C149.838 412.1 149.658 413.196 149.509 414.312C135.309 429.841 115.079 446.141 86.299 460.861V458.852C115.727 443.703 136.056 426.884 150.076 411.015Z"
    fill="var(--foreground, currentColor)"
  />
  <path
    d="M60.6788 435.951C61.4888 436.021 62.6088 436.072 64.0587 436.102C65.5087 436.132 67.0789 436.142 68.7589 436.142L68.7687 436.151C70.5086 436.151 72.0087 436.531 73.2687 437.281C74.5286 438.041 75.4886 439.141 76.1486 440.581C76.8085 442.021 77.1485 443.751 77.1486 445.751C77.1486 447.751 76.8186 449.582 76.1486 451.012C75.4886 452.442 74.5283 453.512 73.2784 454.231C72.0285 454.951 70.5285 455.312 68.7687 455.312C67.0088 455.312 65.4389 455.331 64.049 455.361C62.659 455.401 61.5386 455.451 60.6886 455.521C60.8186 454.741 60.8788 453.931 60.8888 453.081C60.8888 452.231 60.8286 451.451 60.6886 450.751C61.5486 450.821 62.669 450.871 64.049 450.911C65.4289 450.951 67.0393 450.962 68.8693 450.962C70.0191 450.962 70.989 450.772 71.799 450.392C72.6089 450.012 73.2193 449.431 73.6593 448.651C74.0892 447.871 74.3087 446.901 74.3087 445.741C74.3087 444.581 74.0892 443.631 73.6593 442.861C73.2293 442.081 72.6091 441.501 71.7892 441.111C70.9793 440.721 70.0091 440.531 68.8693 440.531C66.9295 440.531 65.2893 440.541 63.9493 440.571C62.6093 440.601 61.5188 440.652 60.6788 440.722C60.8088 439.942 60.869 439.131 60.879 438.271C60.889 437.411 60.8188 436.641 60.6788 435.951Z"
    fill="var(--foreground, currentColor)"
  />
  <path
    fill-rule="evenodd"
    clip-rule="evenodd"
    d="M438.439 432.861C440.199 432.861 441.689 433.292 442.949 434.142C444.199 435.002 445.159 436.242 445.809 437.861C446.469 439.491 446.799 441.431 446.799 443.691C446.799 445.951 446.469 447.901 445.809 449.521C445.149 451.151 444.199 452.391 442.949 453.251C441.699 454.111 440.199 454.541 438.439 454.541C436.679 454.541 435.179 454.111 433.929 453.251C432.679 452.391 431.718 451.141 431.068 449.521C430.409 447.902 430.079 445.951 430.079 443.691C430.079 441.431 430.409 439.481 431.068 437.861C431.728 436.241 432.679 434.992 433.929 434.142C435.179 433.292 436.679 432.861 438.439 432.861ZM438.539 437.262C437.389 437.262 436.359 437.511 435.519 438.021C434.679 438.531 434.039 439.262 433.589 440.231C433.139 441.191 432.919 442.341 432.919 443.691C432.919 445.041 433.139 446.201 433.589 447.161C434.039 448.121 434.679 448.842 435.519 449.342C436.359 449.842 437.369 450.092 438.539 450.092C439.709 450.092 440.659 449.842 441.479 449.342C442.289 448.842 442.909 448.111 443.339 447.161C443.759 446.211 443.979 445.051 443.979 443.691C443.979 442.351 443.769 441.191 443.339 440.231C442.919 439.271 442.299 438.531 441.479 438.021C440.669 437.512 439.689 437.262 438.539 437.262Z"
    fill="var(--foreground, currentColor)"
  />
  <path
    d="M357.318 293.932C362.718 304.012 368.579 314.351 374.899 324.951C397.809 363.621 413.259 399.511 421.229 432.451V440.651C413.969 405.791 397.999 367.471 373.359 325.871C367.219 315.611 361.529 305.572 356.259 295.762C356.619 295.172 356.979 294.552 357.318 293.932Z"
    fill="var(--foreground, currentColor)"
  />
  <path
    fill-rule="evenodd"
    clip-rule="evenodd"
    d="M76.5988 417.812C75.6777 418.105 74.6504 418.464 73.5216 418.881C73.4761 420.143 73.4591 421.587 73.4591 423.212C73.4591 424.796 73.4821 426.208 73.5206 427.447C74.5984 427.861 75.6243 428.249 76.5988 428.611V433.632C75.3689 433.042 74.0692 432.431 72.6993 431.812C71.3293 431.192 69.9786 430.592 68.6486 430.012C65.8188 428.792 63.1692 427.702 60.6993 426.722C60.8293 425.722 60.8993 424.471 60.9093 422.991C60.9193 421.512 60.8493 420.352 60.6993 419.512C63.5291 418.382 66.1787 417.272 68.6486 416.182C70.7685 415.262 73.4189 414.052 76.5988 412.552V417.812ZM70.9318 419.867C69.1999 420.544 67.6155 421.184 66.1788 421.792C64.6796 422.427 63.6543 422.892 63.1027 423.212C63.9345 423.656 66.1386 424.583 69.7091 425.981C70.1159 426.141 70.5228 426.295 70.9269 426.45C70.9707 425.441 70.9894 424.322 70.9894 423.082C70.9894 421.904 70.9673 420.836 70.9318 419.867Z"
    fill="var(--foreground, currentColor)"
  />
  <path
    d="M160.799 317.722C161.369 317.952 161.949 318.162 162.539 318.352C160.199 336.631 154.619 353.681 145.799 369.451C135.729 387.461 117.879 409.571 86.2892 430.151V428.012C116.969 407.822 134.389 386.201 144.239 368.581C153.009 352.901 158.519 335.921 160.799 317.722Z"
    fill="var(--foreground, currentColor)"
  />
  <path
    fill-rule="evenodd"
    clip-rule="evenodd"
    d="M446.439 415.121C445.149 415.251 444.109 415.541 443.309 415.991C442.509 416.441 441.899 417.092 441.489 417.941C441.069 418.791 440.799 419.901 440.669 421.271C440.629 421.611 440.599 421.991 440.589 422.401C440.579 422.821 440.568 423.241 440.568 423.661C442.628 423.601 443.809 423.572 444.089 423.552C444.509 423.542 444.919 423.511 445.299 423.481C445.679 423.451 446.059 423.412 446.449 423.382V428.191H446.439C444.599 428.031 441.949 427.962 438.489 427.962C435.03 427.962 432.379 428.041 430.539 428.191C430.549 427.131 430.559 426.141 430.559 425.231C430.559 424.322 430.549 423.442 430.519 422.592C430.489 422.002 430.469 421.391 430.469 420.771C430.469 420.152 430.459 419.492 430.459 418.802C430.459 415.692 430.839 413.402 431.619 411.922C432.399 410.442 433.569 409.701 435.149 409.701C436.349 409.701 437.309 410.081 438.009 410.861C438.719 411.631 439.209 412.532 439.479 413.542C439.759 414.562 439.889 415.492 439.889 416.342H440.229C440.579 414.422 441.369 412.882 442.589 411.722C443.809 410.562 445.099 409.661 446.439 409.031V415.121ZM435.579 414.361C434.769 414.361 434.188 414.762 433.818 415.562C433.449 416.362 433.269 417.492 433.269 418.941C433.269 419.481 433.268 420.012 433.278 420.542C433.278 421.072 433.299 421.582 433.329 422.062L433.349 423.592C434.059 423.622 434.789 423.641 435.539 423.651C436.299 423.661 437.079 423.672 437.909 423.672H437.929L437.989 422.672C438.019 422.132 438.048 421.561 438.068 420.941C438.098 420.332 438.109 419.722 438.109 419.132C438.109 418.082 438.019 417.212 437.829 416.502C437.639 415.792 437.369 415.261 436.989 414.901C436.619 414.541 436.149 414.361 435.579 414.361Z"
    fill="var(--foreground, currentColor)"
  />
  <path
    d="M60.7091 393.882C62.239 395.192 63.9092 396.572 65.7091 398.021C66.5589 398.701 67.4086 399.371 68.2784 400.031C69.1384 400.691 70.0088 401.352 70.8888 402.002C71.8188 402.102 72.7689 402.151 73.7189 402.151C74.6688 402.151 75.6386 402.091 76.6085 401.981V406.432L76.5988 406.441C75.6388 406.331 74.6786 406.271 73.7286 406.271C72.7788 406.271 71.8289 406.331 70.879 406.441C69.3091 407.591 67.5891 408.912 65.7091 410.432C63.9392 411.832 62.2691 413.212 60.7091 414.562C60.8391 413.642 60.8993 412.682 60.9093 411.682C60.9193 410.682 60.8491 409.851 60.7091 409.201C61.899 408.471 63.2491 407.602 64.7589 406.592C66.1093 405.654 67.251 404.84 68.1935 404.142C66.996 403.253 65.8542 402.442 64.7589 401.712C63.4889 400.832 62.1391 399.962 60.7091 399.102C60.8491 398.452 60.9193 397.651 60.9093 396.691C60.9093 395.742 60.8391 394.802 60.7091 393.882Z"
    fill="var(--foreground, currentColor)"
  />
  <path
    d="M150.079 411.012L150.076 411.015C150.077 411.01 150.078 411.005 150.079 411.001V411.012Z"
    fill="var(--foreground, currentColor)"
  />
  <path
    fill-rule="evenodd"
    clip-rule="evenodd"
    d="M446.439 391.491C445.149 391.621 444.109 391.911 443.309 392.361C442.509 392.811 441.899 393.462 441.489 394.312C441.069 395.162 440.799 396.272 440.669 397.642C440.629 397.982 440.599 398.362 440.589 398.771C440.579 399.191 440.568 399.611 440.568 400.031C442.628 399.971 443.809 399.942 444.089 399.922C444.509 399.912 444.919 399.882 445.299 399.852C445.679 399.822 446.059 399.781 446.449 399.751V404.562H446.439C444.599 404.402 441.949 404.331 438.489 404.331C435.03 404.331 432.379 404.412 430.539 404.562C430.549 403.502 430.559 402.512 430.559 401.602C430.559 400.692 430.549 399.811 430.519 398.961C430.489 398.371 430.469 397.761 430.469 397.142C430.469 396.522 430.459 395.862 430.459 395.172C430.459 392.062 430.839 389.771 431.619 388.291C432.399 386.811 433.569 386.071 435.149 386.071C436.349 386.071 437.309 386.451 438.009 387.231C438.719 388.001 439.209 388.901 439.479 389.911C439.759 390.931 439.889 391.861 439.889 392.711H440.229C440.579 390.791 441.369 389.252 442.589 388.092C443.809 386.932 445.099 386.031 446.439 385.401V391.491ZM435.579 390.741C434.769 390.741 434.188 391.141 433.818 391.941C433.449 392.741 433.269 393.871 433.269 395.321C433.269 395.861 433.268 396.392 433.278 396.922C433.278 397.452 433.299 397.962 433.329 398.441L433.349 399.972C434.059 400.002 434.789 400.021 435.539 400.031C436.299 400.041 437.079 400.052 437.909 400.052H437.929L437.989 399.052C438.019 398.512 438.048 397.941 438.068 397.321C438.098 396.711 438.109 396.102 438.109 395.512C438.109 394.462 438.019 393.592 437.829 392.882C437.639 392.172 437.369 391.641 436.989 391.281C436.619 390.921 436.149 390.741 435.579 390.741Z"
    fill="var(--foreground, currentColor)"
  />
  <path
    fill-rule="evenodd"
    clip-rule="evenodd"
    d="M76.5988 380.082C75.6779 380.376 74.6511 380.735 73.5226 381.151C73.4768 382.416 73.4591 383.862 73.4591 385.491C73.4591 387.071 73.4823 388.48 73.5206 389.717C74.5986 390.13 75.6242 390.52 76.5988 390.882V395.901C75.369 395.311 74.0691 394.702 72.6993 394.082C71.3293 393.462 69.9786 392.861 68.6486 392.281C65.8188 391.061 63.1692 389.971 60.6993 388.991C60.8293 387.991 60.8993 386.741 60.9093 385.262C60.9193 383.782 60.8493 382.621 60.6993 381.781C63.5291 380.651 66.1787 379.541 68.6486 378.451C70.7686 377.531 73.4188 376.321 76.5988 374.821V380.082ZM70.9308 382.138C69.1993 382.815 67.6152 383.453 66.1788 384.062C64.6793 384.696 63.6543 385.163 63.1027 385.482C63.9347 385.926 66.1389 386.854 69.7091 388.252C70.1162 388.411 70.5235 388.565 70.9279 388.721C70.9714 387.714 70.9894 386.598 70.9894 385.361C70.9894 384.18 70.9666 383.109 70.9308 382.138Z"
    fill="var(--foreground, currentColor)"
  />
  <path
    d="M67.2286 50.9111C71.0786 82.7711 83.799 119.382 105.379 160.562C145.009 236.791 150.549 301.402 121.849 352.632L121.839 352.621C114.659 365.431 103.529 380.331 86.299 395.291V393.071C100.529 380.511 111.909 366.691 120.289 351.751C148.679 301.081 143.119 237.051 103.789 161.392C82.0692 119.962 69.2688 83.0611 65.4288 50.9111H67.2286Z"
    fill="var(--foreground, currentColor)"
  />
  <path
    d="M362.739 274.161C372.189 294.521 383.719 316.032 397.349 338.672C406.449 353.902 414.419 368.702 421.229 383.062V387.271C414.089 371.882 405.619 355.981 395.809 339.581C382.789 317.941 371.659 297.312 362.439 277.722C362.589 276.562 362.699 275.371 362.739 274.161Z"
    fill="var(--foreground, currentColor)"
  />
  <path
    d="M446.449 380.911L446.439 380.941C444.599 380.781 441.949 380.712 438.489 380.712C435.03 380.712 432.379 380.791 430.539 380.941C430.609 380.421 430.669 379.371 430.719 377.802C430.769 376.232 430.798 374.541 430.818 372.731C430.828 370.652 430.819 368.772 430.789 367.092C430.749 365.412 430.699 364.152 430.609 363.312C431.248 363.372 431.889 363.392 432.528 363.392C433.168 363.392 433.809 363.362 434.449 363.312C434.279 363.921 434.129 364.741 433.979 365.781C433.829 366.821 433.719 368.002 433.619 369.312C433.539 370.601 433.469 371.851 433.429 373.071C433.389 374.291 433.369 375.361 433.389 376.281C434.039 376.311 434.689 376.332 435.339 376.342C435.989 376.352 436.639 376.352 437.289 376.342C437.329 374.492 437.319 372.442 437.239 370.212C437.159 367.982 437.059 366.171 436.929 364.781C437.439 364.841 437.969 364.861 438.519 364.861C439.069 364.861 439.599 364.831 440.109 364.781C439.999 366.191 439.899 368.022 439.829 370.252C439.759 372.482 439.749 374.512 439.809 376.342C441.279 376.342 442.549 376.301 443.609 376.231C443.619 375.232 443.608 374.112 443.568 372.882C443.528 371.652 443.458 370.442 443.359 369.252C443.279 368.012 443.159 366.862 443.019 365.802C442.879 364.752 442.719 363.912 442.549 363.292C443.189 363.352 443.839 363.371 444.499 363.371C445.159 363.371 445.819 363.342 446.449 363.292V380.911Z"
    fill="var(--foreground, currentColor)"
  />
  <path
    d="M185.859 324.802C186.448 324.942 187.038 325.061 187.638 325.181C186.457 344.117 181.967 361.804 174.149 378.191C174.149 378.21 174.129 378.211 174.129 378.211C173.099 378.891 172.089 379.571 171.129 380.281C179.749 363.241 184.648 344.722 185.859 324.802Z"
    fill="var(--foreground, currentColor)"
  />
  <path
    d="M311.469 323.651C319.199 342.561 324.708 360.642 328.028 377.892H328.019C327.339 377.452 326.649 377.031 325.939 376.621C322.619 359.911 317.219 342.412 309.749 324.132C310.319 323.982 310.899 323.831 311.469 323.651Z"
    fill="var(--foreground, currentColor)"
  />
  <path
    d="M76.6085 357.521C75.4086 358.331 74.2186 359.151 73.0587 359.981C71.8887 360.811 70.739 361.652 69.589 362.502C67.8389 363.801 66.0945 365.141 64.3517 366.526C66.0404 366.556 67.7399 366.56 69.4493 366.531C71.8191 366.491 74.1988 366.412 76.6085 366.262V370.882L76.5988 370.901C73.9388 370.791 71.2887 370.731 68.6388 370.731C65.989 370.731 63.3392 370.791 60.6993 370.901C60.8093 370.011 60.869 368.932 60.879 367.672C60.879 366.402 60.8293 365.382 60.6993 364.582C62.3093 363.522 63.9092 362.432 65.4991 361.332C67.0891 360.222 68.6694 359.081 70.2394 357.901C70.9993 357.341 71.759 356.771 72.5089 356.191C72.7019 356.045 72.893 355.895 73.0861 355.747C71.3615 355.711 69.6303 355.705 67.8888 355.741C66.7289 355.751 65.5391 355.782 64.3292 355.812C63.1094 355.852 61.9092 355.902 60.6993 355.972C60.8293 355.162 60.8886 354.381 60.8986 353.621C60.8985 352.861 60.8393 352.121 60.6993 351.411C62.0292 351.451 63.349 351.482 64.6788 351.512C65.9988 351.532 67.3389 351.542 68.6788 351.542C71.3087 351.542 73.9487 351.482 76.6085 351.352V357.521Z"
    fill="var(--foreground, currentColor)"
  />
  <path
    d="M295.059 327.422C299.719 341.352 303.099 354.811 305.199 367.781C304.669 367.611 304.129 367.452 303.589 367.302C303.499 367.272 303.389 367.242 303.299 367.222C301.189 354.532 297.839 341.352 293.259 327.722C293.859 327.632 294.469 327.522 295.059 327.422Z"
    fill="var(--foreground, currentColor)"
  />
  <path
    d="M211.879 329.132C212.089 341.582 210.929 353.522 208.409 364.941V364.951C207.759 365.091 207.129 365.221 206.489 365.371C209.099 353.751 210.309 341.581 210.099 328.892C210.689 328.972 211.279 329.042 211.879 329.132Z"
    fill="var(--foreground, currentColor)"
  />
  <path
    d="M276.759 329.991C279.689 341.311 281.699 352.302 282.799 362.922C282.199 362.832 281.589 362.752 280.989 362.682C279.859 352.192 277.849 341.342 274.949 330.172C275.549 330.122 276.159 330.061 276.759 329.991Z"
    fill="var(--foreground, currentColor)"
  />
  <path
    d="M233.199 331.001C233.799 331.051 234.409 331.082 235.009 331.092C236.019 341.522 236.139 351.602 235.369 361.352H235.379C234.779 361.382 234.169 361.432 233.579 361.472C234.359 351.662 234.239 341.501 233.199 331.001Z"
    fill="var(--foreground, currentColor)"
  />
  <path
    d="M256.719 331.251C258.549 341.451 259.569 351.371 259.799 360.981V360.991C259.209 360.971 258.609 360.941 257.999 360.941C257.769 351.371 256.729 341.501 254.909 331.312C255.509 331.292 256.129 331.281 256.719 331.251Z"
    fill="var(--foreground, currentColor)"
  />
  <path
    fill-rule="evenodd"
    clip-rule="evenodd"
    d="M438.439 337.491C440.199 337.491 441.689 337.921 442.949 338.771C444.199 339.631 445.159 340.871 445.809 342.491C446.469 344.121 446.799 346.061 446.799 348.321C446.799 350.581 446.469 352.531 445.809 354.151C445.149 355.781 444.199 357.022 442.949 357.882C441.699 358.742 440.199 359.172 438.439 359.172C436.679 359.172 435.179 358.742 433.929 357.882C432.679 357.022 431.718 355.771 431.068 354.151C430.409 352.531 430.079 350.581 430.079 348.321C430.079 346.061 430.409 344.111 431.068 342.491C431.728 340.871 432.679 339.621 433.929 338.771C435.179 337.922 436.679 337.491 438.439 337.491ZM438.539 341.892C437.389 341.892 436.359 342.141 435.519 342.651C434.679 343.161 434.039 343.891 433.589 344.861C433.139 345.821 432.919 346.971 432.919 348.321C432.919 349.671 433.139 350.832 433.589 351.792C434.039 352.752 434.679 353.472 435.519 353.972C436.359 354.472 437.369 354.722 438.539 354.722C439.709 354.722 440.659 354.472 441.479 353.972C442.289 353.472 442.909 352.742 443.339 351.792C443.759 350.842 443.979 349.681 443.979 348.321C443.979 346.981 443.769 345.821 443.339 344.861C442.919 343.901 442.299 343.161 441.479 342.651C440.669 342.142 439.689 341.892 438.539 341.892Z"
    fill="var(--foreground, currentColor)"
  />
  <path
    d="M426.739 50.9111C403.889 60.9911 382.309 76.1115 368.229 98.8115C333.969 154.032 351.329 239.342 419.818 352.352H419.809C420.289 353.132 420.759 353.932 421.229 354.722V358.222C420.259 356.572 419.279 354.931 418.289 353.271C349.409 239.641 332.049 153.701 366.699 97.8613C380.249 76.0215 400.629 61.0911 422.409 50.9111H426.739Z"
    fill="var(--foreground, currentColor)"
  />
  <path
    d="M86.2892 153.611C121.549 225.501 125.439 286.762 97.8693 335.812C94.7893 341.291 90.9891 347.161 86.2892 353.241V350.312C89.9291 345.442 93.2888 340.302 96.3087 334.932C123.139 287.192 119.779 227.611 86.2892 157.731V153.611Z"
    fill="var(--foreground, currentColor)"
  />
  <path
    d="M74.3185 317.651C75.2085 318.911 75.8787 320.292 76.3087 321.792C76.7486 323.292 76.9689 325.062 76.9689 327.111L76.9786 327.122C76.9786 329.442 76.6393 331.432 75.9493 333.092C75.2593 334.752 74.2887 336.022 73.0187 336.892C71.7487 337.762 70.2686 338.191 68.5587 338.191C66.769 338.191 65.239 337.722 63.9991 336.792C62.7591 335.862 61.8186 334.532 61.1886 332.812C60.5586 331.092 60.2491 329.051 60.2491 326.691C60.2492 325.302 60.3788 323.892 60.6388 322.462C60.8988 321.022 61.359 319.512 62.0089 317.912C62.7488 318.012 63.4188 318.062 64.0187 318.062C64.6186 318.062 65.3088 318.012 66.0587 317.912C65.0589 319.492 64.3486 321.002 63.9386 322.441C63.5286 323.881 63.319 325.212 63.299 326.462C63.289 327.942 63.4789 329.231 63.8888 330.321C64.2988 331.411 64.8987 332.252 65.6886 332.842C66.4786 333.432 67.439 333.731 68.549 333.731C69.6589 333.731 70.5388 333.462 71.3488 332.932C72.1587 332.402 72.7894 331.602 73.2394 330.542C73.6894 329.482 73.9191 328.162 73.9191 326.602C73.9191 325.042 73.6385 323.462 73.0685 322.012C72.4985 320.562 71.609 319.211 70.379 317.951C71.049 318.021 71.6892 318.021 72.3292 317.951C72.969 317.881 73.6287 317.781 74.3185 317.651Z"
    fill="var(--foreground, currentColor)"
  />
  <path
    d="M448.999 59.1514C425.429 69.2914 403.129 84.6612 388.689 107.911H388.699C357.679 157.851 368.639 232.301 421.219 329.531V333.271C366.959 234.012 355.489 157.972 387.169 106.972C401.989 83.1117 424.899 67.4612 448.999 57.2012V59.1514Z"
    fill="var(--foreground, currentColor)"
  />
  <path
    fill-rule="evenodd"
    clip-rule="evenodd"
    d="M446.439 310.111C445.52 310.404 444.497 310.763 443.372 311.178C443.327 312.441 443.309 313.885 443.309 315.512C443.309 317.093 443.332 318.503 443.37 319.741C444.444 320.153 445.467 320.541 446.439 320.901V325.932C445.209 325.342 443.909 324.731 442.539 324.111C441.169 323.491 439.819 322.891 438.489 322.312C435.659 321.092 433.009 320.001 430.539 319.021C430.669 318.022 430.739 316.772 430.749 315.292C430.759 313.812 430.689 312.652 430.539 311.812C433.369 310.682 436.019 309.571 438.489 308.481C440.609 307.561 443.259 306.351 446.439 304.852V310.111ZM440.78 312.164C439.045 312.842 437.458 313.482 436.019 314.082C434.519 314.717 433.494 315.182 432.943 315.502C433.774 315.946 435.978 316.873 439.549 318.271C439.959 318.432 440.37 318.587 440.777 318.744C440.821 317.736 440.839 316.62 440.839 315.382C440.839 314.203 440.816 313.134 440.78 312.164Z"
    fill="var(--foreground, currentColor)"
  />
  <path
    d="M248.609 129.922C276.878 129.922 299.149 133.971 315.439 142.071C331.719 150.171 339.858 162.161 339.859 178.031C339.859 187.121 337.209 194.892 331.919 201.342C326.629 207.792 319.929 212.832 311.829 216.472C303.729 220.112 295.378 222.342 286.778 223.172V227.142C307.608 228.472 323.979 232.891 335.879 240.411C347.779 247.941 353.729 258.311 353.729 271.531C353.729 289.381 343.479 302.322 322.979 310.342C302.479 318.362 277.429 322.371 247.839 322.371L247.869 322.342C229.519 322.342 210.799 320.482 191.709 316.762C172.609 313.042 158.349 308.042 148.929 301.762C150.249 294.162 150.909 287.011 150.909 280.312C150.909 273.612 150.249 265.891 148.929 257.121C153.719 262.741 161.579 267.991 172.489 272.871C183.399 277.751 195.679 281.631 209.309 284.531C222.949 287.421 235.799 288.871 247.869 288.871C262.419 288.871 273.619 286.812 281.469 282.672C289.319 278.542 293.249 272.591 293.249 264.812C293.249 255.222 288.039 248.492 277.619 244.602C267.209 240.722 252.909 238.771 234.719 238.771C230.749 238.771 226.169 238.982 220.959 239.392C215.759 239.812 210.499 240.262 205.209 240.762L186.359 242.251C187.018 237.461 187.349 232.501 187.349 227.371C187.349 222.241 187.019 217.371 186.359 212.741L190.579 213.241C195.369 213.741 200.619 214.231 206.329 214.731C212.029 215.231 218.189 215.472 224.799 215.472C247.449 215.472 263.319 213.031 272.419 208.161C281.509 203.291 286.059 196.711 286.059 188.451C286.059 180.191 282.258 174.771 274.649 171.711C267.039 168.651 256.878 167.121 244.149 167.121C226.299 167.121 209.429 168.941 193.559 172.581C177.689 176.221 163.389 182.252 150.659 190.682C152.479 183.902 153.429 176.461 153.509 168.361C153.589 160.261 152.799 152.821 151.149 146.041C164.539 141.081 180.199 137.162 198.139 134.262C216.079 131.372 232.899 129.922 248.609 129.922Z"
    fill="var(--foreground, currentColor)"
  />
  <path
    d="M76.6085 312.771L76.5988 312.792C74.7588 312.632 72.1085 312.562 68.6486 312.562C65.189 312.562 62.5393 312.642 60.6993 312.792C60.7693 312.272 60.829 311.221 60.879 309.651C60.929 308.082 60.9586 306.392 60.9786 304.582C60.9886 302.502 60.9793 300.621 60.9493 298.941C60.9093 297.262 60.8587 296.002 60.7687 295.172C61.4086 295.232 62.0487 295.252 62.6886 295.252C63.3285 295.252 63.9687 295.222 64.6085 295.172C64.4386 295.782 64.2888 296.602 64.1388 297.642C63.9988 298.682 63.8784 299.862 63.7784 301.172C63.6984 302.462 63.629 303.712 63.589 304.932C63.549 306.152 63.529 307.222 63.549 308.142C64.1989 308.172 64.8492 308.191 65.4991 308.201C66.1491 308.211 66.7994 308.211 67.4493 308.201C67.4893 306.351 67.4786 304.301 67.3986 302.071C67.3186 299.841 67.219 298.032 67.089 296.642C67.5989 296.702 68.1289 296.722 68.6788 296.722C69.2287 296.722 69.7588 296.692 70.2687 296.642C70.1587 298.052 70.0594 299.881 69.9894 302.111C69.9194 304.341 69.9089 306.371 69.9689 308.201C71.4388 308.201 72.7087 308.162 73.7687 308.092C73.7787 307.092 73.7686 305.971 73.7286 304.741C73.6886 303.511 73.6187 302.301 73.5187 301.111C73.4387 299.871 73.3188 298.721 73.1788 297.661C73.0388 296.611 72.8791 295.771 72.7091 295.151C73.349 295.211 73.9994 295.231 74.6593 295.231C75.319 295.231 75.9788 295.201 76.6085 295.151V312.771Z"
    fill="var(--foreground, currentColor)"
  />
  <path
    d="M449.009 78.7012C433.369 88.2212 419.349 100.691 409.179 117.031C382.529 159.881 386.629 220.701 421.219 298.441V302.771C384.879 222.701 380.269 160.121 407.649 116.081C418.169 99.1511 432.759 86.3216 448.999 76.6016H449.009V78.7012Z"
    fill="var(--foreground, currentColor)"
  />
  <path
    d="M446.449 300.901L446.439 300.922C444.599 300.762 441.949 300.691 438.489 300.691C435.03 300.691 432.379 300.772 430.539 300.922C430.609 300.402 430.669 299.351 430.719 297.781C430.769 296.211 430.798 294.522 430.818 292.712C430.828 290.632 430.819 288.751 430.789 287.071C430.749 285.392 430.699 284.132 430.609 283.302C431.248 283.362 431.889 283.382 432.528 283.382C433.168 283.382 433.809 283.352 434.449 283.302C434.279 283.912 434.129 284.732 433.979 285.771C433.839 286.811 433.719 287.992 433.619 289.302C433.539 290.592 433.469 291.842 433.429 293.062C433.389 294.282 433.369 295.351 433.389 296.271C434.039 296.301 434.689 296.321 435.339 296.331C435.989 296.341 436.639 296.341 437.289 296.331C437.329 294.481 437.319 292.431 437.239 290.201C437.159 287.971 437.059 286.161 436.929 284.771C437.439 284.831 437.969 284.852 438.519 284.852C439.069 284.852 439.599 284.821 440.109 284.771C439.999 286.181 439.899 288.011 439.829 290.241C439.759 292.471 439.749 294.501 439.809 296.331C441.279 296.331 442.549 296.292 443.609 296.222C443.619 295.222 443.608 294.101 443.568 292.871C443.528 291.641 443.458 290.431 443.359 289.241C443.279 288.001 443.159 286.851 443.019 285.791C442.879 284.741 442.719 283.901 442.549 283.281C443.189 283.341 443.839 283.361 444.499 283.361C445.159 283.361 445.819 283.331 446.449 283.281V300.901Z"
    fill="var(--foreground, currentColor)"
  />
  <path
    d="M76.6085 276.802C75.4086 277.612 74.2186 278.432 73.0587 279.262C71.8889 280.092 70.7389 280.941 69.589 281.781C67.8386 283.081 66.0938 284.421 64.3507 285.807C66.0397 285.836 67.7395 285.84 69.4493 285.812C71.8191 285.772 74.1988 285.692 76.6085 285.542V290.161L76.5988 290.182C73.9388 290.072 71.2887 290.012 68.6388 290.012C65.989 290.012 63.3392 290.072 60.6993 290.182C60.8093 289.292 60.869 288.211 60.879 286.951C60.879 285.681 60.8293 284.661 60.6993 283.861C62.3092 282.801 63.9093 281.711 65.4991 280.602C67.0891 279.492 68.6694 278.352 70.2394 277.182C70.9993 276.612 71.759 276.052 72.5089 275.472C72.7017 275.325 72.8923 275.175 73.0851 275.027C71.3609 274.992 69.63 274.986 67.8888 275.021C66.7289 275.031 65.5391 275.062 64.3292 275.092C63.1194 275.122 61.9092 275.182 60.6993 275.252C60.8293 274.442 60.8886 273.661 60.8986 272.901C60.8985 272.141 60.8393 271.401 60.6993 270.691C62.0292 270.731 63.349 270.762 64.6788 270.792C65.9988 270.812 67.3389 270.821 68.6788 270.821C71.3087 270.821 73.9487 270.762 76.6085 270.632V276.802Z"
    fill="var(--foreground, currentColor)"
  />
  <path
    d="M86.299 201.281C94.0589 233.521 94.0589 263.051 86.299 289.661V282.621C91.6688 260.241 91.6589 235.831 86.299 209.512V201.281Z"
    fill="var(--foreground, currentColor)"
  />
  <path
    d="M227.679 248.021C233.069 258.811 237.759 269.382 241.809 279.672C241.159 279.652 240.499 279.621 239.829 279.581C235.799 269.351 231.109 258.862 225.729 248.132C226.389 248.082 227.039 248.051 227.679 248.021Z"
    fill="var(--foreground, currentColor)"
  />
  <path
    d="M243.028 247.972C248.868 258.662 254.089 269.111 258.669 279.331C258.049 279.391 257.418 279.451 256.778 279.481C252.148 269.192 246.859 258.652 240.929 247.892C241.639 247.922 242.329 247.942 243.028 247.972Z"
    fill="var(--foreground, currentColor)"
  />
  <path
    fill-rule="evenodd"
    clip-rule="evenodd"
    d="M446.439 265.251C445.149 265.381 444.109 265.671 443.309 266.121C442.509 266.571 441.899 267.221 441.489 268.071C441.069 268.921 440.799 270.031 440.669 271.401C440.629 271.741 440.599 272.121 440.589 272.531C440.579 272.951 440.568 273.371 440.568 273.791C442.628 273.731 443.809 273.702 444.089 273.682C444.509 273.672 444.919 273.641 445.299 273.611C445.679 273.581 446.059 273.542 446.449 273.512V278.321H446.439C444.599 278.161 441.949 278.092 438.489 278.092C435.03 278.092 432.379 278.171 430.539 278.321C430.549 277.261 430.559 276.271 430.559 275.361C430.559 274.451 430.549 273.572 430.519 272.722C430.489 272.132 430.469 271.521 430.469 270.901C430.469 270.281 430.459 269.622 430.459 268.932C430.459 265.822 430.839 263.532 431.619 262.052C432.389 260.572 433.569 259.831 435.149 259.831C436.349 259.831 437.309 260.221 438.009 260.991C438.709 261.761 439.209 262.652 439.479 263.672C439.749 264.692 439.889 265.622 439.889 266.472H440.229C440.579 264.552 441.369 263.012 442.589 261.852C443.809 260.692 445.099 259.791 446.439 259.161V265.251ZM435.579 264.491C434.769 264.491 434.188 264.891 433.818 265.691C433.449 266.491 433.269 267.621 433.269 269.071C433.269 269.611 433.268 270.142 433.278 270.672C433.278 271.202 433.299 271.712 433.329 272.191L433.349 273.722C434.059 273.752 434.789 273.771 435.539 273.781C436.299 273.791 437.079 273.802 437.909 273.802H437.929L437.989 272.802C438.019 272.262 438.048 271.691 438.068 271.071C438.098 270.451 438.109 269.852 438.109 269.262C438.109 268.212 438.019 267.342 437.829 266.632C437.639 265.922 437.369 265.391 436.989 265.031C436.619 264.671 436.149 264.491 435.579 264.491Z"
    fill="var(--foreground, currentColor)"
  />
  <path
    d="M212.028 249.212C216.328 258.962 220.059 268.511 223.199 277.861L221.209 277.541V277.521C218.089 268.361 214.399 258.972 210.149 249.392C210.765 249.332 211.392 249.272 212.028 249.212Z"
    fill="var(--foreground, currentColor)"
  />
  <path
    d="M256.389 249.001C257.139 249.081 257.869 249.181 258.579 249.271V249.291C259.889 251.661 261.239 254.041 262.589 256.441V256.451C266.409 263.171 269.989 269.811 273.339 276.361C272.779 276.561 272.209 276.752 271.619 276.932C268.329 270.492 264.799 263.951 261.039 257.321C259.459 254.531 257.899 251.751 256.389 249.001Z"
    fill="var(--foreground, currentColor)"
  />
  <path
    d="M195.429 250.611C198.419 258.471 200.979 266.201 203.139 273.781C202.459 273.631 201.799 273.451 201.129 273.271C198.999 265.901 196.479 258.401 193.579 250.751L195.419 250.611H195.429Z"
    fill="var(--foreground, currentColor)"
  />
  <path
    d="M274.459 253.071C274.959 253.251 275.429 253.452 275.859 253.632V253.651C278.398 258.361 281.019 263.101 283.778 267.911C283.578 268.571 283.279 269.252 282.859 269.932C279.509 264.092 276.319 258.341 273.309 252.661C273.699 252.801 274.079 252.931 274.459 253.071Z"
    fill="var(--foreground, currentColor)"
  />
  <path
    d="M155.639 198.241C164.319 215.461 171.259 232.082 176.439 248.062C176.879 249.392 177.289 250.702 177.679 252.012C179.249 257.072 180.639 262.052 181.829 266.972H181.818C181.129 266.702 180.449 266.412 179.769 266.142C174.499 245.012 165.959 222.692 154.129 199.222L155.639 198.241Z"
    fill="var(--foreground, currentColor)"
  />
  <path
    d="M64.2589 247.531C64.0489 248.591 63.8789 249.692 63.7589 250.842C63.6389 251.992 63.5692 253.342 63.5392 254.892C65.7291 254.962 68.1094 254.972 70.6593 254.932C73.219 254.892 75.1988 254.802 76.5988 254.682V259.562C75.1888 259.432 73.1989 259.362 70.629 259.342C68.0591 259.322 65.6991 259.341 63.5392 259.411C63.5692 260.951 63.6389 262.292 63.7589 263.432C63.8789 264.572 64.0489 265.662 64.2589 266.712C63.6689 266.602 63.0686 266.541 62.4786 266.541C61.8888 266.541 61.2891 266.602 60.6993 266.712C60.7993 263.092 60.8488 259.901 60.8488 257.121C60.8488 254.341 60.7993 251.151 60.6993 247.531C61.2891 247.631 61.8889 247.682 62.4786 247.682C63.0686 247.682 63.6689 247.631 64.2589 247.531Z"
    fill="var(--foreground, currentColor)"
  />
  <path
    d="M421.229 142.731C409.159 172.431 409.169 209.182 421.229 252.691V259.131C406.799 210.651 406.789 170.221 421.229 138.151V142.731Z"
    fill="var(--foreground, currentColor)"
  />
  <path
    d="M446.449 254.672L446.439 254.691C444.599 254.531 441.949 254.462 438.489 254.462C435.03 254.462 432.379 254.541 430.539 254.691C430.609 254.171 430.669 253.121 430.719 251.552C430.769 249.982 430.798 248.291 430.818 246.481C430.828 244.402 430.819 242.522 430.789 240.842C430.749 239.162 430.699 237.901 430.609 237.071C431.248 237.131 431.889 237.151 432.528 237.151C433.168 237.151 433.809 237.121 434.449 237.071C434.279 237.681 434.129 238.502 433.979 239.542C433.839 240.582 433.719 241.762 433.619 243.071C433.539 244.361 433.469 245.611 433.429 246.831C433.389 248.051 433.369 249.122 433.389 250.042C434.039 250.072 434.689 250.092 435.339 250.102C435.989 250.112 436.639 250.112 437.289 250.102C437.329 248.252 437.319 246.202 437.239 243.972C437.159 241.742 437.059 239.932 436.929 238.542C437.439 238.602 437.969 238.621 438.519 238.621C439.069 238.621 439.599 238.592 440.109 238.542C439.999 239.952 439.899 241.782 439.829 244.012C439.759 246.242 439.749 248.272 439.809 250.102C441.279 250.102 442.549 250.061 443.609 249.991C443.619 248.991 443.608 247.871 443.568 246.642C443.528 245.412 443.459 244.202 443.359 243.012C443.279 241.772 443.159 240.622 443.019 239.562C442.879 238.512 442.719 237.672 442.549 237.052C443.189 237.112 443.839 237.132 444.499 237.132C445.159 237.132 445.819 237.102 446.449 237.052V254.672Z"
    fill="var(--foreground, currentColor)"
  />
  <path
    d="M143.109 206.521C150.009 222.971 155.169 238.822 158.609 254.052H158.599C157.719 253.282 156.919 252.501 156.219 251.711C152.839 237.521 147.959 222.791 141.599 207.531L143.109 206.521Z"
    fill="var(--foreground, currentColor)"
  />
  <path
    d="M76.6085 243.592L76.5988 243.611C74.7588 243.451 72.1085 243.382 68.6486 243.382C65.189 243.382 62.5393 243.461 60.6993 243.611C60.7693 243.091 60.829 242.041 60.879 240.472C60.929 238.902 60.9586 237.211 60.9786 235.401C60.9886 233.322 60.9793 231.442 60.9493 229.762C60.9093 228.082 60.8587 226.821 60.7687 225.991C61.4086 226.051 62.0487 226.071 62.6886 226.071C63.3285 226.071 63.9686 226.041 64.6085 225.991C64.4385 226.601 64.2888 227.422 64.1388 228.462C63.9988 229.502 63.8784 230.681 63.7784 231.991C63.6985 233.281 63.629 234.531 63.589 235.751C63.549 236.971 63.5289 238.042 63.549 238.962C64.1989 238.992 64.8492 239.011 65.4991 239.021C66.1491 239.031 66.7994 239.031 67.4493 239.021C67.4893 237.172 67.4786 235.122 67.3986 232.892C67.3186 230.662 67.219 228.852 67.089 227.462C67.5989 227.522 68.1289 227.541 68.6788 227.541C69.2287 227.541 69.7588 227.512 70.2687 227.462C70.1587 228.872 70.0594 230.702 69.9894 232.932C69.9194 235.162 69.9089 237.192 69.9689 239.021C71.4388 239.021 72.7087 238.981 73.7687 238.911C73.7787 237.911 73.7686 236.791 73.7286 235.562C73.6886 234.332 73.6187 233.122 73.5187 231.932C73.4387 230.692 73.3188 229.541 73.1788 228.481C73.0389 227.432 72.8791 226.592 72.7091 225.972C73.349 226.032 73.9994 226.052 74.6593 226.052C75.319 226.052 75.9788 226.022 76.6085 225.972V243.592Z"
    fill="var(--foreground, currentColor)"
  />
  <path
    d="M338.289 207.842C340.799 217.512 343.929 227.552 347.719 237.932C346.859 237.182 345.968 236.441 345.028 235.731C341.828 226.702 339.109 217.941 336.869 209.441C337.369 208.911 337.839 208.382 338.289 207.842Z"
    fill="var(--foreground, currentColor)"
  />
  <path
    d="M56.2394 230.001C56.5494 230.471 56.8591 230.952 57.1691 231.432C57.989 232.662 58.5593 233.491 58.8693 233.911C58.8393 234.151 58.8292 234.661 58.8292 235.441C58.8292 236.221 58.8393 236.732 58.8693 236.972C58.3493 236.432 57.349 235.631 55.879 234.571C55.849 234.541 55.6686 234.412 55.3488 234.172C55.4488 233.652 55.4991 232.721 55.4991 231.401C55.4991 230.082 55.4487 229.162 55.3488 228.632C55.6287 229.072 55.9295 229.521 56.2394 230.001Z"
    fill="var(--foreground, currentColor)"
  />
  <path
    fill-rule="evenodd"
    clip-rule="evenodd"
    d="M438.439 211.241C440.199 211.241 441.689 211.671 442.949 212.521C444.199 213.381 445.159 214.621 445.809 216.241C446.469 217.871 446.799 219.811 446.799 222.071C446.799 224.331 446.469 226.281 445.809 227.901C445.149 229.531 444.199 230.772 442.949 231.632C441.699 232.492 440.199 232.922 438.439 232.922C436.679 232.922 435.179 232.492 433.929 231.632C432.679 230.772 431.718 229.521 431.068 227.901C430.409 226.271 430.079 224.331 430.079 222.071C430.079 219.811 430.409 217.861 431.068 216.241C431.728 214.611 432.679 213.371 433.929 212.521C435.179 211.672 436.679 211.241 438.439 211.241ZM438.539 215.642C437.389 215.642 436.359 215.891 435.519 216.401C434.679 216.911 434.039 217.641 433.589 218.611C433.139 219.571 432.919 220.721 432.919 222.071C432.919 223.421 433.139 224.581 433.589 225.541C434.039 226.491 434.679 227.222 435.519 227.722C436.359 228.222 437.369 228.472 438.539 228.472C439.709 228.472 440.659 228.222 441.479 227.722C442.289 227.222 442.909 226.491 443.339 225.541C443.759 224.591 443.979 223.431 443.979 222.071C443.979 220.731 443.769 219.571 443.339 218.611C442.919 217.651 442.299 216.911 441.479 216.401C440.669 215.892 439.689 215.642 438.539 215.642Z"
    fill="var(--foreground, currentColor)"
  />
  <path
    d="M324.489 219.892C325.149 221.841 325.829 223.801 326.539 225.781C325.819 225.491 325.089 225.221 324.349 224.981C323.869 223.592 323.399 222.222 322.929 220.842C323.459 220.542 323.969 220.212 324.479 219.892H324.489Z"
    fill="var(--foreground, currentColor)"
  />
  <path
    d="M72.0284 202.271C73.6384 202.271 74.839 203.011 75.629 204.481C76.419 205.951 76.8185 208.182 76.8185 211.182H76.8488C76.8487 212.992 76.6789 214.771 76.339 216.531C75.999 218.291 75.5584 219.902 75.0284 221.352C74.3186 221.242 73.6189 221.182 72.9191 221.182C72.2192 221.182 71.5191 221.242 70.8292 221.352C71.8192 220.392 72.5692 218.912 73.0792 216.932C73.5892 214.952 73.839 212.882 73.839 210.752C73.839 209.392 73.6887 208.412 73.3888 207.802C73.0888 207.192 72.6384 206.892 72.0284 206.892C71.5087 206.892 71.1184 207.082 70.8585 207.462C70.6087 207.842 70.4084 208.442 70.2784 209.252C70.1485 210.062 69.9987 211.392 69.8488 213.231C69.6788 215.111 69.4392 216.641 69.1193 217.831C68.7993 219.021 68.3288 219.931 67.7189 220.571C67.0989 221.211 66.279 221.521 65.2491 221.521C63.6191 221.521 62.4088 220.802 61.5988 219.352C60.7888 217.902 60.3888 215.701 60.3888 212.741C60.3888 211.131 60.4693 209.701 60.6193 208.451C60.7793 207.201 61.0085 205.911 61.3185 204.581C61.4884 203.801 61.5993 203.311 61.6593 203.121C62.1092 203.191 62.5693 203.242 63.0392 203.262C63.509 203.282 63.9688 203.282 64.4386 203.252C64.6385 203.242 64.8386 203.221 65.0284 203.201C65.2284 203.181 65.4293 203.152 65.6193 203.132C64.9493 204.592 64.4189 206.132 64.0089 207.752C63.599 209.372 63.3888 211.092 63.3888 212.901C63.3888 214.311 63.5289 215.342 63.799 215.962C64.0789 216.592 64.5089 216.901 65.0988 216.901C65.5988 216.901 65.9884 216.721 66.2784 216.371C66.5684 216.021 66.7893 215.451 66.9493 214.661C67.1093 213.871 67.2388 212.771 67.3488 211.342C67.3787 210.922 67.4088 210.602 67.4288 210.392C67.5988 208.542 67.8393 207.031 68.1593 205.861C68.4793 204.692 68.9486 203.801 69.5685 203.191C70.1884 202.581 71.0087 202.272 72.0284 202.271Z"
    fill="var(--foreground, currentColor)"
  />
  <path
    d="M167.329 191.461C169.079 194.831 170.879 198.241 172.749 201.661C174.109 204.171 175.439 206.662 176.719 209.132L177.409 214.001C177.439 214.181 177.449 214.351 177.469 214.531C175.479 210.561 173.359 206.551 171.179 202.521C169.309 199.081 167.499 195.671 165.749 192.291C166.279 192.001 166.809 191.731 167.329 191.461Z"
    fill="var(--foreground, currentColor)"
  />
  <path
    d="M209.079 178.802C212.639 187.732 216.669 196.931 221.179 206.371V206.382C220.519 206.382 219.849 206.361 219.189 206.331C214.749 197.001 210.779 187.932 207.269 179.092C207.869 178.982 208.479 178.892 209.079 178.802Z"
    fill="var(--foreground, currentColor)"
  />
  <path
    d="M225.009 176.922C228.419 186.372 232.379 196.102 236.869 206.142C236.249 206.172 235.599 206.201 234.949 206.231C230.479 196.222 226.559 186.502 223.179 177.092C223.779 177.032 224.389 176.982 225.009 176.922Z"
    fill="var(--foreground, currentColor)"
  />
  <path
    d="M194.019 181.751C197.419 189.491 201.139 197.421 205.219 205.521V205.531C204.509 205.471 203.819 205.391 203.119 205.331C199.179 197.451 195.559 189.741 192.249 182.191C192.839 182.041 193.429 181.891 194.019 181.751Z"
    fill="var(--foreground, currentColor)"
  />
  <path
    d="M241.769 176.172C244.759 185.382 248.289 194.871 252.359 204.661V204.672C251.769 204.762 251.169 204.852 250.549 204.932C246.439 195.062 242.899 185.481 239.909 176.191C240.529 176.191 241.149 176.172 241.769 176.172Z"
    fill="var(--foreground, currentColor)"
  />
  <path
    d="M180.089 185.961C182.899 191.851 185.889 197.851 189.089 203.941L189.079 203.932L186.939 203.672C183.909 197.892 181.069 192.182 178.399 186.592C178.959 186.382 179.519 186.171 180.089 185.961Z"
    fill="var(--foreground, currentColor)"
  />
  <path
    d="M257.489 176.871C258.139 176.951 258.789 177.021 259.409 177.111C261.639 184.731 264.249 192.561 267.259 200.611C266.759 200.851 266.219 201.081 265.629 201.321C262.489 192.941 259.789 184.791 257.489 176.871Z"
    fill="var(--foreground, currentColor)"
  />
  <path
    d="M86.7394 50.9111C89.0794 85.9711 102.799 127.202 127.839 174.262H127.829C132.039 182.262 135.889 190.121 139.349 197.861L138.629 200.611C134.949 192.251 130.809 183.752 126.249 175.092C101.059 127.762 87.2786 86.2711 84.9386 50.9111H86.7394Z"
    fill="var(--foreground, currentColor)"
  />
  <path
    d="M76.6085 197.291H76.5988C74.7588 197.131 72.1084 197.062 68.6486 197.062C65.189 197.062 62.5393 197.141 60.6993 197.291C60.8293 196.441 60.8886 195.621 60.8986 194.821C60.8986 194.021 60.8393 193.241 60.6993 192.481C62.5793 192.641 65.259 192.711 68.7286 192.691C72.1984 192.681 74.8285 192.581 76.6085 192.411V197.291Z"
    fill="var(--foreground, currentColor)"
  />
  <path
    d="M76.6085 169.401C75.5785 169.321 73.7587 169.241 71.1593 169.191C68.836 169.161 66.7651 169.154 64.9474 169.18C66.5636 169.907 68.3487 170.668 70.299 171.462C72.3389 172.292 74.4589 173.111 76.6788 173.901V177.842C74.5289 178.602 72.4084 179.412 70.3185 180.262C68.4316 181.033 66.668 181.793 65.0236 182.533C66.7551 182.549 68.6554 182.542 70.7286 182.512C73.4586 182.472 75.419 182.382 76.629 182.262V186.901H76.5988C74.7588 186.741 72.1085 186.672 68.6486 186.672C65.189 186.672 62.5393 186.751 60.6993 186.901C60.8093 186.051 60.869 184.921 60.879 183.521C60.879 182.112 60.8293 181.042 60.6993 180.292C63.0592 179.512 65.1893 178.762 67.0792 178.042C68.6804 177.435 70.4739 176.701 72.4484 175.854C70.8979 175.145 69.0979 174.376 67.0587 173.552C64.8389 172.672 62.7192 171.902 60.6993 171.222C60.8293 170.432 60.8888 169.342 60.8888 167.962C60.8888 166.582 60.8293 165.501 60.6993 164.701C62.5793 164.861 65.259 164.931 68.7286 164.911C72.1984 164.901 74.8285 164.802 76.6085 164.632V169.401Z"
    fill="var(--foreground, currentColor)"
  />
  <path
    d="M107.019 50.9111C107.289 86.0611 119.649 127.881 144.068 176.031C143.958 177.121 143.839 178.191 143.689 179.241C118.349 129.861 105.519 86.9611 105.229 50.9111H107.019Z"
    fill="var(--foreground, currentColor)"
  />
  <path
    fill-rule="evenodd"
    clip-rule="evenodd"
    d="M68.5988 138.281C70.3586 138.281 71.8486 138.712 73.1085 139.562C74.3585 140.421 75.3189 141.661 75.9689 143.281C76.6289 144.911 76.9591 146.851 76.9591 149.111C76.9591 151.371 76.6289 153.321 75.9689 154.941C75.3089 156.571 74.3585 157.812 73.1085 158.672C71.8586 159.532 70.3585 159.962 68.5988 159.962C66.8389 159.962 65.3389 159.532 64.089 158.672C62.839 157.812 61.8786 156.561 61.2286 154.941C60.5687 153.311 60.2394 151.371 60.2394 149.111C60.2394 146.851 60.5687 144.901 61.2286 143.281C61.8886 141.651 62.839 140.412 64.089 139.562C65.3389 138.712 66.8388 138.281 68.5988 138.281ZM68.6993 142.682C67.5493 142.682 66.5188 142.931 65.6788 143.441C64.8389 143.951 64.1991 144.681 63.7491 145.651C63.2992 146.611 63.0792 147.761 63.0792 149.111C63.0792 150.461 63.2992 151.621 63.7491 152.581C64.1991 153.531 64.8388 154.262 65.6788 154.762C66.5188 155.262 67.5294 155.512 68.6993 155.512C69.8691 155.512 70.8189 155.262 71.6388 154.762C72.4488 154.262 73.0691 153.531 73.4991 152.581C73.919 151.631 74.1388 150.471 74.1388 149.111C74.1388 147.771 73.9291 146.611 73.4991 145.651C73.0791 144.691 72.4588 143.951 71.6388 143.441C70.8289 142.932 69.8491 142.682 68.6993 142.682Z"
    fill="var(--foreground, currentColor)"
  />
  <path
    d="M444.479 145.821L449.009 156.691L438.139 152.161L427.278 156.691L431.799 145.821L427.278 134.951L438.139 139.481L449.009 134.951L444.479 145.821Z"
    fill="var(--foreground, currentColor)"
  />
  <path
    d="M388.549 50.9111C372.549 60.3911 358.109 72.9814 347.739 89.7012C338.429 104.731 332.949 122.012 331.299 141.472C330.759 141.022 330.199 140.591 329.639 140.191C331.409 120.901 336.929 103.741 346.209 88.751C356.189 72.6612 369.889 60.3311 385.099 50.9111H388.549Z"
    fill="var(--foreground, currentColor)"
  />
  <path
    d="M127.629 50.9219C126.199 76.5501 131.598 105.978 143.846 139.075L142.179 139.691C129.859 106.412 124.419 76.7718 125.849 50.9219H127.629Z"
    fill="var(--foreground, currentColor)"
  />
  <path
    d="M143.849 139.081C143.848 139.079 143.847 139.077 143.846 139.075L143.859 139.071L143.849 139.081Z"
    fill="var(--foreground, currentColor)"
  />
  <path
    d="M148.899 50.9111C145.839 74.9511 149.249 102.632 159.119 133.802C158.549 133.982 157.969 134.151 157.409 134.331C147.509 103.011 144.069 75.1711 147.099 50.9111H148.899Z"
    fill="var(--foreground, currentColor)"
  />
  <path
    d="M449.009 103.041C441.669 109.731 435.119 117.391 429.659 126.151C428.769 127.581 427.909 129.031 427.089 130.501H425.039C426.019 128.701 427.049 126.941 428.129 125.201C433.969 115.801 441.059 107.661 448.999 100.611H449.009V103.041Z"
    fill="var(--foreground, currentColor)"
  />
  <path
    d="M354.549 50.9111C343.999 58.9511 334.599 68.7212 327.259 80.5811C318.279 95.0811 312.909 111.672 311.109 130.312C310.539 130.082 309.959 129.871 309.389 129.661C311.249 110.951 316.689 94.2515 325.729 79.6416C332.779 68.2616 341.679 58.7814 351.659 50.9014H354.539L354.549 50.9111Z"
    fill="var(--foreground, currentColor)"
  />
  <path
    d="M61.1886 98.1016C64.9586 108.352 69.4192 118.941 74.5792 129.901H72.5792C68.3092 120.751 64.5086 111.851 61.1886 103.191V98.1016Z"
    fill="var(--foreground, currentColor)"
  />
  <path
    d="M170.839 50.9219C166.16 73.6192 167.699 99.8257 175.456 129.441C174.867 129.581 174.298 129.712 173.719 129.852C165.949 100.132 164.379 73.7818 169.009 50.9219H170.839Z"
    fill="var(--foreground, currentColor)"
  />
  <path
    d="M175.459 129.451C175.458 129.448 175.457 129.445 175.456 129.441H175.459V129.451Z"
    fill="var(--foreground, currentColor)"
  />
  <path
    d="M193.559 50.9111C187.189 72.491 186.929 97.5511 192.759 125.961C192.189 126.051 191.599 126.162 191.019 126.262C185.189 97.7817 185.419 72.6414 191.709 50.9014H193.549L193.559 50.9111Z"
    fill="var(--foreground, currentColor)"
  />
  <path
    d="M323.449 50.9111C317.189 56.9511 311.539 63.7714 306.769 71.4814H306.778C297.299 86.8313 291.849 104.521 290.449 124.501C289.859 124.381 289.269 124.272 288.679 124.172C290.109 103.992 295.639 86.0913 305.249 70.5312C309.759 63.2314 315.059 56.7111 320.899 50.9111H323.449Z"
    fill="var(--foreground, currentColor)"
  />
  <path
    d="M217.159 50.9111C208.979 71.5711 206.929 95.7213 210.989 123.281C210.399 123.341 209.809 123.421 209.209 123.491C205.149 95.9213 207.159 71.6911 215.229 50.9111H217.159Z"
    fill="var(--foreground, currentColor)"
  />
  <path
    d="M294.679 50.9111C291.809 54.401 289.139 58.0914 286.699 62.0312C276.169 79.0511 270.629 98.9611 270.068 121.711C269.479 121.651 268.889 121.601 268.289 121.571C268.859 98.5413 274.489 78.351 285.189 61.0811C287.409 57.5011 289.809 54.1111 292.369 50.9111H294.679Z"
    fill="var(--foreground, currentColor)"
  />
  <path
    d="M241.749 50.9111C231.519 70.8311 227.609 94.3914 230.009 121.481C229.419 121.511 228.829 121.562 228.239 121.602C225.859 94.5416 229.689 70.9311 239.759 50.9111H241.749Z"
    fill="var(--foreground, currentColor)"
  />
  <path
    d="M267.489 50.9111C267.069 51.5711 266.639 52.2414 266.239 52.9014C254.449 71.9314 248.959 94.6216 249.739 120.852H247.969C247.189 94.2916 252.749 71.2912 264.719 51.9512C264.929 51.6012 265.159 51.2611 265.379 50.9111H267.489Z"
    fill="var(--foreground, currentColor)"
  />
</svg>
