<svg xmlns="http://www.w3.org/2000/svg" fill="none" viewBox="0 0 118 22">
  <!-- <path fill="#fff" d="M-1 0h119v22H-1z" /> -->
  <path
    d="M5.297 1a2.13 2.13 0 0 0 2.348 2.06 2.13 2.13 0 0 0 1.902-2q.004-.029.005-.058h2.196a2.127 2.127 0 0 0 3.53 1.541l.006-.007c.427-.376.7-.924.718-1.534l2.196.002A2.128 2.128 0 0 0 20.16 3.08q.03.001.056.004.035 0 .071.002h.018v.02a2.127 2.127 0 0 0 2.076-1.96q.001-.03.004-.057 0-.034.002-.07V1H24.6a2.13 2.13 0 0 0 2.347 2.06 2.13 2.13 0 0 0 1.903-2q.004-.029.005-.058h2.196a2.126 2.126 0 0 0 3.53 1.541l.006-.007c.426-.376.7-.924.718-1.534l2.196.002a2.128 2.128 0 0 0 1.96 2.076q.03.001.057.004.035 0 .07.002h.018v.02q.403-.01.754-.155a2.13 2.13 0 0 0 1.323-1.805q0-.03.004-.057-.001-.034.002-.07V1h2.214a2.13 2.13 0 0 0 2.348 2.06 2.13 2.13 0 0 0 1.902-2q.005-.029.005-.058h2.197a2.126 2.126 0 0 0 3.529 1.541l.007-.007c.426-.376.7-.924.717-1.534l2.197.002a2.127 2.127 0 0 0 1.96 2.076q.03.001.056.004.034 0 .072.002h.017v.02a2.127 2.127 0 0 0 2.076-1.96q.001-.03.004-.057 0-.034.002-.07V1h2.215a2.13 2.13 0 0 0 2.348 2.06 2.13 2.13 0 0 0 1.902-2q.005-.029.005-.058h2.196a2.126 2.126 0 0 0 3.53 1.541l.006-.007c.427-.376.7-.924.718-1.534l2.196.002a2.128 2.128 0 0 0 1.96 2.076q.03.001.057.004.035 0 .071.002h.018v.02q.401-.01.754-.155a2.13 2.13 0 0 0 1.322-1.805q.001-.03.004-.057 0-.034.002-.07V1h2.215a2.13 2.13 0 0 0 2.347 2.06 2.13 2.13 0 0 0 1.903-2q.004-.029.005-.058h2.196a2.126 2.126 0 0 0 3.53 1.541l.006-.007c.427-.376.7-.924.718-1.534l2.196.002a2.128 2.128 0 0 0 1.96 2.076q.03.001.057.004.035 0 .071.002h.018v.02a2.127 2.127 0 0 0 2.076-1.96q0-.03.004-.057-.001-.034.002-.07V1h2.214a2.13 2.13 0 0 0 2.348 2.06 2.126 2.126 0 0 0 1.902-2 .4.4 0 0 0 .005-.058h2.197a2.126 2.126 0 0 0 3.529 1.541l.007-.007c.426-.376.7-.924.718-1.534l2.196.002a2.128 2.128 0 0 0 1.961 2.076q.029.001.055.004.035 0 .072.002h.017V5.3a2.13 2.13 0 0 0-2.059 2.347 2.126 2.126 0 0 0 1.999 1.903q.03.004.059.005v2.195a2.127 2.127 0 0 0-1.541 3.53l.006.007a2.13 2.13 0 0 0 1.535.717l.001 2.135a2.127 2.127 0 0 0-2.076 1.961q-.001.029-.004.055 0 .035-.003.072v.017l-2.217-.004a2.124 2.124 0 0 0-2.101-2.083h-.026q-.11.001-.219.01l-.091.013h-.005l-.085.013q-.043.01-.088.02a2.135 2.135 0 0 0-1.639 2.027h-2.195a2.124 2.124 0 0 0-2.018-2.08q-.054-.002-.108-.003-.044 0-.089.003a1 1 0 0 0-.099.007h-.004a2.127 2.127 0 0 0-1.937 2.074h-2.194a2.126 2.126 0 0 0-1.96-2.076q-.03-.001-.058-.004-.034 0-.07-.002h-.017v-1.184 1.164a2.127 2.127 0 0 0-2.076 1.961q-.001.029-.004.055 0 .035-.003.072v.017l-2.217-.004a2.125 2.125 0 0 0-2.102-2.083h-.026a3 3 0 0 0-.219.01l-.09.013h-.006l-.085.013q-.043.01-.088.02a2.134 2.134 0 0 0-1.64 2.027H86.77a2.12 2.12 0 0 0-.634-1.47 2.12 2.12 0 0 0-1.385-.61c-.037 0-.07-.003-.107-.003q-.045 0-.09.003a1 1 0 0 0-.099.007h-.004a2.126 2.126 0 0 0-1.936 2.074H80.32a2.126 2.126 0 0 0-1.96-2.076q-.03-.001-.057-.004-.034 0-.07-.002h-.018v-1.184 1.164a2.127 2.127 0 0 0-2.076 1.961q-.001.029-.004.055 0 .035-.003.072v.017l-2.217-.004a2.125 2.125 0 0 0-2.102-2.083h-.026q-.11.001-.219.01l-.09.013h-.005l-.085.013q-.045.01-.088.02a2.134 2.134 0 0 0-1.64 2.027h-2.194a2.12 2.12 0 0 0-.634-1.47 2.12 2.12 0 0 0-1.385-.61c-.037 0-.07-.003-.107-.003q-.045 0-.089.003a1 1 0 0 0-.1.007h-.004a2.126 2.126 0 0 0-1.936 2.074h-2.194a2.126 2.126 0 0 0-1.96-2.076q-.03-.001-.058-.004-.034 0-.07-.002h-.018v-1.184 1.164a2.127 2.127 0 0 0-2.076 1.961q-.001.029-.004.055 0 .035-.003.072v.017l-2.217-.004a2.125 2.125 0 0 0-2.101-2.083h-.027q-.108.001-.218.01l-.091.013h-.005l-.085.013q-.045.01-.088.02a2.134 2.134 0 0 0-1.64 2.027h-2.194a2.12 2.12 0 0 0-.634-1.47 2.12 2.12 0 0 0-1.384-.61c-.038 0-.07-.003-.108-.003q-.045 0-.089.003a1 1 0 0 0-.1.007h-.003a2.126 2.126 0 0 0-1.937 2.074h-2.194a2.126 2.126 0 0 0-1.96-2.076q-.03-.001-.058-.004-.034 0-.07-.002h-.018v-1.184 1.164a2.127 2.127 0 0 0-2.076 1.961q0 .029-.004.055 0 .035-.003.072v.017l-2.216-.004a2.125 2.125 0 0 0-2.102-2.083h-.026q-.11.001-.22.01l-.09.013h-.005l-.085.013q-.044.01-.088.02a2.134 2.134 0 0 0-1.64 2.027h-2.194a2.12 2.12 0 0 0-.633-1.47 2.12 2.12 0 0 0-1.385-.61c-.037 0-.07-.003-.108-.003q-.044 0-.088.003a1 1 0 0 0-.1.007h-.004a2.126 2.126 0 0 0-1.936 2.074h-2.195a2.126 2.126 0 0 0-1.961-2.076q-.029-.001-.056-.004-.034 0-.07-.002h-.018v-1.184 1.164a2.127 2.127 0 0 0-2.076 1.961q-.001.029-.004.055 0 .035-.003.072v.017l-2.217-.004a2.125 2.125 0 0 0-2.102-2.083h-.026q-.11.001-.219.01l-.09.013h-.005l-.085.013q-.045.01-.088.02a2.134 2.134 0 0 0-1.64 2.027H9.555a2.12 2.12 0 0 0-.634-1.47 2.12 2.12 0 0 0-1.385-.61q-.054-.002-.107-.003-.045 0-.09.003a1 1 0 0 0-.099.007h-.004A2.126 2.126 0 0 0 5.3 20.243H3.105a2.126 2.126 0 0 0-1.96-2.076q-.03-.001-.057-.004-.034 0-.07-.002H1v-2.215a2.13 2.13 0 0 0 2.06-2.347 2.13 2.13 0 0 0-2-1.903q-.03-.004-.059-.005V9.494a2.127 2.127 0 0 0 1.541-3.53l-.007-.006a2.13 2.13 0 0 0-1.534-.718L1 3.106a2.127 2.127 0 0 0 2.076-1.96q.001-.03.004-.057 0-.034.002-.07V1z"
  />
  <path
    fill="var(--bg, #DBD8D7)"
    d="M5.297 1a2.13 2.13 0 0 0 2.348 2.06 2.13 2.13 0 0 0 1.902-2q.004-.029.005-.058h2.196a2.127 2.127 0 0 0 3.53 1.541l.006-.007c.427-.376.7-.924.718-1.534l2.196.002A2.128 2.128 0 0 0 20.16 3.08q.03.001.056.004.035 0 .071.002h.018v.02a2.127 2.127 0 0 0 2.076-1.96q.001-.03.004-.057 0-.034.002-.07V1H24.6a2.13 2.13 0 0 0 2.347 2.06 2.13 2.13 0 0 0 1.903-2q.004-.029.005-.058h2.196a2.126 2.126 0 0 0 3.53 1.541l.006-.007c.426-.376.7-.924.718-1.534l2.196.002a2.128 2.128 0 0 0 1.96 2.076q.03.001.057.004.035 0 .07.002h.018v.02q.403-.01.754-.155a2.13 2.13 0 0 0 1.323-1.805q0-.03.004-.057-.001-.034.002-.07V1h2.214a2.13 2.13 0 0 0 2.348 2.06 2.13 2.13 0 0 0 1.902-2q.005-.029.005-.058h2.197a2.126 2.126 0 0 0 3.529 1.541l.007-.007c.426-.376.7-.924.717-1.534l2.197.002a2.127 2.127 0 0 0 1.96 2.076q.03.001.056.004.034 0 .072.002h.017v.02a2.127 2.127 0 0 0 2.076-1.96q.001-.03.004-.057 0-.034.002-.07V1h2.215a2.13 2.13 0 0 0 2.348 2.06 2.13 2.13 0 0 0 1.902-2q.005-.029.005-.058h2.196a2.126 2.126 0 0 0 3.53 1.541l.006-.007c.427-.376.7-.924.718-1.534l2.196.002a2.128 2.128 0 0 0 1.96 2.076q.03.001.057.004.035 0 .071.002h.018v.02q.401-.01.754-.155a2.13 2.13 0 0 0 1.322-1.805q.001-.03.004-.057 0-.034.002-.07V1h2.215a2.13 2.13 0 0 0 2.347 2.06 2.13 2.13 0 0 0 1.903-2q.004-.029.005-.058h2.196a2.126 2.126 0 0 0 3.53 1.541l.006-.007c.427-.376.7-.924.718-1.534l2.196.002a2.128 2.128 0 0 0 1.96 2.076q.03.001.057.004.035 0 .071.002h.018v.02a2.127 2.127 0 0 0 2.076-1.96q0-.03.004-.057-.001-.034.002-.07V1h2.214a2.13 2.13 0 0 0 2.348 2.06 2.126 2.126 0 0 0 1.902-2 .4.4 0 0 0 .005-.058h2.197a2.126 2.126 0 0 0 3.529 1.541l.007-.007c.426-.376.7-.924.718-1.534l2.196.002a2.128 2.128 0 0 0 1.961 2.076q.029.001.055.004.035 0 .072.002h.017V5.3a2.13 2.13 0 0 0-2.059 2.347 2.126 2.126 0 0 0 1.999 1.903q.03.004.059.005v2.195a2.127 2.127 0 0 0-1.541 3.53l.006.007a2.13 2.13 0 0 0 1.535.717l.001 2.135a2.127 2.127 0 0 0-2.076 1.961q-.001.029-.004.055 0 .035-.003.072v.017l-2.217-.004a2.124 2.124 0 0 0-2.101-2.083h-.026q-.11.001-.219.01l-.091.013h-.005l-.085.013q-.043.01-.088.02a2.135 2.135 0 0 0-1.639 2.027h-2.195a2.124 2.124 0 0 0-2.018-2.08q-.054-.002-.108-.003-.044 0-.089.003a1 1 0 0 0-.099.007h-.004a2.127 2.127 0 0 0-1.937 2.074h-2.194a2.126 2.126 0 0 0-1.96-2.076q-.03-.001-.058-.004-.034 0-.07-.002h-.017v-1.184 1.164a2.127 2.127 0 0 0-2.076 1.961q-.001.029-.004.055 0 .035-.003.072v.017l-2.217-.004a2.125 2.125 0 0 0-2.102-2.083h-.026a3 3 0 0 0-.219.01l-.09.013h-.006l-.085.013q-.043.01-.088.02a2.134 2.134 0 0 0-1.64 2.027H86.77a2.12 2.12 0 0 0-.634-1.47 2.12 2.12 0 0 0-1.385-.61c-.037 0-.07-.003-.107-.003q-.045 0-.09.003a1 1 0 0 0-.099.007h-.004a2.126 2.126 0 0 0-1.936 2.074H80.32a2.126 2.126 0 0 0-1.96-2.076q-.03-.001-.057-.004-.034 0-.07-.002h-.018v-1.184 1.164a2.127 2.127 0 0 0-2.076 1.961q-.001.029-.004.055 0 .035-.003.072v.017l-2.217-.004a2.125 2.125 0 0 0-2.102-2.083h-.026q-.11.001-.219.01l-.09.013h-.005l-.085.013q-.045.01-.088.02a2.134 2.134 0 0 0-1.64 2.027h-2.194a2.12 2.12 0 0 0-.634-1.47 2.12 2.12 0 0 0-1.385-.61c-.037 0-.07-.003-.107-.003q-.045 0-.089.003a1 1 0 0 0-.1.007h-.004a2.126 2.126 0 0 0-1.936 2.074h-2.194a2.126 2.126 0 0 0-1.96-2.076q-.03-.001-.058-.004-.034 0-.07-.002h-.018v-1.184 1.164a2.127 2.127 0 0 0-2.076 1.961q-.001.029-.004.055 0 .035-.003.072v.017l-2.217-.004a2.125 2.125 0 0 0-2.101-2.083h-.027q-.108.001-.218.01l-.091.013h-.005l-.085.013q-.045.01-.088.02a2.134 2.134 0 0 0-1.64 2.027h-2.194a2.12 2.12 0 0 0-.634-1.47 2.12 2.12 0 0 0-1.384-.61c-.038 0-.07-.003-.108-.003q-.045 0-.089.003a1 1 0 0 0-.1.007h-.003a2.126 2.126 0 0 0-1.937 2.074h-2.194a2.126 2.126 0 0 0-1.96-2.076q-.03-.001-.058-.004-.034 0-.07-.002h-.018v-1.184 1.164a2.127 2.127 0 0 0-2.076 1.961q0 .029-.004.055 0 .035-.003.072v.017l-2.216-.004a2.125 2.125 0 0 0-2.102-2.083h-.026q-.11.001-.22.01l-.09.013h-.005l-.085.013q-.044.01-.088.02a2.134 2.134 0 0 0-1.64 2.027h-2.194a2.12 2.12 0 0 0-.633-1.47 2.12 2.12 0 0 0-1.385-.61c-.037 0-.07-.003-.108-.003q-.044 0-.088.003a1 1 0 0 0-.1.007h-.004a2.126 2.126 0 0 0-1.936 2.074h-2.195a2.126 2.126 0 0 0-1.961-2.076q-.029-.001-.056-.004-.034 0-.07-.002h-.018v-1.184 1.164a2.127 2.127 0 0 0-2.076 1.961q-.001.029-.004.055 0 .035-.003.072v.017l-2.217-.004a2.125 2.125 0 0 0-2.102-2.083h-.026q-.11.001-.219.01l-.09.013h-.005l-.085.013q-.045.01-.088.02a2.134 2.134 0 0 0-1.64 2.027H9.555a2.12 2.12 0 0 0-.634-1.47 2.12 2.12 0 0 0-1.385-.61q-.054-.002-.107-.003-.045 0-.09.003a1 1 0 0 0-.099.007h-.004A2.126 2.126 0 0 0 5.3 20.243H3.105a2.126 2.126 0 0 0-1.96-2.076q-.03-.001-.057-.004-.034 0-.07-.002H1v-2.215a2.13 2.13 0 0 0 2.06-2.347 2.13 2.13 0 0 0-2-1.903q-.03-.004-.059-.005V9.494a2.127 2.127 0 0 0 1.541-3.53l-.007-.006a2.13 2.13 0 0 0-1.534-.718L1 3.106a2.127 2.127 0 0 0 2.076-1.96q.001-.03.004-.057 0-.034.002-.07V1z"
  />
  <!-- <path
    stroke="#a8a29e"
    stroke-width="1.5"
    d="M5.297 1a2.13 2.13 0 0 0 2.348 2.06 2.13 2.13 0 0 0 1.902-2q.004-.029.005-.058h2.196a2.127 2.127 0 0 0 3.53 1.541l.006-.007c.427-.376.7-.924.718-1.534l2.196.002A2.128 2.128 0 0 0 20.16 3.08q.03.001.056.004.035 0 .071.002h.018v.02a2.127 2.127 0 0 0 2.076-1.96q.001-.03.004-.057 0-.034.002-.07V1H24.6a2.13 2.13 0 0 0 2.347 2.06 2.13 2.13 0 0 0 1.903-2q.004-.029.005-.058h2.196a2.126 2.126 0 0 0 3.53 1.541l.006-.007c.426-.376.7-.924.718-1.534l2.196.002a2.128 2.128 0 0 0 1.96 2.076q.03.001.057.004.035 0 .07.002h.018v.02q.403-.01.754-.155a2.13 2.13 0 0 0 1.323-1.805q0-.03.004-.057-.001-.034.002-.07V1h2.214a2.13 2.13 0 0 0 2.348 2.06 2.13 2.13 0 0 0 1.902-2q.005-.029.005-.058h2.197a2.126 2.126 0 0 0 3.529 1.541l.007-.007c.426-.376.7-.924.717-1.534l2.197.002a2.127 2.127 0 0 0 1.96 2.076q.03.001.056.004.034 0 .072.002h.017v.02a2.127 2.127 0 0 0 2.076-1.96q.001-.03.004-.057 0-.034.002-.07V1h2.215a2.13 2.13 0 0 0 2.348 2.06 2.13 2.13 0 0 0 1.902-2q.005-.029.005-.058h2.196a2.126 2.126 0 0 0 3.53 1.541l.006-.007c.427-.376.7-.924.718-1.534l2.196.002a2.128 2.128 0 0 0 1.96 2.076q.03.001.057.004.035 0 .071.002h.018v.02q.401-.01.754-.155a2.13 2.13 0 0 0 1.322-1.805q.001-.03.004-.057 0-.034.002-.07V1h2.215a2.13 2.13 0 0 0 2.347 2.06 2.13 2.13 0 0 0 1.903-2q.004-.029.005-.058h2.196a2.126 2.126 0 0 0 3.53 1.541l.006-.007c.427-.376.7-.924.718-1.534l2.196.002a2.128 2.128 0 0 0 1.96 2.076q.03.001.057.004.035 0 .071.002h.018v.02a2.127 2.127 0 0 0 2.076-1.96q0-.03.004-.057-.001-.034.002-.07V1h2.214a2.13 2.13 0 0 0 2.348 2.06 2.126 2.126 0 0 0 1.902-2 .4.4 0 0 0 .005-.058h2.197a2.126 2.126 0 0 0 3.529 1.541l.007-.007c.426-.376.7-.924.718-1.534l2.196.002a2.128 2.128 0 0 0 1.961 2.076q.029.001.055.004.035 0 .072.002h.017V5.3a2.13 2.13 0 0 0-2.059 2.347 2.126 2.126 0 0 0 1.999 1.903q.03.004.059.005v2.195a2.127 2.127 0 0 0-1.541 3.53l.006.007a2.13 2.13 0 0 0 1.535.717l.001 2.135a2.127 2.127 0 0 0-2.076 1.961q-.001.029-.004.055 0 .035-.003.072v.017l-2.217-.004a2.124 2.124 0 0 0-2.101-2.083h-.026q-.11.001-.219.01l-.091.013h-.005l-.085.013q-.043.01-.088.02a2.135 2.135 0 0 0-1.639 2.027h-2.195a2.124 2.124 0 0 0-2.018-2.08q-.054-.002-.108-.003-.044 0-.089.003a1 1 0 0 0-.099.007h-.004a2.127 2.127 0 0 0-1.937 2.074h-2.194a2.126 2.126 0 0 0-1.96-2.076q-.03-.001-.058-.004-.034 0-.07-.002h-.017v-1.184 1.164a2.127 2.127 0 0 0-2.076 1.961q-.001.029-.004.055 0 .035-.003.072v.017l-2.217-.004a2.125 2.125 0 0 0-2.102-2.083h-.026a3 3 0 0 0-.219.01l-.09.013h-.006l-.085.013q-.043.01-.088.02a2.134 2.134 0 0 0-1.64 2.027H86.77a2.12 2.12 0 0 0-.634-1.47 2.12 2.12 0 0 0-1.385-.61c-.037 0-.07-.003-.107-.003q-.045 0-.09.003a1 1 0 0 0-.099.007h-.004a2.126 2.126 0 0 0-1.936 2.074H80.32a2.126 2.126 0 0 0-1.96-2.076q-.03-.001-.057-.004-.034 0-.07-.002h-.018v-1.184 1.164a2.127 2.127 0 0 0-2.076 1.961q-.001.029-.004.055 0 .035-.003.072v.017l-2.217-.004a2.125 2.125 0 0 0-2.102-2.083h-.026q-.11.001-.219.01l-.09.013h-.005l-.085.013q-.045.01-.088.02a2.134 2.134 0 0 0-1.64 2.027h-2.194a2.12 2.12 0 0 0-.634-1.47 2.12 2.12 0 0 0-1.385-.61c-.037 0-.07-.003-.107-.003q-.045 0-.089.003a1 1 0 0 0-.1.007h-.004a2.126 2.126 0 0 0-1.936 2.074h-2.194a2.126 2.126 0 0 0-1.96-2.076q-.03-.001-.058-.004-.034 0-.07-.002h-.018v-1.184 1.164a2.127 2.127 0 0 0-2.076 1.961q-.001.029-.004.055 0 .035-.003.072v.017l-2.217-.004a2.125 2.125 0 0 0-2.101-2.083h-.027q-.108.001-.218.01l-.091.013h-.005l-.085.013q-.045.01-.088.02a2.134 2.134 0 0 0-1.64 2.027h-2.194a2.12 2.12 0 0 0-.634-1.47 2.12 2.12 0 0 0-1.384-.61c-.038 0-.07-.003-.108-.003q-.045 0-.089.003a1 1 0 0 0-.1.007h-.003a2.126 2.126 0 0 0-1.937 2.074h-2.194a2.126 2.126 0 0 0-1.96-2.076q-.03-.001-.058-.004-.034 0-.07-.002h-.018v-1.184 1.164a2.127 2.127 0 0 0-2.076 1.961q0 .029-.004.055 0 .035-.003.072v.017l-2.216-.004a2.125 2.125 0 0 0-2.102-2.083h-.026q-.11.001-.22.01l-.09.013h-.005l-.085.013q-.044.01-.088.02a2.134 2.134 0 0 0-1.64 2.027h-2.194a2.12 2.12 0 0 0-.633-1.47 2.12 2.12 0 0 0-1.385-.61c-.037 0-.07-.003-.108-.003q-.044 0-.088.003a1 1 0 0 0-.1.007h-.004a2.126 2.126 0 0 0-1.936 2.074h-2.195a2.126 2.126 0 0 0-1.961-2.076q-.029-.001-.056-.004-.034 0-.07-.002h-.018v-1.184 1.164a2.127 2.127 0 0 0-2.076 1.961q-.001.029-.004.055 0 .035-.003.072v.017l-2.217-.004a2.125 2.125 0 0 0-2.102-2.083h-.026q-.11.001-.219.01l-.09.013h-.005l-.085.013q-.045.01-.088.02a2.134 2.134 0 0 0-1.64 2.027H9.555a2.12 2.12 0 0 0-.634-1.47 2.12 2.12 0 0 0-1.385-.61q-.054-.002-.107-.003-.045 0-.09.003a1 1 0 0 0-.099.007h-.004A2.126 2.126 0 0 0 5.3 20.243H3.105a2.126 2.126 0 0 0-1.96-2.076q-.03-.001-.057-.004-.034 0-.07-.002H1v-2.215a2.13 2.13 0 0 0 2.06-2.347 2.13 2.13 0 0 0-2-1.903q-.03-.004-.059-.005V9.494a2.127 2.127 0 0 0 1.541-3.53l-.007-.006a2.13 2.13 0 0 0-1.534-.718L1 3.106a2.127 2.127 0 0 0 2.076-1.96q.001-.03.004-.057 0-.034.002-.07V1z"
  /> -->
  <path
    fill="var(--fg, #78716c)"
    d="M10.235 14.623v-7.7h4.642v1.21H11.61v1.892h2.86v1.21h-2.86v2.178h3.267v1.21zm6.486 0 2.42-4.015-2.244-3.685h1.529l1.54 2.53 1.54-2.53h1.507l-2.233 3.663 2.43 4.037h-1.528l-1.727-2.871-1.727 2.87zm7.564 0v-1.21h1.595v-5.28h-1.573v-1.21h4.52v1.21h-1.572v5.28h1.595v1.21zm6.386-2.09h1.276c.077.605.671 1.034 1.43 1.034.781 0 1.31-.451 1.31-1.111 0-.572-.386-.913-1.189-1.056l-.44-.077c-1.507-.264-2.244-.98-2.244-2.178 0-1.397 1.012-2.332 2.52-2.332 1.462 0 2.573.88 2.628 2.09h-1.276c-.066-.517-.605-.88-1.298-.88-.737 0-1.232.418-1.232 1.034 0 .528.352.847 1.078.979l.44.077c1.573.275 2.354 1.023 2.354 2.266 0 1.44-1.045 2.398-2.607 2.398-1.55 0-2.706-.946-2.75-2.244m9.39 2.09v-6.49h-2.178v-1.21h5.72v1.21h-2.167v6.49zm4.803 0v-1.21h1.595v-5.28h-1.573v-1.21h4.52v1.21h-1.572v5.28h1.595v1.21zm10.533-2.035V6.923h1.265v7.7h-1.815l-2.266-6.37h-.044v6.37h-1.265v-7.7h2.068l2.013 5.665zm6.013-1.09v-1.21h2.75v4.335h-1.21v-.88h-.044c-.385.616-.979.99-1.694.99-1.496 0-2.585-1.64-2.585-3.905 0-2.387 1.21-4.015 2.96-4.015 1.275 0 2.32.869 2.518 2.09h-1.33c-.144-.506-.595-.825-1.145-.825-.99 0-1.628 1.056-1.628 2.717 0 1.628.605 2.728 1.496 2.728.781 0 1.342-.836 1.342-2.024zm10.816 1.035H73.5c.078.605.671 1.034 1.43 1.034.782 0 1.31-.451 1.31-1.111 0-.572-.385-.913-1.189-1.056l-.44-.077c-1.506-.264-2.243-.98-2.243-2.178 0-1.397 1.011-2.332 2.519-2.332 1.462 0 2.573.88 2.628 2.09H76.24c-.066-.517-.605-.88-1.297-.88-.737 0-1.233.418-1.233 1.034 0 .528.353.847 1.079.979l.44.077c1.573.275 2.353 1.023 2.353 2.266 0 1.44-1.044 2.398-2.606 2.398-1.552 0-2.707-.946-2.75-2.244m9.257 2.09v-6.49h-2.178v-1.21h5.72v1.21h-2.167v6.49zm5.397 0h-1.331l2.09-7.7h1.914l2.09 7.7H90.29l-.506-1.914h-2.398zm.836-3.124h1.738l-.847-3.201h-.044zm6.398-2.992v6.116h-1.265v-7.7h1.892l1.056 4.587h.044l1.056-4.587h1.892v7.7h-1.265V8.507h-.044l-1.056 4.576h-1.21l-1.056-4.576zm6.782 6.116v-7.7h2.761c1.452 0 2.464.979 2.464 2.365s-1.012 2.365-2.464 2.365h-1.386v2.97zm1.375-4.18h1.441c.649 0 1.089-.462 1.089-1.155s-.44-1.155-1.089-1.155h-1.441z"
  />
</svg>
