<svg width="198" height="252" viewBox="0 0 198 252" fill="none" xmlns="http://www.w3.org/2000/svg">
<path d="M197.776 14.429C197.776 14.4932 197.776 14.5573 197.743 14.5894C197.776 14.6536 197.776 14.7174 197.776 14.7815C197.776 15.1665 197.487 15.4552 197.103 15.4552C193.382 15.4552 190.368 18.3091 190.368 21.8039C190.368 25.299 193.382 28.1525 197.103 28.1525C197.487 28.1525 197.776 28.4413 197.776 28.8259V39.2792C197.776 39.3751 197.743 39.5034 197.711 39.5997C197.615 39.8563 197.391 40.0168 197.103 40.0168C193.382 40.0168 190.368 42.8702 190.368 46.3657C190.368 49.8605 193.382 52.7144 197.103 52.7144C197.487 52.7144 197.776 53.0028 197.776 53.3877V65.4758C197.776 65.8608 197.487 66.1495 197.103 66.1495C193.382 66.1495 190.368 69.0034 190.368 72.4982C190.368 75.9933 193.382 78.8468 197.103 78.8468C197.487 78.8468 197.776 79.1676 197.776 79.5526V91.6086C197.776 91.9936 197.487 92.3141 197.103 92.3141C193.382 92.3141 190.368 95.1358 190.368 98.663C190.368 102.158 193.382 104.98 197.103 104.98C197.487 104.98 197.776 105.3 197.776 105.685V117.741C197.776 118.126 197.487 118.447 197.103 118.447C193.382 118.447 190.368 121.301 190.368 124.795C190.368 128.291 193.382 131.144 197.103 131.144C197.487 131.144 197.776 131.433 197.776 131.818V143.907C197.776 144.291 197.487 144.58 197.103 144.58C193.382 144.58 190.368 147.433 190.368 150.929C190.368 154.423 193.382 157.277 197.103 157.277C197.487 157.277 197.776 157.566 197.776 157.951V170.039C197.776 170.424 197.487 170.712 197.103 170.712C193.382 170.712 190.368 173.566 190.368 177.061C190.368 180.556 193.382 183.41 197.103 183.41C197.487 183.41 197.776 183.731 197.776 184.115V196.172C197.776 196.556 197.487 196.877 197.103 196.877C193.382 196.877 190.368 199.699 190.368 203.226C190.368 206.721 193.382 209.543 197.103 209.543C197.487 209.543 197.776 209.863 197.776 210.248V222.304C197.776 222.69 197.487 223.01 197.103 223.01C193.382 223.01 190.368 225.864 190.368 229.359C190.368 232.854 193.382 235.707 197.103 235.707C197.487 235.707 197.776 235.996 197.776 236.381V250.393C197.776 250.778 197.487 251.098 197.103 251.098H180.909C180.685 251.098 180.492 251.002 180.364 250.842C180.235 250.682 180.172 250.489 180.204 250.297C180.268 250.04 180.268 249.784 180.268 249.495C180.268 246 177.254 243.146 173.567 243.146C169.847 243.146 166.865 246 166.865 249.495C166.865 249.784 166.865 250.04 166.929 250.297C166.961 250.489 166.897 250.682 166.768 250.842C166.641 251.002 166.448 251.098 166.223 251.098H151.377C151.154 251.098 150.961 251.002 150.832 250.842C150.704 250.682 150.64 250.489 150.673 250.297C150.736 250.04 150.736 249.784 150.736 249.495C150.736 246 147.722 243.146 144.035 243.146C140.347 243.146 137.333 246 137.333 249.495C137.333 249.784 137.333 250.04 137.398 250.297C137.429 250.489 137.365 250.682 137.237 250.842C137.109 251.002 136.917 251.098 136.692 251.098H121.846C121.622 251.098 121.429 251.002 121.301 250.842C121.173 250.682 121.108 250.489 121.141 250.297C121.204 250.04 121.204 249.784 121.204 249.495C121.204 246 118.191 243.146 114.503 243.146C110.816 243.146 107.802 246 107.802 249.495C107.802 249.784 107.802 250.04 107.866 250.297C107.898 250.489 107.834 250.682 107.705 250.81C107.705 250.842 107.705 250.874 107.673 250.874C107.577 251.098 107.321 251.259 107.065 251.259H92.1857C91.9943 251.259 91.8014 251.163 91.6731 251.002C91.5448 250.842 91.4806 250.618 91.5127 250.425C91.5448 250.201 91.5772 249.944 91.5772 249.624C91.5772 246.129 88.563 243.307 84.876 243.307C81.156 243.307 78.1417 246.129 78.1417 249.624C78.1417 249.944 78.1741 250.201 78.2062 250.425C78.2704 250.618 78.2062 250.842 78.0779 251.002C77.9496 251.163 77.7567 251.259 77.5332 251.259L60.6029 251.098C60.378 251.098 60.1855 251.002 60.0572 250.842C59.9292 250.682 59.8975 250.489 59.9292 250.297C59.9616 250.04 59.993 249.784 59.993 249.495C59.993 246 56.9791 243.146 53.2597 243.146C49.5718 243.146 46.5579 246 46.5579 249.495C46.5579 249.784 46.5899 250.04 46.622 250.297C46.6541 250.489 46.622 250.682 46.4623 250.842C46.334 251.002 46.1415 251.098 45.949 251.098H29.9808C29.7562 251.098 29.5641 251.002 29.4358 250.842C29.3075 250.682 29.2433 250.489 29.2754 250.297C29.3399 250.04 29.3399 249.784 29.3399 249.495C29.3399 246 26.3577 243.146 22.6377 243.146C18.9504 243.146 15.9368 246 15.9368 249.495C15.9368 249.784 15.9682 250.04 16.001 250.297C16.032 250.489 16.001 250.682 15.8406 250.842C15.7122 251.002 15.5194 251.098 15.3273 251.098H0.706132C0.321157 251.098 0 250.778 0 250.393V236.381C0 235.996 0.321157 235.707 0.706132 235.707C4.39306 235.707 7.40731 232.854 7.40731 229.359C7.40731 225.864 4.39306 223.01 0.706132 223.01C0.321157 223.01 0 222.69 0 222.304V210.248C0 209.863 0.321157 209.543 0.706132 209.543C4.39306 209.543 7.40731 206.721 7.40731 203.226C7.40731 199.699 4.39306 196.877 0.706132 196.877C0.321157 196.877 0 196.556 0 196.172V184.115C0 183.731 0.321157 183.41 0.706132 183.41C4.39306 183.41 7.40731 180.556 7.40731 177.061C7.40731 173.566 4.39306 170.712 0.706132 170.712C0.321157 170.712 0 170.424 0 170.039V157.951C0 157.566 0.321157 157.277 0.706132 157.277C4.39306 157.277 7.40731 154.423 7.40731 150.929C7.40731 147.433 4.39306 144.58 0.706132 144.58C0.321157 144.58 0 144.291 0 143.907V131.818C0 131.433 0.321157 131.144 0.706132 131.144C4.39306 131.144 7.40731 128.291 7.40731 124.795C7.40731 121.301 4.39306 118.447 0.706132 118.447C0.321157 118.447 0 118.126 0 117.741V105.685C0 105.3 0.321157 104.98 0.706132 104.98C4.39306 104.98 7.40731 102.158 7.40731 98.663C7.40731 95.1358 4.39306 92.3141 0.706132 92.3141C0.321157 92.3141 0 91.9936 0 91.6086V79.5526C0 79.1676 0.321157 78.8468 0.706132 78.8468C4.39306 78.8468 7.40731 75.9933 7.40731 72.4982C7.40731 69.0034 4.39306 66.1495 0.706132 66.1495C0.321157 66.1495 0 65.8608 0 65.4758V55.0228C0 54.6382 0.321157 54.3174 0.706132 54.3174C4.39306 54.3174 7.40731 51.4636 7.40731 47.9688C7.40731 44.4736 4.39306 41.6519 0.706132 41.6519C0.481218 41.6519 0.321158 41.556 0.224569 41.3952C0.160407 41.3314 0.096243 41.2672 0.0638168 41.1706C0.0320804 41.1068 0 41.0106 0 40.9143V28.8259C0 28.4413 0.321157 28.1525 0.706132 28.1525C4.39306 28.1525 7.40731 25.299 7.40731 21.8039C7.40731 18.3091 4.39306 15.4552 0.706132 15.4552C0.321157 15.4552 0 15.1665 0 14.7815C0 14.7174 -1.49917e-05 14.6536 0.0320663 14.5894C-1.49917e-05 14.5573 0 14.4932 0 14.429V0.833429C0 0.448798 0.321157 0.160058 0.706132 0.160058H16.8979C17.0907 0.160058 17.2832 0.224221 17.4436 0.384627C17.5712 0.545033 17.604 0.769269 17.5712 0.961757C17.5402 1.21841 17.5071 1.47505 17.5071 1.76344C17.5071 5.25857 20.5217 8.08035 24.241 8.08035C27.9283 8.08035 30.9429 5.25857 30.9429 1.76344C30.9429 1.47505 30.9105 1.21841 30.8787 0.961757C30.8467 0.769269 30.9105 0.545033 31.0388 0.384627C31.1675 0.224221 31.3593 0.160058 31.5521 0.160058H46.4295C46.622 0.160058 46.8149 0.224221 46.9753 0.384627C47.1036 0.545033 47.1357 0.769269 47.1036 0.961757C47.0715 1.21841 47.0394 1.47505 47.0394 1.76344C47.0394 5.25857 50.0533 8.08035 53.7727 8.08035C57.4603 8.08035 60.4742 5.25857 60.4742 1.76344C60.4742 1.47505 60.4422 1.21841 60.4101 0.961757C60.378 0.769269 60.4101 0.545033 60.5705 0.384627C60.6991 0.224221 60.8913 0.160058 61.0834 0.160058H75.9619C76.1537 0.160058 76.3462 0.224221 76.4745 0.384627C76.6349 0.545033 76.667 0.769269 76.6349 0.961757C76.6028 1.21841 76.5711 1.47505 76.5711 1.76344C76.5711 5.25857 79.5847 8.08035 83.304 8.08035C86.992 8.08035 90.0059 5.25857 90.0059 1.76344C90.0059 1.47505 89.9735 1.21841 89.9414 0.961757C89.9097 0.705107 89.9735 0.448799 90.1663 0.320473C90.2626 0.127986 90.4544 0 90.711 0H105.59C105.813 0 106.006 0.0959053 106.135 0.256657C106.263 0.416718 106.327 0.609212 106.263 0.801699C106.231 1.058 106.198 1.31431 106.198 1.60304C106.198 5.09818 109.213 7.95202 112.933 7.95202C116.62 7.95202 119.633 5.09818 119.633 1.60304C119.633 1.31431 119.601 1.058 119.569 0.801699C119.537 0.609212 119.601 0.416718 119.73 0.256657C119.858 0.0959053 120.051 0 120.275 0L135.57 0.160058C135.794 0.160058 135.987 0.224221 136.115 0.384627C136.244 0.545033 136.307 0.769269 136.244 0.961757C136.211 1.21841 136.179 1.47505 136.179 1.76344C136.179 5.25857 139.193 8.08035 142.912 8.08035C146.6 8.08035 149.614 5.25857 149.614 1.76344C149.614 1.47505 149.582 1.21841 149.55 0.961757C149.518 0.769269 149.582 0.545033 149.711 0.384627C149.838 0.224221 150.031 0.160058 150.223 0.160058H167.025C167.218 0.160058 167.41 0.224221 167.538 0.384627C167.666 0.545033 167.731 0.769269 167.698 0.961757C167.666 1.21841 167.634 1.47505 167.634 1.76344C167.634 5.25857 170.649 8.08035 174.336 8.08035C178.023 8.08035 181.037 5.25857 181.037 1.76344C181.037 1.47505 181.037 1.21841 180.974 0.961757C180.942 0.769269 181.006 0.545033 181.134 0.384627C181.262 0.224221 181.454 0.160058 181.647 0.160058H197.103C197.487 0.160058 197.776 0.448798 197.776 0.833429V14.429Z" fill="#F4F2EF"/>
<path d="M170.15 26.3658H26.2365C25.8526 26.3658 25.5421 26.0553 25.5421 25.6717C25.5421 25.2881 25.8526 24.9777 26.2365 24.9777H170.15C170.534 24.9777 170.844 25.2881 170.844 25.6717C170.844 26.0553 170.534 26.3658 170.15 26.3658Z" fill="#EF4E23"/>
<path d="M170.15 22.6854H26.2365C25.8526 22.6854 25.5421 22.375 25.5421 21.9914C25.5421 21.6078 25.8526 21.2973 26.2365 21.2973H170.15C170.534 21.2973 170.844 21.6078 170.844 21.9914C170.844 22.375 170.534 22.6854 170.15 22.6854Z" fill="#EF4E23"/>
<path d="M170.15 30.0148H26.2365C25.8526 30.0148 25.5421 29.7044 25.5421 29.3208C25.5421 28.9372 25.8526 28.6267 26.2365 28.6267H170.15C170.534 28.6267 170.844 28.9372 170.844 29.3208C170.844 29.7044 170.534 30.0148 170.15 30.0148Z" fill="#EF4E23"/>
<path d="M170.148 33.6607H154.491C154.107 33.6607 153.797 33.3502 153.797 32.9666C153.797 32.583 154.107 32.2725 154.491 32.2725H170.148C170.532 32.2725 170.842 32.583 170.842 32.9666C170.842 33.3502 170.532 33.6607 170.148 33.6607Z" fill="#EF4E23"/>
<path d="M47.6215 33.6607H26.2385C25.8546 33.6607 25.5444 33.3502 25.5444 32.9666C25.5444 32.583 25.8546 32.2725 26.2385 32.2725H47.6215C48.0051 32.2725 48.3156 32.583 48.3156 32.9666C48.3156 33.3502 48.0051 33.6607 47.6215 33.6607Z" fill="#EF4E23"/>
<path d="M127.451 33.6607H91.6519C91.2679 33.6607 90.9578 33.3502 90.9578 32.9666C90.9578 32.583 91.2679 32.2725 91.6519 32.2725H127.451C127.834 32.2725 128.145 32.583 128.145 32.9666C128.145 33.3502 127.834 33.6607 127.451 33.6607Z" fill="#EF4E23"/>
<path d="M170.148 37.311H160.446C160.063 37.311 159.752 37.0006 159.752 36.617C159.752 36.2334 160.063 35.9229 160.446 35.9229H170.148C170.532 35.9229 170.843 36.2334 170.843 36.617C170.843 37.0006 170.532 37.311 170.148 37.311Z" fill="#EF4E23"/>
<path d="M41.424 37.311H26.2385C25.8546 37.311 25.5444 37.0006 25.5444 36.617C25.5444 36.2334 25.8546 35.9229 26.2385 35.9229H41.424C41.8072 35.9229 42.1181 36.2334 42.1181 36.617C42.1181 37.0006 41.8072 37.311 41.424 37.311Z" fill="#EF4E23"/>
<path d="M170.148 40.9618H163.743C163.359 40.9618 163.049 40.6513 163.049 40.2677C163.049 39.8841 163.359 39.5736 163.743 39.5736H170.148C170.532 39.5736 170.842 39.8841 170.842 40.2677C170.842 40.6513 170.532 40.9618 170.148 40.9618Z" fill="#EF4E23"/>
<path d="M37.3431 40.9618H26.2385C25.8546 40.9618 25.5444 40.6513 25.5444 40.2677C25.5444 39.8841 25.8546 39.5736 26.2385 39.5736H37.3431C37.7264 39.5736 38.0372 39.8841 38.0372 40.2677C38.0372 40.6513 37.7264 40.9618 37.3431 40.9618Z" fill="#EF4E23"/>
<path d="M170.149 44.6128H165.533C165.15 44.6128 164.839 44.3023 164.839 43.9187C164.839 43.5352 165.15 43.2247 165.533 43.2247H170.149C170.532 43.2247 170.843 43.5352 170.843 43.9187C170.843 44.3023 170.532 44.6128 170.149 44.6128Z" fill="#EF4E23"/>
<path d="M34.4834 44.6128H26.2385C25.8546 44.6128 25.5444 44.3023 25.5444 43.9187C25.5444 43.5352 25.8546 43.2247 26.2385 43.2247H34.4834C34.867 43.2247 35.1775 43.5352 35.1775 43.9187C35.1775 44.3023 34.867 44.6128 34.4834 44.6128Z" fill="#EF4E23"/>
<path d="M170.148 48.2566H165.999C165.615 48.2566 165.304 47.9462 165.304 47.5626C165.304 47.179 165.615 46.8685 165.999 46.8685H170.148C170.532 46.8685 170.842 47.179 170.842 47.5626C170.842 47.9462 170.532 48.2566 170.148 48.2566Z" fill="#EF4E23"/>
<path d="M32.5192 48.2566H26.2382C25.8546 48.2566 25.5441 47.9462 25.5441 47.5626C25.5441 47.179 25.8546 46.8685 26.2382 46.8685H32.5192C32.9025 46.8685 33.2133 47.179 33.2133 47.5626C33.2133 47.9462 32.9025 48.2566 32.5192 48.2566Z" fill="#EF4E23"/>
<path d="M170.148 51.907H164.923C164.539 51.907 164.228 51.5965 164.228 51.2129C164.228 50.8293 164.539 50.5189 164.923 50.5189H170.148C170.532 50.5189 170.842 50.8293 170.842 51.2129C170.842 51.5965 170.532 51.907 170.148 51.907Z" fill="#EF4E23"/>
<path d="M31.277 51.907H26.2385C25.8546 51.907 25.5444 51.5965 25.5444 51.2129C25.5444 50.8293 25.8546 50.5189 26.2385 50.5189H31.277C31.6602 50.5189 31.9711 50.8293 31.9711 51.2129C31.9711 51.5965 31.6602 51.907 31.277 51.907Z" fill="#EF4E23"/>
<path d="M170.148 55.5577H162.056C161.673 55.5577 161.362 55.2472 161.362 54.8636C161.362 54.4801 161.673 54.1696 162.056 54.1696H170.148C170.532 54.1696 170.843 54.4801 170.843 54.8636C170.843 55.2472 170.532 55.5577 170.148 55.5577Z" fill="#EF4E23"/>
<path d="M30.673 55.5577H26.2385C25.8546 55.5577 25.5444 55.2472 25.5444 54.8636C25.5444 54.4801 25.8546 54.1696 26.2385 54.1696H30.673C31.0566 54.1696 31.367 54.4801 31.367 54.8636C31.367 55.2472 31.0566 55.5577 30.673 55.5577Z" fill="#EF4E23"/>
<path d="M170.148 59.2081H156.434C156.05 59.2081 155.74 58.8976 155.74 58.514C155.74 58.1304 156.05 57.82 156.434 57.82H170.148C170.532 57.82 170.842 58.1304 170.842 58.514C170.842 58.8976 170.532 59.2081 170.148 59.2081Z" fill="#EF4E23"/>
<path d="M30.6526 59.2081H26.2382C25.8546 59.2081 25.5441 58.8976 25.5441 58.514C25.5441 58.1304 25.8546 57.82 26.2382 57.82H30.6526C31.0359 57.82 31.3467 58.1304 31.3467 58.514C31.3467 58.8976 31.0359 59.2081 30.6526 59.2081Z" fill="#EF4E23"/>
<path d="M170.148 62.8519H139.437C139.053 62.8519 138.743 62.5414 138.743 62.1578C138.743 61.7742 139.053 61.4638 139.437 61.4638H170.148C170.532 61.4638 170.842 61.7742 170.842 62.1578C170.842 62.5414 170.532 62.8519 170.148 62.8519Z" fill="#EF4E23"/>
<path d="M31.2146 62.8519H26.2382C25.8546 62.8519 25.5444 62.5414 25.5444 62.1578C25.5444 61.7742 25.8546 61.4638 26.2382 61.4638H31.2146C31.5978 61.4638 31.9086 61.7742 31.9086 62.1578C31.9086 62.5414 31.5978 62.8519 31.2146 62.8519Z" fill="#EF4E23"/>
<path d="M170.148 66.5029H135.189C134.805 66.5029 134.495 66.1925 134.495 65.8089C134.495 65.4253 134.805 65.1148 135.189 65.1148H170.148C170.532 65.1148 170.842 65.4253 170.842 65.8089C170.842 66.1925 170.532 66.5029 170.148 66.5029Z" fill="#EF4E23"/>
<path d="M31.8807 66.5029H26.2385C25.8546 66.5029 25.5444 66.1925 25.5444 65.8089C25.5444 65.4253 25.8546 65.1148 26.2385 65.1148H31.8807C32.2643 65.1148 32.5751 65.4253 32.5751 65.8089C32.5751 66.1925 32.2643 66.5029 31.8807 66.5029Z" fill="#EF4E23"/>
<path d="M170.148 70.1537H132.774C132.391 70.1537 132.08 69.8432 132.08 69.4596C132.08 69.076 132.391 68.7655 132.774 68.7655H170.148C170.532 68.7655 170.842 69.076 170.842 69.4596C170.842 69.8432 170.532 70.1537 170.148 70.1537Z" fill="#EF4E23"/>
<path d="M35.3996 70.1537H26.2382C25.8546 70.1537 25.5444 69.8432 25.5444 69.4596C25.5444 69.076 25.8546 68.7655 26.2382 68.7655H35.3996C35.7832 68.7655 36.094 69.076 36.094 69.4596C36.094 69.8432 35.7832 70.1537 35.3996 70.1537Z" fill="#EF4E23"/>
<path d="M59.0386 70.1537H58.4973C58.1134 70.1537 57.8033 69.8432 57.8033 69.4596C57.8033 69.076 58.1134 68.7655 58.4973 68.7655H59.0386C59.4222 68.7655 59.733 69.076 59.733 69.4596C59.733 69.8432 59.4222 70.1537 59.0386 70.1537Z" fill="#EF4E23"/>
<path d="M63.4317 73.804H54.1523C53.7687 73.804 53.4582 73.4936 53.4582 73.11C53.4582 72.7264 53.7687 72.4159 54.1523 72.4159H63.4317C63.8153 72.4159 64.1258 72.7264 64.1258 73.11C64.1258 73.4936 63.8153 73.804 63.4317 73.804Z" fill="#EF4E23"/>
<path d="M170.148 73.804H130.769C130.385 73.804 130.075 73.4936 130.075 73.11C130.075 72.7264 130.385 72.4159 130.769 72.4159H170.148C170.532 72.4159 170.842 72.7264 170.842 73.11C170.842 73.4936 170.532 73.804 170.148 73.804Z" fill="#EF4E23"/>
<path d="M38.0993 73.804H26.2382C25.8546 73.804 25.5444 73.4936 25.5444 73.11C25.5444 72.7264 25.8546 72.4159 26.2382 72.4159H38.0993C38.4829 72.4159 38.7933 72.7264 38.7933 73.11C38.7933 73.4936 38.4829 73.804 38.0993 73.804Z" fill="#EF4E23"/>
<path d="M66.5694 77.4548H48.767C48.3831 77.4548 48.073 77.1443 48.073 76.7607C48.073 76.3771 48.3831 76.0666 48.767 76.0666H66.5694C66.953 76.0666 67.2638 76.3771 67.2638 76.7607C67.2638 77.1443 66.953 77.4548 66.5694 77.4548Z" fill="#EF4E23"/>
<path d="M170.148 77.4548H128.867C128.483 77.4548 128.172 77.1443 128.172 76.7607C128.172 76.3771 128.483 76.0666 128.867 76.0666H170.148C170.532 76.0666 170.842 76.3771 170.842 76.7607C170.842 77.1443 170.532 77.4548 170.148 77.4548Z" fill="#EF4E23"/>
<path d="M42.0556 77.4548H26.2382C25.8546 77.4548 25.5444 77.1443 25.5444 76.7607C25.5444 76.3771 25.8546 76.0666 26.2382 76.0666H42.0556C42.4392 76.0666 42.7497 76.3771 42.7497 76.7607C42.7497 77.1443 42.4392 77.4548 42.0556 77.4548Z" fill="#EF4E23"/>
<path d="M170.148 81.0982H127.034C126.65 81.0982 126.34 80.7878 126.34 80.4042C126.34 80.0206 126.65 79.7101 127.034 79.7101H170.148C170.532 79.7101 170.842 80.0206 170.842 80.4042C170.842 80.7878 170.532 81.0982 170.148 81.0982Z" fill="#EF4E23"/>
<path d="M68.9497 81.0982H26.2385C25.8546 81.0982 25.5444 80.7878 25.5444 80.4042C25.5444 80.0206 25.8546 79.7101 26.2385 79.7101H68.9497C69.3333 79.7101 69.6441 80.0206 69.6441 80.4042C69.6441 80.7878 69.3333 81.0982 68.9497 81.0982Z" fill="#EF4E23"/>
<path d="M170.148 84.7496H151.93C151.546 84.7496 151.236 84.4391 151.236 84.0555C151.236 83.672 151.546 83.3615 151.93 83.3615H170.148C170.532 83.3615 170.842 83.672 170.842 84.0555C170.842 84.4391 170.532 84.7496 170.148 84.7496Z" fill="#EF4E23"/>
<path d="M70.8584 84.7496H26.2382C25.8546 84.7496 25.5444 84.4391 25.5444 84.0555C25.5444 83.672 25.8546 83.3615 26.2382 83.3615H70.8584C71.242 83.3615 71.5525 83.672 71.5525 84.0555C71.5525 84.4391 71.242 84.7496 70.8584 84.7496Z" fill="#EF4E23"/>
<path d="M170.148 88.4003H157.746C157.362 88.4003 157.052 88.0899 157.052 87.7063C157.052 87.3227 157.362 87.0122 157.746 87.0122H170.148C170.532 87.0122 170.843 87.3227 170.843 87.7063C170.843 88.0899 170.532 88.4003 170.148 88.4003Z" fill="#EF4E23"/>
<path d="M72.4411 88.4003H26.2385C25.8546 88.4003 25.5444 88.0899 25.5444 87.7063C25.5444 87.3227 25.8546 87.0122 26.2385 87.0122H72.4411C72.8247 87.0122 73.1351 87.3227 73.1351 87.7063C73.1351 88.0899 72.8247 88.4003 72.4411 88.4003Z" fill="#EF4E23"/>
<path d="M170.148 92.0504H161.758C161.374 92.0504 161.064 91.7402 161.064 91.3563C161.064 90.9727 161.374 90.6626 161.758 90.6626H170.148C170.532 90.6626 170.842 90.9727 170.842 91.3563C170.842 91.7402 170.532 92.0504 170.148 92.0504Z" fill="#EF4E23"/>
<path d="M71.5521 92.0504H26.2382C25.8542 92.0504 25.5441 91.7402 25.5441 91.3563C25.5441 90.9727 25.8542 90.6626 26.2382 90.6626H71.5521C71.9357 90.6626 72.2465 90.9727 72.2465 91.3563C72.2465 91.7402 71.9357 92.0504 71.5521 92.0504Z" fill="#EF4E23"/>
<path d="M170.148 95.6942H163.972C163.588 95.6942 163.278 95.3837 163.278 95.0001C163.278 94.6165 163.588 94.3061 163.972 94.3061H170.148C170.532 94.3061 170.842 94.6165 170.842 95.0001C170.842 95.3837 170.532 95.6942 170.148 95.6942Z" fill="#EF4E23"/>
<path d="M68.9842 95.6942H26.2382C25.8546 95.6942 25.5441 95.3837 25.5441 95.0001C25.5441 94.6165 25.8546 94.3061 26.2382 94.3061H68.9842C69.3678 94.3061 69.6783 94.6165 69.6783 95.0001C69.6783 95.3837 69.3678 95.6942 68.9842 95.6942Z" fill="#EF4E23"/>
<path d="M170.148 99.3449H161.792C161.408 99.3449 161.098 99.0344 161.098 98.6508C161.098 98.2672 161.408 97.9568 161.792 97.9568H170.148C170.532 97.9568 170.842 98.2672 170.842 98.6508C170.842 99.0344 170.532 99.3449 170.148 99.3449Z" fill="#EF4E23"/>
<path d="M66.8332 99.3449H18.0969C17.713 99.3449 17.4029 99.0344 17.4029 98.6508C17.4029 98.2672 17.713 97.9568 18.0969 97.9568H66.8332C67.2168 97.9568 67.5273 98.2672 67.5273 98.6508C67.5273 99.0344 67.2168 99.3449 66.8332 99.3449Z" fill="#EF4E23"/>
<path d="M170.148 102.996H151.784C151.4 102.996 151.09 102.685 151.09 102.302C151.09 101.918 151.4 101.608 151.784 101.608H170.148C170.532 101.608 170.842 101.918 170.842 102.302C170.842 102.685 170.532 102.996 170.148 102.996Z" fill="#EF4E23"/>
<path d="M68.5404 102.996H17.9099C17.526 102.996 17.2159 102.685 17.2159 102.302C17.2159 101.918 17.526 101.608 17.9099 101.608H68.5404C68.924 101.608 69.2345 101.918 69.2345 102.302C69.2345 102.685 68.924 102.996 68.5404 102.996Z" fill="#EF4E23"/>
<path d="M170.148 106.647H144.254C143.87 106.647 143.56 106.336 143.56 105.953C143.56 105.569 143.87 105.259 144.254 105.259H170.148C170.532 105.259 170.842 105.569 170.842 105.953C170.842 106.336 170.532 106.647 170.148 106.647Z" fill="#EF4E23"/>
<path d="M78.1462 106.647H17.91C17.5264 106.647 17.2159 106.336 17.2159 105.953C17.2159 105.569 17.5264 105.259 17.91 105.259H78.1462C78.5294 105.259 78.8402 105.569 78.8402 105.953C78.8402 106.336 78.5294 106.647 78.1462 106.647Z" fill="#EF4E23"/>
<path d="M170.148 110.29H141.193C140.809 110.29 140.499 109.98 140.499 109.596C140.499 109.212 140.809 108.902 141.193 108.902H170.148C170.532 108.902 170.842 109.212 170.842 109.596C170.842 109.98 170.532 110.29 170.148 110.29Z" fill="#EF4E23"/>
<path d="M78.5487 110.29H17.9099C17.5264 110.29 17.2159 109.98 17.2159 109.596C17.2159 109.212 17.5264 108.902 17.9099 108.902H78.5487C78.932 108.902 79.2428 109.212 79.2428 109.596C79.2428 109.98 78.932 110.29 78.5487 110.29Z" fill="#EF4E23"/>
<path d="M170.148 113.941H138.666C138.283 113.941 137.973 113.63 137.973 113.247C137.973 112.863 138.283 112.553 138.666 112.553H170.148C170.532 112.553 170.842 112.863 170.842 113.247C170.842 113.63 170.532 113.941 170.148 113.941Z" fill="#EF4E23"/>
<path d="M78.7081 113.941H17.91C17.5264 113.941 17.2159 113.63 17.2159 113.247C17.2159 112.863 17.5264 112.553 17.91 112.553H78.7081C79.0914 112.553 79.4022 112.863 79.4022 113.247C79.4022 113.63 79.0914 113.941 78.7081 113.941Z" fill="#EF4E23"/>
<path d="M170.148 117.591H136.452C136.069 117.591 135.758 117.281 135.758 116.897C135.758 116.514 136.069 116.203 136.452 116.203H170.148C170.532 116.203 170.842 116.514 170.842 116.897C170.842 117.281 170.532 117.591 170.148 117.591Z" fill="#EF4E23"/>
<path d="M78.6522 117.591H17.9096C17.526 117.591 17.2156 117.281 17.2156 116.897C17.2156 116.514 17.526 116.203 17.9096 116.203H78.6522C79.0355 116.203 79.3463 116.514 79.3463 116.897C79.3463 117.281 79.0355 117.591 78.6522 117.591Z" fill="#EF4E23"/>
<path d="M170.148 121.242H134.461C134.077 121.242 133.767 120.931 133.767 120.548C133.767 120.164 134.077 119.854 134.461 119.854H170.148C170.532 119.854 170.843 120.164 170.843 120.548C170.843 120.931 170.532 121.242 170.148 121.242Z" fill="#EF4E23"/>
<path d="M78.3887 121.242H17.9099C17.526 121.242 17.2159 120.931 17.2159 120.548C17.2159 120.164 17.526 119.854 17.9099 119.854H78.3887C78.7723 119.854 79.0827 120.164 79.0827 120.548C79.0827 120.931 78.7723 121.242 78.3887 121.242Z" fill="#EF4E23"/>
<path d="M170.148 124.886H132.656C132.273 124.886 131.962 124.575 131.962 124.192C131.962 123.808 132.273 123.498 132.656 123.498H170.148C170.532 123.498 170.842 123.808 170.842 124.192C170.842 124.575 170.532 124.886 170.148 124.886Z" fill="#EF4E23"/>
<path d="M77.9099 124.886H17.9096C17.526 124.886 17.2159 124.575 17.2159 124.192C17.2159 123.808 17.526 123.498 17.9096 123.498H77.9099C78.2935 123.498 78.6043 123.808 78.6043 124.192C78.6043 124.575 78.2935 124.886 77.9099 124.886Z" fill="#EF4E23"/>
<path d="M170.148 128.537H131.018C130.634 128.537 130.324 128.226 130.324 127.843C130.324 127.459 130.634 127.149 131.018 127.149H170.148C170.532 127.149 170.842 127.459 170.842 127.843C170.842 128.226 170.532 128.537 170.148 128.537Z" fill="#EF4E23"/>
<path d="M77.1737 128.537H17.9096C17.526 128.537 17.2159 128.226 17.2159 127.843C17.2159 127.459 17.526 127.149 17.9096 127.149H77.1737C77.5573 127.149 77.8681 127.459 77.8681 127.843C77.8681 128.226 77.5573 128.537 77.1737 128.537Z" fill="#EF4E23"/>
<path d="M170.148 132.188H129.554C129.17 132.188 128.86 131.877 128.86 131.493C128.86 131.11 129.17 130.799 129.554 130.799H170.148C170.532 130.799 170.842 131.11 170.842 131.493C170.842 131.877 170.532 132.188 170.148 132.188Z" fill="#EF4E23"/>
<path d="M76.1471 132.188H17.91C17.526 132.188 17.2159 131.877 17.2159 131.493C17.2159 131.11 17.526 130.799 17.91 130.799H76.1471C76.5307 130.799 76.8415 131.11 76.8415 131.493C76.8415 131.877 76.5307 132.188 76.1471 132.188Z" fill="#EF4E23"/>
<path d="M170.148 135.838H128.29C127.907 135.838 127.596 135.527 127.596 135.144C127.596 134.76 127.907 134.45 128.29 134.45H170.148C170.532 134.45 170.842 134.76 170.842 135.144C170.842 135.527 170.532 135.838 170.148 135.838Z" fill="#EF4E23"/>
<path d="M74.7245 135.838H17.9099C17.5264 135.838 17.2159 135.527 17.2159 135.144C17.2159 134.76 17.5264 134.45 17.9099 134.45H74.7245C75.1081 134.45 75.4186 134.76 75.4186 135.144C75.4186 135.527 75.1081 135.838 74.7245 135.838Z" fill="#EF4E23"/>
<path d="M104.457 139.482H102.076C101.693 139.482 101.382 139.171 101.382 138.788C101.382 138.404 101.693 138.094 102.076 138.094H104.457C104.841 138.094 105.151 138.404 105.151 138.788C105.151 139.171 104.841 139.482 104.457 139.482Z" fill="#EF4E23"/>
<path d="M170.148 139.482H127.25C126.866 139.482 126.556 139.171 126.556 138.788C126.556 138.404 126.866 138.094 127.25 138.094H170.148C170.532 138.094 170.842 138.404 170.842 138.788C170.842 139.171 170.532 139.482 170.148 139.482Z" fill="#EF4E23"/>
<path d="M72.7393 139.482H17.9099C17.526 139.482 17.2159 139.171 17.2159 138.788C17.2159 138.404 17.526 138.094 17.9099 138.094H72.7393C73.1229 138.094 73.4333 138.404 73.4333 138.788C73.4333 139.171 73.1229 139.482 72.7393 139.482Z" fill="#EF4E23"/>
<path d="M104.471 143.132H100.21C99.8259 143.132 99.5158 142.822 99.5158 142.438C99.5158 142.054 99.8259 141.744 100.21 141.744H104.471C104.854 141.744 105.165 142.054 105.165 142.438C105.165 142.822 104.854 143.132 104.471 143.132Z" fill="#EF4E23"/>
<path d="M170.148 143.132H126.514C126.13 143.132 125.82 142.822 125.82 142.438C125.82 142.054 126.13 141.744 126.514 141.744H170.148C170.532 141.744 170.842 142.054 170.842 142.438C170.842 142.822 170.532 143.132 170.148 143.132Z" fill="#EF4E23"/>
<path d="M69.783 143.132H17.91C17.5264 143.132 17.2159 142.822 17.2159 142.438C17.2159 142.054 17.5264 141.744 17.91 141.744H69.783C70.1666 141.744 70.477 142.054 70.477 142.438C70.477 142.822 70.1666 143.132 69.783 143.132Z" fill="#EF4E23"/>
<path d="M103.805 146.783H98.2045C97.8205 146.783 97.51 146.473 97.51 146.089C97.51 145.706 97.8205 145.395 98.2045 145.395H103.805C104.188 145.395 104.499 145.706 104.499 146.089C104.499 146.473 104.188 146.783 103.805 146.783Z" fill="#EF4E23"/>
<path d="M170.148 146.783H126.132C125.748 146.783 125.438 146.473 125.438 146.089C125.438 145.706 125.748 145.395 126.132 145.395H170.148C170.532 145.395 170.842 145.706 170.842 146.089C170.842 146.473 170.532 146.783 170.148 146.783Z" fill="#EF4E23"/>
<path d="M66.6456 146.783H17.9099C17.526 146.783 17.2159 146.473 17.2159 146.089C17.2159 145.706 17.526 145.395 17.9099 145.395H66.6456C67.0288 145.395 67.3396 145.706 67.3396 146.089C67.3396 146.473 67.0288 146.783 66.6456 146.783Z" fill="#EF4E23"/>
<path d="M102.313 150.434H96.073C95.6894 150.434 95.379 150.123 95.379 149.74C95.379 149.356 95.6894 149.046 96.073 149.046H102.313C102.696 149.046 103.007 149.356 103.007 149.74C103.007 150.123 102.696 150.434 102.313 150.434Z" fill="#EF4E23"/>
<path d="M179.858 150.434H125.452C125.068 150.434 124.758 150.123 124.758 149.74C124.758 149.356 125.068 149.046 125.452 149.046H179.858C180.242 149.046 180.552 149.356 180.552 149.74C180.552 150.123 180.242 150.434 179.858 150.434Z" fill="#EF4E23"/>
<path d="M64.3274 150.434H17.9096C17.526 150.434 17.2159 150.123 17.2159 149.74C17.2159 149.356 17.526 149.046 17.9096 149.046H64.3274C64.711 149.046 65.0215 149.356 65.0215 149.74C65.0215 150.123 64.711 150.434 64.3274 150.434Z" fill="#EF4E23"/>
<path d="M99.8205 154.078H93.852C93.4684 154.078 93.158 153.767 93.158 153.384C93.158 153 93.4684 152.69 93.852 152.69H99.8205C100.204 152.69 100.515 153 100.515 153.384C100.515 153.767 100.204 154.078 99.8205 154.078Z" fill="#EF4E23"/>
<path d="M179.865 154.078H124.321C123.937 154.078 123.627 153.767 123.627 153.384C123.627 153 123.937 152.69 124.321 152.69H179.865C180.248 152.69 180.559 153 180.559 153.384C180.559 153.767 180.248 154.078 179.865 154.078Z" fill="#EF4E23"/>
<path d="M62.5712 154.078H17.9096C17.526 154.078 17.2159 153.767 17.2159 153.384C17.2159 153 17.526 152.69 17.9096 152.69H62.5712C62.9548 152.69 63.2653 153 63.2653 153.384C63.2653 153.767 62.9548 154.078 62.5712 154.078Z" fill="#EF4E23"/>
<path d="M96.1978 157.728H91.534C91.1504 157.728 90.8403 157.418 90.8403 157.034C90.8403 156.65 91.1504 156.34 91.534 156.34H96.1978C96.5814 156.34 96.8919 156.65 96.8919 157.034C96.8919 157.418 96.5814 157.728 96.1978 157.728Z" fill="#EF4E23"/>
<path d="M179.865 157.728H122.704C122.32 157.728 122.01 157.418 122.01 157.034C122.01 156.65 122.32 156.34 122.704 156.34H179.865C180.249 156.34 180.559 156.65 180.559 157.034C180.559 157.418 180.249 157.728 179.865 157.728Z" fill="#EF4E23"/>
<path d="M61.2531 157.728H17.9099C17.526 157.728 17.2159 157.418 17.2159 157.034C17.2159 156.65 17.526 156.34 17.9099 156.34H61.2531C61.6364 156.34 61.9472 156.65 61.9472 157.034C61.9472 157.418 61.6364 157.728 61.2531 157.728Z" fill="#EF4E23"/>
<path d="M91.6796 161.379H89.1462C88.7626 161.379 88.4522 161.068 88.4522 160.685C88.4522 160.301 88.7626 159.991 89.1462 159.991H91.6796C92.0632 159.991 92.374 160.301 92.374 160.685C92.374 161.068 92.0632 161.379 91.6796 161.379Z" fill="#EF4E23"/>
<path d="M179.865 161.379H120.573C120.189 161.379 119.879 161.068 119.879 160.685C119.879 160.301 120.189 159.991 120.573 159.991H179.865C180.248 159.991 180.559 160.301 180.559 160.685C180.559 161.068 180.248 161.379 179.865 161.379Z" fill="#EF4E23"/>
<path d="M60.2879 161.379H17.9096C17.526 161.379 17.2159 161.068 17.2159 160.685C17.2159 160.301 17.526 159.991 17.9096 159.991H60.2879C60.6712 159.991 60.982 160.301 60.982 160.685C60.982 161.068 60.6712 161.379 60.2879 161.379Z" fill="#EF4E23"/>
<path d="M87.9872 165.03H87.002C86.6181 165.03 86.3079 164.719 86.3079 164.336C86.3079 163.952 86.6181 163.642 87.002 163.642H87.9872C88.3708 163.642 88.6813 163.952 88.6813 164.336C88.6813 164.719 88.3708 165.03 87.9872 165.03Z" fill="#EF4E23"/>
<path d="M179.865 165.03H117.838C117.454 165.03 117.144 164.719 117.144 164.336C117.144 163.952 117.454 163.642 117.838 163.642H179.865C180.248 163.642 180.559 163.952 180.559 164.336C180.559 164.719 180.248 165.03 179.865 165.03Z" fill="#EF4E23"/>
<path d="M59.6218 165.03H17.9099C17.5264 165.03 17.2159 164.719 17.2159 164.336C17.2159 163.952 17.5264 163.642 17.9099 163.642H59.6218C60.0054 163.642 60.3159 163.952 60.3159 164.336C60.3159 164.719 60.0054 165.03 59.6218 165.03Z" fill="#EF4E23"/>
<path d="M85.8084 168.674H85.7114C85.3275 168.674 85.0174 168.363 85.0174 167.98C85.0174 167.596 85.3275 167.285 85.7114 167.285H85.8084C86.192 167.285 86.5024 167.596 86.5024 167.98C86.5024 168.363 86.192 168.674 85.8084 168.674Z" fill="#EF4E23"/>
<path d="M84.4351 194.222H84.3717C83.9884 194.222 83.678 193.912 83.678 193.528C83.678 193.145 83.9884 192.835 84.3717 192.835C84.7556 192.835 85.0978 193.145 85.0978 193.528C85.0978 193.912 84.8184 194.222 84.4351 194.222Z" fill="#EF4E23"/>
<path d="M179.865 168.674H114.32C113.936 168.674 113.625 168.363 113.625 167.98C113.625 167.596 113.936 167.285 114.32 167.285H179.865C180.248 167.285 180.559 167.596 180.559 167.98C180.559 168.363 180.248 168.674 179.865 168.674Z" fill="#EF4E23"/>
<path d="M59.2265 168.674H17.9099C17.526 168.674 17.2159 168.363 17.2159 167.98C17.2159 167.596 17.526 167.285 17.9099 167.285H59.2265C59.6101 167.285 59.9206 167.596 59.9206 167.98C59.9206 168.363 59.6101 168.674 59.2265 168.674Z" fill="#EF4E23"/>
<path d="M179.865 172.324H109.461C109.078 172.324 108.767 172.014 108.767 171.63C108.767 171.246 109.078 170.936 109.461 170.936H179.865C180.248 170.936 180.559 171.246 180.559 171.63C180.559 172.014 180.248 172.324 179.865 172.324Z" fill="#EF4E23"/>
<path d="M59.0806 172.324H17.9096C17.526 172.324 17.2159 172.014 17.2159 171.63C17.2159 171.246 17.526 170.936 17.9096 170.936H59.0806C59.4642 170.936 59.7746 171.246 59.7746 171.63C59.7746 172.014 59.4642 172.324 59.0806 172.324Z" fill="#EF4E23"/>
<path d="M179.865 175.975H105.304C104.92 175.975 104.61 175.664 104.61 175.281C104.61 174.897 104.92 174.587 105.304 174.587H179.865C180.248 174.587 180.559 174.897 180.559 175.281C180.559 175.664 180.248 175.975 179.865 175.975Z" fill="#EF4E23"/>
<path d="M59.1361 175.975H17.9096C17.526 175.975 17.2159 175.664 17.2159 175.281C17.2159 174.897 17.526 174.587 17.9096 174.587H59.1361C59.5197 174.587 59.8302 174.897 59.8302 175.281C59.8302 175.664 59.5197 175.975 59.1361 175.975Z" fill="#EF4E23"/>
<path d="M179.865 179.625H103.596C103.213 179.625 102.902 179.315 102.902 178.931C102.902 178.547 103.213 178.237 103.596 178.237H179.865C180.248 178.237 180.559 178.547 180.559 178.931C180.559 179.315 180.248 179.625 179.865 179.625Z" fill="#EF4E23"/>
<path d="M59.1361 179.625H17.9096C17.526 179.625 17.2159 179.315 17.2159 178.931C17.2159 178.547 17.526 178.237 17.9096 178.237H59.1361C59.5197 178.237 59.8302 178.547 59.8302 178.931C59.8302 179.315 59.5197 179.625 59.1361 179.625Z" fill="#EF4E23"/>
<path d="M179.865 183.27H102.903C102.519 183.27 102.208 182.96 102.208 182.576C102.208 182.192 102.519 181.882 102.903 181.882H179.865C180.248 181.882 180.559 182.192 180.559 182.576C180.559 182.96 180.248 183.27 179.865 183.27Z" fill="#EF4E23"/>
<path d="M59.1361 183.27H17.9096C17.526 183.27 17.2159 182.96 17.2159 182.576C17.2159 182.192 17.526 181.882 17.9096 181.882H59.1361C59.5197 181.882 59.8302 182.192 59.8302 182.576C59.8302 182.96 59.5197 183.27 59.1361 183.27Z" fill="#EF4E23"/>
<path d="M179.865 186.92H102.896C102.513 186.92 102.202 186.609 102.202 186.226C102.202 185.842 102.513 185.532 102.896 185.532H179.865C180.249 185.532 180.559 185.842 180.559 186.226C180.559 186.609 180.249 186.92 179.865 186.92Z" fill="#EF4E23"/>
<path d="M59.1361 186.92H17.9096C17.526 186.92 17.2159 186.609 17.2159 186.226C17.2159 185.842 17.526 185.532 17.9096 185.532H59.1361C59.5197 185.532 59.8302 185.842 59.8302 186.226C59.8302 186.609 59.5197 186.92 59.1361 186.92Z" fill="#EF4E23"/>
<path d="M179.865 190.569H102.896C102.513 190.569 102.202 190.259 102.202 189.875C102.202 189.492 102.513 189.181 102.896 189.181H179.865C180.249 189.181 180.559 189.492 180.559 189.875C180.559 190.259 180.249 190.569 179.865 190.569Z" fill="#EF4E23"/>
<path d="M59.1913 190.569H17.9099C17.5264 190.569 17.2159 190.259 17.2159 189.875C17.2159 189.492 17.5264 189.181 17.9099 189.181H59.1913C59.5749 189.181 59.8854 189.492 59.8854 189.875C59.8854 190.259 59.5749 190.569 59.1913 190.569Z" fill="#EF4E23"/>
<path d="M179.865 194.222H100.995C100.612 194.222 100.301 193.912 100.301 193.528C100.301 193.145 100.612 192.835 100.995 192.835H179.865C180.248 192.835 180.559 193.145 180.559 193.528C180.559 193.912 180.248 194.222 179.865 194.222Z" fill="#EF4E23"/>
<path d="M60.3435 194.222H17.9096C17.526 194.222 17.2159 193.912 17.2159 193.528C17.2159 193.145 17.526 192.835 17.9096 192.835H60.3435C60.7267 192.835 61.0375 193.145 61.0375 193.528C61.0375 193.912 60.7267 194.222 60.3435 194.222Z" fill="#EF4E23"/>
<path d="M179.867 197.869H81.9559C81.5724 197.869 81.2619 197.558 81.2619 197.175C81.2619 196.791 81.5724 196.481 81.9559 196.481H179.867C180.251 196.481 180.561 196.791 180.561 197.175C180.561 197.558 180.251 197.869 179.867 197.869Z" fill="#EF4E23"/>
<path d="M61.6116 197.869H17.9079C17.524 197.869 17.2139 197.558 17.2139 197.175C17.2139 196.791 17.524 196.481 17.9079 196.481H61.6116C61.9952 196.481 62.3057 196.791 62.3057 197.175C62.3057 197.558 61.9952 197.869 61.6116 197.869Z" fill="#EF4E23"/>
<path d="M179.867 201.518H17.9079C17.5243 201.518 17.2139 201.208 17.2139 200.824C17.2139 200.441 17.5243 200.13 17.9079 200.13H179.867C180.251 200.13 180.561 200.441 180.561 200.824C180.561 201.208 180.251 201.518 179.867 201.518Z" fill="#EF4E23"/>
<path d="M179.867 205.165H17.9079C17.5243 205.165 17.2139 204.854 17.2139 204.47C17.2139 204.087 17.5243 203.777 17.9079 203.777H179.867C180.251 203.777 180.561 204.087 180.561 204.47C180.561 204.854 180.251 205.165 179.867 205.165Z" fill="#EF4E23"/>
<path d="M94.1383 194.671H91.2403C87.5592 194.671 84.5639 191.677 84.5639 187.996V182.062C84.5795 181.49 85.0241 168.441 92.3556 162.802C99.3558 157.418 107.29 151.315 106.577 139.181C105.862 127.037 89.0698 101.81 88.9001 101.556C88.6869 101.238 88.7728 100.807 89.0915 100.594C89.4072 100.381 89.8404 100.465 90.054 100.785C90.7546 101.832 107.225 126.582 107.962 139.1C108.719 151.967 100.476 158.308 93.2014 163.903C86.3877 169.144 85.9552 181.953 85.9521 182.081V187.996C85.9521 190.911 88.3243 193.283 91.2403 193.283H94.1383C97.0539 193.283 99.4262 190.911 99.4262 187.996V182.633C99.4317 182.241 99.648 173.197 107.067 169.015C114.141 165.028 122.098 155.519 122.853 144.066C123.652 131.951 135.204 108.571 143.804 101.665C144.102 101.424 144.539 101.472 144.779 101.771C145.02 102.07 144.972 102.506 144.673 102.747C136.287 109.482 125.019 132.315 124.238 144.157C123.45 156.125 115.138 166.059 107.749 170.224C101.016 174.018 100.816 182.558 100.815 182.644V187.996C100.815 191.677 97.8194 194.671 94.1383 194.671Z" fill="#EF4E23"/>
<path d="M157.291 96.8353C154.341 96.9957 153.956 97.1879 150.91 98.8233L149.788 99.4325C147.671 100.555 146.26 101.228 144.273 101.517C144.176 101.549 144.08 101.549 143.984 101.549C142.38 101.741 140.392 101.709 137.346 101.453C134.172 101.164 133.081 100.555 132.184 100.074C131.414 99.625 130.773 99.3045 129.651 99.3045C129.009 99.3045 128.207 99.4004 127.118 99.625C125.995 99.8492 124.713 100.074 123.27 100.266C123.174 100.266 123.046 100.266 122.949 100.298C118.268 100.972 112.239 101.388 106.917 101.26C106.692 101.26 106.436 101.26 106.212 101.228C105.731 101.228 105.25 101.228 104.801 101.196C103.455 101.1 102.139 101.003 100.857 100.94C98.1635 100.747 95.6622 100.587 93.3537 100.523C92.0715 100.458 90.8524 100.458 89.6988 100.523C89.5381 100.523 89.3777 100.523 89.2173 100.555C88.063 100.587 87.005 100.683 86.0105 100.843C83.6058 101.26 82.8686 100.587 82.0669 99.8816C81.4257 99.3363 80.7523 98.7271 79.4694 98.8233C79.4059 98.8233 79.3417 98.8233 79.2455 98.8554C78.6042 98.9516 77.8984 99.1759 77.1609 99.3683C75.1091 100.01 72.8327 100.683 70.3959 99.3683C71.8706 96.7391 78.4442 85.9014 85.5621 85.324C91.622 84.811 110.636 86.0936 120.801 86.8311C117.947 87.1837 114.901 87.5366 111.695 87.8891C111.63 87.8891 104.64 88.3062 100.023 87.8891C99.9914 87.8574 94.668 87.4403 93.0646 87.1516C92.6803 87.0878 92.3274 87.3441 92.2633 87.729C92.1991 88.1137 92.4558 88.4666 92.8411 88.5304C94.4762 88.8191 99.7027 89.2362 99.9272 89.2679C104.608 89.685 111.502 89.2679 111.823 89.2679C121.507 88.1778 129.683 87.1837 136.224 86.3823C138.821 86.0619 141.258 85.7731 143.502 85.4844C149.499 84.7789 158.541 93.2122 160.336 94.9756C160.048 95.5527 159.247 96.707 157.291 96.8353ZM161.652 94.3023C161.202 93.8531 150.686 83.208 143.311 84.1056C141.066 84.3943 138.661 84.6827 136.064 85.0035C133.531 85.324 130.741 85.6448 127.727 86.0294C127.663 85.9973 127.566 85.9653 127.503 85.9653C127.182 85.9332 125.161 85.7731 122.18 85.5486C121.731 85.5161 121.218 85.4523 120.705 85.4202C119.807 85.3561 118.877 85.2922 117.851 85.2281C117.37 85.1957 116.89 85.1639 116.376 85.1315V85.0998C115.542 85.0677 114.677 85.0035 113.778 84.9394C113.298 84.9073 112.817 84.8752 112.304 84.8431C111.919 84.811 111.534 84.811 111.15 84.7789C110.732 84.7469 110.284 84.7148 109.835 84.6827C109.386 84.6506 108.905 84.6185 108.424 84.5865C107.976 84.5865 107.526 84.5544 107.045 84.5223C106.885 84.5223 106.724 84.4906 106.533 84.4906C106.083 84.4585 105.603 84.4264 105.121 84.3943C104.833 84.3943 104.577 84.3622 104.288 84.3622C103.807 84.3302 103.357 84.2981 102.877 84.2981C102.396 84.266 101.915 84.2339 101.434 84.2018C100.985 84.1697 100.504 84.1697 100.056 84.1377C99.7027 84.1377 99.318 84.1056 98.9327 84.1056C98.4843 84.0735 98.0031 84.0414 97.5543 84.0414C97.2655 84.0093 96.9771 84.0093 96.6884 84.0093C96.2072 83.9773 95.7584 83.9452 95.3099 83.9452C94.8287 83.9131 94.3799 83.9131 93.9305 83.9131C93.4499 83.8814 92.9694 83.8814 92.5199 83.8814C92.2319 83.8489 91.9428 83.8489 91.6544 83.8489C91.1735 83.8172 90.6599 83.8172 90.2114 83.8172H89.4097C88.8968 83.8172 88.4156 83.8172 87.9347 83.8489C87.4535 83.8172 86.9726 83.8489 86.5562 83.8814C86.1388 83.8814 85.7546 83.8814 85.4337 83.9131C85.3375 83.9131 85.273 83.9131 85.1771 83.9452C84.5358 84.0093 83.8945 84.1697 83.2536 84.3622C82.9007 84.4906 82.5482 84.6185 82.1632 84.811C81.4898 85.0998 80.8168 85.4523 80.1745 85.869C79.7581 86.1257 79.3731 86.4144 78.9889 86.6711C78.1551 87.3441 77.3213 88.0495 76.5517 88.787C76.1995 89.1717 75.8463 89.5246 75.4934 89.9095C71.6136 94.0777 69.0481 98.9516 68.8567 99.3045C68.6963 99.5929 68.7922 99.9775 69.0806 100.202C72.2549 102.318 75.3005 101.388 77.5459 100.715C78.0585 100.555 78.5401 100.394 78.9889 100.33C79.1813 100.266 79.3731 100.234 79.566 100.202C79.9509 100.17 80.2076 100.234 80.4956 100.394C80.6881 100.523 80.912 100.683 81.1366 100.908C82.0028 101.677 83.1891 102.735 86.2354 102.222C87.1334 102.062 88.0955 101.966 89.1531 101.934C89.6667 101.902 90.2114 101.87 90.7561 101.87C91.4616 101.87 92.1677 101.87 92.9363 101.902C93.482 101.902 94.0267 101.934 94.5728 101.934C95.1816 101.966 95.7908 101.998 96.4318 102.03C97.0085 102.094 97.5863 102.126 98.1952 102.158C98.4843 102.158 98.8044 102.19 99.1256 102.222C99.6382 102.254 100.215 102.286 100.761 102.318C100.857 102.318 100.953 102.318 101.05 102.35C101.723 102.383 102.428 102.415 103.134 102.479C103.678 102.511 104.192 102.543 104.737 102.575H104.865C105.314 102.607 105.762 102.607 106.212 102.639C106.724 102.671 107.238 102.671 107.783 102.671C107.911 102.703 108.04 102.703 108.167 102.703H109.77C110.348 102.703 110.957 102.671 111.534 102.671C112.112 102.639 112.657 102.639 113.233 102.607C113.683 102.575 114.132 102.543 114.58 102.543C115.094 102.511 115.574 102.479 116.088 102.447C117.113 102.35 118.14 102.286 119.134 102.19C119.647 102.126 120.128 102.094 120.609 102.03C121.121 101.966 121.635 101.902 122.148 101.837C122.66 101.773 123.174 101.709 123.655 101.645C123.943 101.613 124.199 101.549 124.456 101.517C125.034 101.421 125.579 101.356 126.092 101.228C126.573 101.164 126.989 101.1 127.406 101.003C130.035 100.458 130.581 100.747 131.511 101.26C131.992 101.549 132.537 101.87 133.435 102.126C133.916 102.318 134.493 102.447 135.166 102.575C135.743 102.671 136.416 102.767 137.218 102.831C137.411 102.863 137.635 102.863 137.827 102.863C138.373 102.928 138.917 102.959 139.399 102.992C140.265 103.024 141.033 103.056 141.74 103.056H142.285C143.086 103.024 143.823 102.992 144.497 102.863C146.549 102.575 148.153 101.87 150.429 100.651L151.583 100.042C154.533 98.4708 154.725 98.3742 157.387 98.2141C160.241 98.0537 161.555 96.0336 161.812 94.9756C161.875 94.719 161.812 94.4627 161.652 94.3023ZM89.2173 100.555C88.063 100.587 87.005 100.683 86.0105 100.843C83.6058 101.26 82.8686 100.587 82.0669 99.8816C81.4257 99.3363 80.7523 98.7271 79.4694 98.8233C79.7902 98.8233 80.0472 99.0158 80.1434 99.3045C80.2711 99.6571 80.3673 100.01 80.4956 100.394C80.6881 100.523 80.912 100.683 81.1366 100.908C82.0028 101.677 83.1891 102.735 86.2354 102.222C87.1334 102.062 88.0955 101.966 89.1531 101.934C88.9927 101.709 88.8968 101.581 88.8968 101.549C88.6722 101.228 88.7685 100.811 89.0889 100.587C89.121 100.555 89.1848 100.555 89.2173 100.555ZM106.917 101.26C106.692 101.26 106.436 101.26 106.212 101.228C105.731 101.228 105.25 101.228 104.801 101.196C103.455 101.1 102.139 101.003 100.857 100.94C98.1635 100.747 95.6622 100.587 93.3537 100.523C92.0715 100.458 90.8524 100.458 89.6988 100.523C89.8582 100.555 89.9548 100.651 90.051 100.779C90.1152 100.875 90.3718 101.26 90.7561 101.87C91.4616 101.87 92.1677 101.87 92.9363 101.902C93.482 101.902 94.0267 101.934 94.5728 101.934C95.1816 101.966 95.7908 101.998 96.4318 102.03C97.0085 102.094 97.5863 102.126 98.1952 102.158C98.4843 102.158 98.8044 102.19 99.1256 102.222C99.6382 102.254 100.215 102.286 100.761 102.318C100.857 102.318 100.953 102.318 101.05 102.35C101.723 102.383 102.428 102.415 103.134 102.479C103.678 102.511 104.192 102.543 104.737 102.575H104.865C105.314 102.607 105.762 102.607 106.212 102.639C106.724 102.671 107.238 102.671 107.783 102.671C107.911 102.703 108.04 102.703 108.167 102.703H109.77C110.348 102.703 110.957 102.671 111.534 102.671C112.112 102.639 112.657 102.639 113.233 102.607C113.683 102.575 114.132 102.543 114.58 102.543C115.094 102.511 115.574 102.479 116.088 102.447C117.113 102.35 118.14 102.286 119.134 102.19C119.647 102.126 120.128 102.094 120.609 102.03C121.121 101.966 121.635 101.902 122.148 101.837C122.372 101.132 122.533 100.747 122.533 100.715C122.596 100.523 122.757 100.363 122.949 100.298C118.268 100.972 112.239 101.388 106.917 101.26Z" fill="#EF4E23"/>
<path d="M122.18 116.94C122.565 115.144 122.981 113.22 123.367 111.361C123.462 111.296 123.526 111.2 123.558 111.104C124.809 108.571 127.278 105.717 128.946 103.986C127.598 108.218 124.328 113.669 122.18 116.94ZM130.517 101.164C130.26 101.036 129.939 101.068 129.715 101.26C129.555 101.421 126.637 104.146 124.297 107.32C125.034 104.274 125.707 101.869 126.092 101.228C126.316 100.908 126.188 100.458 125.867 100.266C125.547 100.074 125.13 100.17 124.905 100.491C124.777 100.715 124.616 101.068 124.456 101.517C122.981 105.653 120.448 118.479 120.16 120.082C120.096 120.403 120.256 120.724 120.544 120.852C120.641 120.884 120.737 120.916 120.833 120.916C121.057 120.916 121.25 120.788 121.411 120.627C121.763 120.114 130.004 108.443 130.869 101.869C130.901 101.581 130.773 101.292 130.517 101.164Z" fill="#EF4E23"/>
<path d="M118.26 141.214C118.124 141.214 117.987 141.174 117.866 141.091C117.579 140.892 117.488 140.517 117.639 140.213C117.698 140.036 118.25 138.058 118.182 126.081C118.105 112.664 122.484 100.83 122.528 100.712C122.662 100.352 123.065 100.172 123.421 100.306C123.78 100.441 123.962 100.841 123.828 101.199C123.784 101.315 119.494 112.92 119.57 126.073C119.619 134.756 119.35 140.165 118.831 140.915C118.697 141.11 118.481 141.214 118.26 141.214Z" fill="#EF4E23"/>
<path d="M120.796 134.607C120.782 134.607 120.767 134.606 120.752 134.606C120.37 134.581 120.079 134.252 120.103 133.87C120.297 130.797 120.361 123.739 120.362 123.668C120.363 123.506 120.422 123.349 120.526 123.226C120.576 123.166 125.557 117.255 127.903 112.315L128.615 110.808C131.283 105.149 133.009 101.66 134.795 101.263C135.163 101.184 135.539 101.415 135.623 101.79C135.706 102.164 135.47 102.534 135.096 102.618C133.883 102.888 131.658 107.608 129.871 111.4L129.157 112.91C126.947 117.563 122.649 122.843 121.747 123.928C121.734 125.219 121.664 131.179 121.488 133.956C121.465 134.325 121.16 134.607 120.796 134.607Z" fill="#EF4E23"/>
<path d="M123.695 133.035C123.663 133.035 123.629 133.033 123.596 133.028C123.216 132.974 122.953 132.621 123.008 132.242C123.079 131.749 124.835 120.059 132.123 110.509C136.588 104.658 137.803 102.957 138.13 102.463C138.156 102.341 138.214 102.224 138.306 102.127C138.561 101.858 139.04 101.79 139.322 102.029C139.939 102.555 139.939 102.555 133.226 111.351C126.155 120.617 124.398 132.323 124.381 132.44C124.332 132.786 124.035 133.035 123.695 133.035Z" fill="#EF4E23"/>
<path d="M117.587 112.152C117.246 112.152 116.953 111.902 116.901 111.562C116.604 109.608 115.594 104.15 114.509 102.379C114.308 102.052 114.411 101.625 114.738 101.425C115.066 101.225 115.493 101.327 115.692 101.654C116.462 102.91 117.128 105.472 117.59 107.649C118.28 104.859 119.236 101.876 119.297 101.688C119.415 101.323 119.804 101.124 120.17 101.239C120.535 101.357 120.736 101.748 120.618 102.113C120.596 102.181 118.421 108.969 118.28 111.496C118.26 111.851 117.976 112.134 117.621 112.151C117.609 112.152 117.598 112.152 117.587 112.152Z" fill="#EF4E23"/>
<path d="M116.205 127.192C115.824 127.192 115.513 126.884 115.511 126.502C115.486 121.112 115.241 116.567 114.784 112.993C113.678 104.35 111.495 102.608 111.473 102.593C111.158 102.375 111.082 101.941 111.301 101.627C111.52 101.313 111.951 101.235 112.267 101.455C112.541 101.646 114.979 103.589 116.161 112.817C116.626 116.447 116.874 121.049 116.899 126.495C116.901 126.878 116.592 127.19 116.209 127.192H116.205Z" fill="#EF4E23"/>
<path d="M107.271 116.188C106.998 116.188 106.749 116.027 106.637 115.776C106.587 115.664 101.577 104.467 99.0315 102.116C98.7504 101.857 98.7328 101.417 98.9929 101.136C99.2533 100.854 99.6925 100.837 99.974 101.097C102.063 103.026 105.426 109.882 107.02 113.283C107.384 108.097 102.99 102.301 102.94 102.236C102.706 101.931 102.764 101.495 103.067 101.262C103.373 101.028 103.809 101.087 104.04 101.39C104.291 101.716 110.157 109.462 107.925 115.727C107.829 115.994 107.581 116.176 107.297 116.187C107.288 116.188 107.28 116.188 107.271 116.188Z" fill="#EF4E23"/>
<path d="M111.876 141.213C111.511 141.213 111.205 140.927 111.184 140.559C110.982 137.057 110.35 133.395 109.073 128.313C106.246 117.076 96.4762 102.069 96.3778 101.919C96.1681 101.598 96.2581 101.168 96.5786 100.958C96.8998 100.748 97.3296 100.838 97.5397 101.158C97.9464 101.78 107.536 116.513 110.419 127.975C111.72 133.146 112.363 136.885 112.57 140.479C112.592 140.862 112.3 141.19 111.917 141.211C111.903 141.212 111.89 141.213 111.876 141.213Z" fill="#EF4E23"/>
<path d="M115.134 138.283C114.771 138.283 114.466 138.001 114.442 137.633C114.439 137.578 114.081 132.038 113.235 122.142C112.026 108.007 108.064 102.577 108.024 102.524C107.794 102.217 107.856 101.782 108.163 101.552C108.469 101.323 108.904 101.384 109.134 101.691C109.307 101.921 113.375 107.496 114.618 122.024C115.466 131.937 115.824 137.49 115.827 137.544C115.852 137.927 115.562 138.257 115.179 138.281C115.164 138.282 115.149 138.283 115.134 138.283Z" fill="#EF4E23"/>
<path d="M112.475 130.965C112.138 130.965 111.843 130.72 111.79 130.377C110.86 124.37 108.735 119.169 108.714 119.118C108.651 118.964 108.645 118.792 108.698 118.634C111.114 111.384 105.993 102.26 105.941 102.168C105.752 101.836 105.868 101.412 106.201 101.222C106.532 101.03 106.958 101.148 107.147 101.481C107.37 101.871 112.52 111.036 110.093 118.828C110.53 119.937 112.309 124.66 113.162 130.164C113.221 130.543 112.961 130.897 112.583 130.956C112.547 130.962 112.511 130.965 112.475 130.965Z" fill="#EF4E23"/>
<path d="M109.649 139.526C109.309 139.526 109.012 139.277 108.963 138.93C108.951 138.846 107.715 130.371 104.674 123.436C102.402 118.254 92.8272 101.72 92.7309 101.554C92.5384 101.222 92.6519 100.798 92.9834 100.605C93.3149 100.413 93.7403 100.527 93.9321 100.858C94.327 101.54 103.642 117.626 105.946 122.879C109.065 129.99 110.287 138.38 110.338 138.734C110.392 139.113 110.128 139.465 109.748 139.519C109.715 139.524 109.682 139.526 109.649 139.526Z" fill="#EF4E23"/>
<path d="M121.171 86.7355C121.07 86.7355 120.968 86.7131 120.87 86.6662C120.525 86.5003 120.38 86.0849 120.547 85.74C124.966 76.5792 130.347 66.0404 132.197 63.9358C136.196 59.3878 142.788 55.7181 145.112 55.5584C145.489 55.5494 145.826 55.8206 145.853 56.2038C145.878 56.586 145.59 56.9175 145.207 56.9438C143.381 57.069 137.071 60.4955 133.24 64.852C131.791 66.4998 127.3 74.9355 121.797 86.343C121.678 86.5913 121.429 86.7355 121.171 86.7355Z" fill="#EF4E23"/>
<path d="M74.9815 198.267H68.8257C64.6323 198.267 61.221 194.856 61.221 190.663V173.692C61.1655 172.987 59.9398 155.055 71.3301 143.84C77.5066 137.758 79.6847 128.162 80.4232 121.184C81.3729 112.217 80.3094 103.96 78.8354 99.7554C78.7088 99.3936 78.8981 98.9979 79.26 98.8709C79.6243 98.743 80.0182 98.9354 80.1448 99.2959C83.4903 108.836 83.7548 133.554 72.3035 144.829C61.3804 155.585 62.5936 173.46 62.6071 173.64L62.6091 190.663C62.6091 194.09 65.3985 196.879 68.8257 196.879H74.9815C78.409 196.879 81.198 194.09 81.198 190.663V177.687C81.1707 177.314 80.5453 167.339 85.4834 159.932C89.2459 154.288 99.2411 139.296 103.034 127.433C103.151 127.068 103.539 126.863 103.906 126.983C104.272 127.1 104.473 127.49 104.356 127.856C100.504 139.905 90.4305 155.014 86.6384 160.702C81.9597 167.719 82.5778 177.541 82.5847 177.64L82.5861 190.663C82.5861 194.856 79.1748 198.267 74.9815 198.267Z" fill="#EF4E23"/>
<path d="M76.3797 197.907C76.192 197.907 76.0043 197.831 75.8674 197.681C75.6094 197.397 75.6287 196.959 75.9115 196.7C77.042 195.667 77.9278 193.014 77.9278 190.661V179.313C77.9278 178.93 78.2383 178.619 78.6219 178.619C79.0055 178.619 79.316 178.93 79.316 179.313V190.661C79.316 193.051 78.468 196.246 76.8481 197.725C76.7146 197.846 76.547 197.907 76.3797 197.907Z" fill="#EF4E23"/>
<path d="M74.1282 197.887C74.0088 197.887 73.8874 197.857 73.777 197.792C73.4462 197.597 73.3365 197.171 73.5303 196.842C74.1492 195.79 74.6339 193.076 74.6339 190.662V179.626C74.6339 179.243 74.944 178.933 75.3279 178.933C75.7115 178.933 76.0216 179.243 76.0216 179.626V190.662C76.0216 192.989 75.577 196.101 74.727 197.545C74.5976 197.765 74.3658 197.887 74.1282 197.887Z" fill="#EF4E23"/>
<path d="M71.9516 197.962C71.9361 197.962 71.9206 197.962 71.904 197.961C71.5222 197.936 71.2327 197.604 71.2583 197.222C71.3376 196.045 71.3486 193.245 71.3486 190.662V179.73C71.3486 179.347 71.6588 179.036 72.0427 179.036C72.4263 179.036 72.7364 179.347 72.7364 179.73V190.662C72.7364 193.269 72.7257 196.097 72.644 197.315C72.6188 197.682 72.3138 197.962 71.9516 197.962Z" fill="#EF4E23"/>
<path d="M69.637 197.845C69.3704 197.845 69.1151 197.691 69.0013 197.43C68.3797 196.018 68.0547 192.956 68.0547 190.662V179.647C68.0547 179.264 68.3648 178.953 68.7488 178.953C69.1324 178.953 69.4428 179.264 69.4428 179.647V190.662C69.4428 193.127 69.7992 195.797 70.2718 196.872C70.426 197.222 70.2669 197.633 69.9158 197.786C69.825 197.826 69.7302 197.845 69.637 197.845Z" fill="#EF4E23"/>
<path d="M67.3856 197.83C67.202 197.83 67.0182 197.758 66.8819 197.613C65.489 196.144 64.7604 193.004 64.7604 190.661V179.355C64.7604 178.971 65.0709 178.661 65.4545 178.661C65.8381 178.661 66.1485 178.971 66.1485 179.355V190.661C66.1485 193.033 66.8967 195.612 67.8892 196.659C68.1527 196.937 68.141 197.376 67.8626 197.64C67.7284 197.767 67.557 197.83 67.3856 197.83Z" fill="#EF4E23"/>
<path d="M76.2244 90.555C75.9398 90.555 75.6724 90.3787 75.5707 90.0951C73.1053 83.2342 69.2965 74.613 61.6684 68.8014C55.2167 63.8864 52.5677 64.3928 47.7541 65.307C44.6329 65.9014 40.7487 66.641 34.5891 66.1618C34.2748 66.1373 34.0165 65.9041 33.9599 65.5943L32.8181 59.3433C31.2095 45.1303 43.7322 34.4824 56.7645 32.3723C67.6911 30.6061 83.3071 33.4703 94.7087 35.5632C96.6926 35.9281 98.5391 36.2669 100.198 36.5508C110.764 38.3591 128.385 37.6157 128.562 37.6081C128.938 37.577 129.269 37.8882 129.286 38.2711C129.303 38.654 129.006 38.9779 128.623 38.9948C128.444 39.0024 110.678 39.7534 99.9635 37.9185C98.3001 37.634 96.448 37.2945 94.4576 36.9289C83.1553 34.8543 67.677 32.0132 56.9866 33.7428C44.5964 35.7491 32.6815 45.7971 34.1903 59.1405L35.2286 64.8161C40.8977 65.2001 44.5464 64.505 47.4954 63.9434C52.3552 63.0202 55.5668 62.4079 62.5101 67.6969C70.427 73.7292 74.3471 82.585 76.8777 89.6263C77.0074 89.9872 76.8201 90.3842 76.4589 90.5143C76.3813 90.5419 76.3023 90.555 76.2244 90.555Z" fill="#EF4E23"/>
<path d="M119.692 58.5358C114.545 58.5358 109.372 57.2756 104.323 56.0462C101.141 55.2711 98.1354 54.5391 95.1991 54.1282C92.7254 53.7805 89.7697 53.5918 86.3467 53.3745C76.6771 52.7591 64.6429 51.9939 53.5038 47.0583C47.893 44.5721 41.9666 44.9619 35.8863 48.2159C35.5472 48.396 35.1284 48.2694 34.9466 47.9314C34.7659 47.5936 34.8932 47.1728 35.2312 46.9917C41.6161 43.5745 48.1289 43.1602 54.0664 45.7895C64.9785 50.6241 76.8755 51.381 86.435 51.9891C89.8863 52.2089 92.8661 52.3982 95.3926 52.7535C98.3965 53.1741 101.435 53.914 104.652 54.6974C111.481 56.3615 118.543 58.0818 125.284 56.5533C135.929 54.1417 146.264 55.3352 150.156 55.7847C154.874 56.3215 158.801 54.2576 161.815 49.6465C162.801 48.1373 162.792 46.0185 161.789 43.8339C160.121 40.1956 155.133 35.5456 146.571 34.411C134.044 32.7583 121.132 39.0224 121.004 39.0862C120.661 39.2542 120.245 39.1142 120.074 38.7696C119.905 38.426 120.047 38.01 120.391 37.8406C120.933 37.5739 133.81 31.3257 146.752 33.0349C155.866 34.2423 161.148 39.1059 163.051 43.2554C164.257 45.8823 164.229 48.4888 162.976 50.4058C159.652 55.4932 155.283 57.7679 149.998 57.1632C146.17 56.7213 136.004 55.5474 125.591 57.9076C123.634 58.3505 121.664 58.5358 119.692 58.5358Z" fill="#EF4E23"/>
<path d="M45.2588 75.7358C41.4174 75.7358 36.5758 66.9531 36.0318 65.9424C35.85 65.6057 35.977 65.1848 36.3137 65.0031C36.6528 64.8202 37.0729 64.9475 37.2544 65.2845C39.153 68.8086 42.9828 74.3484 45.2481 74.3484C45.2668 74.3484 45.2861 74.3477 45.3044 74.347C47.9919 74.2352 55.2503 67.9583 57.8202 65.5495C58.0996 65.2876 58.5388 65.3021 58.8009 65.5812C59.0634 65.8606 59.0493 66.2998 58.7692 66.5619C57.785 67.4847 49.0482 75.5806 45.3627 75.7337C45.3282 75.7351 45.2937 75.7358 45.2588 75.7358Z" fill="#EF4E23"/>
<path d="M46.1394 72.557C45.921 72.557 45.7054 72.4539 45.5709 72.2621C45.3504 71.9482 45.4263 71.5152 45.7396 71.2948C46.0966 71.0447 54.4888 65.1542 55.9745 64.4115C56.3167 64.2414 56.7352 64.3787 56.9059 64.7219C57.0774 65.0648 56.9383 65.4815 56.5954 65.653C55.4384 66.2311 48.9425 70.7418 46.5378 72.4307C46.4167 72.5163 46.2767 72.557 46.1394 72.557Z" fill="#EF4E23"/>
<path d="M43.9073 69.6907C43.6672 69.6907 43.434 69.5669 43.3054 69.3437C43.1136 69.0119 43.2274 68.5876 43.5593 68.3958C44.8839 67.631 51.5423 63.803 52.5569 63.5501C52.927 63.4566 53.3058 63.6822 53.3982 64.0551C53.4917 64.4266 53.2654 64.8033 52.8932 64.8961C52.2595 65.0641 47.4594 67.7469 44.2537 69.5979C44.1443 69.6611 44.0253 69.6907 43.9073 69.6907Z" fill="#EF4E23"/>
<path d="M79.797 87.4079C79.5238 87.4079 79.2647 87.2458 79.155 86.9774C79.0912 86.8222 72.6984 71.3886 64.8506 64.1093C57.159 56.9762 38.3507 61.1989 38.1617 61.2413C37.7871 61.3282 37.4156 61.0943 37.3293 60.7211C37.2434 60.3475 37.4763 59.9749 37.8499 59.8887C38.0492 59.8425 42.799 58.7621 48.6226 58.5875C56.5467 58.3481 62.3148 59.8649 65.794 63.0913C73.8682 70.5807 80.1744 85.8056 80.4386 86.4503C80.5845 86.8046 80.4152 87.2106 80.0605 87.3558C79.9747 87.391 79.885 87.4079 79.797 87.4079Z" fill="#EF4E23"/>
<path d="M56.451 55.7723C56.4123 55.7723 56.3727 55.7688 56.3344 55.763C50.2782 54.734 37.0949 54.8388 36.9614 54.8388H36.9552C36.5744 54.8388 36.2646 54.5322 36.2615 54.151C36.258 53.7681 36.5654 53.4545 36.9493 53.4511C37.3719 53.4476 45.1935 53.3859 51.5705 53.8447C47.4589 52.3013 41.4611 50.393 37.4461 50.5189C37.0711 50.5513 36.7417 50.2322 36.7289 49.8493C36.7154 49.4657 37.0156 49.1449 37.3988 49.1322C44.3498 48.899 56.234 54.2196 56.7362 54.4459C57.0539 54.5898 57.2161 54.9468 57.114 55.2811C57.0236 55.5764 56.7511 55.7723 56.451 55.7723Z" fill="#EF4E23"/>
<path d="M85.8673 84.4895C85.582 84.4895 85.3147 84.3118 85.2133 84.0279C85.1822 83.941 82.0296 75.2501 74.9097 69.1464C69.9712 64.9144 67.1971 58.7224 65.3612 54.6253C64.4805 52.6611 63.7209 50.9653 63.1624 50.5047C62.8668 50.2615 62.824 49.8245 63.0682 49.5282C63.3107 49.2329 63.7481 49.1887 64.0448 49.434C64.8541 50.1004 65.5982 51.7604 66.6279 54.0578C68.413 58.0418 71.1113 64.0634 75.8124 68.0932C83.2225 74.4439 86.3899 83.1935 86.5214 83.5629C86.6497 83.9241 86.461 84.3208 86.0998 84.4495C86.0232 84.4764 85.9446 84.4895 85.8673 84.4895Z" fill="#EF4E23"/>
<path d="M67.4235 58.691C67.231 58.691 67.0395 58.6109 66.9022 58.455C59.5656 50.1022 40.0699 46.6909 39.8739 46.657C39.4958 46.5925 39.2416 46.2341 39.3065 45.8564C39.371 45.479 39.7283 45.2262 40.1068 45.2893C40.9271 45.429 60.2831 48.8165 67.945 57.5388C68.1982 57.8269 68.17 58.2653 67.8819 58.5182C67.7494 58.6341 67.5863 58.691 67.4235 58.691Z" fill="#EF4E23"/>
<path d="M82.5988 84.9563C82.3149 84.9563 82.0476 84.7807 81.9461 84.4975C81.9103 84.3978 78.3079 74.4757 73.9803 68.441C73.7565 68.1292 73.8282 67.6952 74.1397 67.4723C74.4519 67.2481 74.8852 67.3199 75.108 67.6317C79.5494 73.8258 83.1025 83.6137 83.2518 84.027C83.3819 84.3878 83.1949 84.7849 82.8341 84.9149C82.7568 84.9435 82.6771 84.9563 82.5988 84.9563Z" fill="#EF4E23"/>
<path d="M88.8421 84.9649C88.5555 84.9649 88.2867 84.7852 88.187 84.4992C88.1746 84.464 86.929 80.913 83.5963 73.2149C80.2878 65.5702 68.9176 51.6386 68.803 51.4989C68.5595 51.2019 68.6037 50.7649 68.8996 50.5224C69.1977 50.2781 69.6337 50.3223 69.8766 50.6193C70.3492 51.1967 81.4852 64.843 84.8702 72.6633C88.2267 80.4176 89.4855 84.0073 89.4975 84.0425C89.6238 84.4043 89.4327 84.8003 89.0705 84.9262C88.9953 84.9528 88.9184 84.9649 88.8421 84.9649Z" fill="#EF4E23"/>
<path d="M91.0378 85.0356C90.6887 85.0356 90.3886 84.7741 90.3486 84.4188C90.3458 84.3964 90.0306 81.9009 87.4727 74.9203C84.5191 66.8548 74.7167 52.5714 74.6184 52.4282C74.4011 52.1126 74.4811 51.68 74.7964 51.463C75.1141 51.2443 75.5453 51.3261 75.7616 51.6407C76.1687 52.2323 85.7627 66.2135 88.7766 74.4433C91.4121 81.637 91.7164 84.1597 91.7284 84.2643C91.7712 84.6451 91.4966 84.988 91.1158 85.0315C91.0899 85.0342 91.0637 85.0356 91.0378 85.0356Z" fill="#EF4E23"/>
<path d="M93.2574 85.1943C92.8841 85.1943 92.5754 84.8966 92.564 84.5206C92.5633 84.4813 92.4312 80.5318 90.932 75.7007C89.4249 70.8423 79.1123 53.1934 79.0077 53.0161C78.8146 52.6853 78.9257 52.2603 79.2565 52.0664C79.5859 51.8733 80.0119 51.9833 80.2061 52.3151C80.6339 53.0465 90.7036 70.2796 92.258 75.2884C93.8165 80.3121 93.9473 84.3123 93.9521 84.4806C93.9631 84.8635 93.6613 85.1826 93.2787 85.1936C93.2715 85.1943 93.2643 85.1943 93.2574 85.1943Z" fill="#EF4E23"/>
<path d="M96.6889 84.0093C96.6568 83.0797 96.3039 81.1234 95.3104 76.6023C93.8668 69.9329 88.1598 56.626 86.7485 53.4196C86.5567 53.0347 86.4605 52.7784 86.4284 52.7142C86.268 52.3937 85.8827 52.2333 85.5305 52.3613C85.1776 52.5217 85.0175 52.9388 85.1776 53.2913V53.3234C85.4663 53.9647 92.4242 69.7404 93.9634 76.8911C94.9572 81.6688 95.2459 83.368 95.3104 83.9452C95.3418 84.0735 95.3743 84.1694 95.3743 84.2018C95.3418 84.3298 95.3743 84.4581 95.4056 84.5544C95.534 84.8431 95.791 85.0031 96.048 85.0031C96.1432 85.0031 96.2401 84.9714 96.336 84.939C96.5927 84.811 96.7851 84.7468 96.6889 84.0093Z" fill="#EF4E23"/>
<path d="M98.2487 85.0797H98.2318C97.8489 85.0701 97.546 84.7517 97.5546 84.3684C97.5574 84.2567 97.8213 73.0938 97.2152 67.4233C96.8871 64.3587 92.5441 53.5494 92.4999 53.441C92.3568 53.085 92.5289 52.6804 92.8842 52.5376C93.2399 52.3958 93.6438 52.5659 93.7877 52.9219C93.9695 53.3738 98.2466 64.021 98.595 67.2757C99.2111 73.0368 98.9538 83.941 98.9431 84.4026C98.9331 84.78 98.6243 85.0797 98.2487 85.0797Z" fill="#EF4E23"/>
<path d="M98.9639 62.814C98.6175 62.814 98.3236 62.5577 98.276 62.2134C98.0663 60.6749 95.943 55.7996 95.1424 54.051C94.9834 53.7025 95.1362 53.2907 95.4849 53.1313C95.834 52.9705 96.2452 53.1258 96.4046 53.4735C96.4798 53.638 97.6144 56.1224 98.5258 58.4678C98.5982 56.8544 98.6075 55.2066 98.423 54.4142C98.3357 54.0406 98.5682 53.668 98.9418 53.5811C99.3123 53.4911 99.6879 53.7263 99.7745 54.0996C100.245 56.1197 99.679 61.9409 99.6545 62.1879C99.6196 62.538 99.3285 62.8071 98.9766 62.814H98.9639Z" fill="#EF4E23"/>
<path d="M100.749 85.0594H100.733C100.351 85.0504 100.047 84.7334 100.055 84.3498C100.086 82.969 100.408 80.3773 100.749 77.6331C101.22 73.8461 101.806 69.1336 101.557 67.719C101.106 65.1694 100.67 55.1614 100.652 54.7364C100.636 54.3531 100.933 54.0292 101.316 54.013C101.711 53.9989 102.022 54.2935 102.039 54.6767C102.044 54.7795 102.49 65.0176 102.923 67.4778C103.209 69.0978 102.659 73.5236 102.127 77.8046C101.79 80.5121 101.472 83.07 101.443 84.3809C101.434 84.7583 101.125 85.0594 100.749 85.0594Z" fill="#EF4E23"/>
<path d="M104.029 65.9073C104.004 65.9073 103.979 65.9059 103.954 65.9031C103.602 65.8652 103.334 65.5678 103.334 65.2132C103.334 63.9023 102.966 55.4181 102.962 55.3318C102.945 54.9489 103.242 54.6257 103.625 54.6088C104.039 54.5808 104.333 54.8892 104.349 55.2721C104.357 55.4567 104.46 57.8255 104.556 60.2254C105.236 57.8838 106.046 55.7765 106.834 55.3598C107.174 55.18 107.592 55.3101 107.772 55.6485C107.951 55.9872 107.822 56.4074 107.483 56.5864C106.847 57.0746 105.541 61.5239 104.707 65.3612C104.636 65.6823 104.352 65.9073 104.029 65.9073Z" fill="#EF4E23"/>
<path d="M103.507 85.3575C103.461 85.3575 103.415 85.3526 103.368 85.3433C102.993 85.2674 102.75 84.9007 102.826 84.5251C105.559 71.0844 109.881 57.0266 109.924 56.8862C110.035 56.5195 110.422 56.3105 110.791 56.4277C111.157 56.5402 111.363 56.9286 111.249 57.2953C111.207 57.435 106.906 71.4294 104.186 84.8017C104.12 85.1305 103.83 85.3575 103.507 85.3575Z" fill="#EF4E23"/>
<path d="M105.743 85.5814C105.708 85.5814 105.673 85.5786 105.638 85.5734C105.259 85.5158 104.998 85.1619 105.056 84.7831C106.244 76.9846 112.783 58.1105 113.061 57.3105C113.186 56.9486 113.581 56.7548 113.943 56.8831C114.306 57.0083 114.497 57.404 114.371 57.7662C114.304 57.9608 107.597 77.3192 106.428 84.9918C106.376 85.3354 106.081 85.5814 105.743 85.5814Z" fill="#EF4E23"/>
<path d="M107.681 85.432C107.626 85.432 107.57 85.4258 107.515 85.4123C107.142 85.3209 106.915 84.9452 107.006 84.5727C109.675 73.674 117.262 57.8424 117.338 57.6837C117.505 57.3395 117.921 57.1935 118.264 57.3591C118.61 57.5251 118.755 57.94 118.589 58.2857C118.513 58.443 110.988 74.1456 108.355 84.9031C108.277 85.2198 107.993 85.432 107.681 85.432Z" fill="#EF4E23"/>
<path d="M110.513 85.2829C110.468 85.2829 110.424 85.2788 110.379 85.2698C110.003 85.1973 109.758 84.8327 109.831 84.4567C109.89 84.1525 111.314 76.9504 114.716 72.1875C118.02 67.5609 124.784 56.9631 124.853 56.8568C125.059 56.5343 125.487 56.4394 125.812 56.6454C126.134 56.8513 126.229 57.2804 126.023 57.6036C125.955 57.7102 119.171 68.3385 115.845 72.994C112.618 77.5141 111.207 84.6492 111.193 84.721C111.129 85.0525 110.838 85.2829 110.513 85.2829Z" fill="#EF4E23"/>
<path d="M112.935 85.8121C112.832 85.8121 112.727 85.7893 112.629 85.7403C112.285 85.5717 112.144 85.156 112.312 84.8117C112.329 84.7765 112.76 83.8886 114.939 78.7294C117.173 73.4446 127.307 57.6113 127.737 56.9396C127.943 56.6168 128.372 56.5219 128.696 56.7299C129.019 56.9365 129.113 57.366 128.906 57.6892C128.801 57.8524 118.406 74.0935 116.218 79.2703C114 84.5188 113.574 85.3906 113.557 85.4251C113.436 85.6696 113.19 85.8121 112.935 85.8121Z" fill="#EF4E23"/>
<path d="M127.949 61.9581C127.785 61.9581 127.622 61.9005 127.491 61.7853C127.234 61.5597 127.18 61.1805 127.363 60.8918L130.344 56.1969C130.55 55.8737 130.979 55.7761 131.302 55.9834C131.625 56.1886 131.722 56.6171 131.515 56.9413L130.689 58.2425C132.294 57.0583 134.142 55.8112 135.318 55.3938C135.678 55.2662 136.076 55.4542 136.204 55.8161C136.332 56.1772 136.143 56.5739 135.782 56.7019C133.983 57.3405 129.838 60.5972 128.392 61.798C128.264 61.9046 128.106 61.9581 127.949 61.9581Z" fill="#EF4E23"/>
<path d="M116.886 86.3661C116.793 86.3661 116.699 86.3478 116.609 86.3085C116.258 86.1553 116.097 85.7465 116.25 85.395C116.546 84.7158 123.58 68.6762 131.336 60.9943C133.615 58.7372 136.044 56.9051 138.554 55.548C138.892 55.3666 139.312 55.4918 139.494 55.8288C139.677 56.1662 139.551 56.5871 139.214 56.7695C136.82 58.0635 134.499 59.8169 132.313 61.9808C124.745 69.4758 117.594 85.7852 117.523 85.9494C117.409 86.2101 117.154 86.3661 116.886 86.3661Z" fill="#EF4E23"/>
<path d="M24.9275 216.98C25.8254 215.954 26.9158 215.409 28.1659 215.409C29.4171 215.409 30.6027 215.537 31.7256 215.762L32.3986 213.678L31.7577 213.485C30.4744 213.165 29.2888 213.004 28.1659 213.004C26.9475 213.004 25.8254 213.261 24.8319 213.838C23.8377 214.384 23.004 215.089 22.3627 215.954C21.6893 216.82 21.1439 217.846 20.6951 218.968C19.8614 221.084 19.4443 223.329 19.4443 225.734C19.4443 229.037 21.1115 230.672 24.4466 230.672C25.7288 230.672 27.1083 230.48 28.6472 230.063L28.84 227.85L28.2622 227.947C27.012 228.139 25.8254 228.235 24.7991 228.235C23.1323 228.235 22.3309 227.337 22.3309 225.542C22.3309 223.906 22.5224 222.303 22.9398 220.796C23.3882 219.289 24.0302 218.006 24.9275 216.98Z" fill="#EF4E23"/>
<path d="M46.892 224.356H42.3068L46.4111 215.698H47.0203L46.892 224.356ZM44.776 213.261L36.6953 230.384H39.5168L41.2164 226.824H46.8275V230.384H49.5858L49.7459 213.261H44.776Z" fill="#EF4E23"/>
<path d="M72.5757 213.26L69.3693 227.465H68.985L67.3488 213.26H62.764L58.7876 230.383H61.4493L64.7844 216.018H65.1687L66.9642 230.383H71.3255L75.3005 213.26H72.5757Z" fill="#EF4E23"/>
<path d="M90.7245 224.356H86.1393L90.2119 215.698H90.8528L90.7245 224.356ZM88.6085 213.261L80.5278 230.384H83.3172L85.0489 226.824H90.66V230.384H93.4183L93.5787 213.261H88.6085Z" fill="#EF4E23"/>
<path d="M114.068 221.405C113.843 222.463 113.523 223.489 113.138 224.483C112.721 225.477 112.144 226.311 111.407 226.985C110.669 227.625 109.868 227.979 108.969 227.979H105.987L108.777 215.697H111.471C112.465 215.697 113.202 215.922 113.683 216.339C114.164 216.756 114.389 217.461 114.389 218.423C114.389 219.353 114.292 220.379 114.068 221.405ZM112.016 213.261H106.597L102.62 230.383H108.681C110.092 230.383 111.374 230.031 112.529 229.293C113.651 228.588 114.549 227.625 115.223 226.44C116.569 224.035 117.274 221.373 117.274 218.423C117.274 214.992 115.511 213.261 112.016 213.261Z" fill="#EF4E23"/>
<path d="M133.21 224.356H128.625L132.729 215.698H133.338L133.21 224.356ZM131.094 213.261L123.046 230.384H125.836L127.567 226.824H133.146V230.384H135.936L136.064 213.261H131.094Z" fill="#EF4E23"/>
<path d="M158.285 217.078C158.285 215.891 157.901 215.026 157.13 214.48C156.361 213.903 155.174 213.615 153.539 213.615C151.872 213.615 150.3 213.935 148.762 214.513L148.505 216.404L149.147 216.308C150.429 216.084 151.711 215.988 152.93 215.988C154.598 215.988 155.432 216.629 155.432 217.847C155.432 218.649 155.079 219.386 154.341 219.995C153.603 220.605 152.866 220.925 152.128 220.957L148.89 221.085L148.376 223.17L151.552 223.202C152.449 223.202 153.091 223.363 153.475 223.651C153.859 223.94 154.052 224.388 154.052 224.997C154.052 226.024 153.668 226.793 152.93 227.402C152.161 227.98 151.231 228.268 150.076 228.268C148.922 228.268 147.447 228.14 145.555 227.851L144.978 229.776L145.684 230C146.132 230.16 146.773 230.32 147.607 230.449C148.441 230.609 149.21 230.673 149.949 230.673C152 230.673 153.668 230.128 154.95 229.07C156.233 228.012 156.874 226.633 156.874 224.869C156.874 223.971 156.714 223.33 156.457 222.849C156.201 222.4 155.752 222.015 155.111 221.663C156.201 221.182 157.002 220.572 157.515 219.867C158.028 219.162 158.285 218.232 158.285 217.078Z" fill="#EF4E23"/>
<path d="M176.497 219.643C175.985 220.157 175.376 220.573 174.701 220.83H172.394C171.88 220.573 171.528 220.317 171.367 220.028C171.175 219.772 171.079 219.387 171.079 218.938C171.079 218.168 171.4 217.495 172.073 216.886C172.746 216.309 173.644 215.988 174.766 215.988C176.465 215.988 177.331 216.661 177.331 217.944C177.331 218.554 177.043 219.098 176.497 219.643ZM174.638 227.307C173.933 227.98 173.003 228.301 171.912 228.301C170.854 228.301 170.084 228.141 169.668 227.82C169.218 227.499 168.995 226.954 168.995 226.217C168.995 225.479 169.283 224.87 169.796 224.325C170.341 223.812 171.014 223.427 171.816 223.171H174.125C174.735 223.363 175.151 223.619 175.376 223.908C175.632 224.165 175.76 224.581 175.76 225.127C175.76 225.896 175.376 226.634 174.638 227.307ZM177.011 221.856C179.191 220.734 180.313 219.098 180.313 216.918C180.313 215.956 179.865 215.155 179.031 214.514C178.197 213.904 176.979 213.615 175.376 213.615C173.131 213.615 171.367 214.16 170.117 215.283C168.866 216.405 168.225 217.72 168.225 219.227C168.225 219.739 168.321 220.221 168.481 220.573C168.642 220.958 169.027 221.375 169.604 221.856C168.609 222.369 167.776 223.074 167.071 223.908C166.333 224.742 165.981 225.672 165.981 226.762C165.981 229.391 167.679 230.706 171.079 230.706C173.387 230.706 175.247 230.129 176.626 228.975C177.972 227.788 178.678 226.474 178.678 225.03C178.678 223.556 178.1 222.497 177.011 221.856Z" fill="#EF4E23"/>
<path d="M20.8237 94.3343H18.4831V93.1801C18.4831 92.8272 18.5787 92.603 18.7391 92.4105C18.9319 92.2501 19.2207 92.1859 19.6049 92.1859C20.4066 92.1859 20.8237 92.5067 20.8237 93.1801V94.3343ZM21.5926 94.3343V93.1801C21.5926 92.5388 21.4329 92.0579 21.0796 91.7371C20.7595 91.3846 20.2459 91.2242 19.6049 91.2242C18.3227 91.2242 17.6818 91.8975 17.6818 93.1801V95.2643H23.3885V94.3343H21.5926Z" fill="#EF4E23"/>
<path d="M22.1703 88.5304C21.8495 88.7229 21.3045 88.7871 20.5673 88.7871C19.7977 88.7871 19.252 88.6908 18.8998 88.4983C18.5789 88.3062 18.3861 87.9533 18.3861 87.4403C18.3861 86.9274 18.5789 86.5424 18.8998 86.382C19.252 86.1899 19.7977 86.0936 20.5673 86.0936C21.3366 86.0936 21.8495 86.1578 22.1703 86.3499C22.4915 86.5424 22.6512 86.8953 22.6512 87.4403C22.6512 87.9854 22.4915 88.3379 22.1703 88.5304ZM22.7795 85.6448C22.2987 85.2919 21.5611 85.1315 20.5673 85.1315C19.541 85.1315 18.8035 85.2919 18.323 85.6448C17.8414 85.9974 17.5844 86.5745 17.5844 87.4403C17.5844 88.3062 17.8414 88.8833 18.323 89.2358C18.8035 89.5884 19.541 89.7488 20.5673 89.7488C21.5611 89.7488 22.2987 89.5884 22.7795 89.2358C23.2287 88.9154 23.485 88.3062 23.485 87.4403C23.485 86.5745 23.2287 85.9653 22.7795 85.6448Z" fill="#EF4E23"/>
<path d="M23.0362 80.1938C22.7474 79.8733 22.2987 79.6808 21.6898 79.6808C21.2082 79.6808 20.8553 79.8091 20.6635 80.0337C20.439 80.29 20.2461 80.675 20.0864 81.2521C19.926 81.8292 19.7977 82.1818 19.6694 82.3422C19.5731 82.5026 19.3803 82.5988 19.1243 82.5988C18.6431 82.5988 18.3865 82.2459 18.3865 81.5405C18.3865 81.22 18.4506 80.675 18.5148 79.905L17.7773 79.8091L17.7131 80.0979C17.6175 80.675 17.5844 81.1879 17.5844 81.6367C17.5844 82.2138 17.7131 82.6947 17.9697 83.0155C18.2267 83.3681 18.6431 83.5285 19.1568 83.5285C19.6694 83.5285 20.0226 83.4002 20.2786 83.1114C20.5031 82.8551 20.6956 82.4384 20.8239 81.8934C20.9837 81.348 21.112 81.0275 21.2082 80.8671C21.3366 80.7067 21.4973 80.6105 21.7533 80.6105C22.3632 80.6105 22.6512 80.9634 22.6512 81.6688C22.6512 82.0538 22.6191 82.6305 22.5229 83.3681L23.2601 83.4643L23.2932 83.1759C23.4205 82.5988 23.485 82.0855 23.485 81.6046C23.485 80.9954 23.3246 80.5463 23.0362 80.1938Z" fill="#EF4E23"/>
<path d="M18.5145 75.8652V74.2301H17.6818V78.3982H18.5145V76.7952H23.3885V75.8652H18.5145Z" fill="#EF4E23"/>
<path d="M21.3363 72.0492L18.4504 71.3438V70.9268L21.3363 70.2534V72.0492ZM23.3881 69.7404V68.8108L17.6814 70.2216V72.0813L23.3881 73.4919V72.5622L22.1701 72.2417V70.0612L23.3881 69.7404Z" fill="#EF4E23"/>
<path d="M23.4205 64.2255C23.3563 63.7764 23.3246 63.4559 23.2932 63.2955H20.3745V64.9306H21.2082V64.2255H22.587C22.6512 64.418 22.6512 64.7385 22.6512 65.1231C22.6512 65.7002 22.5225 66.0852 22.2028 66.2774C21.8816 66.4381 21.3366 66.534 20.5352 66.534C19.7014 66.534 19.1568 66.4381 18.8677 66.2456C18.5465 66.0531 18.4192 65.6685 18.4192 65.1552C18.4192 64.6102 18.4506 64.001 18.5465 63.3276L17.809 63.2955L17.7452 63.6163C17.6489 64.2255 17.5844 64.7706 17.5844 65.2515C17.5844 66.0852 17.809 66.6623 18.2909 66.9832C18.7394 67.3357 19.5086 67.4958 20.5031 67.4958C21.5294 67.4958 22.2666 67.3357 22.7474 67.0149C23.2287 66.6944 23.485 66.0852 23.485 65.2194C23.485 65.0272 23.4529 64.6743 23.4205 64.2255Z" fill="#EF4E23"/>
<path d="M22.5544 57.7165V60.4099H20.8879V58.2294H20.0862V60.4099H18.4828V57.7165H17.6814V61.3078H23.3881V57.7165H22.5544Z" fill="#EF4E23"/>
<path d="M20.8237 52.2975H18.4831V51.1433C18.4831 50.7904 18.5787 50.5341 18.7391 50.3737C18.9319 50.2133 19.2207 50.1491 19.6049 50.1491C20.4066 50.1491 20.8237 50.4699 20.8237 51.1433V52.2975ZM21.5926 52.2975V51.1112C21.5926 50.4699 21.4329 49.9891 21.0796 49.6682C20.7595 49.3478 20.2459 49.1874 19.6049 49.1874C18.3227 49.1874 17.6818 49.8287 17.6818 51.1112V53.2275H23.3885V52.2975H21.5926Z" fill="#EF4E23"/>
<path d="M22.1703 46.4615C21.8495 46.6539 21.3045 46.7502 20.5673 46.7502C19.7977 46.7502 19.252 46.6539 18.8998 46.4615C18.5789 46.269 18.3861 45.9164 18.3861 45.4035C18.3861 44.8584 18.5789 44.5055 18.8998 44.313C19.252 44.1209 19.7977 44.0247 20.5673 44.0247C21.3366 44.0247 21.8495 44.1209 22.1703 44.313C22.4915 44.5055 22.6512 44.8584 22.6512 45.4035C22.6512 45.9164 22.4915 46.269 22.1703 46.4615ZM22.7795 43.5759C22.2987 43.2551 21.5611 43.0626 20.5673 43.0626C19.541 43.0626 18.8035 43.2551 18.323 43.5759C17.8414 43.9284 17.5844 44.5376 17.5844 45.4035C17.5844 46.2372 17.8414 46.8464 18.323 47.1993C18.8035 47.5519 19.541 47.7119 20.5673 47.7119C21.5611 47.7119 22.2987 47.5519 22.7795 47.1993C23.2287 46.8464 23.485 46.2372 23.485 45.4035C23.485 44.5376 23.2287 43.9284 22.7795 43.5759Z" fill="#EF4E23"/>
<path d="M23.0362 38.157C22.7474 37.8044 22.2987 37.644 21.6898 37.644C21.2082 37.644 20.8553 37.7723 20.6635 37.9969C20.439 38.2211 20.2461 38.6378 20.0864 39.1832C19.926 39.7603 19.7977 40.145 19.6694 40.3054C19.5731 40.4654 19.3803 40.562 19.1243 40.562C18.6431 40.562 18.3865 40.2091 18.3865 39.5037C18.3865 39.1832 18.4506 38.6061 18.5148 37.8362L17.7773 37.7723L17.7131 38.0607C17.6175 38.6378 17.5844 39.1511 17.5844 39.5679C17.5844 40.1771 17.7131 40.6259 17.9697 40.9787C18.2267 41.2992 18.6431 41.4596 19.1568 41.4596C19.6694 41.4596 20.0226 41.3313 20.2786 41.0746C20.5031 40.8183 20.6956 40.4016 20.8239 39.8562C20.9837 39.3112 21.112 38.9587 21.2082 38.7983C21.3366 38.6378 21.4973 38.5737 21.7533 38.5737C22.3632 38.5737 22.6512 38.9266 22.6512 39.5999C22.6512 40.017 22.6191 40.562 22.5229 41.3313L23.2601 41.4275L23.2932 41.1071C23.4205 40.5296 23.485 40.017 23.485 39.5358C23.485 38.9587 23.3246 38.5095 23.0362 38.157Z" fill="#EF4E23"/>
<path d="M18.5145 33.7962V32.1932H17.6818V36.3614H18.5145V34.7259H23.3885V33.7962H18.5145Z" fill="#EF4E23"/>
<path d="M22.5544 26.9981V29.6595H20.8879V27.5114H20.0862V29.6595H18.4828V26.9981H17.6814V30.5895H23.3881V26.9981H22.5544Z" fill="#EF4E23"/>
<path d="M23.0362 22.1567C22.7474 21.8038 22.2987 21.6437 21.6898 21.6437C21.2082 21.6437 20.8553 21.74 20.6635 21.9963C20.439 22.2208 20.2461 22.6055 20.0864 23.1829C19.926 23.7597 19.7977 24.1126 19.6694 24.3051C19.5731 24.4651 19.3803 24.5293 19.1243 24.5293C18.6431 24.5293 18.3865 24.1768 18.3865 23.4713C18.3865 23.1505 18.4506 22.6055 18.5148 21.8359L17.7773 21.772L17.7131 22.0604C17.6175 22.6375 17.5844 23.1505 17.5844 23.5676C17.5844 24.1768 17.7131 24.6256 17.9697 24.9784C18.2267 25.2989 18.6431 25.4593 19.1568 25.4593C19.6694 25.4593 20.0226 25.331 20.2786 25.0743C20.5031 24.786 20.6956 24.401 20.8239 23.8559C20.9837 23.3109 21.112 22.9584 21.2082 22.7976C21.3366 22.6375 21.4973 22.5734 21.7533 22.5734C22.3632 22.5734 22.6512 22.9263 22.6512 23.5996C22.6512 23.9843 22.6191 24.5614 22.5229 25.331L23.2601 25.3952L23.2932 25.1064C23.4205 24.5293 23.485 24.0164 23.485 23.5355C23.485 22.9584 23.3246 22.4771 23.0362 22.1567Z" fill="#EF4E23"/>
<path d="M178.774 21.0986C178.261 20.7461 177.395 20.5536 176.145 20.5536C174.926 20.5536 174.028 20.7461 173.516 21.0986C172.971 21.4191 172.682 22.0925 172.682 23.0545C172.682 23.6637 172.778 24.305 172.907 24.9463L173.805 24.9142C173.708 24.3371 173.644 23.7279 173.644 23.1508C173.644 22.5737 173.837 22.1887 174.189 21.9962C174.51 21.772 175.183 21.6757 176.145 21.6757C177.075 21.6757 177.748 21.772 178.069 21.9962C178.422 22.1887 178.614 22.6054 178.614 23.1829C178.614 23.76 178.55 24.3371 178.454 24.9142L179.319 24.9784C179.48 24.2729 179.575 23.6317 179.575 23.0545C179.575 22.0925 179.319 21.4512 178.774 21.0986Z" fill="#EF4E23"/>
<path d="M173.772 29.307L173.708 29.1469C173.612 28.7619 173.548 28.4411 173.548 28.1206C173.548 27.7039 173.772 27.5114 174.221 27.5114C174.67 27.5114 174.926 27.7357 174.958 28.1848L175.055 29.307H173.772ZM177.524 26.7418L176.754 26.7739L176.786 27.0944C176.851 27.7039 176.851 28.2165 176.851 28.6336C176.851 28.8582 176.818 29.0182 176.722 29.1469C176.594 29.2428 176.433 29.307 176.177 29.307H175.824L175.696 28.0565C175.664 27.5114 175.536 27.0944 175.311 26.8381C175.087 26.5818 174.735 26.4531 174.253 26.4531C173.195 26.4531 172.682 26.9343 172.682 27.8961C172.682 28.4411 172.81 28.9544 173.067 29.4674C172.81 29.7561 172.682 30.2049 172.682 30.7499L173.516 30.782C173.516 30.6537 173.58 30.5254 173.644 30.4612C173.708 30.3974 173.805 30.3653 173.964 30.3653H176.177C176.722 30.3653 177.139 30.2366 177.395 29.9803C177.652 29.6916 177.781 29.2749 177.781 28.6978C177.781 28.0886 177.684 27.4473 177.524 26.7418Z" fill="#EF4E23"/>
<path d="M177.363 33.5075H177.652V32.4812H172.81V33.5396H176.562L176.626 33.6679C176.754 33.9887 176.818 34.3092 176.818 34.6296C176.818 34.9825 176.722 35.2071 176.497 35.3351C176.273 35.4313 175.888 35.4955 175.375 35.4955H172.81V36.5538H175.408C176.241 36.5538 176.851 36.4252 177.203 36.2009C177.588 35.9443 177.781 35.4955 177.781 34.8542C177.781 34.4372 177.62 33.9887 177.363 33.5075Z" fill="#EF4E23"/>
<path d="M177.652 38.7661V38.1569H176.754V38.7661H174.51C173.805 38.7661 173.323 38.8624 173.067 39.0866C172.81 39.2791 172.682 39.664 172.682 40.2091C172.682 40.4333 172.746 40.7541 172.81 41.2029L173.676 41.1712L173.644 40.3695C173.644 40.1128 173.708 39.9845 173.836 39.9203C173.964 39.8562 174.221 39.8241 174.606 39.8241H176.754V41.1712H177.652V39.8241H179.063V38.7661H177.652Z" fill="#EF4E23"/>
<path d="M179.672 42.8066H172.81V43.8646H176.626L176.658 44.025C176.786 44.3455 176.818 44.6339 176.818 44.955C176.818 45.3076 176.722 45.5318 176.497 45.6601C176.273 45.7564 175.888 45.8205 175.376 45.8205H172.81V46.8785H175.408C176.241 46.8785 176.85 46.7506 177.203 46.526C177.588 46.3014 177.781 45.8526 177.781 45.2113C177.781 44.7946 177.652 44.3455 177.395 43.8646H179.672V42.8066Z" fill="#EF4E23"/>
<path d="M173.772 51.4317L173.708 51.2712C173.612 50.8863 173.548 50.5658 173.548 50.245C173.548 49.8286 173.772 49.6358 174.221 49.6358C174.67 49.6358 174.926 49.8604 174.958 50.3092L175.055 51.4317H173.772ZM177.524 48.8662L176.754 48.8983L176.786 49.2191C176.851 49.8286 176.851 50.3412 176.851 50.7583C176.851 50.9829 176.818 51.1429 176.722 51.2712C176.594 51.3675 176.433 51.4317 176.177 51.4317H175.824L175.696 50.1812C175.664 49.6358 175.536 49.2191 175.311 48.9624C175.087 48.7061 174.735 48.5778 174.253 48.5778C173.195 48.5778 172.682 49.0587 172.682 50.0208C172.682 50.5658 172.81 51.0788 173.067 51.5917C172.81 51.8804 172.682 52.3296 172.682 52.8743L173.516 52.9064C173.516 52.7784 173.58 52.6501 173.644 52.5859C173.708 52.5217 173.805 52.4896 173.964 52.4896H176.177C176.722 52.4896 177.139 52.3613 177.395 52.105C177.652 51.8163 177.781 51.3996 177.781 50.8225C177.781 50.2133 177.684 49.5716 177.524 48.8662Z" fill="#EF4E23"/>
<path d="M177.075 55.6323H177.652V54.606H172.81V55.664H176.209L176.273 55.8565C176.465 56.2732 176.594 56.7223 176.722 57.2995H177.781C177.652 56.7544 177.427 56.1773 177.075 55.6323Z" fill="#EF4E23"/>
<path d="M176.594 61.5C176.401 61.6283 176.081 61.7246 175.6 61.7246V59.6724C176.048 59.6724 176.401 59.7683 176.594 59.9287C176.786 60.0891 176.882 60.3458 176.882 60.6983C176.882 61.0833 176.786 61.3396 176.594 61.5ZM175.183 58.6144C174.317 58.6144 173.676 58.7745 173.291 59.0632C172.907 59.3837 172.682 59.897 172.682 60.6345C172.682 61.2116 172.778 61.8529 172.907 62.5904L173.708 62.558L173.676 62.3017C173.644 61.8208 173.611 61.3396 173.611 60.8908C173.611 60.4099 173.708 60.1212 173.9 59.9287C174.092 59.7683 174.381 59.6724 174.798 59.6724V62.6863L175.536 62.7505C177.011 62.7505 177.78 62.0771 177.78 60.6983C177.78 59.3195 176.915 58.6144 175.183 58.6144Z" fill="#EF4E23"/>
<path d="M179.672 64.6105H172.81V65.6685H179.672V64.6105Z" fill="#EF4E23"/>
<path d="M179.672 67.8483H172.81V68.9063H179.672V67.8483Z" fill="#EF4E23"/>
<path d="M175.119 72.0495H177.652V70.9591H175.119C174.221 70.9591 173.58 71.0874 173.227 71.312C172.874 71.5362 172.682 71.9854 172.682 72.6587C172.682 73.0433 172.842 73.4921 173.098 73.9734H172.81V75.0317H177.652V73.9734H173.9L173.836 73.813C173.708 73.5242 173.644 73.2038 173.644 72.8512C173.644 72.4983 173.74 72.2741 173.933 72.1778C174.125 72.0816 174.542 72.0495 175.119 72.0495Z" fill="#EF4E23"/>
<path d="M177.395 77.3399C177.139 76.9874 176.754 76.827 176.273 76.827C175.76 76.827 175.44 76.9553 175.247 77.1799C175.055 77.4362 174.926 77.8211 174.83 78.3662C174.735 78.8791 174.67 79.232 174.574 79.36C174.51 79.4887 174.382 79.5525 174.189 79.5525C173.997 79.5525 173.837 79.4887 173.772 79.36C173.676 79.1999 173.644 78.9433 173.644 78.6228C173.644 78.2699 173.676 77.7249 173.805 76.9232L172.907 76.8911L172.875 77.1799C172.746 77.789 172.682 78.302 172.682 78.687C172.682 79.3279 172.81 79.8091 173.067 80.1296C173.291 80.4504 173.676 80.6105 174.189 80.6105C174.701 80.6105 175.055 80.5142 175.247 80.29C175.44 80.0337 175.6 79.6487 175.696 79.1358C175.792 78.5904 175.856 78.2378 175.953 78.0778C176.017 77.9491 176.145 77.8853 176.305 77.8853C176.497 77.8853 176.626 77.9491 176.69 78.0778C176.786 78.2058 176.818 78.4303 176.818 78.7829C176.818 79.1358 176.754 79.6808 176.658 80.4504L177.556 80.4825L177.588 80.1617C177.716 79.5525 177.748 79.0716 177.748 78.6549C177.748 78.1095 177.62 77.6607 177.395 77.3399Z" fill="#EF4E23"/>
<path d="M177.203 85.5806C176.818 85.2598 176.145 85.0998 175.247 85.0998C174.349 85.0998 173.676 85.2598 173.291 85.5486C172.907 85.869 172.682 86.3823 172.682 87.1195C172.682 87.4403 172.746 87.9533 172.874 88.5946L173.708 88.5625L173.644 87.4403C173.644 86.9274 173.74 86.5745 173.997 86.4144C174.221 86.254 174.638 86.1898 175.247 86.1898C175.856 86.1898 176.273 86.254 176.497 86.4465C176.722 86.6066 176.818 86.9274 176.818 87.4403C176.818 87.6649 176.786 88.0495 176.754 88.5625L177.588 88.5946L177.62 88.37C177.716 87.8891 177.781 87.4724 177.781 87.1516C177.781 86.4144 177.588 85.9015 177.203 85.5806Z" fill="#EF4E23"/>
<path d="M172.81 91.4502H177.652V90.3911H172.81V91.4502ZM178.486 91.4502H179.608V90.3911H178.486V91.4502Z" fill="#EF4E23"/>
<path d="M177.363 94.5586H177.652V93.5323H172.81V94.5907H176.562L176.626 94.719C176.754 95.0398 176.818 95.3282 176.818 95.6807C176.818 96.0336 176.722 96.2582 176.497 96.3541C176.273 96.4824 175.888 96.5466 175.375 96.5466H172.81V97.5725H175.408C176.241 97.5725 176.851 97.4766 177.203 97.22C177.588 96.9954 177.781 96.5466 177.781 95.9053C177.781 95.4886 177.62 95.0398 177.363 94.5586Z" fill="#EF4E23"/>
<path d="M177.363 100.651H177.652V99.5929H172.81V100.651H176.562L176.626 100.811C176.754 101.1 176.818 101.42 176.818 101.742C176.818 102.094 176.722 102.35 176.497 102.447C176.273 102.575 175.888 102.607 175.375 102.607H172.81V103.665H175.408C176.241 103.665 176.851 103.537 177.203 103.313C177.588 103.088 177.781 102.639 177.781 101.998C177.781 101.581 177.62 101.132 177.363 100.651Z" fill="#EF4E23"/>
<path d="M173.772 108.218L173.708 108.058C173.612 107.705 173.548 107.353 173.548 107.032C173.548 106.615 173.772 106.422 174.221 106.422C174.67 106.422 174.926 106.647 174.958 107.096L175.055 108.218H173.772ZM177.524 105.653L176.754 105.685L176.786 106.006C176.851 106.615 176.851 107.128 176.851 107.545C176.851 107.769 176.818 107.93 176.722 108.058C176.594 108.186 176.433 108.218 176.177 108.218H175.824L175.696 106.968C175.664 106.422 175.536 106.038 175.311 105.749C175.087 105.493 174.735 105.364 174.253 105.364C173.195 105.364 172.682 105.846 172.682 106.807C172.682 107.353 172.81 107.866 173.067 108.378C172.81 108.7 172.682 109.116 172.682 109.661L173.516 109.693C173.516 109.565 173.58 109.469 173.644 109.405C173.708 109.309 173.805 109.276 173.964 109.276H176.177C176.722 109.276 177.139 109.148 177.395 108.892C177.652 108.635 177.781 108.186 177.781 107.609C177.781 107 177.684 106.358 177.524 105.653Z" fill="#EF4E23"/>
<path d="M176.465 114.246C176.241 114.375 175.824 114.471 175.247 114.471C174.67 114.471 174.253 114.375 173.997 114.182C173.772 114.022 173.644 113.669 173.644 113.156C173.644 113.028 173.644 112.803 173.676 112.419H176.626L176.69 112.579C176.786 112.9 176.818 113.221 176.818 113.509C176.818 113.862 176.69 114.086 176.465 114.246ZM179.672 111.393H172.81L172.778 111.713C172.714 112.387 172.682 112.868 172.682 113.156C172.682 114.054 172.874 114.663 173.258 115.016C173.612 115.369 174.285 115.529 175.215 115.529C176.177 115.529 176.85 115.401 177.203 115.08C177.588 114.791 177.781 114.311 177.781 113.637C177.781 113.285 177.684 112.868 177.491 112.419H179.672V111.393Z" fill="#EF4E23"/>
<path d="M173.772 119.922L173.708 119.729C173.612 119.377 173.548 119.024 173.548 118.703C173.548 118.319 173.772 118.126 174.221 118.126C174.67 118.126 174.926 118.351 174.958 118.8L175.055 119.922H173.772ZM177.524 117.357L176.754 117.389L176.786 117.677C176.851 118.319 176.851 118.832 176.851 119.248C176.851 119.473 176.818 119.633 176.722 119.762C176.594 119.858 176.433 119.922 176.177 119.922H175.824L175.696 118.671C175.664 118.126 175.536 117.709 175.311 117.453C175.087 117.196 174.735 117.068 174.253 117.068C173.195 117.068 172.682 117.549 172.682 118.511C172.682 119.024 172.81 119.569 173.067 120.082C172.81 120.37 172.682 120.82 172.682 121.365L173.516 121.397C173.516 121.236 173.58 121.14 173.644 121.076C173.708 121.012 173.805 120.98 173.964 120.98H176.177C176.722 120.98 177.139 120.82 177.395 120.563C177.652 120.306 177.781 119.89 177.781 119.28C177.781 118.703 177.684 118.062 177.524 117.357Z" fill="#EF4E23"/>
<path d="M177.075 124.122H177.652V123.064H172.81V124.122H176.209L176.273 124.347C176.465 124.732 176.594 125.212 176.722 125.79H177.781C177.652 125.212 177.427 124.668 177.075 124.122Z" fill="#EF4E23"/>
<path d="M172.81 128.419H177.652V127.36H172.81V128.419ZM178.486 128.419H179.608V127.36H178.486V128.419Z" fill="#EF4E23"/>
<path d="M177.363 131.529H177.652V130.471H172.81V131.529H176.562L176.626 131.69C176.754 131.978 176.818 132.299 176.818 132.62C176.818 132.972 176.722 133.229 176.497 133.325C176.273 133.453 175.888 133.486 175.375 133.486H172.81V134.544H175.408C176.241 134.544 176.851 134.415 177.203 134.191C177.588 133.966 177.781 133.518 177.781 132.876C177.781 132.459 177.62 132.01 177.363 131.529Z" fill="#EF4E23"/>
<path d="M175.119 137.558H177.652V136.499H175.119C174.221 136.499 173.58 136.628 173.227 136.852C172.874 137.076 172.682 137.526 172.682 138.199C172.682 138.584 172.842 139.033 173.098 139.513H172.81V140.54H177.652V139.513H173.9L173.836 139.353C173.708 139.065 173.644 138.744 173.644 138.392C173.644 138.038 173.74 137.814 173.933 137.718C174.125 137.622 174.542 137.558 175.119 137.558Z" fill="#EF4E23"/>
<path d="M177.395 142.88C177.139 142.528 176.754 142.368 176.273 142.368C175.76 142.368 175.44 142.495 175.247 142.72C175.055 142.976 174.926 143.361 174.83 143.906C174.735 144.419 174.67 144.74 174.574 144.9C174.51 145.029 174.382 145.092 174.189 145.092C173.997 145.092 173.837 145.029 173.772 144.868C173.676 144.74 173.644 144.483 173.644 144.163C173.644 143.81 173.676 143.233 173.805 142.463L172.907 142.431L172.875 142.72C172.746 143.329 172.682 143.842 172.682 144.227C172.682 144.868 172.81 145.317 173.067 145.67C173.291 145.99 173.676 146.151 174.189 146.151C174.701 146.151 175.055 146.022 175.247 145.798C175.44 145.574 175.6 145.189 175.696 144.644C175.792 144.131 175.856 143.778 175.953 143.618C176.017 143.489 176.145 143.426 176.305 143.426C176.497 143.426 176.626 143.489 176.69 143.618C176.786 143.746 176.818 143.971 176.818 144.323C176.818 144.676 176.754 145.221 176.658 145.99H177.556L177.588 145.702C177.716 145.092 177.748 144.58 177.748 144.163C177.748 143.649 177.62 143.201 177.395 142.88Z" fill="#EF4E23"/>
<path d="M132.339 84.7068H125.924C125.54 84.7068 125.23 84.3964 125.23 84.0128C125.23 83.6292 125.54 83.3187 125.924 83.3187H132.339C132.723 83.3187 133.033 83.6292 133.033 84.0128C133.033 84.3964 132.723 84.7068 132.339 84.7068Z" fill="#EF4E23"/>
<path d="M90.8643 194.671C90.2855 194.671 89.7243 194.398 89.241 193.882C88.1681 192.699 87.5576 190.426 87.6783 188.083L87.6862 187.749V184.059C87.6862 183.675 87.9967 183.365 88.3803 183.365C88.7639 183.365 89.0743 183.675 89.0743 184.059L89.0654 188.121C88.9474 190.421 89.5811 192.192 90.2617 192.941C90.4042 193.094 90.6312 193.283 90.8643 193.283C91.2479 193.283 91.5584 193.593 91.5584 193.977C91.5584 194.361 91.2479 194.671 90.8643 194.671Z" fill="#EF4E23"/>
<path d="M91.4614 194.671C90.7739 194.671 90.7436 194.021 90.7163 193.447C90.6798 192.46 90.6377 190.468 90.7684 188.142L90.767 184.205C90.767 183.821 91.0778 183.51 91.4614 183.51C91.8447 183.51 92.1555 183.821 92.1555 184.205V188.181C92.0275 190.489 92.0679 192.432 92.1031 193.389C92.112 193.567 92.1193 193.701 92.1276 193.782C92.1458 193.844 92.1555 193.909 92.1555 193.977C92.1555 194.361 91.8447 194.671 91.4614 194.671Z" fill="#EF4E23"/>
<path d="M92.0673 194.671C91.6837 194.671 91.3732 194.361 91.3732 193.977C91.3732 193.594 91.6837 193.284 92.0673 193.284C92.1945 193.284 92.3653 193.17 92.5354 192.971C93.217 192.173 93.7203 190.343 93.85 188.196C93.8586 188.092 93.8573 187.942 93.8573 187.877V184.094C93.8573 183.711 94.1677 183.4 94.5513 183.4C94.9349 183.4 95.2454 183.711 95.2454 184.094V187.877C95.2454 187.979 95.2426 188.225 95.2319 188.317C95.087 190.749 94.4723 192.84 93.5909 193.873C93.0262 194.533 92.4508 194.671 92.0673 194.671Z" fill="#EF4E23"/>
<path d="M92.6733 194.674C92.2897 194.674 91.9792 194.363 91.9792 193.979C91.9792 193.596 92.2897 193.286 92.6733 193.286C93.2635 193.286 93.8548 193.127 94.3826 192.827C95.8228 192.013 96.8032 190.262 96.9398 188.255C96.9487 188.159 96.9473 188.021 96.9473 187.934V183.68C96.9473 183.297 97.2578 182.986 97.6414 182.986C98.025 182.986 98.3355 183.297 98.3355 183.68V187.934C98.3355 188.056 98.3341 188.251 98.3241 188.365C98.1561 190.816 96.9073 192.996 95.0663 194.036C94.3312 194.452 93.5029 194.674 92.6733 194.674Z" fill="#EF4E23"/>
</svg>
