<svg width="143" height="183" viewBox="0 0 143 183" fill="none" xmlns="http://www.w3.org/2000/svg">
<path d="M77.2734 182.891H66.3913C66.2134 182.891 66.0501 182.809 65.9392 182.676C65.828 182.542 65.7759 182.364 65.8059 182.187C65.8426 182.016 65.858 181.831 65.858 181.624C65.858 179.113 63.6871 177.068 61.0201 177.068C58.3605 177.068 56.1975 179.113 56.1975 181.624C56.1975 181.831 56.2125 182.016 56.2417 182.187C56.2788 182.364 56.2271 182.542 56.1163 182.676C56.005 182.809 55.8346 182.891 55.6642 182.891H55.6567L43.263 182.779C43.093 182.779 42.9225 182.698 42.8113 182.565C42.7 182.431 42.6555 182.253 42.685 182.083C42.715 181.913 42.7296 181.728 42.7296 181.52C42.7296 179.009 40.5663 176.964 37.8996 176.964C35.24 176.964 33.0771 179.009 33.0771 181.52C33.0771 181.728 33.0917 181.913 33.1213 182.083C33.1509 182.253 33.1067 182.431 32.9954 182.565C32.8846 182.698 32.7142 182.779 32.5363 182.779H20.8538C20.6758 182.779 20.5054 182.698 20.3942 182.565C20.2834 182.431 20.2388 182.253 20.2684 182.083C20.2984 181.913 20.3129 181.728 20.3129 181.52C20.3129 179.009 18.15 176.964 15.4904 176.964C12.8308 176.964 10.6675 179.009 10.6675 181.52C10.6675 181.728 10.6825 181.905 10.7121 182.083C10.7417 182.253 10.6975 182.431 10.5858 182.565C10.4675 182.698 10.3046 182.779 10.1271 182.779H0.592913C0.267079 182.779 0 182.513 0 182.187V172.512C0 172.186 0.267079 171.919 0.592913 171.919C3.25958 171.919 5.42292 169.875 5.42292 167.356C5.42292 164.844 3.25958 162.8 0.592913 162.8C0.267079 162.8 0 162.533 0 162.207V153.384C0 153.051 0.267079 152.792 0.592913 152.792C3.25958 152.792 5.42292 150.747 5.42292 148.236C5.42292 145.717 3.25958 143.665 0.592913 143.665C0.267079 143.665 0 143.406 0 143.08V134.249C0 133.923 0.267079 133.657 0.592913 133.657C3.25958 133.657 5.42292 131.612 5.42292 129.101C5.42292 126.582 3.25958 124.537 0.592913 124.537C0.267079 124.537 0 124.271 0 123.944V115.114C0 114.788 0.267079 114.521 0.592913 114.521C3.25958 114.521 5.42292 112.477 5.42292 109.966C5.42292 107.454 3.25958 105.41 0.592913 105.41C0.267079 105.41 0 105.143 0 104.817V95.9867C0 95.6605 0.267079 95.3938 0.592913 95.3938C3.25958 95.3938 5.42292 93.3497 5.42292 90.8305C5.42292 88.3192 3.25958 86.2747 0.592913 86.2747C0.267079 86.2747 0 86.0155 0 85.6817V76.8588C0 76.5259 0.267079 76.2663 0.592913 76.2663C3.25958 76.2663 5.42292 74.2217 5.42292 71.7105C5.42292 69.1917 3.25958 67.1396 0.592913 67.1396C0.267079 67.1396 0 66.8801 0 66.5542V57.7242C0 57.398 0.267079 57.1313 0.592913 57.1313C3.25958 57.1313 5.42292 55.0867 5.42292 52.575C5.42292 50.0567 3.25958 48.0121 0.592913 48.0121C0.267079 48.0121 0 47.745 0 47.4192V39.7742C0 39.4479 0.267079 39.1817 0.592913 39.1817C3.25958 39.1817 5.42292 37.1367 5.42292 34.6254C5.42292 32.1142 3.25958 30.0696 0.592913 30.0696C0.296246 30.0696 0.0520786 29.8471 0.0145785 29.5659C0.00749517 29.5292 0 29.4842 0 29.4471V20.6171C0 20.2913 0.267079 20.0242 0.592913 20.0242C3.25958 20.0242 5.42292 17.9796 5.42292 15.4688C5.42292 12.9571 3.25958 10.9125 0.592913 10.9125C0.267079 10.9125 0 10.6454 0 10.3196C0 10.2754 0.00749517 10.2308 0.0145785 10.1938C0.00749517 10.1496 0 10.1046 0 10.0604V0.704167C0 0.378334 0.267079 0.11125 0.592913 0.11125H11.2825C11.4604 0.11125 11.6229 0.192917 11.7342 0.32625C11.8529 0.459584 11.8975 0.637501 11.8675 0.807917C11.8308 0.978334 11.8158 1.16333 11.8158 1.37083C11.8158 3.88209 13.9863 5.92667 16.6533 5.92667C19.3129 5.92667 21.4758 3.88209 21.4758 1.37083C21.4758 1.16333 21.4613 0.978334 21.4313 0.807917C21.4017 0.637501 21.4467 0.459584 21.5575 0.32625C21.6688 0.192917 21.8388 0.11125 22.0092 0.11125H32.8917C33.0696 0.11125 33.2325 0.192917 33.3513 0.32625C33.4625 0.459584 33.5067 0.637501 33.4771 0.807917C33.4471 0.985834 33.4325 1.16333 33.4325 1.37083C33.4325 3.88209 35.5959 5.92667 38.2625 5.92667C40.9221 5.92667 43.085 3.88209 43.085 1.37083C43.085 1.16333 43.0705 0.978334 43.0409 0.807917C43.0113 0.637501 43.0559 0.459584 43.1671 0.32625C43.278 0.192917 43.448 0.11125 43.6259 0.11125H54.5013C54.6788 0.11125 54.8496 0.192917 54.9605 0.32625C55.0717 0.459584 55.1159 0.637501 55.0863 0.807917C55.0567 0.978334 55.0421 1.16333 55.0421 1.37083C55.0421 3.88209 57.205 5.92667 59.8717 5.92667C62.5313 5.92667 64.6946 3.88209 64.6946 1.37083C64.6946 1.16333 64.6796 0.978334 64.6501 0.807917C64.613 0.622917 64.6726 0.437084 64.7984 0.304167C64.9021 0.12625 65.0871 0 65.3171 0H76.1917C76.3697 0 76.5401 0.0820834 76.6513 0.215C76.7622 0.348334 76.8067 0.52625 76.7771 0.704167C76.7476 0.874584 76.7326 1.05958 76.7326 1.26708C76.7326 3.77834 78.8959 5.82292 81.563 5.82292C84.2222 5.82292 86.3855 3.77834 86.3855 1.26708C86.3855 1.05958 86.3705 0.874584 86.3409 0.696667C86.3109 0.52625 86.3559 0.348334 86.4742 0.215C86.5855 0.0820834 86.7559 0.00791667 86.9338 0L98.1417 0.11125C98.3122 0.11125 98.4755 0.192917 98.5938 0.32625C98.7051 0.459584 98.7493 0.637501 98.7201 0.807917C98.6826 0.978334 98.668 1.16333 98.668 1.37083C98.668 3.88209 100.839 5.92667 103.506 5.92667C106.165 5.92667 108.328 3.88209 108.328 1.37083C108.328 1.16333 108.313 0.978334 108.284 0.807917C108.247 0.637501 108.298 0.459584 108.41 0.32625C108.521 0.192917 108.691 0.11125 108.862 0.11125H121.144C121.322 0.11125 121.485 0.192917 121.603 0.32625C121.714 0.459584 121.759 0.637501 121.729 0.807917C121.7 0.978334 121.677 1.16333 121.677 1.37083C121.677 3.88209 123.848 5.92667 126.507 5.92667C129.167 5.92667 131.33 3.88209 131.33 1.37083C131.33 1.16333 131.315 0.985834 131.286 0.807917C131.256 0.637501 131.301 0.459584 131.412 0.32625C131.523 0.192917 131.693 0.11125 131.863 0.11125H141.998C142.324 0.11125 142.591 0.378334 142.591 0.704167V10.0604C142.591 10.1121 142.583 10.1567 142.568 10.2013V10.2083C142.583 10.2454 142.583 10.2825 142.583 10.3196C142.583 10.6454 142.324 10.9125 141.99 10.9125C139.331 10.9125 137.161 12.9571 137.161 15.4688C137.161 17.9796 139.331 20.0242 141.99 20.0242C142.324 20.0242 142.583 20.2913 142.583 20.6171V28.2621C142.583 28.2988 142.576 28.3438 142.568 28.3809C142.531 28.6621 142.294 28.8846 141.99 28.8846C139.331 28.8846 137.161 30.9292 137.161 33.44C137.161 35.9517 139.331 37.9963 141.99 37.9963C142.324 37.9963 142.583 38.2629 142.583 38.5888V47.4192C142.583 47.745 142.324 48.0121 141.99 48.0121C139.331 48.0121 137.161 50.0567 137.161 52.575C137.161 55.0867 139.331 57.1313 141.99 57.1313C142.324 57.1313 142.583 57.398 142.583 57.7242V66.5542C142.583 66.8801 142.324 67.1396 141.99 67.1396C139.331 67.1396 137.161 69.1917 137.161 71.7105C137.161 74.2217 139.331 76.2663 141.99 76.2663C142.324 76.2663 142.583 76.5259 142.583 76.8588V85.6817C142.583 86.0155 142.324 86.2747 141.99 86.2747C139.331 86.2747 137.161 88.3192 137.161 90.8305C137.161 93.3497 139.331 95.3938 141.99 95.3938C142.324 95.3938 142.583 95.6605 142.583 95.9867V104.817C142.583 105.143 142.324 105.41 141.99 105.41C139.331 105.41 137.161 107.454 137.161 109.966C137.161 112.477 139.331 114.521 141.99 114.521C142.324 114.521 142.583 114.788 142.583 115.114V123.944C142.583 124.271 142.324 124.537 141.99 124.537C139.331 124.537 137.161 126.582 137.161 129.101C137.161 131.612 139.331 133.657 141.99 133.657C142.324 133.657 142.583 133.923 142.583 134.249V143.08C142.583 143.406 142.324 143.665 141.99 143.665C139.331 143.665 137.161 145.717 137.161 148.236C137.161 150.747 139.331 152.792 141.99 152.792C142.324 152.792 142.583 153.051 142.583 153.384V162.207C142.583 162.533 142.324 162.8 141.99 162.8C139.331 162.8 137.161 164.844 137.161 167.356C137.161 169.875 139.331 171.919 141.99 171.919C142.324 171.919 142.583 172.186 142.583 172.512V182.187C142.583 182.513 142.324 182.779 141.99 182.779H131.308C131.13 182.779 130.96 182.698 130.848 182.565C130.737 182.431 130.693 182.253 130.723 182.083C130.752 181.913 130.767 181.728 130.767 181.52C130.767 179.009 128.604 176.964 125.937 176.964C123.278 176.964 121.114 179.009 121.114 181.52C121.114 181.728 121.129 181.913 121.159 182.083C121.188 182.253 121.144 182.431 121.033 182.565C120.914 182.698 120.751 182.779 120.573 182.779H109.691C109.521 182.779 109.35 182.698 109.239 182.565C109.128 182.431 109.084 182.253 109.113 182.083C109.143 181.905 109.158 181.728 109.158 181.52C109.158 179.009 106.987 176.964 104.328 176.964C101.661 176.964 99.4976 179.009 99.4976 181.52C99.4976 181.728 99.5126 181.913 99.5497 182.083C99.5792 182.253 99.5272 182.431 99.4163 182.565C99.3051 182.698 99.1417 182.779 98.9647 182.779H88.0817C87.9042 182.779 87.7409 182.698 87.6297 182.565C87.5188 182.431 87.4672 182.253 87.5042 182.083C87.5338 181.913 87.5484 181.728 87.5484 181.52C87.5484 179.009 85.378 176.964 82.7109 176.964C80.0513 176.964 77.8884 179.009 77.8884 181.52C77.8884 181.728 77.9034 181.913 77.933 182.083C77.9696 182.268 77.9105 182.453 77.7921 182.587C77.6884 182.764 77.4955 182.891 77.2734 182.891Z" fill="#2800FF"/>
<path d="M70.584 107.113C70.456 106.812 70.1094 106.674 69.8081 106.8L65.2706 108.726C64.9698 108.855 64.8298 109.202 64.9573 109.502C65.0535 109.728 65.2723 109.863 65.5027 109.863C65.5794 109.863 65.6581 109.848 65.7335 109.816L70.2706 107.89C70.5719 107.762 70.7119 107.414 70.584 107.113Z" fill="white"/>
<path d="M67.3043 112.349C67.358 112.349 67.413 112.342 67.4676 112.327L72.2534 110.959C72.5672 110.869 72.7493 110.541 72.6597 110.227C72.5701 109.913 72.2426 109.734 71.928 109.821L67.1418 111.188C66.8276 111.278 66.6459 111.606 66.7359 111.92C66.8097 112.18 67.0472 112.349 67.3043 112.349Z" fill="white"/>
<path d="M72.8064 114.244C72.8064 113.917 72.5409 113.652 72.2143 113.652H67.6772C67.3505 113.652 67.0859 113.917 67.0859 114.244C67.0859 114.571 67.3505 114.835 67.6772 114.835H72.2143C72.5409 114.835 72.8064 114.571 72.8064 114.244Z" fill="white"/>
<path d="M67.2989 117.183L71.7119 118.177C71.7552 118.187 71.7994 118.191 71.8423 118.191C72.1131 118.191 72.3573 118.005 72.4189 117.73C72.4906 117.411 72.2902 117.094 71.9719 117.022L67.5589 116.028C67.2423 115.957 66.9231 116.157 66.8514 116.476C66.7798 116.795 66.9802 117.111 67.2989 117.183Z" fill="white"/>
<path d="M61.1193 113.487C61.1193 113.968 60.7338 114.353 60.2526 114.353C59.7784 114.353 59.393 113.968 59.393 113.487C59.393 113.013 59.7784 112.627 60.2526 112.627C60.7338 112.627 61.1193 113.013 61.1193 113.487ZM58.208 113.487C58.208 114.62 59.1263 115.539 60.2526 115.539C61.3859 115.539 62.3047 114.62 62.3047 113.487C62.3047 112.361 61.3859 111.443 60.2526 111.443C59.1263 111.443 58.208 112.361 58.208 113.487Z" fill="white"/>
<path d="M78.8383 109.33H78.8362C78.5674 109.33 78.332 109.512 78.2637 109.772L77.0249 114.495L75.6541 110.077C75.5741 109.818 75.3237 109.64 75.0566 109.662C74.7858 109.676 74.5595 109.874 74.5078 110.14L73.0753 117.524C73.0133 117.845 73.2228 118.155 73.5437 118.217C73.582 118.225 73.6199 118.228 73.657 118.228C73.9345 118.228 74.1824 118.032 74.2374 117.749L75.2216 112.676L76.5074 116.82C76.5858 117.072 76.827 117.223 77.0858 117.237C77.3499 117.231 77.5783 117.05 77.6453 116.795L78.8283 112.286L79.6954 115.689C79.7758 116.005 80.097 116.198 80.4149 116.116C80.7316 116.036 80.9233 115.713 80.8424 115.397L79.4099 109.776C79.3433 109.515 79.1078 109.331 78.8383 109.33Z" fill="white"/>
<path d="M97.6296 114.805C93.3388 115.105 88.5184 114.223 85.2867 105.468L80.8088 93.065C80.7225 92.8259 80.4992 92.6838 80.2367 92.6746C79.9817 92.6813 79.7592 92.8517 79.6859 93.0955L78.0988 98.3638L76.7471 93.5046C76.6804 93.2642 76.47 93.0913 76.2213 93.073C75.9738 93.0567 75.7392 93.193 75.6371 93.4209L73.4284 98.3455L71.6509 92.8955C71.5721 92.653 71.3475 92.4884 71.0929 92.4867H71.0888C70.8354 92.4867 70.6104 92.6471 70.5284 92.8867L68.7729 98.0171L66.9809 92.3984C66.9029 92.1526 66.6746 91.9859 66.4175 91.9859H66.4159C66.1575 91.9867 65.9296 92.1551 65.8525 92.4009L63.9254 98.5567L62.1458 92.6571C62.0671 92.3967 61.8171 92.2221 61.5504 92.2371C61.2792 92.2505 61.0513 92.4467 60.9988 92.7138C60.9608 92.9055 57.0983 111.937 48.0563 114.137C45.2313 114.823 42.5079 114.379 39.96 112.816C34.8467 109.678 31.6708 102.787 30.5046 97.838C30.42 97.4788 30.3383 97.1338 30.26 96.8042C30.4617 97.1313 30.6742 97.4621 30.8967 97.7938C34.2554 102.795 38.4233 105.58 42.95 105.848C46.9713 106.084 51.6275 104.374 57.1779 100.608C57.4483 100.425 57.5188 100.057 57.3354 99.7863C57.1521 99.5159 56.7838 99.4446 56.5133 99.6292C51.1867 103.242 46.7725 104.888 43.02 104.667C40.7767 104.534 38.805 103.738 37.0946 102.578L37.4912 99.2601L40.5337 101.494C40.6987 101.615 40.9142 101.643 41.1033 101.567C41.2929 101.491 41.4304 101.323 41.4662 101.122L42.0588 97.8196L45.2563 99.8551C45.4358 99.9692 45.6625 99.9788 45.8504 99.8788C46.0388 99.7792 46.1592 99.5871 46.1654 99.3742L46.2667 96.1113L48.7592 97.5946C48.9254 97.6938 49.13 97.7051 49.3058 97.6255C49.4821 97.5455 49.6083 97.3842 49.6438 97.1942L50.1229 94.618L53.2996 96.6276C53.4579 96.728 53.6554 96.7471 53.8296 96.6792C54.0046 96.6117 54.1371 96.4651 54.1867 96.2842L55.0729 93.0555L57.7313 95.0805C57.9917 95.278 58.3629 95.228 58.5604 94.968C58.7588 94.7084 58.7088 94.3367 58.4483 94.1384L55.0929 91.5826C54.9363 91.4634 54.7308 91.4296 54.545 91.493C54.3583 91.5555 54.2158 91.7071 54.1638 91.8967L53.2571 95.2001L50.0175 93.1505C49.8521 93.0455 49.6446 93.0296 49.4646 93.108C49.2846 93.1863 49.1554 93.3496 49.1196 93.5425L48.6354 96.1438L46.0096 94.5805C45.8292 94.473 45.6063 94.4692 45.4225 94.5701C45.2388 94.6709 45.1217 94.8613 45.1154 95.0705L45.015 98.2984L41.95 96.3471C41.7838 96.2413 41.5758 96.2251 41.3946 96.3046C41.2142 96.3834 41.0846 96.548 41.0496 96.7417L40.4687 99.9788L37.3742 97.7063C37.2046 97.5817 36.9821 97.5567 36.7883 97.6405C36.5958 97.7238 36.4612 97.9042 36.4362 98.1126L36 101.76C33.8633 100.013 32.1917 97.733 30.96 95.6438L34.3775 98.4321C34.5633 98.5842 34.8204 98.6092 35.0304 98.4955C35.2408 98.3838 35.3633 98.1559 35.3408 97.9188L34.8946 93.1975L38.7717 97.2296C38.9492 97.4142 39.2254 97.4638 39.4567 97.3513C39.6871 97.2396 39.8196 96.9913 39.7842 96.738L38.9608 90.8263L42.8846 95.5796C43.055 95.7863 43.3438 95.8534 43.5871 95.7409C43.8313 95.6296 43.9692 95.368 43.9242 95.103L42.9567 89.4463L46.8408 93.7796C47.0079 93.9655 47.2733 94.0259 47.5058 93.9321C47.7375 93.8376 47.8842 93.6067 47.8729 93.3567L47.5596 86.543L51.4508 91.9126C51.6008 92.1201 51.8683 92.2071 52.1125 92.1275C52.3563 92.0488 52.5213 91.8217 52.5213 91.565V85.2346L57.4092 92.1096C57.5558 92.3167 57.8183 92.4067 58.0613 92.3342C58.3046 92.2609 58.4738 92.0409 58.4829 91.7876L58.6238 87.7117L60.3354 90.1842C60.4392 90.3346 60.6071 90.428 60.79 90.4384C60.9713 90.4496 61.1492 90.3734 61.2692 90.235L62.0504 89.333L63.65 91.973C63.7517 92.1409 63.9304 92.2471 64.1271 92.2576C64.3309 92.2688 64.5125 92.178 64.6296 92.0209L66.59 89.4075L68.2363 91.5246C68.3442 91.6626 68.5075 91.7463 68.6829 91.7521C68.8459 91.768 69.0271 91.6871 69.1442 91.5563L71.2384 89.22L72.8459 91.8717C72.9396 92.0271 73.1 92.1309 73.2804 92.1525C73.4621 92.175 73.6417 92.1121 73.77 91.9834L75.9542 89.7988L78.0634 92.1613C78.1871 92.3005 78.3713 92.3776 78.5542 92.3567C78.7392 92.3417 78.9063 92.2401 79.0059 92.083L80.1538 90.2596L81.0034 92.0238C81.0963 92.218 81.2875 92.3459 81.5025 92.358C81.7142 92.3709 81.9217 92.2655 82.0367 92.0834L83.6488 89.5309L84.2879 93.0842C84.3329 93.3317 84.5284 93.5234 84.7759 93.5642C85.0221 93.603 85.2696 93.4834 85.39 93.2634L89.005 86.6492L88.9271 94.4896C88.9242 94.7521 89.0959 94.9859 89.3471 95.0617C89.5971 95.1392 89.87 95.0396 90.0138 94.8196L94.4971 87.9767L93.8805 95.4571C93.858 95.7276 94.0225 95.9784 94.2796 96.0655C94.5355 96.1521 94.8196 96.0546 94.9667 95.8271L99.2696 89.178L98.73 96.5746C98.7109 96.838 98.8684 97.0821 99.1159 97.173C99.3634 97.2646 99.6421 97.1805 99.798 96.9667L104.165 90.9905L103.195 97.8913C103.158 98.1567 103.303 98.4138 103.55 98.5184C103.796 98.6242 104.082 98.5488 104.248 98.3384L107.973 93.5809L107.621 99.6146C107.607 99.8646 107.751 100.096 107.981 100.194C108.056 100.225 108.135 100.24 108.212 100.24C108.374 100.24 108.533 100.174 108.648 100.05L111.698 96.7371C110.533 99.4492 109.234 101.389 107.845 102.766L106.78 99.4084C106.722 99.228 106.582 99.0851 106.402 99.0259C106.223 98.9667 106.024 98.9971 105.87 99.1067L102.603 101.453L102.004 97.8613C101.97 97.6563 101.83 97.4842 101.637 97.4076C101.444 97.3313 101.225 97.3626 101.06 97.4888L97.91 99.908L97.5959 96.2238C97.5775 96.0121 97.4475 95.8263 97.2546 95.7371C97.0617 95.6476 96.8363 95.6692 96.663 95.7921L93.178 98.2742L92.5259 94.7767C92.4867 94.5671 92.3384 94.3951 92.1367 94.3259C91.9359 94.2559 91.7125 94.3009 91.5525 94.4413L88.7988 96.8713L87.8605 93.8992C87.8017 93.7142 87.6563 93.5692 87.4713 93.5121C87.2867 93.4546 87.0842 93.4917 86.9317 93.6109L83.6975 96.1367C83.4405 96.338 83.3946 96.7101 83.5959 96.9671C83.7971 97.2259 84.1688 97.2701 84.4267 97.0696L86.9884 95.0684L87.9442 98.0951C88.0042 98.2863 88.1571 98.4334 88.35 98.4871C88.543 98.5396 88.7496 98.493 88.9 98.3605L91.5538 96.0188L92.185 99.403C92.2217 99.6013 92.358 99.7676 92.545 99.8434C92.7321 99.9176 92.945 99.8934 93.1096 99.7767L96.5046 97.358L96.8225 101.086C96.8409 101.302 96.9759 101.49 97.1738 101.578C97.3713 101.665 97.6013 101.637 97.773 101.505L100.998 99.028L101.591 102.586C101.625 102.787 101.76 102.958 101.949 103.036C102.138 103.113 102.354 103.088 102.52 102.97L105.898 100.544L106.876 103.629C103.893 105.989 100.562 106.101 97.28 105.86C93.113 105.555 88.8884 103.14 85.9788 99.4001C85.7784 99.1426 85.4063 99.0951 85.1484 99.2967C84.8909 99.4976 84.8438 99.8688 85.045 100.127C86.5392 102.048 90.7138 106.566 97.193 107.04C100.747 107.302 104.536 107.164 107.905 104.308C107.934 104.288 107.958 104.266 107.982 104.241C109.089 103.287 110.151 102.04 111.143 100.41C108.129 108.986 104.617 114.324 97.6296 114.805ZM29.615 93.1142C29.3529 92.5663 29.1292 92.0626 28.9462 91.6292C28.9025 91.4771 28.8608 91.3388 28.8204 91.2076L32.0829 92.5067C32.2704 92.5821 32.4829 92.5563 32.6471 92.438C32.8108 92.3209 32.9037 92.1276 32.8933 91.9267L32.7021 88.2521L35.6283 90.4484C35.8071 90.583 36.0471 90.6038 36.2483 90.5046C36.4487 90.4042 36.5754 90.1992 36.5754 89.9751V85.7709L39.4125 88.2934C39.5829 88.4446 39.825 88.4846 40.0342 88.3975C40.2437 88.3096 40.385 88.1096 40.3971 87.8825L40.6146 83.7484L44.3633 87.1567C44.53 87.3075 44.7667 87.3513 44.9754 87.2705C45.1846 87.1896 45.3296 86.9971 45.3508 86.7742L45.9354 80.578L49.1433 84.0084C49.2988 84.1734 49.5346 84.2359 49.7513 84.1692C49.9679 84.1013 50.1271 83.9159 50.1604 83.6913L50.8175 79.3142L55.6379 84.9784C55.8025 85.1717 56.0729 85.2396 56.3088 85.1438C56.5446 85.0496 56.6942 84.8142 56.6796 84.5609L56.3975 79.6746L60.2492 86.3075C60.3596 86.4984 60.5629 86.6146 60.7863 86.6021C61.0058 86.5925 61.2021 86.4621 61.2963 86.2634L62.3742 83.9821L63.73 88.0488C63.8084 88.2855 64.0271 88.4471 64.2763 88.4534C64.5175 88.4488 64.7521 88.3084 64.8425 88.0767L66.6171 83.5221L68.1638 88.2821C68.2421 88.5221 68.4642 88.6863 68.7167 88.6909C68.975 88.685 69.1967 88.5384 69.2834 88.3017L71.2529 82.8842L73.1592 88.2959C73.2421 88.5296 73.4613 88.6875 73.7096 88.6909C73.9475 88.6775 74.1817 88.5421 74.27 88.3101L75.8054 84.2896L77.4454 88.398C77.535 88.623 77.7529 88.7705 77.9946 88.7705H78.0005C78.245 88.768 78.4621 88.6163 78.5484 88.3871L79.8859 84.843L81.1467 87.638C81.2425 87.8496 81.4638 87.9838 81.6859 87.9867C81.9171 87.9867 82.1275 87.8521 82.2238 87.6417L85.3259 80.8888L85.4129 86.0355C85.4171 86.2913 85.5859 86.5155 85.8305 86.5913C86.075 86.6655 86.3405 86.5759 86.4884 86.3667L91.2975 79.5463L91.628 85.7413C91.6409 85.9863 91.8042 86.198 92.0375 86.273C92.2713 86.3475 92.5275 86.2709 92.6805 86.0796L96.7321 81.015L96.893 86.2542C96.9009 86.5005 97.0605 86.7171 97.2938 86.7959C97.5271 86.8759 97.785 86.8017 97.9421 86.6117L101.506 82.273L101.527 88.4501C101.528 88.6917 101.675 88.9084 101.9 88.998C102.123 89.0863 102.38 89.0321 102.547 88.8576L106.305 84.9271L106.434 90.1746C106.44 90.4013 106.573 90.6038 106.779 90.6984C106.984 90.7917 107.226 90.7613 107.401 90.6171L110.813 87.8138L110.481 92.7267C110.466 92.9521 110.58 93.1663 110.775 93.2792C110.868 93.3321 110.97 93.358 111.071 93.358C111.187 93.358 111.302 93.3246 111.401 93.2576L113.381 91.9284C113.195 92.5796 113.003 93.193 112.806 93.7871L108.899 98.0292L109.264 91.7596C109.279 91.5013 109.125 91.2634 108.883 91.1717C108.64 91.0792 108.367 91.1567 108.208 91.3609L104.674 95.8738L105.666 88.8188C105.704 88.55 105.554 88.2896 105.303 88.1875C105.05 88.0855 104.762 88.168 104.602 88.3871L100.06 94.6013L100.618 86.9596C100.638 86.69 100.472 86.4417 100.215 86.3559C99.96 86.2705 99.6775 86.3684 99.5305 86.5955L95.2538 93.2055L95.868 85.7525C95.8905 85.483 95.7271 85.2325 95.4709 85.1446C95.215 85.0563 94.9317 85.1538 94.7838 85.38L90.1305 92.4821L90.2117 84.2955C90.2142 84.0238 90.0321 83.7859 89.7696 83.7171C89.5059 83.65 89.2313 83.768 89.1005 84.0059L85.1559 91.2238L84.5442 87.823C84.5005 87.5825 84.3142 87.3938 84.075 87.3471C83.8346 87.2992 83.5913 87.405 83.4609 87.6113L81.6063 90.5484L80.7559 88.7825C80.6621 88.588 80.4709 88.46 80.2563 88.4484C80.0375 88.4363 79.8363 88.5421 79.7217 88.7234L78.4225 90.7863L76.4204 88.5438C76.3121 88.4226 76.1584 88.3509 75.9954 88.3459C75.8317 88.3446 75.6754 88.4046 75.5604 88.5192L73.4667 90.613L71.8367 87.9234C71.7392 87.7638 71.5721 87.6592 71.3859 87.6413C71.1992 87.6225 71.0146 87.6959 70.89 87.835L68.7354 90.2388L67.0484 88.0692C66.935 87.9238 66.7509 87.8559 66.5763 87.8409C66.3917 87.8425 66.2188 87.93 66.1084 88.078L64.2084 90.6105L62.6413 88.025C62.5438 87.863 62.3742 87.7575 62.1858 87.7421C61.9963 87.7225 61.8121 87.8013 61.6879 87.9438L60.8742 88.8834L58.58 85.5696C58.4354 85.36 58.1717 85.2671 57.9271 85.3384C57.6821 85.4109 57.5113 85.6313 57.5021 85.8867L57.3604 89.9988L52.4121 83.038C52.2629 82.8275 51.9946 82.7409 51.7496 82.8167C51.5046 82.895 51.3379 83.123 51.3379 83.3805V89.7401L47.3567 84.2455C47.2033 84.0342 46.9292 83.9496 46.6825 84.0342C46.4354 84.1209 46.2746 84.3592 46.2863 84.6205L46.6138 91.7534L42.4679 87.1275C42.2921 86.9313 42.0079 86.8746 41.77 86.99C41.5321 87.1055 41.3996 87.363 41.4438 87.6234L42.3829 93.1125L38.5425 88.46C38.3742 88.2563 38.0908 88.1875 37.8483 88.2959C37.6058 88.4021 37.4642 88.6563 37.5004 88.9188L38.3604 95.0942L34.5721 91.1546C34.3979 90.9738 34.1283 90.9213 33.8992 91.0271C33.6704 91.1321 33.5329 91.37 33.5567 91.62L34.0292 96.6209L29.8721 93.2288C29.7946 93.1655 29.7058 93.1326 29.615 93.1142ZM62.7217 107.414C62.3017 107.369 61.425 107.309 60.4029 107.418L61.5733 102.778L63.4217 106.87L62.7217 107.414ZM62.6092 119.645L62.9558 120.991H62.3667L62.6092 119.645ZM112.987 98.6451C113.608 96.7342 114.146 94.528 114.411 93.383C115.105 90.3934 115.068 90.3542 114.826 90.0963C114.678 89.9384 114.456 89.8738 114.247 89.9271C114.108 89.9625 114.02 90.035 113.95 90.1213L111.743 91.6021L112.085 86.5267C112.101 86.2909 111.975 86.0684 111.766 85.96C111.556 85.8525 111.302 85.8792 111.119 86.0296L107.587 88.9325L107.453 83.4742C107.447 83.2346 107.298 83.023 107.075 82.9371C106.853 82.8513 106.599 82.9059 106.434 83.0792L102.706 86.9788L102.684 80.625C102.683 80.3755 102.526 80.153 102.291 80.0692C102.056 79.9863 101.794 80.0588 101.635 80.2513L98.0275 84.6425L97.8655 79.3721C97.8584 79.1242 97.6963 78.9071 97.4613 78.8288C97.2267 78.7492 96.9671 78.8267 96.8121 79.02L92.7267 84.1271L92.3884 77.7784C92.375 77.5267 92.2034 77.3117 91.9613 77.2417C91.7184 77.1717 91.4588 77.2625 91.3138 77.4692L86.5655 84.203L86.4655 78.2688C86.4609 77.9921 86.2659 77.7559 85.995 77.6992C85.7267 77.6417 85.4509 77.7805 85.3359 78.0313L81.6909 85.9663L80.3767 83.0517C80.2784 82.8342 80.0592 82.708 79.8188 82.7034C79.5792 82.7117 79.3679 82.8621 79.2838 83.0863L77.9792 86.5434L76.3425 82.4434C76.2521 82.2167 76.0246 82.0734 75.7888 82.0709C75.5446 82.0725 75.3275 82.2242 75.2404 82.4521L73.7396 86.3817L71.82 80.9321C71.7363 80.6963 71.5142 80.538 71.2646 80.5367H71.2617C71.0125 80.5367 70.7904 80.6921 70.7054 80.9259L68.7584 86.2813L67.2304 81.5792C67.1529 81.3417 66.9346 81.1784 66.6846 81.1705C66.4184 81.1746 66.2071 81.3146 66.1163 81.5475L64.3346 86.1205L63.0304 82.2088C62.9538 81.9792 62.7459 81.8196 62.5042 81.8055C62.2692 81.795 62.0371 81.9242 61.9338 82.143L60.7075 84.7392L56.1758 76.935C56.0383 76.6984 55.7563 76.5875 55.4938 76.6655C55.2313 76.7442 55.0571 76.993 55.0729 77.2663L55.3963 82.8684L50.8758 77.5567C50.7254 77.3805 50.4854 77.3092 50.2625 77.3709C50.0396 77.4355 49.8746 77.623 49.84 77.8521L49.1717 82.3059L45.9021 78.8096C45.7425 78.6405 45.4983 78.5796 45.2779 78.6542C45.0579 78.7296 44.9021 78.9275 44.8804 79.1588L44.2838 85.4842L40.4871 82.033C40.3179 81.8792 40.0754 81.8371 39.8642 81.9238C39.6525 82.0105 39.5104 82.2113 39.4983 82.4396L39.28 86.5913L36.3767 84.0113C36.2021 83.8563 35.9537 83.8171 35.7412 83.9134C35.5283 84.0088 35.3917 84.2205 35.3917 84.453V88.7909L32.4004 86.5467C32.2162 86.408 31.9692 86.39 31.7671 86.4975C31.5642 86.605 31.4421 86.8209 31.4546 87.0505L31.6633 91.0659L28.1758 89.6771C28.0275 89.5105 27.895 89.5159 27.7354 89.5242C27.5825 89.5313 27.4408 89.6067 27.3337 89.7167C27.3171 89.7334 27.3054 89.7542 27.2904 89.7725C27.2604 89.8109 27.2333 89.8484 27.2125 89.8917C27.2071 89.903 27.1975 89.9109 27.1925 89.9225C27.1846 89.943 27.1871 89.9642 27.1812 89.985C27.1742 90.0096 27.1604 90.0321 27.1567 90.0575C27.1546 90.0721 27.1612 90.0859 27.1604 90.1005C27.1562 90.1555 27.1629 90.2075 27.1737 90.2609C27.1779 90.2809 27.1725 90.3021 27.1792 90.3217C27.1992 90.3846 27.4092 91.0321 27.8246 92.0338C28.1333 93.1267 28.6146 94.9776 29.3529 98.1101C30.6292 103.527 33.9237 110.501 39.3404 113.824C42.1687 115.56 45.1946 116.051 48.3358 115.287C56.2646 113.358 60.3208 100.393 61.6554 95.1292L63.3484 100.742C63.4234 100.99 63.6517 101.161 63.9117 101.162C64.1596 101.165 64.4021 100.995 64.4792 100.748L66.4229 94.5421L68.1892 100.083C68.2663 100.326 68.4913 100.492 68.7467 100.495C69.0154 100.503 69.2304 100.336 69.3129 100.095L71.075 94.9459L72.7784 100.169C72.8542 100.403 73.065 100.564 73.3096 100.578C73.5559 100.593 73.7809 100.452 73.8809 100.228L76.0459 95.4005L77.5063 100.649C77.5767 100.903 77.8067 101.08 78.07 101.083C78.3467 101.09 78.5671 100.913 78.6429 100.661L80.3034 95.1496L83.8713 105.033C83.8446 105.075 83.8142 105.115 83.7984 105.165L82.0463 110.666L80.5175 103.192C80.4671 102.945 80.2663 102.758 80.0171 102.724C79.7713 102.694 79.525 102.818 79.41 103.042L77.3021 107.178L75.9979 101.093C75.9417 100.83 75.7167 100.639 75.4488 100.625C75.1846 100.61 74.9384 100.78 74.8559 101.035L73.3913 105.592L71.4546 100.456C71.3688 100.229 71.1525 100.077 70.9092 100.074C70.6609 100.068 70.4454 100.216 70.3529 100.441L68.8529 104.11L66.6917 99.963C66.5817 99.7509 66.3534 99.6284 66.1192 99.6463C65.8821 99.6659 65.6796 99.8251 65.605 100.051L63.9325 105.126L61.9534 100.745C61.85 100.514 61.6158 100.372 61.3621 100.398C61.1108 100.421 60.9021 100.599 60.8404 100.843L59.125 107.644C58.3404 107.843 57.5433 108.166 56.8488 108.692C55.7246 109.542 55.0592 110.759 54.8708 112.31C54.3933 116.209 57.09 117.771 58.1933 118.241C58.2 118.812 58.3196 119.831 58.8954 120.991H45.7588C45.4321 120.991 45.1671 121.255 45.1671 121.583C45.1671 121.91 45.4321 122.175 45.7588 122.175H59.6446C60.0288 122.678 60.4713 123.162 60.9933 123.603C61.1021 123.695 61.2379 123.743 61.3758 123.743C61.4429 123.743 61.5109 123.732 61.5759 123.709C61.775 123.637 61.9204 123.465 61.9584 123.257L62.1529 122.175H65.1067C65.1075 122.175 65.1088 122.175 65.1096 122.175C65.1113 122.175 65.1125 122.175 65.1138 122.175H97.1313C97.458 122.175 97.723 121.91 97.723 121.583C97.723 121.255 97.458 120.991 97.1313 120.991H65.9659C66.3934 119.773 66.7659 118.249 66.6467 116.807C66.6196 116.481 66.3388 116.24 66.0075 116.265C65.6821 116.292 65.44 116.579 65.4671 116.904C65.5825 118.302 65.1479 119.839 64.7071 120.991H64.1779L63.0788 116.725C63.0096 116.455 62.7621 116.26 62.4838 116.281C62.2059 116.292 61.9725 116.494 61.9238 116.768L60.9896 121.963C60.7771 121.73 60.5838 121.491 60.4121 121.246C59.2013 119.503 59.3796 117.98 59.3875 117.919C59.4292 117.624 59.2442 117.344 58.9567 117.266C58.8183 117.228 55.5742 116.303 56.0454 112.453C56.1938 111.234 56.7025 110.288 57.5588 109.639C59.5413 108.136 62.7675 108.613 62.8 108.616C62.9604 108.642 63.125 108.599 63.2538 108.499L66.8575 105.7C67.1163 105.5 67.1625 105.127 66.9617 104.869C66.7617 104.611 66.3892 104.565 66.1317 104.765L65.0104 105.636L66.29 101.753L68.3925 105.788C68.4992 105.993 68.7146 106.118 68.9442 106.105C69.1746 106.095 69.3779 105.952 69.465 105.739L70.8784 102.283L72.8817 107.596C72.9704 107.832 73.2059 107.975 73.4504 107.979C73.7017 107.973 73.9221 107.808 73.9992 107.568L75.305 103.507L76.4934 109.055C76.5459 109.299 76.7471 109.485 76.9954 109.517C77.2421 109.55 77.4855 109.423 77.5996 109.199L79.6967 105.086L81.3413 113.127C81.395 113.39 81.6205 113.585 81.8896 113.599C81.9 113.6 81.9105 113.6 81.9213 113.6C82.1775 113.6 82.4067 113.434 82.4846 113.188L84.5246 106.784C86.3346 111.307 89.4125 116.028 96.53 116.028C96.9117 116.028 97.3059 116.014 97.7113 115.987C106.811 115.359 110.368 106.706 112.987 98.6451Z" fill="white"/>
<path d="M60.6414 82.4066C60.9526 82.5016 61.2851 82.3291 61.3822 82.0174L62.7068 77.7712L64.2455 81.7991C64.3343 82.0316 64.5389 82.1883 64.8085 82.1799C65.0572 82.1758 65.2768 82.0162 65.3576 81.7812L66.6989 77.8924L68.2847 82.4162C68.3693 82.6583 68.6014 82.807 68.8568 82.8124C69.113 82.8062 69.3364 82.6362 69.4101 82.3899L71.1214 76.6683L73.2189 82.1783C73.3081 82.4137 73.5364 82.5599 73.7893 82.5599C74.0405 82.5524 74.2606 82.3862 74.336 82.1462L75.6535 77.9654L77.2622 82.2399C77.3489 82.4691 77.5685 82.6216 77.8135 82.6229H77.8164C78.0606 82.6229 78.2801 82.4724 78.3681 82.2441L79.9918 78.0404L81.1081 82.442C81.176 82.7095 81.4168 82.8879 81.6814 82.8879C81.7293 82.8879 81.7785 82.8824 81.8272 82.8699C82.1439 82.7899 82.3356 82.4679 82.2556 82.1508L80.6831 75.9487C80.6193 75.6987 80.4022 75.5191 80.1451 75.5037C79.8864 75.4874 79.6501 75.6412 79.5572 75.8808L77.8235 80.3699L76.1581 75.9458C76.0693 75.7095 75.8476 75.5587 75.5881 75.5624C75.336 75.5695 75.1156 75.7358 75.0401 75.9762L73.7193 80.1662L71.6076 74.617C71.5176 74.3799 71.2864 74.2103 71.0326 74.2362C70.7797 74.2453 70.5605 74.4145 70.4876 74.6578L68.7985 80.3049L67.2526 75.8949C67.1697 75.6578 66.946 75.4991 66.6943 75.4991H66.6926C66.441 75.4995 66.2168 75.6599 66.1351 75.8979L64.7701 79.8558L63.2026 75.7537C63.113 75.5183 62.8764 75.3395 62.6314 75.3737C62.3797 75.3812 62.1605 75.5478 62.0851 75.7883L60.2526 81.6654C60.1551 81.9774 60.3297 82.3091 60.6414 82.4066Z" fill="white"/>
<path d="M126.17 23.7749C125.755 29.027 124.955 37.5541 123.614 46.6808C122.295 55.6891 119.917 63.9491 118.244 69.105L119.391 60.675C119.429 60.4004 119.258 60.1262 118.991 60.0375C118.932 60.0154 118.866 60.0079 118.799 60.0079C118.591 60.0079 118.399 60.1191 118.288 60.3041L114.302 67.305L115.836 58.8004C115.887 58.5262 115.732 58.2521 115.472 58.1483C115.206 58.0446 114.902 58.1412 114.754 58.3854L110.25 65.5491L111.909 57.1704C111.969 56.8891 111.821 56.615 111.561 56.5041C111.302 56.4004 110.998 56.4891 110.843 56.7187L105.686 64.3566L106.85 55.9925C106.894 55.7187 106.731 55.4516 106.464 55.3558C106.197 55.2596 105.901 55.3704 105.761 55.6075L101.531 62.6821L101.916 55.1854C101.931 54.9037 101.753 54.6516 101.479 54.585C101.212 54.5112 100.923 54.6371 100.797 54.8891L97.2414 61.8971L96.8489 58.7487C96.8194 58.5112 96.6485 58.3187 96.4193 58.2521C96.1893 58.1933 95.9452 58.2746 95.7964 58.4596L94.856 59.6596L97.3898 52.4816L97.7006 56.9629C97.7156 57.2521 97.9306 57.4741 98.2119 57.5112C98.501 57.5487 98.7602 57.3779 98.8489 57.1112L105.124 38.1837L105.294 45.2883C105.301 45.5845 105.516 45.8212 105.805 45.8662C106.101 45.9029 106.368 45.7254 106.45 45.4437L109.724 34.5983V45.2733C109.724 45.5695 109.946 45.8212 110.235 45.8583C110.524 45.9029 110.806 45.7254 110.887 45.4362L114.302 33.5391L114.028 44.755C114.021 45.0583 114.243 45.3104 114.539 45.3545C114.836 45.3991 115.117 45.2141 115.199 44.9175L119.791 27.5237L119.221 42.9766C119.214 43.2733 119.429 43.5325 119.718 43.5766C120.006 43.6362 120.295 43.4508 120.384 43.1695L126.17 23.7749ZM120.658 21.6416C120.362 21.6045 120.081 21.7895 119.999 22.0787L115.332 39.7545L115.591 28.9533C115.599 28.657 115.384 28.405 115.095 28.3533C114.799 28.3162 114.517 28.4937 114.436 28.7754L110.909 41.0654V30.5904C110.909 30.2941 110.694 30.0425 110.406 30.0054C110.117 29.9608 109.835 30.1383 109.754 30.4129L106.39 41.5616L106.227 34.7541C106.22 34.465 106.005 34.2204 105.716 34.1833C105.434 34.1387 105.161 34.3091 105.071 34.5833L98.671 53.8887L98.3748 49.5404C98.3527 49.2587 98.1381 49.0366 97.8635 48.9921C97.5823 48.9554 97.3152 49.1179 97.2264 49.385L92.5373 62.6821C92.441 62.9562 92.5594 63.26 92.811 63.3933C93.0706 63.5341 93.3818 63.4675 93.5593 63.2379L95.8485 60.3116L96.3081 63.9637C96.3373 64.2229 96.5377 64.4304 96.7969 64.475C97.0485 64.5191 97.3077 64.3933 97.4268 64.1562L100.59 57.9116L100.227 65.0008C100.219 65.2675 100.39 65.5196 100.649 65.5933C100.909 65.6754 101.19 65.5641 101.331 65.3341L105.279 58.7262L104.161 66.7196C104.124 66.9937 104.279 67.2529 104.531 67.3566C104.79 67.4529 105.086 67.3642 105.235 67.1346L110.184 59.8154L108.472 68.4604C108.413 68.7421 108.569 69.0237 108.835 69.1275C109.101 69.2308 109.398 69.1346 109.554 68.89L114.131 61.6079L112.524 70.4979C112.472 70.7796 112.628 71.0604 112.902 71.1571C113.176 71.2533 113.472 71.1425 113.621 70.8979L117.806 63.5487L116.28 74.7054C116.243 75.0017 116.428 75.2833 116.717 75.3575C116.769 75.3721 116.821 75.38 116.873 75.38C117.11 75.38 117.332 75.2312 117.421 75.0017C117.473 74.8758 122.577 61.8821 124.785 46.8512C126.977 31.9537 127.725 18.6337 127.733 18.5008C127.748 18.2041 127.533 17.9374 127.244 17.8854C126.94 17.8337 126.659 18.0116 126.57 18.3004L120.577 38.3762L121.169 22.2491C121.177 21.9529 120.962 21.6858 120.658 21.6416Z" fill="white"/>
<path d="M22.8127 43.2733C22.8944 43.5621 23.1761 43.7475 23.4723 43.6954C23.7761 43.6508 23.9907 43.3916 23.9761 43.0879L23.3461 28.205L27.0057 44.7696C27.0727 45.0658 27.354 45.2587 27.6432 45.2287C27.9465 45.1991 28.1765 44.9475 28.1765 44.6512L28.3173 31.472L32.1694 46.1325C32.2436 46.4216 32.5252 46.6066 32.8215 46.5625C33.1173 46.5254 33.3398 46.2733 33.3323 45.97L33.199 34.45L36.5623 46.5179C36.6436 46.8066 36.9182 46.9846 37.2069 46.9475C37.5032 46.9104 37.7178 46.6662 37.7253 46.37L37.8586 38.6579L44.0961 57.9408C44.1853 58.2004 44.4369 58.3704 44.7186 58.3487C44.9923 58.3187 45.2153 58.1041 45.2444 57.8225L45.8669 52.4737L48.9115 59.6596L46.8448 58.1112C46.689 57.9929 46.4819 57.9633 46.2894 58.03C46.1036 58.0967 45.9632 58.2521 45.9186 58.4446L45.089 61.8896L40.6811 55.2C40.5328 54.9704 40.244 54.8741 39.9848 54.9779C39.7257 55.0741 39.5623 55.3333 39.6073 55.6079L40.5182 62.1637L36.5028 55.2296C36.3623 54.9929 36.0661 54.8812 35.7994 54.9633C35.5323 55.0521 35.3698 55.3187 35.3994 55.6L36.4144 64.2896L31.7248 56.3708C31.5765 56.1262 31.2802 56.0225 31.0061 56.1187C30.7394 56.215 30.584 56.4962 30.6286 56.7779L32.1173 65.3046L27.5319 56.9629C27.3986 56.7191 27.1023 56.6 26.8352 56.6816C26.569 56.7633 26.3911 57.03 26.4207 57.3112L27.3761 66.3937L24.124 58.1779C24.0202 57.9116 23.739 57.7558 23.4573 57.815C23.1761 57.8667 22.9761 58.1187 22.9832 58.4075L23.1536 66.7346C21.4127 56.6966 18.4794 38.3687 17.5457 24.1675L22.8127 43.2733ZM16.6123 18.2708C16.3161 18.3154 16.1015 18.575 16.1086 18.8783C16.679 39.3096 23.2502 73.9871 23.3169 74.335C23.3686 74.6167 23.6132 74.8167 23.8948 74.8167H23.9611C24.2648 74.7796 24.4944 74.5204 24.4873 74.2167L24.2352 61.6675L27.8577 70.8458C27.969 71.12 28.2652 71.2754 28.554 71.2012C28.8432 71.1346 29.0282 70.8608 28.9986 70.5721L27.9023 60.0967L32.799 68.9937C32.9323 69.2458 33.2361 69.3571 33.5102 69.2683C33.784 69.1717 33.9473 68.89 33.8957 68.6012L32.3544 59.7562L36.8144 67.29C36.9623 67.5271 37.2511 67.6383 37.5178 67.5496C37.7773 67.4604 37.9473 67.1937 37.9103 66.9196L36.9107 58.2892L41.0148 65.3712C41.1553 65.6233 41.4515 65.7271 41.7182 65.6383C41.9853 65.5417 42.1553 65.2754 42.1107 64.9937L41.1403 58.0446L44.8519 63.6821C44.9853 63.8825 45.2153 63.9783 45.4519 63.9417C45.6815 63.9046 45.8669 63.7267 45.9186 63.4971L46.8594 59.6008L49.9561 61.9192C50.1707 62.0825 50.4673 62.0825 50.6744 61.9117C50.8894 61.7487 50.9636 61.4675 50.8598 61.2158L46.0819 49.9479C45.9782 49.7033 45.719 49.555 45.4519 49.5921C45.1853 49.6366 44.9778 49.8441 44.9482 50.1108L44.3848 54.985L37.8886 34.9095C37.7994 34.6354 37.5257 34.465 37.2365 34.5095C36.9548 34.5466 36.7403 34.7912 36.7328 35.08L36.614 42.2879L33.1173 29.7754C33.0436 29.4941 32.7619 29.3087 32.4657 29.3533C32.1694 29.3904 31.9544 29.65 31.9619 29.9462L32.0952 41.1766L28.3469 26.9237C28.2727 26.6345 27.9986 26.4416 27.7019 26.4866C27.4136 26.5237 27.1911 26.7679 27.1836 27.0645L27.0502 39.4729L23.0498 21.375C22.9832 21.0783 22.7015 20.8787 22.3982 20.9158C22.0944 20.9529 21.8648 21.2191 21.8794 21.5304L22.5761 37.9466L17.2715 18.7004C17.1902 18.4116 16.9086 18.2266 16.6123 18.2708Z" fill="white"/>
<path d="M76.6772 53.8509C76.5927 53.6367 76.3922 53.4921 76.1631 53.4775C75.9352 53.4663 75.7168 53.5825 75.6072 53.785L74.4085 55.9838L73.3018 53.9417C73.1931 53.7409 72.9764 53.6167 72.7493 53.6329C72.5206 53.645 72.3197 53.7888 72.2335 54.0004L71.3618 56.1404L70.3147 53.9667C70.2131 53.7559 69.9902 53.6313 69.7635 53.6321C69.5297 53.6392 69.3222 53.7838 69.2335 54.0004L68.3601 56.1434L67.0651 53.4659C66.9626 53.255 66.7543 53.1221 66.5093 53.1325C66.2743 53.1413 66.0668 53.2884 65.981 53.5075L63.4814 59.8821C63.3622 60.1863 63.5118 60.5296 63.8164 60.6488C63.8876 60.6767 63.9601 60.6896 64.0318 60.6896C64.2685 60.6896 64.4918 60.5475 64.5835 60.3142L66.5889 55.1996L67.8739 57.8554C67.9756 58.0654 68.1739 58.2055 68.4256 58.1892C68.6593 58.1825 68.8668 58.0379 68.9552 57.8209L69.8268 55.6813L70.8735 57.8546C70.9747 58.065 71.1881 58.1896 71.4252 58.1896C71.6589 58.1825 71.8664 58.0379 71.9552 57.8209L72.8572 55.6059L73.886 57.505C73.9897 57.6959 74.1885 57.8142 74.4056 57.815C74.6218 57.815 74.8222 57.6963 74.926 57.5059L76.0406 55.4625L77.8552 60.065C77.9752 60.3688 78.3197 60.5175 78.6227 60.3988C78.9268 60.2784 79.0764 59.9346 78.9564 59.6305L76.6772 53.8509Z" fill="white"/>
<path d="M76.5077 49.1704C76.4073 48.985 76.2156 48.8667 76.0044 48.8604C75.7981 48.8592 75.5956 48.9612 75.484 49.14L74.3094 51.0337L73.3152 48.6637C73.2252 48.4496 73.0181 48.3071 72.7856 48.3008C72.5489 48.2979 72.3385 48.4246 72.2373 48.6337L71.1364 50.8983L70.0823 48.7696C69.976 48.5554 69.7477 48.4292 69.5148 48.4417C69.2769 48.4567 69.071 48.6129 68.9931 48.8383L68.2285 51.0363L66.7985 49.225C66.6785 49.0729 66.4898 48.9912 66.2981 49.0012C66.1044 49.0125 65.9289 49.1192 65.8281 49.2846L63.4502 53.2021C63.2806 53.4813 63.3698 53.8454 63.6494 54.0146C63.9285 54.1842 64.2923 54.0958 64.4623 53.8154L66.3977 50.6275L67.9685 52.6167C68.1023 52.7858 68.316 52.8667 68.5306 52.8333C68.7439 52.7975 68.9206 52.6483 68.9914 52.4437L69.6473 50.5588L70.6114 52.505C70.711 52.7058 70.9169 52.8338 71.1414 52.8338H71.1439C71.3698 52.8333 71.5752 52.7038 71.6735 52.5008L72.7298 50.3279L73.6614 52.5496C73.7473 52.7538 73.9398 52.8938 74.1602 52.9108C74.3856 52.9271 74.5931 52.8208 74.7102 52.6329L75.9515 50.6317L77.6952 53.8596C77.8023 54.0575 78.006 54.17 78.2165 54.17C78.311 54.17 78.4077 54.1475 78.4969 54.0988C78.7848 53.9433 78.8919 53.5846 78.7365 53.2967L76.5077 49.1704Z" fill="white"/>
<path d="M52.2953 31.2496C52.4069 30.42 52.8732 29.7383 53.7253 29.1604C54.2811 28.7904 54.8215 28.6421 55.3328 28.6421C57.1478 28.6421 58.5478 30.5012 58.6219 30.605C58.7994 30.835 59.1182 30.9091 59.3774 30.7754C59.6369 30.6346 59.7553 30.3312 59.659 30.0496C59.6444 30.0271 58.7553 27.4862 59.6074 25.7454C59.9332 25.0712 60.474 24.6196 61.2594 24.3675C62.5853 23.9308 63.7186 23.9675 64.6449 24.4637C66.1115 25.2491 66.6003 26.975 66.6082 26.99C66.682 27.2862 66.9711 27.4716 67.2674 27.42C67.5636 27.375 67.7782 27.1158 67.7711 26.8125C67.7636 26.7825 67.6524 23.7821 69.1269 22.3158C69.7119 21.7379 70.4603 21.4783 71.4157 21.5229C75.3345 21.7229 75.3495 26.4046 75.3495 26.605C75.3424 26.8862 75.5345 27.1233 75.809 27.19C76.0753 27.2491 76.357 27.1158 76.4753 26.8641C77.3274 25.0566 78.9715 23.16 81.9128 24.4266C84.5503 25.5529 83.2832 29.4421 83.2315 29.605C83.1428 29.8646 83.2461 30.1533 83.4761 30.3016C83.7128 30.4425 84.017 30.4054 84.2095 30.2125C84.2245 30.1979 85.8465 28.605 87.5061 28.605H87.5432C88.2024 28.6125 88.7728 28.8791 89.2766 29.4125C91.3953 31.62 89.1061 34.6575 89.0099 34.7829L79.0311 47.5992L80.2682 42.1025C80.3274 41.8579 80.2236 41.6058 80.009 41.4725C79.802 41.3396 79.5274 41.3542 79.3349 41.5021L75.6974 44.325L75.5049 38.4283C75.4978 38.1612 75.3199 37.9391 75.0678 37.8725C74.8161 37.8054 74.542 37.9171 74.4086 38.1392L71.0453 43.6804L67.7932 38.3612C67.6599 38.1391 67.3857 38.0283 67.1265 38.1021C66.8674 38.1762 66.6965 38.4129 66.6965 38.68L66.7932 44.1175L63.0299 40.6283C62.8444 40.4579 62.5703 40.4208 62.3482 40.5396C62.1261 40.6579 61.9999 40.91 62.0444 41.1617L63.119 47.6362L53.7403 35.0946C53.7253 35.0796 52.0511 33.1237 52.2953 31.2496ZM63.6299 50.2883C63.7928 50.5108 64.0894 50.5846 64.3407 50.4808C64.5853 50.3771 64.7336 50.1108 64.689 49.8362L63.4965 42.6729L67.0007 45.9325C67.1782 46.0954 67.4299 46.1325 67.6449 46.0358C67.8595 45.94 68.0003 45.725 67.9932 45.4879L67.919 40.8358L70.5415 45.125C70.6453 45.3029 70.8378 45.4067 71.0453 45.4067C71.2528 45.4067 71.4453 45.3029 71.549 45.125L74.3865 40.4504L74.549 45.5175C74.557 45.7396 74.6899 45.94 74.8903 46.0358C75.0899 46.125 75.327 46.1025 75.5049 45.9696L78.757 43.4504L77.2978 49.9179C77.2382 50.1921 77.372 50.4662 77.6236 50.5846C77.7049 50.6217 77.787 50.6442 77.8757 50.6442C78.0532 50.6442 78.2236 50.5625 78.3424 50.4142L89.9507 35.5096C91.0024 34.1462 92.3953 30.9533 90.1357 28.59C89.4028 27.8271 88.5361 27.4346 87.5503 27.42C86.454 27.42 85.4686 27.8641 84.7057 28.3383C84.9057 26.5233 84.5503 24.2637 82.3795 23.3379C79.987 22.3079 77.8457 22.8562 76.3274 24.8266C75.8678 22.8116 74.527 20.4933 71.4678 20.345C70.1786 20.2783 69.1115 20.6637 68.2894 21.4783C67.3782 22.3825 66.9561 23.6712 66.7561 24.7525C66.3782 24.2637 65.8744 23.7821 65.2153 23.4271C63.9928 22.7675 62.5407 22.7004 60.889 23.2412C59.7999 23.5971 59.0144 24.2637 58.5403 25.2191C58.0365 26.2566 57.9994 27.4641 58.1032 28.4566C56.7924 27.5012 54.9474 26.9083 53.0661 28.1829C51.9324 28.9458 51.2803 29.9233 51.1249 31.0941C50.8065 33.4946 52.7624 35.7758 52.8215 35.8425L63.6299 50.2883Z" fill="white"/>
<path d="M93.8039 151.19H47.3876L66.9972 140.855C68.071 141.846 69.5064 142.452 71.0751 142.452C72.6601 142.452 74.1043 141.837 75.1785 140.823L93.8039 151.19ZM71.0751 131.615C73.7347 131.615 75.8976 133.777 75.8976 136.437C75.8976 139.104 73.7347 141.267 71.0751 141.267C69.6751 141.267 68.4155 140.674 67.5339 139.719C66.7339 138.859 66.2447 137.704 66.2447 136.437C66.2447 133.777 68.408 131.615 71.0751 131.615ZM96.9314 124.669L96.9768 149.806C96.9776 150.132 97.2427 150.397 97.5689 150.397H97.5701C97.8968 150.396 98.1614 150.13 98.1606 149.803L98.1135 123.706C98.1131 123.501 98.006 123.31 97.831 123.203C97.656 123.096 97.4372 123.087 97.2543 123.179L76.4243 133.705C76.4243 133.704 76.4239 133.704 76.4239 133.703C75.4239 131.762 73.4014 130.429 71.0751 130.429C68.7489 130.429 66.7268 131.755 65.7264 133.688C65.726 133.689 65.726 133.69 65.7255 133.69L44.9172 122.968C44.7339 122.873 44.5143 122.881 44.338 122.989C44.1618 123.097 44.0547 123.288 44.0547 123.494V149.219C44.0547 149.546 44.3193 149.81 44.6459 149.81C44.9734 149.81 45.238 149.546 45.238 149.219V124.465L65.2901 134.797C65.2901 134.798 65.2893 134.799 65.2893 134.8C65.1414 135.318 65.0601 135.874 65.0601 136.437C65.0601 137.747 65.4814 138.953 66.1843 139.946L44.7193 151.258C44.4784 151.385 44.3555 151.66 44.4205 151.924C44.4864 152.188 44.723 152.373 44.9951 152.373H96.0839C96.3531 152.373 96.5889 152.191 96.6564 151.93C96.7243 151.67 96.6072 151.395 96.3714 151.265L75.9776 139.913C75.9785 139.912 75.9789 139.912 75.9793 139.911C76.676 138.926 77.083 137.733 77.083 136.437C77.083 135.874 77.0018 135.333 76.8535 134.815L96.9314 124.669Z" fill="white"/>
<path d="M71.0755 134.192C72.3126 134.192 73.3201 135.2 73.3201 136.437C73.3201 137.681 72.3126 138.689 71.0755 138.689C69.8309 138.689 68.8234 137.681 68.8234 136.437C68.8234 135.2 69.8309 134.192 71.0755 134.192ZM71.0755 139.867C72.9643 139.867 74.5051 138.333 74.5051 136.437C74.5051 134.548 72.9643 133.014 71.0755 133.014C69.1788 133.014 67.6455 134.548 67.6455 136.437C67.6455 138.333 69.1788 139.867 71.0755 139.867Z" fill="white"/>
<path d="M40.8207 167.262C40.8207 167.469 40.7319 167.543 40.584 167.543C40.369 167.543 40.3023 167.336 40.2948 167.047L39.1465 167.469C39.2948 168.24 39.8652 168.536 40.584 168.536C41.4282 168.536 42.0282 168.203 42.0282 167.291V164.98H40.8207V167.262Z" fill="white"/>
<path d="M47.6811 167.084L47.8073 166.61C47.9032 166.232 47.9628 165.928 47.9628 165.928H47.9848C47.9848 165.928 48.0515 166.232 48.1553 166.61L48.2811 167.084H47.6811ZM47.1998 164.98L46.0586 168.469H47.2665L47.4073 167.995H48.5553L48.7111 168.469H49.9632L48.8148 164.98H47.1998Z" fill="white"/>
<path d="M55.7489 166.573H55.3931V166.003H55.7564C55.9339 166.003 56.0452 166.106 56.0452 166.284C56.0452 166.492 55.9269 166.573 55.7489 166.573ZM57.1339 167.551C57.0452 167.232 56.8894 167.084 56.5781 167.033V167.01C57.0006 166.943 57.2823 166.684 57.2823 166.106C57.2823 165.269 56.6898 164.98 55.8894 164.98H54.2002V168.47H55.3931V167.491H55.6081C55.786 167.491 55.8748 167.558 55.9119 167.766L55.971 168.032C56.0227 168.24 56.0527 168.351 56.171 168.47H57.4969C57.3714 168.336 57.3194 168.21 57.2602 168.01L57.1339 167.551Z" fill="white"/>
<path d="M62.4974 165.81C61.9495 165.81 61.4978 166.269 61.4978 166.81C61.4978 167.365 61.9495 167.825 62.4974 167.825C63.0453 167.825 63.5049 167.365 63.5049 166.81C63.5049 166.269 63.0453 165.81 62.4974 165.81Z" fill="white"/>
<path d="M69.476 167.558H69.0839V167.062H69.476C69.6689 167.062 69.7577 167.158 69.7577 167.321C69.7577 167.477 69.6835 167.558 69.476 167.558ZM69.0839 165.884H69.3948C69.5873 165.884 69.6539 165.98 69.6539 166.151C69.6539 166.321 69.5723 166.388 69.3802 166.388H69.0839V165.884ZM70.2614 166.698V166.669C70.6168 166.588 70.8318 166.328 70.8318 165.899C70.8318 165.343 70.4539 164.98 69.7502 164.98H67.9131V168.47H69.7502C70.6023 168.47 70.9952 168.084 70.9952 167.543C70.9952 167.128 70.7577 166.766 70.2614 166.698Z" fill="white"/>
<path d="M76.4911 167.158H77.7799V166.291H76.4911V165.973H77.9357V164.98H75.3203V168.469H77.9653V167.469H76.4911V167.158Z" fill="white"/>
<path d="M84.5211 165.958C84.5211 166.291 84.5357 166.573 84.5357 166.573H84.5136C84.5136 166.573 84.3803 166.336 84.1432 166.002L83.447 164.98H82.3799V168.469H83.5949V167.595C83.5949 167.151 83.5803 166.884 83.5803 166.884H83.6095C83.6095 166.884 83.7582 167.128 83.9878 167.44L84.7282 168.469H85.7361V164.98H84.5211V165.958Z" fill="white"/>
<path d="M91.6175 167.469H91.4621V165.98H91.6696C92.1137 165.98 92.2992 166.188 92.2992 166.706C92.2992 167.373 92.1137 167.469 91.6175 167.469ZM91.825 164.98H90.2471V168.469H91.7212C92.8696 168.469 93.5658 167.995 93.5658 166.706C93.5658 165.483 92.8696 164.98 91.825 164.98Z" fill="white"/>
<path d="M99.1313 167.084L99.2575 166.61C99.3534 166.232 99.413 165.928 99.413 165.928H99.435C99.435 165.928 99.5017 166.232 99.6055 166.61L99.7313 167.084H99.1313ZM98.65 164.98L97.5088 168.469H98.7167L98.8571 167.995H100.005L100.161 168.469H101.413L100.265 164.98H98.65Z" fill="white"/>
<path d="M15.1893 138.83V141.326H24.4344V138.482H19.4414V138.393C21.1452 137.341 24.301 135.548 24.301 132.325C24.301 129.414 22.5452 128.17 19.6119 128.17C16.3523 128.17 15.041 130.029 15.041 132.044C15.041 133.118 15.5227 134.17 16.2189 134.8L19.0044 133.444C18.6264 133.074 18.3673 132.659 18.3673 132.155C18.3673 131.54 18.7377 130.992 19.5898 130.992C20.4931 130.992 20.8635 131.651 20.8635 132.459C20.8635 134.185 18.8935 135.763 15.1893 138.83Z" fill="white"/>
<path d="M30.3828 142.771C33.3241 142.771 35.4203 141.304 35.4203 138.133C35.4203 135.637 33.9316 134.252 31.7236 134.252C30.9757 134.252 30.4495 134.451 30.1236 134.777L30.2349 132.459H34.8353V129.614H27.4491L27.1899 137.17H29.5086C29.7753 136.837 30.1457 136.622 30.827 136.622C31.5457 136.622 32.3757 136.97 32.3757 138.415C32.3757 139.748 31.5903 140.319 30.4941 140.319C29.3382 140.319 28.5899 139.704 28.5011 138.437L25.5674 139.704C25.9603 141.719 27.6716 142.771 30.3828 142.771Z" fill="white"/>
<path d="M115.08 132.325C115.08 129.414 113.331 128.169 110.398 128.169C107.131 128.169 105.819 130.028 105.819 132.044C105.819 133.118 106.301 134.17 107.005 134.799L109.783 133.444C109.412 133.073 109.146 132.659 109.146 132.155C109.146 131.54 109.524 130.992 110.376 130.992C111.272 130.992 111.642 131.651 111.642 132.458C111.642 134.185 109.672 135.763 105.975 138.829V141.326H115.213V138.481H110.22V138.393C111.931 137.341 115.08 135.548 115.08 132.325Z" fill="white"/>
<path d="M126.206 138.133C126.206 135.637 124.717 134.252 122.502 134.252C121.761 134.252 121.235 134.451 120.909 134.777L121.013 132.459H125.614V129.614H118.235L117.968 137.17H120.294C120.554 136.837 120.924 136.622 121.606 136.622C122.331 136.622 123.161 136.97 123.161 138.415C123.161 139.748 122.376 140.319 121.28 140.319C120.117 140.319 119.376 139.704 119.287 138.437L116.354 139.704C116.746 141.719 118.45 142.771 121.169 142.771C124.102 142.771 126.206 141.304 126.206 138.133Z" fill="white"/>
<path d="M16.1175 15.5382H127.239C127.566 15.5382 127.83 15.2728 127.83 14.9462C127.83 14.6195 127.566 14.3545 127.239 14.3545H16.1175C15.7908 14.3545 15.5254 14.6195 15.5254 14.9462C15.5254 15.2728 15.7908 15.5382 16.1175 15.5382Z" fill="white"/>
<path d="M127.24 158.694H16.1184C15.7914 158.694 15.5264 158.959 15.5264 159.286C15.5264 159.613 15.7914 159.878 16.1184 159.878H127.24C127.566 159.878 127.831 159.613 127.831 159.286C127.831 158.959 127.566 158.694 127.24 158.694Z" fill="white"/>
<path d="M21.4658 155.53C21.4658 155.857 21.7312 156.122 22.0579 156.122H121.56C121.886 156.122 122.151 155.857 122.151 155.53C122.151 155.203 121.886 154.938 121.56 154.938H22.0579C21.7312 154.938 21.4658 155.203 21.4658 155.53Z" fill="white"/>
<path d="M101.122 152.366H114.863C115.19 152.366 115.454 152.102 115.454 151.775C115.454 151.447 115.19 151.183 114.863 151.183H101.122C100.795 151.183 100.53 151.447 100.53 151.775C100.53 152.102 100.795 152.366 101.122 152.366Z" fill="white"/>
<path d="M28.4589 152.366H39.3426C39.6693 152.366 39.9343 152.102 39.9343 151.775C39.9343 151.447 39.6693 151.183 39.3426 151.183H28.4589C28.1322 151.183 27.8672 151.447 27.8672 151.775C27.8672 152.102 28.1322 152.366 28.4589 152.366Z" fill="white"/>
<path d="M101.15 147.427C100.823 147.427 100.558 147.692 100.558 148.019C100.558 148.346 100.823 148.61 101.15 148.61H108.342C108.668 148.61 108.934 148.346 108.934 148.019C108.934 147.692 108.668 147.427 108.342 147.427H101.15Z" fill="white"/>
<path d="M40.1397 148.019C40.1397 147.692 39.8747 147.427 39.5481 147.427H34.3118C33.9851 147.427 33.7197 147.692 33.7197 148.019C33.7197 148.346 33.9851 148.61 34.3118 148.61H39.5481C39.8747 148.61 40.1397 148.346 40.1397 148.019Z" fill="white"/>
<path d="M120.079 17.7928H24.9032C24.5765 17.7928 24.3115 18.0578 24.3115 18.3845C24.3115 18.7112 24.5765 18.9766 24.9032 18.9766H120.079C120.406 18.9766 120.671 18.7112 120.671 18.3845C120.671 18.0578 120.406 17.7928 120.079 17.7928Z" fill="white"/>
<path d="M114.694 21.8224C114.694 21.4958 114.428 21.2308 114.102 21.2308H85.287C84.9603 21.2308 84.6953 21.4958 84.6953 21.8224C84.6953 22.1491 84.9603 22.4145 85.287 22.4145H114.102C114.428 22.4145 114.694 22.1491 114.694 21.8224Z" fill="white"/>
<path d="M59.3461 21.8224C59.3461 21.4958 59.0811 21.2308 58.7545 21.2308H29.4007C29.0736 21.2308 28.8086 21.4958 28.8086 21.8224C28.8086 22.1491 29.0736 22.4145 29.4007 22.4145H58.7545C59.0811 22.4145 59.3461 22.1491 59.3461 21.8224Z" fill="white"/>
<path d="M90.6444 24.6686C90.3177 24.6686 90.0527 24.9336 90.0527 25.2603C90.0527 25.5874 90.3177 25.8524 90.6444 25.8524H109.668C109.994 25.8524 110.259 25.5874 110.259 25.2603C110.259 24.9336 109.994 24.6686 109.668 24.6686H90.6444Z" fill="white"/>
<path d="M33.8378 25.8524H53.4369C53.7636 25.8524 54.029 25.5874 54.029 25.2603C54.029 24.9336 53.7636 24.6686 53.4369 24.6686H33.8378C33.5111 24.6686 33.2461 24.9336 33.2461 25.2603C33.2461 25.5874 33.5111 25.8524 33.8378 25.8524Z" fill="white"/>
<path d="M16.3157 92.2479L15.9899 92.6184L15.1749 91.8996L15.5007 91.5292C15.7007 91.2921 15.9378 91.255 16.2341 91.5142C16.5378 91.7884 16.5153 92.0179 16.3157 92.2479ZM18.3232 94.663L17.227 93.7071L17.7157 93.1442C18.6416 92.0921 18.7082 90.8921 17.6049 89.9217C16.4636 88.9217 15.3749 89.04 14.3599 90.1959L12.5078 92.3071L16.9603 96.2184L18.3232 94.663Z" fill="white"/>
<path d="M20.4708 86.24C20.9229 85.8104 21.4116 86.025 22.0116 86.6696C22.5975 87.2992 22.7825 87.8029 22.3229 88.2325C21.8708 88.655 21.3746 88.44 20.7896 87.8029C20.1896 87.1658 20.0116 86.6621 20.4708 86.24ZM23.4937 89.4921C24.8787 88.2029 24.9454 86.6696 23.5825 85.2029C22.2121 83.7288 20.6783 83.6917 19.2933 84.9808C17.915 86.2692 17.8408 87.8029 19.2116 89.2696C20.5746 90.7367 22.1154 90.7808 23.4937 89.4921Z" fill="white"/>
<path d="M27.2723 83.4913C27.5611 83.3358 27.724 83.3283 27.8203 83.4542C27.9315 83.6025 27.8719 83.7583 27.6573 83.9208C27.4052 84.1133 27.1315 84.1283 26.8057 83.9208L25.7315 85.5954C26.5461 86.21 27.5761 85.9583 28.5536 85.21C29.7315 84.3138 30.3761 83.1725 29.5094 82.0396C28.7757 81.0763 27.7761 80.98 26.4719 81.7504C26.0494 81.995 25.8498 82.0171 25.7386 81.8688C25.6348 81.7429 25.6865 81.5875 25.8644 81.4538C26.0794 81.2913 26.309 81.2392 26.5386 81.4688L27.8498 79.9133C27.0052 79.2021 26.0127 79.3946 24.9757 80.18C23.9161 80.995 23.2869 82.1063 24.2202 83.3358C24.8794 84.2025 25.7165 84.3358 27.2723 83.4913Z" fill="white"/>
<path d="M23.8271 79.0687L23.4346 78.965L21.9971 80.0616L24.2567 80.402L25.3383 79.5725L25.605 77.3058L24.175 78.402L24.1675 78.8095C24.1675 79.0912 24.2346 79.202 24.2346 79.202L24.19 79.232C24.19 79.232 24.1008 79.1429 23.8271 79.0687Z" fill="white"/>
<path d="M32.7022 75.1053L28.4727 77.772L29.4131 79.2687L30.6431 78.4908L32.8581 82.0095L34.5989 80.9058L32.3839 77.3945L33.6435 76.6016L32.7022 75.1053Z" fill="white"/>
<path d="M38.4881 76.0758L37.5839 76.5354L37.406 75.7129C37.2652 75.0608 37.1098 74.5646 37.1098 74.5646L37.1469 74.5421C37.1469 74.5421 37.4881 74.95 37.9323 75.4458L38.4881 76.0758ZM35.2285 73.72L36.1989 79.8762L38.0285 78.9429L37.8727 78.1133L39.6139 77.2312L40.2139 77.8242L42.1102 76.8537L37.6731 72.4679L35.2285 73.72Z" fill="white"/>
<path d="M42.7474 68.4008L42.399 68.1937L40.7178 68.8454L42.799 69.7937L44.0582 69.305L44.9474 67.1937L43.2657 67.8529L43.1549 68.2454C43.0732 68.5125 43.1032 68.6379 43.1032 68.6379L43.0582 68.6604C43.0582 68.6604 42.9919 68.5416 42.7474 68.4008Z" fill="white"/>
<path d="M44.1998 71.3862C44.6148 71.2233 44.9335 71.4458 45.126 71.8012L46.6668 70.3271C46.0298 69.4975 44.8514 69.2754 43.5923 69.7637C41.7181 70.4975 41.1552 71.9271 41.8739 73.7721C42.5927 75.6091 44.1039 76.1867 45.7335 75.5496C47.0964 75.0237 47.7114 74.2162 47.741 73.0533L45.5927 72.8975C45.726 73.4162 45.6148 73.7496 45.1556 73.9275C44.5777 74.1571 44.1627 73.7421 43.8739 73.0012C43.4964 72.0308 43.711 71.5791 44.1998 71.3862Z" fill="white"/>
<path d="M49.5854 74.0312L53.8971 72.8017L53.4375 71.1792L51.03 71.8608L50.8816 71.3492L52.9933 70.7496L52.5858 69.3271L50.4816 69.9271L50.3337 69.4162L52.7041 68.7421L52.2375 67.1125L47.9629 68.3346L49.5854 74.0312Z" fill="white"/>
<path d="M57.3861 70.5938C57.0823 70.6534 56.8227 70.5421 56.6307 70.2163L54.919 71.2238C55.3636 72.1421 56.4011 72.3721 57.6082 72.1496C59.0607 71.8754 60.1565 71.1496 59.8902 69.7421C59.6677 68.5567 58.8161 68.0159 57.3048 68.12C56.8157 68.1492 56.6307 68.0829 56.5936 67.8971C56.5636 67.7346 56.6748 67.6234 56.8969 67.5863C57.164 67.5342 57.3861 67.5938 57.4973 67.8971L59.364 67.0971C58.9269 66.0825 57.9494 65.8084 56.6748 66.0454C55.3636 66.2971 54.2969 67.0088 54.5857 68.5271C54.7861 69.5942 55.4748 70.09 57.2452 70.0384C57.5711 70.0238 57.7119 70.09 57.7419 70.2459C57.7786 70.4238 57.6532 70.5421 57.3861 70.5938Z" fill="white"/>
<path d="M61.3115 65.3938L61.8378 71.2979L63.8894 71.1129L63.6974 68.9717L63.9936 68.9425L65.3044 70.9867L67.6903 70.7796L65.6899 67.8754L67.0157 64.8825L64.749 65.09L63.8674 67.2383L63.5486 67.2679L63.3636 65.2088L61.3115 65.3938Z" fill="white"/>
<path d="M71.446 69.1862C70.8239 69.1787 70.6235 68.6825 70.6389 67.8158C70.6535 66.9416 70.868 66.4525 71.4901 66.46C72.1201 66.475 72.3201 66.9716 72.3055 67.8454C72.2905 68.712 72.076 69.2012 71.446 69.1862ZM71.5201 64.7416C69.6314 64.712 68.5126 65.7712 68.483 67.7862C68.453 69.7862 69.5276 70.8754 71.4235 70.9125C73.3126 70.9421 74.4239 69.8829 74.461 67.8825C74.491 65.8675 73.4093 64.7712 71.5201 64.7416Z" fill="white"/>
<path d="M78.6762 66.7045C78.9433 66.7341 79.1429 66.8604 79.1574 67.1862L81.1804 66.9562C81.0541 65.8604 80.2024 65.312 78.9133 65.1787C77.5799 65.0304 76.3579 65.4083 76.1945 66.9491C76.0762 68.0308 76.587 68.6974 78.2987 69.1566C78.6166 69.2383 78.7358 69.3495 78.7208 69.505C78.6987 69.6825 78.5504 69.7641 78.2837 69.7341C77.9729 69.6974 77.7579 69.527 77.6612 69.1491L75.7354 69.6233C75.8983 70.6308 76.8245 71.157 78.0466 71.2829C79.5137 71.4458 80.7654 71.0604 80.9212 69.6383C81.0541 68.4379 80.3949 67.6824 78.9133 67.3416C78.4395 67.2308 78.2762 67.1124 78.2987 66.9195C78.3133 66.7641 78.4541 66.6824 78.6762 66.7045Z" fill="white"/>
<path d="M83.4846 65.912L82.3438 71.7199L86.3888 72.5199L86.7292 70.7795L84.7071 70.3866L85.5071 66.3045L83.4846 65.912Z" fill="white"/>
<path d="M91.6862 69.475C92.2791 69.653 92.3454 70.1863 92.0937 71.0234C91.8495 71.853 91.5083 72.268 90.9083 72.09C90.3083 71.9125 90.2491 71.3788 90.4937 70.5492C90.7453 69.7121 91.0862 69.305 91.6862 69.475ZM88.4337 69.9417C87.8637 71.8609 88.6116 73.2013 90.4195 73.7421C92.2341 74.2755 93.5899 73.5571 94.1604 71.638C94.7312 69.705 93.9829 68.3638 92.1674 67.8309C90.3599 67.2896 89.0041 68.0159 88.4337 69.9417Z" fill="white"/>
<path d="M98.3607 70.0825L96.3602 69.2599L95.9307 75.4829L98.1011 76.372L102.154 71.6308L100.161 70.8162L98.8048 72.6083C98.2048 73.4087 97.8861 74.0162 97.8861 74.0162L97.849 74.0012C97.849 74.0012 98.0269 73.335 98.1386 72.3345L98.3607 70.0825Z" fill="white"/>
<path d="M101.183 77.7579L105.153 79.8541L105.939 78.3575L103.724 77.1875L103.976 76.7208L105.909 77.7429L106.606 76.4316L104.664 75.4091L104.909 74.9425L107.094 76.0908L107.879 74.5946L103.946 72.5204L101.183 77.7579Z" fill="white"/>
<path d="M111.457 78.8762L111.427 76.7649L109.916 75.7645L106.642 80.7062L108.36 81.8466L109.183 80.617C109.597 79.9874 109.835 79.5874 109.835 79.5874L109.872 79.6095C109.872 79.6095 109.857 80.1058 109.879 80.7649L109.975 82.9133L111.397 83.8541L114.672 78.9133L112.954 77.7795L112.035 79.1649C111.724 79.6316 111.472 80.0466 111.472 80.0466L111.442 80.0245C111.442 80.0245 111.472 79.5579 111.457 78.8762Z" fill="white"/>
<path d="M117.679 86.5509C118.442 85.6175 118.309 84.625 117.25 83.5284C116.916 83.18 116.85 82.995 116.968 82.8396C117.072 82.7213 117.228 82.7284 117.398 82.8692C117.613 83.0396 117.709 83.2542 117.546 83.5359L119.361 84.4471C119.858 83.4542 119.442 82.5359 118.435 81.7138C117.398 80.8688 116.168 80.5134 115.19 81.7138C114.501 82.5579 114.568 83.4025 115.754 84.7209C115.968 84.9584 116.012 85.1138 115.909 85.24C115.798 85.3804 115.627 85.3584 115.42 85.188C115.175 84.9879 115.094 84.7288 115.22 84.3654L113.346 83.7063C112.931 84.6396 113.419 85.5805 114.375 86.3584C115.516 87.2917 116.776 87.6621 117.679 86.5509Z" fill="white"/>
<path d="M121.918 93.1813L122.851 89.7809L125.985 88.8697L124.37 87.2697L122.162 87.9809L121.932 87.7513L123.385 86.2842L121.918 84.8322L117.747 89.0401L119.206 90.4922L120.725 88.9659L120.933 89.1734L120.214 91.4922L121.918 93.1813Z" fill="white"/>
<path d="M126.844 94.1442C127.452 93.8704 127.911 93.6112 127.911 93.6112L127.933 93.6483C127.933 93.6483 127.615 94.0629 127.222 94.6037L126.726 95.2779L126.081 94.4925L126.844 94.1442ZM123.822 95.4258L124.592 95.1075L125.829 96.6183L125.37 97.33L126.718 98.9892L130.082 93.7296L128.341 91.5958L122.518 93.8404L123.822 95.4258Z" fill="white"/>
</svg>
