<svg width="116" height="150" viewBox="0 0 116 150" fill="none" xmlns="http://www.w3.org/2000/svg">
<path d="M1.2239 26.6044C0.84328 26.7502 0.433038 26.8346 0.00228136 26.8437V26.8163C0.0592598 26.8163 0.111678 26.8163 0.170935 26.8118C0.230193 26.8072 0.291727 26.8027 0.353263 26.7981C0.656389 26.7662 0.945841 26.7001 1.2239 26.6044Z" fill="#F4F2EF"/>
<path d="M3.68536 68.9667C3.67852 71.0179 2.04439 72.684 0.00228136 72.7387V72.6999C2.02843 72.6429 3.66257 70.9997 3.68536 68.9667Z" fill="#F4F2EF"/>
<path d="M3.67852 57.6781C3.67169 57.7739 3.66258 57.8673 3.6489 57.9585C3.6603 57.865 3.67397 57.7716 3.67852 57.6781Z" fill="#F4F2EF"/>
<path d="M3.6489 57.9607C3.61927 58.1909 3.57369 58.4143 3.50531 58.6308C3.48936 58.6832 3.46884 58.7379 3.45061 58.7903C3.43238 58.8428 3.40959 58.8952 3.38908 58.9476C3.34805 59.0502 3.29791 59.1504 3.24777 59.2507C3.06544 59.5926 2.82841 59.9071 2.55491 60.1738C1.89396 60.8279 0.991425 61.2381 0 61.2655V61.2245C0.275776 61.2176 0.542437 61.1812 0.799979 61.1173C1.27404 61.0011 1.70935 60.7983 2.0968 60.5225C2.92185 59.9322 3.50075 59.016 3.64662 57.9607H3.6489Z" fill="#F4F2EF"/>
<path d="M3.67169 34.8389C3.5828 35.983 2.98339 36.9858 2.10136 37.6126C1.71391 37.8884 1.27632 38.0912 0.804535 38.2075C0.546993 38.2713 0.278052 38.3077 0.00455577 38.3146V38.2758C0.433034 38.2644 0.83644 38.1801 1.22161 38.0411C2.55947 37.5465 3.5395 36.3135 3.67169 34.8366V34.8389Z" fill="#F4F2EF"/>
<path d="M3.66941 92.2367C3.59876 93.0777 3.25233 93.8389 2.71901 94.4292C2.06718 95.1517 1.14185 95.6235 0.109401 95.6805C0.0729349 95.6805 0.041022 95.685 0.00455577 95.685V95.6463C1.92587 95.5961 3.48252 94.1193 3.66941 92.2367Z" fill="#F4F2EF"/>
<path d="M3.68536 114.846C3.68536 115.112 3.65802 115.372 3.6056 115.623C3.25689 117.309 1.78001 118.581 0.00228136 118.631V118.59C0.0387476 118.59 0.0706535 118.59 0.10712 118.586C1.14185 118.529 2.06717 118.057 2.71673 117.335C3.31158 116.674 3.67397 115.803 3.68309 114.843L3.68536 114.846Z" fill="#F4F2EF"/>
<path d="M3.67169 103.694C3.51443 105.602 1.94182 107.101 0.00455577 107.156V107.117C1.80735 107.067 3.29791 105.761 3.62155 104.04C3.64434 103.926 3.66257 103.81 3.67169 103.694Z" fill="#F4F2EF"/>
<path d="M3.67852 80.6268C3.67169 80.8 3.65346 80.9686 3.61927 81.1327C3.29563 82.8535 1.80508 84.1594 0.00228136 84.2096V84.1708C0.991427 84.1435 1.89624 83.7332 2.55719 83.0791C2.83297 82.8125 3.06772 82.4979 3.25005 82.1561C3.49392 81.6911 3.64206 81.1738 3.67852 80.6245V80.6268Z" fill="#F4F2EF"/>
<path d="M3.68309 46.1411C3.67853 46.2209 3.67169 46.3007 3.66258 46.3782C3.66941 46.2984 3.67853 46.2209 3.68309 46.1411Z" fill="#F4F2EF"/>
<path d="M3.54178 47.0118C3.53722 47.0254 3.53494 47.0368 3.53266 47.0505C3.53722 47.0368 3.5395 47.0254 3.54178 47.0118Z" fill="#F4F2EF"/>
<path d="M3.3754 47.4699C3.43694 47.3354 3.48708 47.1941 3.53038 47.0482C3.29107 47.8801 2.78055 48.598 2.09225 49.0881C2.04666 49.12 1.99881 49.1519 1.95322 49.1838C1.90764 49.2134 1.85978 49.243 1.80964 49.2727C1.76177 49.3023 1.71163 49.3297 1.66149 49.3547C1.61135 49.3821 1.56121 49.4071 1.51107 49.4299C1.45865 49.455 1.4085 49.4778 1.35608 49.4983C1.30366 49.5211 1.25125 49.5416 1.19655 49.5621C1.14413 49.5804 1.08943 49.6009 1.03473 49.6168C0.980031 49.6328 0.925329 49.651 0.868351 49.6647C0.756673 49.6943 0.642714 49.7194 0.531036 49.7376C0.444429 49.7513 0.355544 49.765 0.268937 49.7741C0.18005 49.7832 0.0934469 49.7878 0.00228136 49.79V49.7513C1.51791 49.7103 2.8079 48.7827 3.3754 47.4676V47.4699Z" fill="#F4F2EF"/>
<path d="M3.63295 46.5924C3.63295 46.6038 3.62839 46.6175 3.62611 46.6289C3.63978 46.5468 3.65573 46.4648 3.66485 46.3804C3.65573 46.4511 3.64662 46.524 3.63295 46.5924Z" fill="#F4F2EF"/>
<path d="M115.135 26.789V26.8482C114.992 26.8482 114.853 26.8346 114.716 26.8186C114.764 26.8186 114.809 26.8186 114.862 26.814C114.914 26.8095 114.967 26.8049 115.019 26.8004H115.024C115.024 26.8004 115.044 26.8004 115.053 26.8004C115.062 26.8004 115.069 26.8004 115.083 26.8004C115.092 26.8004 115.096 26.8004 115.11 26.7958C115.121 26.7958 115.128 26.7958 115.137 26.7913L115.135 26.789Z" fill="#F4F2EF"/>
<path d="M115.135 38.2804V38.3191C114.54 38.31 113.977 38.1642 113.478 37.9089C112.248 37.2844 111.404 36.0081 111.404 34.5358C111.404 34.5859 111.409 34.6338 111.411 34.6839C111.425 35.0098 111.482 35.3289 111.575 35.6275C112.052 37.1499 113.465 38.2599 115.135 38.2827V38.2804Z" fill="#F4F2EF"/>
<path d="M111.406 46.0705C111.406 46.1389 111.411 46.2049 111.416 46.2733C111.411 46.2072 111.406 46.1389 111.406 46.0705Z" fill="#F4F2EF"/>
<path d="M115.135 49.7558V49.7946C115.012 49.7946 114.889 49.7832 114.771 49.7718C114.764 49.7718 114.757 49.7718 114.75 49.7718C114.636 49.7581 114.524 49.7399 114.415 49.7171C114.146 49.6601 113.886 49.5758 113.642 49.4641C113.601 49.4459 113.558 49.4254 113.519 49.4049C113.471 49.3821 113.424 49.357 113.376 49.3319C113.332 49.3091 113.287 49.2841 113.246 49.2567C113.205 49.2339 113.168 49.2089 113.127 49.1838C113.086 49.1587 113.047 49.1314 113.006 49.104C112.991 49.0903 112.97 49.0789 112.954 49.063C112.918 49.0379 112.883 49.0106 112.847 48.9809C112.801 48.9445 112.756 48.9103 112.715 48.8715C112.671 48.8328 112.626 48.794 112.583 48.7507C112.542 48.712 112.503 48.6733 112.464 48.6322C112.423 48.5912 112.387 48.5479 112.348 48.5069C112.309 48.4636 112.273 48.418 112.236 48.3747C112.2 48.3314 112.168 48.2835 112.131 48.2379C111.726 47.6795 111.468 47.0049 111.416 46.2756C111.461 46.8386 111.628 47.365 111.892 47.8323C112.045 48.1057 112.229 48.3587 112.448 48.5798C113.12 49.2932 114.075 49.7422 115.133 49.7558H115.135Z" fill="#F4F2EF"/>
<path d="M115.135 61.2267V61.2678C113.713 61.2473 112.48 60.4427 111.849 59.2644C111.701 58.9818 111.584 58.6832 111.509 58.3664C111.468 58.1978 111.441 58.0291 111.425 57.8536C111.566 59.1504 112.364 60.2513 113.478 60.8165C113.977 61.0718 114.54 61.2176 115.135 61.2267Z" fill="#F4F2EF"/>
<path d="M115.135 72.7022V72.741C114.189 72.7273 113.33 72.3694 112.674 71.7837V71.7791C111.933 71.1182 111.454 70.1769 111.409 69.1194C111.514 71.0977 113.139 72.6703 115.135 72.7022Z" fill="#F4F2EF"/>
<path d="M115.135 84.1754V84.2141C113.07 84.1845 111.404 82.5025 111.404 80.4285C111.409 80.7179 111.445 81.0028 111.509 81.2763C111.584 81.5931 111.703 81.8917 111.849 82.1743C112.48 83.3503 113.711 84.1571 115.135 84.1777V84.1754Z" fill="#F4F2EF"/>
<path d="M115.135 95.6485V95.6873C113.25 95.6577 111.698 94.2537 111.443 92.4304C111.427 92.3187 111.413 92.2048 111.409 92.0908C111.473 93.1233 111.947 94.044 112.669 94.689V94.6936C113.328 95.277 114.187 95.6372 115.133 95.6508L115.135 95.6485Z" fill="#F4F2EF"/>
<path d="M115.135 107.122V107.16C114.688 107.154 114.255 107.069 113.857 106.919H113.847C113.59 106.819 113.341 106.689 113.109 106.536C112.466 106.114 111.965 105.506 111.675 104.786C111.52 104.394 111.422 103.972 111.406 103.53C111.507 105.515 113.134 107.092 115.133 107.122H115.135Z" fill="#F4F2EF"/>
<path d="M115.135 118.595V118.636C115.012 118.636 114.894 118.625 114.773 118.613C114.631 118.599 114.492 118.574 114.358 118.545C114.31 118.533 114.262 118.522 114.212 118.508C114.112 118.481 114.009 118.449 113.914 118.415C113.859 118.397 113.806 118.374 113.754 118.351C113.713 118.337 113.674 118.317 113.633 118.301C113.567 118.271 113.506 118.239 113.442 118.205C113.398 118.182 113.353 118.16 113.312 118.137C113.3 118.13 113.291 118.123 113.28 118.119C113.234 118.091 113.189 118.064 113.145 118.034C113.104 118.009 113.061 117.98 113.022 117.952C113.009 117.943 112.995 117.934 112.981 117.925C112.943 117.895 112.904 117.866 112.865 117.836C112.822 117.802 112.776 117.768 112.733 117.729C112.649 117.656 112.564 117.578 112.485 117.499C112.444 117.458 112.405 117.417 112.368 117.376C112.33 117.332 112.293 117.289 112.257 117.246C111.789 116.676 111.484 115.965 111.418 115.185C111.425 115.238 111.432 115.29 111.438 115.34C111.694 117.164 113.243 118.568 115.131 118.597L115.135 118.595Z" fill="#F4F2EF"/>
<path d="M111.404 11.5871C111.404 11.6509 111.409 11.7102 111.411 11.7717C111.425 12.0977 111.482 12.4167 111.575 12.7153C112.052 14.2378 113.465 15.3477 115.135 15.3705V19.2724C113.07 19.3043 111.404 20.9863 111.404 23.0603C111.404 23.7349 111.582 24.3708 111.894 24.9201C112.047 25.1936 112.232 25.4466 112.45 25.6676C113.032 26.283 113.827 26.7047 114.714 26.8163C114.853 26.8323 114.992 26.8437 115.133 26.846V30.7091C115.01 30.7091 114.891 30.7182 114.773 30.7296C114.764 30.7296 114.757 30.7296 114.748 30.7342C114.627 30.7478 114.508 30.7684 114.39 30.7934C114.228 30.8276 114.069 30.8732 113.916 30.9279C113.873 30.9438 113.827 30.9598 113.786 30.978C113.772 30.9826 113.761 30.9894 113.747 30.9917C113.706 31.0077 113.667 31.0259 113.626 31.0441C113.585 31.0601 113.547 31.0806 113.508 31.0988C113.474 31.1148 113.442 31.133 113.412 31.149C113.319 31.1991 113.23 31.2515 113.141 31.3085C113.098 31.3359 113.054 31.3632 113.016 31.3928C112.97 31.4247 112.922 31.4589 112.879 31.4931C112.833 31.5273 112.79 31.5615 112.747 31.6002C112.706 31.6344 112.662 31.6709 112.621 31.7119C112.58 31.7507 112.539 31.7894 112.498 31.8304C112.418 31.9102 112.343 31.9923 112.27 32.0811C111.744 32.7125 111.422 33.5147 111.402 34.3945C111.402 34.44 111.402 34.4879 111.402 34.5335C111.402 36.0081 112.248 37.2821 113.476 37.9066C113.975 38.1619 114.538 38.3077 115.133 38.3169V42.18C115.01 42.18 114.887 42.1914 114.768 42.2028C114.707 42.2096 114.645 42.2165 114.588 42.2279C114.54 42.2347 114.492 42.2415 114.445 42.2529C114.376 42.2666 114.306 42.2826 114.237 42.3008C114.18 42.3145 114.123 42.3304 114.066 42.3486C114.009 42.3646 113.955 42.3851 113.9 42.4056C113.845 42.4239 113.79 42.4467 113.736 42.4694C113.681 42.49 113.629 42.515 113.576 42.5401C113.524 42.5629 113.471 42.5902 113.421 42.6176C113.369 42.6449 113.319 42.6723 113.269 42.7042C113.228 42.727 113.189 42.7498 113.148 42.7771C113.082 42.8182 113.02 42.8637 112.956 42.9093C112.915 42.9367 112.879 42.9663 112.84 42.9982C112.749 43.0666 112.665 43.1441 112.58 43.2261C111.855 43.9121 111.402 44.8876 111.402 45.9679V46.0067C111.402 46.8386 111.671 47.6089 112.129 48.2357C112.161 48.2812 112.197 48.3291 112.234 48.3724C112.268 48.418 112.302 48.4636 112.346 48.5046C112.38 48.5479 112.418 48.5912 112.462 48.6299C112.5 48.671 112.539 48.7097 112.58 48.7485C112.624 48.7895 112.669 48.8305 112.712 48.8693C112.753 48.9103 112.799 48.9445 112.845 48.9787C112.879 49.0083 112.913 49.0356 112.952 49.0607C112.968 49.0744 112.988 49.0881 113.004 49.1017C113.045 49.1291 113.084 49.1564 113.125 49.1815C113.164 49.2089 113.202 49.2316 113.243 49.2544C113.285 49.2818 113.33 49.3069 113.373 49.3296C113.419 49.3547 113.469 49.3798 113.517 49.4026C113.558 49.4231 113.599 49.4436 113.64 49.4618C113.886 49.5735 114.144 49.6578 114.413 49.7148C114.522 49.7376 114.634 49.7558 114.748 49.7695C114.757 49.7695 114.761 49.7695 114.768 49.7695C114.889 49.7832 115.01 49.79 115.133 49.7923V53.6555C113.795 53.6737 112.624 54.3893 111.965 55.4537C111.634 55.9916 111.432 56.616 111.406 57.2861C111.406 57.3385 111.402 57.3887 111.402 57.4411V57.4798C111.402 57.5209 111.402 57.5619 111.406 57.6006C111.406 57.685 111.413 57.7693 111.422 57.8513C111.436 58.0268 111.466 58.1955 111.507 58.3641C111.582 58.6809 111.701 58.9795 111.846 59.2621C112.478 60.4382 113.708 61.245 115.133 61.2655V65.1263C113.392 65.156 111.935 66.3548 111.52 67.973C111.461 68.2146 111.422 68.4676 111.409 68.7251V68.7456C111.404 68.8026 111.402 68.8573 111.402 68.9143V68.953C111.402 69.01 111.402 69.0647 111.406 69.1194C111.452 70.1769 111.933 71.1182 112.669 71.7791V71.7837C113.328 72.3672 114.187 72.7273 115.133 72.741V76.6041C113.12 76.6337 111.486 78.2337 111.406 80.2347C111.406 80.2872 111.402 80.3373 111.402 80.3897V80.4285C111.402 82.5025 113.068 84.1845 115.133 84.2141V88.075C115.085 88.075 115.037 88.075 114.985 88.0841C114.18 88.1251 113.446 88.4191 112.854 88.8841C112.017 89.5405 111.461 90.541 111.406 91.6715C111.402 91.7398 111.4 91.8105 111.4 91.8811V91.8994C111.4 91.9632 111.4 92.0247 111.406 92.0885C111.411 92.2048 111.422 92.3187 111.441 92.4281C111.696 94.2514 113.246 95.6554 115.133 95.685V99.5482C113.829 99.5664 112.685 100.246 112.017 101.269C111.844 101.526 111.707 101.809 111.607 102.11C111.5 102.415 111.434 102.737 111.411 103.069C111.411 103.074 111.411 103.079 111.411 103.081C111.407 103.124 111.404 103.172 111.402 103.215C111.402 103.268 111.402 103.32 111.402 103.373C111.402 103.425 111.402 103.475 111.406 103.525C111.422 103.967 111.52 104.389 111.675 104.781C111.965 105.501 112.466 106.11 113.109 106.529C113.339 106.684 113.588 106.814 113.847 106.912H113.857C114.253 107.065 114.686 107.149 115.135 107.156V111.019C113.216 111.049 111.646 112.5 111.429 114.369C111.418 114.465 111.411 114.565 111.409 114.666C111.409 114.7 111.409 114.734 111.404 114.768V114.841C111.404 114.873 111.404 114.907 111.404 114.937C111.404 114.978 111.404 115.019 111.411 115.058C111.457 115.883 111.769 116.637 112.261 117.237C112.295 117.28 112.332 117.325 112.373 117.366C112.409 117.407 112.448 117.451 112.489 117.49C112.569 117.572 112.651 117.649 112.738 117.72C112.781 117.758 112.824 117.793 112.87 117.827C112.908 117.859 112.945 117.888 112.986 117.916C113 117.925 113.011 117.934 113.027 117.943C113.068 117.973 113.109 118 113.15 118.025C113.193 118.057 113.239 118.084 113.285 118.109C113.296 118.116 113.305 118.123 113.316 118.128C113.357 118.153 113.403 118.176 113.446 118.196C113.51 118.23 113.572 118.262 113.638 118.292C113.679 118.31 113.718 118.328 113.759 118.342C113.811 118.365 113.863 118.385 113.918 118.406C114.014 118.44 114.116 118.472 114.217 118.499C114.265 118.513 114.312 118.524 114.363 118.536C114.497 118.568 114.636 118.59 114.777 118.604C114.898 118.618 115.017 118.625 115.14 118.627V122.488C115.083 122.488 115.019 122.492 114.964 122.497C114.761 122.51 114.568 122.538 114.376 122.581C114.089 122.645 113.811 122.741 113.551 122.866C112.289 123.481 111.413 124.774 111.413 126.276C111.413 126.772 111.511 127.247 111.687 127.684C111.976 128.404 112.478 129.013 113.12 129.432C113.351 129.587 113.599 129.717 113.859 129.815H113.868C114.265 129.968 114.698 130.052 115.147 130.059V133.961C114.214 133.975 113.367 134.326 112.715 134.895C112.48 135.098 112.273 135.331 112.099 135.586C111.671 136.197 111.416 136.947 111.416 137.749C111.416 139.823 113.082 141.503 115.147 141.537V145.502C115.147 145.502 115.137 145.502 115.133 145.502C115.092 145.498 115.046 145.493 115.003 145.489C114.971 145.489 114.937 145.484 114.907 145.482C114.843 145.477 114.78 145.475 114.714 145.475C114.657 145.475 114.595 145.475 114.54 145.48C114.445 145.484 114.347 145.493 114.255 145.502C112.84 145.676 111.666 146.626 111.176 147.916C111.06 148.219 110.983 148.543 110.948 148.878C110.937 148.976 110.93 149.081 110.93 149.181H107.026C106.985 147.246 105.497 145.671 103.6 145.491C103.541 145.484 103.477 145.48 103.416 145.477C103.359 145.477 103.297 145.473 103.24 145.473C103.142 145.473 103.047 145.477 102.953 145.484C102.912 145.489 102.864 145.491 102.826 145.498C101.513 145.641 100.403 146.455 99.8422 147.59C99.6986 147.88 99.5937 148.192 99.5299 148.518C99.4889 148.734 99.4615 148.955 99.4593 149.181H95.5551C95.5141 147.292 94.0942 145.744 92.264 145.509C92.2048 145.5 92.1455 145.496 92.0863 145.491C92.0042 145.482 91.9244 145.477 91.8424 145.477C91.8196 145.477 91.7923 145.477 91.7717 145.477H91.7535C91.7011 145.477 91.6509 145.477 91.5985 145.482C91.4914 145.489 91.3866 145.498 91.2794 145.512C91.243 145.518 91.2088 145.523 91.1723 145.527C90.1011 145.698 89.1826 146.314 88.6151 147.18V147.184C88.4351 147.451 88.2938 147.738 88.1889 148.046C88.0681 148.404 87.9998 148.787 87.9906 149.183H84.0819C84.0432 147.184 82.4546 145.571 80.4695 145.482C80.4148 145.482 80.3555 145.477 80.2963 145.477H80.2803C79.1863 145.484 78.204 145.951 77.5112 146.699C77.3015 146.929 77.1192 147.189 76.9665 147.467C76.6838 147.98 76.5243 148.563 76.5129 149.185H72.6088C72.57 147.369 71.255 145.869 69.5251 145.546C69.4134 145.523 69.2995 145.505 69.1832 145.496C69.124 145.489 69.0601 145.484 68.9986 145.482C68.9416 145.482 68.8824 145.477 68.8254 145.477C68.7684 145.477 68.7092 145.477 68.6522 145.482C68.6043 145.482 68.561 145.486 68.5177 145.491C68.4676 145.496 68.4174 145.5 68.3673 145.505C68.2738 145.516 68.1804 145.532 68.087 145.55C68.0368 145.562 67.9867 145.571 67.9365 145.582C67.9001 145.591 67.8682 145.6 67.8317 145.61C67.3873 145.73 66.977 145.929 66.6146 146.188C66.3639 146.368 66.1383 146.58 65.9377 146.813C65.3907 147.456 65.058 148.283 65.0375 149.183H61.1333C61.0923 147.271 59.6382 145.708 57.7739 145.502C57.7237 145.496 57.6758 145.491 57.6257 145.489H57.6166C57.5756 145.484 57.5368 145.482 57.4981 145.482C57.4457 145.477 57.3978 145.477 57.3477 145.477C57.2861 145.477 57.2246 145.477 57.1676 145.482C57.1038 145.482 57.0468 145.489 56.9875 145.496C56.869 145.507 56.7505 145.523 56.6388 145.543C56.4086 145.587 56.1876 145.653 55.9733 145.737C55.6884 145.849 55.4218 145.992 55.1756 146.166C54.2252 146.833 53.5939 147.937 53.5666 149.183H49.6601C49.6191 147.248 48.1308 145.671 46.2369 145.493C46.1753 145.486 46.1161 145.482 46.0522 145.48C45.993 145.48 45.936 145.475 45.8768 145.475C45.8289 145.475 45.781 145.475 45.7309 145.475C45.6511 145.475 45.5736 145.482 45.4984 145.491C45.4551 145.496 45.4164 145.5 45.3776 145.505C45.1474 145.534 44.9264 145.587 44.7144 145.655C43.217 146.141 42.1299 147.529 42.0934 149.179H38.1915C38.1573 147.556 37.1021 146.186 35.6434 145.685C35.5978 145.669 35.55 145.653 35.5021 145.639C35.4816 145.63 35.4588 145.625 35.436 145.619C35.3973 145.607 35.3608 145.598 35.3221 145.589C35.142 145.541 34.9574 145.509 34.7682 145.493C34.7318 145.489 34.7021 145.486 34.668 145.484C34.6155 145.48 34.5586 145.477 34.5016 145.475H34.4925C34.4628 145.475 34.4309 145.475 34.4036 145.475H34.3853C34.3261 145.475 34.2691 145.475 34.2099 145.48C34.0891 145.486 33.9705 145.498 33.8497 145.516C33.8497 145.516 33.8406 145.516 33.8384 145.516C32.0378 145.783 30.659 147.314 30.6179 149.181H26.7138C26.6887 148.007 26.1326 146.968 25.2733 146.289C25.0021 146.074 24.6945 145.897 24.3708 145.76C23.9401 145.582 23.4706 145.48 22.9737 145.475C22.96 145.475 22.9441 145.475 22.9281 145.475C22.7982 145.475 22.6683 145.482 22.5384 145.493C22.4837 145.5 22.4313 145.507 22.3766 145.514C22.3241 145.521 22.2695 145.527 22.217 145.539C22.1646 145.55 22.1122 145.559 22.0598 145.573C20.5533 145.929 19.3932 147.182 19.1767 148.743C19.1584 148.887 19.1448 149.033 19.1425 149.181H15.2383C15.2246 148.618 15.0924 148.085 14.86 147.611C14.6685 147.219 14.4155 146.865 14.1101 146.564C13.4697 145.933 12.6059 145.527 11.6464 145.48C11.5803 145.48 11.521 145.475 11.4549 145.475C11.4025 145.475 11.3501 145.475 11.2977 145.48C11.2339 145.48 11.1746 145.486 11.1131 145.493C9.20544 145.662 7.70804 147.241 7.66701 149.183H3.76286C3.75374 148.709 3.65801 148.256 3.48708 147.841C2.9606 146.539 1.73442 145.603 0.273492 145.489C0.239305 145.489 0.205125 145.484 0.173217 145.482C0.132192 145.482 0.0911635 145.482 0.0478599 145.477H0.0159556V141.537C1.79368 141.487 3.27056 140.215 3.61927 138.528C3.67169 138.278 3.69904 138.018 3.69904 137.751C3.69904 137.621 3.69448 137.489 3.68081 137.359C3.48936 135.52 1.98741 134.075 0.123075 133.975C0.0866092 133.97 0.0546962 133.965 0.01823 133.965V130.059C2.06262 130.002 3.70132 128.334 3.70132 126.278C3.70132 125.792 3.61471 125.332 3.44377 124.906C3.33665 124.621 3.18851 124.354 3.01758 124.108C2.93781 123.992 2.8512 123.883 2.76003 123.778C2.75547 123.773 2.75092 123.769 2.74864 123.766C2.07857 123.007 1.1031 122.522 0.01823 122.49V118.625C1.79596 118.574 3.27284 117.303 3.62155 115.616C3.67397 115.365 3.70132 115.106 3.70132 114.839C3.70132 114.805 3.70132 114.771 3.70132 114.736C3.70132 114.695 3.70132 114.657 3.69676 114.616C3.69676 114.559 3.6922 114.502 3.68309 114.447C3.67625 114.388 3.66941 114.331 3.66258 114.274C3.51215 113.164 2.87855 112.209 1.97829 111.625C1.61819 111.393 1.21706 111.217 0.786298 111.117C0.540151 111.058 0.28261 111.024 0.01823 111.017V107.149C1.9555 107.094 3.5281 105.592 3.68536 103.687C3.69676 103.582 3.69904 103.475 3.69904 103.368V103.327C3.69904 103.24 3.69904 103.154 3.6922 103.072C3.56457 101.134 1.97373 99.596 0.0159556 99.5413V95.6736C0.0524218 95.6736 0.0843278 95.6736 0.120794 95.6691C1.15552 95.6121 2.08085 95.1426 2.73041 94.4178C3.26373 93.8275 3.61015 93.0663 3.68081 92.2253C3.68764 92.1638 3.6922 92.1045 3.69448 92.043C3.69904 91.9928 3.69904 91.9427 3.69904 91.8903V91.8515C3.69904 91.2225 3.54862 90.6299 3.2774 90.108C3.11786 89.798 2.91274 89.5131 2.68027 89.2624C2.0102 88.549 1.06892 88.0955 0.0159556 88.0659V84.1982C1.81875 84.148 3.30931 82.8421 3.63295 81.1213C3.66713 80.9572 3.68536 80.7863 3.6922 80.6154C3.69676 80.547 3.69904 80.4832 3.69904 80.4148C3.69904 80.3715 3.69904 80.3282 3.69904 80.2872C3.69904 80.2461 3.69904 80.2028 3.69448 80.1618C3.58508 78.204 1.99196 76.6497 0.01823 76.595V72.7273C2.06034 72.6726 3.69448 71.0088 3.70132 68.9553V68.9416C3.70132 68.8641 3.70132 68.7866 3.69448 68.7092C3.68308 68.4698 3.65346 68.2351 3.59648 68.0117C3.20447 66.3844 1.75721 65.1674 0.01823 65.1195V61.2541C1.00738 61.2267 1.9122 60.8165 2.57315 60.1624C2.84892 59.8957 3.08367 59.5812 3.266 59.2393C3.31614 59.1413 3.364 59.0388 3.40731 58.9362C3.4301 58.8838 3.45061 58.8314 3.46885 58.7789C3.48936 58.7265 3.50987 58.6741 3.52354 58.6194C3.61927 58.3163 3.67853 57.9972 3.69676 57.6667C3.70132 57.6006 3.7036 57.5368 3.7036 57.4684C3.7036 57.4001 3.7036 57.3408 3.69904 57.277C3.69904 57.2132 3.6922 57.1539 3.68536 57.0924C3.51898 55.1916 1.95094 53.6965 0.0205114 53.6463V49.7786C0.111677 49.7786 0.198287 49.7695 0.287174 49.7627C0.37606 49.7536 0.462666 49.7422 0.549273 49.7262C0.665509 49.708 0.777182 49.6852 0.886581 49.6533C0.943559 49.6396 0.998261 49.6237 1.05296 49.6054C1.10766 49.5917 1.16236 49.5712 1.21478 49.5507C1.26948 49.5325 1.3219 49.5097 1.37432 49.4869C1.42674 49.4664 1.47916 49.4436 1.5293 49.4185C1.58172 49.3957 1.63186 49.3707 1.67972 49.3433C1.72986 49.3183 1.77772 49.2909 1.82787 49.2613C1.87573 49.2339 1.92359 49.2043 1.97145 49.1724C2.01931 49.1428 2.0649 49.1131 2.11048 49.0767C3.04037 48.4157 3.65802 47.3468 3.69904 46.1297C3.69904 46.1001 3.69904 46.0682 3.69904 46.0363V45.9565C3.69904 45.9064 3.69904 45.8562 3.69448 45.8084C3.6808 45.3936 3.59875 44.9993 3.45745 44.6301C3.4187 44.5207 3.37312 44.4158 3.32298 44.3133C3.25005 44.1606 3.16572 44.0124 3.07228 43.8711C3.07228 43.8711 3.06772 43.8711 3.06772 43.8666C3.00618 43.7731 2.94008 43.6797 2.86715 43.5908C2.7965 43.5019 2.71901 43.4176 2.64152 43.3355C2.60277 43.2945 2.56175 43.2535 2.52073 43.2147C2.4797 43.1737 2.43868 43.1372 2.39538 43.1008C2.35435 43.0597 2.30877 43.0256 2.26546 42.9914C2.22444 42.9549 2.18114 42.923 2.13783 42.8934C2.08541 42.8546 2.03299 42.8204 1.98057 42.7862C1.93727 42.7543 1.89169 42.727 1.8461 42.7019C1.79824 42.67 1.74809 42.6427 1.69795 42.6176C1.65009 42.588 1.59996 42.5629 1.54754 42.5401C1.49512 42.515 1.4427 42.49 1.39028 42.4694C1.34013 42.4467 1.28771 42.4284 1.23529 42.4079C1.08031 42.3487 0.920773 42.3008 0.756675 42.262C0.699697 42.2484 0.640435 42.237 0.581177 42.2279C0.533315 42.2165 0.485455 42.2119 0.433035 42.2051C0.360102 42.1914 0.284893 42.1868 0.207402 42.18C0.143586 42.1732 0.0820506 42.1709 0.0159556 42.1686V38.3009C0.291731 38.2941 0.558386 38.2576 0.815928 38.1938C1.28999 38.0775 1.7253 37.8747 2.11276 37.5989C2.99478 36.9699 3.5942 35.9671 3.68309 34.8252C3.68992 34.7682 3.6922 34.7113 3.69448 34.6543C3.69904 34.611 3.69904 34.5654 3.69904 34.5198C3.69904 34.4537 3.69904 34.3922 3.69448 34.3284C3.69448 34.2668 3.68764 34.2076 3.68081 34.146C3.6489 33.7586 3.56001 33.3894 3.41871 33.0452C2.86488 31.6982 1.55437 30.741 0.0159556 30.7V26.8323C0.446713 26.8209 0.856954 26.7366 1.23757 26.593C1.27859 26.5793 1.31734 26.5656 1.35608 26.5497C1.44269 26.5132 1.52702 26.4767 1.60907 26.4357C2.40449 26.0391 3.03809 25.3691 3.39136 24.5509C3.51443 24.2751 3.60104 23.9788 3.6489 23.6711C3.68765 23.4683 3.70132 23.2609 3.70132 23.0489C3.70132 20.9909 2.0649 19.3203 0.01823 19.2633V15.3568C0.446708 15.3454 0.850114 15.2611 1.23529 15.1221C2.6757 14.591 3.70132 13.203 3.70132 11.5757C3.70132 11.0675 3.60332 10.5798 3.42099 10.1376C2.86716 8.79063 1.55665 7.8334 0.01823 7.79237V3.89733C0.0752085 3.89733 0.127633 3.89733 0.186891 3.89277C0.246148 3.88821 0.307682 3.88365 0.369219 3.87909C2.27914 3.68309 3.77197 2.06946 3.77197 0.10712C3.77197 0.0706535 3.76513 0.0387476 3.76513 0.00228136H7.6693C7.6693 0.0387476 7.6693 0.0706535 7.6693 0.10712C7.6693 2.14695 9.27837 3.81072 11.2977 3.89277C11.3501 3.89277 11.4071 3.89733 11.4595 3.89733H11.4937C13.57 3.87909 15.2451 2.18569 15.2451 0.10712C15.2451 0.0706535 15.2383 0.0387476 15.2383 0.00228136H19.147C19.147 0.0387476 19.1402 0.0706535 19.1402 0.10712C19.1402 0.298567 19.1561 0.485458 19.1835 0.667789C19.441 2.42956 20.9179 3.79476 22.7253 3.89277C22.7914 3.89277 22.862 3.89733 22.9281 3.89733H22.9418C23.0056 3.89733 23.0626 3.89733 23.1264 3.89049C23.1674 3.89049 23.2085 3.88593 23.2495 3.88137C23.2928 3.88137 23.3338 3.87453 23.3748 3.8677C23.4386 3.85858 23.4979 3.85174 23.564 3.84035C23.6278 3.82895 23.6893 3.81756 23.7486 3.8016C24.4962 3.63978 25.1594 3.25461 25.6654 2.72129C26.3149 2.04211 26.716 1.11906 26.716 0.104842C26.716 0.0683756 26.7115 0.0364662 26.7115 0H30.6179C30.6179 0.0364662 30.6111 0.0683756 30.6111 0.104842C30.6111 2.06718 32.1016 3.68081 34.0138 3.87681C34.0594 3.88137 34.1073 3.88593 34.1529 3.88821C34.1779 3.88821 34.203 3.89277 34.2258 3.89277C34.2828 3.89277 34.342 3.89733 34.4013 3.89733C34.4606 3.89733 34.5221 3.89733 34.5836 3.89049C34.6474 3.89049 34.7067 3.88365 34.7682 3.87681C34.7751 3.87681 34.7819 3.87681 34.7865 3.87681C34.9825 3.85858 35.1716 3.82439 35.3563 3.77653C35.7278 3.68081 36.081 3.52355 36.4024 3.32298C37.4736 2.6552 38.1892 1.46549 38.1892 0.109401C38.1892 0.0729349 38.1824 0.0410254 38.1801 0.00455925H42.0843C42.0843 0.0410254 42.0843 0.0729349 42.0843 0.109401C42.0843 1.61135 42.9617 2.91046 44.2312 3.52811C44.3178 3.56913 44.4044 3.61015 44.4933 3.64434C44.5389 3.6603 44.5845 3.67853 44.6323 3.69448C44.6984 3.71727 44.7645 3.73779 44.8329 3.7583C44.9241 3.78337 45.013 3.80616 45.1064 3.82667C45.1725 3.84035 45.2386 3.85174 45.307 3.86314C45.3594 3.86998 45.4118 3.87682 45.4642 3.88137C45.4733 3.88137 45.4779 3.88137 45.487 3.88137C45.5508 3.88821 45.6101 3.89277 45.6762 3.89505H45.683C45.74 3.89505 45.7993 3.8996 45.8585 3.8996H45.8745C45.9383 3.8996 45.9998 3.89961 46.0568 3.89505C48.0647 3.79932 49.6647 2.14011 49.6647 0.109401C49.6647 0.0729349 49.6578 0.0410254 49.6578 0.00455925H53.5666C53.5666 0.0410254 53.5597 0.0729349 53.5597 0.109401C53.5597 1.40851 54.2138 2.55492 55.2121 3.23638C55.4582 3.40959 55.7272 3.54634 56.0144 3.65574C56.1944 3.72411 56.379 3.77653 56.5705 3.81755C56.5773 3.81755 56.5841 3.82212 56.5932 3.8244C56.6799 3.84035 56.7688 3.85858 56.8599 3.8677C56.9602 3.88137 57.065 3.89049 57.1699 3.89505C57.2291 3.89505 57.2884 3.8996 57.3454 3.8996C57.4024 3.8996 57.4639 3.89961 57.5209 3.89505C59.5311 3.8016 61.1333 2.14239 61.1333 0.109401C61.1333 0.0729349 61.1265 0.0410254 61.1242 0.00455925H65.0306C65.0306 0.0410254 65.0261 0.0729349 65.0261 0.109401C65.0261 0.939007 65.295 1.70935 65.744 2.33384C65.9263 2.58454 66.136 2.8079 66.373 3.00618C66.7309 3.31159 67.1479 3.54862 67.6038 3.70132C67.6083 3.70132 67.6106 3.70132 67.6174 3.70588C67.6972 3.73323 67.7815 3.7583 67.8659 3.77881C67.8659 3.77881 67.8727 3.77881 67.875 3.77881C67.9 3.78565 67.9274 3.79249 67.9525 3.79477C68.0208 3.81072 68.0915 3.82667 68.1622 3.83807C68.169 3.83807 68.1758 3.83807 68.1804 3.84263C68.2761 3.8563 68.3741 3.87226 68.4721 3.88137C68.5291 3.88593 68.5838 3.89049 68.6453 3.89277C68.7023 3.89277 68.7593 3.89733 68.8185 3.89733C68.8778 3.89733 68.9393 3.89733 68.9963 3.89277C71.002 3.79932 72.6042 2.14011 72.6042 0.10712C72.6042 0.0706535 72.6042 0.0387476 72.6042 0.00228136H76.5084C76.5084 0.0387476 76.5084 0.0706535 76.5084 0.10712C76.5084 0.526481 76.5767 0.932167 76.7066 1.3105C76.8092 1.62275 76.9505 1.91676 77.1283 2.1857C77.6297 2.95149 78.4 3.52355 79.3049 3.76742C79.314 3.76742 79.3208 3.77198 79.3299 3.77425H79.3368C79.4393 3.80388 79.5464 3.82439 79.6558 3.84263C79.7105 3.85402 79.763 3.86314 79.8199 3.86998C79.8678 3.87454 79.9134 3.87909 79.9658 3.88365C80.0182 3.88821 80.0684 3.89277 80.1208 3.89733C80.1732 3.89733 80.2256 3.90189 80.2781 3.90189H80.294C82.3908 3.90189 84.0865 2.20393 84.0865 0.111679C84.0865 0.0752128 84.0774 0.0433068 84.0774 0.00684061H87.9884C87.9884 0.0433068 87.9793 0.0752128 87.9793 0.111679C87.9793 0.180053 87.9793 0.246148 87.9861 0.314522C88.0043 0.676905 88.0727 1.02561 88.1889 1.35381C88.5946 2.52301 89.5564 3.43238 90.753 3.76514C90.7758 3.77197 90.7963 3.77653 90.8191 3.78109C90.8624 3.79477 90.9125 3.80388 90.9604 3.81528C91.0196 3.82895 91.0766 3.84263 91.1359 3.85174C91.1928 3.86314 91.2521 3.86998 91.3114 3.87681C91.3592 3.88365 91.4116 3.88821 91.4618 3.89049C91.5074 3.89505 91.5529 3.89732 91.594 3.8996C91.6555 3.8996 91.7125 3.90416 91.7695 3.90416C91.8173 3.90416 91.8697 3.90416 91.9222 3.8996C93.9415 3.81983 95.5597 2.15378 95.5597 0.113957C95.5597 0.0774907 95.5551 0.0455847 95.5528 0.0091185H99.4593C99.4593 0.0455847 99.4547 0.0774907 99.4547 0.113957C99.4547 0.26438 99.4638 0.412525 99.4775 0.560669C99.694 2.38626 101.201 3.813 103.063 3.90189C103.122 3.90189 103.183 3.90644 103.243 3.90644C103.352 3.90644 103.466 3.90188 103.575 3.89277C103.582 3.89277 103.589 3.89277 103.596 3.89277C103.781 3.87681 103.963 3.84491 104.141 3.79932C104.195 3.78565 104.255 3.76969 104.309 3.75374C105.362 3.44833 106.221 2.69622 106.677 1.72075C106.907 1.23529 107.033 0.69058 107.033 0.118516C107.033 0.0820499 107.033 0.0501439 107.033 0.0136777H110.937C110.937 0.0501439 110.93 0.0820499 110.93 0.118516C110.93 1.80736 112.033 3.2341 113.558 3.72639C113.576 3.73323 113.594 3.74007 113.61 3.74235C113.677 3.76286 113.743 3.78109 113.811 3.79704C113.904 3.81983 114 3.84035 114.098 3.8563C114.157 3.86998 114.221 3.87681 114.283 3.88365C114.426 3.89961 114.572 3.90872 114.72 3.90872C114.773 3.90872 114.825 3.90872 114.88 3.90416C114.932 3.8996 114.985 3.89505 115.037 3.89049H115.042C115.042 3.89049 115.062 3.89049 115.071 3.89049C115.08 3.89049 115.087 3.89049 115.101 3.89049C115.11 3.89049 115.115 3.89049 115.128 3.88593C115.14 3.88593 115.147 3.88593 115.156 3.88137V7.80377C113.091 7.8334 111.425 9.51768 111.425 11.5894L111.404 11.5871Z" fill="#F4F2EF"/>
<path d="M18.4823 134.074C18.4823 135.106 18.2647 135.84 17.8377 136.283C17.4025 136.727 16.6925 136.952 15.7014 136.952C15.3469 136.952 14.9683 136.896 14.5812 136.799C14.1945 136.702 13.7996 136.557 13.4043 136.363V134.429C13.7266 134.76 14.073 135.017 14.4361 135.187C14.8065 135.364 15.1778 135.453 15.5482 135.453C15.9838 135.453 16.3062 135.34 16.5075 135.123C16.7092 134.905 16.814 134.55 16.814 134.074V129.811H14.7748V128.344H18.4823V134.074Z" fill="#EF4E23"/>
<path d="M49.0638 128.19C49.4509 128.19 49.8376 128.23 50.2247 128.32C50.6114 128.408 50.9982 128.537 51.3772 128.714V130.342C51.0222 130.093 50.6518 129.899 50.2887 129.762C49.9183 129.633 49.5551 129.569 49.1924 129.569C48.7899 129.569 48.4834 129.649 48.2658 129.811C48.0482 129.972 47.943 130.206 47.943 130.503C47.943 130.737 48.0242 130.93 48.177 131.084C48.3302 131.237 48.6607 131.407 49.1603 131.592L49.8779 131.866C50.5548 132.116 51.0549 132.438 51.3691 132.849C51.6914 133.26 51.8523 133.784 51.8523 134.405C51.8523 135.259 51.6029 135.896 51.0952 136.315C50.5951 136.734 49.8375 136.952 48.822 136.952C48.4027 136.952 47.9834 136.896 47.5645 136.799C47.1456 136.702 46.7339 136.549 46.3477 136.355V134.631C46.7906 134.945 47.2181 135.179 47.6375 135.34C48.0482 135.493 48.4594 135.566 48.8702 135.566C49.2818 135.566 49.596 135.477 49.8213 135.292C50.047 135.098 50.1599 134.84 50.1599 134.502C50.1599 134.252 50.0874 134.034 49.9342 133.841C49.7896 133.647 49.5715 133.502 49.2818 133.389L48.4594 133.083C47.6207 132.761 47.0568 132.422 46.7585 132.067C46.4601 131.721 46.3155 131.245 46.3155 130.648C46.3155 129.883 46.5571 129.278 47.0485 128.843C47.5323 128.408 48.2092 128.19 49.0638 128.19Z" fill="#EF4E23"/>
<path d="M92.2667 134.074C92.2667 135.106 92.0494 135.84 91.6219 136.283C91.1867 136.727 90.4777 136.952 89.4858 136.952C89.1312 136.952 88.7608 136.896 88.3659 136.799C87.9788 136.702 87.5839 136.557 87.189 136.363V134.429C87.5114 134.76 87.8582 135.017 88.2285 135.187C88.5912 135.364 88.9621 135.453 89.3411 135.453C89.7763 135.453 90.0905 135.34 90.3 135.123C90.5017 134.905 90.5983 134.55 90.5983 134.074V129.811H88.5673V128.344H92.2667V134.074Z" fill="#EF4E23"/>
<path d="M23.2539 134.082C23.2539 134.509 23.3591 134.84 23.5762 135.082C23.7861 135.315 24.084 135.436 24.4629 135.436C24.8419 135.436 25.1403 135.315 25.3579 135.082C25.576 134.84 25.6802 134.509 25.6802 134.082V128.343H27.3409V133.671C27.3409 134.816 27.1151 135.646 26.664 136.17C26.2043 136.686 25.4707 136.952 24.4629 136.952C23.4638 136.952 22.7303 136.686 22.2706 136.17C21.8113 135.646 21.586 134.816 21.586 133.671V128.343H23.2539V134.082Z" fill="#EF4E23"/>
<path d="M33.3457 128.19C33.6843 128.19 34.0226 128.238 34.3453 128.335C34.6758 128.424 34.9818 128.569 35.2638 128.746V130.6C35.0303 130.294 34.7642 130.068 34.4582 129.915C34.1599 129.762 33.8294 129.69 33.4667 129.69C32.8298 129.69 32.3623 129.923 32.0481 130.399C31.7335 130.882 31.5803 131.6 31.5803 132.567C31.5803 133.51 31.7335 134.227 32.0318 134.711C32.3302 135.203 32.7736 135.452 33.3457 135.452C33.5234 135.452 33.668 135.436 33.7972 135.404C33.9259 135.372 34.0311 135.324 34.1114 135.259V133.647H32.9671V132.244H35.5626V136.113C35.248 136.388 34.8934 136.597 34.5067 136.734C34.1196 136.879 33.7088 136.952 33.2649 136.952C32.1769 136.952 31.3309 136.565 30.7424 135.807C30.1454 135.05 29.8475 133.969 29.8475 132.567C29.8476 131.148 30.1454 130.06 30.7502 129.311C31.3468 128.561 32.2173 128.19 33.3457 128.19Z" fill="#EF4E23"/>
<path fill-rule="evenodd" clip-rule="evenodd" d="M40.8667 128.19C41.8419 128.19 42.5835 128.553 43.0754 129.295C43.575 130.036 43.8248 131.124 43.8248 132.567C43.8248 134.01 43.575 135.098 43.0754 135.839C42.5835 136.581 41.8418 136.952 40.8667 136.952C39.8911 136.952 39.1498 136.581 38.6502 135.839C38.1501 135.098 37.9085 134.01 37.9085 132.567C37.9085 131.124 38.1502 130.036 38.6502 129.295C39.1498 128.553 39.8911 128.19 40.8667 128.19ZM40.8667 129.69C40.4396 129.69 40.1254 129.915 39.9318 130.366C39.7383 130.826 39.6412 131.56 39.6412 132.567C39.6412 133.583 39.7383 134.316 39.9318 134.767C40.1254 135.219 40.4396 135.453 40.8667 135.453C41.2937 135.453 41.6079 135.219 41.8019 134.767C41.9951 134.316 42.0921 133.583 42.0921 132.567C42.0921 131.56 41.9951 130.826 41.8019 130.366C41.6079 129.915 41.2937 129.69 40.8667 129.69Z" fill="#EF4E23"/>
<path fill-rule="evenodd" clip-rule="evenodd" d="M68.7546 136.783H67.0863L66.5709 134.695H64.338L63.8299 136.783H62.1697L64.4424 128.344H66.4815L68.7546 136.783ZM64.6762 133.325H66.2481L65.4583 129.867L64.6762 133.325Z" fill="#EF4E23"/>
<path d="M73.6561 135.396L75.139 128.343H76.8155L74.8167 136.783H72.5032L70.5044 128.343H72.1809L73.6561 135.396Z" fill="#EF4E23"/>
<path d="M84.368 129.811H82.6919V135.316H84.368V136.783H79.3465V135.316H81.023V129.811H79.3465V128.344H84.368V129.811Z" fill="#EF4E23"/>
<path fill-rule="evenodd" clip-rule="evenodd" d="M101.554 136.783H99.885L99.369 134.695H97.1363L96.6285 136.783H94.9602L97.241 128.344H99.272L101.554 136.783ZM97.4667 133.325H99.0467L98.2565 129.867L97.4667 133.325Z" fill="#EF4E23"/>
<path d="M56.7211 135.315H60.2835V136.782H55.0522V128.343H56.7211V135.315Z" fill="#EF4E23"/>
<path d="M23.4556 120.154H22.0851V124.104H20.8039V120.154H19.4574V119.042H23.4556V120.154Z" fill="#EF4E23"/>
<path d="M29.7664 119.042V120.154H28.3877V124.104H27.1147V120.154H25.7682V119.042H29.7664Z" fill="#EF4E23"/>
<path fill-rule="evenodd" clip-rule="evenodd" d="M15.3796 119.041C16.6929 119.041 17.2334 119.638 17.2334 120.798C17.2334 121.903 16.5806 122.548 15.5007 122.548H14.7753V124.103H13.485V119.041H15.3796ZM14.7753 121.491H15.3315C15.7668 121.491 15.9681 121.282 15.9681 120.847C15.9681 120.347 15.7745 120.121 15.3393 120.121H14.7753V121.491Z" fill="#EF4E23"/>
<path d="M101.462 122.712C101.817 122.712 102.105 123 102.105 123.356C102.105 123.712 101.817 124 101.462 124H31.5466C31.1916 124 30.9042 123.712 30.9042 123.356C30.9042 123 31.1916 122.712 31.5466 122.712H101.462Z" fill="#EF4E23"/>
<path d="M101.462 119.058C101.817 119.058 102.105 119.347 102.105 119.702C102.105 120.058 101.817 120.346 101.462 120.346H31.5466C31.1916 120.346 30.9042 120.058 30.9042 119.702C30.9042 119.347 31.1916 119.058 31.5466 119.058H101.462Z" fill="#EF4E23"/>
<path d="M101.463 115.403C101.818 115.403 102.105 115.691 102.105 116.047C102.105 116.403 101.818 116.69 101.463 116.69H13.6948C13.3398 116.69 13.0524 116.403 13.0524 116.047C13.0524 115.691 13.3398 115.403 13.6948 115.403H101.463Z" fill="#EF4E23"/>
<path fill-rule="evenodd" clip-rule="evenodd" d="M97.3214 29.3943C97.66 29.3862 97.9741 29.6436 97.9986 29.9904C98.0231 30.4492 98.0549 30.8998 98.0712 31.3505H101.46C101.815 31.3505 102.103 31.6388 102.103 31.9943C102.103 32.3497 101.815 32.6376 101.46 32.6376H98.1274C98.1601 33.4106 98.1759 34.2076 98.1759 35.0042V35.0054H101.46C101.815 35.0054 102.103 35.2934 102.103 35.6488C102.103 36.0051 101.815 36.2925 101.46 36.2925H98.16V36.2935C98.1519 37.0746 98.1273 37.8634 98.0793 38.6604H101.46C101.815 38.6604 102.103 38.9483 102.103 39.3042C102.103 39.6597 101.815 39.9475 101.46 39.9475H97.9905C97.942 40.7205 97.8694 41.518 97.781 42.315V42.3158H101.46C101.815 42.3158 102.103 42.6038 102.103 42.9592C102.103 43.3155 101.815 43.6029 101.46 43.6029H97.6282C97.6282 43.6033 97.6282 43.6038 97.6278 43.6043C97.5231 44.3772 97.4102 45.158 97.2656 45.9708H101.46C101.815 45.9708 102.103 46.2587 102.103 46.6146C102.103 46.97 101.815 47.2579 101.46 47.2579H97.023C96.8775 48.0313 96.7084 48.8202 96.5157 49.6176C96.5153 49.618 96.5152 49.6189 96.5152 49.6194H101.46C101.815 49.6194 102.103 49.9078 102.103 50.2632C102.103 50.6187 101.815 50.9066 101.46 50.9066H96.1934V50.9074C95.9757 51.7366 95.7505 52.5173 95.5007 53.2744H101.46C101.815 53.2744 102.103 53.5623 102.103 53.9178C102.103 54.2736 101.815 54.5615 101.46 54.5615H95.0877C94.8143 55.3666 94.5241 56.1556 94.2181 56.9285C94.218 56.929 94.2176 56.9295 94.2176 56.9303H101.46C101.815 56.9303 102.103 57.2182 102.103 57.5736C102.103 57.9295 101.815 58.2174 101.46 58.2174H93.6786C93.6786 58.2174 93.6785 58.2179 93.6782 58.2183C93.3481 59.0071 92.9858 59.8041 92.591 60.5848H101.46C101.815 60.5848 102.103 60.8727 102.103 61.2286C102.103 61.584 101.815 61.8719 101.46 61.8719H91.9359C91.5093 62.6852 91.0659 63.4822 90.6071 64.2393L90.6066 64.2398H101.46C101.815 64.2398 102.103 64.5277 102.103 64.8836C102.103 65.239 101.815 65.5268 101.46 65.5268H89.462C89.4592 65.5268 89.4569 65.5292 89.4542 65.5292C89.3821 65.5292 89.3178 65.5206 89.2529 65.4966C89.2416 65.4925 89.2298 65.4838 89.2184 65.4792C89.2053 65.4738 89.1935 65.4666 89.1808 65.4602C89.1563 65.4484 89.1319 65.4398 89.1083 65.424C89.1083 65.424 89.0997 65.4239 89.092 65.4162C89.0611 65.3917 89.0334 65.3673 89.0062 65.3424C89.004 65.3406 89.0008 65.3387 88.9986 65.336C88.9927 65.3301 88.9846 65.3247 88.9791 65.3192C88.9551 65.2952 88.9306 65.263 88.9147 65.2386C88.8984 65.2064 88.8825 65.1823 88.8662 65.1502C88.858 65.1338 88.858 65.1175 88.8498 65.1016C88.8335 65.0771 88.8258 65.0449 88.8258 65.0128C88.8176 64.9724 88.81 64.9243 88.81 64.884C88.81 64.8115 88.8177 64.7471 88.8422 64.6823C88.8462 64.6705 88.8548 64.6592 88.8598 64.6469C88.8652 64.6333 88.8726 64.6215 88.8789 64.6084C88.8907 64.5848 88.8989 64.5612 88.9147 64.5372C88.9148 64.529 88.9229 64.5213 88.9306 64.505C89.6319 63.4006 90.3251 62.2078 90.9621 60.9824C90.9625 60.9824 90.9625 60.982 90.9625 60.9815C90.9639 60.9779 90.9657 60.9752 90.9675 60.9711C90.9738 60.9589 90.9802 60.9466 90.9861 60.9344C91.5986 59.7498 92.163 58.5406 92.6626 57.3234C93.1545 56.1791 93.6061 54.9614 94.0168 53.7206C94.0245 53.7052 94.025 53.6888 94.0322 53.6734C94.0336 53.6707 94.0336 53.668 94.0349 53.6657C94.4048 52.5387 94.7508 51.3808 95.0727 50.101C95.3869 48.876 95.6529 47.6668 95.8624 46.4981C96.0963 45.2327 96.2818 44.0558 96.4187 42.8871C96.572 41.6703 96.6848 40.4689 96.7574 39.3002V39.268C96.8381 38.043 96.878 36.8257 96.8861 35.6488C96.9025 34.4157 96.878 33.1984 96.8218 32.0215V31.9979C96.8054 31.5785 96.7818 31.1433 96.7574 30.7162L64.1673 32.5931C64.1369 32.6049 64.1025 32.6063 64.0698 32.6131C64.0707 32.6144 64.0725 32.6154 64.0725 32.6181C64.1128 32.6906 64.145 32.7876 64.1849 32.8683C64.5802 33.7868 65.0472 34.8187 65.2494 35.3668C65.2498 35.3682 65.2508 35.37 65.2517 35.3718C65.2585 35.3859 65.2671 35.399 65.273 35.414C65.273 35.4144 65.2735 35.4148 65.2735 35.4153C65.2812 35.423 65.2812 35.4312 65.2898 35.4475C65.749 36.6162 66.1924 37.8172 66.5954 39.0182C66.6031 39.0427 66.6117 39.0744 66.6194 39.0988C66.6353 39.1229 66.6434 39.1469 66.6434 39.1714C67.0546 40.3805 67.4173 41.5733 67.7315 42.7098C67.7478 42.7497 67.7561 42.7901 67.7642 42.8304C68.1029 44.0073 68.3925 45.2409 68.6509 46.4822C68.9084 47.7394 69.1098 48.9888 69.2553 50.1902C69.4081 51.466 69.496 52.7177 69.5046 53.8982C69.5046 53.905 69.5083 53.911 69.5083 53.9178C69.5083 53.9245 69.5046 53.93 69.5046 53.9358C69.5277 55.2043 69.4562 56.433 69.3197 57.5732C69.3197 57.6212 69.312 57.6616 69.3033 57.7024C69.1342 59.0321 68.8522 60.2653 68.4655 61.3538C68.4592 61.3914 68.4465 61.4268 68.4339 61.4608C68.4307 61.4684 68.4302 61.4761 68.4275 61.4838C68.4266 61.4856 68.4261 61.4884 68.4251 61.4902C68.0942 62.4096 67.7561 63.0543 67.5144 63.4333C67.5144 63.441 67.5058 63.441 67.5058 63.4497C67.49 63.4732 67.4822 63.4976 67.4736 63.5135C67.2401 64.0861 66.974 64.6583 66.6838 65.1905C65.9585 66.5524 65.0395 67.8341 63.9596 68.9788C62.5728 70.4535 60.9774 71.6626 59.2284 72.5738C59.4941 73.6619 59.849 74.6693 60.2761 75.5719C60.9208 76.942 61.7508 78.1031 62.726 79.0379C62.9518 79.2559 63.1858 79.4731 63.4596 79.6825C63.8744 80.0212 64.33 80.32 64.8047 80.5984C65.7146 81.1301 66.7183 81.5585 67.8245 81.855C67.8304 81.8569 67.835 81.8614 67.8408 81.8632C67.8422 81.8641 67.8445 81.8646 67.8467 81.8655C67.853 81.8673 67.8599 81.8658 67.8662 81.8681L67.9818 81.9003C68.3173 82.0155 68.4968 82.3809 68.3821 82.7177C68.291 82.9847 68.0417 83.1529 67.7742 83.153C67.7529 83.153 67.7311 83.1448 67.7098 83.1425C67.7035 83.1448 67.6976 83.1467 67.6912 83.1489C67.1196 83.3502 66.4902 83.5597 65.7812 83.7777C65.0962 83.9867 64.403 84.1726 63.7017 84.3336C63.7003 84.334 63.6984 84.3344 63.6971 84.3348C64.2479 84.8254 64.8623 85.578 65.1561 86.6433C65.1561 86.6433 65.1556 86.6439 65.1561 86.6443C65.1561 86.6447 65.1565 86.6447 65.1565 86.6452C65.3809 87.4703 65.3814 88.3721 65.1583 89.3286C65.3066 89.5925 65.4584 89.8677 65.6144 90.1551C65.9634 90.7957 66.3311 91.4821 66.7192 92.2324C67.0189 92.8077 67.3131 93.3277 67.5919 93.7761C67.5928 93.7774 67.5937 93.7788 67.5951 93.7806C69.4887 96.5288 71.8022 96.1422 72.3263 96.0134L75.1403 93.6723C75.1448 93.6673 75.1467 93.6604 75.1517 93.6559L77.6614 91.2246C77.5404 91.1606 77.4121 91.0799 77.2752 90.9834C76.4229 90.3564 75.4821 89.0946 74.3972 87.1366C74.3954 87.1321 74.39 87.1307 74.3878 87.1262C73.8116 86.0857 73.1981 84.8394 72.5648 83.4218C72.5644 83.4214 72.5648 83.4214 72.5643 83.4214C72.5643 83.4209 72.5639 83.4209 72.5639 83.4205L72.5599 83.4114L72.5585 83.4087C71.9614 82.0645 71.5402 81.0095 71.4758 80.829C71.3829 80.5879 71.4373 80.3054 71.6391 80.1214C71.8422 79.9373 72.1282 79.9106 72.3581 80.0262C72.3853 80.0393 72.4057 80.0624 72.4311 80.0792C72.4705 80.1068 72.5131 80.1278 72.5467 80.1649C72.5485 80.1667 72.549 80.1694 72.5507 80.1712C72.6088 80.2351 72.6564 80.3104 72.6859 80.397C72.7231 80.5013 73.0648 81.3613 73.5694 82.5155H101.46C101.815 82.5155 102.103 82.8034 102.103 83.1593C102.103 83.5148 101.815 83.8026 101.46 83.8026H74.1516C74.5591 84.678 74.9544 85.4669 75.3339 86.1715H77.0898L78.7259 84.7207L78.7663 84.6804C78.7722 84.6754 78.7794 84.674 78.7853 84.669C79.9295 83.5524 82.088 84.8209 83.7817 86.1705H101.46C101.815 86.1705 102.103 86.4584 102.103 86.8143C102.103 87.1697 101.815 87.4576 101.46 87.4576H85.243C86.0395 88.2183 86.7712 89.0281 87.3751 89.8196H101.46C101.815 89.8196 102.103 90.107 102.103 90.4629C102.103 90.8184 101.815 91.1067 101.46 91.1067H88.2465C88.81 92.0805 89.0112 92.8698 88.8422 93.4741L88.8417 93.4746H101.46C101.815 93.4746 102.103 93.7625 102.103 94.1183C102.103 94.4738 101.815 94.7617 101.46 94.7617H87.8919L85.7394 97.13H101.46C101.815 97.13 102.103 97.4174 102.103 97.7733C102.103 98.1292 101.815 98.4171 101.46 98.4171H92.97C93.3245 98.6066 93.6808 98.8278 94.0571 99.0618C94.4891 99.3311 94.9367 99.6094 95.4571 99.89C95.9318 100.146 96.4994 100.468 97.0506 100.784H101.46C101.815 100.784 102.103 101.072 102.103 101.428C102.103 101.784 101.815 102.072 101.46 102.072H99.2331C99.375 102.162 99.4788 102.302 99.5174 102.467C99.5563 102.638 99.5241 102.818 99.4276 102.966L98.4633 104.44H101.46C101.815 104.44 102.103 104.728 102.103 105.084C102.103 105.44 101.815 105.727 101.46 105.727H97.6219L96.0732 108.095H101.46C101.815 108.095 102.103 108.383 102.103 108.739C102.103 109.094 101.815 109.382 101.46 109.382H95.2317L94.8297 109.997C94.7064 110.186 94.501 110.29 94.2906 110.29C94.1755 110.29 94.059 110.259 93.9538 110.194C93.9515 110.192 93.4169 109.862 92.6068 109.382H60.3994C60.0268 110.283 59.7144 111.079 59.4718 111.75H101.46C101.815 111.75 102.103 112.038 102.103 112.394C102.103 112.749 101.815 113.037 101.46 113.037H59.038C58.8693 113.586 58.8321 113.808 58.8316 113.811C58.8035 113.996 58.6957 114.163 58.537 114.262C58.4327 114.327 58.3122 114.362 58.1911 114.362C58.129 114.362 58.0665 114.353 58.0057 114.334L53.8303 113.037H13.6922C13.3372 113.037 13.0498 112.749 13.0498 112.394C13.0498 112.038 13.3372 111.75 13.6922 111.75H49.6875L48.8075 111.476C48.6266 111.421 48.4798 111.287 48.4054 111.112C48.332 110.937 48.3391 110.739 48.4253 110.57C48.4253 110.57 48.6724 110.085 49.0437 109.382H13.6922C13.3372 109.382 13.0498 109.094 13.0498 108.739C13.0498 108.383 13.3372 108.095 13.6922 108.095H49.7323C50.0769 107.46 50.5801 106.557 51.0856 105.727H13.6922C13.3372 105.727 13.0498 105.44 13.0498 105.084C13.0498 104.728 13.3373 104.44 13.6922 104.44H51.9171C52.4502 103.641 53.0152 102.852 53.5991 102.072H13.6922C13.3372 102.072 13.0498 101.784 13.0498 101.428C13.0498 101.072 13.3372 100.784 13.6922 100.784H54.5838C55.096 100.145 55.6224 99.5201 56.1632 98.9004L52.5649 98.7698C52.3827 98.7634 52.2118 98.6796 52.0948 98.5395C52.0617 98.4992 52.0354 98.4575 52.0037 98.4171H13.6922C13.3372 98.4171 13.0498 98.1292 13.0498 97.7733C13.0498 97.4174 13.3372 97.13 13.6922 97.13H51.2462C50.9506 96.3784 50.8943 95.5931 51.0616 94.7617H13.6922C13.3372 94.7617 13.0498 94.4738 13.0498 94.1183C13.0498 93.7625 13.3373 93.4746 13.6922 93.4746H51.4842C51.802 92.762 52.215 92.1036 52.5926 91.5142C52.6824 91.3737 52.7676 91.2395 52.851 91.1067H13.6922C13.3372 91.1067 13.0498 90.8184 13.0498 90.4629C13.0498 90.107 13.3372 89.8196 13.6922 89.8196H53.5101C53.8284 88.9243 53.7546 88.1453 53.2899 87.4576H13.6922C13.3373 87.4576 13.0498 87.1697 13.0498 86.8143C13.0498 86.4584 13.3372 86.1705 13.6922 86.1705H51.7756C51.1719 85.8446 50.6535 85.6864 50.6427 85.6836C50.5566 85.6596 50.4795 85.6187 50.4133 85.5657C46.8731 85.3875 43.5173 84.7923 40.4022 83.8026H13.6922C13.3372 83.8026 13.0498 83.5148 13.0498 83.1593C13.0498 82.8034 13.3372 82.5155 13.6922 82.5155H40.4725C40.4806 82.5151 40.4879 82.5123 40.4956 82.5123C40.584 82.5123 40.6647 82.5283 40.7454 82.5605C42.0031 82.9635 43.301 83.3022 44.6389 83.5683H44.6402C44.3886 83.0347 44.1143 82.4267 43.8554 81.7997C43.8509 81.7924 43.845 81.7866 43.8405 81.7784C43.8405 81.7707 43.8405 81.7626 43.8328 81.7544C43.4543 80.7951 43.2203 80.134 43.1074 79.6508C42.8254 78.361 42.7365 77.0716 42.8254 75.7977C42.8571 75.2578 42.9297 74.7178 43.0268 74.1856C41.4146 73.8714 39.8831 73.404 38.4487 72.8074C38.4311 72.8019 38.4174 72.796 38.4029 72.7902C38.3939 72.787 38.3853 72.7842 38.3767 72.781C38.3631 72.7738 38.3495 72.767 38.3359 72.767C36.1756 71.8639 34.1844 70.6231 32.4032 69.0754C32.3792 69.0672 32.3629 69.0431 32.3384 69.0268C31.0731 67.9147 29.9125 66.649 28.8806 65.2708C28.8806 65.2631 28.8725 65.2549 28.8648 65.2468C28.0184 64.1265 27.2444 62.8852 26.5594 61.5872C26.5394 61.5541 26.5213 61.521 26.5063 61.488C26.5041 61.4834 26.5014 61.4797 26.4995 61.4752C26.4982 61.4725 26.4959 61.4693 26.4945 61.4666C25.8902 60.33 25.3259 59.1046 24.8426 57.8234C24.8426 57.8148 24.8426 57.8148 24.8344 57.8066C24.3829 56.6379 23.9798 55.4211 23.6176 54.091C23.2866 52.866 23.0127 51.6247 22.8192 50.3916C22.811 50.383 22.8111 50.3752 22.8111 50.367C22.7227 49.8271 22.6578 49.4164 22.6097 49.1339H16.927C16.9514 49.3515 16.9754 49.561 16.9999 49.7868L17.048 50.1902C17.1772 51.407 17.354 52.6243 17.5639 53.809C17.7652 54.9532 18.015 56.1465 18.3215 57.3234C18.3378 57.3637 18.346 57.4041 18.3537 57.4444C18.6438 58.5968 18.9988 59.782 19.4177 60.9747C19.4263 60.991 19.4263 60.9987 19.434 61.015C19.8447 62.1915 20.3126 63.3685 20.828 64.5213C20.8366 64.5372 20.8444 64.5454 20.8526 64.5617C20.8598 64.5762 20.8671 64.5975 20.8748 64.6134C20.8811 64.6265 20.8866 64.6397 20.892 64.6537C20.8952 64.661 20.8983 64.6682 20.9006 64.6746C21.4487 65.8751 22.0775 67.0606 22.7707 68.2049C23.5364 69.5024 24.367 70.7037 25.2216 71.7918C26.2049 73.0653 27.3011 74.2663 28.4612 75.3625C28.4612 75.3706 28.4699 75.3706 28.4776 75.3783C28.5021 75.4028 28.5179 75.4187 28.5338 75.4432C28.5569 75.4722 28.5705 75.5071 28.5891 75.5397C28.6031 75.5651 28.6208 75.5874 28.6317 75.6155C28.6607 75.6871 28.6793 75.7637 28.6793 75.8458C28.6793 75.8467 28.6788 75.8476 28.6788 75.8485C28.6788 75.8494 28.6784 75.8503 28.6784 75.8512C28.6775 75.9301 28.6626 76.009 28.639 76.0797C28.6308 76.0883 28.6308 76.0883 28.6308 76.096C28.6145 76.1363 28.5905 76.1686 28.5664 76.2089C28.5506 76.233 28.526 76.2651 28.502 76.2896C28.5002 76.2909 28.4984 76.2928 28.497 76.2942L28.4454 76.3458C28.4173 76.368 28.3815 76.3811 28.3498 76.3988C28.3217 76.4151 28.2958 76.4342 28.265 76.4464C28.2151 76.465 28.1616 76.4714 28.1076 76.4778C28.0831 76.4809 28.0613 76.4922 28.0364 76.4922H13.6922C13.3373 76.4922 13.0498 76.2044 13.0498 75.8485C13.0498 75.4931 13.3372 75.2051 13.6922 75.2051H26.4909L26.4869 75.2015C25.7534 74.4517 25.0602 73.6619 24.4074 72.8396C24.4065 72.8391 24.406 72.8381 24.4056 72.8372H13.6922C13.3372 72.8372 13.0498 72.5494 13.0498 72.194C13.0498 71.8385 13.3372 71.5507 13.6922 71.5507H23.4244L23.424 71.5502C22.884 70.8008 22.3608 70.0115 21.8617 69.1824H13.6922C13.3372 69.1824 13.0498 68.8944 13.0498 68.539C13.0498 68.1831 13.3373 67.8952 13.6922 67.8952H21.101C20.6662 67.115 20.2637 66.3257 19.8851 65.5292C19.8851 65.5283 19.8846 65.5277 19.8842 65.5268H13.6922C13.3372 65.5268 13.0498 65.239 13.0498 64.8836C13.0498 64.5277 13.3372 64.2398 13.6922 64.2398H19.3053L19.3048 64.2393C18.967 63.4582 18.6529 62.6607 18.3709 61.8719H13.6922C13.3372 61.8719 13.0498 61.584 13.0498 61.2286C13.0498 60.8727 13.3372 60.5848 13.6922 60.5848H17.9338C17.6682 59.7878 17.4347 58.9989 17.2334 58.2183V58.2174H13.6922C13.3372 58.2174 13.0498 57.9295 13.0498 57.5736C13.0498 57.2182 13.3373 56.9303 13.6922 56.9303H16.9034C16.9029 56.9295 16.9028 56.929 16.9028 56.9285C16.7093 56.1397 16.5407 55.3426 16.3956 54.5615H13.6922C13.3373 54.5615 13.0498 54.2736 13.0498 53.9178C13.0498 53.5623 13.3372 53.2744 13.6922 53.2744H16.1689C16.0406 52.4933 15.9278 51.704 15.8389 50.9074V50.9066H13.6922C13.3372 50.9066 13.0498 50.6187 13.0498 50.2632C13.0498 49.9078 13.3373 49.6194 13.6922 49.6194H15.6861V49.6176C15.6458 49.279 15.6131 48.9566 15.5809 48.5373C15.5732 48.3601 15.6294 48.1828 15.75 48.0459C15.871 47.9167 16.0483 47.8445 16.226 47.8445H17.4401C17.4559 47.8373 17.4674 47.8251 17.4846 47.8192C17.6415 47.7667 17.8024 47.7833 17.942 47.8445H23.1737C23.4961 47.8445 23.7786 48.0862 23.8107 48.4163C23.8113 48.4203 23.86 48.7836 23.9962 49.6176C23.9962 49.618 23.9966 49.6189 23.9966 49.6194H34.6591C34.6592 49.6189 34.6595 49.618 34.66 49.6176C35.0063 48.8043 35.4253 48.015 35.9 47.2579H13.6922C13.3372 47.2579 13.0498 46.97 13.0498 46.6146C13.0498 46.2587 13.3372 45.9708 13.6922 45.9708H36.7985C37.4431 45.1099 38.1672 44.3206 38.9483 43.6043C38.9488 43.6038 38.9493 43.6033 38.9501 43.6029H13.6922C13.3373 43.6029 13.0498 43.3155 13.0498 42.9592C13.0498 42.6038 13.3372 42.3158 13.6922 42.3158H40.5101L40.5115 42.315C41.8802 41.3085 43.3695 40.5115 44.939 39.9475H13.6922C13.3373 39.9475 13.0498 39.6597 13.0498 39.3042C13.0498 38.9483 13.3372 38.6604 13.6922 38.6604H65.1111C64.8373 37.8634 64.5395 37.0746 64.2416 36.2935C64.2412 36.293 64.2411 36.293 64.2411 36.2925H13.6922C13.3373 36.2925 13.0498 36.0051 13.0498 35.6488C13.0498 35.2934 13.3372 35.0054 13.6922 35.0054H63.7184C63.7184 35.005 63.7181 35.0046 63.718 35.0042C63.5 34.5046 63.2338 33.9078 63.008 33.3838C62.8883 33.1113 62.7759 32.8548 62.6794 32.6376H13.6922C13.3372 32.6376 13.0498 32.3497 13.0498 31.9943C13.0498 31.6388 13.3373 31.3505 13.6922 31.3505H63.3906L97.3214 29.3943ZM65.4348 96.2709C65.209 96.4082 64.9107 96.8757 64.6609 97.2629C64.4592 97.5689 64.2575 97.8912 64.0159 98.1813C63.8146 98.4316 63.242 99.1488 62.3076 99.1488C62.1924 99.1488 62.0777 99.1389 61.963 99.1107L57.7917 98.9593C57.7722 98.9906 57.7609 99.0255 57.7355 99.054C56.9118 99.968 56.1455 100.875 55.3934 101.826C55.393 101.826 55.393 101.826 55.393 101.827C54.4727 102.996 53.5977 104.211 52.7903 105.437C52.7096 105.559 52.6339 105.678 52.5572 105.798L52.4534 105.96C51.9674 106.727 51.32 107.852 50.6808 109.043C50.3816 109.597 50.1172 110.1 49.9209 110.475L57.7364 112.903C57.7917 112.711 57.8642 112.475 57.9594 112.19C58.2586 111.267 58.7365 110.02 59.3766 108.49L59.3771 108.488C59.3775 108.488 59.3776 108.488 59.3776 108.487L59.8291 107.428C60.17 106.631 60.6406 105.752 61.2676 104.744C61.9585 103.628 62.7197 102.539 63.4555 101.485L63.752 101.061C64.6574 99.7545 65.5001 98.5032 65.861 97.5489C65.8614 97.548 65.861 97.5462 65.8614 97.5449C66.1842 96.6745 65.9508 96.4808 65.8778 96.416C65.8053 96.3516 65.7327 96.3112 65.6765 96.2872C65.6765 96.2872 65.6733 96.284 65.6706 96.2822L65.4394 96.2682C65.4376 96.2691 65.4366 96.27 65.4348 96.2709ZM83.1521 87.3134C80.9986 85.5576 79.8657 85.3998 79.6717 85.5952C79.6708 85.5966 79.6703 85.5979 79.6689 85.5993C79.5402 85.7362 79.4273 85.9697 79.6291 86.6307C79.7093 86.9131 79.8222 87.2114 79.9509 87.5256C80.3866 88.63 80.9265 90.0082 79.7741 90.9593L79.7659 90.9675C79.7591 90.973 79.7509 90.9771 79.7441 90.9825C79.7319 90.9966 79.7265 91.0147 79.7129 91.0287L76.1349 94.4933C76.8531 94.9965 77.6755 95.9036 78.3066 96.6671L80.2728 94.7839C80.5298 94.5382 80.9357 94.5467 81.1809 94.8038C81.4262 95.0608 81.417 95.4685 81.1604 95.7142L78.3338 98.4211C78.3315 98.423 78.3283 98.4239 78.326 98.4257L77.6256 99.2368C77.6093 99.2549 77.5921 99.2731 77.574 99.2894C77.5512 99.3131 76.8627 99.9972 76.9647 101.381C77.0241 102.235 77.3758 103.176 78.01 104.179C78.1279 104.362 78.2426 104.538 78.3637 104.701C80.0379 107.029 81.5466 106.898 81.9592 106.806L86.423 102.172C86.6697 101.916 87.0758 101.91 87.3315 102.157C87.5859 102.403 87.5936 102.811 87.3469 103.066L85.7698 104.703C86.939 104.974 89.0643 105.83 93.1046 108.183C93.4995 108.415 93.8368 108.618 94.0934 108.772L97.985 102.822C97.6128 102.602 97.0996 102.301 96.557 101.985C95.9744 101.649 95.3578 101.297 94.8483 101.023C94.2924 100.723 93.8069 100.422 93.3794 100.156C91.5243 99.0019 90.6773 98.4751 87.9467 100.291C87.1525 100.819 86.3754 100.967 85.6392 100.723C84.7035 100.417 83.9242 99.4834 83.3842 98.0249C83.3833 98.024 83.3833 98.0231 83.3829 98.0217C83.3792 98.0127 83.3751 98.0045 83.3715 97.995C83.3711 97.9941 83.3715 97.9936 83.3711 97.9927C82.9154 96.76 82.6611 95.2259 82.7232 94.0829C82.7237 94.0821 82.7241 94.0812 82.7241 94.0799V94.0785C82.7481 93.4016 82.9014 92.9419 83.1915 92.6844C84.3924 91.5963 85.481 92.4504 86.1338 92.9505C86.424 93.1839 86.7222 93.4097 86.9639 93.4741H87.1657C87.2781 93.4419 87.4141 93.3617 87.5505 93.2257L87.5541 93.2216C87.555 93.2207 87.556 93.2207 87.5569 93.2198L87.5683 93.208C87.649 93.1196 87.7137 92.4667 86.5609 90.8623C86.555 90.8569 86.5527 90.851 86.5491 90.8451C86.5482 90.8438 86.5468 90.8433 86.5454 90.8424C85.6854 89.6627 84.4169 88.3439 83.1521 87.3134ZM62.1752 105.727C61.6774 106.55 61.2902 107.279 61.0091 107.937L60.9421 108.095H81.1256C80.1753 107.979 78.861 107.437 77.5382 105.727H62.1752ZM90.3228 108.095C86.7097 106.144 85.1587 105.768 84.8159 105.903C84.7366 105.934 84.6549 105.945 84.5756 105.944L82.7672 107.821C82.7033 107.888 82.6253 107.939 82.5392 107.973C82.512 107.984 82.3151 108.054 82.005 108.095H90.3228ZM64.5077 102.224C64.0027 102.947 63.494 103.691 62.9994 104.44H76.6827C76.2171 103.623 75.9101 102.831 75.7719 102.072H64.6139L64.5077 102.224ZM66.8756 98.4153C66.546 99.1388 66.065 99.9376 65.4979 100.784H75.6821C75.7755 99.4318 76.4224 98.6402 76.6346 98.4153H66.8756ZM84.9718 98.4171C85.2941 98.9929 85.6641 99.3777 86.039 99.5006C86.3877 99.6144 86.7798 99.5228 87.2359 99.219C87.7414 98.8831 88.1994 98.6238 88.6255 98.4171H84.9718ZM62.162 96.1018C61.9118 96.7147 61.735 97.3032 61.8157 97.6092C61.8316 97.6813 61.8557 97.7706 62.1376 97.8431H62.1544C62.3557 97.8835 62.6055 97.8835 63.0248 97.3671C63.2179 97.1332 63.4034 96.8434 63.5806 96.5615C63.6613 96.4404 63.742 96.3112 63.8304 96.1902C63.8318 96.1889 63.8327 96.188 63.8341 96.1862L62.163 96.1C62.1625 96.1004 62.162 96.1014 62.162 96.1018ZM62.0088 84.7207C59.1798 85.3087 56.2779 85.6152 53.3279 85.6397H53.3085C53.5759 85.8482 53.8344 86.0826 54.0651 86.3555C54.0687 86.3591 54.0715 86.3627 54.0751 86.3659C54.0855 86.3786 54.0977 86.3882 54.1082 86.4009L54.1118 86.4045C54.1122 86.4049 54.1123 86.4053 54.1127 86.4053C54.1127 86.4058 54.1127 86.4058 54.1131 86.4063C54.814 87.2532 55.4509 88.6844 54.537 90.7068C54.5352 90.7104 54.5343 90.7137 54.533 90.7173C54.5307 90.7223 54.5298 90.7264 54.5275 90.7309C54.4614 90.8714 54.3979 91.0047 54.3203 91.1457C54.1399 91.4821 53.9132 91.8352 53.6739 92.2092C53.2586 92.858 52.7871 93.5925 52.5096 94.3419C52.0776 95.4898 52.1855 96.4608 52.8497 97.4015C52.851 97.4042 52.8515 97.4074 52.8528 97.4097C52.8547 97.4124 52.8573 97.4134 52.8591 97.4161C52.8763 97.4415 52.8945 97.4686 52.9131 97.4945L60.5423 97.7715V97.7707C60.3972 96.9319 60.8156 95.8438 61.6543 94.0871C61.6947 94.0064 61.735 93.9257 61.7672 93.8531C61.7672 93.8463 61.7722 93.8445 61.774 93.8395C61.7744 93.8382 61.7745 93.8372 61.7749 93.8363L62.0582 93.2561C62.4934 92.367 62.9872 91.3583 63.4818 90.2567C63.4886 90.2404 63.4954 90.2272 63.5008 90.2149C63.5017 90.2131 63.5027 90.2113 63.5036 90.2091C63.504 90.2077 63.5054 90.2049 63.5058 90.2035C63.6418 89.8917 63.7556 89.5775 63.8535 89.2461C64.0788 88.4192 64.1001 87.6575 63.9165 86.9834C63.4921 85.4456 62.0963 84.7724 62.0818 84.766C62.0569 84.7542 62.041 84.7329 62.0184 84.7188C62.0152 84.7193 62.012 84.7202 62.0088 84.7207ZM62.7586 94.7639C62.7432 94.7866 62.7351 94.8098 62.721 94.8397L65.3038 94.9725C65.6497 94.9113 66.1349 94.963 66.7002 95.4331C67.1834 95.8357 67.3852 96.4083 67.2886 97.1332H69.876C68.8681 96.8113 67.7315 96.134 66.716 94.7639H62.7586ZM75.0909 95.3764L73.0435 97.0933C73.0277 97.1014 73.0032 97.1174 72.9873 97.1332H77.0127C76.2085 96.2102 75.4287 95.468 75.1517 95.3918C75.1308 95.3895 75.1144 95.3774 75.0945 95.3737L75.0909 95.3764ZM85.3436 93.9661C84.6019 93.3858 84.417 93.3291 84.0865 93.6029C84.0624 93.6677 84.0221 93.8286 84.0057 94.1188V94.1501C84.0057 94.1514 84.0062 94.1524 84.0062 94.1533C83.9717 94.7898 84.0669 95.7741 84.3321 96.766L86.3052 94.5953C86.3047 94.5953 86.3038 94.5948 86.3029 94.5948C85.9484 94.4329 85.6342 94.1914 85.3436 93.9661ZM64.5031 91.1067C64.1128 91.9631 63.7333 92.7528 63.3811 93.4741H65.9308C65.8143 93.2637 65.6978 93.0529 65.579 92.8263C65.2603 92.2093 64.9588 91.6453 64.6673 91.1067H64.5031ZM77.7992 87.2518C77.7933 87.264 77.7816 87.2731 77.7684 87.2822C77.7639 87.2862 77.7625 87.2917 77.758 87.2962L76.611 88.3112C76.6123 88.3122 76.6133 88.314 76.6142 88.3154C77.2511 89.2425 77.719 89.7181 78.0332 89.9439C78.2182 90.0808 78.4843 90.234 78.6534 90.1533C78.7744 90.0971 78.8714 90.0322 78.9517 89.9679C79.1049 89.8391 79.1775 89.6777 79.1775 89.4601C79.1775 89.1219 79.0165 88.654 78.7504 87.993C78.6217 87.6707 78.4924 87.332 78.3959 86.9934C78.3714 86.9294 78.3555 86.8569 78.331 86.7839L77.7992 87.2518ZM54.7868 66.7541C53.5859 67.2133 52.3124 67.4473 50.9982 67.4473C50.0148 67.4473 49.0559 67.3181 48.1288 67.0606C48.1275 67.0602 48.1266 67.0597 48.1252 67.0593C47.9013 67.2878 47.306 67.9261 46.6364 68.9026C45.8716 70.0101 45.2681 71.1857 44.8411 72.3966C44.8402 72.3993 44.841 72.4021 44.8401 72.4043C44.8401 72.4125 44.8325 72.4125 44.8325 72.4206C44.808 72.4931 44.7757 72.5739 44.7517 72.6464C44.7436 72.6622 44.7436 72.6781 44.7354 72.6944C44.7273 72.7185 44.7196 72.7507 44.7114 72.7752C44.5985 73.122 44.5102 73.4444 44.429 73.7744C44.429 73.7907 44.4208 73.8066 44.4208 73.8229C44.2517 74.5002 44.147 75.1934 44.1066 75.8861C44.0259 77.039 44.1067 78.2078 44.3646 79.3683C44.453 79.7696 44.6692 80.3952 45.0287 81.267C45.0337 81.2774 45.0347 81.2883 45.0392 81.2992C45.4418 82.2757 45.8874 83.2174 46.2025 83.8421C48.234 84.1726 50.3535 84.3421 52.5382 84.358C54.1018 84.3657 55.6409 84.2932 57.1724 84.14H57.1747C57.0142 83.945 56.8528 83.7496 56.7 83.5465C56.6996 83.5461 56.6995 83.5452 56.6995 83.5447C56.6991 83.5443 56.6982 83.5438 56.6977 83.5433C55.8214 82.3642 55.1286 81.0789 54.6376 79.7233C54.1974 78.5269 53.8978 77.2471 53.7487 75.921C53.6127 74.6883 53.5945 73.4176 53.6947 72.1427C53.7899 70.9341 53.9989 69.6701 54.3162 68.3848V68.383C54.4761 67.7432 54.6417 67.1936 54.7874 66.7531C54.7872 66.7534 54.7871 66.7538 54.7868 66.7541ZM57.3741 65.327C57.366 65.3356 57.3583 65.3432 57.3501 65.3432C57.3179 65.3673 57.2853 65.3918 57.2531 65.4162C56.987 65.6094 56.7213 65.7866 56.4475 65.9399C56.4438 65.9421 56.4402 65.9435 56.4371 65.9458C56.428 65.992 56.4266 66.0387 56.4067 66.0836C56.4017 66.0951 55.9595 67.1054 55.563 68.6954C55.2629 69.9127 55.0656 71.1059 54.9758 72.2448C54.882 73.438 54.8983 74.6271 55.0252 75.7782C55.1631 77 55.4383 78.1792 55.8441 79.2822C56.2933 80.5217 56.9267 81.6963 57.7287 82.7753C58.0424 83.1924 58.3792 83.5873 58.726 83.9632H58.7284C61.0092 83.6726 63.2339 83.1969 65.4027 82.5441C65.4829 82.5201 65.5636 82.4956 65.6443 82.4721C65.6122 82.4558 65.5795 82.4475 65.5559 82.4317C65.404 82.3646 65.2575 82.2893 65.1098 82.2173C64.9932 82.1624 64.8763 82.1089 64.7625 82.0509C64.758 82.0486 64.7539 82.0468 64.7493 82.0445C64.5558 81.9556 64.3703 81.8514 64.1849 81.7381C64.0562 81.6655 63.9351 81.593 63.8223 81.5204C63.8123 81.5141 63.8032 81.5082 63.7932 81.5014C63.7334 81.4638 63.6753 81.4244 63.6169 81.3858C63.4713 81.2938 63.3321 81.2013 63.1939 81.1016C63.0973 81.029 63.008 80.9642 62.9196 80.8916C62.9187 80.8912 62.9178 80.8903 62.9169 80.8894C62.8761 80.8976 62.8357 80.9066 62.7958 80.9066C62.5161 80.9066 62.2595 80.7225 62.1784 80.4406C62.163 80.3875 62.1671 80.3344 62.1657 80.2814C62.1617 80.2787 62.1584 80.2742 62.1544 80.271V80.2632C62.0415 80.1667 61.9363 80.0615 61.8316 79.965C60.7435 78.925 59.8327 77.6356 59.115 76.12C58.5832 74.9998 58.1558 73.734 57.8579 72.364C57.8579 72.3558 57.8497 72.34 57.8497 72.3313C57.5918 71.139 57.4227 69.8737 57.3583 68.5757C57.2853 67.286 57.3179 66.1575 57.3741 65.327ZM42.8975 72.8396C43.0426 72.8718 43.18 72.9039 43.3246 72.9284C43.3246 72.9039 43.3328 72.8881 43.3414 72.8636V72.8626C43.3232 72.8545 43.3041 72.8458 43.286 72.8372H42.8884C42.8911 72.8381 42.8944 72.8391 42.8975 72.8396ZM34.5988 69.1824C35.8958 70.1326 37.289 70.9218 38.7706 71.5502C38.771 71.5502 38.7715 71.5502 38.7715 71.5507H41.0365C41.0365 71.5503 41.0361 71.5502 41.0361 71.5502C40.021 70.8651 39.0789 70.0682 38.2333 69.1824H34.5988ZM50.9982 40.1869C47.3872 40.1869 43.9697 41.3235 41.0999 43.4756C41.0922 43.4838 41.084 43.4914 41.0759 43.4914C39.7707 44.4748 38.6097 45.6522 37.6345 46.9982C36.8361 48.0862 36.1833 49.2631 35.6837 50.4881L35.6782 50.4986C35.6728 50.5131 35.6651 50.5248 35.6588 50.5384C35.2077 51.6501 34.8853 52.8179 34.6922 54.0184C34.6922 54.0266 34.6922 54.0429 34.6841 54.0506C34.5395 54.921 34.4587 55.816 34.4587 56.7431C34.4587 57.0011 34.4664 57.2667 34.4827 57.5328V57.5574C34.4828 57.5628 34.4859 57.5677 34.4859 57.5736C34.4859 57.5777 34.4836 57.5813 34.4832 57.5854C34.5326 58.7179 34.7094 59.8504 35.0068 60.9747C35.0227 61.0151 35.0304 61.055 35.0386 61.0953C35.3613 62.2886 35.8207 63.441 36.3928 64.5213C36.4173 64.5617 36.4413 64.5939 36.4576 64.6342C37.1426 65.9072 37.9799 67.0593 38.947 68.0825C38.9483 68.0834 38.9492 68.0848 38.9501 68.0861L38.9565 68.092C40.2944 69.5187 41.8498 70.6793 43.5748 71.5502H43.7934C44.2449 70.3801 44.8379 69.2444 45.5783 68.1727C46.047 67.4891 46.4831 66.9568 46.8054 66.5918C46.081 66.2858 45.3878 65.8909 44.7354 65.4162C44.6951 65.3917 44.6711 65.3673 44.6389 65.3432C43.2847 64.3436 42.1721 63.0302 41.4227 61.5146C41.4146 61.4988 41.4065 61.4902 41.4065 61.4744C40.8103 60.2734 40.4553 58.9754 40.3424 57.6212V57.5732C40.3184 57.3071 40.302 57.0251 40.302 56.7431C40.302 55.7194 40.4476 54.7116 40.7373 53.7364C40.7445 53.716 40.7513 53.7006 40.7581 53.6816C40.7608 53.6743 40.7627 53.6675 40.7658 53.6602C41.1616 52.3101 41.8607 51.0085 42.7765 49.9078C42.801 49.8675 42.8331 49.8348 42.8658 49.795C44.905 47.4089 47.8627 46.0384 50.9982 46.0384C54.1259 46.0384 57.0758 47.4089 59.115 49.795C59.1477 49.8271 59.1799 49.8675 59.2116 49.9078C60.131 51.0117 60.8238 52.3178 61.2273 53.672C61.235 53.696 61.2431 53.7124 61.2508 53.7364C61.5332 54.7039 61.6783 55.7194 61.6783 56.7431C61.6783 57.0237 61.6624 57.2962 61.6384 57.5686C61.6384 57.5704 61.6393 57.5718 61.6393 57.5736C61.6393 57.5759 61.638 57.5777 61.638 57.579V57.6298C61.5332 58.9749 61.171 60.2716 60.5753 61.4716C60.5721 61.4784 60.569 61.4843 60.5663 61.4902C60.5509 61.5251 60.5318 61.5595 60.5177 61.5872C60.4696 61.7001 60.4129 61.8049 60.3481 61.9096C60.2761 62.0383 60.2035 62.1679 60.1229 62.2967C59.7439 62.9332 59.2927 63.5298 58.785 64.0698C58.7809 64.0743 58.7768 64.077 58.7736 64.0816C58.7759 64.1282 58.7868 64.1727 58.7786 64.2212C58.7768 64.2321 58.7369 64.4896 58.6952 64.9344C58.6952 64.9366 58.6966 64.9385 58.6962 64.9407C58.6236 65.7382 58.5506 67.0039 58.64 68.5032C58.688 69.4461 58.7932 70.3728 58.946 71.2595C59.1554 71.1467 59.3649 71.0338 59.5666 70.9051C59.752 70.7922 59.9456 70.6711 60.131 70.5505C61.1787 69.8492 62.1462 69.035 63.0325 68.0997C64.0317 67.0361 64.8782 65.8515 65.5473 64.5857C65.7572 64.2072 65.9507 63.8036 66.1198 63.4087C66.1253 63.3974 66.1294 63.3856 66.1348 63.3743C66.1393 63.2415 66.1739 63.1087 66.2632 62.9963C66.2673 62.9912 66.3017 62.9454 66.3506 62.8765C66.352 62.8738 66.3534 62.8711 66.3534 62.8689C66.5955 62.2722 66.7967 61.6679 66.9418 61.0718C67.2637 59.9211 67.4486 58.7546 67.5053 57.5804C67.5053 57.5777 67.504 57.5763 67.504 57.5736C67.504 57.57 67.5058 57.5672 67.5058 57.5636V57.5406C67.5144 57.2754 67.5221 57.0092 67.5221 56.7431C67.5221 55.816 67.4495 54.9133 67.3045 54.0506C67.2963 54.0429 67.2963 54.0347 67.2963 54.0266C67.095 52.8175 66.7727 51.6487 66.313 50.5284C66.3053 50.5126 66.3052 50.5044 66.2966 50.4881C65.7975 49.2631 65.1524 48.0862 64.3545 46.9982C64.3468 46.99 64.3387 46.9814 64.3387 46.9737C63.3635 45.6358 62.2106 44.4671 60.9049 43.4914C60.8968 43.4914 60.8886 43.4838 60.8805 43.4756C58.0112 41.3235 54.5933 40.1869 50.9982 40.1869ZM30.7344 65.5292C31.4348 66.3819 32.1992 67.1707 33.0121 67.8952H37.0837C36.488 67.1626 35.9494 66.3661 35.4901 65.5292C35.4897 65.5283 35.4892 65.5277 35.4892 65.5268H30.733C30.7334 65.5277 30.7339 65.5283 30.7344 65.5292ZM54.7868 66.7459C54.7868 66.7459 54.7885 66.746 54.7895 66.7469C54.7898 66.746 54.7901 66.745 54.7904 66.7441C54.7895 66.7446 54.7882 66.7455 54.7868 66.7459ZM47.6129 65.5292C48.6769 65.9562 49.8212 66.1657 50.9982 66.1657C52.1669 66.1656 53.3035 65.9562 54.3675 65.5292C54.3693 65.5283 54.3706 65.5277 54.372 65.5268H47.6092C47.6106 65.5277 47.6115 65.5283 47.6129 65.5292ZM28.181 61.8719C28.6643 62.7011 29.1794 63.4986 29.7271 64.2393L29.7275 64.2398H34.8219C34.8215 64.2398 34.8214 64.2393 34.8214 64.2393C34.4668 63.4741 34.169 62.6852 33.9351 61.8719H28.181ZM43.1092 61.8719C43.6972 62.7817 44.438 63.5865 45.3075 64.2393C45.308 64.2393 45.308 64.2398 45.3085 64.2398H56.6719C56.6723 64.2398 56.6728 64.2393 56.6733 64.2393C57.5428 63.5865 58.2836 62.7817 58.8716 61.8719H43.1092ZM26.3817 58.2183C26.7281 59.0393 27.0908 59.8363 27.4847 60.5848H33.5955C33.4187 59.796 33.2977 59.0071 33.241 58.2183V58.2174H26.3813C26.3817 58.2174 26.3817 58.2178 26.3817 58.2183ZM41.7129 58.2183C41.8335 59.0393 42.067 59.8277 42.4052 60.5848H59.5756C59.9134 59.8277 60.1469 59.0393 60.2761 58.2183V58.2174H41.7129V58.2183ZM25.0932 54.5615C25.3349 55.3902 25.5924 56.1719 25.8825 56.9285C25.8825 56.929 25.8826 56.9295 25.883 56.9303H33.1771V56.7431C33.1771 56.0023 33.2169 55.2701 33.3135 54.5615H25.0932ZM41.8575 54.5615C41.6803 55.2701 41.5919 56.0023 41.5919 56.7431V56.9303H60.3971V56.7431C60.3971 56.0023 60.3083 55.2701 60.1315 54.5615H41.8575ZM24.2138 50.9074C24.3584 51.6963 24.5356 52.4856 24.7369 53.2744H33.5321C33.6771 52.4692 33.8866 51.6804 34.1605 50.9074V50.9066H24.2138V50.9074ZM43.6234 50.9074C43.0512 51.6242 42.5847 52.4289 42.2537 53.2744H59.7271C59.6627 53.0899 59.5825 52.9131 59.5022 52.7372C59.3649 52.4466 59.2039 52.1565 59.0348 51.8745C58.8331 51.5358 58.6154 51.2135 58.3656 50.9074C58.3656 50.907 58.3652 50.907 58.3652 50.9066H43.6238C43.6238 50.907 43.6234 50.907 43.6234 50.9074ZM67.8286 50.9074C67.9415 51.2216 68.0381 51.5358 68.1265 51.8505C68.1029 51.544 68.0784 51.2216 68.0381 50.9074V50.9066H67.8281C67.8281 50.907 67.8282 50.907 67.8286 50.9074ZM50.9982 47.3282C48.7173 47.3282 46.5493 48.1506 44.856 49.6176L44.8542 49.6194H57.1425C57.142 49.619 57.1412 49.6181 57.1403 49.6176C55.4479 48.1506 53.2717 47.3282 50.9982 47.3282ZM66.0809 47.2579C66.556 48.015 66.9745 48.8043 67.3208 49.6176C67.3213 49.618 67.3213 49.619 67.3217 49.6194H67.8848V49.6176C67.7806 48.8446 67.6514 48.0553 67.4904 47.2579H66.0809ZM63.0406 43.6043C63.8213 44.3206 64.5459 45.1099 65.1901 45.9708H67.231C67.0538 45.1738 66.8529 44.3772 66.6434 43.6043V43.6029H63.0388C63.0393 43.6033 63.0402 43.6038 63.0406 43.6043ZM57.0413 39.9475C58.6109 40.5115 60.1002 41.3085 61.4766 42.315C61.4774 42.315 61.4779 42.3154 61.4784 42.3158H66.2894C66.2894 42.3154 66.289 42.315 66.289 42.315C66.0637 41.5415 65.8138 40.7527 65.5482 39.9475H57.0413Z" fill="#EF4E23"/>
<path d="M32.7002 78.861C33.0551 78.861 33.3425 79.1488 33.3425 79.5042C33.3425 79.8601 33.0551 80.148 32.7002 80.148H13.6922C13.3372 80.148 13.0498 79.8601 13.0498 79.5042C13.0498 79.1488 13.3373 78.861 13.6922 78.861H32.7002Z" fill="#EF4E23"/>
<path d="M101.459 78.861C101.814 78.861 102.102 79.1488 102.102 79.5042C102.102 79.8601 101.814 80.148 101.459 80.148H74.1644C73.8099 80.148 73.522 79.8601 73.522 79.5042C73.522 79.1488 73.8099 78.861 74.1644 78.861H101.459Z" fill="#EF4E23"/>
<path d="M101.46 75.2051C101.815 75.2051 102.102 75.493 102.102 75.8484C102.102 76.2043 101.815 76.4922 101.46 76.4922H79.6064C79.2519 76.4922 78.964 76.2043 78.964 75.8484C78.964 75.493 79.2519 75.2051 79.6064 75.2051H101.46Z" fill="#EF4E23"/>
<path d="M101.46 71.5506C101.815 71.5506 102.102 71.8384 102.102 72.1939C102.102 72.5493 101.815 72.8372 101.46 72.8372H83.673C83.3176 72.8372 83.0306 72.5493 83.0306 72.1939C83.0306 71.8384 83.3176 71.5506 83.673 71.5506H101.46Z" fill="#EF4E23"/>
<path d="M101.459 67.8952C101.814 67.8952 102.102 68.1831 102.102 68.539C102.102 68.8944 101.814 69.1822 101.459 69.1822H86.8709C86.5164 69.1822 86.2285 68.8944 86.2285 68.539C86.2285 68.1831 86.5164 67.8952 86.8709 67.8952H101.459Z" fill="#EF4E23"/>
<path d="M101.463 27.6951C101.818 27.6951 102.105 27.9829 102.105 28.3383C102.105 28.6942 101.818 28.9821 101.463 28.9821H13.6948C13.3398 28.9821 13.0524 28.6942 13.0524 28.3383C13.0524 27.9829 13.3398 27.6951 13.6948 27.6951H101.463Z" fill="#EF4E23"/>
<path d="M101.463 24.0409C101.818 24.0409 102.105 24.3288 102.105 24.6842C102.105 25.0401 101.818 25.328 101.463 25.328H13.6948C13.3398 25.328 13.0524 25.0401 13.0524 24.6842C13.0524 24.3288 13.3398 24.0409 13.6948 24.0409H101.463Z" fill="#EF4E23"/>
<path d="M22.1984 22.849H20.8525L22.3594 19.0123H24.3265L22.1984 22.849Z" fill="#EF4E23"/>
<path d="M101.463 20.3855C101.818 20.3855 102.106 20.6734 102.106 21.0293C102.106 21.3847 101.818 21.6726 101.463 21.6726H45.4763C45.1213 21.6726 44.8339 21.3847 44.8338 21.0293C44.8338 20.6734 45.1213 20.3855 45.4763 20.3855H101.463Z" fill="#EF4E23"/>
<path fill-rule="evenodd" clip-rule="evenodd" d="M30.0894 12.2332C30.6293 12.2332 31.1294 12.346 31.5882 12.5636C32.0398 12.7889 32.4269 13.0955 32.7493 13.499C33.0793 13.9016 33.3295 14.3853 33.5068 14.9497C33.6922 15.5218 33.7807 16.1502 33.7807 16.8438C33.7807 17.537 33.6922 18.1735 33.5068 18.7379C33.3295 19.31 33.0793 19.7938 32.7493 20.1968C32.4269 20.6075 32.0398 20.914 31.5882 21.1398C31.1294 21.3579 30.6293 21.4703 30.0894 21.4703C29.549 21.4703 29.0494 21.3579 28.5983 21.1398C28.1468 20.914 27.7515 20.6075 27.4296 20.1968C27.0991 19.7938 26.8488 19.31 26.6638 18.7379C26.4861 18.1735 26.3896 17.537 26.3896 16.8438C26.3896 16.1502 26.4861 15.5218 26.6638 14.9497C26.8488 14.3853 27.0991 13.9016 27.4296 13.499C27.7515 13.0955 28.1468 12.7889 28.5983 12.5636C29.0494 12.346 29.549 12.2332 30.0894 12.2332ZM30.0894 14.2483C29.8713 14.2483 29.67 14.3127 29.4928 14.4419C29.3155 14.5706 29.1623 14.7479 29.0335 14.9737C28.9043 15.1995 28.8078 15.4814 28.7434 15.7956C28.6709 16.1184 28.6387 16.4648 28.6387 16.8438C28.6387 17.2305 28.6709 17.585 28.7434 17.8997C28.8078 18.2138 28.9043 18.4877 29.0335 18.7217C29.1623 18.9556 29.3155 19.1328 29.4928 19.262C29.67 19.3907 29.8713 19.4551 30.0894 19.4551C30.307 19.4551 30.5088 19.3907 30.6856 19.262C30.871 19.1328 31.0242 18.9556 31.1452 18.7217C31.2658 18.4877 31.3629 18.2138 31.435 17.8997C31.4998 17.585 31.5402 17.2305 31.5402 16.8438C31.5402 16.4648 31.4998 16.1184 31.435 15.7956C31.3629 15.4814 31.2658 15.1995 31.1452 14.9737C31.0242 14.7479 30.871 14.5706 30.6856 14.4419C30.5088 14.3127 30.307 14.2483 30.0894 14.2483Z" fill="#EF4E23"/>
<path fill-rule="evenodd" clip-rule="evenodd" d="M39.19 12.2332C39.7295 12.2332 40.2296 12.346 40.6888 12.5636C41.1404 12.7889 41.5271 13.0955 41.8499 13.499C42.1722 13.9016 42.4297 14.3853 42.6074 14.9497C42.7928 15.5218 42.8813 16.1502 42.8813 16.8438C42.8813 17.537 42.7928 18.1735 42.6074 18.7379C42.4296 19.31 42.1722 19.7938 41.8499 20.1968C41.5271 20.6075 41.1404 20.914 40.6888 21.1398C40.2296 21.3579 39.7295 21.4703 39.19 21.4703C38.6414 21.4703 38.15 21.3579 37.6985 21.1398C37.2474 20.914 36.8521 20.6075 36.5302 20.1968C36.1992 19.7938 35.9494 19.31 35.764 18.7379C35.5867 18.1735 35.4901 17.537 35.4901 16.8438C35.4901 16.1502 35.5867 15.5218 35.764 14.9497C35.9494 14.3853 36.1992 13.9016 36.5302 13.499C36.8521 13.0955 37.2474 12.7889 37.6985 12.5636C38.15 12.346 38.6414 12.2332 39.19 12.2332ZM39.19 14.2483C38.9719 14.2483 38.7706 14.3127 38.5929 14.4419C38.4161 14.5706 38.2629 14.7479 38.1341 14.9737C38.0045 15.1995 37.9083 15.4814 37.8435 15.7956C37.7714 16.1184 37.7393 16.4648 37.7393 16.8438C37.7393 17.2305 37.7714 17.585 37.8435 17.8997C37.9083 18.2138 38.0044 18.4877 38.1341 18.7217C38.2628 18.9556 38.4161 19.1328 38.5929 19.262C38.7706 19.3907 38.9719 19.4551 39.19 19.4551C39.4071 19.4551 39.6089 19.3907 39.7862 19.262C39.9716 19.1328 40.1248 18.9556 40.2458 18.7217C40.3664 18.4877 40.4631 18.2138 40.5356 17.8997C40.6004 17.585 40.6408 17.2305 40.6408 16.8438C40.6408 16.4648 40.6004 16.1184 40.5356 15.7956C40.4631 15.4814 40.3664 15.1995 40.2458 14.9737C40.1248 14.7479 39.9716 14.5706 39.7862 14.4419C39.6089 14.3127 39.4071 14.2483 39.19 14.2483Z" fill="#EF4E23"/>
<path d="M17.6037 21.2287H15.3387V14.4179H14.0648V12.4916H17.6037V21.2287Z" fill="#EF4E23"/>
<path d="M101.463 16.7314C101.818 16.7314 102.106 17.0193 102.106 17.3752C102.106 17.7306 101.818 18.0185 101.463 18.0185H45.4763C45.1213 18.0185 44.8339 17.7306 44.8338 17.3752C44.8338 17.0193 45.1213 16.7314 45.4763 16.7314H101.463Z" fill="#EF4E23"/>
<path d="M101.463 13.077C101.818 13.077 102.106 13.3654 102.106 13.7208C102.106 14.0763 101.818 14.3641 101.463 14.3641H45.4763C45.1213 14.3641 44.8339 14.0763 44.8338 13.7208C44.8338 13.3654 45.1213 13.077 45.4763 13.077H101.463Z" fill="#EF4E23"/>
</svg>
