<svg width="165" height="253" viewBox="0 0 165 253" fill="none" xmlns="http://www.w3.org/2000/svg">
<path d="M164.267 0.665428V11.9551C164.267 12.0057 164.26 12.0569 164.238 12.1081C164.255 12.1479 164.26 12.1991 164.26 12.2446C164.26 12.5404 164.021 12.7855 163.72 12.7855C160.621 12.7855 158.107 15.1623 158.107 18.0857C158.107 21.0096 160.621 23.3921 163.72 23.3921C164.021 23.3921 164.26 23.631 164.26 23.933V32.6514C164.26 32.9477 164.021 33.1917 163.72 33.1917C160.621 33.1917 158.107 35.5691 158.107 38.493C158.107 41.4158 160.621 43.7995 163.72 43.7995C164.021 43.7995 164.26 44.0383 164.26 44.3392V54.3612C164.26 54.662 164.021 54.9066 163.72 54.9066C160.621 54.9066 158.107 57.2902 158.107 60.2187C158.107 63.1427 160.621 65.5195 163.72 65.5195C164.021 65.5195 164.26 65.764 164.26 66.0598V76.0869C164.26 76.3826 164.021 76.6277 163.72 76.6277C160.621 76.6277 158.107 79.0108 158.107 81.9393C158.107 84.8627 160.621 87.2406 163.72 87.2406C164.021 87.2406 164.26 87.4846 164.26 87.7866V97.808C164.26 98.1095 164.021 98.3483 163.72 98.3483C160.621 98.3483 158.107 100.731 158.107 103.655C158.107 106.584 160.621 108.961 163.72 108.961C164.021 108.961 164.26 109.206 164.26 109.507V119.528C164.26 119.83 164.021 120.074 163.72 120.074C160.621 120.074 158.107 122.451 158.107 125.375C158.107 128.299 160.621 130.676 163.72 130.676C164.021 130.676 164.26 130.921 164.26 131.222C164.26 131.239 164.26 131.261 164.255 131.278C164.26 131.296 164.26 131.313 164.26 131.33V141.357C164.26 141.653 164.021 141.897 163.72 141.897C160.621 141.897 158.107 144.275 158.107 147.198C158.107 150.127 160.621 152.51 163.72 152.51C164.021 152.51 164.26 152.755 164.26 153.051V163.078C164.26 163.379 164.021 163.618 163.72 163.618C160.621 163.618 158.107 165.995 158.107 168.919C158.107 171.802 160.541 174.151 163.572 174.219C163.618 174.202 163.669 174.196 163.72 174.196C163.994 174.196 164.215 174.395 164.249 174.658C164.26 174.686 164.26 174.714 164.26 174.742V184.764C164.26 185.066 164.021 185.31 163.72 185.31C160.621 185.31 158.107 187.688 158.107 190.617C158.107 193.54 160.621 195.923 163.72 195.923C164.021 195.923 164.26 196.162 164.26 196.463V206.484C164.26 206.786 164.021 207.031 163.72 207.031C160.621 207.031 158.107 209.413 158.107 212.343C158.107 215.266 160.621 217.644 163.72 217.644C164.021 217.644 164.26 217.888 164.26 218.183V228.211C164.26 228.507 164.021 228.751 163.72 228.751C160.621 228.751 158.107 231.128 158.107 234.052C158.107 236.981 160.621 239.364 163.72 239.364C164.021 239.364 164.26 239.608 164.26 239.91V251.546C164.26 251.848 164.021 252.092 163.72 252.092H150.263C150.105 252.092 149.951 252.018 149.848 251.899C149.746 251.774 149.701 251.609 149.729 251.45C149.769 251.251 149.786 251.034 149.786 250.79C149.786 247.867 147.266 245.489 144.167 245.489C141.078 245.489 138.565 247.867 138.565 250.79C138.565 251.034 138.582 251.251 138.615 251.45C138.644 251.609 138.604 251.774 138.502 251.899C138.4 252.018 138.246 252.092 138.081 252.092H125.727C125.568 252.092 125.415 252.018 125.313 251.899C125.21 251.774 125.165 251.61 125.193 251.455C125.233 251.246 125.25 251.029 125.25 250.79C125.25 247.867 122.731 245.489 119.636 245.489C116.543 245.489 114.029 247.867 114.029 250.79C114.029 251.029 114.045 251.246 114.08 251.455C114.108 251.61 114.068 251.774 113.966 251.899C113.863 252.018 113.71 252.092 113.551 252.092H101.192C101.032 252.092 100.879 252.018 100.776 251.899C100.674 251.774 100.628 251.609 100.663 251.45C100.697 251.251 100.714 251.034 100.714 250.79C100.714 247.867 98.1948 245.489 95.1008 245.489C92.0062 245.489 89.4923 247.867 89.4923 250.79C89.4923 251.034 89.5099 251.251 89.5492 251.45C89.5782 251.62 89.527 251.785 89.4184 251.905C89.4184 251.905 89.4246 251.905 89.4184 251.911C89.3393 252.104 89.146 252.241 88.9236 252.241H76.5709C76.4059 252.241 76.2524 252.166 76.1494 252.047C76.0476 251.922 76.0072 251.757 76.0357 251.598C76.0704 251.399 76.0869 251.183 76.0869 250.938C76.0869 248.014 73.5673 245.638 70.4739 245.638C67.3793 245.638 64.8654 248.014 64.8654 250.938C64.8654 251.183 64.8831 251.399 64.9229 251.598C64.9507 251.757 64.9058 251.922 64.8029 252.047C64.7005 252.172 64.5475 252.241 64.3882 252.241H64.382L50.3117 252.115C50.1518 252.115 49.9989 252.047 49.9022 251.922C49.7992 251.797 49.7543 251.638 49.7822 251.478C49.8169 251.273 49.8396 251.058 49.8396 250.813C49.8396 247.89 47.3195 245.512 44.2203 245.512C41.132 245.512 38.6119 247.89 38.6119 250.813C38.6119 251.058 38.6347 251.273 38.6693 251.478C38.6978 251.638 38.6574 251.797 38.5493 251.922C38.447 252.047 38.294 252.115 38.1342 252.115H24.8652C24.706 252.115 24.553 252.047 24.4506 251.922C24.3476 251.797 24.3027 251.638 24.3306 251.478C24.3653 251.273 24.388 251.058 24.388 250.813C24.388 247.89 21.8679 245.512 18.7796 245.512C15.6861 245.512 13.1723 247.89 13.1723 250.813C13.1723 251.058 13.1888 251.273 13.2286 251.478C13.257 251.638 13.2121 251.797 13.1091 251.922C13.0073 252.047 12.8532 252.115 12.6945 252.115H0.546013C0.244006 252.115 0 251.876 0 251.575V239.932C0 239.632 0.244006 239.392 0.546013 239.392C3.64002 239.392 6.15958 237.01 6.15958 234.08C6.15958 231.157 3.64002 228.78 0.546013 228.78C0.244006 228.78 0 228.535 0 228.233V218.212C0 217.911 0.244006 217.666 0.546013 217.666C3.64002 217.666 6.15958 215.289 6.15958 212.366C6.15958 209.436 3.64002 207.053 0.546013 207.053C0.244006 207.053 0 206.814 0 206.513V196.486C0 196.19 0.244006 195.946 0.546013 195.946C3.64002 195.946 6.15958 193.569 6.15958 190.645C6.15958 187.715 3.64002 185.332 0.546013 185.332C0.244006 185.332 0 185.088 0 184.792V174.765C0 174.464 0.244006 174.225 0.546013 174.225C3.64002 174.225 6.15958 171.848 6.15958 168.919C6.15958 165.995 3.64002 163.618 0.546013 163.618C0.244006 163.618 0 163.379 0 163.078V153.051C0 152.755 0.244006 152.51 0.546013 152.51C3.64002 152.51 6.15958 150.127 6.15958 147.198C6.15958 144.275 3.64002 141.897 0.546013 141.897C0.244006 141.897 0 141.653 0 141.357V131.33C0 131.313 1.52763e-06 131.296 0.00512028 131.278C1.52763e-06 131.261 0 131.239 0 131.222C0 130.921 0.244006 130.676 0.546013 130.676C3.64002 130.676 6.15958 128.299 6.15958 125.375C6.15958 122.451 3.64002 120.074 0.546013 120.074C0.244006 120.074 0 119.83 0 119.528V109.507C0 109.206 0.244006 108.961 0.546013 108.961C3.64002 108.961 6.15958 106.584 6.15958 103.655C6.15958 100.731 3.64002 98.3483 0.546013 98.3483C0.244006 98.3483 0 98.1095 0 97.808V87.7866C0 87.4846 0.244006 87.2406 0.546013 87.2406C3.64002 87.2406 6.15958 84.8627 6.15958 81.9393C6.15958 79.0108 3.64002 76.6277 0.546013 76.6277C0.244006 76.6277 0 76.3826 0 76.0869V66.0598C0 65.764 0.244006 65.5195 0.546013 65.5195C3.64002 65.5195 6.15958 63.1427 6.15958 60.2187C6.15958 57.2902 3.64002 54.9066 0.546013 54.9066C0.244006 54.9066 0 54.662 0 54.3612V45.6815C0 45.3857 0.244006 45.1411 0.546013 45.1411C3.64002 45.1411 6.15958 42.7643 6.15958 39.8404C6.15958 36.917 3.64002 34.5345 0.546013 34.5345C0.244006 34.5345 0 34.2951 0 33.9942V23.933C0 23.631 0.244006 23.3921 0.546013 23.3921C3.64002 23.3921 6.15958 21.0096 6.15958 18.0857C6.15958 15.1623 3.64002 12.7855 0.546013 12.7855C0.244006 12.7855 0 12.5404 0 12.2446C0 12.194 0.00512514 12.1428 0.0278752 12.0916C0.0108126 12.0461 0.00512028 12.0006 0.00512028 11.9551V0.665428C0.00512028 0.369109 0.249694 0.125126 0.546013 0.125126H14.0026C14.1619 0.125126 14.3154 0.193374 14.4173 0.318499C14.5196 0.443055 14.5651 0.602873 14.5367 0.762124C14.4975 0.966305 14.4804 1.18299 14.4804 1.42755C14.4804 4.35036 16.9994 6.72831 20.0996 6.72831C23.1874 6.72831 25.7013 4.35036 25.7013 1.42755C25.7013 1.18299 25.6848 0.966305 25.6501 0.762124C25.6216 0.602873 25.662 0.443055 25.7638 0.318499C25.8725 0.193374 26.0203 0.125126 26.1853 0.125126H38.538C38.6978 0.125126 38.8508 0.193374 38.9537 0.318499C39.0561 0.443055 39.1016 0.602873 39.0726 0.762124C39.0333 0.966305 39.0157 1.18299 39.0157 1.42755C39.0157 4.35036 41.5353 6.72831 44.6293 6.72831C47.7239 6.72831 50.2377 4.35036 50.2377 1.42755C50.2377 1.18299 50.2201 0.966305 50.1865 0.762124C50.1575 0.602873 50.1974 0.443055 50.2997 0.318499C50.4027 0.193374 50.5557 0.125126 50.7206 0.125126H63.0744C63.2331 0.125126 63.3867 0.193374 63.4896 0.318499C63.5914 0.443055 63.6369 0.602873 63.6091 0.762124C63.5687 0.966305 63.5522 1.18299 63.5522 1.42755C63.5522 4.35036 66.0717 6.72831 69.1652 6.72831C72.2592 6.72831 74.7731 4.35036 74.7731 1.42755C74.7731 1.18868 74.756 0.966305 74.7224 0.762124C74.6883 0.580123 74.7503 0.403232 74.8697 0.290051C74.9556 0.118857 75.1371 0 75.3418 0H87.7008C87.8606 0 88.0141 0.0733549 88.1159 0.199049C88.2183 0.318486 88.2638 0.483437 88.2303 0.642118C88.1961 0.841749 88.1791 1.05731 88.1791 1.30187C88.1791 4.22582 90.6981 6.60261 93.7926 6.60261C96.8861 6.60261 99.4 4.22582 99.4 1.30187C99.4 1.05731 99.3835 0.841749 99.3436 0.642118C99.3152 0.483437 99.3601 0.318498 99.4631 0.193373C99.5649 0.0733667 99.719 0 99.8777 0H99.884L112.613 0.125126C112.771 0.125126 112.925 0.199063 113.022 0.323619C113.124 0.443057 113.17 0.607992 113.141 0.762124C113.101 0.966305 113.085 1.18299 113.085 1.42755C113.085 4.35036 115.604 6.72831 118.704 6.72831C121.792 6.72831 124.306 4.35036 124.306 1.42755C124.306 1.18299 124.288 0.966305 124.254 0.762124C124.226 0.602873 124.266 0.443055 124.369 0.318499C124.476 0.193374 124.625 0.125126 124.79 0.125126H138.73C138.888 0.125126 139.042 0.193374 139.145 0.318499C139.247 0.443055 139.293 0.602873 139.264 0.762124C139.23 0.966305 139.207 1.18299 139.207 1.42755C139.207 4.35036 141.726 6.72831 144.815 6.72831C147.909 6.72831 150.423 4.35036 150.423 1.42755C150.423 1.18299 150.405 0.966305 150.366 0.762124C150.338 0.602873 150.383 0.443055 150.486 0.318499C150.587 0.193374 150.742 0.125126 150.901 0.125126H163.72C164.021 0.125126 164.267 0.369109 164.267 0.665428Z" fill="#F4F2EF"/>
<path d="M91.3365 125.829C91.2228 125.829 91.1084 125.793 91.01 125.72C90.7712 125.538 90.7234 125.199 90.9043 124.959C97.6707 115.998 111.164 89.5834 111.3 89.3184C111.434 89.0516 111.761 88.9441 112.028 89.0806C112.294 89.2148 112.402 89.5396 112.269 89.8075C109.843 94.6595 109.057 100.454 109.87 102.62C110.139 103.337 111.947 102.901 113.864 102.441C116.162 101.888 119.024 101.201 121.712 101.708C123.849 102.112 127.119 105.678 130.581 109.453C133.327 112.446 137.486 116.968 138.621 116.405C138.835 116.299 139.476 115.622 138.738 111.307C136.918 100.659 129.619 86.9455 118.184 72.6926C115.215 68.9918 120.944 57.6924 121.607 56.4161C121.745 56.1494 122.072 56.0465 122.339 56.1847C122.605 56.3229 122.708 56.6505 122.57 56.9166C120.86 60.2103 116.888 69.3427 119.023 72.0033C125.719 80.3497 137.311 96.5165 139.808 111.123C140.452 114.893 140.234 116.823 139.1 117.379C137.309 118.259 134.394 115.216 129.781 110.187C126.74 106.871 123.292 103.112 121.511 102.775C119.051 102.309 116.316 102.968 114.118 103.496C111.515 104.123 109.459 104.617 108.853 103.002C108.339 101.63 108.335 99.127 108.918 96.2418C104.432 104.739 96.4934 119.359 91.7705 125.613C91.6635 125.755 91.5009 125.829 91.3365 125.829Z" fill="#2800FF"/>
<path d="M110.568 101.691C110.131 101.691 109.747 101.61 109.416 101.411C108.957 101.134 108.652 100.657 108.509 99.9894C108.446 99.6965 108.633 99.407 108.925 99.345C109.222 99.2784 109.507 99.469 109.57 99.7613C109.688 100.307 109.904 100.438 109.975 100.48C110.514 100.805 111.753 100.455 113.187 100.05C115.379 99.4292 118.382 98.5817 121.721 99.2756C122.015 99.3359 122.204 99.6242 122.143 99.9171C122.081 100.211 121.793 100.395 121.501 100.339C118.419 99.6965 115.682 100.472 113.482 101.094C112.35 101.415 111.372 101.691 110.568 101.691Z" fill="#2800FF"/>
<path d="M137.871 114.394C136.297 114.394 134.018 111.987 130.429 108.047C127.276 104.586 123.702 100.663 121.534 100.344C121.237 100.301 121.033 100.025 121.076 99.7283C121.119 99.4314 121.389 99.2215 121.692 99.2699C124.244 99.6453 127.796 103.545 131.231 107.316C133.699 110.024 137.084 113.741 138.007 113.278C138.148 113.209 138.813 112.634 138.031 108.054C137.979 107.758 138.179 107.478 138.474 107.427C138.776 107.38 139.05 107.576 139.1 107.871C139.773 111.806 139.589 113.715 138.483 114.254C138.291 114.347 138.088 114.394 137.871 114.394Z" fill="#2800FF"/>
<path d="M59.513 180.066C59.3105 180.066 59.1131 180.045 58.9215 180.003C58.1719 179.837 57.1788 179.257 56.7056 177.442C56.1136 175.173 58.3732 164.157 61.1612 151.072C62.0291 147.001 62.7776 143.487 63.1052 141.603C63.4868 139.411 64.7392 134.034 66.1895 127.81C68.6738 117.147 72.8314 99.3009 72.2536 97.7471C72.2109 97.6424 72.1751 97.6157 72.1751 97.6157C72.1466 97.61 71.9533 97.6498 71.6177 97.9251C69.9257 99.3151 67.3168 104.303 67.3168 108.082C67.3168 108.367 67.0961 108.603 66.8118 108.623C66.5262 108.646 66.276 108.439 66.2362 108.158C66.2191 108.039 64.4315 96.2399 54.2566 90.4648C37.4591 80.9308 38.6592 77.3301 39.0539 76.1465C40.0799 73.069 50.467 72.6123 67.3293 72.1226L69.0373 72.0725C83.3203 71.6528 85.4338 68.3654 88.1097 64.2028C88.6853 63.3087 89.2979 62.2764 90.0071 61.0809C93.0801 55.9053 97.7239 48.0838 107.262 38.1966C120.654 24.3123 125.908 19.2282 127.941 20.9214C130.003 22.639 129.168 28.5131 127.075 32.4198C126.933 32.6837 126.605 32.7833 126.34 32.6422C126.076 32.5 125.976 32.1713 126.118 31.9068C128.293 27.8494 128.56 22.85 127.246 21.7552C125.802 20.5392 115.952 30.7517 108.043 38.9502C98.5924 48.747 93.9878 56.5024 90.9404 61.6354C90.2261 62.8395 89.6084 63.8797 89.0226 64.7897C86.2869 69.0457 83.9243 72.7209 69.0691 73.1577L67.3612 73.2078C54.9681 73.5678 40.9217 73.9762 40.0839 76.4906C39.485 78.2861 41.5507 82.0046 54.7918 89.5201C62.2669 93.763 65.4075 101.096 66.6224 105.135C67.6006 101.114 70.1981 96.8991 71.9248 96.5578C72.5084 96.4407 73.0094 96.7324 73.2585 97.3347C73.9376 98.9847 71.1951 111.109 67.2474 128.056C65.8005 134.265 64.551 139.627 64.175 141.789C63.844 143.693 63.0933 147.216 62.2236 151.298C60.2154 160.722 57.1805 174.963 57.7561 177.168C58.0251 178.2 58.4966 178.797 59.1569 178.943C60.4713 179.231 62.5262 177.838 64.7893 175.107C66.3499 173.224 68.6681 168.727 71.3509 163.519C75.6871 155.106 81.0834 144.634 86.4615 138.904C95.0184 129.787 111.152 105.152 111.314 104.905C111.478 104.653 111.814 104.583 112.064 104.747C112.316 104.911 112.387 105.248 112.222 105.499C112.06 105.747 95.8749 130.46 87.2532 139.647C81.9786 145.266 76.621 155.663 72.3167 164.016C69.6037 169.279 67.2616 173.825 65.6253 175.8C63.2986 178.607 61.2027 180.066 59.513 180.066Z" fill="#2800FF"/>
<path d="M122.687 77.7227C122.631 77.7227 122.576 77.7142 122.522 77.6971C122.236 77.6061 122.079 77.3007 122.169 77.0152C126.511 63.4004 130.713 42.1098 130.248 40.4929C129.64 38.8702 128.594 27.398 128.477 26.095C128.45 25.7958 128.67 25.5325 128.969 25.5052C129.262 25.475 129.532 25.6985 129.558 25.9977C130.013 31.055 130.844 38.9897 131.267 40.1186C131.975 42.0075 127.274 64.5783 123.204 77.3445C123.13 77.5748 122.916 77.7227 122.687 77.7227Z" fill="#2800FF"/>
<path d="M85.2648 150.731C85.1891 150.731 85.1135 150.722 85.0367 150.705C84.4606 150.576 84.212 149.977 84.1312 149.779C83.2053 147.542 86.611 139.707 87.3026 138.16C87.4249 137.887 87.744 137.763 88.0204 137.886C88.2934 138.009 88.4168 138.329 88.2939 138.603C86.7657 142.022 84.5561 147.967 85.1345 149.365C85.2022 149.529 85.2557 149.605 85.2841 149.637C85.4826 149.577 85.9473 149.157 86.2925 148.846C87.2759 147.958 88.6227 146.742 90.6309 146.317C93.3433 145.745 96.2035 146.459 98.2914 146.981C99.2105 147.211 100.004 147.409 100.461 147.409C100.586 147.409 100.696 147.299 100.785 147.082C101.231 146.005 100.813 142.74 97.7955 139.723C93.8165 135.743 93.0908 131.681 93.0618 131.51C93.0117 131.215 93.2108 130.935 93.5054 130.884C93.8051 130.834 94.081 131.033 94.1322 131.327C94.139 131.366 94.8437 135.235 98.5633 138.955C101.862 142.254 102.435 145.936 101.789 147.497C101.526 148.132 101.042 148.495 100.461 148.495C99.8703 148.495 99.057 148.292 98.0281 148.034C96.042 147.537 93.3211 146.856 90.8556 147.379C89.1334 147.743 87.9117 148.847 87.0205 149.652C86.3391 150.267 85.8244 150.731 85.2648 150.731Z" fill="#2800FF"/>
<path d="M85.4166 148.334C85.3399 148.334 85.2625 148.326 85.184 148.307C84.6073 148.174 84.3542 147.562 84.2706 147.361C84.1563 147.084 84.2882 146.766 84.5647 146.652C84.8411 146.537 85.1596 146.668 85.2739 146.946C85.3473 147.123 85.4053 147.206 85.4354 147.239C85.6231 147.18 86.0565 146.797 86.3784 146.511C87.277 145.717 88.6352 144.516 90.6298 144.094C90.921 144.033 91.2111 144.219 91.2736 144.512C91.3351 144.806 91.1479 145.094 90.855 145.156C89.1397 145.519 87.9601 146.563 87.0979 147.325C86.4478 147.9 85.9564 148.334 85.4166 148.334Z" fill="#2800FF"/>
<path d="M101.125 146.305C100.545 146.305 99.6749 146.103 98.5744 145.846C96.3653 145.333 93.3413 144.628 90.857 145.156C90.5607 145.219 90.2757 145.03 90.2132 144.737C90.1512 144.444 90.3388 144.155 90.6323 144.093C93.3549 143.518 96.5132 144.253 98.8201 144.79C99.812 145.02 100.67 145.22 101.125 145.22C101.425 145.22 101.668 145.462 101.668 145.763C101.668 146.062 101.425 146.305 101.125 146.305Z" fill="#2800FF"/>
<path d="M79.1312 173.743C77.632 173.743 77.007 172.028 76.4012 170.37C75.9417 169.108 75.4196 167.677 74.6188 167.477C73.0604 167.089 70.3896 169.003 67.8137 172.355C67.6294 172.592 67.2893 172.637 67.0527 172.454C66.815 172.271 66.77 171.93 66.9526 171.693C68.0497 170.267 71.8694 165.666 74.8815 166.424C76.2414 166.763 76.8415 168.408 77.4216 169.999C77.8988 171.305 78.3913 172.657 79.1312 172.657C79.4617 172.657 79.7586 172.46 80.0117 172.072C80.9524 170.629 81.0076 167.052 79.4719 163.561C77.3385 158.712 76.7487 153.944 76.7243 153.744C76.6885 153.446 76.9 153.177 77.1986 153.14C77.491 153.107 77.7662 153.318 77.8021 153.615C77.8072 153.662 78.3993 158.428 80.4655 163.125C81.9995 166.61 82.1957 170.712 80.9211 172.664C80.3398 173.556 79.6266 173.743 79.1312 173.743Z" fill="#2800FF"/>
<path d="M58.1712 168.399C57.8737 168.399 57.6308 168.158 57.6286 167.86C57.6161 166.116 57.4648 161.32 56.921 160.083C56.7817 159.766 55.8438 159.875 55.0897 159.961C54.0033 160.087 52.7692 160.228 51.9553 159.574C51.5293 159.233 51.2779 158.721 51.2085 158.052C50.9907 155.963 54.0471 154.437 57.0024 152.962C58.9264 152.003 61.1076 150.915 61.3567 150.053C61.4398 149.765 61.7389 149.601 62.0296 149.682C62.3173 149.766 62.4828 150.067 62.4004 150.355C62.0182 151.674 59.9184 152.721 57.4875 153.934C55.109 155.121 52.1487 156.598 52.288 157.94C52.3272 158.314 52.4404 158.573 52.6349 158.728C53.0956 159.098 54.0898 158.983 54.9651 158.883C56.1305 158.748 57.4528 158.597 57.9146 159.645C58.6472 161.311 58.7092 167.188 58.7143 167.852C58.7166 168.152 58.4749 168.397 58.1751 168.399H58.1712Z" fill="#2800FF"/>
<path d="M21.0044 223.717C20.7422 223.717 20.4959 223.658 20.2718 223.528C19.165 222.888 19.2572 220.981 20.5454 217.856C22.0145 214.298 33.402 199.378 39.5201 191.363C40.7855 189.704 41.8127 188.359 42.4588 187.498C42.8882 186.925 53.0267 173.47 57.157 173.47C57.4573 173.47 57.7002 173.713 57.7002 174.013C57.7002 174.313 57.4573 174.556 57.157 174.556C54.7961 174.556 48.2691 181.559 43.3273 188.149C42.6795 189.012 41.6512 190.361 40.3828 192.022C34.7289 199.429 22.9637 214.843 21.5498 218.271C20.2536 221.412 20.5795 222.452 20.815 222.588C21.2103 222.82 22.8284 222.119 24.9293 219.397C27.888 215.563 32.3094 214.153 34.8034 213.646C33.6045 213.268 32.5483 213.207 32.5335 213.207C32.3168 213.196 32.1274 213.057 32.0518 212.853C31.9767 212.65 32.0296 212.422 32.1866 212.272C34.4707 210.096 54.4287 191.225 59.4724 191.225C59.5321 191.225 59.5907 191.228 59.6464 191.233C62.3275 191.494 64.5217 194.799 66.6438 197.996C68.284 200.467 69.9795 203.022 71.3371 203.022C71.349 203.022 71.3598 203.022 71.3718 203.022C72.2329 202.993 72.8079 202.768 73.1304 202.33C73.9437 201.228 73.4483 198.608 72.387 194.738C70.8343 189.083 65.2441 175.868 65.1883 175.735C65.0712 175.459 65.2003 175.14 65.4755 175.023C65.752 174.907 66.0699 175.035 66.1876 175.312C66.4191 175.857 71.8626 188.727 73.4335 194.451C74.6398 198.845 75.088 201.505 74.0045 202.975C73.4716 203.697 72.6219 204.067 71.4065 204.106C71.3826 204.107 71.3587 204.107 71.3354 204.107C69.3977 204.107 67.7005 201.551 65.7383 198.596C63.8495 195.75 61.7081 192.525 59.5418 192.313C59.502 192.309 59.4604 192.307 59.4178 192.307C56.0798 192.307 42.6237 203.905 33.7637 212.272C34.6572 212.436 35.913 212.771 37.0033 213.451C37.2024 213.577 37.2991 213.816 37.2422 214.044C37.1842 214.273 36.9863 214.438 36.7514 214.454C36.6808 214.459 29.7119 214.976 25.7893 220.059C24.3378 221.941 22.4342 223.717 21.0044 223.717Z" fill="#2800FF"/>
<path d="M121.821 42.4847C121.667 41.5519 121.378 39.749 122.225 38.1167C122.544 37.4854 123.033 36.8825 123.76 36.3649C123.897 36.2682 124.034 36.1664 124.158 36.0749C124.573 35.7564 124.915 35.4663 125.199 35.2047C125.176 35.7677 125.182 36.4275 125.25 37.1384C125.381 38.4869 125.284 41.6151 121.821 42.4847ZM126.098 33.0838C125.853 32.9871 125.575 33.0889 125.438 33.3107C125.433 33.3227 124.881 34.2321 123.129 35.4834C119.938 37.7641 120.53 41.3415 120.751 42.6894L120.769 42.7691C120.997 44.1568 119.21 45.9882 118.505 46.5797C118.278 46.7731 118.244 47.1149 118.437 47.3418C118.545 47.4732 118.698 47.5414 118.852 47.5414C118.977 47.5414 119.103 47.4959 119.199 47.4158C119.307 47.3248 121.423 45.5389 121.809 43.5994C126.491 42.6155 126.456 38.3448 126.331 37.0361C126.161 35.2331 126.439 33.7037 126.439 33.6861C126.491 33.4302 126.342 33.1748 126.098 33.0838Z" fill="#2800FF"/>
<path d="M123.475 37.7413C123.271 37.7413 123.1 37.5707 123.1 37.3659C123.1 37.1561 123.271 36.9906 123.475 36.9906C123.686 36.9906 123.851 37.1561 123.851 37.3659C123.851 37.5707 123.686 37.7413 123.475 37.7413ZM124.158 36.0749C123.959 35.9668 123.725 35.9043 123.475 35.9043C122.668 35.9043 122.014 36.5583 122.014 37.3659C122.014 37.6389 122.089 37.9006 122.225 38.1167C122.48 38.5432 122.941 38.8276 123.475 38.8276C124.283 38.8276 124.937 38.1736 124.937 37.3659C124.937 36.8086 124.625 36.3194 124.158 36.0749Z" fill="#2800FF"/>
<path d="M125.926 51.7912C125.709 51.7912 125.505 51.6609 125.42 51.4471C125.312 51.1707 125.445 50.8595 125.718 50.7464C125.759 50.7276 126.917 50.1583 127.607 47.5847C127.975 46.2117 128.548 44.9241 129.054 43.7883C129.662 42.4204 130.188 41.2391 130.214 40.2944C130.223 39.9941 130.497 39.7678 130.772 39.7661C131.072 39.7746 131.308 40.0248 131.3 40.324C131.268 41.4843 130.701 42.7566 130.045 44.2296C129.532 45.3825 129.001 46.5752 128.656 47.8651C127.814 51.008 126.295 51.6865 126.125 51.7536C126.059 51.7792 125.992 51.7912 125.926 51.7912Z" fill="#2800FF"/>
<path d="M110.283 73.0641C110.016 73.0641 109.784 72.8673 109.747 72.5954C109.654 71.9311 109.349 71.2327 109.131 71.1855C108.33 71.0137 106.963 70.2152 105.514 69.3422L105.398 69.2716C104.734 68.8735 103.502 69.1494 103.122 69.2779C102.84 69.3752 102.53 69.2222 102.434 68.9378C102.338 68.6534 102.49 68.3457 102.774 68.2496C102.973 68.1831 104.748 67.6149 105.958 68.3412L106.074 68.4117C106.982 68.9588 108.67 69.9758 109.359 70.1242C110.484 70.3671 110.775 72.1029 110.822 72.4487C110.863 72.745 110.655 73.0186 110.358 73.059C110.333 73.0624 110.308 73.0641 110.283 73.0641Z" fill="#2800FF"/>
<path d="M111.66 69.725C111.393 69.725 111.161 69.5282 111.123 69.2569C111.03 68.5926 110.726 67.8942 110.507 67.847C109.71 67.6752 108.348 66.8807 106.903 66.0111L106.773 65.9337C106.114 65.5345 104.907 65.8029 104.497 65.9394C104.214 66.0344 103.905 65.8814 103.81 65.5976C103.715 65.3132 103.867 65.0067 104.15 64.9106C104.349 64.8434 106.126 64.2753 107.334 65.0033L107.463 65.0806C108.366 65.6255 110.05 66.6373 110.736 66.7863C111.86 67.0286 112.151 68.7644 112.199 69.1096C112.239 69.4054 112.031 69.6795 111.735 69.7199C111.71 69.7233 111.684 69.725 111.66 69.725Z" fill="#2800FF"/>
<path d="M113.155 66.3239C112.889 66.3239 112.656 66.1271 112.619 65.8558C112.526 65.1921 112.222 64.4937 112.003 64.4465C111.206 64.2741 109.844 63.4796 108.399 62.6105L108.27 62.5332C107.61 62.1339 106.403 62.4018 105.993 62.5389C105.708 62.6327 105.402 62.4814 105.306 62.1965C105.211 61.9127 105.363 61.6056 105.646 61.51C105.845 61.4429 107.622 60.8736 108.83 61.6027L108.959 61.6801C109.863 62.2244 111.546 63.2367 112.232 63.3852C113.356 63.6275 113.647 65.3633 113.694 65.7085C113.734 66.0054 113.526 66.2784 113.23 66.3194C113.205 66.3228 113.18 66.3239 113.155 66.3239Z" fill="#2800FF"/>
<path d="M114.716 63.1701C114.449 63.1701 114.216 62.9733 114.179 62.7014C114.086 62.0371 113.781 61.3393 113.564 61.2921C112.764 61.1203 111.4 60.3241 109.954 59.4527L109.83 59.3777C109.167 58.9795 107.934 59.2548 107.554 59.3839C107.272 59.4823 106.963 59.3276 106.866 59.0438C106.77 58.7594 106.922 58.4517 107.206 58.3556C107.405 58.2885 109.182 57.7203 110.39 58.4478L110.514 58.5228C111.419 59.0677 113.104 60.0823 113.792 60.2314C114.916 60.4731 115.207 62.2089 115.254 62.5547C115.295 62.851 115.087 63.1246 114.79 63.165C114.765 63.1684 114.74 63.1701 114.716 63.1701Z" fill="#2800FF"/>
<path d="M116.155 60.0773C115.888 60.0773 115.656 59.8805 115.619 59.6086C115.526 58.9449 115.221 58.2465 115.003 58.1993C114.205 58.0275 112.843 57.233 111.398 56.3628L111.269 56.2854C110.606 55.8873 109.374 56.1631 108.993 56.2917C108.711 56.3884 108.402 56.2354 108.306 55.9516C108.21 55.6672 108.362 55.3595 108.646 55.2634C108.844 55.1963 110.621 54.6286 111.83 55.3549L111.958 55.4329C112.862 55.9772 114.544 56.9901 115.231 57.1385C116.356 57.3808 116.646 59.1161 116.694 59.4619C116.735 59.7582 116.526 60.0318 116.23 60.0722C116.204 60.0756 116.179 60.0773 116.155 60.0773Z" fill="#2800FF"/>
<path d="M90.617 129.566C90.501 129.566 90.3838 129.529 90.2848 129.452C90.0477 129.268 90.005 128.927 90.1887 128.69C99.6146 116.544 108.294 99.649 108.38 99.4801C108.517 99.2133 108.847 99.1081 109.111 99.2435C109.378 99.3805 109.484 99.707 109.348 99.9743C109.261 100.144 100.536 117.129 91.0464 129.356C90.9395 129.494 90.7791 129.566 90.617 129.566Z" fill="#2800FF"/>
<path d="M87.0908 137.126C86.9685 137.126 86.8451 137.084 86.7433 136.998C86.5129 136.806 86.4834 136.464 86.6756 136.235C97.2913 123.549 109.2 103.295 109.319 103.091C109.47 102.833 109.803 102.745 110.062 102.898C110.321 103.05 110.407 103.382 110.255 103.641C110.137 103.844 98.1809 124.177 87.5077 136.931C87.4008 137.059 87.2461 137.126 87.0908 137.126Z" fill="#2800FF"/>
<path d="M121.007 75.5954C120.954 75.5954 120.901 75.5874 120.85 75.5721C120.563 75.4851 120.4 75.1819 120.487 74.8953C120.536 74.7337 125.379 58.7109 126.574 53.2452C126.637 52.9523 126.927 52.7658 127.22 52.8317C127.513 52.8954 127.699 53.1849 127.634 53.4778C126.43 58.9845 121.575 75.0483 121.526 75.2098C121.455 75.4441 121.24 75.5954 121.007 75.5954Z" fill="#2800FF"/>
<path d="M119.291 73.3354C119.254 73.3354 119.216 73.332 119.178 73.3235C118.884 73.2615 118.698 72.9725 118.759 72.6802C118.775 72.6091 120.314 65.4798 124.236 55.2332C124.344 54.9528 124.661 54.8146 124.938 54.9198C125.218 55.0273 125.358 55.3407 125.251 55.6211C121.36 65.7824 119.837 72.8355 119.822 72.9054C119.768 73.1608 119.542 73.3354 119.291 73.3354Z" fill="#2800FF"/>
<path d="M80.6997 78.4809C80.6166 78.4809 80.5325 78.4615 80.4534 78.4217C80.1867 78.2846 80.0803 77.9582 80.2162 77.6909C83.9609 70.3523 88.0769 64.2524 88.1179 64.1921C88.2862 63.9442 88.6235 63.8788 88.8721 64.0465C89.12 64.2149 89.1854 64.5527 89.0171 64.8001C88.9767 64.861 84.8965 70.9085 81.1837 78.1845C81.0876 78.3728 80.8976 78.4809 80.6997 78.4809Z" fill="#2800FF"/>
<path d="M58.1755 167.854C58.1755 167.854 58.1624 165.597 57.9992 163.425H59.1179L58.1755 167.854Z" fill="#2800FF"/>
<path d="M72.937 203.207C72.5406 203.421 72.0333 203.545 71.3895 203.564C70.9993 203.577 70.616 203.447 70.2195 203.207H72.937Z" fill="#2800FF"/>
<path d="M122.722 68.9379L121.324 73.9133L121.07 74.8364C121.129 74.6482 121.226 74.3291 121.35 73.9133C121.675 72.827 122.209 71.0383 122.827 68.9379C123.281 67.3966 123.776 65.6864 124.27 63.963L122.722 68.9379Z" fill="#2800FF"/>
<path d="M124.741 55.4237C124.266 56.6658 123.831 57.8556 123.421 58.9937C122.784 60.7955 122.225 62.4602 121.743 63.9629C121.126 65.9074 120.638 67.5852 120.261 68.9377C119.675 71.0643 119.376 72.3974 119.311 72.716L124.741 55.4237Z" fill="#2800FF"/>
<path d="M30.7483 28.0726C30.7483 27.4811 30.7545 26.4232 30.771 24.9046C30.7938 23.3861 30.8057 21.8163 30.8165 20.2011L27.2732 17.6929C26.7841 17.9659 25.6642 18.6262 23.9295 19.6835C22.1886 20.7357 20.4141 21.7879 18.6055 22.8344L20.4312 25.9853C21.3759 25.4512 22.308 24.9217 23.2294 24.3814C24.1508 23.8468 24.8674 23.4429 25.3736 23.1762L25.4589 23.2268C25.476 23.9326 25.4817 24.7056 25.4873 25.553C25.4936 26.3948 25.4993 27.1171 25.4993 27.7143C25.4993 29.8357 25.4873 31.6557 25.4589 33.1799C25.4362 34.6985 25.4191 35.7052 25.4077 36.2H30.8165C30.8057 35.7052 30.7938 34.562 30.771 32.7648C30.7545 30.9675 30.7483 29.4034 30.7483 28.0726Z" fill="#2800FF"/>
<path d="M41.3102 29.7674H35.0881V36.2H41.3102V29.7674Z" fill="#2800FF"/>
<path d="M57.2607 29.6594C57.0053 30.4278 56.6299 31.0693 56.1459 31.5874C55.8047 31.9401 55.3957 32.2131 54.9174 32.4008C54.4459 32.5879 53.9448 32.6851 53.4273 32.6851C52.933 32.6851 52.461 32.6061 52.0111 32.4457C51.5618 32.287 51.1756 32.0424 50.8457 31.7126C50.2423 31.1438 49.8157 30.4784 49.566 29.7049C49.3095 28.9314 49.185 28.0896 49.185 27.1683C49.185 26.3771 49.3095 25.5871 49.566 24.7966C49.8157 24.0117 50.1803 23.3747 50.6518 22.8918C51.0499 22.4653 51.4657 22.1632 51.8973 21.9812C52.3296 21.7998 52.8364 21.7088 53.4273 21.7088C53.9221 21.7088 54.4004 21.7936 54.8549 21.9642C55.3155 22.1354 55.7137 22.3851 56.0435 22.7149C56.6066 23.2666 57.0161 23.9548 57.272 24.7795C57.5223 25.6042 57.6531 26.4403 57.6531 27.2763C57.6531 28.101 57.5223 28.8973 57.2607 29.6594ZM62.3174 23.3064C61.8334 22.1354 61.1054 21.0826 60.1272 20.1499C59.2285 19.3138 58.2219 18.6939 57.102 18.2963C55.981 17.8919 54.7525 17.6929 53.4102 17.6929C52.0799 17.6929 50.8281 17.909 49.6678 18.3469C48.5076 18.7849 47.4952 19.4276 46.6193 20.275C45.6525 21.2021 44.9415 22.2372 44.4808 23.3747C44.0207 24.5122 43.7927 25.7811 43.7927 27.1683C43.7927 28.5844 44.06 29.921 44.5946 31.1779C45.1349 32.4406 45.897 33.5155 46.8867 34.3971C47.7455 35.1655 48.7351 35.7393 49.8555 36.1204C50.976 36.5071 52.1647 36.6948 53.4273 36.6948C54.724 36.6948 55.919 36.5071 57.0161 36.1204C58.1081 35.7393 59.0864 35.1592 59.9509 34.38C60.9746 33.4473 61.7487 32.3609 62.2662 31.1211C62.7832 29.8755 63.0449 28.5731 63.0449 27.2029C63.0449 25.7811 62.8003 24.4781 62.3174 23.3064Z" fill="#2800FF"/>
<path d="M77.7923 29.6594C77.537 30.4278 77.1667 31.0693 76.6838 31.5874C76.3426 31.9401 75.9325 32.2131 75.4553 32.4008C74.9776 32.5879 74.4765 32.6851 73.9595 32.6851C73.4647 32.6851 72.9926 32.6061 72.5433 32.4457C72.0991 32.287 71.7073 32.0424 71.3774 31.7126C70.7796 31.1438 70.3474 30.4784 70.0977 29.7049C69.8418 28.9314 69.7166 28.0896 69.7166 27.1683C69.7166 26.3771 69.8418 25.5871 70.0977 24.7966C70.3474 24.0117 70.7119 23.3747 71.184 22.8918C71.5816 22.4653 71.9973 22.1632 72.429 21.9812C72.8613 21.7998 73.368 21.7088 73.9595 21.7088C74.4543 21.7088 74.9321 21.7936 75.3922 21.9642C75.8534 22.1354 76.2453 22.3851 76.5752 22.7149C77.1388 23.2666 77.5478 23.9548 77.8043 24.7795C78.0602 25.6042 78.1848 26.4403 78.1848 27.2763C78.1848 28.101 78.0545 28.8973 77.7923 29.6594ZM82.8491 23.3064C82.3656 22.1354 81.6376 21.0826 80.6594 20.1499C79.7608 19.3138 78.7535 18.6939 77.6336 18.2963C76.5189 17.8919 75.2847 17.6929 73.9419 17.6929C72.6116 17.6929 71.366 17.909 70.2052 18.3469C69.0392 18.7849 68.0269 19.4276 67.1516 20.275C66.1904 21.2021 65.4738 22.2372 65.0125 23.3747C64.5575 24.5122 64.3243 25.7811 64.3243 27.1683C64.3243 28.5844 64.5922 29.921 65.1262 31.1779C65.6671 32.4406 66.4293 33.5155 67.4189 34.3971C68.2777 35.1655 69.2673 35.7393 70.3872 36.1204C71.5082 36.5071 72.6969 36.6948 73.9595 36.6948C75.2563 36.6948 76.4506 36.5071 77.5478 36.1204C78.6454 35.7393 79.6243 35.1592 80.4825 34.38C81.5063 33.4473 82.2803 32.3609 82.7979 31.1211C83.3155 29.8755 83.5765 28.5731 83.5765 27.2029C83.5765 25.7811 83.3319 24.4781 82.8491 23.3064Z" fill="#2800FF"/>
<path d="M110.827 197.486C110.827 196.775 110.834 195.797 110.839 194.546C110.845 193.295 110.856 192.055 110.873 190.815H107.574C107.574 191.98 107.586 193.528 107.608 195.456C107.626 197.383 107.637 198.84 107.637 199.824L107.597 199.841C105.925 197.879 104.316 195.945 102.774 194.034C101.228 192.129 100.3 190.985 99.9871 190.61L97.2229 191.719C97.24 193.039 97.2463 194.267 97.2576 195.416C97.2627 196.565 97.2684 197.509 97.2684 198.236C97.2684 200.04 97.2627 201.547 97.2519 202.753C97.24 203.964 97.2286 204.744 97.2229 205.102H100.51C100.51 204.601 100.499 203.27 100.482 201.098C100.465 198.925 100.454 197.072 100.454 195.541L100.51 195.518C100.846 195.91 101.779 197.043 103.309 198.914C104.844 200.779 106.511 202.912 108.308 205.307L110.862 204.271C110.862 203.93 110.856 203.116 110.845 201.837C110.834 200.552 110.827 199.102 110.827 197.486Z" fill="#2800FF"/>
<path d="M118.191 197.566C118.191 196.576 118.197 195.45 118.203 194.182C118.214 192.908 118.225 191.787 118.231 190.815H114.699C114.716 192.128 114.721 193.42 114.733 194.682C114.739 195.945 114.744 196.986 114.744 197.81C114.744 199.779 114.739 201.331 114.727 202.475C114.716 203.623 114.704 204.499 114.699 205.102H118.231C118.225 204.288 118.214 203.333 118.203 202.236C118.197 201.137 118.191 199.579 118.191 197.566Z" fill="#2800FF"/>
<path d="M132.113 202.326C131.499 202.326 130.76 202.264 129.89 202.127C129.019 201.996 128.252 201.78 127.597 201.473C126.716 201.092 126.045 200.609 125.573 200.017C125.101 199.426 124.867 198.743 124.867 197.97C124.867 197.196 125.118 196.519 125.612 195.922C126.102 195.325 126.784 194.848 127.643 194.472C128.274 194.205 129.019 194 129.872 193.869C130.726 193.738 131.454 193.67 132.062 193.67H132.551C132.449 193.073 132.369 192.504 132.312 191.959C132.249 191.418 132.204 190.991 132.165 190.684H131.653C130.049 190.684 128.53 190.894 127.108 191.31C125.686 191.725 124.498 192.339 123.542 193.142C122.803 193.744 122.228 194.449 121.818 195.251C121.415 196.053 121.21 196.952 121.21 197.947C121.21 199.017 121.415 199.961 121.824 200.779C122.24 201.604 122.826 202.321 123.576 202.935C124.543 203.731 125.721 204.323 127.103 204.715C128.485 205.107 130.065 205.307 131.835 205.307H132.335C132.403 204.704 132.472 204.158 132.54 203.651C132.614 203.145 132.682 202.702 132.756 202.326H132.113Z" fill="#2800FF"/>
<path d="M138.836 198.966L138.843 198.954C139.075 198.373 139.377 197.572 139.752 196.554C140.122 195.535 140.446 194.682 140.714 193.995L140.759 193.989C141.077 194.83 141.402 195.689 141.726 196.56C142.05 197.429 142.346 198.231 142.613 198.954L142.619 198.966H138.836ZM146.447 199.46C145.155 196.486 143.904 193.568 142.675 190.707H139.059C137.887 193.426 136.652 196.264 135.362 199.221C134.071 202.184 133.331 203.88 133.137 204.306L136.413 205.421C136.477 205.198 136.658 204.692 136.949 203.897C137.244 203.1 137.596 202.19 138.012 201.172H143.444C143.848 202.178 144.194 203.077 144.485 203.873C144.774 204.67 144.957 205.187 145.031 205.421L148.517 204.254C148.42 204.033 147.732 202.435 146.447 199.46Z" fill="#2800FF"/>
<path d="M86.0898 221.601C85.6235 220.907 84.9865 220.1 84.184 219.178C83.3485 218.212 82.5636 217.268 81.8242 216.335V216.267C82.3475 215.943 82.8645 215.453 83.3712 214.805C83.8774 214.162 84.1276 213.383 84.1276 212.467C84.1276 211.672 83.8888 210.954 83.4053 210.317C82.927 209.681 82.1933 209.203 81.2037 208.873C80.5161 208.64 79.7818 208.492 79.0032 208.423C78.224 208.361 77.3026 208.332 76.2442 208.332C75.6817 208.332 75.0731 208.339 74.4242 208.35C73.7707 208.367 73.3441 208.372 73.1388 208.372C73.1565 210.329 73.1735 211.836 73.1735 212.894C73.1792 213.958 73.1792 214.771 73.1792 215.339C73.1792 217.472 73.1735 219.087 73.1621 220.179C73.1508 221.271 73.1445 222.097 73.1388 222.659H76.6708C76.66 222.051 76.6537 221.056 76.648 219.68C76.6429 218.303 76.6372 217.035 76.6372 215.875C76.6372 215.169 76.6372 214.373 76.6429 213.491C76.6429 212.604 76.648 211.739 76.66 210.892H77.297C77.6211 210.892 77.9504 210.909 78.2923 210.937C78.6335 210.972 78.9634 211.057 79.2819 211.188C79.6743 211.352 79.9815 211.603 80.2084 211.95C80.4308 212.291 80.5445 212.678 80.5445 213.11C80.5445 213.565 80.4763 213.94 80.3398 214.231C80.2027 214.521 80.0042 214.8 79.7426 215.061C79.4866 215.311 79.1619 215.533 78.7808 215.726C78.3946 215.914 78.0875 216.04 77.8543 216.085L77.7975 216.301C79.3786 218.377 80.5559 219.912 81.3294 220.902C82.1023 221.892 82.6199 222.574 82.8821 222.961L86.0324 221.732L86.1467 221.687C86.1291 221.659 86.1069 221.63 86.0898 221.601Z" fill="#2800FF"/>
<path d="M95.4544 216.522H91.6773L91.683 216.517C91.9111 215.931 92.2125 215.129 92.5879 214.111C92.9627 213.093 93.2818 212.24 93.5548 211.551H93.594C93.9188 212.388 94.2367 213.246 94.5615 214.117C94.8857 214.987 95.1814 215.789 95.4544 216.517V216.522ZM99.2815 217.017C97.9967 214.043 96.7398 211.125 95.5164 208.264H91.8997C90.7275 210.983 89.4939 213.821 88.2028 216.784C87.0995 219.321 86.3885 220.924 86.0928 221.601C86.07 221.647 86.053 221.692 86.0353 221.732C86.0131 221.783 85.9955 221.829 85.979 221.863L89.2493 222.983C89.3176 222.762 89.4939 222.25 89.7896 221.453C90.0797 220.658 90.438 219.753 90.8532 218.735H96.2848C96.6829 219.736 97.0298 220.634 97.3256 221.431C97.6156 222.233 97.7971 222.744 97.8716 222.983L101.352 221.812C101.261 221.59 100.573 219.992 99.2815 217.017Z" fill="#2800FF"/>
<path d="M114.943 218.781C114.943 218.292 114.949 217.717 114.96 217.051C114.972 216.386 114.983 215.783 114.989 215.243H111.57C111.587 216.79 111.599 217.973 111.599 218.797C111.605 219.622 111.605 220.106 111.605 220.237C110.967 220.208 110.342 220.128 109.745 219.986C109.142 219.849 108.59 219.645 108.095 219.384C107.458 219.042 106.941 218.57 106.531 217.967C106.122 217.359 105.918 216.613 105.918 215.726C105.918 214.918 106.173 214.185 106.69 213.514C107.208 212.848 107.914 212.331 108.812 211.967C109.472 211.7 110.211 211.5 111.03 211.381C111.85 211.261 112.623 211.199 113.356 211.199H114.261L113.88 208.247C113.744 208.247 113.601 208.242 113.459 208.242C113.311 208.236 113.146 208.236 112.958 208.236C111.485 208.236 110.143 208.378 108.92 208.662C107.703 208.946 106.645 209.357 105.746 209.896C104.638 210.54 103.785 211.33 103.187 212.279C102.59 213.223 102.288 214.298 102.288 215.498C102.288 216.59 102.505 217.558 102.942 218.405C103.375 219.247 103.949 219.952 104.671 220.515C105.758 221.374 106.946 221.971 108.226 222.301C109.511 222.636 110.956 222.801 112.566 222.801C112.958 222.801 113.436 222.784 113.993 222.75C114.556 222.711 114.886 222.682 114.978 222.659C114.978 222.102 114.972 221.482 114.96 220.8C114.949 220.122 114.943 219.452 114.943 218.781Z" fill="#2800FF"/>
<path d="M131.411 208.372H127.879C127.879 208.958 127.884 209.703 127.896 210.607C127.907 211.517 127.913 212.541 127.913 213.684C127.913 214.179 127.913 214.708 127.907 215.282C127.901 215.857 127.901 216.431 127.901 217.006C127.901 218.07 127.634 218.865 127.106 219.383C126.576 219.906 125.803 220.162 124.785 220.162C123.835 220.162 123.073 219.895 122.51 219.36C121.941 218.832 121.657 218.046 121.657 217.006C121.657 216.431 121.657 215.868 121.651 215.323V213.684C121.651 212.558 121.651 211.54 121.657 210.636C121.668 209.732 121.674 208.975 121.679 208.372H118.148C118.148 209.709 118.153 210.738 118.164 211.449C118.175 212.166 118.181 212.876 118.181 213.582C118.181 214.389 118.181 215.089 118.175 215.675C118.17 216.261 118.17 216.767 118.17 217.188C118.17 218.161 118.324 218.996 118.631 219.701C118.932 220.401 119.382 220.998 119.973 221.488C120.53 221.965 121.19 222.341 121.952 222.613C122.72 222.887 123.664 223.023 124.785 223.023C125.797 223.023 126.679 222.904 127.435 222.659C128.198 222.42 128.897 222.039 129.545 221.516C130.114 221.056 130.563 220.47 130.893 219.764C131.229 219.053 131.393 218.212 131.393 217.239C131.393 216.818 131.388 216.318 131.388 215.732C131.382 215.14 131.382 214.446 131.382 213.633C131.382 212.99 131.388 212.291 131.393 211.523C131.405 210.749 131.411 209.703 131.411 208.372Z" fill="#2800FF"/>
<path d="M138.842 216.522V216.517C139.075 215.931 139.376 215.129 139.752 214.111C140.122 213.093 140.445 212.24 140.713 211.551H140.759C141.082 212.388 141.401 213.246 141.725 214.117C142.05 214.987 142.345 215.789 142.613 216.517L142.619 216.522H138.842ZM146.446 217.017C145.155 214.043 143.903 211.125 142.681 208.264H139.064C137.886 210.983 136.652 213.821 135.361 216.784C134.07 219.747 133.331 221.437 133.137 221.863L136.413 222.983C136.476 222.762 136.657 222.25 136.954 221.453C137.243 220.658 137.597 219.753 138.012 218.735H143.443C143.847 219.736 144.193 220.634 144.484 221.431C144.779 222.233 144.962 222.744 145.036 222.983L148.517 221.812C148.426 221.59 147.732 219.992 146.446 217.017Z" fill="#2800FF"/>
<path d="M89.738 21.9357H88.1625V21.93C88.2592 21.6912 88.3849 21.355 88.5436 20.9347C88.6972 20.5082 88.8337 20.1499 88.9423 19.8655H88.965C89.0959 20.2124 89.2318 20.5713 89.3632 20.9347C89.4991 21.2987 89.6248 21.6286 89.738 21.93V21.9357ZM91.331 22.1405C90.7959 20.9012 90.2726 19.6892 89.7613 18.4948H88.2541C87.7644 19.6266 87.2531 20.8102 86.7128 22.0438C86.1776 23.278 85.871 23.9838 85.7857 24.1652L87.1507 24.6254C87.1786 24.5349 87.2531 24.3245 87.3782 23.9889C87.4977 23.659 87.645 23.2837 87.8219 22.8571H90.0798C90.2499 23.278 90.392 23.6539 90.5177 23.9838C90.6366 24.3137 90.7111 24.5292 90.7452 24.6254L92.195 24.1425C92.1552 24.0458 91.8708 23.3804 91.331 22.1405Z" fill="#2800FF"/>
<path d="M96.7854 23.3973H95.0621C94.7663 23.3973 94.5269 23.3911 94.3512 23.3911C94.3455 23.2324 94.3455 23.0333 94.3455 22.7831C94.3398 22.5379 94.3398 22.2371 94.3398 21.8901H96.5408C96.9441 21.8958 97.1721 21.8958 97.2285 21.8958V21.0143H96.592C96.2622 21.0194 95.9038 21.0194 95.5171 21.0194H94.9313C94.6924 21.0194 94.4933 21.0143 94.3398 21.0143C94.3398 20.8209 94.3455 20.5928 94.3455 20.3488C94.3511 20.0986 94.3512 19.8654 94.3512 19.643C94.499 19.643 94.7095 19.643 94.9717 19.6379H95.6644C96.0062 19.6379 96.3475 19.6379 96.683 19.643C97.0243 19.643 97.2176 19.6487 97.2688 19.6487V18.551H92.9406C92.9463 19.0976 92.952 19.6379 92.952 20.1662C92.9577 20.6895 92.9577 21.128 92.9577 21.4693C92.9577 22.2769 92.9577 22.9423 92.952 23.4656C92.9463 23.9945 92.9463 24.3352 92.9406 24.495C93.117 24.495 93.4013 24.4893 93.7938 24.4893C94.1862 24.4831 94.59 24.4831 94.999 24.4831C95.4773 24.4831 95.955 24.4831 96.4385 24.4893C96.9219 24.4893 97.2177 24.495 97.3257 24.495V23.3911C97.2404 23.3911 97.0641 23.3911 96.7854 23.3973Z" fill="#2800FF"/>
<path d="M103.264 23.0447C102.917 22.6409 102.588 22.2484 102.28 21.856V21.8332C102.502 21.6967 102.718 21.492 102.928 21.219C103.139 20.9517 103.241 20.6275 103.241 20.2464C103.241 19.9166 103.144 19.6151 102.94 19.3535C102.741 19.0862 102.439 18.8865 102.024 18.7506C101.734 18.6534 101.432 18.5914 101.108 18.5629C100.784 18.5345 100.397 18.5231 99.9593 18.5231C99.721 18.5231 99.4702 18.5231 99.1978 18.5345C98.9299 18.5402 98.7485 18.5402 98.6626 18.5402C98.6745 19.3535 98.6796 19.9848 98.6796 20.4284V21.4459C98.6796 22.3337 98.6796 23.0049 98.6745 23.4599C98.6688 23.9143 98.6688 24.2618 98.6626 24.495H100.136C100.13 24.2391 100.13 23.8239 100.124 23.2489C100.124 22.675 100.119 22.1517 100.119 21.6683C100.119 21.3731 100.124 21.0427 100.124 20.673C100.124 20.3033 100.124 19.945 100.13 19.5924H100.397C100.528 19.5924 100.67 19.5975 100.812 19.6094C100.955 19.6208 101.092 19.6606 101.222 19.7118C101.387 19.7857 101.518 19.8881 101.609 20.0303C101.7 20.1725 101.751 20.3317 101.751 20.5137C101.751 20.7014 101.722 20.8607 101.666 20.9801C101.609 21.1052 101.523 21.219 101.415 21.3271C101.308 21.4294 101.176 21.5261 101.017 21.6057C100.853 21.6848 100.727 21.7366 100.625 21.7536L100.608 21.8446C101.262 22.7091 101.751 23.3456 102.075 23.7613C102.399 24.1708 102.615 24.4552 102.723 24.6201L104.083 24.0912C103.89 23.7954 103.616 23.4428 103.264 23.0447Z" fill="#2800FF"/>
<path d="M108.695 23.3973H106.966C106.67 23.3973 106.432 23.3911 106.255 23.3911C106.255 23.2324 106.249 23.0333 106.249 22.7831V21.8901H108.45C108.849 21.8958 109.076 21.8958 109.138 21.8958V21.0143H108.501C108.166 21.0194 107.808 21.0194 107.427 21.0194H106.835C106.597 21.0194 106.403 21.0143 106.249 21.0143V20.3488C106.255 20.0986 106.255 19.8654 106.255 19.643C106.408 19.643 106.613 19.643 106.881 19.6379H107.574C107.916 19.6379 108.252 19.6379 108.592 19.643C108.928 19.643 109.121 19.6487 109.173 19.6487V18.551H104.844C104.85 19.0976 104.856 19.6379 104.862 20.1662C104.862 20.6895 104.868 21.128 104.868 21.4693C104.868 22.2769 104.862 22.9423 104.856 23.4656C104.856 23.9945 104.85 24.3352 104.844 24.495C105.027 24.495 105.311 24.4893 105.698 24.4893C106.09 24.4831 106.494 24.4831 106.904 24.4831C107.381 24.4831 107.865 24.4831 108.348 24.4893C108.831 24.4893 109.121 24.495 109.229 24.495V23.3911C109.145 23.3911 108.968 23.3911 108.695 23.3973Z" fill="#2800FF"/>
<path d="M114.775 22.4253C114.667 22.6927 114.525 22.9139 114.343 23.0851C114.207 23.2159 114.047 23.3183 113.877 23.3917C113.7 23.4605 113.513 23.5003 113.314 23.5003C113.109 23.5003 112.921 23.4605 112.745 23.386C112.574 23.3126 112.421 23.2159 112.29 23.0908C112.091 22.9088 111.943 22.6807 111.841 22.4083C111.738 22.141 111.687 21.8447 111.687 21.521C111.687 21.231 111.738 20.9466 111.841 20.6679C111.943 20.3892 112.086 20.1617 112.273 19.9735C112.416 19.8313 112.574 19.7295 112.745 19.6555C112.921 19.5816 113.109 19.5469 113.314 19.5469C113.518 19.5469 113.706 19.5816 113.877 19.6555C114.047 19.7238 114.195 19.8205 114.326 19.9456C114.531 20.1384 114.684 20.3835 114.787 20.6793C114.889 20.9688 114.94 21.2651 114.94 21.5665C114.94 21.868 114.883 22.1523 114.775 22.4253ZM116.214 20.2357C116.055 19.837 115.816 19.4906 115.498 19.1892C115.219 18.9218 114.889 18.7228 114.519 18.5806C114.149 18.4441 113.741 18.3758 113.308 18.3758C112.864 18.3758 112.449 18.4498 112.074 18.5977C111.693 18.745 111.363 18.9617 111.084 19.2403C110.777 19.5418 110.549 19.8825 110.402 20.2578C110.254 20.6389 110.18 21.0547 110.18 21.5153C110.18 22.0102 110.265 22.4652 110.447 22.8684C110.629 23.2785 110.879 23.6248 111.198 23.9092C111.477 24.1657 111.801 24.3534 112.158 24.478C112.523 24.6037 112.91 24.6657 113.314 24.6657C113.729 24.6657 114.122 24.6037 114.485 24.4672C114.849 24.3358 115.179 24.1373 115.474 23.8637C115.783 23.5742 116.027 23.233 116.197 22.8292C116.368 22.431 116.453 21.9931 116.453 21.521C116.453 21.0655 116.373 20.6338 116.214 20.2357Z" fill="#2800FF"/>
<path d="M93.4672 167.127V167.974H94.6217V171.341H95.5773V167.974H96.7546V167.127H93.4672Z" fill="#2800FF"/>
<path d="M97.9218 167.127H96.943V171.341H97.9218V167.127Z" fill="#2800FF"/>
<path d="M100.253 170.522H99.5652V169.595H100.253C100.629 169.595 100.822 169.754 100.822 170.044C100.822 170.402 100.618 170.522 100.253 170.522ZM99.5652 167.951H100.1C100.458 167.951 100.669 168.071 100.669 168.423C100.669 168.759 100.453 168.889 100.123 168.889H99.5652V167.951ZM100.873 169.197V169.168C101.334 169.054 101.63 168.725 101.63 168.184C101.63 167.519 101.175 167.126 100.322 167.126H98.5926V171.341H100.316C101.345 171.341 101.806 170.886 101.806 170.192C101.806 169.663 101.482 169.276 100.873 169.197Z" fill="#2800FF"/>
<path d="M104.646 167.126V169.651C104.646 170.26 104.486 170.618 103.872 170.618C103.263 170.618 103.104 170.26 103.104 169.663V167.126H102.132V169.93C102.132 171.068 102.945 171.426 103.872 171.426C104.81 171.426 105.612 171.068 105.612 169.93V167.126H104.646Z" fill="#2800FF"/>
<path d="M107.76 169.054H107.14V167.951H107.76C108.164 167.951 108.363 168.144 108.363 168.503C108.363 168.901 108.147 169.054 107.76 169.054ZM109.352 170.892L109.136 170.102C109.028 169.72 108.823 169.555 108.437 169.487V169.475C108.977 169.418 109.358 169.066 109.358 168.417C109.358 167.473 108.772 167.126 107.828 167.126H106.167V171.341H107.14V169.856H107.555C107.874 169.856 108.039 169.92 108.124 170.277L108.283 170.903C108.329 171.085 108.38 171.245 108.505 171.341H109.586C109.449 171.199 109.392 171.057 109.352 170.892Z" fill="#2800FF"/>
<path d="M111.567 170.59C110.902 170.59 110.583 170.083 110.583 169.253C110.583 168.417 110.913 167.906 111.567 167.906C112.238 167.906 112.563 168.417 112.563 169.253C112.563 170.083 112.238 170.59 111.567 170.59ZM111.567 167.041C110.327 167.041 109.577 167.82 109.577 169.236C109.577 170.647 110.327 171.426 111.567 171.426C112.812 171.426 113.574 170.647 113.574 169.236C113.574 167.82 112.812 167.041 111.567 167.041Z" fill="#2800FF"/>
<path d="M116.746 167.127V168.839C116.746 169.373 116.768 169.732 116.768 169.732H116.74C116.74 169.732 116.626 169.487 116.387 169.169L114.897 167.127H113.982V171.341H114.96V169.669C114.96 169.061 114.914 168.719 114.914 168.719H114.943C114.943 168.719 115.074 168.981 115.347 169.339L116.831 171.341H117.719V167.127H116.746Z" fill="#2800FF"/>
<path d="M120.274 168.65C119.819 168.65 119.433 169.037 119.433 169.504C119.433 169.97 119.819 170.357 120.274 170.357C120.74 170.357 121.127 169.97 121.127 169.504C121.127 169.037 120.74 168.65 120.274 168.65Z" fill="#2800FF"/>
<path d="M125.66 167.974V167.127H122.833V171.341H125.66V170.499H123.806V169.618H125.438V168.81H123.806V167.974H125.66Z" fill="#2800FF"/>
<path d="M128.536 167.126V169.651C128.536 170.26 128.377 170.618 127.763 170.618C127.154 170.618 126.995 170.26 126.995 169.663V167.126H126.023V169.93C126.023 171.068 126.83 171.426 127.763 171.426C128.701 171.426 129.503 171.068 129.503 169.93V167.126H128.536Z" fill="#2800FF"/>
<path d="M131.034 170.499V167.126H130.062V171.341H132.678V170.499H131.034Z" fill="#2800FF"/>
<path d="M134.11 169.652L134.275 169.174C134.508 168.498 134.616 167.98 134.616 167.98H134.645C134.645 167.98 134.73 168.486 134.975 169.179L135.145 169.652H134.11ZM135.248 167.127H134.042L132.518 171.341H133.536L133.838 170.459H135.43L135.737 171.341H136.783L135.248 167.127Z" fill="#2800FF"/>
<path d="M140.193 167.127L139.391 168.554C139.153 168.97 139.09 169.169 139.09 169.169H139.062C139.062 169.169 139.005 168.97 138.76 168.554L137.97 167.127H136.98V171.341H137.952V169.476C137.952 168.998 137.913 168.759 137.913 168.759H137.941C137.941 168.759 138.037 169.055 138.26 169.402L138.839 170.368H139.306L139.892 169.402C140.108 169.055 140.205 168.759 140.205 168.759H140.233C140.233 168.759 140.199 168.998 140.199 169.476V171.341H141.165V167.127H140.193Z" fill="#2800FF"/>
<path d="M142.808 167.127H141.835V171.341H142.808V167.127Z" fill="#2800FF"/>
<path d="M144.589 169.652L144.754 169.174C144.992 168.498 145.1 167.98 145.1 167.98H145.129C145.129 167.98 145.215 168.486 145.459 169.179L145.629 169.652H144.589ZM145.726 167.127H144.526L143.002 171.341H144.02L144.321 170.459H145.914L146.221 171.341H147.267L145.726 167.127Z" fill="#2800FF"/>
<path d="M104.895 174.929V176.642C104.895 177.176 104.918 177.534 104.918 177.534H104.89C104.89 177.534 104.77 177.295 104.537 176.971L103.047 174.929H102.132V179.144H103.104V177.472C103.104 176.863 103.064 176.522 103.064 176.522H103.092C103.092 176.522 103.224 176.784 103.49 177.142L104.981 179.144H105.868V174.929H104.895Z" fill="#2800FF"/>
<path d="M107.513 174.929H106.541V179.144H107.513V174.929Z" fill="#2800FF"/>
<path d="M109.969 178.37C109.275 178.37 108.928 177.887 108.928 177.057C108.928 176.209 109.315 175.703 109.952 175.703C110.412 175.703 110.64 175.953 110.765 176.368L111.704 175.913C111.396 175.237 110.857 174.845 109.986 174.845C108.701 174.845 107.927 175.635 107.927 177.034C107.927 178.439 108.712 179.229 109.861 179.229C110.793 179.229 111.288 178.917 111.669 178.268L110.845 177.773C110.663 178.177 110.356 178.37 109.969 178.37Z" fill="#2800FF"/>
<path d="M113.056 177.455L113.221 176.978C113.454 176.301 113.562 175.783 113.562 175.783H113.59C113.59 175.783 113.676 176.289 113.921 176.989L114.091 177.455H113.056ZM114.193 174.93H112.994L111.469 179.145H112.481L112.783 178.269H114.381L114.689 179.145H115.729L114.193 174.93Z" fill="#2800FF"/>
<path d="M117.52 176.858H116.894V175.755H117.52C117.918 175.755 118.123 175.948 118.123 176.306C118.123 176.704 117.907 176.858 117.52 176.858ZM119.232 178.997C119.169 178.899 119.135 178.803 119.107 178.695L118.891 177.91C118.788 177.523 118.578 177.359 118.191 177.296V177.278C118.737 177.222 119.112 176.869 119.112 176.221C119.112 175.277 118.527 174.929 117.582 174.929H115.922V179.144H116.894V177.659H117.309C117.634 177.659 117.799 177.723 117.884 178.08L118.043 178.712C118.083 178.888 118.134 179.048 118.265 179.144H119.346C119.3 179.093 119.26 179.048 119.232 178.997Z" fill="#2800FF"/>
<path d="M120.768 177.455L120.933 176.978C121.166 176.301 121.274 175.783 121.274 175.783H121.302C121.302 175.783 121.388 176.289 121.632 176.989L121.803 177.455H120.768ZM121.905 174.93H120.699L119.232 178.997L119.181 179.145H120.193L120.495 178.269H122.093L122.4 179.145H123.441L121.905 174.93Z" fill="#2800FF"/>
<path d="M125.325 176.897V177.671H126.213V177.813C126.213 178.171 125.951 178.439 125.382 178.439C124.626 178.439 124.347 177.831 124.347 177.068C124.347 176.01 124.916 175.703 125.371 175.703C125.764 175.703 126.048 175.925 126.184 176.368L127.122 175.913C126.844 175.237 126.247 174.845 125.405 174.845C124.12 174.845 123.347 175.647 123.347 177.057C123.347 178.535 124.131 179.229 125.223 179.229C125.74 179.229 126.173 179.053 126.383 178.672L126.543 179.144H127.145V176.897H125.325Z" fill="#2800FF"/>
<path d="M130.066 174.929V177.455C130.066 178.064 129.907 178.422 129.293 178.422C128.684 178.422 128.525 178.064 128.525 177.466V174.929H127.552V177.734C127.552 178.877 128.366 179.229 129.293 179.229C130.232 179.229 131.033 178.877 131.033 177.734V174.929H130.066Z" fill="#2800FF"/>
<path d="M134.418 175.777V174.929H131.591V179.144H134.418V178.302H132.564V177.421H134.196V176.613H132.564V175.777H134.418Z" fill="#2800FF"/>
<path d="M137.661 174.929V176.642C137.661 177.176 137.678 177.534 137.678 177.534H137.649C137.649 177.534 137.536 177.295 137.303 176.971L135.813 174.929H134.897V179.144H135.87V177.472C135.87 176.863 135.83 176.522 135.83 176.522H135.858C135.858 176.522 135.983 176.784 136.256 177.142L137.746 179.144H138.634V174.929H137.661Z" fill="#2800FF"/>
<path d="M140.812 176.59C140.318 176.442 140.09 176.329 140.09 176.033C140.09 175.76 140.306 175.64 140.579 175.64C140.869 175.64 141.148 175.805 141.188 176.176L142.149 175.931C142.063 175.134 141.421 174.838 140.556 174.838C139.817 174.838 139.071 175.151 139.071 176.107C139.071 176.829 139.476 177.193 140.443 177.501C140.994 177.671 141.142 177.802 141.142 178.075C141.142 178.359 140.909 178.49 140.585 178.49C140.181 178.49 139.874 178.223 139.8 177.807L138.913 178.2C139.123 178.962 139.681 179.229 140.511 179.229C141.41 179.229 142.149 178.894 142.149 177.978C142.149 177.171 141.7 176.869 140.812 176.59Z" fill="#2800FF"/>
<path d="M143.531 174.929H142.559V179.144H143.531V174.929Z" fill="#2800FF"/>
<path d="M145.714 176.59C145.219 176.442 144.991 176.329 144.991 176.033C144.991 175.76 145.202 175.64 145.475 175.64C145.771 175.64 146.05 175.805 146.083 176.176L147.051 175.931C146.965 175.134 146.322 174.838 145.452 174.838C144.718 174.838 143.973 175.151 143.973 176.107C143.973 176.829 144.377 177.193 145.339 177.501C145.89 177.671 146.043 177.802 146.043 178.075C146.043 178.359 145.805 178.49 145.487 178.49C145.083 178.49 144.776 178.223 144.696 177.807L143.808 178.2C144.025 178.962 144.582 179.229 145.413 179.229C146.306 179.229 147.051 178.894 147.051 177.978C147.051 177.171 146.601 176.869 145.714 176.59Z" fill="#2800FF"/>
<path d="M21.9925 228.42V230.946C21.9925 231.554 21.8332 231.907 21.219 231.907C20.6104 231.907 20.4512 231.554 20.4512 230.951V228.42H19.4786V231.224C19.4786 232.362 20.2862 232.721 21.219 232.721C22.1574 232.721 22.9593 232.362 22.9593 231.224V228.42H21.9925Z" fill="#2800FF"/>
<path d="M24.3941 228.42V229.262H25.5486V232.629H26.5098V229.262H27.6814V228.42H24.3941Z" fill="#2800FF"/>
<path d="M30.826 231.879C30.1605 231.879 29.8426 231.372 29.8426 230.542C29.8426 229.706 30.1668 229.2 30.826 229.2C31.492 229.2 31.8213 229.706 31.8213 230.542C31.8213 231.372 31.492 231.879 30.826 231.879ZM30.826 228.33C29.581 228.33 28.8296 229.115 28.8296 230.531C28.8296 231.935 29.581 232.72 30.826 232.72C32.0715 232.72 32.8285 231.935 32.8285 230.531C32.8285 229.115 32.0715 228.33 30.826 228.33Z" fill="#2800FF"/>
<path d="M39.8761 228.42V230.127C39.8761 230.667 39.8994 231.02 39.8994 231.02H39.8704C39.8704 231.02 39.7572 230.781 39.5183 230.457L38.0339 228.42H37.1176V232.629H38.0902V230.958C38.0902 230.349 38.0447 230.007 38.0447 230.007H38.0731C38.0731 230.007 38.2045 230.269 38.4775 230.628L39.9614 232.629H40.8492V228.42H39.8761Z" fill="#2800FF"/>
<path d="M43.9922 230.946L44.1514 230.462C44.3903 229.785 44.4989 229.268 44.4989 229.268H44.5268C44.5268 229.268 44.6121 229.78 44.8572 230.474L45.0273 230.946H43.9922ZM45.1297 228.42H43.9245L42.3997 232.629H43.4177L43.7197 231.753H45.3117L45.6188 232.629H46.6653L45.1297 228.42Z" fill="#2800FF"/>
<path d="M49.9635 231.862C49.2696 231.862 48.9226 231.373 48.9226 230.543C48.9226 229.7 49.3094 229.189 49.947 229.189C50.4071 229.189 50.6346 229.439 50.7654 229.854L51.6987 229.399C51.391 228.728 50.8513 228.33 49.9862 228.33C48.6957 228.33 47.9216 229.121 47.9216 230.52C47.9216 231.924 48.7128 232.721 49.856 232.721C50.7938 232.721 51.2886 232.402 51.664 231.754L50.8456 231.259C50.6579 231.669 50.3502 231.862 49.9635 231.862Z" fill="#2800FF"/>
<path d="M54.2762 228.42H53.3037V232.629H54.2762V228.42Z" fill="#2800FF"/>
<path d="M58.046 231.879C57.3805 231.879 57.0569 231.372 57.0569 230.542C57.0569 229.706 57.3868 229.2 58.046 229.2C58.712 229.2 59.0413 229.706 59.0413 230.542C59.0413 231.372 58.712 231.879 58.046 231.879ZM58.046 228.33C56.801 228.33 56.0497 229.115 56.0497 230.531C56.0497 231.935 56.801 232.72 58.046 232.72C59.2915 232.72 60.0485 231.935 60.0485 230.531C60.0485 229.115 59.2915 228.33 58.046 228.33Z" fill="#2800FF"/>
<path d="M64.589 228.42V230.127C64.589 230.667 64.6118 231.02 64.6118 231.02H64.5777C64.5777 231.02 64.4639 230.781 64.2307 230.457L62.7406 228.42H61.8249V232.629H62.798V230.958C62.798 230.349 62.7577 230.007 62.7577 230.007H62.7861C62.7861 230.007 62.9112 230.269 63.1842 230.628L64.6744 232.629H65.5616V228.42H64.589Z" fill="#2800FF"/>
<path d="M68.7004 230.946L68.8654 230.462C69.0986 229.785 69.2066 229.268 69.2066 229.268H69.2351C69.2351 229.268 69.3204 229.78 69.5649 230.474L69.735 230.946H68.7004ZM69.8379 228.42H68.6379L67.1136 232.629H68.1254L68.4274 231.753H70.0256L70.3327 232.629H71.3736L69.8379 228.42Z" fill="#2800FF"/>
<path d="M73.8981 231.787V228.42H72.9255V232.629H75.5475V231.787H73.8981Z" fill="#2800FF"/>
<path d="M77.8677 229.939C77.4121 229.939 77.0259 230.326 77.0259 230.792C77.0259 231.258 77.4121 231.645 77.8677 231.645C78.334 231.645 78.7208 231.258 78.7208 230.792C78.7208 230.326 78.334 229.939 77.8677 229.939Z" fill="#2800FF"/>
<path d="M83.1227 230.479H82.6217V229.234H83.1227C83.526 229.234 83.7137 229.438 83.7137 229.876C83.7137 230.269 83.543 230.479 83.1227 230.479ZM83.1506 228.42H81.6434V232.629H82.6217V231.276H83.2416C84.1522 231.276 84.6805 230.735 84.6805 229.842C84.6805 228.91 84.2312 228.42 83.1506 228.42Z" fill="#2800FF"/>
<path d="M88.1153 231.879C87.4499 231.879 87.1257 231.372 87.1257 230.542C87.1257 229.706 87.4555 229.2 88.1153 229.2C88.7807 229.2 89.1049 229.706 89.1049 230.542C89.1049 231.372 88.7807 231.879 88.1153 231.879ZM88.1153 228.33C86.8703 228.33 86.119 229.115 86.119 230.531C86.119 231.935 86.8703 232.72 88.1153 232.72C89.3552 232.72 90.1173 231.935 90.1173 230.531C90.1173 229.115 89.3552 228.33 88.1153 228.33Z" fill="#2800FF"/>
<path d="M93.4867 230.343H92.8662V229.24H93.4867C93.8906 229.24 94.0896 229.433 94.0896 229.791C94.0896 230.189 93.8735 230.343 93.4867 230.343ZM95.0736 232.18L94.8631 231.396C94.7545 231.009 94.5446 230.843 94.1579 230.781V230.764C94.7039 230.707 95.0849 230.355 95.0849 229.706C95.0849 228.762 94.4934 228.42 93.5493 228.42H91.8942V232.63H92.8662V231.145H93.282C93.6005 231.145 93.7649 231.208 93.8507 231.566L94.01 232.197C94.0555 232.373 94.1004 232.533 94.2318 232.63H95.3124C95.1759 232.488 95.1191 232.345 95.0736 232.18Z" fill="#2800FF"/>
<path d="M96.3965 228.42V229.262H97.5453V232.629H98.506V229.262H99.6782V228.42H96.3965Z" fill="#2800FF"/>
<path d="M102.832 231.879C102.166 231.879 101.842 231.372 101.842 230.542C101.842 229.706 102.172 229.2 102.832 229.2C103.497 229.2 103.827 229.706 103.827 230.542C103.827 231.372 103.497 231.879 102.832 231.879ZM102.832 228.33C101.586 228.33 100.835 229.115 100.835 230.531C100.835 231.935 101.586 232.72 102.832 232.72C104.077 232.72 104.834 231.935 104.834 230.531C104.834 229.115 104.077 228.33 102.832 228.33Z" fill="#2800FF"/>
<path d="M107.394 229.939C106.938 229.939 106.552 230.326 106.552 230.792C106.552 231.258 106.938 231.645 107.394 231.645C107.86 231.645 108.247 231.258 108.247 230.792C108.247 230.326 107.86 229.939 107.394 229.939Z" fill="#2800FF"/>
<path d="M112.643 230.479H112.142V229.234H112.643C113.052 229.234 113.24 229.438 113.24 229.876C113.24 230.269 113.069 230.479 112.643 230.479ZM112.671 228.42H111.17V232.629H112.142V231.276H112.768C113.678 231.276 114.207 230.735 114.207 229.842C114.207 228.91 113.752 228.42 112.671 228.42Z" fill="#2800FF"/>
<path d="M117.635 231.879C116.969 231.879 116.651 231.372 116.651 230.542C116.651 229.706 116.981 229.2 117.635 229.2C118.3 229.2 118.63 229.706 118.63 230.542C118.63 231.372 118.3 231.879 117.635 231.879ZM117.635 228.33C116.389 228.33 115.638 229.115 115.638 230.531C115.638 231.935 116.389 232.72 117.635 232.72C118.88 232.72 119.642 231.935 119.642 230.531C119.642 229.115 118.88 228.33 117.635 228.33Z" fill="#2800FF"/>
<path d="M123.009 230.343H122.389V229.24H123.009C123.407 229.24 123.612 229.433 123.612 229.791C123.612 230.189 123.396 230.343 123.009 230.343ZM124.596 232.18L124.385 231.396C124.277 231.009 124.066 230.843 123.68 230.781V230.764C124.226 230.707 124.607 230.355 124.607 229.706C124.607 228.762 124.016 228.42 123.071 228.42H121.41V232.63H122.389V231.145H122.799C123.123 231.145 123.287 231.208 123.373 231.566L123.532 232.197C123.572 232.373 123.623 232.533 123.754 232.63H124.835C124.698 232.488 124.641 232.345 124.596 232.18Z" fill="#2800FF"/>
<path d="M125.923 228.42V229.262H127.071V232.629H128.032V229.262H129.204V228.42H125.923Z" fill="#2800FF"/>
<path d="M133.15 228.42V230.946C133.15 231.554 132.996 231.907 132.382 231.907C131.773 231.907 131.615 231.554 131.615 230.951V228.42H130.641V231.224C130.641 232.362 131.45 232.721 132.382 232.721C133.315 232.721 134.117 232.362 134.117 231.224V228.42H133.15Z" fill="#2800FF"/>
<path d="M137.759 230.389V231.157H138.646V231.304C138.646 231.657 138.385 231.924 137.821 231.924C137.06 231.924 136.781 231.315 136.781 230.559C136.781 229.501 137.355 229.189 137.804 229.189C138.197 229.189 138.487 229.41 138.618 229.854L139.556 229.399C139.277 228.728 138.686 228.33 137.839 228.33C136.553 228.33 135.78 229.131 135.78 230.543C135.78 232.026 136.564 232.721 137.662 232.721C138.173 232.721 138.606 232.538 138.822 232.157L138.976 232.629H139.579V230.389H137.759Z" fill="#2800FF"/>
<path d="M142.572 230.946L142.737 230.462C142.971 229.785 143.079 229.268 143.079 229.268H143.107C143.107 229.268 143.192 229.78 143.437 230.474L143.608 230.946H142.572ZM143.71 228.42H142.51L140.986 232.629H141.998L142.299 231.753H143.898L144.205 232.629H145.246L143.71 228.42Z" fill="#2800FF"/>
<path d="M147.774 231.787V228.42H146.801V232.629H149.423V231.787H147.774Z" fill="#2800FF"/>
<path d="M147.651 19.7524H117.968C117.668 19.7524 117.425 19.5095 117.425 19.2092C117.425 18.9095 117.668 18.6666 117.968 18.6666H147.651C147.951 18.6666 148.193 18.9095 148.193 19.2092C148.193 19.5095 147.951 19.7524 147.651 19.7524Z" fill="#2800FF"/>
<path d="M147.649 24.7249H128.581C128.281 24.7249 128.039 24.4821 128.039 24.1823C128.039 23.8826 128.281 23.6392 128.581 23.6392H147.649C147.949 23.6392 148.192 23.8826 148.192 24.1823C148.192 24.4821 147.949 24.7249 147.649 24.7249Z" fill="#2800FF"/>
<path d="M42.997 19.7524H34.0022C33.7019 19.7524 33.4585 19.5095 33.4585 19.2092C33.4585 18.9095 33.7019 18.6666 34.0022 18.6666H42.997C43.2968 18.6666 43.5396 18.9095 43.5396 19.2092C43.5396 19.5095 43.2968 19.7524 42.997 19.7524Z" fill="#2800FF"/>
<path d="M41.1947 24.7249H35.5646C35.2643 24.7249 35.0215 24.4821 35.0215 24.1823C35.0215 23.8826 35.2643 23.6392 35.5646 23.6392H41.1947C41.4944 23.6392 41.7373 23.8826 41.7373 24.1823C41.7373 24.4821 41.4944 24.7249 41.1947 24.7249Z" fill="#2800FF"/>
<path d="M122.155 24.7249H118.162C117.861 24.7249 117.618 24.4821 117.618 24.1823C117.618 23.8826 117.861 23.6392 118.162 23.6392H122.155C122.455 23.6392 122.698 23.8826 122.698 24.1823C122.698 24.4821 122.455 24.7249 122.155 24.7249Z" fill="#2800FF"/>
<path d="M147.648 29.6997H129.314C129.014 29.6997 128.772 29.4569 128.772 29.1571C128.772 28.8574 129.014 28.614 129.314 28.614H147.648C147.947 28.614 148.19 28.8574 148.19 29.1571C148.19 29.4569 147.947 29.6997 147.648 29.6997Z" fill="#2800FF"/>
<path d="M116.875 29.6997H86.6388C86.3385 29.6997 86.0957 29.4569 86.0957 29.1571C86.0957 28.8574 86.3385 28.614 86.6388 28.614H116.875C117.176 28.614 117.418 28.8574 117.418 29.1571C117.418 29.4569 117.176 29.6997 116.875 29.6997Z" fill="#2800FF"/>
<path d="M147.647 34.6685H129.828C129.528 34.6685 129.285 34.4257 129.285 34.1254C129.285 33.8256 129.528 33.5828 129.828 33.5828H147.647C147.947 33.5828 148.19 33.8256 148.19 34.1254C148.19 34.4257 147.947 34.6685 147.647 34.6685Z" fill="#2800FF"/>
<path d="M111.965 34.6685H86.4289C86.1286 34.6685 85.8857 34.4257 85.8857 34.1254C85.8857 33.8256 86.1286 33.5828 86.4289 33.5828H111.965C112.265 33.5828 112.508 33.8256 112.508 34.1254C112.508 34.4257 112.265 34.6685 111.965 34.6685Z" fill="#2800FF"/>
<path d="M147.647 39.6431H130.491C130.191 39.6431 129.948 39.4003 129.948 39.1C129.948 38.8002 130.191 38.5574 130.491 38.5574H147.647C147.946 38.5574 148.189 38.8002 148.189 39.1C148.189 39.4003 147.946 39.6431 147.647 39.6431Z" fill="#2800FF"/>
<path d="M107.154 39.6431H19.5013C19.201 39.6431 18.9587 39.4003 18.9587 39.1C18.9587 38.8002 19.201 38.5574 19.5013 38.5574H107.154C107.453 38.5574 107.696 38.8002 107.696 39.1C107.696 39.4003 107.453 39.6431 107.154 39.6431Z" fill="#2800FF"/>
<path d="M147.65 44.6186H130.461C130.162 44.6186 129.918 44.3757 129.918 44.0754C129.918 43.7757 130.162 43.5328 130.461 43.5328H147.65C147.95 43.5328 148.193 43.7757 148.193 44.0754C148.193 44.3757 147.95 44.6186 147.65 44.6186Z" fill="#2800FF"/>
<path d="M102.637 44.6186H19.498C19.1982 44.6186 18.9554 44.3757 18.9554 44.0754C18.9554 43.7757 19.1982 43.5328 19.498 43.5328H102.637C102.937 43.5328 103.18 43.7757 103.18 44.0754C103.18 44.3757 102.937 44.6186 102.637 44.6186Z" fill="#2800FF"/>
<path d="M147.649 49.5866H129.602C129.301 49.5866 129.059 49.3438 129.059 49.044C129.059 48.7443 129.301 48.5014 129.602 48.5014H147.649C147.948 48.5014 148.191 48.7443 148.191 49.044C148.191 49.3438 147.948 49.5866 147.649 49.5866Z" fill="#2800FF"/>
<path d="M98.6281 49.5866H19.5013C19.2016 49.5866 18.9587 49.3438 18.9587 49.044C18.9587 48.7443 19.2016 48.5014 19.5013 48.5014H98.6281C98.9279 48.5014 99.1713 48.7443 99.1713 49.044C99.1713 49.3438 98.9279 49.5866 98.6281 49.5866Z" fill="#2800FF"/>
<path d="M147.65 54.5614H128.602C128.302 54.5614 128.059 54.3186 128.059 54.0188C128.059 53.7191 128.302 53.4762 128.602 53.4762H147.65C147.95 53.4762 148.193 53.7191 148.193 54.0188C148.193 54.3186 147.95 54.5614 147.65 54.5614Z" fill="#2800FF"/>
<path d="M95.0643 54.5614H19.5013C19.201 54.5614 18.9587 54.3186 18.9587 54.0188C18.9587 53.7191 19.201 53.4762 19.5013 53.4762H95.0643C95.3641 53.4762 95.6069 53.7191 95.6069 54.0188C95.6069 54.3186 95.3641 54.5614 95.0643 54.5614Z" fill="#2800FF"/>
<path d="M147.649 59.5371H127.509C127.209 59.5371 126.966 59.2942 126.966 58.9945C126.966 58.6947 127.209 58.4519 127.509 58.4519H147.649C147.949 58.4519 148.192 58.6947 148.192 58.9945C148.192 59.2942 147.949 59.5371 147.649 59.5371Z" fill="#2800FF"/>
<path d="M91.8907 59.5371H19.5013C19.201 59.5371 18.9587 59.2942 18.9587 58.9945C18.9587 58.6947 19.201 58.4519 19.5013 58.4519H91.8907C92.1905 58.4519 92.4333 58.6947 92.4333 58.9945C92.4333 59.2942 92.1905 59.5371 91.8907 59.5371Z" fill="#2800FF"/>
<path d="M147.65 64.5054H126.332C126.032 64.5054 125.789 64.2625 125.789 63.9628C125.789 63.6625 126.032 63.4197 126.332 63.4197H147.65C147.95 63.4197 148.193 63.6625 148.193 63.9628C148.193 64.2625 147.95 64.5054 147.65 64.5054Z" fill="#2800FF"/>
<path d="M88.9054 64.5054H19.5013C19.201 64.5054 18.9587 64.2625 18.9587 63.9628C18.9587 63.6625 19.201 63.4197 19.5013 63.4197H88.9054C89.2051 63.4197 89.4479 63.6625 89.4479 63.9628C89.4479 64.2625 89.2051 64.5054 88.9054 64.5054Z" fill="#2800FF"/>
<path d="M147.648 69.481H125.062C124.762 69.481 124.52 69.2382 124.52 68.9385C124.52 68.6382 124.762 68.3953 125.062 68.3953H147.648C147.948 68.3953 148.191 68.6382 148.191 68.9385C148.191 69.2382 147.948 69.481 147.648 69.481Z" fill="#2800FF"/>
<path d="M84.8571 69.481H19.498C19.1982 69.481 18.9554 69.2382 18.9554 68.9385C18.9554 68.6382 19.1982 68.3953 19.498 68.3953H84.8571C85.1568 68.3953 85.3997 68.6382 85.3997 68.9385C85.3997 69.2382 85.1568 69.481 84.8571 69.481Z" fill="#2800FF"/>
<path d="M121.35 74.4559H121.324C121.024 74.4559 120.781 74.213 120.781 73.9133C120.781 73.613 121.024 73.3701 121.324 73.3701C121.623 73.3701 121.88 73.613 121.88 73.9133C121.88 74.213 121.65 74.4559 121.35 74.4559Z" fill="#2800FF"/>
<path d="M147.648 74.4559H123.683C123.383 74.4559 123.14 74.213 123.14 73.9133C123.14 73.613 123.383 73.3701 123.683 73.3701H147.648C147.948 73.3701 148.191 73.613 148.191 73.9133C148.191 74.213 147.948 74.4559 147.648 74.4559Z" fill="#2800FF"/>
<path d="M45.7202 74.4559H19.4985C19.1982 74.4559 18.9554 74.213 18.9554 73.9133C18.9554 73.613 19.1982 73.3701 19.4985 73.3701H45.7202C46.0199 73.3701 46.2628 73.613 46.2628 73.9133C46.2628 74.213 46.0199 74.4559 45.7202 74.4559Z" fill="#2800FF"/>
<path d="M147.649 79.4239H123.586C123.286 79.4239 123.043 79.181 123.043 78.8813C123.043 78.5816 123.286 78.3387 123.586 78.3387H147.649C147.948 78.3387 148.191 78.5816 148.191 78.8813C148.191 79.181 147.948 79.4239 147.649 79.4239Z" fill="#2800FF"/>
<path d="M40.0031 79.4239H19.498C19.1982 79.4239 18.9554 79.181 18.9554 78.8813C18.9554 78.5816 19.1982 78.3387 19.498 78.3387H40.0031C40.3034 78.3387 40.5463 78.5816 40.5463 78.8813C40.5463 79.181 40.3034 79.4239 40.0031 79.4239Z" fill="#2800FF"/>
<path d="M147.648 84.3987H127.019C126.719 84.3987 126.476 84.1558 126.476 83.8561C126.476 83.5564 126.719 83.3135 127.019 83.3135H147.648C147.948 83.3135 148.191 83.5564 148.191 83.8561C148.191 84.1558 147.948 84.3987 147.648 84.3987Z" fill="#2800FF"/>
<path d="M44.9331 84.3987H19.498C19.1982 84.3987 18.9554 84.1558 18.9554 83.8561C18.9554 83.5564 19.1982 83.3135 19.498 83.3135H44.9331C45.2328 83.3135 45.4762 83.5564 45.4762 83.8561C45.4762 84.1558 45.2328 84.3987 44.9331 84.3987Z" fill="#2800FF"/>
<path d="M147.648 89.3748H130.135C129.835 89.3748 129.592 89.1319 129.592 88.8322C129.592 88.5325 129.835 88.2896 130.135 88.2896H147.648C147.948 88.2896 148.191 88.5325 148.191 88.8322C148.191 89.1319 147.948 89.3748 147.648 89.3748Z" fill="#2800FF"/>
<path d="M52.5321 89.3748H19.5013C19.201 89.3748 18.9587 89.1319 18.9587 88.8322C18.9587 88.5325 19.201 88.2896 19.5013 88.2896H52.5321C52.8318 88.2896 53.0746 88.5325 53.0746 88.8322C53.0746 89.1319 52.8318 89.3748 52.5321 89.3748Z" fill="#2800FF"/>
<path d="M147.65 94.3431H132.914C132.614 94.3431 132.371 94.1003 132.371 93.8005C132.371 93.5002 132.614 93.2574 132.914 93.2574H147.65C147.95 93.2574 148.193 93.5002 148.193 93.8005C148.193 94.1003 147.95 94.3431 147.65 94.3431Z" fill="#2800FF"/>
<path d="M59.4874 94.3431H19.498C19.1982 94.3431 18.9554 94.1003 18.9554 93.8005C18.9554 93.5002 19.1982 93.2574 19.498 93.2574H59.4874C59.7871 93.2574 60.03 93.5002 60.03 93.8005C60.03 94.1003 59.7871 94.3431 59.4874 94.3431Z" fill="#2800FF"/>
<path d="M147.65 99.3181H135.314C135.013 99.3181 134.77 99.0753 134.77 98.7755C134.77 98.4758 135.013 98.2324 135.314 98.2324H147.65C147.95 98.2324 148.193 98.4758 148.193 98.7755C148.193 99.0753 147.95 99.3181 147.65 99.3181Z" fill="#2800FF"/>
<path d="M63.2883 99.3181H19.5013C19.201 99.3181 18.9587 99.0753 18.9587 98.7755C18.9587 98.4758 19.201 98.2324 19.5013 98.2324H63.2883C63.5886 98.2324 63.8314 98.4758 63.8314 98.7755C63.8314 99.0753 63.5886 99.3181 63.2883 99.3181Z" fill="#2800FF"/>
<path d="M72.8078 99.867H70.1289C69.8292 99.867 69.5864 99.6241 69.5864 99.3244C69.5864 99.0241 69.8292 98.7812 70.1289 98.7812H72.8078C73.1081 98.7812 73.3509 99.0241 73.3509 99.3244C73.3509 99.6241 73.1081 99.867 72.8078 99.867Z" fill="#2800FF"/>
<path d="M125.471 105.577H111.886C111.586 105.577 111.343 105.334 111.343 105.033C111.343 104.734 111.586 104.491 111.886 104.491H125.471C125.77 104.491 126.013 104.734 126.013 105.033C126.013 105.334 125.77 105.577 125.471 105.577Z" fill="#2800FF"/>
<path d="M147.65 104.293H137.296C136.997 104.293 136.753 104.05 136.753 103.75C136.753 103.451 136.997 103.207 137.296 103.207H147.65C147.95 103.207 148.193 103.451 148.193 103.75C148.193 104.05 147.95 104.293 147.65 104.293Z" fill="#2800FF"/>
<path d="M65.6105 104.293H19.5013C19.201 104.293 18.9587 104.05 18.9587 103.75C18.9587 103.451 19.201 103.207 19.5013 103.207H65.6105C65.9102 103.207 66.1531 103.451 66.1531 103.75C66.1531 104.05 65.9102 104.293 65.6105 104.293Z" fill="#2800FF"/>
<path d="M72.0667 104.293H67.5929C67.2926 104.293 67.0503 104.05 67.0503 103.75C67.0503 103.451 67.2926 103.207 67.5929 103.207H72.0667C72.3664 103.207 72.6093 103.451 72.6093 103.75C72.6093 104.05 72.3664 104.293 72.0667 104.293Z" fill="#2800FF"/>
<path d="M129.165 109.262H109.467C109.166 109.262 108.923 109.018 108.923 108.719C108.923 108.419 109.166 108.176 109.467 108.176H129.165C129.465 108.176 129.708 108.419 129.708 108.719C129.708 109.018 129.465 109.262 129.165 109.262Z" fill="#2800FF"/>
<path d="M147.649 109.262H138.766C138.466 109.262 138.223 109.018 138.223 108.719C138.223 108.419 138.466 108.176 138.766 108.176H147.649C147.949 108.176 148.192 108.419 148.192 108.719C148.192 109.018 147.949 109.262 147.649 109.262Z" fill="#2800FF"/>
<path d="M71.0665 109.262H19.5013C19.2016 109.262 18.9587 109.018 18.9587 108.719C18.9587 108.419 19.2016 108.176 19.5013 108.176H71.0665C71.3668 108.176 71.6097 108.419 71.6097 108.719C71.6097 109.018 71.3668 109.262 71.0665 109.262Z" fill="#2800FF"/>
<path d="M133.827 114.237H106.097C105.797 114.237 105.554 113.994 105.554 113.694C105.554 113.394 105.797 113.151 106.097 113.151H133.827C134.127 113.151 134.37 113.394 134.37 113.694C134.37 113.994 134.127 114.237 133.827 114.237Z" fill="#2800FF"/>
<path d="M147.65 114.237H139.592C139.292 114.237 139.049 113.994 139.049 113.694C139.049 113.394 139.292 113.151 139.592 113.151H147.65C147.95 113.151 148.193 113.394 148.193 113.694C148.193 113.994 147.95 114.237 147.65 114.237Z" fill="#2800FF"/>
<path d="M69.9842 114.237H19.498C19.1982 114.237 18.9554 113.994 18.9554 113.694C18.9554 113.394 19.1982 113.151 19.498 113.151H69.9842C70.284 113.151 70.5268 113.394 70.5268 113.694C70.5268 113.994 70.284 114.237 69.9842 114.237Z" fill="#2800FF"/>
<path d="M147.649 119.212H102.658C102.358 119.212 102.115 118.969 102.115 118.669C102.115 118.369 102.358 118.126 102.658 118.126H147.649C147.948 118.126 148.191 118.369 148.191 118.669C148.191 118.969 147.948 119.212 147.649 119.212Z" fill="#2800FF"/>
<path d="M68.8649 119.212H19.498C19.1982 119.212 18.9554 118.969 18.9554 118.669C18.9554 118.369 19.1982 118.126 19.498 118.126H68.8649C69.1652 118.126 69.4081 118.369 69.4081 118.669C69.4081 118.969 69.1652 119.212 68.8649 119.212Z" fill="#2800FF"/>
<path d="M147.647 124.18H99.1385C98.8388 124.18 98.5959 123.938 98.5959 123.638C98.5959 123.338 98.8388 123.095 99.1385 123.095H147.647C147.947 123.095 148.19 123.338 148.19 123.638C148.19 123.938 147.947 124.18 147.647 124.18Z" fill="#2800FF"/>
<path d="M67.7171 124.18H19.5013C19.201 124.18 18.9587 123.938 18.9587 123.638C18.9587 123.338 19.201 123.095 19.5013 123.095H67.7171C68.0174 123.095 68.2603 123.338 68.2603 123.638C68.2603 123.938 68.0174 124.18 67.7171 124.18Z" fill="#2800FF"/>
<path d="M147.65 129.156H95.4994C95.1991 129.156 94.9568 128.913 94.9568 128.613C94.9568 128.313 95.1991 128.07 95.4994 128.07H147.65C147.95 128.07 148.192 128.313 148.192 128.613C148.192 128.913 147.95 129.156 147.65 129.156Z" fill="#2800FF"/>
<path d="M66.566 129.156H19.5013C19.2016 129.156 18.9587 128.913 18.9587 128.613C18.9587 128.313 19.2016 128.07 19.5013 128.07H66.566C66.8663 128.07 67.1091 128.313 67.1091 128.613C67.1091 128.913 66.8663 129.156 66.566 129.156Z" fill="#2800FF"/>
<path d="M147.65 134.131H94.2897C93.9894 134.131 93.7471 133.888 93.7471 133.588C93.7471 133.288 93.9894 133.046 94.2897 133.046H147.65C147.95 133.046 148.192 133.288 148.192 133.588C148.192 133.888 147.95 134.131 147.65 134.131Z" fill="#2800FF"/>
<path d="M91.7907 134.131H91.6803C91.38 134.131 91.1378 133.888 91.1378 133.588C91.1378 133.288 91.38 133.046 91.6803 133.046H91.7907C92.0904 133.046 92.3338 133.288 92.3338 133.588C92.3338 133.888 92.0904 134.131 91.7907 134.131Z" fill="#2800FF"/>
<path d="M65.4023 134.131H19.5013C19.2016 134.131 18.9587 133.888 18.9587 133.588C18.9587 133.288 19.2016 133.046 19.5013 133.046H65.4023C65.702 133.046 65.9449 133.288 65.9449 133.588C65.9449 133.888 65.702 134.131 65.4023 134.131Z" fill="#2800FF"/>
<path d="M87.7133 139.099H87.5119C87.2116 139.099 86.9688 138.857 86.9688 138.556C86.9688 138.257 87.2116 138.014 87.5119 138.014H87.7133C88.013 138.014 88.2559 138.257 88.2559 138.556C88.2559 138.857 88.013 139.099 87.7133 139.099Z" fill="#2800FF"/>
<path d="M147.649 139.099H97.4428C97.1425 139.099 96.8997 138.857 96.8997 138.556C96.8997 138.257 97.1425 138.014 97.4428 138.014H147.649C147.948 138.014 148.191 138.257 148.191 138.556C148.191 138.857 147.948 139.099 147.649 139.099Z" fill="#2800FF"/>
<path d="M64.2836 139.099H19.5013C19.201 139.099 18.9587 138.857 18.9587 138.556C18.9587 138.257 19.201 138.014 19.5013 138.014H64.2836C64.5833 138.014 64.8262 138.257 64.8262 138.556C64.8262 138.857 64.5833 139.099 64.2836 139.099Z" fill="#2800FF"/>
<path d="M85.7616 144.074H83.4268C83.1265 144.074 82.8831 143.831 82.8831 143.531C82.8831 143.231 83.1265 142.989 83.4268 142.989H85.7616C86.0613 142.989 86.3041 143.231 86.3041 143.531C86.3041 143.831 86.0613 144.074 85.7616 144.074Z" fill="#2800FF"/>
<path d="M147.649 144.074H100.949C100.648 144.074 100.405 143.831 100.405 143.531C100.405 143.231 100.648 142.989 100.949 142.989H147.649C147.949 142.989 148.192 143.231 148.192 143.531C148.192 143.831 147.949 144.074 147.649 144.074Z" fill="#2800FF"/>
<path d="M63.2918 144.074H19.498C19.1982 144.074 18.9554 143.831 18.9554 143.531C18.9554 143.231 19.1982 142.989 19.498 142.989H63.2918C63.5915 142.989 63.8344 143.231 63.8344 143.531C63.8344 143.831 63.5915 144.074 63.2918 144.074Z" fill="#2800FF"/>
<path d="M147.648 149.049H87.5047C87.205 149.049 86.9621 148.806 86.9621 148.507C86.9621 148.206 87.205 147.963 87.5047 147.963H147.648C147.948 147.963 148.19 148.206 148.19 148.507C148.19 148.806 147.948 149.049 147.648 149.049Z" fill="#2800FF"/>
<path d="M84.5141 149.049H80.1643C79.8634 149.049 79.6206 148.806 79.6206 148.507C79.6206 148.206 79.8634 147.963 80.1643 147.963H84.5141C84.8144 147.963 85.0573 148.206 85.0573 148.507C85.0573 148.806 84.8144 149.049 84.5141 149.049Z" fill="#2800FF"/>
<path d="M62.2583 149.049H19.498C19.1982 149.049 18.9554 148.806 18.9554 148.507C18.9554 148.206 19.1982 147.963 19.498 147.963H62.2583C62.5581 147.963 62.8009 148.206 62.8009 148.507C62.8009 148.806 62.5581 149.049 62.2583 149.049Z" fill="#2800FF"/>
<path d="M147.648 154.018H77.2744C76.9741 154.018 76.7313 153.776 76.7313 153.476C76.7313 153.176 76.9741 152.933 77.2744 152.933H147.648C147.947 152.933 148.19 153.176 148.19 153.476C148.19 153.776 147.947 154.018 147.648 154.018Z" fill="#2800FF"/>
<path d="M57.0326 154.018H19.5013C19.201 154.018 18.9587 153.776 18.9587 153.476C18.9587 153.176 19.201 152.933 19.5013 152.933H57.0326C57.3323 152.933 57.5752 153.176 57.5752 153.476C57.5752 153.776 57.3323 154.018 57.0326 154.018Z" fill="#2800FF"/>
<path d="M74.6919 158.993H74.5878C74.2881 158.993 74.0453 158.75 74.0453 158.451C74.0453 158.151 74.2881 157.908 74.5878 157.908H74.6919C74.9917 157.908 75.2345 158.151 75.2345 158.451C75.2345 158.75 74.9917 158.993 74.6919 158.993Z" fill="#2800FF"/>
<path d="M147.648 158.993H78.2575C77.9572 158.993 77.7144 158.75 77.7144 158.451C77.7144 158.151 77.9572 157.908 78.2575 157.908H147.648C147.948 157.908 148.191 158.151 148.191 158.451C148.191 158.75 147.948 158.993 147.648 158.993Z" fill="#2800FF"/>
<path d="M51.8427 158.993H19.5013C19.201 158.993 18.9587 158.75 18.9587 158.451C18.9587 158.151 19.201 157.908 19.5013 157.908H51.8427C52.1425 157.908 52.3853 158.151 52.3853 158.451C52.3853 158.75 52.1425 158.993 51.8427 158.993Z" fill="#2800FF"/>
<path d="M59.146 163.968H19.5013C19.2016 163.968 18.9587 163.725 18.9587 163.425C18.9587 163.126 19.2016 162.883 19.5013 162.883H59.1199C59.4196 162.883 59.6756 163.126 59.6756 163.425C59.6756 163.725 59.4458 163.968 59.146 163.968Z" fill="#2800FF"/>
<path d="M147.648 163.968H80.0004C79.6996 163.968 79.4573 163.725 79.4573 163.425C79.4573 163.126 79.6996 162.883 80.0004 162.883H147.648C147.948 162.883 148.191 163.126 148.191 163.425C148.191 163.725 147.948 163.968 147.648 163.968Z" fill="#2800FF"/>
<path d="M76.182 169.765H69.9229C69.6226 169.765 69.3797 169.522 69.3797 169.222C69.3797 168.922 69.6226 168.68 69.9229 168.68H76.182C76.4817 168.68 76.7246 168.922 76.7246 169.222C76.7246 169.522 76.4817 169.765 76.182 169.765Z" fill="#2800FF"/>
<path d="M91.6611 168.937H81.2029C80.9032 168.937 80.6603 168.694 80.6603 168.394C80.6603 168.094 80.9032 167.851 81.2029 167.851H91.6611C91.9614 167.851 92.2042 168.094 92.2042 168.394C92.2042 168.694 91.9614 168.937 91.6611 168.937Z" fill="#2800FF"/>
<path d="M58.1997 168.937H19.498C19.1982 168.937 18.9554 168.694 18.9554 168.394C18.9554 168.094 19.1982 167.851 19.498 167.851H58.1997C58.4995 167.851 58.7423 168.094 58.7423 168.394C58.7423 168.694 58.4995 168.937 58.1997 168.937Z" fill="#2800FF"/>
<path d="M99.4701 173.912H66.6498C66.3501 173.912 66.1072 173.669 66.1072 173.369C66.1072 173.069 66.3501 172.826 66.6498 172.826H99.4701C99.7698 172.826 100.013 173.069 100.013 173.369C100.013 173.669 99.7698 173.912 99.4701 173.912Z" fill="#2800FF"/>
<path d="M57.4097 173.912H19.5013C19.201 173.912 18.9587 173.669 18.9587 173.369C18.9587 173.069 19.201 172.826 19.5013 172.826H57.4097C57.7094 172.826 57.9523 173.069 57.9523 173.369C57.9523 173.669 57.7094 173.912 57.4097 173.912Z" fill="#2800FF"/>
<path d="M99.469 178.887H66.8636C66.5639 178.887 66.3205 178.644 66.3205 178.344C66.3205 178.044 66.5639 177.801 66.8636 177.801H99.469C99.7687 177.801 100.012 178.044 100.012 178.344C100.012 178.644 99.7687 178.887 99.469 178.887Z" fill="#2800FF"/>
<path d="M50.9749 178.887H19.498C19.1982 178.887 18.9554 178.644 18.9554 178.344C18.9554 178.044 19.1982 177.801 19.498 177.801H50.9749C51.2746 177.801 51.5175 178.044 51.5175 178.344C51.5175 178.644 51.2746 178.887 50.9749 178.887Z" fill="#2800FF"/>
<path d="M147.649 183.856H68.8659C68.5662 183.856 68.3233 183.613 68.3233 183.313C68.3233 183.013 68.5662 182.77 68.8659 182.77H147.649C147.948 182.77 148.191 183.013 148.191 183.313C148.191 183.613 147.948 183.856 147.649 183.856Z" fill="#2800FF"/>
<path d="M46.4908 183.856H19.5013C19.2016 183.856 18.9587 183.613 18.9587 183.313C18.9587 183.013 19.2016 182.77 19.5013 182.77H46.4908C46.7905 182.77 47.0334 183.013 47.0334 183.313C47.0334 183.613 46.7905 183.856 46.4908 183.856Z" fill="#2800FF"/>
<path d="M147.649 188.831H70.7854C70.4857 188.831 70.2429 188.588 70.2429 188.288C70.2429 187.988 70.4857 187.745 70.7854 187.745H147.649C147.949 187.745 148.192 187.988 148.192 188.288C148.192 188.588 147.949 188.831 147.649 188.831Z" fill="#2800FF"/>
<path d="M42.5466 188.831H19.4985C19.1982 188.831 18.9554 188.588 18.9554 188.288C18.9554 187.988 19.1982 187.745 19.4985 187.745H42.5466C42.8463 187.745 43.0892 187.988 43.0892 188.288C43.0892 188.588 42.8463 188.831 42.5466 188.831Z" fill="#2800FF"/>
<path d="M63.2062 194.634H54.6027C54.303 194.634 54.0601 194.391 54.0601 194.091C54.0601 193.792 54.303 193.549 54.6027 193.549H63.2062C63.506 193.549 63.7494 193.792 63.7494 194.091C63.7494 194.391 63.506 194.634 63.2062 194.634Z" fill="#2800FF"/>
<path d="M92.8801 193.806H72.5217C72.222 193.806 71.9791 193.563 71.9791 193.263C71.9791 192.963 72.222 192.721 72.5217 192.721H92.8801C93.1798 192.721 93.4227 192.963 93.4227 193.263C93.4227 193.563 93.1798 193.806 92.8801 193.806Z" fill="#2800FF"/>
<path d="M38.3663 193.806H19.498C19.1982 193.806 18.9554 193.563 18.9554 193.263C18.9554 192.963 19.1982 192.721 19.498 192.721H38.3663C38.666 192.721 38.9089 192.963 38.9089 193.263C38.9089 193.563 38.666 193.806 38.3663 193.806Z" fill="#2800FF"/>
<path d="M66.1491 198.774H48.9547C48.6544 198.774 48.4115 198.532 48.4115 198.232C48.4115 197.932 48.6544 197.689 48.9547 197.689H66.1491C66.4489 197.689 66.6923 197.932 66.6923 198.232C66.6923 198.532 66.4489 198.774 66.1491 198.774Z" fill="#2800FF"/>
<path d="M92.879 198.774H73.8019C73.5022 198.774 73.2588 198.532 73.2588 198.232C73.2588 197.932 73.5022 197.689 73.8019 197.689H92.879C93.1787 197.689 93.4216 197.932 93.4216 198.232C93.4216 198.532 93.1787 198.774 92.879 198.774Z" fill="#2800FF"/>
<path d="M34.6398 198.774H19.498C19.1982 198.774 18.9554 198.532 18.9554 198.232C18.9554 197.932 19.1982 197.689 19.498 197.689H34.6398C34.9395 197.689 35.1824 197.932 35.1824 198.232C35.1824 198.532 34.9395 198.774 34.6398 198.774Z" fill="#2800FF"/>
<path d="M92.8809 203.749H72.9388C72.6385 203.749 72.3957 203.506 72.3957 203.207C72.3957 202.907 72.6385 202.664 72.9388 202.664H92.8809C93.1807 202.664 93.4235 202.907 93.4235 203.207C93.4235 203.506 93.1807 203.749 92.8809 203.749Z" fill="#2800FF"/>
<path d="M70.2182 203.749H42.9956C42.6953 203.749 42.453 203.506 42.453 203.207C42.453 202.907 42.6953 202.664 42.9956 202.664H70.2182C70.518 202.664 70.7608 202.907 70.7608 203.207C70.7608 203.506 70.518 203.749 70.2182 203.749Z" fill="#2800FF"/>
<path d="M31.0203 203.749H19.498C19.1982 203.749 18.9554 203.506 18.9554 203.207C18.9554 202.907 19.1982 202.664 19.498 202.664H31.0203C31.32 202.664 31.5629 202.907 31.5629 203.207C31.5629 203.506 31.32 203.749 31.0203 203.749Z" fill="#2800FF"/>
<path d="M68.42 208.724H37.3975C37.0972 208.724 36.8543 208.481 36.8543 208.181C36.8543 207.882 37.0972 207.639 37.3975 207.639H68.42C68.7197 207.639 68.9626 207.882 68.9626 208.181C68.9626 208.481 68.7197 208.724 68.42 208.724Z" fill="#2800FF"/>
<path d="M27.2426 208.724H19.5013C19.201 208.724 18.9587 208.481 18.9587 208.181C18.9587 207.882 19.201 207.639 19.5013 207.639H27.2426C27.5429 207.639 27.7857 207.882 27.7857 208.181C27.7857 208.481 27.5429 208.724 27.2426 208.724Z" fill="#2800FF"/>
<path d="M68.4213 213.693H35.0442C34.7444 213.693 34.5016 213.45 34.5016 213.15C34.5016 212.85 34.7444 212.607 35.0442 212.607H68.4213C68.721 212.607 68.9639 212.85 68.9639 213.15C68.9639 213.45 68.721 213.693 68.4213 213.693Z" fill="#2800FF"/>
<path d="M23.7278 213.693H19.498C19.1982 213.693 18.9554 213.45 18.9554 213.15C18.9554 212.85 19.1982 212.607 19.498 212.607H23.7278C24.0275 212.607 24.2704 212.85 24.2704 213.15C24.2704 213.45 24.0275 213.693 23.7278 213.693Z" fill="#2800FF"/>
<path d="M68.4204 218.668H26.8362C26.5359 218.668 26.2936 218.425 26.2936 218.125C26.2936 217.825 26.5359 217.583 26.8362 217.583H68.4204C68.7201 217.583 68.963 217.825 68.963 218.125C68.963 218.425 68.7201 218.668 68.4204 218.668Z" fill="#2800FF"/>
<path d="M21.0199 218.668H19.498C19.1982 218.668 18.9554 218.425 18.9554 218.125C18.9554 217.825 19.1982 217.583 19.498 217.583H21.0199C21.3202 217.583 21.5631 217.825 21.5631 218.125C21.5631 218.425 21.3202 218.668 21.0199 218.668Z" fill="#2800FF"/>
<path d="M68.4224 223.17H22.4406C22.1409 223.17 21.898 222.927 21.898 222.627C21.898 222.327 22.1409 222.085 22.4406 222.085H68.4224C68.7221 222.085 68.9649 222.327 68.9649 222.627C68.9649 222.927 68.7221 223.17 68.4224 223.17Z" fill="#2800FF"/>
<path d="M103.17 55.2143C103.073 55.2143 102.974 55.1882 102.885 55.1324C102.631 54.9749 102.552 54.6399 102.71 54.3857L102.998 53.9221C103.156 53.6673 103.491 53.5906 103.746 53.7498C104 53.9079 104.077 54.2435 103.918 54.4977L103.632 54.9578C103.53 55.1233 103.352 55.2143 103.17 55.2143Z" fill="#2800FF"/>
<path d="M101.814 57.4355C101.719 57.4355 101.622 57.4105 101.535 57.3576C101.278 57.2029 101.195 56.869 101.35 56.6125L101.733 55.9784C101.89 55.7219 102.223 55.6417 102.479 55.7958C102.736 55.9522 102.818 56.2861 102.662 56.542L102.28 57.1733C102.178 57.3422 101.998 57.4355 101.814 57.4355Z" fill="#2800FF"/>
<path d="M95.5295 68.3951C95.4408 68.3951 95.3515 68.3735 95.2679 68.328C95.0057 68.1829 94.9096 67.8536 95.054 67.5903C96.4953 64.9718 97.8853 62.5097 99.1843 60.2722C99.3345 60.0123 99.6677 59.9247 99.926 60.0748C100.186 60.2256 100.274 60.5577 100.123 60.8171C98.8283 63.0477 97.4428 65.5024 96.0056 68.1141C95.9066 68.2939 95.7206 68.3951 95.5295 68.3951Z" fill="#2800FF"/>
<path d="M93.32 72.4556C93.2335 72.4556 93.1454 72.4351 93.0635 72.3907C92.7996 72.2497 92.7 71.9204 92.8422 71.6559L93.279 70.8466C93.4229 70.5832 93.7522 70.4848 94.015 70.6282C94.2789 70.7715 94.3761 71.1002 94.2328 71.3641L93.7988 72.1695C93.7004 72.352 93.5133 72.4556 93.32 72.4556Z" fill="#2800FF"/>
<path d="M91.3134 76.2133C91.2281 76.2133 91.1405 76.1928 91.0597 76.1501C90.7952 76.0097 90.694 75.6804 90.8345 75.4159C91.1769 74.7709 91.5141 74.1356 91.8474 73.5111C91.9885 73.2467 92.3184 73.1471 92.5823 73.2882C92.8467 73.4292 92.9468 73.7591 92.8052 74.023C92.4725 74.6464 92.1352 75.2805 91.794 75.9243C91.6961 76.1081 91.5085 76.2133 91.3134 76.2133Z" fill="#2800FF"/>
<path d="M59.6756 171.714C59.6336 171.714 59.5898 171.709 59.5465 171.698C59.2553 171.627 59.0767 171.334 59.1478 171.043C59.1478 171.043 59.3742 170.114 59.7979 168.43C59.8702 168.139 60.1653 167.962 60.4565 168.036C60.7472 168.109 60.9235 168.404 60.8501 168.695C60.4281 170.373 60.2029 171.299 60.2029 171.299C60.142 171.547 59.9202 171.714 59.6756 171.714Z" fill="#2800FF"/>
<path d="M61.3992 164.888C61.3543 164.888 61.3088 164.883 61.2627 164.871C60.9726 164.796 60.7975 164.5 60.8725 164.21C60.9578 163.881 61.0142 163.644 61.0722 163.405C61.1381 163.126 61.2058 162.843 61.3184 162.412C61.3935 162.122 61.6927 161.952 61.9805 162.025C62.2705 162.1 62.4451 162.397 62.3689 162.687C62.2597 163.107 62.1926 163.385 62.1272 163.657C62.0686 163.903 62.0106 164.144 61.9247 164.48C61.861 164.726 61.6409 164.888 61.3992 164.888Z" fill="#2800FF"/>
<path d="M62.789 161.153L62.2532 161.057L61.7283 160.919L61.8881 160.312C61.9649 160.022 62.2623 159.851 62.5518 159.925C62.8413 160.002 63.0142 160.299 62.9374 160.589L62.789 161.153Z" fill="#2800FF"/>
<path d="M63.2915 157.68C63.2448 157.68 63.1976 157.675 63.151 157.662C62.8615 157.585 62.6892 157.287 62.7665 156.998C63.3904 154.66 64.0849 152.097 64.8419 149.355C64.9209 149.066 65.2201 148.899 65.509 148.976C65.798 149.056 65.968 149.355 65.8878 149.645C65.132 152.383 64.4386 154.944 63.8153 157.278C63.751 157.521 63.5309 157.68 63.2915 157.68Z" fill="#2800FF"/>
<path d="M65.9578 147.902C65.9095 147.902 65.86 147.895 65.8111 147.882C65.5227 147.801 65.3538 147.502 65.434 147.213L65.5631 146.751C65.6433 146.461 65.9441 146.294 66.2314 146.373C66.5203 146.452 66.6898 146.752 66.6096 147.041L66.4799 147.505C66.4128 147.745 66.195 147.902 65.9578 147.902Z" fill="#2800FF"/>
<path d="M66.5107 145.928C66.4618 145.928 66.4123 145.921 66.3634 145.908C66.075 145.826 65.9067 145.527 65.9875 145.238C68.0657 137.84 70.1701 130.71 72.2414 124.047C72.3302 123.761 72.6327 123.603 72.9211 123.69C73.2072 123.779 73.3676 124.084 73.2783 124.37C71.2103 131.023 69.1088 138.143 67.0328 145.532C66.9657 145.772 66.7479 145.928 66.5107 145.928Z" fill="#2800FF"/>
<path d="M74.3717 119.644C74.3171 119.644 74.2614 119.636 74.2062 119.618C73.9207 119.527 73.7631 119.222 73.8547 118.936L74.1675 117.96C74.2591 117.676 74.5651 117.519 74.8506 117.609C75.1355 117.701 75.2931 118.006 75.2015 118.292L74.8881 119.267C74.8147 119.497 74.6015 119.644 74.3717 119.644Z" fill="#2800FF"/>
<path d="M76.1574 114.155C76.1005 114.155 76.0437 114.145 75.9868 114.127C75.7019 114.032 75.5483 113.726 75.6427 113.441C77.5201 107.769 79.38 102.465 81.1715 97.6763C81.2773 97.396 81.5918 97.2543 81.8705 97.359C82.1515 97.4636 82.2931 97.7764 82.1885 98.0574C80.4014 102.833 78.5462 108.124 76.6727 113.783C76.5971 114.01 76.3855 114.155 76.1574 114.155Z" fill="#2800FF"/>
<path d="M28.3221 211.383C28.2089 211.383 28.094 211.347 27.9962 211.273C27.7567 211.092 27.709 210.752 27.8887 210.513C28.2612 210.019 28.652 209.504 29.0637 208.968C29.2469 208.732 29.587 208.686 29.8253 208.868C30.063 209.05 30.108 209.391 29.9243 209.629C29.5153 210.162 29.1263 210.675 28.7566 211.166C28.6497 211.308 28.487 211.383 28.3221 211.383Z" fill="#2800FF"/>
<path d="M30.9316 207.986C30.8151 207.986 30.6973 207.948 30.5978 207.871C30.3618 207.686 30.3197 207.345 30.5045 207.108L30.7229 206.83C30.9083 206.594 31.2484 206.552 31.485 206.737C31.7211 206.922 31.762 207.264 31.5772 207.5L31.3599 207.778C31.2524 207.914 31.0932 207.986 30.9316 207.986Z" fill="#2800FF"/>
<path d="M49.6308 186.038C49.496 186.038 49.3607 185.988 49.256 185.887C49.0387 185.68 49.0314 185.336 49.2389 185.12C49.8976 184.432 50.5067 183.81 51.0686 183.248C51.2802 183.036 51.6243 183.036 51.8364 183.248C52.048 183.46 52.048 183.803 51.8364 184.016C51.2791 184.572 50.6756 185.189 50.0233 185.87C49.9169 185.982 49.7736 186.038 49.6308 186.038Z" fill="#2800FF"/>
<path d="M52.6604 182.986C52.5182 182.986 52.376 182.93 52.2697 182.82C52.0609 182.604 52.0678 182.261 52.2833 182.053C55.5343 178.915 56.8322 178.171 56.8856 178.141C57.1456 177.995 57.4777 178.087 57.625 178.349C57.7706 178.61 57.6785 178.939 57.4186 179.087C57.4021 179.096 56.1451 179.834 53.0369 182.833C52.9317 182.936 52.7958 182.986 52.6604 182.986Z" fill="#2800FF"/>
</svg>
