<svg width="235" height="151" viewBox="0 0 235 151" fill="none" xmlns="http://www.w3.org/2000/svg">
<path d="M228.461 86.3541C228.461 89.1628 230.623 91.4526 233.273 91.4526C233.496 91.4526 233.688 91.4369 233.871 91.405C234.055 91.3731 234.246 91.4212 234.398 91.541C234.541 91.6685 234.621 91.8439 234.621 92.0356L234.51 105.154C234.501 105.345 234.421 105.521 234.278 105.641C234.135 105.76 233.943 105.816 233.76 105.776C233.575 105.744 233.376 105.728 233.161 105.728C230.504 105.728 228.349 108.018 228.349 110.835C228.349 113.644 230.504 115.934 233.161 115.934C233.376 115.934 233.575 115.918 233.76 115.886C233.943 115.846 234.135 115.902 234.278 116.022C234.421 116.141 234.51 116.317 234.51 116.509V128.885C234.51 129.076 234.421 129.252 234.278 129.372C234.135 129.499 233.943 129.547 233.76 129.515C233.575 129.483 233.376 129.459 233.161 129.459C230.504 129.459 228.349 131.749 228.349 134.558C228.349 137.367 230.504 139.657 233.161 139.657C233.376 139.657 233.575 139.641 233.76 139.609C233.943 139.577 234.135 139.625 234.278 139.745C234.421 139.865 234.51 140.048 234.51 140.232V150.334C234.51 150.685 234.222 150.972 233.871 150.972H225.213C225.165 150.972 225.118 150.964 225.07 150.948H225.062C225.022 150.964 224.982 150.964 224.942 150.964C224.591 150.964 224.304 150.685 224.304 150.334C224.304 147.517 222.149 145.227 219.492 145.227C216.843 145.227 214.68 147.517 214.68 150.334C214.68 150.685 214.393 150.964 214.042 150.964H204.698C204.682 150.964 204.666 150.964 204.65 150.956C204.634 150.964 204.618 150.964 204.602 150.964C204.251 150.964 203.964 150.685 203.964 150.334C203.964 147.517 201.809 145.227 199.152 145.227C196.503 145.227 194.341 147.517 194.341 150.334C194.341 150.685 194.054 150.964 193.703 150.964H184.358C184.223 150.964 184.095 150.924 183.991 150.86C183.824 150.74 183.712 150.549 183.712 150.334C183.712 147.517 181.55 145.227 178.9 145.227C176.243 145.227 174.081 147.517 174.081 150.334C174.081 150.685 173.802 150.964 173.451 150.964H164.099C164.027 150.964 163.955 150.948 163.891 150.924C163.827 150.948 163.755 150.964 163.676 150.964C163.324 150.964 163.037 150.685 163.037 150.334C163.037 147.517 160.875 145.227 158.226 145.227C155.568 145.227 153.414 147.517 153.414 150.334C153.414 150.685 153.127 150.964 152.775 150.964H143.423C143.072 150.964 142.785 150.685 142.785 150.334C142.785 147.517 140.623 145.227 137.966 145.227C135.316 145.227 133.154 147.517 133.154 150.334C133.154 150.685 132.867 150.964 132.516 150.964H123.172C122.82 150.964 122.533 150.685 122.533 150.334C122.533 147.517 120.371 145.227 117.714 145.227C115.056 145.227 112.902 147.517 112.902 150.334C112.902 150.685 112.615 150.964 112.264 150.964H102.912C102.561 150.964 102.281 150.685 102.281 150.334C102.281 147.517 100.119 145.227 97.4617 145.227C94.8043 145.227 92.6419 147.517 92.6419 150.334C92.6419 150.685 92.3547 150.964 92.0037 150.964H82.66C82.3086 150.964 82.0213 150.685 82.0213 150.334C82.0213 147.517 79.8666 145.227 77.2097 145.227C74.5523 145.227 72.3976 147.517 72.3976 150.334C72.3976 150.685 72.1108 150.964 71.7598 150.964H62.4156C62.0561 150.964 61.777 150.685 61.777 150.334C61.777 147.517 59.6151 145.227 56.9577 145.227C54.3003 145.227 52.1384 147.517 52.1384 150.334C52.1384 150.685 51.8588 150.964 51.4998 150.964H42.156C41.8046 150.964 41.5174 150.685 41.5174 150.334C41.5174 147.517 39.3546 145.227 36.6976 145.227C34.0407 145.227 31.8864 147.517 31.8864 150.334C31.8864 150.685 31.5987 150.964 31.2478 150.964H21.9041C21.5526 150.964 21.2654 150.685 21.2654 150.334C21.2654 147.517 19.1026 145.227 16.4537 145.227C13.7963 145.227 11.6259 147.517 11.6259 150.334C11.6259 150.685 11.3467 150.964 10.9958 150.964H0.750405C0.398988 150.964 0.111764 150.685 0.111764 150.334V139.011C0.111764 138.827 0.199277 138.644 0.343344 138.524C0.486963 138.405 0.678606 138.357 0.862168 138.388C1.05336 138.42 1.24454 138.436 1.46042 138.436C4.11736 138.436 6.27209 136.146 6.27209 133.329C6.27209 130.52 4.11736 128.231 1.46042 128.231C1.24454 128.231 1.04528 128.246 0.869797 128.278C0.678605 128.318 0.486963 128.262 0.343344 128.143C0.199277 128.023 0.111764 127.847 0.111764 127.656V116.134C0.111764 115.942 0.199277 115.766 0.343344 115.647C0.486963 115.527 0.678605 115.471 0.869797 115.511C1.05336 115.543 1.24454 115.559 1.46042 115.559C4.11736 115.559 6.27209 113.269 6.27209 110.452C6.27209 107.644 4.11736 105.353 1.46042 105.353C1.24454 105.353 1.04528 105.369 0.869797 105.401C0.678605 105.433 0.486963 105.385 0.343344 105.266C0.199277 105.146 0.111764 104.962 0.111764 104.779V93.2563C0.111764 93.0647 0.199277 92.8897 0.343344 92.7698C0.486963 92.6495 0.678605 92.5939 0.869797 92.6262C1.04528 92.6657 1.24454 92.6819 1.46042 92.6819C4.11736 92.6819 6.27209 90.3916 6.27209 87.5749C6.27209 84.7662 4.11736 82.476 1.46042 82.476C1.24454 82.476 1.04528 82.4921 0.869797 82.524C0.661999 82.5639 0.462723 82.4998 0.319553 82.3642C0.127464 82.2525 0 82.0451 0 81.814V70.2913C0 70.1077 0.0798975 69.9246 0.231594 69.8044C0.375213 69.6845 0.566842 69.6369 0.750405 69.6688C0.933518 69.7011 1.12516 69.7168 1.34867 69.7168C3.99753 69.7168 6.15988 67.4266 6.15988 64.6099C6.15988 61.8012 3.99753 59.511 1.34867 59.511C1.12516 59.511 0.933518 59.5271 0.750405 59.559C0.566842 59.5989 0.37521 59.5433 0.223513 59.423C0.079895 59.3036 0 59.12 0 58.9289L0.111764 45.8102C0.119842 45.6186 0.199277 45.4435 0.343344 45.3233C0.486963 45.2039 0.678605 45.1559 0.869797 45.1877C1.04528 45.22 1.24454 45.2357 1.46042 45.2357C4.11736 45.2357 6.27209 42.9455 6.27209 40.1288C6.27209 37.3201 4.11736 35.0379 1.46042 35.0379C1.24454 35.0379 1.04528 35.0536 0.869797 35.086C0.678605 35.1178 0.486963 35.0698 0.343344 34.9419C0.199277 34.8225 0.111764 34.647 0.111764 34.4554V22.0791C0.111764 21.8955 0.199277 21.7124 0.343344 21.5926C0.486963 21.4732 0.678605 21.4247 0.869797 21.4566C1.04528 21.4889 1.24454 21.5046 1.46042 21.5046C4.11736 21.5046 6.27209 19.2143 6.27209 16.4057C6.27209 13.5971 4.11736 11.3068 1.46042 11.3068C1.24454 11.3068 1.04528 11.3225 0.869797 11.3548C0.678605 11.3867 0.486963 11.3387 0.343344 11.2193C0.199277 11.0995 0.111764 10.9159 0.111764 10.7323V0.630129C0.111764 0.279161 0.398988 0 0.750405 0H10.9958C11.3467 0 11.6259 0.279161 11.6259 0.630129C11.6259 3.44684 13.7963 5.73711 16.4537 5.73711C19.1026 5.73711 21.2654 3.44684 21.2654 0.630129C21.2654 0.279161 21.5526 0 21.9041 0H31.2478C31.5987 0 31.8864 0.279161 31.8864 0.630129C31.8864 3.44684 34.0407 5.73711 36.6976 5.73711C39.3546 5.73711 41.5174 3.44684 41.5174 0.630129C41.5174 0.279161 41.8046 0 42.156 0H51.4998C51.8588 0 52.1384 0.279161 52.1384 0.630129C52.1384 3.44684 54.3003 5.73711 56.9577 5.73711C59.6151 5.73711 61.777 3.44684 61.777 0.630129C61.777 0.279161 62.0561 0 62.4156 0H71.7598C72.1108 0 72.3976 0.279161 72.3976 0.630129C72.3976 3.44684 74.5523 5.73711 77.2097 5.73711C79.8666 5.73711 82.0213 3.44684 82.0213 0.630129C82.0213 0.279161 82.3086 0 82.66 0H92.0037C92.3547 0 92.6419 0.279161 92.6419 0.630129C92.6419 3.44684 94.8043 5.73711 97.4617 5.73711C100.119 5.73711 102.281 3.44684 102.281 0.630129C102.281 0.279161 102.561 0 102.912 0H112.264C112.615 0 112.902 0.279161 112.902 0.630129C112.902 3.44684 115.056 5.73711 117.714 5.73711C120.371 5.73711 122.533 3.44684 122.533 0.630129C122.533 0.279161 122.82 0 123.172 0H132.516C132.867 0 133.154 0.279161 133.154 0.630129C133.154 3.44684 135.316 5.73711 137.966 5.73711C140.623 5.73711 142.785 3.44684 142.785 0.630129C142.785 0.279161 143.072 0 143.423 0H152.775C153.127 0 153.414 0.279161 153.414 0.630129C153.414 3.44684 155.568 5.73711 158.226 5.73711C160.875 5.73711 163.037 3.44684 163.037 0.630129C163.037 0.279161 163.324 0 163.676 0C163.755 0 163.827 0.0161591 163.891 0.0399459C163.955 0.0161591 164.027 0 164.099 0H173.451C173.802 0 174.081 0.279161 174.081 0.630129C174.081 3.44684 176.243 5.73711 178.9 5.73711C181.55 5.73711 183.712 3.44684 183.712 0.630129C183.712 0.407071 183.824 0.223507 183.991 0.103676C184.095 0.0399451 184.223 0 184.358 0H193.703C194.054 0 194.341 0.279161 194.341 0.630129C194.341 3.44684 196.503 5.73711 199.152 5.73711C201.809 5.73711 203.964 3.44684 203.964 0.630129C203.964 0.279161 204.251 0 204.602 0C204.618 0 204.634 -7.67419e-07 204.65 0.00762896C204.666 -7.67419e-07 204.682 0 204.698 0H214.042C214.393 0 214.68 0.279161 214.68 0.630129C214.68 3.44684 216.843 5.73711 219.492 5.73711C222.149 5.73711 224.304 3.44684 224.304 0.630129C224.304 0.279161 224.591 0 224.942 0C224.99 0 225.03 0.00763455 225.07 0.0161619H225.085C225.125 0.00763455 225.165 0 225.213 0H233.871C234.222 0 234.51 0.287239 234.51 0.638655V11.9535C234.51 12.1447 234.421 12.3202 234.278 12.44C234.135 12.5594 233.943 12.6155 233.76 12.5837C233.575 12.5437 233.376 12.528 233.161 12.528C230.504 12.528 228.349 14.8178 228.349 17.6345C228.349 20.4436 230.504 22.7334 233.161 22.7334C233.376 22.7334 233.575 22.7177 233.76 22.6859C233.943 22.6459 234.135 22.7016 234.278 22.821C234.421 22.9408 234.51 23.1244 234.51 23.3079V34.8306C234.51 35.0218 234.421 35.1977 234.278 35.3171C234.135 35.4446 233.943 35.493 233.76 35.4612C233.575 35.4212 233.376 35.4051 233.161 35.4051C230.504 35.4051 228.349 37.6949 228.349 40.5116C228.349 43.3288 230.504 45.6109 233.161 45.6109C233.376 45.6109 233.575 45.5948 233.76 45.5629C233.943 45.5311 234.135 45.5786 234.278 45.6985C234.421 45.8183 234.51 46.0019 234.51 46.1935V57.7076C234.51 57.8993 234.421 58.0748 234.278 58.1946C234.135 58.3221 233.943 58.3696 233.76 58.3378C233.575 58.3064 233.376 58.2902 233.161 58.2902C230.504 58.2902 228.349 60.58 228.349 63.3891C228.349 66.2058 230.504 68.488 233.161 68.488C233.376 68.488 233.575 68.4718 233.76 68.44C233.959 68.4 234.158 68.4642 234.302 68.5993C234.493 68.7111 234.621 68.9189 234.621 69.1504V80.6727C234.621 80.8643 234.541 81.0398 234.39 81.1596C234.246 81.279 234.055 81.3347 233.871 81.3028C233.688 81.2629 233.496 81.2471 233.273 81.2471C230.623 81.2471 228.461 83.5374 228.461 86.3541Z" fill="#2800FF"/>
<path d="M173.626 119.387C172.834 119.288 171.985 119.238 171.101 119.238C167.081 119.238 165.045 120.223 163.077 121.177C161.154 122.108 159.338 122.987 155.615 122.987C151.889 122.987 150.071 122.108 148.147 121.176C146.179 120.223 144.143 119.238 140.124 119.238C136.108 119.238 134.074 120.223 132.106 121.175C130.182 122.108 128.365 122.987 124.638 122.987C120.915 122.987 119.099 122.108 117.176 121.177C115.208 120.223 113.173 119.238 109.153 119.238C105.136 119.238 103.102 120.223 101.135 121.176C99.2125 122.108 97.3966 122.987 93.6728 122.987C89.95 122.987 88.1337 122.108 86.211 121.177C84.2425 120.223 82.2072 119.238 78.1876 119.238C74.1717 119.238 72.1373 120.223 70.1697 121.176C68.2461 122.108 66.4289 122.987 62.702 122.987C58.9782 122.987 57.1624 122.108 55.2397 121.176C53.2725 120.223 51.2381 119.238 47.2217 119.238C43.2017 119.238 41.1664 120.223 39.1975 121.177C37.2752 122.108 35.4589 122.987 31.7361 122.987C28.0101 122.987 26.1924 122.108 24.2679 121.178C23.1217 120.625 21.9368 120.051 20.3458 119.675C20.0007 119.596 19.6591 119.806 19.5788 120.149C19.498 120.492 19.7098 120.836 20.0523 120.916C21.5073 121.26 22.5786 121.778 23.7132 122.327C25.6817 123.278 27.7179 124.262 31.7361 124.262C35.752 124.262 37.786 123.277 39.7536 122.325C41.6772 121.393 43.4948 120.512 47.2217 120.512C50.9455 120.512 52.7613 121.392 54.6836 122.323C56.6512 123.277 58.6852 124.262 62.702 124.262C66.7215 124.262 68.7568 123.276 70.7258 122.323C72.648 121.392 74.4643 120.512 78.1876 120.512C81.9145 120.512 83.7317 121.393 85.6553 122.324C87.6229 123.277 89.6573 124.262 93.6728 124.262C97.6892 124.262 99.7232 123.277 101.691 122.324C103.613 121.392 105.429 120.512 109.153 120.512C112.88 120.512 114.697 121.393 116.621 122.325C118.588 123.277 120.622 124.262 124.638 124.262C128.658 124.262 130.694 123.276 132.662 122.323C134.585 121.392 136.401 120.512 140.124 120.512C143.85 120.512 145.668 121.392 147.592 122.324C149.561 123.277 151.596 124.262 155.615 124.262C159.63 124.262 161.665 123.277 163.632 122.325C165.557 121.393 167.373 120.512 171.101 120.512C171.932 120.512 172.728 120.559 173.467 120.652C173.813 120.691 174.136 120.448 174.179 120.099C174.223 119.749 173.975 119.431 173.626 119.387Z" fill="white"/>
<path d="M173.626 113.522C172.834 113.423 171.985 113.372 171.101 113.372C167.081 113.372 165.045 114.358 163.077 115.311C161.154 116.242 159.338 117.122 155.615 117.122C151.889 117.122 150.071 116.242 148.147 115.311C146.179 114.358 144.143 113.372 140.124 113.372C136.108 113.372 134.074 114.357 132.106 115.31C130.182 116.242 128.365 117.122 124.638 117.122C120.915 117.122 119.099 116.242 117.176 115.311C115.208 114.358 113.173 113.372 109.153 113.372C105.136 113.372 103.102 114.358 101.135 115.311C99.2125 116.242 97.3966 117.122 93.6728 117.122C89.95 117.122 88.1337 116.242 86.211 115.311C84.2425 114.358 82.2072 113.372 78.1876 113.372C74.1717 113.372 72.1373 114.358 70.1697 115.311C68.2461 116.242 66.4289 117.122 62.702 117.122C58.9782 117.122 57.1624 116.242 55.2397 115.311C53.2725 114.358 51.2381 113.372 47.2217 113.372C43.2017 113.372 41.1664 114.358 39.1975 115.311C37.2752 116.242 35.4589 117.122 31.7361 117.122C28.0101 117.122 26.1924 116.243 24.2679 115.313C23.1217 114.759 21.9368 114.186 20.3458 113.81C20.0007 113.731 19.6591 113.941 19.5788 114.284C19.498 114.627 19.7098 114.971 20.0523 115.051C21.5073 115.395 22.5786 115.913 23.7132 116.461C25.6817 117.413 27.7179 118.397 31.7361 118.397C35.752 118.397 37.786 117.412 39.7536 116.459C41.6772 115.528 43.4948 114.647 47.2217 114.647C50.9455 114.647 52.7613 115.527 54.6836 116.458C56.6512 117.412 58.6852 118.397 62.702 118.397C66.7215 118.397 68.7568 117.411 70.7258 116.458C72.648 115.527 74.4643 114.647 78.1876 114.647C81.9145 114.647 83.7317 115.528 85.6553 116.459C87.6229 117.412 89.6573 118.397 93.6728 118.397C97.6892 118.397 99.7232 117.412 101.691 116.459C103.613 115.527 105.429 114.647 109.153 114.647C112.88 114.647 114.697 115.528 116.621 116.459C118.588 117.412 120.622 118.397 124.638 118.397C128.658 118.397 130.694 117.411 132.662 116.458C134.585 115.527 136.401 114.647 140.124 114.647C143.85 114.647 145.668 115.527 147.592 116.459C149.561 117.412 151.596 118.397 155.615 118.397C159.63 118.397 161.665 117.412 163.632 116.459C165.557 115.528 167.373 114.647 171.101 114.647C171.932 114.647 172.728 114.694 173.467 114.787C173.813 114.827 174.136 114.582 174.179 114.233C174.223 113.884 173.975 113.565 173.626 113.522Z" fill="white"/>
<path d="M173.626 107.657C172.837 107.558 171.988 107.508 171.101 107.508C167.081 107.508 165.045 108.493 163.077 109.447C161.154 110.378 159.338 111.257 155.615 111.257C151.889 111.257 150.071 110.378 148.147 109.446C146.179 108.493 144.143 107.508 140.124 107.508C136.108 107.508 134.074 108.493 132.106 109.446C130.183 110.378 128.365 111.257 124.638 111.257C120.915 111.257 119.099 110.378 117.176 109.447C115.208 108.493 113.173 107.508 109.153 107.508C105.136 107.508 103.102 108.493 101.135 109.446C99.2125 110.378 97.3966 111.257 93.6728 111.257C89.95 111.257 88.1337 110.378 86.211 109.447C84.2425 108.493 82.2072 107.508 78.1876 107.508C74.1717 107.508 72.1373 108.493 70.1701 109.446C68.2461 110.378 66.4289 111.257 62.702 111.257C58.9782 111.257 57.1624 110.378 55.2397 109.446C53.2725 108.493 51.2381 107.508 47.2217 107.508C43.2017 107.508 41.1664 108.493 39.1975 109.447C37.2752 110.378 35.4589 111.257 31.7361 111.257C28.0101 111.257 26.1924 110.378 24.2679 109.449C23.1217 108.895 21.9368 108.321 20.3458 107.945C20.0007 107.867 19.6591 108.077 19.5788 108.419C19.498 108.762 19.7098 109.106 20.0523 109.186C21.5073 109.53 22.5786 110.048 23.7132 110.597C25.6817 111.548 27.7179 112.532 31.7361 112.532C35.752 112.532 37.786 111.547 39.7536 110.594C41.6772 109.664 43.4948 108.783 47.2217 108.783C50.9455 108.783 52.7613 109.663 54.6836 110.594C56.6512 111.547 58.6852 112.532 62.702 112.532C66.7215 112.532 68.7568 111.547 70.7258 110.593C72.648 109.663 74.4643 108.783 78.1876 108.783C81.9145 108.783 83.7317 109.663 85.6558 110.594C87.6229 111.547 89.6573 112.532 93.6728 112.532C97.6892 112.532 99.7232 111.547 101.691 110.594C103.613 109.663 105.429 108.783 109.153 108.783C112.88 108.783 114.697 109.664 116.621 110.594C118.588 111.547 120.622 112.532 124.638 112.532C128.658 112.532 130.694 111.547 132.662 110.593C134.585 109.663 136.401 108.783 140.124 108.783C143.85 108.783 145.668 109.663 147.592 110.594C149.561 111.547 151.596 112.532 155.615 112.532C159.63 112.532 161.665 111.547 163.632 110.594C165.557 109.664 167.373 108.783 171.101 108.783C171.935 108.783 172.731 108.83 173.467 108.922C173.813 108.96 174.136 108.717 174.179 108.369C174.223 108.02 173.975 107.7 173.626 107.657Z" fill="white"/>
<path d="M173.757 101.815C172.929 101.703 172.061 101.649 171.101 101.649C167.081 101.649 165.046 102.632 163.077 103.585C161.155 104.515 159.338 105.393 155.615 105.393C151.888 105.393 150.071 104.515 148.146 103.584C146.178 102.632 144.143 101.649 140.124 101.649C136.108 101.649 134.074 102.632 132.107 103.583C130.183 104.514 128.366 105.393 124.638 105.393C120.915 105.393 119.099 104.515 117.176 103.585C115.207 102.632 113.172 101.649 109.153 101.649C105.136 101.649 103.102 102.632 101.135 103.584C99.2124 104.515 97.3965 105.393 93.6728 105.393C89.9495 105.393 88.1336 104.515 86.2105 103.584C84.2424 102.632 82.2071 101.649 78.1876 101.649C74.1717 101.649 72.1377 102.632 70.1701 103.583C68.2461 104.514 66.4288 105.393 62.7019 105.393C58.9777 105.393 57.1619 104.515 55.2396 103.584C53.272 102.632 51.238 101.649 47.2217 101.649C43.2022 101.649 41.1668 102.632 39.1979 103.585C37.2757 104.515 35.4593 105.393 31.736 105.393C28.0132 105.393 26.1964 104.516 24.2728 103.587C23.1248 103.033 21.9381 102.46 20.3448 102.086C20.0015 102.008 19.6591 102.218 19.5787 102.561C19.4979 102.904 19.7107 103.247 20.0531 103.327C21.5099 103.669 22.5826 104.187 23.7185 104.736C25.6866 105.685 27.7214 106.668 31.736 106.668C35.7515 106.668 37.7855 105.684 39.7531 104.732C41.6771 103.802 43.4943 102.923 47.2217 102.923C50.9459 102.923 52.7613 103.802 54.684 104.731C56.6516 105.683 58.6856 106.668 62.7019 106.668C66.7215 106.668 68.7568 105.683 70.7253 104.731C72.648 103.802 74.4643 102.923 78.1876 102.923C81.9145 102.923 83.7317 103.802 85.6557 104.732C87.6233 105.684 89.6573 106.668 93.6728 106.668C97.6892 106.668 99.7227 105.683 101.69 104.731C103.613 103.802 105.429 102.923 109.153 102.923C112.88 102.923 114.697 103.802 116.621 104.732C118.589 105.684 120.623 106.668 124.638 106.668C128.658 106.668 130.693 105.683 132.662 104.731C134.584 103.802 136.401 102.923 140.124 102.923C143.85 102.923 145.668 103.802 147.592 104.731C149.561 105.683 151.596 106.668 155.615 106.668C159.63 106.668 161.665 105.684 163.632 104.732C165.556 103.802 167.373 102.923 171.101 102.923C172.003 102.923 172.815 102.974 173.585 103.079C173.935 103.124 174.255 102.882 174.302 102.533C174.35 102.184 174.105 101.862 173.757 101.815Z" fill="white"/>
<path d="M148.659 47.2145C148.499 47.2463 148.323 47.2863 148.203 47.4061C148.084 47.5255 148.012 47.6853 148.012 47.8531V53.8537C148.012 54.2046 148.299 54.4919 148.65 54.4919C149.001 54.4919 149.289 54.2046 149.289 53.8537V48.4989L155.233 48.5313H155.242C155.593 48.5313 155.872 48.244 155.88 47.8931C155.88 47.5416 155.593 47.2544 155.242 47.2544L148.659 47.2145Z" fill="white"/>
<path d="M20.2024 44.7008H165.293C165.645 44.7008 165.924 44.4136 165.924 44.0626C165.924 43.7117 165.645 43.424 165.293 43.424H20.2024C19.8433 43.424 19.5637 43.7117 19.5637 44.0626C19.5637 44.4136 19.8433 44.7008 20.2024 44.7008Z" fill="white"/>
<path d="M37.5248 47.7814C37.8757 47.7814 38.1553 47.5022 38.1634 47.1513C38.1634 46.7999 37.8757 46.5126 37.5248 46.5126L29.0665 46.457H29.0589C28.7636 46.457 28.5001 46.6643 28.4364 46.9677C28.3803 47.2626 28.532 47.5579 28.8112 47.6777C32.1705 49.0901 34.9953 51.4598 36.9902 54.5238C37.1096 54.7155 37.3174 54.8111 37.5248 54.8111C37.6446 54.8111 37.764 54.7796 37.8681 54.7078C38.1634 54.5162 38.2509 54.1253 38.0593 53.83C36.4315 51.3243 34.2772 49.2575 31.7558 47.7495L37.5167 47.7814H37.5248Z" fill="white"/>
<path d="M77.2641 46.7595C77.081 46.7357 76.9293 46.8237 76.809 46.943C76.6901 47.0629 76.6183 47.2307 76.6183 47.3981V54.0849C76.6183 54.4359 76.9051 54.7231 77.2561 54.7231C77.6075 54.7231 77.8947 54.4359 77.8947 54.0849V48.0363L84.8768 48.0844H84.8844C85.2358 48.0844 85.515 47.8048 85.5231 47.4538C85.5231 47.0947 85.2358 46.8156 84.8844 46.8075L77.2641 46.7595Z" fill="white"/>
<path d="M109.559 47.5974C109.559 47.2464 109.28 46.9591 108.929 46.9591L101.293 46.9111C101.013 46.9273 100.734 47.1108 100.67 47.4057C100.599 47.6934 100.742 47.9883 101.005 48.1243C104.03 49.608 106.583 51.9064 108.379 54.7549C108.506 54.9466 108.713 55.0583 108.921 55.0583C109.041 55.0583 109.153 55.0265 109.264 54.9547C109.559 54.7706 109.647 54.3721 109.464 54.0768C107.972 51.7228 106.008 49.7198 103.711 48.2041L108.921 48.236C109.272 48.236 109.559 47.9483 109.559 47.5974Z" fill="white"/>
<path d="M73.226 48.0125C73.577 48.0125 73.8561 47.7334 73.8647 47.3824C73.8647 47.0229 73.577 46.7357 73.226 46.7357L65.191 46.6796C64.8876 46.6796 64.6322 46.8874 64.5681 47.1822C64.5043 47.478 64.6479 47.7733 64.9276 47.9008C68.0952 49.345 70.7764 51.6748 72.6915 54.6356C72.8109 54.8272 73.0187 54.9309 73.226 54.9309C73.3458 54.9309 73.4652 54.899 73.5693 54.8272C73.8647 54.6356 73.9522 54.2361 73.7605 53.9413C72.1884 51.5155 70.1378 49.4887 67.7362 47.9726L73.2179 48.0125H73.226Z" fill="white"/>
<path d="M112.966 46.983H112.958C112.79 46.983 112.631 47.0472 112.511 47.1666C112.391 47.2864 112.319 47.4538 112.319 47.6217V53.9571C112.319 54.3166 112.607 54.5957 112.958 54.5957C113.309 54.5957 113.596 54.3166 113.596 53.9571V48.2599L120.052 48.316C120.403 48.316 120.69 48.0283 120.69 47.6773C120.698 47.3264 120.411 47.0391 120.06 47.0391L112.966 46.983Z" fill="white"/>
<path d="M144.619 48.4677C144.97 48.4677 145.257 48.1881 145.257 47.8371C145.257 47.4857 144.978 47.1989 144.627 47.1908L137.366 47.1428H137.358C137.07 47.1428 136.815 47.3425 136.743 47.6217C136.671 47.9089 136.799 48.2042 137.062 48.3398C139.943 49.8639 142.368 52.1223 144.076 54.8829C144.196 55.0822 144.404 55.1863 144.619 55.1863C144.731 55.1863 144.85 55.154 144.954 55.0907C145.257 54.9072 145.345 54.5163 145.161 54.2129C143.749 51.9307 141.874 49.9595 139.664 48.4358L144.611 48.4677H144.619Z" fill="white"/>
<path d="M41.5642 46.5365C41.3963 46.5203 41.237 46.6002 41.1172 46.7196C40.9897 46.8399 40.9255 46.9992 40.9255 47.1666V54.2048C40.9255 54.5558 41.2132 54.843 41.5642 54.843C41.9147 54.843 42.2024 54.5558 42.2024 54.2048V47.8133L49.7509 47.8609H49.7589C50.1099 47.8609 50.3971 47.5818 50.3971 47.2308C50.3971 46.8798 50.118 46.5921 49.7666 46.5841L41.5642 46.5365Z" fill="white"/>
<path d="M140.844 72.3406C140.619 72.3334 140.38 72.3303 140.124 72.3303C136.109 72.3303 134.075 73.3136 132.108 74.2646C130.184 75.195 128.366 76.0733 124.639 76.0733C120.912 76.0733 119.095 75.1937 117.171 74.262C116.936 74.1484 116.697 74.0371 116.459 73.9249L116.459 73.9218L115.941 64.4582C115.941 57.4761 121.622 51.8027 128.596 51.8027C135.57 51.8027 141.244 57.4761 141.244 64.4582C141.244 64.9371 141.219 65.3836 141.171 65.8625L140.845 72.3339L140.844 72.3406ZM140.541 78.2047C140.401 78.2029 140.269 78.1949 140.124 78.1949C136.109 78.1949 134.075 79.1782 132.108 80.1297C130.184 81.0605 128.366 81.9388 124.639 81.9388C120.909 81.9388 119.094 81.0564 117.171 80.1229C117.043 80.0605 116.915 79.9995 116.786 79.938L116.539 75.3732C116.564 75.3853 116.59 75.3974 116.616 75.4096C118.584 76.3628 120.619 77.3484 124.639 77.3484C128.659 77.3484 130.694 76.3642 132.663 75.4127C134.585 74.4828 136.401 73.6045 140.124 73.6045C140.359 73.6045 140.575 73.608 140.78 73.6143L140.541 78.2047ZM140.246 84.0558C140.205 84.0554 140.165 84.054 140.124 84.054C136.109 84.054 134.075 85.0392 132.107 85.9915C130.183 86.9233 128.366 87.8038 124.639 87.8038C120.913 87.8038 119.097 86.9233 117.174 85.9911L117.153 85.9812L116.874 81.3989V81.3953C118.765 82.31 120.793 83.2134 124.639 83.2134C128.659 83.2134 130.694 82.2292 132.663 81.2773C134.585 80.3482 136.401 79.4699 140.124 79.4699C140.247 79.4699 140.358 79.4762 140.477 79.478L140.246 84.0558ZM140.174 85.3322L139.943 89.9208C136.05 89.9505 134.044 90.9194 132.107 91.8566C130.183 92.7887 128.366 93.6684 124.639 93.6684C121.14 93.6684 119.328 92.8893 117.52 92.0244V92.0195L117.241 87.4394V87.438C119.034 88.2876 121.041 89.0784 124.639 89.0784C128.659 89.0784 130.694 88.0928 132.663 87.1396C134.585 86.2079 136.402 85.3286 140.124 85.3286C140.141 85.3286 140.158 85.3291 140.174 85.3291V85.3322ZM139.623 96.113C135.939 96.192 133.99 97.13 132.106 98.0407C130.183 98.971 128.365 99.8494 124.638 99.8494C121.351 99.8494 119.523 99.1492 117.904 98.3907V98.3871L117.609 93.4745C119.316 94.2545 121.285 94.9434 124.639 94.9434C128.659 94.9434 130.694 93.9574 132.663 93.0046C134.54 92.0953 136.329 91.2408 139.879 91.2008L139.623 96.113ZM105.112 74.0735L104.865 78.6778L104.864 78.6894C103.377 79.0646 102.229 79.6023 101.133 80.1319C99.2123 81.0609 97.3973 81.9388 93.6735 81.9388C89.9493 81.9388 88.1334 81.0609 86.2099 80.1315C84.7961 79.4488 83.3281 78.7482 81.1186 78.4089L81.1181 78.3982L80.839 73.7862C82.9062 74.0905 84.2481 74.7337 85.6538 75.4131C87.6218 76.3642 89.6567 77.3484 93.6735 77.3484C97.6859 77.3484 99.7194 76.3664 101.687 75.4163C102.756 74.8997 103.779 74.4092 105.113 74.069L105.112 74.0735ZM104.546 84.6222L104.545 84.633C103.212 85.0033 102.149 85.5028 101.133 85.9947C99.2105 86.9246 97.3941 87.8038 93.6735 87.8038C89.9511 87.8038 88.1357 86.9246 86.213 85.9942C84.8773 85.3475 83.4914 84.6851 81.4776 84.3278L81.4772 84.3188L81.198 79.7091C83.0678 80.0318 84.3302 80.6395 85.6551 81.2795C87.6231 82.2305 89.6571 83.2134 93.6735 83.2134C97.6895 83.2134 99.7225 82.2305 101.688 81.2795C102.668 80.806 103.618 80.3608 104.793 80.026L104.546 84.6222ZM104.219 90.5752L104.218 90.5923C103.037 90.9513 102.065 91.4091 101.134 91.8597C99.2114 92.7896 97.395 93.6684 93.6735 93.6684C89.9538 93.6684 88.1379 92.7896 86.2157 91.8592C84.9608 91.2516 83.6602 90.6282 81.8362 90.2579L81.8358 90.2561L81.5571 85.6352C83.2361 85.97 84.4169 86.5413 85.6574 87.1418C87.625 88.0937 89.6589 89.0784 93.6735 89.0784C97.6868 89.0784 99.7212 88.0937 101.689 87.1418C102.581 86.7105 103.442 86.3021 104.474 85.9785L104.219 90.5752ZM104.146 91.9477L103.883 96.8706L103.883 96.8823C102.853 97.2234 101.977 97.6372 101.137 98.0434C99.2127 98.9719 97.3955 99.8494 93.6726 99.8494C89.9516 99.8494 88.1361 98.9728 86.2139 98.0452C85.0474 97.4828 83.8393 96.9038 82.211 96.53V96.5277L81.9157 91.5805V91.5765C83.4084 91.9194 84.5084 92.4494 85.6605 93.0064C87.6276 93.9588 89.6616 94.9434 93.6735 94.9434C97.6877 94.9434 99.7217 93.9597 101.689 93.0073C102.488 92.6209 103.256 92.2528 104.146 91.9477ZM80.7672 72.4856L80.2802 64.4582C80.2802 57.4761 85.9774 51.8027 92.9833 51.8027C99.9573 51.8027 105.631 57.4761 105.631 64.4183L105.184 72.7409C103.529 73.1148 102.31 73.6992 101.132 74.2682C99.2096 75.1964 97.3941 76.0733 93.6735 76.0733C89.9489 76.0733 88.1321 75.195 86.209 74.2651C84.7207 73.5457 83.1741 72.8096 80.7676 72.4923L80.7672 72.4856ZM62.7027 76.0733C58.9785 76.0733 57.1626 75.195 55.2404 74.2651C53.2728 73.3141 51.2388 72.3303 47.2224 72.3303C46.4944 72.3303 45.8333 72.372 45.1947 72.4349L45.1943 72.4295L44.8033 65.9981C44.8033 65.9743 44.7953 65.9505 44.7953 65.9263C44.7392 65.4478 44.7077 64.9528 44.7077 64.4582C44.7077 57.4761 50.3888 51.8027 57.3632 51.8027C64.3372 51.8027 70.0106 57.4761 70.0106 64.4582C70.0106 65.1045 69.9626 65.7346 69.8746 66.3257C69.8665 66.349 69.8665 66.3733 69.8665 66.3975L69.4523 74.6071C67.7055 75.4226 65.9081 76.0733 62.7027 76.0733ZM69.3724 76.0446L69.1413 80.6153C67.6274 81.3064 65.8273 81.9388 62.7027 81.9388C58.9785 81.9388 57.1626 81.0605 55.2404 80.1301C53.2728 79.1791 51.2388 78.1949 47.2224 78.1949C46.6138 78.1949 46.0681 78.2236 45.5457 78.2667L45.5452 78.2626L45.2665 73.7081C45.8791 73.6457 46.5164 73.6045 47.2224 73.6045C50.9466 73.6045 52.762 74.4828 54.6847 75.4131C56.6523 76.3642 58.6863 77.3484 62.7027 77.3484C65.7743 77.3484 67.697 76.7681 69.3724 76.0406V76.0446ZM68.8374 86.6172C67.4605 87.2168 65.703 87.8038 62.7027 87.8038C58.9789 87.8038 57.163 86.9242 55.2404 85.9924C53.2732 85.0392 51.2388 84.054 47.2224 84.054C46.7642 84.054 46.3243 84.0715 45.8957 84.0962L45.626 79.5386C46.1206 79.4973 46.6394 79.4699 47.2224 79.4699C50.9466 79.4699 52.762 80.3482 54.6847 81.2782C56.6523 82.2292 58.6863 83.2134 62.7027 83.2134C65.6801 83.2134 67.544 82.6775 69.069 82.0375L68.8374 86.6172ZM68.7656 88.0296L68.5349 92.6105C67.1643 93.1778 65.4714 93.6684 62.7027 93.6684C58.9789 93.6684 57.163 92.7896 55.2404 91.857C53.2732 90.9042 51.2388 89.919 47.2224 89.919C46.8732 89.919 46.5537 89.928 46.2476 89.9419L45.9765 85.3681C46.3782 85.3453 46.7907 85.3286 47.2224 85.3286C50.9462 85.3286 52.762 86.2079 54.6843 87.1396C56.6519 88.0933 58.6859 89.0784 62.7027 89.0784C65.4422 89.0784 67.2751 88.6076 68.7656 88.0224V88.0296ZM68.4703 94.0059L68.271 98.8956C67.018 99.3893 65.3605 99.8494 62.7018 99.8494C58.978 99.8494 57.1621 98.971 55.2395 98.0411C53.2719 97.0901 51.2379 96.1059 47.2215 96.1059C47.0106 96.1059 46.823 96.118 46.6232 96.1238L46.6224 96.113L46.327 91.2215L46.3266 91.2139C46.6071 91.2013 46.9011 91.1937 47.2224 91.1937C50.9462 91.1937 52.762 92.0733 54.6843 93.0046C56.6519 93.9583 58.6859 94.9434 62.7027 94.9434C65.3255 94.9434 67.0996 94.5103 68.4707 94.0027L68.4703 94.0059ZM194.514 99.1766C195.516 98.6914 196.464 98.2337 197.676 97.8957C198.015 97.8019 198.214 97.45 198.119 97.1107C198.025 96.7719 197.673 96.5731 197.335 96.6687C196.013 97.0362 194.969 97.5402 193.96 98.0285C192.036 98.958 190.219 99.8359 186.497 99.8359C182.769 99.8359 180.952 98.9558 179.028 98.0236C177.061 97.0712 175.026 96.0857 171.011 96.0857C170.97 96.0857 170.935 96.1014 170.897 96.109C167.015 96.1422 165.011 97.1067 163.077 98.042C161.154 98.971 159.338 99.8494 155.615 99.8494C154.999 99.8494 154.417 99.8166 153.858 99.7663L153.412 94.82L153.412 94.8133C154.103 94.8914 154.822 94.9434 155.616 94.9434C159.631 94.9434 161.666 93.9583 163.633 93.0059C165.557 92.0742 167.374 91.1937 171.102 91.1937C174.825 91.1937 176.64 92.0733 178.563 93.0046C180.532 93.9574 182.567 94.9434 186.587 94.9434C190.601 94.9434 192.636 93.9601 194.604 93.0095C195.607 92.5248 196.555 92.0666 197.767 91.7295C198.106 91.6348 198.304 91.2834 198.21 90.9446C198.115 90.6048 197.765 90.4082 197.425 90.5012C196.103 90.8692 195.059 91.3736 194.049 91.8615C192.126 92.791 190.309 93.6684 186.587 93.6684C182.86 93.6684 181.042 92.7887 179.118 91.8566C177.151 90.9042 175.117 89.919 171.102 89.919C167.082 89.919 165.046 90.9046 163.078 91.8579C161.155 92.7896 159.339 93.6684 155.616 93.6684C154.774 93.6684 154.023 93.6114 153.308 93.5189L153.029 88.9187C153.829 89.0259 154.682 89.0784 155.616 89.0784C159.631 89.0784 161.666 88.0933 163.633 87.1409C165.557 86.2088 167.374 85.3286 171.102 85.3286C174.825 85.3286 176.64 86.2079 178.563 87.1396C180.532 88.0928 182.567 89.0784 186.587 89.0784C190.601 89.0784 192.636 88.0951 194.604 87.1441C195.607 86.6594 196.555 86.2016 197.767 85.8645C198.106 85.7703 198.304 85.4184 198.21 85.0796C198.115 84.7398 197.765 84.5441 197.425 84.6361C196.103 85.0046 195.059 85.5086 194.049 85.9965C192.126 86.926 190.309 87.8038 186.587 87.8038C182.86 87.8038 181.042 86.9233 179.118 85.9915C177.151 85.0392 175.117 84.054 171.102 84.054C167.082 84.054 165.046 85.0401 163.078 85.9929C161.155 86.9242 159.339 87.8038 155.616 87.8038C154.639 87.8038 153.764 87.7401 152.95 87.6162V87.6144L152.678 83.0101L152.678 83.0038C153.587 83.1434 154.555 83.2134 155.616 83.2134C159.631 83.2134 161.666 82.2301 163.633 81.2786C165.557 80.3482 167.374 79.4699 171.102 79.4699C174.825 79.4699 176.641 80.3482 178.563 81.2773C180.532 82.2292 182.567 83.2134 186.587 83.2134C190.606 83.2134 192.642 82.2292 194.612 81.2782C195.613 80.7943 196.559 80.3375 197.768 79.9986C198.107 79.9044 198.304 79.5525 198.209 79.2132C198.115 78.8748 197.761 78.6755 197.424 78.7711C196.106 79.1405 195.064 79.6432 194.057 80.1301C192.132 81.0605 190.315 81.9388 186.587 81.9388C182.859 81.9388 181.042 81.0605 179.118 80.1297C177.151 79.1782 175.116 78.1949 171.102 78.1949C167.082 78.1949 165.046 79.1791 163.078 80.1306C161.155 81.0605 159.339 81.9388 155.616 81.9388C154.511 81.9388 153.522 81.8549 152.598 81.6951L152.319 77.0814V77.0778C153.318 77.2573 154.403 77.3484 155.616 77.3484C159.631 77.3484 161.666 76.3651 163.633 75.414C165.557 74.4828 167.374 73.6045 171.102 73.6045C174.825 73.6045 176.641 74.4828 178.563 75.4127C180.532 76.3642 182.567 77.3484 186.587 77.3484C190.606 77.3484 192.642 76.3642 194.612 75.4131C195.613 74.9298 196.559 74.4724 197.768 74.1336C198.107 74.0393 198.304 73.6875 198.209 73.3482C198.115 73.0093 197.763 72.8105 197.424 72.9066C196.106 73.2755 195.064 73.7781 194.057 74.2651C192.132 75.195 190.315 76.0733 186.587 76.0733C182.859 76.0733 181.042 75.195 179.118 74.2646C177.151 73.3136 175.116 72.3303 171.102 72.3303C167.082 72.3303 165.046 73.3141 163.078 74.266C161.155 75.195 159.339 76.0733 155.616 76.0733C154.351 76.0733 153.246 75.9665 152.239 75.7596L151.641 65.8787C151.593 65.4155 151.569 65.0008 151.561 64.5861V64.4582C151.561 57.4761 157.235 51.8027 164.216 51.8027C164.551 51.8027 164.895 51.8184 165.221 51.8508C165.573 51.8826 165.892 51.6349 165.924 51.2839C165.956 50.9329 165.708 50.6215 165.357 50.582C164.982 50.5497 164.599 50.5263 164.216 50.5263C156.532 50.5263 150.284 56.7737 150.284 64.482L150.292 64.6095C150.292 65.0488 150.316 65.5039 150.372 65.9824L150.994 76.2838C150.994 76.3238 150.994 76.3556 151.002 76.3875L151.353 82.2283C151.353 82.2682 151.353 82.3001 151.362 82.34L151.713 88.1656C151.713 88.2055 151.713 88.2369 151.72 88.2769L152.072 94.0858C152.072 94.1262 152.072 94.1661 152.08 94.1975L152.566 99.6057C152.304 99.5594 152.054 99.5078 151.814 99.4513C151.763 99.4387 151.714 99.4257 151.663 99.4127C151.54 99.3821 151.42 99.3494 151.302 99.3157C151.164 99.2789 151.031 99.2385 150.9 99.1968C150.777 99.1577 150.655 99.1187 150.537 99.077C150.434 99.0411 150.332 99.0043 150.232 98.9652C150.195 98.9513 150.159 98.9374 150.122 98.923C149.807 98.8018 149.506 98.6739 149.21 98.542C149.054 98.4715 148.9 98.3997 148.746 98.3275C148.718 98.3144 148.69 98.3014 148.663 98.2875C148.491 98.2067 148.32 98.1241 148.148 98.0411C147.592 97.7723 147.024 97.503 146.413 97.2521C146.358 97.2288 146.303 97.205 146.246 97.1821C146.21 97.1668 146.168 97.1547 146.131 97.1399C145.941 97.0659 145.745 96.9949 145.544 96.9258C145.492 96.9083 145.445 96.8877 145.393 96.8706C145.318 96.8446 145.236 96.8239 145.158 96.7988C145.055 96.7669 144.953 96.7337 144.846 96.7032C144.793 96.6884 144.743 96.6696 144.69 96.6556C144.563 96.6233 144.435 96.5838 144.299 96.5596C144.284 96.5515 144.268 96.5439 144.252 96.5439C144.187 96.5282 144.117 96.5161 144.051 96.5017C143.982 96.486 143.91 96.4716 143.839 96.4564C143.737 96.4357 143.642 96.4124 143.534 96.3922C143.446 96.3765 143.35 96.3603 143.254 96.3442C143.15 96.3253 143.044 96.3119 142.938 96.2971C142.896 96.2908 142.855 96.2845 142.813 96.2782C142.781 96.2742 142.752 96.2683 142.72 96.2647C142.528 96.2405 142.345 96.2167 142.145 96.2006C142.03 96.1871 141.911 96.1813 141.795 96.1732C141.7 96.1655 141.607 96.1575 141.51 96.1516C141.312 96.1368 141.114 96.1283 140.9 96.1207L141.18 90.647L141.183 90.6044C141.184 90.5985 141.188 90.5936 141.188 90.5873C141.188 90.5833 141.186 90.5806 141.186 90.577L141.188 90.559V90.5433L141.778 78.9408L141.782 78.8954C141.782 78.8945 141.783 78.8936 141.783 78.8923C141.783 78.8914 141.782 78.8905 141.782 78.8892L141.786 78.8375L142.073 73.0874C142.074 73.0807 142.078 73.0758 142.078 73.069C142.079 73.0659 142.081 73.0627 142.081 73.0605V73.0587C142.081 73.0578 142.082 73.0574 142.082 73.0565C142.082 73.0547 142.081 73.0533 142.081 73.0515V73.0044L142.44 65.9581C142.497 65.4716 142.52 64.977 142.52 64.4582C142.52 56.7737 136.272 50.5263 128.596 50.5263C120.919 50.5263 114.672 56.7737 114.672 64.4901L115.205 74.3149C115.205 74.3216 115.206 74.3284 115.206 74.3347V74.3688L115.533 80.3855C115.533 80.4169 115.542 80.4488 115.55 80.473L115.901 86.3699C115.901 86.3937 115.901 86.4175 115.908 86.4498L116.587 97.7566V97.7611C116.367 97.6565 116.144 97.5537 115.916 97.4523C115.91 97.45 115.906 97.4473 115.901 97.4455C115.894 97.4429 115.889 97.4406 115.882 97.4379C115.227 97.1489 114.523 96.8792 113.715 96.6583C113.657 96.6417 113.606 96.6233 113.547 96.6076C113.52 96.6013 113.487 96.5942 113.455 96.5874C113.237 96.5327 113.009 96.4833 112.774 96.4362C112.719 96.425 112.67 96.411 112.613 96.3998C112.562 96.3904 112.506 96.3837 112.455 96.3747C112.358 96.3572 112.258 96.3424 112.158 96.3262C111.984 96.2988 111.805 96.2733 111.62 96.2504C111.464 96.2311 111.307 96.2122 111.143 96.197C111.036 96.1866 110.924 96.1786 110.813 96.17C110.656 96.1575 110.495 96.1471 110.331 96.1382C110.221 96.1328 110.11 96.1265 109.997 96.1225C109.774 96.1144 109.543 96.1099 109.307 96.1081C109.253 96.1077 109.205 96.105 109.15 96.105C108.823 96.105 108.512 96.113 108.201 96.1287C108.128 96.1287 108.049 96.1287 107.977 96.1368C107.953 96.1377 107.93 96.1409 107.907 96.1422C107.789 96.1489 107.677 96.1606 107.561 96.1696C107.394 96.1822 107.225 96.1911 107.06 96.2086C106.986 96.2158 106.914 96.2297 106.841 96.2374C106.661 96.2585 106.483 96.2822 106.308 96.3078C106.237 96.319 106.164 96.324 106.094 96.3365C105.969 96.3554 105.85 96.3832 105.727 96.4066C105.584 96.4335 105.439 96.4573 105.3 96.4882C105.259 96.4968 105.216 96.503 105.176 96.5116L105.449 91.1699C105.451 91.1591 105.45 91.1474 105.451 91.1367L105.455 91.0303L105.751 85.2366C105.759 85.2048 105.759 85.1648 105.759 85.133L106.054 79.3241C106.062 79.316 106.062 79.3079 106.062 79.3079V79.1643L106.908 64.4582C106.908 56.7737 100.66 50.5263 92.9833 50.5263C85.275 50.5263 79.0034 56.7737 79.0034 64.4982L79.8812 78.9726C79.8812 79.0126 79.8812 79.0525 79.8893 79.0844L80.2322 84.8457C80.2322 84.8937 80.2403 84.9413 80.2403 84.9898L80.9265 96.2804V96.2872C80.8735 96.28 80.8183 96.2751 80.7649 96.2679C80.6532 96.2522 80.5432 96.2351 80.4238 96.2248C80.3597 96.2167 80.2878 96.2086 80.216 96.2006C80.1882 96.1979 80.1572 96.1965 80.1285 96.1938C79.7865 96.1615 79.4347 96.1382 79.0711 96.1238C79.0532 96.1234 79.0375 96.1216 79.0195 96.1207C78.7484 96.113 78.4769 96.105 78.1892 96.105C74.2725 96.105 72.2407 97.0358 70.3167 97.9693C70.2664 97.9931 70.2162 98.0173 70.1659 98.042C69.9752 98.1345 69.7687 98.2233 69.5717 98.3162L69.7871 93.0724V93.049L70.0905 87.1118L70.0981 87.0162L70.3934 81.0713C70.4015 81.0556 70.4015 81.0313 70.4015 81.008L70.7049 75.0469V75.0151L70.7058 75.0002C70.7058 74.9971 70.7063 74.994 70.7063 74.9908L71.1358 66.4931C71.2394 65.8464 71.287 65.1606 71.287 64.4582C71.287 56.7737 65.0396 50.5263 57.3632 50.5263C49.6787 50.5263 43.439 56.7737 43.439 64.4582C43.439 65.0008 43.4708 65.5515 43.5265 66.0622L43.9573 73.1399C43.9573 73.1637 43.9573 73.1956 43.9659 73.2279L44.3083 78.9569C44.3083 78.9807 44.3168 79.0126 44.3168 79.0368L44.6664 84.8219C44.6669 84.826 44.6647 84.83 44.6651 84.8345C44.6656 84.8377 44.6674 84.8403 44.6678 84.843L45.0188 90.6151V90.6789L45.3536 96.1848C45.1817 96.2001 45.017 96.2163 44.8527 96.2396C44.8491 96.24 44.8455 96.2401 44.8424 96.2405H44.8352C44.6593 96.2647 44.4842 96.2881 44.3168 96.3123C44.232 96.3244 44.1562 96.3424 44.074 96.3554C43.9246 96.3805 43.7756 96.4057 43.632 96.4344C43.4677 96.4667 43.3097 96.5022 43.1531 96.5385C43.0171 96.5704 42.8802 96.6018 42.7496 96.6363C42.6396 96.6655 42.5355 96.6974 42.4296 96.7283C41.9283 96.8742 41.4633 97.0362 41.0289 97.2122C40.9871 97.2288 40.9427 97.2454 40.901 97.262C40.8709 97.2746 40.8431 97.2885 40.8125 97.301C40.2457 97.5389 39.7143 97.7907 39.1937 98.0425C39.0855 98.0945 38.9783 98.1452 38.8706 98.1969C38.7709 98.244 38.6713 98.2929 38.5712 98.3391C38.2332 98.4971 37.8984 98.647 37.5502 98.7924C37.4887 98.8175 37.429 98.844 37.3666 98.8683C37.2845 98.9019 37.1996 98.9324 37.1157 98.9634C36.9833 99.0132 36.85 99.0626 36.7122 99.1097C36.6741 99.1232 36.6386 99.1362 36.5996 99.1492C36.3945 99.2174 36.1804 99.2803 35.9605 99.3404C35.8299 99.3754 35.6912 99.4077 35.5539 99.44C35.4578 99.4629 35.3627 99.4858 35.2635 99.5069C35.1154 99.5388 34.961 99.5675 34.8044 99.5958C34.7011 99.6137 34.5952 99.6312 34.4879 99.6474C34.3313 99.6716 34.1711 99.695 34.0046 99.7156C33.9772 99.7188 33.9471 99.721 33.9193 99.7241L34.1428 94.3573C34.1504 94.3016 34.1585 94.246 34.1504 94.1818V94.1782L34.4462 88.4447C34.4538 88.3886 34.4619 88.333 34.4538 88.2688L34.7487 82.5635V82.5559L34.7572 82.4042L35.0445 76.651C35.0521 76.6191 35.0521 76.5787 35.0521 76.5388L35.5947 65.8787C35.6508 65.4079 35.6746 64.929 35.6746 64.4582C35.6746 56.7737 29.4268 50.5263 21.7427 50.5263C21.1759 50.5263 20.6333 50.5582 20.1149 50.6296C19.7635 50.6695 19.5243 50.9967 19.5638 51.34C19.6122 51.691 19.9313 51.9383 20.2823 51.8907C20.7374 51.8351 21.232 51.8027 21.7427 51.8027C28.7248 51.8027 34.3982 57.4761 34.3982 64.4582C34.3982 64.8891 34.3739 65.3118 34.3264 65.7988L33.8085 75.9544C33.1577 76.0267 32.4728 76.0733 31.7368 76.0733C28.0108 76.0733 26.1931 75.1946 24.2686 74.2646C23.1224 73.7108 21.937 73.1372 20.3465 72.7611C20.0013 72.6844 19.6598 72.8922 19.5795 73.2355C19.4987 73.578 19.7105 73.9213 20.053 74.0025C21.508 74.3463 22.5793 74.8638 23.7134 75.4127C25.6824 76.3642 27.7186 77.3484 31.7368 77.3484C32.4436 77.3484 33.1061 77.3053 33.7438 77.242V77.2497L33.5127 81.8531C32.9575 81.9051 32.3795 81.9388 31.7368 81.9388C28.0108 81.9388 26.1931 81.0596 24.2686 80.1297C23.1224 79.5754 21.937 79.0023 20.3465 78.6266C20.0013 78.5472 19.6598 78.7577 19.5795 79.101C19.4987 79.443 19.7105 79.7868 20.053 79.8676C21.508 80.2113 22.5793 80.7288 23.7134 81.2773C25.6824 82.2292 27.7186 83.2134 31.7368 83.2134C32.3467 83.2134 32.9028 83.1833 33.4409 83.1398L33.4404 83.1461L33.2097 87.7464C32.7407 87.7805 32.2538 87.8038 31.7368 87.8038C28.0108 87.8038 26.1931 86.9246 24.2686 85.9947C23.1224 85.4404 21.937 84.8673 20.3465 84.4912C20.0013 84.4122 19.6598 84.6222 19.5795 84.966C19.4987 85.3085 19.7105 85.6518 20.053 85.7326C21.508 86.0759 22.5793 86.5943 23.7134 87.1423C25.6824 88.0946 27.7186 89.0784 31.7368 89.0784C32.2269 89.0784 32.6927 89.0582 33.1456 89.0295L33.1451 89.0349L32.914 93.6334C32.5401 93.6545 32.1555 93.6684 31.7368 93.6684C28.0112 93.6684 26.1935 92.7896 24.2695 91.8597C23.1228 91.3054 21.9371 90.7323 20.346 90.3566C20.0036 90.2781 19.6598 90.4872 19.5795 90.8306C19.4987 91.173 19.711 91.5168 20.0534 91.5976C21.5084 91.9409 22.5802 92.4593 23.7143 93.0077C25.6832 93.9597 27.719 94.9434 31.7368 94.9434C32.1286 94.9434 32.4944 94.9322 32.8503 94.9147L32.8498 94.9161L32.6344 99.8287C32.3462 99.8408 32.0487 99.8494 31.7359 99.8494C28.0135 99.8494 26.1962 98.9724 24.2726 98.0443C23.1246 97.49 21.9379 96.9177 20.3447 96.5434C20 96.4662 19.6585 96.6754 19.5781 97.0183C19.4978 97.3612 19.7105 97.7045 20.053 97.7844C21.5098 98.1264 22.5829 98.6439 23.7184 99.1919C25.6868 100.142 27.7213 101.124 31.7359 101.124C32.291 101.124 32.817 101.106 33.2968 101.068C33.3632 101.063 33.4211 101.054 33.4871 101.049C36.3819 100.812 38.0977 99.9889 39.7439 99.1927C41.2124 98.4863 42.6127 97.8181 44.8321 97.5304C45.2194 97.481 45.6238 97.4397 46.0658 97.4155C46.4321 97.3921 46.8153 97.3805 47.2215 97.3805C50.9457 97.3805 52.7616 98.2588 54.6838 99.1887C56.6514 100.14 58.6854 101.124 62.7018 101.124C65.8564 101.124 67.7257 100.516 69.1386 99.9207C69.6345 99.7116 70.1008 99.4881 70.555 99.2691C70.6084 99.2435 70.6681 99.2183 70.7206 99.1927C72.6438 98.2592 74.4632 97.3818 78.1892 97.3818C79.4104 97.3818 80.4876 97.4774 81.4848 97.6767C81.4866 97.6771 81.488 97.6762 81.4898 97.6767C83.2082 98.0101 84.3994 98.5851 85.6596 99.1932C87.6267 100.142 89.6603 101.124 93.6726 101.124C97.6877 101.124 99.723 100.141 101.691 99.1905C102.642 98.7318 103.54 98.2987 104.667 97.9648C104.672 97.9635 104.676 97.9657 104.681 97.9644C105.998 97.5649 107.418 97.3818 109.15 97.3818C112.877 97.3818 114.696 98.2592 116.619 99.1927L116.739 99.2488C116.74 99.2493 116.74 99.2489 116.741 99.2493C118.57 100.129 120.644 101.124 124.638 101.124C128.658 101.124 130.693 100.14 132.662 99.1883C134.584 98.2588 136.4 97.3805 140.124 97.3805H140.225C140.227 97.3805 140.228 97.3818 140.23 97.3818C141.719 97.3881 142.892 97.5407 143.899 97.7768C145.362 98.1197 146.464 98.643 147.594 99.1887C148.377 99.5675 149.176 99.9512 150.106 100.277C150.984 100.585 151.979 100.841 153.197 100.988C153.22 100.988 153.252 100.997 153.276 100.997C153.278 100.997 153.28 100.996 153.281 100.996C154.009 101.079 154.793 101.124 155.615 101.124C159.63 101.124 161.665 100.141 163.632 99.1896C165.556 98.2588 167.373 97.3805 171.101 97.3805C171.992 97.3805 172.805 97.4316 173.587 97.5376C173.596 97.5389 173.603 97.5353 173.612 97.5358C175.702 97.8369 177.062 98.4886 178.473 99.1712C180.441 100.124 182.477 101.111 186.497 101.111C190.511 101.111 192.545 100.127 194.514 99.1766Z" fill="white"/>
<path d="M150.711 23.4434L149.873 23.2922V18.1771H149.107C149.059 18.2332 148.987 18.2889 148.891 18.3288C148.795 18.3769 148.692 18.4083 148.572 18.4406C148.452 18.4724 148.333 18.4967 148.213 18.5124C148.093 18.5281 147.982 18.5362 147.886 18.5362V19.055H148.883V23.2922L147.886 23.4434V23.8828H150.711V23.4434Z" fill="white"/>
<path d="M153.191 18.7202C153.478 18.7202 153.702 18.8158 153.869 19.0075C154.029 19.2067 154.117 19.494 154.117 19.8853C154.117 20.2763 154.029 20.563 153.869 20.7547C153.702 20.9463 153.478 21.0419 153.191 21.0419C152.577 21.0419 152.273 20.6591 152.273 19.8853C152.273 19.1031 152.577 18.7202 153.191 18.7202ZM151.659 21.1299C151.81 21.2816 151.978 21.4014 152.186 21.4809C152.385 21.5607 152.617 21.6088 152.864 21.6088C153.151 21.6088 153.414 21.5531 153.662 21.4409C153.909 21.3292 154.1 21.1855 154.244 20.9863H154.276C154.292 21.0581 154.292 21.1137 154.292 21.1698V21.3529C154.292 22.0715 154.188 22.5984 153.973 22.9251C153.757 23.2442 153.414 23.4121 152.943 23.4121C152.736 23.4121 152.56 23.3721 152.417 23.2842C152.273 23.2043 152.186 23.0849 152.153 22.9408C152.313 22.9408 152.433 22.9009 152.529 22.8134C152.624 22.7258 152.672 22.6141 152.672 22.4624C152.672 22.3107 152.617 22.1909 152.512 22.0872C152.409 21.9916 152.249 21.944 152.034 21.944C151.826 21.944 151.667 22.0073 151.563 22.1433C151.451 22.2708 151.403 22.4382 151.403 22.646C151.403 22.8452 151.443 23.0207 151.523 23.1805C151.595 23.3403 151.706 23.4758 151.85 23.5952C151.986 23.715 152.161 23.803 152.353 23.8667C152.552 23.9228 152.776 23.9547 153.015 23.9547C153.766 23.9547 154.332 23.6993 154.699 23.1805C155.066 22.6617 155.257 21.9041 155.257 20.9064C155.257 19.9729 155.082 19.2866 154.731 18.8401C154.379 18.3931 153.837 18.1691 153.095 18.1691C152.808 18.1691 152.552 18.209 152.321 18.2889C152.082 18.3688 151.882 18.4882 151.723 18.6323C151.555 18.784 151.427 18.9595 151.34 19.1749C151.244 19.3827 151.204 19.6219 151.204 19.8853C151.204 20.1483 151.244 20.3795 151.324 20.5954C151.403 20.8027 151.516 20.9863 151.659 21.1299Z" fill="white"/>
<path d="M156.443 23.5795C156.603 23.6993 156.794 23.7869 157.018 23.8587C157.241 23.9228 157.497 23.9547 157.784 23.9547C158.095 23.9547 158.374 23.9148 158.622 23.8268C158.869 23.7388 159.085 23.6114 159.252 23.452C159.428 23.2923 159.563 23.0925 159.651 22.861C159.747 22.6379 159.787 22.3825 159.787 22.1034C159.787 21.8399 159.747 21.6007 159.659 21.3848C159.579 21.1699 159.451 20.9863 159.292 20.8265C159.132 20.6748 158.949 20.5554 158.726 20.4756C158.502 20.3957 158.255 20.3557 157.983 20.3557C157.76 20.3557 157.552 20.388 157.377 20.4437C157.201 20.4993 157.034 20.5873 156.882 20.6991L157.129 19.1112H159.252L159.603 18.0017H159.037L158.901 18.2575H156.651L156.236 21.0581L156.81 21.2973C157.018 21.0339 157.329 20.9064 157.76 20.9064C158.079 20.9064 158.319 21.0182 158.478 21.2417C158.63 21.4647 158.709 21.7681 158.709 22.1433C158.709 22.5342 158.622 22.8453 158.446 23.0845C158.263 23.3161 158.007 23.4359 157.68 23.4359C157.377 23.4359 157.153 23.3722 157.002 23.2362C156.85 23.1087 156.754 22.9494 156.723 22.7734C156.89 22.7734 157.018 22.7178 157.106 22.6217C157.201 22.5262 157.241 22.4144 157.241 22.2869C157.241 22.159 157.201 22.0473 157.129 21.9598C157.05 21.8642 156.906 21.8157 156.691 21.8157C156.595 21.8157 156.508 21.8399 156.412 21.8718C156.324 21.9117 156.252 21.9755 156.188 22.0473C156.116 22.1272 156.068 22.2151 156.028 22.3184C155.981 22.4301 155.965 22.5499 155.965 22.6859C155.965 22.8533 156.004 23.0207 156.084 23.1724C156.172 23.3241 156.292 23.4597 156.443 23.5795Z" fill="white"/>
<path d="M162.414 18.7202C162.701 18.7202 162.924 18.8158 163.092 19.0075C163.26 19.2067 163.339 19.494 163.339 19.8853C163.339 20.2763 163.26 20.563 163.092 20.7547C162.924 20.9463 162.701 21.0419 162.414 21.0419C161.799 21.0419 161.496 20.6591 161.496 19.8853C161.496 19.1031 161.799 18.7202 162.414 18.7202ZM160.889 21.1299C161.033 21.2816 161.208 21.4014 161.408 21.4809C161.616 21.5607 161.839 21.6088 162.086 21.6088C162.374 21.6088 162.637 21.5531 162.884 21.4409C163.132 21.3292 163.323 21.1855 163.467 20.9863H163.499C163.514 21.0581 163.514 21.1137 163.514 21.1698V21.3529C163.514 22.0715 163.411 22.5984 163.195 22.9251C162.98 23.2442 162.637 23.4121 162.166 23.4121C161.958 23.4121 161.783 23.3721 161.639 23.2842C161.496 23.2043 161.408 23.0849 161.376 22.9408C161.536 22.9408 161.656 22.9009 161.751 22.8134C161.847 22.7258 161.895 22.6141 161.895 22.4624C161.895 22.3107 161.839 22.1909 161.735 22.0872C161.632 21.9916 161.472 21.944 161.257 21.944C161.049 21.944 160.889 22.0073 160.786 22.1433C160.682 22.2708 160.626 22.4382 160.626 22.646C160.626 22.8452 160.666 23.0207 160.746 23.1805C160.826 23.3403 160.929 23.4758 161.073 23.5952C161.217 23.715 161.384 23.803 161.583 23.8667C161.775 23.9228 161.998 23.9547 162.238 23.9547C162.988 23.9547 163.554 23.6993 163.922 23.1805C164.297 22.6617 164.48 21.9041 164.48 20.9064C164.48 19.9729 164.305 19.2866 163.954 18.8401C163.602 18.3931 163.06 18.1691 162.326 18.1691C162.038 18.1691 161.775 18.209 161.544 18.2889C161.304 18.3688 161.105 18.4882 160.945 18.6323C160.778 18.784 160.65 18.9595 160.562 19.1749C160.467 19.3827 160.427 19.6219 160.427 19.8853C160.427 20.1483 160.467 20.3795 160.547 20.5954C160.626 20.8027 160.738 20.9863 160.889 21.1299Z" fill="white"/>
<path d="M119.888 32.9075C120.311 33.3227 120.886 33.53 121.604 33.53C122.282 33.53 122.816 33.3702 123.2 33.0507C123.591 32.7316 123.846 32.2451 123.982 31.5907H123.311C123.168 32.4681 122.649 32.9075 121.78 32.9075C121.524 32.9075 121.309 32.8676 121.109 32.7877C120.917 32.7082 120.766 32.5803 120.654 32.3968C120.511 32.1733 120.399 31.9098 120.327 31.5907C120.247 31.2635 120.207 30.9206 120.207 30.5454C120.207 30.1702 120.255 29.8273 120.351 29.532C120.447 29.2291 120.566 28.9733 120.71 28.774C120.814 28.6147 120.958 28.4948 121.141 28.4149C121.317 28.3274 121.508 28.2875 121.708 28.2875C122.091 28.2875 122.41 28.3988 122.665 28.6304C122.912 28.87 123.08 29.2129 123.152 29.6676H123.862V27.8248H123.2L123.04 28.3189C122.945 28.2071 122.849 28.1196 122.753 28.0478C122.649 27.9679 122.553 27.9123 122.441 27.8647C122.33 27.8248 122.21 27.7929 122.082 27.7763C121.955 27.7606 121.811 27.7449 121.652 27.7449C120.998 27.7449 120.478 27.9123 120.08 28.2395C119.768 28.5029 119.529 28.8458 119.354 29.269C119.186 29.6918 119.098 30.1702 119.098 30.6895C119.098 31.1598 119.162 31.5831 119.298 31.9578C119.433 32.3407 119.633 32.6521 119.888 32.9075Z" fill="white"/>
<path d="M129.314 31.7105H128.629L128.413 32.8675H126.266V30.8568H127.336L127.463 31.5906H128.102V29.5319H127.463L127.336 30.2743H126.266V28.3987H128.277L128.508 29.4839H129.147V27.8247H124.511V28.2789L125.245 28.4387V32.8356L124.511 32.9949V33.45H129.314V31.7105Z" fill="white"/>
<path d="M131.693 28.3987H132.395C132.546 28.3987 132.69 28.4229 132.818 28.4705C132.945 28.5185 133.049 28.5903 133.137 28.6783C133.249 28.7901 133.336 28.9332 133.408 29.093C133.48 29.2609 133.512 29.4283 133.512 29.5957C133.512 29.7954 133.48 29.9628 133.4 30.1064C133.329 30.2581 133.24 30.386 133.137 30.4893C133.065 30.5611 132.961 30.6172 132.834 30.6652C132.714 30.7128 132.57 30.7289 132.427 30.7289H131.693V28.3987ZM132.435 32.9949L131.693 32.8356V31.3034H132.834C133.065 31.3034 133.289 31.2715 133.488 31.2154C133.695 31.1517 133.863 31.048 133.999 30.9125C134.182 30.7527 134.326 30.5377 134.437 30.2819C134.549 30.0185 134.605 29.755 134.605 29.5001C134.605 29.2447 134.549 29.0131 134.446 28.7901C134.342 28.558 134.198 28.3673 134.015 28.1994C133.879 28.0796 133.711 27.9921 133.512 27.9203C133.312 27.8561 133.089 27.8247 132.842 27.8247H130.025V28.2789L130.679 28.4387V32.8356L130.025 32.9949V33.45H132.435V32.9949Z" fill="white"/>
<path d="M135.683 28.415H136.88V32.8115L136.05 32.9951V33.4502H138.723V32.9951L137.894 32.8115V28.415H139.082L139.33 29.5801H139.833V27.8248H134.941V29.5801H135.444L135.683 28.415Z" fill="white"/>
<path d="M148.044 32.955V33.394H150.861V32.955L150.023 32.8114V27.6964H149.265C149.217 27.7525 149.145 27.8005 149.049 27.848C148.953 27.888 148.841 27.9279 148.722 27.9598C148.61 27.9917 148.49 28.0155 148.363 28.0316C148.243 28.0473 148.139 28.0554 148.044 28.0554V28.5666H149.033V32.8114L148.044 32.955Z" fill="white"/>
<path d="M154.018 30.2743C153.859 30.4659 153.627 30.5615 153.34 30.5615C152.726 30.5615 152.422 30.1783 152.422 29.4045C152.422 28.6222 152.726 28.2313 153.34 28.2313C153.627 28.2313 153.859 28.3274 154.018 28.5267C154.185 28.7183 154.266 29.0132 154.266 29.4045C154.266 29.7874 154.185 30.0827 154.018 30.2743ZM152.821 31.982C152.821 31.8303 152.765 31.7029 152.662 31.6068C152.558 31.5112 152.398 31.4551 152.191 31.4551C151.975 31.4551 151.816 31.5269 151.712 31.6544C151.608 31.7904 151.552 31.9578 151.552 32.1656C151.552 32.3572 151.592 32.5403 151.672 32.6997C151.752 32.8599 151.864 32.995 151.999 33.1148C152.143 33.2266 152.31 33.3141 152.51 33.3783C152.709 33.4424 152.925 33.4739 153.164 33.4739C153.922 33.4739 154.481 33.2189 154.848 32.6997C155.223 32.1813 155.407 31.4233 155.407 30.4179C155.407 29.4925 155.231 28.8063 154.88 28.3588C154.536 27.9122 153.986 27.6887 153.252 27.6887C152.965 27.6887 152.701 27.7287 152.47 27.8086C152.231 27.8884 152.039 28.0002 151.872 28.1519C151.704 28.2955 151.577 28.4786 151.489 28.6864C151.401 28.9014 151.353 29.1415 151.353 29.4045C151.353 29.6675 151.393 29.8991 151.472 30.115C151.552 30.3219 151.664 30.4978 151.816 30.6491C151.959 30.8008 152.135 30.9125 152.335 31.0005C152.542 31.0804 152.765 31.1203 153.013 31.1203C153.3 31.1203 153.572 31.0642 153.811 30.9605C154.058 30.8488 154.25 30.6971 154.401 30.5059H154.433C154.441 30.5777 154.449 30.6334 154.449 30.6809V30.8726C154.449 31.5911 154.337 32.1171 154.122 32.4367C153.915 32.7638 153.572 32.9232 153.092 32.9232C152.885 32.9232 152.709 32.8832 152.566 32.8038C152.422 32.7158 152.335 32.6041 152.303 32.4604C152.462 32.4604 152.59 32.4129 152.678 32.333C152.774 32.2455 152.821 32.1256 152.821 31.982Z" fill="white"/>
<path d="M157.122 31.2716C157.258 31.088 157.457 30.9282 157.729 30.7765C157.968 30.9282 158.175 31.0638 158.343 31.1679C158.503 31.2796 158.638 31.3829 158.734 31.4789C158.83 31.5826 158.902 31.6782 158.941 31.7742C158.989 31.8617 159.005 31.9654 159.005 32.0852C159.005 32.3482 158.91 32.556 158.726 32.7077C158.534 32.8594 158.279 32.9393 157.96 32.9393C157.641 32.9393 157.385 32.8594 157.202 32.6997C157.01 32.5399 156.915 32.2926 156.915 31.9654C156.915 31.6863 156.986 31.4627 157.122 31.2716ZM157.521 28.3987C157.681 28.2789 157.888 28.2233 158.152 28.2233C158.423 28.2233 158.638 28.2874 158.797 28.4225C158.965 28.5504 159.045 28.7416 159.045 28.9975C159.045 29.2048 158.998 29.4041 158.886 29.6033C158.782 29.7954 158.646 29.9548 158.495 30.0584C158.255 29.9628 158.064 29.8668 157.912 29.7712C157.761 29.6751 157.633 29.5796 157.537 29.492C157.442 29.396 157.377 29.3004 157.346 29.2048C157.306 29.1092 157.29 29.0132 157.29 28.9095C157.29 28.686 157.37 28.5181 157.521 28.3987ZM156.388 31.1279C156.22 31.3829 156.133 31.6705 156.133 31.9973C156.133 32.4681 156.292 32.8276 156.611 33.0906C156.93 33.3459 157.377 33.4734 157.952 33.4734C158.263 33.4734 158.543 33.4335 158.79 33.3621C159.045 33.2822 159.261 33.1785 159.444 33.0349C159.62 32.8994 159.764 32.7234 159.859 32.5323C159.955 32.3325 160.011 32.109 160.011 31.8541C160.011 31.5426 159.923 31.263 159.748 31.0319C159.572 30.7927 159.292 30.5692 158.902 30.3537C159.173 30.1944 159.38 29.9947 159.524 29.7474C159.675 29.5001 159.748 29.2286 159.748 28.9494C159.748 28.7497 159.708 28.5666 159.628 28.4068C159.548 28.2475 159.436 28.1196 159.292 28.0078C159.141 27.9042 158.965 27.8243 158.758 27.7682C158.558 27.7125 158.327 27.6887 158.08 27.6887C157.521 27.6887 157.098 27.8162 156.819 28.0716C156.532 28.3269 156.388 28.6783 156.388 29.1249C156.388 29.396 156.452 29.6352 156.571 29.8354C156.691 30.0346 156.899 30.2339 157.186 30.4413C156.819 30.6486 156.556 30.8802 156.388 31.1279Z" fill="white"/>
<path d="M162.786 28.8058V31.2873H161.19L162.786 28.8058ZM162.786 31.8456V32.8114L162.028 32.955V33.394H164.382V32.955L163.775 32.8114V31.8456H164.55L164.629 31.2873H163.775V27.6964H162.93L160.416 31.3914L160.536 31.8456H162.786Z" fill="white"/>
<path d="M33.4402 28.5904H31.5328L30.9345 31.798H24.9816V26.2369H27.9423L28.309 28.2713H30.0648V22.5584H28.309L27.9423 24.609H24.9816V19.4222H30.5593L31.1899 22.4301H32.9614V17.8424H20.138V19.095L22.1734 19.5496V31.7105L20.138 32.1656V33.4182H33.4402V28.5904Z" fill="white"/>
<path d="M36.8413 28.1358C36.8413 29.9153 37.3525 31.2716 38.3735 32.2289C39.395 33.1786 40.8792 33.6575 42.8105 33.6575C44.901 33.6575 46.4808 33.1867 47.5499 32.2608C48.6113 31.3273 49.1458 29.9629 49.1458 28.1596V19.5497L50.9653 19.0946V17.842H45.3157V19.0946L47.1352 19.5497V27.4895C47.1352 29.1331 46.8318 30.322 46.2254 31.0481C45.6191 31.7743 44.6375 32.1414 43.2889 32.1414C40.8631 32.1414 39.6504 30.5773 39.6504 27.4496V19.5497L41.4699 19.0946V17.842H35.0223V19.0946L36.8413 19.5497V28.1358Z" fill="white"/>
<path d="M57.0197 19.4222H59.3818C60.2592 19.4222 60.9373 19.6053 61.4081 19.9805C61.7039 20.2278 61.9269 20.5231 62.1024 20.8665C62.2779 21.2175 62.3659 21.6084 62.3659 22.0392C62.3659 22.51 62.2779 22.957 62.1105 23.3636C61.9507 23.7788 61.7196 24.1064 61.4319 24.3533C60.9135 24.8003 60.2592 25.0233 59.4612 25.0233H57.0197V19.4222ZM59.0784 32.1657L57.0197 31.7106V26.6036H59.0941L61.9269 32.1657V33.4183H67.0335V32.1657L65.1108 31.7505L62.4296 27.2104C62.2698 26.9626 62.1105 26.7472 61.9664 26.5717C61.8152 26.3882 61.7039 26.2603 61.6236 26.1884C62.1343 26.0767 62.549 25.9254 62.8685 25.7338C63.1957 25.5502 63.491 25.351 63.746 25.1517C64.2486 24.7603 64.6561 24.2738 64.9515 23.6913C65.2463 23.1087 65.3899 22.51 65.3899 21.9118C65.3899 21.305 65.2382 20.7067 64.9353 20.108C64.6319 19.5178 64.2248 19.0389 63.706 18.6642C63.2832 18.377 62.8205 18.1611 62.2941 18.0336C61.7752 17.9057 61.177 17.842 60.4827 17.842H52.3911V19.095L54.2106 19.5497V31.7106L52.3911 32.1657V33.4183H59.0784V32.1657Z" fill="white"/>
<path d="M72.1898 20.5473C72.517 20.1003 72.9321 19.7493 73.4186 19.4935C73.9056 19.2467 74.5039 19.1187 75.1905 19.1187C75.8682 19.1187 76.4826 19.2467 77.0176 19.5097C77.5602 19.765 78.023 20.1721 78.3977 20.7147C78.7729 21.2654 79.0606 21.9593 79.2679 22.7976C79.4834 23.627 79.5866 24.6166 79.5866 25.7575C79.5866 26.915 79.4834 27.8961 79.2836 28.7098C79.0763 29.5239 78.7886 30.1868 78.4139 30.6895C77.7276 31.6387 76.6985 32.1171 75.3418 32.1171C74.5757 32.1171 73.9455 31.982 73.4267 31.7105C72.916 31.4313 72.4851 31.0319 72.1422 30.4978C71.7832 29.9467 71.4955 29.2447 71.2882 28.375C71.0808 27.5132 70.9771 26.516 70.9771 25.3908C70.9771 23.2285 71.3761 21.6083 72.1898 20.5473ZM69.9161 31.8142C70.5063 32.4205 71.232 32.8756 72.0866 33.179C72.9478 33.4819 73.9855 33.6336 75.2139 33.6336C76.4432 33.6336 77.4803 33.4819 78.3421 33.179C79.1957 32.8756 79.938 32.3967 80.5601 31.7504C81.3105 30.9686 81.8531 30.0351 82.204 28.9256C82.5474 27.8247 82.7229 26.6677 82.7229 25.4546C82.7229 24.3137 82.5555 23.2204 82.2364 22.159C81.9087 21.098 81.3742 20.1878 80.6242 19.4379C79.978 18.7916 79.2118 18.3288 78.3421 18.0497C77.4642 17.7625 76.4508 17.6265 75.278 17.6265C74.0568 17.6265 73.0201 17.7782 72.1741 18.0816C71.3281 18.385 70.6096 18.8553 70.0037 19.5097C69.3094 20.2439 68.7748 21.1617 68.3996 22.255C68.0249 23.3479 67.8413 24.5372 67.8413 25.7975C67.8413 27.0743 68.0249 28.2313 68.3996 29.2766C68.7748 30.3219 69.2775 31.1679 69.9161 31.8142Z" fill="white"/>
<path d="M88.993 19.4222H90.9399C91.355 19.4222 91.7459 19.486 92.0969 19.6215C92.4479 19.7651 92.7513 19.9563 92.9905 20.1964C93.2939 20.5155 93.5493 20.8984 93.7409 21.353C93.9325 21.8076 94.0358 22.2784 94.0358 22.7497C94.0358 23.2838 93.9325 23.755 93.7333 24.1697C93.5255 24.5768 93.2858 24.9282 92.9905 25.215C92.7912 25.4228 92.5121 25.5826 92.1611 25.7019C91.8097 25.8294 91.4269 25.885 91.0279 25.885H88.993V19.4222ZM91.0436 32.1657L88.993 31.7106V27.4653H92.153C92.7989 27.4653 93.4056 27.3854 93.9725 27.218C94.5308 27.0506 95.0016 26.7795 95.3768 26.3882C95.8795 25.9411 96.2861 25.351 96.5971 24.6324C96.909 23.9148 97.0607 23.1886 97.0607 22.4701C97.0607 21.7758 96.9167 21.1214 96.6213 20.4989C96.3265 19.8849 95.9194 19.3423 95.4167 18.8796C95.0415 18.5444 94.5784 18.289 94.0201 18.1135C93.4698 17.9299 92.8473 17.842 92.1768 17.842H84.3644V19.095L86.1843 19.5497V31.7106L84.3644 32.1657V33.4183H91.0436V32.1657Z" fill="white"/>
<path d="M103.774 20.4831H103.854L105.873 26.779H101.652L103.774 20.4831ZM96.0657 33.4178H101.779V32.1651L99.9837 31.7105L101.108 28.3507H106.391L107.492 31.7105L105.721 32.1651V33.4178H112.312V32.1651L110.589 31.7105L105.569 17.6265H102.904L97.8452 31.7105L96.0657 32.1651V33.4178Z" fill="white"/>
<path d="M207.305 21.5926C207.305 22.0634 207.369 22.5019 207.481 22.9171C207.593 23.3322 207.768 23.6913 208.007 24.0023C208.239 24.3133 208.534 24.553 208.886 24.7285C209.236 24.9039 209.635 24.9915 210.098 24.9915C210.441 24.9915 210.744 24.9358 211.016 24.8241C211.279 24.7123 211.534 24.5373 211.774 24.2895C212.013 24.0503 212.244 23.7231 212.476 23.3237C212.708 22.9252 212.955 22.4301 213.226 21.8556C213.401 21.4647 213.553 21.1376 213.681 20.8741C213.808 20.6192 213.936 20.4038 214.072 20.244C214.207 20.0847 214.359 19.9648 214.527 19.9006C214.686 19.8288 214.894 19.797 215.133 19.797C216.115 19.797 216.609 20.3158 216.609 21.353C216.609 22.0235 216.402 22.5262 215.987 22.8453C215.572 23.1724 214.934 23.3322 214.064 23.3322V24.5373H217.407V23.3479L216.793 23.2362C217.303 22.6617 217.567 21.9198 217.567 21.0101C217.567 20.0847 217.32 19.3504 216.833 18.8078C216.347 18.2571 215.652 17.9856 214.758 17.9856C214.351 17.9856 214.008 18.0417 213.713 18.1611C213.426 18.2809 213.162 18.4568 212.939 18.688C212.716 18.9196 212.508 19.1987 212.332 19.5335C212.149 19.8769 211.973 20.2597 211.798 20.6905C211.646 21.0581 211.494 21.3929 211.359 21.7044C211.223 22.0073 211.072 22.2708 210.912 22.4862C210.744 22.7097 210.569 22.8771 210.362 22.997C210.162 23.1168 209.914 23.1805 209.627 23.1805C209.157 23.1805 208.813 23.0208 208.598 22.7097C208.382 22.3983 208.279 21.9755 208.279 21.449C208.279 21.1214 208.319 20.8265 208.406 20.5631C208.494 20.2996 208.638 20.0685 208.846 19.8769C209.045 19.6852 209.308 19.5259 209.627 19.4141C209.955 19.2943 210.345 19.2229 210.808 19.1987V17.9376H207.457V19.1269L208.263 19.2786C207.928 19.5654 207.689 19.893 207.537 20.2597C207.385 20.6192 207.305 21.0657 207.305 21.5926Z" fill="white"/>
<path d="M216.324 31.447L216.611 32.5798H217.409V28.4306H216.611L216.324 29.54L207.459 32.8275V34.5985L216.324 37.6235L216.611 38.7563H217.409V35.1097H216.611L216.324 36.2506L209.095 33.9051V33.849L216.324 31.447Z" fill="white"/>
<path d="M207.457 50.6695H210.545V49.4568L208.494 49.0659V45.2676H212.045V47.1589L210.752 47.3981V48.5152H214.399V47.3981L213.082 47.1589V45.2676H216.402V48.8343L214.479 49.2333V50.3665H217.407V42.1713H216.609L216.322 43.4724H208.55L208.263 42.1713H207.457V50.6695Z" fill="white"/>
<path d="M212.819 57.8671H216.401V59.3751C216.401 59.9419 216.282 60.3728 216.043 60.6762C215.883 60.8597 215.7 61.0114 215.476 61.1147C215.253 61.2264 215.005 61.2821 214.726 61.2821C214.423 61.2821 214.144 61.2345 213.88 61.1227C213.617 61.0191 213.409 60.8754 213.249 60.6919C212.962 60.3571 212.819 59.9419 212.819 59.4312V57.8671ZM208.263 61.0114H207.457V64.2666H208.263L208.526 63.0378L211.422 61.322C211.582 61.2264 211.718 61.1227 211.837 61.0271C211.949 60.9311 212.029 60.8597 212.077 60.8117C212.149 61.1389 212.244 61.4023 212.364 61.6097C212.484 61.817 212.611 62.0006 212.739 62.168C212.986 62.4876 213.298 62.7506 213.672 62.9341C214.047 63.1258 214.423 63.2214 214.814 63.2214C215.197 63.2214 215.58 63.1258 215.963 62.926C216.338 62.7349 216.649 62.4714 216.888 62.1442C217.072 61.8731 217.208 61.5778 217.287 61.2426C217.367 60.9073 217.407 60.5245 217.407 60.0775V54.9148H216.609L216.322 56.0719H208.55L208.263 54.9148H207.457V59.1839H208.263L208.55 57.8671H211.813V59.2L208.263 61.0114Z" fill="white"/>
<path d="M207.457 72.1745H208.263L208.55 70.8738H216.322L216.609 72.1745H217.407V67.7775H216.609L216.322 69.0786H208.55L208.263 67.7775H207.457V72.1745Z" fill="white"/>
<path d="M217.321 82.077C217.401 81.8853 217.456 81.686 217.496 81.463C217.528 81.2395 217.552 80.9917 217.552 80.7126C217.552 80.0106 217.448 79.3958 217.256 78.8855C217.057 78.3747 216.754 77.9277 216.363 77.553C215.892 77.106 215.31 76.7626 214.608 76.5234C213.905 76.2761 213.147 76.1567 212.325 76.1567C211.512 76.1567 210.785 76.268 210.131 76.4992C209.476 76.7308 208.926 77.066 208.487 77.4969C207.713 78.2549 207.322 79.2607 207.322 80.5209C207.322 81.1035 207.418 81.6061 207.609 82.0294C207.793 82.4521 208.112 82.8673 208.551 83.2739L207.458 83.6173V84.75H211.304L211.591 85.9151H212.421V81.7978H211.591L211.304 82.9548H210.753C209.979 82.9548 209.397 82.7874 209.006 82.4602C208.623 82.125 208.431 81.5662 208.431 80.7844C208.431 80.4173 208.487 80.0744 208.598 79.771C208.719 79.46 208.902 79.2122 209.15 79.0291C209.556 78.7338 210.051 78.5103 210.65 78.3429C211.24 78.1831 211.863 78.1032 212.517 78.1032C213.187 78.1032 213.802 78.1912 214.368 78.3667C214.935 78.5421 215.405 78.7576 215.796 79.0129C216.052 79.2207 216.251 79.46 216.387 79.7391C216.53 80.0106 216.594 80.3535 216.594 80.7687C216.594 81.5186 216.379 82.1012 215.932 82.5163C215.493 82.9306 214.895 83.2021 214.152 83.33V84.5826H217.408V83.4099L216.555 83.1384C216.738 82.9629 216.898 82.7874 217.017 82.6196C217.145 82.4441 217.24 82.2686 217.321 82.077Z" fill="white"/>
<path d="M214.479 96.7197V97.8525H217.407V89.6577H216.609L216.322 90.9584H208.55L208.263 89.6577H207.457V98.1559H210.545V96.9428L208.494 96.5519V92.7536H212.045V94.6449L210.752 94.8841V96.0012H214.399V94.8841L213.083 94.6449V92.7536H216.402V96.3203L214.479 96.7197Z" fill="white"/>
<path d="M192.142 116.445H190.194L189.644 119.373H183.125C183.125 118.998 183.34 118.615 183.779 118.232C184.21 117.849 184.753 117.45 185.415 117.019C186.069 116.597 186.771 116.134 187.529 115.647C188.28 115.16 188.99 114.618 189.644 114.019C190.299 113.428 190.849 112.774 191.28 112.056C191.719 111.338 191.934 110.54 191.934 109.654C191.934 108.968 191.791 108.346 191.511 107.803C191.224 107.252 190.833 106.782 190.33 106.391C189.828 106.007 189.229 105.704 188.535 105.489C187.84 105.273 187.083 105.17 186.261 105.17C185.423 105.17 184.665 105.273 184.002 105.489C183.34 105.704 182.774 106 182.311 106.367C181.848 106.742 181.489 107.197 181.249 107.723C181.002 108.242 180.883 108.817 180.883 109.423C180.883 109.854 180.938 110.213 181.042 110.5C181.146 110.788 181.298 111.027 181.489 111.21C181.68 111.394 181.896 111.522 182.143 111.609C182.383 111.689 182.646 111.737 182.917 111.737C183.42 111.737 183.827 111.609 184.13 111.37C184.434 111.123 184.585 110.78 184.585 110.34C184.585 109.926 184.457 109.598 184.202 109.343C183.939 109.096 183.564 108.968 183.077 108.968C183.212 108.218 183.516 107.66 183.971 107.3C184.425 106.933 185.08 106.749 185.941 106.749C186.883 106.749 187.617 106.965 188.144 107.396C188.671 107.835 188.934 108.441 188.934 109.216C188.934 109.917 188.726 110.572 188.319 111.186C187.905 111.793 187.394 112.376 186.771 112.934C186.157 113.493 185.487 114.043 184.761 114.594C184.035 115.144 183.364 115.719 182.75 116.309C182.128 116.908 181.617 117.538 181.202 118.2C180.786 118.863 180.587 119.589 180.587 120.379V121.895H192.142V116.445Z" fill="white"/>
<path d="M193.763 110.612H195.639L196.077 107.939H201.91C201.16 108.808 200.458 109.798 199.804 110.923C199.149 112.04 198.575 113.182 198.08 114.346C197.578 115.503 197.195 116.62 196.907 117.706C196.628 118.791 196.484 119.724 196.484 120.522C196.484 121.009 196.588 121.4 196.796 121.687C197.003 121.975 197.37 122.118 197.905 122.118C198.559 122.118 198.998 121.991 199.205 121.735C199.42 121.472 199.532 121.073 199.532 120.546C199.532 119.413 199.668 118.248 199.94 117.051C200.219 115.855 200.594 114.673 201.088 113.508C201.575 112.343 202.15 111.218 202.812 110.133C203.475 109.048 204.193 108.058 204.951 107.157V105.417H193.763V110.612Z" fill="white"/>
<path d="M214.607 119.732C214.455 119.908 214.287 120.051 214.104 120.179C213.921 120.299 213.705 120.387 213.466 120.45C213.218 120.514 212.931 120.546 212.596 120.546C212.045 120.546 211.55 120.427 211.103 120.187C210.665 119.955 210.337 119.589 210.122 119.102C209.771 118.535 209.516 117.801 209.348 116.891C209.181 115.99 209.093 114.905 209.093 113.66C209.093 111.154 209.436 109.343 210.122 108.21C210.337 107.723 210.673 107.364 211.128 107.124C211.59 106.885 212.077 106.774 212.596 106.774C212.931 106.774 213.218 106.798 213.466 106.861C213.705 106.925 213.921 107.013 214.104 107.133C214.287 107.26 214.455 107.404 214.607 107.58C214.759 107.755 214.91 107.97 215.062 108.21C215.748 109.343 216.091 111.154 216.091 113.66C216.091 116.173 215.748 117.985 215.062 119.102C214.91 119.349 214.759 119.556 214.607 119.732ZM216.482 121.184C216.801 120.953 217.121 120.674 217.447 120.339C218.054 119.589 218.525 118.655 218.852 117.546C219.179 116.429 219.347 115.136 219.347 113.66C219.347 112.176 219.179 110.883 218.86 109.766C218.541 108.657 218.07 107.723 217.447 106.973C217.121 106.638 216.801 106.358 216.482 106.127C216.163 105.904 215.82 105.72 215.444 105.577C215.069 105.441 214.646 105.345 214.184 105.282C213.721 105.226 213.186 105.193 212.596 105.193C211.511 105.193 210.569 105.322 209.771 105.577C208.965 105.84 208.295 106.303 207.744 106.973C207.122 107.723 206.643 108.657 206.324 109.766C206.005 110.883 205.845 112.176 205.845 113.66C205.845 115.136 206.005 116.429 206.324 117.546C206.643 118.655 207.122 119.589 207.744 120.339C208.295 121.009 208.965 121.472 209.771 121.735C210.569 121.99 211.511 122.118 212.596 122.118C213.186 122.118 213.721 122.094 214.184 122.03C214.646 121.967 215.069 121.871 215.444 121.735C215.82 121.592 216.163 121.416 216.482 121.184Z" fill="white"/>
<path d="M21.1747 131.366C21.1747 131.725 21.071 131.877 20.7757 131.877C20.4966 131.877 20.3368 131.67 20.2012 131.326L19.5469 131.941C19.7942 132.42 20.2255 132.619 20.7914 132.619C21.5019 132.619 22.0764 132.316 22.0764 131.518V129.004H21.1747V131.366Z" fill="white"/>
<path d="M25.1189 129.004H24.2173V132.548H26.4357V131.765H25.1189V129.004Z" fill="white"/>
<path d="M28.095 131.135L28.1906 130.856C28.3898 130.281 28.4782 129.826 28.4782 129.826H28.5016C28.5016 129.826 28.5734 130.273 28.7893 130.864L28.8849 131.135H28.095ZM27.959 129.004L26.6745 132.547H27.6242L27.8396 131.885H29.1483L29.3795 132.547H30.3529L29.0604 129.004H27.959Z" fill="white"/>
<path d="M32.2454 130.608H31.7585V129.77H32.2454C32.5403 129.77 32.7081 129.922 32.7081 130.193C32.7081 130.505 32.5327 130.608 32.2454 130.608ZM33.4424 131.51C33.3544 131.207 33.187 131.071 32.8598 131.015V130.999C33.3226 130.943 33.626 130.656 33.626 130.113C33.626 129.275 33.0991 129.004 32.3092 129.004H30.8568V132.547H31.7585V131.358H32.078C32.3172 131.358 32.429 131.406 32.4927 131.669L32.6206 132.164C32.6606 132.316 32.7081 132.459 32.8199 132.547H33.8257C33.7054 132.419 33.6574 132.307 33.6179 132.164L33.4424 131.51Z" fill="white"/>
<path d="M35.8033 130.608H35.3244V129.77H35.8113C36.1062 129.77 36.266 129.922 36.266 130.193C36.266 130.505 36.0905 130.608 35.8033 130.608ZM37.0002 131.51C36.9199 131.207 36.7449 131.071 36.4257 131.015V130.999C36.8885 130.943 37.1833 130.656 37.1833 130.113C37.1833 129.275 36.6569 129.004 35.867 129.004H34.4227V132.547H35.3244V131.358H35.6354C35.8831 131.358 35.9949 131.406 36.0582 131.669L36.1865 132.164C36.2184 132.316 36.266 132.459 36.3777 132.547H37.3835C37.2632 132.419 37.2237 132.307 37.1833 132.164L37.0002 131.51Z" fill="white"/>
<path d="M38.8819 129.004H37.9802V132.548H38.8819V129.004Z" fill="white"/>
<path d="M41.3247 130.808C41.1816 131.279 41.1416 131.757 41.1416 131.757H41.1174C41.1174 131.757 41.0698 131.286 40.9181 130.799L40.3593 129.004H39.394L40.5671 132.548H41.6358L42.8094 129.004H41.8593L41.3247 130.808Z" fill="white"/>
<path d="M44.2128 129.004H43.3112V132.548H44.2128V129.004Z" fill="white"/>
<path d="M45.1141 132.548H47.5557V131.765H46.0158V131.127H47.3725V130.377H46.0158V129.787H47.5557V129.004H45.1141V132.548Z" fill="white"/>
<path d="M49.6878 130.608H49.2093V129.77H49.6958C49.9912 129.77 50.1505 129.922 50.1505 130.193C50.1505 130.505 49.9831 130.608 49.6878 130.608ZM50.8847 131.51C50.8048 131.207 50.6374 131.071 50.3103 131.015V130.999C50.773 130.943 51.0764 130.656 51.0764 130.113C51.0764 129.275 50.5414 129.004 49.7596 129.004H48.3077V132.547H49.2093V131.358H49.5204C49.7677 131.358 49.8794 131.406 49.9431 131.669L50.0711 132.164C50.1029 132.316 50.1505 132.459 50.2703 132.547H51.2756C51.1558 132.419 51.1082 132.307 51.0683 132.164L50.8847 131.51Z" fill="white"/>
<path d="M51.8736 132.548H54.3151V131.765H52.7753V131.127H54.1239V130.377H52.7753V129.787H54.3151V129.004H51.8736V132.548Z" fill="white"/>
<path d="M182.019 129.004H181.117V132.548H183.343V131.765H182.019V129.004Z" fill="white"/>
<path d="M186.416 129.674C186.631 129.674 186.855 129.794 186.887 130.081L187.789 129.842C187.709 129.164 187.15 128.924 186.4 128.924C185.753 128.924 185.107 129.188 185.107 130.018C185.107 130.6 185.403 130.935 186.304 131.215C186.719 131.334 186.839 131.43 186.839 131.629C186.839 131.837 186.664 131.925 186.424 131.925C186.105 131.925 185.857 131.702 185.786 131.382L184.971 131.773C185.179 132.403 185.666 132.619 186.352 132.619C187.134 132.619 187.781 132.339 187.781 131.55C187.781 130.863 187.422 130.6 186.615 130.361C186.225 130.249 186.065 130.153 186.065 129.945C186.065 129.754 186.225 129.674 186.416 129.674Z" fill="white"/>
<path d="M189.648 131.366C189.648 131.725 189.544 131.877 189.249 131.877C188.978 131.877 188.811 131.67 188.683 131.326L188.028 131.941C188.276 132.42 188.706 132.619 189.273 132.619C189.975 132.619 190.55 132.316 190.55 131.518V129.004H189.648V131.366Z" fill="white"/>
<path d="M193.508 128.661C193.787 128.661 193.994 128.502 193.994 128.183C193.994 127.848 193.787 127.696 193.508 127.696C193.244 127.696 193.029 127.848 193.029 128.183C193.029 128.502 193.244 128.661 193.508 128.661Z" fill="white"/>
<path d="M192.856 131.837C192.337 131.837 192.09 131.438 192.09 130.792C192.09 130.146 192.337 129.739 192.856 129.739C193.374 129.739 193.63 130.146 193.63 130.792C193.63 131.438 193.383 131.837 192.856 131.837ZM192.856 128.932C191.786 128.932 191.148 129.587 191.148 130.776C191.148 131.965 191.786 132.619 192.856 132.619C193.925 132.619 194.564 131.965 194.564 130.776C194.564 129.587 193.925 128.932 192.856 128.932Z" fill="white"/>
<path d="M191.683 128.183C191.683 128.502 191.898 128.661 192.153 128.661C192.433 128.661 192.648 128.502 192.648 128.183C192.648 127.847 192.433 127.696 192.153 127.696C191.898 127.696 191.683 127.847 191.683 128.183Z" fill="white"/>
<path d="M196.538 128.183C196.538 127.847 196.323 127.696 196.043 127.696C195.788 127.696 195.573 127.847 195.573 128.183C195.573 128.502 195.788 128.661 196.043 128.661C196.323 128.661 196.538 128.502 196.538 128.183Z" fill="white"/>
<path d="M196.748 131.837C196.23 131.837 195.982 131.438 195.982 130.792C195.982 130.146 196.23 129.739 196.748 129.739C197.267 129.739 197.522 130.146 197.522 130.792C197.522 131.438 197.275 131.837 196.748 131.837ZM196.748 128.932C195.679 128.932 195.04 129.587 195.04 130.776C195.04 131.965 195.679 132.619 196.748 132.619C197.817 132.619 198.456 131.965 198.456 130.776C198.456 129.587 197.817 128.932 196.748 128.932Z" fill="white"/>
<path d="M197.891 128.183C197.891 127.847 197.683 127.696 197.396 127.696C197.141 127.696 196.925 127.847 196.925 128.183C196.925 128.502 197.141 128.661 197.396 128.661C197.683 128.661 197.891 128.502 197.891 128.183Z" fill="white"/>
<path d="M200.611 131.782H200.053V131.111H200.611C200.875 131.111 201.034 131.215 201.034 131.438C201.034 131.71 200.875 131.782 200.611 131.782ZM200.053 129.771H200.484C200.755 129.771 200.907 129.858 200.907 130.122C200.907 130.369 200.747 130.457 200.5 130.457H200.053V129.771ZM201.17 130.744V130.72C201.553 130.616 201.8 130.337 201.8 129.898C201.8 129.34 201.417 129.005 200.707 129.005H199.151V132.548H200.691C201.561 132.548 201.952 132.165 201.952 131.582C201.952 131.167 201.697 130.824 201.17 130.744Z" fill="white"/>
<path d="M203.571 129.004H202.669V132.548H204.895V131.765H203.571V129.004Z" fill="white"/>
<path d="M206.962 131.837C206.435 131.837 206.188 131.438 206.188 130.792C206.188 130.146 206.443 129.739 206.962 129.739C207.473 129.739 207.728 130.146 207.728 130.792C207.728 131.438 207.48 131.837 206.962 131.837ZM206.962 128.932C205.893 128.932 205.254 129.587 205.254 130.776C205.254 131.965 205.893 132.619 206.962 132.619C208.031 132.619 208.669 131.965 208.669 130.776C208.669 129.587 208.031 128.932 206.962 128.932Z" fill="white"/>
<path d="M211.437 130.05C211.214 130.433 211.158 130.6 211.158 130.6H211.134C211.134 130.6 211.078 130.433 210.855 130.05L210.24 129.004H209.354V132.547H210.256V131.135C210.256 130.744 210.216 130.552 210.216 130.552H210.24C210.24 130.552 210.344 130.799 210.511 131.071L210.95 131.749H211.341L211.781 131.071C211.948 130.799 212.044 130.552 212.044 130.552H212.067C212.067 130.552 212.036 130.744 212.036 131.135V132.547H212.938V129.004H212.044L211.437 130.05Z" fill="white"/>
<path d="M215.812 130.545C215.964 130.545 216.116 130.625 216.14 130.824L216.77 130.656C216.714 130.186 216.323 130.018 215.796 130.018C215.35 130.018 214.895 130.201 214.895 130.776C214.895 131.183 215.102 131.423 215.732 131.614C216.02 131.702 216.107 131.765 216.107 131.909C216.107 132.053 215.98 132.116 215.82 132.116C215.597 132.116 215.421 131.957 215.373 131.734L214.799 132.005C214.943 132.444 215.285 132.595 215.765 132.595C216.315 132.595 216.762 132.404 216.762 131.845C216.762 131.366 216.514 131.19 215.948 131.015C215.676 130.944 215.565 130.872 215.565 130.728C215.565 130.592 215.676 130.545 215.812 130.545Z" fill="white"/>
<path d="M218.336 132.037C217.945 132.037 217.753 131.774 217.753 131.318C217.753 130.856 217.969 130.577 218.319 130.577C218.583 130.577 218.687 130.728 218.751 130.96L219.365 130.656C219.189 130.257 218.862 130.018 218.336 130.018C217.554 130.018 217.107 130.48 217.107 131.302C217.107 132.124 217.578 132.595 218.256 132.595C218.83 132.595 219.117 132.404 219.349 132.013L218.798 131.693C218.711 131.925 218.535 132.037 218.336 132.037Z" fill="white"/>
<path d="M109.315 129.994L110.041 129.914V132.547H110.943V129.004L109.315 129.204V129.994Z" fill="white"/>
<path d="M113.028 130.552C112.764 130.552 112.588 130.385 112.588 130.097C112.588 129.834 112.764 129.651 113.028 129.651C113.275 129.651 113.459 129.834 113.459 130.097C113.459 130.385 113.275 130.552 113.028 130.552ZM113.028 128.932C112.23 128.932 111.743 129.387 111.743 130.146C111.743 130.791 112.15 131.262 112.82 131.262C113.235 131.262 113.522 131.039 113.618 130.624H113.642C113.642 131.43 113.387 131.909 112.804 131.909C112.525 131.909 112.326 131.757 112.214 131.502L111.632 131.996C111.815 132.387 112.262 132.619 112.789 132.619C113.794 132.619 114.432 132.028 114.432 130.648C114.432 129.491 113.945 128.932 113.028 128.932Z" fill="white"/>
<path d="M116.299 131.965C116.004 131.965 115.821 131.773 115.821 131.518C115.821 131.223 116.068 131.087 116.299 131.087C116.538 131.087 116.786 131.223 116.786 131.518C116.786 131.773 116.603 131.965 116.299 131.965ZM116.299 129.579C116.57 129.579 116.722 129.77 116.722 129.994C116.722 130.289 116.507 130.417 116.299 130.417C116.1 130.417 115.884 130.289 115.884 129.994C115.884 129.77 116.028 129.579 116.299 129.579ZM116.962 130.752V130.728C117.441 130.632 117.576 130.273 117.576 129.906C117.576 129.356 117.121 128.932 116.299 128.932C115.486 128.932 115.03 129.356 115.03 129.906C115.03 130.273 115.166 130.632 115.637 130.728V130.752C115.206 130.848 114.943 131.183 114.943 131.646C114.943 132.188 115.366 132.619 116.299 132.619C117.241 132.619 117.664 132.188 117.664 131.646C117.664 131.183 117.393 130.848 116.962 130.752Z" fill="white"/>
<path d="M119.746 130.536V131.127H119.212C118.989 131.127 118.837 131.159 118.837 131.159V131.135C118.837 131.135 119.02 131.015 119.18 130.799L119.555 130.313C119.666 130.169 119.754 130.002 119.754 130.002H119.778C119.778 130.002 119.746 130.297 119.746 130.536ZM120.632 129.004H119.818L118.023 131.19V131.781H119.746V132.547H120.632V131.781H121.222V131.127H120.632V129.004Z" fill="white"/>
</svg>
