<svg width="181" height="283" viewBox="0 0 181 283" fill="none" xmlns="http://www.w3.org/2000/svg">
<path d="M181.004 12.8538C181.004 12.9194 181.004 12.985 180.983 13.0285C181.004 13.0727 181.004 13.1162 181.004 13.1818C181.004 13.6407 180.611 14.0342 180.152 14.0342C176.829 14.0342 174.118 16.5699 174.118 19.696C174.118 22.8221 176.829 25.3798 180.152 25.3798C180.611 25.3798 181.004 25.7514 181.004 26.2327V35.9165C181.004 36.0259 180.983 36.1571 180.939 36.2445C180.829 36.5943 180.502 36.8128 180.152 36.8128C176.829 36.8128 174.118 39.3706 174.118 42.4963C174.118 45.6227 176.829 48.1805 180.152 48.1805C180.611 48.1805 181.004 48.552 181.004 49.033V60.2253C181.004 60.6845 180.611 61.0778 180.152 61.0778C176.829 61.0778 174.118 63.6138 174.118 66.7616C174.118 69.8877 176.829 72.4234 180.152 72.4234C180.611 72.4234 181.004 72.817 181.004 73.2758V84.4906C181.004 84.9495 180.611 85.3431 180.152 85.3431C176.829 85.3431 174.118 87.8787 174.118 91.0269C174.118 94.1527 176.829 96.6887 180.152 96.6887C180.611 96.6887 181.004 97.0819 181.004 97.5411V108.734C181.004 109.214 180.611 109.586 180.152 109.586C176.829 109.586 174.118 112.144 174.118 115.27C174.118 118.396 176.829 120.954 180.152 120.954C180.611 120.954 181.004 121.325 181.004 121.806V132.999C181.004 133.48 180.611 133.851 180.152 133.851C176.829 133.851 174.118 136.409 174.118 139.535C174.118 142.661 176.829 145.197 180.152 145.197C180.611 145.197 181.004 145.59 181.004 146.049V157.264C181.004 157.723 180.611 158.116 180.152 158.116C176.829 158.116 174.118 160.652 174.118 163.8C174.118 166.926 176.829 169.462 180.152 169.462C180.611 169.462 181.004 169.855 181.004 170.315V181.507C181.004 181.988 180.611 182.36 180.152 182.36C176.829 182.36 174.118 184.917 174.118 188.043C174.118 191.191 176.829 193.727 180.152 193.727C180.611 193.727 181.004 194.099 181.004 194.58V205.772C181.004 206.253 180.611 206.625 180.152 206.625C176.829 206.625 174.118 209.182 174.118 212.308C174.118 215.435 176.829 217.992 180.152 217.992C180.611 217.992 181.004 218.364 181.004 218.845V231.108C181.004 231.589 180.611 231.961 180.152 231.961C179.912 231.961 179.693 231.852 179.54 231.699H179.518C176.479 232.005 174.118 234.431 174.118 237.36C174.118 240.486 176.829 243.044 180.152 243.044C180.611 243.044 181.004 243.416 181.004 243.897V256.226C181.004 256.707 180.611 257.079 180.152 257.079C176.829 257.079 174.118 259.636 174.118 262.762C174.118 265.888 176.829 268.446 180.152 268.446C180.611 268.446 181.004 268.818 181.004 269.298V281.562C181.004 282.021 180.611 282.414 180.152 282.414H166.598C166.336 282.414 166.096 282.306 165.943 282.109C165.768 281.912 165.702 281.65 165.746 281.409C165.79 281.19 165.812 280.972 165.812 280.709C165.812 277.584 163.101 275.048 159.778 275.048C156.477 275.048 153.766 277.584 153.766 280.709C153.766 280.972 153.788 281.19 153.832 281.409C153.876 281.65 153.81 281.912 153.635 282.109C153.482 282.306 153.242 282.414 152.98 282.414H139.185C138.945 282.414 138.705 282.306 138.53 282.109C138.377 281.912 138.311 281.65 138.355 281.409C138.398 281.19 138.42 280.972 138.42 280.709C138.42 277.584 135.71 275.048 132.387 275.048C129.064 275.048 126.375 277.584 126.375 280.709C126.375 280.972 126.397 281.19 126.419 281.409C126.463 281.65 126.397 281.912 126.244 282.109C126.069 282.306 125.851 282.414 125.588 282.414H111.795C111.532 282.414 111.292 282.306 111.139 282.109C110.964 281.912 110.898 281.65 110.942 281.409C110.986 281.19 111.007 280.972 111.007 280.709C111.007 277.584 108.297 275.048 104.974 275.048C101.673 275.048 98.9622 277.584 98.9622 280.709C98.9622 280.972 98.9843 281.19 99.0278 281.409C99.0717 281.693 98.9843 281.956 98.8096 282.131C98.6781 282.371 98.3942 282.546 98.088 282.546H84.2941C84.0317 282.546 83.7914 282.436 83.6381 282.24C83.4634 282.043 83.3977 281.803 83.4413 281.54C83.4851 281.344 83.5069 281.103 83.5069 280.841C83.5069 277.715 80.7965 275.179 77.4736 275.179C74.1507 275.179 71.4621 277.715 71.4621 280.841C71.4621 281.103 71.4838 281.322 71.5277 281.54C71.5712 281.803 71.5056 282.043 71.3309 282.24C71.1779 282.436 70.9373 282.546 70.6752 282.546L54.9574 282.414C54.695 282.414 54.4765 282.306 54.3014 282.109C54.1485 281.912 54.0829 281.65 54.1267 281.409C54.1705 281.19 54.1923 280.972 54.1923 280.709C54.1923 277.584 51.4816 275.048 48.1587 275.048C44.8361 275.048 42.1469 277.584 42.1469 280.709C42.1469 280.972 42.169 281.19 42.1907 281.409C42.2346 281.65 42.169 281.912 42.016 282.109C41.863 282.306 41.6227 282.414 41.36 282.414H26.5389C26.2768 282.414 26.0362 282.306 25.8829 282.109C25.7302 281.912 25.6426 281.65 25.7082 281.409C25.7302 281.19 25.7517 280.972 25.7517 280.709C25.7517 277.584 23.063 275.048 19.7402 275.048C16.4176 275.048 13.7286 277.584 13.7286 280.709C13.7286 280.972 13.7504 281.19 13.7721 281.409C13.8377 281.65 13.7504 281.912 13.5974 282.109C13.4445 282.306 13.2038 282.414 12.9418 282.414H0.852793C0.371833 282.414 0 282.021 0 281.562V269.298C0 268.818 0.371833 268.446 0.852793 268.446C4.17535 268.446 6.86463 265.888 6.86463 262.762C6.86463 259.636 4.17535 257.079 0.852793 257.079C0.371833 257.079 0 256.707 0 256.226V243.897C0 243.416 0.371833 243.044 0.852793 243.044C4.17535 243.044 6.86463 240.486 6.86463 237.36C6.86463 234.431 4.50367 232.005 1.46463 231.699C1.31199 231.852 1.09311 231.961 0.852793 231.961C0.371833 231.961 0 231.589 0 231.108V218.845C0 218.364 0.371833 217.992 0.852793 217.992C4.17535 217.992 6.86463 215.435 6.86463 212.308C6.86463 209.182 4.17535 206.625 0.852793 206.625C0.371833 206.625 0 206.253 0 205.772V194.58C0 194.099 0.371833 193.727 0.852793 193.727C4.17535 193.727 6.86463 191.191 6.86463 188.043C6.86463 184.917 4.17535 182.36 0.852793 182.36C0.371833 182.36 0 181.988 0 181.507V170.315C0 169.855 0.371833 169.462 0.852793 169.462C4.17535 169.462 6.86463 166.926 6.86463 163.8C6.86463 160.652 4.17535 158.116 0.852793 158.116C0.371833 158.116 0 157.723 0 157.264V146.049C0 145.59 0.371833 145.197 0.852793 145.197C4.17535 145.197 6.86463 142.661 6.86463 139.535C6.86463 136.409 4.17535 133.851 0.852793 133.851C0.371833 133.851 0 133.48 0 132.999V121.806C0 121.325 0.371833 120.954 0.852793 120.954C4.17535 120.954 6.86463 118.396 6.86463 115.27C6.86463 112.144 4.17535 109.586 0.852793 109.586C0.371833 109.586 0 109.214 0 108.734V97.5411C0 97.0819 0.371833 96.6887 0.852793 96.6887C4.17535 96.6887 6.86463 94.1527 6.86463 91.0269C6.86463 87.8787 4.17535 85.3431 0.852793 85.3431C0.371833 85.3431 0 84.9495 0 84.4906V73.2758C0 72.817 0.371833 72.4234 0.852793 72.4234C4.17535 72.4234 6.86463 69.8877 6.86463 66.7616C6.86463 63.6138 4.17535 61.0778 0.852793 61.0778C0.371833 61.0778 0 60.6845 0 60.2253V50.5194C0 50.0605 0.371833 49.6669 0.852793 49.6669C4.17535 49.6669 6.86463 47.1309 6.86463 44.0048C6.86463 40.857 4.17535 38.3213 0.852793 38.3213C0.480953 38.3213 0.175026 38.1027 0.0655859 37.753C0.0223859 37.6656 0 37.5562 0 37.425V26.2327C0 25.7514 0.371833 25.3798 0.852793 25.3798C4.17535 25.3798 6.86463 22.8221 6.86463 19.696C6.86463 16.5699 4.17535 14.0342 0.852793 14.0342C0.371833 14.0342 0 13.6407 0 13.1818C0 13.1162 1.57356e-07 13.0727 0.0441602 13.0285C1.57356e-07 12.985 0 12.9194 0 12.8538V0.983691C0 0.502731 0.371833 0.131211 0.852793 0.131211H14.4064C14.6685 0.131211 14.9091 0.240329 15.0621 0.437129C15.215 0.633929 15.2806 0.896001 15.2371 1.13664C15.215 1.3552 15.1933 1.57377 15.1933 1.83617C15.1933 4.96225 17.8819 7.49824 21.2048 7.49824C24.5277 7.49824 27.2381 4.96225 27.2381 1.83617C27.2381 1.57377 27.2166 1.3552 27.1725 1.13664C27.129 0.896001 27.1945 0.633929 27.3475 0.437129C27.5225 0.240329 27.7629 0.131211 28.0035 0.131211H41.7974C42.0598 0.131211 42.3002 0.240329 42.4531 0.437129C42.6282 0.633929 42.6934 0.896001 42.6502 1.13664C42.6064 1.3552 42.5846 1.57377 42.5846 1.83617C42.5846 4.96225 45.295 7.49824 48.6179 7.49824C51.9408 7.49824 54.6294 4.96225 54.6294 1.83617C54.6294 1.57377 54.6077 1.3552 54.5638 1.13664C54.52 0.896001 54.5856 0.633929 54.7606 0.437129C54.9136 0.240329 55.1542 0.131211 55.4163 0.131211H69.2106C69.4726 0.131211 69.7133 0.240329 69.8659 0.437129C70.0192 0.633929 70.1066 0.896001 70.041 1.13664C70.0192 1.3552 69.9974 1.57377 69.9974 1.83617C69.9974 4.96225 72.6861 7.49824 76.009 7.49824C79.3315 7.49824 82.0422 4.96225 82.0422 1.83617C82.0422 1.57377 82.0208 1.3552 81.977 1.13664C81.9331 0.852481 82.0208 0.568013 82.2173 0.393613C82.3485 0.152973 82.6109 0 82.9171 0H96.7107C96.9728 0 97.2134 0.109138 97.3667 0.305938C97.5414 0.480658 97.607 0.743049 97.5632 1.00545C97.5194 1.20225 97.4976 1.44256 97.4976 1.6832C97.4976 4.83104 100.208 7.36705 103.531 7.36705C106.832 7.36705 109.543 4.83104 109.543 1.6832C109.543 1.44256 109.521 1.20225 109.477 1.00545C109.434 0.743049 109.499 0.480658 109.674 0.305938C109.827 0.109138 110.09 0 110.33 0L124.539 0.131211C124.801 0.131211 125.042 0.240329 125.195 0.437129C125.348 0.633929 125.413 0.896001 125.37 1.13664C125.326 1.3552 125.326 1.57377 125.326 1.83617C125.326 4.96225 128.015 7.49824 131.338 7.49824C134.66 7.49824 137.349 4.96225 137.349 1.83617C137.349 1.57377 137.349 1.3552 137.306 1.13664C137.262 0.874241 137.328 0.633929 137.48 0.437129C137.655 0.240329 137.896 0.131211 138.136 0.131211H153.723C153.963 0.131211 154.204 0.240329 154.379 0.437129C154.532 0.633929 154.597 0.896001 154.554 1.13664C154.51 1.3552 154.488 1.57377 154.488 1.83617C154.488 4.96225 157.198 7.49824 160.5 7.49824C163.822 7.49824 166.533 4.96225 166.533 1.83617C166.533 1.57377 166.511 1.3552 166.467 1.13664C166.424 0.896001 166.489 0.633929 166.642 0.437129C166.817 0.240329 167.058 0.131211 167.298 0.131211H180.152C180.633 0.131211 181.004 0.502731 181.004 0.983691V12.8538Z" fill="#F4F2F1"/>
<path fill-rule="evenodd" clip-rule="evenodd" d="M75.8359 238.714C76.9724 238.714 78.1092 238.911 79.2236 239.327C80.3605 239.764 81.3664 240.375 82.2627 241.206C83.1373 242.036 83.8587 243.064 84.4053 244.333C84.9517 245.578 85.2354 247.043 85.2354 248.726C85.2353 250.387 84.9518 251.852 84.4053 253.098C83.8587 254.344 83.159 255.372 82.2627 256.203C81.3885 257.034 80.382 257.645 79.2451 258.083C78.109 258.498 76.9723 258.695 75.8359 258.695C74.6774 258.695 73.5405 258.498 72.4258 258.083C71.2889 257.645 70.283 257.034 69.3867 256.203C68.5122 255.372 67.7907 254.344 67.2441 253.098C66.6976 251.852 66.4356 250.387 66.4355 248.726C66.4355 247.043 66.6977 245.578 67.2441 244.333C67.7907 243.064 68.5119 242.036 69.4082 241.206C70.3045 240.375 71.311 239.764 72.4258 239.327C73.5406 238.911 74.6773 238.714 75.8359 238.714ZM75.8359 240.31C74.9393 240.31 74.1737 240.551 73.5615 241.032C72.9278 241.513 72.4254 242.146 72.0322 242.933C71.6169 243.72 71.3319 244.616 71.1572 245.622C70.9822 246.627 70.8955 247.677 70.8955 248.726C70.8955 249.775 70.9822 250.803 71.1572 251.787C71.3319 252.792 71.6169 253.688 72.0322 254.475C72.4255 255.262 72.9277 255.897 73.5615 256.377C74.1737 256.858 74.9393 257.099 75.8359 257.099C76.7321 257.099 77.4752 256.858 78.1094 256.377C78.7215 255.897 79.245 255.262 79.6172 254.475C80.0105 253.688 80.2954 252.792 80.4922 251.787C80.6669 250.803 80.7539 249.775 80.7539 248.726C80.7539 247.677 80.6669 246.627 80.4922 245.622C80.2954 244.616 80.0105 243.72 79.6172 242.933C79.2451 242.146 78.7213 241.513 78.1094 241.032C77.4752 240.551 76.7321 240.31 75.8359 240.31Z" fill="#F44E22"/>
<path fill-rule="evenodd" clip-rule="evenodd" d="M25.4023 238.714C26.1238 238.714 26.8013 238.801 27.3916 238.998C27.982 239.195 28.4848 239.457 28.9219 239.807C29.3371 240.135 29.6432 240.55 29.8838 240.987C30.1023 241.446 30.2119 241.949 30.2119 242.496C30.2119 243.501 29.8843 244.332 29.2285 245.009C28.5511 245.687 27.6103 246.364 26.3643 247.064C26.8891 247.611 27.501 248.311 28.2002 249.164C28.6594 249.71 29.1189 250.278 29.5781 250.825C30.0152 251.371 30.4748 251.918 30.9121 252.464C31.5456 251.415 32.136 250.366 32.6387 249.294C33.1635 248.202 33.6002 247.086 33.9717 245.906L31.458 245.534V244.245H37.9062V245.534L35.874 245.863C35.2837 247.262 34.6712 248.595 34.0156 249.884C33.3596 251.174 32.6168 252.398 31.7861 253.557C32.1576 254.016 32.5295 254.475 32.8789 254.934C33.2504 255.393 33.6005 255.896 33.9502 256.399L37.0762 257.011V258.257C36.4428 258.388 35.9178 258.454 35.459 258.498C34.9998 258.541 34.54 258.563 34.1025 258.563C33.5344 258.563 33.0533 258.519 32.6602 258.476C32.2668 258.41 31.9171 258.3 31.6113 258.125C31.3055 257.973 30.9986 257.732 30.7148 257.449C30.4086 257.142 30.0808 256.77 29.6875 256.311L29.5996 256.18C29.3158 256.53 28.988 256.836 28.6162 257.142C28.2665 257.448 27.8505 257.71 27.3916 257.951C26.9325 258.169 26.4083 258.366 25.8398 258.498C25.2498 258.629 24.5937 258.694 23.8721 258.694C22.9102 258.694 22.0574 258.563 21.3145 258.279C20.5709 257.995 19.9372 257.623 19.4346 257.142C18.9316 256.661 18.5602 256.092 18.2979 255.458C18.0359 254.824 17.9043 254.147 17.9043 253.426C17.9043 252.202 18.2763 251.131 19.0635 250.212C19.8503 249.273 21.0744 248.442 22.7354 247.699L22.626 247.545C22.2328 247.13 21.8833 246.715 21.5771 246.343C21.2495 245.994 20.9871 245.6 20.7686 245.228C20.5498 244.857 20.3751 244.463 20.2656 244.07C20.1344 243.654 20.0908 243.217 20.0908 242.736C20.0908 242.124 20.1992 241.577 20.4619 241.075C20.724 240.594 21.0747 240.157 21.5332 239.807C22.0145 239.457 22.5608 239.195 23.2168 238.998C23.8724 238.801 24.5939 238.714 25.4023 238.714ZM23.501 248.573C22.2987 249.535 21.6865 250.846 21.6865 252.464C21.6865 253.623 22.0144 254.584 22.6699 255.349C23.3258 256.092 24.2439 256.487 25.4238 256.487C26.1671 256.487 26.7795 256.355 27.2822 256.071C27.807 255.808 28.2666 255.459 28.6602 255.087C28.3322 254.65 28.004 254.235 27.6758 253.82C27.3699 253.426 27.0426 253.01 26.7363 252.638C26.0807 251.808 25.4681 251.065 24.9434 250.387C24.3968 249.709 23.916 249.098 23.501 248.573ZM25.3154 239.873C24.5719 239.873 24.0252 240.069 23.6758 240.462C23.3261 240.877 23.1514 241.358 23.1514 241.949C23.1514 242.386 23.2387 242.889 23.4355 243.414C23.6323 243.96 23.9382 244.485 24.375 244.988C24.5283 245.163 24.7255 245.359 24.9219 245.556C25.1407 245.775 25.4031 246.037 25.6875 246.343C26.2993 245.731 26.736 245.097 27.0205 244.485C27.3043 243.873 27.4355 243.238 27.4355 242.626C27.4355 241.839 27.2824 241.184 26.9766 240.66C26.6706 240.135 26.1023 239.873 25.3154 239.873Z" fill="#F44E22"/>
<path fill-rule="evenodd" clip-rule="evenodd" d="M158.925 240.309C157.657 240.549 156.563 240.942 155.667 241.467C154.749 242.014 153.984 242.648 153.372 243.347C152.738 244.047 152.257 244.79 151.907 245.599C151.558 246.386 151.316 247.173 151.186 247.959C152.278 247.107 153.547 246.67 155.012 246.67C156.87 246.67 158.269 247.173 159.23 248.201C160.171 249.206 160.63 250.605 160.63 252.375C160.63 253.425 160.477 254.343 160.127 255.13C159.777 255.917 159.318 256.573 158.706 257.098C158.116 257.623 157.394 258.016 156.585 258.3C155.754 258.562 154.881 258.694 153.919 258.694C152.848 258.694 151.886 258.519 151.033 258.125C150.181 257.754 149.459 257.207 148.847 256.507C148.235 255.808 147.776 254.955 147.47 253.95C147.142 252.922 146.967 251.786 146.967 250.518C146.967 249.228 147.228 247.916 147.731 246.583C148.212 245.271 148.956 244.069 149.962 242.976C150.946 241.905 152.17 240.986 153.656 240.265C155.121 239.544 156.804 239.107 158.75 238.998L158.925 240.309ZM153.809 248.572C153.35 248.572 152.891 248.66 152.432 248.856C151.995 249.031 151.535 249.293 151.055 249.643C151.076 252.266 151.383 254.191 151.951 255.415C152.52 256.639 153.263 257.229 154.181 257.229C154.924 257.229 155.536 256.879 155.995 256.136C156.454 255.393 156.694 254.277 156.694 252.813C156.694 251.283 156.454 250.19 155.93 249.556C155.427 248.9 154.727 248.572 153.809 248.572Z" fill="#F44E22"/>
<path d="M55.3086 240.593L52.9258 240.856L57.3848 252.638L61.583 241.009L58.7627 240.593V239.151H65.3643V240.593L63.2002 240.943L56.8604 258.562H55.3955L48.4219 240.812L46.6738 240.593V239.151H55.3086V240.593Z" fill="#F44E22"/>
<path d="M132.431 253.25C133.065 253.25 133.677 253.403 134.245 253.666C134.814 253.95 135.404 254.321 136.06 254.846C136.65 255.349 137.109 255.677 137.415 255.852C137.699 256.027 138.005 256.115 138.333 256.115C138.53 256.115 138.705 256.092 138.88 256.027C139.055 255.961 139.23 255.83 139.383 255.633C139.536 255.437 139.667 255.153 139.798 254.803C139.929 254.453 140.038 253.994 140.104 253.404L142.093 253.644C142.027 254.584 141.896 255.349 141.699 255.983C141.502 256.595 141.24 257.098 140.912 257.448C140.584 257.819 140.213 258.06 139.819 258.212C139.404 258.387 138.967 258.454 138.508 258.454C137.852 258.454 137.261 258.322 136.693 258.038C136.125 257.775 135.534 257.382 134.879 256.879C134.573 256.617 134.31 256.421 134.092 256.246C133.873 256.093 133.677 255.961 133.502 255.852C133.327 255.765 133.174 255.7 133.021 255.656C132.89 255.612 132.737 255.589 132.584 255.589C132.409 255.589 132.234 255.633 132.06 255.699C131.885 255.764 131.71 255.896 131.557 256.092C131.404 256.289 131.25 256.552 131.141 256.902C131.01 257.251 130.901 257.732 130.835 258.3L128.846 258.082C128.889 257.142 129.02 256.354 129.239 255.743C129.436 255.13 129.698 254.628 130.026 254.278C130.354 253.906 130.704 253.644 131.119 253.491C131.535 253.338 131.972 253.25 132.431 253.25Z" fill="#F44E22"/>
<path d="M104.953 244.508H102.768L102.199 240.749H98.3301C98.3083 241.973 98.2861 243.197 98.2861 244.443V252.859C98.2861 254.061 98.3083 255.285 98.3301 256.509L100.997 256.793V258.258H91.3125V256.793L93.958 256.509C94.0018 255.307 94.0234 254.105 94.0234 252.881V244.464C94.0234 243.24 94.0018 241.995 93.958 240.749H90.1104L89.5205 244.508H87.334L87.4873 239.153H104.822L104.953 244.508Z" fill="#F44E22"/>
<path d="M122.857 244.223H120.671L120.06 240.748H114.397C114.354 241.862 114.331 242.978 114.331 244.114V247.545H118.07L118.441 244.945H120.016V251.721H118.441L118.092 249.164H114.331V252.989C114.331 254.235 114.354 255.459 114.397 256.684H120.628L121.239 253.186H123.447L123.229 258.257H107.643V256.792L110.004 256.531C110.047 255.328 110.068 254.126 110.068 252.902V244.529C110.068 243.305 110.047 242.103 110.004 240.857L107.643 240.594V239.152H122.639L122.857 244.223Z" fill="#F44E22"/>
<path d="M131.534 240.158L130.507 240.267C130.507 240.726 130.485 241.163 130.485 241.623V244.049C130.485 244.53 130.529 244.924 130.616 245.251C130.703 245.579 130.813 245.82 130.966 246.017C131.119 246.192 131.294 246.323 131.512 246.41C131.949 246.563 132.627 246.563 133.064 246.41C133.283 246.323 133.479 246.192 133.61 246.017C133.764 245.82 133.896 245.579 133.961 245.251C134.049 244.924 134.092 244.53 134.092 244.049V240.29L132.999 240.158V239.13H136.409V240.158L135.272 240.29V244.049C135.272 244.771 135.184 245.383 135.01 245.886C134.835 246.388 134.594 246.826 134.267 247.131C133.96 247.459 133.567 247.678 133.13 247.832C132.693 247.962 132.234 248.028 131.731 248.028C131.228 248.028 130.747 247.962 130.31 247.832C129.872 247.678 129.501 247.459 129.195 247.175C128.868 246.891 128.627 246.497 128.452 246.06C128.299 245.601 128.211 245.055 128.211 244.443V241.623C128.211 241.185 128.189 240.727 128.189 240.29L127.162 240.158V239.13H131.534V240.158Z" fill="#F44E22"/>
<path d="M138.618 239.13C139.405 238.89 140.476 238.868 141.351 239.109C141.766 239.24 142.159 239.415 142.465 239.633L142.574 239.699L142.465 241.753H141.044L140.781 240.202C140.672 240.158 140.541 240.136 140.432 240.114C140.301 240.07 140.148 240.071 139.995 240.071C139.602 240.071 139.295 240.158 139.055 240.354C138.814 240.529 138.705 240.77 138.705 241.12C138.705 241.404 138.792 241.623 138.989 241.776C139.207 241.973 139.514 242.125 139.929 242.278L140.585 242.498C141.044 242.672 141.438 242.846 141.766 243.043C142.072 243.24 142.334 243.459 142.53 243.699C142.727 243.939 142.881 244.18 142.968 244.443C143.055 244.683 143.099 244.946 143.099 245.23C143.099 245.623 143.012 245.995 142.837 246.344C142.662 246.672 142.421 246.978 142.094 247.241C141.788 247.481 141.416 247.678 140.979 247.831C140.563 247.962 140.083 248.028 139.536 248.028C139.055 248.028 138.552 247.962 138.071 247.853C137.568 247.744 137.153 247.569 136.781 247.35L136.672 247.285L136.76 245.077H138.202L138.465 246.672C138.618 246.738 138.771 246.782 138.924 246.826C139.099 246.891 139.317 246.913 139.536 246.913C140.017 246.913 140.388 246.803 140.629 246.584C140.891 246.388 141.001 246.125 141.001 245.776C141.001 245.513 140.913 245.317 140.76 245.186C140.585 245.011 140.257 244.858 139.842 244.683L139.208 244.464C138.443 244.18 137.831 243.809 137.394 243.35C136.935 242.869 136.694 242.256 136.694 241.579C136.694 241.207 136.782 240.835 136.935 240.507C137.087 240.201 137.306 239.917 137.59 239.677C137.874 239.437 138.224 239.262 138.618 239.13Z" fill="#F44E22"/>
<path d="M160.806 241.621C161.09 241.621 161.352 241.665 161.593 241.73C161.833 241.818 162.03 241.904 162.205 242.036C162.38 242.167 162.511 242.32 162.62 242.495C162.707 242.691 162.773 242.889 162.773 243.085C162.686 243.413 162.489 243.588 162.161 243.588C161.964 243.588 161.789 243.522 161.658 243.391C161.505 243.26 161.44 243.042 161.418 242.736L161.396 242.189C161.33 242.167 161.286 242.167 161.243 242.145H161.068C160.871 242.145 160.697 242.189 160.521 242.276C160.347 242.364 160.193 242.495 160.062 242.648C159.931 242.822 159.844 243.042 159.757 243.282C159.691 243.544 159.648 243.828 159.647 244.156C159.647 244.834 159.8 245.337 160.084 245.665C160.368 245.97 160.718 246.146 161.155 246.146C161.44 246.146 161.68 246.08 161.877 245.949C162.074 245.818 162.248 245.621 162.401 245.359L162.751 245.555C162.62 246.014 162.38 246.364 161.986 246.605C161.615 246.823 161.156 246.955 160.653 246.955C160.26 246.955 159.909 246.889 159.604 246.78C159.297 246.649 159.035 246.496 158.816 246.255C158.598 246.037 158.444 245.753 158.313 245.424C158.204 245.097 158.139 244.724 158.139 244.309C158.139 243.894 158.204 243.522 158.357 243.172C158.488 242.845 158.685 242.561 158.926 242.342C159.166 242.102 159.451 241.927 159.778 241.795C160.107 241.686 160.434 241.621 160.806 241.621Z" fill="#F44E22"/>
<path d="M96.4482 212.591C97.497 212.591 98.5248 212.722 99.4648 212.985C100.405 213.247 101.214 213.618 101.936 214.099L101.717 218.1H99.334L98.7441 214.668C98.3506 214.515 97.9792 214.383 97.6074 214.318C97.236 214.23 96.8642 214.187 96.4707 214.187C95.4872 214.187 94.6781 214.449 94.0225 214.952C93.3447 215.455 93.0166 216.177 93.0166 217.117C93.0167 217.925 93.3002 218.581 93.8467 219.041C94.3932 219.499 95.1589 219.914 96.1426 220.264L97.6729 220.79C98.7222 221.161 99.5965 221.576 100.296 222.013C100.995 222.45 101.542 222.909 101.979 223.412C102.395 223.893 102.679 224.417 102.876 224.942C103.051 225.488 103.16 226.036 103.16 226.604C103.16 227.456 102.963 228.243 102.592 228.964C102.22 229.686 101.717 230.32 101.039 230.867C100.361 231.413 99.5528 231.828 98.6133 232.134C97.6732 232.44 96.6237 232.593 95.4434 232.593C94.3287 232.593 93.2352 232.463 92.1426 232.201C91.0495 231.938 90.1088 231.544 89.3223 231.063L89.4971 226.779H91.9229L92.4922 230.277C92.9509 230.495 93.4104 230.669 93.8691 230.779C94.3282 230.91 94.8528 230.976 95.4209 230.976C96.6449 230.976 97.5856 230.692 98.2852 230.124C98.9625 229.577 99.2909 228.812 99.291 227.894C99.291 227.151 99.0499 226.561 98.5908 226.145C98.1099 225.708 97.345 225.293 96.2959 224.899L94.8525 224.375C93.1255 223.763 91.792 222.931 90.8301 221.925C89.8467 220.898 89.3663 219.652 89.3662 218.188C89.3662 217.379 89.5404 216.635 89.8467 215.958C90.1747 215.258 90.6334 214.668 91.2676 214.187C91.8794 213.684 92.6013 213.291 93.4756 213.006C94.3497 212.722 95.3336 212.591 96.4482 212.591Z" fill="#F44E22"/>
<path d="M67.1982 212.589C68.1166 212.589 69.0569 212.699 69.9971 212.896C70.9369 213.093 71.899 213.464 72.9482 213.966L73.0576 218.098H70.7188L70.1943 214.864C69.2763 214.427 68.3574 214.186 67.3955 214.186C65.5156 214.186 64.0077 214.929 62.8926 216.394C61.7999 217.837 61.2315 219.913 61.2314 222.601C61.2314 223.913 61.4057 225.116 61.7119 226.143C62.0396 227.193 62.4769 228.067 63.0234 228.789C63.5917 229.51 64.248 230.056 65.0127 230.427C65.7559 230.799 66.5863 230.974 67.4824 230.974C68.051 230.974 68.5542 230.909 69.0352 230.778V229.64C69.0352 228.81 69.0348 228.001 69.0127 227.214C69.0127 226.406 68.9915 225.597 68.9697 224.788L66.8057 224.526V223.061H74.8721V224.526L73.2979 224.722C73.2761 225.553 73.2539 226.361 73.2539 227.17C73.2322 227.979 73.2324 228.788 73.2324 229.64V230.887C72.2049 231.455 71.1773 231.87 70.1719 232.155C69.1662 232.439 68.073 232.592 66.8926 232.592C65.3625 232.592 63.9634 232.33 62.7178 231.828C61.4714 231.324 60.422 230.624 59.5254 229.728C58.6513 228.854 57.9523 227.804 57.4932 226.581C57.0125 225.378 56.7715 224.044 56.7715 222.601C56.7715 221.159 57.0126 219.825 57.4932 218.601C57.9962 217.377 58.6738 216.328 59.5918 215.432C60.4881 214.558 61.5806 213.858 62.8701 213.355C64.1596 212.852 65.6029 212.589 67.1982 212.589Z" fill="#F44E22"/>
<path fill-rule="evenodd" clip-rule="evenodd" d="M26.8457 213.029C29.0534 213.029 30.7591 213.466 31.9834 214.319C33.1854 215.171 33.7979 216.352 33.7979 217.838C33.7978 218.319 33.7317 218.8 33.5791 219.281C33.4259 219.784 33.1853 220.264 32.8574 220.723C32.5077 221.182 32.0703 221.576 31.502 221.948C30.9555 222.297 30.2782 222.603 29.4473 222.8C30.387 223.084 31.1525 223.522 31.7646 224.156C32.3547 224.789 32.7701 225.643 32.9883 226.692L33.7754 230.429L36.2021 230.692V232.157C35.6117 232.266 35.0869 232.332 34.6494 232.375C34.1909 232.419 33.7757 232.441 33.3604 232.441C32.7924 232.441 32.2893 232.397 31.8301 232.332C31.3711 232.266 30.9776 232.157 30.6279 231.982C30.2785 231.807 29.9712 231.545 29.7529 231.239C29.5127 230.911 29.3384 230.495 29.251 229.993L28.4854 226.101C28.2885 225.161 27.9607 224.483 27.458 224.112C26.977 223.762 26.2552 223.565 25.2715 223.565H24.375V226.998C24.375 228.134 24.3969 229.271 24.4404 230.429L26.8457 230.692V232.157H17.752V230.692L20.1133 230.429C20.1568 229.227 20.1777 228.003 20.1777 226.8V218.407C20.1777 217.204 20.1568 215.979 20.1133 214.755L17.752 214.494V213.029H26.8457ZM24.4404 214.625C24.3969 215.849 24.375 217.051 24.375 218.275V221.97H25.665C26.3862 221.97 27.0205 221.86 27.5449 221.664C28.048 221.445 28.4851 221.182 28.791 220.833C29.1187 220.505 29.3597 220.09 29.4912 219.63C29.6438 219.15 29.709 218.668 29.709 218.144C29.7089 216.963 29.403 216.09 28.7471 215.521C28.1131 214.931 27.0861 214.625 25.665 214.625H24.4404Z" fill="#F44E22"/>
<path fill-rule="evenodd" clip-rule="evenodd" d="M153.09 213.029C155.297 213.029 157.003 213.466 158.205 214.319C159.429 215.171 160.042 216.352 160.042 217.838C160.042 218.319 159.976 218.8 159.823 219.281C159.67 219.784 159.429 220.264 159.08 220.723C158.752 221.182 158.293 221.576 157.746 221.948C157.2 222.297 156.5 222.604 155.691 222.8C156.631 223.084 157.397 223.522 157.987 224.156C158.599 224.789 159.014 225.643 159.211 226.692L160.02 230.429L162.425 230.692V232.157C161.856 232.266 161.332 232.332 160.895 232.375C160.435 232.419 160.02 232.441 159.604 232.441C159.036 232.441 158.533 232.397 158.074 232.332C157.616 232.266 157.2 232.157 156.851 231.982C156.501 231.807 156.216 231.545 155.976 231.239C155.757 230.911 155.582 230.495 155.495 229.993L154.729 226.101C154.533 225.161 154.183 224.483 153.702 224.112C153.221 223.762 152.477 223.565 151.516 223.565H150.62V226.998C150.62 228.134 150.62 229.271 150.664 230.429L153.09 230.692V232.157H143.996V230.692L146.357 230.429C146.379 229.227 146.401 228.003 146.401 226.8V218.407C146.401 217.204 146.379 215.979 146.357 214.755L143.996 214.494V213.029H153.09ZM150.664 214.625C150.62 215.849 150.62 217.051 150.62 218.275V221.97H151.888C152.631 221.97 153.265 221.86 153.768 221.664C154.292 221.445 154.708 221.182 155.036 220.833C155.364 220.505 155.582 220.089 155.735 219.63C155.888 219.15 155.954 218.668 155.954 218.144C155.954 216.964 155.626 216.09 154.992 215.521C154.358 214.931 153.309 214.625 151.888 214.625H150.664Z" fill="#F44E22"/>
<path d="M53.7129 218.099H51.5273L50.915 214.624H45.2529C45.2091 215.738 45.1875 216.853 45.1875 217.99V221.444H48.9258L49.2969 218.842H50.8711V225.597H49.2969L48.9473 223.04H45.1875V226.887C45.1875 228.111 45.2091 229.336 45.2529 230.56H51.4834L52.0947 227.062H54.2812L54.085 232.156H38.498V230.691L40.8594 230.428C40.9029 229.226 40.9248 228.002 40.9248 226.799V218.405C40.9248 217.203 40.9029 215.978 40.8594 214.754L38.498 214.493V213.028H53.4941L53.7129 218.099Z" fill="#F44E22"/>
<path d="M122.681 218.406H120.494L119.904 214.624H116.057C116.013 215.87 115.991 217.094 115.991 218.318V226.756C115.991 227.959 116.013 229.161 116.057 230.385L118.702 230.692V232.156H109.018V230.692L111.663 230.385C111.707 229.183 111.729 227.981 111.729 226.756V218.362C111.729 217.116 111.707 215.87 111.663 214.624H107.815L107.247 218.406H105.039L105.192 213.028H122.527L122.681 218.406Z" fill="#F44E22"/>
<path d="M140.564 218.099H138.378L137.766 214.624H132.104C132.061 215.738 132.039 216.853 132.039 217.99V221.444H135.776L136.17 218.842H137.744V225.597H136.17L135.82 223.04H132.039V226.887C132.039 228.111 132.061 229.336 132.104 230.56H138.356L138.968 227.062H141.154L140.958 232.156H125.371V230.691L127.732 230.428C127.776 229.226 127.798 228.002 127.798 226.799V218.405C127.798 217.203 127.776 215.978 127.732 214.754L125.371 214.493V213.028H140.367L140.564 218.099Z" fill="#F44E22"/>
<path d="M86.1963 214.492L83.835 214.754C83.7914 215.957 83.7695 217.159 83.7695 218.383V226.755C83.7695 227.98 83.7914 229.204 83.835 230.428L86.1963 230.691V232.155H77.0801V230.691L79.4414 230.428C79.4849 229.226 79.5068 228.002 79.5068 226.799V218.405C79.5068 217.203 79.4849 215.978 79.4414 214.754L77.0801 214.492V213.027H86.1963V214.492Z" fill="#F44E22"/>
<path d="M92.127 152.333C92.5886 152.245 93.0369 152.553 93.123 153.016C93.2078 153.476 92.9076 153.917 92.4512 154.008C92.3526 154.031 90.6497 154.467 90.1582 157.415C90.089 157.832 89.7271 158.127 89.3174 158.127C89.2708 158.127 89.224 158.124 89.1768 158.116C88.7118 158.038 88.3972 157.599 88.4746 157.134C89.1748 152.933 91.9998 152.357 92.127 152.333Z" fill="#F44E22"/>
<path d="M89.0371 151.895C89.5088 151.895 89.8906 152.277 89.8906 152.749C89.8906 153.22 89.5088 153.602 89.0371 153.602C88.1431 153.602 86.9716 154.46 86.6318 154.762C86.4693 154.905 86.2679 154.976 86.0664 154.976C85.8307 154.976 85.5967 154.879 85.4277 154.689C85.1151 154.336 85.1481 153.797 85.5 153.484C85.6846 153.322 87.3432 151.895 89.0371 151.895Z" fill="#F44E22"/>
<path d="M78.2754 126.205C83.0138 125.704 87.8951 128.478 91.1279 130.308C92.0224 130.814 92.7947 131.251 93.3945 131.526C95.5391 132.509 101.847 131.642 104.098 131.224C104.56 131.134 105.006 131.445 105.093 131.908C105.179 132.371 104.873 132.817 104.41 132.903C103.815 133.013 100.06 133.684 96.7529 133.684C95.1576 133.684 93.6659 133.528 92.6826 133.078C92.0168 132.773 91.2156 132.318 90.2871 131.792C87.2433 130.069 82.6313 127.469 78.4521 127.901C75.5238 128.206 74.6337 128.314 74.3662 128.351L74.3682 128.38C73.4024 128.455 73.2522 127.865 73.2305 127.611C73.1863 127.114 73.1686 126.899 74.1064 126.708V126.686L74.2461 126.678V126.682C74.976 126.548 76.2101 126.42 78.2754 126.205Z" fill="#F44E22"/>
<path d="M51.9473 108.957C52.6221 108.957 53.1699 109.504 53.1699 110.179C53.1698 110.854 52.622 111.402 51.9473 111.402C51.272 111.402 50.7248 110.854 50.7246 110.179C50.7246 109.504 51.2719 108.957 51.9473 108.957Z" fill="#F44E22"/>
<path d="M106.18 61.2983C106.634 61.1758 107.103 61.4469 107.225 61.9019C107.346 62.3574 107.076 62.8242 106.621 62.9458C106.494 62.98 93.8134 66.4098 85.2646 71.5864C74.082 78.3595 78.0299 87.4912 78.2051 87.8784C78.398 88.3083 78.2071 88.8129 77.7783 89.0073C77.6641 89.0579 77.5442 89.0825 77.4277 89.0825C77.1021 89.0825 76.7912 88.8962 76.6484 88.5806C76.6004 88.4721 71.9196 77.6737 84.3809 70.1265C93.1396 64.8225 105.651 61.4391 106.18 61.2983Z" fill="#F44E22"/>
<path fill-rule="evenodd" clip-rule="evenodd" d="M142.73 18.0854C143.202 18.0856 143.583 18.4665 143.583 18.938V53.0571C143.897 53.0963 144.201 53.1373 144.495 53.1812C144.957 53.2503 145.279 53.6787 145.215 54.1421C145.058 55.2742 144.558 56.9063 143.583 58.3159V192.87L144.737 194.585C144.967 194.927 144.92 195.384 144.626 195.672C144.461 195.832 144.246 195.916 144.029 195.916C143.875 195.916 143.721 195.871 143.583 195.786V205.112C143.583 205.583 143.202 205.965 142.73 205.965C142.258 205.965 141.877 205.583 141.877 205.112V194.583L137.401 191.417C137.017 191.145 136.925 190.612 137.197 190.228C137.47 189.843 138.003 189.752 138.387 190.024L140.724 191.678L133.875 181.499L115.903 181.109C115.432 181.098 115.058 180.707 115.068 180.237C115.078 179.772 115.459 179.402 115.922 179.402H115.94L134.327 179.801C134.336 179.801 134.345 179.801 134.354 179.801C134.901 179.793 135.405 179.401 135.484 178.84C135.529 178.521 135.438 178.209 135.229 177.963C135.021 177.717 134.728 177.578 134.405 177.57L124.103 177.322L119.402 177.294C119.105 177.293 118.827 177.135 118.675 176.878C118.521 176.622 118.514 176.304 118.654 176.04L119.529 174.394C119.75 173.979 120.266 173.819 120.683 174.042C121.099 174.262 121.257 174.779 121.035 175.196L120.823 175.596L124.128 175.615L133.258 175.834L138.556 166.416L136.372 167.577C135.955 167.8 135.439 167.639 135.218 167.224C134.997 166.808 135.155 166.292 135.571 166.071L137.325 165.137V61.2603C136.593 61.3052 135.625 61.3692 134.479 61.4595V163.711C134.854 163.583 135.28 163.731 135.489 164.084C135.729 164.491 135.595 165.014 135.189 165.253L130.805 167.845C130.669 167.926 130.519 167.964 130.372 167.964C130.081 167.964 129.796 167.814 129.637 167.545C129.397 167.14 129.531 166.617 129.937 166.377L132.773 164.7V65.5737C132.113 66.4676 131.196 67.2599 129.927 67.6772V163.576L130.093 163.486C130.507 163.262 131.025 163.415 131.249 163.829C131.474 164.243 131.319 164.761 130.905 164.986L124.787 168.305C124.748 168.326 124.708 168.342 124.668 168.357L123.937 169.735C123.783 170.023 123.488 170.187 123.183 170.187C123.048 170.187 122.911 170.155 122.783 170.087C122.367 169.867 122.209 169.349 122.431 168.933L123.838 166.285L119.818 168.555C119.771 168.582 119.721 168.602 119.671 168.619L115.16 176.784C115.005 177.065 114.714 177.224 114.413 177.224C114.274 177.224 114.132 177.19 114.002 177.118C113.59 176.89 113.439 176.371 113.667 175.958L118.867 166.546L116.506 167.974C116.1 168.218 115.578 168.087 115.335 167.686C115.091 167.283 115.22 166.758 115.623 166.514L119.117 164.4V159.969C118.252 160.164 117.166 160.233 116.271 160.251V163.365C116.391 163.433 116.495 163.531 116.572 163.656C116.821 164.056 116.698 164.582 116.297 164.831L113.64 166.476C113.623 166.578 113.589 166.679 113.534 166.772L107.855 176.356C107.616 176.762 107.094 176.897 106.687 176.656C106.281 176.416 106.147 175.893 106.387 175.487L111.735 166.461L110.306 164.977L99.1709 176.936C99.0094 177.109 98.7832 177.207 98.5469 177.208H98.5205L56.9121 175.938C56.8753 175.937 56.8391 175.932 56.8037 175.926C56.2753 176.375 55.7784 176.743 55.3545 177.034C55.3603 177.038 55.3678 177.041 55.373 177.046C55.9412 177.331 56.466 177.658 56.9248 177.986C57.0327 178.051 57.1193 178.116 57.2051 178.202L98.915 179.038C99.1504 179.043 99.3749 179.145 99.5322 179.321L112.273 193.53L113.925 193.637L114.498 192.191L108.212 181.508C107.974 181.103 108.108 180.579 108.515 180.339C108.921 180.1 109.444 180.237 109.683 180.643L115.354 190.281C115.495 190.286 115.636 190.327 115.765 190.406L120.788 193.473C121.19 193.719 121.317 194.243 121.071 194.646C121.006 194.753 120.92 194.839 120.823 194.905V205.112C120.823 205.583 120.442 205.965 119.97 205.965C119.498 205.965 119.117 205.583 119.117 205.112V194.452L116.152 192.642L116.132 192.695L116.264 192.742H116.271V205.112C116.271 205.583 115.89 205.965 115.418 205.965C114.946 205.965 114.564 205.583 114.564 205.112V195.376C114.54 195.379 114.515 195.382 114.489 195.382C114.471 195.382 114.452 195.381 114.434 195.38L111.816 195.21C111.784 195.208 111.752 195.203 111.72 195.197V205.112C111.72 205.583 111.338 205.965 110.866 205.965C110.395 205.965 110.013 205.583 110.013 205.112V193.563L107.168 190.391V205.112C107.168 205.583 106.786 205.965 106.314 205.965C105.843 205.965 105.462 205.583 105.462 205.112V188.489L102.616 185.316V205.112C102.616 205.583 102.234 205.965 101.763 205.965C101.291 205.965 100.909 205.583 100.909 205.112V183.412L98.5098 180.737L98.0645 180.727V205.112C98.0645 205.583 97.6826 205.965 97.2109 205.965C96.7393 205.965 96.3574 205.583 96.3574 205.112V180.693L93.5117 180.636V205.112C93.5117 205.583 93.1308 205.965 92.6592 205.965C92.1875 205.965 91.8057 205.583 91.8057 205.112V180.602L88.9609 180.544V205.112C88.9609 205.583 88.579 205.965 88.1074 205.965C87.6357 205.965 87.2539 205.583 87.2539 205.112V185.876C87.0073 185.927 86.7599 185.972 86.5117 186.012V193.422C86.5116 193.733 86.3422 194.019 86.0693 194.169C86.0649 194.172 86.0601 194.174 86.0557 194.176V205.191C86.0556 205.662 85.6746 206.043 85.2031 206.043C84.7315 206.043 84.3497 205.663 84.3496 205.191V194.752C84.1139 194.787 83.8777 194.808 83.6416 194.808C83.3541 194.808 83.0673 194.78 82.7832 194.728V205.038C82.7832 205.509 82.4013 205.891 81.9297 205.891C81.458 205.891 81.0762 205.509 81.0762 205.038V194.056C80.8977 193.896 80.7911 193.668 80.791 193.422V186.034C80.4779 185.986 80.166 185.929 79.8555 185.865V205.112C79.8555 205.583 79.4745 205.965 79.0029 205.965C78.5312 205.965 78.1494 205.583 78.1494 205.112V180.329L75.3037 180.271V205.112C75.3037 205.583 74.9227 205.965 74.4512 205.965C73.9795 205.965 73.5977 205.583 73.5977 205.112V180.237L70.752 180.18V205.112C70.752 205.583 70.3709 205.965 69.8994 205.965C69.4277 205.965 69.0459 205.583 69.0459 205.112V180.146L66.2002 180.088V205.112C66.2002 205.583 65.8184 205.965 65.3467 205.965C64.8752 205.965 64.4941 205.583 64.4941 205.112V180.054L59.083 179.946C59.0852 179.948 59.0877 179.951 59.0898 179.954C59.3521 180.259 59.592 180.566 59.7891 180.872C60.7289 182.205 61.2317 183.605 61.4941 184.938C61.8028 186.465 61.7726 187.895 61.6475 188.978V205.113C61.6473 205.583 61.2667 205.967 60.793 205.967C60.3229 205.967 59.9426 205.583 59.9424 205.113V191.377C59.8884 191.335 59.8367 191.287 59.7891 191.234L59.7676 191.211C58.9229 190.099 58.0378 189.045 57.0967 188.067V205.112C57.0967 205.583 56.7152 205.965 56.2432 205.965C55.7716 205.965 55.3906 205.583 55.3906 205.112V186.399C55.3337 186.349 55.278 186.298 55.2207 186.25C54.3357 185.405 53.4485 184.66 52.5449 183.973V205.112C52.5449 205.583 52.1631 205.965 51.6914 205.965C51.2196 205.965 50.8379 205.583 50.8379 205.112V182.731C50.7827 182.694 50.728 182.657 50.6729 182.621C49.7676 181.983 48.8621 181.404 47.9932 180.901V205.113C47.993 205.583 47.6121 205.967 47.1387 205.967C46.6685 205.967 46.2883 205.583 46.2881 205.113V179.93C46.2338 179.901 46.1798 179.872 46.126 179.844C45.1804 179.33 44.2732 178.894 43.4414 178.516V205.112C43.4414 205.583 43.0596 205.965 42.5879 205.965C42.1163 205.965 41.7344 205.583 41.7344 205.112V177.767C41.6822 177.745 41.6304 177.723 41.5791 177.702C40.4179 177.221 39.4761 176.889 38.8896 176.702V205.112C38.8896 205.583 38.5078 205.965 38.0361 205.965C37.5645 205.965 37.1826 205.583 37.1826 205.112V100.324C36.195 99.7018 35.2319 99.0905 34.3379 98.5132V205.112C34.3379 205.583 33.956 205.965 33.4844 205.965C33.0127 205.965 32.6309 205.583 32.6309 205.112V97.3979C31.3601 96.5544 30.3491 95.8483 29.7852 95.3882V205.112C29.7852 205.583 29.4042 205.965 28.9326 205.965C28.4609 205.965 28.0791 205.583 28.0791 205.112V93.8325C27.1024 92.8549 26.091 91.6871 25.2334 90.4302V205.112C25.2334 205.583 24.8516 205.965 24.3799 205.965C23.9079 205.965 23.5264 205.583 23.5264 205.112V87.1646C22.9666 85.5621 22.8557 83.9508 23.5264 82.4995V18.938C23.5265 18.4664 23.908 18.0855 24.3799 18.0854C24.8515 18.0854 25.2333 18.4664 25.2334 18.938V79.5415C25.683 79.1213 26.2572 78.7151 26.9883 78.3442C27.3564 78.1575 27.7209 77.9854 28.0791 77.8228V18.938C28.0792 18.4664 28.461 18.0854 28.9326 18.0854C29.4041 18.0856 29.785 18.4665 29.7852 18.938V77.1187C30.7831 76.7486 31.7335 76.468 32.6309 76.2603V18.938C32.631 18.4664 33.0128 18.0854 33.4844 18.0854C33.9559 18.0855 34.3378 18.4664 34.3379 18.938V75.938C35.384 75.7853 36.3365 75.7294 37.1826 75.7339V18.938C37.1827 18.4664 37.5645 18.0855 38.0361 18.0854C38.5077 18.0855 38.8895 18.4664 38.8896 18.938V75.8276C40.5301 76.0052 41.4928 76.3722 41.5898 76.4106C41.6412 76.431 41.6892 76.4569 41.7344 76.4858V18.938C41.7345 18.4665 42.1164 18.0855 42.5879 18.0854C43.0595 18.0854 43.4413 18.4664 43.4414 18.938V87.6772C44.3268 87.6761 45.3733 87.8924 46.2881 88.5435V18.939C46.2884 18.4657 46.6686 18.0856 47.1387 18.0854C47.6121 18.0855 47.9929 18.4656 47.9932 18.939V90.5444C49.0988 90.3448 50.047 90.4919 50.8379 90.8296V18.938C50.838 18.4665 51.2197 18.0857 51.6914 18.0854C52.163 18.0854 52.5448 18.4664 52.5449 18.938V92.0376C52.8802 92.3927 53.1475 92.7699 53.3496 93.1245C54.134 93.1511 54.8122 93.357 55.3906 93.6558V18.938C55.3907 18.4665 55.7716 18.0856 56.2432 18.0854C56.7151 18.0855 57.0966 18.4664 57.0967 18.938V95.0337C57.3613 95.3414 57.5701 95.6379 57.7236 95.8833C58.5118 95.8024 59.2606 95.9671 59.9424 96.2612V18.9399C59.9424 18.4663 60.3235 18.0854 60.7939 18.0854C61.2677 18.0856 61.6484 18.4665 61.6484 18.9399V97.3257C62.6057 98.1091 63.255 98.9618 63.4297 99.2017C63.818 99.263 64.1718 99.3712 64.4941 99.5151V18.938C64.4943 18.4665 64.8753 18.0857 65.3467 18.0854C65.8183 18.0855 66.2001 18.4664 66.2002 18.938V100.846C66.8226 101.601 67.1723 102.419 67.334 102.868C67.5258 102.953 67.7108 103.05 67.8867 103.163C68.4067 103.495 68.7795 103.902 69.0459 104.289V18.938C69.046 18.4664 69.4278 18.0854 69.8994 18.0854C70.3708 18.0857 70.7518 18.4665 70.752 18.938V106.668C71.4928 107.543 71.9158 108.547 72.0801 109.258C72.089 109.297 72.0932 109.336 72.0967 109.375C72.6295 109.36 72.9803 109.276 73.1191 109.104C73.2495 108.941 73.4115 108.706 73.5977 108.415V90.5034C72.1742 86.9691 71.3885 82.7834 73.0068 78.3979C73.1786 77.9323 73.3756 77.4714 73.5977 77.0151V18.938C73.5978 18.4664 73.9796 18.0854 74.4512 18.0854C74.9226 18.0856 75.3036 18.4665 75.3037 18.938V74.2358C76.1021 73.1662 77.0523 72.1274 78.1494 71.1157V18.938C78.1495 18.4664 78.5313 18.0854 79.0029 18.0854C79.4744 18.0856 79.8554 18.4665 79.8555 18.938V69.6587C80.7307 68.9659 81.6798 68.2886 82.7021 67.6255V18.938C82.7023 18.4665 83.0832 18.0856 83.5547 18.0854C84.0266 18.0855 84.4081 18.4664 84.4082 18.938V66.5718C85.3079 66.043 86.2566 65.5246 87.2539 65.0161V18.938C87.254 18.4664 87.6358 18.0854 88.1074 18.0854C88.5789 18.0856 88.9608 18.4665 88.9609 18.938V64.1772C89.8725 63.7463 90.8211 63.3241 91.8057 62.9087V18.938C91.8058 18.4664 92.1876 18.0854 92.6592 18.0854C93.1307 18.0856 93.5116 18.4665 93.5117 18.938V62.2104C94.4313 61.846 95.3795 61.4861 96.3574 61.1343V18.938C96.3575 18.4664 96.7393 18.0854 97.2109 18.0854C97.6825 18.0855 98.0643 18.4664 98.0645 18.938V60.5386C98.3504 60.4412 98.6381 60.3429 98.9287 60.2466C99.5963 60.0251 100.257 59.8107 100.909 59.6011V18.938C100.909 18.4664 101.291 18.0855 101.763 18.0854C102.234 18.0855 102.616 18.4664 102.616 18.938V59.061C103.582 58.7596 104.53 58.4696 105.462 58.1938V18.938C105.462 18.4665 105.843 18.0855 106.314 18.0854C106.786 18.0855 107.168 18.4664 107.168 18.938V57.6978C108.135 57.4213 109.083 57.1599 110.013 56.9106V18.938C110.013 18.4665 110.395 18.0856 110.866 18.0854C111.338 18.0854 111.72 18.4664 111.72 18.938V56.4624C112.689 56.2133 113.637 55.9785 114.564 55.7583V18.938C114.565 18.4665 114.946 18.0857 115.418 18.0854C115.89 18.0854 116.271 18.4664 116.271 18.938V55.3638C117.244 55.1451 118.192 54.9431 119.117 54.7554V18.938C119.117 18.4665 119.498 18.0856 119.97 18.0854C120.442 18.0855 120.823 18.4664 120.823 18.938V54.4214C121.799 54.2371 122.747 54.0686 123.669 53.9175V18.938C123.669 18.4665 124.05 18.0856 124.521 18.0854C124.993 18.0855 125.375 18.4664 125.375 18.938V53.6528C126.355 53.5079 127.303 53.3809 128.221 53.272V18.938C128.221 18.4664 128.602 18.0855 129.073 18.0854C129.545 18.0855 129.927 18.4664 129.927 18.938V53.0854C130.914 52.9868 131.863 52.9077 132.773 52.8481V18.938C132.774 18.4664 133.155 18.0854 133.627 18.0854C134.098 18.0857 134.479 18.4666 134.479 18.938V52.7554C135.477 52.713 136.425 52.6937 137.325 52.6938V18.938C137.325 18.4664 137.707 18.0855 138.179 18.0854C138.65 18.0856 139.031 18.4665 139.031 18.938V52.7192C140.047 52.7488 140.994 52.8033 141.877 52.8784V18.938C141.877 18.4664 142.259 18.0855 142.73 18.0854ZM84.8057 186.208C84.3986 186.235 83.9908 186.25 83.583 186.25C83.2209 186.25 82.8587 186.238 82.4971 186.216V192.884C83.2529 193.179 84.0482 193.179 84.8057 192.884V186.208ZM141.877 60.0815C141.092 60.6423 140.152 61.0378 139.031 61.1548V164.23L140.327 163.541C140.661 163.363 141.072 163.426 141.338 163.697C141.602 163.968 141.657 164.382 141.472 164.712L139.031 169.052V186.104L141.877 190.333V60.0815ZM42.4541 176.194C42.7159 176.303 43.0003 176.434 43.2842 176.565C44.1584 176.936 45.1206 177.374 46.126 177.899C46.6725 178.183 47.2413 178.489 47.8311 178.817C48.7494 179.32 49.711 179.888 50.6729 180.522C51.2193 180.894 51.7883 181.287 52.3779 181.68C53.3184 182.38 54.2809 183.123 55.2207 183.932C55.7893 184.413 56.3566 184.938 56.9248 185.485C57.9088 186.403 58.871 187.43 59.7891 188.523C59.8325 188.567 59.8763 188.632 59.9414 188.676C59.9415 188.698 59.9646 188.72 59.9863 188.742C60.0081 188.523 60.03 188.304 60.0518 188.085V187.976C60.0956 187.102 60.0511 186.052 59.7891 184.959C59.4175 183.364 58.5862 181.659 56.9248 180.172C56.4442 179.713 55.8762 179.297 55.2207 178.904C54.8927 178.707 54.5642 178.511 54.1924 178.336C53.6023 178.052 53.0121 177.789 52.3779 177.592C51.8317 177.374 51.2414 177.199 50.6729 177.068C49.7331 176.806 48.7711 176.631 47.8311 176.5C47.2413 176.412 46.6725 176.346 46.126 176.325C45.1206 176.237 44.1584 176.194 43.2842 176.194H42.4541ZM79.873 184.125C82.2482 184.67 84.7294 184.684 87.1113 184.166V180.507L79.873 180.362V184.125ZM135.142 175.968C135.678 176.119 136.164 176.427 136.531 176.86C137.051 177.473 137.286 178.282 137.174 179.08C137.044 179.997 136.48 180.756 135.711 181.169L137.325 183.568V172.086L135.142 175.968ZM59.4609 169.768C57.2193 172.526 53.9712 174.628 52.1299 175.688C52.1325 175.689 52.135 175.69 52.1377 175.691C52.225 175.713 52.291 175.756 52.3779 175.778C52.7683 175.908 53.1367 176.039 53.5049 176.19C54.4574 175.664 57.7808 173.613 59.4609 169.768ZM98.0645 160.36C98.8707 160.675 99.4424 161.481 99.4424 162.4C99.4423 163.339 98.8705 164.125 98.0645 164.439V175.486L98.1855 175.49L100.909 172.564V158.369C100.446 158.191 100.136 158.063 100.098 158.046C99.8627 157.947 99.6849 157.747 99.6123 157.502L98.0645 152.263V160.36ZM96.3574 168.795C95.6412 170.271 94.6765 171.611 93.5117 172.764V175.346L96.3574 175.433V168.795ZM91.8057 174.213C91.2876 174.59 90.743 174.935 90.1738 175.245L91.8057 175.294V174.213ZM71.1123 164.608C71.9257 168.796 75.6381 173.001 80.2861 174.86C80.3453 174.884 80.4006 174.913 80.4512 174.948L85.7842 175.111C85.8541 175.071 85.9312 175.04 86.0137 175.021C91.2042 173.804 95.0816 169.68 95.918 164.608H71.1123ZM59.8184 165.862C56.7445 167.952 50.5194 171.967 44.5469 174.51C45.045 174.532 45.5855 174.554 46.126 174.598C46.6725 174.642 47.2413 174.707 47.8311 174.794C48.4432 174.86 49.0771 174.968 49.7324 175.099C49.8014 175.025 49.885 174.961 49.9814 174.914C50.087 174.862 57.9943 170.926 59.8184 165.862ZM75.3037 174.792L76.5811 174.83C76.1416 174.54 75.7147 174.232 75.3037 173.907V174.792ZM70.752 174.652L73.5977 174.739V172.372C72.4503 171.201 71.4817 169.898 70.752 168.531V174.652ZM38.8896 174.662C39.8013 174.439 40.7556 174.142 41.7344 173.787V120.134C41.6959 120.103 41.6598 120.069 41.627 120.031C41.6127 120.014 41.599 119.998 41.5859 119.98C41.5847 119.978 41.5832 119.977 41.582 119.975C41.4259 119.76 37.8086 114.704 40.5059 110.478C40.8512 109.937 41.2618 109.495 41.7344 109.155V103.156C40.8115 102.587 39.8508 101.991 38.8896 101.392V174.662ZM66.2002 174.513L69.0459 174.6V164.512C68.9895 164.495 68.934 164.477 68.8818 164.455C68.051 164.148 67.461 163.34 67.4609 162.4C67.4609 161.46 68.0508 160.65 68.8818 160.344C68.9339 160.322 68.9888 160.303 69.0459 160.286V140.583C68.1459 139.793 67.3998 138.914 66.9922 137.918C66.5948 136.947 66.4385 135.47 66.2734 133.907C66.2501 133.685 66.2252 133.459 66.2002 133.233V174.513ZM61.6484 163.063C61.9088 163.198 62.0844 163.456 62.1084 163.75C62.491 168.488 60.5635 171.962 58.4941 174.278L64.4941 174.461V129.257C64.1817 128.999 63.8418 128.732 63.5176 128.477C62.8951 127.987 62.245 127.472 61.6484 126.937V163.063ZM46.2881 119.009C45.3592 119.296 44.3859 119.619 43.4414 119.956V173.12C44.3831 172.728 45.3371 172.295 46.2881 171.834V119.009ZM50.8379 117.903C50.216 117.955 49.1968 118.178 47.9932 118.508V170.978C48.9594 170.477 49.9137 169.959 50.8379 169.436V117.903ZM102.616 170.731L105.462 167.674V160.351C105.438 160.347 105.422 160.345 105.415 160.344C105.129 160.293 104.888 160.1 104.776 159.832L104.624 159.464C104 159.368 103.289 159.177 102.616 158.966V170.731ZM52.5449 168.448C53.5542 167.851 54.5102 167.261 55.3906 166.707V120.147C54.6016 119.666 53.6624 119.131 52.5449 118.539V168.448ZM110.013 160.419C109.402 160.531 108.752 160.572 108.141 160.572C107.801 160.572 107.472 160.559 107.168 160.541V165.842L109.671 163.155C109.766 163.052 109.883 162.976 110.013 162.931V160.419ZM143.346 54.7456C135.704 53.7958 122.061 54.37 99.4648 61.8657C85.4473 66.5153 77.0839 72.2771 74.6074 78.9888C72.1562 85.6345 75.8771 91.7912 78.3398 95.8657C78.7055 96.4703 79.0373 97.0201 79.3105 97.5083C83.1886 104.45 73.6931 115.407 73.2861 115.872C73.1172 116.064 72.8809 116.163 72.6445 116.163C72.4445 116.163 72.2436 116.092 72.082 115.951C71.7281 115.64 71.6919 115.101 72.0029 114.747C72.086 114.652 77.8693 107.973 78.4883 102.29C77.2702 105.643 75.2071 109.226 74.4521 110.17C73.9651 110.777 73.1407 111.054 71.792 111.054C69.3984 111.055 65.35 110.181 58.5996 108.723L56.625 108.297C50.4606 106.972 48.1186 107.733 47.2734 108.307C47.0596 108.452 46.9274 108.594 46.8457 108.71C48.2767 109.164 49.3463 109.85 49.4219 109.9C49.8155 110.156 49.9274 110.685 49.6709 111.079C49.4152 111.473 48.8867 111.586 48.4912 111.331C48.4653 111.313 45.842 109.642 43.7432 110.098C42.9852 110.263 42.3968 110.687 41.9443 111.396C41.8352 111.567 41.7412 111.742 41.6592 111.917C42.619 111.219 43.9422 110.757 45.6797 110.977C46.1471 111.037 46.4781 111.464 46.4189 111.931C46.3596 112.398 45.9373 112.724 45.4648 112.669C42.358 112.278 41.4554 114.756 41.3613 115.041C41.3527 115.067 41.34 115.092 41.3291 115.117C41.508 116.12 41.8838 117.042 42.2314 117.731C42.8465 116.643 43.7769 115.152 44.7295 114.2C46.6421 112.286 49.5659 113.481 49.6895 113.533C50.124 113.715 50.3279 114.215 50.1455 114.649C49.9641 115.082 49.4661 115.286 49.0312 115.108C48.9979 115.094 47.0311 114.31 45.9355 115.406C45.288 116.053 44.6304 117.036 44.1045 117.912C47.1939 116.856 50.9791 115.789 52.167 116.415L52.5898 116.634C56.3516 118.579 60.7206 121.11 61.1094 123.444C61.2943 124.553 63.1896 126.046 64.5732 127.136C65.8385 128.132 66.8376 128.919 67.2139 129.714C67.642 130.618 67.8021 132.129 67.9707 133.728C68.1156 135.103 68.2661 136.525 68.5723 137.272C69.3351 139.137 72.1082 140.776 74.1328 141.972C75.3194 142.673 76.2569 143.226 76.7676 143.769C77.853 144.923 77.8428 147.686 77.708 149.451C78.0855 149.284 78.4717 149.132 78.8672 148.997C78.9237 145.302 79.313 141.141 80.6455 139.259C79.0093 138.223 77.6712 136.979 77.4551 134.823C77.0919 131.167 78.2167 129.777 78.3457 129.631C78.6584 129.279 79.1966 129.246 79.5498 129.557C79.8971 129.864 79.9343 130.389 79.6396 130.743C79.5996 130.798 78.8734 131.845 79.1523 134.653C79.3135 136.257 80.3751 137.157 82.4033 138.322C82.5014 138.357 82.5913 138.409 82.6699 138.475L83.1152 138.727C84.0301 139.24 84.9761 139.769 85.873 140.433C88.8975 142.686 91.1558 146.461 91.2529 146.625C91.2573 146.632 91.2605 146.64 91.2646 146.648C91.2698 146.657 91.2745 146.667 91.2793 146.676C91.3011 146.719 91.3181 146.763 91.332 146.808C91.3346 146.817 91.3375 146.825 91.3398 146.833C91.3607 146.909 91.3704 146.986 91.3701 147.062C91.3701 147.066 91.3712 147.07 91.3711 147.075L91.2998 151.209C91.2916 151.675 90.912 152.047 90.4473 152.047H90.4316C90.0668 152.041 89.7595 151.806 89.6436 151.481C89.5573 151.466 89.4715 151.437 89.3896 151.394C87.5617 150.426 85.5804 149.935 83.502 149.935C82.2937 149.935 81.0993 150.105 79.9512 150.441C75.3697 151.786 71.9973 155.556 71.1396 160.192H95.8711C95.6121 158.802 95.1219 157.474 94.4062 156.234C94.3669 156.166 94.3383 156.095 94.3193 156.022C94.2477 155.886 94.2123 155.728 94.2246 155.563C94.4273 152.787 92.5518 152.266 92.5107 152.255C92.1175 152.156 91.848 151.794 91.8662 151.389L92.3018 141.791C92.3233 141.319 92.7451 140.961 93.1924 140.977C93.6633 140.999 94.0283 141.396 94.0068 141.867L93.5986 150.861C94.7057 151.435 96.0567 152.838 95.9375 155.477C96.0861 155.739 96.2264 156.004 96.3574 156.273V146.486L96.1035 145.626C95.9701 145.175 96.2282 144.7 96.6807 144.567C97.1346 144.432 97.6068 144.692 97.7402 145.143L101.132 156.625C101.69 156.847 102.795 157.264 103.828 157.544L100.72 150.047C100.539 149.612 100.746 149.114 101.182 148.933C101.616 148.754 102.115 148.959 102.296 149.394L106.168 158.731C106.814 158.815 108.045 158.936 109.172 158.82L106.424 152.894C106.225 152.467 106.411 151.959 106.839 151.76C107.269 151.561 107.775 151.749 107.973 152.175L110.522 157.676C110.956 157.697 111.849 157.731 112.729 157.706L107.559 149.925C107.298 149.533 107.405 149.004 107.797 148.743C108.189 148.481 108.719 148.589 108.98 148.981L115.339 158.548C116.468 158.566 117.588 158.498 118.354 158.386L113.888 152.683C113.597 152.312 113.662 151.776 114.034 151.486C114.405 151.195 114.941 151.261 115.231 151.631L119.759 157.414C120.198 157.437 120.756 157.295 121.243 157.128L110.944 144.461L111.204 146.277C111.242 146.545 111.15 146.815 110.957 147.005C110.796 147.163 110.581 147.25 110.358 147.25C110.314 147.25 110.27 147.247 110.225 147.24L106.471 146.643C106.247 146.608 106.047 146.484 105.914 146.301L104.319 144.105L103.587 145.893C103.453 146.221 103.135 146.423 102.798 146.423C102.71 146.423 102.62 146.41 102.533 146.381L99.3389 145.341C99.0842 145.258 98.8827 145.059 98.7959 144.805L96.8213 139.026C96.6692 138.58 96.9074 138.095 97.3525 137.943C97.7986 137.793 98.2841 138.028 98.4365 138.474L100.272 143.85L102.309 144.513L103.179 142.391L100.625 138.084C100.385 137.68 100.518 137.157 100.924 136.916C101.325 136.675 101.852 136.808 102.094 137.214L104.938 142.01C104.96 142.048 104.976 142.087 104.992 142.126L107.088 145.013L109.351 145.374L108.875 142.042C108.868 141.997 108.866 141.951 108.867 141.906L103.126 134.845C102.829 134.479 102.885 133.942 103.251 133.644C103.617 133.349 104.154 133.404 104.451 133.768L123.288 156.938C123.449 157.138 123.513 157.401 123.46 157.652C123.406 157.904 123.242 158.118 123.014 158.236C122.868 158.31 121.898 158.791 120.823 159.012V163.38C121.135 163.247 121.501 163.307 121.751 163.547C122.029 163.815 122.094 164.237 121.906 164.575L121.23 165.796L123.669 164.419V157.008C123.657 156.993 123.644 156.979 123.633 156.962C114.732 143.918 100.165 124.59 99.3604 123.523C99.2526 123.496 99.1492 123.45 99.0586 123.382C98.9981 123.337 92.9767 118.9 84.0459 116.744C83.5877 116.634 83.3063 116.172 83.417 115.714C83.5277 115.256 83.9955 114.975 84.4453 115.085C92.724 117.083 98.4612 120.872 99.793 121.809C102.227 121.447 102.958 120.394 103.172 119.877C100.858 117.264 93.9214 114.648 91.3467 113.833C90.8974 113.691 90.6477 113.211 90.79 112.762C90.9328 112.314 91.4098 112.063 91.8613 112.207C92.2181 112.319 99.3916 114.614 103.191 117.591C105.01 116.89 105.55 115.71 105.709 115.044L100.217 112.482C99.7905 112.283 99.6057 111.775 99.8047 111.348C100.005 110.922 100.512 110.738 100.938 110.936L105.564 113.093C108.194 111.44 108.978 109.758 109.209 108.956C103.493 106.196 94.3915 106.706 94.2783 106.713C93.8113 106.731 93.4046 106.384 93.375 105.914C93.3468 105.443 93.7044 105.039 94.1748 105.01C94.5544 104.987 102.689 104.528 108.746 106.896C108.761 106.874 108.777 106.852 108.795 106.831C110.257 105.061 109.825 104.079 109.806 104.038C109.613 103.623 109.773 103.112 110.18 102.902C110.315 102.832 110.459 102.802 110.6 102.805C110.598 102.596 110.579 102.388 110.558 102.22C110.366 102.233 110.165 102.24 109.955 102.24C109.256 102.24 108.452 102.178 107.536 102.105C105.655 101.957 103.075 101.757 99.5986 101.874C99.133 101.923 98.7346 101.522 98.7178 101.051C98.7008 100.58 99.0692 100.185 99.54 100.169C103.116 100.045 105.749 100.253 107.671 100.404C110.575 100.63 111.286 100.616 111.604 99.9487C112.243 98.6075 110.806 97.7241 110.641 97.6284C110.412 97.495 110.255 97.2619 110.221 96.9995C110.187 96.7372 110.274 96.4721 110.461 96.2847C112.637 94.1075 111.009 92.0244 110.816 91.7935C110.621 91.5592 110.561 91.2345 110.666 90.9478C111.874 87.6457 109.842 86.8293 109.753 86.7954C109.472 86.6898 109.269 86.4439 109.216 86.1489C109.163 85.8539 109.268 85.5534 109.494 85.356C110.917 84.1115 111.238 82.0749 111.301 80.9243C107.077 82.0743 103.978 82.9759 103.944 82.9858C103.864 83.0092 103.783 83.02 103.705 83.02C103.335 83.02 102.994 82.7782 102.886 82.4058C102.754 81.9533 103.013 81.479 103.466 81.3472C103.503 81.3363 107.266 80.2407 112.154 78.9233C115.904 77.9134 116.909 75.3726 117.178 74.1235C112.17 75.1333 107.243 76.7106 107.19 76.728C107.104 76.7552 107.016 76.7681 106.93 76.7681C106.569 76.7681 106.234 76.5379 106.117 76.1753C105.973 75.7275 106.22 75.2474 106.669 75.103C106.725 75.0848 112.43 73.2598 117.865 72.2534C121.297 71.6181 122.541 69.6536 122.974 68.5815C118.389 69.0724 111.502 70.1732 101.177 73.9927C101.079 74.0295 100.979 74.0464 100.881 74.0464C100.534 74.0464 100.208 73.8337 100.081 73.4888C99.9166 73.0472 100.142 72.5566 100.585 72.3931C113.213 67.7205 120.799 67.0443 125.332 66.6401C127.093 66.4833 128.364 66.3703 129.294 66.0913C131.596 65.4009 132.392 62.793 132.639 61.6147C125.753 62.2294 114.757 63.6122 108.115 66.4956C107.682 66.6847 107.179 66.4849 106.992 66.0532C106.804 65.6211 107.002 65.1189 107.435 64.9312C117.143 60.7163 135.085 59.6509 138.585 59.48C140.486 59.3872 141.674 58.2425 142.408 57.0151C140.061 56.8685 133.433 56.6508 125.407 58.1362C125.355 58.1462 125.302 58.1499 125.251 58.1499C124.848 58.1498 124.489 57.8631 124.413 57.4517C124.328 56.9885 124.633 56.5437 125.097 56.4575C134.295 54.7536 141.528 55.2152 143.163 55.354C143.236 55.134 143.297 54.9289 143.346 54.7456ZM128.221 68.0513C127.444 68.1637 126.549 68.2455 125.484 68.3403C125.448 68.3436 125.412 68.3468 125.375 68.3501V163.457L125.543 163.362C125.872 163.176 126.285 163.227 126.559 163.494C126.83 163.758 126.894 164.17 126.716 164.505L126.108 165.647L128.221 164.501V68.0513ZM57.0967 165.615C58.3221 164.815 59.3049 164.144 59.9424 163.701V125.016C59.6829 124.596 59.5003 124.166 59.4268 123.724C59.3585 123.315 58.9037 122.551 57.0967 121.263V165.615ZM113.819 159.347C113.255 159.402 112.626 159.423 112.05 159.423C111.938 159.423 111.827 159.42 111.72 159.418V163.986L112.729 165.035L114.564 163.897V160.186C114.403 160.123 114.262 160.012 114.163 159.864L113.819 159.347ZM69.6689 161.897C69.3845 161.897 69.166 162.116 69.166 162.4C69.1661 162.684 69.3845 162.903 69.6689 162.903H70.0947C70.1067 162.902 70.1189 162.901 70.1309 162.901H96.8848C96.8965 162.901 96.9082 162.902 96.9199 162.903H97.2354C97.5189 162.903 97.7372 162.684 97.7373 162.4C97.7373 162.138 97.519 161.897 97.2354 161.897H96.9814C96.9413 161.903 96.9005 161.907 96.8594 161.907H70.1514C70.1105 161.907 70.0702 161.903 70.0303 161.897H69.6689ZM70.752 156.052C71.478 154.613 72.4398 153.31 73.5977 152.199V143.638C73.4881 143.573 73.3774 143.507 73.2656 143.441C72.461 142.966 71.5902 142.45 70.752 141.882V156.052ZM123.669 70.7974C123.062 71.6076 122.16 72.4488 120.823 73.0894V149.937C121.804 151.325 122.758 152.689 123.669 154.005V70.7974ZM75.3037 150.801C75.4968 150.666 75.6942 150.537 75.8945 150.412C76.1778 148.224 76.1217 145.574 75.5244 144.939C75.4669 144.878 75.3915 144.812 75.3037 144.742V150.801ZM88.9609 149.312C89.1833 149.403 89.4028 149.501 89.6201 149.603L89.6602 147.301C89.5263 147.088 89.2885 146.714 88.9609 146.249V149.312ZM84.4082 148.271C85.3689 148.333 86.3242 148.489 87.2539 148.738V144.072C86.5475 143.268 85.7317 142.456 84.8564 141.803C84.7099 141.695 84.5599 141.59 84.4082 141.488V148.271ZM82.0957 140.11C81.3852 140.857 80.7017 143.937 80.583 148.529C81.2805 148.386 81.9896 148.297 82.7021 148.26V140.452C82.5615 140.372 82.4209 140.293 82.2812 140.214L82.0957 140.11ZM118.955 73.7563C118.859 74.6119 118.404 76.924 116.271 78.7222V143.567C117.225 144.887 118.178 146.215 119.117 147.532V73.7153C119.064 73.7298 119.01 73.7425 118.955 73.7563ZM114.564 79.8335C114.1 80.0641 113.588 80.2712 113.021 80.4468C113.022 81.4205 112.879 83.5614 111.72 85.356V86.2026C112.504 87.0784 113.193 88.6073 112.42 91.0894C113.241 92.315 113.926 94.5653 112.303 96.7583C113.179 97.588 113.956 98.981 113.146 100.682C112.815 101.377 112.344 101.782 111.72 102.003V137.307C112.649 138.576 113.602 139.883 114.564 141.208V79.8335ZM110.013 111.208C109.463 112.063 108.61 113.032 107.286 113.991C107.403 114.133 107.473 114.31 107.48 114.5C107.483 114.561 107.497 115.229 107.168 116.077V131.132C108.061 132.338 109.017 133.63 110.013 134.983V111.208ZM105.462 118.288C105.193 118.489 104.889 118.68 104.545 118.857C104.632 118.959 104.715 119.062 104.792 119.166C104.915 119.331 104.975 119.536 104.958 119.743C104.95 119.84 104.777 121.591 102.616 122.712V125.019C103.384 126.044 104.351 127.338 105.462 128.832V118.288ZM40.2627 77.7974C38.5603 77.3932 33.8764 76.7639 27.7598 79.8657C26.1875 80.6638 25.4239 81.6463 25.4258 82.8687C25.4314 86.6888 32.5107 92.2864 37.6182 94.8579C44.1083 98.1244 55.6362 105.87 56.127 106.199C56.2488 106.281 56.3427 106.389 56.4062 106.51C56.5962 106.549 56.7889 106.587 56.9834 106.628L58.96 107.054C63.6486 108.067 67.7232 108.946 70.2959 109.257C69.9917 108.417 69.0538 106.517 66.7832 106.517C66.3116 106.517 65.9298 106.136 65.9297 105.665C65.9297 105.193 66.3115 104.811 66.7832 104.811C66.9508 104.811 67.1138 104.82 67.2725 104.833C67.1759 104.747 67.0678 104.663 66.9453 104.586C66.1687 104.102 65.0704 104.025 63.6816 104.359C63.2248 104.467 62.7632 104.187 62.6523 103.728C62.5423 103.27 62.8251 102.809 63.2832 102.699C63.9866 102.53 64.6447 102.448 65.2549 102.45C64.8084 101.722 64.0561 100.921 62.8809 100.854C60.2744 100.7 56.665 101.842 56.6113 101.859C56.1621 102.002 55.6815 101.754 55.5381 101.305C55.3957 100.857 55.6435 100.376 56.0928 100.233C56.2227 100.192 58.687 99.4137 61.1748 99.1938C60.2371 98.265 58.8332 97.2829 57.5068 97.6548C57.5024 97.6561 57.4976 97.6565 57.4932 97.6577C57.4717 97.6634 57.4503 97.6684 57.4287 97.6724C57.4206 97.6739 57.4124 97.675 57.4043 97.6763C57.385 97.6792 57.3659 97.6815 57.3467 97.6831C57.0781 97.7069 56.8161 97.5992 56.6396 97.4019C56.635 97.3967 56.6305 97.3915 56.626 97.3862C56.5739 97.325 56.5297 97.2562 56.4961 97.1802C56.4459 97.0687 55.3465 94.6476 52.8906 94.8384C52.8763 94.8395 52.8619 94.839 52.8477 94.8394C52.8409 94.8395 52.8339 94.8403 52.8271 94.8403L52.8213 94.8394C52.7404 94.839 52.6619 94.8275 52.5869 94.8052C52.5837 94.8042 52.5804 94.8032 52.5771 94.8022C52.5406 94.7909 52.5051 94.7773 52.4707 94.7612C52.4654 94.7588 52.4603 94.756 52.4551 94.7534C52.4264 94.7394 52.3989 94.7236 52.3721 94.7065C52.3647 94.7019 52.3569 94.6978 52.3496 94.6929C52.3225 94.6744 52.2963 94.6547 52.2715 94.6333C52.2551 94.6192 52.24 94.6038 52.2246 94.5884C52.2157 94.5794 52.2068 94.5704 52.1982 94.561C52.183 94.5444 52.1683 94.5273 52.1543 94.5093C52.1369 94.4869 52.1197 94.4641 52.1045 94.4399C52.0978 94.4292 52.0922 94.4178 52.0859 94.4067C52.0709 94.3802 52.0571 94.3529 52.0449 94.3247C52.0431 94.3204 52.0399 94.3163 52.0381 94.312C51.911 94.0107 50.6918 91.3827 47.626 92.395C47.6223 92.3962 47.6179 92.3968 47.6143 92.3979C47.61 92.3993 47.6059 92.4015 47.6016 92.4028C47.5956 92.4046 47.589 92.4041 47.583 92.4058C47.5533 92.4139 47.5239 92.4204 47.4941 92.4253C47.486 92.4266 47.4779 92.4281 47.4697 92.4292C47.4331 92.4341 47.3967 92.4369 47.3604 92.437L47.3574 92.438L47.3516 92.437C47.2625 92.4365 47.1755 92.422 47.0928 92.395C47.0905 92.3943 47.0882 92.3938 47.0859 92.3931C46.9636 92.3521 46.8523 92.2838 46.7598 92.1929C46.7529 92.1861 46.7459 92.1794 46.7393 92.1724C46.682 92.1122 46.633 92.0434 46.5947 91.9663C46.5931 91.9631 46.5914 91.9598 46.5898 91.9565C46.574 91.9236 46.5596 91.8896 46.5479 91.854C46.5462 91.8489 46.5445 91.8435 46.543 91.8384C46.542 91.8354 46.5409 91.8326 46.54 91.8296C45.6572 88.8741 43.0104 89.3949 42.709 89.4634C42.281 89.5622 41.8446 89.3257 41.7041 88.9038C41.7025 88.9022 41.4314 88.2713 40.2646 87.8931C39.5512 87.6631 38.0615 88.8853 37.2588 89.855C37.0902 90.0589 36.8465 90.1635 36.6016 90.1636C36.41 90.1636 36.2176 90.1006 36.0586 89.9692C35.6951 89.6694 35.6435 89.1313 35.9434 88.7681C36.1884 88.4719 37.0034 87.5324 38.0371 86.8657C38.0462 86.8429 38.0562 86.8197 38.0674 86.7974C38.2527 86.4258 38.0488 85.4499 37.8115 84.7896C37.7068 84.7823 37.6042 84.777 37.5059 84.7681C37.078 84.7297 36.6751 84.6946 36.3262 84.8159C36.2327 84.8492 36.1364 84.8647 36.043 84.8647C35.6905 84.8647 35.3619 84.6455 35.2383 84.2944C35.0818 83.8503 35.3159 83.3624 35.7607 83.2065C36.4618 82.9599 37.1261 83.0205 37.6602 83.0688C37.989 83.0973 38.3628 83.1327 38.4629 83.0454C39.0753 82.513 38.9686 82.0174 38.9404 81.9233C38.8938 81.7648 38.8951 81.6016 38.9355 81.4507C33.9206 81.51 31.3889 82.8459 31.1963 85.5298C31.1633 85.9998 30.7462 86.3547 30.2842 86.3198C29.8147 86.2865 29.4606 85.8778 29.4951 85.4077C29.7634 81.6535 33.05 79.7469 39.2627 79.7417H39.3984C39.4425 79.7417 39.4838 79.7417 39.5195 79.7407C39.7326 79.473 40.0337 78.6743 40.2627 77.7974ZM43.4414 108.418C44.0012 108.304 44.5715 108.291 45.127 108.345C45.2556 107.982 45.5336 107.483 46.1387 107.021C46.427 106.801 46.7591 106.611 47.1348 106.454C46.2255 105.903 44.9274 105.116 43.4414 104.207V108.418ZM25.334 87.1118C26.406 89.6815 28.8312 92.3848 30.8291 94.0386C33.5649 96.3022 49.2039 105.712 49.3623 105.806C49.4138 105.837 49.4605 105.873 49.5029 105.913C50.4214 105.827 51.4699 105.838 52.6465 105.943C48.7976 103.419 41.4334 98.6886 36.8516 96.3823C33.7022 94.7969 28.0881 91.0548 25.334 87.1118ZM75.3037 105.333C76.515 102.892 77.708 99.9194 77.7148 98.1567C77.4719 97.7309 77.188 97.2588 76.8789 96.7476C76.3958 95.9482 75.8503 95.0429 75.3037 94.0493V105.333ZM41.7344 78.9058C41.3857 80.0495 40.9581 80.8073 40.4551 81.1772C40.4936 81.2338 40.5273 81.2951 40.5518 81.3628C40.77 81.9634 40.8118 83.266 39.583 84.3345C39.5515 84.3619 39.5185 84.3862 39.4863 84.4106C39.629 84.8401 39.8074 85.4993 39.8359 86.1704C40.1539 86.141 40.4743 86.1674 40.79 86.27C41.1525 86.3873 41.4651 86.5269 41.7344 86.6763V78.9058Z" fill="#F44E22"/>
<path d="M19.8281 18.0854C20.2997 18.0855 20.6815 18.4664 20.6816 18.938V205.112C20.6816 205.583 20.2998 205.965 19.8281 205.965C19.3564 205.965 18.9746 205.583 18.9746 205.112V18.938C18.9747 18.4664 19.3565 18.0855 19.8281 18.0854Z" fill="#F44E22"/>
<path d="M119.604 186.047C120.001 185.796 120.529 185.912 120.781 186.31L123.122 189.993C123.23 189.999 123.338 190.026 123.441 190.076L129.851 193.175C130.275 193.38 130.452 193.891 130.247 194.315C130.173 194.467 130.061 194.587 129.927 194.669V205.112C129.927 205.583 129.545 205.965 129.073 205.965C128.602 205.965 128.221 205.583 128.221 205.112V194.282L124.797 192.626L125.279 193.384L125.375 193.418V193.535L125.426 193.615C125.622 193.923 125.596 194.316 125.375 194.598V205.112C125.375 205.583 124.993 205.965 124.521 205.965C124.05 205.965 123.669 205.583 123.669 205.112V194.438L119.238 191.733C118.837 191.487 118.709 190.962 118.955 190.559C119.201 190.157 119.725 190.03 120.128 190.277L122.014 191.427L119.342 187.225C119.088 186.827 119.206 186.3 119.604 186.047Z" fill="#F44E22"/>
<path d="M128.559 190.583C128.804 190.18 129.329 190.054 129.731 190.3L134.755 193.368C135.156 193.613 135.284 194.138 135.038 194.541C134.909 194.751 134.703 194.884 134.479 194.929V205.112C134.479 205.583 134.098 205.965 133.627 205.965C133.155 205.965 132.773 205.583 132.773 205.112V194.157L128.842 191.756C128.44 191.511 128.313 190.985 128.559 190.583Z" fill="#F44E22"/>
<path d="M133.059 190.861C133.304 190.458 133.83 190.332 134.232 190.578L140.272 194.266C140.674 194.512 140.801 195.037 140.555 195.44C140.394 195.703 140.113 195.848 139.826 195.848C139.675 195.848 139.521 195.808 139.382 195.723L139.031 195.508V205.112C139.031 205.583 138.65 205.965 138.179 205.965C137.707 205.965 137.325 205.583 137.325 205.112V194.466L133.342 192.035C132.94 191.789 132.813 191.263 133.059 190.861Z" fill="#F44E22"/>
<path d="M147.282 18.0854C147.754 18.0857 148.135 18.4665 148.135 18.938V205.112C148.135 205.583 147.754 205.965 147.282 205.965C146.811 205.965 146.429 205.583 146.429 205.112V18.938C146.429 18.4664 146.811 18.0854 147.282 18.0854Z" fill="#F44E22"/>
<path d="M151.833 18.0854C152.305 18.0855 152.686 18.4664 152.687 18.938V205.112C152.687 205.583 152.305 205.965 151.833 205.965C151.361 205.965 150.98 205.583 150.98 205.112V18.938C150.981 18.4665 151.362 18.0856 151.833 18.0854Z" fill="#F44E22"/>
<path d="M156.386 18.0854C156.857 18.0856 157.239 18.4665 157.239 18.938V205.112C157.239 205.583 156.857 205.965 156.386 205.965C155.914 205.965 155.532 205.583 155.532 205.112V18.938C155.532 18.4664 155.914 18.0854 156.386 18.0854Z" fill="#F44E22"/>
<path d="M160.938 18.0854C161.409 18.0855 161.791 18.4664 161.791 18.938V205.112C161.791 205.583 161.409 205.965 160.938 205.965C160.466 205.965 160.084 205.583 160.084 205.112V18.938C160.084 18.4664 160.466 18.0854 160.938 18.0854Z" fill="#F44E22"/>
<path d="M117.339 182.483C117.738 182.231 118.265 182.349 118.517 182.745L119.623 184.485C119.876 184.883 119.759 185.41 119.361 185.663C119.219 185.753 119.061 185.795 118.904 185.795C118.622 185.795 118.346 185.656 118.184 185.401L117.077 183.661C116.824 183.262 116.942 182.735 117.339 182.483Z" fill="#F44E22"/>
</svg>
