<svg
  width="25"
  height="25"
  viewBox="0 0 25 25"
  fill="none"
  xmlns="http://www.w3.org/2000/svg"
>
  <path
    fill-rule="evenodd"
    clip-rule="evenodd"
    d="M6.98828 4.63623C5.88371 4.63623 4.98828 5.53166 4.98828 6.63623V17.6362C4.98828 18.7408 5.88371 19.6362 6.98828 19.6362H17.9883C19.0929 19.6362 19.9883 18.7408 19.9883 17.6362V6.63623C19.9883 5.53166 19.0929 4.63623 17.9883 4.63623H6.98828ZM11.4611 9.00103C11.2093 8.94388 10.9515 8.91741 10.6933 8.92221H7.92768V15.1081H10.7761C11.0355 15.1087 11.2938 15.074 11.5438 15.0048C11.7849 14.9396 12.012 14.8308 12.2138 14.6836C12.4099 14.5348 12.5683 14.3422 12.6766 14.1212C12.7936 13.8678 12.8513 13.5911 12.8452 13.312C12.8559 12.9621 12.7631 12.6167 12.5784 12.3192C12.3861 12.0385 12.0998 11.8355 11.7712 11.7469C12.0134 11.6333 12.2203 11.4563 12.3699 11.2346C12.5122 10.9998 12.5822 10.7284 12.5713 10.4542C12.5777 10.2044 12.5314 9.95611 12.4353 9.72545C12.3518 9.53787 12.2203 9.37557 12.0542 9.25485C11.8744 9.13345 11.6731 9.04732 11.4611 9.00103ZM11.0953 11.2519C10.9315 11.3718 10.7318 11.4325 10.5289 11.4241V11.4297H9.21806V9.98439H10.4351C10.5466 9.98232 10.658 9.99196 10.7674 10.0132C10.8683 10.0296 10.9646 10.0668 11.0504 10.1223C11.1351 10.1728 11.2034 10.2465 11.2474 10.3348C11.2993 10.4456 11.3236 10.5673 11.3184 10.6895C11.3276 10.7941 11.3123 10.8995 11.2735 10.9972C11.2348 11.0948 11.1738 11.1821 11.0953 11.2519ZM10.9645 14.0183C10.845 14.0462 10.7226 14.0594 10.5999 14.0577H9.21806V12.3543H10.6271C10.8687 12.3407 11.1074 12.4118 11.3022 12.5553C11.3941 12.642 11.465 12.7486 11.5093 12.8669C11.5537 12.9853 11.5703 13.1122 11.558 13.2379C11.5648 13.3759 11.5387 13.5136 11.4819 13.6396C11.433 13.7384 11.3599 13.8232 11.2695 13.8863C11.1772 13.9494 11.0736 13.9942 10.9645 14.0183ZM14.6837 14.0347C14.785 14.1286 14.9043 14.2009 15.0344 14.2472C15.1645 14.2936 15.3026 14.313 15.4404 14.3043C15.6589 14.3098 15.8732 14.2433 16.0501 14.1151C16.1941 14.0215 16.3032 13.8829 16.3603 13.721H17.3894C17.2798 14.182 17.012 14.5901 16.6327 14.8742C16.2688 15.1157 15.8387 15.238 15.4022 15.2242C15.0906 15.2283 14.7814 15.1697 14.4929 15.0519C14.232 14.9431 13.9979 14.7786 13.8071 14.5699C13.6171 14.3512 13.4711 14.0979 13.3772 13.8238C13.2717 13.5175 13.2201 13.1952 13.2246 12.8712C13.2227 12.5527 13.276 12.2362 13.3823 11.9359C13.525 11.5135 13.7979 11.1471 14.1618 10.8893C14.5256 10.6316 14.9618 10.4958 15.4077 10.5013C15.7369 10.4944 16.0624 10.5715 16.3536 10.7252C16.6168 10.8695 16.8439 11.0716 17.0177 11.3164C17.1956 11.5732 17.323 11.8614 17.3933 12.1657C17.4705 12.4925 17.498 12.8291 17.4749 13.1641H14.4098C14.3849 13.4788 14.4831 13.7909 14.6837 14.0347ZM16.0285 11.6821C15.9427 11.5963 15.8395 11.5299 15.7259 11.4874C15.6123 11.4448 15.4909 11.4271 15.3699 11.4354C15.2093 11.4293 15.0499 11.4649 14.9072 11.5387C14.794 11.601 14.6941 11.6848 14.6131 11.7854C14.5414 11.8797 14.4879 11.9867 14.4555 12.1007C14.4263 12.1958 14.408 12.2939 14.4011 12.3931H16.2996C16.2831 12.1345 16.1889 11.8868 16.0293 11.6825L16.0285 11.6821ZM14.1558 9.33558H16.5348V9.94373H14.1558V9.33558Z"
    fill="currentColor"
  />
</svg>
