<svg width="25" height="24" viewBox="0 0 25 24" fill="currentColor" xmlns="http://www.w3.org/2000/svg">
<g clip-path="url(#clip0_1691_8698)">
<path d="M7.49559 5.88488C9.32984 7.26663 11.3031 10.0679 12.0273 11.5711V15.5416C12.0273 15.4571 11.9948 15.5526 11.9248 15.7584C11.5468 16.8724 10.0703 21.2201 6.69409 17.7444C4.91634 15.9144 5.73934 14.0844 8.97534 13.5319C7.12409 13.8479 5.04284 13.3256 4.47184 11.2781C4.30734 10.6891 4.02734 7.06113 4.02734 6.57113C4.02734 4.11663 6.17209 4.88813 7.49559 5.88488ZM16.5591 5.88488C14.7248 7.26663 12.7516 10.0679 12.0273 11.5711V15.5416C12.0273 15.4571 12.0598 15.5526 12.1298 15.7584C12.5078 16.8724 13.9843 21.2201 17.3606 17.7444C19.1383 15.9144 18.3153 14.0844 15.0793 13.5319C16.9306 13.8479 19.0118 13.3256 19.5828 11.2781C19.7473 10.6891 20.0273 7.06113 20.0273 6.57113C20.0273 4.11663 17.8828 4.88813 16.5591 5.88488Z" fill="currentColor"/>
</g>
<defs>
<clipPath id="clip0_1691_8698">
<rect width="24" height="24" fill="currentColor" transform="translate(0.0273438)"/>
</clipPath>
</defs>
</svg>
