<svg width="72" height="72" viewBox="0 0 72 72" fill="none" xmlns="http://www.w3.org/2000/svg">
  <rect
    width="72"
    height="72"
    rx="16"
    fill="var(--main-theme-1, currentColor)"
    fill-opacity="0.1"
  />
  <path
    fill-rule="evenodd"
    clip-rule="evenodd"
    d="M54.0418 54.041C51.3023 56.7806 48.0947 58.7669 44.6765 60L60.0008 44.6757C58.7677 48.0939 56.7814 51.3015 54.0418 54.041ZM12 44.6757L27.3242 60C23.906 58.7669 20.6985 56.7806 17.959 54.041C15.2194 51.3015 13.2331 48.0939 12 44.6757ZM17.959 17.9582C15.22 20.6971 13.234 23.9039 12.0008 27.3212L27.322 12C23.9047 13.2332 20.6979 15.2192 17.959 17.9582ZM60 27.3212L44.6788 12C48.0961 13.2332 51.3029 15.2192 54.0418 17.9582C56.7808 20.6971 58.7668 23.9039 60 27.3212ZM37.8418 57.4603C42.7254 57.0437 47.4939 54.967 51.2309 51.2299C54.968 47.4929 57.0447 42.7244 57.4613 37.8408L51.7733 43.5288C54.0401 38.7814 54.0409 33.2223 51.7756 28.4744L57.4615 34.1602C57.0454 29.2759 54.9685 24.5064 51.2309 20.7688C47.4933 17.0312 42.7239 14.9544 37.8395 14.5383L43.5288 20.2276C38.7778 17.9609 33.2147 17.9631 28.4653 20.2342L34.1612 14.5383C29.2769 14.9544 24.5074 17.0312 20.7698 20.7688C17.0322 24.5064 14.9554 29.2759 14.5393 34.1602L20.239 28.4605C17.965 33.2161 17.9657 38.7876 20.2413 43.5427L14.5395 37.8408C14.956 42.7244 17.0328 47.4929 20.7698 51.2299C24.5069 54.967 29.2754 57.0437 34.159 57.4603L28.4605 51.7618C33.2126 54.036 38.78 54.0382 43.5336 51.7685L37.8418 57.4603Z"
    fill="var(--main-theme-1, currentColor)"
  />
</svg>
