<svg
  width="78"
  height="78"
  viewBox="0 0 78 78"
  fill="none"
  xmlns="http://www.w3.org/2000/svg"
>
  <rect
    y="0.161133"
    width="77.8389"
    height="77.8389"
    rx="16"
    fill="var(--main-theme-overlay, currentColor)"
  />
  <circle
    cx="38.9219"
    cy="39.08"
    r="20.5475"
    transform="rotate(45 38.9219 39.08)"
    fill="var(--main-theme-1, currentColor)"
  />
  <path
    fill-rule="evenodd"
    clip-rule="evenodd"
    d="M40.9058 62.2282C46.1727 61.7786 51.3155 59.5386 55.3458 55.5082C59.3762 51.4779 61.6162 46.3351 62.0658 41.0682L40.9058 62.2282ZM36.9344 62.2286L15.7698 41.064C16.2185 46.3323 18.4586 51.4768 22.4901 55.5082C26.5216 59.5397 31.666 61.7798 36.9344 62.2286ZM15.7696 37.0983C16.2181 31.8294 18.4583 26.6843 22.4901 22.6525C26.5219 18.6206 31.667 16.3805 36.9359 15.932L15.7696 37.0983ZM40.9043 15.9324L62.0659 37.094C61.6166 31.8266 59.3766 26.6832 55.3458 22.6525C51.3151 18.6217 46.1717 16.3817 40.9043 15.9324Z"
    fill="var(--main-theme-1, currentColor)"
  />
  <path
    fill-rule="evenodd"
    clip-rule="evenodd"
    d="M48.2773 64.9673C51.9638 63.6372 55.4231 61.4949 58.3777 58.5403C61.3323 55.5857 63.4746 52.1264 64.8047 48.4399L48.2773 64.9673ZM29.5586 64.9673L13.0312 48.4399C14.3613 52.1264 16.5037 55.5857 19.4583 58.5403C22.4129 61.4949 25.8721 63.6372 29.5586 64.9673ZM13.0313 29.7211C14.3614 26.0347 16.5037 22.5754 19.4583 19.6209C22.4128 16.6663 25.8721 14.5239 29.5585 13.1939L13.0313 29.7211ZM48.2774 13.1939L64.8047 29.7211C63.4746 26.0347 61.3323 22.5754 58.3777 19.6209C55.4231 16.6663 51.9639 14.5239 48.2774 13.1939Z"
    fill="var(--main-theme-1, currentColor)"
  />
</svg>
