<svg width="72" height="73" viewBox="0 0 72 73" fill="none" xmlns="http://www.w3.org/2000/svg">
  <mask
    id="mask0_1387_10141"
    style="mask-type: alpha"
    maskUnits="userSpaceOnUse"
    x="0"
    y="0"
    width="72"
    height="73"
  >
    <rect y=".777" width="72" height="72" rx="16" fill="var(--main-theme-1, currentColor)" />
  </mask>
  <g mask="url(#mask0_1387_10141)">
    <rect y=".777" width="72" height="72" rx="16" fill="var(--main-theme-1, currentColor)" />
    <path
      fill-rule="evenodd"
      clip-rule="evenodd"
      d="M48.831-16.628c2.18.315 4.074 1.424 5.465 3.234 2.384 3.102 3.076 7.325 2.53 11.743-.551 4.448-2.375 9.33-5.349 14.064-5.281 8.41-14.306 16.543-26.827 21.145-.32 4.796-.366 9.975-.072 15.54 2.048-4.56 4.968-8.112 8.247-10.623 6.135-4.697 13.98-5.95 19.121-2.26 5.734 4.116 7.652 10.27 7.29 16.568a28.885 28.885 0 0 1-.34 3.044c4.607-2.35 8.963-4.948 12.55-7.961 5.495-4.617 8.965-10.01 8.965-16.8a2.279 2.279 0 0 1 4.557 0c0 8.598-4.48 15.156-10.591 20.289-4.891 4.108-10.966 7.427-16.972 10.283-1.134 3.298-2.713 6.505-4.535 9.42-3.43 5.486-7.905 10.226-12.347 12.67-2.224 1.222-4.63 1.973-6.987 1.74-2.466-.245-4.587-1.542-6.123-3.831-1.654-2.465-1.962-5.033-.807-7.474 1.041-2.198 3.136-3.983 5.491-5.509 3.693-2.392 8.952-4.7 14.484-7.129 1.539-.675 3.098-1.36 4.65-2.057.81-.364 1.62-.733 2.429-1.107.561-1.978.919-3.945 1.027-5.838.297-5.177-1.25-9.629-5.398-12.606-2.878-2.066-8.433-1.852-13.694 2.176-5.087 3.895-9.5 11.192-9.5 22.182a2.278 2.278 0 0 1-4.532.33c-1.6-10.958-2.02-20.807-1.566-29.55a58.77 58.77 0 0 1-.31.086c-9.298 2.53-16.829 5.726-22 9.916-5.08 4.118-7.868 9.168-7.868 15.684a2.278 2.278 0 1 1-4.557 0c0-8.086 3.57-14.373 9.556-19.224C.713 36.74 8.957 33.337 18.49 30.744c.627-.17 1.246-.35 1.856-.54C21.643 16.242 25.233 5.398 29.67-2.33c3.772-6.571 8.247-11.038 12.592-13.098 2.185-1.036 4.436-1.507 6.57-1.199ZM25.103 28.49c10.494-4.345 18.04-11.375 22.515-18.5 2.688-4.28 4.231-8.533 4.685-12.2.457-3.699-.21-6.573-1.62-8.407-.681-.887-1.521-1.358-2.503-1.5-1.028-.149-2.366.047-3.967.805-3.224 1.529-7.099 5.164-10.592 11.25-3.847 6.703-7.122 16.2-8.518 28.552ZM51.34 64.41c-1.08.48-2.142.945-3.178 1.4-5.459 2.399-10.234 4.497-13.587 6.669-2.17 1.406-3.369 2.618-3.85 3.635-.367.775-.428 1.642.472 2.984.841 1.254 1.786 1.735 2.789 1.835 1.112.11 2.577-.229 4.34-1.199 3.535-1.943 7.5-6.004 10.68-11.092a43.93 43.93 0 0 0 2.334-4.233Z"
      fill="var(--main-theme-4, currentColor)"
    />
    <path fill="url(#paint0_linear_1387_10141)" d="M23.738.479h36.066v3.743H23.738z" />
    <path
      transform="rotate(-180 58.805 73.222)"
      fill="url(#paint1_linear_1387_10141)"
      d="M58.805 73.222h36.066v3.743H58.805z"
    />
    <path
      d="M19.877 41.858c0-5.644.582-12.185.795-14.93-.195-1.9-1.829-3.932-6.803 3.14-6.219 8.838 6.008 18.734 6.008 11.79Z"
      fill="url(#paint2_linear_1387_10141)"
    />
    <path
      d="M25.828 23.02c-.722 4.596-1.591 11.147-1.138 14.951.226 1.897 2.48 3.892 7.338-3.26 6.073-8.94-5.123-18.551-6.2-11.69Z"
      fill="url(#paint3_linear_1387_10141)"
    />
    <path
      d="M21.43 64.246c-.443-5.437 2.212-13.052 3.426-15.68.671-6.379-3.022-6.882-7.429-1.553-4.406 5.33 4.458 22.8 4.003 17.233Z"
      fill="url(#paint4_linear_1387_10141)"
    />
    <path
      d="M60.317 60.107c-4.994 2.63-11.052 5.164-13.58 6.254-1.59 1.058-2.628 3.45 5.947 4.557 10.719 1.383 13.777-14.047 7.633-10.81Z"
      fill="url(#paint5_linear_1387_10141)"
    />
    <path
      d="M49.376 60.106c4.336-1.684 10.438-4.223 13.5-6.526 1.526-1.148 2.12-4.1-6.505-4.708-10.78-.761-13.468 13.748-6.995 11.234Z"
      fill="url(#paint6_linear_1387_10141)"
    />
  </g>
  <defs>
    <linearGradient
      id="paint0_linear_1387_10141"
      x1="38.43"
      y1="-1.869"
      x2="38.46"
      y2="3.692"
      gradientUnits="userSpaceOnUse"
    >
      <stop stop-color="var(--main-theme-1, currentColor)" />
      <stop offset="1" stop-color="var(--main-theme-1, currentColor)" stop-opacity="0" />
    </linearGradient>
    <linearGradient
      id="paint1_linear_1387_10141"
      x1="73.665"
      y1="70.236"
      x2="73.526"
      y2="76.435"
      gradientUnits="userSpaceOnUse"
    >
      <stop stop-color="var(--main-theme-1, currentColor)" />
      <stop offset="1" stop-color="var(--main-theme-1, currentColor)" stop-opacity="0" />
    </linearGradient>
    <linearGradient
      id="paint2_linear_1387_10141"
      x1="23.691"
      y1="34.658"
      x2="13.084"
      y2="34.861"
      gradientUnits="userSpaceOnUse"
    >
      <stop stop-color="var(--main-theme-1, currentColor)" />
      <stop offset="1" stop-color="var(--main-theme-1, currentColor)" stop-opacity="0" />
    </linearGradient>
    <linearGradient
      id="paint3_linear_1387_10141"
      x1="22.403"
      y1="30.188"
      x2="32.765"
      y2="29.86"
      gradientUnits="userSpaceOnUse"
    >
      <stop stop-color="var(--main-theme-1, currentColor)" />
      <stop offset="1" stop-color="var(--main-theme-1, currentColor)" stop-opacity="0" />
    </linearGradient>
    <linearGradient
      id="paint4_linear_1387_10141"
      x1="26.371"
      y1="63.426"
      x2="17.717"
      y2="46.484"
      gradientUnits="userSpaceOnUse"
    >
      <stop stop-color="var(--main-theme-1, currentColor)" />
      <stop offset="1" stop-color="var(--main-theme-1, currentColor)" stop-opacity="0" />
    </linearGradient>
    <linearGradient
      id="paint5_linear_1387_10141"
      x1="52.499"
      y1="61.983"
      x2="53.751"
      y2="67.942"
      gradientUnits="userSpaceOnUse"
    >
      <stop stop-color="var(--main-theme-1, currentColor)" />
      <stop offset="1" stop-color="var(--main-theme-1, currentColor)" stop-opacity="0" />
    </linearGradient>
    <linearGradient
      id="paint6_linear_1387_10141"
      x1="55.488"
      y1="60.128"
      x2="54.249"
      y2="52.783"
      gradientUnits="userSpaceOnUse"
    >
      <stop stop-color="var(--main-theme-1, currentColor)" />
      <stop offset="1" stop-color="var(--main-theme-1, currentColor)" stop-opacity="0" />
    </linearGradient>
  </defs>
</svg>
