<svg width="73" height="73" viewBox="0 0 73 73" fill="none" xmlns="http://www.w3.org/2000/svg">
  <g clip-path="url(#clip0_719_142)">
    <rect
      x=".717"
      y=".891"
      width="71.996"
      height="71.996"
      rx="18.227"
      fill="var(--main-theme-overlay, currentColor)"
    />
    <path
      d="M54.872-13.267c-1.391-1.81-3.285-2.919-5.465-3.233-2.134-.309-4.385.162-6.57 1.198-4.345 2.06-8.82 6.526-12.591 13.097-4.197 7.312-7.637 17.416-9.094 30.311-.258 2.471-.594 6.935-.653 8.796h-.002c-.23 6.045-.047 12.602.646 19.67.142-.636.299-1.263.466-1.872.865-3.152 2.017-5.927 2.801-7.456l.006-.01.045-.083c.143-.257.345-.62.565-1.007-.114-3.64-.08-7.107.082-10.4.068-2.032.444-6.709.818-9.18l.006.001C27.445 15.208 30.566 6.391 34.198.063c3.493-6.085 7.367-9.72 10.591-11.248 1.6-.759 2.94-.954 3.967-.806.982.142 1.821.614 2.503 1.5 1.41 1.835 2.077 4.708 1.62 8.407-.454 3.667-1.997 7.92-4.685 12.199-4.248 6.764-11.262 13.442-20.94 17.818a115.79 115.79 0 0 0-.49 5.16c11.725-4.687 20.227-12.494 25.29-20.555C55.025 7.804 56.85 2.923 57.4-1.525c.546-4.418-.146-8.64-2.53-11.742Z"
      fill="var(--main-theme-1, currentColor)"
    />
    <path
      d="M27.087 45.6c.092-.145.175-.272.245-.368l-.007-.005c1.746-2.692 3.827-4.905 6.077-6.628 6.134-4.697 13.979-5.95 19.12-2.26 5.733 4.116 7.651 10.27 7.29 16.568-.023.41-.056.82-.098 1.231-1.244.649-3.221 1.617-5.006 2.464.291-1.34.48-2.665.555-3.956.297-5.176-1.25-9.627-5.398-12.605-2.878-2.066-8.433-1.851-13.693 2.176-5.087 3.895-9.5 11.192-9.5 22.181a2.278 2.278 0 0 1-4.532.33c-.07-.486-.14-.968-.205-1.448-.12-2.593.386-5.504 1.12-8.183a43.348 43.348 0 0 1 2.098-5.919l.002.044c.332-.741.688-1.455 1.065-2.143a42.177 42.177 0 0 1 .867-1.478Z"
      fill="var(--main-theme-1, currentColor)"
    />
    <path
      d="M54.236 58.48v.004c-.81.374-1.62.743-2.429 1.107a568.194 568.194 0 0 1-4.65 2.057c-5.531 2.428-10.79 4.737-14.483 7.129-2.355 1.526-4.45 3.31-5.49 5.509-1.156 2.44-.848 5.008.806 7.473 1.536 2.289 3.657 3.585 6.122 3.83 2.357.234 4.764-.517 6.987-1.74 4.442-2.443 8.917-7.183 12.346-12.668a47.49 47.49 0 0 0 3.79-7.421c-1.95.898-4.43 2.015-6.006 2.726h-.002l-.416.188c-.391.708-.801 1.406-1.23 2.091-3.18 5.087-7.144 9.148-10.678 11.091-1.764.97-3.228 1.31-4.34 1.199-1.003-.1-1.948-.581-2.789-1.835-.9-1.342-.84-2.209-.472-2.984.481-1.017 1.68-2.229 3.85-3.635 3.352-2.171 8.127-4.27 13.585-6.667l.006-.003c.954-.419 1.93-.847 2.921-1.287 2.474-1.115 5.984-2.705 7.3-3.357v.002c5.682-2.749 11.364-5.927 15.987-9.81 6.11-5.133 10.59-11.691 10.59-20.289a2.278 2.278 0 1 0-4.556 0c0 6.79-3.47 12.183-8.965 16.8-3.284 2.759-7.214 5.17-11.391 7.362l-.448.233c-.236.123-.473.244-.71.366v-.004c-1.53.773-3.574 1.76-5.235 2.534ZM19.057 35.6c.076-1.355.205-3.158.343-4.823l-.333.091c-9.532 2.594-17.775 5.996-23.67 10.773-5.986 4.85-9.556 11.137-9.556 19.223a2.278 2.278 0 0 0 4.557 0c0-6.515 2.787-11.566 7.868-15.683 4.945-4.007 12.048-7.105 20.791-9.58Z"
      fill="var(--main-theme-1, currentColor)"
    />
  </g>
  <defs>
    <clipPath id="clip0_719_142">
      <path fill="#fff" transform="translate(.717 .89)" d="M0 0h71.996v71.996H0z" />
    </clipPath>
  </defs>
</svg>
