<svg width="72" height="73" viewBox="0 0 72 73" fill="none" xmlns="http://www.w3.org/2000/svg">
  <rect
    y=".777"
    width="72"
    height="72"
    rx="16"
    fill="var(--main-theme-1, currentColor)"
    fill-opacity=".2"
  />
  <path
    d="M35.995 13.252h.011a.536.536 0 1 1 0 1.073h-.01a.537.537 0 0 1 0-1.073ZM38.685 13.94a.537.537 0 0 1 .607-.456l.01.002a.537.537 0 0 1-.151 1.062l-.01-.002a.536.536 0 0 1-.456-.606ZM33.316 13.94a.536.536 0 0 1-.455.606l-.01.002a.537.537 0 0 1-.152-1.062l.01-.002a.536.536 0 0 1 .607.456ZM41.856 14.547a.536.536 0 0 1 .666-.364l.01.003a.537.537 0 0 1-.302 1.03l-.01-.003a.536.536 0 0 1-.364-.666ZM30.145 14.547a.537.537 0 0 1-.364.666l-.01.003a.537.537 0 1 1-.302-1.03l.01-.003a.536.536 0 0 1 .666.364ZM44.907 15.602a.537.537 0 0 1 .711-.264l.01.004a.536.536 0 1 1-.446.976l-.01-.005a.536.536 0 0 1-.265-.71ZM27.094 15.602a.537.537 0 0 1-.265.711l-.01.005a.536.536 0 1 1-.446-.976l.01-.005a.537.537 0 0 1 .711.265ZM47.776 17.084a.537.537 0 0 1 .742-.161l.009.006a.537.537 0 0 1-.581.902l-.01-.006a.536.536 0 0 1-.16-.741ZM24.226 17.084c.16.249.088.58-.161.741l-.009.006a.536.536 0 1 1-.581-.902l.009-.006a.536.536 0 0 1 .741.16ZM50.405 18.958a.536.536 0 0 1 .757-.054l.008.008a.536.536 0 1 1-.703.81l-.008-.007a.536.536 0 0 1-.054-.757ZM21.597 18.958a.536.536 0 0 1-.054.757l-.008.007a.537.537 0 0 1-.703-.81l.008-.008a.536.536 0 0 1 .757.054ZM52.742 21.186a.537.537 0 0 1 .756.054l.008.008a.536.536 0 1 1-.811.703l-.007-.008a.536.536 0 0 1 .053-.757ZM19.26 21.186a.536.536 0 0 1 .054.757l-.007.008a.536.536 0 1 1-.81-.703l.006-.008a.536.536 0 0 1 .757-.054ZM54.74 23.723a.536.536 0 0 1 .741.16l.006.01a.536.536 0 1 1-.902.58l-.006-.009a.536.536 0 0 1 .16-.741ZM17.262 23.723c.25.16.321.492.16.741l-.005.009a.536.536 0 0 1-.902-.58l.006-.01c.16-.25.492-.32.741-.16ZM56.357 26.517a.536.536 0 0 1 .71.264l.005.01a.536.536 0 0 1-.976.447l-.004-.01a.536.536 0 0 1 .265-.711ZM15.645 26.517c.27.123.388.442.265.711l-.005.01a.536.536 0 1 1-.976-.447l.005-.01a.536.536 0 0 1 .711-.264ZM57.558 29.514a.537.537 0 0 1 .666.363l.003.01a.537.537 0 0 1-1.03.303l-.003-.01a.537.537 0 0 1 .364-.666ZM14.444 29.514a.536.536 0 0 1 .363.666l-.002.01a.537.537 0 0 1-1.03-.302l.003-.01a.537.537 0 0 1 .666-.364ZM58.317 32.652a.537.537 0 0 1 .607.455l.002.011a.537.537 0 0 1-1.063.151l-.001-.01a.537.537 0 0 1 .455-.607ZM13.684 32.652a.536.536 0 0 1 .456.607l-.002.01a.536.536 0 1 1-1.062-.151l.001-.01a.537.537 0 0 1 .607-.456ZM58.621 35.867c.297 0 .537.24.537.537v.01a.536.536 0 1 1-1.073 0v-.01c0-.297.24-.537.536-.537ZM13.38 35.867c.297 0 .537.24.537.537v.01a.537.537 0 0 1-1.073 0v-.01c0-.297.24-.537.536-.537ZM58.47 39.093a.537.537 0 0 1 .456.607l-.002.01a.536.536 0 1 1-1.062-.15l.001-.011a.537.537 0 0 1 .607-.456ZM13.531 39.093a.537.537 0 0 1 .607.456l.002.01a.536.536 0 0 1-1.063.152l-.001-.01a.537.537 0 0 1 .455-.608ZM57.863 42.264a.537.537 0 0 1 .364.666l-.003.01a.537.537 0 1 1-1.03-.301l.003-.01a.536.536 0 0 1 .666-.365ZM14.139 42.264a.536.536 0 0 1 .666.364l.002.01a.536.536 0 1 1-1.03.303l-.002-.01a.536.536 0 0 1 .364-.667ZM56.807 45.316c.27.123.389.441.265.71l-.004.01a.536.536 0 1 1-.976-.446l.004-.01a.537.537 0 0 1 .711-.264ZM15.194 45.316a.536.536 0 0 1 .711.264l.005.01a.537.537 0 0 1-.976.447l-.005-.01a.536.536 0 0 1 .265-.711ZM55.326 48.184c.25.16.321.493.16.742l-.005.01a.536.536 0 1 1-.902-.582l.006-.009a.537.537 0 0 1 .741-.16ZM53.452 50.813a.537.537 0 0 1 .054.757l-.008.008a.536.536 0 1 1-.81-.703l.007-.008a.536.536 0 0 1 .757-.054ZM51.224 53.15a.537.537 0 0 1-.054.757l-.008.007a.536.536 0 1 1-.703-.811l.008-.007a.537.537 0 0 1 .757.054ZM48.687 55.148c.16.249.089.58-.16.741l-.01.006a.536.536 0 1 1-.58-.902l.009-.006a.536.536 0 0 1 .741.16ZM45.893 56.765a.536.536 0 0 1-.265.71l-.01.005a.536.536 0 1 1-.446-.975l.01-.005a.536.536 0 0 1 .71.265ZM26.109 56.765a.536.536 0 0 1 .71-.265l.01.005a.537.537 0 0 1-.446.975l-.01-.004a.536.536 0 0 1-.264-.711ZM29.105 57.966a.536.536 0 0 1 .666-.364l.01.003a.537.537 0 0 1-.301 1.03l-.01-.003a.536.536 0 0 1-.364-.666ZM42.896 57.966a.537.537 0 0 1-.364.666l-.01.003a.537.537 0 0 1-.302-1.03l.01-.003a.537.537 0 0 1 .666.364ZM32.244 58.725a.536.536 0 0 1 .607-.455l.01.002a.536.536 0 1 1-.151 1.062l-.011-.002a.536.536 0 0 1-.455-.607ZM39.758 58.725a.536.536 0 0 1-.455.607l-.011.002a.537.537 0 0 1-.151-1.062l.01-.002a.536.536 0 0 1 .607.455ZM35.459 59.03c0-.297.24-.537.537-.537h.01a.536.536 0 1 1 0 1.073h-.01a.537.537 0 0 1-.537-.537ZM35.994 16.364h.012a.537.537 0 0 1 0 1.073h-.011a.537.537 0 0 1 0-1.073ZM33.145 17.1a.536.536 0 0 1-.436.621l-.011.002a.536.536 0 1 1-.186-1.056l.012-.002a.536.536 0 0 1 .62.436ZM38.855 17.1a.537.537 0 0 1 .621-.435l.012.002a.536.536 0 1 1-.186 1.056l-.01-.002a.537.537 0 0 1-.437-.62ZM29.835 17.887a.536.536 0 0 1-.32.687l-.01.004a.537.537 0 0 1-.368-1.008l.01-.004a.537.537 0 0 1 .688.32ZM42.165 17.887a.536.536 0 0 1 .687-.32l.011.003a.537.537 0 0 1-.367 1.008l-.01-.004a.536.536 0 0 1-.321-.687ZM26.713 19.24a.536.536 0 0 1-.195.733l-.01.006a.536.536 0 1 1-.537-.929l.01-.006a.536.536 0 0 1 .732.196ZM45.287 19.24a.536.536 0 0 1 .733-.196l.01.006a.536.536 0 1 1-.538.929l-.01-.006a.537.537 0 0 1-.195-.733ZM48.125 21.116a.537.537 0 0 1 .756-.066l.009.007a.536.536 0 1 1-.69.822l-.01-.007a.536.536 0 0 1-.065-.756ZM23.875 21.116a.536.536 0 0 1-.066.756l-.008.007a.536.536 0 1 1-.69-.822l.008-.007a.536.536 0 0 1 .756.066ZM50.596 23.454a.536.536 0 0 1 .756.066l.008.009a.537.537 0 0 1-.822.69l-.007-.009a.537.537 0 0 1 .065-.756ZM21.404 23.454c.227.19.256.53.066.756l-.008.008a.537.537 0 1 1-.822-.69l.008-.008a.536.536 0 0 1 .756-.066ZM52.626 26.184a.537.537 0 0 1 .733.196l.006.01a.536.536 0 1 1-.929.537l-.005-.01a.537.537 0 0 1 .195-.733ZM19.374 26.184a.537.537 0 0 1 .195.733l-.005.01a.537.537 0 0 1-.93-.537l.007-.01a.537.537 0 0 1 .733-.196ZM17.849 29.226c.278.101.421.41.32.688l-.004.01a.536.536 0 1 1-1.008-.367l.004-.01a.536.536 0 0 1 .688-.321ZM54.152 29.226a.537.537 0 0 1 .687.32l.004.011a.537.537 0 0 1-1.008.367l-.004-.01a.537.537 0 0 1 .32-.688ZM16.878 32.486c.292.051.487.33.436.621l-.002.01a.537.537 0 1 1-1.057-.184l.002-.011a.537.537 0 0 1 .621-.436ZM55.122 32.486a.537.537 0 0 1 .62.436l.003.011a.537.537 0 0 1-1.057.185l-.002-.01a.536.536 0 0 1 .436-.622ZM16.491 35.867c.297 0 .537.24.537.537v.01a.536.536 0 1 1-1.073.001v-.011c0-.297.24-.537.536-.537ZM55.509 35.867c.296 0 .536.24.536.537v.011a.537.537 0 0 1-1.073 0v-.011c0-.297.24-.537.537-.537ZM16.691 39.265a.536.536 0 0 1 .621.436l.002.01a.537.537 0 0 1-1.057.186l-.002-.011a.537.537 0 0 1 .436-.621ZM55.309 39.265a.537.537 0 0 1 .436.62l-.002.012a.537.537 0 1 1-1.057-.185l.002-.011a.536.536 0 0 1 .62-.436ZM17.478 42.574a.537.537 0 0 1 .687.32l.004.011a.536.536 0 1 1-1.008.367l-.004-.01a.537.537 0 0 1 .32-.688ZM54.523 42.574c.278.101.422.41.32.688l-.004.01a.536.536 0 1 1-1.008-.367l.004-.01a.537.537 0 0 1 .688-.321ZM18.83 45.696a.537.537 0 0 1 .734.196l.005.01a.536.536 0 1 1-.928.537l-.006-.01a.537.537 0 0 1 .196-.733ZM53.17 45.696a.536.536 0 0 1 .195.733l-.006.01a.536.536 0 1 1-.928-.538l.005-.01a.537.537 0 0 1 .733-.195ZM51.294 48.534c.227.19.256.53.066.756l-.008.009a.537.537 0 0 1-.821-.69l.007-.009a.537.537 0 0 1 .756-.066ZM48.955 51.005a.536.536 0 0 1-.065.756l-.01.008a.537.537 0 0 1-.69-.822l.01-.007a.536.536 0 0 1 .755.066ZM46.225 53.036a.536.536 0 0 1-.195.733l-.01.006a.537.537 0 0 1-.538-.93l.01-.005a.536.536 0 0 1 .733.196ZM25.775 53.036a.536.536 0 0 1 .733-.196l.01.006a.536.536 0 1 1-.538.929l-.01-.006a.536.536 0 0 1-.195-.733ZM28.817 54.56a.536.536 0 0 1 .687-.32l.01.004a.537.537 0 0 1-.366 1.009l-.011-.004a.536.536 0 0 1-.32-.688ZM43.184 54.56a.536.536 0 0 1-.32.689l-.012.004a.536.536 0 1 1-.366-1.009l.01-.004a.537.537 0 0 1 .688.32ZM32.077 55.53a.537.537 0 0 1 .62-.435l.012.002a.537.537 0 0 1-.185 1.057l-.012-.002a.536.536 0 0 1-.435-.621ZM39.923 55.53a.536.536 0 0 1-.435.622l-.012.002a.537.537 0 0 1-.184-1.057l.01-.002a.537.537 0 0 1 .621.436ZM35.458 55.918c0-.296.24-.537.537-.536h.01a.537.537 0 0 1 0 1.073h-.01a.536.536 0 0 1-.537-.537Z"
    fill="var(--main-theme-1, currentColor)"
  />
  <path
    fill-rule="evenodd"
    clip-rule="evenodd"
    d="M52.82 35.16c-.6-8.674-7.829-15.524-16.656-15.524-9.222 0-16.698 7.475-16.698 16.697a16.79 16.79 0 0 0 .34 3.365c1.556 7.609 8.289 13.332 16.358 13.332 9.222 0 16.697-7.476 16.697-16.697 0-.394-.013-.785-.04-1.172ZM41.856 21.777c.444.174.878.367 1.301.58a5.158 5.158 0 0 0 6.983 6.982c.213.424.406.858.58 1.302a6.394 6.394 0 1 1-8.864-8.864Zm7.77 6.62A15.703 15.703 0 0 0 44.1 22.87a4.085 4.085 0 0 0 5.527 5.527Zm-8.999-7.042A7.466 7.466 0 1 0 51.141 31.87c.048.16.093.321.136.484a8.7 8.7 0 1 1-14.655-8.767 8.662 8.662 0 0 1 3.521-2.368c.162.043.323.088.483.136Zm5.987 19.697a10.97 10.97 0 0 0 4.816-6.545 9.839 9.839 0 0 1-1.078 1.441c-3.612 4.011-9.792 4.335-13.803.724-4.011-3.612-4.335-9.792-.723-13.803a9.776 9.776 0 0 1 2.173-1.808 11.004 11.004 0 0 0-3.052 1.32c-5.156 3.221-6.724 10.013-3.502 15.169 3.221 5.156 10.013 6.724 15.17 3.502ZM34.78 21.229c-.135.078-.269.158-.402.241-5.659 3.536-7.38 10.99-3.843 16.648 3.535 5.659 10.99 7.38 16.648 3.844a12.027 12.027 0 0 0 4.087-4.246 13.307 13.307 0 0 1-9.126 9.108c-7.07 2.028-14.444-2.06-16.471-9.13-2.025-7.062 2.052-14.428 9.107-16.465Zm7.66 26.627a14.346 14.346 0 0 0 8.668-6.946C49.15 47.306 43.2 51.957 36.164 51.957c-8.63 0-15.625-6.995-15.625-15.624 0-7.03 4.643-12.976 11.03-14.938-5.784 3.155-8.82 9.998-6.929 16.595 2.19 7.64 10.16 12.056 17.799 9.866Z"
    fill="var(--main-theme-1, currentColor)"
  />
  <path
    d="M17.115 56.208V51.72h2.564c.235 0 .446.046.634.138.192.091.342.22.451.386.11.165.164.36.164.582 0 .178-.033.337-.099.477a.965.965 0 0 1-.268.347 1.07 1.07 0 0 1-.372.202v.027c.165.034.311.1.438.196a.99.99 0 0 1 .307.373c.079.148.118.324.118.53 0 .27-.063.496-.19.68-.122.183-.285.32-.49.411a1.666 1.666 0 0 1-.687.138h-2.57Zm.974-.798h1.406a.56.56 0 0 0 .393-.137c.104-.092.157-.234.157-.426a.623.623 0 0 0-.066-.294.435.435 0 0 0-.196-.19.687.687 0 0 0-.333-.071h-1.36v1.118Zm0-1.877h1.295a.6.6 0 0 0 .294-.066.462.462 0 0 0 .184-.183.542.542 0 0 0 .065-.268c0-.17-.048-.298-.144-.386a.509.509 0 0 0-.366-.13h-1.328v1.033Z"
    fill="var(--main-theme-1, currentColor)"
  />
</svg>
