<svg
  width="25"
  height="25"
  viewBox="0 0 25 25"
  fill="none"
  xmlns="http://www.w3.org/2000/svg"
>
  <path
    d="M18.5957 10.2593H11.7227C10.8791 10.2593 10.1953 10.9431 10.1953 11.7866V18.6597C10.1953 19.5032 10.8791 20.187 11.7227 20.187H18.5957C19.4392 20.187 20.123 19.5032 20.123 18.6597V11.7866C20.123 10.9431 19.4392 10.2593 18.5957 10.2593Z"
    stroke="currentColor"
    stroke-linecap="round"
    stroke-linejoin="round"
  />
  <path
    d="M7.14258 14.8413H6.37891C5.97383 14.8413 5.58534 14.6804 5.29891 14.394C5.01248 14.1075 4.85156 13.719 4.85156 13.314V6.44092C4.85156 6.03584 5.01248 5.64736 5.29891 5.36092C5.58534 5.07449 5.97383 4.91357 6.37891 4.91357H13.252C13.657 4.91357 14.0455 5.07449 14.3319 5.36092C14.6184 5.64736 14.7793 6.03584 14.7793 6.44092V7.20459"
    stroke="currentColor"
    stroke-linecap="round"
    stroke-linejoin="round"
  />
</svg>
