<svg width="25" height="25" viewBox="0 0 25 25" fill="none" xmlns="http://www.w3.org/2000/svg">
<path fill-rule="evenodd" clip-rule="evenodd" d="M11.3681 6.92172C11.735 6.85346 12.1133 6.81777 12.5 6.81777C13.9611 6.81777 15.3032 7.32731 16.3583 8.17838C15.5161 9.02635 14.5537 9.6711 13.426 10.1543C12.8462 9.10713 12.1754 8.06985 11.3681 6.92172ZM9.78122 7.44984C8.20218 8.22934 7.006 9.66668 6.55059 11.4039C8.63453 11.3185 10.39 11.1022 11.8904 10.6873C11.3123 9.67061 10.6293 8.6372 9.78122 7.44984ZM6.35016 13.0128C6.36053 14.4594 6.87038 15.7873 7.71583 16.8326C9.32015 14.7281 10.9821 13.4448 12.7963 12.7979L12.7974 12.7975C12.8413 12.7819 12.8856 12.7666 12.9303 12.7517C12.884 12.6464 12.8371 12.542 12.7895 12.4384C12.7428 12.3364 12.6953 12.235 12.6472 12.1341C10.8317 12.6802 8.74763 12.928 6.35016 13.0128ZM8.88292 17.9422C9.898 18.6815 11.1481 19.1178 12.5 19.1178C13.3216 19.1178 14.1056 18.9567 14.8221 18.6643C14.3877 16.9046 13.9773 15.4872 13.5252 14.2406C13.46 14.2613 13.3959 14.2828 13.333 14.3051C11.8507 14.8339 10.3896 15.9252 8.88292 17.9422ZM16.2634 17.8322C17.4079 16.9455 18.231 15.6637 18.5283 14.1914C17.2733 13.9116 16.1194 13.8417 15.114 13.9319C15.5184 15.0774 15.887 16.3441 16.2634 17.8322ZM18.6379 12.5787C18.5624 11.3699 18.1378 10.2558 17.4637 9.33603C16.4905 10.3087 15.3941 11.0388 14.1561 11.5821C14.1856 11.645 14.2149 11.7081 14.2439 11.7715C14.3373 11.975 14.4281 12.1807 14.5166 12.3892C15.755 12.2215 17.153 12.2729 18.6379 12.5787ZM12.5 5.21777C8.21979 5.21777 4.75 8.68757 4.75 12.9678C4.75 17.248 8.21979 20.7178 12.5 20.7178C16.7802 20.7178 20.25 17.248 20.25 12.9678C20.25 8.68757 16.7802 5.21777 12.5 5.21777Z" fill="#E9E9E2"/>
</svg>
