<svg
  width="25"
  height="25"
  viewBox="0 0 25 25"
  fill="none"
  xmlns="http://www.w3.org/2000/svg"
>
  <path
    fill-rule="evenodd"
    clip-rule="evenodd"
    d="M11.3578 6.0899C11.7243 6.02182 12.1021 5.98623 12.4883 5.98623C13.9499 5.98623 15.2925 6.49613 16.3478 7.34774C15.5057 8.19537 14.5435 8.8399 13.4161 9.32297C12.8363 8.27565 12.1654 7.23823 11.3578 6.0899ZM9.77074 6.61768C8.191 7.39709 6.99427 8.83484 6.5388 10.5727C8.62357 10.4873 10.3796 10.271 11.8805 9.85598C11.3023 8.83904 10.6191 7.8054 9.77074 6.61768ZM6.33844 12.1815C6.34888 13.6286 6.85913 14.9569 7.70514 16.0023C9.30971 13.8972 10.9719 12.6135 12.7864 11.9665L12.7875 11.9661C12.8314 11.9505 12.8757 11.9353 12.9204 11.9204C12.8741 11.8151 12.8272 11.7107 12.7796 11.607C12.7329 11.505 12.6854 11.4037 12.6373 11.3027C10.8214 11.849 8.73668 12.0968 6.33844 12.1815ZM8.87248 17.1116C9.88734 17.8504 11.1369 18.2862 12.4883 18.2862C13.3105 18.2862 14.0951 18.1249 14.812 17.8321C14.3777 16.0728 13.9673 14.6556 13.5153 13.4093C13.4501 13.43 13.386 13.4515 13.3231 13.4738C11.8406 14.0026 10.3794 15.0941 8.87248 17.1116ZM16.2532 16.9995C17.397 16.1128 18.2195 14.8314 18.5166 13.3597C17.2623 13.0802 16.109 13.0104 15.1041 13.1006C15.5084 14.2457 15.8769 15.512 16.2532 16.9995ZM18.6262 11.747C18.5507 10.5388 18.1264 9.42518 17.4528 8.50566C16.4799 9.4779 15.3838 10.2077 14.1462 10.7507C14.1757 10.8136 14.205 10.8768 14.234 10.9401C14.3274 11.1437 14.4182 11.3493 14.5067 11.5579C15.7446 11.3902 17.1419 11.4416 18.6262 11.747ZM12.4883 4.38623C8.20807 4.38623 4.73828 7.85602 4.73828 12.1362C4.73828 16.4164 8.20807 19.8862 12.4883 19.8862C16.7685 19.8862 20.2383 16.4164 20.2383 12.1362C20.2383 7.85602 16.7685 4.38623 12.4883 4.38623Z"
    fill="currentColor"
  />
</svg>
