<svg
  width="25"
  height="25"
  viewBox="0 0 25 25"
  fill="none"
  xmlns="http://www.w3.org/2000/svg"
>
  <g clip-path="url(#clip0_660_8681)">
    <path
      fill-rule="evenodd"
      clip-rule="evenodd"
      d="M19.2008 18.2863C19.3961 18.4815 19.3961 18.7981 19.2008 18.9934C19.0056 19.1886 18.689 19.1886 18.4937 18.9934L12.4938 12.9935L6.49393 18.9934C6.29867 19.1886 5.98209 19.1886 5.78682 18.9934C5.59156 18.7981 5.59156 18.4815 5.78682 18.2863L11.7867 12.2864L5.78512 6.28478C5.58986 6.08952 5.58986 5.77294 5.78512 5.57768C5.98038 5.38241 6.29696 5.38241 6.49222 5.57768L12.4938 11.5793L18.4954 5.57768C18.6907 5.38241 19.0073 5.38241 19.2025 5.57768C19.3978 5.77294 19.3978 6.08952 19.2025 6.28478L13.2009 12.2864L19.2008 18.2863Z"
      fill="currentColor"
    />
  </g>
  <defs>
    <clipPath id="clip0_660_8681">
      <rect
        width="24"
        height="24"
        fill="white"
        transform="translate(0.5 0.285645)"
      />
    </clipPath>
  </defs>
</svg>
