<svg
  width="25"
  height="25"
  viewBox="0 0 25 25"
  fill="none"
  xmlns="http://www.w3.org/2000/svg"
>
  <path
    d="M17.409 17.7502C15.9463 18.8652 14.1653 19.4828 12.3264 19.5129C6.33671 19.5129 2.91406 12.6676 2.91406 12.6676C3.97841 10.6841 5.45464 8.95111 7.24372 7.58495M10.5295 6.02765C11.1184 5.88978 11.7215 5.82087 12.3264 5.82229C18.316 5.82229 21.7386 12.6676 21.7386 12.6676C21.2192 13.6393 20.5998 14.5541 19.8904 15.3972M14.1404 14.4816C13.9054 14.7338 13.622 14.9361 13.3071 15.0764C12.9922 15.2167 12.6523 15.2921 12.3076 15.2982C11.9629 15.3043 11.6206 15.2409 11.3009 15.1118C10.9813 14.9827 10.6909 14.7905 10.4472 14.5468C10.2034 14.303 10.0113 14.0126 9.88216 13.693C9.75306 13.3734 9.68965 13.031 9.69573 12.6863C9.70181 12.3417 9.77726 12.0018 9.91756 11.6869C10.0579 11.372 10.2601 11.0886 10.5123 10.8536"
    stroke="currentColor"
    stroke-linecap="round"
    stroke-linejoin="round"
  />
  <path
    d="M2.91406 2.97607L22.0623 22.1243"
    stroke="currentColor"
    stroke-linecap="round"
    stroke-linejoin="round"
  />
</svg>
