<svg width="20" height="20" viewBox="0 0 20 20" fill="none" xmlns="http://www.w3.org/2000/svg">
<path d="M16.875 5.62501H10.2586L8.125 3.49141C8.00935 3.37483 7.87168 3.28241 7.71999 3.21951C7.5683 3.1566 7.40562 3.12448 7.24141 3.12501H3.125C2.79348 3.12501 2.47554 3.2567 2.24112 3.49112C2.0067 3.72554 1.875 4.04349 1.875 4.37501V15.6734C1.87541 15.992 2.00214 16.2974 2.22739 16.5226C2.45263 16.7479 2.75802 16.8746 3.07656 16.875H16.9445C17.2575 16.8746 17.5575 16.7501 17.7788 16.5288C18.0001 16.3075 18.1246 16.0075 18.125 15.6945V6.87501C18.125 6.54349 17.9933 6.22554 17.7589 5.99112C17.5245 5.7567 17.2065 5.62501 16.875 5.62501ZM3.125 4.37501H7.24141L8.49141 5.62501H3.125V4.37501ZM16.875 15.625H3.125V6.87501H16.875V15.625Z" fill="currentColor"/>
</svg>
