<svg width="24" height="25" viewBox="0 0 24 25" fill="none" xmlns="http://www.w3.org/2000/svg">
  <path
    d="M12 4C16.42 4 20 7.58 20 12C19.9996 13.6762 19.4735 15.3101 18.4958 16.6716C17.5182 18.0332 16.1381 19.0539 14.55 19.59C14.15 19.67 14 19.42 14 19.21C14 18.94 14.01 18.08 14.01 17.01C14.01 16.26 13.76 15.78 13.47 15.53C15.25 15.33 17.12 14.65 17.12 11.58C17.12 10.7 16.81 9.99 16.3 9.43C16.38 9.23 16.66 8.41 16.22 7.31C16.22 7.31 15.55 7.09 14.02 8.13C13.38 7.95 12.7 7.86 12.02 7.86C11.34 7.86 10.66 7.95 10.02 8.13C8.49 7.1 7.82 7.31 7.82 7.31C7.38 8.41 7.66 9.23 7.74 9.43C7.23 9.99 6.92 10.71 6.92 11.58C6.92 14.64 8.78 15.33 10.56 15.53C10.33 15.73 10.12 16.08 10.05 16.6C9.59 16.81 8.44 17.15 7.72 15.94C7.57 15.7 7.12 15.11 6.49 15.12C5.82 15.13 6.22 15.5 6.5 15.65C6.84 15.84 7.23 16.55 7.32 16.78C7.48 17.23 8 18.09 10.01 17.72C10.01 18.39 10.02 19.02 10.02 19.21C10.02 19.42 9.87 19.66 9.47 19.59C7.87664 19.0596 6.49073 18.041 5.50889 16.6786C4.52705 15.3163 3.99912 13.6793 4 12C4 7.58 7.58 4 12 4Z"
    fill="currentColor"
  />
</svg>
