<svg
  width="25"
  height="25"
  viewBox="0 0 25 25"
  fill="none"
  xmlns="http://www.w3.org/2000/svg"
>
  <path
    fill-rule="evenodd"
    clip-rule="evenodd"
    d="M9.15915 6.3197C7.7854 6.3197 6.67175 7.43335 6.67175 8.8071V15.4654C6.67175 16.8391 7.7854 17.9528 9.15915 17.9528H15.8174C17.1912 17.9528 18.3048 16.8391 18.3048 15.4654V8.8071C18.3048 7.43335 17.1912 6.3197 15.8174 6.3197H9.15915ZM4.98828 8.8071C4.98828 6.50359 6.85564 4.63623 9.15915 4.63623H15.8174C18.1209 4.63623 19.9883 6.50359 19.9883 8.8071V15.4654C19.9883 17.7689 18.1209 19.6362 15.8174 19.6362H9.15915C6.85564 19.6362 4.98828 17.7689 4.98828 15.4654V8.8071Z"
    fill="currentColor"
  />
  <path
    fill-rule="evenodd"
    clip-rule="evenodd"
    d="M12.7879 10.3057C12.4089 10.2495 12.0218 10.3143 11.6817 10.4907C11.3416 10.6672 11.0658 10.9464 10.8936 11.2886C10.7213 11.6309 10.6614 12.0187 10.7222 12.397C10.7831 12.7753 10.9617 13.1247 11.2326 13.3956C11.5035 13.6666 11.853 13.8451 12.2313 13.906C12.6096 13.9669 12.9974 13.9069 13.3396 13.7347C13.6819 13.5624 13.9611 13.2866 14.1375 12.9465C14.314 12.6065 14.3787 12.2194 14.3225 11.8404C14.2652 11.4538 14.0851 11.0959 13.8087 10.8195C13.5324 10.5432 13.1745 10.363 12.7879 10.3057ZM10.9064 8.99643C11.5607 8.65688 12.3055 8.53231 13.0348 8.64046C13.7787 8.75076 14.4674 9.09739 14.9991 9.62915C15.5309 10.1609 15.8775 10.8496 15.9878 11.5935C16.0959 12.3227 15.9714 13.0675 15.6318 13.7219C15.2923 14.3763 14.755 14.907 14.0965 15.2384C13.438 15.5699 12.6917 15.6852 11.9638 15.5681C11.2359 15.451 10.5635 15.1073 10.0422 14.586C9.52093 14.0647 9.17727 13.3923 9.06014 12.6644C8.94302 11.9366 9.05839 11.1903 9.38984 10.5318C9.7213 9.87323 10.252 9.33598 10.9064 8.99643Z"
    fill="currentColor"
  />
  <path
    fill-rule="evenodd"
    clip-rule="evenodd"
    d="M15.3047 8.47406C15.3047 8.00918 15.6815 7.63232 16.1464 7.63232H16.154C16.6189 7.63232 16.9957 8.00918 16.9957 8.47406C16.9957 8.93894 16.6189 9.3158 16.154 9.3158H16.1464C15.6815 9.3158 15.3047 8.93894 15.3047 8.47406Z"
    fill="currentColor"
  />
</svg>
