<svg
  width="25"
  height="25"
  viewBox="0 0 25 25"
  fill="none"
  xmlns="http://www.w3.org/2000/svg"
>
  <path
    d="M5.42551 17.8048H4.40234L8.29142 7.11377H9.33547L13.2245 17.8048H12.2014L8.84999 8.38229H8.7769L5.42551 17.8048ZM6.16156 13.7069H11.4653V14.5839H6.16156V13.7069Z"
    fill="currentColor"
  />
  <path
    d="M17.1032 17.9875C16.6194 17.9875 16.1775 17.8936 15.7772 17.7056C15.377 17.5142 15.0586 17.2393 14.8219 16.8808C14.5853 16.5189 14.467 16.0804 14.467 15.5653C14.467 15.1686 14.5418 14.8345 14.6914 14.563C14.8411 14.2916 15.0534 14.0689 15.3283 13.8949C15.6032 13.7209 15.9286 13.5834 16.3045 13.4825C16.6803 13.3815 17.0945 13.3032 17.5469 13.2475C17.9958 13.1919 18.3752 13.1431 18.6849 13.1014C18.9981 13.0596 19.2365 12.9935 19.4001 12.903C19.5637 12.8125 19.6454 12.6664 19.6454 12.4645V12.2766C19.6454 11.7302 19.4819 11.3004 19.1547 10.9872C18.8311 10.6705 18.3647 10.5121 17.7557 10.5121C17.178 10.5121 16.7064 10.6392 16.341 10.8932C15.9791 11.1473 15.725 11.4466 15.5789 11.7911L14.6967 11.4727C14.8776 11.0342 15.1282 10.6844 15.4484 10.4234C15.7685 10.1589 16.127 9.96924 16.5237 9.85439C16.9205 9.73607 17.3224 9.67691 17.7296 9.67691C18.0359 9.67691 18.3543 9.71693 18.6849 9.79697C19.019 9.87702 19.3287 10.0162 19.6141 10.2146C19.8995 10.4095 20.1309 10.6827 20.3084 11.0342C20.4859 11.3822 20.5746 11.8242 20.5746 12.3601V17.8048H19.6454V16.5363H19.588C19.4767 16.773 19.3113 17.0026 19.0921 17.2254C18.8728 17.4481 18.5979 17.6308 18.2673 17.7735C17.9367 17.9162 17.5486 17.9875 17.1032 17.9875ZM17.2285 17.1366C17.7227 17.1366 18.1507 17.027 18.5126 16.8078C18.8746 16.5885 19.153 16.2979 19.3479 15.936C19.5463 15.5706 19.6454 15.1686 19.6454 14.7301V13.5712C19.5758 13.6373 19.4593 13.6965 19.2957 13.7487C19.1356 13.8009 18.9494 13.8479 18.7371 13.8896C18.5283 13.9279 18.3195 13.961 18.1107 13.9888C17.9019 14.0167 17.714 14.041 17.5469 14.0619C17.0945 14.1176 16.7082 14.2046 16.388 14.3229C16.0678 14.4412 15.8225 14.6048 15.652 14.8136C15.4814 15.0189 15.3962 15.2834 15.3962 15.6071C15.3962 16.0943 15.5702 16.4719 15.9182 16.7399C16.2662 17.0044 16.703 17.1366 17.2285 17.1366Z"
    fill="currentColor"
  />
</svg>
