<svg
  width="25"
  height="25"
  viewBox="0 0 25 25"
  fill="none"
  xmlns="http://www.w3.org/2000/svg"
>
  <path
    d="M18.3216 4.63623C18.7636 4.63623 19.1876 4.81183 19.5001 5.12439C19.8127 5.43695 19.9883 5.86087 19.9883 6.3029V17.9696C19.9883 18.4116 19.8127 18.8355 19.5001 19.1481C19.1876 19.4606 18.7636 19.6362 18.3216 19.6362H6.65495C6.21292 19.6362 5.789 19.4606 5.47644 19.1481C5.16388 18.8355 4.98828 18.4116 4.98828 17.9696V6.3029C4.98828 5.86087 5.16388 5.43695 5.47644 5.12439C5.789 4.81183 6.21292 4.63623 6.65495 4.63623H18.3216ZM17.9049 17.5529V13.1362C17.9049 12.4157 17.6187 11.7247 17.1093 11.2153C16.5998 10.7058 15.9088 10.4196 15.1883 10.4196C14.4799 10.4196 13.6549 10.8529 13.2549 11.5029V10.5779H10.9299V17.5529H13.2549V13.4446C13.2549 12.8029 13.7716 12.2779 14.4133 12.2779C14.7227 12.2779 15.0194 12.4008 15.2382 12.6196C15.457 12.8384 15.5799 13.1351 15.5799 13.4446V17.5529H17.9049ZM8.22161 9.26956C8.59292 9.26956 8.94901 9.12206 9.21156 8.85951C9.47412 8.59696 9.62161 8.24087 9.62161 7.86956C9.62161 7.09456 8.99661 6.46123 8.22161 6.46123C7.8481 6.46123 7.48989 6.60961 7.22577 6.87372C6.96166 7.13784 6.81328 7.49605 6.81328 7.86956C6.81328 8.64456 7.44661 9.26956 8.22161 9.26956ZM9.37995 17.5529V10.5779H7.07161V17.5529H9.37995Z"
    fill="currentColor"
  />
</svg>
