<svg
  width="25"
  height="25"
  viewBox="0 0 25 25"
  fill="none"
  xmlns="http://www.w3.org/2000/svg"
>
  <path
    d="M12.1885 2.06667C11.7683 2.19437 11.3605 2.51567 11.138 2.89464C10.9033 3.2942 10.8909 3.45073 10.7673 6.90676L10.652 10.1074L9.65101 7.85419C9.09903 6.61842 8.58825 5.48975 8.51822 5.34558C8.33697 4.9872 8.03215 4.68238 7.68202 4.50937C7.41015 4.37756 7.36896 4.36932 6.94056 4.36932C6.55335 4.36932 6.45037 4.3858 6.22381 4.4723C5.49471 4.76065 5.021 5.58861 5.14457 6.35479C5.16517 6.49896 5.67595 8.17137 6.28148 10.0786C6.88289 11.9858 7.36895 13.5511 7.36484 13.5552C7.3566 13.5593 7.21242 13.6376 7.04354 13.7241C6.24853 14.136 5.75834 14.9557 5.76246 15.8784C5.76246 16.2368 6.07964 18.0987 6.26088 18.7949C6.4998 19.7217 6.98175 20.5826 7.67378 21.3035C8.57589 22.2468 9.56862 22.7782 10.9115 23.0253C11.3811 23.1159 14.2192 23.12 14.7465 23.0335C16.0152 22.8235 17.1398 22.2509 18.0419 21.3611C18.7998 20.6073 19.2941 19.7876 19.5866 18.7825C19.8255 17.9751 19.8214 18.041 19.842 14.3131C19.8543 12.1629 19.8461 10.7541 19.8173 10.5729C19.6607 9.43185 18.5115 8.73158 17.4487 9.13115C17.3334 9.17234 17.2386 9.20529 17.2386 9.19706C17.2345 9.19294 17.2098 9.03229 17.181 8.83868C17.0821 8.10134 16.6702 7.58644 15.9905 7.35164C15.5992 7.21571 14.8618 7.26926 14.6353 7.44638C14.5982 7.47522 14.5817 7.01386 14.5694 5.47327C14.557 3.75556 14.5447 3.43426 14.487 3.26949C14.2893 2.68868 13.865 2.26851 13.28 2.06667C13.037 1.98429 12.4521 1.98429 12.1885 2.06667ZM13.1318 3.01409C13.2759 3.08824 13.3913 3.18298 13.4819 3.31068L13.6137 3.50428L13.6261 7.79652C13.6302 10.161 13.6219 12.0929 13.6096 12.0929C13.5931 12.0929 12.3944 12.373 10.9444 12.7149C9.49448 13.0527 8.29578 13.3204 8.2793 13.2998C8.26695 13.2833 7.75616 11.6974 7.15476 9.77787C6.40094 7.38871 6.05492 6.23533 6.05492 6.10763C6.05492 5.76574 6.26912 5.4568 6.59866 5.32086C6.99822 5.15197 7.47194 5.33734 7.6779 5.74102C7.73145 5.84812 8.31638 7.14568 8.97545 8.6286C9.63865 10.1115 10.2153 11.3802 10.2648 11.4462C10.3636 11.5862 10.6314 11.718 10.8167 11.7221C11.1257 11.7221 11.4593 11.4503 11.5088 11.1578C11.5253 11.0713 11.5994 9.34123 11.6735 7.31045L11.8136 3.61962L11.9207 3.40954C12.1514 2.95231 12.6704 2.78342 13.1318 3.01409ZM15.8834 8.31966C15.9699 8.37733 16.0894 8.49267 16.147 8.57917L16.25 8.73158V13.7241L16.147 13.8765C15.8504 14.3173 15.2738 14.3996 14.8824 14.0577C14.5735 13.7859 14.5817 13.8765 14.5817 11.2361C14.5817 8.66156 14.5776 8.71099 14.8206 8.45148C15.0966 8.15901 15.558 8.10134 15.8834 8.31966ZM18.4044 10.0127C18.6062 10.0992 18.738 10.2269 18.8286 10.4246C18.8987 10.577 18.9069 10.7253 18.9069 12.3318C18.9069 13.9754 18.9028 14.0825 18.8286 14.2308C18.6433 14.5891 18.2396 14.7868 17.8812 14.6921C17.6341 14.6262 17.4281 14.4614 17.3087 14.2308L17.2139 14.0495L17.2386 10.4946L17.3622 10.3175C17.5929 9.98795 18.0336 9.86025 18.4044 10.0127ZM13.3707 13.2669C13.4407 13.6458 13.1812 14.3214 12.8311 14.6715C12.5551 14.9475 12.3615 15.0422 11.2369 15.4542C10.7261 15.6395 10.2318 15.8331 10.1453 15.8784C9.75811 16.072 9.54391 16.4304 9.53979 16.8794C9.53979 17.1513 9.55215 17.1801 9.90228 17.8845C10.2277 18.5395 10.2771 18.6136 10.4048 18.6672C10.6025 18.7495 10.8085 18.7042 10.9362 18.5518C11.1092 18.3459 11.0804 18.1852 10.7508 17.5303C10.4501 16.933 10.4213 16.8341 10.5202 16.7352C10.5531 16.7064 11.0309 16.5169 11.5788 16.3151C12.1308 16.1174 12.7075 15.8908 12.8599 15.8125C13.2265 15.6231 13.6055 15.2647 13.8609 14.8775L14.0627 14.5644L14.2316 14.7209C14.7959 15.2606 15.7145 15.3429 16.3818 14.9228L16.5466 14.8157L16.732 15.0299C17.0986 15.45 17.63 15.6642 18.2108 15.6231C18.3961 15.6107 18.6062 15.5695 18.7174 15.5201L18.9069 15.4336V16.4963C18.9069 17.6497 18.8698 17.9957 18.6762 18.6095C18.1943 20.1254 16.9544 21.3941 15.4468 21.909C14.7671 22.1397 14.627 22.1561 13.0411 22.1726C11.4264 22.1932 11.0763 22.1644 10.3966 21.9543C9.97231 21.8266 9.34618 21.5094 8.98369 21.2417C8.24223 20.6897 7.58315 19.8041 7.27009 18.939C7.05589 18.3376 6.65633 16.1627 6.68516 15.7466C6.71812 15.2358 7.04354 14.7539 7.51725 14.515C7.66554 14.4367 13.0411 13.1392 13.2512 13.1268C13.3254 13.1227 13.346 13.1515 13.3707 13.2669Z"
    fill="currentColor"
  />
</svg>
