<svg
  width="25"
  height="25"
  viewBox="0 0 25 25"
  fill="none"
  xmlns="http://www.w3.org/2000/svg"
>
  <path
    fill-rule="evenodd"
    clip-rule="evenodd"
    d="M16.0121 4.37423C15.1929 3.55494 13.8645 3.55495 13.0453 4.37423C12.226 5.19351 12.226 6.52183 13.0453 7.34111L13.4412 7.73705L10.9658 10.2124C9.23 8.82773 6.69344 8.93879 5.08603 10.5457L3.79103 11.8403C3.69723 11.9341 3.64453 12.0613 3.64453 12.1939C3.64453 12.3265 3.69723 12.4537 3.79102 12.5475L7.8124 16.5679L4.67786 19.7029C4.48261 19.8981 4.48264 20.2147 4.67791 20.41C4.87319 20.6052 5.18977 20.6052 5.38502 20.4099L8.5196 17.2749L12.5737 21.328C12.769 21.5232 13.0855 21.5232 13.2808 21.3279L14.8823 19.7265C16.4384 18.1703 16.5495 15.7162 15.2154 14.0319L17.6404 11.6069L18.3344 12.3008C19.1082 13.0746 20.3628 13.0746 21.1366 12.3008C21.9104 11.527 21.9104 10.2725 21.1366 9.49866L16.0121 4.37423ZM13.7524 6.634C13.3236 6.20524 13.3236 5.51009 13.7524 5.08133C14.1811 4.65258 14.8763 4.65258 15.305 5.08133L20.4295 10.2058C20.8127 10.589 20.8127 11.2104 20.4295 11.5937C20.0462 11.977 19.4248 11.977 19.0415 11.5937L17.994 10.5462C17.9002 10.4524 17.773 10.3997 17.6404 10.3997C17.5078 10.3997 17.3806 10.4524 17.2869 10.5462L14.1751 13.6579C14.0775 13.7556 14.0287 13.8835 14.0287 14.0115C14.0287 14.0195 14.0289 14.0275 14.0293 14.0355C14.035 14.1553 14.0836 14.2735 14.1751 14.365C15.4604 15.6503 15.4604 17.7341 14.1751 19.0194L12.9272 20.2673L4.85174 12.1939L5.79303 11.2529C7.12945 9.91691 9.29584 9.91708 10.6321 11.2533C10.8273 11.4486 11.1439 11.4486 11.3392 11.2533L14.5019 8.0906C14.6971 7.89534 14.6971 7.57876 14.5019 7.38349L13.7524 6.634Z"
    fill="currentColor"
  />
</svg>
