<svg
  width="24"
  height="25"
  viewBox="0 0 24 25"
  fill="none"
  xmlns="http://www.w3.org/2000/svg"
>
  <path
    d="M7.52744 12.4541C7.52744 11.5999 7.73577 10.8213 8.15244 10.1182C8.5691 9.41504 9.129 8.85514 9.83213 8.43848C10.5353 8.02181 11.3139 7.81348 12.1681 7.81348C12.8243 7.81348 13.4285 7.94108 13.9806 8.19629C14.5326 8.4515 15.0014 8.80306 15.3868 9.25098C15.7722 9.69889 16.0457 10.2119 16.2071 10.79H15.2071C14.9884 10.1807 14.6082 9.68848 14.0665 9.31348C13.5248 8.93848 12.892 8.75098 12.1681 8.75098C11.4858 8.75098 10.8634 8.91764 10.3009 9.25098C9.74358 9.58431 9.29827 10.0322 8.96494 10.5947C8.6316 11.152 8.46494 11.7718 8.46494 12.4541C8.46494 13.1364 8.6316 13.7588 8.96494 14.3213C9.29827 14.8786 9.74358 15.3239 10.3009 15.6572C10.8634 15.9906 11.4858 16.1572 12.1681 16.1572C12.892 16.1572 13.5144 15.9697 14.0353 15.5947C14.5613 15.2197 14.9337 14.7275 15.1524 14.1182H16.1603C15.9936 14.6963 15.7201 15.2093 15.3399 15.6572C14.9649 16.1051 14.5066 16.4567 13.9649 16.7119C13.4233 16.9671 12.8243 17.0947 12.1681 17.0947C11.3139 17.0947 10.5353 16.8864 9.83213 16.4697C9.129 16.0531 8.5691 15.4932 8.15244 14.79C7.73577 14.0869 7.52744 13.3083 7.52744 12.4541ZM11.9962 20.7041C10.8608 20.7041 9.79306 20.4906 8.79306 20.0635C7.79827 19.6364 6.92067 19.0452 6.16025 18.29C5.40504 17.5296 4.81129 16.652 4.379 15.6572C3.95192 14.6624 3.74098 13.5947 3.74619 12.4541C3.7514 11.3135 3.96754 10.2458 4.39463 9.25098C4.82692 8.25618 5.42067 7.38118 6.17588 6.62598C6.93108 5.86556 7.80608 5.27181 8.80088 4.84473C9.79567 4.41764 10.8608 4.2041 11.9962 4.2041C13.1368 4.2041 14.2045 4.41764 15.1993 4.84473C16.1993 5.27181 17.0743 5.86556 17.8243 6.62598C18.5795 7.38118 19.1707 8.25618 19.5978 9.25098C20.0248 10.2458 20.241 11.3135 20.2462 12.4541C20.2514 13.5947 20.0405 14.6624 19.6134 15.6572C19.1863 16.652 18.5951 17.5296 17.8399 18.29C17.0847 19.0452 16.2071 19.6364 15.2071 20.0635C14.2071 20.4906 13.1368 20.7041 11.9962 20.7041ZM11.9962 19.7666C13.0066 19.7666 13.9545 19.5765 14.8399 19.1963C15.7306 18.8161 16.5092 18.2926 17.1759 17.626C17.8478 16.9593 18.3712 16.1833 18.7462 15.2979C19.1264 14.4124 19.3139 13.4645 19.3087 12.4541C19.3035 11.4437 19.1108 10.4958 18.7306 9.61035C18.3504 8.72494 17.8269 7.94889 17.1603 7.28223C16.4936 6.61035 15.7175 6.08691 14.8321 5.71191C13.9519 5.33171 13.0066 5.1416 11.9962 5.1416C10.991 5.1416 10.0457 5.33171 9.16025 5.71191C8.28004 6.08691 7.5066 6.61035 6.83994 7.28223C6.17327 7.9541 5.64723 8.73275 5.26181 9.61816C4.8816 10.5036 4.6889 11.4489 4.68369 12.4541C4.67848 13.4593 4.86338 14.4046 5.23838 15.29C5.61858 16.1702 6.14463 16.9463 6.8165 17.6182C7.48838 18.29 8.26702 18.8161 9.15244 19.1963C10.0379 19.5765 10.9858 19.7666 11.9962 19.7666Z"
    fill="currentColor"
  />
</svg>
