<svg width="24" height="24" viewBox="0 0 24 24" fill="none" xmlns="http://www.w3.org/2000/svg">
  <g clip-path="url(#clip0_1674_8717)">
    <path
      fill-rule="evenodd"
      clip-rule="evenodd"
      d="M10.0584 6.8208C9.97676 6.79891 9.89164 6.7933 9.80787 6.80431C9.72409 6.81531 9.64331 6.84271 9.57012 6.88493C9.49693 6.92715 9.43278 6.98338 9.38133 7.0504C9.32987 7.11741 9.29212 7.19391 9.27022 7.27552C9.24833 7.35712 9.24273 7.44224 9.25373 7.52602C9.26473 7.60979 9.29213 7.69058 9.33435 7.76376C9.37658 7.83695 9.4328 7.9011 9.49982 7.95256C9.56683 8.00401 9.64333 8.04177 9.72494 8.06366L15.9349 9.72652C16.0176 9.75216 16.1046 9.76084 16.1907 9.75204C16.2769 9.74324 16.3603 9.71714 16.4361 9.6753C16.5119 9.63347 16.5784 9.57676 16.6318 9.50857C16.6851 9.44039 16.7241 9.36213 16.7464 9.2785C16.7688 9.19488 16.774 9.10759 16.7618 9.0219C16.7496 8.9362 16.7202 8.85384 16.6754 8.77978C16.6306 8.70571 16.5713 8.64146 16.5011 8.59087C16.4308 8.54028 16.3511 8.5044 16.2667 8.48537L10.0575 6.82252L10.0584 6.8208ZM9.33751 9.51223C9.17482 9.47365 9.00351 9.49998 8.85991 9.58562C8.71631 9.67126 8.61172 9.80948 8.56835 9.97096C8.52497 10.1324 8.5462 10.3045 8.62755 10.4505C8.7089 10.5966 8.84396 10.7052 9.00408 10.7534L15.2141 12.4179C15.3789 12.462 15.5545 12.4389 15.7022 12.3535C15.8499 12.2682 15.9577 12.1276 16.0018 11.9628C16.0459 11.798 16.0227 11.6224 15.9374 11.4747C15.852 11.327 15.7115 11.2192 15.5467 11.1751L9.33751 9.51223ZM7.82894 12.6571C7.87313 12.4926 7.98083 12.3523 8.12836 12.2671C8.2759 12.1819 8.45121 12.1588 8.6158 12.2028L12.7558 13.3119C12.8373 13.3338 12.9138 13.3715 12.9808 13.4229C13.0478 13.4742 13.104 13.5383 13.1462 13.6114C13.1884 13.6845 13.2158 13.7652 13.2269 13.8489C13.2379 13.9326 13.2323 14.0177 13.2105 14.0992C13.1887 14.1808 13.151 14.2572 13.0996 14.3242C13.0482 14.3912 12.9841 14.4474 12.911 14.4896C12.8379 14.5319 12.7572 14.5593 12.6735 14.5703C12.5898 14.5813 12.5048 14.5758 12.4232 14.5539L8.28322 13.4448C8.20166 13.4229 8.12521 13.3852 8.05824 13.3338C7.99126 13.2823 7.93508 13.2182 7.89289 13.1451C7.85071 13.0719 7.82334 12.9912 7.81237 12.9074C7.8014 12.8237 7.80703 12.7386 7.82894 12.6571Z"
      fill="currentColor"
    />
    <path
      fill-rule="evenodd"
      clip-rule="evenodd"
      d="M14.143 20.5603L5.86382 18.3429C5.26006 18.181 4.74534 17.7859 4.43286 17.2445C4.12037 16.7031 4.03573 16.0598 4.19753 15.456L6.97039 5.106C7.13229 4.50225 7.52738 3.98752 8.06876 3.67504C8.61014 3.36256 9.25346 3.27791 9.85725 3.43972L18.1372 5.65715C18.741 5.81905 19.2557 6.21414 19.5682 6.75552C19.8807 7.29689 19.9653 7.94022 19.8035 8.54401L17.0298 18.8931C16.8679 19.4969 16.4728 20.0116 15.9314 20.3241C15.3901 20.6366 14.7467 20.7221 14.143 20.5603ZM5.43867 15.7886C5.40225 15.9245 5.39296 16.0663 5.41133 16.2058C5.42969 16.3453 5.47536 16.4798 5.54572 16.6017C5.61608 16.7235 5.70976 16.8303 5.8214 16.916C5.93305 17.0016 6.06047 17.0645 6.19639 17.1009L14.4764 19.3191C14.7507 19.3925 15.0428 19.354 15.2887 19.2121C15.5346 19.0701 15.7141 18.8365 15.7878 18.5623L18.5615 8.21143C18.598 8.07552 18.6072 7.93375 18.5889 7.79424C18.5705 7.65473 18.5248 7.52021 18.4545 7.39835C18.3841 7.27649 18.2904 7.16968 18.1788 7.08403C18.0672 6.99838 17.9397 6.93555 17.8038 6.89915L9.52296 4.68001C9.24858 4.6067 8.95632 4.64534 8.71041 4.78742C8.4645 4.9295 8.28507 5.1634 8.21153 5.43772L5.43867 15.7886Z"
      fill="currentColor"
    />
  </g>
  <defs>
    <clipPath id="clip0_1674_8717">
      <rect width="24" height="24" fill="currentColor" />
    </clipPath>
  </defs>
</svg>
