<svg viewBox="0 0 48 48" fill="none" xmlns="http://www.w3.org/2000/svg">
  <path
    d="M14.7412 24.9043C18.0379 24.9043 19.7666 27.6184 19.7666 31.498C19.7666 36.3626 18.5001 37.6494 16.9121 37.6494C16.1082 37.6493 15.485 36.9455 15.2236 35.9004C14.8015 36.9858 14.0373 37.5684 13.1328 37.5684C11.7863 37.5681 11.002 36.2217 11.002 34.1113C11.002 31.4782 12.3288 29.1059 13.9971 29.1055C14.7207 29.1055 15.2638 29.5083 15.4648 30.1113L15.5859 29.126H16.9932C16.6916 31.9402 16.4697 33.7697 16.4697 34.7949C16.4698 35.7795 16.7715 36.2821 17.1533 36.2822C17.877 36.2822 18.3594 35.1163 18.3594 31.5986C18.3594 28.3422 17.2541 26.3116 14.6611 26.3115C12.0078 26.3115 9.91707 28.8846 9.91699 34.2314C9.91699 38.2518 11.3445 40.0215 13.6562 40.0215C14.42 40.0214 15.3042 39.7593 16.1885 39.2568L16.7109 40.584C15.6457 41.1266 14.6604 41.3877 13.6152 41.3877C10.6404 41.3875 8.50979 39.2771 8.50977 34.252C8.50977 28.0406 11.1832 24.9044 14.7412 24.9043ZM27.4375 39.1768H24.9453V36.7246H27.4375V39.1768ZM39.4902 39.1768H36.998V36.7246H39.4902V39.1768ZM14.1787 30.4727C13.2943 30.4727 12.5703 32.1411 12.5703 33.9502C12.5703 35.3973 12.932 36.3219 13.6152 36.3223C14.4796 36.3223 15.2441 34.4931 15.2441 32.4629C15.2441 31.1363 14.8821 30.4728 14.1787 30.4727ZM27.0557 29.5283C27.0556 31.1365 26.8755 33.5686 26.7549 34.9756H25.6484C25.5278 33.5686 25.3272 31.1365 25.3271 29.5283V24.9043H27.0557V29.5283ZM39.1084 29.5283C39.1084 31.1365 38.9282 33.5686 38.8076 34.9756H37.7012C37.5806 33.5686 37.3799 31.1365 37.3799 29.5283V24.9043H39.1084V29.5283ZM14.7412 6.6123C18.0378 6.6123 19.7665 9.32563 19.7666 13.2051C19.7666 18.0697 18.5001 19.3564 16.9121 19.3564C16.1081 19.3563 15.4849 18.6526 15.2236 17.6074C14.8015 18.6929 14.0374 19.2764 13.1328 19.2764C11.7862 19.2761 11.002 17.9289 11.002 15.8184C11.0021 13.1854 12.3289 10.8139 13.9971 10.8135C14.7207 10.8135 15.2638 11.2154 15.4648 11.8184L15.5859 10.833H16.9932C16.6917 13.6471 16.4698 15.4767 16.4697 16.502C16.4697 17.4868 16.7715 17.9891 17.1533 17.9893C17.877 17.9893 18.3594 16.8235 18.3594 13.3057C18.3593 10.0494 17.254 8.01965 14.6611 8.01953C12.0077 8.01953 9.91699 10.5924 9.91699 15.9395C9.91703 19.9597 11.3446 21.7285 13.6562 21.7285C14.42 21.7284 15.3042 21.4672 16.1885 20.9648L16.7109 22.291C15.6456 22.8337 14.6605 23.0957 13.6152 23.0957C10.6404 23.0955 8.50977 20.9842 8.50977 15.959C8.50988 9.74786 11.1833 6.61236 14.7412 6.6123ZM26.7939 6.6123C30.0905 6.6123 31.8192 9.32563 31.8193 13.2051C31.8193 18.0697 30.5529 19.3564 28.9648 19.3564C28.1609 19.3563 27.5377 18.6526 27.2764 17.6074C26.8542 18.6929 26.0901 19.2764 25.1855 19.2764C23.8389 19.2761 23.0547 17.9289 23.0547 15.8184C23.0548 13.1854 24.3816 10.8139 26.0498 10.8135C26.7734 10.8135 27.3165 11.2154 27.5176 11.8184L27.6387 10.833H29.0459C28.7444 13.6471 28.5225 15.4767 28.5225 16.502C28.5225 17.4868 28.8242 17.9891 29.2061 17.9893C29.9297 17.9893 30.4121 16.8235 30.4121 13.3057C30.412 10.0494 29.3068 8.01965 26.7139 8.01953C24.0604 8.01953 21.9697 10.5924 21.9697 15.9395C21.9698 19.9597 23.3973 21.7285 25.709 21.7285C26.4727 21.7284 27.357 21.4672 28.2412 20.9648L28.7637 22.291C27.6983 22.8337 26.7132 23.0957 25.668 23.0957C22.6931 23.0955 20.5625 20.9842 20.5625 15.959C20.5626 9.74786 23.2361 6.61236 26.7939 6.6123ZM39.4902 20.8848H36.998V18.4316H39.4902V20.8848ZM14.1787 12.1807C13.2942 12.1807 12.5703 13.849 12.5703 15.6582C12.5704 17.1051 12.9321 18.0299 13.6152 18.0303C14.4796 18.0303 15.2441 16.2002 15.2441 14.1699C15.2441 12.8436 14.882 12.1808 14.1787 12.1807ZM26.2314 12.1807C25.347 12.1807 24.623 13.849 24.623 15.6582C24.6231 17.1051 24.9848 18.0299 25.668 18.0303C26.5323 18.0303 27.2969 16.2002 27.2969 14.1699C27.2968 12.8436 26.9348 12.1808 26.2314 12.1807ZM39.1084 11.2354C39.1084 12.8433 38.9282 15.2754 38.8076 16.6826H37.7012C37.5806 15.2754 37.3799 12.8433 37.3799 11.2354V6.6123H39.1084V11.2354Z"
    fill="currentColor"
  />
</svg>
