<svg
  width="25"
  height="25"
  viewBox="0 0 25 25"
  fill="none"
  xmlns="http://www.w3.org/2000/svg"
>
  <path
    d="M20.4883 7.16489C19.8994 7.43258 19.2646 7.60849 18.6068 7.69262C19.2799 7.28726 19.7999 6.64481 20.0447 5.87235C19.4099 6.25476 18.7063 6.52244 17.9644 6.67541C17.3602 6.01766 16.5112 5.63525 15.5476 5.63525C13.7502 5.63525 12.2818 7.10371 12.2818 8.91632C12.2818 9.17636 12.3124 9.42875 12.3659 9.66585C9.64316 9.52818 7.21868 8.22034 5.60492 6.23946C5.32193 6.7213 5.16132 7.28726 5.16132 7.88382C5.16132 9.0234 5.73494 10.033 6.62212 10.6066C6.0791 10.6066 5.57432 10.4536 5.13073 10.2242C5.13073 10.2242 5.13073 10.2242 5.13073 10.2471C5.13073 11.8379 6.26266 13.1687 7.7617 13.467C7.48637 13.5435 7.19574 13.5817 6.89746 13.5817C6.69096 13.5817 6.48446 13.5588 6.2856 13.5205C6.69861 14.8131 7.89937 15.7767 9.34488 15.7997C8.22824 16.6869 6.81333 17.207 5.2684 17.207C5.00836 17.207 4.74832 17.1917 4.48828 17.1611C5.94144 18.0941 7.66993 18.6372 9.52079 18.6372C15.5476 18.6372 18.8592 13.6353 18.8592 9.29873C18.8592 9.15342 18.8592 9.01575 18.8516 8.87044C19.494 8.41154 20.0447 7.83028 20.4883 7.16489Z"
    fill="currentColor"
  />
</svg>
