<svg xmlns="http://www.w3.org/2000/svg" width="225" height="200" fill="none" viewBox="0 0 225 200">
  <path
    fill="var(--theme-3, var(--theme-1, #E9E9E2))"
    d="M19.405 193.2h186.826v-7.258h4.918v-9.835h4.894v-9.812h-4.894v-33.244h-19.504v-10.808h-4.998v-9.795h-4.903v-9.789h-4.899v-9.798h-4.89v-9.807h-4.908v-9.78h-4.908v-9.798h-4.89V53.67h-4.917v-9.8h-4.886v-9.792h-4.899v-9.804h-4.96v-4.903h-9.909V14.43h-9.897V9.565h-9.925v4.865h-9.897v4.941h-9.91v4.903h-4.96v9.804h-4.898v9.792h-4.886v9.8h-4.917v9.806h-4.89v9.798H58.59v9.78h-4.908v9.807h-4.89v9.798h-4.9v9.789H38.99v9.795H33.99v10.808H14.487v33.244H9.594v9.812h4.893v9.835h4.918v7.258Z"
  />
  <path
    fill="var(--theme-1, var(--theme-1, #E9E9E2))"
    fill-rule="evenodd"
    d="M89.951 31.217h45.104v2.998h3.942v8.252h-4.572v20.025h-5.049V45.177h-33.65v17.315h-5.048V45.177h-.02v-2.71h-4.685v-8.252h3.978v-2.998Zm.71 9.272h43.648v-4.583H90.661v4.583Zm9.841 22.003h-4.689v4.689h4.689v-4.689Zm.001 4.688h4.689v4.688h-4.689V67.18Zm9.379 4.689h-4.689v11.235h4.689V71.87Zm5.429 0h4.688v11.145h4.687v4.688h-4.688v-4.598h-4.687V71.87Zm9.377-9.377h4.688v4.689h-4.688v-4.689Zm-.002 4.688h-4.688v4.688h4.688V67.18Zm-9.745-9.781h4.689v4.688h-4.689V57.4Zm-4.686 0h-4.689v4.688h4.685v4.688h4.689v-4.688h-4.685v-4.688Zm-16.297 53.498h-3.275V92.392h5.049v13.839h4.771v-4.463h24.183v4.463h4.69v-13.84h5.049v16.656h4.574v8.252h-4.428v2.998H90.618v-2.998h-4.644v-8.252h4.689v6.561h43.647v-4.711h-3.079v.022H93.958v-.022Zm1.855-18.506h4.689v-4.688h-4.689v4.688Zm9.379-4.689h-4.689v-4.688h4.689v4.688Zm24.184 4.69h-4.688v-4.69h4.688v4.69Zm-9.746 9.376h-4.689v-4.689h4.689v4.689Zm-14.064 0h9.374v-9.377h-4.689v4.688h-4.685v4.689Z"
    clip-rule="evenodd"
  />
  <path
    fill="var(--theme-2, var(--theme-1, #E9E9E2))"
    fill-rule="evenodd"
    d="M142.552 26.626v2.59h1.445v18.25h-4.572v20.026h-5.049v4.689h-4.69v10.522h4.69v4.689h5.049v16.655h4.574v18.252h-4.428v2.998H85.618v-2.998h-4.644v-18.252h4.709V87.392h5.13v-4.69h4.69V72.182h-4.69v-4.69h-5.135V50.178h-.02v-2.71h-4.685V29.215h1.86v-2.589h59.719ZM90.678 62.492h5.049V45.177h33.649v17.315h-4.688v4.689h4.688v-4.69h5.049V42.468h4.572v-8.252h-3.942v-2.998H89.951v2.998h-3.978v8.252h4.685v2.71h.02v17.315Zm-.017-22.003h43.648v-4.583H90.661v4.583ZM120 71.869h-4.688v11.235h4.687v4.598h4.688v-4.688h-4.687V71.869Zm4.689 15.834v4.688h4.688v13.84h-4.69v-4.463h-24.183v4.463h-4.771v-13.84h-5.05v18.506h3.276v.022h37.273v-.022h3.079v4.711H90.663v-6.561h-4.689v8.252h4.644v2.998h43.953v-2.998h4.428v-8.252h-4.574V92.392h-5.049v-4.69h-4.688Zm-19.122 9.376v4.689h9.374v-9.377h-4.689v4.688h-4.685Zm14.064 0h-4.689v4.689h4.689v-4.689Zm.368-25.21h4.688V67.18h-4.688v4.688Zm-19.496-9.377h-4.689v4.689h4.689v-4.689Zm.001 4.688v4.688h4.689V67.18h-4.689Zm4.69 4.689v11.235h4.689V71.87h-4.689Zm-.001 15.833v-4.688h-4.689v4.688h4.689Zm-9.379 0h4.689v4.69h-4.689v-4.69ZM114.941 57.4v4.688h4.689V57.4h-4.689Zm-.001 9.376v-4.688h-4.685v-4.688h-4.689v4.688h4.685v4.688h4.689Z"
    clip-rule="evenodd"
  />
  <g fill="var(--theme-1, var(--theme-1, #E9E9E2))">
    <path
      d="M107.891 4.675v4.9h9.859v-4.9h-9.859ZM83.086 19.376h4.962v4.9h-4.962v-4.9ZM83.086 24.276h-4.898v9.797h-4.899v9.797h-4.898v9.797h-4.899v9.797h-4.898v9.797h-4.899v9.797h-4.898v9.796h-4.899v9.797H39v9.797h-4.898v9.797h-4.899v8.317h4.899v-8.317H39v-9.797h4.898v-9.797h4.899v-9.796h4.898v-9.797h4.899V73.26h4.898v-9.797h4.899v-9.797h4.898V43.87h4.898v-9.797h4.899v-9.797ZM9.61 158.635h4.898v7.696H9.609v-7.696ZM9.61 176.128h-4.9v-9.797h4.9v9.797ZM9.61 176.128h4.898v9.797H9.609v-9.797ZM88.047 14.476h9.922v4.9h-9.922v-4.9ZM107.891 9.575h-9.922v4.9h9.922v-4.9ZM19.406 190.969h186.828v4.903H19.406v-4.903ZM19.406 185.969h-4.898v4.898h4.898v-4.898ZM216.031 176.128h-4.898v9.797h4.898v-9.797ZM216.031 166.331h4.899v9.797h-4.899v-9.797ZM216.031 166.331h-4.898v-7.696h4.898v7.696ZM191.539 122.245h4.899v8.317h-4.899v-8.317ZM186.641 112.448h4.898v9.797h-4.898v-9.797ZM181.742 102.651h4.899v9.797h-4.899v-9.797ZM176.844 92.855h4.898v9.796h-4.898v-9.796ZM171.945 83.058h4.899v9.796h-4.899v-9.796ZM167.047 73.26h4.898v9.798h-4.898V73.26ZM162.148 63.464h4.899v9.797h-4.899v-9.797ZM157.25 53.667h4.898v9.797h-4.898v-9.797ZM152.352 43.87h4.898v9.797h-4.898V43.87ZM147.453 34.073h4.899v9.797h-4.899v-9.797ZM147.453 34.073h-4.898v-9.797h4.898v9.797ZM142.555 19.376h-4.963v4.9h4.963v-4.9ZM137.594 14.476h-9.922v4.9h9.922v-4.9ZM117.75 9.575h9.922v4.9h-9.922v-4.9ZM206.234 185.969h4.899v4.898h-4.899v-4.898Z"
    />
  </g>
  <path
    fill="var(--theme-1, var(--theme-1, #E9E9E2))"
    d="M12.348 130.45h198.945v28.208h-13.69v18.721H26.401v-18.716H12.348V130.45Z"
  />
  <path
    fill="var(--theme-2, var(--theme-1, #E9E9E2))"
    d="M21.404 135.595h5.105v15.315h5.105v2.552H16.3v-2.552h5.105V140.7H16.3v-2.553h5.105v-2.552ZM38.863 135.595h2.553v2.552h-2.553v-2.552Zm2.553 2.552h2.552v5.105h-2.552v2.553h-2.553v-2.553h-2.552v-5.105h2.552v2.553h2.553v-2.553Zm2.552 5.105h2.553v-5.105h2.552v-2.552h5.105v2.552h-2.552v5.105h-2.553v5.105h-2.552v5.105h-2.553v2.553h-5.105v-2.553h2.553v-5.105h2.552v-5.105Zm5.105 5.105h2.553v2.553h2.552v-2.553h2.553v5.105h-2.553v2.553h-2.552v-2.553h-2.553v-5.105Zm2.553 0v-2.552h2.552v2.552h-2.552ZM71.229 135.595H83.99v2.552h2.553v5.105H83.99v2.553h2.553v5.105H83.99v2.552H71.23v-17.867Zm5.105 2.552v5.105h5.105v-5.105h-5.105Zm0 7.658v5.105h5.105v-5.105h-5.105ZM93.793 135.595h10.21v2.552h2.552v15.315h-5.105v-5.105h-5.105v5.105H91.24v-15.315h2.553v-2.552Zm2.552 2.552v7.658h5.105v-7.658h-5.105ZM111.252 135.595h15.315v2.552h-5.105v15.315h-5.105v-15.315h-5.105v-2.552ZM131.263 135.595h15.315v2.552h-5.105v15.315h-5.105v-15.315h-5.105v-2.552ZM151.275 135.595h15.315v2.552h-10.21v5.105h7.657v2.553h-7.657v5.105h10.21v2.552h-15.315v-17.867ZM171.286 135.595h12.763v2.552h2.552v5.105h-2.552v5.105h2.552v5.105h-5.105v-5.105h-2.552v-2.552h-2.553v7.657h-5.105v-17.867Zm5.105 2.552v5.105h5.105v-5.105h-5.105ZM191.298 135.595h5.105v7.657h5.105v-7.657h5.105v7.657h-2.553v2.553h-2.552v7.657h-5.105v-7.657h-2.553v-2.553h-2.552v-7.657ZM30.248 161.785h6.607v1.652h1.652v1.652h-3.304v-1.652H31.9v3.303h4.955v1.652h1.652v3.304h-1.652v1.651h-6.607v-1.651h-1.652v-1.652H31.9v1.652h3.303v-3.304h-4.955v-1.652h-1.652v-3.303h1.652v-1.652ZM41.546 161.785h3.303v9.911h3.304v-9.911h3.303v9.911h-1.651v1.651h-6.607v-1.651h-1.652v-9.911ZM54.496 161.785h8.258v1.652h1.652v3.303h-1.652v3.304h1.652v3.303h-3.304v-3.303h-1.651v-1.652h-1.652v4.955h-3.303v-11.562Zm3.303 1.652v3.303h3.303v-3.303H57.8ZM67.445 161.785h3.304v6.607h3.303v-6.607h3.304v6.607h-1.652v3.304h-1.652v1.651H70.75v-1.651h-1.652v-3.304h-1.652v-6.607ZM80.395 161.785h6.607v1.652H85.35v8.259h1.652v1.651h-6.607v-1.651h1.652v-8.259h-1.652v-1.652ZM90.041 161.785h3.303v6.607h3.304v-6.607h3.303v6.607H98.3v3.304h-1.652v1.651h-3.303v-1.651h-1.652v-3.304H90.04v-6.607ZM104.642 161.785h6.607v1.652h1.652v8.259h-1.652v1.651h-6.607v-1.651h-1.651v-8.259h1.651v-1.652Zm1.652 1.652v8.259h3.304v-8.259h-3.304ZM115.94 161.785h8.259v1.652h1.652v3.303h-1.652v3.304h1.652v3.303h-3.304v-3.303h-1.651v-1.652h-1.652v4.955h-3.304v-11.562Zm3.304 1.652v3.303h3.303v-3.303h-3.303ZM130.542 161.785h6.607v1.652h1.651v1.652h-3.303v-1.652h-3.304v3.303h4.956v1.652h1.651v3.304h-1.651v1.651h-6.607v-1.651h-1.652v-1.652h3.303v1.652h3.304v-3.304h-4.955v-1.652h-1.652v-3.303h1.652v-1.652ZM149.834 161.785h6.607v1.652h1.652v1.652h-3.304v-1.652h-3.303v8.259h3.303v-1.652h3.304v1.652h-1.652v1.651h-6.607v-1.651h-1.652v-8.259h1.652v-1.652ZM161.132 161.785h3.303v9.911h4.956v1.651h-8.259v-11.562ZM172.43 161.785h3.303v9.911h3.304v-9.911h3.303v9.911h-1.651v1.651h-6.607v-1.651h-1.652v-9.911ZM185.379 161.785h8.259v1.652h1.652v3.303h-1.652v1.652h1.652v3.304h-1.652v1.651h-8.259v-11.562Zm3.304 1.652v3.303h3.303v-3.303h-3.303Zm0 4.955v3.304h3.303v-3.304h-3.303Z"
  />
  <defs>
    <filter
      id="filter0_d_1313_11512"
      width="224.219"
      height="199.197"
      x=".711"
      y=".675"
      color-interpolation-filters="sRGB"
      filterUnits="userSpaceOnUse"
    >
      <feFlood flood-opacity="0" result="BackgroundImageFix" />
      <feColorMatrix
        in="SourceAlpha"
        result="hardAlpha"
        values="0 0 0 0 0 0 0 0 0 0 0 0 0 0 0 0 0 0 127 0"
      />
      <feOffset />
      <feGaussianBlur stdDeviation="2" />
      <feComposite in2="hardAlpha" operator="out" />
      <feColorMatrix values="0 0 0 0 0 0 0 0 0 0 0 0 0 0 0 0 0 0 0.25 0" />
      <feBlend in2="BackgroundImageFix" result="effect1_dropShadow_1313_11512" />
      <feBlend in="SourceGraphic" in2="effect1_dropShadow_1313_11512" result="shape" />
    </filter>
  </defs>
</svg>
