<svg xmlns="http://www.w3.org/2000/svg" width="116" height="118" fill="none" viewBox="0 0 116 118">
  <path
    fill="var(--main-theme-2, #383938)"
    d="M103.632 58.81c-1.427 19.74-15.311 35.591-33.407 40.45a45.15 45.15 0 0 1-14.992 1.41c-15.128-1.087-27.984-9.502-35.338-21.524a44.997 44.997 0 0 1-6.53-26.864 44.75 44.75 0 0 1 1.127-7.269 53.281 53.281 0 0 0 27.025-12.532 53.306 53.306 0 0 0 15.227-22.153 44.982 44.982 0 0 1 5.02.085c24.925 1.797 43.665 23.472 41.868 48.397Z"
  />
  <path
    fill="var(--main-theme-2, #383938)"
    d="M41.521 32.477A54.938 54.938 0 0 1 13.847 48.23a50.448 50.448 0 0 1-3.963.753 54.79 54.79 0 0 1-4.538.5c.15-1.315.348-2.6.59-3.875 2.91.026 5.774-.174 8.562-.6a53.278 53.278 0 0 0 27.023-12.532Z"
  />
  <g filter="url(#buka_a)">
    <path
      fill="var(--main-theme-1, #E9E9E2)"
      d="M111.86 59.396c-1.665 22.893-17.481 41.369-38.264 47.485a53.381 53.381 0 0 1-18.957 2.016c-20.519-1.484-37.496-14.35-45.19-31.975-3.358-7.688-4.954-16.286-4.312-25.237.055-.733.13-1.475.204-2.197 1.53-.11 3.051-.268 4.538-.5a50.576 50.576 0 0 0 3.964-.754 44.196 44.196 0 0 0-.477 4.047 44.982 44.982 0 0 0 6.53 26.864c7.354 12.023 20.21 20.437 35.338 21.523a45.099 45.099 0 0 0 14.991-1.41c18.096-4.858 31.981-20.71 33.407-40.448 1.797-24.925-16.944-46.6-41.868-48.398a44.993 44.993 0 0 0-5.02-.085A53.28 53.28 0 0 1 41.517 32.48a53.28 53.28 0 0 1-27.023 12.532 53.678 53.678 0 0 1-8.562.6l7.254-5.95 4.502-3.692v-.01l25.956-21.315 3.589-2.944 8.54-7.001v-.01l3.216-2.642a58.87 58.87 0 0 1 3.37.136c29.461 2.134 51.627 27.751 49.501 57.212Z"
    />
  </g>
  <path
    fill="var(--main-theme-1, #E9E9E2)"
    d="M58.493 24.558h.015a.718.718 0 0 1 0 1.435h-.014a.718.718 0 0 1 0-1.435Zm3.6.92a.718.718 0 0 1 .811-.61l.015.002a.718.718 0 1 1-.203 1.422l-.014-.002a.718.718 0 0 1-.61-.812Zm-7.183 0a.718.718 0 0 1-.61.812l-.014.002a.718.718 0 1 1-.203-1.422l.014-.002a.718.718 0 0 1 .812.61Zm11.426.812a.718.718 0 0 1 .89-.487l.014.005a.718.718 0 1 1-.404 1.377l-.013-.004a.718.718 0 0 1-.487-.89Zm-15.67 0a.718.718 0 0 1-.487.891l-.014.004a.718.718 0 1 1-.404-1.377l.014-.005c.38-.111.78.107.891.488Zm19.752 1.413a.72.72 0 0 1 .952-.355l.013.006a.718.718 0 0 1-.598 1.306l-.012-.006a.718.718 0 0 1-.355-.951Zm3.839 1.982a.718.718 0 0 1 .992-.215l.012.008a.718.718 0 0 1-.777 1.206l-.012-.007a.718.718 0 0 1-.215-.992Zm3.517 2.508a.718.718 0 0 1 1.013-.072l.01.01a.718.718 0 0 1-.94 1.084l-.01-.01a.718.718 0 0 1-.073-1.012Zm3.126 2.981a.718.718 0 0 1 1.013.072l.01.011a.718.718 0 0 1-1.085.94l-.01-.01a.718.718 0 0 1 .073-1.013Zm2.674 3.394a.718.718 0 0 1 .992.214l.008.013a.718.718 0 1 1-1.207.777l-.008-.012a.718.718 0 0 1 .215-.992Zm2.164 3.739a.718.718 0 0 1 .951.354l.006.013a.718.718 0 1 1-1.305.597l-.006-.013a.718.718 0 0 1 .354-.951Zm-54.474 0c.36.165.519.59.354.951l-.006.013a.718.718 0 1 1-1.306-.597l.006-.013a.718.718 0 0 1 .952-.354Zm56.081 4.009c.38-.111.78.107.891.487l.004.014a.718.718 0 1 1-1.377.404l-.004-.013a.718.718 0 0 1 .486-.892Zm-57.689 0a.72.72 0 0 1 .487.892l-.004.013a.718.718 0 0 1-1.378-.404l.005-.014a.718.718 0 0 1 .89-.486Zm58.705 4.2a.718.718 0 0 1 .812.609l.002.014a.718.718 0 1 1-1.421.203l-.002-.014a.718.718 0 0 1 .61-.813Zm-59.721 0c.393.056.666.42.61.812l-.002.014a.718.718 0 0 1-1.422-.203l.002-.014a.718.718 0 0 1 .812-.61Zm60.128 4.302c.397 0 .718.321.718.717v.015a.718.718 0 1 1-1.436 0v-.014c0-.397.322-.718.718-.718Zm-60.534 0c.396 0 .717.321.717.718v.014a.718.718 0 0 1-1.435 0v-.015c0-.396.321-.717.718-.717Zm60.332 4.317a.718.718 0 0 1 .61.811l-.003.015a.718.718 0 1 1-1.421-.203l.002-.014a.718.718 0 0 1 .812-.61Zm-60.13 0a.718.718 0 0 1 .812.61l.002.013a.718.718 0 1 1-1.422.203l-.002-.015a.718.718 0 0 1 .61-.811Zm59.317 4.243c.38.111.599.51.487.89l-.004.014a.718.718 0 1 1-1.377-.404l.004-.013a.718.718 0 0 1 .89-.487Zm-58.505 0c.38-.112.78.106.891.487l.004.013a.718.718 0 1 1-1.378.404l-.004-.014a.718.718 0 0 1 .488-.89Zm57.093 4.082c.36.165.52.591.354.952l-.006.013a.718.718 0 0 1-1.305-.598l.006-.012c.165-.36.59-.52.951-.355Zm-55.681 0a.718.718 0 0 1 .952.355l.006.012a.718.718 0 1 1-1.306.598l-.006-.013a.718.718 0 0 1 .355-.952Zm53.699 3.839c.333.214.43.658.215.992l-.008.012a.718.718 0 1 1-1.207-.777l.008-.012a.718.718 0 0 1 .992-.215Zm-2.509 3.517c.3.26.333.713.073 1.013l-.01.01a.718.718 0 1 1-1.084-.94l.01-.01a.718.718 0 0 1 1.012-.073Zm-2.98 3.127c.26.3.227.752-.072 1.012l-.011.01a.718.718 0 1 1-.94-1.085l.01-.01a.718.718 0 0 1 1.013.073Zm-3.394 2.673a.718.718 0 0 1-.215.992l-.012.008a.718.718 0 0 1-.777-1.207l.012-.008a.718.718 0 0 1 .992.215Zm-3.739 2.164a.718.718 0 0 1-.354.951l-.013.006a.718.718 0 0 1-.597-1.305l.012-.006a.718.718 0 0 1 .952.354Zm-26.472 0a.718.718 0 0 1 .951-.354l.013.006a.718.718 0 0 1-.597 1.305l-.013-.006a.718.718 0 0 1-.354-.951Zm4.01 1.607a.718.718 0 0 1 .89-.487l.014.004a.718.718 0 1 1-.404 1.378l-.014-.004a.718.718 0 0 1-.486-.89Zm18.452 0a.718.718 0 0 1-.487.891l-.014.004a.718.718 0 1 1-.403-1.378l.013-.004c.38-.111.78.107.891.487Zm-14.253 1.016a.718.718 0 0 1 .812-.609l.014.002a.718.718 0 1 1-.203 1.421l-.014-.002a.718.718 0 0 1-.61-.812Zm10.054 0a.718.718 0 0 1-.61.812l-.014.002a.718.718 0 1 1-.202-1.421l.014-.002a.718.718 0 0 1 .812.61Zm-5.752.407c0-.397.321-.718.718-.718h.014a.718.718 0 1 1 0 1.436h-.015a.718.718 0 0 1-.717-.718Zm.716-57.088h.016a.718.718 0 1 1 0 1.436h-.016a.718.718 0 0 1 0-1.436Zm-3.812.985a.718.718 0 0 1-.584.831l-.015.003a.718.718 0 0 1-.248-1.415l.015-.002a.718.718 0 0 1 .831.583Zm7.64 0a.718.718 0 0 1 .831-.583l.016.003a.718.718 0 0 1-.249 1.414l-.014-.003a.718.718 0 0 1-.584-.83ZM50.251 30.76a.718.718 0 0 1-.43.92l-.013.004a.718.718 0 1 1-.491-1.349l.014-.005a.718.718 0 0 1 .92.43Zm16.498 0a.718.718 0 0 1 .92-.43l.014.005a.718.718 0 0 1-.492 1.35l-.013-.006a.718.718 0 0 1-.43-.92Zm-20.675 1.81a.718.718 0 0 1-.262.98l-.013.008a.718.718 0 0 1-.72-1.242l.014-.008a.718.718 0 0 1 .981.262Zm24.852 0a.718.718 0 0 1 .98-.262l.014.008a.718.718 0 0 1-.72 1.242l-.012-.007a.718.718 0 0 1-.262-.981Zm3.797 2.51a.718.718 0 0 1 1.012-.088l.012.01a.718.718 0 1 1-.924 1.099l-.011-.01a.718.718 0 0 1-.089-1.011Zm-32.447 0a.718.718 0 0 1-.088 1.011l-.011.01a.718.718 0 0 1-.924-1.1l.012-.01a.718.718 0 0 1 1.011.089Zm35.754 3.129a.718.718 0 0 1 1.012.087l.01.012a.718.718 0 0 1-1.1.923l-.01-.01a.718.718 0 0 1 .088-1.012Zm-39.06 0a.718.718 0 0 1 .087 1.011l-.01.011a.718.718 0 0 1-1.099-.923l.01-.012a.718.718 0 0 1 1.011-.087Zm41.776 3.653a.718.718 0 0 1 .981.261l.008.014a.718.718 0 1 1-1.243.718l-.007-.012a.718.718 0 0 1 .261-.981Zm-44.493 0c.343.198.46.637.262.98l-.008.013a.718.718 0 1 1-1.242-.718l.007-.014a.718.718 0 0 1 .981-.261Zm-2.041 4.069a.718.718 0 0 1 .429.92l-.005.014a.718.718 0 0 1-1.35-.49l.006-.015a.718.718 0 0 1 .92-.429Zm48.575 0a.718.718 0 0 1 .92.429l.006.014a.718.718 0 0 1-1.35.491l-.004-.014a.718.718 0 0 1 .428-.92Zm-49.873 4.363c.39.068.652.44.583.83l-.002.015a.718.718 0 1 1-1.414-.247l.002-.016a.718.718 0 0 1 .831-.582Zm51.171 0a.718.718 0 0 1 .832.583l.002.015a.718.718 0 1 1-1.414.247l-.003-.014a.718.718 0 0 1 .583-.831Zm-51.688 4.524c.396 0 .717.321.717.718v.015a.718.718 0 1 1-1.435 0v-.016c0-.396.321-.717.718-.717Zm52.206 0c.397 0 .718.32.718.717v.016a.718.718 0 0 1-1.436 0v-.015c0-.397.322-.718.718-.718Zm-51.939 4.546a.718.718 0 0 1 .83.583l.003.015a.718.718 0 1 1-1.414.248l-.002-.015a.718.718 0 0 1 .583-.831Zm51.672 0c.39.068.651.44.583.83l-.002.016a.718.718 0 1 1-1.415-.248l.003-.015a.718.718 0 0 1 .83-.583Zm-50.62 4.428a.718.718 0 0 1 .92.43l.005.013a.718.718 0 0 1-1.349.492l-.005-.015a.718.718 0 0 1 .429-.92Zm49.568 0a.718.718 0 0 1 .429.92l-.005.014a.718.718 0 0 1-1.35-.491l.006-.014a.718.718 0 0 1 .92-.43Zm-47.757 4.177a.718.718 0 0 1 .98.262l.008.013a.718.718 0 0 1-1.243.72l-.008-.014a.718.718 0 0 1 .263-.981Zm45.946 0c.343.199.46.638.262.98l-.008.014a.718.718 0 1 1-1.242-.72l.007-.012a.718.718 0 0 1 .981-.262Zm-2.51 3.798a.718.718 0 0 1 .089 1.011l-.01.012a.718.718 0 0 1-1.1-.924l.01-.01a.718.718 0 0 1 1.011-.09Zm-3.129 3.306a.718.718 0 0 1-.087 1.012l-.012.01a.718.718 0 1 1-.923-1.1l.011-.01a.718.718 0 0 1 1.011.088Zm-3.653 2.717a.718.718 0 0 1-.261.98l-.014.009a.718.718 0 0 1-.718-1.243l.013-.008a.718.718 0 0 1 .98.262Zm-27.363 0a.718.718 0 0 1 .981-.262l.013.008a.718.718 0 1 1-.719 1.243l-.013-.008a.718.718 0 0 1-.262-.981Zm4.07 2.04a.718.718 0 0 1 .92-.428l.014.005a.718.718 0 0 1-.49 1.35l-.015-.006a.718.718 0 0 1-.43-.92Zm19.224 0a.718.718 0 0 1-.429.921l-.015.005a.718.718 0 0 1-.49-1.349l.014-.005a.718.718 0 0 1 .92.429ZM53.25 81.129a.718.718 0 0 1 .831-.583l.015.002a.718.718 0 0 1-.248 1.415l-.015-.003a.718.718 0 0 1-.583-.831Zm10.5 0a.718.718 0 0 1-.583.83l-.016.004a.718.718 0 1 1-.247-1.415l.014-.002a.718.718 0 0 1 .831.583Zm-5.976.518c0-.397.322-.718.718-.718h.015a.718.718 0 1 1 0 1.436h-.015a.718.718 0 0 1-.718-.718Z"
  />
  <path
    fill="var(--main-theme-1, #E9E9E2)"
    fill-rule="evenodd"
    d="M81.007 53.873C80.2 42.266 70.53 33.1 58.719 33.1c-12.34 0-22.342 10.002-22.342 22.342a22.475 22.475 0 0 0 .454 4.502c2.083 10.18 11.09 17.84 21.888 17.84 12.339 0 22.342-10.004 22.342-22.343 0-.527-.018-1.05-.054-1.568ZM66.334 35.965a20.8 20.8 0 0 1 1.741.775 6.901 6.901 0 0 0 9.344 9.343c.284.567.543 1.148.776 1.743a8.555 8.555 0 1 1-11.861-11.861Zm10.397 8.858a21.01 21.01 0 0 0-7.395-7.395 5.465 5.465 0 0 0 7.395 7.395ZM64.69 35.4a9.953 9.953 0 0 0-2.597 3.31c-2.419 4.958-.36 10.938 4.6 13.357 4.225 2.061 9.194.87 12.067-2.597.064.214.124.43.181.647a11.608 11.608 0 0 1-2.306 3.849c-4.302 4.778-11.663 5.164-16.441.861-4.779-4.302-5.164-11.663-.862-16.44a11.59 11.59 0 0 1 4.711-3.168c.217.057.433.117.647.18Zm8.01 26.355a14.68 14.68 0 0 0 6.444-8.757c-.413.674-.894 1.32-1.442 1.929-4.833 5.367-13.102 5.8-18.47.968-5.367-4.833-5.8-13.102-.967-18.47a13.084 13.084 0 0 1 2.908-2.417 14.724 14.724 0 0 0-4.084 1.764c-6.899 4.311-8.997 13.398-4.686 20.297 4.31 6.9 13.398 8.998 20.297 4.686ZM56.866 35.233c-.18.104-.36.211-.538.322-7.571 4.732-9.874 14.705-5.143 22.276 4.731 7.572 14.705 9.874 22.276 5.143a16.094 16.094 0 0 0 5.469-5.681c-1.648 5.69-6.096 10.434-12.21 12.187-9.46 2.713-19.328-2.757-22.04-12.216-2.71-9.45 2.745-19.306 12.186-22.03ZM67.115 70.86a19.195 19.195 0 0 0 11.599-9.293c-2.619 8.558-10.58 14.781-19.995 14.781-11.547 0-20.907-9.36-20.907-20.906 0-9.406 6.213-17.362 14.758-19.987-7.739 4.221-11.801 13.377-9.27 22.205 2.93 10.221 13.593 16.131 23.815 13.2Z"
    clip-rule="evenodd"
  />
  <path
    fill="var(--main-theme-1, #E9E9E2)"
    d="M33.23 82.035v-6.003h3.43c.316 0 .599.061.85.184.256.122.457.294.603.516.146.222.219.481.219.779 0 .239-.044.452-.131.639a1.29 1.29 0 0 1-.359.463 1.431 1.431 0 0 1-.499.272v.035c.222.046.417.134.586.262.175.128.313.295.412.499.105.198.157.434.157.709 0 .361-.084.665-.253.91a1.514 1.514 0 0 1-.657.551c-.274.123-.58.184-.919.184h-3.438Zm1.304-1.068h1.882c.216 0 .39-.061.525-.184.14-.122.21-.312.21-.568a.835.835 0 0 0-.088-.394.581.581 0 0 0-.262-.254.92.92 0 0 0-.447-.096h-1.82v1.496Zm0-2.511h1.733c.157 0 .289-.03.394-.088a.619.619 0 0 0 .245-.245.727.727 0 0 0 .087-.359c0-.227-.064-.4-.192-.516a.681.681 0 0 0-.49-.175h-1.777v1.383Z"
  />
  <defs>
    <filter
      id="buka_a"
      width="115.004"
      height="114.991"
      x=".996"
      y="2.049"
      color-interpolation-filters="sRGB"
      filterUnits="userSpaceOnUse"
    >
      <feFlood flood-opacity="0" result="BackgroundImageFix" />
      <feColorMatrix
        in="SourceAlpha"
        result="hardAlpha"
        values="0 0 0 0 0 0 0 0 0 0 0 0 0 0 0 0 0 0 127 0"
      />
      <feOffset dy="4" />
      <feGaussianBlur stdDeviation="2" />
      <feComposite in2="hardAlpha" operator="out" />
      <feColorMatrix values="0 0 0 0 0 0 0 0 0 0 0 0 0 0 0 0 0 0 0.25 0" />
      <feBlend in2="BackgroundImageFix" result="effect1_dropShadow_1274_12232" />
      <feBlend in="SourceGraphic" in2="effect1_dropShadow_1274_12232" result="shape" />
    </filter>
  </defs>
</svg>
