<svg xmlns="http://www.w3.org/2000/svg" width="148" height="153" fill="none" viewBox="0 0 148 153">
  <g filter="url(#cmd_a)">
    <path
      fill="var(--theme-1, #E9E9E2)"
      fill-rule="evenodd"
      d="m11.412 83.723-.766 22.481c-.148 11.646 8.088 21.718 19.532 23.885l54.365 10.295c17.997 3.409 35.578-7.636 40.319-25.33l14.075-52.527a29 29 0 0 0-13.059-32.353l-15.353-8.892a16.058 16.058 0 0 0-3.347-.854l-62.793-9.024c-8.105-1.165-15.782 3.978-17.788 11.917L11.726 82.164c-.131.519-.236 1.04-.314 1.56Z"
      clip-rule="evenodd"
    />
  </g>
  <path
    fill="var(--theme-3, #292929)"
    d="m122.977 33.457-12.51-7.512L15.98 84.177l-.47 20.927c-.21 9.289 6.33 17.367 15.459 19.096l54.207 10.266c15.427 2.921 30.497-6.546 34.56-21.712l14.07-52.508a24 24 0 0 0-10.829-26.788Z"
  />
  <path
    fill="var(--theme-2, #383938)"
    d="M31.148 23.54 16.277 82.381c-1.57 6.209 2.476 12.44 8.786 13.534l62.6 10.849a11 11 0 0 0 12.553-8.187l15.065-60.668c1.57-6.32-2.665-12.613-9.111-13.54l-62.793-9.024a11 11 0 0 0-12.23 8.193Z"
  />
  <path
    fill="var(--theme-1, #E9E9E2)"
    d="M49.436 76.055c-4.848-1.002-7.34-4.723-6.35-9.52 1.045-5.055 4.682-7.402 10.625-6.174l3.076.635 1.184-5.734-3.075-.635c-5.943-1.228-8.352-4.824-7.307-9.88.99-4.796 4.754-7.226 9.601-6.224 5.839 1.206 6.962 5.243 6.057 9.622l-.894 4.326 5.734 1.185.894-4.326c.904-4.38 3.535-7.64 9.374-6.434 4.847 1.002 7.34 4.723 6.349 9.52-1.045 5.056-4.682 7.402-10.625 6.174l-3.076-.635-1.184 5.734 3.075.635c5.943 1.228 8.352 4.824 7.307 9.88-.99 4.796-4.753 7.226-9.601 6.224-5.839-1.206-6.961-5.243-6.057-9.622l.894-4.326-5.734-1.185-.894 4.326c-.904 4.38-3.535 7.64-9.373 6.434ZM72.65 49.98l-.915 4.431 3.075.636c3.701.764 5.578-.424 6.192-3.396.635-3.075-.942-4.651-3.392-5.157-2.71-.56-4.41.828-4.96 3.486Zm-17.023 1.103 3.076.635.915-4.43c.55-2.659-.461-4.607-3.172-5.167-2.45-.506-4.522.316-5.157 3.391-.614 2.971.637 4.806 4.338 5.57Zm4.808 10.668 5.734 1.185 1.184-5.734-5.734-1.185-1.184 5.734ZM50.179 72.458c2.71.56 4.41-.828 4.96-3.486l.915-4.431-3.075-.636c-3.701-.764-5.578.424-6.192 3.396-.635 3.075.942 4.651 3.392 5.157Zm17.992-.793c-.55 2.658.461 4.606 3.172 5.166 2.45.506 4.522-.316 5.157-3.391.614-2.971-.637-4.806-4.338-5.571l-3.076-.635-.915 4.43Z"
  />
  <defs>
    <filter
      id="cmd_a"
      width="137.281"
      height="137.762"
      x="6.645"
      y="7.239"
      color-interpolation-filters="sRGB"
      filterUnits="userSpaceOnUse"
    >
      <feFlood flood-opacity="0" result="BackgroundImageFix" />
      <feColorMatrix
        in="SourceAlpha"
        result="hardAlpha"
        values="0 0 0 0 0 0 0 0 0 0 0 0 0 0 0 0 0 0 127 0"
      />
      <feOffset />
      <feGaussianBlur stdDeviation="2" />
      <feComposite in2="hardAlpha" operator="out" />
      <feColorMatrix values="0 0 0 0 0 0 0 0 0 0 0 0 0 0 0 0 0 0 0.25 0" />
      <feBlend in2="BackgroundImageFix" result="effect1_dropShadow_1275_12280" />
      <feBlend in="SourceGraphic" in2="effect1_dropShadow_1275_12280" result="shape" />
    </filter>
  </defs>
</svg>
