<svg width="236" height="241" viewBox="0 0 236 241" fill="none" xmlns="http://www.w3.org/2000/svg">
  <g filter="url(#filter0_d_1316_11806)">
    <path
      fill-rule="evenodd"
      clip-rule="evenodd"
      d="M40.9745 40.2284C40.9745 36.3493 42.6673 32.6618 45.6236 30.1504C48.8952 27.3712 52.8917 24.0044 54.0664 23.1362C54.7409 22.6376 55.4256 22.3646 55.5884 22.2996C55.5956 22.2967 55.6018 22.2943 55.6069 22.2922C55.8963 22.1757 56.1914 22.0734 56.4482 21.989C56.9716 21.817 57.614 21.6286 58.3196 21.4324C59.7455 21.0359 61.6745 20.5397 63.9549 19.9749C68.5286 18.8421 74.684 17.3916 81.4258 15.8362C94.9178 12.7234 110.86 9.16659 121.424 6.84117L122.462 6.61269L122.728 6.65152C131.25 5.14897 150.502 2.9545 164.587 5.62254C168.986 6.45599 172.394 7.44089 174.818 8.66722C176.022 9.27643 177.353 10.1271 178.405 11.368C179.278 12.3993 180.027 13.8058 180.191 15.4758L183.581 33.4136V69.396C187.982 68.1034 191.987 66.0978 196.162 69.2587C197.996 70.6467 200.259 73.8473 200.488 76.2195C200.498 76.317 200.507 76.4099 200.515 76.4979C200.573 77.0855 200.523 81.0764 200.577 81.4988C202.555 80.9906 206.735 79.0539 208.01 80.8399C210.102 83.772 209.018 91.1595 208.283 92.7876C209.304 92.3776 210.383 91.9738 211.486 91.6098C214.446 90.6332 220.941 88.1167 224.604 88.4422C233.53 89.2357 231.296 96.5497 229.627 103.632C229.596 103.76 229.567 103.884 229.539 104.003C229.172 105.569 228.915 106.697 228.8 107.602C228.776 107.791 228.763 107.938 228.757 108.046C230.119 111.259 231.167 115.379 230.868 118.991C230.561 122.701 230.257 124.989 226.844 128.24C220.241 133.39 195.135 139.508 183.582 144.411V163.972L187.14 169.866C192.745 179.151 189.508 191.234 180.012 196.473L130.11 224.002C104.12 238.339 73.1498 240.556 45.3833 230.066C31.4051 224.786 26.37 207.592 35.2913 195.605L41.7724 186.897C41.8917 185.856 42.2564 184.114 43.5236 182.659C44.2405 181.836 45.1224 181.256 45.504 181.007C46.0436 180.655 46.6634 180.294 47.2985 179.943C48.578 179.236 50.198 178.416 51.9627 177.555C54.5713 176.284 56.883 175.334 59.9138 173.948C60.2311 168.152 60.5071 160.497 60.9989 155.972C61.2521 148.81 62.6628 146.712 65.4494 145.145V141.745L25.1411 156.642C19.1926 158.841 12.8785 160.767 8.39551 156.281C4.04116 151.924 3.03465 144.535 5.3637 138.516C7.35683 133.365 12.0165 131.009 17.2879 129.36L55.779 117.325C55.0763 116.647 53.6027 114.711 53.365 113.684C53.365 113.684 53.365 104.783 53.365 100.968L43.7925 88.7164C41.9665 86.3793 40.9745 83.4985 40.9745 80.5325V40.2284ZM228.751 108.284L228.751 108.279C228.752 108.294 228.752 108.296 228.751 108.284Z"
      fill="var(--main-theme-1, currentColor)"
    />
  </g>
  <path
    fill-rule="evenodd"
    clip-rule="evenodd"
    d="M178.121 165.914L180.714 170.209C185.408 177.983 182.697 188.101 174.745 192.488L127.308 218.657C102.811 232.171 73.6186 234.26 47.4462 224.373C37.0831 220.458 33.3502 207.711 39.9642 198.824L46.3661 190.223L138.687 152.733L173.409 164.307L175.976 161.914L177.153 163.612C177.653 164.333 177.971 165.117 178.121 165.914Z"
    fill="#292929"
  />
  <path
    d="M74.2461 90.7027V178.193L132.01 191.884L132.496 85.8105L74.2461 90.7027Z"
    fill="#292929"
  />
  <path
    d="M126.004 185.951L84.0028 173.666C80.0041 172.496 75.6681 172.835 71.8678 174.543L71.5276 174.696C63.1129 178.476 49.2387 184.709 47.9175 186.226C46.0941 188.32 40.1512 197.099 63.1123 204.933C81.4812 211.2 100.3 206.959 107.414 204.055L132.198 192.169L130.633 189.539C129.599 187.8 127.945 186.518 126.004 185.951Z"
    fill="#BABDBE"
  />
  <path
    d="M126.643 186.136L84.0052 173.665C80.0065 172.495 75.6705 172.834 71.8703 174.542L71.5299 174.695C63.1153 178.475 49.2412 184.708 47.9199 186.225C47.0447 187.23 46.3809 194.956 60.862 199.538C79.3662 205.394 96.4853 203.004 103.599 200.1L126.824 187.982C127.623 187.566 127.507 186.389 126.643 186.136Z"
    fill="#E9E9E2"
  />
  <path
    d="M163.516 11.0848C149.823 8.49089 130.192 10.8802 122.602 12.338L164.585 20.313L164.58 20.3153L170.397 30.4471L170.412 30.4433L170.412 172.38L172.194 171.539C175.601 169.932 177.775 166.503 177.775 162.736L177.775 28.5148L177.757 28.5191L174.392 15.5937L174.378 15.6006C174.008 14.1633 171.098 12.5211 163.516 11.0848Z"
    fill="#BABDBE"
  />
  <ellipse cx="77.7799" cy="183.393" rx="6.35018" ry="2.76066" fill="#292929" />
  <ellipse cx="93.2564" cy="187.817" rx="6.35018" ry="2.76066" fill="#292929" />
  <path
    d="M83.928 184.055C84.0599 183.833 84.13 183.601 84.13 183.361C84.13 181.837 81.287 180.601 77.7799 180.601C74.2728 180.601 71.4297 181.837 71.4297 183.361C71.4297 183.6 71.4992 183.831 71.6298 184.052C72.3374 182.863 74.8218 181.984 77.778 181.984C80.7368 181.984 83.223 182.864 83.928 184.055Z"
    fill="#BABDBE"
  />
  <path
    d="M99.4163 188.481C99.5482 188.26 99.6183 188.027 99.6183 187.788C99.6183 186.263 96.7753 185.027 93.2681 185.027C89.761 185.027 86.918 186.263 86.918 187.788C86.918 188.026 86.9874 188.258 87.1181 188.478C87.8256 187.289 90.31 186.411 93.2663 186.411C96.2251 186.411 98.7114 187.291 99.4163 188.481Z"
    fill="#BABDBE"
  />
  <path
    d="M64.1232 190.388C65.5527 189.789 67.151 189.729 68.6212 190.22L80.0005 194.019C80.5606 194.206 80.5898 194.987 80.0452 195.216V195.216C78.6157 195.815 77.0174 195.874 75.5472 195.384L64.1679 191.585C63.6077 191.398 63.5786 190.616 64.1232 190.388V190.388Z"
    fill="#292929"
  />
  <path
    d="M68.6326 190.137C67.1624 189.646 65.5641 189.706 64.1346 190.305C63.7554 190.464 63.6544 190.891 63.817 191.199C65.1811 190.693 66.6798 190.667 68.0646 191.13L79.4439 194.928C79.6141 194.985 79.7352 195.097 79.8062 195.231C79.8902 195.2 79.9737 195.167 80.0566 195.132C80.6012 194.904 80.572 194.123 80.0119 193.936L68.6326 190.137Z"
    fill="#BABDBE"
  />
  <path
    d="M161.82 12.359C149.982 10.1166 130.019 12.5233 123.457 13.7836L162.447 20.3592C162.447 20.3592 163.158 20.2206 167.747 19.0733C172.127 17.9783 174.808 14.8193 161.82 12.359Z"
    fill="#E9E9E2"
  />
  <path
    d="M108.536 100.625V114.005C108.533 114.015 108.53 114.026 108.526 114.037C108.209 115.051 106.311 121.112 85.3089 120.4C67.4116 119.792 60.4466 116.216 59.1962 113.619V98.4596L46.7422 84.8445L132.083 80.5312V88.6462L109.833 100.114C109.846 100.153 109.497 100.354 108.536 100.625Z"
    fill="var(--main-theme-2, currentColor)"
  />
  <path
    d="M59.2134 98.4981L46.7109 84.8535L132.1 79.9561V87.2017L109.472 98.4981C109.514 98.6201 105.94 101.049 90.93 101.538C74.3728 102.078 63.8526 100.317 59.2134 98.4981Z"
    fill="#292929"
  />
  <path
    d="M123.649 13.3842C130.211 12.1239 150.174 9.71717 162.012 11.9596C170.497 13.567 172.294 15.4726 171.299 16.9061C170.527 15.7679 167.855 14.5195 162.012 13.4126C152.183 11.5506 136.751 12.894 128.041 14.125L123.649 13.3842Z"
    fill="var(--main-theme-2, currentColor)"
  />
  <path
    d="M114.243 93.6306L132.024 86.902V192.211L170.394 173.11V72.0419L170.521 30.2085L122.146 19.9698L47.0073 38.4786L46.7969 84.7679C48.753 86.8498 51.8042 88.9524 56.364 90.9166C72.3547 97.8049 99.8005 97.8923 114.243 93.6306Z"
    fill="var(--main-theme-2, currentColor)"
  />
  <path
    d="M110.783 46.4855L170.532 30.2151L166.491 22.6554C165.034 19.9302 162.369 18.0586 159.311 17.6125L122.678 12.2687C101.572 16.9148 58.9926 26.4777 57.5271 27.5608C55.6952 28.9148 46.2074 36.4615 47.0515 38.9939C47.8956 41.5263 51.6942 44.6918 73.9581 47.6462C91.7693 50.0098 105.93 47.8573 110.783 46.4855Z"
    fill="var(--main-theme-2, currentColor)"
  />
  <path
    d="M158.794 21.5157L122.426 15.7002C107.193 18.6224 75.0167 25.3869 67.309 26.984C57.6745 28.9803 59.7577 30.9333 60.8426 31.7144C61.9276 32.4956 66.4845 33.19 78.8531 34.6221C88.7481 35.7679 102.7 35.2105 111.055 33.19L158.794 21.5157Z"
    fill="#E9E9E2"
  />
  <path
    d="M122.183 68.1611C119.775 67.7725 118.127 64.321 118.474 60.295C118.831 56.1538 121.164 52.9729 123.685 53.1902C123.895 53.2083 124.099 53.2493 124.298 53.3118L132.04 54.5687L130.498 70.1027L122.182 68.1739L122.183 68.1611Z"
    fill="#E9E9E2"
  />
  <path
    d="M120.435 59.4808L112.716 62.871C111.838 63.2564 111.241 64.0902 111.159 65.0451C111.034 66.4933 112.074 67.6502 113.351 67.8602L118.887 69.4929L122.988 63.9022C123.412 63.5911 123.73 63.1572 123.899 62.6611L125.785 60.0908L122.229 59.3709L122.223 59.3753C121.666 59.2018 121.04 59.2154 120.435 59.4808Z"
    fill="#E9E9E2"
  />
  <path
    d="M135.85 62.7253C135.48 67.0061 133.069 70.2943 130.463 70.0696C127.857 69.845 126.044 66.1926 126.413 61.9118C126.782 57.631 129.194 54.3428 131.8 54.5675C134.405 54.7922 136.219 58.4445 135.85 62.7253Z"
    fill="#BABDBE"
  />
  <path
    d="M118.864 64.6937L126.584 61.3035C128.369 60.5194 130.343 61.9328 130.175 63.8755C130.095 64.8001 129.523 65.6098 128.678 65.9934L121.001 69.4788C119.176 70.3071 117.135 68.8641 117.307 66.8678C117.389 65.9128 117.987 65.0791 118.864 64.6937Z"
    fill="#BABDBE"
  />
  <path
    d="M169.856 28.9404L110.794 44.9608C105.941 46.3325 91.7803 48.4851 73.9692 46.1215C52.7227 43.3021 48.2925 40.2905 47.1983 37.8203C47.0122 38.2766 46.9544 38.6757 47.0608 38.995C47.905 41.5274 51.7035 44.6929 73.9675 47.6473C91.7786 50.0109 105.939 47.8583 110.793 46.4866L170.539 30.2185L169.856 28.9404Z"
    fill="#292929"
  />
  <path
    d="M85.5355 41.058C85.5355 42.7701 83.9357 44.158 81.9622 44.158C79.9888 44.158 78.389 42.7701 78.389 41.058C78.389 39.3459 79.9888 37.958 81.9622 37.958C83.9357 37.958 85.5355 39.3459 85.5355 41.058Z"
    fill="#292929"
  />
  <path
    d="M66.5468 40.6834C65.3013 42.1888 63.2439 42.5424 61.9515 41.4731C60.6591 40.4038 60.6211 38.3166 61.8667 36.8112C63.1122 35.3057 65.1696 34.9522 66.462 36.0214C67.7544 37.0907 67.7924 39.178 66.5468 40.6834Z"
    fill="#292929"
  />
  <path
    d="M55.0601 36.5238C53.7658 37.8029 52.1877 38.3048 51.5354 37.6447C50.883 36.9846 51.4033 35.4125 52.6976 34.1333C53.9919 32.8542 55.5699 32.3523 56.2223 33.0124C56.8747 33.6725 56.3544 35.2446 55.0601 36.5238Z"
    fill="#292929"
  />
  <path
    d="M122.429 15.7002L158.798 21.5157L153.034 22.9253L122.428 18.0313C109.791 20.4556 85.491 25.5247 73.1769 28.0934C70.6483 28.6209 68.6251 29.043 67.312 29.315C63.5644 30.0916 61.5897 30.8615 60.6396 31.5585C59.5509 30.6947 58.2665 28.8584 67.313 26.984C68.6261 26.7119 70.6494 26.2898 73.1781 25.7623C85.4921 23.1935 109.792 18.1245 122.429 15.7002Z"
    fill="#292929"
  />
  <mask
    id="path-21-outside-1_1316_11806"
    maskUnits="userSpaceOnUse"
    x="67.6067"
    y="58.5152"
    width="160.687"
    height="124.485"
    fill="black"
  >
    <rect fill="white" x="67.6067" y="58.5152" width="160.687" height="124.485" />
    <path
      d="M130.227 121.397C129.723 122.052 129.011 122.736 128.089 123.451C127.167 124.166 126.055 124.76 124.752 125.234C124.064 125.485 123.4 125.648 122.761 125.724C122.122 125.799 121.557 125.77 121.065 125.635C120.574 125.487 120.181 125.218 119.886 124.828C119.603 124.434 119.462 123.903 119.462 123.236V103.305C119.462 102.102 122.233 100.491 127.776 98.474L138.597 94.5354C138.756 94.7781 138.904 95.071 139.039 95.4141C139.174 95.7573 139.285 96.1225 139.371 96.5097C139.457 96.8838 139.525 97.2711 139.574 97.6718C139.623 98.0593 139.647 98.4296 139.647 98.7828C139.647 100.248 139.352 101.473 138.763 102.459C138.173 103.433 137.233 104.154 135.942 104.624L129.564 106.945C129.318 107.035 129.14 107.159 129.029 107.317C128.919 107.474 128.863 107.645 128.863 107.828C128.863 107.854 128.863 107.907 128.863 107.985C128.863 108.05 128.875 108.092 128.9 108.109L137.048 105.143C137.306 105.52 137.527 106.015 137.712 106.628C137.896 107.241 137.988 107.914 137.988 108.646C137.988 109.692 137.865 110.607 137.62 111.39C137.386 112.155 137.134 112.763 136.864 113.214L127.831 116.502C127.733 116.643 127.683 116.778 127.683 116.909C127.683 117.027 127.72 117.105 127.794 117.143C127.88 117.164 128.015 117.154 128.2 117.113C128.396 117.068 128.654 116.987 128.974 116.871C129.306 116.75 129.723 116.605 130.227 116.434V121.397Z"
    />
    <path
      d="M156.386 87.7075C157.074 87.457 157.744 87.3179 158.395 87.29C159.059 87.2447 159.643 87.333 160.147 87.555C160.663 87.7726 161.075 88.1328 161.382 88.6357C161.689 89.1385 161.843 89.8019 161.843 90.6259V101.533C161.843 103.22 161.591 104.803 161.087 106.281C160.583 107.759 159.864 109.107 158.93 110.323C158.008 111.535 156.89 112.602 155.575 113.525C154.272 114.444 152.816 115.197 151.206 115.783C149.498 116.404 147.974 116.737 146.634 116.78C145.295 116.822 144.158 116.582 143.224 116.059C142.302 115.518 141.595 114.69 141.104 113.574C140.624 112.454 140.385 111.044 140.385 109.343V95.3559C140.975 94.6442 141.7 93.9487 142.56 93.2694C143.42 92.5901 144.373 92.0603 145.417 91.6801C146.192 91.3983 146.892 91.2545 147.519 91.2487C148.158 91.2254 148.705 91.3533 149.16 91.6324C149.627 91.9071 149.983 92.3398 150.229 92.9304C150.487 93.5166 150.616 94.2739 150.616 95.2025V106.64C150.739 106.699 150.893 106.696 151.077 106.629C151.249 106.566 151.378 106.473 151.464 106.351C151.55 106.228 151.593 106.022 151.593 105.735V94.8273C151.593 94.3957 151.581 94.0209 151.556 93.7029C151.544 93.3804 151.513 93.0973 151.464 92.8536C151.427 92.6055 151.372 92.3836 151.298 92.1881C151.224 91.9926 151.138 91.8016 151.04 91.6151C151.716 90.7674 152.484 90.0105 153.344 89.3443C154.217 88.6736 155.231 88.128 156.386 87.7075Z"
    />
    <path
      d="M182.139 78.6873C182.299 78.9038 182.446 79.1574 182.582 79.4483C182.717 79.726 182.827 80.0323 182.913 80.3672C182.999 80.689 183.067 81.0241 183.116 81.3724C183.165 81.7076 183.19 82.0322 183.19 82.3461C183.19 83.6931 182.944 84.7831 182.453 85.6159C181.961 86.4488 181.285 87.0218 180.425 87.3349L172.996 90.0389C172.541 90.2044 172.314 90.4768 172.314 90.856C172.314 90.8822 172.314 90.9345 172.314 91.013C172.314 91.0914 172.326 91.1393 172.35 91.1565L181.162 87.9493C181.273 88.1052 181.377 88.3026 181.476 88.5415C181.574 88.7672 181.654 89.0194 181.715 89.2978C181.789 89.5587 181.844 89.8394 181.881 90.1398C181.93 90.4227 181.955 90.7015 181.955 90.9762C181.955 91.7609 181.881 92.4939 181.734 93.1754C181.586 93.8438 181.389 94.4254 181.144 94.9203L177.143 96.3763C176.099 96.7565 175.232 97.1045 174.544 97.4204C173.868 97.7188 173.334 97.9853 172.94 98.22C172.547 98.4546 172.271 98.6599 172.111 98.8358C171.951 98.9985 171.871 99.1388 171.871 99.2565C171.871 99.3611 171.883 99.4547 171.908 99.5373C171.945 99.6155 172.019 99.6671 172.129 99.6922C172.436 99.4758 172.75 99.2702 173.069 99.0754C173.389 98.8806 173.745 98.6921 174.139 98.5097C174.532 98.3142 174.968 98.1162 175.447 97.9156C175.939 97.7105 176.504 97.4917 177.143 97.2591L182.323 95.3737C182.459 95.5337 182.594 95.7199 182.729 95.9323C182.864 96.1316 182.981 96.3833 183.079 96.6876C183.19 96.9743 183.276 97.3223 183.337 97.7315C183.411 98.1362 183.448 98.6198 183.448 99.1822C183.448 99.5353 183.423 99.9235 183.374 100.347C183.325 100.757 183.251 101.176 183.153 101.604C183.055 102.033 182.926 102.452 182.766 102.864C182.606 103.275 182.416 103.651 182.194 103.994L168.387 109.019C167.662 109.283 166.986 109.437 166.359 109.482C165.732 109.514 165.185 109.419 164.718 109.197C164.251 108.961 163.883 108.592 163.612 108.089C163.342 107.573 163.207 106.889 163.207 106.039V87.3829C163.207 86.7551 163.889 86.0491 165.253 85.2649C166.617 84.4806 168.7 83.5786 171.502 82.5587L182.139 78.6873Z"
    />
    <path
      d="M188.647 101.645C187.319 102.128 186.275 102.136 185.513 101.668C184.751 101.186 184.37 100.148 184.37 98.5524V79.3663C185.021 78.5407 185.82 77.7988 186.766 77.1405C187.713 76.4691 188.683 75.9522 189.679 75.5899C190.367 75.3394 191.037 75.1937 191.688 75.1528C192.352 75.1074 192.936 75.1958 193.44 75.4178C193.956 75.6223 194.367 75.976 194.675 76.4788C194.982 76.9817 195.136 77.6451 195.136 78.469V89.1999C194.828 89.3379 194.496 89.5241 194.14 89.7584C193.796 89.9883 193.47 90.2376 193.163 90.5064C192.868 90.7707 192.616 91.0389 192.407 91.3111C192.211 91.5658 192.112 91.7912 192.112 91.9874C192.112 92.1313 192.143 92.2378 192.204 92.307C192.278 92.3586 192.364 92.3992 192.463 92.4288C193.151 91.5637 193.937 90.8523 194.822 90.2949C195.707 89.7374 196.727 89.2484 197.882 88.8279L202.251 87.2377C202.436 87.5107 202.602 87.81 202.749 88.1356C202.896 88.4481 203.019 88.7826 203.118 89.1392C203.228 89.4782 203.314 89.8262 203.376 90.1831C203.437 90.54 203.468 90.8819 203.468 91.2089C203.468 91.6797 203.431 92.177 203.357 92.7009C203.296 93.2071 203.204 93.705 203.081 94.1944C202.958 94.6838 202.81 95.1494 202.638 95.5913C202.466 96.0332 202.27 96.4252 202.048 96.7673L188.647 101.645Z"
    />
    <path
      d="M85.3578 167.276C85.7879 167.015 86.2549 166.63 86.7588 166.119C87.2627 165.609 87.7481 164.902 88.2152 164C88.4241 163.584 88.5285 163.252 88.5285 163.003C88.5285 162.663 88.3688 162.551 88.0492 162.668C88.0247 162.677 88.0001 162.692 87.9755 162.714C87.9632 162.719 87.9448 162.725 87.9202 162.734C87.0476 164.974 85.6528 166.443 83.7356 167.141C83.2563 167.316 82.8077 167.427 82.3898 167.474C81.9843 167.517 81.6033 167.486 81.2469 167.38C80.8905 167.274 80.5525 167.083 80.233 166.807C79.9134 166.531 79.6062 166.159 79.3113 165.691L79.2006 165.731C79.0655 165.781 78.9487 165.856 78.8504 165.957C78.7521 166.058 78.7029 166.194 78.7029 166.364C78.7029 166.586 78.7766 166.795 78.9241 166.989C79.1945 167.362 79.4833 167.662 79.7906 167.89C80.1101 168.114 80.4296 168.285 80.7492 168.405C81.081 168.506 81.4067 168.558 81.7262 168.559C82.0457 168.56 82.3345 168.527 82.5926 168.459L82.4451 172.221C82.1256 172.56 81.7876 172.885 81.4312 173.198C81.0871 173.506 80.6938 173.807 80.2514 174.098C79.809 174.377 79.3051 174.652 78.7398 174.923C78.1867 175.19 77.5477 175.455 76.8226 175.719C76.1344 175.97 75.4154 176.159 74.6657 176.288C73.9161 176.417 73.2278 176.432 72.6011 176.334C71.9743 176.222 71.452 175.98 71.0341 175.609C70.6286 175.234 70.4258 174.66 70.4258 173.888C70.4258 173.483 70.4442 172.927 70.4811 172.22C70.518 171.501 70.5671 170.685 70.6286 169.773C70.7023 168.857 70.7822 167.867 70.8682 166.802C70.9542 165.738 71.0464 164.665 71.1447 163.583C71.243 162.487 71.3414 161.405 71.4397 160.336C71.538 159.267 71.6363 158.27 71.7346 157.345C71.833 156.42 71.919 155.597 71.9927 154.877C72.0787 154.153 72.1525 153.583 72.2139 153.169C72.5703 152.699 72.9759 152.264 73.4306 151.863C73.8853 151.462 74.3585 151.106 74.8501 150.797C75.354 150.47 75.8578 150.188 76.3617 149.952C76.8656 149.704 77.351 149.494 77.8181 149.324C78.6538 149.02 79.471 148.821 80.2699 148.726C81.081 148.627 81.7508 148.638 82.2792 148.76L83.2931 152L82.6479 155.119C82.6233 155.233 82.6049 155.337 82.5926 155.433C82.5803 155.529 82.5742 155.623 82.5742 155.715C82.5742 156.159 82.82 156.305 83.3116 156.153L85.0628 147.766C85.2718 147.572 85.536 147.352 85.8555 147.105C86.1874 146.853 86.5499 146.604 86.9432 146.356C87.3487 146.104 87.785 145.86 88.252 145.625C88.719 145.389 89.1983 145.182 89.6899 145.003C90.5625 144.686 91.3245 144.487 91.9758 144.407C92.6395 144.309 93.1925 144.35 93.6349 144.529C94.0896 144.69 94.446 144.992 94.7041 145.434C94.9622 145.876 95.1343 146.474 95.2203 147.228C95.3063 148.02 95.4108 148.976 95.5337 150.095C95.6689 151.21 95.8041 152.397 95.9392 153.656C96.0744 154.901 96.2096 156.166 96.3448 157.451C96.48 158.736 96.5967 159.949 96.6951 161.09C96.8057 162.214 96.8917 163.216 96.9532 164.096C97.0269 164.971 97.0638 165.625 97.0638 166.057C95.6996 168.083 93.7332 169.564 91.1647 170.499C90.3536 170.794 89.61 170.993 88.9341 171.095C88.2582 171.197 87.6744 171.194 87.1828 171.085C86.7035 170.959 86.3164 170.733 86.0214 170.409C85.7388 170.081 85.5729 169.631 85.5237 169.06L85.3578 167.276Z"
    />
    <path
      d="M101.857 142.713C102.336 142.212 102.877 141.721 103.479 141.24C104.081 140.746 104.714 140.287 105.378 139.862C106.054 139.433 106.748 139.043 107.461 138.692C108.186 138.323 108.911 138.007 109.636 137.743C110.595 137.394 111.541 137.142 112.475 136.985C113.421 136.823 114.282 136.798 115.056 136.909C115.83 137.019 116.494 137.288 117.047 137.714C117.6 138.127 117.975 138.73 118.171 139.522L122.374 156.491C121.809 157.469 121.016 158.391 119.996 159.26C118.976 160.128 117.686 160.846 116.125 161.414C115.437 161.665 114.792 161.834 114.189 161.922C113.587 162.011 113.053 162.016 112.586 161.937C112.131 161.841 111.75 161.659 111.443 161.392C111.148 161.107 110.957 160.719 110.871 160.227L110.466 157.981C110.847 157.829 111.222 157.647 111.59 157.434C111.971 157.204 112.309 156.977 112.604 156.751C112.911 156.509 113.157 156.276 113.341 156.052C113.538 155.823 113.636 155.63 113.636 155.473C113.636 155.264 113.557 155.123 113.397 155.051C113.176 155.301 112.918 155.552 112.623 155.803C112.328 156.041 112.014 156.267 111.682 156.479C111.363 156.687 111.037 156.877 110.705 157.05C110.386 157.206 110.085 157.335 109.802 157.438C109.274 157.63 108.8 157.77 108.383 157.856C107.977 157.926 107.621 157.964 107.313 157.971C107.006 157.978 106.742 157.963 106.521 157.926C106.299 157.876 106.115 157.819 105.968 157.755C105.919 157.838 105.875 157.932 105.839 158.037C105.802 158.129 105.783 158.227 105.783 158.332C105.783 158.528 105.875 158.677 106.06 158.78C106.256 158.866 106.515 158.916 106.834 158.93C107.154 158.931 107.516 158.898 107.922 158.828C108.34 158.755 108.776 158.648 109.231 158.509C109.304 159.398 109.384 160.101 109.47 160.619C109.569 161.119 109.661 161.426 109.747 161.539C109.636 161.801 109.415 162.124 109.083 162.506C108.764 162.871 108.358 163.254 107.866 163.655C107.387 164.052 106.834 164.436 106.207 164.808C105.593 165.176 104.935 165.487 104.235 165.742C103.362 166.059 102.539 166.255 101.765 166.327C100.99 166.4 100.314 166.358 99.7368 166.202C99.1592 166.033 98.6983 165.749 98.3542 165.352C98.0101 164.941 97.838 164.408 97.838 163.754C97.838 163.61 97.8442 163.464 97.8564 163.316C97.8687 163.154 97.8933 162.989 97.9302 162.818L101.857 142.713ZM110.521 149.663C110.386 148.927 110.275 148.34 110.189 147.9C110.115 147.456 110.036 147.132 109.95 146.928C109.876 146.706 109.79 146.581 109.691 146.551C109.605 146.504 109.495 146.505 109.36 146.554C109.274 146.586 109.194 146.628 109.12 146.681C109.046 146.734 108.979 146.784 108.917 146.833L109.618 150.541C109.667 150.575 109.734 150.59 109.82 150.585C109.919 150.575 110.005 150.557 110.079 150.53C110.189 150.49 110.294 150.439 110.392 150.377C110.49 150.302 110.564 150.242 110.613 150.198L110.521 149.663Z"
    />
    <path
      d="M134.08 155.056C132.212 155.735 130.523 156.056 129.011 156.018C127.499 155.966 126.203 155.569 125.121 154.824C124.052 154.063 123.222 152.959 122.633 151.512C122.055 150.049 121.766 148.251 121.766 146.119C121.766 143.922 122.098 141.892 122.762 140.028C123.438 138.148 124.329 136.463 125.435 134.975C126.553 133.482 127.831 132.206 129.269 131.147C130.719 130.083 132.219 129.269 133.767 128.705C135.328 128.137 136.76 127.832 138.062 127.789C139.365 127.747 140.477 127.931 141.399 128.341C142.333 128.746 143.058 129.358 143.574 130.178C144.09 130.997 144.348 131.988 144.348 133.152C144.348 134.081 144.207 134.924 143.924 135.68C143.642 136.437 143.249 137.117 142.745 137.718C142.253 138.303 141.657 138.821 140.957 139.272C140.256 139.723 139.494 140.098 138.671 140.398C138.154 140.586 137.638 140.702 137.122 140.746C136.618 140.772 136.151 140.753 135.721 140.687C135.291 140.621 134.922 140.52 134.615 140.383C134.32 140.229 134.13 140.069 134.044 139.904C134.044 139.564 134.044 139.172 134.044 138.727C134.056 138.278 134.074 137.82 134.099 137.354C134.062 137.354 134.013 137.365 133.951 137.388C133.902 137.406 133.865 137.419 133.841 137.428C133.656 137.495 133.509 137.608 133.398 137.766C133.3 137.906 133.22 138.131 133.159 138.441C133.097 138.738 133.054 139.133 133.03 139.626C133.017 140.115 133.011 140.731 133.011 141.477C133.011 142.484 133.03 143.34 133.067 144.046C133.116 144.735 133.177 145.294 133.251 145.725C133.325 146.143 133.417 146.436 133.527 146.605C133.638 146.774 133.761 146.834 133.896 146.785C134.019 146.74 134.13 146.667 134.228 146.566V144.781C134.658 144.311 135.186 143.837 135.813 143.36C136.44 142.884 137.104 142.433 137.804 142.008C138.517 141.566 139.248 141.162 139.998 140.798C140.748 140.42 141.46 140.108 142.136 139.862C142.468 140.108 142.769 140.462 143.04 140.926C143.322 141.386 143.562 141.907 143.759 142.489C143.967 143.054 144.133 143.648 144.256 144.27C144.379 144.879 144.447 145.456 144.459 146.001C144.226 146.57 143.826 147.264 143.261 148.085C142.696 148.892 141.977 149.729 141.104 150.596C140.231 151.45 139.205 152.275 138.025 153.07C136.846 153.866 135.531 154.528 134.08 155.056Z"
    />
    <path
      d="M168.018 140.879C167.183 141.85 166.304 142.608 165.382 143.152C164.461 143.71 163.576 144.144 162.728 144.452C161.917 144.747 161.173 144.926 160.497 144.989C159.834 145.048 159.256 144.99 158.764 144.816C158.285 144.637 157.91 144.335 157.64 143.911C157.382 143.468 157.253 142.894 157.253 142.188V138.304L158.562 137.827C158.844 137.724 159.059 137.626 159.207 137.534C159.367 137.423 159.483 137.315 159.557 137.21C159.631 137.105 159.674 136.997 159.686 136.888C159.698 136.766 159.704 136.646 159.704 136.528L153.916 138.635C153.916 138.753 153.922 138.868 153.934 138.982C153.947 139.082 153.984 139.16 154.045 139.216C154.107 139.272 154.199 139.304 154.322 139.312C154.457 139.302 154.641 139.254 154.875 139.169L156.276 138.659V145.153C155.759 145.694 155.262 146.163 154.782 146.559C154.315 146.939 153.861 147.268 153.418 147.546C152.976 147.825 152.552 148.058 152.146 148.245C151.741 148.432 151.354 148.592 150.985 148.726C150.174 149.021 149.43 149.201 148.754 149.263C148.091 149.322 147.513 149.264 147.021 149.09C146.542 148.911 146.167 148.609 145.897 148.185C145.639 147.742 145.51 147.168 145.51 146.462V126.942C146.161 125.973 146.96 125.126 147.906 124.403C148.853 123.679 149.824 123.136 150.819 122.774C151.507 122.523 152.177 122.377 152.828 122.337C153.492 122.291 154.076 122.379 154.58 122.602C155.096 122.806 155.508 123.16 155.815 123.663C156.122 124.165 156.276 124.829 156.276 125.653V129.145L158.617 128.293C158.617 127.926 158.555 127.713 158.433 127.653C158.31 127.58 158.125 127.589 157.879 127.678L157.253 127.906V122.668C157.904 121.699 158.703 120.852 159.649 120.129C160.595 119.405 161.566 118.862 162.562 118.5C163.25 118.249 163.92 118.103 164.571 118.062C165.235 118.017 165.819 118.105 166.323 118.327C166.839 118.532 167.25 118.886 167.558 119.388C167.865 119.891 168.018 120.555 168.018 121.379V140.879Z"
    />
    <path
      d="M180.167 136.261C179.663 136.915 178.944 137.602 178.01 138.321C177.088 139.036 175.976 139.63 174.673 140.104C173.985 140.355 173.321 140.518 172.682 140.594C172.043 140.669 171.478 140.64 170.986 140.505C170.507 140.352 170.12 140.088 169.825 139.711C169.542 139.317 169.401 138.786 169.401 138.119V117.854C169.905 117.2 170.618 116.516 171.539 115.801C172.474 115.082 173.592 114.485 174.895 114.011C175.583 113.76 176.246 113.597 176.886 113.522C177.525 113.446 178.084 113.484 178.563 113.637C179.055 113.772 179.442 114.036 179.724 114.43C180.019 114.807 180.167 115.329 180.167 115.996V136.261Z"
    />
    <path
      d="M192.795 109.202C193.114 108.798 193.471 108.42 193.864 108.068C194.269 107.698 194.693 107.36 195.136 107.056C195.578 106.751 196.033 106.481 196.5 106.245C196.967 105.997 197.422 105.792 197.864 105.631C198.552 105.38 199.222 105.209 199.873 105.115C200.537 105.005 201.121 105.021 201.625 105.165C202.141 105.304 202.553 105.592 202.86 106.029C203.167 106.467 203.321 107.098 203.321 107.922V126.499C203.321 127.088 203.179 127.636 202.897 128.145C202.626 128.649 202.258 129.11 201.791 129.528C201.336 129.929 200.807 130.291 200.205 130.615C199.615 130.935 199.001 131.211 198.362 131.443C197.969 131.586 197.569 131.706 197.164 131.801C196.77 131.905 196.395 131.976 196.039 132.014C195.683 132.052 195.351 132.068 195.044 132.062C194.736 132.057 194.472 132.022 194.251 131.959C193.722 131.432 193.243 130.913 192.813 130.402C192.395 129.888 192.008 129.388 191.652 128.903C191.295 128.418 190.963 127.956 190.656 127.519C190.349 127.068 190.054 126.646 189.771 126.252C189.562 126.354 189.421 126.478 189.347 126.622C189.274 126.754 189.237 126.898 189.237 127.055C189.237 127.251 189.286 127.429 189.384 127.59C189.482 127.737 189.612 127.919 189.771 128.135L192.076 131.259V132.299C191.891 132.497 191.658 132.732 191.375 133.005C191.092 133.278 190.742 133.569 190.324 133.878C189.919 134.17 189.446 134.466 188.905 134.768C188.364 135.069 187.743 135.347 187.043 135.602C186.244 135.893 185.507 136.076 184.831 136.152C184.155 136.228 183.571 136.192 183.08 136.044C182.588 135.883 182.207 135.603 181.937 135.205C181.666 134.806 181.531 134.28 181.531 133.626V113.969C181.531 113.642 181.666 113.286 181.937 112.899C182.207 112.5 182.576 112.111 183.043 111.732C183.51 111.353 184.057 110.99 184.683 110.644C185.31 110.285 185.98 109.976 186.693 109.717C187.504 109.421 188.254 109.253 188.942 109.212C189.63 109.171 190.152 109.236 190.509 109.407C190.779 109.675 191.074 110.005 191.394 110.399C191.713 110.78 192.051 111.213 192.407 111.698C192.764 112.169 193.133 112.683 193.514 113.237C193.907 113.774 194.306 114.328 194.712 114.9C194.835 114.855 194.951 114.774 195.062 114.655C195.185 114.519 195.246 114.352 195.246 114.156C195.246 114.012 195.197 113.86 195.099 113.7C195.001 113.526 194.896 113.362 194.786 113.206L192.795 110.281V109.202Z"
    />
    <path
      d="M223.617 96.6303C223.777 96.8468 223.924 97.1005 224.06 97.3913C224.195 97.6691 224.305 97.9754 224.391 98.3103C224.477 98.6321 224.545 98.9672 224.594 99.3155C224.643 99.6507 224.668 99.9752 224.668 100.289C224.668 101.636 224.422 102.726 223.931 103.559C223.439 104.392 222.763 104.965 221.903 105.278L214.474 107.982C214.019 108.147 213.792 108.42 213.792 108.799C213.792 108.825 213.792 108.878 213.792 108.956C213.792 109.035 213.804 109.082 213.828 109.1L222.64 105.892C222.751 106.048 222.855 106.246 222.954 106.485C223.052 106.71 223.132 106.962 223.193 107.241C223.267 107.502 223.322 107.782 223.359 108.083C223.408 108.366 223.433 108.645 223.433 108.919C223.433 109.704 223.359 110.437 223.212 111.118C223.064 111.787 222.868 112.368 222.622 112.863L218.621 114.319C217.577 114.7 216.71 115.048 216.022 115.363C215.346 115.662 214.812 115.928 214.418 116.163C214.025 116.398 213.749 116.603 213.589 116.779C213.429 116.942 213.349 117.082 213.349 117.2C213.349 117.304 213.361 117.398 213.386 117.48C213.423 117.559 213.497 117.61 213.607 117.635C213.914 117.419 214.228 117.213 214.547 117.018C214.867 116.824 215.223 116.635 215.617 116.453C216.01 116.257 216.446 116.059 216.925 115.859C217.417 115.654 217.982 115.435 218.621 115.202L223.802 113.317C223.937 113.477 224.072 113.663 224.207 113.875C224.342 114.075 224.459 114.326 224.557 114.631C224.668 114.917 224.754 115.265 224.815 115.675C224.889 116.079 224.926 116.563 224.926 117.125C224.926 117.478 224.901 117.867 224.852 118.29C224.803 118.7 224.729 119.119 224.631 119.547C224.533 119.976 224.404 120.395 224.244 120.807C224.084 121.218 223.894 121.595 223.673 121.937L209.865 126.962C209.14 127.226 208.464 127.381 207.837 127.426C207.21 127.457 206.664 127.362 206.197 127.14C205.73 126.904 205.361 126.535 205.09 126.032C204.82 125.516 204.685 124.832 204.685 123.982V105.326C204.685 104.698 205.367 103.992 206.731 103.208C208.095 102.424 210.178 101.522 212.98 100.502L223.617 96.6303Z"
    />
  </mask>
  <path
    d="M130.227 121.397C129.723 122.052 129.011 122.736 128.089 123.451C127.167 124.166 126.055 124.76 124.752 125.234C124.064 125.485 123.4 125.648 122.761 125.724C122.122 125.799 121.557 125.77 121.065 125.635C120.574 125.487 120.181 125.218 119.886 124.828C119.603 124.434 119.462 123.903 119.462 123.236V103.305C119.462 102.102 122.233 100.491 127.776 98.474L138.597 94.5354C138.756 94.7781 138.904 95.071 139.039 95.4141C139.174 95.7573 139.285 96.1225 139.371 96.5097C139.457 96.8838 139.525 97.2711 139.574 97.6718C139.623 98.0593 139.647 98.4296 139.647 98.7828C139.647 100.248 139.352 101.473 138.763 102.459C138.173 103.433 137.233 104.154 135.942 104.624L129.564 106.945C129.318 107.035 129.14 107.159 129.029 107.317C128.919 107.474 128.863 107.645 128.863 107.828C128.863 107.854 128.863 107.907 128.863 107.985C128.863 108.05 128.875 108.092 128.9 108.109L137.048 105.143C137.306 105.52 137.527 106.015 137.712 106.628C137.896 107.241 137.988 107.914 137.988 108.646C137.988 109.692 137.865 110.607 137.62 111.39C137.386 112.155 137.134 112.763 136.864 113.214L127.831 116.502C127.733 116.643 127.683 116.778 127.683 116.909C127.683 117.027 127.72 117.105 127.794 117.143C127.88 117.164 128.015 117.154 128.2 117.113C128.396 117.068 128.654 116.987 128.974 116.871C129.306 116.75 129.723 116.605 130.227 116.434V121.397Z"
    fill="#E9E9E2"
  />
  <path
    d="M156.386 87.7075C157.074 87.457 157.744 87.3179 158.395 87.29C159.059 87.2447 159.643 87.333 160.147 87.555C160.663 87.7726 161.075 88.1328 161.382 88.6357C161.689 89.1385 161.843 89.8019 161.843 90.6259V101.533C161.843 103.22 161.591 104.803 161.087 106.281C160.583 107.759 159.864 109.107 158.93 110.323C158.008 111.535 156.89 112.602 155.575 113.525C154.272 114.444 152.816 115.197 151.206 115.783C149.498 116.404 147.974 116.737 146.634 116.78C145.295 116.822 144.158 116.582 143.224 116.059C142.302 115.518 141.595 114.69 141.104 113.574C140.624 112.454 140.385 111.044 140.385 109.343V95.3559C140.975 94.6442 141.7 93.9487 142.56 93.2694C143.42 92.5901 144.373 92.0603 145.417 91.6801C146.192 91.3983 146.892 91.2545 147.519 91.2487C148.158 91.2254 148.705 91.3533 149.16 91.6324C149.627 91.9071 149.983 92.3398 150.229 92.9304C150.487 93.5166 150.616 94.2739 150.616 95.2025V106.64C150.739 106.699 150.893 106.696 151.077 106.629C151.249 106.566 151.378 106.473 151.464 106.351C151.55 106.228 151.593 106.022 151.593 105.735V94.8273C151.593 94.3957 151.581 94.0209 151.556 93.7029C151.544 93.3804 151.513 93.0973 151.464 92.8536C151.427 92.6055 151.372 92.3836 151.298 92.1881C151.224 91.9926 151.138 91.8016 151.04 91.6151C151.716 90.7674 152.484 90.0105 153.344 89.3443C154.217 88.6736 155.231 88.128 156.386 87.7075Z"
    fill="#E9E9E2"
  />
  <path
    d="M182.139 78.6873C182.299 78.9038 182.446 79.1574 182.582 79.4483C182.717 79.726 182.827 80.0323 182.913 80.3672C182.999 80.689 183.067 81.0241 183.116 81.3724C183.165 81.7076 183.19 82.0322 183.19 82.3461C183.19 83.6931 182.944 84.7831 182.453 85.6159C181.961 86.4488 181.285 87.0218 180.425 87.3349L172.996 90.0389C172.541 90.2044 172.314 90.4768 172.314 90.856C172.314 90.8822 172.314 90.9345 172.314 91.013C172.314 91.0914 172.326 91.1393 172.35 91.1565L181.162 87.9493C181.273 88.1052 181.377 88.3026 181.476 88.5415C181.574 88.7672 181.654 89.0194 181.715 89.2978C181.789 89.5587 181.844 89.8394 181.881 90.1398C181.93 90.4227 181.955 90.7015 181.955 90.9762C181.955 91.7609 181.881 92.4939 181.734 93.1754C181.586 93.8438 181.389 94.4254 181.144 94.9203L177.143 96.3763C176.099 96.7565 175.232 97.1045 174.544 97.4204C173.868 97.7188 173.334 97.9853 172.94 98.22C172.547 98.4546 172.271 98.6599 172.111 98.8358C171.951 98.9985 171.871 99.1388 171.871 99.2565C171.871 99.3611 171.883 99.4547 171.908 99.5373C171.945 99.6155 172.019 99.6671 172.129 99.6922C172.436 99.4758 172.75 99.2702 173.069 99.0754C173.389 98.8806 173.745 98.6921 174.139 98.5097C174.532 98.3142 174.968 98.1162 175.447 97.9156C175.939 97.7105 176.504 97.4917 177.143 97.2591L182.323 95.3737C182.459 95.5337 182.594 95.7199 182.729 95.9323C182.864 96.1316 182.981 96.3833 183.079 96.6876C183.19 96.9743 183.276 97.3223 183.337 97.7315C183.411 98.1362 183.448 98.6198 183.448 99.1822C183.448 99.5353 183.423 99.9235 183.374 100.347C183.325 100.757 183.251 101.176 183.153 101.604C183.055 102.033 182.926 102.452 182.766 102.864C182.606 103.275 182.416 103.651 182.194 103.994L168.387 109.019C167.662 109.283 166.986 109.437 166.359 109.482C165.732 109.514 165.185 109.419 164.718 109.197C164.251 108.961 163.883 108.592 163.612 108.089C163.342 107.573 163.207 106.889 163.207 106.039V87.3829C163.207 86.7551 163.889 86.0491 165.253 85.2649C166.617 84.4806 168.7 83.5786 171.502 82.5587L182.139 78.6873Z"
    fill="#E9E9E2"
  />
  <path
    d="M188.647 101.645C187.319 102.128 186.275 102.136 185.513 101.668C184.751 101.186 184.37 100.148 184.37 98.5524V79.3663C185.021 78.5407 185.82 77.7988 186.766 77.1405C187.713 76.4691 188.683 75.9522 189.679 75.5899C190.367 75.3394 191.037 75.1937 191.688 75.1528C192.352 75.1074 192.936 75.1958 193.44 75.4178C193.956 75.6223 194.367 75.976 194.675 76.4788C194.982 76.9817 195.136 77.6451 195.136 78.469V89.1999C194.828 89.3379 194.496 89.5241 194.14 89.7584C193.796 89.9883 193.47 90.2376 193.163 90.5064C192.868 90.7707 192.616 91.0389 192.407 91.3111C192.211 91.5658 192.112 91.7912 192.112 91.9874C192.112 92.1313 192.143 92.2378 192.204 92.307C192.278 92.3586 192.364 92.3992 192.463 92.4288C193.151 91.5637 193.937 90.8523 194.822 90.2949C195.707 89.7374 196.727 89.2484 197.882 88.8279L202.251 87.2377C202.436 87.5107 202.602 87.81 202.749 88.1356C202.896 88.4481 203.019 88.7826 203.118 89.1392C203.228 89.4782 203.314 89.8262 203.376 90.1831C203.437 90.54 203.468 90.8819 203.468 91.2089C203.468 91.6797 203.431 92.177 203.357 92.7009C203.296 93.2071 203.204 93.705 203.081 94.1944C202.958 94.6838 202.81 95.1494 202.638 95.5913C202.466 96.0332 202.27 96.4252 202.048 96.7673L188.647 101.645Z"
    fill="#E9E9E2"
  />
  <path
    d="M85.3578 167.276C85.7879 167.015 86.2549 166.63 86.7588 166.119C87.2627 165.609 87.7481 164.902 88.2152 164C88.4241 163.584 88.5285 163.252 88.5285 163.003C88.5285 162.663 88.3688 162.551 88.0492 162.668C88.0247 162.677 88.0001 162.692 87.9755 162.714C87.9632 162.719 87.9448 162.725 87.9202 162.734C87.0476 164.974 85.6528 166.443 83.7356 167.141C83.2563 167.316 82.8077 167.427 82.3898 167.474C81.9843 167.517 81.6033 167.486 81.2469 167.38C80.8905 167.274 80.5525 167.083 80.233 166.807C79.9134 166.531 79.6062 166.159 79.3113 165.691L79.2006 165.731C79.0655 165.781 78.9487 165.856 78.8504 165.957C78.7521 166.058 78.7029 166.194 78.7029 166.364C78.7029 166.586 78.7766 166.795 78.9241 166.989C79.1945 167.362 79.4833 167.662 79.7906 167.89C80.1101 168.114 80.4296 168.285 80.7492 168.405C81.081 168.506 81.4067 168.558 81.7262 168.559C82.0457 168.56 82.3345 168.527 82.5926 168.459L82.4451 172.221C82.1256 172.56 81.7876 172.885 81.4312 173.198C81.0871 173.506 80.6938 173.807 80.2514 174.098C79.809 174.377 79.3051 174.652 78.7398 174.923C78.1867 175.19 77.5477 175.455 76.8226 175.719C76.1344 175.97 75.4154 176.159 74.6657 176.288C73.9161 176.417 73.2278 176.432 72.6011 176.334C71.9743 176.222 71.452 175.98 71.0341 175.609C70.6286 175.234 70.4258 174.66 70.4258 173.888C70.4258 173.483 70.4442 172.927 70.4811 172.22C70.518 171.501 70.5671 170.685 70.6286 169.773C70.7023 168.857 70.7822 167.867 70.8682 166.802C70.9542 165.738 71.0464 164.665 71.1447 163.583C71.243 162.487 71.3414 161.405 71.4397 160.336C71.538 159.267 71.6363 158.27 71.7346 157.345C71.833 156.42 71.919 155.597 71.9927 154.877C72.0787 154.153 72.1525 153.583 72.2139 153.169C72.5703 152.699 72.9759 152.264 73.4306 151.863C73.8853 151.462 74.3585 151.106 74.8501 150.797C75.354 150.47 75.8578 150.188 76.3617 149.952C76.8656 149.704 77.351 149.494 77.8181 149.324C78.6538 149.02 79.471 148.821 80.2699 148.726C81.081 148.627 81.7508 148.638 82.2792 148.76L83.2931 152L82.6479 155.119C82.6233 155.233 82.6049 155.337 82.5926 155.433C82.5803 155.529 82.5742 155.623 82.5742 155.715C82.5742 156.159 82.82 156.305 83.3116 156.153L85.0628 147.766C85.2718 147.572 85.536 147.352 85.8555 147.105C86.1874 146.853 86.5499 146.604 86.9432 146.356C87.3487 146.104 87.785 145.86 88.252 145.625C88.719 145.389 89.1983 145.182 89.6899 145.003C90.5625 144.686 91.3245 144.487 91.9758 144.407C92.6395 144.309 93.1925 144.35 93.6349 144.529C94.0896 144.69 94.446 144.992 94.7041 145.434C94.9622 145.876 95.1343 146.474 95.2203 147.228C95.3063 148.02 95.4108 148.976 95.5337 150.095C95.6689 151.21 95.8041 152.397 95.9392 153.656C96.0744 154.901 96.2096 156.166 96.3448 157.451C96.48 158.736 96.5967 159.949 96.6951 161.09C96.8057 162.214 96.8917 163.216 96.9532 164.096C97.0269 164.971 97.0638 165.625 97.0638 166.057C95.6996 168.083 93.7332 169.564 91.1647 170.499C90.3536 170.794 89.61 170.993 88.9341 171.095C88.2582 171.197 87.6744 171.194 87.1828 171.085C86.7035 170.959 86.3164 170.733 86.0214 170.409C85.7388 170.081 85.5729 169.631 85.5237 169.06L85.3578 167.276Z"
    fill="#E9E9E2"
  />
  <path
    d="M101.857 142.713C102.336 142.212 102.877 141.721 103.479 141.24C104.081 140.746 104.714 140.287 105.378 139.862C106.054 139.433 106.748 139.043 107.461 138.692C108.186 138.323 108.911 138.007 109.636 137.743C110.595 137.394 111.541 137.142 112.475 136.985C113.421 136.823 114.282 136.798 115.056 136.909C115.83 137.019 116.494 137.288 117.047 137.714C117.6 138.127 117.975 138.73 118.171 139.522L122.374 156.491C121.809 157.469 121.016 158.391 119.996 159.26C118.976 160.128 117.686 160.846 116.125 161.414C115.437 161.665 114.792 161.834 114.189 161.922C113.587 162.011 113.053 162.016 112.586 161.937C112.131 161.841 111.75 161.659 111.443 161.392C111.148 161.107 110.957 160.719 110.871 160.227L110.466 157.981C110.847 157.829 111.222 157.647 111.59 157.434C111.971 157.204 112.309 156.977 112.604 156.751C112.911 156.509 113.157 156.276 113.341 156.052C113.538 155.823 113.636 155.63 113.636 155.473C113.636 155.264 113.557 155.123 113.397 155.051C113.176 155.301 112.918 155.552 112.623 155.803C112.328 156.041 112.014 156.267 111.682 156.479C111.363 156.687 111.037 156.877 110.705 157.05C110.386 157.206 110.085 157.335 109.802 157.438C109.274 157.63 108.8 157.77 108.383 157.856C107.977 157.926 107.621 157.964 107.313 157.971C107.006 157.978 106.742 157.963 106.521 157.926C106.299 157.876 106.115 157.819 105.968 157.755C105.919 157.838 105.875 157.932 105.839 158.037C105.802 158.129 105.783 158.227 105.783 158.332C105.783 158.528 105.875 158.677 106.06 158.78C106.256 158.866 106.515 158.916 106.834 158.93C107.154 158.931 107.516 158.898 107.922 158.828C108.34 158.755 108.776 158.648 109.231 158.509C109.304 159.398 109.384 160.101 109.47 160.619C109.569 161.119 109.661 161.426 109.747 161.539C109.636 161.801 109.415 162.124 109.083 162.506C108.764 162.871 108.358 163.254 107.866 163.655C107.387 164.052 106.834 164.436 106.207 164.808C105.593 165.176 104.935 165.487 104.235 165.742C103.362 166.059 102.539 166.255 101.765 166.327C100.99 166.4 100.314 166.358 99.7368 166.202C99.1592 166.033 98.6983 165.749 98.3542 165.352C98.0101 164.941 97.838 164.408 97.838 163.754C97.838 163.61 97.8442 163.464 97.8564 163.316C97.8687 163.154 97.8933 162.989 97.9302 162.818L101.857 142.713ZM110.521 149.663C110.386 148.927 110.275 148.34 110.189 147.9C110.115 147.456 110.036 147.132 109.95 146.928C109.876 146.706 109.79 146.581 109.691 146.551C109.605 146.504 109.495 146.505 109.36 146.554C109.274 146.586 109.194 146.628 109.12 146.681C109.046 146.734 108.979 146.784 108.917 146.833L109.618 150.541C109.667 150.575 109.734 150.59 109.82 150.585C109.919 150.575 110.005 150.557 110.079 150.53C110.189 150.49 110.294 150.439 110.392 150.377C110.49 150.302 110.564 150.242 110.613 150.198L110.521 149.663Z"
    fill="#E9E9E2"
  />
  <path
    d="M134.08 155.056C132.212 155.735 130.523 156.056 129.011 156.018C127.499 155.966 126.203 155.569 125.121 154.824C124.052 154.063 123.222 152.959 122.633 151.512C122.055 150.049 121.766 148.251 121.766 146.119C121.766 143.922 122.098 141.892 122.762 140.028C123.438 138.148 124.329 136.463 125.435 134.975C126.553 133.482 127.831 132.206 129.269 131.147C130.719 130.083 132.219 129.269 133.767 128.705C135.328 128.137 136.76 127.832 138.062 127.789C139.365 127.747 140.477 127.931 141.399 128.341C142.333 128.746 143.058 129.358 143.574 130.178C144.09 130.997 144.348 131.988 144.348 133.152C144.348 134.081 144.207 134.924 143.924 135.68C143.642 136.437 143.249 137.117 142.745 137.718C142.253 138.303 141.657 138.821 140.957 139.272C140.256 139.723 139.494 140.098 138.671 140.398C138.154 140.586 137.638 140.702 137.122 140.746C136.618 140.772 136.151 140.753 135.721 140.687C135.291 140.621 134.922 140.52 134.615 140.383C134.32 140.229 134.13 140.069 134.044 139.904C134.044 139.564 134.044 139.172 134.044 138.727C134.056 138.278 134.074 137.82 134.099 137.354C134.062 137.354 134.013 137.365 133.951 137.388C133.902 137.406 133.865 137.419 133.841 137.428C133.656 137.495 133.509 137.608 133.398 137.766C133.3 137.906 133.22 138.131 133.159 138.441C133.097 138.738 133.054 139.133 133.03 139.626C133.017 140.115 133.011 140.731 133.011 141.477C133.011 142.484 133.03 143.34 133.067 144.046C133.116 144.735 133.177 145.294 133.251 145.725C133.325 146.143 133.417 146.436 133.527 146.605C133.638 146.774 133.761 146.834 133.896 146.785C134.019 146.74 134.13 146.667 134.228 146.566V144.781C134.658 144.311 135.186 143.837 135.813 143.36C136.44 142.884 137.104 142.433 137.804 142.008C138.517 141.566 139.248 141.162 139.998 140.798C140.748 140.42 141.46 140.108 142.136 139.862C142.468 140.108 142.769 140.462 143.04 140.926C143.322 141.386 143.562 141.907 143.759 142.489C143.967 143.054 144.133 143.648 144.256 144.27C144.379 144.879 144.447 145.456 144.459 146.001C144.226 146.57 143.826 147.264 143.261 148.085C142.696 148.892 141.977 149.729 141.104 150.596C140.231 151.45 139.205 152.275 138.025 153.07C136.846 153.866 135.531 154.528 134.08 155.056Z"
    fill="#E9E9E2"
  />
  <path
    d="M168.018 140.879C167.183 141.85 166.304 142.608 165.382 143.152C164.461 143.71 163.576 144.144 162.728 144.452C161.917 144.747 161.173 144.926 160.497 144.989C159.834 145.048 159.256 144.99 158.764 144.816C158.285 144.637 157.91 144.335 157.64 143.911C157.382 143.468 157.253 142.894 157.253 142.188V138.304L158.562 137.827C158.844 137.724 159.059 137.626 159.207 137.534C159.367 137.423 159.483 137.315 159.557 137.21C159.631 137.105 159.674 136.997 159.686 136.888C159.698 136.766 159.704 136.646 159.704 136.528L153.916 138.635C153.916 138.753 153.922 138.868 153.934 138.982C153.947 139.082 153.984 139.16 154.045 139.216C154.107 139.272 154.199 139.304 154.322 139.312C154.457 139.302 154.641 139.254 154.875 139.169L156.276 138.659V145.153C155.759 145.694 155.262 146.163 154.782 146.559C154.315 146.939 153.861 147.268 153.418 147.546C152.976 147.825 152.552 148.058 152.146 148.245C151.741 148.432 151.354 148.592 150.985 148.726C150.174 149.021 149.43 149.201 148.754 149.263C148.091 149.322 147.513 149.264 147.021 149.09C146.542 148.911 146.167 148.609 145.897 148.185C145.639 147.742 145.51 147.168 145.51 146.462V126.942C146.161 125.973 146.96 125.126 147.906 124.403C148.853 123.679 149.824 123.136 150.819 122.774C151.507 122.523 152.177 122.377 152.828 122.337C153.492 122.291 154.076 122.379 154.58 122.602C155.096 122.806 155.508 123.16 155.815 123.663C156.122 124.165 156.276 124.829 156.276 125.653V129.145L158.617 128.293C158.617 127.926 158.555 127.713 158.433 127.653C158.31 127.58 158.125 127.589 157.879 127.678L157.253 127.906V122.668C157.904 121.699 158.703 120.852 159.649 120.129C160.595 119.405 161.566 118.862 162.562 118.5C163.25 118.249 163.92 118.103 164.571 118.062C165.235 118.017 165.819 118.105 166.323 118.327C166.839 118.532 167.25 118.886 167.558 119.388C167.865 119.891 168.018 120.555 168.018 121.379V140.879Z"
    fill="#E9E9E2"
  />
  <path
    d="M180.167 136.261C179.663 136.915 178.944 137.602 178.01 138.321C177.088 139.036 175.976 139.63 174.673 140.104C173.985 140.355 173.321 140.518 172.682 140.594C172.043 140.669 171.478 140.64 170.986 140.505C170.507 140.352 170.12 140.088 169.825 139.711C169.542 139.317 169.401 138.786 169.401 138.119V117.854C169.905 117.2 170.618 116.516 171.539 115.801C172.474 115.082 173.592 114.485 174.895 114.011C175.583 113.76 176.246 113.597 176.886 113.522C177.525 113.446 178.084 113.484 178.563 113.637C179.055 113.772 179.442 114.036 179.724 114.43C180.019 114.807 180.167 115.329 180.167 115.996V136.261Z"
    fill="#E9E9E2"
  />
  <path
    d="M192.795 109.202C193.114 108.798 193.471 108.42 193.864 108.068C194.269 107.698 194.693 107.36 195.136 107.056C195.578 106.751 196.033 106.481 196.5 106.245C196.967 105.997 197.422 105.792 197.864 105.631C198.552 105.38 199.222 105.209 199.873 105.115C200.537 105.005 201.121 105.021 201.625 105.165C202.141 105.304 202.553 105.592 202.86 106.029C203.167 106.467 203.321 107.098 203.321 107.922V126.499C203.321 127.088 203.179 127.636 202.897 128.145C202.626 128.649 202.258 129.11 201.791 129.528C201.336 129.929 200.807 130.291 200.205 130.615C199.615 130.935 199.001 131.211 198.362 131.443C197.969 131.586 197.569 131.706 197.164 131.801C196.77 131.905 196.395 131.976 196.039 132.014C195.683 132.052 195.351 132.068 195.044 132.062C194.736 132.057 194.472 132.022 194.251 131.959C193.722 131.432 193.243 130.913 192.813 130.402C192.395 129.888 192.008 129.388 191.652 128.903C191.295 128.418 190.963 127.956 190.656 127.519C190.349 127.068 190.054 126.646 189.771 126.252C189.562 126.354 189.421 126.478 189.347 126.622C189.274 126.754 189.237 126.898 189.237 127.055C189.237 127.251 189.286 127.429 189.384 127.59C189.482 127.737 189.612 127.919 189.771 128.135L192.076 131.259V132.299C191.891 132.497 191.658 132.732 191.375 133.005C191.092 133.278 190.742 133.569 190.324 133.878C189.919 134.17 189.446 134.466 188.905 134.768C188.364 135.069 187.743 135.347 187.043 135.602C186.244 135.893 185.507 136.076 184.831 136.152C184.155 136.228 183.571 136.192 183.08 136.044C182.588 135.883 182.207 135.603 181.937 135.205C181.666 134.806 181.531 134.28 181.531 133.626V113.969C181.531 113.642 181.666 113.286 181.937 112.899C182.207 112.5 182.576 112.111 183.043 111.732C183.51 111.353 184.057 110.99 184.683 110.644C185.31 110.285 185.98 109.976 186.693 109.717C187.504 109.421 188.254 109.253 188.942 109.212C189.63 109.171 190.152 109.236 190.509 109.407C190.779 109.675 191.074 110.005 191.394 110.399C191.713 110.78 192.051 111.213 192.407 111.698C192.764 112.169 193.133 112.683 193.514 113.237C193.907 113.774 194.306 114.328 194.712 114.9C194.835 114.855 194.951 114.774 195.062 114.655C195.185 114.519 195.246 114.352 195.246 114.156C195.246 114.012 195.197 113.86 195.099 113.7C195.001 113.526 194.896 113.362 194.786 113.206L192.795 110.281V109.202Z"
    fill="#E9E9E2"
  />
  <path
    d="M223.617 96.6303C223.777 96.8468 223.924 97.1005 224.06 97.3913C224.195 97.6691 224.305 97.9754 224.391 98.3103C224.477 98.6321 224.545 98.9672 224.594 99.3155C224.643 99.6507 224.668 99.9752 224.668 100.289C224.668 101.636 224.422 102.726 223.931 103.559C223.439 104.392 222.763 104.965 221.903 105.278L214.474 107.982C214.019 108.147 213.792 108.42 213.792 108.799C213.792 108.825 213.792 108.878 213.792 108.956C213.792 109.035 213.804 109.082 213.828 109.1L222.64 105.892C222.751 106.048 222.855 106.246 222.954 106.485C223.052 106.71 223.132 106.962 223.193 107.241C223.267 107.502 223.322 107.782 223.359 108.083C223.408 108.366 223.433 108.645 223.433 108.919C223.433 109.704 223.359 110.437 223.212 111.118C223.064 111.787 222.868 112.368 222.622 112.863L218.621 114.319C217.577 114.7 216.71 115.048 216.022 115.363C215.346 115.662 214.812 115.928 214.418 116.163C214.025 116.398 213.749 116.603 213.589 116.779C213.429 116.942 213.349 117.082 213.349 117.2C213.349 117.304 213.361 117.398 213.386 117.48C213.423 117.559 213.497 117.61 213.607 117.635C213.914 117.419 214.228 117.213 214.547 117.018C214.867 116.824 215.223 116.635 215.617 116.453C216.01 116.257 216.446 116.059 216.925 115.859C217.417 115.654 217.982 115.435 218.621 115.202L223.802 113.317C223.937 113.477 224.072 113.663 224.207 113.875C224.342 114.075 224.459 114.326 224.557 114.631C224.668 114.917 224.754 115.265 224.815 115.675C224.889 116.079 224.926 116.563 224.926 117.125C224.926 117.478 224.901 117.867 224.852 118.29C224.803 118.7 224.729 119.119 224.631 119.547C224.533 119.976 224.404 120.395 224.244 120.807C224.084 121.218 223.894 121.595 223.673 121.937L209.865 126.962C209.14 127.226 208.464 127.381 207.837 127.426C207.21 127.457 206.664 127.362 206.197 127.14C205.73 126.904 205.361 126.535 205.09 126.032C204.82 125.516 204.685 124.832 204.685 123.982V105.326C204.685 104.698 205.367 103.992 206.731 103.208C208.095 102.424 210.178 101.522 212.98 100.502L223.617 96.6303Z"
    fill="#E9E9E2"
  />
  <path
    d="M130.227 121.397C129.723 122.052 129.011 122.736 128.089 123.451C127.167 124.166 126.055 124.76 124.752 125.234C124.064 125.485 123.4 125.648 122.761 125.724C122.122 125.799 121.557 125.77 121.065 125.635C120.574 125.487 120.181 125.218 119.886 124.828C119.603 124.434 119.462 123.903 119.462 123.236V103.305C119.462 102.102 122.233 100.491 127.776 98.474L138.597 94.5354C138.756 94.7781 138.904 95.071 139.039 95.4141C139.174 95.7573 139.285 96.1225 139.371 96.5097C139.457 96.8838 139.525 97.2711 139.574 97.6718C139.623 98.0593 139.647 98.4296 139.647 98.7828C139.647 100.248 139.352 101.473 138.763 102.459C138.173 103.433 137.233 104.154 135.942 104.624L129.564 106.945C129.318 107.035 129.14 107.159 129.029 107.317C128.919 107.474 128.863 107.645 128.863 107.828C128.863 107.854 128.863 107.907 128.863 107.985C128.863 108.05 128.875 108.092 128.9 108.109L137.048 105.143C137.306 105.52 137.527 106.015 137.712 106.628C137.896 107.241 137.988 107.914 137.988 108.646C137.988 109.692 137.865 110.607 137.62 111.39C137.386 112.155 137.134 112.763 136.864 113.214L127.831 116.502C127.733 116.643 127.683 116.778 127.683 116.909C127.683 117.027 127.72 117.105 127.794 117.143C127.88 117.164 128.015 117.154 128.2 117.113C128.396 117.068 128.654 116.987 128.974 116.871C129.306 116.75 129.723 116.605 130.227 116.434V121.397Z"
    stroke="#292929"
    stroke-width="6"
    mask="url(#path-21-outside-1_1316_11806)"
  />
  <path
    d="M156.386 87.7075C157.074 87.457 157.744 87.3179 158.395 87.29C159.059 87.2447 159.643 87.333 160.147 87.555C160.663 87.7726 161.075 88.1328 161.382 88.6357C161.689 89.1385 161.843 89.8019 161.843 90.6259V101.533C161.843 103.22 161.591 104.803 161.087 106.281C160.583 107.759 159.864 109.107 158.93 110.323C158.008 111.535 156.89 112.602 155.575 113.525C154.272 114.444 152.816 115.197 151.206 115.783C149.498 116.404 147.974 116.737 146.634 116.78C145.295 116.822 144.158 116.582 143.224 116.059C142.302 115.518 141.595 114.69 141.104 113.574C140.624 112.454 140.385 111.044 140.385 109.343V95.3559C140.975 94.6442 141.7 93.9487 142.56 93.2694C143.42 92.5901 144.373 92.0603 145.417 91.6801C146.192 91.3983 146.892 91.2545 147.519 91.2487C148.158 91.2254 148.705 91.3533 149.16 91.6324C149.627 91.9071 149.983 92.3398 150.229 92.9304C150.487 93.5166 150.616 94.2739 150.616 95.2025V106.64C150.739 106.699 150.893 106.696 151.077 106.629C151.249 106.566 151.378 106.473 151.464 106.351C151.55 106.228 151.593 106.022 151.593 105.735V94.8273C151.593 94.3957 151.581 94.0209 151.556 93.7029C151.544 93.3804 151.513 93.0973 151.464 92.8536C151.427 92.6055 151.372 92.3836 151.298 92.1881C151.224 91.9926 151.138 91.8016 151.04 91.6151C151.716 90.7674 152.484 90.0105 153.344 89.3443C154.217 88.6736 155.231 88.128 156.386 87.7075Z"
    stroke="#292929"
    stroke-width="6"
    mask="url(#path-21-outside-1_1316_11806)"
  />
  <path
    d="M182.139 78.6873C182.299 78.9038 182.446 79.1574 182.582 79.4483C182.717 79.726 182.827 80.0323 182.913 80.3672C182.999 80.689 183.067 81.0241 183.116 81.3724C183.165 81.7076 183.19 82.0322 183.19 82.3461C183.19 83.6931 182.944 84.7831 182.453 85.6159C181.961 86.4488 181.285 87.0218 180.425 87.3349L172.996 90.0389C172.541 90.2044 172.314 90.4768 172.314 90.856C172.314 90.8822 172.314 90.9345 172.314 91.013C172.314 91.0914 172.326 91.1393 172.35 91.1565L181.162 87.9493C181.273 88.1052 181.377 88.3026 181.476 88.5415C181.574 88.7672 181.654 89.0194 181.715 89.2978C181.789 89.5587 181.844 89.8394 181.881 90.1398C181.93 90.4227 181.955 90.7015 181.955 90.9762C181.955 91.7609 181.881 92.4939 181.734 93.1754C181.586 93.8438 181.389 94.4254 181.144 94.9203L177.143 96.3763C176.099 96.7565 175.232 97.1045 174.544 97.4204C173.868 97.7188 173.334 97.9853 172.94 98.22C172.547 98.4546 172.271 98.6599 172.111 98.8358C171.951 98.9985 171.871 99.1388 171.871 99.2565C171.871 99.3611 171.883 99.4547 171.908 99.5373C171.945 99.6155 172.019 99.6671 172.129 99.6922C172.436 99.4758 172.75 99.2702 173.069 99.0754C173.389 98.8806 173.745 98.6921 174.139 98.5097C174.532 98.3142 174.968 98.1162 175.447 97.9156C175.939 97.7105 176.504 97.4917 177.143 97.2591L182.323 95.3737C182.459 95.5337 182.594 95.7199 182.729 95.9323C182.864 96.1316 182.981 96.3833 183.079 96.6876C183.19 96.9743 183.276 97.3223 183.337 97.7315C183.411 98.1362 183.448 98.6198 183.448 99.1822C183.448 99.5353 183.423 99.9235 183.374 100.347C183.325 100.757 183.251 101.176 183.153 101.604C183.055 102.033 182.926 102.452 182.766 102.864C182.606 103.275 182.416 103.651 182.194 103.994L168.387 109.019C167.662 109.283 166.986 109.437 166.359 109.482C165.732 109.514 165.185 109.419 164.718 109.197C164.251 108.961 163.883 108.592 163.612 108.089C163.342 107.573 163.207 106.889 163.207 106.039V87.3829C163.207 86.7551 163.889 86.0491 165.253 85.2649C166.617 84.4806 168.7 83.5786 171.502 82.5587L182.139 78.6873Z"
    stroke="#292929"
    stroke-width="6"
    mask="url(#path-21-outside-1_1316_11806)"
  />
  <path
    d="M188.647 101.645C187.319 102.128 186.275 102.136 185.513 101.668C184.751 101.186 184.37 100.148 184.37 98.5524V79.3663C185.021 78.5407 185.82 77.7988 186.766 77.1405C187.713 76.4691 188.683 75.9522 189.679 75.5899C190.367 75.3394 191.037 75.1937 191.688 75.1528C192.352 75.1074 192.936 75.1958 193.44 75.4178C193.956 75.6223 194.367 75.976 194.675 76.4788C194.982 76.9817 195.136 77.6451 195.136 78.469V89.1999C194.828 89.3379 194.496 89.5241 194.14 89.7584C193.796 89.9883 193.47 90.2376 193.163 90.5064C192.868 90.7707 192.616 91.0389 192.407 91.3111C192.211 91.5658 192.112 91.7912 192.112 91.9874C192.112 92.1313 192.143 92.2378 192.204 92.307C192.278 92.3586 192.364 92.3992 192.463 92.4288C193.151 91.5637 193.937 90.8523 194.822 90.2949C195.707 89.7374 196.727 89.2484 197.882 88.8279L202.251 87.2377C202.436 87.5107 202.602 87.81 202.749 88.1356C202.896 88.4481 203.019 88.7826 203.118 89.1392C203.228 89.4782 203.314 89.8262 203.376 90.1831C203.437 90.54 203.468 90.8819 203.468 91.2089C203.468 91.6797 203.431 92.177 203.357 92.7009C203.296 93.2071 203.204 93.705 203.081 94.1944C202.958 94.6838 202.81 95.1494 202.638 95.5913C202.466 96.0332 202.27 96.4252 202.048 96.7673L188.647 101.645Z"
    stroke="#292929"
    stroke-width="6"
    mask="url(#path-21-outside-1_1316_11806)"
  />
  <path
    d="M85.3578 167.276C85.7879 167.015 86.2549 166.63 86.7588 166.119C87.2627 165.609 87.7481 164.902 88.2152 164C88.4241 163.584 88.5285 163.252 88.5285 163.003C88.5285 162.663 88.3688 162.551 88.0492 162.668C88.0247 162.677 88.0001 162.692 87.9755 162.714C87.9632 162.719 87.9448 162.725 87.9202 162.734C87.0476 164.974 85.6528 166.443 83.7356 167.141C83.2563 167.316 82.8077 167.427 82.3898 167.474C81.9843 167.517 81.6033 167.486 81.2469 167.38C80.8905 167.274 80.5525 167.083 80.233 166.807C79.9134 166.531 79.6062 166.159 79.3113 165.691L79.2006 165.731C79.0655 165.781 78.9487 165.856 78.8504 165.957C78.7521 166.058 78.7029 166.194 78.7029 166.364C78.7029 166.586 78.7766 166.795 78.9241 166.989C79.1945 167.362 79.4833 167.662 79.7906 167.89C80.1101 168.114 80.4296 168.285 80.7492 168.405C81.081 168.506 81.4067 168.558 81.7262 168.559C82.0457 168.56 82.3345 168.527 82.5926 168.459L82.4451 172.221C82.1256 172.56 81.7876 172.885 81.4312 173.198C81.0871 173.506 80.6938 173.807 80.2514 174.098C79.809 174.377 79.3051 174.652 78.7398 174.923C78.1867 175.19 77.5477 175.455 76.8226 175.719C76.1344 175.97 75.4154 176.159 74.6657 176.288C73.9161 176.417 73.2278 176.432 72.6011 176.334C71.9743 176.222 71.452 175.98 71.0341 175.609C70.6286 175.234 70.4258 174.66 70.4258 173.888C70.4258 173.483 70.4442 172.927 70.4811 172.22C70.518 171.501 70.5671 170.685 70.6286 169.773C70.7023 168.857 70.7822 167.867 70.8682 166.802C70.9542 165.738 71.0464 164.665 71.1447 163.583C71.243 162.487 71.3414 161.405 71.4397 160.336C71.538 159.267 71.6363 158.27 71.7346 157.345C71.833 156.42 71.919 155.597 71.9927 154.877C72.0787 154.153 72.1525 153.583 72.2139 153.169C72.5703 152.699 72.9759 152.264 73.4306 151.863C73.8853 151.462 74.3585 151.106 74.8501 150.797C75.354 150.47 75.8578 150.188 76.3617 149.952C76.8656 149.704 77.351 149.494 77.8181 149.324C78.6538 149.02 79.471 148.821 80.2699 148.726C81.081 148.627 81.7508 148.638 82.2792 148.76L83.2931 152L82.6479 155.119C82.6233 155.233 82.6049 155.337 82.5926 155.433C82.5803 155.529 82.5742 155.623 82.5742 155.715C82.5742 156.159 82.82 156.305 83.3116 156.153L85.0628 147.766C85.2718 147.572 85.536 147.352 85.8555 147.105C86.1874 146.853 86.5499 146.604 86.9432 146.356C87.3487 146.104 87.785 145.86 88.252 145.625C88.719 145.389 89.1983 145.182 89.6899 145.003C90.5625 144.686 91.3245 144.487 91.9758 144.407C92.6395 144.309 93.1925 144.35 93.6349 144.529C94.0896 144.69 94.446 144.992 94.7041 145.434C94.9622 145.876 95.1343 146.474 95.2203 147.228C95.3063 148.02 95.4108 148.976 95.5337 150.095C95.6689 151.21 95.8041 152.397 95.9392 153.656C96.0744 154.901 96.2096 156.166 96.3448 157.451C96.48 158.736 96.5967 159.949 96.6951 161.09C96.8057 162.214 96.8917 163.216 96.9532 164.096C97.0269 164.971 97.0638 165.625 97.0638 166.057C95.6996 168.083 93.7332 169.564 91.1647 170.499C90.3536 170.794 89.61 170.993 88.9341 171.095C88.2582 171.197 87.6744 171.194 87.1828 171.085C86.7035 170.959 86.3164 170.733 86.0214 170.409C85.7388 170.081 85.5729 169.631 85.5237 169.06L85.3578 167.276Z"
    stroke="#292929"
    stroke-width="6"
    mask="url(#path-21-outside-1_1316_11806)"
  />
  <path
    d="M101.857 142.713C102.336 142.212 102.877 141.721 103.479 141.24C104.081 140.746 104.714 140.287 105.378 139.862C106.054 139.433 106.748 139.043 107.461 138.692C108.186 138.323 108.911 138.007 109.636 137.743C110.595 137.394 111.541 137.142 112.475 136.985C113.421 136.823 114.282 136.798 115.056 136.909C115.83 137.019 116.494 137.288 117.047 137.714C117.6 138.127 117.975 138.73 118.171 139.522L122.374 156.491C121.809 157.469 121.016 158.391 119.996 159.26C118.976 160.128 117.686 160.846 116.125 161.414C115.437 161.665 114.792 161.834 114.189 161.922C113.587 162.011 113.053 162.016 112.586 161.937C112.131 161.841 111.75 161.659 111.443 161.392C111.148 161.107 110.957 160.719 110.871 160.227L110.466 157.981C110.847 157.829 111.222 157.647 111.59 157.434C111.971 157.204 112.309 156.977 112.604 156.751C112.911 156.509 113.157 156.276 113.341 156.052C113.538 155.823 113.636 155.63 113.636 155.473C113.636 155.264 113.557 155.123 113.397 155.051C113.176 155.301 112.918 155.552 112.623 155.803C112.328 156.041 112.014 156.267 111.682 156.479C111.363 156.687 111.037 156.877 110.705 157.05C110.386 157.206 110.085 157.335 109.802 157.438C109.274 157.63 108.8 157.77 108.383 157.856C107.977 157.926 107.621 157.964 107.313 157.971C107.006 157.978 106.742 157.963 106.521 157.926C106.299 157.876 106.115 157.819 105.968 157.755C105.919 157.838 105.875 157.932 105.839 158.037C105.802 158.129 105.783 158.227 105.783 158.332C105.783 158.528 105.875 158.677 106.06 158.78C106.256 158.866 106.515 158.916 106.834 158.93C107.154 158.931 107.516 158.898 107.922 158.828C108.34 158.755 108.776 158.648 109.231 158.509C109.304 159.398 109.384 160.101 109.47 160.619C109.569 161.119 109.661 161.426 109.747 161.539C109.636 161.801 109.415 162.124 109.083 162.506C108.764 162.871 108.358 163.254 107.866 163.655C107.387 164.052 106.834 164.436 106.207 164.808C105.593 165.176 104.935 165.487 104.235 165.742C103.362 166.059 102.539 166.255 101.765 166.327C100.99 166.4 100.314 166.358 99.7368 166.202C99.1592 166.033 98.6983 165.749 98.3542 165.352C98.0101 164.941 97.838 164.408 97.838 163.754C97.838 163.61 97.8442 163.464 97.8564 163.316C97.8687 163.154 97.8933 162.989 97.9302 162.818L101.857 142.713ZM110.521 149.663C110.386 148.927 110.275 148.34 110.189 147.9C110.115 147.456 110.036 147.132 109.95 146.928C109.876 146.706 109.79 146.581 109.691 146.551C109.605 146.504 109.495 146.505 109.36 146.554C109.274 146.586 109.194 146.628 109.12 146.681C109.046 146.734 108.979 146.784 108.917 146.833L109.618 150.541C109.667 150.575 109.734 150.59 109.82 150.585C109.919 150.575 110.005 150.557 110.079 150.53C110.189 150.49 110.294 150.439 110.392 150.377C110.49 150.302 110.564 150.242 110.613 150.198L110.521 149.663Z"
    stroke="#292929"
    stroke-width="6"
    mask="url(#path-21-outside-1_1316_11806)"
  />
  <path
    d="M134.08 155.056C132.212 155.735 130.523 156.056 129.011 156.018C127.499 155.966 126.203 155.569 125.121 154.824C124.052 154.063 123.222 152.959 122.633 151.512C122.055 150.049 121.766 148.251 121.766 146.119C121.766 143.922 122.098 141.892 122.762 140.028C123.438 138.148 124.329 136.463 125.435 134.975C126.553 133.482 127.831 132.206 129.269 131.147C130.719 130.083 132.219 129.269 133.767 128.705C135.328 128.137 136.76 127.832 138.062 127.789C139.365 127.747 140.477 127.931 141.399 128.341C142.333 128.746 143.058 129.358 143.574 130.178C144.09 130.997 144.348 131.988 144.348 133.152C144.348 134.081 144.207 134.924 143.924 135.68C143.642 136.437 143.249 137.117 142.745 137.718C142.253 138.303 141.657 138.821 140.957 139.272C140.256 139.723 139.494 140.098 138.671 140.398C138.154 140.586 137.638 140.702 137.122 140.746C136.618 140.772 136.151 140.753 135.721 140.687C135.291 140.621 134.922 140.52 134.615 140.383C134.32 140.229 134.13 140.069 134.044 139.904C134.044 139.564 134.044 139.172 134.044 138.727C134.056 138.278 134.074 137.82 134.099 137.354C134.062 137.354 134.013 137.365 133.951 137.388C133.902 137.406 133.865 137.419 133.841 137.428C133.656 137.495 133.509 137.608 133.398 137.766C133.3 137.906 133.22 138.131 133.159 138.441C133.097 138.738 133.054 139.133 133.03 139.626C133.017 140.115 133.011 140.731 133.011 141.477C133.011 142.484 133.03 143.34 133.067 144.046C133.116 144.735 133.177 145.294 133.251 145.725C133.325 146.143 133.417 146.436 133.527 146.605C133.638 146.774 133.761 146.834 133.896 146.785C134.019 146.74 134.13 146.667 134.228 146.566V144.781C134.658 144.311 135.186 143.837 135.813 143.36C136.44 142.884 137.104 142.433 137.804 142.008C138.517 141.566 139.248 141.162 139.998 140.798C140.748 140.42 141.46 140.108 142.136 139.862C142.468 140.108 142.769 140.462 143.04 140.926C143.322 141.386 143.562 141.907 143.759 142.489C143.967 143.054 144.133 143.648 144.256 144.27C144.379 144.879 144.447 145.456 144.459 146.001C144.226 146.57 143.826 147.264 143.261 148.085C142.696 148.892 141.977 149.729 141.104 150.596C140.231 151.45 139.205 152.275 138.025 153.07C136.846 153.866 135.531 154.528 134.08 155.056Z"
    stroke="#292929"
    stroke-width="6"
    mask="url(#path-21-outside-1_1316_11806)"
  />
  <path
    d="M168.018 140.879C167.183 141.85 166.304 142.608 165.382 143.152C164.461 143.71 163.576 144.144 162.728 144.452C161.917 144.747 161.173 144.926 160.497 144.989C159.834 145.048 159.256 144.99 158.764 144.816C158.285 144.637 157.91 144.335 157.64 143.911C157.382 143.468 157.253 142.894 157.253 142.188V138.304L158.562 137.827C158.844 137.724 159.059 137.626 159.207 137.534C159.367 137.423 159.483 137.315 159.557 137.21C159.631 137.105 159.674 136.997 159.686 136.888C159.698 136.766 159.704 136.646 159.704 136.528L153.916 138.635C153.916 138.753 153.922 138.868 153.934 138.982C153.947 139.082 153.984 139.16 154.045 139.216C154.107 139.272 154.199 139.304 154.322 139.312C154.457 139.302 154.641 139.254 154.875 139.169L156.276 138.659V145.153C155.759 145.694 155.262 146.163 154.782 146.559C154.315 146.939 153.861 147.268 153.418 147.546C152.976 147.825 152.552 148.058 152.146 148.245C151.741 148.432 151.354 148.592 150.985 148.726C150.174 149.021 149.43 149.201 148.754 149.263C148.091 149.322 147.513 149.264 147.021 149.09C146.542 148.911 146.167 148.609 145.897 148.185C145.639 147.742 145.51 147.168 145.51 146.462V126.942C146.161 125.973 146.96 125.126 147.906 124.403C148.853 123.679 149.824 123.136 150.819 122.774C151.507 122.523 152.177 122.377 152.828 122.337C153.492 122.291 154.076 122.379 154.58 122.602C155.096 122.806 155.508 123.16 155.815 123.663C156.122 124.165 156.276 124.829 156.276 125.653V129.145L158.617 128.293C158.617 127.926 158.555 127.713 158.433 127.653C158.31 127.58 158.125 127.589 157.879 127.678L157.253 127.906V122.668C157.904 121.699 158.703 120.852 159.649 120.129C160.595 119.405 161.566 118.862 162.562 118.5C163.25 118.249 163.92 118.103 164.571 118.062C165.235 118.017 165.819 118.105 166.323 118.327C166.839 118.532 167.25 118.886 167.558 119.388C167.865 119.891 168.018 120.555 168.018 121.379V140.879Z"
    stroke="#292929"
    stroke-width="6"
    mask="url(#path-21-outside-1_1316_11806)"
  />
  <path
    d="M180.167 136.261C179.663 136.915 178.944 137.602 178.01 138.321C177.088 139.036 175.976 139.63 174.673 140.104C173.985 140.355 173.321 140.518 172.682 140.594C172.043 140.669 171.478 140.64 170.986 140.505C170.507 140.352 170.12 140.088 169.825 139.711C169.542 139.317 169.401 138.786 169.401 138.119V117.854C169.905 117.2 170.618 116.516 171.539 115.801C172.474 115.082 173.592 114.485 174.895 114.011C175.583 113.76 176.246 113.597 176.886 113.522C177.525 113.446 178.084 113.484 178.563 113.637C179.055 113.772 179.442 114.036 179.724 114.43C180.019 114.807 180.167 115.329 180.167 115.996V136.261Z"
    stroke="#292929"
    stroke-width="6"
    mask="url(#path-21-outside-1_1316_11806)"
  />
  <path
    d="M192.795 109.202C193.114 108.798 193.471 108.42 193.864 108.068C194.269 107.698 194.693 107.36 195.136 107.056C195.578 106.751 196.033 106.481 196.5 106.245C196.967 105.997 197.422 105.792 197.864 105.631C198.552 105.38 199.222 105.209 199.873 105.115C200.537 105.005 201.121 105.021 201.625 105.165C202.141 105.304 202.553 105.592 202.86 106.029C203.167 106.467 203.321 107.098 203.321 107.922V126.499C203.321 127.088 203.179 127.636 202.897 128.145C202.626 128.649 202.258 129.11 201.791 129.528C201.336 129.929 200.807 130.291 200.205 130.615C199.615 130.935 199.001 131.211 198.362 131.443C197.969 131.586 197.569 131.706 197.164 131.801C196.77 131.905 196.395 131.976 196.039 132.014C195.683 132.052 195.351 132.068 195.044 132.062C194.736 132.057 194.472 132.022 194.251 131.959C193.722 131.432 193.243 130.913 192.813 130.402C192.395 129.888 192.008 129.388 191.652 128.903C191.295 128.418 190.963 127.956 190.656 127.519C190.349 127.068 190.054 126.646 189.771 126.252C189.562 126.354 189.421 126.478 189.347 126.622C189.274 126.754 189.237 126.898 189.237 127.055C189.237 127.251 189.286 127.429 189.384 127.59C189.482 127.737 189.612 127.919 189.771 128.135L192.076 131.259V132.299C191.891 132.497 191.658 132.732 191.375 133.005C191.092 133.278 190.742 133.569 190.324 133.878C189.919 134.17 189.446 134.466 188.905 134.768C188.364 135.069 187.743 135.347 187.043 135.602C186.244 135.893 185.507 136.076 184.831 136.152C184.155 136.228 183.571 136.192 183.08 136.044C182.588 135.883 182.207 135.603 181.937 135.205C181.666 134.806 181.531 134.28 181.531 133.626V113.969C181.531 113.642 181.666 113.286 181.937 112.899C182.207 112.5 182.576 112.111 183.043 111.732C183.51 111.353 184.057 110.99 184.683 110.644C185.31 110.285 185.98 109.976 186.693 109.717C187.504 109.421 188.254 109.253 188.942 109.212C189.63 109.171 190.152 109.236 190.509 109.407C190.779 109.675 191.074 110.005 191.394 110.399C191.713 110.78 192.051 111.213 192.407 111.698C192.764 112.169 193.133 112.683 193.514 113.237C193.907 113.774 194.306 114.328 194.712 114.9C194.835 114.855 194.951 114.774 195.062 114.655C195.185 114.519 195.246 114.352 195.246 114.156C195.246 114.012 195.197 113.86 195.099 113.7C195.001 113.526 194.896 113.362 194.786 113.206L192.795 110.281V109.202Z"
    stroke="#292929"
    stroke-width="6"
    mask="url(#path-21-outside-1_1316_11806)"
  />
  <path
    d="M223.617 96.6303C223.777 96.8468 223.924 97.1005 224.06 97.3913C224.195 97.6691 224.305 97.9754 224.391 98.3103C224.477 98.6321 224.545 98.9672 224.594 99.3155C224.643 99.6507 224.668 99.9752 224.668 100.289C224.668 101.636 224.422 102.726 223.931 103.559C223.439 104.392 222.763 104.965 221.903 105.278L214.474 107.982C214.019 108.147 213.792 108.42 213.792 108.799C213.792 108.825 213.792 108.878 213.792 108.956C213.792 109.035 213.804 109.082 213.828 109.1L222.64 105.892C222.751 106.048 222.855 106.246 222.954 106.485C223.052 106.71 223.132 106.962 223.193 107.241C223.267 107.502 223.322 107.782 223.359 108.083C223.408 108.366 223.433 108.645 223.433 108.919C223.433 109.704 223.359 110.437 223.212 111.118C223.064 111.787 222.868 112.368 222.622 112.863L218.621 114.319C217.577 114.7 216.71 115.048 216.022 115.363C215.346 115.662 214.812 115.928 214.418 116.163C214.025 116.398 213.749 116.603 213.589 116.779C213.429 116.942 213.349 117.082 213.349 117.2C213.349 117.304 213.361 117.398 213.386 117.48C213.423 117.559 213.497 117.61 213.607 117.635C213.914 117.419 214.228 117.213 214.547 117.018C214.867 116.824 215.223 116.635 215.617 116.453C216.01 116.257 216.446 116.059 216.925 115.859C217.417 115.654 217.982 115.435 218.621 115.202L223.802 113.317C223.937 113.477 224.072 113.663 224.207 113.875C224.342 114.075 224.459 114.326 224.557 114.631C224.668 114.917 224.754 115.265 224.815 115.675C224.889 116.079 224.926 116.563 224.926 117.125C224.926 117.478 224.901 117.867 224.852 118.29C224.803 118.7 224.729 119.119 224.631 119.547C224.533 119.976 224.404 120.395 224.244 120.807C224.084 121.218 223.894 121.595 223.673 121.937L209.865 126.962C209.14 127.226 208.464 127.381 207.837 127.426C207.21 127.457 206.664 127.362 206.197 127.14C205.73 126.904 205.361 126.535 205.09 126.032C204.82 125.516 204.685 124.832 204.685 123.982V105.326C204.685 104.698 205.367 103.992 206.731 103.208C208.095 102.424 210.178 101.522 212.98 100.502L223.617 96.6303Z"
    stroke="#292929"
    stroke-width="6"
    mask="url(#path-21-outside-1_1316_11806)"
  />
  <path
    d="M78.5896 150.018C78.5896 149.392 77.7792 149.037 76.6274 148.994C74.7507 148.925 75.5187 140.174 75.5187 139.354H73.2566C73.2566 141.194 73.4452 145.558 73.4452 147.107C73.4452 149.219 73.2566 149.984 71.6358 150.743C69.6309 151.681 69.075 156.544 70.1414 158.933C71.2078 161.322 71.5067 159.317 72.0613 162.815C72.6158 166.313 73.8925 166.149 73.2566 160.315C73.1699 159.519 72.2096 154.885 73.6835 154.885C75.3531 154.726 74.5911 158.283 75.3531 158.283C76.0199 158.441 74.9721 154.377 76.0834 153.742C79.2587 151.138 78.5896 150.58 78.5896 150.018Z"
    fill="var(--main-theme-2, currentColor)"
  />
  <path
    d="M87.8069 146.442C88.443 145.269 88.2753 142.147 88.112 140.732L89.8205 140.519V143.785C89.8205 145.464 92.3545 143.266 94.4916 144.487C96.6287 145.709 96.873 157.066 96.873 158.898C96.873 160.73 94.5527 161.462 94.4916 157.066C94.4306 152.67 93.4536 146.106 91.1638 146.106C88.8741 146.106 91.4997 155.6 90.0037 155.662C88.5077 155.723 90.3395 148.151 88.3551 148.426C86.3706 148.701 87.5603 151.051 86.3391 151.387C85.1179 151.723 85.6075 149.586 85.638 148.426C85.6685 147.266 87.0119 147.907 87.8069 146.442Z"
    fill="var(--main-theme-2, currentColor)"
  />
  <path
    d="M92.4522 139.432V134.755C92.4522 133.717 91.6577 132.851 90.6233 132.762L87.3742 132.483C86.2064 132.383 85.2031 133.304 85.2031 134.476V139.559C85.2031 140.244 85.5462 140.907 86.1869 141.151C87.978 141.835 89.9459 141.552 91.3137 141.116C92.0314 140.888 92.4522 140.185 92.4522 139.432Z"
    fill="#D9D9D9"
  />
  <path
    d="M77.4983 138.021V134.65C77.4983 133.612 76.7038 132.746 75.6694 132.657L73.6437 132.483C72.476 132.383 71.4727 133.304 71.4727 134.476V138.147C71.4727 138.833 71.8157 139.501 72.4654 139.72C73.8213 140.178 75.2767 140.001 76.3541 139.688C77.0775 139.478 77.4983 138.774 77.4983 138.021Z"
    fill="#D9D9D9"
  />
  <path
    d="M91.3675 138.828V132.514C91.3675 132.005 91.0274 131.559 90.5365 131.424C89.8165 131.226 89.1055 131.768 89.1055 132.514V138.927C89.1055 139.234 89.1631 139.546 89.343 139.794C89.9241 140.597 90.5771 140.299 91.0219 139.84C91.2792 139.574 91.3675 139.197 91.3675 138.828Z"
    fill="#BABDBE"
  />
  <path
    d="M76.6032 137.521V132.401C76.6032 131.966 76.3113 131.585 75.8912 131.472C75.2802 131.308 74.6797 131.768 74.6797 132.401V137.622C74.6797 137.935 74.7354 138.258 74.9348 138.499C75.3836 139.043 75.8752 138.866 76.2353 138.54C76.5147 138.287 76.6032 137.898 76.6032 137.521Z"
    fill="#BABDBE"
  />
  <path
    d="M103 131.166V118.571C103 118.571 89.9487 120.408 82.6953 120.168C75.4419 119.928 65.9102 117.733 65.9102 117.733L66.2662 133.996C67.4926 135.364 72.7914 136.021 75.2875 136.178C94.533 136.178 101.782 132.837 103 131.166Z"
    fill="#BABDBE"
  />
  <ellipse cx="66.2067" cy="128.016" rx="7.42544" ry="9.066" fill="#292929" />
  <ellipse
    cx="64.791"
    cy="128.016"
    rx="6.95898"
    ry="8.49649"
    fill="var(--main-theme-2, currentColor)"
  />
  <path
    d="M63.0685 137.169C65.9688 136.28 68.1162 133.075 68.1162 129.258C68.1162 124.753 65.125 121.101 61.4352 121.101C60.8093 121.101 60.2034 121.206 59.6289 121.402L59.62 121.366L17.6602 134.009L22.2532 152.986L63.0685 137.169Z"
    fill="var(--main-theme-2, currentColor)"
  />
  <ellipse
    cx="20.386"
    cy="143.43"
    rx="8.12035"
    ry="9.91445"
    fill="var(--main-theme-2, currentColor)"
  />
  <ellipse
    cx="17.6583"
    cy="144.159"
    rx="7.07629"
    ry="8.63972"
    fill="var(--main-theme-3, currentColor)"
  />
  <defs>
    <filter
      id="filter0_d_1316_11806"
      x="0.144531"
      y="0.369141"
      width="235.016"
      height="240.233"
      filterUnits="userSpaceOnUse"
      color-interpolation-filters="sRGB"
    >
      <feFlood flood-opacity="0" result="BackgroundImageFix" />
      <feColorMatrix
        in="SourceAlpha"
        type="matrix"
        values="0 0 0 0 0 0 0 0 0 0 0 0 0 0 0 0 0 0 127 0"
        result="hardAlpha"
      />
      <feOffset />
      <feGaussianBlur stdDeviation="2" />
      <feComposite in2="hardAlpha" operator="out" />
      <feColorMatrix type="matrix" values="0 0 0 0 0 0 0 0 0 0 0 0 0 0 0 0 0 0 0.25 0" />
      <feBlend mode="normal" in2="BackgroundImageFix" result="effect1_dropShadow_1316_11806" />
      <feBlend
        mode="normal"
        in="SourceGraphic"
        in2="effect1_dropShadow_1316_11806"
        result="shape"
      />
    </filter>
  </defs>
</svg>
