<svg xmlns="http://www.w3.org/2000/svg" width="196" height="200" fill="none" viewBox="0 0 196 200">
  <g filter="url(#filter0_d_1316_11806)">
    <path
      fill="#E9E9E2"
      fill-rule="evenodd"
      d="M34.991 34.097c0-3.188 1.391-6.218 3.82-8.282 2.69-2.284 5.974-5.051 6.94-5.765.554-.41 1.117-.634 1.25-.687l.016-.006c.237-.096.48-.18.69-.25.431-.14.959-.296 1.539-.457 1.172-.326 2.757-.733 4.631-1.198 3.759-.93 8.818-2.123 14.358-3.401a3653.199 3653.199 0 0 1 32.872-7.392l.853-.188.219.032c7.004-1.235 22.826-3.039 34.401-.846 3.616.685 6.417 1.494 8.409 2.502.989.501 2.084 1.2 2.948 2.22.718.848 1.333 2.003 1.468 3.376l2.786 14.742v29.572c3.617-1.063 6.908-2.711 10.34-.113 1.507 1.14 3.366 3.77 3.555 5.72l.022.23c.048.482.007 3.762.051 4.11 1.625-.418 5.061-2.01 6.108-.542 1.72 2.41.828 8.48.225 9.819a44.807 44.807 0 0 1 2.632-.968c2.433-.803 7.771-2.871 10.781-2.603 7.336.652 5.5 6.663 4.128 12.483l-.072.305c-.301 1.287-.513 2.214-.607 2.957-.02.157-.031.277-.036.366 1.119 2.64 1.981 6.026 1.735 8.995-.252 3.049-.502 4.929-3.307 7.601-5.427 4.233-26.059 9.261-35.555 13.29v16.076l2.924 4.844c4.607 7.631 1.947 17.561-5.858 21.867l-41.011 22.624a83.248 83.248 0 0 1-69.632 4.984c-11.487-4.34-15.625-18.47-8.294-28.321l5.327-7.157c.098-.856.398-2.288 1.439-3.483.59-.677 1.314-1.154 1.628-1.358a23.98 23.98 0 0 1 1.474-.874 88.296 88.296 0 0 1 3.834-1.963c2.143-1.045 4.043-1.825 6.534-2.964.26-4.764.488-11.055.892-14.774.208-5.886 1.367-7.61 3.657-8.898v-2.794L21.98 129.771c-4.89 1.807-10.078 3.39-13.763-.297-3.578-3.58-4.405-9.654-2.491-14.6 1.638-4.233 5.467-6.17 9.8-7.524l31.633-9.892c-.578-.557-1.789-2.148-1.984-2.992v-10.45l-7.867-10.07a10.924 10.924 0 0 1-2.316-6.725V34.097Zm154.322 55.931v-.004.004Z"
      clip-rule="evenodd"
    />
  </g>
  <path
    fill="#292929"
    d="m148.302 138.383-.621-1.029-32.386-10.795-75.873 30.81-5.262 7.069c-5.435 7.303-2.367 17.779 6.15 20.997a78.47 78.47 0 0 0 65.633-4.698l36.39-20.075c7.952-4.387 10.663-14.505 5.969-22.279Z"
  />
  <path
    fill="#383938"
    d="m143.651 143.004-2.574 1.257-3.577-2.289 8.441-7.868.351.646a6.002 6.002 0 0 1-2.641 8.254Z"
  />
  <path fill="#292929" d="M62.336 75.58v71.902l47.473 11.252.399-87.175-47.872 4.02Z" />
  <path fill="#383938" d="M109.82 72.126v86.877l31.584-14.9v-84L109.82 72.126Z" />
  <path
    fill="#EEEFEA"
    d="m104.332 153.7-32.869-9.613c-3.998-1.17-8.34-.837-12.141.871-6.96 3.127-17.58 7.925-18.626 9.126-1.498 1.721-6.383 8.936 12.488 15.374 15.096 5.151 30.562 1.665 36.408-.721l20.369-9.768-.999-1.681a8 8 0 0 0-4.63-3.588Z"
  />
  <path
    fill="#F8F9F4"
    d="m104.971 153.886-33.505-9.8c-3.999-1.17-8.342-.837-12.142.871-6.96 3.127-17.58 7.925-18.626 9.126-.719.826-1.264 7.176 10.637 10.942 15.207 4.812 29.276 2.848 35.122.461l18.696-9.754c.798-.417.682-1.594-.182-1.846Z"
  />
  <path
    fill="#BABDBE"
    d="M135.699 10.146c-11.253-2.132-27.387-.168-33.625 1.03l34.504 6.554-.004.002 4.781 8.327.012-.004v116.65l1.464-.691a7.999 7.999 0 0 0 4.587-7.235V24.471l-.015.003-2.765-10.622-.012.005c-.304-1.181-2.695-2.53-8.927-3.711Z"
  />
  <ellipse cx="65.238" cy="151.756" fill="#292929" rx="5.219" ry="2.269" />
  <ellipse cx="77.957" cy="155.392" fill="#292929" rx="5.219" ry="2.269" />
  <path
    fill="#D9D9D9"
    d="M70.291 152.3c.109-.182.166-.373.166-.57 0-1.253-2.336-2.269-5.219-2.269-2.882 0-5.218 1.016-5.218 2.269 0 .196.057.386.164.567.582-.977 2.623-1.699 5.053-1.699 2.431 0 4.475.723 5.054 1.702ZM83.022 155.937c.108-.182.166-.373.166-.57 0-1.253-2.337-2.268-5.22-2.268-2.882 0-5.218 1.015-5.218 2.268 0 .196.057.386.164.568.582-.978 2.624-1.699 5.053-1.699 2.432 0 4.475.723 5.055 1.701Z"
  />
  <path
    fill="#292929"
    d="M54.016 157.504a5.26 5.26 0 0 1 3.696-.138l9.352 3.122c.46.154.485.796.037.984a5.26 5.26 0 0 1-3.697.138l-9.352-3.122a.526.526 0 0 1-.036-.984Z"
  />
  <path
    fill="#D9D9D9"
    d="M57.722 157.298a5.26 5.26 0 0 0-3.696.138.526.526 0 0 0-.261.735 5.253 5.253 0 0 1 3.49-.057l9.352 3.122a.51.51 0 0 1 .298.249 5.24 5.24 0 0 0 .206-.082.525.525 0 0 0-.037-.983l-9.352-3.122Z"
  />
  <mask
    id="path-15-outside-1_1316_11806"
    width="133.436"
    height="103.567"
    x="56.376"
    y="48.274"
    fill="#000"
    maskUnits="userSpaceOnUse"
  >
    <path fill="#fff" d="M56.376 48.274h133.436v103.567H56.376z" />
    <path
      d="M108.343 100.806c-.414.537-1 1.1-1.758 1.687-.757.588-1.671 1.076-2.742 1.466a7.29 7.29 0 0 1-1.636.402c-.525.062-.99.038-1.394-.073a1.855 1.855 0 0 1-.97-.663c-.232-.324-.348-.76-.348-1.308v-16.38c0-.99 2.277-2.313 6.833-3.97l8.893-3.238c.131.2.252.44.363.722.112.283.202.583.273.9.071.308.126.627.167.956.04.318.06.623.06.913 0 1.204-.242 2.211-.727 3.022-.485.8-1.257 1.392-2.318 1.778l-5.242 1.908c-.202.074-.348.175-.439.305a.717.717 0 0 0-.136.42v.13c0 .053.01.088.03.102l6.696-2.438c.212.31.394.717.546 1.22.151.504.227 1.057.227 1.66 0 .859-.101 1.61-.303 2.254-.192.629-.399 1.128-.621 1.5l-7.424 2.701a.584.584 0 0 0-.121.335c0 .096.03.16.091.192.071.018.182.01.333-.024.162-.037.374-.104.636-.2.273-.099.617-.218 1.031-.358v4.079ZM129.841 73.118a5.504 5.504 0 0 1 1.651-.343c.546-.038 1.025.035 1.44.218.424.178.762.474 1.015.888.252.413.378.958.378 1.635v8.965c0 1.386-.207 2.687-.621 3.901a11.521 11.521 0 0 1-1.772 3.322 12.351 12.351 0 0 1-2.758 2.632 15.22 15.22 0 0 1-3.59 1.855c-1.404.511-2.657.784-3.758.82-1.101.035-2.035-.163-2.802-.593-.758-.444-1.339-1.125-1.743-2.042-.394-.92-.591-2.08-.591-3.477V79.404a11.846 11.846 0 0 1 1.788-1.715 8.4 8.4 0 0 1 2.348-1.306c.637-.232 1.212-.35 1.728-.355.525-.019.974.086 1.348.316.384.225.677.58.879 1.066.212.482.318 1.104.318 1.868v9.399c.101.05.227.046.379-.009a.644.644 0 0 0 .318-.229c.07-.1.106-.27.106-.506V78.97c0-.354-.01-.662-.03-.924a4.57 4.57 0 0 0-.076-.698 2.674 2.674 0 0 0-.137-.547 4.012 4.012 0 0 0-.212-.47 11.146 11.146 0 0 1 1.894-1.867c.717-.551 1.55-1 2.5-1.345ZM151.006 65.705c.131.178.252.386.363.625.112.228.202.48.273.755.071.265.126.54.167.826.04.276.06.543.06.8 0 1.108-.202 2.004-.606 2.688-.404.684-.959 1.155-1.666 1.413l-6.106 2.222c-.373.136-.56.36-.56.671v.13c0 .064.01.103.03.117l7.242-2.635c.091.128.177.29.257.486.081.186.147.393.197.622.061.214.106.445.137.692.04.232.06.462.06.687 0 .645-.06 1.248-.181 1.808a6.293 6.293 0 0 1-.485 1.434l-3.288 1.196c-.858.313-1.57.599-2.136.858-.556.246-.995.465-1.318.657-.323.193-.551.362-.682.507-.131.133-.197.249-.197.345 0 .086.01.163.03.231.031.064.091.107.182.127.253-.177.51-.346.773-.507.262-.16.555-.315.879-.464.323-.161.681-.324 1.075-.489.404-.168.869-.348 1.394-.54l4.257-1.549c.111.132.223.285.334.46.111.163.207.37.287.62.091.236.162.522.213.858.06.333.09.73.09 1.192 0 .29-.02.61-.06.957a9.963 9.963 0 0 1-.182 1.034 7.54 7.54 0 0 1-.318 1.035 5.084 5.084 0 0 1-.47.928l-11.347 4.13a6.207 6.207 0 0 1-1.667.381c-.515.027-.964-.052-1.348-.234a2.092 2.092 0 0 1-.909-.91c-.222-.425-.334-.987-.334-1.685V72.85c0-.516.561-1.096 1.682-1.74 1.121-.645 2.833-1.386 5.136-2.225l8.742-3.181ZM156.354 84.572c-1.091.397-1.949.404-2.576.019-.626-.396-.939-1.249-.939-2.56V66.263a9.098 9.098 0 0 1 1.97-1.83 10.1 10.1 0 0 1 2.393-1.274 5.91 5.91 0 0 1 1.652-.36c.545-.036 1.025.036 1.439.219.424.168.762.459 1.015.872.253.413.379.958.379 1.635v8.82a5.914 5.914 0 0 0-.818.458 7.711 7.711 0 0 0-.803.615c-.243.217-.45.438-.621.661-.162.21-.243.395-.243.556 0 .118.025.206.076.263.06.042.131.076.212.1a7.761 7.761 0 0 1 1.939-1.754c.727-.458 1.566-.86 2.515-1.205l3.591-1.307c.151.224.288.47.409.738.121.257.222.531.303.825.091.278.161.564.212.857.05.294.076.575.076.844 0 .386-.031.795-.091 1.226-.051.416-.126.825-.227 1.227a9.688 9.688 0 0 1-.364 1.148 5.315 5.315 0 0 1-.485.967l-11.014 4.008ZM71.467 138.511c.353-.215.737-.532 1.151-.951.415-.42.814-1 1.197-1.742.172-.342.258-.615.258-.819 0-.279-.131-.371-.394-.276a.202.202 0 0 0-.06.038l-.046.017c-.717 1.841-1.864 3.048-3.44 3.622a4.872 4.872 0 0 1-1.105.273c-.334.035-.647.01-.94-.077a2.256 2.256 0 0 1-.833-.471 4.064 4.064 0 0 1-.757-.917l-.091.033a.752.752 0 0 0-.288.185.462.462 0 0 0-.121.335c0 .182.06.354.182.514.222.306.46.553.712.74.262.184.525.325.788.423.272.083.54.126.802.127.263.001.5-.026.713-.082l-.122 3.091c-.262.279-.54.546-.833.804-.283.253-.606.5-.97.739-.363.229-.777.455-1.242.678-.454.219-.98.437-1.576.654-.565.206-1.156.362-1.772.468-.616.106-1.182.119-1.697.037-.515-.092-.944-.29-1.288-.595-.333-.309-.5-.78-.5-1.414 0-.333.016-.79.046-1.371.03-.592.07-1.262.121-2.011l.197-2.442c.07-.875.146-1.757.227-2.646l.243-2.668c.08-.878.161-1.698.242-2.458l.212-2.028c.07-.596.131-1.064.182-1.404a7.344 7.344 0 0 1 1-1.074 9.183 9.183 0 0 1 1.166-.876c.414-.269.829-.5 1.243-.694.414-.204.813-.376 1.197-.516a8.993 8.993 0 0 1 2.015-.492c.666-.081 1.217-.072 1.65.028l.834 2.663-.53 2.563c-.02.094-.035.18-.045.259-.01.079-.016.156-.016.231 0 .365.202.485.606.36l1.44-6.892c.171-.16.389-.341.651-.544a12.291 12.291 0 0 1 1.97-1.217c.383-.193.777-.363 1.181-.51.718-.261 1.344-.425 1.879-.491.545-.08 1-.046 1.363.101.374.132.667.38.88.744.211.363.353.855.423 1.474l.258 2.357c.111.916.222 1.891.333 2.926.111 1.023.222 2.063.334 3.119.11 1.056.207 2.053.287 2.991a88.2 88.2 0 0 1 .213 2.47c.06.72.09 1.257.09 1.611-1.12 1.666-2.737 2.883-4.848 3.651a9.599 9.599 0 0 1-1.833.49c-.555.084-1.035.081-1.44-.008a1.912 1.912 0 0 1-.953-.556c-.233-.27-.37-.639-.41-1.108l-.136-1.466ZM85.026 118.324a13.44 13.44 0 0 1 1.334-1.211 16.358 16.358 0 0 1 1.56-1.132 18.002 18.002 0 0 1 1.712-.962 16.093 16.093 0 0 1 1.788-.78 13.294 13.294 0 0 1 2.333-.623c.778-.133 1.485-.154 2.121-.063.636.091 1.182.312 1.636.662.455.34.763.835.924 1.486l3.455 13.946c-.465.803-1.116 1.562-1.955 2.275-.838.714-1.898 1.304-3.181 1.771a8.154 8.154 0 0 1-1.59.418c-.496.072-.935.076-1.319.012a2.043 2.043 0 0 1-.94-.448c-.242-.234-.398-.554-.469-.958l-.333-1.846c.313-.124.62-.274.924-.449.313-.189.59-.376.833-.561.253-.199.455-.391.606-.575.162-.188.243-.346.243-.475 0-.172-.066-.288-.197-.348a6.323 6.323 0 0 1-.637.619 8.9 8.9 0 0 1-.772.555c-.263.171-.53.327-.803.47a8.51 8.51 0 0 1-1.909.662 6.156 6.156 0 0 1-.879.094 3.451 3.451 0 0 1-.651-.037 2.553 2.553 0 0 1-.455-.141c-.04.069-.076.146-.106.232a.65.65 0 0 0-.045.243.4.4 0 0 0 .227.368c.161.071.374.112.636.123.263.002.56-.026.894-.083a9.038 9.038 0 0 0 1.076-.263 22.5 22.5 0 0 0 .197 1.735c.08.411.156.663.227.755-.091.216-.273.481-.545.795-.263.3-.596.615-1 .945-.394.326-.849.642-1.364.947a9.478 9.478 0 0 1-1.621.768 8.216 8.216 0 0 1-2.03.481c-.636.059-1.192.025-1.667-.103-.475-.139-.853-.372-1.136-.699-.283-.338-.424-.775-.424-1.313 0-.118.005-.238.015-.36.01-.133.03-.269.06-.409l3.227-16.523Zm7.121 5.711c-.11-.604-.202-1.087-.273-1.448-.06-.365-.126-.632-.197-.799-.06-.182-.13-.286-.212-.31-.07-.039-.161-.038-.272.002a.839.839 0 0 0-.197.104c-.06.044-.116.086-.167.126l.576 3.047c.04.028.096.04.166.036a.876.876 0 0 0 .213-.045c.09-.033.176-.075.257-.126.08-.062.142-.111.182-.147l-.076-.44ZM111.509 128.467c-1.535.559-2.924.823-4.166.791-1.242-.042-2.308-.369-3.197-.981-.879-.626-1.56-1.533-2.045-2.722-.475-1.203-.712-2.68-.712-4.432 0-1.806.273-3.474.818-5.006.555-1.545 1.288-2.93 2.197-4.153a15.202 15.202 0 0 1 3.151-3.146c1.192-.874 2.424-1.543 3.697-2.006 1.282-.467 2.459-.718 3.53-.753 1.07-.035 1.984.116 2.742.453.768.333 1.363.836 1.788 1.51.424.673.636 1.488.636 2.444 0 .763-.116 1.456-.349 2.078a5.686 5.686 0 0 1-.969 1.675c-.404.48-.894.906-1.47 1.276a9.35 9.35 0 0 1-1.878.926c-.425.154-.849.25-1.273.286a5.64 5.64 0 0 1-1.151-.049 3.572 3.572 0 0 1-.909-.249c-.243-.127-.399-.258-.47-.394v-.967c.01-.369.025-.745.045-1.129-.03 0-.07.01-.121.028l-.091.033a.744.744 0 0 0-.363.278c-.081.115-.147.3-.197.555a6.547 6.547 0 0 0-.106.974c-.01.401-.015.908-.015 1.521 0 .827.015 1.531.045 2.111.04.566.091 1.026.151 1.38.061.344.137.585.228.724.091.138.192.188.303.147a.708.708 0 0 0 .272-.18v-1.467a9.828 9.828 0 0 1 1.303-1.167 18.925 18.925 0 0 1 1.637-1.112 20.151 20.151 0 0 1 1.802-.995c.617-.31 1.202-.566 1.758-.768.273.202.52.493.742.874.233.378.43.806.591 1.285.172.464.308.952.409 1.463.101.501.157.975.167 1.423-.192.467-.52 1.038-.985 1.712a15.346 15.346 0 0 1-1.773 2.064c-.717.702-1.56 1.38-2.53 2.034a14.844 14.844 0 0 1-3.242 1.631ZM139.401 116.816c-.687.798-1.409 1.421-2.167 1.869a12.54 12.54 0 0 1-2.181 1.068c-.667.243-1.278.39-1.833.441-.546.048-1.021.001-1.425-.142a1.823 1.823 0 0 1-.924-.744c-.212-.364-.318-.836-.318-1.416V114.7l1.076-.392c.232-.084.409-.165.53-.241.131-.091.227-.18.288-.266a.57.57 0 0 0 .106-.264c.01-.101.015-.199.015-.296l-4.757 1.731c0 .097.005.192.015.285.01.082.04.147.091.193.05.046.126.072.227.078.111-.008.263-.047.455-.117l1.151-.419v5.337c-.424.444-.833.83-1.227 1.156-.384.311-.758.582-1.121.811a9.32 9.32 0 0 1-1.045.574c-.334.153-.652.285-.955.396-.667.242-1.278.389-1.833.441-.546.048-1.02.001-1.424-.143a1.808 1.808 0 0 1-.924-.744c-.213-.363-.319-.835-.319-1.415v-16.042a8.789 8.789 0 0 1 1.97-2.088c.778-.594 1.576-1.041 2.394-1.338a5.913 5.913 0 0 1 1.651-.36c.545-.037 1.025.036 1.439.218.425.168.763.459 1.015.872.253.413.379.959.379 1.636v2.87l1.924-.701c0-.301-.05-.476-.151-.525-.101-.06-.253-.053-.455.02l-.515.188v-4.305a8.77 8.77 0 0 1 1.97-2.087 9.023 9.023 0 0 1 2.393-1.339 5.91 5.91 0 0 1 1.652-.36c.545-.036 1.025.036 1.439.219.424.168.763.458 1.015.872.253.413.379.958.379 1.635v16.026ZM149.385 113.021c-.414.538-1.005 1.102-1.773 1.693-.757.587-1.671 1.076-2.742 1.466a7.277 7.277 0 0 1-1.636.402c-.525.062-.99.038-1.394-.073a1.919 1.919 0 0 1-.954-.653c-.233-.323-.349-.759-.349-1.308V97.894c.414-.538 1-1.1 1.758-1.688.767-.59 1.686-1.081 2.757-1.471a7.307 7.307 0 0 1 1.636-.402c.525-.062.985-.03 1.379.095.404.11.722.328.954.652.243.31.364.738.364 1.286v16.655ZM159.763 90.783c.262-.332.555-.642.879-.932a9.747 9.747 0 0 1 2.166-1.498 8.866 8.866 0 0 1 1.121-.505 8.254 8.254 0 0 1 1.652-.424c.545-.09 1.025-.077 1.439.04.424.115.762.352 1.015.712.252.36.379.877.379 1.555v15.268c0 .483-.116.934-.349 1.352a4.179 4.179 0 0 1-.909 1.137 6.926 6.926 0 0 1-1.303.893c-.485.263-.99.489-1.515.681a8.911 8.911 0 0 1-.985.294 6.343 6.343 0 0 1-1.742.215 2.575 2.575 0 0 1-.651-.086 19.949 19.949 0 0 1-1.182-1.279 32.335 32.335 0 0 1-.954-1.232 72.04 72.04 0 0 1-.819-1.137 47.535 47.535 0 0 0-.727-1.042c-.171.084-.288.186-.348.304a.715.715 0 0 0-.091.356c0 .161.04.308.121.44.081.121.187.27.318.448l1.894 2.568v.854a14.53 14.53 0 0 1-.576.58c-.232.225-.52.464-.863.718-.334.239-.722.483-1.167.731a10.67 10.67 0 0 1-1.53.686 8.004 8.004 0 0 1-1.818.452c-.556.062-1.035.033-1.439-.089a1.759 1.759 0 0 1-.94-.69c-.222-.328-.333-.76-.333-1.297V94.701c0-.269.111-.562.333-.88a4.58 4.58 0 0 1 .909-.959c.384-.312.834-.61 1.349-.894.515-.295 1.065-.549 1.651-.762.667-.243 1.283-.381 1.848-.415.566-.034.995.02 1.288.16.222.22.465.492.727.816.263.313.541.668.834 1.067.293.388.596.81.909 1.265.323.441.651.897.984 1.367a.748.748 0 0 0 .288-.202.59.59 0 0 0 .152-.41.73.73 0 0 0-.121-.375 4.777 4.777 0 0 0-.258-.406l-1.636-2.403v-.887ZM185.094 80.451c.131.178.253.386.364.626.111.228.202.48.272.755a6.828 6.828 0 0 1 .228 1.626c0 1.107-.202 2.003-.606 2.687-.404.685-.96 1.156-1.667 1.413l-6.105 2.222c-.374.136-.561.36-.561.672v.129c0 .064.01.104.03.118l7.242-2.636c.091.128.177.29.258.487.081.185.146.392.197.621.06.215.106.445.136.692.04.233.061.462.061.688a8.55 8.55 0 0 1-.182 1.807 6.246 6.246 0 0 1-.485 1.434l-3.288 1.197c-.858.312-1.57.598-2.136.858-.555.245-.995.464-1.318.657-.323.193-.55.361-.682.506-.131.134-.197.249-.197.346 0 .086.011.163.031.23.03.065.091.107.182.128.252-.178.51-.347.772-.507.263-.16.556-.315.879-.465.323-.16.682-.324 1.076-.488a32.76 32.76 0 0 1 1.393-.54l4.258-1.55c.111.132.222.285.333.46.111.163.207.37.288.62.091.236.161.522.212.858.061.333.091.73.091 1.192 0 .29-.02.61-.061.958a9.71 9.71 0 0 1-.182 1.033c-.08.352-.186.697-.318 1.035a5.145 5.145 0 0 1-.469.929l-11.348 4.13a6.198 6.198 0 0 1-1.666.381c-.516.026-.965-.052-1.349-.235a2.088 2.088 0 0 1-.909-.911c-.222-.424-.333-.985-.333-1.684V87.597c0-.515.56-1.096 1.681-1.74 1.122-.645 2.834-1.386 5.136-2.224l8.742-3.182Z"
    />
  </mask>
  <path
    fill="#F8F9F4"
    d="M108.343 100.806c-.414.537-1 1.1-1.758 1.687-.757.588-1.671 1.076-2.742 1.466a7.29 7.29 0 0 1-1.636.402c-.525.062-.99.038-1.394-.073a1.855 1.855 0 0 1-.97-.663c-.232-.324-.348-.76-.348-1.308v-16.38c0-.99 2.277-2.313 6.833-3.97l8.893-3.238c.131.2.252.44.363.722.112.283.202.583.273.9.071.308.126.627.167.956.04.318.06.623.06.913 0 1.204-.242 2.211-.727 3.022-.485.8-1.257 1.392-2.318 1.778l-5.242 1.908c-.202.074-.348.175-.439.305a.717.717 0 0 0-.136.42v.13c0 .053.01.088.03.102l6.696-2.438c.212.31.394.717.546 1.22.151.504.227 1.057.227 1.66 0 .859-.101 1.61-.303 2.254-.192.629-.399 1.128-.621 1.5l-7.424 2.701a.584.584 0 0 0-.121.335c0 .096.03.16.091.192.071.018.182.01.333-.024.162-.037.374-.104.636-.2.273-.099.617-.218 1.031-.358v4.079ZM129.841 73.118a5.504 5.504 0 0 1 1.651-.343c.546-.038 1.025.035 1.44.218.424.178.762.474 1.015.888.252.413.378.958.378 1.635v8.965c0 1.386-.207 2.687-.621 3.901a11.521 11.521 0 0 1-1.772 3.322 12.351 12.351 0 0 1-2.758 2.632 15.22 15.22 0 0 1-3.59 1.855c-1.404.511-2.657.784-3.758.82-1.101.035-2.035-.163-2.802-.593-.758-.444-1.339-1.125-1.743-2.042-.394-.92-.591-2.08-.591-3.477V79.404a11.846 11.846 0 0 1 1.788-1.715 8.4 8.4 0 0 1 2.348-1.306c.637-.232 1.212-.35 1.728-.355.525-.019.974.086 1.348.316.384.225.677.58.879 1.066.212.482.318 1.104.318 1.868v9.399c.101.05.227.046.379-.009a.644.644 0 0 0 .318-.229c.07-.1.106-.27.106-.506V78.97c0-.354-.01-.662-.03-.924a4.57 4.57 0 0 0-.076-.698 2.674 2.674 0 0 0-.137-.547 4.012 4.012 0 0 0-.212-.47 11.146 11.146 0 0 1 1.894-1.867c.717-.551 1.55-1 2.5-1.345ZM151.006 65.705c.131.178.252.386.363.625.112.228.202.48.273.755.071.265.126.54.167.826.04.276.06.543.06.8 0 1.108-.202 2.004-.606 2.688-.404.684-.959 1.155-1.666 1.413l-6.106 2.222c-.373.136-.56.36-.56.671v.13c0 .064.01.103.03.117l7.242-2.635c.091.128.177.29.257.486.081.186.147.393.197.622.061.214.106.445.137.692.04.232.06.462.06.687 0 .645-.06 1.248-.181 1.808a6.293 6.293 0 0 1-.485 1.434l-3.288 1.196c-.858.313-1.57.599-2.136.858-.556.246-.995.465-1.318.657-.323.193-.551.362-.682.507-.131.133-.197.249-.197.345 0 .086.01.163.03.231.031.064.091.107.182.127.253-.177.51-.346.773-.507.262-.16.555-.315.879-.464.323-.161.681-.324 1.075-.489.404-.168.869-.348 1.394-.54l4.257-1.549c.111.132.223.285.334.46.111.163.207.37.287.62.091.236.162.522.213.858.06.333.09.73.09 1.192 0 .29-.02.61-.06.957a9.963 9.963 0 0 1-.182 1.034 7.54 7.54 0 0 1-.318 1.035 5.084 5.084 0 0 1-.47.928l-11.347 4.13a6.207 6.207 0 0 1-1.667.381c-.515.027-.964-.052-1.348-.234a2.092 2.092 0 0 1-.909-.91c-.222-.425-.334-.987-.334-1.685V72.85c0-.516.561-1.096 1.682-1.74 1.121-.645 2.833-1.386 5.136-2.225l8.742-3.181ZM156.354 84.572c-1.091.397-1.949.404-2.576.019-.626-.396-.939-1.249-.939-2.56V66.263a9.098 9.098 0 0 1 1.97-1.83 10.1 10.1 0 0 1 2.393-1.274 5.91 5.91 0 0 1 1.652-.36c.545-.036 1.025.036 1.439.219.424.168.762.459 1.015.872.253.413.379.958.379 1.635v8.82a5.914 5.914 0 0 0-.818.458 7.711 7.711 0 0 0-.803.615c-.243.217-.45.438-.621.661-.162.21-.243.395-.243.556 0 .118.025.206.076.263.06.042.131.076.212.1a7.761 7.761 0 0 1 1.939-1.754c.727-.458 1.566-.86 2.515-1.205l3.591-1.307c.151.224.288.47.409.738.121.257.222.531.303.825.091.278.161.564.212.857.05.294.076.575.076.844 0 .386-.031.795-.091 1.226-.051.416-.126.825-.227 1.227a9.688 9.688 0 0 1-.364 1.148 5.315 5.315 0 0 1-.485.967l-11.014 4.008ZM71.467 138.511c.353-.215.737-.532 1.151-.951.415-.42.814-1 1.197-1.742.172-.342.258-.615.258-.819 0-.279-.131-.371-.394-.276a.202.202 0 0 0-.06.038l-.046.017c-.717 1.841-1.864 3.048-3.44 3.622a4.872 4.872 0 0 1-1.105.273c-.334.035-.647.01-.94-.077a2.256 2.256 0 0 1-.833-.471 4.064 4.064 0 0 1-.757-.917l-.091.033a.752.752 0 0 0-.288.185.462.462 0 0 0-.121.335c0 .182.06.354.182.514.222.306.46.553.712.74.262.184.525.325.788.423.272.083.54.126.802.127.263.001.5-.026.713-.082l-.122 3.091c-.262.279-.54.546-.833.804-.283.253-.606.5-.97.739-.363.229-.777.455-1.242.678-.454.219-.98.437-1.576.654-.565.206-1.156.362-1.772.468-.616.106-1.182.119-1.697.037-.515-.092-.944-.29-1.288-.595-.333-.309-.5-.78-.5-1.414 0-.333.016-.79.046-1.371.03-.592.07-1.262.121-2.011l.197-2.442c.07-.875.146-1.757.227-2.646l.243-2.668c.08-.878.161-1.698.242-2.458l.212-2.028c.07-.596.131-1.064.182-1.404a7.344 7.344 0 0 1 1-1.074 9.183 9.183 0 0 1 1.166-.876c.414-.269.829-.5 1.243-.694.414-.204.813-.376 1.197-.516a8.993 8.993 0 0 1 2.015-.492c.666-.081 1.217-.072 1.65.028l.834 2.663-.53 2.563c-.02.094-.035.18-.045.259-.01.079-.016.156-.016.231 0 .365.202.485.606.36l1.44-6.892c.171-.16.389-.341.651-.544a12.291 12.291 0 0 1 1.97-1.217c.383-.193.777-.363 1.181-.51.718-.261 1.344-.425 1.879-.491.545-.08 1-.046 1.363.101.374.132.667.38.88.744.211.363.353.855.423 1.474l.258 2.357c.111.916.222 1.891.333 2.926.111 1.023.222 2.063.334 3.119.11 1.056.207 2.053.287 2.991a88.2 88.2 0 0 1 .213 2.47c.06.72.09 1.257.09 1.611-1.12 1.666-2.737 2.883-4.848 3.651a9.599 9.599 0 0 1-1.833.49c-.555.084-1.035.081-1.44-.008a1.912 1.912 0 0 1-.953-.556c-.233-.27-.37-.639-.41-1.108l-.136-1.466ZM85.026 118.324a13.44 13.44 0 0 1 1.334-1.211 16.358 16.358 0 0 1 1.56-1.132 18.002 18.002 0 0 1 1.712-.962 16.093 16.093 0 0 1 1.788-.78 13.294 13.294 0 0 1 2.333-.623c.778-.133 1.485-.154 2.121-.063.636.091 1.182.312 1.636.662.455.34.763.835.924 1.486l3.455 13.946c-.465.803-1.116 1.562-1.955 2.275-.838.714-1.898 1.304-3.181 1.771a8.154 8.154 0 0 1-1.59.418c-.496.072-.935.076-1.319.012a2.043 2.043 0 0 1-.94-.448c-.242-.234-.398-.554-.469-.958l-.333-1.846c.313-.124.62-.274.924-.449.313-.189.59-.376.833-.561.253-.199.455-.391.606-.575.162-.188.243-.346.243-.475 0-.172-.066-.288-.197-.348a6.323 6.323 0 0 1-.637.619 8.9 8.9 0 0 1-.772.555c-.263.171-.53.327-.803.47a8.51 8.51 0 0 1-1.909.662 6.156 6.156 0 0 1-.879.094 3.451 3.451 0 0 1-.651-.037 2.553 2.553 0 0 1-.455-.141c-.04.069-.076.146-.106.232a.65.65 0 0 0-.045.243.4.4 0 0 0 .227.368c.161.071.374.112.636.123.263.002.56-.026.894-.083a9.038 9.038 0 0 0 1.076-.263 22.5 22.5 0 0 0 .197 1.735c.08.411.156.663.227.755-.091.216-.273.481-.545.795-.263.3-.596.615-1 .945-.394.326-.849.642-1.364.947a9.478 9.478 0 0 1-1.621.768 8.216 8.216 0 0 1-2.03.481c-.636.059-1.192.025-1.667-.103-.475-.139-.853-.372-1.136-.699-.283-.338-.424-.775-.424-1.313 0-.118.005-.238.015-.36.01-.133.03-.269.06-.409l3.227-16.523Zm7.121 5.711c-.11-.604-.202-1.087-.273-1.448-.06-.365-.126-.632-.197-.799-.06-.182-.13-.286-.212-.31-.07-.039-.161-.038-.272.002a.839.839 0 0 0-.197.104c-.06.044-.116.086-.167.126l.576 3.047c.04.028.096.04.166.036a.876.876 0 0 0 .213-.045c.09-.033.176-.075.257-.126.08-.062.142-.111.182-.147l-.076-.44ZM111.509 128.467c-1.535.559-2.924.823-4.166.791-1.242-.042-2.308-.369-3.197-.981-.879-.626-1.56-1.533-2.045-2.722-.475-1.203-.712-2.68-.712-4.432 0-1.806.273-3.474.818-5.006.555-1.545 1.288-2.93 2.197-4.153a15.202 15.202 0 0 1 3.151-3.146c1.192-.874 2.424-1.543 3.697-2.006 1.282-.467 2.459-.718 3.53-.753 1.07-.035 1.984.116 2.742.453.768.333 1.363.836 1.788 1.51.424.673.636 1.488.636 2.444 0 .763-.116 1.456-.349 2.078a5.686 5.686 0 0 1-.969 1.675c-.404.48-.894.906-1.47 1.276a9.35 9.35 0 0 1-1.878.926c-.425.154-.849.25-1.273.286a5.64 5.64 0 0 1-1.151-.049 3.572 3.572 0 0 1-.909-.249c-.243-.127-.399-.258-.47-.394v-.967c.01-.369.025-.745.045-1.129-.03 0-.07.01-.121.028l-.091.033a.744.744 0 0 0-.363.278c-.081.115-.147.3-.197.555a6.547 6.547 0 0 0-.106.974c-.01.401-.015.908-.015 1.521 0 .827.015 1.531.045 2.111.04.566.091 1.026.151 1.38.061.344.137.585.228.724.091.138.192.188.303.147a.708.708 0 0 0 .272-.18v-1.467a9.828 9.828 0 0 1 1.303-1.167 18.925 18.925 0 0 1 1.637-1.112 20.151 20.151 0 0 1 1.802-.995c.617-.31 1.202-.566 1.758-.768.273.202.52.493.742.874.233.378.43.806.591 1.285.172.464.308.952.409 1.463.101.501.157.975.167 1.423-.192.467-.52 1.038-.985 1.712a15.346 15.346 0 0 1-1.773 2.064c-.717.702-1.56 1.38-2.53 2.034a14.844 14.844 0 0 1-3.242 1.631ZM139.401 116.816c-.687.798-1.409 1.421-2.167 1.869a12.54 12.54 0 0 1-2.181 1.068c-.667.243-1.278.39-1.833.441-.546.048-1.021.001-1.425-.142a1.823 1.823 0 0 1-.924-.744c-.212-.364-.318-.836-.318-1.416V114.7l1.076-.392c.232-.084.409-.165.53-.241.131-.091.227-.18.288-.266a.57.57 0 0 0 .106-.264c.01-.101.015-.199.015-.296l-4.757 1.731c0 .097.005.192.015.285.01.082.04.147.091.193.05.046.126.072.227.078.111-.008.263-.047.455-.117l1.151-.419v5.337c-.424.444-.833.83-1.227 1.156-.384.311-.758.582-1.121.811a9.32 9.32 0 0 1-1.045.574c-.334.153-.652.285-.955.396-.667.242-1.278.389-1.833.441-.546.048-1.02.001-1.424-.143a1.808 1.808 0 0 1-.924-.744c-.213-.363-.319-.835-.319-1.415v-16.042a8.789 8.789 0 0 1 1.97-2.088c.778-.594 1.576-1.041 2.394-1.338a5.913 5.913 0 0 1 1.651-.36c.545-.037 1.025.036 1.439.218.425.168.763.459 1.015.872.253.413.379.959.379 1.636v2.87l1.924-.701c0-.301-.05-.476-.151-.525-.101-.06-.253-.053-.455.02l-.515.188v-4.305a8.77 8.77 0 0 1 1.97-2.087 9.023 9.023 0 0 1 2.393-1.339 5.91 5.91 0 0 1 1.652-.36c.545-.036 1.025.036 1.439.219.424.168.763.458 1.015.872.253.413.379.958.379 1.635v16.026ZM149.385 113.021c-.414.538-1.005 1.102-1.773 1.693-.757.587-1.671 1.076-2.742 1.466a7.277 7.277 0 0 1-1.636.402c-.525.062-.99.038-1.394-.073a1.919 1.919 0 0 1-.954-.653c-.233-.323-.349-.759-.349-1.308V97.894c.414-.538 1-1.1 1.758-1.688.767-.59 1.686-1.081 2.757-1.471a7.307 7.307 0 0 1 1.636-.402c.525-.062.985-.03 1.379.095.404.11.722.328.954.652.243.31.364.738.364 1.286v16.655ZM159.763 90.783c.262-.332.555-.642.879-.932a9.747 9.747 0 0 1 2.166-1.498 8.866 8.866 0 0 1 1.121-.505 8.254 8.254 0 0 1 1.652-.424c.545-.09 1.025-.077 1.439.04.424.115.762.352 1.015.712.252.36.379.877.379 1.555v15.268c0 .483-.116.934-.349 1.352a4.179 4.179 0 0 1-.909 1.137 6.926 6.926 0 0 1-1.303.893c-.485.263-.99.489-1.515.681a8.911 8.911 0 0 1-.985.294 6.343 6.343 0 0 1-1.742.215 2.575 2.575 0 0 1-.651-.086 19.949 19.949 0 0 1-1.182-1.279 32.335 32.335 0 0 1-.954-1.232 72.04 72.04 0 0 1-.819-1.137 47.535 47.535 0 0 0-.727-1.042c-.171.084-.288.186-.348.304a.715.715 0 0 0-.091.356c0 .161.04.308.121.44.081.121.187.27.318.448l1.894 2.568v.854a14.53 14.53 0 0 1-.576.58c-.232.225-.52.464-.863.718-.334.239-.722.483-1.167.731a10.67 10.67 0 0 1-1.53.686 8.004 8.004 0 0 1-1.818.452c-.556.062-1.035.033-1.439-.089a1.759 1.759 0 0 1-.94-.69c-.222-.328-.333-.76-.333-1.297V94.701c0-.269.111-.562.333-.88a4.58 4.58 0 0 1 .909-.959c.384-.312.834-.61 1.349-.894.515-.295 1.065-.549 1.651-.762.667-.243 1.283-.381 1.848-.415.566-.034.995.02 1.288.16.222.22.465.492.727.816.263.313.541.668.834 1.067.293.388.596.81.909 1.265.323.441.651.897.984 1.367a.748.748 0 0 0 .288-.202.59.59 0 0 0 .152-.41.73.73 0 0 0-.121-.375 4.777 4.777 0 0 0-.258-.406l-1.636-2.403v-.887ZM185.094 80.451c.131.178.253.386.364.626.111.228.202.48.272.755a6.828 6.828 0 0 1 .228 1.626c0 1.107-.202 2.003-.606 2.687-.404.685-.96 1.156-1.667 1.413l-6.105 2.222c-.374.136-.561.36-.561.672v.129c0 .064.01.104.03.118l7.242-2.636c.091.128.177.29.258.487.081.185.146.392.197.621.06.215.106.445.136.692.04.233.061.462.061.688a8.55 8.55 0 0 1-.182 1.807 6.246 6.246 0 0 1-.485 1.434l-3.288 1.197c-.858.312-1.57.598-2.136.858-.555.245-.995.464-1.318.657-.323.193-.55.361-.682.506-.131.134-.197.249-.197.346 0 .086.011.163.031.23.03.065.091.107.182.128.252-.178.51-.347.772-.507.263-.16.556-.315.879-.465.323-.16.682-.324 1.076-.488a32.76 32.76 0 0 1 1.393-.54l4.258-1.55c.111.132.222.285.333.46.111.163.207.37.288.62.091.236.161.522.212.858.061.333.091.73.091 1.192 0 .29-.02.61-.061.958a9.71 9.71 0 0 1-.182 1.033c-.08.352-.186.697-.318 1.035a5.145 5.145 0 0 1-.469.929l-11.348 4.13a6.198 6.198 0 0 1-1.666.381c-.516.026-.965-.052-1.349-.235a2.088 2.088 0 0 1-.909-.911c-.222-.424-.333-.985-.333-1.684V87.597c0-.515.56-1.096 1.681-1.74 1.122-.645 2.834-1.386 5.136-2.224l8.742-3.182Z"
  />
  <path
    stroke="#292929"
    stroke-width="6"
    d="M108.343 100.806c-.414.537-1 1.1-1.758 1.687-.757.588-1.671 1.076-2.742 1.466a7.29 7.29 0 0 1-1.636.402c-.525.062-.99.038-1.394-.073a1.855 1.855 0 0 1-.97-.663c-.232-.324-.348-.76-.348-1.308v-16.38c0-.99 2.277-2.313 6.833-3.97l8.893-3.238c.131.2.252.44.363.722.112.283.202.583.273.9.071.308.126.627.167.956.04.318.06.623.06.913 0 1.204-.242 2.211-.727 3.022-.485.8-1.257 1.392-2.318 1.778l-5.242 1.908c-.202.074-.348.175-.439.305a.717.717 0 0 0-.136.42v.13c0 .053.01.088.03.102l6.696-2.438c.212.31.394.717.546 1.22.151.504.227 1.057.227 1.66 0 .859-.101 1.61-.303 2.254-.192.629-.399 1.128-.621 1.5l-7.424 2.701a.584.584 0 0 0-.121.335c0 .096.03.16.091.192.071.018.182.01.333-.024.162-.037.374-.104.636-.2.273-.099.617-.218 1.031-.358v4.079ZM129.841 73.118a5.504 5.504 0 0 1 1.651-.343c.546-.038 1.025.035 1.44.218.424.178.762.474 1.015.888.252.413.378.958.378 1.635v8.965c0 1.386-.207 2.687-.621 3.901a11.521 11.521 0 0 1-1.772 3.322 12.351 12.351 0 0 1-2.758 2.632 15.22 15.22 0 0 1-3.59 1.855c-1.404.511-2.657.784-3.758.82-1.101.035-2.035-.163-2.802-.593-.758-.444-1.339-1.125-1.743-2.042-.394-.92-.591-2.08-.591-3.477V79.404a11.846 11.846 0 0 1 1.788-1.715 8.4 8.4 0 0 1 2.348-1.306c.637-.232 1.212-.35 1.728-.355.525-.019.974.086 1.348.316.384.225.677.58.879 1.066.212.482.318 1.104.318 1.868v9.399c.101.05.227.046.379-.009a.644.644 0 0 0 .318-.229c.07-.1.106-.27.106-.506V78.97c0-.354-.01-.662-.03-.924a4.57 4.57 0 0 0-.076-.698 2.674 2.674 0 0 0-.137-.547 4.012 4.012 0 0 0-.212-.47 11.146 11.146 0 0 1 1.894-1.867c.717-.551 1.55-1 2.5-1.345ZM151.006 65.705c.131.178.252.386.363.625.112.228.202.48.273.755.071.265.126.54.167.826.04.276.06.543.06.8 0 1.108-.202 2.004-.606 2.688-.404.684-.959 1.155-1.666 1.413l-6.106 2.222c-.373.136-.56.36-.56.671v.13c0 .064.01.103.03.117l7.242-2.635c.091.128.177.29.257.486.081.186.147.393.197.622.061.214.106.445.137.692.04.232.06.462.06.687 0 .645-.06 1.248-.181 1.808a6.293 6.293 0 0 1-.485 1.434l-3.288 1.196c-.858.313-1.57.599-2.136.858-.556.246-.995.465-1.318.657-.323.193-.551.362-.682.507-.131.133-.197.249-.197.345 0 .086.01.163.03.231.031.064.091.107.182.127.253-.177.51-.346.773-.507.262-.16.555-.315.879-.464.323-.161.681-.324 1.075-.489.404-.168.869-.348 1.394-.54l4.257-1.549c.111.132.223.285.334.46.111.163.207.37.287.62.091.236.162.522.213.858.06.333.09.73.09 1.192 0 .29-.02.61-.06.957a9.963 9.963 0 0 1-.182 1.034 7.54 7.54 0 0 1-.318 1.035 5.084 5.084 0 0 1-.47.928l-11.347 4.13a6.207 6.207 0 0 1-1.667.381c-.515.027-.964-.052-1.348-.234a2.092 2.092 0 0 1-.909-.91c-.222-.425-.334-.987-.334-1.685V72.85c0-.516.561-1.096 1.682-1.74 1.121-.645 2.833-1.386 5.136-2.225l8.742-3.181ZM156.354 84.572c-1.091.397-1.949.404-2.576.019-.626-.396-.939-1.249-.939-2.56V66.263a9.098 9.098 0 0 1 1.97-1.83 10.1 10.1 0 0 1 2.393-1.274 5.91 5.91 0 0 1 1.652-.36c.545-.036 1.025.036 1.439.219.424.168.762.459 1.015.872.253.413.379.958.379 1.635v8.82a5.914 5.914 0 0 0-.818.458 7.711 7.711 0 0 0-.803.615c-.243.217-.45.438-.621.661-.162.21-.243.395-.243.556 0 .118.025.206.076.263.06.042.131.076.212.1a7.761 7.761 0 0 1 1.939-1.754c.727-.458 1.566-.86 2.515-1.205l3.591-1.307c.151.224.288.47.409.738.121.257.222.531.303.825.091.278.161.564.212.857.05.294.076.575.076.844 0 .386-.031.795-.091 1.226-.051.416-.126.825-.227 1.227a9.688 9.688 0 0 1-.364 1.148 5.315 5.315 0 0 1-.485.967l-11.014 4.008ZM71.467 138.511c.353-.215.737-.532 1.151-.951.415-.42.814-1 1.197-1.742.172-.342.258-.615.258-.819 0-.279-.131-.371-.394-.276a.202.202 0 0 0-.06.038l-.046.017c-.717 1.841-1.864 3.048-3.44 3.622a4.872 4.872 0 0 1-1.105.273c-.334.035-.647.01-.94-.077a2.256 2.256 0 0 1-.833-.471 4.064 4.064 0 0 1-.757-.917l-.091.033a.752.752 0 0 0-.288.185.462.462 0 0 0-.121.335c0 .182.06.354.182.514.222.306.46.553.712.74.262.184.525.325.788.423.272.083.54.126.802.127.263.001.5-.026.713-.082l-.122 3.091c-.262.279-.54.546-.833.804-.283.253-.606.5-.97.739-.363.229-.777.455-1.242.678-.454.219-.98.437-1.576.654-.565.206-1.156.362-1.772.468-.616.106-1.182.119-1.697.037-.515-.092-.944-.29-1.288-.595-.333-.309-.5-.78-.5-1.414 0-.333.016-.79.046-1.371.03-.592.07-1.262.121-2.011l.197-2.442c.07-.875.146-1.757.227-2.646l.243-2.668c.08-.878.161-1.698.242-2.458l.212-2.028c.07-.596.131-1.064.182-1.404a7.344 7.344 0 0 1 1-1.074 9.183 9.183 0 0 1 1.166-.876c.414-.269.829-.5 1.243-.694.414-.204.813-.376 1.197-.516a8.993 8.993 0 0 1 2.015-.492c.666-.081 1.217-.072 1.65.028l.834 2.663-.53 2.563c-.02.094-.035.18-.045.259-.01.079-.016.156-.016.231 0 .365.202.485.606.36l1.44-6.892c.171-.16.389-.341.651-.544a12.291 12.291 0 0 1 1.97-1.217c.383-.193.777-.363 1.181-.51.718-.261 1.344-.425 1.879-.491.545-.08 1-.046 1.363.101.374.132.667.38.88.744.211.363.353.855.423 1.474l.258 2.357c.111.916.222 1.891.333 2.926.111 1.023.222 2.063.334 3.119.11 1.056.207 2.053.287 2.991a88.2 88.2 0 0 1 .213 2.47c.06.72.09 1.257.09 1.611-1.12 1.666-2.737 2.883-4.848 3.651a9.599 9.599 0 0 1-1.833.49c-.555.084-1.035.081-1.44-.008a1.912 1.912 0 0 1-.953-.556c-.233-.27-.37-.639-.41-1.108l-.136-1.466ZM85.026 118.324a13.44 13.44 0 0 1 1.334-1.211 16.358 16.358 0 0 1 1.56-1.132 18.002 18.002 0 0 1 1.712-.962 16.093 16.093 0 0 1 1.788-.78 13.294 13.294 0 0 1 2.333-.623c.778-.133 1.485-.154 2.121-.063.636.091 1.182.312 1.636.662.455.34.763.835.924 1.486l3.455 13.946c-.465.803-1.116 1.562-1.955 2.275-.838.714-1.898 1.304-3.181 1.771a8.154 8.154 0 0 1-1.59.418c-.496.072-.935.076-1.319.012a2.043 2.043 0 0 1-.94-.448c-.242-.234-.398-.554-.469-.958l-.333-1.846c.313-.124.62-.274.924-.449.313-.189.59-.376.833-.561.253-.199.455-.391.606-.575.162-.188.243-.346.243-.475 0-.172-.066-.288-.197-.348a6.323 6.323 0 0 1-.637.619 8.9 8.9 0 0 1-.772.555c-.263.171-.53.327-.803.47a8.51 8.51 0 0 1-1.909.662 6.156 6.156 0 0 1-.879.094 3.451 3.451 0 0 1-.651-.037 2.553 2.553 0 0 1-.455-.141c-.04.069-.076.146-.106.232a.65.65 0 0 0-.045.243.4.4 0 0 0 .227.368c.161.071.374.112.636.123.263.002.56-.026.894-.083a9.038 9.038 0 0 0 1.076-.263 22.5 22.5 0 0 0 .197 1.735c.08.411.156.663.227.755-.091.216-.273.481-.545.795-.263.3-.596.615-1 .945-.394.326-.849.642-1.364.947a9.478 9.478 0 0 1-1.621.768 8.216 8.216 0 0 1-2.03.481c-.636.059-1.192.025-1.667-.103-.475-.139-.853-.372-1.136-.699-.283-.338-.424-.775-.424-1.313 0-.118.005-.238.015-.36.01-.133.03-.269.06-.409l3.227-16.523Zm7.121 5.711c-.11-.604-.202-1.087-.273-1.448-.06-.365-.126-.632-.197-.799-.06-.182-.13-.286-.212-.31-.07-.039-.161-.038-.272.002a.839.839 0 0 0-.197.104c-.06.044-.116.086-.167.126l.576 3.047c.04.028.096.04.166.036a.876.876 0 0 0 .213-.045c.09-.033.176-.075.257-.126.08-.062.142-.111.182-.147l-.076-.44ZM111.509 128.467c-1.535.559-2.924.823-4.166.791-1.242-.042-2.308-.369-3.197-.981-.879-.626-1.56-1.533-2.045-2.722-.475-1.203-.712-2.68-.712-4.432 0-1.806.273-3.474.818-5.006.555-1.545 1.288-2.93 2.197-4.153a15.202 15.202 0 0 1 3.151-3.146c1.192-.874 2.424-1.543 3.697-2.006 1.282-.467 2.459-.718 3.53-.753 1.07-.035 1.984.116 2.742.453.768.333 1.363.836 1.788 1.51.424.673.636 1.488.636 2.444 0 .763-.116 1.456-.349 2.078a5.686 5.686 0 0 1-.969 1.675c-.404.48-.894.906-1.47 1.276a9.35 9.35 0 0 1-1.878.926c-.425.154-.849.25-1.273.286a5.64 5.64 0 0 1-1.151-.049 3.572 3.572 0 0 1-.909-.249c-.243-.127-.399-.258-.47-.394v-.967c.01-.369.025-.745.045-1.129-.03 0-.07.01-.121.028l-.091.033a.744.744 0 0 0-.363.278c-.081.115-.147.3-.197.555a6.547 6.547 0 0 0-.106.974c-.01.401-.015.908-.015 1.521 0 .827.015 1.531.045 2.111.04.566.091 1.026.151 1.38.061.344.137.585.228.724.091.138.192.188.303.147a.708.708 0 0 0 .272-.18v-1.467a9.828 9.828 0 0 1 1.303-1.167 18.925 18.925 0 0 1 1.637-1.112 20.151 20.151 0 0 1 1.802-.995c.617-.31 1.202-.566 1.758-.768.273.202.52.493.742.874.233.378.43.806.591 1.285.172.464.308.952.409 1.463.101.501.157.975.167 1.423-.192.467-.52 1.038-.985 1.712a15.346 15.346 0 0 1-1.773 2.064c-.717.702-1.56 1.38-2.53 2.034a14.844 14.844 0 0 1-3.242 1.631ZM139.401 116.816c-.687.798-1.409 1.421-2.167 1.869a12.54 12.54 0 0 1-2.181 1.068c-.667.243-1.278.39-1.833.441-.546.048-1.021.001-1.425-.142a1.823 1.823 0 0 1-.924-.744c-.212-.364-.318-.836-.318-1.416V114.7l1.076-.392c.232-.084.409-.165.53-.241.131-.091.227-.18.288-.266a.57.57 0 0 0 .106-.264c.01-.101.015-.199.015-.296l-4.757 1.731c0 .097.005.192.015.285.01.082.04.147.091.193.05.046.126.072.227.078.111-.008.263-.047.455-.117l1.151-.419v5.337c-.424.444-.833.83-1.227 1.156-.384.311-.758.582-1.121.811a9.32 9.32 0 0 1-1.045.574c-.334.153-.652.285-.955.396-.667.242-1.278.389-1.833.441-.546.048-1.02.001-1.424-.143a1.808 1.808 0 0 1-.924-.744c-.213-.363-.319-.835-.319-1.415v-16.042a8.789 8.789 0 0 1 1.97-2.088c.778-.594 1.576-1.041 2.394-1.338a5.913 5.913 0 0 1 1.651-.36c.545-.037 1.025.036 1.439.218.425.168.763.459 1.015.872.253.413.379.959.379 1.636v2.87l1.924-.701c0-.301-.05-.476-.151-.525-.101-.06-.253-.053-.455.02l-.515.188v-4.305a8.77 8.77 0 0 1 1.97-2.087 9.023 9.023 0 0 1 2.393-1.339 5.91 5.91 0 0 1 1.652-.36c.545-.036 1.025.036 1.439.219.424.168.763.458 1.015.872.253.413.379.958.379 1.635v16.026ZM149.385 113.021c-.414.538-1.005 1.102-1.773 1.693-.757.587-1.671 1.076-2.742 1.466a7.277 7.277 0 0 1-1.636.402c-.525.062-.99.038-1.394-.073a1.919 1.919 0 0 1-.954-.653c-.233-.323-.349-.759-.349-1.308V97.894c.414-.538 1-1.1 1.758-1.688.767-.59 1.686-1.081 2.757-1.471a7.307 7.307 0 0 1 1.636-.402c.525-.062.985-.03 1.379.095.404.11.722.328.954.652.243.31.364.738.364 1.286v16.655ZM159.763 90.783c.262-.332.555-.642.879-.932a9.747 9.747 0 0 1 2.166-1.498 8.866 8.866 0 0 1 1.121-.505 8.254 8.254 0 0 1 1.652-.424c.545-.09 1.025-.077 1.439.04.424.115.762.352 1.015.712.252.36.379.877.379 1.555v15.268c0 .483-.116.934-.349 1.352a4.179 4.179 0 0 1-.909 1.137 6.926 6.926 0 0 1-1.303.893c-.485.263-.99.489-1.515.681a8.911 8.911 0 0 1-.985.294 6.343 6.343 0 0 1-1.742.215 2.575 2.575 0 0 1-.651-.086 19.949 19.949 0 0 1-1.182-1.279 32.335 32.335 0 0 1-.954-1.232 72.04 72.04 0 0 1-.819-1.137 47.535 47.535 0 0 0-.727-1.042c-.171.084-.288.186-.348.304a.715.715 0 0 0-.091.356c0 .161.04.308.121.44.081.121.187.27.318.448l1.894 2.568v.854a14.53 14.53 0 0 1-.576.58c-.232.225-.52.464-.863.718-.334.239-.722.483-1.167.731a10.67 10.67 0 0 1-1.53.686 8.004 8.004 0 0 1-1.818.452c-.556.062-1.035.033-1.439-.089a1.759 1.759 0 0 1-.94-.69c-.222-.328-.333-.76-.333-1.297V94.701c0-.269.111-.562.333-.88a4.58 4.58 0 0 1 .909-.959c.384-.312.834-.61 1.349-.894.515-.295 1.065-.549 1.651-.762.667-.243 1.283-.381 1.848-.415.566-.034.995.02 1.288.16.222.22.465.492.727.816.263.313.541.668.834 1.067.293.388.596.81.909 1.265.323.441.651.897.984 1.367a.748.748 0 0 0 .288-.202.59.59 0 0 0 .152-.41.73.73 0 0 0-.121-.375 4.777 4.777 0 0 0-.258-.406l-1.636-2.403v-.887ZM185.094 80.451c.131.178.253.386.364.626.111.228.202.48.272.755a6.828 6.828 0 0 1 .228 1.626c0 1.107-.202 2.003-.606 2.687-.404.685-.96 1.156-1.667 1.413l-6.105 2.222c-.374.136-.561.36-.561.672v.129c0 .064.01.104.03.118l7.242-2.636c.091.128.177.29.258.487.081.185.146.392.197.621.06.215.106.445.136.692.04.233.061.462.061.688a8.55 8.55 0 0 1-.182 1.807 6.246 6.246 0 0 1-.485 1.434l-3.288 1.197c-.858.312-1.57.598-2.136.858-.555.245-.995.464-1.318.657-.323.193-.55.361-.682.506-.131.134-.197.249-.197.346 0 .086.011.163.031.23.03.065.091.107.182.128.252-.178.51-.347.772-.507.263-.16.556-.315.879-.465.323-.16.682-.324 1.076-.488a32.76 32.76 0 0 1 1.393-.54l4.258-1.55c.111.132.222.285.333.46.111.163.207.37.288.62.091.236.161.522.212.858.061.333.091.73.091 1.192 0 .29-.02.61-.061.958a9.71 9.71 0 0 1-.182 1.033c-.08.352-.186.697-.318 1.035a5.145 5.145 0 0 1-.469.929l-11.348 4.13a6.198 6.198 0 0 1-1.666.381c-.516.026-.965-.052-1.349-.235a2.088 2.088 0 0 1-.909-.911c-.222-.424-.333-.985-.333-1.684V87.597c0-.515.56-1.096 1.681-1.74 1.122-.645 2.834-1.386 5.136-2.224l8.742-3.182Z"
    mask="url(#path-15-outside-1_1316_11806)"
  />
  <path
    fill="#D9D9D9"
    d="M134.306 11.193c-9.729-1.843-26.135.135-31.529 1.171l32.044 5.404s.584-.114 4.355-1.057c3.6-.9 5.804-3.496-4.87-5.518Z"
  />
  <path
    fill="#383938"
    d="M102.938 12.036c5.393-1.036 21.799-3.014 31.528-1.17 6.973 1.32 8.45 2.886 7.632 4.064-.634-.935-2.83-1.961-7.632-2.87-8.079-1.531-20.76-.427-27.919.585l-3.609-.61ZM90.515 83.733V94.73l-.008.026c-.26.834-1.82 5.815-19.08 5.23-14.71-.5-20.434-3.44-21.461-5.574V81.954L39.73 70.764l70.137-3.544v6.669l-18.286 9.424c.01.033-.276.198-1.066.42Z"
  />
  <path
    fill="#292929"
    d="M49.982 81.986 39.707 70.772l70.176-4.025v6.57L91.287 82.6c.034.1-2.903 1.481-15.239 1.883-13.607.444-22.253-1.003-26.066-2.498Z"
  />
  <path
    fill="#383938"
    d="m95.207 77.986 46.147-17.743.105-34.38-39.757-8.415L39.95 32.66l-.173 38.042c1.608 1.71 4.115 3.439 7.863 5.053 13.142 5.661 35.698 5.733 47.567 2.23Z"
  />
  <path
    fill="#383938"
    d="m92.364 39.24 49.104-13.372-3.322-6.213a7.999 7.999 0 0 0-5.9-4.144l-30.107-4.392C84.793 14.938 49.8 22.797 48.596 23.687c-1.506 1.113-9.303 7.315-8.61 9.396.694 2.081 3.816 4.683 22.114 7.11 14.637 1.943 26.275.174 30.264-.953Z"
  />
  <path
    fill="#292929"
    d="m140.911 24.82-48.54 13.166c-3.989 1.128-15.626 2.897-30.264.954-17.461-2.317-21.102-4.792-22.001-6.822-.153.375-.2.703-.113.965.694 2.082 3.815 4.683 22.113 7.111 14.638 1.943 26.275.174 30.264-.954l49.102-13.37-.561-1.05Z"
  />
  <path
    fill="#C4C7C8"
    d="m131.818 18.719-29.889-4.78C89.41 16.341 62.967 21.9 56.632 23.213c-7.918 1.64-6.206 3.246-5.314 3.888.892.642 4.637 1.212 14.802 2.39 8.132.94 19.598.483 26.465-1.178l39.233-9.594Z"
  />
  <path
    fill="#E9E9E2"
    d="M71.612 34.779c0 1.407-1.315 2.547-2.937 2.547-1.622 0-2.937-1.14-2.937-2.547 0-1.407 1.315-2.548 2.937-2.548 1.622 0 2.937 1.14 2.937 2.548ZM56.006 34.471c-1.024 1.237-2.715 1.528-3.777.649-1.062-.879-1.093-2.594-.07-3.831 1.024-1.238 2.715-1.528 3.777-.65 1.062.88 1.093 2.595.07 3.832ZM46.566 31.052c-1.064 1.052-2.361 1.464-2.897.922-.536-.543-.109-1.835.955-2.886 1.064-1.051 2.36-1.464 2.897-.921.536.542.108 1.834-.955 2.885Z"
  />
  <path
    fill="#C4C7C8"
    d="M101.733 57.053c-1.98-.319-3.334-3.155-3.048-6.464.293-3.404 2.21-6.018 4.282-5.84.172.016.34.05.504.1l6.362 1.034-1.266 12.766-6.835-1.585.001-.01Z"
  />
  <path
    fill="#C4C7C8"
    d="m100.296 49.92-6.344 2.786a2.155 2.155 0 0 0 .522 4.1l4.55 1.342 3.371-4.595c.348-.255.609-.612.748-1.02l1.55-2.112-2.922-.592-.006.004a2.083 2.083 0 0 0-1.469.087Z"
  />
  <path
    fill="#D9D9D9"
    d="M112.962 52.586c-.303 3.519-2.285 6.22-4.427 6.036-2.141-.184-3.631-3.186-3.328-6.704.303-3.518 2.285-6.22 4.427-6.036 2.141.185 3.631 3.186 3.328 6.704Z"
  />
  <path
    fill="#D9D9D9"
    d="m99.003 54.204 6.344-2.786a2.111 2.111 0 0 1 1.721 3.854l-6.309 2.865c-1.5.68-3.177-.505-3.036-2.146a2.153 2.153 0 0 1 1.28-1.787Z"
  />
  <path
    fill="#383938"
    d="M65.904 124.327c0-.514-.666-.806-1.613-.842-1.542-.057-.911-7.248-.911-7.923h-1.86c0 1.513.156 5.1.156 6.373 0 1.735-.155 2.364-1.487 2.988-1.648.771-2.105 4.768-1.228 6.731.876 1.963 1.122.315 1.578 3.19.455 2.875 1.505 2.74.982-2.055-.071-.653-.86-4.462.35-4.462 1.373-.13.747 2.792 1.373 2.792.548.131-.313-3.209.6-3.731 2.61-2.14 2.06-2.599 2.06-3.061ZM73.48 121.387c.523-.963.386-3.529.251-4.692l1.405-.175v2.684c0 1.38 2.082-.426 3.839.577 1.756 1.004 1.957 10.338 1.957 11.843 0 1.506-1.907 2.108-1.957-1.505-.05-3.613-.854-9.008-2.735-9.008-1.882 0 .276 7.803-.954 7.854-1.23.05.276-6.173-1.355-5.947-1.63.226-.653 2.158-1.657 2.434-1.003.276-.6-1.48-.576-2.434.025-.953 1.13-.426 1.783-1.631Z"
  />
  <path
    fill="#D9D9D9"
    d="M77.297 115.408v-3.298a2 2 0 0 0-1.828-1.993l-1.958-.168a2 2 0 0 0-2.171 1.993v3.592c0 .686.343 1.354.993 1.572 1.332.446 2.76.274 3.82-.032.724-.208 1.144-.913 1.144-1.666ZM65.007 114.248v-2.225a2 2 0 0 0-1.83-1.992l-.951-.082a2 2 0 0 0-2.171 1.993v2.432c0 .686.343 1.36 1.003 1.547.973.277 1.99.179 2.797-.027.73-.185 1.152-.893 1.152-1.646Z"
  />
  <path
    fill="#BABDBE"
    d="M76.406 115.029v-5.088a.93.93 0 0 0-1.86 0v5.187c0 .307.054.624.247.863.433.538.909.363 1.257.041.271-.251.356-.633.356-1.003ZM64.272 113.954v-4.106a.79.79 0 0 0-1.58 0v4.206c0 .313.049.644.265.87.322.334.664.246.934.036.298-.231.381-.629.381-1.006Z"
  />
  <path
    fill="#BABDBE"
    d="M85.965 108.834V98.483s-10.726 1.51-16.687 1.312c-5.961-.197-13.794-1.778-13.794-1.778l.292 13.143c1.008 1.124 5.362 1.664 7.414 1.793 15.817 0 21.774-2.746 22.775-4.119Z"
  />
  <ellipse cx="55.731" cy="106.245" fill="#F8F9F4" rx="6.103" ry="7.451" />
  <ellipse cx="54.95" cy="106.245" fill="#D9D9D9" rx="6.103" ry="7.451" />
  <path
    fill="#F8F9F4"
    d="M53.15 113.768c2.384-.732 4.149-3.366 4.149-6.503 0-3.702-2.458-6.703-5.49-6.703-.515 0-1.013.086-1.485.247l-.008-.029-34.484 10.39 3.775 15.596 33.543-12.998Z"
  />
  <ellipse cx="18.072" cy="118.913" fill="#D9D9D9" rx="6.674" ry="8.148" />
  <ellipse cx="15.831" cy="119.512" fill="#F8F9F4" rx="5.816" ry="7.1" />
  <path
    fill="#292929"
    d="m101.933 13.94 29.889 4.779-4.737 1.158-25.153-4.022c-10.386 1.993-30.356 6.159-40.477 8.27l-4.82 1.004c-3.08.638-4.702 1.27-5.483 1.843-.895-.71-1.95-2.219 5.484-3.76 1.08-.223 2.742-.57 4.82-1.003 10.12-2.111 30.09-6.277 40.477-8.27Z"
  />
  <defs>
    <filter
      id="filter0_d_1316_11806"
      width="194.57"
      height="198.859"
      x=".723"
      y=".627"
      color-interpolation-filters="sRGB"
      filterUnits="userSpaceOnUse"
    >
      <feFlood flood-opacity="0" result="BackgroundImageFix" />
      <feColorMatrix
        in="SourceAlpha"
        result="hardAlpha"
        values="0 0 0 0 0 0 0 0 0 0 0 0 0 0 0 0 0 0 127 0"
      />
      <feOffset />
      <feGaussianBlur stdDeviation="2" />
      <feComposite in2="hardAlpha" operator="out" />
      <feColorMatrix values="0 0 0 0 0 0 0 0 0 0 0 0 0 0 0 0 0 0 0.25 0" />
      <feBlend in2="BackgroundImageFix" result="effect1_dropShadow_1316_11806" />
      <feBlend in="SourceGraphic" in2="effect1_dropShadow_1316_11806" result="shape" />
    </filter>
  </defs>
</svg>
