<svg xmlns="http://www.w3.org/2000/svg" width="358" height="253" fill="none" viewBox="0 0 358 253">
  <path
    fill="var(--theme-4, #161616)"
    d="M93.04 93.7.317 61.444 21.438.728l92.724 32.256L93.041 93.7Z"
  />
  <path
    stroke="var(--theme-1, #E9E9E2)"
    stroke-miterlimit="10"
    stroke-width=".491"
    d="m69.677 30.176-15.784.668c-.727.03-1.04.935-.49 1.41l11.662 10.062c.55.474.235 1.378-.491 1.41l-15.39.653c-.726.031-1.041.935-.49 1.41l11.662 10.063c.55.475.237 1.379-.49 1.41l-15.393.655c-.726.032-1.04.935-.49 1.41l11.96 10.325a8.552 8.552 0 0 0 2.778 1.603l10.783 3.75c.287.101.501-.27.27-.468L57.673 64.089c-.55-.475-.236-1.378.492-1.41l15.391-.655c.727-.032 1.041-.935.491-1.41L62.383 50.551c-.55-.475-.236-1.379.49-1.41l15.39-.653c.728-.032 1.042-.935.491-1.41L67.093 37.016c-.552-.475-.237-1.379.49-1.41l15.967-.675c.305-.013.368-.436.08-.536l-10.783-3.751a8.563 8.563 0 0 0-3.17-.468Z"
  />
  <path
    stroke="var(--theme-1, #E9E9E2)"
    stroke-miterlimit="10"
    stroke-width=".491"
    d="m28.564 60.129-11.96-10.325c-.551-.475-.236-1.38.49-1.41l15.393-.656c.726-.031 1.041-.935.49-1.41L21.314 36.266c-.55-.474-.236-1.378.49-1.41l15.391-.653c.727-.031 1.041-.935.49-1.41L26.024 22.73c-.55-.475-.236-1.38.491-1.41l15.784-.667a8.55 8.55 0 0 1 3.17.467l10.783 3.751c.287.1.225.524-.079.537l-15.968.674c-.727.031-1.041.935-.49 1.41l11.66 10.062c.552.475.237 1.38-.49 1.41l-15.39.654c-.725.031-1.04.935-.49 1.41L46.666 51.09c.551.474.237 1.379-.489 1.41l-15.393.655c-.727.031-1.04.935-.49 1.41l12.102 10.447c.23.2.016.57-.272.47L31.342 61.73a8.543 8.543 0 0 1-2.778-1.602Z"
  />
  <path
    fill="var(--theme-1, #E9E9E2)"
    d="m79.852 74.674 1.37.398-.274.79-.119-.406c.164.127.305.258.424.395a3.5 3.5 0 0 1 .322.438c.099.156.198.338.299.547.141.291.28.572.416.841.137.269.268.54.394.814.127.275.258.565.394.873l-1.459-.377.297-.849.149.393a4.876 4.876 0 0 1-.41-.41 3.427 3.427 0 0 1-.335-.462 5.815 5.815 0 0 1-.343-.68c-.195-.389-.384-.77-.567-1.14-.184-.373-.368-.761-.558-1.165Zm-1.332 1.281a1.403 1.403 0 0 0-.067.772c.053.235.197.452.432.65.235.2.576.377 1.025.534l2.209.768c.2.07.395.124.581.163.185.039.351.062.497.068.145.008.269 0 .373-.026a1.18 1.18 0 0 0 .501-.28c.143-.134.255-.317.335-.55.096-.278.116-.54.058-.786s-.2-.472-.428-.677c-.228-.205-.563-.384-1.004-.538l-2.243-.78a3.716 3.716 0 0 0-.669-.173 2.564 2.564 0 0 0-.536-.031 1.08 1.08 0 0 0-.412.097.934.934 0 0 0-.39.294 1.698 1.698 0 0 0-.262.495Zm-1.343-.48c.192-.55.485-.984.881-1.302.398-.317.877-.506 1.436-.569.56-.06 1.169.023 1.827.252l2.207.768c.666.231 1.2.547 1.6.947.4.4.651.85.758 1.351.11.503.068 1.025-.12 1.567a2.935 2.935 0 0 1-.607 1.033 2.578 2.578 0 0 1-.943.649 3.013 3.013 0 0 1-1.198.208 4.509 4.509 0 0 1-1.397-.271l-2.207-.768c-.674-.234-1.21-.551-1.605-.949a2.717 2.717 0 0 1-.756-1.35c-.106-.501-.065-1.024.124-1.566ZM83.79 68.254l.069-.197.11-.32.112-.32c.034-.1.057-.166.069-.197a.115.115 0 0 1 .04-.063.273.273 0 0 1 .056-.027.115.115 0 0 1 .075.007l3.43 1.192c.053.02.133.047.242.086a46.81 46.81 0 0 1 .703.244l.204.07c-.009.024-.027.08-.06.169l-.106.308-.123.354-.11.313-.059.169a.133.133 0 0 1-.066.081.134.134 0 0 1-.105.003L87.91 70l-.646-.224-.737-.256c-.248-.087-.463-.162-.645-.224l-.354-.124-.455-.25a29.83 29.83 0 0 0-.51-.274 22.598 22.598 0 0 0-.775-.394Zm-3.738-.297.064-.186.116-.331c.044-.128.089-.254.13-.378a60.143 60.143 0 0 0 .178-.511l.208.073c.256.315.512.636.768.963.254.328.514.658.78.995.266.335.534.675.803 1.022l.824 1.054c.28.358.568.724.864 1.095l-.662-.49.905.314-.303.233a4.003 4.003 0 0 1 .026-.785c.035-.248.087-.507.161-.778.072-.27.166-.572.282-.905l.82-2.358a.13.13 0 0 1 .042-.064.218.218 0 0 1 .054-.026.127.127 0 0 1 .077.006l.157.056.272.094.308.107.28.097c.08.029.132.047.156.054l-2.042 5.868a.127.127 0 0 1-.039.058.142.142 0 0 1-.062.03.132.132 0 0 1-.07-.004l-1.173-.409-.656-.775-.668-.792-.762-.903c-.257-.306-.505-.602-.746-.884-.24-.284-.453-.538-.64-.764a20.195 20.195 0 0 0-.428-.507.21.21 0 0 1-.04-.092.374.374 0 0 1 .016-.177ZM82.549 60.034a4.35 4.35 0 0 1 .514-1.051c.202-.29.367-.491.502-.6a.172.172 0 0 1 .092-.06.265.265 0 0 1 .13.02c.024.007.076.026.158.054l.278.097.326.113c.111.04.208.073.29.101l.169.058-.074.21c-.258.248-.478.51-.655.781a4.322 4.322 0 0 0-.451.943c-.106.303-.156.57-.15.802.005.232.06.453.16.661.112.23.287.421.525.574.237.152.538.291.903.418l2.01.699c.27.094.515.162.73.203.216.04.404.053.566.04.16-.014.302-.047.425-.1.16-.084.296-.198.412-.345.116-.146.214-.33.292-.557.156-.449.154-.835-.005-1.16-.161-.325-.451-.56-.868-.706l-.187-.064a1.84 1.84 0 0 0-.58-.117.95.95 0 0 0-.424.08 1.06 1.06 0 0 0-.381.31c-.12.149-.228.355-.319.618-.108.31-.162.618-.159.928 0 .308.06.627.18.956l-1.27-.352.243-.697.071.468a2.165 2.165 0 0 1-.385-.968c-.05-.347.006-.749.164-1.206.162-.464.391-.839.69-1.12a2.081 2.081 0 0 1 1.037-.546c.391-.08.816-.04 1.274.118l.71.246c.463.162.84.426 1.129.79.29.367.469.795.535 1.288.07.492.007 1.014-.185 1.564-.216.62-.523 1.103-.92 1.45-.4.348-.883.549-1.447.604-.567.055-1.21-.043-1.931-.294l-1.685-.585c-.572-.2-1.043-.437-1.412-.714-.368-.275-.651-.575-.846-.9a2.91 2.91 0 0 1-.384-1.012c-.06-.35-.07-.699-.027-1.045.042-.346.12-.677.23-.995ZM84.908 53.227a4.67 4.67 0 0 1 .561-1.147c.216-.306.454-.54.714-.702.26-.162.534-.252.824-.273.29-.02.59.022.9.13l.278.097c.264.092.499.208.704.35.208.141.39.327.543.559.153.232.29.524.41.88.122.353.23.796.333 1.326.108.489.213.886.315 1.19.104.305.217.55.346.732.126.183.272.325.437.427.164.1.36.19.584.268l-.244.253.287-.825-.096.684c-.023-.234-.03-.448-.023-.64a3.18 3.18 0 0 1 .09-.633 8.37 8.37 0 0 1 .248-.832l.757-2.172a.132.132 0 0 1 .067-.081.132.132 0 0 1 .105-.002c.024.007.075.026.156.054a136.882 136.882 0 0 1 .623.216l.295.103.157.055a61.46 61.46 0 0 0-.114.33c-.073.206-.163.468-.274.786l-.365 1.05-.398 1.145-.366 1.05-.273.786c-.07.201-.108.31-.112.325a.148.148 0 0 1-.04.058.187.187 0 0 1-.057.033.134.134 0 0 1-.076-.007l-.917-.32a3.358 3.358 0 0 1-1.154-.655c-.312-.278-.573-.65-.782-1.119-.211-.468-.396-1.073-.554-1.814a8.927 8.927 0 0 0-.255-1.007 3.405 3.405 0 0 0-.263-.612 1.082 1.082 0 0 0-.29-.334 1.246 1.246 0 0 0-.328-.175l-.092-.032a1.031 1.031 0 0 0-.33-.062.746.746 0 0 0-.31.062c-.115.056-.228.163-.34.324-.112.162-.224.4-.335.717-.15.434-.224.852-.22 1.252.005.4.076.81.22 1.223l-.069.197-.169-.058-.297-.104-.342-.119-.29-.1-.157-.055a.241.241 0 0 1-.131-.111c-.11-.255-.169-.625-.174-1.11-.005-.483.09-1.004.283-1.561ZM93.646 50.703l.11-.32c.07-.197.159-.452.266-.761.109-.31.226-.647.35-1.01.129-.364.256-.729.381-1.093l.353-1.01.263-.756c.065-.194.103-.298.109-.313a.127.127 0 0 1 .068-.081.126.126 0 0 1 .103-.003c.032.01.105.036.221.077l.39.135.394.138c.12.041.196.068.226.08-.005.015-.04.119-.108.312l-.26.75-.353 1.01a720.13 720.13 0 0 1-.732 2.11l-.266.76c-.069.197-.105.304-.11.32a.104.104 0 0 1-.031.048.526.526 0 0 0-.037.033l-.055.006a.095.095 0 0 1-.05-.005c-.024-.007-.076-.026-.157-.053-.082-.03-.18-.064-.296-.103l-.338-.118-.284-.099a12.63 12.63 0 0 1-.157-.054Zm-6.158-4.5.068-.192c.032-.097.073-.21.119-.342l.135-.39.114-.326c.03-.088.049-.145.058-.167.011-.031.025-.053.041-.064a.19.19 0 0 1 .056-.026.118.118 0 0 1 .074.006l.419.146.988.343 1.33.463 1.47.511 1.369.477 1.052.366.506.176-.525 1.51-.266-.17a156.1 156.1 0 0 0-1.128-.392l-.336-.118-.668-.232c-.266-.093-.556-.193-.865-.302l-.925-.32-.854-.298-.656-.228-.32-.111.266-.09-.194.557-.116-.378c.176.191.322.365.437.523.115.157.21.316.284.476.074.16.153.346.235.558.062.177.113.333.158.465.044.133.076.234.096.306.017.072.022.123.01.154a.081.081 0 0 1-.032.04.119.119 0 0 1-.06.02.168.168 0 0 1-.066-.012l-1.476-.512-.2-.61c-.063-.2-.13-.404-.197-.61l-.147-.441c-.05-.157-.096-.305-.143-.448a5.607 5.607 0 0 0-.11-.318ZM89.613 40.469l.513-1.475.428.266c.113.048.245.109.393.181.148.074.338.165.569.27.234.108.485.228.76.363.275.134.54.262.8.382.258.12.484.232.683.336l-.355.123.267-.767.11.768a1.89 1.89 0 0 1-.29-.966c-.004-.336.068-.717.216-1.143.119-.341.27-.629.457-.863a1.831 1.831 0 0 1 1.491-.713c.3 0 .628.062.985.186l.568.198c.38.132.699.315.957.548.257.233.45.51.582.834.13.323.19.69.178 1.098a4.567 4.567 0 0 1-.272 1.344 8.41 8.41 0 0 1-.455 1.08 5.63 5.63 0 0 1-.46.763c-.148.2-.274.34-.379.416-.036.031-.065.044-.087.042a.525.525 0 0 1-.088-.025l-.163-.057-.309-.107-.359-.125-.307-.108-.165-.056.075-.21c.277-.275.517-.58.72-.913.204-.334.388-.737.55-1.21.176-.503.205-.916.088-1.239a1.064 1.064 0 0 0-.687-.662l-.384-.134a1.433 1.433 0 0 0-.622-.086.883.883 0 0 0-.518.256c-.157.15-.287.375-.393.678-.08.232-.132.47-.156.714-.024.243-.024.474.005.692l-.436 1.255a.167.167 0 0 1-.073.098c-.032.02-.074.016-.126-.011a9.567 9.567 0 0 0-.48-.232 84.441 84.441 0 0 1-.823-.384l-1.008-.474c-.354-.167-.705-.33-1.053-.49-.348-.16-.664-.307-.947-.441Zm0 0 .097-.279.224-.645.296-.848.319-.917c.106-.306.204-.592.297-.855.09-.263.166-.476.221-.639l.095-.267a.131.131 0 0 1 .065-.08.137.137 0 0 1 .105-.003l.151.052.267.093.308.108.268.093.157.054-.098.28-.223.644-.288.824a261.985 261.985 0 0 1-.527 1.517l-.117.337c-.073.21-.176.373-.308.491a.853.853 0 0 1-.447.217 1.038 1.038 0 0 1-.502-.052 15.686 15.686 0 0 1-.36-.125Z"
  />
  <path
    fill="var(--theme-2, #383938)"
    d="m203.815 212.992-97.153-9.797-.861-.085.2-.599 3.069-9.391 19.387-59.238 64.486 67.697 10.872 11.413ZM341.017 112.034l-4.738 66.562-188.127-46.78 192.865-19.782Z"
  />
  <path
    fill="var(--theme-1, #E9E9E2)"
    d="M336.274 178.597 105.408 203.11l22.655-69.228 20.085-2.065 188.126 46.78ZM336.374 178.496 91.882 93.291l20.763-60.697 228.465 79.331-4.736 66.571ZM221.249 232.214c-4.15 2.2-20.654 10.808-27.141 11.534-7.433.84-12.912-1.548-18.729 1.771-5.825 3.31-16.953 3.531-19.253 5.546l-.997.868a1.228 1.228 0 0 1-1.694-.071l-46.775-48.669 97.152 9.797-10.872-11.413 28.516 29.334a.828.828 0 0 1-.207 1.303Z"
  />
</svg>
