<svg xmlns="http://www.w3.org/2000/svg" width="116" height="136" fill="none" viewBox="0 0 116 136">
  <g filter="url(#copyright_a)">
    <path
      fill="var(--theme-1, #E9E9E2)"
      fill-rule="evenodd"
      d="M91.703 91.722c-.026.525.003 1.396.253 2.598.688 3.312.058 6.251-1.233 9.199-1.198 2.734-3.155 5.882-5.5 9.652-4.404 7.077-13.97 10.49-23.304 10.738-9.654.256-20.647-2.754-29.28-10.397-3.284-2.906-4.594-7.291-5.273-11.025-.668-3.678-.899-7.857-1.107-11.639l-.036-.645c-.202-3.631-.823-6.053-1.653-7.811-.804-1.705-1.927-3.047-3.552-4.353a68.57 68.57 0 0 0-1.395-1.086l-.175-.134a78.938 78.938 0 0 1-1.223-.944c-.91-.722-1.97-1.626-2.89-2.796-2.097-2.665-2.753-5.768-2.567-9.626.147-3.055 1.54-5.37 3.095-7.038 1.456-1.563 3.234-2.745 4.49-3.57l.311-.205c1.285-.843 2.016-1.323 2.533-1.809l.006-.006-.016-.73c-.054-2.265-.14-5.844.627-9.906.962-5.096 3.22-11.003 8.163-17.484 5.586-7.324 13.448-10.092 20.97-9.839 7.36.248 14.552 3.367 19.55 8.002 3.396 3.149 6.326 6.425 8.74 9.125.669.748 1.298 1.452 1.887 2.096 1.415 1.55 2.557 2.72 3.551 3.56 1.027.866 1.56 1.085 1.708 1.125 3.32.91 7.47 3.366 10.554 6.92 3.183 3.669 5.644 9.047 4.111 15.451-1.359 5.679-4.087 8.672-6.185 10.725-1.785 1.747-1.86 1.928-1.822 1.941.005.002.01.001.016 0h.002a.02.02 0 0 1 .008 0c-.072 4.778-.394 13.135-3.332 19.547a4.315 4.315 0 0 0-.032.364Zm.056-.505s0 .006-.004.02a.466.466 0 0 1 .005-.02Z"
      clip-rule="evenodd"
    />
  </g>
  <path
    fill="var(--theme-3, #292929)"
    d="M77.698 49.968c6.493 1.082 5.162 4.309 3.684 5.787H69.656c.15-2.555-3.006-3.307-6.539-6.54-3.533-3.231-3.035-11.882-8.409-9.99-6.072 1.769-3.917 8.563-4.67 16.53-.75 7.968-5.862 8.493-6.238 11.95-.375 3.458 4.21 6.014 5.337 9.471 1.127 3.458.45 5.788-1.128 11.8-1.578 6.014 0 11.876 7.14 13.38 7.141 1.503 10.674-1.955 9.998-9.02-.677-7.065 5.17-9.921 2.686-16.16h8.305c.808 5.748-1.897 6.239-3.7 10.673-1.805 4.435.15 10.297-1.955 14.507-2.105 4.209-5.938 6.915-17.889 3.683-11.95-3.232-10.898-10.824-10.673-22.624.226-11.8-8.193-10.298-8.268-17.664-.075-7.365 12.327-3.683 9.546-16.535C39.73 33.19 57.33 21.34 65.823 35.912c3.957 6.79.334 12.132 11.875 14.056Z"
  />
  <path
    fill="var(--theme-3, #292929)"
    fill-rule="evenodd"
    d="M87.061 89.55c-.276.601-.662 2.6 0 5.788.828 3.983-1.248 7.421-6.083 15.191-6.228 10.01-29.94 12.594-45.025-.76-3.827-3.388-4.268-11.365-4.708-19.308l-.03-.535c-.45-8.118-2.855-12.402-7.064-15.784-.594-.478-1.154-.904-1.676-1.302-3.178-2.422-4.97-3.788-4.712-9.146.158-3.285 3.046-5.174 5.745-6.939 2.427-1.587 4.701-3.075 4.701-5.388 0-.478-.011-.996-.023-1.553-.114-5.125-.3-13.5 7.767-24.077 8.942-11.725 24.877-8.87 33.145-1.203 3.205 2.972 5.924 6.012 8.324 8.695 3.79 4.238 6.785 7.585 9.64 8.367 4.66 1.278 13.228 7.592 11.124 16.386-1.138 4.752-3.394 6.936-5.24 8.723-1.57 1.52-2.843 2.751-2.878 5.031-.075 4.961-.452 12.477-3.007 17.814ZM84.13 68.429c-.375.752-1.142 3.367-1.202 7.817-.01.742-.015 1.458-.02 2.147-.028 4.473-.05 7.825-1.483 10.104-.711 1.13-.547 2.359-.344 3.88.27 2.02.609 4.557-.934 8.071-.247.562-.486 1.136-.727 1.714-2.403 5.758-4.993 11.966-17.087 11.966-9.095 0-14.475-1.353-20.143-5.337-4.356-3.061-5.788-11.124-5.788-15.709l.002-.758c.02-4.77.055-13.19-5.714-18.032-6.088-5.111-6.164-10.298-1.279-13.004 4.886-2.705 6.54-4.51 6.991-8.117.182-1.45-.22-2.936-.676-4.63-.68-2.52-1.485-5.5-.676-9.5 2.474-12.237 14.75-16.8 26.006-13.23 5.962 1.892 7.441 3.834 12.628 12.779 3.754 6.474 6.13 7.199 9.093 8.103 1.131.345 2.348.716 3.76 1.442 5.11 2.631 5.712 7.366 3.682 10.824-.767 1.307-1.524 2.238-2.282 3.171-1.247 1.534-2.498 3.074-3.807 6.299Z"
    clip-rule="evenodd"
  />
  <defs>
    <filter
      id="copyright_a"
      width="114.777"
      height="135.073"
      x=".738"
      y=".851"
      color-interpolation-filters="sRGB"
      filterUnits="userSpaceOnUse"
    >
      <feFlood flood-opacity="0" result="BackgroundImageFix" />
      <feColorMatrix
        in="SourceAlpha"
        result="hardAlpha"
        values="0 0 0 0 0 0 0 0 0 0 0 0 0 0 0 0 0 0 127 0"
      />
      <feOffset />
      <feGaussianBlur stdDeviation="6" />
      <feComposite in2="hardAlpha" operator="out" />
      <feColorMatrix values="0 0 0 0 0 0 0 0 0 0 0 0 0 0 0 0 0 0 0.25 0" />
      <feBlend in2="BackgroundImageFix" result="effect1_dropShadow_1308_12739" />
      <feBlend in="SourceGraphic" in2="effect1_dropShadow_1308_12739" result="shape" />
    </filter>
  </defs>
</svg>
