<svg width="147" height="82" viewBox="0 0 147 82" fill="none" xmlns="http://www.w3.org/2000/svg">
  <path
    d="M12.788.014c-6.97 0-12.62 5.65-12.62 12.62v48.892c0 6.97 5.65 12.62 12.62 12.62h24.4v2.648a4.65 4.65 0 0 0 4.65 4.65h62.653a4.65 4.65 0 0 0 4.65-4.65v-2.648h24.399c6.97 0 12.62-5.65 12.62-12.62V12.634c0-6.97-5.65-12.62-12.62-12.62H12.788Z"
    fill="var(--main-theme-1, currentColor)"
  />
  <rect
    x="4.434"
    y="4.078"
    width="137.461"
    height="66.004"
    rx="9.838"
    fill="var(--main-theme-2, currentColor)"
  />
  <rect
    x="40.77"
    y="64.612"
    width="64.783"
    height="13.294"
    rx="2.654"
    fill="var(--main-theme-4, currentColor)"
  />
  <path
    d="M61.058 74.013c-.423 0-.797-.075-1.121-.225a1.837 1.837 0 0 1-.755-.625c-.18-.267-.27-.57-.268-.912a1.677 1.677 0 0 1 .595-1.309 1.34 1.34 0 0 1 .625-.292v-.037a1.219 1.219 0 0 1-.72-.509 1.54 1.54 0 0 1-.266-.896c-.002-.32.08-.607.244-.86.164-.252.39-.451.677-.597.29-.146.62-.219.989-.219.366 0 .692.073.98.22.287.145.513.344.677.597.167.252.25.539.253.86a1.562 1.562 0 0 1-.274.895c-.179.261-.416.43-.712.509v.037a1.3 1.3 0 0 1 .616.292 1.711 1.711 0 0 1 .604 1.31c-.002.34-.094.644-.277.911-.181.265-.433.474-.755.626-.32.15-.691.224-1.112.224Zm0-.677c.285 0 .532-.046.74-.139a1.1 1.1 0 0 0 .48-.391c.113-.168.17-.366.172-.592a1.134 1.134 0 0 0-.184-.631 1.255 1.255 0 0 0-.496-.431 1.558 1.558 0 0 0-.712-.157c-.269 0-.51.052-.72.157-.21.105-.376.248-.497.431-.119.183-.177.393-.175.631-.002.226.052.424.163.592.113.168.274.299.484.391.209.093.457.139.745.139Zm0-2.994c.226 0 .426-.046.6-.136.177-.09.316-.217.416-.379.101-.162.153-.352.154-.57a1.051 1.051 0 0 0-.15-.557.979.979 0 0 0-.41-.37 1.334 1.334 0 0 0-.61-.132c-.236 0-.443.044-.62.132a.955.955 0 0 0-.409.37 1.029 1.029 0 0 0-.142.557c-.002.218.047.408.145.57.1.162.24.289.416.38.177.09.38.135.61.135ZM67.308 74.013c-.465 0-.86-.126-1.186-.379-.327-.254-.576-.623-.749-1.105-.172-.485-.259-1.07-.259-1.756 0-.682.087-1.264.26-1.747.174-.484.424-.854.75-1.109.33-.256.724-.385 1.184-.385.46 0 .853.129 1.18.385.328.255.578.625.75 1.11.175.482.263 1.064.263 1.746 0 .686-.087 1.271-.259 1.756-.172.482-.422.85-.749 1.106-.326.252-.721.378-1.185.378Zm0-.677c.46 0 .817-.222 1.071-.666.255-.443.382-1.076.382-1.897 0-.546-.058-1.011-.175-1.395-.115-.385-.281-.677-.5-.878a1.101 1.101 0 0 0-.778-.302c-.456 0-.813.225-1.07.674-.256.448-.384 1.082-.384 1.9 0 .547.057 1.011.172 1.393.115.382.28.673.496.872.218.2.48.299.785.299Z"
    fill="var(--main-theme-1, currentColor)"
  />
  <path
    fill-rule="evenodd"
    clip-rule="evenodd"
    d="m71.759 72.48 2.46-2.46.353.353-2.46 2.461-.353-.353Z"
    fill="var(--main-theme-1, currentColor)"
  />
  <path
    fill-rule="evenodd"
    clip-rule="evenodd"
    d="m72.114 70.02 2.46 2.46-.353.353-2.46-2.46.353-.353Z"
    fill="var(--main-theme-1, currentColor)"
  />
  <path
    d="M79.01 74.013c-.407 0-.77-.07-1.088-.21a1.864 1.864 0 0 1-.754-.581 1.565 1.565 0 0 1-.302-.872h.776a.916.916 0 0 0 .21.527c.123.145.284.258.483.339.2.08.42.12.662.12.271 0 .512-.048.721-.142.21-.094.374-.226.493-.394a.988.988 0 0 0 .179-.586c0-.232-.058-.436-.173-.612a1.142 1.142 0 0 0-.505-.42c-.222-.1-.493-.15-.813-.15h-.505v-.678h.505c.25 0 .47-.045.659-.136a1.024 1.024 0 0 0 .61-.961c0-.213-.047-.4-.142-.557a.97.97 0 0 0-.4-.37 1.296 1.296 0 0 0-.604-.132c-.218 0-.423.04-.616.12a1.148 1.148 0 0 0-.468.342.89.89 0 0 0-.197.536H77c.013-.33.112-.62.3-.869a1.88 1.88 0 0 1 .732-.585 2.37 2.37 0 0 1 1.001-.21c.39 0 .725.08 1.004.237.28.157.494.363.644.62.15.256.225.534.225.831 0 .356-.093.659-.28.91a1.42 1.42 0 0 1-.755.52v.049c.398.066.71.235.933.508.224.271.336.607.336 1.007 0 .343-.093.651-.28.924a1.903 1.903 0 0 1-.758.641c-.32.156-.685.234-1.093.234ZM85.326 74.013c-.464 0-.86-.126-1.186-.379-.326-.254-.576-.623-.748-1.105-.173-.485-.259-1.07-.259-1.756 0-.682.086-1.264.259-1.747.174-.484.425-.854.751-1.109.329-.256.723-.385 1.183-.385.46 0 .853.129 1.18.385.329.255.579.625.751 1.11.175.482.262 1.064.262 1.746 0 .686-.086 1.271-.258 1.756-.173.482-.422.85-.749 1.106-.326.252-.722.378-1.186.378Zm0-.677c.46 0 .818-.222 1.072-.666.255-.443.382-1.076.382-1.897 0-.546-.058-1.011-.175-1.395-.115-.385-.282-.677-.5-.878a1.101 1.101 0 0 0-.779-.302c-.456 0-.812.225-1.069.674-.256.448-.385 1.082-.385 1.9 0 .547.058 1.011.173 1.393.115.382.28.673.496.872.217.2.48.299.785.299ZM24.47 54.68h-4.095c-.093 0 .058-.145-.035-.175-.062-.063-.368.005-.43-.057a.648.648 0 0 1-.047-.28v-34.57H25.634c.124 0 .217.031.279.093a.305.305 0 0 1 .14.14c.061.062.092.155.092.28v29.637l-.186.512c-.093.34-.232.76-.418 1.256-.156.465-.31.946-.466 1.443a29.55 29.55 0 0 1-.419 1.256l-.186.465Zm.233-3.862.744-5.165c.931 1.147 1.955 2 3.072 2.559 1.148.558 2.218.838 3.21.838.776 0 1.412-.155 1.909-.466.527-.31.93-.76 1.21-1.35.279-.62.418-1.364.418-2.233v-5.817c0-.744-.093-1.365-.279-1.861-.155-.528-.388-.946-.698-1.257a2.834 2.834 0 0 0-1.07-.651 4.414 4.414 0 0 0-1.49-.233c-.65 0-1.349.155-2.093.466-.714.31-1.427.76-2.141 1.35a10.494 10.494 0 0 0-1.861 2.14v-5.77h1.302a8.294 8.294 0 0 1 1.815-2.28 7.808 7.808 0 0 1 2.327-1.49 7.44 7.44 0 0 1 2.746-.512c1.178 0 2.233.202 3.164.605a6.09 6.09 0 0 1 2.42 1.815c.682.776 1.21 1.722 1.582 2.839.372 1.117.558 2.389.558 3.816v7.864c0 1.458-.186 2.745-.558 3.862-.372 1.117-.9 2.079-1.582 2.885a6.281 6.281 0 0 1-2.42 1.769c-.93.403-1.986.605-3.164.605a7.81 7.81 0 0 1-2.792-.512 8.583 8.583 0 0 1-2.467-1.443c-.713-.651-1.365-1.442-1.954-2.373h-1.908ZM53.536 29.645c.124 0 .217.03.28.093a.304.304 0 0 1 .139.14c.062.061.093.154.093.279V46.676c0 .683.17 1.21.512 1.582.372.373.884.559 1.535.559.714 0 1.381-.062 2.001-.186a8.385 8.385 0 0 0 1.815-.652 8.544 8.544 0 0 0 1.675-1.163 8.885 8.885 0 0 0 1.536-1.675v5.49h-1.629c-.558.962-1.178 1.785-1.86 2.467a7.374 7.374 0 0 1-2.328 1.582c-.837.373-1.846.559-3.024.559-.931 0-1.8-.17-2.606-.512a5.648 5.648 0 0 1-2.094-1.396 6.248 6.248 0 0 1-1.35-2.234c-.31-.869-.465-1.83-.465-2.885V29.645h5.77Zm14.612 0c.124 0 .217.03.28.093a.304.304 0 0 1 .139.14c.062.061.093.154.093.279V54.68h-5.817a.878.878 0 0 1-.28-.047l-.185-.186a.648.648 0 0 1-.047-.28V29.645h5.817ZM81.95 54.68h-5.77a.879.879 0 0 1-.279-.046l-.186-.186a.648.648 0 0 1-.047-.28V19.34h5.771c.124 0 .217.03.279.093a.305.305 0 0 1 .14.14c.061.062.093.155.093.279V54.68Zm10.378 0c-.373 0-.652-.046-.838-.14-.186-.092-.372-.263-.558-.511a14.638 14.638 0 0 1-.512-.698 15.51 15.51 0 0 0-.791-1.117c-.28-.434-.59-.884-.931-1.35-.31-.465-.62-.915-.93-1.35a22.138 22.138 0 0 1-1.025-1.628c-.279-.527-.511-1.07-.697-1.629a15.605 15.605 0 0 1-.466-1.907h-1.908l3.863-4.933c1.303 1.737 2.59 3.459 3.862 5.165 1.303 1.675 2.59 3.35 3.862 5.026a719.359 719.359 0 0 1 3.91 5.072h-6.841ZM81.066 40.301h1.769c.217-.651.434-1.24.651-1.768.217-.528.45-1.024.698-1.49.248-.465.512-.899.791-1.302.31-.404.652-.822 1.024-1.257.403-.496.807-.977 1.21-1.442.403-.466.837-.977 1.303-1.536a59.945 59.945 0 0 0 1.582-1.861h6.934c.093 0 .17.015.232.046.093.031.155.078.186.14.032.062.047.14.047.233a.876.876 0 0 1-.047.279c-.03.062-.14.186-.325.372a146.083 146.083 0 0 1-2.885 3.164c-.931.993-1.846 2.001-2.746 3.025-.9.993-1.8 1.97-2.699 2.932l-2.652 2.838c-.87.962-1.722 1.908-2.56 2.839a69.198 69.198 0 0 1-2.513 2.745v-7.957ZM123.767 38.812V47.793c0 .248.015.465.046.652.062.186.155.34.28.465.093.093.217.17.372.233.186.03.388.046.605.046h1.396v4.979c0 .156-.371.113-.464.206-.093.093.02.306-.135.306h-2.659c-.868 0-1.644-.14-2.326-.419a5.851 5.851 0 0 1-1.815-1.163 5.354 5.354 0 0 1-1.21-1.861c-.279-.714-.419-1.52-.419-2.42V38.486c0-.9-.155-1.597-.465-2.094-.279-.527-.776-.9-1.489-1.117-.714-.217-1.66-.325-2.839-.325-.869 0-1.722.046-2.559.14-.807.092-1.614.216-2.42.371a18.08 18.08 0 0 0-2.373.652h-.885v-4.979c0-.124.016-.217.047-.28a.542.542 0 0 1 .093-.139c.186-.186.698-.403 1.536-.651.868-.249 1.892-.45 3.071-.605a22.344 22.344 0 0 1 3.49-.28c1.954 0 3.63.187 5.026.559 1.396.341 2.544.9 3.443 1.675.9.776 1.567 1.784 2.001 3.025.435 1.21.652 2.668.652 4.374Zm-14.891 8.795c0 .651.17 1.148.512 1.49.372.31.93.465 1.675.465.837 0 1.66-.094 2.466-.28a8.968 8.968 0 0 0 2.373-.93 14.131 14.131 0 0 0 2.42-1.676v4.002h-1.396a7.037 7.037 0 0 1-1.722 2.42 7.928 7.928 0 0 1-2.512 1.536c-.962.341-2.017.512-3.165.512-1.427 0-2.668-.28-3.723-.838a5.917 5.917 0 0 1-2.373-2.327c-.558-1.023-.837-2.202-.837-3.536v-1.63c0-1.023.17-1.938.511-2.745a6.187 6.187 0 0 1 1.443-2.094 6.656 6.656 0 0 1 2.327-1.35c.899-.34 1.908-.511 3.025-.511H118.741c.279 0 .481.248.605.744a6.75 6.75 0 0 1 .279 1.676c.031.59.047 1.086.047 1.489h-8.609c-.372 0-.698.046-.977.14a1.8 1.8 0 0 0-.652.418 3.36 3.36 0 0 0-.419.652 1.875 1.875 0 0 0-.139.744v1.629Z"
    fill="var(--main-theme-1, currentColor)"
  />
  <path
    fill-rule="evenodd"
    clip-rule="evenodd"
    d="M72.659 4.807v-.729h1v.73h-1Zm0 2.917V6.265h1v1.459h-1Zm0 2.916V9.182h1v1.458h-1Zm0 2.916v-1.458h1v1.458h-1Zm0 2.917v-1.458h1v1.458h-1Zm0 2.187v-.729h1v.73h-1ZM141.275 36.58h.618v1h-.618v-1Zm-2.476 0h1.238v1h-1.238v-1Zm-2.475 0h1.238v1h-1.238v-1Zm-2.475 0h1.237v1h-1.237v-1Zm-2.475 0h1.237v1h-1.237v-1Zm-2.476 0h1.238v1h-1.238v-1Zm-1.856 0h.619v1h-.619v-1ZM72.659 55.629v-.599h1v.599h-1Zm0 2.395v-1.197h1v1.197h-1Zm0 2.396v-1.198h1v1.198h-1Zm0 2.395v-1.197h1v1.197h-1Zm0 1.797v-.599h1v.6h-1ZM18.804 36.579h.628v1h-.628v-1Zm-2.514 0h1.257v1h-1.258v-1Zm-2.515 0h1.257v1h-1.257v-1Zm-2.514 0h1.257v1h-1.257v-1Zm-2.514 0h1.257v1H8.747v-1Zm-2.515 0H7.49v1H6.232v-1Zm-1.795 0h.538v1h-.538v-1Z"
    fill="#767676"
  />
  <path
    fill-rule="evenodd"
    clip-rule="evenodd"
    d="M18.178 20.571v-3.134h3.135v1.16h103.701v-1.16h3.135v3.134h-.987V53.59h.987v3.135h-3.135v-1.067h-103.7v1.067h-3.136v-3.135h1.047V20.571h-1.047Zm1-2.134h1.135v1.134H19.18v-1.134Zm105.836 1.16h-103.7v.974h-1.089V53.59h1.088v1.068h103.701v-1.068h1.148V20.571h-1.148v-.973Zm1-1.16h1.135v1.134h-1.135v-1.134Zm1.135 36.152h-1.135v1.135h1.135v-1.135Zm-106.836 0H19.18v1.135h1.134v-1.135Z"
    fill="#767676"
  />
</svg>
