<svg width="155" height="96" fill="none" xmlns="http://www.w3.org/2000/svg">
  <g filter="url(#filter0_d_1348_10708)">
    <path
      d="M17.116.034c-6.97 0-12.62 5.65-12.62 12.62v54.892c0 6.97 5.65 12.62 12.62 12.62h24.4v2.648a4.65 4.65 0 0 0 4.65 4.65h62.653a4.65 4.65 0 0 0 4.65-4.65v-2.647h24.399c6.97 0 12.62-5.65 12.62-12.62V12.653c0-6.97-5.65-12.62-12.62-12.62H17.116Z"
      fill="var(--main-theme-1, #E9E9E2)"
    />
  </g>
  <path
    d="M8.762 13.936c0-5.433 4.404-9.837 9.837-9.837h117.786c5.433 0 9.838 4.404 9.838 9.837v52.33c0 5.433-4.405 9.837-9.838 9.837H18.599c-5.433 0-9.837-4.404-9.837-9.838V13.936Z"
    fill="var(--main-theme-3, #292929)"
  />
  <rect
    x="45.098"
    y="70.633"
    width="64.783"
    height="13.294"
    rx="2.654"
    fill="var(--main-background, #080808)"
  />
  <path
    d="M65.384 79.865c-.423 0-.796-.075-1.121-.225a1.837 1.837 0 0 1-.755-.625c-.18-.267-.27-.57-.268-.912a1.678 1.678 0 0 1 .595-1.309 1.34 1.34 0 0 1 .625-.292v-.037a1.217 1.217 0 0 1-.72-.509 1.54 1.54 0 0 1-.266-.896c-.002-.32.08-.607.244-.86.164-.252.39-.451.677-.597.29-.146.62-.219.99-.219.365 0 .691.073.979.219.287.146.513.345.677.598.167.252.251.539.253.859a1.562 1.562 0 0 1-.274.896c-.179.261-.416.43-.712.509v.037a1.3 1.3 0 0 1 .616.292 1.711 1.711 0 0 1 .604 1.31c-.002.34-.094.644-.277.911-.18.265-.432.473-.755.625-.32.15-.69.225-1.112.225Zm0-.677c.286 0 .532-.047.74-.139.207-.092.367-.223.48-.391.113-.169.17-.366.173-.592a1.135 1.135 0 0 0-.185-.631 1.253 1.253 0 0 0-.496-.431 1.556 1.556 0 0 0-.712-.157c-.269 0-.509.052-.72.157-.21.104-.375.248-.496.43-.12.184-.178.394-.176.632-.002.226.052.423.163.592.113.168.274.299.484.391.21.092.458.139.745.139Zm0-2.995c.226 0 .426-.045.6-.135.178-.09.316-.217.417-.379.1-.162.152-.352.154-.57a1.052 1.052 0 0 0-.151-.557.979.979 0 0 0-.41-.37 1.335 1.335 0 0 0-.61-.132c-.236 0-.442.044-.619.132a.955.955 0 0 0-.41.37 1.03 1.03 0 0 0-.141.557c-.002.218.046.408.145.57.1.162.239.289.415.379.177.09.38.135.61.135ZM71.634 79.865c-.464 0-.86-.126-1.186-.379-.327-.254-.576-.623-.749-1.105-.172-.485-.258-1.07-.258-1.756 0-.682.086-1.264.258-1.747.175-.484.425-.854.752-1.109.329-.256.723-.385 1.183-.385.46 0 .853.129 1.18.385.328.255.579.625.751 1.11.175.482.262 1.064.262 1.746 0 .686-.086 1.27-.259 1.756-.172.482-.422.85-.748 1.105-.327.253-.722.38-1.186.38Zm0-.677c.46 0 .817-.222 1.072-.666.254-.443.382-1.076.382-1.897 0-.546-.059-1.012-.176-1.396-.115-.384-.281-.676-.499-.877a1.102 1.102 0 0 0-.78-.302c-.455 0-.811.225-1.068.674-.257.448-.385 1.081-.385 1.9 0 .547.057 1.011.172 1.393.115.382.28.673.496.872.218.199.48.299.786.299Z"
    fill="var(--main-theme-1, #E9E9E2)"
  />
  <path
    fill-rule="evenodd"
    clip-rule="evenodd"
    d="m76.168 78.415 2.46-2.46.188.187-2.46 2.461-.188-.188Z"
    fill="var(--main-theme-1, #E9E9E2)"
  />
  <path
    fill-rule="evenodd"
    clip-rule="evenodd"
    d="m76.357 75.955 2.46 2.46-.187.187-2.46-2.46.187-.187Z"
    fill="var(--main-theme-1, #E9E9E2)"
  />
  <path
    d="M83.336 79.865c-.407 0-.77-.07-1.087-.21a1.862 1.862 0 0 1-.755-.581 1.564 1.564 0 0 1-.302-.872h.776a.917.917 0 0 0 .21.527c.123.145.284.258.483.338.2.08.42.12.663.12.27 0 .51-.047.72-.141.21-.095.374-.226.493-.394a.988.988 0 0 0 .179-.586c0-.232-.058-.436-.173-.613a1.142 1.142 0 0 0-.505-.419 1.961 1.961 0 0 0-.813-.15h-.505v-.678h.505c.25 0 .47-.045.66-.136a1.024 1.024 0 0 0 .61-.961c0-.213-.048-.4-.143-.557a.97.97 0 0 0-.4-.37 1.296 1.296 0 0 0-.604-.132c-.218 0-.423.04-.616.12-.19.078-.347.192-.468.342a.89.89 0 0 0-.197.536h-.74c.013-.331.112-.62.3-.869.186-.25.43-.446.732-.585a2.37 2.37 0 0 1 1.002-.21c.39 0 .724.08 1.004.237.279.157.494.363.644.62.15.256.224.534.224.831 0 .356-.093.659-.28.909a1.42 1.42 0 0 1-.755.52v.05c.399.066.71.235.934.508.224.271.335.607.335 1.007a1.6 1.6 0 0 1-.28.924 1.906 1.906 0 0 1-.758.641c-.32.156-.684.234-1.093.234ZM89.652 79.865c-.464 0-.859-.126-1.186-.379-.326-.254-.576-.623-.748-1.105-.173-.485-.259-1.07-.259-1.756 0-.682.086-1.264.259-1.747.174-.484.425-.854.751-1.109.33-.256.723-.385 1.183-.385.46 0 .854.129 1.18.385.329.255.58.625.752 1.11.174.482.262 1.064.262 1.746 0 .686-.087 1.27-.26 1.756-.172.482-.421.85-.748 1.105-.326.253-.721.38-1.186.38Zm0-.677c.46 0 .818-.222 1.072-.666.255-.443.382-1.076.382-1.897 0-.546-.058-1.012-.175-1.396-.115-.384-.282-.676-.5-.877a1.102 1.102 0 0 0-.779-.302c-.456 0-.812.225-1.069.674-.256.448-.385 1.081-.385 1.9 0 .547.058 1.011.173 1.393.115.382.28.673.496.872.218.199.48.299.785.299ZM28.538 51.534H24.42a.882.882 0 0 1-.28-.047l-.188-.187a.652.652 0 0 1-.047-.281V16.445h5.801c.125 0 .219.032.281.094.063.031.11.078.14.14.063.063.094.156.094.28v29.615l-.187.515c-.094.343-.234.764-.421 1.263-.156.468-.312.952-.468 1.45-.156.5-.296.92-.421 1.264l-.187.468Zm.234-3.883.748-5.194c.936 1.154 1.965 2.012 3.088 2.574 1.154.561 2.23.842 3.228.842.78 0 1.42-.156 1.918-.468.53-.312.936-.764 1.217-1.357.28-.624.42-1.372.42-2.245v-5.849c0-.748-.093-1.372-.28-1.871-.156-.53-.39-.951-.702-1.263-.28-.28-.639-.5-1.076-.655a4.436 4.436 0 0 0-1.497-.234c-.655 0-1.356.156-2.105.468-.717.312-1.435.764-2.152 1.356-.686.593-1.31 1.31-1.872 2.153v-5.802h1.31a8.34 8.34 0 0 1 1.825-2.292 7.851 7.851 0 0 1 2.34-1.497 7.48 7.48 0 0 1 2.76-.515c1.185 0 2.245.203 3.18.608a6.123 6.123 0 0 1 2.434 1.825c.686.78 1.216 1.731 1.59 2.854.375 1.123.562 2.401.562 3.836v7.907c0 1.466-.187 2.76-.562 3.883-.374 1.123-.904 2.09-1.59 2.9a6.315 6.315 0 0 1-2.433 1.778c-.936.406-1.996.608-3.181.608a7.85 7.85 0 0 1-2.807-.514 8.629 8.629 0 0 1-2.48-1.45c-.717-.655-1.372-1.45-1.965-2.386h-1.918ZM57.76 26.364c.125 0 .218.03.28.093.063.031.11.078.14.14.063.063.095.156.095.281v16.609c0 .686.171 1.216.514 1.59.374.375.889.562 1.544.562.717 0 1.388-.063 2.012-.187a8.428 8.428 0 0 0 1.824-.655 8.593 8.593 0 0 0 1.685-1.17 8.935 8.935 0 0 0 1.543-1.684v5.52H65.76c-.561.967-1.185 1.794-1.871 2.48a7.412 7.412 0 0 1-2.34 1.59c-.842.375-1.855.562-3.04.562a6.653 6.653 0 0 1-2.62-.515 5.678 5.678 0 0 1-2.106-1.403 6.28 6.28 0 0 1-1.357-2.246c-.311-.873-.467-1.84-.467-2.9V26.364h5.8Zm14.69 0c.125 0 .218.03.28.093.063.031.11.078.141.14.063.063.094.156.094.281v24.656h-5.848a.883.883 0 0 1-.281-.047l-.187-.187a.652.652 0 0 1-.047-.281V26.364h5.848ZM86.327 51.534h-5.801a.883.883 0 0 1-.281-.047l-.187-.187a.652.652 0 0 1-.047-.281V16.445h5.801c.125 0 .219.032.28.094.063.031.11.078.141.14.063.063.094.156.094.28v34.575Zm10.433 0c-.375 0-.655-.047-.842-.14-.188-.094-.375-.266-.562-.515-.124-.156-.296-.39-.514-.702a15.61 15.61 0 0 0-.796-1.123c-.28-.437-.592-.889-.935-1.357-.312-.468-.624-.92-.936-1.357a22.263 22.263 0 0 1-1.03-1.637c-.28-.53-.514-1.076-.701-1.637a15.717 15.717 0 0 1-.468-1.919h-1.918l3.883-4.959c1.31 1.747 2.604 3.478 3.883 5.193a547.171 547.171 0 0 1 3.883 5.053c1.31 1.684 2.62 3.384 3.93 5.1H96.76ZM85.438 37.077h1.778c.218-.655.436-1.247.655-1.778.218-.53.452-1.029.702-1.497.249-.468.514-.904.795-1.31.312-.405.655-.826 1.03-1.263.405-.499.81-.982 1.216-1.45.405-.468.842-.983 1.31-1.544a60.325 60.325 0 0 0 1.59-1.871h6.971c.094 0 .172.015.234.046.093.032.156.078.187.14.031.063.047.141.047.235a.89.89 0 0 1-.047.28c-.031.063-.14.188-.327.375a147.222 147.222 0 0 1-2.901 3.181 127.79 127.79 0 0 0-2.76 3.041c-.905.998-1.81 1.98-2.714 2.947l-2.666 2.854c-.874.967-1.732 1.918-2.574 2.854a69.57 69.57 0 0 1-2.526 2.76v-8ZM128.368 35.58v9.029c0 .25.015.468.047.655.062.188.155.344.28.468.094.094.219.172.375.234.187.032.389.047.608.047h1.403v5.006c0 .156-.047.28-.14.374a.506.506 0 0 1-.374.14h-2.761c-.873 0-1.653-.14-2.339-.42a5.89 5.89 0 0 1-1.824-1.17 5.389 5.389 0 0 1-1.217-1.871c-.281-.718-.421-1.529-.421-2.433V35.253c0-.905-.156-1.607-.468-2.106-.28-.53-.78-.904-1.497-1.122-.717-.219-1.669-.328-2.854-.328-.873 0-1.731.047-2.573.14a32.71 32.71 0 0 0-2.433.375c-.779.156-1.575.374-2.386.655h-.889V27.86c0-.124.016-.218.047-.28a.544.544 0 0 1 .094-.14c.187-.188.702-.406 1.544-.655.873-.25 1.902-.453 3.087-.608a22.475 22.475 0 0 1 3.509-.281c1.965 0 3.649.187 5.053.561 1.404.343 2.558.905 3.462 1.684.905.78 1.575 1.794 2.012 3.041.436 1.217.655 2.683.655 4.398Zm-14.971 8.842c0 .655.171 1.154.514 1.498.375.311.936.467 1.685.467.842 0 1.668-.093 2.479-.28a9.028 9.028 0 0 0 2.386-.936 14.242 14.242 0 0 0 2.433-1.684v4.023h-1.404a7.072 7.072 0 0 1-1.731 2.433 7.964 7.964 0 0 1-2.526 1.544c-.967.343-2.027.514-3.181.514-1.435 0-2.683-.28-3.743-.842a5.94 5.94 0 0 1-2.386-2.339c-.561-1.03-.842-2.214-.842-3.556v-1.637c0-1.03.171-1.95.514-2.76a6.214 6.214 0 0 1 1.451-2.105 6.694 6.694 0 0 1 2.339-1.357c.905-.343 1.918-.515 3.041-.515h8.889c.281 0 .483.25.608.749.156.499.25 1.06.281 1.684.031.593.047 1.091.047 1.497h-8.655c-.375 0-.702.047-.983.14a1.823 1.823 0 0 0-.655.421 3.386 3.386 0 0 0-.421.655c-.093.219-.14.468-.14.749v1.637ZM54.284 58.489a.716.716 0 0 0-.31-.536c-.18-.128-.414-.192-.703-.192-.203 0-.377.031-.522.092a.773.773 0 0 0-.333.25.606.606 0 0 0-.042.65.698.698 0 0 0 .212.21c.09.056.188.104.297.142.108.039.217.071.328.097l.504.126c.203.047.398.111.585.192.189.08.358.182.506.304.15.123.27.27.357.444.088.173.131.376.131.609 0 .314-.08.592-.241.831-.16.238-.394.425-.698.56-.303.132-.67.199-1.1.199-.418 0-.78-.065-1.089-.194a1.622 1.622 0 0 1-.719-.567c-.171-.249-.264-.551-.278-.908h.958a.815.815 0 0 0 .173.467.917.917 0 0 0 .396.278c.165.061.349.092.552.092.211 0 .397-.032.556-.094a.901.901 0 0 0 .378-.268.646.646 0 0 0 .139-.404.513.513 0 0 0-.123-.347.905.905 0 0 0-.339-.23 3.277 3.277 0 0 0-.504-.169l-.611-.157c-.443-.114-.793-.286-1.05-.517-.256-.233-.383-.541-.383-.926 0-.317.086-.594.257-.832a1.7 1.7 0 0 1 .706-.554c.297-.133.634-.2 1.01-.2.382 0 .716.067 1.003.2.288.131.515.314.68.548.164.233.249.5.254.803h-.937ZM60.951 57.827v-.816h4.289v.816h-1.662v4.559h-.965v-4.559H60.95ZM74.48 57.011h.973v3.511c0 .385-.091.724-.273 1.016-.18.292-.434.52-.761.685-.327.163-.71.244-1.147.244-.439 0-.822-.081-1.15-.244a1.844 1.844 0 0 1-.76-.685c-.18-.292-.27-.63-.27-1.016v-3.511h.973v3.43c0 .224.049.423.147.598.1.175.24.313.42.412.18.098.393.147.64.147s.46-.049.64-.147c.182-.1.322-.237.42-.412.098-.175.147-.374.147-.598v-3.43ZM83.358 62.386h-1.822V57.01h1.858c.534 0 .992.108 1.375.323.385.213.681.52.887.92.207.402.31.88.31 1.439 0 .56-.104 1.041-.312 1.443a2.158 2.158 0 0 1-.895.927c-.388.215-.856.322-1.401.322Zm-.848-.843h.8c.375 0 .687-.068.937-.205a1.31 1.31 0 0 0 .564-.616c.126-.275.19-.618.19-1.029 0-.411-.064-.752-.19-1.023a1.288 1.288 0 0 0-.559-.612c-.244-.136-.549-.205-.913-.205h-.829v3.69ZM92.89 57.011v5.374h-.974v-5.374h.974ZM103.772 59.698c0 .58-.108 1.075-.325 1.488a2.308 2.308 0 0 1-.882.945 2.439 2.439 0 0 1-1.262.328 2.45 2.45 0 0 1-1.265-.328 2.345 2.345 0 0 1-.882-.947c-.215-.413-.323-.908-.323-1.486 0-.579.108-1.074.323-1.485.217-.413.51-.729.882-.947a2.45 2.45 0 0 1 1.265-.328c.47 0 .891.109 1.262.328.373.218.666.534.882.947.217.411.325.906.325 1.485Zm-.979 0c0-.407-.064-.751-.191-1.031a1.42 1.42 0 0 0-.525-.638 1.391 1.391 0 0 0-.774-.218c-.293 0-.551.073-.775.218a1.436 1.436 0 0 0-.527.638c-.126.28-.189.624-.189 1.031 0 .408.063.753.189 1.034.128.28.303.493.527.638.224.143.482.215.775.215.292 0 .55-.072.774-.215.224-.145.399-.358.525-.638.127-.281.191-.626.191-1.034Z"
    fill="var(--main-theme-1, #E9E9E2)"
  />
  <path
    fill-rule="evenodd"
    clip-rule="evenodd"
    d="M77.288 4.84V4.1h.4v.74h-.4Zm0 2.96V6.32h.4V7.8h-.4Zm0 2.96V9.28h.4v1.48h-.4Zm0 2.96v-1.48h.4v1.48h-.4Zm0 2.22v-.74h.4v.74h-.4ZM145.529 39.902h.694v.4h-.694v-.4Zm-2.776 0h1.388v.4h-1.388v-.4Zm-2.777 0h1.388v.4h-1.388v-.4Zm-2.776 0h1.388v.4H137.2v-.4Zm-2.776 0h1.388v.4h-1.388v-.4Zm-2.082 0h.694v.4h-.694v-.4ZM77.288 65.487v-.642h.4v.642h-.4Zm0 2.57v-1.285h.4v1.285h-.4Zm0 2.57v-1.285h.4v1.284h-.4ZM22.86 39.902h.613v.4h-.613v-.4Zm-2.452 0h1.226v.4h-1.226v-.4Zm-2.452 0h1.226v.4h-1.226v-.4Zm-2.452 0h1.226v.4h-1.226v-.4Zm-2.452 0h1.226v.4h-1.226v-.4Zm-2.451 0h1.225v.4h-1.225v-.4Zm-1.84 0h.614v.4h-.613v-.4ZM108.721 51.898l-3.933 4.453-.299-.264 3.932-4.454.3.265Zm16.72 0-3.932 4.453-.3-.264 3.932-4.454.3.265Zm6.08 0-3.932 4.453-.3-.264 3.932-4.454.3.265Zm-41.04 0-3.933 4.453-.3-.264 3.933-4.454.3.265Zm-38.117 0L48.43 56.35l-.3-.264 3.933-4.454.3.265Zm10.64 0L59.07 56.35l-.3-.264 3.933-4.454.3.265Zm1.52 0L60.59 56.35l-.3-.264 3.933-4.454.3.265Zm3.04 0L63.63 56.35l-.3-.264 3.933-4.454.3.265Zm7.6 0L71.23 56.35l-.3-.264 3.933-4.454.3.265Zm1.52 0L72.75 56.35l-.3-.264 3.933-4.454.3.265Zm1.52 0L74.27 56.35l-.3-.264 3.933-4.454.3.265Zm1.52 0L75.79 56.35l-.3-.264 3.933-4.454.3.265Zm3.157 0-3.933 4.453-.3-.264 3.933-4.454.3.265Zm1.52 0-3.933 4.453-.3-.264 3.933-4.454.3.265Zm1.52 0-3.933 4.453-.3-.264 3.933-4.454.3.265Zm1.52 0-3.933 4.453-.3-.264 3.933-4.454.3.265Zm4.56 0-3.933 4.453-.3-.264 3.933-4.454.3.265Zm1.52 0-3.933 4.453-.3-.264 3.933-4.454.3.265Zm1.52 0-3.933 4.453-.3-.264 3.933-4.454.3.265Zm9.12 0-3.933 4.453-.3-.264 3.933-4.454.3.265Zm1.52 0-3.933 4.453-.299-.264 3.932-4.454.3.265Zm1.52 0-3.933 4.453-.299-.264 3.932-4.454.3.265Zm3.04 0-3.933 4.453-.299-.264 3.932-4.454.3.265Zm1.52 0-3.933 4.453-.299-.264 3.932-4.454.3.265Zm1.52 0-3.933 4.453-.299-.264 3.932-4.454.3.265Zm1.52 0-3.933 4.453-.299-.264 3.932-4.454.3.265Zm3.04 0-3.933 4.453-.299-.264 3.932-4.454.3.265Zm9.12 0-3.932 4.453-.3-.264 3.932-4.454.3.265Zm1.52 0-3.932 4.453-.3-.264 3.932-4.454.3.265Zm-97.398 0-3.932 4.453-.3-.264 3.933-4.454.3.265Zm1.52 0-3.932 4.453-.3-.264 3.933-4.454.3.265Zm1.52 0-3.932 4.453-.3-.264 3.933-4.454.3.265Zm1.52 0-3.932 4.453-.3-.264 3.932-4.454.3.265Zm1.52 0-3.932 4.453-.3-.264 3.933-4.454.3.265Zm1.52 0-3.932 4.453-.3-.264 3.932-4.454.3.265Zm3.04 0-3.932 4.453-.3-.264 3.933-4.454.3.265Zm3.04 0-3.932 4.453-.3-.264 3.933-4.454.3.265Zm3.04 0-3.932 4.453-.3-.264 3.933-4.454.3.265Zm1.52 0-3.932 4.453-.3-.264 3.933-4.454.3.265Zm1.52 0-3.932 4.453-.3-.264 3.933-4.454.3.265Zm3.04 0-3.932 4.453-.3-.264 3.933-4.454.3.265Zm4.56 0-3.932 4.453-.3-.264 3.933-4.454.3.265Zm-30.4 0-3.882 4.453v-.643l3.582-4.075.3.265Zm-1.52 0-1.966 2.227-.3-.265 1.966-2.227.3.265Zm13.68 0-3.932 4.453-.3-.264 3.933-4.454.3.265Zm-10.64 0-3.932 4.453-.3-.264 3.933-4.454.3.265Zm13.68 0-3.932 4.453-.3-.264 3.933-4.454.3.265Zm3.04 0-3.932 4.453-.3-.264 3.933-4.454.3.265Zm9.12 0-3.932 4.453-.3-.264 3.933-4.454.3.265Zm4.56 0-3.932 4.453-.3-.264 3.933-4.454.3.265Zm1.52 0-3.932 4.453-.3-.264 3.933-4.454.3.265Zm4.56 0-3.932 4.453-.3-.264 3.933-4.454.3.265Zm3.04 0-3.932 4.453-.3-.264 3.933-4.454.3.265Zm1.52 0-3.932 4.453-.3-.264 3.933-4.454.3.265Zm1.52 0-3.932 4.453-.3-.264 3.933-4.454.3.265Zm9.12 0-3.932 4.453-.3-.264 3.933-4.454.3.265Zm7.718 0-3.933 4.453-.3-.264 3.933-4.454.3.265Zm-32.038 0-3.932 4.453-.3-.264 3.933-4.454.3.265Zm16.72 0-3.932 4.453-.3-.264 3.933-4.454.3.265Zm22.918 0-3.933 4.453-.3-.264 3.933-4.454.3.265Zm1.52 0-3.933 4.453-.3-.264 3.933-4.454.3.265Zm1.52 0-3.933 4.453-.3-.264 3.933-4.454.3.265Zm1.52 0-3.933 4.453-.3-.264 3.933-4.454.3.265Zm1.52 0-3.933 4.453-.3-.264 3.933-4.454.3.265Zm13.68 0-3.933 4.453-.299-.264 3.932-4.454.3.265Zm3.04 0-3.933 4.453-.299-.264 3.932-4.454.3.265Zm1.52 0-3.933 4.453-.299-.264 3.932-4.454.3.265Zm1.52 0-3.933 4.453-.299-.264 3.932-4.454.3.265Zm1.52 0-3.932 4.453-.3-.264 3.932-4.454.3.265Zm6.08 0-3.932 4.453-.3-.264 3.932-4.454.3.265Zm1.074 2.227-1.966 2.227-.3-.265 1.966-2.227.3.265Zm.149 1.552-.595.675-.3-.265.596-.675.299.265Z"
    fill="var(--main-background, #080808)"
  />
  <path
    fill-rule="evenodd"
    clip-rule="evenodd"
    d="M79.707 54.192h-4.426v-.4h4.426v.4Z"
    fill="var(--main-background, #080808)"
  />
  <path
    fill-rule="evenodd"
    clip-rule="evenodd"
    d="M130.969 16.34H24.161v46.525h106.808V16.34Zm-107.208-.4v47.325h107.608V15.94H23.761Z"
    fill="var(--main-background, #080808)"
  />
  <path d="M128.914 14.879h3.135v3.134h-3.135V14.88Z" fill="var(--main-theme-3, #292929)" />
  <path
    fill-rule="evenodd"
    clip-rule="evenodd"
    d="M128.514 14.479h3.935v3.934h-3.935V14.48Zm.4.4v3.134h3.135V14.88h-3.135Z"
    fill="var(--main-background, #080808)"
  />
  <path d="M129.21 61.071h3.135v3.135h-3.135v-3.135Z" fill="var(--main-theme-3, #292929)" />
  <path
    fill-rule="evenodd"
    clip-rule="evenodd"
    d="M128.81 60.671h3.935v3.935h-3.935v-3.935Zm.4.4v3.135h3.135v-3.135h-3.135Z"
    fill="var(--main-background, #080808)"
  />
  <path d="M22.945 14.879h3.134v3.134h-3.134V14.88Z" fill="var(--main-theme-3, #292929)" />
  <path
    fill-rule="evenodd"
    clip-rule="evenodd"
    d="M22.545 14.479h3.934v3.934h-3.934V14.48Zm.4.4v3.134h3.134V14.88h-3.134Z"
    fill="var(--main-background, #080808)"
  />
  <path d="M22.945 61.071h3.134v3.135h-3.134v-3.135Z" fill="var(--main-theme-3, #292929)" />
  <path
    fill-rule="evenodd"
    clip-rule="evenodd"
    d="M22.545 60.671h3.934v3.935h-3.934v-3.935Zm.4.4v3.135h3.134v-3.135h-3.134Z"
    fill="var(--main-background, #080808)"
  />
  <defs>
    <filter
      id="filter0_d_1348_10708"
      x=".496"
      y=".034"
      width="153.992"
      height="95.43"
      filterUnits="userSpaceOnUse"
      color-interpolation-filters="sRGB"
    >
      <feFlood flood-opacity="0" result="BackgroundImageFix" />
      <feColorMatrix
        in="SourceAlpha"
        values="0 0 0 0 0 0 0 0 0 0 0 0 0 0 0 0 0 0 127 0"
        result="hardAlpha"
      />
      <feOffset dy="4" />
      <feGaussianBlur stdDeviation="2" />
      <feComposite in2="hardAlpha" operator="out" />
      <feColorMatrix values="0 0 0 0 0 0 0 0 0 0 0 0 0 0 0 0 0 0 0.25 0" />
      <feBlend in2="BackgroundImageFix" result="effect1_dropShadow_1348_10708" />
      <feBlend in="SourceGraphic" in2="effect1_dropShadow_1348_10708" result="shape" />
    </filter>
  </defs>
</svg>
