<svg width="210" height="87" fill="none" xmlns="http://www.w3.org/2000/svg">
  <g filter="url(#filter0_d_1348_10838)">
    <path
      d="M4.047 17.615c0-9.389 7.611-17 17-17h167.906c9.389 0 17 7.611 17 17V61.89c0 9.39-7.611 17-17 17H21.047c-9.389 0-17-7.61-17-17V17.615Z"
      fill="var(--theme-1, #E9E9E2)"
    />
  </g>
  <path
    d="M8.102 17.597c0-7.18 5.82-13 13-13h167.796c7.18 0 13 5.82 13 13v44.31c0 7.18-5.82 13-13 13H21.102c-7.18 0-13-5.82-13-13v-44.31Z"
    fill="var(--theme-3, #292929)"
  />
  <path
    d="M62.413 19.169a1.338 1.338 0 0 0-.622-1.006c-.363-.238-.81-.358-1.338-.358-.386 0-.724.063-1.014.188a1.62 1.62 0 0 0-.673.516c-.16.218-.239.467-.239.745 0 .233.055.433.166.601.114.165.259.303.435.413.176.108.36.198.554.269.193.068.37.123.532.166l.887.239c.227.06.48.142.758.247.282.105.55.248.806.43.258.18.471.41.639.69.168.282.251.627.251 1.036 0 .472-.123.898-.37 1.279-.245.38-.603.683-1.074.907-.469.225-1.039.337-1.709.337-.625 0-1.166-.101-1.624-.303a2.587 2.587 0 0 1-1.073-.843 2.407 2.407 0 0 1-.44-1.258h1.091c.029.33.14.603.333.819a1.8 1.8 0 0 0 .741.477c.301.102.625.153.972.153a2.86 2.86 0 0 0 1.087-.196c.32-.133.575-.318.762-.554.188-.238.282-.517.282-.835 0-.29-.081-.525-.243-.707a1.783 1.783 0 0 0-.64-.443 6.7 6.7 0 0 0-.856-.299l-1.074-.307c-.682-.196-1.221-.475-1.62-.839-.397-.364-.596-.84-.596-1.428 0-.488.132-.914.397-1.278.267-.367.625-.65 1.073-.852a3.627 3.627 0 0 1 1.513-.307c.563 0 1.063.1 1.5.303.438.198.784.471 1.04.818.258.346.395.74.41 1.18h-1.024ZM69.282 23.038V19.17h1.005v6.546h-1.005v-1.108h-.069a2.146 2.146 0 0 1-.715.848c-.324.23-.733.345-1.228.345-.409 0-.772-.09-1.09-.269a1.88 1.88 0 0 1-.75-.818c-.183-.366-.273-.828-.273-1.385V19.17h1.005v4.09c0 .478.134.859.4 1.143.27.284.615.426 1.032.426.25 0 .504-.064.763-.192.261-.127.48-.323.656-.588.18-.264.269-.6.269-1.01ZM75.044 19.169v.852h-3.528v-.852h3.528Zm-2.472 6.546v-7.45c0-.374.088-.687.265-.937.176-.25.404-.437.686-.562a2.17 2.17 0 0 1 .89-.188c.248 0 .45.02.606.06.156.04.272.076.349.11l-.29.87a4.91 4.91 0 0 0-.213-.064 1.291 1.291 0 0 0-.35-.038c-.332 0-.572.083-.72.251-.144.168-.217.413-.217.737v7.21h-1.006ZM79.368 19.169v.852H75.84v-.852h3.528Zm-2.471 6.546v-7.45c0-.374.088-.687.264-.937.176-.25.405-.437.686-.562a2.17 2.17 0 0 1 .89-.188c.248 0 .45.02.606.06.156.04.272.076.35.11l-.29.87a4.91 4.91 0 0 0-.214-.064 1.291 1.291 0 0 0-.35-.038c-.332 0-.572.083-.72.251-.144.168-.217.413-.217.737v7.21h-1.005ZM80.778 25.715v-6.546h1.005v6.546h-1.005Zm.511-7.637a.715.715 0 0 1-.507-.2.643.643 0 0 1-.209-.482c0-.187.07-.348.209-.481a.715.715 0 0 1 .507-.2.7.7 0 0 1 .503.2.637.637 0 0 1 .213.481.637.637 0 0 1-.213.482.7.7 0 0 1-.503.2ZM84.375 19.169l1.569 2.676 1.568-2.676h1.159l-2.114 3.273 2.114 3.273h-1.16l-1.567-2.54-1.569 2.54h-1.159l2.08-3.273-2.08-3.273h1.16Z"
    fill="var(--theme-2, #383938)"
  />
  <path
    fill-rule="evenodd"
    clip-rule="evenodd"
    d="M98.43 29.82H57.266v-1H98.43v1Z"
    fill="var(--theme-2, #383938)"
  />
  <path
    d="M27.692 17.36v8.727h-1.057v-7.62h-.051l-2.13 1.415v-1.074l2.18-1.449h1.058ZM30.969 19.541l1.568 2.676 1.568-2.676h1.16l-2.114 3.273 2.113 3.273h-1.159l-1.568-2.54-1.568 2.54h-1.16l2.08-3.273-2.08-3.273h1.16ZM125.577 19.524a1.336 1.336 0 0 0-.622-1.006c-.363-.239-.809-.358-1.338-.358-.386 0-.724.063-1.014.188a1.618 1.618 0 0 0-.673.515 1.237 1.237 0 0 0-.239.746c0 .233.055.433.166.6.114.166.259.303.435.414.176.108.361.198.554.269.193.068.371.123.533.166l.886.239c.227.06.48.142.758.247.282.105.55.248.806.43.258.18.471.41.639.69.168.282.251.627.251 1.036 0 .472-.123.898-.37 1.278-.245.381-.603.684-1.074.908-.469.224-1.038.337-1.709.337-.625 0-1.166-.101-1.624-.303a2.585 2.585 0 0 1-1.073-.844 2.402 2.402 0 0 1-.439-1.257h1.091c.028.33.139.603.332.818a1.8 1.8 0 0 0 .741.478c.302.102.625.153.972.153.403 0 .766-.065 1.087-.196a1.86 1.86 0 0 0 .762-.554 1.31 1.31 0 0 0 .282-.835c0-.29-.081-.526-.243-.707a1.785 1.785 0 0 0-.639-.444 6.76 6.76 0 0 0-.857-.298l-1.074-.307c-.682-.196-1.221-.476-1.619-.84-.398-.363-.597-.839-.597-1.427 0-.488.132-.915.397-1.278.267-.367.625-.65 1.073-.853a3.627 3.627 0 0 1 1.513-.306c.563 0 1.063.1 1.5.302.438.2.784.472 1.04.818.259.347.395.74.409 1.18h-1.023ZM128.815 17.342l2.591 7.347h.102l2.591-7.347h1.108l-3.205 8.727h-1.09l-3.205-8.727h1.108ZM142.122 20.07a3.07 3.07 0 0 0-.371-.772 2.373 2.373 0 0 0-.541-.588 2.268 2.268 0 0 0-.707-.37 2.818 2.818 0 0 0-.869-.129c-.518 0-.988.134-1.411.4-.423.268-.76.661-1.01 1.181s-.375 1.158-.375 1.914c0 .755.126 1.393.379 1.913s.595.913 1.027 1.18c.432.267.918.4 1.458.4.5 0 .94-.106 1.321-.319a2.27 2.27 0 0 0 .895-.912c.216-.395.323-.859.323-1.393l.324.068h-2.625v-.937h3.324v.937c0 .719-.153 1.344-.46 1.875a3.178 3.178 0 0 1-1.261 1.236c-.534.29-1.148.435-1.841.435-.773 0-1.452-.182-2.037-.546-.583-.364-1.037-.88-1.364-1.551-.324-.67-.486-1.466-.486-2.386 0-.69.093-1.311.277-1.863a4.133 4.133 0 0 1 .793-1.414c.341-.39.744-.688 1.21-.895a3.743 3.743 0 0 1 1.539-.311c.46 0 .889.07 1.286.209a3.442 3.442 0 0 1 1.858 1.482 3.4 3.4 0 0 1 .435 1.155h-1.091Z"
    fill="var(--theme-1, #E9E9E2)"
  />
  <path
    fill-rule="evenodd"
    clip-rule="evenodd"
    d="M147.412 20.052a.5.5 0 0 1 .707 0l2.283 2.28 2.281-2.28a.5.5 0 0 1 .707.707l-2.634 2.634a.5.5 0 0 1-.707 0l-2.637-2.634a.5.5 0 0 1 0-.707Z"
    fill="var(--theme-1, #E9E9E2)"
  />
  <path
    d="M177.539 21.723a1.002 1.002 0 1 1-2.004 0 1.002 1.002 0 0 1 2.004 0ZM181.542 21.723a1.001 1.001 0 1 1-2.003.001 1.001 1.001 0 0 1 2.003 0ZM185.546 21.723a1.001 1.001 0 1 1-2.003.001 1.001 1.001 0 0 1 2.003 0Z"
    fill="var(--theme-1, #E9E9E2)"
  />
  <path
    fill-rule="evenodd"
    clip-rule="evenodd"
    d="M22.521 48.72c0-1.47 1.19-2.66 2.66-2.66h4.431a2.659 2.659 0 0 1 1.47 4.875 2.659 2.659 0 1 1-3.243 4.198v2.45a2.659 2.659 0 1 1-4.13-2.216 2.657 2.657 0 0 1 0-4.431 2.657 2.657 0 0 1-1.188-2.216Zm2.66 1.772a1.772 1.772 0 1 1 0-3.545h1.772v3.545H25.18Zm1.772.887H25.18a1.772 1.772 0 1 0 0 3.545h1.773V51.38Zm0 4.431H25.18a1.772 1.772 0 1 0 1.773 1.773V55.81Zm2.66-4.431a1.772 1.772 0 1 0-.002 3.544 1.772 1.772 0 0 0 .001-3.544Zm0-.887a1.772 1.772 0 1 0 0-3.545H27.84v3.545h1.772Z"
    fill="var(--theme-1, #E9E9E2)"
  />
  <path
    d="M40.271 56.348V47.62h5.267v.938h-4.21v2.949h3.938v.937h-3.938v2.966h4.278v.938h-5.335ZM48.057 49.802l1.568 2.676 1.568-2.676h1.16l-2.114 3.273 2.113 3.273h-1.159l-1.568-2.54-1.568 2.54h-1.16l2.08-3.273-2.08-3.273h1.16ZM53.787 58.802v-9h.972v1.04h.12c.073-.114.175-.258.306-.435a1.8 1.8 0 0 1 .571-.477c.25-.142.588-.213 1.014-.213.551 0 1.037.138 1.458.413.42.276.748.666.984 1.172.236.506.354 1.102.354 1.79 0 .693-.118 1.294-.354 1.803-.236.505-.563.897-.98 1.176-.418.275-.9.413-1.445.413-.42 0-.757-.07-1.01-.209a1.871 1.871 0 0 1-.584-.481 6.482 6.482 0 0 1-.315-.452h-.085v3.46h-1.006Zm.989-5.727c0 .494.072.93.217 1.308.145.375.357.67.635.882.279.21.62.316 1.023.316.42 0 .771-.111 1.052-.333.285-.224.498-.525.64-.903.145-.38.217-.804.217-1.27 0-.46-.071-.875-.213-1.244a1.924 1.924 0 0 0-.635-.883c-.281-.218-.635-.328-1.061-.328-.41 0-.753.104-1.031.312a1.866 1.866 0 0 0-.631.86c-.142.367-.213.794-.213 1.283ZM63.759 56.484c-.591 0-1.11-.14-1.556-.422a2.867 2.867 0 0 1-1.04-1.18c-.246-.506-.37-1.097-.37-1.773 0-.682.124-1.277.37-1.785a2.86 2.86 0 0 1 1.04-1.185c.447-.281.965-.422 1.556-.422.59 0 1.108.14 1.551.422.446.281.793.676 1.04 1.184.25.51.375 1.104.375 1.786 0 .676-.125 1.267-.375 1.773-.247.505-.594.899-1.04 1.18-.443.281-.96.422-1.551.422Zm0-.903c.449 0 .818-.115 1.108-.346.29-.23.504-.532.643-.907.14-.375.21-.782.21-1.219 0-.438-.07-.845-.21-1.223a2.062 2.062 0 0 0-.643-.916c-.29-.233-.66-.35-1.108-.35-.449 0-.818.117-1.108.35-.29.233-.504.538-.644.916a3.51 3.51 0 0 0-.208 1.223c0 .438.07.844.209 1.219.139.375.353.677.643.907.29.23.659.346 1.108.346ZM68.26 56.348v-6.546h.971v.989h.069c.119-.324.335-.587.648-.788a1.906 1.906 0 0 1 1.056-.303c.074 0 .166.001.277.004.111.003.195.007.252.013v1.023a2.982 2.982 0 0 0-.235-.039c-.119-.02-.245-.03-.379-.03a1.78 1.78 0 0 0-.852.2 1.47 1.47 0 0 0-.801 1.334v4.143H68.26ZM75.981 49.802v.852H72.59v-.852h3.391Zm-2.403-1.568h1.006v6.239c0 .284.041.497.123.639a.64.64 0 0 0 .324.281c.134.046.274.068.422.068.11 0 .202-.005.273-.017l.17-.034.205.904a2.048 2.048 0 0 1-.286.076 2.101 2.101 0 0 1-.464.043c-.284 0-.563-.061-.835-.183a1.66 1.66 0 0 1-.674-.559c-.176-.25-.264-.565-.264-.946v-6.511ZM81.006 56.348V47.62h5.233v.938h-4.177v2.949h3.785v.937h-3.784v3.904h-1.057ZM87.842 56.348v-6.546h.972v.989h.068c.12-.324.335-.587.647-.788a1.907 1.907 0 0 1 1.057-.303c.074 0 .166.001.277.004.111.003.195.007.252.013v1.023a2.982 2.982 0 0 0-.235-.039c-.119-.02-.245-.03-.379-.03-.318 0-.602.067-.852.2a1.47 1.47 0 0 0-.801 1.334v4.143h-1.006ZM94.233 56.501a2.66 2.66 0 0 1-1.13-.234 1.938 1.938 0 0 1-.805-.686C92.1 55.279 92 54.916 92 54.49c0-.375.074-.68.222-.912.147-.236.345-.42.592-.554.247-.134.52-.233.818-.299.301-.068.604-.122.908-.161.397-.051.72-.09.967-.115.25-.029.432-.076.546-.141.116-.065.174-.18.174-.341v-.034c0-.42-.115-.747-.345-.98-.227-.233-.572-.35-1.035-.35-.48 0-.857.105-1.13.316-.272.21-.464.434-.575.673l-.954-.34c.17-.399.397-.708.681-.93.287-.224.6-.38.938-.469.34-.09.676-.136 1.005-.136.21 0 .452.026.725.077.275.048.541.149.797.302.258.154.473.385.643.695.17.31.256.724.256 1.244v4.313h-1.006v-.887h-.05a1.767 1.767 0 0 1-.342.456c-.159.162-.37.3-.635.414-.264.113-.586.17-.967.17Zm.153-.903c.398 0 .733-.078 1.006-.235a1.596 1.596 0 0 0 .835-1.385v-.92c-.042.051-.136.098-.281.14-.142.04-.307.076-.494.107a22.809 22.809 0 0 1-.963.128c-.262.034-.506.09-.733.166a1.265 1.265 0 0 0-.546.337c-.136.148-.204.35-.204.605 0 .35.129.614.388.793.26.176.592.264.992.264ZM99.069 56.348v-6.546h.971v1.023h.085c.137-.35.357-.62.661-.814.304-.196.669-.294 1.095-.294.432 0 .791.098 1.078.294.29.193.516.464.678.814h.068a1.91 1.91 0 0 1 .754-.805c.335-.202.737-.303 1.206-.303.585 0 1.064.183 1.436.55.372.363.558.93.558 1.7v4.38h-1.005v-4.38c0-.483-.132-.828-.397-1.035a1.466 1.466 0 0 0-.933-.312c-.46 0-.817.14-1.069.418-.253.276-.38.625-.38 1.048v4.262h-1.022v-4.483c0-.372-.121-.672-.363-.9-.241-.23-.552-.345-.933-.345-.261 0-.506.07-.733.21-.224.138-.406.332-.545.579a1.704 1.704 0 0 0-.205.848v4.09h-1.005ZM112.243 56.484c-.631 0-1.175-.14-1.633-.418a2.804 2.804 0 0 1-1.052-1.176c-.244-.505-.367-1.093-.367-1.764 0-.67.123-1.261.367-1.773a2.892 2.892 0 0 1 1.031-1.201c.443-.29.96-.435 1.551-.435a3.1 3.1 0 0 1 1.01.17 2.5 2.5 0 0 1 .908.554c.273.253.49.588.652 1.006.162.418.243.932.243 1.543v.426h-5.046v-.87h4.023c0-.369-.074-.698-.222-.988a1.662 1.662 0 0 0-.622-.686 1.741 1.741 0 0 0-.946-.252c-.4 0-.747.1-1.039.299-.29.196-.513.451-.67.767a2.257 2.257 0 0 0-.234 1.014v.58c0 .494.085.913.256 1.257.173.34.413.6.72.78a2.11 2.11 0 0 0 1.07.264c.264 0 .502-.037.715-.111a1.54 1.54 0 0 0 .559-.341c.156-.154.277-.344.362-.571l.972.273c-.103.33-.275.619-.516.869a2.52 2.52 0 0 1-.895.58 3.316 3.316 0 0 1-1.197.204ZM122.909 47.62v8.728h-1.057v-7.62h-.051l-2.131 1.415V49.07l2.182-1.449h1.057ZM128.368 56.467c-.563 0-1.064-.097-1.505-.29a2.583 2.583 0 0 1-1.044-.805 2.164 2.164 0 0 1-.417-1.206h1.074c.022.281.119.524.289.729.171.201.394.357.669.468.276.111.581.166.917.166.375 0 .707-.065.997-.196.289-.13.517-.312.681-.545.165-.233.248-.503.248-.81 0-.32-.08-.603-.239-.848a1.58 1.58 0 0 0-.699-.58c-.307-.138-.682-.208-1.125-.208h-.699v-.938h.699c.347 0 .651-.062.912-.187a1.414 1.414 0 0 0 .844-1.33c0-.295-.066-.552-.196-.77a1.346 1.346 0 0 0-.554-.512 1.792 1.792 0 0 0-.835-.183c-.302 0-.586.055-.853.166-.264.108-.48.265-.647.473a1.229 1.229 0 0 0-.273.741h-1.023c.017-.457.155-.858.413-1.202a2.604 2.604 0 0 1 1.015-.81c.42-.192.882-.289 1.385-.289.539 0 1.002.11 1.389.328.386.216.683.502.89.857.208.355.312.738.312 1.15 0 .492-.13.91-.388 1.257a1.968 1.968 0 0 1-1.044.72v.069c.551.09.981.325 1.291.703.31.375.464.84.464 1.393 0 .475-.129.9-.387 1.279-.256.375-.605.67-1.049.886-.443.216-.947.324-1.512.324ZM133.059 56.348v-.767l2.881-3.154c.338-.37.616-.69.835-.963.219-.275.381-.534.486-.775.108-.245.162-.5.162-.767a1.414 1.414 0 0 0-.818-1.317 1.935 1.935 0 0 0-.853-.183c-.335 0-.627.07-.877.208a1.439 1.439 0 0 0-.576.576c-.133.247-.2.537-.2.869h-1.006c0-.511.118-.96.354-1.347a2.46 2.46 0 0 1 .963-.903 2.903 2.903 0 0 1 1.377-.324c.511 0 .964.108 1.359.324.395.216.705.507.929.873a2.3 2.3 0 0 1 .337 1.224c0 .32-.059.635-.175.941-.114.304-.313.644-.597 1.019-.281.372-.672.827-1.172 1.363l-1.96 2.097v.068h4.057v.938h-5.506ZM143.393 47.62v8.728h-1.057v-7.62h-.051l-2.131 1.415V49.07l2.182-1.449h1.057ZM148.852 56.467c-.563 0-1.064-.097-1.504-.29a2.57 2.57 0 0 1-1.044-.805 2.165 2.165 0 0 1-.418-1.206h1.074c.023.281.119.524.29.729.17.201.393.357.669.468.275.111.581.166.916.166.375 0 .707-.065.997-.196.29-.13.517-.312.682-.545.165-.233.247-.503.247-.81 0-.32-.08-.603-.239-.848a1.582 1.582 0 0 0-.698-.58c-.307-.138-.682-.208-1.125-.208H148v-.938h.699c.346 0 .65-.062.911-.187a1.414 1.414 0 0 0 .844-1.33c0-.295-.065-.552-.196-.77a1.334 1.334 0 0 0-.554-.512 1.792 1.792 0 0 0-.835-.183 2.2 2.2 0 0 0-.852.166c-.265.108-.48.265-.648.473a1.229 1.229 0 0 0-.273.741h-1.022c.017-.457.154-.858.413-1.202a2.594 2.594 0 0 1 1.014-.81c.421-.192.882-.289 1.385-.289.54 0 1.003.11 1.389.328.387.216.683.502.891.857.207.355.311.738.311 1.15 0 .492-.129.91-.388 1.257a1.968 1.968 0 0 1-1.044.72v.069c.551.09.982.325 1.291.703.31.375.465.84.465 1.393 0 .475-.129.9-.388 1.279-.256.375-.605.67-1.048.886-.443.216-.948.324-1.513.324ZM156.612 47.62v8.728h-1.057v-7.62h-.051l-2.131 1.415V49.07l2.182-1.449h1.057ZM158.917 54.558v-.87l3.835-6.068h.631v1.347h-.426l-2.898 4.585v.068h5.165v.938h-6.307Zm4.108 1.79V47.62h1.006v8.728h-1.006ZM166.821 56.348v-.767l2.881-3.154c.338-.37.616-.69.835-.963.219-.275.381-.534.486-.775.108-.245.162-.5.162-.767 0-.307-.074-.573-.222-.797a1.438 1.438 0 0 0-.597-.52 1.928 1.928 0 0 0-.852-.183c-.335 0-.628.07-.878.208a1.436 1.436 0 0 0-.575.576c-.133.247-.2.537-.2.869h-1.006c0-.511.118-.96.354-1.347a2.46 2.46 0 0 1 .963-.903 2.902 2.902 0 0 1 1.376-.324c.512 0 .965.108 1.36.324.395.216.704.507.929.873a2.3 2.3 0 0 1 .336 1.224c0 .32-.058.635-.174.941-.114.304-.313.644-.597 1.019-.281.372-.672.827-1.172 1.363l-1.96 2.097v.068h4.057v.938h-5.506ZM176.865 47.501c.358.003.716.071 1.074.205.358.133.685.355.98.664.295.307.533.726.712 1.258.179.53.268 1.197.268 1.998 0 .776-.074 1.465-.221 2.067-.145.6-.356 1.105-.631 1.517a2.799 2.799 0 0 1-.997.937c-.389.214-.83.32-1.321.32-.489 0-.925-.097-1.309-.29a2.569 2.569 0 0 1-.937-.814 2.838 2.838 0 0 1-.465-1.214h1.04c.094.4.28.731.558.993.282.258.652.387 1.113.387.673 0 1.204-.294 1.593-.882.392-.588.589-1.419.589-2.492h-.069a2.688 2.688 0 0 1-.566.617 2.503 2.503 0 0 1-1.581.542c-.5 0-.959-.124-1.377-.371a2.81 2.81 0 0 1-.997-1.027c-.247-.438-.371-.938-.371-1.5 0-.534.12-1.023.358-1.466.242-.446.58-.801 1.014-1.065.438-.265.952-.392 1.543-.384Zm0 .938c-.358 0-.68.09-.967.268-.284.176-.51.415-.678.716-.165.298-.247.63-.247.993 0 .364.08.695.239.993.162.295.382.531.66.707.281.173.601.26.959.26.27 0 .521-.052.754-.158.233-.108.436-.254.61-.439.176-.187.314-.399.413-.634.099-.24.149-.488.149-.746 0-.341-.082-.66-.247-.959a1.96 1.96 0 0 0-.673-.724 1.743 1.743 0 0 0-.972-.277ZM184.524 56.467c-.563 0-1.064-.097-1.504-.29a2.58 2.58 0 0 1-1.045-.805 2.172 2.172 0 0 1-.417-1.206h1.074c.022.281.119.524.29.729.17.201.393.357.669.468.275.111.581.166.916.166.375 0 .707-.065.997-.196.29-.13.517-.312.682-.545.165-.233.247-.503.247-.81 0-.32-.08-.603-.239-.848a1.58 1.58 0 0 0-.699-.58c-.306-.138-.681-.208-1.125-.208h-.698v-.938h.698c.347 0 .651-.062.912-.187a1.414 1.414 0 0 0 .844-1.33c0-.295-.065-.552-.196-.77a1.34 1.34 0 0 0-.554-.512 1.792 1.792 0 0 0-.835-.183 2.2 2.2 0 0 0-.852.166 1.58 1.58 0 0 0-.648.473 1.229 1.229 0 0 0-.273.741h-1.023c.017-.457.155-.858.414-1.202a2.594 2.594 0 0 1 1.014-.81c.42-.192.882-.289 1.385-.289.54 0 1.003.11 1.389.328.386.216.683.502.891.857.207.355.311.738.311 1.15 0 .492-.129.91-.388 1.257a1.968 1.968 0 0 1-1.044.72v.069c.551.09.982.325 1.291.703.31.375.465.84.465 1.393 0 .475-.13.9-.388 1.279-.256.375-.605.67-1.048.886-.444.216-.948.324-1.513.324Z"
    fill="var(--theme-1, #E9E9E2)"
  />
  <path
    fill-rule="evenodd"
    clip-rule="evenodd"
    d="M188.488 36.984H21.504a7 7 0 0 0-7 7v17.52a7 7 0 0 0 7 7h166.984a7 7 0 0 0 7-7v-17.52a7 7 0 0 0-7-7Zm-166.984-1a8 8 0 0 0-8 8v17.52a8 8 0 0 0 8 8h166.984a8 8 0 0 0 8-8v-17.52a8 8 0 0 0-8-8H21.504Z"
    fill="#D9D9D9"
  />
  <defs>
    <filter
      id="filter0_d_1348_10838"
      x=".047"
      y=".615"
      width="209.906"
      height="86.274"
      filterUnits="userSpaceOnUse"
      color-interpolation-filters="sRGB"
    >
      <feFlood flood-opacity="0" result="BackgroundImageFix" />
      <feColorMatrix
        in="SourceAlpha"
        values="0 0 0 0 0 0 0 0 0 0 0 0 0 0 0 0 0 0 127 0"
        result="hardAlpha"
      />
      <feOffset dy="4" />
      <feGaussianBlur stdDeviation="2" />
      <feComposite in2="hardAlpha" operator="out" />
      <feColorMatrix values="0 0 0 0 0 0 0 0 0 0 0 0 0 0 0 0 0 0 0.25 0" />
      <feBlend in2="BackgroundImageFix" result="effect1_dropShadow_1348_10838" />
      <feBlend in="SourceGraphic" in2="effect1_dropShadow_1348_10838" result="shape" />
    </filter>
  </defs>
</svg>
