<svg width="155" height="96" viewBox="0 0 155 96" fill="none" xmlns="http://www.w3.org/2000/svg">
<g filter="url(#filter0_d_1348_10708)">
<path d="M17.5262 0.570312C10.5564 0.570312 4.90625 6.22049 4.90625 13.1903V68.0827C4.90625 75.0525 10.5564 80.7027 17.5262 80.7027H41.9258V83.3503C41.9258 85.9184 44.0077 88.0003 46.5758 88.0003H109.229C111.797 88.0003 113.879 85.9184 113.879 83.3503V80.7027H138.278C145.248 80.7027 150.898 75.0525 150.898 68.0827V13.1903C150.898 6.22048 145.248 0.570312 138.278 0.570312H17.5262Z" fill="#E9E9E2"/>
</g>
<path d="M9.17188 14.4724C9.17188 9.03924 13.5764 4.63477 19.0095 4.63477H136.795C142.228 4.63477 146.633 9.03924 146.633 14.4724V66.8015C146.633 72.2347 142.228 76.6392 136.795 76.6392H19.0096C13.5764 76.6392 9.17188 72.2347 9.17188 66.8015V14.4724Z" fill="#292929"/>
<rect x="45.5078" y="71.1689" width="64.7826" height="13.2942" rx="2.65392" fill="#080808"/>
<path d="M65.7944 80.4024C65.3714 80.4024 64.9976 80.3274 64.6732 80.1775C64.3508 80.0256 64.0992 79.8171 63.9185 79.5522C63.7378 79.2853 63.6484 78.9813 63.6505 78.6404C63.6484 78.3735 63.7008 78.1271 63.8076 77.9012C63.9144 77.6732 64.0602 77.4833 64.245 77.3313C64.4319 77.1773 64.6403 77.0797 64.8703 77.0387V77.0017C64.5684 76.9237 64.3282 76.7543 64.1495 76.4935C63.9709 76.2306 63.8826 75.9318 63.8846 75.5971C63.8826 75.2767 63.9637 74.9903 64.128 74.7377C64.2922 74.4851 64.5181 74.2859 64.8056 74.1401C65.0952 73.9943 65.4248 73.9214 65.7944 73.9214C66.1599 73.9214 66.4865 73.9943 66.7739 74.1401C67.0614 74.2859 67.2873 74.4851 67.4516 74.7377C67.618 74.9903 67.7021 75.2767 67.7042 75.5971C67.7021 75.9318 67.6108 76.2306 67.4301 76.4935C67.2514 76.7543 67.0142 76.9237 66.7185 77.0017V77.0387C66.9464 77.0797 67.1518 77.1773 67.3346 77.3313C67.5173 77.4833 67.6631 77.6732 67.772 77.9012C67.8808 78.1271 67.9363 78.3735 67.9383 78.6404C67.9363 78.9813 67.8438 79.2853 67.6611 79.5522C67.4804 79.8171 67.2288 80.0256 66.9064 80.1775C66.586 80.3274 66.2154 80.4024 65.7944 80.4024ZM65.7944 79.7247C66.0798 79.7247 66.3263 79.6785 66.5337 79.5861C66.7411 79.4937 66.9013 79.3633 67.0142 79.1949C67.1272 79.0265 67.1847 78.8294 67.1867 78.6035C67.1847 78.3653 67.123 78.1548 67.0019 77.972C66.8807 77.7892 66.7154 77.6455 66.506 77.5408C66.2985 77.436 66.0614 77.3837 65.7944 77.3837C65.5254 77.3837 65.2851 77.436 65.0736 77.5408C64.8641 77.6455 64.6988 77.7892 64.5777 77.972C64.4586 78.1548 64.4 78.3653 64.4021 78.6035C64.4 78.8294 64.4545 79.0265 64.5654 79.1949C64.6783 79.3633 64.8395 79.4937 65.049 79.5861C65.2584 79.6785 65.5069 79.7247 65.7944 79.7247ZM65.7944 76.7306C66.0203 76.7306 66.2205 76.6855 66.3951 76.5951C66.5717 76.5048 66.7103 76.3785 66.8109 76.2162C66.9115 76.054 66.9629 75.864 66.9649 75.6464C66.9629 75.4328 66.9126 75.247 66.814 75.0888C66.7154 74.9287 66.5789 74.8054 66.4043 74.7192C66.2298 74.6309 66.0265 74.5867 65.7944 74.5867C65.5582 74.5867 65.3519 74.6309 65.1753 74.7192C64.9987 74.8054 64.8621 74.9287 64.7656 75.0888C64.6691 75.247 64.6218 75.4328 64.6239 75.6464C64.6218 75.864 64.6701 76.054 64.7687 76.2162C64.8693 76.3785 65.0079 76.5048 65.1845 76.5951C65.3611 76.6855 65.5644 76.7306 65.7944 76.7306Z" fill="#E9E9E2"/>
<path d="M72.0439 80.4024C71.5798 80.4024 71.1845 80.2761 70.858 80.0235C70.5315 79.7689 70.282 79.4003 70.1095 78.9177C69.937 78.433 69.8507 77.8478 69.8507 77.1619C69.8507 76.4801 69.937 75.8979 70.1095 75.4153C70.284 74.9307 70.5345 74.5611 70.8611 74.3064C71.1896 74.0497 71.5839 73.9214 72.0439 73.9214C72.5039 73.9214 72.8972 74.0497 73.2237 74.3064C73.5522 74.5611 73.8028 74.9307 73.9753 75.4153C74.1498 75.8979 74.2371 76.4801 74.2371 77.1619C74.2371 77.8478 74.1508 78.433 73.9783 78.9177C73.8059 79.4003 73.5563 79.7689 73.2298 80.0235C72.9033 80.2761 72.508 80.4024 72.0439 80.4024ZM72.0439 79.7247C72.5039 79.7247 72.8612 79.5029 73.1159 79.0594C73.3705 78.6158 73.4978 77.9833 73.4978 77.1619C73.4978 76.6156 73.4393 76.1505 73.3222 75.7665C73.2072 75.3825 73.0409 75.0899 72.8232 74.8886C72.6076 74.6874 72.3478 74.5867 72.0439 74.5867C71.588 74.5867 71.2317 74.8116 70.975 75.2613C70.7183 75.709 70.59 76.3425 70.59 77.1619C70.59 77.7081 70.6475 78.1722 70.7625 78.5542C70.8775 78.9361 71.0428 79.2267 71.2584 79.4259C71.4761 79.6251 71.7379 79.7247 72.0439 79.7247Z" fill="#E9E9E2"/>
<path fill-rule="evenodd" clip-rule="evenodd" d="M76.5782 78.9526L79.0381 76.4919L79.2258 76.6795L76.7659 79.1403L76.5782 78.9526Z" fill="#E9E9E2"/>
<path fill-rule="evenodd" clip-rule="evenodd" d="M76.7672 76.4918L79.228 78.9518L79.0403 79.1395L76.5795 76.6795L76.7672 76.4918Z" fill="#E9E9E2"/>
<path d="M83.746 80.4024C83.3394 80.4024 82.977 80.3326 82.6587 80.1929C82.3424 80.0533 82.0909 79.8592 81.904 79.6107C81.7192 79.3602 81.6186 79.0696 81.6021 78.739H82.3784C82.3948 78.9423 82.4646 79.1179 82.5878 79.2657C82.711 79.4115 82.8723 79.5245 83.0714 79.6046C83.2706 79.6847 83.4914 79.7247 83.7337 79.7247C84.0048 79.7247 84.2451 79.6775 84.4545 79.583C84.664 79.4886 84.8283 79.3571 84.9474 79.1887C85.0665 79.0203 85.126 78.8253 85.126 78.6035C85.126 78.3714 85.0685 78.1671 84.9535 77.9905C84.8385 77.8118 84.6701 77.6722 84.4484 77.5716C84.2266 77.4709 83.9555 77.4206 83.6351 77.4206H83.13V76.743H83.6351C83.8857 76.743 84.1054 76.6978 84.2943 76.6074C84.4853 76.5171 84.6342 76.3898 84.741 76.2255C84.8498 76.0612 84.9042 75.8682 84.9042 75.6464C84.9042 75.4328 84.857 75.247 84.7625 75.0888C84.6681 74.9307 84.5346 74.8075 84.3621 74.7192C84.1917 74.6309 83.9904 74.5867 83.7584 74.5867C83.5407 74.5867 83.3353 74.6268 83.1423 74.7069C82.9513 74.7849 82.7952 74.8989 82.6741 75.0488C82.5529 75.1966 82.4872 75.3753 82.4769 75.5848H81.7377C81.75 75.2541 81.8496 74.9646 82.0365 74.7161C82.2233 74.4656 82.4677 74.2705 82.7696 74.1309C83.0735 73.9912 83.4072 73.9214 83.7707 73.9214C84.1609 73.9214 84.4956 74.0005 84.7749 74.1586C85.0541 74.3146 85.2687 74.521 85.4187 74.7777C85.5686 75.0344 85.6435 75.3116 85.6435 75.6094C85.6435 75.9647 85.5501 76.2676 85.3632 76.5181C85.1784 76.7686 84.9268 76.9422 84.6085 77.0387V77.088C85.0069 77.1537 85.318 77.3231 85.5419 77.5962C85.7657 77.8673 85.8776 78.203 85.8776 78.6035C85.8776 78.9464 85.7842 79.2545 85.5973 79.5276C85.4125 79.7986 85.1599 80.0122 84.8396 80.1683C84.5192 80.3244 84.1547 80.4024 83.746 80.4024Z" fill="#E9E9E2"/>
<path d="M90.0625 80.4024C89.5984 80.4024 89.2031 80.2761 88.8766 80.0235C88.5501 79.7689 88.3006 79.4003 88.1281 78.9177C87.9556 78.433 87.8694 77.8478 87.8694 77.1619C87.8694 76.4801 87.9556 75.8979 88.1281 75.4153C88.3027 74.9307 88.5532 74.5611 88.8797 74.3064C89.2083 74.0497 89.6025 73.9214 90.0625 73.9214C90.5225 73.9214 90.9158 74.0497 91.2423 74.3064C91.5709 74.5611 91.8214 74.9307 91.9939 75.4153C92.1684 75.8979 92.2557 76.4801 92.2557 77.1619C92.2557 77.8478 92.1695 78.433 91.997 78.9177C91.8245 79.4003 91.575 79.7689 91.2485 80.0235C90.9219 80.2761 90.5266 80.4024 90.0625 80.4024ZM90.0625 79.7247C90.5225 79.7247 90.8799 79.5029 91.1345 79.0594C91.3891 78.6158 91.5164 77.9833 91.5164 77.1619C91.5164 76.6156 91.4579 76.1505 91.3409 75.7665C91.2259 75.3825 91.0595 75.0899 90.8419 74.8886C90.6262 74.6874 90.3665 74.5867 90.0625 74.5867C89.6067 74.5867 89.2504 74.8116 88.9937 75.2613C88.737 75.709 88.6086 76.3425 88.6086 77.1619C88.6086 77.7081 88.6661 78.1722 88.7811 78.5542C88.8961 78.9361 89.0614 79.2267 89.2771 79.4259C89.4947 79.6251 89.7566 79.7247 90.0625 79.7247Z" fill="#E9E9E2"/>
<path d="M28.9481 52.0707C28.6362 52.0707 28.2151 52.0707 27.6849 52.0707C27.1547 52.0707 26.6244 52.0707 26.0942 52.0707C25.564 52.0707 25.1429 52.0707 24.831 52.0707C24.7375 52.0707 24.6439 52.0551 24.5503 52.0239C24.4879 51.9616 24.4256 51.8992 24.3632 51.8368C24.332 51.7744 24.3164 51.6809 24.3164 51.5561C24.3164 49.2169 24.3164 46.8932 24.3164 44.5852C24.3164 42.246 24.3164 39.9068 24.3164 37.5676C24.3164 35.2283 24.3164 32.8891 24.3164 30.5499C24.3164 28.2107 24.3164 25.8715 24.3164 23.5322C24.3164 22.4406 24.3164 21.349 24.3164 20.2573C24.3164 19.1657 24.3164 18.0741 24.3164 16.9824C24.8154 16.9824 25.2989 16.9824 25.7667 16.9824C26.2346 16.9824 26.718 16.9824 27.217 16.9824C27.7161 16.9824 28.1995 16.9824 28.6674 16.9824C29.1352 16.9824 29.6186 16.9824 30.1177 16.9824C30.2424 16.9824 30.336 17.0136 30.3984 17.076C30.4608 17.1072 30.5075 17.154 30.5387 17.2163C30.6011 17.2787 30.6323 17.3723 30.6323 17.4971C30.6323 19.9922 30.6323 22.4718 30.6323 24.9358C30.6323 27.3997 30.6323 29.8637 30.6323 32.3277C30.6323 34.7605 30.6323 37.2089 30.6323 39.6729C30.6323 42.1368 30.6323 44.6164 30.6323 47.1116C30.6323 47.1116 30.5699 47.2831 30.4452 47.6262C30.3516 47.9693 30.2112 48.3903 30.0241 48.8894C29.8682 49.3572 29.7122 49.8407 29.5563 50.3397C29.4003 50.8387 29.26 51.2598 29.1352 51.6029C29.0104 51.9148 28.9481 52.0707 28.9481 52.0707ZM29.182 48.1876L29.9305 42.9945C30.8662 44.1486 31.8955 45.0063 33.0183 45.5677C34.1723 46.1291 35.2484 46.4098 36.2464 46.4098C37.0262 46.4098 37.6656 46.2539 38.1646 45.942C38.6948 45.6301 39.1003 45.1778 39.381 44.5852C39.6617 43.9614 39.802 43.2129 39.802 42.3396V36.4915C39.802 35.743 39.7085 35.1192 39.5213 34.6201C39.3654 34.0899 39.1315 33.6689 38.8196 33.357C38.5389 33.0763 38.1802 32.8579 37.7435 32.702C37.3069 32.546 36.8078 32.4681 36.2464 32.4681C35.5914 32.4681 34.8897 32.624 34.1411 32.9359C33.4238 33.2478 32.7064 33.7 31.989 34.2926C31.3029 34.8853 30.6791 35.6026 30.1177 36.4447V30.6435H31.4276C31.9267 29.739 32.5349 28.9748 33.2522 28.351C33.9696 27.696 34.7493 27.197 35.5914 26.8539C36.4648 26.5108 37.3848 26.3393 38.3517 26.3393C39.5369 26.3393 40.5974 26.542 41.5331 26.9475C42.4999 27.353 43.3109 27.9612 43.9659 28.7721C44.652 29.5518 45.1822 30.5031 45.5565 31.6259C45.9308 32.7488 46.1179 34.0275 46.1179 35.4623V43.3688C46.1179 44.8347 45.9308 46.1291 45.5565 47.2519C45.1822 48.3748 44.652 49.3416 43.9659 50.1526C43.3109 50.9323 42.4999 51.5249 41.5331 51.9304C40.5974 52.3358 39.5369 52.5386 38.3517 52.5386C37.3848 52.5386 36.4492 52.367 35.5447 52.0239C34.6402 51.6809 33.8136 51.1974 33.0651 50.5736C32.3477 49.9186 31.6927 49.1233 31.1001 48.1876H29.182Z" fill="#E9E9E2"/>
<path d="M58.17 26.9007C58.2948 26.9007 58.3884 26.9319 58.4507 26.9943C58.5131 27.0255 58.5599 27.0723 58.5911 27.1346C58.6535 27.197 58.6847 27.2906 58.6847 27.4153C58.6847 28.7877 58.6847 30.2068 58.6847 31.6727C58.6847 33.1074 58.6847 34.5422 58.6847 35.9769C58.6847 37.4116 58.6847 38.8151 58.6847 40.1875C58.6847 41.5286 58.6847 42.8074 58.6847 44.0238C58.6847 44.71 58.8562 45.2402 59.1993 45.6145C59.5736 45.9887 60.0882 46.1759 60.7432 46.1759C61.4605 46.1759 62.1311 46.1135 62.7549 45.9888C63.4099 45.8328 64.0181 45.6145 64.5795 45.3338C65.1721 45.0219 65.7335 44.632 66.2637 44.1642C66.8251 43.6963 67.3398 43.1349 67.8076 42.4799V48.0005H66.1702C65.6087 48.9674 64.985 49.7939 64.2988 50.48C63.6126 51.1662 62.8329 51.6964 61.9596 52.0707C61.1174 52.445 60.1038 52.6321 58.9186 52.6321C57.9829 52.6321 57.1096 52.4606 56.2987 52.1175C55.4877 51.8056 54.786 51.3378 54.1934 50.714C53.6008 50.0902 53.1485 49.3416 52.8366 48.4683C52.5247 47.595 52.3688 46.6281 52.3688 45.5677C52.3688 44.1642 52.3688 42.7606 52.3688 41.3571C52.3688 39.9536 52.3688 38.55 52.3688 37.1465C52.3688 35.743 52.3688 34.3394 52.3688 32.9359C52.3688 31.9378 52.3688 30.9398 52.3688 29.9417C52.3688 28.9124 52.3688 27.8988 52.3688 26.9007C53.3356 26.9007 54.3025 26.9007 55.2694 26.9007C56.2675 26.9007 57.2343 26.9007 58.17 26.9007ZM72.8603 26.9007C72.9851 26.9007 73.0787 26.9319 73.141 26.9943C73.2034 27.0255 73.2502 27.0723 73.2814 27.1346C73.3438 27.197 73.375 27.2906 73.375 27.4153C73.375 29.661 73.375 31.8911 73.375 34.1055C73.375 36.32 73.375 38.55 73.375 40.7957C73.375 43.0101 73.375 45.2402 73.375 47.4858C73.375 48.0785 73.375 48.6399 73.375 49.1701C73.375 49.7003 73.375 50.2149 73.375 50.714C73.375 51.213 73.375 51.6653 73.375 52.0707C72.6888 52.0707 72.0026 52.0707 71.3164 52.0707C70.6615 52.0707 70.0065 52.0707 69.3515 52.0707C68.7277 52.0707 68.1195 52.0707 67.5269 52.0707C67.4333 52.0707 67.3398 52.0551 67.2462 52.0239C67.1838 51.9616 67.1214 51.8992 67.0591 51.8368C67.0279 51.7744 67.0123 51.6809 67.0123 51.5561C67.0123 48.8114 67.0123 46.0667 67.0123 43.322C67.0123 40.5774 67.0123 37.8483 67.0123 35.1348C67.0123 32.3901 67.0123 29.6454 67.0123 26.9007C67.6985 26.9007 68.3534 26.9007 68.9772 26.9007C69.6322 26.9007 70.2716 26.9007 70.8954 26.9007C71.5504 26.9007 72.2053 26.9007 72.8603 26.9007Z" fill="#E9E9E2"/>
<path d="M86.737 52.0707C86.0508 52.0707 85.3959 52.0707 84.7721 52.0707C84.1795 52.0707 83.5557 52.0707 82.9007 52.0707C82.2769 52.0707 81.6219 52.0707 80.9358 52.0707C80.8422 52.0707 80.7486 52.0551 80.655 52.0239C80.5927 51.9616 80.5303 51.8992 80.4679 51.8368C80.4367 51.7744 80.4211 51.6809 80.4211 51.5561C80.4211 49.0609 80.4211 46.5658 80.4211 44.0706C80.4211 41.5754 80.4211 39.0803 80.4211 36.5851C80.4211 34.0587 80.4211 31.548 80.4211 29.0528C80.4211 26.5576 80.4211 24.0625 80.4211 21.5673C80.4211 20.694 80.4211 19.8675 80.4211 19.0877C80.4211 18.308 80.4211 17.6062 80.4211 16.9824C81.2009 16.9824 81.9026 16.9824 82.5264 16.9824C83.1814 16.9824 83.8052 16.9824 84.3978 16.9824C85.0216 16.9824 85.6298 16.9824 86.2224 16.9824C86.3472 16.9824 86.4407 17.0136 86.5031 17.076C86.5655 17.1072 86.6123 17.154 86.6435 17.2163C86.7058 17.2787 86.737 17.3723 86.737 17.4971C86.737 20.3665 86.737 23.2515 86.737 26.1522C86.737 29.0216 86.737 31.9066 86.737 34.8073C86.737 37.6767 86.737 40.5618 86.737 43.4624C86.737 46.3318 86.737 49.2013 86.737 52.0707ZM97.1699 52.0707C96.7957 52.0707 96.515 52.0239 96.3278 51.9304C96.1407 51.8368 95.9536 51.6653 95.7664 51.4157C95.6417 51.2598 95.4701 51.0259 95.2518 50.714C95.0334 50.3709 94.7683 49.9966 94.4565 49.5911C94.1757 49.1545 93.8638 48.7022 93.5208 48.2344C93.2089 47.7666 92.897 47.3143 92.5851 46.8777C92.1796 46.285 91.8365 45.7392 91.5558 45.2402C91.2751 44.71 91.0412 44.1642 90.854 43.6027C90.6669 43.0101 90.511 42.3708 90.3862 41.6846H88.468L92.3512 36.7254C93.6611 38.4721 94.9555 40.2031 96.2343 41.9185C97.5442 43.6027 98.8386 45.287 100.117 46.9712C101.427 48.6555 102.737 50.3553 104.047 52.0707C103.361 52.0707 102.69 52.0707 102.036 52.0707C101.412 52.0707 100.71 52.0707 99.9302 52.0707C99.1817 52.0707 98.2616 52.0707 97.1699 52.0707ZM85.8481 37.6143H87.6259C87.8442 36.9594 88.0626 36.3668 88.2809 35.8365C88.4992 35.3063 88.7332 34.8073 88.9827 34.3394C89.2322 33.8716 89.4973 33.4349 89.778 33.0295C90.0899 32.624 90.433 32.2029 90.8073 31.7663C91.2127 31.2673 91.6182 30.7838 92.0237 30.316C92.4291 29.8481 92.8658 29.3335 93.3336 28.7721C93.8326 28.2107 94.3629 27.5869 94.9243 26.9007H101.895C101.989 26.9007 102.067 26.9163 102.129 26.9475C102.223 26.9787 102.285 27.0255 102.316 27.0879C102.347 27.1502 102.363 27.2282 102.363 27.3218C102.363 27.4153 102.347 27.5089 102.316 27.6025C102.285 27.6649 102.176 27.7896 101.989 27.9768C101.022 29.0684 100.055 30.1288 99.0881 31.1581C98.1524 32.1562 97.2323 33.1698 96.3278 34.1991C95.4233 35.1971 94.5188 36.1796 93.6143 37.1465C92.741 38.0822 91.8521 39.0335 90.9476 40.0003C90.0743 40.9672 89.2166 41.9185 88.3745 42.8542C87.5635 43.7899 86.7214 44.71 85.8481 45.6145V37.6143Z" fill="#E9E9E2"/>
<path d="M128.778 36.1172C128.778 36.897 128.778 37.6611 128.778 38.4097C128.778 39.127 128.778 39.8756 128.778 40.6553C128.778 41.4039 128.778 42.168 128.778 42.9478C128.778 43.6963 128.778 44.4293 128.778 45.1466C128.778 45.3961 128.794 45.6145 128.825 45.8016C128.887 45.9887 128.981 46.1447 129.105 46.2695C129.199 46.363 129.324 46.441 129.48 46.5034C129.667 46.5346 129.87 46.5502 130.088 46.5502C130.181 46.5502 130.259 46.5502 130.322 46.5502C130.415 46.5502 130.509 46.5502 130.603 46.5502H131.491C131.491 47.3923 131.491 48.2344 131.491 49.0765C131.491 49.8874 131.491 50.714 131.491 51.5561C131.491 51.712 131.445 51.8368 131.351 51.9304C131.257 52.0239 131.133 52.0707 130.977 52.0707C130.821 52.0707 130.431 52.0707 129.807 52.0707C129.215 52.0707 128.684 52.0707 128.216 52.0707C127.343 52.0707 126.563 51.9304 125.877 51.6497C125.191 51.369 124.583 50.9791 124.053 50.48C123.522 49.9498 123.117 49.326 122.836 48.6087C122.556 47.8913 122.415 47.0804 122.415 46.1759C122.415 45.209 122.415 44.2265 122.415 43.2285C122.415 42.2304 122.415 41.2479 122.415 40.281C122.415 39.7508 122.415 39.2518 122.415 38.784C122.415 38.2849 122.415 37.7859 122.415 37.2868C122.415 36.7878 122.415 36.2888 122.415 35.7897C122.415 34.8853 122.259 34.1835 121.947 33.6845C121.667 33.1542 121.168 32.78 120.45 32.5616C119.733 32.3433 118.782 32.2341 117.596 32.2341C116.723 32.2341 115.865 32.2809 115.023 32.3745C114.212 32.4681 113.401 32.5928 112.591 32.7488C111.811 32.9047 111.015 33.123 110.205 33.4037H109.316C109.316 32.5616 109.316 31.7195 109.316 30.8774C109.316 30.0353 109.316 29.2087 109.316 28.3978C109.316 28.2731 109.331 28.1795 109.362 28.1171C109.394 28.0547 109.425 28.0079 109.456 27.9768C109.643 27.7896 110.158 27.5713 111 27.3218C111.873 27.0723 112.902 26.8695 114.088 26.7136C115.273 26.5264 116.442 26.4329 117.596 26.4329C119.561 26.4329 121.246 26.62 122.649 26.9943C124.053 27.3374 125.207 27.8988 126.111 28.6785C127.016 29.4583 127.686 30.4719 128.123 31.7195C128.56 32.9359 128.778 34.4018 128.778 36.1172ZM113.807 44.9595C113.807 45.6145 113.978 46.1135 114.322 46.4566C114.696 46.7685 115.257 46.9244 116.006 46.9244C116.848 46.9244 117.674 46.8309 118.485 46.6437C119.296 46.4566 120.092 46.1447 120.871 45.708C121.682 45.2714 122.493 44.71 123.304 44.0238V48.0473H121.901C121.495 48.9829 120.918 49.7939 120.17 50.48C119.452 51.135 118.61 51.6497 117.643 52.0239C116.676 52.367 115.616 52.5386 114.462 52.5386C113.027 52.5386 111.78 52.2579 110.719 51.6964C109.69 51.135 108.895 50.3553 108.333 49.3572C107.772 48.328 107.491 47.1428 107.491 45.8016V44.1642C107.491 43.1349 107.663 42.2148 108.006 41.4039C108.349 40.5929 108.832 39.8912 109.456 39.2986C110.111 38.706 110.891 38.2537 111.795 37.9418C112.7 37.5987 113.713 37.4272 114.836 37.4272C115.928 37.4272 116.988 37.4272 118.018 37.4272C119.078 37.4272 120.076 37.4272 121.012 37.4272C121.979 37.4272 122.883 37.4272 123.725 37.4272C124.006 37.4272 124.209 37.6767 124.333 38.1758C124.489 38.6748 124.583 39.2362 124.614 39.86C124.645 40.4526 124.661 40.9516 124.661 41.3571C123.663 41.3571 122.696 41.3571 121.76 41.3571C120.825 41.3571 119.873 41.3571 118.906 41.3571C117.971 41.3571 117.004 41.3571 116.006 41.3571C115.632 41.3571 115.304 41.4039 115.023 41.4974C114.774 41.591 114.555 41.7314 114.368 41.9185C114.212 42.1056 114.072 42.324 113.947 42.5735C113.854 42.7918 113.807 43.0413 113.807 43.322V44.9595Z" fill="#E9E9E2"/>
<path d="M54.6942 59.0256C54.6698 58.7964 54.5665 58.6179 54.3846 58.4902C54.2044 58.3625 53.9699 58.2986 53.6813 58.2986C53.4783 58.2986 53.3042 58.3293 53.159 58.3905C53.0138 58.4517 52.9027 58.5348 52.8258 58.6398C52.7488 58.7448 52.7094 58.8646 52.7077 58.9993C52.7077 59.1113 52.733 59.2084 52.7838 59.2906C52.8363 59.3728 52.9071 59.4428 52.9963 59.5006C53.0856 59.5565 53.1844 59.6038 53.2929 59.6423C53.4013 59.6808 53.5107 59.7131 53.6209 59.7394L54.1248 59.8653C54.3277 59.9126 54.5228 59.9764 54.71 60.0569C54.8989 60.1374 55.0678 60.2389 55.2165 60.3613C55.3669 60.4838 55.4859 60.6316 55.5734 60.8048C55.6609 60.978 55.7046 61.181 55.7046 61.4137C55.7046 61.7286 55.6241 62.0059 55.4632 62.2456C55.3022 62.4835 55.0695 62.6698 54.7651 62.8045C54.4624 62.9375 54.0959 63.004 53.6655 63.004C53.2474 63.004 52.8844 62.9393 52.5764 62.8098C52.2703 62.6803 52.0306 62.4914 51.8574 62.2429C51.6859 61.9945 51.5932 61.6918 51.5792 61.3349H52.5371C52.5511 61.5221 52.6088 61.6778 52.7103 61.8021C52.8118 61.9263 52.9438 62.019 53.1066 62.0802C53.271 62.1415 53.4547 62.1721 53.6577 62.1721C53.8693 62.1721 54.0548 62.1406 54.214 62.0776C54.375 62.0129 54.5009 61.9237 54.5919 61.8099C54.6829 61.6945 54.7292 61.5598 54.731 61.4058C54.7292 61.2658 54.6881 61.1504 54.6076 61.0594C54.5272 60.9667 54.4143 60.8897 54.2691 60.8285C54.1257 60.7655 53.9577 60.7095 53.7652 60.6605L53.1538 60.503C52.7112 60.3893 52.3613 60.217 52.1041 59.9861C51.8486 59.7534 51.7209 59.4446 51.7209 59.0597C51.7209 58.743 51.8067 58.4657 51.9781 58.2278C52.1513 57.9898 52.3866 57.8053 52.684 57.6741C52.9815 57.5411 53.3182 57.4746 53.6944 57.4746C54.0758 57.4746 54.41 57.5411 54.6969 57.6741C54.9855 57.8053 55.2121 57.9881 55.3766 58.2225C55.541 58.4552 55.6259 58.7229 55.6311 59.0256H54.6942Z" fill="#E9E9E2"/>
<path d="M61.3616 58.3642V57.5481H65.6497V58.3642H63.9885V62.9226H63.0228V58.3642H61.3616Z" fill="#E9E9E2"/>
<path d="M74.8895 57.5481H75.8631V61.0594C75.8631 61.4443 75.7721 61.7828 75.5902 62.075C75.41 62.3672 75.1563 62.5955 74.8291 62.7599C74.502 62.9226 74.1197 63.004 73.6823 63.004C73.2432 63.004 72.86 62.9226 72.5329 62.7599C72.2057 62.5955 71.952 62.3672 71.7718 62.075C71.5916 61.7828 71.5015 61.4443 71.5015 61.0594V57.5481H72.4752V60.978C72.4752 61.202 72.5241 61.4014 72.6221 61.5764C72.7218 61.7513 72.8618 61.8887 73.042 61.9884C73.2222 62.0864 73.4356 62.1353 73.6823 62.1353C73.929 62.1353 74.1424 62.0864 74.3226 61.9884C74.5046 61.8887 74.6446 61.7513 74.7425 61.5764C74.8405 61.4014 74.8895 61.202 74.8895 60.978V57.5481Z" fill="#E9E9E2"/>
<path d="M83.7678 62.9226H81.9466V57.5481H83.8046C84.3382 57.5481 84.7965 57.6557 85.1797 57.8709C85.5646 58.0843 85.8602 58.3914 86.0667 58.792C86.2731 59.1926 86.3764 59.672 86.3764 60.2301C86.3764 60.79 86.2723 61.2711 86.0641 61.6735C85.8576 62.0759 85.5593 62.3847 85.1692 62.5998C84.7808 62.815 84.3137 62.9226 83.7678 62.9226ZM82.9202 62.0802H83.7206C84.095 62.0802 84.4073 62.012 84.6574 61.8755C84.9076 61.7373 85.0957 61.5318 85.2217 61.2588C85.3476 60.9842 85.4106 60.6413 85.4106 60.2301C85.4106 59.819 85.3476 59.4778 85.2217 59.2066C85.0957 58.9337 84.9094 58.7299 84.6627 58.5952C84.4178 58.4587 84.1133 58.3905 83.7494 58.3905H82.9202V62.0802Z" fill="#E9E9E2"/>
<path d="M93.3002 57.5481V62.9226H92.3266V57.5481H93.3002Z" fill="#E9E9E2"/>
<path d="M104.182 60.2354C104.182 60.8145 104.074 61.3104 103.857 61.7233C103.642 62.1345 103.348 62.4494 102.975 62.6681C102.604 62.8868 102.183 62.9961 101.713 62.9961C101.242 62.9961 100.82 62.8868 100.448 62.6681C100.077 62.4476 99.783 62.1319 99.5661 61.7207C99.3509 61.3078 99.2433 60.8127 99.2433 60.2354C99.2433 59.6563 99.3509 59.1612 99.5661 58.75C99.783 58.3371 100.077 58.0213 100.448 57.8026C100.82 57.584 101.242 57.4746 101.713 57.4746C102.183 57.4746 102.604 57.584 102.975 57.8026C103.348 58.0213 103.642 58.3371 103.857 58.75C104.074 59.1612 104.182 59.6563 104.182 60.2354ZM103.203 60.2354C103.203 59.8277 103.139 59.4839 103.012 59.204C102.886 58.9223 102.711 58.7098 102.487 58.5663C102.263 58.4211 102.005 58.3485 101.713 58.3485C101.421 58.3485 101.163 58.4211 100.939 58.5663C100.715 58.7098 100.539 58.9223 100.411 59.204C100.285 59.4839 100.222 59.8277 100.222 60.2354C100.222 60.643 100.285 60.9877 100.411 61.2693C100.539 61.5493 100.715 61.7618 100.939 61.907C101.163 62.0505 101.421 62.1222 101.713 62.1222C102.005 62.1222 102.263 62.0505 102.487 61.907C102.711 61.7618 102.886 61.5493 103.012 61.2693C103.139 60.9877 103.203 60.643 103.203 60.2354Z" fill="#E9E9E2"/>
<path fill-rule="evenodd" clip-rule="evenodd" d="M77.6984 5.37479V4.63477L78.0984 4.63477V5.37479H77.6984ZM77.6984 8.33488V6.85483H78.0984V8.33488H77.6984ZM77.6984 11.295V9.81493H78.0984V11.295H77.6984ZM77.6984 14.2551V12.775H78.0984V14.2551H77.6984ZM77.6984 16.4751V15.7351H78.0984V16.4751H77.6984Z" fill="#080808"/>
<path fill-rule="evenodd" clip-rule="evenodd" d="M145.939 40.437H146.633V40.837H145.939V40.437ZM143.163 40.437H144.551V40.837H143.163V40.437ZM140.387 40.437H141.775V40.837H140.387V40.437ZM137.61 40.437H138.998V40.837H137.61V40.437ZM134.834 40.437H136.222V40.837H134.834V40.437ZM132.752 40.437H133.446V40.837H132.752V40.437Z" fill="#080808"/>
<path fill-rule="evenodd" clip-rule="evenodd" d="M77.6984 66.0221V65.3797H78.0984V66.0221H77.6984ZM77.6984 68.5919V67.307H78.0984V68.5919H77.6984ZM77.6984 71.1617V69.8768H78.0984V71.1617H77.6984Z" fill="#080808"/>
<path fill-rule="evenodd" clip-rule="evenodd" d="M23.2699 40.437H23.8828V40.837H23.2699V40.437ZM20.818 40.437H22.0439V40.837L20.818 40.837L20.818 40.437ZM18.3662 40.437H19.5921V40.837H18.3662V40.437ZM15.9144 40.437H17.1403V40.837H15.9144V40.437ZM13.4626 40.437H14.6885V40.837H13.4626V40.437ZM11.0107 40.437H12.2367V40.837H11.0107V40.437ZM9.17188 40.437H9.78483V40.837H9.17188L9.17188 40.437Z" fill="#080808"/>
<path fill-rule="evenodd" clip-rule="evenodd" d="M109.131 52.4329L105.199 56.8867L104.899 56.6219L108.831 52.1682L109.131 52.4329ZM125.851 52.4329L121.919 56.8867L121.619 56.6219L125.551 52.1682L125.851 52.4329ZM131.931 52.4329L127.999 56.8867L127.699 56.6219L131.631 52.1682L131.931 52.4329ZM90.8909 52.4329L86.9585 56.8867L86.6586 56.6219L90.5911 52.1682L90.8909 52.4329ZM52.7736 52.4329L48.8412 56.8867L48.5413 56.6219L52.4738 52.1682L52.7736 52.4329ZM63.4137 52.4329L59.4812 56.8867L59.1814 56.6219L63.1138 52.1682L63.4137 52.4329ZM64.9337 52.4329L61.0012 56.8867L60.7014 56.6219L64.6339 52.1682L64.9337 52.4329ZM67.9737 52.4329L64.0413 56.8867L63.7414 56.6219L67.6739 52.1682L67.9737 52.4329ZM75.5738 52.4329L71.6413 56.8867L71.3415 56.6219L75.2739 52.1682L75.5738 52.4329ZM77.0938 52.4329L73.1613 56.8867L72.8615 56.6219L76.7939 52.1682L77.0938 52.4329ZM78.6138 52.4329L74.6813 56.8867L74.3815 56.6219L78.3139 52.1682L78.6138 52.4329ZM80.1338 52.4329L76.2013 56.8867L75.9015 56.6219L79.834 52.1682L80.1338 52.4329ZM83.2909 52.4329L79.3584 56.8867L79.0586 56.6219L82.991 52.1682L83.2909 52.4329ZM84.8109 52.4329L80.8784 56.8867L80.5786 56.6219L84.511 52.1682L84.8109 52.4329ZM86.3309 52.4329L82.3984 56.8867L82.0986 56.6219L86.031 52.1682L86.3309 52.4329ZM87.8509 52.4329L83.9184 56.8867L83.6186 56.6219L87.551 52.1682L87.8509 52.4329ZM92.4109 52.4329L88.4785 56.8867L88.1786 56.6219L92.1111 52.1682L92.4109 52.4329ZM93.9309 52.4329L89.9985 56.8867L89.6986 56.6219L93.6311 52.1682L93.9309 52.4329ZM95.4509 52.4329L91.5185 56.8867L91.2186 56.6219L95.1511 52.1682L95.4509 52.4329ZM104.571 52.4329L100.639 56.8867L100.339 56.6219L104.271 52.1682L104.571 52.4329ZM106.091 52.4329L102.159 56.8867L101.859 56.6219L105.791 52.1682L106.091 52.4329ZM107.611 52.4329L103.679 56.8867L103.379 56.6219L107.311 52.1682L107.611 52.4329ZM110.651 52.4329L106.719 56.8867L106.419 56.6219L110.351 52.1682L110.651 52.4329ZM112.171 52.4329L108.239 56.8867L107.939 56.6219L111.871 52.1682L112.171 52.4329ZM113.691 52.4329L109.759 56.8867L109.459 56.6219L113.391 52.1682L113.691 52.4329ZM115.211 52.4329L111.279 56.8867L110.979 56.6219L114.911 52.1682L115.211 52.4329ZM118.251 52.4329L114.319 56.8867L114.019 56.6219L117.951 52.1682L118.251 52.4329ZM127.371 52.4329L123.439 56.8867L123.139 56.6219L127.071 52.1682L127.371 52.4329ZM128.891 52.4329L124.959 56.8867L124.659 56.6219L128.591 52.1682L128.891 52.4329ZM31.4935 52.4329L27.561 56.8867L27.2612 56.6219L31.1936 52.1682L31.4935 52.4329ZM33.0135 52.4329L29.081 56.8867L28.7812 56.6219L32.7137 52.1682L33.0135 52.4329ZM34.5335 52.4329L30.6011 56.8867L30.3012 56.6219L34.2337 52.1682L34.5335 52.4329ZM36.0535 52.4329L32.1211 56.8867L31.8212 56.6219L35.7537 52.1682L36.0535 52.4329ZM37.5735 52.4329L33.6411 56.8867L33.3412 56.6219L37.2737 52.1682L37.5735 52.4329ZM39.0935 52.4329L35.1611 56.8867L34.8612 56.6219L38.7937 52.1682L39.0935 52.4329ZM42.1336 52.4329L38.2011 56.8867L37.9013 56.6219L41.8337 52.1682L42.1336 52.4329ZM45.1736 52.4329L41.2411 56.8867L40.9413 56.6219L44.8737 52.1682L45.1736 52.4329ZM48.2136 52.4329L44.2811 56.8867L43.9813 56.6219L47.9138 52.1682L48.2136 52.4329ZM49.7336 52.4329L45.8012 56.8867L45.5013 56.6219L49.4338 52.1682L49.7336 52.4329ZM51.2536 52.4329L47.3212 56.8867L47.0213 56.6219L50.9538 52.1682L51.2536 52.4329ZM54.2936 52.4329L50.3612 56.8867L50.0613 56.6219L53.9938 52.1682L54.2936 52.4329ZM58.8537 52.4329L54.9212 56.8867L54.6214 56.6219L58.5538 52.1682L58.8537 52.4329ZM28.4535 52.4329L24.5711 56.8867V56.2435L28.1536 52.1682L28.4535 52.4329ZM26.9335 52.4329L24.9672 54.6598L24.6674 54.395L26.6336 52.1682L26.9335 52.4329ZM40.6135 52.4329L36.6811 56.8867L36.3812 56.6219L40.3137 52.1682L40.6135 52.4329ZM29.9735 52.4329L26.041 56.8867L25.7412 56.6219L29.6736 52.1682L29.9735 52.4329ZM43.6536 52.4329L39.7211 56.8867L39.4213 56.6219L43.3537 52.1682L43.6536 52.4329ZM46.6936 52.4329L42.7611 56.8867L42.4613 56.6219L46.3937 52.1682L46.6936 52.4329ZM55.8136 52.4329L51.8812 56.8867L51.5813 56.6219L55.5138 52.1682L55.8136 52.4329ZM60.3737 52.4329L56.4412 56.8867L56.1414 56.6219L60.0738 52.1682L60.3737 52.4329ZM61.8937 52.4329L57.9612 56.8867L57.6614 56.6219L61.5938 52.1682L61.8937 52.4329ZM66.4537 52.4329L62.5213 56.8867L62.2214 56.6219L66.1539 52.1682L66.4537 52.4329ZM69.4937 52.4329L65.5613 56.8867L65.2614 56.6219L69.1939 52.1682L69.4937 52.4329ZM71.0137 52.4329L67.0813 56.8867L66.7814 56.6219L70.7139 52.1682L71.0137 52.4329ZM72.5337 52.4329L68.6013 56.8867L68.3014 56.6219L72.2339 52.1682L72.5337 52.4329ZM81.6538 52.4329L77.7214 56.8867L77.4215 56.6219L81.354 52.1682L81.6538 52.4329ZM89.3709 52.4329L85.4384 56.8867L85.1386 56.6219L89.0711 52.1682L89.3709 52.4329ZM57.3336 52.4329L53.4012 56.8867L53.1014 56.6219L57.0338 52.1682L57.3336 52.4329ZM74.0538 52.4329L70.1213 56.8867L69.8215 56.6219L73.7539 52.1682L74.0538 52.4329ZM96.9709 52.4329L93.0385 56.8867L92.7387 56.6219L96.6711 52.1682L96.9709 52.4329ZM98.491 52.4329L94.5585 56.8867L94.2587 56.6219L98.1911 52.1682L98.491 52.4329ZM100.011 52.4329L96.0785 56.8867L95.7787 56.6219L99.7111 52.1682L100.011 52.4329ZM101.531 52.4329L97.5985 56.8867L97.2987 56.6219L101.231 52.1682L101.531 52.4329ZM103.051 52.4329L99.1185 56.8867L98.8187 56.6219L102.751 52.1682L103.051 52.4329ZM116.731 52.4329L112.799 56.8867L112.499 56.6219L116.431 52.1682L116.731 52.4329ZM119.771 52.4329L115.839 56.8867L115.539 56.6219L119.471 52.1682L119.771 52.4329ZM121.291 52.4329L117.359 56.8867L117.059 56.6219L120.991 52.1682L121.291 52.4329ZM122.811 52.4329L118.879 56.8867L118.579 56.6219L122.511 52.1682L122.811 52.4329ZM124.331 52.4329L120.399 56.8867L120.099 56.6219L124.031 52.1682L124.331 52.4329ZM130.411 52.4329L126.479 56.8867L126.179 56.6219L130.111 52.1682L130.411 52.4329ZM131.485 54.6598L129.519 56.8867L129.219 56.6219L131.185 54.395L131.485 54.6598ZM131.635 56.2118L131.039 56.8867L130.739 56.6219L131.335 55.9471L131.635 56.2118Z" fill="#080808"/>
<path fill-rule="evenodd" clip-rule="evenodd" d="M131.379 16.8744H24.5711V63.4006H131.379V16.8744ZM24.1711 16.4744V63.8006H131.779V16.4744H24.1711Z" fill="#080808"/>
<path d="M129.324 15.4138H132.459V18.5485H129.324V15.4138Z" fill="#292929"/>
<path fill-rule="evenodd" clip-rule="evenodd" d="M128.924 15.0138H132.859V18.9485H128.924V15.0138ZM129.324 15.4138V18.5485H132.459V15.4138H129.324Z" fill="#080808"/>
<path d="M129.62 61.6065H132.755V64.7412H129.62V61.6065Z" fill="#292929"/>
<path fill-rule="evenodd" clip-rule="evenodd" d="M129.22 61.2065H133.155V65.1412H129.22V61.2065ZM129.62 61.6065V64.7412H132.755V61.6065H129.62Z" fill="#080808"/>
<path d="M23.3547 15.4138H26.4894V18.5485H23.3547V15.4138Z" fill="#292929"/>
<path fill-rule="evenodd" clip-rule="evenodd" d="M22.9547 15.0138H26.8894V18.9485H22.9547V15.0138ZM23.3547 15.4138V18.5485H26.4894V15.4138H23.3547Z" fill="#080808"/>
<path d="M23.3547 61.6065H26.4894V64.7412H23.3547V61.6065Z" fill="#292929"/>
<path fill-rule="evenodd" clip-rule="evenodd" d="M22.9547 61.2065H26.8894V65.1412H22.9547V61.2065ZM23.3547 61.6065V64.7412H26.4894V61.6065H23.3547Z" fill="#080808"/>
<defs>
<filter id="filter0_d_1348_10708" x="0.90625" y="0.570312" width="153.992" height="95.4297" filterUnits="userSpaceOnUse" color-interpolation-filters="sRGB">
<feFlood flood-opacity="0" result="BackgroundImageFix"/>
<feColorMatrix in="SourceAlpha" type="matrix" values="0 0 0 0 0 0 0 0 0 0 0 0 0 0 0 0 0 0 127 0" result="hardAlpha"/>
<feOffset dy="4"/>
<feGaussianBlur stdDeviation="2"/>
<feComposite in2="hardAlpha" operator="out"/>
<feColorMatrix type="matrix" values="0 0 0 0 0 0 0 0 0 0 0 0 0 0 0 0 0 0 0.25 0"/>
<feBlend mode="normal" in2="BackgroundImageFix" result="effect1_dropShadow_1348_10708"/>
<feBlend mode="normal" in="SourceGraphic" in2="effect1_dropShadow_1348_10708" result="shape"/>
</filter>
</defs>
</svg>
