<svg xmlns="http://www.w3.org/2000/svg" width="210" height="112" fill="none" viewBox="0 0 210 112">
  <g filter="url(#filter0_d_1324_10248)">
    <path
      fill="var(--theme-1, #E9E9E2)"
      d="M67.26 7.29c1.895 2.711-.342 5.268-1.196 7.403l-.006.015-.013.03-.006.015a9.366 9.366 0 0 1-.204.458h100.67c1.402-1.137 2.762-3.053 3.864-4.984a35.724 35.724 0 0 0 1.814-3.657l.02-.049.003-.008a2.515 2.515 0 0 1 4.811 1.366v.001l.033.514v.005l-.007.042a24.287 24.287 0 0 0-.126.918c-.074.63-.155 1.502-.184 2.47-.041 1.406.039 2.783.284 3.894h12.926c8.796 0 15.926 7.13 15.926 15.925V92.64c0 8.795-7.13 15.925-15.926 15.925H25.093c-8.795 0-15.925-7.13-15.925-15.925V81.977a29.185 29.185 0 0 0-1.843-.486 15.671 15.671 0 0 0-.215-.047l-.05-.01-.007-.001c-1.262-.249-3.437-1.56-3.322-2.842.115-1.28 2.481-2.119 3.767-2.14h.01l.047-.001.207-.007a29.439 29.439 0 0 0 1.406-.087V48.315c-5.07-9.114-4.143-19.872 3.611-26.915 4.461-4.131 10.26-6.112 15.794-7.172 4.76-.911 9.763-1.217 14.218-1.42a29.364 29.364 0 0 1 7.918-6.201c3.228-1.72 6.788-2.779 9.935-2.63l.006.001c1.939.095 4.808.733 6.61 3.311Z"
    />
  </g>
  <path
    fill="var(--theme-1, #E9E9E2)"
    fill-rule="evenodd"
    d="M55.717 52.682c-1.739.52-3.774.797-6.088.868-4.536.103-9.758-.78-14.774-1.722a833.617 833.617 0 0 1-3.004-.57A34.19 34.19 0 0 0 33.96 49.1c4.588-5.139 6.818-10.86 9.475-17.91 2.564-6.797 3.934-9.941 4.66-11.478.27-.569.45-.917.57-1.15.074-.14.124-.239.16-.318a93.635 93.635 0 0 0 2.349-.342c.243-.04.485-.08.725-.122 4.758-.826 8.716-2.137 9.86-4.834l.002-.007.01-.022c1.108-2.77-.172-4.195-2.682-4.333a3.445 3.445 0 0 0-.044-.003c-2.308-.11-5.59.864-8.835 2.92a24.547 24.547 0 0 0-6.34 5.814l-.101.005-1.357.058c-8.826.39-18.826 1.033-25.548 5.672a18.148 18.148 0 0 0-2.046 1.636 15.806 15.806 0 0 0-3.039 3.719C8.68 33.684 8.976 40.475 12.886 46.6l.115.179c.371.57.774 1.133 1.208 1.69l.05.064c.097 0 .192 0 .288-.057a.436.436 0 0 0 .085-.067 24.734 24.734 0 0 1-.372-.485 18.663 18.663 0 0 1-1.051-1.577c-3.243-5.455-2.873-11.49.744-16.668.967-1.384 2.166-2.707 3.59-3.94.253-.225.517-.442.79-.65 4.938-3.758 13.08-4.938 20.997-5.73 1.086-.11 2.168-.21 3.237-.31-.202.284-.401.572-.598.865-.396.592-.78 1.202-1.154 1.826-2.73 4.566-4.864 9.912-6.883 14.969-2.122 5.314-4.116 10.31-6.54 13.744l-1.186-.193-.02-.003c-1.65-.261-3.217-.474-4.646-.584l-.031-.003a32.58 32.58 0 0 0-.312-.022c-1.99-.119-3.607.127-4.841.592a6.277 6.277 0 0 0-1.435.748c-2.839 2.022-1.701 5.608 3.746 5.956l.021.002.218.011c1.876.123 3.913-.265 6.164-1.252a22.835 22.835 0 0 0 1.937-.968 28.93 28.93 0 0 0 1.747-1.063c.786.241 1.585.49 2.394.742 6.465 2.01 13.505 4.2 18.295 4.09 2.651-.032 5.303-1.53 7.58-3.602 1.46-1.328 2.765-2.892 3.82-4.457.488-.725.923-1.452 1.294-2.154l.004-.008-.372-.185c-1.188 2.26-3.23 3.74-6.052 4.582Zm-6.23 8.338c3.433-.046 6.563-1.894 8.994-4.046 2.477-2.193 4.548-4.98 5.884-7.516l1.198-2.273-4.873-2.437-1.147 2.182c-1.263 2.404-4.17 3.927-9.981 4.107-3.844.086-8.257-.585-12.752-1.405 4.292-5.24 6.508-11.004 8.977-17.556 2.035-5.394 3.301-8.442 4.08-10.194.253-.57.454-1 .613-1.33 2.622-.385 5.224-.89 7.424-1.674 2.482-.883 5.082-2.335 6.188-4.998l.006-.015.006-.015c.709-1.771.93-3.83-.266-5.54-1.15-1.647-3.062-2.163-4.672-2.241h-.002c-2.55-.122-5.654.749-8.635 2.336a26.895 26.895 0 0 0-7.91 6.446c-4.727.206-9.99.479-14.934 1.426-5.333 1.022-10.602 2.88-14.567 6.555-7.706 6.99-7.862 18.277-.873 27.207a5.445 5.445 0 0 0-1.218 2.351c-.457 1.986.349 3.865 1.866 5.125 1.45 1.203 3.498 1.841 5.874 1.953 3.273.207 6.696-.84 10.35-3.05l1.252.389c2.835.881 5.846 1.818 8.716 2.574 3.644.96 7.335 1.707 10.402 1.639Zm.825-45.529c-.31.494-.6 1.019-.87 1.576a56.99 56.99 0 0 0 3.07-.35c4.224-.609 7.622-1.738 8.576-4.048l.008-.022.004-.008c.845-2.15-.206-3.377-1.994-3.315l-.098.003c-1.866.088-4.765 1.4-7.17 4.12a15.334 15.334 0 0 0-1.526 2.044Zm-27.82 36.425a38.422 38.422 0 0 0-1.412-.297l-.014-.003c-8.911-1.812-8.772 4.474-2.408 4.412a9.149 9.149 0 0 0 .31-.015c1.427-.096 2.874-.524 4.12-1.369.29-.197.57-.417.835-.66.552-.368 1.043-.797 1.594-1.287l.016-.014a82.973 82.973 0 0 0-3.042-.767Zm-5.435-4.493c1.28-.277 2.719-.379 4.29-.285h.009l.009.001c1.506.1 3.139.313 4.816.572 1.888-3.107 3.568-7.31 5.466-12.061l.417-1.044c1.647-4.113 3.454-8.528 5.674-12.553-2.97.324-5.881.722-8.589 1.311-4.273.93-7.698 2.27-9.938 4.256l-.01.01-.011.009c-3.343 2.897-5.15 6.195-5.581 9.42-.428 3.198.462 6.584 2.996 9.791l.452.573Z"
    clip-rule="evenodd"
  />
  <path
    fill="var(--theme-3, var(--theme-3, #292929)"
    fill-rule="evenodd"
    d="M59.615 50.723c-2.264 1.828-5.63 2.694-9.984 2.828-5.12.116-11.116-1.025-16.702-2.088l-1.076-.204c6.07-5.699 8.548-12.017 11.584-20.07 3.512-9.313 4.784-11.767 5.23-12.628.073-.14.124-.239.158-.317 6.07-.806 11.584-2.044 12.946-5.327 1.115-2.788-.185-4.212-2.725-4.336-3.902-.186-10.592 2.725-15.176 8.733l-.1.005c-10.076.432-22.036.946-28.95 7.367-6.566 5.946-6.938 15.733-.558 23.847.124 0 .248 0 .372-.124-5.823-7.37-4.522-16.228 2.91-22.67 5.452-4.832 15.734-5.823 25.025-6.69-3.605 5.06-6.204 11.57-8.635 17.66-2.121 5.314-4.116 10.31-6.54 13.744-2.23-.371-4.336-.681-6.195-.805-9.353-.557-10.468 6.938-2.292 7.31 2.85.185 6.07-.806 9.85-3.284.785.242 1.584.49 2.393.742 6.465 2.01 13.505 4.2 18.295 4.09 4.094-.05 8.189-3.595 10.906-7.352 1.164.576 2.6.847 4.206.847 1.796 0 3.53-.31 5.265-.991 1.735.372 3.469.124 5.39-.805 4.841-2.303 7.432-7.14 9.165-10.377l.25-.463-.022-.007c1.616-3.117 3.657-7.051 5.183-9.594.929-.124 2.54-.62 4.398-1.24 1.424-.433 2.787.992 2.23 2.355l-.373.959-.268.688v.001c-3.82 9.822-6.02 15.479-5.492 17.182.558 1.982 2.54 3.16 5.266 1.053 2.143-1.618 4.317-4.813 6.108-7.772-.994 5.134.644 8.949 5.407 8.949 7.028 0 11.422-6.128 14.998-11.775l.013.006.074-.144.339-.537h-.058c.311-.593.636-1.2.963-1.811a144.316 144.316 0 0 0 1.841-3.516c.351-.632.669-1.212.961-1.742 1.509-2.748 2.297-4.181 3.127-4.7.31-.248.248.248 0 .99-.31 1.054-3.345 8.549-3.345 8.549l-6.07 14.432 5.699.062c7.117-17.338 7.364-17.827 7.429-17.956l.004-.007c.867-1.363 1.796-2.54 2.725-3.469 1.734-1.734 3.407-2.725 5.017-3.035 1.983-.372 2.54.743 1.797 3.345-.806 2.725-8.424 21.06-8.424 21.06l5.512.062s6.195-14.928 6.876-17.591c.021-.083.041-.159.062-.234.041-.152.083-.303.124-.51.867-1.177 1.672-2.168 2.539-3.097 1.673-1.734 3.407-2.725 5.08-3.035 1.92-.372 2.415.743 1.672 3.345-1.115 3.902-4.522 12.079-6.442 16.353-1.115 2.663 1.239 5.45 4.088 4.707a9.924 9.924 0 0 0 1.115-.62c2.735-2.008 5.469-6.933 7.433-10.47l.001-.001c.216-.39.422-.762.619-1.111h-.62c-.13.212-.346.604-.626 1.11l-.001.002v.001c-.783 1.42-2.06 3.736-3.337 5.514-3.778 5.39-4.274 3.903-4.026 3.345.521-1.59 1.372-3.598 2.279-5.741h.001c1.355-3.201 2.838-6.702 3.542-9.558 1.673-6.318-2.477-8.053-5.822-7.433-1.735.31-3.593 1.424-5.327 3.22a25.274 25.274 0 0 0-2.044 2.292c.433-4.77-3.159-6.132-6.133-5.512-1.796.31-3.53 1.424-5.388 3.22a21.819 21.819 0 0 0-1.549 1.735c.124-.248.248-.62.31-.867 1.486-5.018-3.531-4.708-4.584-4.088-1.488 1.03-2.87 3.646-4.342 6.431l-.004.01-.362.682c-.389.723-.816 1.534-1.286 2.427l-.001.002c-.577 1.094-1.218 2.311-1.934 3.641l.015.007c-1.534 2.43-4.123 6.027-7.097 8.417-1.858 1.549-4.026 2.54-5.698 2.54-.496 0-.867-.124-1.239-.372-1.301-.867-1.115-3.22-.186-6.256 5.885-3.035 15.795-8.981 15.795-14.494-.124-2.106-1.548-3.593-5.079-3.407-3.841.186-11.397 3.22-15.3 12.822a23.92 23.92 0 0 0-.685 1.988 108.114 108.114 0 0 1-2.902 4.578c-3.84 5.389-4.336 3.964-4.088 3.407 2.416-7.557 4.46-12.884 7.185-19.636.558-1.487-.557-3.035-2.106-2.911-2.858.357-5.003 1.045-6.91 1.656-1.068.342-2.061.66-3.063.883.93-1.115.124-2.787-1.3-2.849-.93 0-1.673.681-1.797 1.61-.062.992.682 1.859 1.983 1.859-1.138 1.99-2.112 3.838-3.122 5.753a278.97 278.97 0 0 1-2.391 4.467l.023.01c-1.155 2.079-2.35 4.129-3.884 5.937-1.3 1.548-2.85 2.849-4.708 3.778-1.734.867-3.097.991-4.212.867 3.965-1.734 7.62-5.389 10.159-11.397 3.778-9.106.248-12.822-5.76-12.822-6.01 0-12.637 3.716-16.416 12.822-2.53 6.097-1.755 9.778.819 11.544Zm-10.17-33.656c2.54-5.265 7.123-7.681 9.663-7.743 1.796-.062 2.85 1.177 1.982 3.345-1.177 2.85-6.07 3.902-11.645 4.398Zm-23.91 35.616c-.557.496-1.053.93-1.61 1.301-1.487 1.363-3.407 1.982-5.265 2.044-6.38.062-6.504-6.256 2.477-4.398 1.301.248 2.788.62 4.398 1.053Zm64.5-24.592c0 .62-.495 1.115-1.052 1.115-.744.062-1.301-.557-1.24-1.3 0-.496.496-.992 1.054-1.053.681 0 1.3.557 1.239 1.238ZM68.089 50.267c-1.053.867-2.168 1.362-3.345 1.362-3.283 0-3.035-3.345-.248-10.406-.186 1.61-.062 3.097.31 4.46.495 1.982 1.672 3.593 3.283 4.584Zm6.38-11.088c-2.168 5.203-4.026 8.734-5.947 10.654-1.486-.867-2.663-2.416-3.22-4.274-.558-2.106-.434-4.584.371-7.247 3.283-7.867 5.885-11.46 9.353-11.46 3.593 0 2.974 3.84-.557 12.327Zm34.578.557a80.868 80.868 0 0 0-1.486 3.903c13.565-9.663 14.866-17.592 10.654-16.6-4.122.921-6.06 5.453-8.225 10.517-.307.72-.619 1.449-.943 2.18Z"
    clip-rule="evenodd"
  />
  <path
    fill="var(--theme-1, #E9E9E2)"
    fill-rule="evenodd"
    d="m113.594 52.405-.003.002c-.584.403-.721.765-.721 1.157 0 .447.132.668.364.853.388.309 1.153.677 2.472 1.007l3.542.87h.003c2.305.56 4.228 1.462 5.575 2.834 1.396 1.412 2.055 3.219 2.055 5.271 0 1.715-.501 3.286-1.503 4.66-.977 1.352-2.316 2.376-3.945 3.1-1.656.735-3.526 1.078-5.569 1.078-2.679 0-5.043-.582-6.982-1.867-1.999-1.324-3.244-3.267-3.751-5.693l-.33-1.579 6.666-1.666.415 1.61c.251.971.68 1.563 1.215 1.937.577.396 1.432.667 2.704.667 1.49 0 2.466-.317 3.097-.772.69-.5.832-.92.832-1.288 0-.39-.116-.645-.36-.88l-.005-.005-.006-.005c-.275-.27-.835-.596-1.883-.84h-.002l-3.99-.935c-2.358-.56-4.32-1.475-5.659-2.895l-.006-.006-.005-.006c-1.334-1.442-1.971-3.238-1.971-5.263 0-1.686.481-3.23 1.459-4.57l.006-.008c.959-1.296 2.242-2.282 3.79-2.977l.005-.002c1.574-.7 3.317-1.032 5.197-1.032.406 0 1.049.069 1.651.16.607.093 1.337.234 1.903.423l1.725.575-2.6 6.1-1.511-.585a2.59 2.59 0 0 0-.619-.12 5.739 5.739 0 0 0-.549-.024c-1.204 0-2.07.274-2.706.714Zm6.286 14.828c-1.007.726-2.366 1.09-4.079 1.09-1.505 0-2.724-.322-3.658-.966-.924-.643-1.552-1.608-1.884-2.895l-3.487.871c.05.239.108.47.174.696.092.316.201.618.325.908a6.778 6.778 0 0 0 2.537 3.036c1.598 1.058 3.617 1.588 6.056 1.588 1.857 0 3.487-.312 4.888-.934 1.401-.623 2.491-1.474 3.269-2.553.789-1.08 1.184-2.305 1.184-3.675 0-1.67-.525-3.035-1.573-4.094-1.048-1.07-2.641-1.863-4.779-2.382l-3.55-.872c-1.411-.353-2.449-.794-3.113-1.323-.665-.53-.997-1.25-.997-2.164 0-1.028.483-1.873 1.448-2.538.976-.674 2.195-1.012 3.659-1.012.192 0 1.107 0 1.772.258l1.252-2.937c-.439-.146-1.077-.273-1.668-.362-.564-.084-1.086-.134-1.356-.134-1.682 0-3.187.295-4.515.887-1.318.591-2.361 1.406-3.129 2.444-.758 1.038-1.137 2.231-1.137 3.58 0 1.651.509 3.026 1.526 4.126 1.027 1.09 2.636 1.894 4.826 2.413l3.985.934c1.204.28 2.097.706 2.678 1.277.581.56.872 1.256.872 2.086 0 1.028-.509 1.91-1.526 2.647Z"
    clip-rule="evenodd"
  />
  <path
    fill="var(--theme-3, var(--theme-3, #292929)"
    d="m119.914 51.695 3.222-7.603 5.729-.2-3.208 7.931-5.743-.128ZM48.076 88.432v-6.096h2.06c.478 0 .869.087 1.172.26.306.17.532.401.679.693.147.291.22.617.22.976 0 .36-.073.686-.22.98-.145.293-.37.527-.673.702-.303.172-.692.259-1.166.259H48.67v-.655h1.453c.327 0 .59-.057.788-.17.199-.113.343-.266.432-.458a1.53 1.53 0 0 0 .137-.658 1.51 1.51 0 0 0-.137-.655.977.977 0 0 0-.434-.452c-.2-.111-.467-.167-.798-.167h-1.298v5.441h-.738ZM54.235 88.432v-6.096h.738v5.441h2.833v.655h-3.571ZM60.422 88.432h-.774l2.239-6.096h.762l2.238 6.096h-.774l-1.822-5.131h-.047l-1.822 5.131Zm.286-2.381h3.12v.655h-3.12v-.655ZM71.293 84.241h-.738a1.536 1.536 0 0 0-.622-.964 1.666 1.666 0 0 0-.509-.25 2.03 2.03 0 0 0-.583-.084c-.37 0-.704.094-1.003.28a1.945 1.945 0 0 0-.712.825c-.174.363-.262.808-.262 1.336s.088.973.262 1.337c.177.363.414.638.712.824.3.187.634.28 1.003.28.202 0 .397-.028.583-.084.187-.055.356-.137.509-.247a1.567 1.567 0 0 0 .622-.967h.738c-.055.312-.157.59-.303.837a2.287 2.287 0 0 1-1.283 1.017 2.74 2.74 0 0 1-.866.134c-.52 0-.983-.127-1.387-.38a2.613 2.613 0 0 1-.956-1.084c-.232-.468-.348-1.024-.348-1.667s.116-1.198.348-1.667c.232-.468.55-.83.956-1.083a2.555 2.555 0 0 1 1.387-.381c.307 0 .596.044.866.134.272.09.517.22.735.393.218.17.4.379.548.625.147.244.248.523.303.836ZM73.324 88.432v-6.096h3.68v.655h-2.942v2.06h2.75v.655h-2.75v2.071h2.989v.655h-3.727ZM79.172 88.432v-6.096h.738v2.715h3.25v-2.715h.738v6.096h-.738v-2.726h-3.25v2.726h-.738ZM91.358 85.384c0 .643-.116 1.199-.349 1.667-.232.468-.55.83-.955 1.083a2.554 2.554 0 0 1-1.387.381c-.52 0-.982-.127-1.387-.38a2.614 2.614 0 0 1-.956-1.084c-.232-.468-.348-1.024-.348-1.667s.116-1.198.349-1.667c.232-.468.55-.83.955-1.083a2.554 2.554 0 0 1 1.387-.381c.52 0 .982.127 1.387.38.405.255.723.616.956 1.084.232.469.348 1.024.348 1.667Zm-.715 0c0-.528-.088-.973-.264-1.336a1.92 1.92 0 0 0-.712-.825 1.845 1.845 0 0 0-1-.28c-.37 0-.703.094-1.003.28a1.946 1.946 0 0 0-.711.825c-.175.363-.262.808-.262 1.336s.087.973.262 1.337c.176.363.413.638.71.824.3.187.635.28 1.004.28.37 0 .703-.093 1-.28.3-.186.537-.461.712-.824.176-.364.264-.809.264-1.337ZM93.437 88.432v-6.096h.738v5.441h2.834v.655h-3.572ZM100.871 88.432H98.99v-6.096h1.964c.592 0 1.098.122 1.518.366.421.242.744.59.968 1.045.224.453.336.994.336 1.625 0 .635-.113 1.182-.339 1.64a2.42 2.42 0 0 1-.988 1.054c-.433.244-.959.366-1.578.366Zm-1.143-.655h1.095c.505 0 .922-.097 1.254-.291a1.8 1.8 0 0 0 .741-.83c.162-.36.244-.788.244-1.284 0-.492-.081-.915-.241-1.27a1.778 1.778 0 0 0-.721-.822c-.319-.193-.717-.289-1.193-.289h-1.179v4.786ZM105.853 88.432v-6.096h3.678v.655h-2.94v2.06h2.75v.655h-2.75v2.071h2.988v.655h-3.726ZM111.7 88.432v-6.096h2.06c.476 0 .867.082 1.173.244.305.161.531.382.678.664.147.282.22.602.22.962 0 .359-.073.677-.22.955a1.551 1.551 0 0 1-.676.655c-.303.156-.691.235-1.163.235h-1.667v-.667h1.643c.325 0 .587-.047.786-.143.2-.095.345-.23.434-.404a1.35 1.35 0 0 0 .137-.632c0-.244-.045-.457-.137-.64a.933.933 0 0 0-.437-.422c-.201-.101-.466-.152-.795-.152h-1.298v5.441h-.738Zm2.869-2.738 1.501 2.738h-.858l-1.476-2.738h.833ZM124.429 83.86a.936.936 0 0 0-.435-.702c-.254-.167-.565-.25-.934-.25-.27 0-.506.043-.709.13-.2.088-.357.208-.47.36a.864.864 0 0 0-.167.522c0 .162.039.302.116.42.08.114.181.21.304.288.123.076.252.138.387.188.135.047.259.086.372.116l.619.166c.159.042.335.1.53.173.196.073.384.174.562.3.181.126.33.286.447.483.117.196.175.437.175.723 0 .33-.086.627-.258.893a1.763 1.763 0 0 1-.751.634c-.327.157-.725.235-1.193.235-.437 0-.815-.07-1.134-.211a1.8 1.8 0 0 1-.75-.59 1.68 1.68 0 0 1-.307-.877h.762c.02.23.097.42.232.57.137.15.31.26.518.334.211.072.437.108.679.108.282 0 .535-.046.759-.138.224-.093.402-.222.533-.386a.916.916 0 0 0 .196-.584.711.711 0 0 0-.17-.494 1.237 1.237 0 0 0-.446-.31 4.72 4.72 0 0 0-.598-.208l-.75-.214c-.477-.137-.854-.332-1.131-.587-.278-.253-.417-.586-.417-.997 0-.34.092-.638.277-.892.186-.257.436-.455.75-.596a2.527 2.527 0 0 1 1.056-.214c.393 0 .743.07 1.048.211.306.14.548.33.726.572.181.242.276.517.286.824h-.714ZM126.945 82.991v-.655h4.572v.655H129.6v5.441h-.738v-5.44h-1.917ZM134.232 82.336v6.096h-.738v-6.096h.738ZM141.456 84.241h-.738a1.527 1.527 0 0 0-.23-.56 1.532 1.532 0 0 0-.392-.404 1.675 1.675 0 0 0-.509-.25 2.035 2.035 0 0 0-.584-.084 1.86 1.86 0 0 0-1.003.28 1.939 1.939 0 0 0-.711.825c-.175.363-.262.808-.262 1.336s.087.973.262 1.337c.176.363.413.638.711.824.3.187.634.28 1.003.28.203 0 .397-.028.584-.084.186-.055.356-.137.509-.247a1.575 1.575 0 0 0 .622-.967h.738c-.056.312-.157.59-.304.837a2.291 2.291 0 0 1-.547.627c-.219.171-.464.301-.736.39-.27.09-.558.134-.866.134-.52 0-.982-.127-1.387-.38a2.61 2.61 0 0 1-.955-1.084c-.232-.468-.349-1.024-.349-1.667s.117-1.198.349-1.667c.232-.468.55-.83.955-1.083a2.555 2.555 0 0 1 1.387-.381c.308 0 .596.044.866.134.272.09.517.22.736.393.218.17.4.379.547.625.147.244.248.523.304.836ZM143.487 88.432v-6.096h.738v3.024h.071l2.739-3.024h.964l-2.56 2.75 2.56 3.346h-.893l-2.119-2.834-.762.858v1.976h-.738ZM149.793 88.432v-6.096h3.679v.655h-2.941v2.06h2.75v.655h-2.75v2.071h2.988v.655h-3.726ZM155.64 88.432v-6.096h2.06c.476 0 .867.082 1.173.244.305.161.531.382.678.664.147.282.221.602.221.962 0 .359-.074.677-.221.955a1.554 1.554 0 0 1-.675.655c-.304.156-.692.235-1.164.235h-1.667v-.667h1.643c.325 0 .587-.047.786-.143.2-.095.345-.23.434-.404a1.35 1.35 0 0 0 .137-.632c0-.244-.045-.457-.137-.64a.933.933 0 0 0-.437-.422c-.201-.101-.465-.152-.795-.152h-1.298v5.441h-.738Zm2.87-2.738 1.5 2.738h-.858l-1.476-2.738h.834ZM28.353 96.814v-6.096h3.655v.655H29.09v2.06h2.643v.654h-2.643v2.727h-.738ZM39.254 93.766c0 .643-.116 1.198-.349 1.667-.232.468-.55.83-.955 1.083a2.555 2.555 0 0 1-1.387.381c-.52 0-.982-.127-1.387-.38a2.613 2.613 0 0 1-.956-1.084c-.232-.469-.348-1.024-.348-1.667s.116-1.199.348-1.667c.233-.468.551-.83.956-1.083a2.555 2.555 0 0 1 1.387-.381c.52 0 .982.127 1.387.38.405.255.723.616.955 1.084.233.468.349 1.024.349 1.667Zm-.715 0c0-.528-.088-.974-.265-1.337a1.92 1.92 0 0 0-.711-.824 1.845 1.845 0 0 0-1-.28 1.86 1.86 0 0 0-1.003.28 1.946 1.946 0 0 0-.712.824c-.174.364-.261.809-.261 1.337 0 .528.087.973.261 1.336.177.363.414.638.712.825.3.186.634.28 1.003.28.369 0 .702-.094 1-.28.3-.187.537-.462.711-.825.177-.363.265-.808.265-1.336ZM41.333 96.814v-6.096h2.06c.476 0 .867.081 1.172.244.306.16.532.382.679.664.147.281.22.602.22.961 0 .36-.073.678-.22.956a1.552 1.552 0 0 1-.676.654c-.303.157-.691.236-1.163.236h-1.667v-.667h1.643c.325 0 .587-.048.785-.143.2-.095.346-.23.435-.405.091-.176.137-.387.137-.63 0-.245-.046-.458-.137-.64a.933.933 0 0 0-.438-.423c-.2-.102-.465-.152-.794-.152H42.07v5.44h-.738Zm2.87-2.739 1.5 2.739h-.858l-1.476-2.739h.833ZM51.835 96.814l-1.667-6.096h.75l1.274 4.965h.06l1.298-4.965h.833l1.298 4.965h.06l1.273-4.965h.75l-1.667 6.096h-.761l-1.346-4.858h-.047l-1.346 4.858h-.762ZM59.522 96.814v-6.096h.738v2.715h3.25v-2.715h.739v6.096h-.738v-2.727h-3.25v2.727h-.739ZM66.565 96.814v-6.096h3.679v.655h-2.941v2.06h2.75v.654h-2.75v2.072h2.988v.655h-3.726ZM77.246 90.718v6.096h-.714l-3.322-4.786h-.06v4.786h-.738v-6.096h.715l3.333 4.798h.06v-4.798h.726ZM83.495 90.718v6.096h-.738v-6.096h.738ZM89.009 96.814v-6.096h3.655v.655h-2.917v2.06h2.643v.654h-2.643v2.727h-.738ZM95.504 90.718v6.096h-.738v-6.096h.738ZM102.657 90.718v6.096h-.715l-3.321-4.786h-.06v4.786h-.738v-6.096h.714l3.334 4.798h.059v-4.798h.727ZM106.853 96.814h-1.881v-6.096h1.964c.592 0 1.098.122 1.518.366a2.4 2.4 0 0 1 .968 1.045c.224.452.336.994.336 1.625 0 .635-.113 1.182-.339 1.64a2.421 2.421 0 0 1-.989 1.054c-.432.244-.958.366-1.577.366Zm-1.143-.655h1.095c.504 0 .922-.097 1.253-.292.332-.194.579-.471.742-.83.162-.36.244-.787.244-1.283 0-.492-.081-.916-.242-1.271a1.77 1.77 0 0 0-.72-.822c-.319-.192-.717-.288-1.193-.288h-1.179v4.786ZM115.28 96.814h-.774l2.238-6.096h.762l2.239 6.096h-.774l-1.822-5.132h-.048l-1.821 5.132Zm.286-2.381h3.119v.654h-3.119v-.654ZM124.728 96.814v-6.096h2.131c.425 0 .775.073 1.051.22.275.145.481.34.616.587.135.244.202.514.202.812 0 .262-.047.478-.14.649-.091.17-.212.306-.363.405-.149.099-.31.172-.485.22v.06c.186.011.374.077.562.196.189.12.347.29.474.512.127.222.19.494.19.816 0 .305-.069.58-.208.824-.139.244-.358.438-.658.58-.3.143-.689.215-1.17.215h-2.202Zm.738-.655h1.464c.483 0 .825-.093 1.027-.28a.896.896 0 0 0 .307-.684 1.09 1.09 0 0 0-.158-.572 1.143 1.143 0 0 0-.449-.423 1.413 1.413 0 0 0-.691-.16h-1.5v2.119Zm0-2.762h1.369c.222 0 .423-.044.601-.131.181-.088.324-.21.429-.37a.977.977 0 0 0 .161-.559.93.93 0 0 0-.28-.681c-.187-.189-.482-.283-.887-.283h-1.393v2.024ZM131.017 96.814v-6.096h3.679v.655h-2.941v2.06h2.751v.654h-2.751v2.072h2.989v.655h-3.727ZM136.532 91.373v-.655h4.571v.655h-1.916v5.44h-.739v-5.44h-1.916ZM142.747 91.373v-.655h4.572v.655h-1.917v5.44h-.738v-5.44h-1.917ZM149.297 96.814v-6.096h3.679v.655h-2.941v2.06h2.75v.654h-2.75v2.072h2.988v.655h-3.726ZM155.144 96.814v-6.096h2.06c.476 0 .867.081 1.173.244.305.16.531.382.678.664.147.281.221.602.221.961 0 .36-.074.678-.221.956a1.554 1.554 0 0 1-.675.654c-.304.157-.692.236-1.164.236h-1.667v-.667h1.643c.325 0 .587-.048.786-.143.2-.095.345-.23.434-.405a1.35 1.35 0 0 0 .137-.63c0-.245-.045-.458-.137-.64a.933.933 0 0 0-.437-.423c-.201-.102-.465-.152-.795-.152h-1.298v5.44h-.738Zm2.87-2.739 1.5 2.739h-.858l-1.476-2.739h.834ZM169.683 93.766c0 .643-.116 1.198-.349 1.667a2.61 2.61 0 0 1-.955 1.083 2.555 2.555 0 0 1-1.387.381c-.52 0-.982-.127-1.387-.38a2.62 2.62 0 0 1-.956-1.084c-.232-.469-.348-1.024-.348-1.667s.116-1.199.348-1.667a2.62 2.62 0 0 1 .956-1.083 2.555 2.555 0 0 1 1.387-.381c.52 0 .982.127 1.387.38.405.255.723.616.955 1.084.233.468.349 1.024.349 1.667Zm-.715 0c0-.528-.088-.974-.265-1.337a1.913 1.913 0 0 0-.711-.824 1.846 1.846 0 0 0-1-.28c-.369 0-.704.093-1.003.28a1.948 1.948 0 0 0-.712.824c-.174.364-.261.809-.261 1.337 0 .528.087.973.261 1.336.177.363.414.638.712.825.299.186.634.28 1.003.28.369 0 .702-.094 1-.28.3-.187.537-.462.711-.825.177-.363.265-.808.265-1.336ZM176.596 90.718v6.096h-.715l-3.321-4.786h-.06v4.786h-.738v-6.096h.714l3.334 4.798h.059v-4.798h.727ZM178.911 96.814v-6.096h3.679v.655h-2.941v2.06h2.75v.654h-2.75v2.072h2.989v.655h-3.727ZM40.217 74.61v-.656h4.572v.655h-1.917v5.441h-.738v-5.44h-1.917ZM46.766 80.05v-6.096h.739v2.715h3.25v-2.715h.738v6.096h-.738v-2.726h-3.25v2.726h-.739ZM54.547 73.954v6.096h-.738v-6.096h.738ZM60.199 75.478a.934.934 0 0 0-.435-.702c-.254-.167-.565-.25-.934-.25-.27 0-.506.044-.709.131-.2.087-.357.207-.47.36a.863.863 0 0 0-.167.521c0 .163.04.303.116.42.08.115.181.211.304.288.123.076.252.138.387.188.135.047.259.086.372.116l.62.167c.158.041.334.099.529.172.196.074.384.174.563.3.18.126.329.287.446.483.117.197.176.438.176.723 0 .33-.087.627-.26.893-.17.266-.42.478-.75.634-.327.157-.725.236-1.193.236-.436 0-.814-.071-1.134-.212a1.807 1.807 0 0 1-.75-.59 1.682 1.682 0 0 1-.307-.877h.762c.02.23.098.42.232.571.137.149.31.26.518.334.21.071.437.107.679.107.282 0 .535-.046.759-.137.224-.093.402-.222.533-.387a.917.917 0 0 0 .196-.584.715.715 0 0 0-.17-.494 1.245 1.245 0 0 0-.446-.31 4.702 4.702 0 0 0-.598-.207l-.75-.215c-.476-.137-.853-.332-1.131-.586-.278-.254-.417-.587-.417-.997 0-.342.092-.64.277-.893.186-.256.436-.455.75-.596a2.532 2.532 0 0 1 1.057-.214c.392 0 .742.07 1.047.212.306.138.548.329.726.571.181.242.276.517.286.825H60.2ZM101.21 73.954v6.096h-.738v-6.096h.738ZM106.862 75.478a.932.932 0 0 0-.434-.702c-.254-.167-.566-.25-.935-.25-.27 0-.506.044-.708.131a1.126 1.126 0 0 0-.47.36.858.858 0 0 0-.167.521c0 .163.039.303.116.42.079.115.18.211.304.288.123.076.252.138.386.188.135.047.259.086.373.116l.619.167c.158.041.335.099.529.172.197.074.384.174.563.3.181.126.329.287.446.483.118.197.176.438.176.723 0 .33-.086.627-.259.893a1.766 1.766 0 0 1-.75.634c-.327.157-.725.236-1.194.236-.436 0-.814-.071-1.134-.212a1.812 1.812 0 0 1-.75-.59 1.688 1.688 0 0 1-.306-.877h.762c.02.23.097.42.232.571.137.149.309.26.518.334.21.071.436.107.678.107.282 0 .535-.046.759-.137.225-.093.402-.222.533-.387a.917.917 0 0 0 .197-.584.716.716 0 0 0-.17-.494 1.247 1.247 0 0 0-.446-.31 4.697 4.697 0 0 0-.599-.207l-.75-.215c-.476-.137-.853-.332-1.131-.586-.278-.254-.417-.587-.417-.997 0-.342.093-.64.277-.893.187-.256.437-.455.75-.596a2.535 2.535 0 0 1 1.057-.214c.393 0 .742.07 1.048.212.305.138.547.329.726.571.181.242.276.517.286.825h-.715ZM159.087 80.05h-.774l2.238-6.096h.762l2.238 6.096h-.774l-1.821-5.131h-.048l-1.821 5.131Zm.285-2.38h3.12v.654h-3.12v-.655ZM70.71 71.082V47.17h3.674v23.912H70.71ZM81.113 79.477V47.169h3.55v3.8h.436c.27-.416.643-.945 1.12-1.589.489-.654 1.184-1.235 2.087-1.744.913-.518 2.148-.778 3.705-.778 2.014 0 3.788.504 5.324 1.51 1.537 1.007 2.735 2.434 3.597 4.282.861 1.847 1.292 4.026 1.292 6.538 0 2.533-.431 4.728-1.292 6.585-.862 1.848-2.055 3.28-3.581 4.297-1.526 1.007-3.285 1.51-5.278 1.51-1.536 0-2.766-.254-3.69-.762-.923-.52-1.634-1.106-2.132-1.76a23.595 23.595 0 0 1-1.152-1.65h-.312v12.069h-3.674Zm3.612-20.351c0 1.806.265 3.399.794 4.78.53 1.37 1.303 2.444 2.32 3.222 1.017.768 2.262 1.152 3.736 1.152 1.536 0 2.818-.405 3.846-1.214 1.037-.82 1.816-1.92 2.335-3.3.53-1.392.794-2.938.794-4.64 0-1.681-.26-3.197-.779-4.546-.508-1.36-1.281-2.434-2.32-3.223-1.027-.799-2.319-1.198-3.876-1.198-1.494 0-2.75.378-3.767 1.136-1.017.747-1.786 1.796-2.304 3.145-.52 1.339-.779 2.9-.779 4.686ZM145.803 61.305V47.17h3.674v23.913h-3.674v-4.047h-.249c-.56 1.214-1.432 2.246-2.615 3.098-1.184.84-2.678 1.26-4.484 1.26-1.495 0-2.823-.326-3.986-.98-1.162-.664-2.075-1.66-2.74-2.99-.664-1.338-.996-3.025-.996-5.059V47.17h3.674v14.945c0 1.744.488 3.134 1.464 4.172.986 1.038 2.241 1.557 3.767 1.557.913 0 1.842-.233 2.787-.7.955-.468 1.754-1.184 2.397-2.149.654-.965.981-2.195.981-3.69ZM156.207 71.132V47.22h3.549v3.737h.311c.499-1.277 1.303-2.268 2.414-2.974 1.11-.716 2.444-1.074 4.001-1.074 1.577 0 2.89.358 3.938 1.074 1.059.706 1.884 1.697 2.476 2.974h.249c.612-1.235 1.531-2.216 2.755-2.943 1.225-.736 2.694-1.105 4.406-1.105 1.564 0 2.873.438 4.067 1.074 2.014 1.075.404 4.759 1.087 5.679.885 1.08 2.098.416 2.098.416.023.338.034.689.034 1.051v16.004h-3.674V55.128c0-1.764-.483-3.025-1.448-3.783s-2.102-1.136-3.409-1.136c-1.682 0-2.984.508-3.908 1.525-.924 1.007-1.385 2.284-1.385 3.83v15.568h-3.737V54.754c0-1.36-.441-2.454-1.323-3.284-.882-.841-2.019-1.261-3.41-1.261-.954 0-1.847.254-2.677.762-.82.509-1.484 1.215-1.993 2.118-.498.892-.747 1.925-.747 3.098v14.945h-3.674ZM174.542 7.542s-1.304 7.489 1.017 10.864c2.32 3.376 9.778 4.843 9.778 4.843s-7.914.122-12.009 2.936c-4.095 2.815-7.045 10.16-7.045 10.16s1.303-7.49-1.017-10.865c-2.32-3.376-9.778-4.843-9.778-4.843s7.914-.122 12.009-2.936c4.095-2.815 7.045-10.159 7.045-10.159ZM25.226 65.756s-1.303 7.489 1.017 10.865c2.32 3.375 9.778 4.842 9.778 4.842s-7.914.122-12.009 2.937c-4.095 2.814-7.045 10.159-7.045 10.159s1.303-7.489-1.017-10.865c-2.32-3.375-9.778-4.842-9.778-4.842s7.914-.122 12.009-2.937c4.095-2.814 7.045-10.159 7.045-10.159ZM184.592 28.068s-.399 2.291.311 3.324 2.992 1.481 2.992 1.481-2.422.038-3.674.899c-1.253.86-2.156 3.108-2.156 3.108s.399-2.291-.311-3.324-2.991-1.481-2.991-1.481 2.421-.038 3.673-.899c1.253-.861 2.156-3.108 2.156-3.108Z"
  />
  <path
    fill="var(--theme-3, var(--theme-3, #292929)"
    d="M190.877 39.128s-.61 3.506.476 5.086c1.086 1.58 4.578 2.267 4.578 2.267s-3.705.058-5.622 1.375c-1.918 1.318-3.299 4.756-3.299 4.756s.61-3.506-.476-5.086c-1.086-1.58-4.578-2.267-4.578-2.267s3.705-.057 5.623-1.375c1.917-1.318 3.298-4.756 3.298-4.756Z"
  />
  <path
    fill="var(--theme-1, #E9E9E2)"
    fill-rule="evenodd"
    d="m62.497 47.524-.014.08c-.18 1.044-.192 1.881-.021 2.515.26.963.941 1.459 2.093 1.506a4.515 4.515 0 0 0 .467-.006 4.538 4.538 0 0 0 1.516-.38c.201-.088.4-.19.596-.304.323-.188.64-.412.951-.669a7.053 7.053 0 0 1-1.347-1.075c-.914-.93-1.584-2.119-1.93-3.486l-.004-.016-.002-.007a11 11 0 0 1-.055-.21c-.328-1.305-.43-2.721-.254-4.25a59.92 59.92 0 0 0-1.13 3.08c-.129.385-.245.756-.35 1.11-.23.779-.403 1.483-.516 2.112Zm1.566.844c-.031.26-.047.494-.047.706 0 .312.036.516.073.639a.61.61 0 0 0 .062.14l.002.002.006.004a.316.316 0 0 0 .066.03c.081.028.242.063.515.063.129 0 .26-.01.394-.03a9.075 9.075 0 0 1-1.071-1.553Zm6.15-21.144c-4.424 1.567-8.674 5.338-11.42 11.954-3.003 7.24-1.348 11.073 2.445 12.34.978.326 2.098.482 3.317.482h.185a14.516 14.516 0 0 0 2.11-.178 13.962 13.962 0 0 0 2.796-.745l.174-.068a7.465 7.465 0 0 0 1.25.16c.993.04 2-.125 3.056-.506a11.325 11.325 0 0 0 1.132-.483c1.991-.957 3.6-2.342 4.924-3.867l.002-.002c1.296-1.492 2.32-3.116 3.162-4.602a59.188 59.188 0 0 0 .755-1.37l.03-.058.025-.045.219-.408.198-.37.05-.094-.02-.007v-.003l.066-.126.715-1.377c1.114-2.14 2.343-4.479 3.436-6.42a81.33 81.33 0 0 1 .284-.502l.03-.051a68.236 68.236 0 0 1 .651-1.115c.163-.022.347-.055.55-.098a20.376 20.376 0 0 0 1.05-.264c.228-.064.47-.134.721-.21.635-.192 1.336-.42 2.077-.667.766-.233 1.514.071 1.956.614.38.467.532 1.11.274 1.74l-.62 1.595-.02.052c-3.82 9.823-6.02 15.48-5.492 17.184.499 1.774 2.14 2.903 4.432 1.61.27-.152.547-.337.833-.557a11.256 11.256 0 0 0 1.118-.977l.002-.003c1.026-1.011 2.042-2.312 3.004-3.703l.008-.012.026-.038a61.41 61.41 0 0 0 1.951-3.039c-.17.876-.263 1.715-.277 2.502-.006.348.003.687.028 1.015.242 3.14 1.93 5.264 5.252 5.422.132.006.267.01.404.01.596 0 1.174-.045 1.734-.129 2.344-.353 4.375-1.41 6.174-2.873l.01-.008c2.405-1.96 4.396-4.646 6.167-7.348.244-.37.483-.742.719-1.112l.185-.292.009-.014.012.007.075-.145.165-.262.173-.275h-.058l.015-.027.043-.083c.271-.514.551-1.038.833-1.566l.069-.13.002-.003.001-.002a144.53 144.53 0 0 0 1.841-3.516l.033-.059.001-.002a254.664 254.664 0 0 0 .925-1.676l.001-.002.001-.003c.898-1.633 1.54-2.802 2.087-3.59.088-.127.173-.243.256-.35l.019-.024c.266-.337.514-.578.766-.736.184-.148.237-.03.196.246a5.05 5.05 0 0 1-.196.745c-.036.12-.106.322-.203.587-.076.209-.169.456-.274.732-.38.998-.923 2.374-1.435 3.658-.751 1.885-1.433 3.571-1.433 3.571l-6.071 14.433 5.699.062c7.118-17.338 7.364-17.827 7.43-17.957l.003-.007a23.656 23.656 0 0 1 1.289-1.833 19.591 19.591 0 0 1 .743-.895c.218-.247.437-.482.656-.702l.007-.007.03-.031.2-.197c1.663-1.613 3.269-2.54 4.818-2.838l.033-.007.019-.003c1.208-.213 1.873.14 2.026 1.06.092.556-.004 1.321-.282 2.294-.656 2.222-5.837 14.81-7.733 19.392l-.691 1.669-1.548-.644.001-.003.327-.788.873-2.112c.727-1.76 1.703-4.135 2.705-6.594 2.025-4.972 4.079-10.117 4.456-11.388.158-.554.229-.963.246-1.25a3.032 3.032 0 0 0-.12.02c-1.167.226-2.551.981-4.144 2.574-.81.81-1.645 1.858-2.443 3.099-.148.33-1.06 2.463-7.35 17.784l-.432 1.052-9.33-.101 3.609-8.58c-1.114 1.542-2.336 3.04-3.697 4.346-2.685 2.577-6.021 4.509-10.242 4.509-1.751 0-3.293-.437-4.527-1.344-1.237-.91-2.028-2.193-2.449-3.644a10.929 10.929 0 0 1-.053-.19c-1.078 1.424-2.252 2.736-3.47 3.657-1.615 1.245-3.35 1.77-4.956 1.276-1.585-.487-2.543-1.817-2.935-3.189-.272-.907-.116-2.013.102-3.007.24-1.098.655-2.452 1.2-4.035.975-2.837 2.432-6.584 4.233-11.214l.644-1.654.005-.014.006-.014.001-.005a.21.21 0 0 0-.125-.112.1.1 0 0 0-.056 0c-1.399.465-2.773.902-3.84 1.143-1.162 2-2.567 4.66-3.847 7.119l.05.016-.945 1.755-.281.525c-.153.285-.314.587-.486.903l-.424.817-.021-.01c-1.764 3.135-4.474 7.189-8.954 9.322-2.024.977-3.977 1.338-5.96 1.026-1.786.641-3.58.935-5.42.935-3.256 0-6.39-1.025-7.986-3.848-1.554-2.749-1.278-6.58.678-11.293C61.248 28.89 68.434 24.68 75.208 24.68c3.283 0 6.422 1.022 8.012 3.852 1.124 2 1.275 4.572.522 7.635.246-.464.49-.924.73-1.382.531-1.006 1.056-2 1.596-3.002l-.284.063.717-.86.191-.348A3.344 3.344 0 0 1 85.45 27.8l.003-.058.008-.059c.23-1.717 1.644-3.065 3.458-3.065h.036l.037.002c1.463.063 2.627 1.03 3.093 2.263.2-.063.403-.129.612-.196.433-.139.891-.286 1.39-.439 1.638-.503 3.536-1.012 5.898-1.307l.037-.005.037-.003c2.857-.228 4.768 2.615 3.809 5.171l-.007.02-.008.019c-1.872 4.637-3.416 8.588-4.98 13.05.624-.971 1.212-1.924 1.685-2.71.194-.636.418-1.276.67-1.917l.004-.01.004-.009c4.157-10.227 12.301-13.647 16.768-13.865 1.978-.103 3.664.242 4.909 1.179 1.295.974 1.844 2.382 1.928 3.804l.003.049v.05c0 .16-.006.321-.018.48.298-.54.598-1.062.898-1.55.787-1.284 1.713-2.572 2.828-3.344l.051-.035.053-.032c.588-.345 1.399-.51 2.114-.556.763-.048 1.703.02 2.594.372.922.362 1.843 1.054 2.333 2.23l.018.046c1.474-1.17 3.014-1.999 4.689-2.294 1.804-.37 3.941-.177 5.625 1.014a5.711 5.711 0 0 1 1.95 2.396c1.814-1.794 3.861-3.04 5.942-3.412 1.995-.368 4.468-.087 6.227 1.53 1.861 1.71 2.446 4.454 1.52 7.967-.488 1.972-1.313 4.197-2.194 6.371.193-.346.374-.674.539-.973.322-.584.585-1.062.771-1.364l.491-.798h4.42l-1.402 2.497c-.19.338-.392.701-.604 1.085-.875 1.576-1.934 3.482-3.075 5.274-1.396 2.19-3.054 4.44-4.843 5.754l-.031.023-.031.021c-.46.306-.911.532-1.268.71l-.184.093-.17.044c-4.215 1.1-7.699-3.056-6.058-6.977l.009-.02.008-.02c1.923-4.279 5.282-12.354 6.36-16.126.153-.537.23-.943.255-1.238h-.004l-.007.002c-1.239.23-2.672.992-4.168 2.54a31.418 31.418 0 0 0-2.201 2.662c-.03.12-.059.227-.082.31a7.666 7.666 0 0 0-.032.122l-.003.009c-.199.778-.753 2.308-1.419 4.054a382.753 382.753 0 0 1-2.342 5.95 847.89 847.89 0 0 1-2.921 7.165l-.199.48-.069.166-.001.002-1.548-.641s4.401-10.607 6.192-15.534c.333-.919.576-1.64.683-2.058l.062-.234c.042-.151.083-.303.124-.51a45.386 45.386 0 0 1 .845-1.11c.328-.418.654-.814.983-1.194a28.297 28.297 0 0 1 .718-.799c1.663-1.722 3.386-2.71 5.05-3.024h.003l.02-.004c1.212-.235 1.857.123 1.98 1.073.072.555-.033 1.312-.308 2.271-1.114 3.903-4.521 12.08-6.441 16.353-1.115 2.664 1.238 5.451 4.088 4.708l.116-.058a9.15 9.15 0 0 0 .999-.562c1.352-.993 2.704-2.7 3.964-4.6a.285.285 0 0 1 .003-.005c1.286-1.94 2.474-4.08 3.466-5.866v-.001l.46-.827.159-.284h-.619c-.131.212-.348.605-.628 1.113-.782 1.42-2.059 3.736-3.337 5.515-.791 1.128-1.438 1.955-1.965 2.553-.196.222-.375.413-.539.575a5.747 5.747 0 0 1-.687.588c-.87.598-.98-.045-.835-.371l.042-.127c.099-.296.209-.606.328-.928.076-.205.155-.414.238-.629.476-1.234 1.061-2.615 1.672-4.058 1.355-3.2 2.838-6.701 3.543-9.558 1.108-4.187-.341-6.361-2.418-7.17-1.051-.41-2.262-.471-3.385-.267l-.004.001a.324.324 0 0 0-.016.003c-1.734.31-3.592 1.425-5.327 3.221l-.007.007a24.746 24.746 0 0 0-2.037 2.285 7.453 7.453 0 0 0-.024-1.681 5.473 5.473 0 0 0-.144-.718c-.405-1.49-1.375-2.414-2.554-2.88-1.056-.418-2.278-.47-3.41-.234a2.111 2.111 0 0 0-.041.007h-.003c-1.551.28-3.056 1.158-4.636 2.557-.224.199-.45.407-.678.627l-.031.03a21.238 21.238 0 0 0-1.549 1.734c.124-.247.248-.619.31-.867.162-.547.247-1.03.268-1.457.006-.132.007-.258.002-.38l-.002-.034a3.463 3.463 0 0 0-.037-.352c-.314-1.98-2.332-2.328-3.707-2.17-.481.056-.884.174-1.108.305a4.547 4.547 0 0 0-.586.49 8.717 8.717 0 0 0-.904 1.057l-.031.043-.019.026c-.21.287-.418.597-.626.925-.719 1.135-1.436 2.491-2.175 3.89l-.366.692-.029.053a307.857 307.857 0 0 0-1.258 2.375l-.001.001v.001l-.001.001c-.256.486-.524.996-.807 1.53l-.217.41-.117.22-.388.729-.114.213-.042.078-.244.453-.003.007.014.007-.084.132c-.254.4-.536.83-.843 1.279-1.551 2.273-3.731 5.046-6.169 7.006-1.859 1.548-4.026 2.54-5.699 2.54a2.095 2.095 0 0 1-1.539-.626c-.727-.77-.776-2.215-.39-4.072.125-.603.296-1.25.504-1.93a90.6 90.6 0 0 0 2.159-1.152 68.05 68.05 0 0 0 5.38-3.284c4.358-2.973 8.256-6.601 8.256-10.059-.066-1.127-.505-2.077-1.44-2.688-.812-.53-1.998-.805-3.639-.719l-.028.002h-.008c-1.054.056-2.384.325-3.839.882-3.609 1.383-7.99 4.543-10.853 10.634a24.738 24.738 0 0 0-.529 1.201l-.042.103-.076.195a23.932 23.932 0 0 0-.61 1.794 112.465 112.465 0 0 1-2.383 3.798c-.172.262-.346.523-.519.78-.85 1.192-1.535 2.05-2.086 2.659a11.78 11.78 0 0 1-.486.508 5.723 5.723 0 0 1-.61.529 3.074 3.074 0 0 1-.098.07c-.847.57-.95-.039-.808-.36l.093-.29a295.949 295.949 0 0 1 .43-1.328c2.194-6.723 4.136-11.758 6.663-18.018.557-1.486-.558-3.035-2.107-2.91-1.363.17-2.564.415-3.654.692-.902.229-1.728.479-2.507.725l-.013.004-.735.234c-.346.111-.684.22-1.017.323-.216.067-.43.132-.641.194l-.03.009c-.463.135-.918.256-1.375.358a1.674 1.674 0 0 0 .398-1.053v-.004a1.77 1.77 0 0 0-.15-.728 1.769 1.769 0 0 0-1.549-1.065 1.88 1.88 0 0 0-.185.01c-.825.082-1.47.709-1.604 1.55a2.085 2.085 0 0 0-.007.051 1.673 1.673 0 0 0 .872 1.594 2.223 2.223 0 0 0 1.032.263l.078.001-.068.119-.056.099a122.117 122.117 0 0 0-.765 1.367 247.576 247.576 0 0 0-2.233 4.17 520.051 520.051 0 0 1-1.587 2.988l-.273.505-.035.064-.048.088c-.14.26-.284.522-.43.788l-.018.033.024.01-.001.002a119.899 119.899 0 0 1-.83 1.464c-.909 1.568-1.882 3.09-3.054 4.47-1.007 1.2-2.163 2.25-3.496 3.094a13.752 13.752 0 0 1-1.255.706c-1.713.848-3.063.969-4.168.846.87-.38 1.724-.854 2.555-1.424a16.72 16.72 0 0 0 1.853-1.47c2.213-2.015 4.191-4.816 5.75-8.504 3.03-7.3 1.36-11.136-2.517-12.37-.959-.305-2.052-.452-3.243-.452-.062 0-.124 0-.186.002-1.584.02-3.209.299-4.81.866Zm7.069 1.005c-.28-.88-.957-1.33-2.073-1.373a4.695 4.695 0 0 0-.186-.004c-1.416 0-2.686.598-3.918 1.84-1.787 1.803-3.492 4.962-5.436 9.62a16.975 16.975 0 0 0-.642 3.122 12.222 12.222 0 0 0 .048 3.037c.055.368.128.728.22 1.077l.003.01c.539 1.797 1.657 3.305 3.075 4.187l.024.014a3.386 3.386 0 0 0 .122.074 10.54 10.54 0 0 0 .734-.816c1.666-2.035 3.322-5.3 5.212-9.839 2.325-5.586 3.387-9.16 2.817-10.949Zm-4.364 10.305c1.779-4.276 2.7-7.114 2.825-8.823.062-.85-.103-1.078-.107-1.083h-.001c-.003-.003-.018-.013-.055-.027-.08-.03-.25-.073-.557-.073-1.04 0-2.122.494-3.434 2.146-1.333 1.678-2.722 4.336-4.339 8.203-.713 2.4-.785 4.514-.339 6.226.293.96.783 1.788 1.382 2.422 1.38-1.839 2.863-4.763 4.624-8.99m16.063-9.33a1.037 1.037 0 0 0 .693-.283 1.139 1.139 0 0 0 .36-.832v-.003a1.027 1.027 0 0 0-.126-.591 1.281 1.281 0 0 0-1.113-.644c-.557.062-1.053.558-1.053 1.053a1.267 1.267 0 0 0-.004.082 1.21 1.21 0 0 0 .532 1.046 1.113 1.113 0 0 0 .711.173Zm-.05-1.133.001-.001a.117.117 0 0 0 .01-.012.144.144 0 0 0-.016-.041l.005.054Zm26.158.63c-2.155 1.961-3.571 5.274-5.101 8.853l-.001.002a193.94 193.94 0 0 1-.942 2.179 89.88 89.88 0 0 0-.866 2.199c-.22.58-.426 1.148-.621 1.703a67.713 67.713 0 0 0 2.47-1.843 54.096 54.096 0 0 0 3.829-3.283c4.875-4.617 6.702-8.388 6.463-10.266-.131-1.034-.888-1.495-2.108-1.208a6.82 6.82 0 0 0-.087.02h-.003c-1.169.28-2.162.851-3.033 1.645Zm-3.665 9.76c3.589-3.156 5.665-5.892 6.621-7.854.326-.67.501-1.207.576-1.608a2.46 2.46 0 0 0 .042-.345 2.147 2.147 0 0 0-.067.015l-.009.002-.009.002c-1.694.379-3.018 1.614-4.3 3.76-.973 1.629-1.795 3.553-2.71 5.692l-.144.336Zm-2.643 6.952c2.903-1.527 6.633-3.693 9.739-6.162a28.896 28.896 0 0 0 2.918-2.634 381.08 381.08 0 0 1-1.336 2.509l-.075.139c-1.509 2.357-3.91 5.625-6.582 7.773l-.011.01-.011.009c-1.707 1.422-3.504 2.151-4.626 2.151a.583.583 0 0 1-.173-.019.526.526 0 0 1-.136-.071.072.072 0 0 1-.019-.019.421.421 0 0 1-.056-.108c-.053-.137-.108-.387-.108-.793 0-.698.158-1.632.476-2.785Zm30.884 6.339 1.548.641-.434 1.048-9.127-.103.952-2.292 1.548.644 5.513.062Z"
    clip-rule="evenodd"
  />
  <path
    fill="var(--theme-3, var(--theme-3, #292929)"
    d="M118.078 50.27c-.665-.256-1.58-.256-1.773-.256-1.463 0-2.683.337-3.658 1.012-.966.664-1.448 1.51-1.448 2.537 0 .914.332 1.635.996 2.164.664.53 1.702.97 3.114 1.324l3.549.871c2.138.52 3.731 1.313 4.78 2.382 1.048 1.059 1.572 2.424 1.572 4.095 0 1.37-.394 2.594-1.183 3.674-.779 1.08-1.868 1.93-3.269 2.553-1.402.623-3.031.934-4.889.934-2.439 0-4.458-.53-6.056-1.588-1.598-1.058-2.61-2.605-3.036-4.64l3.488-.87c.332 1.286.96 2.251 1.883 2.895.934.643 2.154.965 3.659.965 1.712 0 3.072-.363 4.079-1.09 1.017-.737 1.525-1.619 1.525-2.646 0-.83-.29-1.526-.871-2.087-.582-.57-1.474-.996-2.678-1.276l-3.986-.934c-2.189-.52-3.798-1.324-4.826-2.413-1.017-1.1-1.525-2.476-1.525-4.126 0-1.35.378-2.543 1.136-3.58.768-1.038 1.811-1.853 3.129-2.445 1.329-.591 2.834-.887 4.515-.887.554 0 2.167.211 3.024.497l-1.251 2.936Z"
  />
  <defs>
    <filter
      id="filter0_d_1324_10248"
      width="208.846"
      height="111.307"
      x=".374"
      y=".611"
      color-interpolation-filters="sRGB"
      filterUnits="userSpaceOnUse"
    >
      <feFlood flood-opacity="0" result="BackgroundImageFix" />
      <feColorMatrix
        in="SourceAlpha"
        result="hardAlpha"
        values="0 0 0 0 0 0 0 0 0 0 0 0 0 0 0 0 0 0 127 0"
      />
      <feOffset />
      <feGaussianBlur stdDeviation="1.676" />
      <feComposite in2="hardAlpha" operator="out" />
      <feColorMatrix values="0 0 0 0 0 0 0 0 0 0 0 0 0 0 0 0 0 0 0.25 0" />
      <feBlend in2="BackgroundImageFix" result="effect1_dropShadow_1324_10248" />
      <feBlend in="SourceGraphic" in2="effect1_dropShadow_1324_10248" result="shape" />
    </filter>
  </defs>
</svg>
