<svg xmlns="http://www.w3.org/2000/svg" width="148" height="153" fill="none" viewBox="0 0 148 153">
  <g filter="url(#option_a)">
    <path
      fill="var(--theme-1, #E9E9E2)"
      fill-rule="evenodd"
      d="m11.951 83.62-.766 22.48c-.148 11.647 8.088 21.718 19.532 23.886l54.365 10.295c17.997 3.408 35.578-7.637 40.319-25.33l14.075-52.527a29 29 0 0 0-13.059-32.354l-15.353-8.891a16.058 16.058 0 0 0-3.347-.854L44.924 11.3c-8.105-1.165-15.782 3.978-17.788 11.917L12.265 82.06c-.131.52-.235 1.04-.314 1.56Z"
      clip-rule="evenodd"
    />
  </g>
  <path
    fill="var(--theme-3, #292929)"
    d="m123.516 33.353-12.51-7.511-94.487 58.23L16.05 105c-.21 9.289 6.33 17.367 15.46 19.095l54.207 10.266c15.426 2.922 30.496-6.546 34.559-21.711l14.07-52.509a24 24 0 0 0-10.829-26.788Z"
  />
  <path
    fill="var(--theme-2, #383938)"
    d="M31.687 23.436 16.816 82.279c-1.57 6.208 2.476 12.44 8.786 13.533l62.6 10.85a11 11 0 0 0 12.553-8.188l15.065-60.668c1.57-6.32-2.665-12.612-9.111-13.539l-62.793-9.024a11 11 0 0 0-12.23 8.193Z"
  />
  <path
    stroke="var(--theme-1, #E9E9E2)"
    stroke-linecap="round"
    stroke-linejoin="round"
    stroke-width="4.5"
    d="m74.371 51.901 4.642.819 7.736 1.364M81.24 77.95l-8.597-1.515-12.034-2.122-1.367-25.078-13.754-2.425"
  />
  <defs>
    <filter
      id="option_a"
      width="137.281"
      height="137.762"
      x="7.184"
      y="7.136"
      color-interpolation-filters="sRGB"
      filterUnits="userSpaceOnUse"
    >
      <feFlood flood-opacity="0" result="BackgroundImageFix" />
      <feColorMatrix
        in="SourceAlpha"
        result="hardAlpha"
        values="0 0 0 0 0 0 0 0 0 0 0 0 0 0 0 0 0 0 127 0"
      />
      <feOffset />
      <feGaussianBlur stdDeviation="2" />
      <feComposite in2="hardAlpha" operator="out" />
      <feColorMatrix values="0 0 0 0 0 0 0 0 0 0 0 0 0 0 0 0 0 0 0.25 0" />
      <feBlend in2="BackgroundImageFix" result="effect1_dropShadow_1313_11556" />
      <feBlend in="SourceGraphic" in2="effect1_dropShadow_1313_11556" result="shape" />
    </filter>
  </defs>
</svg>
