<svg xmlns="http://www.w3.org/2000/svg" width="181" height="228" fill="none" viewBox="0 0 181 228">
  <g filter="url(#stamp2_a)">
    <path
      fill="var(--theme-1, #E9E9E2)"
      d="M15.204 20.3c0 .759-.32 1.442-.83 1.925-.804.758-1.815 1.616-1.815 2.72v2.44c0 1.105 1.011 1.963 1.815 2.72.51.483.83 1.167.83 1.925s-.32 1.442-.83 1.924c-.804.758-1.815 1.616-1.815 2.72v2.441c0 1.105 1.011 1.963 1.815 2.721.51.483.83 1.166.83 1.925 0 .758-.32 1.441-.83 1.924-.804.758-1.815 1.616-1.815 2.72v2.44c0 1.105 1.011 1.964 1.815 2.722.51.482.83 1.166.83 1.924s-.32 1.442-.83 1.924c-.804.758-1.815 1.616-1.815 2.72v2.44c0 1.105 1.011 1.963 1.815 2.721.51.482.83 1.166.83 1.924 0 .759-.32 1.442-.83 1.925-.804.758-1.815 1.616-1.815 2.72v2.44c0 1.105 1.011 1.964 1.815 2.722.51.482.83 1.166.83 1.924s-.32 1.442-.83 1.924c-.804.758-1.815 1.616-1.815 2.72v2.441c0 1.105 1.011 1.963 1.815 2.721.51.482.83 1.166.83 1.924 0 .759-.32 1.442-.83 1.925-.804.758-1.815 1.616-1.815 2.72v2.44c0 1.104 1.011 1.963 1.815 2.721.51.482.83 1.166.83 1.924s-.32 1.442-.83 1.924c-.804.758-1.815 1.616-1.815 2.721v2.44c0 1.105 1.011 1.963 1.815 2.721.51.482.83 1.166.83 1.924 0 .759-.32 1.442-.83 1.925-.804.758-1.815 1.616-1.815 2.72v2.441c0 1.104 1.011 1.963 1.815 2.721.51.482.83 1.166.83 1.924s-.32 1.442-.83 1.924c-.804.758-1.815 1.616-1.815 2.721v2.44c0 1.105 1.011 1.963 1.815 2.721.51.482.83 1.166.83 1.924 0 .759-.32 1.442-.83 1.924-.804.758-1.815 1.617-1.815 2.721v2.44c0 1.104 1.011 1.963 1.815 2.721.51.482.83 1.166.83 1.924s-.32 1.442-.83 1.924c-.804.758-1.815 1.616-1.815 2.721v2.44c0 1.105 1.011 1.963 1.815 2.721.51.482.83 1.166.83 1.924s-.32 1.442-.83 1.924c-.804.758-1.815 1.616-1.815 2.721v2.441c0 1.104 1.011 1.963 1.815 2.721.51.482.83 1.165.83 1.924 0 .758-.32 1.442-.83 1.924-.804.758-1.815 1.616-1.815 2.72v2.44c0 1.105 1.011 1.963 1.815 2.721.51.482.83 1.166.83 1.924s-.32 1.442-.83 1.924c-.804.758-1.815 1.616-1.815 2.721v2.441c0 1.104 1.011 1.963 1.815 2.72.51.483.83 1.166.83 1.925 0 .758-.32 1.442-.83 1.924-.804.758-1.815 1.616-1.815 2.72v2.441c0 1.105 1.011 1.963 1.815 2.721.51.482.83 1.166.83 1.924s-.32 1.442-.83 1.924c-.804.758-1.815 1.616-1.815 2.721v.97a2 2 0 0 0 2 2h1.313c1.052 0 1.882-.918 2.619-1.669a2.636 2.636 0 0 1 1.889-.794c.74 0 1.409.304 1.889.794.736.751 1.566 1.669 2.618 1.669h2.715c1.052 0 1.883-.918 2.619-1.669.48-.49 1.15-.794 1.889-.794.74 0 1.409.304 1.889.794.736.751 1.566 1.669 2.618 1.669h2.716c1.052 0 1.882-.918 2.619-1.669a2.636 2.636 0 0 1 1.889-.794c.74 0 1.408.304 1.888.794.737.751 1.567 1.669 2.619 1.669h2.715c1.052 0 1.883-.918 2.619-1.669a2.636 2.636 0 0 1 1.889-.794c.74 0 1.409.304 1.889.794.736.751 1.566 1.669 2.618 1.669h2.716c1.052 0 1.882-.918 2.618-1.669.48-.49 1.15-.794 1.89-.794s1.408.304 1.888.794c.737.751 1.567 1.669 2.619 1.669h2.715c1.052 0 1.882-.918 2.619-1.669a2.636 2.636 0 0 1 1.889-.794c.74 0 1.409.304 1.889.794.736.751 1.566 1.669 2.618 1.669h2.716c1.052 0 1.882-.918 2.618-1.669a2.636 2.636 0 0 1 1.89-.794c.74 0 1.408.304 1.888.794.737.751 1.567 1.669 2.619 1.669h2.715c1.052 0 1.883-.918 2.619-1.669a2.636 2.636 0 0 1 1.889-.794c.74 0 1.409.304 1.889.794.736.751 1.566 1.669 2.618 1.669h2.716c1.052 0 1.882-.918 2.618-1.669a2.636 2.636 0 0 1 1.889-.794c.74 0 1.409.304 1.889.794.737.751 1.567 1.669 2.619 1.669h2.711c1.052 0 1.883-.918 2.619-1.669a2.636 2.636 0 0 1 1.889-.794c.74 0 1.409.304 1.889.794.736.751 1.566 1.669 2.618 1.669h2.716c1.052 0 1.882-.918 2.618-1.669a2.636 2.636 0 0 1 1.889-.794c.74 0 1.409.304 1.889.794.737.751 1.567 1.669 2.619 1.669h2.715c1.052 0 1.882-.918 2.619-1.669a2.636 2.636 0 0 1 1.889-.794c.74 0 1.409.304 1.889.794.736.751 1.566 1.669 2.618 1.669h3.054c1.052 0 1.882-.918 2.618-1.669a2.636 2.636 0 0 1 1.889-.794c.74 0 1.409.304 1.889.794.737.751 1.567 1.669 2.619 1.669h.974a2 2 0 0 0 2-2v-.998c0-1.077-.962-1.92-1.738-2.667a2.636 2.636 0 0 1-.811-1.906c0-.749.311-1.425.811-1.907.776-.746 1.738-1.59 1.738-2.667v-2.643c0-1.076-.962-1.92-1.738-2.667a2.636 2.636 0 0 1-.811-1.906c0-.749.311-1.425.811-1.906.776-.747 1.738-1.59 1.738-2.667v-2.584c0-1.077-.962-1.92-1.738-2.667a2.636 2.636 0 0 1-.811-1.906c0-.749.311-1.425.811-1.907.776-.746 1.738-1.59 1.738-2.667v-2.583c0-1.076-.962-1.92-1.738-2.667a2.636 2.636 0 0 1-.811-1.906c0-.749.311-1.425.811-1.906.776-.747 1.738-1.59 1.738-2.667v-2.584c0-1.077-.962-1.92-1.738-2.667a2.636 2.636 0 0 1-.811-1.906c0-.749.311-1.425.811-1.907.776-.746 1.738-1.59 1.738-2.667v-2.584c0-1.076-.962-1.92-1.738-2.666a2.64 2.64 0 0 1-.811-1.907c0-.749.311-1.425.811-1.906.776-.747 1.738-1.59 1.738-2.667v-2.583c0-1.077-.962-1.92-1.738-2.667a2.636 2.636 0 0 1-.811-1.906c0-.749.311-1.425.811-1.907.776-.746 1.738-1.59 1.738-2.667v-2.583c0-1.077-.962-1.921-1.738-2.667a2.64 2.64 0 0 1-.811-1.907c0-.749.311-1.425.811-1.906.776-.747 1.738-1.59 1.738-2.667v-2.584c0-1.077-.962-1.92-1.738-2.667a2.636 2.636 0 0 1-.811-1.906c0-.749.311-1.425.811-1.907.776-.746 1.738-1.59 1.738-2.666v-2.584c0-1.077-.962-1.921-1.738-2.667a2.64 2.64 0 0 1-.811-1.907c0-.749.311-1.425.811-1.906.776-.747 1.738-1.59 1.738-2.667v-2.583c0-1.077-.962-1.92-1.738-2.667a2.638 2.638 0 0 1-.811-1.906c0-.75.311-1.425.811-1.906.776-.747 1.738-1.59 1.738-2.667v-2.584c0-1.077-.962-1.92-1.738-2.667a2.638 2.638 0 0 1-.811-1.907c0-.749.311-1.425.811-1.906.776-.746 1.738-1.59 1.738-2.667v-2.584c0-1.077-.962-1.92-1.738-2.667a2.638 2.638 0 0 1-.811-1.906c0-.749.311-1.425.811-1.906.776-.747 1.738-1.59 1.738-2.667v-2.583c0-1.077-.962-1.92-1.738-2.667a2.638 2.638 0 0 1-.811-1.907c0-.748.311-1.425.811-1.906.776-.747 1.738-1.59 1.738-2.667v-2.584c0-1.077-.962-1.92-1.738-2.667a2.638 2.638 0 0 1-.811-1.906c0-.749.311-1.425.811-1.906.776-.747 1.738-1.59 1.738-2.667v-2.584c0-1.077-.962-1.92-1.738-2.667a2.638 2.638 0 0 1-.811-1.907c0-.748.311-1.425.811-1.906.776-.746 1.738-1.59 1.738-2.667v-2.583c0-1.077-.962-1.92-1.738-2.667a2.638 2.638 0 0 1-.811-1.906c0-.749.311-1.425.811-1.906.776-.747 1.738-1.59 1.738-2.667v-.84a2 2 0 0 0-2-2h-1.17c-1.104 0-1.963 1.01-2.72 1.814a2.64 2.64 0 0 1-1.925.83 2.637 2.637 0 0 1-1.924-.83c-.758-.803-1.616-1.815-2.721-1.815h-2.44c-1.105 0-1.963 1.011-2.721 1.815a2.637 2.637 0 0 1-1.924.83 2.637 2.637 0 0 1-1.924-.83c-.758-.803-1.616-1.815-2.721-1.815h-2.441c-1.104 0-1.962 1.011-2.72 1.815a2.64 2.64 0 0 1-1.925.83 2.637 2.637 0 0 1-1.924-.83c-.758-.803-1.616-1.815-2.72-1.815H130.6c-1.105 0-1.963 1.011-2.721 1.815a2.637 2.637 0 0 1-1.924.83 2.637 2.637 0 0 1-1.924-.83c-.758-.803-1.616-1.815-2.721-1.815h-2.441c-1.104 0-1.962 1.011-2.72 1.815a2.64 2.64 0 0 1-1.925.83 2.637 2.637 0 0 1-1.924-.83c-.758-.803-1.616-1.815-2.72-1.815h-2.441c-1.105 0-1.963 1.011-2.721 1.815a2.637 2.637 0 0 1-1.924.83 2.637 2.637 0 0 1-1.924-.83c-.758-.803-1.616-1.815-2.72-1.815h-2.442c-1.104 0-1.962 1.011-2.72 1.815a2.637 2.637 0 0 1-1.925.83 2.637 2.637 0 0 1-1.924-.83c-.758-.803-1.616-1.815-2.72-1.815h-2.441c-1.105 0-1.963 1.011-2.72 1.815a2.638 2.638 0 0 1-1.925.83 2.638 2.638 0 0 1-1.924-.83c-.758-.803-1.616-1.815-2.72-1.815h-2.441c-1.105 0-1.963 1.011-2.721 1.815a2.637 2.637 0 0 1-1.925.83 2.637 2.637 0 0 1-1.924-.83c-.758-.803-1.616-1.815-2.72-1.815h-2.441c-1.105 0-1.963 1.011-2.72 1.815a2.638 2.638 0 0 1-1.925.83 2.638 2.638 0 0 1-1.924-.83c-.758-.803-1.616-1.815-2.72-1.815h-2.441c-1.105 0-1.963 1.011-2.721 1.815a2.638 2.638 0 0 1-1.924.83 2.638 2.638 0 0 1-1.925-.83c-.758-.803-1.616-1.815-2.72-1.815h-2.44c-1.105 0-1.964 1.011-2.722 1.815a2.637 2.637 0 0 1-1.924.83 2.637 2.637 0 0 1-1.924-.83c-.758-.803-1.616-1.815-2.72-1.815h-2.442c-1.105 0-1.963 1.011-2.721 1.815a2.638 2.638 0 0 1-1.924.83 2.638 2.638 0 0 1-1.925-.83c-.758-.803-1.616-1.815-2.72-1.815h-1.176a2 2 0 0 0-2 2v.785c0 1.104 1.01 1.962 1.814 2.72.512.482.83 1.166.83 1.924Z"
    />
  </g>
  <path fill="var(--theme-3, #292929)" d="M20.934 21.7h139.648v184.377H20.934z" />
  <path
    fill="var(--theme-1, #E9E9E2)"
    d="M80.587 191.611h1.32v-1.855h-.011a1.08 1.08 0 0 1-.381.343 3.06 3.06 0 0 1-.633.247l-.177-.665c.295-.075.547-.177.751-.295.204-.118.37-.274.499-.472h.852v2.692h.981v.606h-3.206v-.606l.005.005Zm4.815.606a3.086 3.086 0 0 1-.691-.257 1.975 1.975 0 0 1-.504-.387l.44-.509c.107.14.235.257.39.359.156.097.339.172.537.22.198.048.413.075.644.075.24 0 .46-.037.643-.118a.994.994 0 0 0 .434-.343.934.934 0 0 0 .156-.541 1.452 1.452 0 0 1-.504.3c-.177.064-.408.091-.681.091a2.73 2.73 0 0 1-.906-.139 1.355 1.355 0 0 1-.596-.392.882.882 0 0 1-.203-.584c0-.22.08-.429.24-.606.162-.177.382-.317.66-.413.28-.097.601-.145.955-.145.397 0 .734.054 1.013.166.28.108.499.279.65.504.15.226.23.515.23.869 0 .424-.075.778-.23 1.067-.156.29-.387.509-.698.66-.306.15-.686.225-1.131.225-.311 0-.596-.032-.853-.097l.005-.005Zm1.534-1.711a.851.851 0 0 0 .348-.203.402.402 0 0 0 .124-.301.442.442 0 0 0-.124-.305.787.787 0 0 0-.353-.209 1.655 1.655 0 0 0-.515-.075c-.193 0-.349.026-.493.075a.764.764 0 0 0-.338.214.447.447 0 0 0-.118.306.42.42 0 0 0 .123.295c.08.085.198.155.343.203.145.049.317.075.499.075s.36-.026.504-.075Zm2.997 1.679c-.29-.081-.509-.193-.675-.343a.705.705 0 0 1-.242-.531c0-.145.038-.274.113-.392a.919.919 0 0 1 .311-.295c.134-.08.29-.134.461-.166a1.343 1.343 0 0 1-.354-.166.742.742 0 0 1-.23-.252.668.668 0 0 1-.08-.322c0-.187.069-.348.214-.482s.343-.236.595-.306a3.25 3.25 0 0 1 .869-.107c.327 0 .622.037.879.107s.456.177.595.311c.14.134.215.295.215.488a.64.64 0 0 1-.08.316.805.805 0 0 1-.22.252c-.092.07-.204.129-.333.167.166.032.316.091.44.166a.852.852 0 0 1 .295.289c.07.113.101.247.101.381a.72.72 0 0 1-.24.547c-.162.15-.387.268-.676.343-.29.081-.617.118-.987.118s-.697-.043-.981-.118l.01-.005Zm1.475-.483a.839.839 0 0 0 .338-.177.344.344 0 0 0 .118-.263.356.356 0 0 0-.118-.268.839.839 0 0 0-.338-.177 1.779 1.779 0 0 0-.493-.064c-.183 0-.344.022-.494.064a.804.804 0 0 0-.338.177.357.357 0 0 0-.123.258.37.37 0 0 0 .124.273c.08.081.193.134.337.177.145.043.306.065.494.065.187 0 .348-.022.493-.065Zm-.07-1.485a.684.684 0 0 0 .29-.161c.07-.07.102-.15.102-.247a.326.326 0 0 0-.108-.241.668.668 0 0 0-.29-.155 1.423 1.423 0 0 0-.417-.054c-.167 0-.306.016-.43.054a.668.668 0 0 0-.289.155.334.334 0 0 0-.107.241c0 .092.037.177.107.247s.166.123.29.161a1.7 1.7 0 0 0 .847 0h.005Zm3.244 2.005a3.083 3.083 0 0 1-.691-.257 1.95 1.95 0 0 1-.505-.386l.44-.51c.108.14.236.258.392.36.155.096.337.171.536.22.198.048.413.075.643.075.242 0 .461-.038.644-.118a.995.995 0 0 0 .434-.344.934.934 0 0 0 .156-.541 1.452 1.452 0 0 1-.505.3c-.176.065-.407.091-.68.091-.344 0-.65-.048-.907-.139a1.338 1.338 0 0 1-.595-.392.882.882 0 0 1-.204-.584c0-.22.08-.429.242-.606.16-.177.38-.316.66-.413.278-.096.6-.145.954-.145.397 0 .734.054 1.013.167.279.107.499.279.649.504.15.225.23.515.23.868 0 .424-.075.778-.23 1.067-.156.29-.386.51-.697.66-.306.15-.687.225-1.132.225-.31 0-.595-.032-.852-.096l.005-.006Zm1.534-1.71a.841.841 0 0 0 .348-.204.4.4 0 0 0 .124-.3.444.444 0 0 0-.124-.306.787.787 0 0 0-.353-.209 1.687 1.687 0 0 0-.515-.075c-.193 0-.349.027-.494.075a.764.764 0 0 0-.337.214.45.45 0 0 0-.118.306c0 .113.042.209.123.295a.82.82 0 0 0 .343.204c.145.048.317.075.499.075s.359-.027.504-.075Zm-29.55-141.66 1.313 2.499 1.309-2.5h1.217v3.299h-.858v-2.365h-.01l-1.229 2.365h-.836l-1.255-2.365h-.01v2.365h-.859v-3.298h1.218Zm4.68 0h.896v3.298h-.895v-3.298Zm2.762 3.18c-.354-.14-.627-.338-.815-.6a1.532 1.532 0 0 1-.29-.934c0-.36.092-.665.274-.922.182-.258.44-.461.767-.606.327-.145.713-.215 1.158-.215.327 0 .627.049.9.14.274.091.505.225.693.397.187.171.321.375.402.605l-.81.204a.894.894 0 0 0-.236-.359 1.066 1.066 0 0 0-.402-.236 1.5 1.5 0 0 0-.526-.086 1.65 1.65 0 0 0-.697.134 1.038 1.038 0 0 0-.46.376c-.108.16-.162.354-.162.573 0 .22.06.408.183.574.118.166.29.29.51.376.219.085.476.128.771.128.22 0 .424-.032.611-.09a1.21 1.21 0 0 0 .462-.264.898.898 0 0 0 .252-.396l.83.166c-.069.257-.203.477-.401.67-.199.188-.45.338-.757.434a3.18 3.18 0 0 1-1.008.15c-.477 0-.89-.07-1.244-.209l-.005-.01Zm4.107-3.18h.901v1.25h2.166v-1.25h.901v3.298h-.9v-1.405h-2.167v1.405h-.9v-3.298Zm4.8 0h3.361v.6h-2.493v.74h2.306v.537h-2.306v.81h2.536v.605h-3.41v-3.297l.005.005Zm4.096 0h.9v2.617h2.044v.68H87.01v-3.297Zm6.134 3.18a1.754 1.754 0 0 1-.772-.6 1.493 1.493 0 0 1-.273-.886c0-.348.096-.66.29-.927.192-.268.46-.483.809-.628.348-.15.74-.225 1.185-.225.322 0 .622.043.9.129.274.086.505.204.692.36.188.155.306.326.36.525l-.832.176a.642.642 0 0 0-.22-.284 1.08 1.08 0 0 0-.402-.193 1.661 1.661 0 0 0-.493-.07c-.268 0-.51.049-.713.145-.209.097-.37.23-.488.397a.976.976 0 0 0-.177.58c0 .22.065.407.193.573.129.166.306.295.531.391.225.097.488.14.783.14.247 0 .466-.038.67-.113.204-.075.37-.171.493-.295a.652.652 0 0 0 .199-.423h-2.123v-.51h2.992v1.872h-.719l-.054-.59c-.112.14-.252.263-.423.364a2.153 2.153 0 0 1-.58.236c-.214.054-.444.08-.686.08-.418 0-.793-.069-1.126-.214l-.016-.01Zm4.36-3.18h.895v3.298h-.895v-3.298Zm4.08 3.26a1.555 1.555 0 0 1-.643-.38 1.037 1.037 0 0 1-.295-.58l.874-.182a.625.625 0 0 0 .155.354.846.846 0 0 0 .338.23c.139.054.3.08.483.08.182 0 .332-.02.466-.069a.637.637 0 0 0 .306-.198.472.472 0 0 0 .107-.3.51.51 0 0 0-.102-.322.6.6 0 0 0-.289-.21 1.254 1.254 0 0 0-.445-.07c-.156 0-.295.022-.429.07a.79.79 0 0 0-.306.172l-.713-.118.102-1.737h2.616v.579h-1.871l-.043.713a1.24 1.24 0 0 1 .392-.155 1.97 1.97 0 0 1 .466-.054c.306 0 .574.048.799.14a1.2 1.2 0 0 1 .525.39c.124.167.188.37.188.601 0 .231-.075.45-.22.628a1.346 1.346 0 0 1-.622.407 2.81 2.81 0 0 1-.954.145c-.338 0-.638-.043-.901-.134h.016Zm6.311-3.153c.306.134.558.316.751.558l-.402.477a1.765 1.765 0 0 0-.354-.343 1.465 1.465 0 0 0-.44-.215 1.96 1.96 0 0 0-.552-.075c-.225 0-.413.043-.579.124a.861.861 0 0 0-.376.354c-.085.15-.134.327-.134.525.167-.14.333-.236.51-.3.177-.06.407-.091.691-.091.338 0 .639.048.901.134.263.085.456.22.595.391a.907.907 0 0 1-.037 1.19 1.553 1.553 0 0 1-.665.413 3.081 3.081 0 0 1-.987.145c-.37 0-.707-.053-.986-.16a1.33 1.33 0 0 1-.644-.51c-.15-.23-.225-.52-.225-.863 0-.413.07-.762.199-1.051.128-.29.332-.515.611-.67.279-.156.633-.237 1.056-.237.424 0 .762.065 1.067.199v.005Zm-1.56 1.603a.819.819 0 0 0-.349.204.408.408 0 0 0-.123.295c0 .113.043.22.129.311a.817.817 0 0 0 .354.215c.15.053.321.075.514.075.183 0 .349-.027.494-.08a.783.783 0 0 0 .337-.215.427.427 0 0 0 .118-.306.42.42 0 0 0-.123-.3.878.878 0 0 0-.343-.204 1.466 1.466 0 0 0-.504-.075c-.188 0-.354.021-.504.07v.01Zm3.893 1.55a1.565 1.565 0 0 1-.644-.38 1.044 1.044 0 0 1-.295-.58l.874-.182a.626.626 0 0 0 .156.354.839.839 0 0 0 .338.23c.139.054.3.08.482.08.183 0 .333-.02.467-.069a.629.629 0 0 0 .305-.198.517.517 0 0 0 .006-.622.602.602 0 0 0-.29-.21 1.246 1.246 0 0 0-.445-.07c-.155 0-.295.022-.429.07a.785.785 0 0 0-.305.172l-.714-.118.102-1.737h2.617v.579h-1.871l-.043.713c.107-.07.236-.118.391-.155.156-.038.311-.054.467-.054.305 0 .573.048.799.14a1.2 1.2 0 0 1 .525.39c.123.167.188.37.188.601 0 .231-.075.45-.22.628a1.346 1.346 0 0 1-.622.407 2.815 2.815 0 0 1-.955.145c-.337 0-.638-.043-.9-.134h.016Zm-39.245 55.02c-2.703-1.164-4.81-2.804-6.311-4.928-1.502-2.123-2.258-4.536-2.258-7.238 0-2.853.789-5.39 2.37-7.598 1.577-2.21 3.786-3.93 6.617-5.153 2.831-1.228 6.065-1.84 9.705-1.84 2.655 0 5.105.349 7.352 1.04 2.246.698 4.134 1.674 5.646 2.939 1.517 1.266 2.488 2.692 2.917 4.284l-6.82 1.443c-.306-.858-.907-1.63-1.802-2.311-.896-.681-1.99-1.212-3.276-1.593a14.09 14.09 0 0 0-4.017-.568c-2.198 0-4.15.391-5.855 1.174-1.705.783-3.04 1.866-4 3.239-.96 1.378-1.442 2.965-1.442 4.756 0 1.79.525 3.33 1.57 4.68 1.046 1.352 2.505 2.414 4.36 3.186 1.855.772 4 1.158 6.424 1.158 1.995 0 3.828-.305 5.496-.911 1.668-.606 3.008-1.416 4.016-2.424s1.555-2.172 1.63-3.485h-17.4V92.81h24.489v22.472h-5.384l-.944-11.973h-.037c-.912 1.137-2.064 2.129-3.47 2.976-1.404.847-2.986 1.49-4.755 1.935-1.77.44-3.641.665-5.61.665-3.436 0-6.509-.579-9.211-1.742v-.011Zm33.395-26h7.314v26.987h-7.314V81.131Zm33.513 0c1.973 0 3.678.305 5.115.911 1.442.606 2.552 1.48 3.335 2.617.783 1.136 1.174 2.45 1.174 3.94 0 .859-.171 1.674-.509 2.446a5.568 5.568 0 0 1-1.48 1.99 6.46 6.46 0 0 1-2.22 1.248v.113c1.518.354 2.729 1.1 3.641 2.236.912 1.137 1.362 2.477 1.362 4.016 0 1.539-.413 2.772-1.233 3.925-.821 1.153-1.979 2.027-3.47 2.633-1.49.606-3.249.912-5.27.912H116.24V81.131h21.652Zm-2.086 11.104c.858 0 1.624-.134 2.295-.397.67-.262 1.179-.648 1.533-1.158a2.964 2.964 0 0 0 .531-1.742c0-.987-.397-1.786-1.196-2.408-.793-.617-1.866-.928-3.201-.928h-12.166v6.633h12.204Zm.262 11.373c.96 0 1.807-.139 2.542-.418.735-.279 1.308-.703 1.727-1.271a3.15 3.15 0 0 0 .627-1.914c0-1.089-.456-1.957-1.362-2.617-.912-.66-2.086-.986-3.523-.986h-12.472v7.201h12.472l-.011.005Zm-80.162 35.063c-.81-.354-1.48-.826-2.01-1.421a19.915 19.915 0 0 1-1.556-1.99l-2.048-4.016c-.483-.81-1.1-1.442-1.855-1.893a4.7 4.7 0 0 0-2.462-.681h-4.954v9.781h-7.39v-26.987H51.36c2.273 0 4.209.332 5.802 1.002 1.592.67 2.825 1.625 3.694 2.864.874 1.238 1.308 2.718 1.308 4.434 0 1.34-.321 2.542-.965 3.603-.643 1.062-1.55 1.941-2.708 2.633-1.163.697-2.552 1.142-4.171 1.346v.037c.504.279.98.628 1.42 1.041.44.418.816.917 1.121 1.496l2.011 3.641c.279.402.568.718.874.949.306.225.67.343 1.1.343.353 0 .74-.129 1.157-.381.419-.252.751-.568 1.003-.949l1.705 3.223c-.68.756-1.57 1.356-2.67 1.801-1.1.44-2.204.665-3.32.665-1.114 0-1.994-.177-2.803-.531l-.011-.01Zm-6.445-14.633c1.11 0 2.064-.151 2.863-.456.794-.306 1.405-.746 1.818-1.325.418-.579.627-1.287.627-2.123 0-.783-.209-1.464-.627-2.048-.419-.579-1.024-1.041-1.818-1.384-.794-.343-1.737-.509-2.826-.509h-8.52v7.845h8.483Zm30.322-12.585h8.531l13.571 26.987h-7.657l-2.616-5.346H76.26l-2.617 5.346H65.95l13.834-26.987Zm10.043 17.019-5.84-12.091h-.074l-5.84 12.091h11.754Zm22.172-17.019v21.416h16.714v5.571h-24.071v-26.987h7.357Zm-59.674 35.743h-11.41v-5.421h30.172v5.421H59.713v21.566h-7.389v-21.566Zm27.63-5.421h8.532l13.571 26.987H94.4l-2.617-5.346H76.432l-2.617 5.346h-7.694l13.834-26.987Zm10.044 17.019-5.84-12.091h-.075l-5.839 12.091h11.754Zm40.328 10.199c-.81-.354-1.48-.826-2.011-1.421a19.884 19.884 0 0 1-1.555-1.989l-2.048-4.017c-.483-.809-1.1-1.442-1.856-1.892a4.688 4.688 0 0 0-2.461-.681h-8.719v9.78h-7.388v-26.987h21.491c2.273 0 4.209.338 5.801 1.003 1.593.67 2.826 1.624 3.695 2.863.874 1.239 1.308 2.718 1.308 4.434 0 1.341-.322 2.542-.965 3.604-.643 1.061-1.55 1.941-2.708 2.632-1.163.697-2.552 1.143-4.171 1.346v.038c.504.279.981.627 1.42 1.04.44.418.815.917 1.121 1.496l2.011 3.641c.279.402.568.718.874.949.306.225.67.343 1.099.343.354 0 .74-.129 1.158-.381a3.087 3.087 0 0 0 1.003-.949l1.705 3.223c-.681.756-1.571 1.357-2.67 1.802-1.099.439-2.204.664-3.319.664-1.116 0-1.995-.176-2.805-.53l-.01-.011Zm-6.446-14.633c1.11 0 2.065-.15 2.864-.456.793-.306 1.405-.745 1.818-1.324.418-.579.627-1.287.627-2.124 0-.783-.209-1.464-.627-2.048-.419-.579-1.025-1.04-1.818-1.383-.794-.344-1.737-.51-2.826-.51h-12.279v7.845h12.241Z"
  />
  <path
    fill="var(--theme-1, #E9E9E2)"
    d="m53.048 119.047-.311.086-1.767.526c-1.56.466-3.121.93-4.679 1.409l-.005.002-.002.001c-1.285.39-2.569.781-3.859 1.188v.316h1.094c.965-.257 1.93-.515 2.896-.783 1.347-.357 2.692-.732 4.036-1.106.812-.226 1.624-.452 2.436-.674l.423-.123a1.922 1.922 0 0 0-.262-.853v.011ZM48.238 130.977l-.373.218-.001.001-.001.001-.002.001c-.597.349-1.19.696-1.784 1.05a483.982 483.982 0 0 0-3.614 2.145v.66a564.662 564.662 0 0 0 3.84-2.124c.825-.456 1.65-.911 2.471-1.373a4.062 4.062 0 0 0-.536-.584v.005ZM33.46 139.878l-.241.151c.09-.049.182-.097.279-.151h-.038ZM33.45 147.224c2.01-1.34 4.02-2.691 6.026-4.059v-.498a769.412 769.412 0 0 0-6.027 4.557ZM50.399 134.624l-.585.424c-1.195.867-2.392 1.735-3.582 2.616a934.19 934.19 0 0 0-3.608 2.659h.992c.96-.664 1.925-1.335 2.89-2.005a588.637 588.637 0 0 0 3.534-2.47l.729-.511-.365-.713H50.4ZM50.753 148.64c-1.529 1.748-3.051 3.507-4.574 5.265l-6.386 7.416c-.77.91-1.54 1.816-2.312 2.722l-.001.001c-1.347 1.583-2.694 3.166-4.03 4.768a586.94 586.94 0 0 0 4.405-4.774l.001-.002.003-.002v-.002c.722-.787 1.442-1.573 2.164-2.357l6.526-7.217a997.577 997.577 0 0 0 3.483-3.873l.003-.003.003-.003.843-.942v-.997h-.128ZM46.168 159.407l-6.386 8.327c-.776 1.031-1.555 2.059-2.334 3.087a698.19 698.19 0 0 0-3.999 5.31 586.343 586.343 0 0 0 4.414-5.396c.723-.89 1.447-1.781 2.17-2.668l6.532-8.135c1.442-1.801 2.885-3.608 4.316-5.421v-1.206a1302.956 1302.956 0 0 0-4.713 6.097v.005ZM39.98 148.64l-.171.155c-.77.694-1.54 1.383-2.312 2.073l-.001.001a450.71 450.71 0 0 0-4.047 3.648c1.401-1.117 2.79-2.254 4.181-3.391.792-.648 1.583-1.295 2.377-1.939l.66-.542h-.681l-.006-.005ZM52.817 138.211c-.134-.15-.268-.306-.402-.467l-1.488 1.29-.008.007-1.48 1.282h1.185c.777-.654 1.555-1.313 2.332-1.973l-.023-.023-.021-.023-.025-.026-.033-.035-.015-.015-.022-.023v.006ZM46.179 148.64l-6.381 6.531c-.736.768-1.475 1.533-2.213 2.298v.001a486.214 486.214 0 0 0-4.141 4.323c1.357-1.268 2.701-2.556 4.046-3.844l.002-.001a678.89 678.89 0 0 1 2.52-2.407l6.52-6.333.292-.286.002-.001c.097-.095.195-.19.291-.286h-.938v.005ZM55.327 139.991a6.565 6.565 0 0 1-.403-.188c-.117.114-.231.23-.345.345l-.004.003-.17.172h1.168l.172-.171a3.582 3.582 0 0 1-.418-.166v.005ZM61.193 140.329h.868c.091-.124.188-.247.29-.365-.386.145-.772.268-1.158.365ZM48.919 100.199a756.712 756.712 0 0 0-15.443-3.045 721.577 721.577 0 0 0 15.298 3.71c1.323.313 2.648.615 3.974.917l.002.001.004.001h.002l2.038.466.248.057v-.002l4.409.967-.001.006 5.122 1.092a6.835 6.835 0 0 0-.254-.293c-.168-.188-.322-.36-.548-.718l-4.192-.911v-.001h-.005l.005.001-.001.008-4.948-1.053v.001a716.37 716.37 0 0 0-5.705-1.198l-.005-.006ZM55.058 105.872l-1.559-.157a799.24 799.24 0 0 0-4.516-.449 741.565 741.565 0 0 0-15.373-1.351 738.48 738.48 0 0 0 15.298 2.027c1.789.227 3.573.435 5.36.643l.64.074v.002l7.813.865-.006.008 1.56.177 5.964.658-2.075-1.099-3.792-.422-1.017-.111v-.002l-8.297-.863ZM54.315 97.708l1.935.65-.002.007 4.246 1.384.002-.004 1.455.432a8.319 8.319 0 0 1-.323-.968l-.773-.232.004-.009-4.358-1.388-.001.003c-.907-.289-1.814-.58-2.721-.873l-.006-.002c-1.638-.526-3.276-1.053-4.913-1.565a783.206 783.206 0 0 0-15.507-4.746 784.04 784.04 0 0 0 15.292 5.39c1.881.65 3.768 1.283 5.655 1.916l.003.001h.001l.005.003.006.001ZM54.578 92.56l-.008-.004c-1.923-.826-3.849-1.653-5.78-2.464a841.062 841.062 0 0 0-15.571-6.45 819.979 819.979 0 0 0 15.298 7.066c2.051.934 4.11 1.85 6.166 2.765l.006.002 1.517.676 4.841 2.008-.003-.023c-.03-.2-.051-.345-.051-.857L56.538 93.4l-1.96-.84ZM56.737 89.33c-.765-.41-1.53-.822-2.295-1.234h-.001l-.003-.002c-1.803-.97-3.608-1.942-5.417-2.898a887.675 887.675 0 0 0-15.529-8.091 925.738 925.738 0 0 0 15.202 8.686 958.536 958.536 0 0 0 6.002 3.344l1.65.914 4.798 2.633a9.81 9.81 0 0 1 .156-.885l-4.558-2.472-.005.005ZM49.042 80.247l-7.748-4.922c-.955-.593-1.907-1.188-2.86-1.783v-.001c-1.643-1.026-3.284-2.053-4.936-3.064 1.687 1.183 3.386 2.344 5.085 3.504.827.565 1.655 1.13 2.48 1.698l7.614 5.126c4.408 2.96 8.837 5.882 13.272 8.788.102-.268.22-.53.343-.799a1360.4 1360.4 0 0 0-13.25-8.547ZM49.064 75.303l-7.76-5.753c-.83-.604-1.658-1.21-2.487-1.817-1.769-1.294-3.538-2.588-5.32-3.862 1.7 1.378 3.416 2.737 5.133 4.096a1133 1133 0 0 1 2.423 1.92l7.608 5.947c4.837 3.775 9.711 7.507 14.59 11.234.119-.183.242-.365.37-.542.022-.027.042-.055.062-.083.02-.028.04-.056.062-.083-4.874-3.705-9.76-7.4-14.676-11.051l-.005-.006ZM64.512 83.749C59.38 79.325 54.254 74.906 49.08 70.53l-7.76-6.558a1258.4 1258.4 0 0 1-2.495-2.076c-1.77-1.475-3.54-2.95-5.327-4.407 1.592 1.463 3.202 2.907 4.812 4.353.911.817 1.823 1.636 2.732 2.457l7.603 6.735c5.067 4.488 10.183 8.933 15.298 13.368l.815.702c.193-.209.392-.418.6-.622a147.661 147.661 0 0 1-.846-.74v.006ZM64.528 80.44l-.024-.023c-5.118-4.968-10.242-9.942-15.408-14.857l-7.764-7.389c-.94-.878-1.877-1.76-2.814-2.64-1.667-1.568-3.333-3.136-5.015-4.684a674.567 674.567 0 0 0 4.705 4.773c.944.95 1.888 1.902 2.829 2.857l7.598 7.566c4.56 4.536 9.159 9.033 13.758 13.53l1.534 1.5c.842.815 1.684 1.63 2.526 2.45.225-.187.45-.364.686-.53l-1.3-1.271-1.3-1.271-.011-.01ZM64.544 77.218l-.792-.852C58.885 71.132 54.02 65.9 49.106 60.713l-7.77-8.204c-.943-.978-1.883-1.96-2.822-2.94-1.667-1.74-3.333-3.478-5.016-5.2 1.587 1.804 3.193 3.594 4.799 5.385.91 1.016 1.821 2.032 2.729 3.05l7.592 8.365c4.83 5.325 9.708 10.602 14.588 15.881l.002.002.703.76c1.394 1.507 2.794 3.009 4.193 4.51.242-.155.483-.306.735-.445-1.063-1.158-2.13-2.313-3.198-3.468a5510.2 5510.2 0 0 1-1.097-1.186v-.005ZM64.56 73.174c-5.126-6.193-10.258-12.391-15.437-18.541l-7.775-9.223c-.913-1.066-1.822-2.134-2.731-3.201a837.387 837.387 0 0 0-5.114-5.968c1.59 2.026 3.2 4.036 4.809 6.046.904 1.13 1.808 2.259 2.709 3.39l7.587 9.385c4.774 5.896 9.596 11.755 14.415 17.611l.872 1.06c2.064 2.492 4.134 4.991 6.204 7.485.246-.124.488-.236.74-.344.008-.002.016-.006.024-.01a.195.195 0 0 1 .024-.011c-2.107-2.563-4.215-5.12-6.327-7.678ZM67.525 73.196c-4.633-6.199-9.27-12.392-13.963-18.553l-7.035-9.233c-.833-1.076-1.663-2.155-2.494-3.233l-.001-.002h-.001a906.401 906.401 0 0 0-4.608-5.95c1.454 2.054 2.928 4.094 4.403 6.134A1450.09 1450.09 0 0 1 46.2 45.65l6.848 9.378c4.568 6.247 9.185 12.456 13.807 18.666 1.683 2.252 3.367 4.504 5.056 6.75.263-.096.531-.187.8-.273a5920.341 5920.341 0 0 0-5.186-6.976ZM70.49 73.217c-4.14-6.198-8.284-12.397-12.477-18.563l-6.295-9.244c-.586-.848-1.17-1.698-1.755-2.547-1.53-2.22-3.058-4.442-4.61-6.65a775.705 775.705 0 0 0 3.876 6.06l.001.003c.72 1.117 1.439 2.234 2.155 3.354l6.108 9.367c3.825 5.872 7.702 11.71 11.578 17.546l.744 1.12c.82 1.228 1.641 2.456 2.464 3.685l1.648 2.465c.263-.075.531-.14.8-.199-1.41-2.128-2.827-4.263-4.242-6.391l.005-.006ZM73.456 73.239a2483.979 2483.979 0 0 0-10.998-18.574l-5.555-9.255c-.642-1.05-1.28-2.102-1.92-3.154-1.23-2.024-2.46-4.047-3.705-6.058 1.185 2.136 2.39 4.265 3.594 6.393.567 1.002 1.134 2.004 1.698 3.006l5.368 9.363c3.224 5.626 6.496 11.227 9.77 16.83l1.072 1.835.763 1.296c.865 1.47 1.729 2.938 2.599 4.41.263-.05.53-.087.804-.124a3414.31 3414.31 0 0 0-3.485-5.968h-.005ZM62.088 45.415c-.56-1.056-1.115-2.112-1.671-3.169-1.065-2.022-2.129-4.044-3.214-6.059.953 2.001 1.923 3.991 2.894 5.983.553 1.136 1.108 2.272 1.659 3.411l2.246 4.542v-1.019l-1.914-3.683v-.006ZM76.42 73.255a2522.038 2522.038 0 0 0-9.517-18.58l-.6-1.158h-.617l.697 1.41c2.963 5.994 5.976 11.962 8.99 17.935l.367.725c.922 1.813 1.844 3.625 2.772 5.438.263-.027.525-.043.793-.06l-.723-1.436-.001-.002c-.719-1.426-1.438-2.853-2.16-4.277v.005ZM67.278 45.415c-.446-.994-.89-1.99-1.334-2.984v-.001a748.523 748.523 0 0 0-2.816-6.259c.761 1.911 1.54 3.815 2.32 5.717v.002c.5 1.22.999 2.439 1.493 3.66l1.083 2.605.246-.477-.997-2.263h.005ZM79.391 73.276a2368.475 2368.475 0 0 0-8.037-18.59l-.51-1.163h-.59l.574 1.378c2.186 5.263 4.414 10.507 6.642 15.751l.002.005.002.005 1.231 2.899c.767 1.79 1.534 3.576 2.306 5.362h.107c.225 0 .45 0 .67.01-.47-1.109-.94-2.216-1.411-3.322l-.005-.011c-.33-.773-.658-1.546-.986-2.318l.005-.006ZM72.469 45.415c-.369-1.001-.735-2.004-1.101-3.006-.764-2.087-1.527-4.175-2.31-6.254.653 2.032 1.323 4.06 1.993 6.09l.001.003c.36 1.09.721 2.182 1.08 3.274l.659 1.952h.418l-.74-2.059ZM82.356 73.298c-2.166-6.21-4.332-12.413-6.557-18.601l-.392-1.083h-.134c-.15 0-.29-.006-.429-.016l.43 1.27c2.101 6.231 4.246 12.44 6.396 18.65.638 1.834 1.282 3.673 1.925 5.507.258.02.51.042.767.075-.53-1.541-1.062-3.079-1.595-4.618l-.41-1.184ZM77.654 45.415c-.311-1.083-.62-2.166-.928-3.248-.572-2.01-1.144-4.02-1.737-6.028.514 2.125 1.048 4.246 1.582 6.365v.003l.001.003v.001l.75 2.985.509 1.978h.402l-.574-2.059h-.005ZM85.322 73.32a2157.685 2157.685 0 0 0-5.078-18.607l-.333-1.185h-.536l.338 1.32c1.565 6.075 3.18 12.135 4.797 18.2l.12.448.794 2.944.793 2.944.237.044c.173.032.345.064.514.1-.453-1.711-.909-3.42-1.365-5.13l-.287-1.073.006-.006ZM82.14 42.014l-.001-.002a633.834 633.834 0 0 0-1.225-5.89c.349 2.158.72 4.31 1.091 6.462v.001c.166.961.333 1.923.496 2.884l.36 2.005h.391l-.407-2.059h-.006c-.235-1.129-.466-2.258-.697-3.388v-.001l-.002-.011v-.001ZM88.287 73.34l-.001-.005c-1.18-6.207-2.359-12.415-3.592-18.617l-.24-1.195h-.521l.23 1.281c1.11 6.225 2.269 12.435 3.432 18.65l.57 2.99.002.011v.002c.225 1.186.45 2.37.678 3.554a.296.296 0 0 0 .046.018l.013.004c.23.07.45.139.67.22-.301-1.64-.608-3.28-.914-4.918-.125-.665-.25-1.33-.373-1.994ZM91.59 91.266l-.429.091h.445l-.016-.09ZM72.482 90.814a7.908 7.908 0 0 0-.383.607c.793.682 1.587 1.363 2.386 2.038v-1.03c-.42-.37-.84-.738-1.263-1.107l-.015-.013-.663-.58a.954.954 0 0 0-.062.085ZM71.66 92.403a7.097 7.097 0 0 0-.242.852c1.016.77 2.037 1.535 3.058 2.3l.006.004.003.002v-.976c-.472-.362-.942-.725-1.413-1.088-.47-.364-.941-.727-1.413-1.089v-.005ZM71.135 94.725c-.016.3-.086.552-.124.68a.823.823 0 0 0-.043.167c.227.147 1.073.665 1.886 1.162.726.444 1.426.872 1.631 1.004v-.933c-.196-.131-.994-.622-1.768-1.098-.71-.438-1.4-.862-1.582-.982ZM73.729 89.443a6.243 6.243 0 0 0-.58.552c.473.456.945.912 1.422 1.362h1.104l-.76-.751-.016-.015c-.388-.384-.775-.768-1.165-1.148h-.005ZM74.994 88.547c-.23.14-.455.28-.665.43.74.798 1.486 1.587 2.237 2.38h.997A638.175 638.175 0 0 0 75 88.547h-.006ZM76.57 87.808a7.92 7.92 0 0 0-.696.29c-.006 0-.01.002-.014.004-.004.003-.008.006-.013.006.906 1.083 1.818 2.166 2.73 3.25h.879c-.96-1.186-1.92-2.37-2.885-3.55ZM78.04 87.379c-.263.059-.515.123-.767.198a642.145 642.145 0 0 0 2.874 3.786h.815c-.97-1.33-1.946-2.66-2.922-3.984ZM79.692 87.122l.79 1.204c.664 1.012 1.327 2.023 1.987 3.037h-.75c-.944-1.379-1.877-2.762-2.81-4.145.26-.043.517-.075.783-.096ZM81.515 87.068l-.017-.001c-.128-.005-.251-.01-.375-.01-.14 0-.273 0-.407.005a702.59 702.59 0 0 0 2.568 4.3h.708a813.102 813.102 0 0 0-2.472-4.294h-.005ZM83.477 87.271a13.448 13.448 0 0 0-.81-.123c.724 1.405 1.454 2.81 2.183 4.215h.665a973.043 973.043 0 0 0-2.032-4.092h-.006ZM85.563 87.845c-.263-.096-.53-.188-.815-.273l.481 1.104c.39.897.78 1.793 1.176 2.687h.622a990.44 990.44 0 0 0-1.47-3.518h.006ZM87.794 89.121c-.075-.07-.161-.134-.247-.198a7.136 7.136 0 0 0-.611-.413c.337.954.675 1.903 1.018 2.858h.596l-.378-1.12-.378-1.121v-.006ZM93.091 90.95h-.005.005ZM93.086 90.95c.016.135.032.268.043.407h-.542l-.005-.052-.02-.172-.007-.07.531-.112ZM141.167 79.984l.051.01c.118.024.239.048.352.076a626.124 626.124 0 0 0 4.295-2.96 869.054 869.054 0 0 0-4.703 2.874h.005ZM129.896 87.052c-.479.305-.959.613-1.44.921h-.001l-.003.002c-.706.453-1.414.906-2.121 1.355l-1.26.815v.639h.466l1.126-.735c.756-.502 1.514-1.002 2.271-1.502l2.271-1.5h-1.303l-.006.005ZM113.413 97.722c-.08.054-.166.113-.246.16v.928l.579-.37 1.072-.697V96.8l-1.405.922ZM101.869 105.411v.547l.301-.188c.26-.163.523-.327.782-.493v-.595c-.364.241-.724.482-1.083.729ZM139.285 58.172l-6.531 7.388a1844.872 1844.872 0 0 0-12.311 14.119h1.04c3.904-4.531 7.797-9.062 11.668-13.641l6.386-7.566c.826-.999 1.656-1.993 2.485-2.987a623.246 623.246 0 0 0 3.848-4.643 621.077 621.077 0 0 0-4.407 4.892l-.002.003-.003.003c-.723.81-1.447 1.62-2.173 2.426v.006ZM113.167 88.14v1.137l.008-.01.002-.002c.549-.629 1.098-1.258 1.641-1.886v-1.164a293.24 293.24 0 0 0-1.651 1.925ZM101.874 101.454v.659l1.084-1.227v-.714l-1.084 1.282ZM139.296 63.979l-6.526 6.557c-3.013 3.03-6.01 6.08-8.997 9.148h1.083c2.772-2.869 5.534-5.743 8.284-8.638l6.392-6.735c.79-.85 1.582-1.696 2.375-2.541l.002-.003.003-.004h.002v-.002h.001c1.325-1.415 2.65-2.829 3.96-4.26a539.985 539.985 0 0 0-4.386 4.314l-.003.003c-.729.723-1.459 1.446-2.19 2.166v-.005ZM113.167 91.684l.011-.01c.548-.56 1.097-1.12 1.64-1.679v-1.099c-.552.568-1.104 1.142-1.651 1.71v1.078ZM101.874 103.084l1.084-1.094v-.675l-1.084 1.142v.627ZM139.301 69.55l-6.52 5.753a944.578 944.578 0 0 0-4.922 4.376h1.094a898.775 898.775 0 0 0 4.171-3.845l6.392-5.946c.706-.669 1.414-1.335 2.121-2.001a470.714 470.714 0 0 0 4.233-4.016 501.78 501.78 0 0 0-4.487 3.872c-.694.603-1.387 1.206-2.082 1.807ZM113.167 92.982V94l.003-.003c.551-.493 1.102-.985 1.648-1.477v-1.046l-.57.519-.001.001c-.361.329-.722.657-1.08.987ZM101.874 103.427v.59l1.084-.954v-.644l-1.084 1.008ZM139.312 75.325l-5.759 4.354h.96l4.998-3.995c.699-.572 1.4-1.141 2.101-1.71a417.217 417.217 0 0 0 4.258-3.491c-1.411 1.02-2.807 2.06-4.204 3.1-.784.583-1.567 1.167-2.354 1.747v-.005ZM125.071 87.046v.113l.066-.053.073-.06h-.139ZM113.167 95.432v.965c.497-.376.993-.76 1.486-1.142l.165-.128v-.992c-.552.429-1.104.863-1.651 1.297ZM101.874 104.419v.558l1.084-.821v-.606l-1.084.869ZM138.985 98.73c-2.027.477-4.054.965-6.075 1.469-1.565.381-3.126.775-4.687 1.17l-1.785.45-1.314.337h3.18l1.35-.365c1.127-.305 2.253-.609 3.379-.927a520.861 520.861 0 0 0 6.268-1.764 1.76 1.76 0 0 0-.311-.37h-.005ZM113.515 105.197l-.075.02c-.091.025-.18.05-.268.071v.831c.083-.022.165-.042.247-.062l.247-.061 1.158-.301v-.847l-1.309.349ZM101.88 108.414v.488c.359-.081.724-.166 1.083-.258v-.536c-.254.067-.505.14-.755.212h-.001l-.327.094ZM138.111 87.668a1.236 1.236 0 0 0-.113-.075 735.143 735.143 0 0 0-4.976 2.493c-.466.231-.922.462-1.383.698h1.469c.049-.027.097-.054.145-.076a471.253 471.253 0 0 0 5.137-2.782 2.084 2.084 0 0 0-.274-.258h-.005ZM113.537 100.151l-.082.044-.098.052-.179.097v.885c.13-.071.263-.137.395-.203l.002-.001.153-.076.082-.042 1.019-.525v-.901l-1.292.675v-.005ZM101.88 106.408v.521c.359-.177.724-.36 1.083-.542v-.568c-.364.193-.723.391-1.082.589h-.001ZM125.853 97.845l-.777.3v.875l1.609-.638c.261-.103.52-.207.778-.312l.009-.003.553-.222h-2.172ZM113.526 102.671c-.118.048-.236.097-.354.14v.852c.188-.075.376-.145.563-.214l1.089-.424v-.874l-1.298.515v.005ZM101.88 107.411v.499c.359-.134.724-.268 1.083-.397v-.552c-.365.145-.724.295-1.083.45ZM134.358 45.206l-5.748 9.276c-3.834 6.183-7.609 12.403-11.379 18.623a7496.211 7496.211 0 0 0-4.053 6.718v1.55l2.38-3.914 2.381-3.915.001-.001c3.758-6.23 7.517-12.46 11.216-18.723l5.556-9.4c.644-1.113 1.292-2.224 1.94-3.336l.001-.002c1.183-2.03 2.366-4.06 3.533-6.104-1.312 2.045-2.6 4.099-3.888 6.153a1364.73 1364.73 0 0 1-1.935 3.08l-.005-.005ZM101.88 98.81v.89l1.083-1.753v-.97l-1.083 1.834ZM129.173 45.233l-5.009 9.282A2205.83 2205.83 0 0 0 112.975 75.6l-.004.008c-.712 1.356-1.424 2.713-2.131 4.07h.879l.766-1.447c.829-1.568 1.661-3.139 2.489-4.713a2397.203 2397.203 0 0 0 9.737-18.714l4.81-9.389c.555-1.106 1.114-2.212 1.672-3.317l.001-.002.001-.002.002-.002v-.002c1.026-2.03 2.053-4.061 3.059-6.101-1.125 2.01-2.231 4.032-3.337 6.054-.582 1.062-1.163 2.124-1.746 3.184v.006ZM101.88 97.014v1.04l1.083-2.01V94.89l-1.083 2.123ZM123.987 45.254l-4.268 9.287c-2.84 6.184-5.626 12.4-8.413 18.616l-.005.012c-.965 2.166-1.931 4.338-2.89 6.504h.82c.928-2.053 1.855-4.118 2.778-6.177 2.772-6.23 5.539-12.45 8.252-18.703l4.07-9.378c.376-.885.755-1.77 1.133-2.654l.003-.007.004-.01c.959-2.243 1.918-4.486 2.854-6.74a599.52 599.52 0 0 0-2.901 6.165c-.48 1.029-.959 2.058-1.442 3.085h.005ZM101.88 94.558v1.282l1.083-2.36v-1.42l-1.083 2.498ZM118.802 45.281l-3.523 9.293c-2.277 6.006-4.505 12.038-6.731 18.067l-.207.56a3391.76 3391.76 0 0 0-2.359 6.472h.777c.604-1.625 1.204-3.254 1.804-4.88l.486-1.318a2268.278 2268.278 0 0 0 6.777-18.692l3.33-9.368c.376-1.085.754-2.17 1.133-3.255l.001-.001.001-.005.001-.002.001-.002v-.002l.001-.001c.712-2.041 1.425-4.083 2.117-6.131a692.176 692.176 0 0 0-2.407 6.175c-.398 1.03-.796 2.06-1.196 3.09h-.006ZM101.762 91.347h.118v1.356l.23-.6.429-1.137.429-1.137v-1.84c-.293.807-.581 1.61-.869 2.415l-.001.003-.336.94ZM113.617 45.308l-.649 2.16h.429l.569-2.053c.314-1.176.631-2.352.949-3.526.527-1.952 1.054-3.903 1.566-5.857-.597 1.884-1.175 3.775-1.754 5.667a976.483 976.483 0 0 1-1.11 3.609ZM111.135 53.608l-.301.998c-1.809 6.044-3.567 12.108-5.323 18.167l-.135.466-.804 2.814-.003.01c-.345 1.204-.689 2.41-1.032 3.616h.74c.469-1.61.936-3.218 1.402-4.825l.405-1.395c1.785-6.22 3.56-12.446 5.292-18.682l.332-1.19a4.383 4.383 0 0 1-.536.027h-.032l-.005-.006ZM100.244 91.347h.601c.713-2.387 1.421-4.783 2.118-7.175V81.68c-.917 3.217-1.829 6.44-2.719 9.668ZM139.291 52.504l-6.537 8.204c-4.081 5.127-8.125 10.296-12.171 15.468l-.001.002-.001.001-.808 1.033c-.633.82-1.271 1.64-1.909 2.461h.987a545.375 545.375 0 0 0 1.463-1.871c4.301-5.534 8.596-11.062 12.853-16.644l6.386-8.365c.714-.951 1.43-1.901 2.146-2.851 1.397-1.855 2.795-3.71 4.182-5.583-1.441 1.75-2.865 3.52-4.29 5.288v.001l-.004.005c-.765.95-1.529 1.899-2.296 2.846v.005ZM113.178 85.727v1.19c.552-.697 1.104-1.4 1.651-2.102v-1.222c-.552.708-1.105 1.42-1.651 2.134ZM139.543 45.18l-6.488 9.27c-4.322 6.177-8.596 12.403-12.864 18.623l-1.504 2.206-.003.004a2286.463 2286.463 0 0 0-2.997 4.401h1.013c.882-1.28 1.762-2.56 2.643-3.842l.001-.002 1.566-2.28c4.252-6.23 8.504-12.461 12.697-18.729l6.29-9.41c.724-1.104 1.451-2.205 2.179-3.307h.001c1.351-2.046 2.703-4.092 4.034-6.152a670.85 670.85 0 0 0-4.187 5.866c-.792 1.117-1.585 2.236-2.381 3.351ZM113.178 83.368v1.415l.481-.695c.391-.565.782-1.13 1.17-1.696v-1.459c-.552.81-1.105 1.62-1.651 2.435ZM101.885 100.183v.981l1.083-1.362v-1.244l-1.083 1.625ZM108.443 45.335l-.483 2.182c.134.032.258.07.381.123l.44-2.22c.207-1.096.417-2.193.628-3.29l.001-.002.001-.005v-.001c.388-2.022.776-4.044 1.145-6.069a754.215 754.215 0 0 0-1.34 5.857v.002l-.001.001v.003c-.258 1.142-.517 2.283-.777 3.424l.005-.005ZM106.62 53.614l-.225 1.03a2019.928 2019.928 0 0 0-3.974 18.638l-.328 1.586a2080.788 2080.788 0 0 0-3.36 16.49h.573a1993.943 1993.943 0 0 0 3.436-16.081l.387-1.834.419-2.028c1.148-5.547 2.294-11.089 3.393-16.643l.231-1.158c-.102.01-.204.01-.311.01-.075 0-.155 0-.23-.005l-.011-.005ZM79.783 101.979c-.977-.55-2.357-1.337-3.798-2.159a720.895 720.895 0 0 0-5.317-3.015c-.048.198-.102.413-.16.633.056.068.737.508 1.383.926.575.372 1.123.726 1.178.784 1.71.923 3.421 1.839 5.137 2.756.654.161 1.34.274 2.06.349l-.483-.274ZM79.804 100.339a327.116 327.116 0 0 0-2.874-1.92h-1.367c1.292.831 2.579 1.657 3.877 2.477l2.273 1.448.241.003.088.001.08.001h.084c.193 0 .381 0 .569-.01l-2.97-2ZM79.648 98.56l-.124-.097-.063-.05h-1.126l1.055.79.028.02 4.129 3.067c.257-.021.515-.048.767-.08l-4.5-3.512h.012l-.178-.139ZM81.306 98.414h-.955l4.413 3.726c.21-.032.418-.069.622-.112l-4.08-3.614ZM82.818 98.414h-.831l3.726 3.544c.183-.043.36-.086.531-.134l-3.426-3.41ZM84.003 98.414h-.735l3.18 3.351c.16-.048.316-.097.466-.145l-2.911-3.206ZM87.472 101.218l-2.274-2.804h-.643l2.595 3.077.032.038a.03.03 0 0 0 .014-.003l.003-.001.003-.002a.02.02 0 0 1 .013-.005c.128-.048.257-.096.38-.144-.037-.049-.08-.102-.118-.151l-.005-.005ZM86.147 98.414h-.6l2.204 2.89c.096-.039.19-.08.281-.12l.105-.046-1.99-2.724ZM87.107 98.414h-.557l1.79 2.632c.083-.039.165-.081.245-.121l.002-.001.118-.06-1.598-2.445v-.005ZM88.067 98.414h-.52l1.394 2.321c.072-.039.143-.081.213-.122l.065-.038.065-.038-1.212-2.118-.005-.005ZM89.022 98.414h-.488l1.013 1.941c.113-.07.225-.145.327-.225l-.852-1.716ZM89.987 98.414h-.003l-.003-.006.006.006ZM89.984 98.414h-.464l.654 1.485c.113-.091.215-.182.311-.273l-.501-1.212ZM90.952 98.414h-.44l.317.884c.107-.118.203-.236.3-.353l-.177-.526v-.005ZM113.355 107.741a36.37 36.37 0 0 0-.172.024v.815l.418-.048 1.233-.156v-.836l-1.313.177h.005l-.171.024ZM63.723 139.878c-.05.075-.103.149-.155.223-.052.074-.105.147-.156.222h.955l.07-.099c.08-.113.162-.23.24-.346h-.954ZM46.206 164.764l-6.387 9.217c-.739 1.085-1.48 2.167-2.222 3.249v.002l-.001.001a736.869 736.869 0 0 0-4.104 6.03c1.37-1.833 2.724-3.685 4.078-5.536.837-1.143 1.673-2.286 2.512-3.424l6.536-9.03a1565.99 1565.99 0 0 0 4.312-5.995v-1.276a1014.669 1014.669 0 0 0-4.719 6.767l-.005-.005ZM65.225 140.323h.976c.09-.144.182-.294.273-.444l-.97-.001c-.097.15-.188.295-.28.445ZM45.771 171.745l-6.29 10.354c-.725 1.216-1.454 2.43-2.183 3.644-1.35 2.25-2.7 4.5-4.031 6.764a858.639 858.639 0 0 0 4.456-6.877c.702-1.09 1.403-2.18 2.107-3.268l6.494-10.204c1.538-2.424 3.077-4.853 4.6-7.287v-1.55a1859.926 1859.926 0 0 0-5.153 8.424ZM67.418 140.323h.911c.08-.144.161-.295.242-.445h-.906c-.086.15-.167.295-.247.445ZM51.053 170.201c-.284.52-.563 1.035-.837 1.555l-5.55 10.343a1693.26 1693.26 0 0 1-1.943 3.68 930.112 930.112 0 0 0-3.53 6.712c1.275-2.187 2.528-4.387 3.78-6.586l.001-.001c.68-1.192 1.359-2.385 2.041-3.574l5.748-10.21.54-.959c.179-.321.358-.641.538-.96h-.788ZM62.823 148.635l-.003.005h-.003l.006-.005ZM62.82 148.64h.962l-1.64 2.992-.467.847c-.155.283-.31.566-.466.847v-1.769c.08-.14.15-.268.225-.408.233-.418.464-.837.694-1.257.23-.418.46-.836.692-1.252ZM69.616 140.323h.847l.21-.445h-.842c-.075.15-.145.295-.215.445ZM54.667 171.766l-4.81 10.333c-.551 1.21-1.107 2.419-1.663 3.629l-.001.002c-1.032 2.245-2.064 4.49-3.07 6.745a854.027 854.027 0 0 0 3.34-6.673v-.001c.58-1.166 1.16-2.333 1.743-3.498l5.008-10.215.004-.007v-.003l.002-.002c.303-.623.607-1.247.91-1.875h-.734c-.185.39-.367.783-.548 1.175l-.001.002-.001.002v.002l-.003.005-.176.379ZM65.011 149.9v.003l-.607 1.268c-.53 1.115-1.063 2.232-1.595 3.348l-.015.033-1.58 3.316v1.839a8152.87 8152.87 0 0 1 1.949-4.061l1.95-4.062c.232-.494.467-.986.702-1.478.234-.492.469-.983.702-1.477h-.906l.005.006c-.2.422-.403.844-.605 1.265ZM72.78 139.878h-.794c-.017.046-.036.09-.054.135l-.037.087-.091.223h.783v.038l.073-.177c.041-.1.083-.199.12-.3v-.006ZM59.74 170.201l-.002.002c-.208.525-.417 1.049-.62 1.574l-4.07 10.322-1.138 2.933v.001a861.44 861.44 0 0 0-2.857 7.426 859.329 859.329 0 0 0 2.898-6.782v-.001l.001-.001.002-.003c.48-1.132.96-2.265 1.442-3.396l4.268-10.22c.128-.306.255-.613.381-.919l.005-.011c.127-.307.253-.614.381-.92h-.686l-.006-.005ZM68.41 148.635l-.52 1.278-.52 1.279a3502.465 3502.465 0 0 0-6.15 15.282v1.818a2669.85 2669.85 0 0 0 6.857-16.74l.489-1.207.002-.004c.23-.568.46-1.136.689-1.706h-.847ZM74.598 139.878h-.45l-1.561 4.617v2.349c.561-1.69.911-2.774 1.292-3.954.278-.86.573-1.772.977-3.006h-.258v-.006ZM71.198 148.635c-.29.858-.579 1.715-.863 2.579-1.947 5.855-3.893 11.71-5.802 17.582l2.016-3.936c1.507-4.445 3.003-8.901 4.494-13.351.316-.96.632-1.915.954-2.874h-.799ZM64.072 170.201a77.134 77.134 0 0 0-.515 1.587l-3.33 10.311c-.383 1.22-.77 2.438-1.156 3.657l-.001.004a750.735 750.735 0 0 0-2.097 6.682 802.998 802.998 0 0 0 2.349-6.63c.417-1.188.834-2.377 1.254-3.563l3.528-10.225c.21-.606.418-1.212.622-1.818h-.649l-.005-.005ZM132.835 110.317c-1.532-.026-3.065-.04-4.597-.053l-1.838-.016-6.434-.022-6.435.027h-.032v.82h.032l6.435.027 6.434-.027 1.835-.016h.001c1.531-.013 3.062-.026 4.599-.053 4.289-.054 8.579-.166 12.869-.338a487.92 487.92 0 0 0-12.869-.343v-.006ZM125.596 114.844l-.01-.001h-.003l-.003-.001c-.931-.12-1.863-.24-2.794-.364l-7.667-.954-1.614-.188v.949l1.522.193 7.674.907c.755.083 1.511.169 2.267.254l.01.001c1.799.204 3.599.407 5.401.592a646.926 646.926 0 0 0 15.373 1.485 708.723 708.723 0 0 0-15.298-2.231h-.005a499.032 499.032 0 0 0-4.851-.641l-.002-.001ZM65.391 134.849l.397.75c.032-.037.059-.075.091-.118l1.818-3.544c-.772.965-1.545 1.936-2.306 2.906v.006ZM64.474 133.117l.397.751c1.485-1.69 2.965-3.384 4.44-5.078l1.308-2.553c-1.813 2.007-3.614 4.031-5.413 6.053l-.732.821v.006ZM72.078 122.87a1248.955 1248.955 0 0 0-8.57 8.424l.403.756c2.585-2.595 5.17-5.196 7.743-7.818l.965-1.893-.541.526v.005ZM72.094 121.036c-4.21 3.507-8.392 7.062-12.57 10.628l.43.777.595-.512c3.958-3.406 7.919-6.815 11.85-10.282l1.051-.927.724-1.421-2.08 1.732v.005ZM77.718 134.538a2902.2 2902.2 0 0 0-4.429 16.703l-.241.933 1.555-3.035c1.266-4.864 2.53-9.727 3.764-14.601h-.649ZM68.4 170.206c-.135.531-.269 1.062-.403 1.598l-2.59 10.3c-.297 1.225-.598 2.448-.9 3.672v.003a757.86 757.86 0 0 0-1.615 6.653 790.258 790.258 0 0 0 1.743-6.198v-.002c.372-1.336.744-2.673 1.12-4.01l2.784-10.236.24-.89.242-.89H68.4ZM72.11 119.197a713.26 713.26 0 0 0-4.235 2.964c-.75.528-1.501 1.056-2.253 1.583l-6.472 4.595-1.051.756c.026.043.048.086.07.134l.359.644.97-.692 6.45-4.643 1.773-1.288a642.504 642.504 0 0 0 4.657-3.399c.815-.595 1.624-1.19 2.434-1.791l.585-1.142c-1.1.756-2.199 1.518-3.293 2.279h.006ZM67.483 119.952l-.001.001-1.92 1.078-2.289 1.297c-.14.462-.322.901-.547 1.325l3.11-1.796c.752-.442 1.503-.881 2.254-1.32l.006-.003.003-.002c1.4-.819 2.8-1.637 4.198-2.466a947.885 947.885 0 0 0 3.609-2.145l.466-.912a657.398 657.398 0 0 0-4.3 2.376h.005c-1.534.846-3.064 1.707-4.594 2.567ZM72.126 115.513c-1.498.616-2.993 1.244-4.489 1.872-.668.281-1.336.562-2.005.841l-2 .853c.016.22.022.445.022.67 0 .097 0 .193-.006.295l2.199-.96 2.237-.988c1.408-.62 2.817-1.241 4.219-1.875 1.501-.67 2.997-1.346 4.499-2.032l.38-.74a590.46 590.46 0 0 0-5.056 2.07v-.006ZM67.485 114.93h-.003c-.591.165-1.183.329-1.775.492l-2.702.767c.112.279.209.574.29.863l2.557-.745c.623-.187 1.246-.372 1.87-.557l.007-.003c1.526-.454 3.053-.908 4.574-1.376 1.748-.531 3.49-1.067 5.233-1.619l.316-.617c-1.892.493-3.785.997-5.673 1.507-1.565.419-3.127.853-4.69 1.286l-.004.002ZM67.693 112.368l-1.91.255-4.708.66c.268.262.514.541.74.836l4.043-.6c.787-.125 1.576-.246 2.365-.367h.002c1.358-.209 2.716-.418 4.072-.642 1.952-.311 3.904-.632 5.856-.97l.268-.531c-2.065.241-4.124.493-6.183.762v.005c-1.514.184-3.026.388-4.537.591H67.7l-.007.001ZM72.04 110.248l-7.657-.027-7.652.021-1.968.016c1.051.183 2.022.451 2.896.81l6.724.022 7.657-.027c.842-.009 1.685-.016 2.528-.022l.026-.001c1.279-.01 2.557-.02 3.832-.036l.36-.697c-1.797-.026-3.598-.038-5.396-.05l-1.35-.009ZM81.36 125.095l-.382 1.92h.488l.612-3.4-.713 1.48h-.006ZM79.483 134.532c-.537 2.73-1.068 5.459-1.593 8.194l1.105-2.156c.375-2.011.745-4.021 1.11-6.038h-.623ZM72.737 170.201l-.098.535c-.065.358-.13.716-.191 1.073l-1.85 10.29a1344.5 1344.5 0 0 1-.645 3.713v.004c-.384 2.196-.767 4.391-1.13 6.589.466-2.175.913-4.357 1.36-6.539l.006-.029c.25-1.218.499-2.436.752-3.652l2.043-10.247c.118-.579.236-1.158.348-1.743h-.595v.006ZM82.823 122.071l-.627 4.944h.472l.643-5.947-.483 1.003h-.005ZM81.247 134.532c-.242 1.931-.478 3.856-.714 5.786h.665c.226-1.925.44-3.855.65-5.786h-.601ZM77.665 164.855c-.263 2.322-.52 4.638-.772 6.96l-1.11 10.279c-.124 1.232-.25 2.464-.377 3.696a731.896 731.896 0 0 0-.658 6.594c.313-2.214.606-4.427.899-6.642.158-1.198.317-2.396.479-3.595l1.303-10.247c.284-2.221.558-4.447.832-6.669l.047-.382h-.643v.006ZM84.013 119.621l-.214.445-.032.466-.354 6.483h.461l.236-6.461.01-.346c.005-.116.009-.231.011-.346l-.118-.241ZM82.062 154.351a286.952 286.952 0 0 0-.13 2.992h.682l.07-1.523c.048-1.017.096-2.034.139-3.046l-.761 1.582v-.005ZM83.005 134.532c-.102 1.931-.198 3.856-.29 5.786h.65c.085-1.925.16-3.855.236-5.786h-.596ZM81.611 164.855c-.096 2.327-.188 4.649-.268 6.976l-.37 10.268-.09 3.014-.001.016c-.031 1.004-.062 2.008-.091 3.013h.001l.003-.001.007-.004.166-.258.139-2.312c.068-1.146.136-2.292.21-3.436l.562-10.257c.129-2.338.247-4.676.365-7.019h-.633ZM84.882 121.417l-.37-.762.113 6.36h.46l-.203-5.598ZM86.512 134.527v.005c.17 1.855.345 3.709.52 5.558h-.002l.026.257h.654l-.003-.034-.02-.208-.002-.015-.033-.321c-.18-1.745-.36-3.493-.545-5.242h-.595ZM98.714 170.207l.59.002.176.753.18.767 2.402 10.274h-.005c.254 1.122.51 2.243.767 3.365l.002.007c.527 2.306 1.055 4.614 1.563 6.928-.592-2.208-1.163-4.417-1.735-6.628-.309-1.194-.618-2.387-.93-3.581l-2.595-10.226-.14-.555-.145-.584-.084-.337-.046-.185ZM90.091 164.871h-.55l.8 7.88-.006.002.083.761.044.433.002-.004.885 8.151.61 5.356.037.009.017.004c.044.01.087.02.13.036l-.229-2.716c-.076-.905-.153-1.81-.228-2.716l-.787-8.807.006-.009-.814-8.38ZM85.555 164.86h-.002a.12.12 0 0 0 0 .006l.002-.006ZM85.553 164.871h.628c.042 1.911.08 3.821.117 5.732v.07l.011.581c.004.195.008.389.01.582l.183 10.263-.005.011c.016 1.753.037 3.512.064 5.271h-.182c-.07-1.759-.14-3.518-.22-5.277l-.37-10.257c-.086-2.329-.16-4.652-.236-6.976ZM103.023 170.221l.622.002.223.722.001.004.004.012.127.415.1.321 3.142 10.284v-.005c.341 1.146.685 2.291 1.029 3.436.687 2.29 1.375 4.58 2.043 6.875-.762-2.228-1.506-4.468-2.25-6.707l-.002-.006-.001-.001c-.385-1.158-.77-2.317-1.157-3.474l-3.33-10.215-.412-1.267-.011.003-.128-.399ZM102.452 166.398l-1.801-3.583-2.512-7.847-.002-.001-1.126-3.555-.29-.922a2557.61 2557.61 0 0 1-3.33-10.612h.708c.984 3.053 1.954 6.109 2.924 9.165l.674 2.122h-.005l1.132 3.594h.006l3.622 11.639ZM111.668 170.211h.68l.642 1.421 4.627 10.296c.52 1.18 1.042 2.359 1.564 3.537l.002.004a842.066 842.066 0 0 1 2.987 6.797c-1.158-2.364-2.294-4.741-3.43-7.116a1419.41 1419.41 0 0 0-1.455-3.04l-4.821-10.199c-.237-.503-.47-1.002-.707-1.508l-.001-.003-.088-.189ZM107.345 170.211h.644c.187.486.369.967.55 1.454l3.888 10.289v.006c.424 1.147.85 2.294 1.276 3.441a934.301 934.301 0 0 1 2.536 6.886c-.911-2.203-1.806-4.413-2.702-6.623-.48-1.185-.96-2.37-1.443-3.554l-4.075-10.204-.187-.472-.159-.398-.328-.825ZM113.079 164.774v-1.42l.12.225v-.059l.035.064.035.064-.02.025 2.938 5.545.004-.004.618 1.182v.002l.008.013.618 1.184 5.362 10.3v-.005c.532 1.038 1.065 2.074 1.598 3.11l.002.003c1.24 2.41 2.479 4.819 3.698 7.241-1.205-2.139-2.394-4.294-3.583-6.448-.68-1.232-1.359-2.463-2.042-3.692l-5.555-10.187c-.207-.378-.413-.758-.619-1.137l-.62-1.137.01-.006-2.607-4.863ZM102.964 144.267v1.636l-.049-.093v.02c-1.051-1.984-2.102-3.968-3.148-5.952h.842l.907 1.691.001.003.92 1.714.003-.009.524.99ZM117.897 160.412l9.356 13.599v.002l5.598 8.086c.851 1.21 1.699 2.422 2.547 3.635l.001.002c1.513 2.162 3.025 4.324 4.557 6.471a882.225 882.225 0 0 0-4.39-6.731l-.011-.017-.002-.003c-.792-1.207-1.585-2.415-2.375-3.625l-5.193-7.825.011-.002-9.135-13.592h-.964ZM113.829 152.927h-.617l.027-.024h-.072v-.976c.22.327.44.654.659.976h-.013l.016.024ZM85.917 123.567l-.488-1.013.397 4.455h.466l-.375-3.442ZM96.872 182.035l-1.657-10.274-.128-.774-.13-.792h-.573c.096.557.198 1.108.3 1.66v.003l1.855 10.241c.164.873.328 1.746.49 2.618v.001c.194 1.035.388 2.07.583 3.102.064.038.123.075.182.118l-.5-3.195v-.007c-.142-.899-.283-1.798-.422-2.696v-.005ZM87.466 126.757l-.702-1.447.274 1.699h.472l-.049-.252h.005ZM90.625 134.527h-.617a2246.38 2246.38 0 0 0 3.164 13.196l1.405 2.794-.169-.687a3167.704 3167.704 0 0 0-3.783-15.303ZM101.461 116.039v.461l-1.034-.016 1.418.531 1.418.53v-.874c-.6-.214-1.201-.423-1.802-.632ZM93.574 113.326l-.007-.003-.004-.001a390.574 390.574 0 0 0-3.158-1.064l.247.483c1.002.391 2.005.783 3.008 1.169l-.086-.584ZM99.976 117.374c-.67-.311-1.335-.622-2.01-.938l-1.566-.027c1.099.552 2.203 1.104 3.303 1.646.777.387 1.554.771 2.332 1.156l.027.013.001.001.003.001 1.197.593v-.906a820.81 820.81 0 0 0-3.287-1.539ZM93.746 114.489a271 271 0 0 0-2.874-1.303l.289.574c.885.453 1.77.901 2.654 1.348l.012.006.004.002-.085-.622v-.005ZM99.933 119.186a733.414 733.414 0 0 0-4.81-2.799l-1.104-.021-.097-.681-.005.005c-.836-.482-1.668-.96-2.504-1.437l.354.703.002.001.004.002c.748.471 1.497.941 2.246 1.407h-.005a749.5 749.5 0 0 0 5.598 3.469c1.217.756 2.434 1.501 3.651 2.247v-.944c-1.11-.66-2.214-1.308-3.33-1.957v.005ZM99.955 121.031l-7.748-5.416-.066-.046a1.725 1.725 0 0 1-.106-.077l.445.885 7.115 5.265c1.223.906 2.446 1.807 3.673 2.703v-.987a628.453 628.453 0 0 0-3.308-2.333l-.005.006ZM99.976 122.865l-7.18-5.861.542 1.083 6.236 5.367c.841.724 1.685 1.445 2.528 2.165l1.161.994v-1.041a512.333 512.333 0 0 0-3.292-2.702l.005-.005ZM99.992 124.634l-6.31-5.866.68 1.357 5.19 5.067c1.205 1.172 2.403 2.335 3.607 3.502l.001.001.001.001.102.099v-1.099a857.351 857.351 0 0 0-3.276-3.062h.005ZM100.008 126.479l-5.174-5.416.88 1.748 3.828 4.193c1.239 1.357 2.483 2.713 3.726 4.065v-1.159c-1.077-1.147-2.166-2.289-3.254-3.431h-.006ZM100.019 128.275l-3.748-4.349 1.158 2.311 2.097 2.542.003.004.006.007c1.241 1.503 2.482 3.006 3.728 4.504v-1.217a1077.723 1077.723 0 0 0-3.244-3.791v-.011ZM100.03 130.527l-1.271-1.662 1.727 3.442c.922 1.255 1.849 2.51 2.777 3.764v-1.297a564.524 564.524 0 0 0-2.521-3.311l-.712-.931v-.005ZM102.47 136.248l.009.019-.009-.013v-.006ZM102.479 136.267c.187.27.372.542.556.814v.001l.136.199.092.136v.418l-.784-1.568ZM100.663 151.128l-.743-1.904c-1.215-3.117-2.43-6.231-3.654-9.346h-.74c.955 2.497 1.918 4.991 2.883 7.486l.005.013.001.004.004.01.004.011 1.559 4.037c.97 2.499 1.946 4.997 2.927 7.496v-1.995l-.939-2.435-.004-.008-1.298-3.369h-.005ZM114.038 131.042l-.523-.376v.751h1.046a84.936 84.936 0 0 0-.523-.375ZM98.437 139.878h-.788c1.748 3.84 3.507 7.668 5.266 11.497v-1.834a3383.127 3383.127 0 0 0-4.478-9.663ZM102.781 139.878h-.901c.171.287.344.574.517.861l.518.861v-1.282h.134c-.086-.145-.177-.295-.268-.445v.005ZM121.88 171.552c-.354-.601-.713-1.201-1.072-1.802l-.01.007-5.409-9.068.003-.001-.06-.099a2.312 2.312 0 0 0-.101-.163v-.006h-.922l.113.187.096.157-.007.003 5.726 9.297-.019.008.571.928.571.927 1.394 2.258.006-.023 2.5 4.058.002-.001 2.398 3.88c.773 1.227 1.542 2.456 2.311 3.686 1.347 2.151 2.693 4.302 4.054 6.438-1.358-2.37-2.737-4.724-4.117-7.08-.64-1.094-1.281-2.189-1.92-3.285v.005l-2.339-3.958.006-.005-2.687-4.505.001-.004-1.089-1.839ZM130.599 121.068c-1.741-.453-3.486-.889-5.23-1.325l-.005-.001-.01-.002-2.423-.607-7.678-1.882-1.727-.413v.965l1.539.381 7.689 1.833c.995.229 1.99.462 2.984.694l.009.002.003.001.006.001c1.566.366 3.131.733 4.698 1.083a666.636 666.636 0 0 0 15.443 3.351 672.51 672.51 0 0 0-15.298-4.081ZM101.472 114.001v.81l1.802.45v-.847l-.248-.058c-.517-.12-1.032-.239-1.554-.355ZM91.074 111.683h-.001l-1.06-.229.21.413.01.003c1.09.294 2.181.588 3.271.876l-.08-.552h-.006c-.779-.173-1.56-.342-2.344-.511ZM115.355 128.329l-1.829-1.094v1.077l1.416.858 3.753 2.242h1.759l-5.094-3.083h-.005ZM130.674 137.658a20.72 20.72 0 0 0-.44-.268v.858l.029.017.025.015.053.033a864.816 864.816 0 0 0 15.529 8.906 904.92 904.92 0 0 0-15.201-9.561h.005ZM124.609 124.37l-1.56-.578-7.694-2.815-1.829-.659v.997l1.56.574 7.711 2.767c1.029.36 2.059.723 3.088 1.087a709.73 709.73 0 0 0 4.633 1.626 731.136 731.136 0 0 0 15.507 5.217 766.921 766.921 0 0 0-15.292-5.93h-.005c-2.038-.774-4.08-1.53-6.119-2.286ZM123.162 128.452l-7.706-3.743-1.93-.922v1.029l1.587.773 7.722 3.694 1.782.842c.907.429 1.812.857 2.716 1.281h1.834c-1.166-.578-2.334-1.151-3.502-1.724l-.003-.001-.016-.008c-.829-.407-1.657-.813-2.484-1.221ZM130.851 132.243l-.611-.306v.831l.169.08h.001l.173.081a832.226 832.226 0 0 0 15.571 7.094 816.534 816.534 0 0 0-15.298-7.775l-.005-.005ZM104.963 139.873h-.965c.072.12.152.236.233.354l.062.091h.976a34.316 34.316 0 0 1-.306-.445ZM118.974 147.948c1.55 1.652 3.099 3.303 4.654 4.955h.343c.274 0 .526-.016.778-.032a977.959 977.959 0 0 0-3.669-3.965l-.001-.002-.888-.956h-1.217ZM111.435 139.873l.413.445h1.228c-.14-.145-.279-.295-.413-.445h-1.228ZM139.377 168.871c-.102.08-.204.161-.311.236l1.556 1.609.011.011a811.656 811.656 0 0 0 5.248 5.399 642.465 642.465 0 0 0-5.321-5.939l-1.183-1.311v-.005ZM126.256 139.873h-1.432l.314.223c.104.073.209.147.313.222h.413c.354 0 .697.011 1.03.027l-.319-.233-.319-.234v-.005ZM138.315 148.785l-.3-.226c.026.204.048.403.064.612h.005c.85.581 1.698 1.165 2.546 1.749l.002.002.005.003.001.001a551.27 551.27 0 0 0 5.243 3.58 578.3 578.3 0 0 0-5.227-3.959l-2.339-1.762ZM120.432 139.873h-1.399c.176.144.353.294.529.444l.002.001h1.389a41.16 41.16 0 0 1-.521-.445ZM138.326 155.16l-1.218-1.045a3.447 3.447 0 0 1-.171.3l-.081.129 1.218.992c.783.628 1.565 1.258 2.347 1.888 1.815 1.462 3.631 2.925 5.46 4.364a550.591 550.591 0 0 0-5.017-4.407 893.614 893.614 0 0 1-2.538-2.215v-.006ZM124.615 147.97a7.398 7.398 0 0 0-.606-.022h-.644l1.037.977c1.012.952 2.024 1.905 3.039 2.852l.021-.024.022-.03c.144-.204.241-.434.294-.702-1.004-.974-2.008-1.942-3.017-2.915l-.014-.014-.002-.002-.001-.001-.002-.002-.001-.001-.002-.002-.119-.114h-.005ZM116.159 139.873h-1.319s.021.021.027.032l.225.215.209.198h1.324a38.272 38.272 0 0 1-.466-.445ZM138.342 161.31l-4.156-4.053-.45.284c-.015.011-.03.019-.044.027l-.021.01 3.861 3.588.402.375.129.123c.906.827 1.811 1.656 2.716 2.486l.001.002.013.011c1.691 1.551 3.384 3.104 5.093 4.638a519.575 519.575 0 0 0-4.937-4.913l-.006-.005-.003-.003a785.87 785.87 0 0 1-2.598-2.57ZM116.738 147.948h-1.18l.017.02c1.389 1.645 2.777 3.29 4.171 4.935h1.148a1979.188 1979.188 0 0 0-4.156-4.955ZM109.917 139.873h-1.131l.185.223.185.222h1.137l-.376-.445ZM138.358 173.976l-2.73-3.314c-.198.048-.396.091-.595.129l3.014 3.506c.931 1.064 1.86 2.131 2.79 3.199l.001.001a796.286 796.286 0 0 0 5.048 5.76 750.423 750.423 0 0 0-4.751-5.867l-.009-.012h-.001c-.923-1.133-1.847-2.265-2.767-3.402ZM114.063 149.037l-.003-.003-.813-1.08h-.075v1.388c.271.365.544.729.817 1.093l.003.005.003.004.004.005c.273.366.547.731.819 1.097l.309.41c.24.317.479.633.716.952h1.126l-.738-.986-.737-.987h-.005c-.472-.631-.945-1.259-1.418-1.887l-.008-.011ZM107.151 139.878h-1.046l.332.445h1.051c-.058-.079-.12-.16-.183-.242l-.077-.1-.077-.103ZM138.363 181.81l-7.587-10.322-.327-.442-.001-.002-.002-.003c-.171-.23-.341-.459-.507-.69a7.515 7.515 0 0 1-1.576-.89c.633.831 1.265 1.662 1.903 2.493l7.775 10.15c.906 1.163 1.808 2.329 2.711 3.495l.003.004c1.706 2.202 3.412 4.406 5.136 6.593-1.59-2.229-3.2-4.443-4.81-6.657l-.004-.005-.001-.002c-.902-1.24-1.804-2.48-2.702-3.722h-.011ZM97.397 90.043c-.048.435-.102.874-.155 1.303h.557l.066-.477c.044-.318.088-.636.127-.954l-.6.123.005.005ZM95.75 90.392c-.015.316-.026.638-.037.96h.547l.065-1.078-.574.118ZM94.705 90.612l-.005.001v-.001h.005ZM94.7 90.613l-.547.117.01.31c.005.104.009.207.011.312h.542c0-.165-.005-.33-.01-.494v-.003l-.006-.242ZM103.29 45.362l-.295 2.112h.391l.247-2.059c.121-1.1.246-2.2.371-3.301v-.005l.001-.006c.227-2.011.455-4.024.663-6.04-.31 1.993-.601 3.986-.891 5.978-.161 1.107-.322 2.214-.487 3.32ZM102.137 53.592l-.15 1.078c-.863 6.21-1.678 12.424-2.493 18.639l-.064.5c-.542 4.24-1.083 8.477-1.61 12.722.188.365.355.74.483 1.121.644-4.74 1.266-9.485 1.888-14.236.799-6.22 1.587-12.435 2.332-18.665l.134-1.143h-.096c-.145 0-.29-.005-.424-.021v.005ZM98.105 45.388l-.129 2.086h.386l.08-2.059c.035-1.119.073-2.238.11-3.358v-.014l.001-.001v-.011c.067-1.983.133-3.966.185-5.951-.163 2.139-.303 4.278-.442 6.415v.008c-.064.962-.126 1.924-.191 2.885ZM97.542 54.708c-.376 6.214-.697 12.429-1.014 18.638-.177 3.577-.348 7.153-.509 10.73.215.22.418.445.611.675.21-3.785.402-7.566.596-11.357l.074-1.542v-.002c.276-5.7.552-11.4.778-17.11l.048-1.228h-.514l-.07 1.185v.01ZM93.118 42.302V42.3c-.094-2.068-.188-4.137-.305-6.204.01 1.98.035 3.959.06 5.936.015 1.128.03 2.256.041 3.383l.043 2.21c.124-.044.252-.081.381-.119l-.08-2.096.005.005c-.05-1.037-.097-2.075-.145-3.113ZM94.266 73.378c-.193-6.22-.386-12.429-.633-18.644l-.048-1.185a3.072 3.072 0 0 1-.51-.117l.027 1.302c.108 5.697.266 11.395.424 17.092l.043 1.552c.09 2.97.187 5.947.284 8.923.235.15.455.31.674.47l.001.001c-.086-3.131-.171-6.262-.262-9.4v.006ZM87.734 42.662l-.001-.006a777.245 777.245 0 0 0-.835-6.55c.167 2.024.355 4.045.542 6.063v.004c.101 1.088.202 2.176.3 3.264l.198 2.032h.386l-.246-2.06v.006c-.116-.918-.23-1.836-.344-2.753ZM91.306 73.357a2176.535 2176.535 0 0 0-2.113-18.633l-.145-1.207h-.509l.123 1.255c.606 6.162 1.27 12.313 1.933 18.47l.02.174.001.017c.278 2.514.556 5.03.835 7.538.24.112.477.225.702.343-.279-2.645-.562-5.296-.846-7.946v-.003l-.001-.008ZM88.267 134.527h.601c.326 1.804.642 3.611.959 5.419v.002l.004.023.297 1.693-.008-.017.003.017-.681-1.352h-.22a690.406 690.406 0 0 1-.96-5.785h.005ZM84.76 134.532h.584v.004c.064 1.929.129 3.858.188 5.782h-.65a688.132 688.132 0 0 1-.123-5.786ZM85.907 153.509l-.73-1.507c.049 1.78.097 3.555.15 5.341h.676l-.096-3.829v-.005Z"
  />
  <defs>
    <filter
      id="stamp2_a"
      width="180.402"
      height="226.728"
      x=".559"
      y=".871"
      color-interpolation-filters="sRGB"
      filterUnits="userSpaceOnUse"
    >
      <feFlood flood-opacity="0" result="BackgroundImageFix" />
      <feColorMatrix
        in="SourceAlpha"
        result="hardAlpha"
        values="0 0 0 0 0 0 0 0 0 0 0 0 0 0 0 0 0 0 127 0"
      />
      <feOffset />
      <feGaussianBlur stdDeviation="6" />
      <feComposite in2="hardAlpha" operator="out" />
      <feColorMatrix values="0 0 0 0 0 0 0 0 0 0 0 0 0 0 0 0 0 0 0.25 0" />
      <feBlend in2="BackgroundImageFix" result="effect1_dropShadow_1309_13177" />
      <feBlend in="SourceGraphic" in2="effect1_dropShadow_1309_13177" result="shape" />
    </filter>
  </defs>
</svg>
