<svg width="165" height="212" viewBox="0 0 165 212" fill="none" xmlns="http://www.w3.org/2000/svg">
  <g filter="url(#filter0_d_1309_13185)">
    <path
      d="M6.71952 12.3181C6.71952 13.0763 6.40044 13.76 5.88924 14.2423C5.08581 15.0002 4.07455 15.8583 4.07448 16.9629L4.07434 19.4025C4.07427 20.5071 5.08555 21.3654 5.88909 22.1234C6.40036 22.6056 6.71952 23.2893 6.71952 24.0476C6.71952 24.8058 6.40044 25.4895 5.88924 25.9718C5.08581 26.7297 4.07455 27.5878 4.07448 28.6924L4.07434 31.133C4.07427 32.2376 5.08554 33.0959 5.88909 33.8538C6.40036 34.3361 6.71952 35.0198 6.71952 35.778C6.71952 36.5363 6.40044 37.22 5.88924 37.7023C5.08581 38.4602 4.07455 39.3183 4.07448 40.4228L4.07434 42.8635C4.07427 43.9681 5.08554 44.8264 5.88909 45.5843C6.40036 46.0666 6.71952 46.7503 6.71952 47.5085C6.71952 48.2667 6.40044 48.9505 5.88924 49.4327C5.08581 50.1907 4.07455 51.0488 4.07448 52.1533L4.07434 54.593C4.07427 55.6976 5.08554 56.5558 5.88909 57.3138C6.40036 57.7961 6.71952 58.4798 6.71952 59.238C6.71952 59.9962 6.40044 60.68 5.88924 61.1622C5.08581 61.9202 4.07455 62.7783 4.07448 63.8828L4.07434 66.3234C4.07427 67.428 5.08554 68.2863 5.88909 69.0443C6.40036 69.5265 6.71952 70.2102 6.71952 70.9685C6.71952 71.7267 6.40044 72.4104 5.88924 72.8927C5.08581 73.6506 4.07455 74.5087 4.07448 75.6133L4.07434 78.0539C4.07427 79.1585 5.08555 80.0168 5.88909 80.7747C6.40036 81.257 6.71952 81.9407 6.71952 82.6989C6.71952 83.4572 6.40044 84.1409 5.88924 84.6232C5.08581 85.3811 4.07455 86.2392 4.07448 87.3437L4.07434 89.7834C4.07427 90.888 5.08554 91.7463 5.88909 92.5042C6.40036 92.9865 6.71952 93.6702 6.71952 94.4284C6.71952 95.1867 6.40044 95.8704 5.88924 96.3527C5.08581 97.1106 4.07455 97.9687 4.07448 99.0732L4.07434 101.514C4.07427 102.618 5.08555 103.477 5.88909 104.235C6.40036 104.717 6.71952 105.401 6.71952 106.159C6.71952 106.917 6.40044 107.601 5.88924 108.083C5.08581 108.841 4.07455 109.699 4.07448 110.804L4.07434 113.244C4.07427 114.349 5.08554 115.207 5.88909 115.965C6.40036 116.447 6.71952 117.131 6.71952 117.889C6.71952 118.648 6.40044 119.331 5.88924 119.814C5.08581 120.572 4.07455 121.43 4.07448 122.534L4.07434 124.975C4.07427 126.079 5.08554 126.938 5.88909 127.696C6.40036 128.178 6.71952 128.862 6.71952 129.62C6.71952 130.378 6.40044 131.062 5.88924 131.544C5.08581 132.302 4.07455 133.16 4.07448 134.265L4.07434 136.704C4.07427 137.809 5.08554 138.667 5.88909 139.425C6.40036 139.907 6.71952 140.591 6.71952 141.349C6.71952 142.108 6.40044 142.791 5.88924 143.274C5.08581 144.032 4.07455 144.89 4.07448 145.994L4.07434 148.435C4.07427 149.539 5.08554 150.398 5.88909 151.156C6.40036 151.638 6.71952 152.322 6.71952 153.08C6.71952 153.838 6.40044 154.522 5.88924 155.004C5.08581 155.762 4.07455 156.62 4.07448 157.725L4.07434 160.165C4.07427 161.27 5.08554 162.128 5.88909 162.886C6.40036 163.368 6.71952 164.052 6.71952 164.81C6.71952 165.569 6.40044 166.252 5.88924 166.734C5.08581 167.492 4.07455 168.351 4.07448 169.455L4.07434 171.895C4.07427 172.999 5.08554 173.858 5.88909 174.616C6.40036 175.098 6.71952 175.782 6.71952 176.54C6.71952 177.298 6.40044 177.982 5.88924 178.464C5.08581 179.222 4.07455 180.08 4.07448 181.185L4.07434 183.625C4.07427 184.73 5.08554 185.588 5.88909 186.346C6.40036 186.828 6.71952 187.512 6.71952 188.27C6.71952 189.028 6.40044 189.712 5.88924 190.194C5.08581 190.952 4.07455 191.81 4.07448 192.915L4.07434 195.356C4.07427 196.46 5.08554 197.319 5.88909 198.077C6.40036 198.559 6.71952 199.242 6.71952 200.001C6.71952 200.759 6.40043 201.443 5.88921 201.925C5.08578 202.683 4.07453 203.541 4.07445 204.645L4.07437 205.616C4.07429 206.721 4.96974 207.616 6.07437 207.616H7.38762C8.43958 207.616 9.26979 206.698 10.0062 205.947C10.4862 205.457 11.1552 205.153 11.8951 205.153C12.6351 205.153 13.3041 205.457 13.7841 205.947C14.5205 206.698 15.3507 207.616 16.4026 207.616H19.1181C20.17 207.616 21.0003 206.698 21.7366 205.947C22.2167 205.457 22.8856 205.153 23.6256 205.153C24.3655 205.153 25.0345 205.457 25.5146 205.947C26.2509 206.698 27.0811 207.616 28.1331 207.616H30.8486C31.9005 207.616 32.7307 206.698 33.4671 205.947C33.9471 205.457 34.6161 205.153 35.3561 205.153C36.096 205.153 36.765 205.457 37.245 205.947C37.9814 206.698 38.8116 207.616 39.8636 207.616H42.579C43.631 207.616 44.4612 206.698 45.1976 205.947C45.6776 205.457 46.3466 205.153 47.0865 205.153C47.8265 205.153 48.4955 205.457 48.9755 205.947C49.7119 206.698 50.5421 207.616 51.594 207.616H54.3095C55.3615 207.616 56.1917 206.698 56.928 205.947C57.4081 205.457 58.077 205.153 58.817 205.153C59.5569 205.153 60.2259 205.457 60.706 205.947C61.4423 206.698 62.2725 207.616 63.3245 207.616H66.04C67.0919 207.616 67.9221 206.698 68.6585 205.947C69.1385 205.457 69.8075 205.153 70.5475 205.153C71.2874 205.153 71.9564 205.457 72.4364 205.947C73.1728 206.698 74.003 207.616 75.055 207.616H77.7704C78.8224 207.616 79.6526 206.698 80.389 205.947C80.869 205.457 81.538 205.153 82.2779 205.153C83.0179 205.153 83.6869 205.457 84.1669 205.947C84.9033 206.698 85.7335 207.616 86.7854 207.616H89.5009C90.5529 207.616 91.3831 206.698 92.1194 205.947C92.5995 205.457 93.2684 205.153 94.0084 205.153C94.7484 205.153 95.4173 205.457 95.8974 205.947C96.6337 206.698 97.464 207.616 98.5159 207.616H101.231C102.283 207.616 103.114 206.698 103.85 205.947C104.33 205.457 104.999 205.153 105.739 205.153C106.479 205.153 107.148 205.457 107.628 205.947C108.364 206.698 109.194 207.616 110.246 207.616H112.958C114.01 207.616 114.84 206.698 115.576 205.947C116.056 205.457 116.725 205.153 117.465 205.153C118.205 205.153 118.874 205.457 119.354 205.947C120.091 206.698 120.921 207.616 121.973 207.616H124.688C125.74 207.616 126.571 206.698 127.307 205.947C127.787 205.457 128.456 205.153 129.196 205.153C129.936 205.153 130.605 205.457 131.085 205.947C131.821 206.698 132.651 207.616 133.703 207.616H136.419C137.471 207.616 138.301 206.698 139.037 205.947C139.517 205.457 140.186 205.153 140.926 205.153C141.666 205.153 142.335 205.457 142.815 205.947C143.552 206.698 144.382 207.616 145.434 207.616H148.487C149.539 207.616 150.37 206.698 151.106 205.947C151.586 205.457 152.255 205.153 152.995 205.153C153.735 205.153 154.404 205.457 154.884 205.947C155.62 206.698 156.45 207.616 157.502 207.616H158.477C159.581 207.616 160.477 206.721 160.477 205.616V204.617C160.477 203.541 159.515 202.697 158.739 201.951C158.239 201.469 157.927 200.793 157.927 200.044C157.927 199.295 158.239 198.619 158.739 198.138C159.515 197.391 160.477 196.548 160.477 195.471V192.828C160.477 191.751 159.515 190.908 158.739 190.161C158.239 189.68 157.927 189.004 157.927 188.255C157.927 187.506 158.239 186.83 158.739 186.348C159.515 185.602 160.477 184.758 160.477 183.681V181.097C160.477 180.021 159.515 179.177 158.739 178.431C158.239 177.949 157.927 177.273 157.927 176.524C157.927 175.775 158.239 175.099 158.739 174.618C159.515 173.871 160.477 173.028 160.477 171.951V169.368C160.477 168.291 159.515 167.448 158.739 166.701C158.239 166.22 157.927 165.544 157.927 164.795C157.927 164.046 158.239 163.37 158.739 162.888C159.515 162.142 160.477 161.298 160.477 160.221V157.638C160.477 156.561 159.515 155.717 158.739 154.971C158.239 154.489 157.927 153.813 157.927 153.064C157.927 152.315 158.239 151.639 158.739 151.158C159.515 150.411 160.477 149.568 160.477 148.491V145.907C160.477 144.83 159.515 143.987 158.739 143.24C158.239 142.759 157.927 142.083 157.927 141.334C157.927 140.585 158.239 139.909 158.739 139.427C159.515 138.681 160.477 137.837 160.477 136.761V134.178C160.477 133.101 159.515 132.257 158.739 131.511C158.239 131.029 157.927 130.353 157.927 129.604C157.927 128.855 158.239 128.179 158.739 127.698C159.515 126.951 160.477 126.108 160.477 125.031V122.447C160.477 121.37 159.515 120.527 158.739 119.78C158.239 119.299 157.927 118.623 157.927 117.874C157.927 117.125 158.239 116.449 158.739 115.967C159.515 115.221 160.477 114.377 160.477 113.301V110.717C160.477 109.64 159.515 108.796 158.739 108.05C158.239 107.568 157.927 106.892 157.927 106.143C157.927 105.394 158.239 104.718 158.739 104.237C159.515 103.49 160.477 102.647 160.477 101.57V98.9861C160.477 97.9093 159.515 97.0658 158.739 96.3192C158.239 95.838 157.927 95.1618 157.927 94.4129C157.927 93.664 158.239 92.9878 158.739 92.5066C159.515 91.76 160.477 90.9165 160.477 89.8396V87.2567C160.477 86.1798 159.515 85.3363 158.739 84.5897C158.239 84.1085 157.927 83.4323 157.927 82.6834C157.927 81.9345 158.239 81.2583 158.739 80.7771C159.515 80.0305 160.477 79.187 160.477 78.1101V75.5262C160.477 74.4493 159.515 73.6058 158.739 72.8592C158.239 72.378 157.927 71.7018 157.927 70.9529C157.927 70.204 158.239 69.5278 158.739 69.0466C159.515 68.3 160.477 67.4565 160.477 66.3797V63.7957C160.477 62.7188 159.515 61.8754 158.739 61.1288C158.239 60.6476 157.927 59.9714 157.927 59.2225C157.927 58.4736 158.239 57.7973 158.739 57.3161C159.515 56.5696 160.477 55.7261 160.477 54.6492V52.0662C160.477 50.9894 159.515 50.1459 158.739 49.3993C158.239 48.9181 157.927 48.2419 157.927 47.493C157.927 46.7441 158.239 46.0679 158.739 45.5866C159.515 44.8401 160.477 43.9966 160.477 42.9197V40.3358C160.477 39.2589 159.515 38.4154 158.739 37.6688C158.239 37.1876 157.927 36.5114 157.927 35.7625C157.927 35.0136 158.239 34.3374 158.739 33.8562C159.515 33.1096 160.477 32.2661 160.477 31.1892V28.6053C160.477 27.5284 159.515 26.6849 158.739 25.9384C158.239 25.4571 157.927 24.7809 157.927 24.032C157.927 23.2831 158.239 22.6069 158.739 22.1257C159.515 21.3791 160.477 20.5356 160.477 19.4588V16.8758C160.477 15.7989 159.515 14.9554 158.739 14.2089C158.239 13.7277 157.927 13.0514 157.927 12.3025C157.927 11.5536 158.239 10.8774 158.739 10.3962C159.515 9.64964 160.477 8.80615 160.477 7.72928V6.88867C160.477 5.7841 159.581 4.88867 158.477 4.88867H157.307C156.202 4.88867 155.344 5.89995 154.586 6.70341C154.104 7.21461 153.42 7.53369 152.662 7.53369C151.904 7.53369 151.22 7.21464 150.738 6.70347C149.98 5.90004 149.122 4.88876 148.017 4.88874L145.576 4.8887C144.472 4.88869 143.614 5.89997 142.856 6.70343C142.373 7.21462 141.69 7.53369 140.931 7.53369C140.173 7.53369 139.49 7.21464 139.007 6.70347C138.249 5.90004 137.391 4.88876 136.287 4.88874L133.846 4.8887C132.741 4.88869 131.883 5.89997 131.125 6.70344C130.643 7.21462 129.959 7.53369 129.201 7.53369C128.443 7.53369 127.759 7.21464 127.277 6.70347C126.519 5.90004 125.661 4.88876 124.556 4.88874L122.115 4.8887C121.011 4.88869 120.153 5.89997 119.395 6.70343C118.912 7.21462 118.229 7.53369 117.47 7.53369C116.712 7.53369 116.029 7.21464 115.546 6.70347C114.788 5.90004 113.93 4.88876 112.826 4.88874L110.385 4.8887C109.28 4.88869 108.422 5.89997 107.664 6.70343C107.182 7.21462 106.498 7.53369 105.74 7.53369C104.982 7.53369 104.298 7.21464 103.816 6.70347C103.058 5.90004 102.2 4.88876 101.095 4.88874L98.6545 4.8887C97.5499 4.88869 96.6917 5.89997 95.9337 6.70343C95.4514 7.21462 94.7677 7.53369 94.0095 7.53369C93.2513 7.53369 92.5676 7.21464 92.0853 6.70347C91.3273 5.90004 90.4692 4.88876 89.3646 4.88874L86.924 4.8887C85.8194 4.88869 84.9612 5.89997 84.2032 6.70343C83.721 7.21462 83.0373 7.53369 82.2791 7.53369C81.5208 7.53369 80.8371 7.21464 80.3549 6.70347C79.5969 5.90004 78.7387 4.88876 77.6342 4.88874L75.1935 4.8887C74.089 4.88869 73.2308 5.89997 72.4728 6.70343C71.9905 7.21462 71.3068 7.53369 70.5486 7.53369C69.7904 7.53369 69.1067 7.21464 68.6244 6.70347C67.8664 5.90004 67.0083 4.88876 65.9037 4.88874L63.4631 4.8887C62.3585 4.88869 61.5003 5.89997 60.7423 6.70343C60.26 7.21462 59.5763 7.53369 58.8181 7.53369C58.0599 7.53369 57.3762 7.21464 56.8939 6.70347C56.136 5.90004 55.2778 4.88876 54.1733 4.88874L51.7326 4.8887C50.628 4.88869 49.7698 5.89997 49.0118 6.70343C48.5296 7.21462 47.8459 7.53369 47.0877 7.53369C46.3295 7.53369 45.6458 7.21464 45.1635 6.70347C44.4055 5.90004 43.5474 4.88876 42.4428 4.88874L40.0022 4.8887C38.8976 4.88869 38.0394 5.89997 37.2814 6.70343C36.7991 7.21462 36.1154 7.53369 35.3572 7.53369C34.599 7.53369 33.9153 7.21464 33.433 6.70347C32.675 5.90004 31.8169 4.88876 30.7123 4.88874L28.2717 4.8887C27.1671 4.88869 26.3089 5.89997 25.5509 6.70343C25.0686 7.21462 24.3849 7.53369 23.6267 7.53369C22.8685 7.53369 22.1848 7.21464 21.7025 6.70347C20.9446 5.90004 20.0864 4.88876 18.9818 4.88874L16.5401 4.8887C15.4355 4.88869 14.5773 5.89997 13.8193 6.70343C13.337 7.21462 12.6533 7.53369 11.8951 7.53369C11.1369 7.53369 10.4532 7.21464 9.97093 6.70347C9.21295 5.90004 8.3548 4.88876 7.25025 4.88873L6.07426 4.88871C4.96967 4.88869 4.07422 5.78413 4.07422 6.88871V7.67315C4.07422 8.77772 5.08546 9.63591 5.88901 10.3938C6.40033 10.8761 6.71952 11.5598 6.71952 12.3181Z"
      fill="var(--theme-1, #E9E9E2)"
    />
  </g>
  <rect x="12.4492" y="13.7178" width="139.648" height="184.377" fill="var(--theme-3, #292929)" />
  <path
    d="M38.9163 163.603C38.1179 163.489 37.4988 163.207 37.0643 162.74C36.6298 162.272 36.4125 161.632 36.4125 160.822C36.4125 160.013 36.6189 159.258 37.0317 158.552C37.4445 157.846 38.0202 157.227 38.7697 156.716C39.5137 156.2 40.3881 155.831 41.3983 155.625C42.1369 155.473 42.8212 155.451 43.4349 155.554C44.0541 155.657 44.5755 155.88 45.0045 156.206C45.4282 156.537 45.7377 156.95 45.917 157.45C45.1838 157.732 44.8144 157.879 44.0812 158.177C43.9672 157.879 43.7934 157.64 43.549 157.45C43.3046 157.259 43.0005 157.135 42.642 157.069C42.2836 157.004 41.8871 157.021 41.4526 157.107C40.8498 157.232 40.3229 157.45 39.8667 157.754C39.4105 158.058 39.0629 158.427 38.8185 158.856C38.5741 159.285 38.4492 159.747 38.4492 160.247C38.4492 160.735 38.585 161.132 38.8565 161.436C39.1281 161.74 39.5137 161.93 40.0134 162.006C40.513 162.082 41.0942 162.05 41.7568 161.919C42.2618 161.816 42.7235 161.664 43.1417 161.447C43.5599 161.235 43.9075 160.974 44.1844 160.676C44.4614 160.372 44.6515 160.046 44.7547 159.687C45.5042 159.725 45.8789 159.752 46.6339 159.812C46.4818 160.41 46.1777 160.953 45.7269 161.441C45.2761 161.93 44.7058 162.343 44.0106 162.68C43.3209 163.022 42.5551 163.266 41.7242 163.435C40.6488 163.652 39.7092 163.712 38.9108 163.598L38.9163 163.603Z"
    fill="var(--theme-1, #E9E9E2)"
  />
  <path
    d="M50.8961 154.599C51.8411 154.544 52.3136 154.523 53.2532 154.495C54.7522 157.439 55.5071 158.927 57.0061 161.936C56.1588 161.925 55.7352 161.92 54.888 161.931C54.6001 161.344 54.4535 161.051 54.1656 160.464C52.4657 160.497 51.6184 160.529 49.9185 160.654C49.6307 161.268 49.484 161.572 49.1962 162.191C48.3435 162.262 47.9199 162.305 47.0672 162.403C48.5987 159.242 49.3645 157.684 50.8961 154.61V154.599ZM53.6768 159.188C53.0305 157.868 52.7101 157.206 52.0638 155.897H52.0421C51.3958 157.265 51.0753 157.95 50.429 159.329C51.7271 159.242 52.3788 159.215 53.6768 159.182V159.188Z"
    fill="var(--theme-1, #E9E9E2)"
  />
  <path
    d="M60.6589 162.077C60.0452 161.909 59.4966 161.68 59.0133 161.403C58.5299 161.126 58.1443 160.822 57.8673 160.496C58.2258 160.019 58.3996 159.78 58.758 159.307C58.9861 159.606 59.3066 159.877 59.7085 160.122C60.1104 160.366 60.572 160.567 61.088 160.725C61.6039 160.882 62.1199 160.98 62.6304 161.012C63.0432 161.04 63.4016 161.029 63.7112 160.98C64.0208 160.931 64.2597 160.844 64.4281 160.714C64.6019 160.583 64.6833 160.431 64.6833 160.257C64.6833 160.029 64.5313 159.828 64.2325 159.66C63.9338 159.492 63.4559 159.35 62.8096 159.231C62.1905 159.101 61.8809 159.035 61.2563 158.911C60.1864 158.715 59.4098 158.454 58.9318 158.107C58.4539 157.759 58.2095 157.276 58.2095 156.651C58.2095 156.162 58.3778 155.739 58.7146 155.38C59.0513 155.022 59.5238 154.761 60.1321 154.604C60.7404 154.441 61.441 154.386 62.2393 154.435C62.7553 154.468 63.2658 154.56 63.76 154.701C64.2543 154.843 64.705 155.033 65.1124 155.261C65.5197 155.489 65.851 155.739 66.1063 156.016C65.8021 156.456 65.6447 156.678 65.3405 157.118C65.1124 156.879 64.83 156.667 64.5041 156.472C64.1782 156.282 63.8198 156.124 63.4288 156.005C63.0431 155.885 62.6358 155.82 62.2285 155.793C61.8483 155.771 61.4953 155.788 61.1857 155.847C60.8761 155.907 60.6317 155.999 60.4634 156.124C60.295 156.249 60.2081 156.401 60.2081 156.575C60.2081 156.782 60.3222 156.955 60.5666 157.086C60.811 157.216 61.1966 157.33 61.7288 157.433C62.348 157.547 62.6575 157.607 63.2821 157.727C64.4715 157.955 65.3351 158.281 65.8727 158.688C66.4104 159.095 66.6874 159.622 66.6928 160.257C66.6928 160.752 66.519 161.17 66.1715 161.512C65.8239 161.854 65.3405 162.099 64.7159 162.251C64.0913 162.403 63.369 162.452 62.5489 162.397C61.9135 162.354 61.2889 162.245 60.6752 162.077H60.6589Z"
    fill="var(--theme-1, #E9E9E2)"
  />
  <path
    d="M68.2327 155.212C71.2795 155.543 72.8002 155.749 75.8416 156.178V157.542C73.5877 157.221 72.4581 157.069 70.1987 156.798V158.476C72.2897 158.726 73.3325 158.867 75.418 159.16V160.377C73.327 160.083 72.2843 159.942 70.1987 159.692V161.528C72.4961 161.805 73.6474 161.957 75.9448 162.283V163.657C72.8599 163.217 71.3121 163.011 68.2272 162.674V155.212H68.2327Z"
    fill="var(--theme-1, #E9E9E2)"
  />
  <path
    d="M77.5165 156.418C78.6136 156.575 79.1567 156.657 80.2538 156.82C81.4432 159.264 82.0406 160.486 83.23 162.924H83.2409C84.4248 160.839 85.0168 159.796 86.1954 157.705C87.2979 157.868 87.8518 157.944 88.9544 158.101V165.564C88.1777 165.455 87.7921 165.401 87.0154 165.287V159.932H86.9937C85.8804 161.908 85.3264 162.902 84.213 164.879C83.4527 164.765 83.0725 164.711 82.3176 164.597C81.1825 162.283 80.6122 161.126 79.4771 158.813H79.4554V164.168C78.6787 164.054 78.2931 163.994 77.5165 163.885V156.418Z"
    fill="var(--theme-1, #E9E9E2)"
  />
  <path
    d="M94.1638 158.774C95.1088 158.889 95.5813 158.937 96.5209 159.041C98.0198 162.185 98.7748 163.749 100.274 166.85C99.4265 166.785 99.0029 166.747 98.1556 166.666C97.8678 166.047 97.7211 165.737 97.4333 165.118C95.7333 164.95 94.8861 164.852 93.1862 164.645C92.8983 165.199 92.7517 165.476 92.4638 166.036C91.6112 165.927 91.1875 165.873 90.3349 165.759C91.8664 162.978 92.6322 161.588 94.1638 158.78V158.774ZM96.9445 163.787C96.2982 162.386 95.9777 161.68 95.3314 160.268H95.3097C94.6634 161.533 94.343 162.163 93.6967 163.423C94.9947 163.581 95.6465 163.652 96.9445 163.787Z"
    fill="var(--theme-1, #E9E9E2)"
  />
  <path
    d="M103.313 161.083C102.053 161.018 101.418 160.975 100.158 160.877V159.378C103.498 159.644 105.165 159.731 108.505 159.725V161.224C107.245 161.224 106.621 161.214 105.361 161.176C105.361 163.56 105.361 164.755 105.361 167.139C104.54 167.112 104.133 167.095 103.318 167.052L103.318 161.089L103.313 161.083Z"
    fill="var(--theme-1, #E9E9E2)"
  />
  <path
    d="M109.948 159.708C112.995 159.654 114.516 159.562 117.557 159.192V160.555C115.303 160.832 114.174 160.914 111.914 161.012L111.914 162.69C114.005 162.603 115.048 162.522 117.134 162.283V163.499C115.043 163.738 114 163.82 111.914 163.906V165.742C114.212 165.644 115.363 165.558 117.661 165.275V166.649C114.576 167.029 113.028 167.122 109.943 167.176L109.943 159.714L109.948 159.708Z"
    fill="var(--theme-1, #E9E9E2)"
  />
  <path
    d="M121.707 166.036C121.093 166.014 120.544 165.906 120.061 165.721C119.578 165.537 119.192 165.303 118.915 165.021C119.274 164.483 119.447 164.211 119.806 163.668C120.034 163.923 120.354 164.135 120.756 164.293C121.158 164.45 121.62 164.548 122.136 164.575C122.652 164.602 123.168 164.559 123.678 164.445C124.091 164.353 124.449 164.233 124.759 164.081C125.069 163.934 125.308 163.766 125.476 163.576C125.65 163.391 125.731 163.207 125.731 163.033C125.731 162.805 125.579 162.653 125.28 162.587C124.982 162.522 124.504 162.533 123.852 162.609C123.233 162.663 122.923 162.685 122.299 162.718C121.229 162.799 120.452 162.691 119.969 162.435C119.485 162.18 119.246 161.74 119.246 161.116C119.246 160.627 119.415 160.176 119.752 159.752C120.088 159.329 120.561 158.981 121.169 158.682C121.777 158.384 122.478 158.156 123.276 157.982C123.792 157.868 124.303 157.808 124.797 157.792C125.291 157.775 125.742 157.808 126.149 157.89C126.557 157.971 126.888 158.101 127.143 158.275C126.839 158.835 126.682 159.112 126.377 159.666C126.149 159.513 125.867 159.394 125.541 159.318C125.215 159.242 124.857 159.198 124.466 159.204C124.08 159.204 123.673 159.258 123.265 159.35C122.885 159.437 122.532 159.541 122.223 159.682C121.913 159.818 121.669 159.97 121.5 160.133C121.332 160.296 121.245 160.469 121.245 160.643C121.245 160.849 121.359 160.996 121.604 161.072C121.848 161.143 122.234 161.164 122.766 161.126C123.385 161.072 123.694 161.045 124.319 160.974C125.508 160.833 126.372 160.844 126.91 161.05C127.447 161.257 127.724 161.67 127.73 162.3C127.73 162.794 127.556 163.283 127.208 163.761C126.861 164.238 126.377 164.662 125.753 165.031C125.128 165.401 124.406 165.683 123.586 165.862C122.95 166.004 122.326 166.063 121.712 166.036H121.707Z"
    fill="var(--theme-1, #E9E9E2)"
  />
  <path
    d="M55.3801 172.553C54.7663 172.417 54.2178 172.222 53.7344 171.972C53.2511 171.722 52.8655 171.445 52.5885 171.13C52.9469 170.63 53.1207 170.381 53.4792 169.886C53.7073 170.174 54.0277 170.424 54.4296 170.647C54.8315 170.869 55.2932 171.043 55.8091 171.174C56.3251 171.304 56.841 171.375 57.3515 171.38C57.7643 171.385 58.1228 171.358 58.4323 171.293C58.7419 171.228 58.9809 171.13 59.1492 170.989C59.323 170.853 59.4045 170.696 59.4045 170.522C59.4045 170.294 59.2524 170.098 58.9537 169.946C58.655 169.794 58.1771 169.669 57.5308 169.588C56.9116 169.49 56.6021 169.441 55.9775 169.349C54.9076 169.213 54.1309 168.996 53.653 168.675C53.1696 168.355 52.9306 167.888 52.9306 167.263C52.9306 166.774 53.099 166.34 53.4357 165.965C53.7725 165.59 54.245 165.303 54.8533 165.107C55.4615 164.912 56.1621 164.819 56.9605 164.83C57.4765 164.836 57.987 164.901 58.4812 165.02C58.9754 165.14 59.4262 165.308 59.8336 165.514C60.2409 165.726 60.5722 165.965 60.8275 166.226C60.5233 166.682 60.3658 166.905 60.0617 167.361C59.8335 167.133 59.5511 166.932 59.2253 166.753C58.8994 166.579 58.541 166.438 58.1499 166.335C57.7643 166.231 57.357 166.188 56.9496 166.182C56.5695 166.182 56.2165 166.215 55.9069 166.291C55.5973 166.367 55.3529 166.476 55.1845 166.606C55.0162 166.742 54.9293 166.899 54.9293 167.068C54.9293 167.274 55.0433 167.442 55.2877 167.557C55.5321 167.676 55.9177 167.768 56.45 167.839C57.0691 167.92 57.3787 167.964 58.0033 168.051C59.1927 168.219 60.0562 168.507 60.5939 168.893C61.1316 169.278 61.4086 169.794 61.414 170.424C61.414 170.918 61.2402 171.347 60.8926 171.7C60.545 172.053 60.0617 172.32 59.4371 172.504C58.8125 172.683 58.0902 172.765 57.2701 172.754C56.6347 172.743 56.0101 172.667 55.3964 172.531L55.3801 172.553Z"
    fill="var(--theme-1, #E9E9E2)"
  />
  <path
    d="M65.3389 172.755C64.5351 172.347 63.9105 171.831 63.4652 171.196C63.0198 170.56 62.7917 169.849 62.7917 169.061C62.7917 168.274 63.0198 167.606 63.4706 167.03C63.9214 166.455 64.546 166.031 65.3443 165.77C66.1427 165.51 67.0714 165.434 68.1196 165.548C69.1733 165.662 70.102 165.939 70.9004 166.373C71.6987 166.808 72.3179 167.362 72.7687 168.024C73.214 168.692 73.4421 169.414 73.4421 170.197C73.4421 170.979 73.214 171.63 72.7632 172.179C72.3124 172.722 71.6879 173.113 70.8949 173.352C70.102 173.591 69.1787 173.651 68.1196 173.537C67.0714 173.423 66.1427 173.167 65.3389 172.76V172.755ZM69.8196 171.907C70.3138 171.75 70.6994 171.5 70.9764 171.158C71.2534 170.81 71.3946 170.403 71.3946 169.925C71.3946 169.447 71.2534 168.996 70.9764 168.584C70.694 168.171 70.3084 167.829 69.8196 167.557C69.3253 167.286 68.7605 167.117 68.1142 167.047C67.4625 166.976 66.8922 167.025 66.398 167.193C65.9038 167.356 65.5181 167.617 65.2412 167.97C64.9642 168.323 64.823 168.741 64.823 169.224C64.823 169.708 64.9642 170.142 65.2412 170.544C65.5181 170.952 65.9092 171.283 66.398 171.543C66.8868 171.804 67.4625 171.967 68.1142 172.038C68.7551 172.108 69.3253 172.065 69.8196 171.907ZM68.3857 175.508C68.049 175.334 67.7883 175.101 67.6037 174.813C67.4244 174.52 67.3321 174.188 67.3321 173.819V173.189C67.9078 173.249 68.1957 173.281 68.7659 173.341V173.781C68.7659 174.02 68.8583 174.216 69.0429 174.368C69.2276 174.52 69.4883 174.618 69.825 174.656C70.1672 174.694 70.5039 174.672 70.8243 174.585C71.1502 174.498 71.438 174.335 71.6879 174.085C71.954 174.46 72.0898 174.645 72.3613 175.019C72.1604 175.248 71.916 175.427 71.6281 175.563C71.3403 175.698 71.0253 175.791 70.6723 175.839C70.3192 175.888 69.9553 175.888 69.5697 175.845C69.1135 175.791 68.717 175.682 68.3803 175.508H68.3857Z"
    fill="var(--theme-1, #E9E9E2)"
  />
  <path
    d="M77.1816 174.227C76.5027 173.847 75.9759 173.353 75.6065 172.755C75.2372 172.152 75.058 171.463 75.058 170.67V166.678C75.8781 166.792 76.2854 166.852 77.1001 166.966V170.876C77.1001 171.365 77.2033 171.794 77.4042 172.158C77.6052 172.522 77.8985 172.815 78.2732 173.027C78.6534 173.244 79.0933 173.391 79.593 173.461C80.1035 173.537 80.5434 173.521 80.9127 173.418C81.282 173.315 81.5699 173.108 81.7763 172.804C81.9827 172.5 82.0858 172.103 82.0858 171.625V167.704C82.9005 167.824 83.3078 167.889 84.1225 168.008V172C84.1225 172.788 83.9379 173.434 83.5685 173.923C83.1992 174.417 82.6724 174.754 81.9935 174.933C81.3146 175.112 80.5163 175.134 79.593 174.998C78.6643 174.862 77.8605 174.602 77.1761 174.222L77.1816 174.227Z"
    fill="var(--theme-1, #E9E9E2)"
  />
  <path
    d="M88.6984 168.67C89.6434 168.8 90.1159 168.865 91.0555 168.99C92.5545 172.173 93.3094 173.764 94.8084 176.92C93.9612 176.822 93.5375 176.773 92.6903 176.664C92.4024 176.034 92.2558 175.725 91.9679 175.095C90.268 174.878 89.4208 174.758 87.7208 174.514C87.433 175.062 87.2863 175.339 86.9985 175.888C86.1458 175.763 85.7222 175.703 84.8695 175.578C86.4011 172.819 87.1669 171.44 88.6984 168.67ZM91.4791 173.753C90.8328 172.33 90.5124 171.619 89.8661 170.191H89.8444C89.1981 171.44 88.8776 172.059 88.2313 173.308C89.5294 173.493 90.1811 173.58 91.4791 173.753Z"
    fill="var(--theme-1, #E9E9E2)"
  />
  <path
    d="M103.407 177.723C103.184 177.615 102.999 177.473 102.853 177.3C102.706 177.126 102.565 176.936 102.424 176.724C102.196 176.268 102.082 176.034 101.859 175.578C101.729 175.344 101.555 175.16 101.343 175.018C101.131 174.877 100.908 174.801 100.664 174.78C99.6974 174.709 99.2194 174.665 98.2527 174.573C98.2527 175.654 98.2527 176.197 98.2527 177.278C97.4326 177.202 97.0252 177.158 96.2106 177.071C96.2106 174.084 96.2106 172.591 96.2106 169.609C98.5894 169.864 99.7788 169.973 102.152 170.12C102.782 170.158 103.314 170.283 103.754 170.489C104.194 170.695 104.536 170.972 104.775 171.325C105.014 171.678 105.139 172.091 105.139 172.564C105.139 172.933 105.052 173.264 104.873 173.552C104.694 173.84 104.444 174.073 104.124 174.247C103.803 174.426 103.418 174.53 102.972 174.562V174.573C103.114 174.66 103.244 174.763 103.363 174.883C103.483 175.002 103.591 175.149 103.673 175.312C103.896 175.725 104.004 175.931 104.227 176.344C104.303 176.458 104.384 176.55 104.466 176.615C104.547 176.68 104.651 176.718 104.77 176.724C104.868 176.724 104.976 176.697 105.09 176.632C105.204 176.566 105.297 176.479 105.367 176.382C105.558 176.746 105.65 176.925 105.84 177.289C105.65 177.495 105.405 177.653 105.101 177.761C104.797 177.875 104.493 177.924 104.183 177.908C103.89 177.897 103.629 177.832 103.407 177.723ZM101.625 173.568C101.935 173.59 102.196 173.568 102.418 173.492C102.641 173.422 102.804 173.308 102.923 173.156C103.037 173.004 103.097 172.808 103.097 172.58C103.097 172.363 103.037 172.173 102.923 172.004C102.809 171.836 102.641 171.7 102.418 171.591C102.196 171.483 101.94 171.418 101.636 171.401C100.278 171.309 99.5996 171.255 98.2418 171.124V173.297C99.5941 173.422 100.273 173.481 101.625 173.568Z"
    fill="var(--theme-1, #E9E9E2)"
  />
  <path
    d="M107.203 170.326C110.25 170.37 111.77 170.332 114.812 170.082V171.445C112.558 171.63 111.428 171.673 109.169 171.695V173.373C111.26 173.357 112.302 173.319 114.388 173.156C114.388 173.645 114.388 173.884 114.388 174.373C112.297 174.53 111.254 174.568 109.169 174.59V176.425C111.466 176.404 112.617 176.36 114.915 176.17V177.544C111.83 177.8 110.288 177.838 107.197 177.794V170.332L107.203 170.326Z"
    fill="var(--theme-1, #E9E9E2)"
  />
  <path
    d="M25.3516 129.364C29.2674 127.49 31.228 126.773 35.1547 125.692C35.1384 121.157 35.1167 116.622 35.1004 112.087L35.0678 112.098C34.4052 113.271 33.4656 114.358 32.2545 115.422C31.0379 116.481 29.4738 117.638 27.5512 119.001C27.0298 117.263 26.7691 116.394 26.2477 114.667C28.4419 113.098 30.3047 111.696 31.8254 110.322C33.3461 108.948 34.579 107.466 35.5186 105.793C38.044 105.174 39.3095 104.951 41.8349 104.641C41.8458 111.186 41.8675 117.725 41.8838 124.269C44.8058 123.824 46.2722 123.699 49.1941 123.607C49.1995 125.366 49.2049 126.252 49.2049 128.039C40.6564 128.707 33.2864 130.515 25.357 133.861C25.357 132.063 25.357 131.161 25.357 129.364H25.3516Z"
    fill="var(--theme-1, #E9E9E2)"
  />
  <path
    d="M60.2086 118.394C62.3376 115.521 64.9825 113.066 68.1162 110.834C62.4245 109.878 56.7218 109.02 50.9431 108.9C50.9377 107.043 50.9322 106.103 50.9322 104.208C59.2961 104.686 67.4482 106.049 75.7035 107.396C75.7198 109.063 75.7307 109.889 75.7632 111.54C72.5806 113.832 69.9683 116.395 67.9262 119.295C65.8841 122.201 64.4231 125.362 63.5596 128.979C60.3878 128.468 58.7965 128.289 55.6138 128.104C56.5534 124.504 58.0796 121.256 60.2086 118.388V118.394Z"
    fill="var(--theme-1, #E9E9E2)"
  />
  <path
    d="M89.376 123.809C91.3909 120.86 93.8784 118.144 96.9415 115.727C91.2932 114.81 85.6503 113.826 80.0128 112.843C79.9802 110.948 79.9693 109.998 79.9639 108.091C88.1594 109.444 96.3441 110.823 104.567 111.985C104.594 113.669 104.621 114.527 104.686 116.26C101.476 118.867 98.9782 121.707 97.061 124.906C95.1438 128.11 93.8132 131.526 92.966 135.154C89.7833 134.497 88.1866 134.139 84.9985 133.416C85.9273 129.935 87.3665 126.753 89.3814 123.803L89.376 123.809Z"
    fill="var(--theme-1, #E9E9E2)"
  />
  <path
    d="M117.799 138.332C115.893 137.843 114.198 137.104 112.71 136.165C111.222 135.225 109.962 134.117 108.925 132.868C110.179 131.434 110.798 130.69 112.048 129.164C112.862 130.305 113.862 131.293 115.04 132.102C116.224 132.917 117.549 133.514 119.021 133.867C120.493 134.22 122.079 134.335 123.784 134.155C125.582 133.971 127.162 133.395 128.536 132.477C129.91 131.559 130.969 130.364 131.719 128.941C132.468 127.518 132.838 125.933 132.827 124.2C131.665 125.688 130.426 126.829 129.112 127.622C127.798 128.409 126.114 128.974 124.061 129.213C121.498 129.517 119.26 129.235 117.327 128.518C115.393 127.801 113.894 126.709 112.824 125.335C111.754 123.961 111.179 122.386 111.119 120.637C111.059 118.867 111.608 117.335 112.781 115.977C113.948 114.62 115.599 113.566 117.723 112.702C119.847 111.839 122.258 111.231 124.946 110.796C127.939 110.313 130.492 110.123 132.604 110.372C134.717 110.622 136.341 111.361 137.487 112.735C138.627 114.109 139.187 116.2 139.198 119.062C139.208 122.489 138.654 125.672 137.503 128.458C136.352 131.244 134.641 133.628 132.376 135.437C130.111 137.246 127.336 138.419 124.056 138.761C121.791 138.994 119.711 138.821 117.804 138.332H117.799ZM128.955 123.505C130.057 122.859 130.915 122.087 131.534 121.224C132.153 120.36 132.458 119.453 132.452 118.519C132.452 117.585 132.132 116.846 131.502 116.276C130.872 115.706 129.986 115.369 128.846 115.222C127.705 115.076 126.407 115.136 124.963 115.364C123.567 115.586 122.318 115.939 121.232 116.45C120.14 116.966 119.304 117.585 118.712 118.345C118.12 119.106 117.837 119.92 117.859 120.811C117.881 121.702 118.212 122.484 118.836 123.146C119.466 123.809 120.335 124.314 121.454 124.618C122.568 124.922 123.817 124.993 125.196 124.792C126.597 124.586 127.852 124.151 128.955 123.505Z"
    fill="var(--theme-1, #E9E9E2)"
  />
  <path
    d="M27.8114 94.9315V97.4026H26.6383V90.8744H27.8114V93.3347H32.4768V94.9369H27.8114V94.9315Z"
    fill="var(--theme-1, #E9E9E2)"
  />
  <path
    d="M26.5301 89.0933L26.6388 87.5074L28.8492 87.6594L29.1153 83.8305L26.9049 83.6785L27.0135 82.0926L32.8411 82.4945L32.7325 84.0804L30.2505 83.912L29.9843 87.7409L32.4663 87.9093L32.3577 89.4952L26.5301 89.0933Z"
    fill="var(--theme-1, #E9E9E2)"
  />
  <path
    d="M27.4367 79.5952L28.7945 73.7948L29.8318 74.0392L28.827 78.3351L30.1033 78.6338L31.0321 74.6583L31.9608 74.8755L31.0321 78.8511L32.4278 79.177L33.4543 74.7995L34.5025 75.0439L33.1285 80.9258L27.4421 79.5952H27.4367Z"
    fill="var(--theme-1, #E9E9E2)"
  />
  <path
    d="M36.515 69.2042C36.0153 69.655 35.4831 69.932 34.9182 70.0298C34.3534 70.1275 33.7831 70.0352 33.2129 69.7582C32.648 69.4812 32.2298 69.0956 31.9637 68.6014C31.6922 68.1071 31.5727 67.5423 31.6053 66.9123C31.6379 66.2823 31.8225 65.6088 32.1755 64.9028C32.4308 64.3814 32.7404 63.9415 33.1042 63.583C33.4681 63.2192 33.8592 62.9585 34.2774 62.7955C34.701 62.6326 35.1246 62.5783 35.5591 62.6326L35.2495 64.0773C34.9888 64.0447 34.739 64.0772 34.4892 64.1696C34.2394 64.2619 34.0112 64.4086 33.794 64.6204C33.5768 64.8267 33.3975 65.082 33.2455 65.3862C33.0391 65.8098 32.925 66.2117 32.9087 66.6027C32.8924 66.9938 32.9685 67.3359 33.1423 67.6346C33.3161 67.9333 33.5768 68.1669 33.9243 68.3407C34.2665 68.509 34.6195 68.5634 34.9725 68.5036C35.331 68.4439 35.6623 68.2701 35.9719 67.9877C36.2814 67.7052 36.5476 67.3305 36.7811 66.8634C36.9549 66.5104 37.0689 66.1628 37.1124 65.8207C37.1613 65.4785 37.1396 65.1635 37.0527 64.881C36.9658 64.5986 36.8246 64.3597 36.6182 64.1696L37.5306 62.9856C37.8836 63.2952 38.1335 63.6808 38.2801 64.1479C38.4267 64.6149 38.4593 65.1255 38.3778 65.6903C38.2964 66.2551 38.1117 66.8308 37.8239 67.412C37.4491 68.1669 37.0147 68.7697 36.5204 69.2259L36.515 69.2042Z"
    fill="var(--theme-1, #E9E9E2)"
  />
  <path
    d="M35.4182 59.3581L38.905 54.5299L39.7685 55.1544L37.1833 58.7335L38.2478 59.5048L40.6429 56.1918L41.4141 56.7512L39.019 60.0641L40.1813 60.906L42.8153 57.2617L43.6843 57.8917L40.1487 62.7851L35.4127 59.3635L35.4182 59.3581Z"
    fill="var(--theme-1, #E9E9E2)"
  />
  <path
    d="M48.5618 52.9003C48.3826 52.9709 48.2088 52.998 48.035 52.9872C47.8612 52.9763 47.682 52.9546 47.4919 52.922L46.5632 52.6179C46.3677 52.569 46.1721 52.5636 45.9875 52.6124C45.8028 52.6613 45.6399 52.7482 45.5041 52.884L44.1681 54.2146L45.6616 55.7136L44.5265 56.8432L40.4043 52.7048L43.701 49.4189C44.0486 49.0714 44.3962 48.827 44.7438 48.6858C45.0914 48.5445 45.4226 48.5011 45.7485 48.5608C46.069 48.6151 46.3622 48.7781 46.6284 49.0388C46.8347 49.2451 46.9651 49.4787 47.0302 49.7394C47.0954 50.0001 47.09 50.2716 47.0194 50.5595C46.9488 50.8419 46.8021 51.1243 46.5849 51.4013H46.5903C46.7098 51.3742 46.8347 51.3524 46.9651 51.3524C47.0954 51.3524 47.2312 51.3687 47.367 51.4121L48.2305 51.662C48.3337 51.6837 48.4261 51.6837 48.5075 51.6729C48.589 51.662 48.6596 51.624 48.7302 51.5588C48.7845 51.5045 48.8225 51.4285 48.8497 51.3253C48.8768 51.2221 48.8768 51.1243 48.8605 51.0266L49.6155 51.2601C49.6263 51.4828 49.5829 51.7109 49.4797 51.9444C49.3765 52.178 49.2407 52.3843 49.0723 52.5527C48.9094 52.7156 48.741 52.8297 48.5618 52.9003ZM45.3412 51.6403C45.5095 51.4719 45.6345 51.3035 45.7105 51.1352C45.7865 50.9668 45.8137 50.8093 45.7865 50.6518C45.7594 50.4997 45.6834 50.3585 45.5584 50.2336C45.439 50.1141 45.3032 50.0435 45.1511 50.0164C44.999 49.9892 44.8361 50.0163 44.6623 50.0815C44.4885 50.1521 44.3201 50.2662 44.1518 50.4346L42.2672 52.3137L43.4674 53.514L45.3466 51.6457L45.3412 51.6403Z"
    fill="var(--theme-1, #E9E9E2)"
  />
  <path
    d="M47.4327 46.0734L52.2719 42.6029L52.8964 43.4718L49.3119 46.0462L50.0777 47.1107L53.3961 44.7264L53.95 45.4976L50.6316 47.8819L51.4681 49.0496L55.1232 46.4264L55.7477 47.3008L50.8435 50.8201L47.4382 46.0734H47.4327Z"
    fill="var(--theme-1, #E9E9E2)"
  />
  <path
    d="M54.3117 41.2454L56.2452 40.3275L60.2479 43.3309H60.2533L60.4488 38.3343L62.3986 37.411L64.9024 42.69L63.5283 43.3418L61.7306 39.5508H61.7143L61.5459 44.2759L60.2044 44.9113L56.3972 42.0763H56.381L58.1787 45.8726L56.8046 46.5244L54.3008 41.2454H54.3117Z"
    fill="var(--theme-1, #E9E9E2)"
  />
  <path
    d="M68.1514 41.5933C67.478 41.4847 66.9186 41.2457 66.4624 40.871C66.0116 40.4962 65.7129 40.0074 65.5662 39.41C65.425 38.818 65.4685 38.2532 65.6966 37.7046C65.9247 37.1561 66.3157 36.6836 66.8588 36.2817C67.4019 35.8798 68.0754 35.5811 68.8738 35.391C69.6776 35.1955 70.4108 35.152 71.0788 35.2607C71.7468 35.3693 72.3062 35.6137 72.757 35.9939C73.2078 36.374 73.5065 36.8628 73.6531 37.4548C73.7943 38.0468 73.7509 38.6116 73.5228 39.1548C73.2893 39.6979 72.9036 40.1704 72.366 40.5723C71.8283 40.9742 71.1548 41.2729 70.351 41.4684C69.5526 41.6639 68.8194 41.7074 68.146 41.5988L68.1514 41.5933ZM71.3178 39.763C71.6545 39.5078 71.8935 39.2145 72.0347 38.8723C72.1759 38.5302 72.203 38.1771 72.1161 37.8187C72.0292 37.4494 71.8392 37.1507 71.5567 36.9172C71.2743 36.6836 70.9267 36.5315 70.514 36.4555C70.1012 36.3795 69.6504 36.4066 69.1616 36.5261C68.6674 36.6456 68.2546 36.8357 67.9179 37.0855C67.5812 37.3408 67.3422 37.634 67.201 37.9708C67.0598 38.3075 67.0326 38.6605 67.1195 39.0298C67.2064 39.3937 67.3911 39.6924 67.6735 39.9314C67.9559 40.1704 68.3035 40.3224 68.7217 40.393C69.1345 40.4637 69.5907 40.4419 70.0849 40.317C70.5737 40.1975 70.9865 40.0129 71.3232 39.7576L71.3178 39.763Z"
    fill="var(--theme-1, #E9E9E2)"
  />
  <path
    d="M75.4684 34.2879L77.4236 34.1848L81.334 38.2852H81.3448L81.1113 33.9838L82.6266 33.9023L82.9416 39.7353L81.0026 39.8385L77.076 35.7109H77.0651L77.2987 40.0395L75.7834 40.121L75.4684 34.2879Z"
    fill="var(--theme-1, #E9E9E2)"
  />
  <path
    d="M87.2151 38.0678L84.7874 33.9564L86.5308 34.1574L88.1439 37.0359H88.1547L90.3163 34.5919L92.076 34.7928L88.8065 38.2524L88.5729 40.2728L86.9816 40.0936L87.2151 38.0732V38.0678Z"
    fill="var(--theme-1, #E9E9E2)"
  />
  <path
    d="M97.2927 41.9893C96.7931 41.5223 96.4618 41.0117 96.2988 40.4469C96.1359 39.8821 96.1576 39.3118 96.3749 38.7361C96.5867 38.1658 96.9397 37.7205 97.4339 37.3946C97.9281 37.0687 98.5202 36.8895 99.1936 36.8624C99.8725 36.8352 100.595 36.9656 101.366 37.248C102.143 37.5358 102.773 37.9106 103.267 38.3722C103.761 38.8339 104.087 39.3498 104.255 39.9146C104.418 40.4795 104.397 41.0552 104.179 41.6254C103.968 42.1957 103.615 42.641 103.12 42.9615C102.626 43.2819 102.04 43.4611 101.366 43.4883C100.693 43.5209 99.9703 43.3906 99.1936 43.1081C98.4224 42.8257 97.7924 42.451 97.2927 41.9839V41.9893ZM100.937 42.2392C101.355 42.2174 101.719 42.1034 102.029 41.897C102.338 41.6906 102.555 41.4191 102.686 41.066C102.816 40.713 102.832 40.36 102.729 40.007C102.626 39.6539 102.425 39.3335 102.121 39.0402C101.817 38.747 101.431 38.5188 100.959 38.3451C100.481 38.1713 100.035 38.0898 99.6118 38.117C99.1882 38.1441 98.8297 38.2527 98.5201 38.4537C98.2106 38.6546 97.9933 38.9316 97.863 39.2846C97.7327 39.6322 97.7218 39.9852 97.825 40.3383C97.9282 40.6913 98.1291 41.0172 98.4333 41.305C98.7374 41.5929 99.1284 41.8264 99.6064 42.0056C100.079 42.1794 100.524 42.2554 100.942 42.2337L100.937 42.2392Z"
    fill="var(--theme-1, #E9E9E2)"
  />
  <path
    d="M107.364 40.0278L112.42 42.9498L111.834 43.9654L108.157 41.8364L107.456 43.0421L110.71 44.9213L110.204 45.7957L106.951 43.9165L105.816 45.8771L104.437 45.0788L107.359 40.0224L107.364 40.0278Z"
    fill="var(--theme-1, #E9E9E2)"
  />
  <path
    d="M117.696 48.5115L115.86 46.8604L116.642 45.986L121.503 50.3472L120.721 51.2216L118.891 49.5759L115.773 53.0518L114.584 51.9819L117.701 48.506L117.696 48.5115Z"
    fill="var(--theme-1, #E9E9E2)"
  />
  <path
    d="M123.017 51.9218L124.016 53.1601L122.295 54.5505L124.706 57.5376L126.428 56.1472L127.427 57.3855L122.881 61.0515L121.882 59.8132L123.815 58.249L121.404 55.2619L119.47 56.8207L118.471 55.5824L123.017 51.911V51.9218Z"
    fill="var(--theme-1, #E9E9E2)"
  />
  <path
    d="M128.822 59.5046L131.771 64.6804L130.843 65.2073L128.654 61.3729L127.513 62.0247L129.539 65.5712L128.714 66.0437L126.688 62.4972L125.439 63.2086L127.665 67.1136L126.731 67.6458L123.739 62.3994L128.811 59.5046H128.822Z"
    fill="var(--theme-1, #E9E9E2)"
  />
  <path
    d="M134.049 69.8888L134.521 71.4095L132.154 72.1481L135.434 74.3477L136.053 76.3301L132.778 74.1196L130.492 78.106L129.905 76.216L131.583 73.3321L130.562 72.6478L128.949 73.1529L128.477 71.6322L134.054 69.8942L134.049 69.8888Z"
    fill="var(--theme-1, #E9E9E2)"
  />
  <path
    d="M136.483 78.4207L137.352 84.3134L136.298 84.4709L135.652 80.1043L134.354 80.2944L134.951 84.3352L134.011 84.4764L133.414 80.4356L131.991 80.6475L132.648 85.0955L131.584 85.253L130.704 79.2788L136.483 78.4261V78.4207Z"
    fill="var(--theme-1, #E9E9E2)"
  />
  <path
    d="M133.696 89.0654L137.503 86.1869V87.9412L134.831 89.8692V89.8801L137.503 91.7484V93.5189L133.696 90.6621H131.659V89.06H133.696V89.0654Z"
    fill="var(--theme-1, #E9E9E2)"
  />
  <path
    d="M131.644 96.2885C131.753 95.8105 131.911 95.3815 132.117 95.0013C132.323 94.6211 132.551 94.3224 132.801 94.1052L133.752 94.8004C133.524 94.9796 133.317 95.2294 133.138 95.5444C132.959 95.8594 132.823 96.2179 132.72 96.6252C132.617 97.0325 132.568 97.4344 132.568 97.8309C132.568 98.1513 132.595 98.4338 132.655 98.6782C132.714 98.9171 132.796 99.1072 132.91 99.2375C133.024 99.3733 133.149 99.4385 133.285 99.4385C133.464 99.4385 133.61 99.319 133.725 99.0855C133.839 98.852 133.92 98.4772 133.974 97.9721L134.148 96.7555C134.251 95.9191 134.436 95.3109 134.691 94.9361C134.952 94.5614 135.327 94.3713 135.81 94.3713C136.19 94.3713 136.527 94.5016 136.815 94.7678C137.103 95.0285 137.32 95.3978 137.467 95.8757C137.613 96.3536 137.689 96.9022 137.689 97.5268C137.689 97.9341 137.646 98.3306 137.564 98.7162C137.483 99.1072 137.369 99.4548 137.217 99.7752C137.065 100.09 136.891 100.351 136.695 100.552L135.778 99.9545C135.946 99.7752 136.098 99.5526 136.223 99.2973C136.353 99.0421 136.451 98.7596 136.522 98.4555C136.592 98.1513 136.625 97.8363 136.619 97.5159C136.619 97.2172 136.587 96.9456 136.527 96.7012C136.467 96.4568 136.386 96.2668 136.283 96.1364C136.179 96.0006 136.06 95.9355 135.924 95.9355C135.761 95.93 135.631 96.0223 135.539 96.2124C135.446 96.4025 135.37 96.7067 135.316 97.1249L135.169 98.3414C135.061 99.2702 134.865 99.949 134.588 100.367C134.311 100.785 133.92 101.003 133.42 101.008C133.035 101.008 132.693 100.872 132.399 100.601C132.106 100.329 131.878 99.949 131.72 99.4602C131.558 98.9714 131.476 98.4066 131.476 97.7657C131.476 97.2661 131.53 96.7773 131.639 96.2993L131.644 96.2885Z"
    fill="var(--theme-1, #E9E9E2)"
  />
  <path
    d="M65.336 96.3108C65.336 95.9686 65.613 95.5884 65.9497 95.4744C66.2865 95.3549 66.5634 95.5396 66.5634 95.8817C66.5634 96.2239 66.2919 96.5769 65.9497 96.6964C65.613 96.8159 65.3414 96.653 65.336 96.3108Z"
    fill="var(--theme-1, #E9E9E2)"
  />
  <path
    d="M71.9945 98.8308C71.6523 98.7602 71.3482 98.6624 71.0766 98.5321C70.8051 98.4017 70.5933 98.2551 70.4358 98.0922C70.6367 97.8043 70.7345 97.6577 70.93 97.3753C71.0603 97.5328 71.2341 97.6631 71.4568 97.7826C71.6795 97.9021 71.9347 97.989 72.228 98.0596C72.5159 98.1302 72.8037 98.1628 73.0861 98.1682C73.3142 98.1682 73.5152 98.1573 73.689 98.1248C73.8628 98.0922 73.9931 98.0379 74.0909 97.9618C74.1886 97.8858 74.2321 97.7989 74.2321 97.7011C74.2321 97.5708 74.1506 97.4622 73.9823 97.3753C73.8139 97.2884 73.5478 97.2178 73.1893 97.1689C72.8417 97.1146 72.6679 97.0874 72.3258 97.0385C71.7283 96.9679 71.2993 96.8647 71.0277 96.6964C70.7562 96.528 70.6258 96.2728 70.6258 95.9252C70.6258 95.6536 70.7182 95.4038 70.9083 95.1865C71.0929 94.9693 71.359 94.8009 71.6958 94.6815C72.0325 94.5674 72.429 94.5076 72.8689 94.5131C73.1567 94.5131 73.4391 94.5511 73.7161 94.6217C73.9931 94.6923 74.243 94.7901 74.4711 94.9096C74.6992 95.029 74.8838 95.1703 75.025 95.3223C74.8566 95.5722 74.7698 95.6971 74.596 95.9469C74.4656 95.8165 74.3136 95.7025 74.1289 95.5993C73.9442 95.4961 73.7433 95.4201 73.5315 95.3603C73.3142 95.3006 73.0915 95.2734 72.8634 95.2734C72.6516 95.2734 72.4561 95.2952 72.2823 95.3386C72.1085 95.3821 71.9727 95.4472 71.8804 95.5233C71.7827 95.5993 71.7392 95.6862 71.7392 95.784C71.7392 95.898 71.7989 95.9903 71.9401 96.0555C72.0759 96.1207 72.2932 96.1642 72.5865 96.2076C72.934 96.251 73.1078 96.2728 73.45 96.3271C74.1126 96.4248 74.596 96.5986 74.8947 96.8213C75.1934 97.044 75.3509 97.3373 75.3509 97.6903C75.3509 97.9673 75.2531 98.2008 75.063 98.3909C74.8675 98.581 74.6014 98.7222 74.2484 98.82C73.9008 98.9123 73.4989 98.9557 73.0427 98.9449C72.6897 98.9394 72.3421 98.9014 71.9999 98.8308H71.9945Z"
    fill="var(--theme-1, #E9E9E2)"
  />
  <path
    d="M76.2182 94.8709C76.669 94.9197 76.8971 94.9523 77.3479 95.0121C77.3479 96.6794 77.3479 97.5104 77.3479 99.1723C76.8971 99.1125 76.669 99.0799 76.2182 99.0311C76.2182 97.3637 76.2182 96.5328 76.2182 94.8709Z"
    fill="var(--theme-1, #E9E9E2)"
  />
  <path
    d="M78.4061 95.1654C78.9655 95.2523 79.2425 95.3012 79.8019 95.399C80.8501 96.811 81.3769 97.528 82.4251 98.9564H82.4305C82.4305 97.7289 82.4305 97.1152 82.4305 95.8878C82.865 95.9692 83.0822 96.0127 83.5113 96.0942C83.5113 97.7615 83.5113 98.5924 83.5113 100.254C82.9573 100.146 82.6803 100.091 82.1263 99.9882C81.0727 98.549 80.5459 97.8321 79.4868 96.4146H79.4814C79.4814 97.6474 79.4814 98.2666 79.4814 99.4995C79.0469 99.4234 78.8351 99.3908 78.4006 99.3202C78.4006 97.6529 78.4006 96.8219 78.4006 95.16L78.4061 95.1654Z"
    fill="var(--theme-1, #E9E9E2)"
  />
  <path
    d="M85.8699 100.553C85.4245 100.298 85.0823 99.983 84.8379 99.6082C84.5935 99.2335 84.4741 98.8153 84.4741 98.3645C84.4741 97.9137 84.5881 97.5499 84.8162 97.2674C85.0443 96.985 85.3702 96.7895 85.7829 96.6809C86.1957 96.5723 86.6845 96.5668 87.2494 96.6537C87.6621 96.7189 88.0423 96.8329 88.3845 96.9959C88.7266 97.1588 89.0199 97.3652 89.2589 97.6096C89.4978 97.854 89.6662 98.131 89.7694 98.4351C89.3621 98.4949 89.1557 98.522 88.7483 98.5709C88.6886 98.3863 88.5854 98.2233 88.4496 98.0767C88.3139 97.9301 88.1455 97.8051 87.9445 97.702C87.7436 97.5988 87.5209 97.5281 87.2819 97.4901C86.9452 97.4358 86.6519 97.4412 86.3967 97.5118C86.1414 97.577 85.9459 97.7019 85.8101 97.8812C85.6744 98.0604 85.6037 98.2885 85.6037 98.5655C85.6037 98.837 85.6798 99.0923 85.8318 99.3258C85.9839 99.5594 86.2012 99.7549 86.4781 99.9124C86.7551 100.064 87.081 100.173 87.4503 100.233C87.7327 100.276 87.988 100.276 88.2215 100.233C88.4551 100.189 88.6506 100.103 88.8027 99.9776C88.9547 99.8527 89.0633 99.7006 89.1231 99.5159C89.5413 99.6517 89.7531 99.7169 90.1713 99.8418C90.0844 100.157 89.916 100.423 89.6662 100.635C89.4164 100.847 89.0959 100.993 88.7103 101.069C88.3247 101.145 87.9011 101.145 87.434 101.075C86.8312 100.982 86.3098 100.803 85.8644 100.548L85.8699 100.553Z"
    fill="var(--theme-1, #E9E9E2)"
  />
  <path
    d="M91.0511 97.223C92.7511 97.3479 93.5983 97.3642 95.2983 97.223C95.2983 97.5272 95.2983 97.6792 95.2983 97.9834C94.0382 98.092 93.4137 98.0974 92.1537 98.0485V98.9827C93.3159 99.0261 93.9025 99.0261 95.0647 98.9338V99.6127C93.9025 99.6996 93.3159 99.705 92.1537 99.6616V100.683C93.4354 100.732 94.0763 100.726 95.358 100.612C95.358 100.916 95.358 101.074 95.358 101.378C93.6363 101.53 92.7782 101.514 91.0566 101.389C91.0566 99.7213 91.0566 98.8903 91.0566 97.2284L91.0511 97.223Z"
    fill="var(--theme-1, #E9E9E2)"
  />
  <path
    d="M98.6616 99.6883C98.6616 99.3461 98.9386 98.9931 99.2753 98.8736C99.612 98.7541 99.889 98.9171 99.889 99.2592C99.889 99.6014 99.6175 99.9761 99.2753 100.096C98.9386 100.215 98.667 100.03 98.6616 99.6883Z"
    fill="var(--theme-1, #E9E9E2)"
  />
  <path
    d="M77.4239 79.8775C78.6893 77.075 78.0322 76.6623 74.2739 77.6724C77.1306 75.4131 76.9405 74.6201 73.1442 73.8489C76.9405 73.0723 77.1252 72.2739 74.2739 70.0037C78.0322 71.0302 78.6948 70.6229 77.4239 67.8204C80.2481 70.0961 81.155 69.982 82.0295 67.0601C82.9364 69.9114 83.8543 69.9711 86.6622 67.5977C85.4402 70.4979 86.0919 70.9433 89.8285 69.9059C86.9826 72.2468 87.189 73.0614 90.9908 73.8652C87.2053 74.6473 87.0152 75.4565 89.8883 77.781C86.1191 76.7491 85.451 77.1945 86.6785 80.0893C83.8597 77.7213 82.9364 77.781 82.024 80.6324C81.1496 77.7104 80.2426 77.5964 77.4185 79.872L77.4239 79.8775Z"
    fill="var(--theme-1, #E9E9E2)"
  />
  <defs>
    <filter
      id="filter0_d_1309_13185"
      x="0.0742188"
      y="0.888672"
      width="164.402"
      height="210.728"
      filterUnits="userSpaceOnUse"
      color-interpolation-filters="sRGB"
    >
      <feFlood flood-opacity="0" result="BackgroundImageFix" />
      <feColorMatrix
        in="SourceAlpha"
        type="matrix"
        values="0 0 0 0 0 0 0 0 0 0 0 0 0 0 0 0 0 0 127 0"
        result="hardAlpha"
      />
      <feOffset />
      <feGaussianBlur stdDeviation="2" />
      <feComposite in2="hardAlpha" operator="out" />
      <feColorMatrix type="matrix" values="0 0 0 0 0 0 0 0 0 0 0 0 0 0 0 0 0 0 0.25 0" />
      <feBlend mode="normal" in2="BackgroundImageFix" result="effect1_dropShadow_1309_13185" />
      <feBlend
        mode="normal"
        in="SourceGraphic"
        in2="effect1_dropShadow_1309_13185"
        result="shape"
      />
    </filter>
  </defs>
</svg>
