<svg width="180" fill="none" xmlns="http://www.w3.org/2000/svg" viewBox="0 0 141 222">
  <path
    d="M9.624 142.413c-1.466.276-4.582.297-5.313-1.829-.915-2.656-5.531-13.762-3.005-16.81 2.526-3.049 8.71-.436 8.71 4.137 1.51-2.294 5.383-6.471 8.797-4.834.668.494 2.02 1.585 2.09 2.003 1.612-2.903 5.758-8.474 9.45-7.534 3.694.941 3.717 3.76 3.267 5.052l2.003-3.484c-1.498-4.773 2.221-11.686 4.268-14.546l.261-2.177-5.705-1.786v-4.921c-3.222-2.003-5.226-3.31-4.877-11.584.278-6.62 15.997-10.569 23.822-11.715-1.438-1.133-3.18-7.665-3.44-8.405-.21-.593-1.859-2.512-2.657-3.397-5.357-4.878-3.702-10.104-5.75-11.715-2.046-1.612-5.356-7.578-5.835-9.059-.479-1.48-2.134-5.4-5.182-8.318-3.049-2.918-5.662-10.19-6.271-11.845-.488-1.324-.03-3.514.26-4.443-.565-1.61.654-5.879 3.66-8.056C31.18 4.969 44.855 1.398 55.568.919 66.282.44 83.006.353 99.337 1.616s24.388 7.447 25.39 9.015c1.001 1.567-.262 4.703 0 5.095.209.314.261 1.466.261 2.003 4.311-.261 8.884 2.483 10.539 3.659 1.655 1.175 5.444 6.489 4.703 12.934-.74 6.445-5.879 10.583-14.24 16.07-6.69 4.39-18.64 8.623-23.779 10.19-.377.146-1.315.854-2.047 2.527-.731 1.672-3.295 7.055-4.485 9.537 4.035.856 13.126 3.04 17.202 4.921 4.076 1.882 6.518 5.197 7.229 6.62 0 .201.074.148 0 4.268-.079 4.47-3.411 6.764-4.921 7.36 3.847.203 12.656 2.325 17.115 9.189 5.575 8.579 9.494 16.941 7.97 29.309-1.219 9.895-12.673 18.698-18.248 21.862.494.987 1.368 4.373.915 10.017-.453 5.644-5.966 11.526-8.666 13.762.087.609 2.351 7.664-1.35 9.189-2.962 1.219-5.531-2.221-6.446-4.094l-4.224 1.437c.711 1.147 1.411 3.893-1.481 5.705-2.892 1.812-5.966-1.277-7.142-3.048l-4.268.783c.363 1.002.27 3.249-3.005 4.225-3.275.975-5.487-1.597-6.184-3.005H76.56c.799 1.844 1.472 5.879-2.22 7.273-3.289 1.24-5.716-2.789-6.803-5.665.795 2.764.89 7.021-3.606 7.668-5.087.732-6.736-3.876-6.925-6.271-3.135 3.179-10.678 8.414-15.765 3.919-5.087-4.494-2.816-10.815-1.045-13.413-5.749-2.787-11.918-9.552-14.284-12.586-1.118 1.481-4.582 3.71-9.494.784-4.913-2.927-2.86-9.117-1.22-11.846-1.829-.827-3.353-5.705 2.526-9.363 4.703-2.927 8.173-2.381 9.32-1.742-.558-1.15-.233-3.818 0-5.008-1.01.906-2.947 1.306-3.79 1.393-6.061.314-6.677-7.882-6.227-12.019l-7.403 8.143Z"
    fill="var(--theme-2, var(--theme-1, #E9E9E2))"
  />
  <path
    fill-rule="evenodd"
    clip-rule="evenodd"
    d="M102.964 51.26c-.053.269-.117.531-.191.788l.215-.433c-.165.407.236 1.06 3.165.42 3.661-.8 16.359-7.36 19.639-9.648 2.623-1.83 4.728-3.178 5.453-3.622l2.288-3.242.686-2.478c-.102-.712-.381-2.258-.686-2.746-.042-.067-.096-.162-.164-.28-.549-.962-1.962-3.439-4.374-4.22-2.166-.702-8.224-.292-10.983 0l2.136-4.08c2.39-.178 7.505-.427 8.847 0 1.678.534 6.635 3.165 7.093 7.245.366 3.264.356 5.275.305 5.873l-2.174 4.461c-.89 1.335-4.561 5.01-12.126 9.038-9.457 5.033-19.067 8.351-21.622 8.351l.549-1.105c-.706 1.015-1.513 1.955-2.3 2.87-1.496 1.743-2.92 3.402-3.44 5.336-1.135 4.24-6.017 12.604-8.44 15.027-.05.05-.103.1-.158.15.539-.421.913-.813 1.132-1.12l1.636-2.311c3.816.57 12.783 2.144 18.121 3.868 5.338 1.724 7.967 4.691 8.615 5.96v4.293l-1.593 1.64c-3.358 2.355-11.788 4.777-15.583 5.694-21.132 3.57-42.554 1.881-54.181-1.303-9.302-2.547-11.5-5.372-11.435-6.465v-4.15c1.772-5.198 18.26-8.652 26.337-9.738-2.343-3.559-4.987-8.569-5.784-11.545-.518-1.934-1.943-3.593-3.44-5.335-1.782-2.076-3.667-4.27-4.243-7.193-.731-3.706-1.22-4.269-2.449-5.683a30.804 30.804 0 0 1-2.2-2.794c-1.572-2.246-2.427-4.434-3.177-6.353-.699-1.788-1.307-3.343-2.318-4.494-1.976-2.248-6.261-7.384-7.719-12.506 2.36 4.702 22.15 8.372 46.213 8.372 24.064 0 43.853-3.67 46.213-8.372-1.458 5.122-5.743 10.258-7.719 12.506-1.011 1.151-1.619 2.706-2.318 4.494-.75 1.919-1.605 4.107-3.178 6.353-.942 1.347-1.646 2.157-2.199 2.794-1.229 1.414-1.718 1.977-2.449 5.683ZM61.212 77.435l.381.565.171.127c-.177-.21-.361-.442-.552-.692Zm3.324 2.754.303.225c1.454.719 5.96 2.051 12.357 1.636 3.557-.231 6.17-1.125 7.94-2.085-2.607 1.29-6.931 2.094-10.932 2.029-3.509-.058-7.192-.7-9.668-1.805Z"
    fill="var(--theme-1, var(--theme-1, #E9E9E2))"
  />
  <path
    d="M121.062 18.486a14.9 14.9 0 0 1-.235.944c.155-.31.235-.625.235-.944ZM28.166 18.486c0 .319.08.634.235.944-.09-.314-.168-.63-.235-.944Z"
    fill="var(--theme-1, var(--theme-1, #E9E9E2))"
  />
  <path
    d="M57.352 11.1c2.306 3.657 4.89 8.612 7.415 14.252-2.56-.11-5.034-.261-7.402-.45-2.766-5.195-5.536-9.664-8.011-12.987-.384.05-.763.1-1.138.152 2.43 3.193 5.188 7.58 7.962 12.738-2.84-.245-5.517-.543-7.993-.889a190.104 190.104 0 0 0-7.43-10.55c-.365.08-.722.16-1.07.244 2.09 2.75 4.556 6.15 7.176 10.114a102.33 102.33 0 0 1-3.518-.59 69.176 69.176 0 0 1-4.684-1.03 406.289 406.289 0 0 0-3.404-4.023 365.92 365.92 0 0 1-1.986-2.338c-.325.163-.622.329-.89.496.639.763 1.346 1.592 2.113 2.489.766.896 1.59 1.861 2.462 2.897a27.027 27.027 0 0 1-3.054-1.104c-1.104-.487-1.925-.984-2.462-1.474-.433-.395-.65-.754-.718-1.077-.06.17-.09.343-.09.516 0 4.44 19.79 8.04 44.202 8.04 12.23 0 23.3-.904 31.302-2.364l.112-.02.137-.026a67.772 67.772 0 0 0 5.276-1.184l-.001.002c4.66-1.274 7.375-2.803 7.375-4.448 0-.25-.063-.498-.186-.742-.002.378-.207.814-.743 1.303-.537.49-1.358.987-2.462 1.474-.718.318-1.545.626-2.472.923a99.106 99.106 0 0 0 1.694-6.37 25.498 25.498 0 0 0-.947-.346 98.438 98.438 0 0 1-1.899 7.066c-1.68.481-3.631.93-5.819 1.34l-.174.032c.359-3.54.54-6.981.589-10.267a86.869 86.869 0 0 0-.997-.182c-.047 3.4-.235 6.966-.616 10.632-2.061.357-4.306.678-6.706.958.082-4.5-.035-8.775-.285-12.668-.333-.037-.67-.074-1.01-.11.259 3.953.38 8.307.293 12.892-2.098.23-4.308.43-6.61.595-.57-5.707-1.36-10.689-2.285-14.184l-1.051-.059c.944 3.436 1.754 8.483 2.338 14.311-2.255.15-4.595.267-7.003.348-1.209-5.128-2.712-10.142-4.537-14.964l-1.075-.012c1.848 4.829 3.37 9.859 4.592 15.008a237.64 237.64 0 0 1-7.452.098c-2.326-5.977-4.706-11.183-6.663-15.007-.37.011-.74.023-1.106.036 1.942 3.753 4.34 8.956 6.693 14.966a233.402 233.402 0 0 1-7.252-.16c-2.503-5.634-5.078-10.626-7.404-14.383l-1.126.085ZM115.866 25.898c.901-1.302 1.601-2.3 2.132-3.046-.578.37-1.237.729-1.979 1.073-.295.423-.619.89-.975 1.404-2.335 3.374-6.011 8.776-11.577 17.096-9.816 14.67-16.085 29.104-18.746 36.538.501-.23.949-.475 1.331-.73 2.829-7.62 8.93-21.328 18.246-35.252 5.565-8.317 9.238-13.715 11.568-17.083ZM100.751 40.093c2.682-3.722 8.096-10.785 11.059-14.62-.513.152-1.048.3-1.605.444-3.061 3.97-7.803 10.176-10.266 13.59-2.941 4.082-4.946 7.795-5.588 9.16l.905.425c.615-1.308 2.588-4.968 5.495-9ZM103.597 27.26c-17.422 17.833-24.304 42.358-25.74 53.49-.34.042-.68.077-1.022.107 1.366-10.975 8.07-35.282 25.14-53.352.553-.079 1.093-.16 1.622-.245ZM82.4 28.986c-5.537 7.502-14.411 26.569-11.484 51.756-.343-.042-.685-.09-1.023-.144-2.792-24.66 5.582-43.524 11.254-51.583.421-.009.84-.019 1.254-.03ZM58.553 57.724c1.678 8.771 4.65 16.683 7.155 21.867a15.962 15.962 0 0 1-1.358-.531c-2.435-5.246-5.184-12.813-6.779-21.149-1.815-9.492-2.142-20.035 1.255-29.289.345.022.693.043 1.044.063-3.42 9.08-3.134 19.536-1.316 29.039ZM50.105 51.723c-3.037-11.106-2.678-20.108-1.976-24.131.326.044.657.088.992.13-.676 3.829-1.068 12.708 1.948 23.737l-.964.264ZM64.354 51.6c-.173-9.882 3.247-18.538 5.466-22.559.377.006.757.012 1.14.016-2.12 3.64-5.783 12.435-5.606 22.526l-1 .017ZM92.538 28.496c.51-.037 1.014-.077 1.51-.118-3.092 3.043-5.92 7.371-8.235 11.651-2.464 4.558-4.322 9.02-5.277 11.729l-.943-.333c.971-2.755 2.85-7.265 5.34-11.871 2.133-3.944 4.728-7.988 7.605-11.058ZM80.949 94.393c7.265-.327 13.908-1.215 19.408-2.41l.213.976c-5.56 1.21-12.26 2.104-19.576 2.433l-.045-1Z"
    fill="var(--theme-3, var(--theme-1, #E9E9E2))"
  />
  <path
    fill-rule="evenodd"
    clip-rule="evenodd"
    d="M27.933 19.61a2.566 2.566 0 0 1-.267-1.124c0-.824.418-1.573 1.093-2.234.674-.661 1.642-1.274 2.843-1.844 2.404-1.14 5.85-2.153 10.07-3C50.118 9.715 61.765 8.67 74.614 8.67s24.495 1.044 32.942 2.739c4.219.846 7.666 1.86 10.07 3 1.201.569 2.168 1.182 2.842 1.843.675.661 1.094 1.41 1.094 2.234 0 .393-.095.768-.267 1.125-.158.55-.347 1.099-.562 1.644 1.754-.16 5.131-.326 7.64.048 3.562.531 7.692 3.755 8.524 8.746.413 2.48.121 4.988-1.118 7.442-1.236 2.448-3.398 4.812-6.679 7.036-6.448 4.37-16.989 10.648-29.002 13.075-.189.228-.378.452-.567.673l-.073.086-.15.175-.194.226c-1.516 1.768-2.863 3.338-3.35 5.156-.585 2.184-2.117 5.38-3.786 8.312a63.813 63.813 0 0 1-1.776 2.936c3.201.349 6.801.898 10.566 1.78 5.321 1.247 9.036 2.72 11.545 4.134 2.495 1.405 3.848 2.781 4.361 3.864l.049.102v3.8c0 .748-.377 1.456-.974 2.102-.599.65-1.46 1.28-2.532 1.886-2.145 1.212-5.219 2.372-8.983 3.38-7.535 2.02-17.923 3.456-29.385 3.456-11.463 0-21.85-1.436-29.386-3.455-2.236-.6-4.23-1.252-5.929-1.938l.03.018c-.264.42-.453 1.07-.575 1.761-.087.492-.134.973-.155 1.349l.023.006c.687-.546 1.72-1.125 2.825-1.227a3.19 3.19 0 0 1 1.898.39c.617.35 1.157.935 1.585 1.791.529 1.058.677 1.964.594 2.764-.081.792-.385 1.436-.684 1.966-.081.145-.175.303-.262.448-.06.1-.116.194-.161.274-.127.22-.222.404-.281.573a.92.92 0 0 0-.062.414c.013.115.059.25.181.416l.248.335-.285.304c-.958 1.021-2.913 3.741-4.091 6.5-.59 1.381-.963 2.724-.95 3.844.014 1.087.385 1.917 1.251 2.428l.003-.004.032.022.03.02.428.247-.001.001c1.1.588 3.322 1.468 6.5 2.341 3.733 1.025 8.735 2.027 14.673 2.527l-.084.996c-6-.505-11.063-1.518-14.854-2.559-3.252-.893-5.607-1.818-6.808-2.478l-.056.081c-1.286 1.853-2.715 3.913-3.629 6.12-.985 2.379-1.347 4.873-.298 7.407.082.198.173.393.271.584.092-.129.186-.255.283-.38a10.417 10.417 0 0 1 2.283-2.13 8.695 8.695 0 0 1 2.79-1.258.56.56 0 0 1 .594.149c.2.147.305.412.314.797 1.366.386 2.398.958 3.096 1.715.702.731.996 1.579.884 2.544-.072.617-.267 1.362-.586 2.235a10.666 10.666 0 0 1-1.362 2.656l.017.007c4.139 1.655 9.137 2.684 13.845 3.315l-.133.992c-4.744-.637-9.835-1.68-14.084-3.379l-.125-.05-.048-.02-.114-.046c-.402.46-.855.891-1.359 1.294-.81.673-1.772 1.128-2.885 1.363a5.31 5.31 0 0 1-2.048.119 4.097 4.097 0 0 1-1.706-.722c-.474-.36-.852-.84-1.135-1.439-.28-.626-.408-1.389-.384-2.289.042-1.06.243-2.092.604-3.094.189-.495.407-.965.653-1.411a9.449 9.449 0 0 1-.223-.394c-1.651 2.307-3.605 5.89-4.422 9.533-.899 4.007-.405 7.948 3.184 10.452 1.92 1.34 4.278 2.477 6.83 3.435.118-.114.238-.222.358-.322.522-.413 1.08-.609 1.674-.588.89.033 1.625.383 2.204 1.053.401.444.753.958 1.056 1.541a85.16 85.16 0 0 0 8.457 1.796c.198-.342.434-.677.709-1.006.613-.712 1.376-1.359 2.288-1.941.912-.582 2.014-1.046 3.306-1.391l.727-.174-1.08-6.382c-.085-.485-.063-.931.068-1.338.157-.407.465-.642.924-.704.404-.06.756.042 1.056.307.327.265.533.612.619 1.043a388.432 388.432 0 0 1 1.595 9.249c.519 3.043.982 6.033 1.39 8.969.117.782.069 1.322-.144 1.623-.213.274-.468.48-.763.62-.323.14-.633.146-.931.015-.272-.13-.45-.37-.535-.72l-.043-.242-.161.043a9.73 9.73 0 0 1-2.788.613 8.725 8.725 0 0 1-2.798-.318 6.608 6.608 0 0 1-2.403-1.257c-.682-.61-1.176-1.385-1.483-2.325-.426-1.317-.425-2.565.005-3.743a87.051 87.051 0 0 1-7.495-1.566c.364.892.647 1.828.848 2.806.218 1.061.4 2 .542 2.815.145.735-.19 1.263-1.008 1.585-.383.175-.666.192-.852.05-.186-.142-.29-.281-.315-.417-.127-.328-.29-.902-.486-1.719-.17-.817-.381-1.648-.631-2.495a12.062 12.062 0 0 0-.8-2.217c-.31-.633-.667-.929-1.073-.89-.486.009-.926.358-1.32 1.046a38.346 38.346 0 0 0-1.056 1.866 79.82 79.82 0 0 0-1.02 2.071c-.34.69-.68 1.393-1.021 2.11a79.355 79.355 0 0 1-.895 1.913c-.193.182-.44.308-.738.379a1.566 1.566 0 0 1-.848-.112 1.36 1.36 0 0 1-.638-.429c-.158-.194-.234-.386-.23-.575-.194-2.114-.406-4.04-.636-5.778a67.447 67.447 0 0 0-.849-5.339c-.174-.628-.203-1.115-.087-1.462a.614.614 0 0 1 .364-.362 23.868 23.868 0 0 1-.465-.315c-1.451-1.013-2.444-2.232-3.077-3.572-1.019 1.663-2.125 4.026-2.8 6.64-.602 2.329-.855 4.827-.426 7.196.424.42.682.793.776 1.12.162.475.166.882.011 1.22a1.693 1.693 0 0 1-.054.121c1.538 3.548 5.71 7.532 13.074 10.677 4.5 1.922 10.172 3.521 17.116 4.51l-.071-.675c-.061-.589-.12-1.195-.175-1.817-5.72-.764-10.863-1.949-15.123-3.45-3.88-1.368-7.056-3.009-9.272-4.855-2.212-1.845-3.523-3.945-3.523-6.223h1c0 1.864 1.07 3.71 3.163 5.454 2.09 1.743 5.146 3.334 8.965 4.68 4.133 1.458 9.13 2.617 14.704 3.373-.046-.563-.09-1.138-.13-1.727-.14-1.343.277-2.025 1.25-2.046.326.002.63.198.915.589.282.364.448.787.498 1.271.066.644.128 1.371.185 2.181l.007.064c3.945.429 8.139.66 12.489.66 7.42 0 14.388-.672 20.439-1.85a333.641 333.641 0 0 1-.93-3.842c-.338-1.44-.619-2.77-.84-3.99-.05-.653-.044-1.209.019-1.669.058-.486.299-.768.722-.846.45-.085.794.023 1.033.324.26.267.442.638.545 1.111.563 2.718 1.223 5.51 1.98 8.378 2.516-.574 4.845-1.238 6.95-1.981a44.064 44.064 0 0 0 3.061-1.202 334.442 334.442 0 0 1-.914-3.434 80.146 80.146 0 0 1-.935-3.967c-.065-.652-.072-1.21-.021-1.672.047-.489.28-.78.7-.873.446-.1.792-.004 1.037.289.266.259.456.623.57 1.094.56 2.417 1.199 4.891 1.918 7.423 1.38-.74 2.57-1.522 3.548-2.338 2.094-1.744 3.164-3.59 3.164-5.454h1c0 2.278-1.311 4.378-3.523 6.223-1.083.902-2.396 1.755-3.908 2.552l.05.171.068.234c.135.46.27.916.406 1.369 6.431-4.089 9.286-9.428 8.518-15.098-.41-3.027-.878-4.648-1.229-5.498-.174-.424-.315-.645-.396-.75l-.014-.018-.252-.111c.211-.482.584-.911 1.039-1.314.457-.405 1.026-.808 1.667-1.227.474-.31.983-.628 1.524-.965l.002-.001.001-.001c.952-.594 2.003-1.249 3.132-2.033 3.502-2.432 7.553-5.976 10.493-11.993 1.894-3.878 2.211-9.735.994-15.685-1.214-5.94-3.939-11.876-8.017-15.91-3.955-3.914-8.977-5.602-13.81-5.933-4.84-.331-9.455.703-12.549 2.193l-.434-.901c3.255-1.567 8.044-2.632 13.051-2.29 5.013.343 10.282 2.1 14.446 6.22 4.254 4.209 7.05 10.344 8.293 16.421 1.241 6.067.952 12.173-1.076 16.324-3.039 6.22-7.232 9.883-10.82 12.375a75.958 75.958 0 0 1-3.215 2.087c-.534.333-1.029.642-1.467.928-.629.412-1.151.784-1.552 1.139a4.674 4.674 0 0 0-.423.421c.095.168.199.379.308.643.396.961.88 2.675 1.295 5.745.711 5.252-1.467 10.14-6.232 14.09-.759.955-1.697 1.871-2.797 2.74a302.043 302.043 0 0 0 1.753 5.584c.293 1.146.091 1.833-.604 2.062a.802.802 0 0 1-.496-.025 2.198 2.198 0 0 1-.517-.355 10.63 10.63 0 0 1-.499-.485 1.943 1.943 0 0 1-.297-.502 129.18 129.18 0 0 1-1.375-4.133l-.185-.589c-2.68 1.679-6.002 3.142-9.795 4.33.311 1.086.623 2.152.936 3.197.266 1.153.047 1.832-.655 2.036a.814.814 0 0 1-.497-.042 2.26 2.26 0 0 1-.51-.372c-.16-.154-.323-.321-.488-.502a1.914 1.914 0 0 1-.286-.51c-.321-.984-.642-2.014-.962-3.092-3.425.921-7.187 1.634-11.189 2.101.11.366.223.725.341 1.078.178.513.37.926.575 1.241.243.389.398.837.467 1.346.091.476.004.838-.261 1.087-.338.319-.736.389-1.195.211a2.285 2.285 0 0 1-1.097-.883c-.366-.501-.682-1.136-.95-1.905a26.743 26.743 0 0 1-.569-1.902 97.45 97.45 0 0 1-9.856.347c.183.493.349.998.497 1.515.278.856.5 1.694.667 2.513.163.793.302 1.48.417 2.062.044.43-.026.797-.212 1.1-.185.303-.424.478-.717.526-.214.034-.494-.057-.842-.273a2.466 2.466 0 0 1-.748-.944 13.018 13.018 0 0 1-.386-1.371 85.314 85.314 0 0 0-.484-1.928 30.119 30.119 0 0 0-.625-2.111 11.9 11.9 0 0 0-.462-1.175 94.274 94.274 0 0 1-4.101-.269 17.585 17.585 0 0 0-.944 2.829 33.071 33.071 0 0 0-.558 3.245 75.72 75.72 0 0 0-.217 2.616c-.056.501-.168.86-.335 1.078a.827.827 0 0 1-.535.333c-.213.034-.424-.041-.633-.225a5.867 5.867 0 0 1-.559-.688c-.167-.3-.32-.603-.46-.908a4.854 4.854 0 0 1-.292-.854 132.548 132.548 0 0 1-.75-4.097c-.218-1.33-.424-2.662-.617-3.996l-.005-.048a74.266 74.266 0 0 1-8.545-1.833c.172.227.314.488.428.783.069.209.085.438.048.687-.039.221-.174.412-.406.573-.18.128-.406.194-.676.196-.273-.025-.513-.175-.721-.451-.47-.519-1.012-.744-1.63-.677a3.063 3.063 0 0 0-1.502.571 4.359 4.359 0 0 0-1.097 1.137c-.294.439-.53.926-.71 1.461a6.846 6.846 0 0 0-.336 1.584c-.068.957.148 1.734.65 2.331.5.597 1.234.842 2.2.737.781-.058 1.643-.301 2.587-.729a14.726 14.726 0 0 0 2.685-1.636 3.506 3.506 0 0 1 1.027-.397c.32-.062.6.07.84.397.298.402.261.853-.11 1.355-.372.475-.882.924-1.528 1.347a18.25 18.25 0 0 1-2.064 1.243c-.706.348-1.43.631-2.172.847a7.965 7.965 0 0 1-2.255.246 5.144 5.144 0 0 1-2.107-.544c-1.068-.589-1.755-1.519-2.06-2.788-.304-1.27-.303-2.613.004-4.031a8.03 8.03 0 0 1 .578-1.609 7.592 7.592 0 0 1 .945-1.569c.4-.478.844-.893 1.334-1.244a4.822 4.822 0 0 1 1.646-.831c.24-.066.48-.116.719-.149-5.815-2.051-10.346-4.78-12.89-7.954-3.156-2.26-5.236-4.698-6.302-7.051l-.036-.001c-.403-.036-.865-.226-1.386-.57-.392.236-.84.494-1.342.774-.5.254-1.029.505-1.584.753-.553.222-1.104.417-1.655.584a7.437 7.437 0 0 1-1.517.312c-.869.058-1.64-.173-2.313-.693-.646-.519-1.064-1.247-1.254-2.185a5.044 5.044 0 0 1-.013-1.911 5.107 5.107 0 0 1 .713-1.847 5.615 5.615 0 0 1 1.386-1.542 5.979 5.979 0 0 1 2.04-.956c.193-.065.453-.109.779-.134a4.566 4.566 0 0 1 1.05.053c.377.033.75.134 1.119.302.369.169.705.429 1.01.781.026-.458.04-.958.044-1.499.032-.566.051-1.134.056-1.702a25.41 25.41 0 0 0-.03-1.588c.001-.515-.015-.949-.048-1.305-.031-.409-.179-.666-.443-.771-.236-.129-.546-.143-.93-.042-.658.158-1.435.509-2.33 1.052a28.091 28.091 0 0 0-2.574 1.763 1.007 1.007 0 0 1-.865.248 1.263 1.263 0 0 1-.746-.433 1.223 1.223 0 0 1-.322-.76c-.01-.299.115-.599.376-.901a26.023 26.023 0 0 1 1.618-1.36 13.69 13.69 0 0 1 1.853-1.216 9.817 9.817 0 0 1 1.956-.883 5.518 5.518 0 0 1 1.961-.272c.943.057 1.657.337 2.142.841.486.477.763 1.07.831 1.781.065.764.1 1.58.104 2.448l.003.074c.8-2.926 2.101-5.523 3.231-7.214-.67-2.132-.572-4.488-.06-6.767.91-4.06 3.151-8.005 4.924-10.36-1.049-2.765-.608-5.453.406-7.902.957-2.312 2.446-4.457 3.722-6.295l.042-.06c-.937-.742-1.311-1.817-1.325-2.992-.016-1.323.418-2.816 1.03-4.249 1.13-2.65 2.941-5.257 4.027-6.51a1.707 1.707 0 0 1-.155-.539c-.035-.308.02-.596.112-.859.091-.258.224-.507.358-.741.066-.114.126-.214.185-.313.076-.127.15-.252.234-.399.272-.484.5-.986.56-1.579.06-.585-.038-1.302-.493-2.213-.359-.718-.774-1.137-1.185-1.37a2.19 2.19 0 0 0-1.313-.263c-.938.087-1.885.648-2.47 1.161l-.206.18-1.281-.37.004-.38c.005-.44.054-1.152.184-1.888.118-.67.311-1.41.632-1.983a23.836 23.836 0 0 1-2.156-1.066c-1.072-.606-1.933-1.237-2.532-1.886-.597-.646-.973-1.354-.974-2.102h-.044v-3.8l.048-.102c1.003-2.114 4.308-5.341 15.908-7.999a92.007 92.007 0 0 1 10.182-1.713 63.524 63.524 0 0 1-1.818-3.002c-1.67-2.931-3.2-6.128-3.786-8.312-.487-1.818-1.834-3.388-3.35-5.156l-.417-.487c-1.646-1.93-3.366-4.09-3.924-6.918-.527-2.673-.914-3.618-1.498-4.432-.232-.323-.493-.624-.826-1.007l-.355-.41a30.219 30.219 0 0 1-1.888-2.438c-1.556-2.223-2.423-4.387-3.156-6.26l-.059-.15c-.716-1.83-1.295-3.31-2.247-4.394-1.054-1.2-2.77-3.226-4.37-5.64-1.403-2.115-2.733-4.554-3.441-7.015Zm.733-1.173c.016-.449.25-.94.793-1.471.564-.553 1.421-1.11 2.571-1.654 2.297-1.09 5.652-2.083 9.838-2.923C50.233 10.711 61.81 9.67 74.614 9.67c12.803 0 24.381 1.041 32.745 2.719 4.187.84 7.542 1.834 9.839 2.923 1.149.545 2.007 1.101 2.571 1.654.542.532.776 1.023.792 1.471-.058.27-.126.539-.202.809a3.12 3.12 0 0 1-.59.76c-.564.553-1.422 1.11-2.571 1.655-2.297 1.089-5.652 2.083-9.839 2.922-8.364 1.678-19.941 2.72-32.745 2.72-12.804 0-24.381-1.042-32.746-2.72-4.186-.84-7.541-1.833-9.838-2.922-1.15-.546-2.007-1.102-2.57-1.654a3.133 3.133 0 0 1-.591-.76 14.06 14.06 0 0 1-.203-.81Zm.994 3.023c.686 1.6 1.59 3.17 2.547 4.614 1.564 2.359 3.246 4.346 4.288 5.532 1.072 1.22 1.709 2.85 2.393 4.603l.093.236c.731 1.869 1.563 3.935 3.044 6.051.114.163.225.319.332.466-1.873-5.831-2.9-13.081-3.274-17.09.334.087.677.173 1.029.257.466 4.74 1.778 13.426 4.18 19.234.297.343.563.654.795.979.716.996 1.134 2.12 1.667 4.822.502 2.546 2.056 4.53 3.703 6.462l.44.512v.001c1.48 1.72 2.983 3.469 3.533 5.52.55 2.055 2.028 5.16 3.69 8.076 1.663 2.92 3.461 5.566 4.621 6.726.87.871 2.521 1.62 4.614 2.156 2.072.532 4.502.839 6.857.877 2.502.041 5.133-.265 7.372-.817 2.263-.559 4.035-1.349 4.903-2.216 1.16-1.16 2.958-3.805 4.622-6.726 1.66-2.916 3.139-6.02 3.689-8.076.55-2.051 2.052-3.799 3.532-5.52l.44-.513c1.648-1.932 3.202-3.916 3.704-6.462.533-2.702.951-3.826 1.667-4.822.261-.364.563-.713.906-1.106.105-.122.214-.247.327-.38a29.142 29.142 0 0 0 1.829-2.36c1.481-2.116 2.313-4.182 3.044-6.05l.093-.237c.684-1.753 1.321-3.384 2.392-4.603 1.043-1.186 2.725-3.173 4.289-5.532.957-1.444 1.861-3.014 2.547-4.614-.549.385-1.201.753-1.942 1.104-2.404 1.14-5.851 2.154-10.07 3-8.447 1.694-20.093 2.738-32.942 2.738-12.85 0-24.496-1.044-32.942-2.738-4.22-.846-7.666-1.86-10.07-3-.741-.351-1.393-.719-1.942-1.104Zm19.45 56.46c3.772-.864 7.378-1.405 10.579-1.75.449.66.884 1.263 1.29 1.782l-.143-.066c-.566 1.226-1.714 2.095-2.986 2.681-1.267.584-2.596.858-3.416.929l.086.996c.92-.08 2.363-.378 3.749-1.017 1.27-.585 2.548-1.483 3.294-2.815.164.189.322.359.47.508 1.068 1.067 2.937 1.87 5.073 2.418 2.157.554 4.666.868 7.09.908 2.586.042 5.304-.273 7.627-.846 2.299-.568 4.3-1.41 5.371-2.48.15-.149.307-.32.471-.508.746 1.332 2.023 2.23 3.294 2.815 1.386.639 2.828.937 3.749 1.017l.086-.996c-.82-.072-2.149-.345-3.416-.929-1.272-.586-2.42-1.455-2.986-2.681l-.144.066c.42-.535.87-1.16 1.334-1.846 3.296.342 7.039.895 10.958 1.814 5.256 1.231 8.876 2.675 11.282 4.031 2.328 1.312 3.474 2.515 3.901 3.325v3.57c0 .4-.203.877-.708 1.424-.503.544-1.268 1.115-2.29 1.693-2.042 1.155-5.027 2.288-8.75 3.286-7.44 1.994-17.74 3.421-29.126 3.421-11.388 0-21.687-1.427-29.127-3.421-3.723-.998-6.708-2.131-8.75-3.286-1.022-.578-1.787-1.149-2.29-1.693-.505-.547-.708-1.024-.708-1.424h-.044v-3.572c.859-1.693 3.856-4.76 15.18-7.354Zm79.429-34.22c-6.201 4.201-16.138 10.127-27.472 12.673.888-1.197 1.676-2.513 2.139-4.025.436.255 1.062.371 1.902.322.69-.04 1.848-.365 3.222-.847 1.396-.49 3.074-1.163 4.836-1.936 3.519-1.544 7.403-3.503 10.053-5.222.837-.543 1.711-1.075 2.586-1.607 1.804-1.1 3.608-2.197 5.073-3.382 2.195-1.775 3.801-3.871 3.607-6.681-.374-5.427-4.621-8.033-8.024-8.108-2.176-.049-5.669.198-7.743.376.6-.996 1.163-2.044 1.641-3.116l.016.148c1.527-.166 5.225-.394 7.851-.003 3.164.472 6.929 3.389 7.684 7.922.381 2.283.113 4.575-1.024 6.827-1.139 2.257-3.166 4.503-6.347 6.658Zm-25.032 7.407h-.002c.502-2.483.882-3.394 1.448-4.182.232-.323.493-.624.826-1.007l.004-.005.351-.406a30.274 30.274 0 0 0 1.888-2.437c1.556-2.223 2.423-4.387 3.156-6.26l.059-.15c.716-1.83 1.294-3.31 2.247-4.394 1.054-1.2 2.77-3.226 4.37-5.64l.198-.3c1.857-.172 5.978-.493 8.387-.44 2.966.066 6.715 2.343 7.049 7.178.16 2.32-1.135 4.133-3.239 5.835-1.414 1.143-3.116 2.179-4.885 3.255-.889.54-1.795 1.092-2.689 1.672-2.586 1.678-6.416 3.611-9.911 5.145-1.746.766-3.4 1.429-4.765 1.908-1.387.486-2.419.762-2.949.793-.921.053-1.303-.135-1.442-.262-.119-.108-.123-.228-.101-.303ZM62.162 187.74c.085-.232.178-.463.28-.694l-.38-.045.1.739Zm.752-1.646a75.748 75.748 0 0 1-.99-.118l-.113-.842-.056-.53c.647.072 1.305.139 1.972.201-.281.37-.537.773-.768 1.208l-.018.033-.027.048Zm2.788.274c.99.081 1.993.148 3.008.199-.225-.376-.473-.668-.744-.875a1.155 1.155 0 0 0-1.156-.181c-.416.155-.785.44-1.108.857Zm6.035.304a97.681 97.681 0 0 0 10.024-.324 36.286 36.286 0 0 1-.25-1.198c-2.006.107-4.087.162-6.242.162-1.45 0-2.866-.022-4.245-.064.253.426.486.89.699 1.391l.014.033Zm-1.4-2.448c1.594.058 3.238.088 4.932.088 2.101 0 4.13-.052 6.084-.155l-.145-1.076c-.024-.38.035-.75.176-1.11.088-.222.202-.397.343-.526-2.59.173-5.263.263-7.994.263-4.304 0-8.461-.224-12.384-.642l.147 1.416c.049.362.096.73.141 1.103.957.108 1.936.206 2.937.291a7.21 7.21 0 0 1 .857-.681 4.34 4.34 0 0 1 1.682-.641 2.54 2.54 0 0 1 1.826.359c.518.307.984.745 1.398 1.311Zm12.483-2.857c.158.076.306.186.443.331.345.34.545.821.602 1.442.036.266.078.548.126.845 4.061-.317 7.778-.857 11.143-1.588-.242-.855-.48-1.712-.712-2.569-3.587.701-7.486 1.224-11.602 1.539Zm14.14-2.076c.229.847.458 1.683.687 2.508 3.821-.992 7.133-2.248 9.923-3.712-.2-.656-.397-1.313-.592-1.971-.943.409-1.943.8-2.994 1.171-2.133.751-4.487 1.424-7.024 2.004Zm-1.551 4.07c-3.406.743-7.157 1.291-11.244 1.614.073.372.156.741.25 1.109 4.005-.46 7.765-1.169 11.178-2.085l-.035-.121-.15-.517Zm2.654-.08c-.05-.172-.098-.345-.147-.519 3.157-.82 5.982-1.821 8.465-2.973-2.346 1.318-5.147 2.497-8.318 3.492Zm-39.1.974c.05.443.1.884.152 1.322-3.483-.556-6.738-1.305-9.689-2.217-4.44-1.371-8.166-3.1-10.954-5.066a45.19 45.19 0 0 0 2.87 1.345c4.646 1.984 10.487 3.619 17.62 4.616Zm-21.8-27.191c.037.117.068.242.092.373.072.408.142.87.211 1.386.097.49.193 1.006.288 1.55.096.517.179 1.047.247 1.589.069.543.124 1.059.167 1.546.34-.69.708-1.419 1.104-2.188.396-.769.817-1.47 1.264-2.102.124-.173.249-.336.374-.492a38.335 38.335 0 0 1-3.746-1.662Zm1.108-19.732c-.07.177-.136.358-.197.543a6.888 6.888 0 0 0-.349 1.949c.01.385.085.673.225.863.141.19.314.331.52.423.21.066.452.083.727.051.275-.032.539-.08.79-.144a8.04 8.04 0 0 0 .764-.271c.231-.122.421-.238.57-.348.227-.155.445-.324.654-.505-1.398-.746-2.656-1.594-3.704-2.561Zm4.438 1.817a8 8 0 0 0 .7-.958c.57-.937.978-1.999 1.225-3.187.019-.161-.069-.341-.262-.541a2.414 2.414 0 0 0-.795-.514 6.135 6.135 0 0 0-1.047-.438 5.838 5.838 0 0 0-1.151-.251c-.452.383-.895.809-1.329 1.278-.434.468-.82.987-1.158 1.555a7.108 7.108 0 0 0-.17.29c1.072 1.041 2.425 1.959 3.987 2.766ZM22.192 163.56c-.354.049-.74.191-1.16.425-.39.209-.757.488-1.1.836a3.684 3.684 0 0 0-.756 1.152 2.126 2.126 0 0 0-.073 1.294.644.644 0 0 0 .302.393.94.94 0 0 0 .603.094c.653-.077 1.393-.269 2.222-.574.856-.33 1.54-.703 2.05-1.118.01-.162-.06-.371-.208-.628a5.375 5.375 0 0 0-.52-.819 3.708 3.708 0 0 0-.688-.752c-.231-.21-.455-.311-.672-.303Zm35.203 1.481c.169.645.47 1.14.906 1.484.436.344.952.578 1.547.703.595.099 1.23.102 1.904.01a10.124 10.124 0 0 0 1.98-.479l.362-.127-1.208-7.109-.808.216a9.219 9.219 0 0 0-1.814.799 7.418 7.418 0 0 0-1.648 1.202 5.2 5.2 0 0 0-1.118 1.558 2.581 2.581 0 0 0-.103 1.743Z"
    fill="var(--theme-2, var(--theme-1, #E9E9E2))"
  />
  <path
    fill-rule="evenodd"
    clip-rule="evenodd"
    d="M103.397 106.382c1.088-.61 5.339-2.994 11.655-2.412 5.426.5 9.184 2.758 11.836 5.975 2.637 3.199 4.157 7.317 5.184 11.511 2.078 8.492.263 15.665-5.522 22.082-2.363 2.622-5.173 3.673-7.627 3.935-2.139.228-4.035-.142-5.156-.612-1.144 4.222-4.732 7.241-10.115 9.667l-.411-.912c6.212-2.8 9.627-6.236 9.902-11.165.096-1.724-.592-3.861-1.557-5.863a26.182 26.182 0 0 0-2.352-3.947 6.005 6.005 0 0 1-.488 1.157c-.546.979-1.537 1.843-2.754 2.604-1.224.767-2.72 1.456-4.331 2.068l-.355-.935c1.576-.598 3.007-1.261 4.156-1.98 1.157-.725 1.984-1.48 2.411-2.244.52-.934.745-2.151.732-3.552-.013-1.397-.262-2.941-.656-4.5-.738-2.927-1.968-5.853-3.014-7.863a7.566 7.566 0 0 1-1.146.804c-1.653.957-3.96 1.609-6.84 2.219l-.207-.978c2.875-.609 5.043-1.236 6.546-2.107 1.472-.852 2.279-1.919 2.495-3.449.13-.927-.045-2.334-.552-3.895-.504-1.55-1.32-3.204-2.421-4.62l-.352-.453.705-.408.015-.008c.046-.022.119-.064.219-.119Zm15.42 40.097c-2.132.227-3.944-.196-4.829-.614.076-.441.127-.893.153-1.359.111-1.982-.669-4.307-1.654-6.352-.939-1.95-2.1-3.715-2.976-4.793.07-.519.099-1.059.094-1.611-.014-1.501-.281-3.128-.686-4.735-.796-3.159-2.144-6.301-3.25-8.372.584-.727.958-1.586 1.104-2.619.16-1.136-.06-2.708-.591-4.343a16.62 16.62 0 0 0-2.237-4.461c1.22-.679 5.171-2.793 11.015-2.254 5.162.476 8.674 2.605 11.156 5.615 2.496 3.028 3.972 6.975 4.984 11.113 2 8.172.269 15.005-5.292 21.174-2.175 2.413-4.744 3.371-6.991 3.611Z"
    fill="var(--theme-1, var(--theme-1, #E9E9E2))"
  />
  <path
    d="M28.244 124.672c.625-.74 1.175-1.332 1.648-1.775.3-.373.42-.732.361-1.077-.054-.371-.163-.645-.328-.821a.92.92 0 0 0-.687-.324c-.267-.033-.527.072-.78.318a28.583 28.583 0 0 0-5.095 6.078 23.949 23.949 0 0 0-2.984 7.268c-.15.655-.288 1.411-.414 2.265-.095.835-.094 1.663.003 2.486.1.797.331 1.54.693 2.231.387.696.964 1.215 1.73 1.557a1.86 1.86 0 0 0 1.028-.054 7.947 7.947 0 0 0 2.214-1.189 9.422 9.422 0 0 0 1.83-1.899 7.983 7.983 0 0 0 1.159-2.343c.26-.852.349-1.729.264-2.632-.042-.645-.214-1.14-.517-1.486-.303-.346-.634-.588-.995-.726a3.399 3.399 0 0 0-.862-.239 2.735 2.735 0 0 0-.735-.003 1.733 1.733 0 0 0-.554.162c-.143.05-.245.096-.305.137-.205.284-.212.518-.021.699.19.182.436.363.736.543.304.152.593.315.867.489.304.152.465.355.482.608.038.478-.07 1.033-.326 1.664a8.801 8.801 0 0 1-.993 1.761 7.403 7.403 0 0 1-1.391 1.419c-.492.385-.96.608-1.404.672-.106-.024-.163-.093-.174-.206-.266-.972-.344-2.012-.236-3.119.138-1.128.386-2.259.742-3.392a24.425 24.425 0 0 1 1.437-3.398 42.432 42.432 0 0 1 1.763-3.115c.63-.96 1.245-1.813 1.844-2.559ZM18.152 128.06c-.544.601-1.086 1.189-1.626 1.764a59.544 59.544 0 0 0-1.792 2.011l-2.186 2.612c-.832.995-1.814 2.213-2.945 3.655a4.43 4.43 0 0 1-.795.783.9.9 0 0 1-.805.151c-.39-.109-.683-.302-.88-.58a5.886 5.886 0 0 1-.41-.911 66.718 66.718 0 0 1-1.668-5.572 44.303 44.303 0 0 1-1.096-5.79.636.636 0 0 1 .078-.439c.112-.164.237-.255.377-.272.283-.06.624.021 1.02.244.29.22.558.547.809.979.25.433.433.861.549 1.284.09.416.196.892.318 1.428.123.537.251 1.117.386 1.741l.495 1.813c.166.604.34 1.155.524 1.653.585-.674 1.204-1.394 1.86-2.159l2.058-2.355a76.344 76.344 0 0 1 2.051-2.315 28.87 28.87 0 0 1 2.02-1.905.682.682 0 0 1 .602-.166c.239.038.482.204.73.497.56.686.669 1.303.326 1.849ZM84.217 176.377c.313-.094.478-.28.495-.559.003-.385-.146-.684-.447-.896-.273-.217-.63-.348-1.071-.393-.302-.019-.677.019-1.126.114a9.053 9.053 0 0 0-1.421.341 9.708 9.708 0 0 0-1.389.582 6.71 6.71 0 0 0-1.174.661 3.213 3.213 0 0 0-.506.479.706.706 0 0 0-.168.572c.155.545.43.872.825.981.395.109.744.077 1.047-.097.737-.376 1.442-.69 2.114-.942a20.35 20.35 0 0 1 2.034-.635c.211-.045.473-.114.787-.208Z"
    fill="var(--theme-1, var(--theme-1, #E9E9E2))"
  />
  <path
    d="M74.614 22.8019C100.267 22.8019 121.062 18.6309 121.062 13.4859C121.062 8.34092 100.267 4.16992 74.614 4.16992C48.961 4.16992 28.166 8.34092 28.166 13.4859C28.166 18.6319 48.961 22.8019 74.614 22.8019Z"
    fill="var(--theme-1, var(--theme-1, #E9E9E2))"
    fill-opacity="0.4"
  />
  <g id="v_60_min">
    <path
      d="M71.938 99.2378C73.449 103.588 73.416 115.938 73.197 130.535C73.117 135.825 72.637 140.527 71.899 144.571C71.216 148.313 67.857 150.802 64.065 151.107C45.225 152.624 31.187 158.477 31.187 165.466C31.187 173.607 50.235 180.207 73.733 180.207C97.23 180.207 116.279 173.607 116.279 165.466C116.279 160.934 110.375 156.879 101.087 154.175C96.832 152.936 91.867 151.981 86.434 151.393C82.375 150.954 78.754 148.351 77.922 144.354C77.09 140.359 76.544 135.731 76.466 130.535C76.246 115.938 76.214 103.588 77.726 99.2378H71.938Z"
      fill="var(--theme-1, var(--theme-1, #E9E9E2))"
      fill-opacity="0.2"
    />
    <animate
      attributeName="opacity"
      values="1;1;0;0;0;0"
      keyTimes="0;0.33;0.34;0.66;0.67;1"
      dur="2s"
      repeatCount="indefinite"
    />
  </g>
  <g id="v_60_mid">
    <path
      d="M73.2581 131.018C73.4776 116.421 73.5103 104.071 71.9993 99.7212H77.7864C76.2753 104.071 76.3081 116.421 76.5276 131.018C76.5342 131.458 76.5442 131.894 76.5574 132.326C76.6661 135.879 79.6811 138.548 83.2352 138.628C99.2867 138.988 107.261 140.495 111.313 143.547C111.571 143.741 111.772 144.005 111.838 144.321C111.994 145.069 111.991 146.301 111.206 147.504C113.326 151.308 117.33 160.532 116.377 167.001C116.342 167.239 116.232 167.464 116.051 167.676C113.582 175.004 95.6049 180.69 73.7941 180.69C51.5124 180.69 33.2313 174.755 31.3991 167.199C30.8081 166.815 30.0065 164.987 30.6589 159.973C31.3662 154.535 33.2745 152.108 34.1402 151.573C33.7662 151.053 33.1051 149.72 33.1073 148.168C33.1079 147.758 33.2873 147.372 33.5901 147.095C36.1504 144.758 44.8748 139.763 66.5438 138.731C70.1205 138.56 73.1337 135.845 73.2317 132.266C73.2429 131.854 73.2518 131.438 73.2581 131.018Z"
      fill="var(--theme-1, var(--theme-1, #E9E9E2))"
      fill-opacity="0.35"
    />
    <animate
      attributeName="opacity"
      values="0;0;1;1;0;0"
      keyTimes="0;0.33;0.34;0.66;0.67;1"
      dur="2s"
      repeatCount="indefinite"
    />
  </g>

  <g id="v_60_full">
    <path
      d="M75.0276 107.733C75.0276 105.609 74.7119 103.013 74.5057 101.318C74.4783 101.092 74.4528 100.882 74.4302 100.692L76.8198 100.692C76.6278 101.119 76.1669 102.715 75.8597 105.685C75.4756 109.397 75.0276 110.741 75.0276 107.733Z"
      fill="var(--theme-1, var(--theme-1, #E9E9E2))"
      fill-opacity="0.5"
    />
    <path
      d="M33.722 148.427C33.7887 145.949 34.6905 141.553 38.0192 138.909L38.6579 137.586L39.4791 136.354C38.3082 134.104 37.1707 128.352 41.9883 123.352C44.3776 121.79 54.474 118.665 75.7451 118.665C97.0162 118.665 104.229 120.865 105.176 121.965C106.506 125.231 108.913 132.478 107.904 135.336C109.332 137.425 112.135 142.165 112.339 144.979C112.546 145.68 112.646 147.061 111.768 148.407C113.889 152.211 117.892 161.435 116.94 167.903C116.904 168.142 116.794 168.367 116.613 168.579C114.145 175.906 96.1671 181.593 74.3563 181.593C52.0746 181.593 33.7935 175.658 31.9613 168.102C31.3703 167.718 30.5687 165.89 31.2211 160.875C31.9284 155.438 33.8367 153.01 34.7024 152.476C34.2787 151.887 33.4867 150.255 33.7077 148.442C33.7124 148.437 33.7172 148.432 33.722 148.427Z"
      fill="var(--theme-1, var(--theme-1, #E9E9E2))"
      fill-opacity="0.5"
    />
    <animate
      attributeName="opacity"
      values="0;0;0;0;1;1"
      keyTimes="0;0.33;0.34;0.66;0.67;1"
      dur="2s"
      repeatCount="indefinite"
    />
  </g>

  <path
    d="m30.983 19.305-2.372-4.523c3.145 4.532 22.543 8.02 46.003 8.02 23.787 0 43.397-3.586 46.124-8.21l.245-.559a2.409 2.409 0 0 1-.245.56l-1.97 4.491c-3.444 3.958-21.831 6.979-43.997 6.979-21.75 0-39.863-2.91-43.788-6.758Z"
    fill="var(--theme-1, var(--theme-1, #E9E9E2))"
    fill-opacity=".8"
  />
  <path
    d="M47.114 135.373c-.072.617-.267 1.362-.586 2.235a10.666 10.666 0 0 1-1.27 2.521 10.056 10.056 0 0 1-2.093 2.248c-.81.673-1.772 1.128-2.885 1.363a5.31 5.31 0 0 1-2.048.119 4.097 4.097 0 0 1-1.706-.722c-.474-.36-.852-.84-1.135-1.439-.28-.626-.408-1.389-.384-2.289.042-1.06.243-2.092.604-3.094.39-1.024.905-1.944 1.542-2.759a10.446 10.446 0 0 1 2.283-2.131 8.715 8.715 0 0 1 2.79-1.257.56.56 0 0 1 .594.149c.2.146.305.412.314.797 1.366.386 2.398.958 3.096 1.715.702.731.996 1.579.884 2.544Zm-9.389 4.45c.01.385.085.673.225.863.141.19.314.331.52.423.21.066.452.083.727.051.275-.032.539-.08.79-.144a8.04 8.04 0 0 0 .764-.271c.231-.122.421-.238.57-.348.825-.562 1.52-1.298 2.088-2.208.57-.936.978-1.998 1.225-3.186.019-.161-.069-.341-.262-.541a2.414 2.414 0 0 0-.795-.514 6.135 6.135 0 0 0-1.047-.438 5.838 5.838 0 0 0-1.151-.251c-.452.383-.895.809-1.329 1.278-.434.468-.82.987-1.158 1.555a8.244 8.244 0 0 0-.818 1.782 6.888 6.888 0 0 0-.349 1.949ZM18.152 128.06c-.544.601-1.086 1.189-1.626 1.764a60.425 60.425 0 0 0-1.792 2.01l-2.186 2.613c-.832.995-1.814 2.213-2.945 3.655-.28.341-.544.601-.795.782a.897.897 0 0 1-.805.152c-.39-.109-.683-.302-.88-.58a5.886 5.886 0 0 1-.41-.911 66.632 66.632 0 0 1-1.668-5.573 44.24 44.24 0 0 1-1.096-5.79.634.634 0 0 1 .078-.438c.112-.164.237-.255.377-.272.283-.06.624.021 1.02.244.29.22.558.546.809.979.25.433.433.861.549 1.284.09.416.196.892.318 1.428.123.537.251 1.117.386 1.741l.495 1.813c.166.604.34 1.155.524 1.653.585-.674 1.204-1.394 1.86-2.159l2.058-2.355a76.344 76.344 0 0 1 2.051-2.315 28.87 28.87 0 0 1 2.02-1.905.682.682 0 0 1 .602-.166c.239.038.482.204.73.497.56.686.669 1.303.326 1.849ZM29.892 122.897c-.473.443-1.023 1.035-1.648 1.775-.6.746-1.214 1.599-1.844 2.558a42.668 42.668 0 0 0-1.763 3.116 24.425 24.425 0 0 0-1.437 3.398 18.978 18.978 0 0 0-.742 3.392c-.108 1.107-.03 2.147.236 3.119.01.113.068.182.174.206.444-.064.912-.288 1.404-.672a7.38 7.38 0 0 0 1.391-1.42c.41-.568.741-1.155.993-1.76.256-.631.364-1.186.326-1.665-.017-.252-.178-.455-.482-.607a9.974 9.974 0 0 0-.867-.49c-.3-.179-.546-.36-.736-.542-.191-.182-.184-.415.02-.699.061-.041.163-.087.306-.137.148-.076.332-.131.555-.162.222-.032.466-.031.734.003.267.033.554.113.862.239.36.138.692.38.995.726.303.346.475.841.517 1.486a6.734 6.734 0 0 1-.264 2.631 7.976 7.976 0 0 1-1.16 2.344 9.422 9.422 0 0 1-1.829 1.899 7.947 7.947 0 0 1-2.214 1.189 1.86 1.86 0 0 1-1.028.054c-.766-.342-1.343-.861-1.73-1.557a6.546 6.546 0 0 1-.693-2.231 10.765 10.765 0 0 1-.003-2.486c.126-.854.264-1.61.414-2.266a23.953 23.953 0 0 1 2.984-7.267 28.583 28.583 0 0 1 5.094-6.078c.254-.246.514-.351.781-.318.271.007.5.115.687.324.165.176.274.449.328.821.059.345-.062.704-.361 1.077ZM27.366 155.283c.065.764.1 1.58.104 2.448.033.842.039 1.696.017 2.561a40.41 40.41 0 0 1-.062 2.514 52.83 52.83 0 0 1-.165 2.18c.827.67 1.308 1.241 1.444 1.714.162.475.166.882.011 1.22-.189.471-.5.701-.93.689-.404-.036-.866-.226-1.387-.57-.392.236-.84.494-1.342.774-.5.254-1.029.505-1.584.753-.553.222-1.104.417-1.655.584a7.437 7.437 0 0 1-1.517.312c-.869.058-1.64-.173-2.313-.693-.646-.519-1.064-1.247-1.254-2.185a5.044 5.044 0 0 1-.013-1.911 5.107 5.107 0 0 1 .713-1.847 5.615 5.615 0 0 1 1.386-1.542 5.979 5.979 0 0 1 2.04-.956c.193-.065.453-.109.779-.134a4.566 4.566 0 0 1 1.05.053c.377.033.75.134 1.119.302.369.169.705.429 1.01.781.026-.458.04-.958.044-1.499.032-.567.051-1.134.056-1.702a25.41 25.41 0 0 0-.03-1.588c.001-.515-.015-.95-.048-1.305-.031-.409-.179-.666-.443-.771-.236-.129-.546-.143-.93-.042-.658.158-1.435.509-2.33 1.052a28.284 28.284 0 0 0-2.574 1.762 1.004 1.004 0 0 1-.865.248 1.256 1.256 0 0 1-.746-.432 1.225 1.225 0 0 1-.322-.76c-.01-.299.115-.599.376-.901a26.023 26.023 0 0 1 1.618-1.36 13.596 13.596 0 0 1 1.853-1.216 9.761 9.761 0 0 1 1.956-.883 5.518 5.518 0 0 1 1.961-.272c.943.057 1.657.337 2.142.841.486.477.763 1.07.831 1.781Zm-5.174 8.276c-.354.05-.74.192-1.16.426-.39.209-.757.487-1.1.836a3.684 3.684 0 0 0-.756 1.152 2.126 2.126 0 0 0-.073 1.294.647.647 0 0 0 .302.393.94.94 0 0 0 .603.094c.653-.077 1.393-.269 2.222-.574.856-.33 1.54-.703 2.05-1.118.01-.162-.06-.371-.208-.628a5.375 5.375 0 0 0-.52-.819 3.708 3.708 0 0 0-.688-.752c-.231-.21-.455-.311-.672-.304ZM37.255 157.436c.072.408.142.87.211 1.386.097.49.193 1.006.288 1.55.096.517.179 1.047.247 1.589.069.543.124 1.059.167 1.546.34-.69.708-1.419 1.104-2.188.396-.77.817-1.47 1.264-2.102.474-.659.959-1.195 1.455-1.609.522-.413 1.08-.609 1.674-.588.89.033 1.625.383 2.204 1.053.605.67 1.1 1.498 1.481 2.485.41.96.724 1.971.943 3.033.218 1.061.4 2 .542 2.815.145.735-.19 1.263-1.008 1.585-.383.175-.666.192-.852.05-.186-.142-.29-.281-.315-.417-.127-.329-.29-.902-.486-1.719-.17-.817-.381-1.649-.631-2.495a12.062 12.062 0 0 0-.8-2.217c-.31-.633-.667-.93-1.073-.89-.486.009-.926.358-1.32 1.046a38.43 38.43 0 0 0-1.056 1.866c-.34.663-.68 1.354-1.02 2.071-.34.69-.68 1.393-1.021 2.11a79.355 79.355 0 0 1-.895 1.913c-.193.182-.44.308-.738.379a1.575 1.575 0 0 1-.848-.112 1.36 1.36 0 0 1-.638-.429c-.158-.194-.234-.386-.23-.575-.194-2.115-.406-4.04-.636-5.778a67.447 67.447 0 0 0-.849-5.339c-.174-.628-.203-1.115-.087-1.462.143-.373.551-.507 1.224-.401.94.196 1.507.811 1.7 1.844ZM61.333 150.516c-.086-.485-.064-.931.067-1.338.157-.408.465-.642.924-.704.404-.06.756.042 1.056.307.327.265.533.612.619 1.043a388.432 388.432 0 0 1 1.595 9.249c.519 3.043.982 6.033 1.39 8.969.117.782.069 1.322-.144 1.623-.213.273-.468.48-.763.62-.323.14-.633.145-.931.015-.272-.13-.45-.37-.535-.72l-.043-.242-.161.043a9.73 9.73 0 0 1-2.788.613 8.697 8.697 0 0 1-2.798-.319 6.591 6.591 0 0 1-2.403-1.256c-.682-.61-1.176-1.385-1.483-2.325-.67-2.068-.284-3.965 1.156-5.69.613-.712 1.376-1.359 2.288-1.941.912-.582 2.014-1.046 3.306-1.391l.727-.174-1.08-6.382Zm-3.938 14.525c.169.645.47 1.14.906 1.484.436.344.952.578 1.547.703.595.098 1.23.102 1.904.009a10.05 10.05 0 0 0 1.98-.478l.362-.127-1.208-7.109-.808.216a9.16 9.16 0 0 0-1.814.799 7.418 7.418 0 0 0-1.648 1.202 5.2 5.2 0 0 0-1.118 1.558 2.58 2.58 0 0 0-.103 1.743ZM50.765 186.818c-.18.128-.406.194-.676.196-.273-.025-.513-.175-.721-.451-.47-.519-1.012-.744-1.63-.677a3.063 3.063 0 0 0-1.502.571 4.359 4.359 0 0 0-1.097 1.137c-.294.439-.53.926-.71 1.461a6.846 6.846 0 0 0-.336 1.584c-.068.957.148 1.734.65 2.331.5.597 1.234.842 2.2.737.781-.058 1.643-.301 2.587-.729a14.726 14.726 0 0 0 2.685-1.636 3.506 3.506 0 0 1 1.027-.397c.32-.062.6.07.84.397.298.401.261.853-.11 1.355-.372.475-.882.924-1.528 1.347a18.25 18.25 0 0 1-2.064 1.243c-.706.348-1.43.63-2.172.847a7.965 7.965 0 0 1-2.255.246 5.144 5.144 0 0 1-2.107-.544c-1.068-.589-1.755-1.519-2.06-2.788-.304-1.27-.303-2.613.004-4.031a8.06 8.06 0 0 1 .578-1.61 7.61 7.61 0 0 1 .945-1.568c.4-.478.844-.893 1.334-1.245a4.837 4.837 0 0 1 1.646-.83 5.159 5.159 0 0 1 2.88.011c.938.251 1.587.845 1.95 1.783.069.209.085.438.048.687-.039.221-.174.412-.406.573ZM61.052 177.802c.066.644.128 1.371.185 2.181l.259 2.498c.115.855.22 1.739.315 2.652.121.909.239 1.778.352 2.606.21-.581.476-1.156.796-1.727a8.661 8.661 0 0 1 1.093-1.611 7.651 7.651 0 0 1 1.38-1.207 4.358 4.358 0 0 1 1.68-.642 2.545 2.545 0 0 1 1.827.36c.577.343 1.09.847 1.538 1.511.472.634.888 1.372 1.246 2.215.355.816.66 1.668.915 2.555.278.856.5 1.693.667 2.513.163.793.302 1.48.417 2.062.044.43-.026.797-.212 1.1-.185.303-.424.478-.717.526-.214.034-.494-.057-.842-.273a2.466 2.466 0 0 1-.748-.944 13.018 13.018 0 0 1-.386-1.371 85.314 85.314 0 0 0-.484-1.928 30.119 30.119 0 0 0-.625-2.111 10.48 10.48 0 0 0-.8-1.836c-.275-.556-.588-.97-.942-1.24a1.155 1.155 0 0 0-1.156-.181c-.653.242-1.19.808-1.613 1.695a17.432 17.432 0 0 0-.996 2.947 33.071 33.071 0 0 0-.558 3.245 75.72 75.72 0 0 0-.217 2.616c-.056.5-.168.86-.335 1.078a.827.827 0 0 1-.535.333c-.213.034-.424-.041-.633-.225a5.867 5.867 0 0 1-.559-.688c-.167-.3-.32-.603-.46-.908a4.854 4.854 0 0 1-.292-.854 133.096 133.096 0 0 1-.75-4.097c-.218-1.33-.424-2.662-.617-3.996a206.62 206.62 0 0 1-.465-4.103 138.398 138.398 0 0 1-.392-4.565c-.139-1.343.278-2.025 1.252-2.046.325.001.63.198.914.589.282.363.448.787.498 1.271ZM84.712 175.818c-.017.279-.182.465-.495.559a9.752 9.752 0 0 1-.787.207 20.63 20.63 0 0 0-2.034.636c-.672.252-1.377.566-2.114.942-.303.174-.652.206-1.047.097-.395-.109-.67-.436-.825-.982a.708.708 0 0 1 .168-.572c.14-.167.309-.326.506-.478a6.71 6.71 0 0 1 1.174-.661c.458-.234.92-.428 1.389-.582a9.053 9.053 0 0 1 1.42-.341c.45-.095.825-.133 1.127-.114.44.045.798.176 1.071.393.3.212.45.511.447.896Zm.89 13.558c.243.39.398.838.467 1.347.091.476.004.838-.261 1.087-.338.319-.736.389-1.195.211a2.285 2.285 0 0 1-1.097-.883c-.366-.501-.682-1.136-.95-1.905-.27-.796-.498-1.587-.686-2.373a36.863 36.863 0 0 1-.461-2.214l-.211-1.566c-.024-.38.035-.75.176-1.11.142-.36.355-.598.638-.713.479-.073.893.073 1.241.44.345.34.545.821.602 1.442.065.481.15 1.014.256 1.597.106.583.238 1.16.396 1.732.159.572.329 1.128.51 1.668.178.512.37.926.575 1.24ZM94.721 169.945c.595 2.873 1.3 5.83 2.112 8.871a313.7 313.7 0 0 0 2.44 8.623c.266 1.153.047 1.832-.655 2.036a.814.814 0 0 1-.497-.042 2.259 2.259 0 0 1-.51-.372c-.16-.154-.323-.321-.488-.502a1.914 1.914 0 0 1-.286-.51 128.566 128.566 0 0 1-1.28-4.172c-.425-1.474-.839-2.951-1.239-4.432-.377-1.513-.736-2.99-1.075-4.43-.34-1.44-.62-2.77-.842-3.99-.05-.653-.043-1.21.02-1.669.058-.486.299-.768.722-.846.45-.085.794.023 1.033.324.26.267.442.638.545 1.111ZM107.149 166.577a160.77 160.77 0 0 0 2.317 8.811 311.233 311.233 0 0 0 2.639 8.551c.293 1.146.091 1.833-.604 2.062a.81.81 0 0 1-.496-.025 2.198 2.198 0 0 1-.517-.355 10.63 10.63 0 0 1-.499-.485 1.943 1.943 0 0 1-.297-.502 129.18 129.18 0 0 1-1.375-4.133c-.46-1.461-.907-2.926-1.341-4.395-.413-1.503-.806-2.97-1.178-4.4a80.146 80.146 0 0 1-.935-3.967c-.065-.652-.072-1.21-.021-1.672.047-.489.28-.78.7-.873.446-.1.792-.004 1.037.289.266.259.456.623.57 1.094Z"
    fill="var(--theme-1, var(--theme-1, #E9E9E2))"
  />
  <path
    fill-rule="evenodd"
    clip-rule="evenodd"
    d="M38.802 97.435c.022-.376.069-.856.156-1.348.121-.69.31-1.342.574-1.761l-.847-.532c-.37.588-.585 1.396-.712 2.12-.13.736-.18 1.448-.184 1.887l-.005.381 1.282.37.206-.18c.585-.513 1.532-1.075 2.47-1.161a2.19 2.19 0 0 1 1.313.262c.41.234.826.653 1.185 1.37.455.911.553 1.629.493 2.214-.06.592-.288 1.095-.56 1.578-.084.148-.158.273-.234.399-.06.1-.12.2-.185.314a4.512 4.512 0 0 0-.358.741c-.092.262-.147.55-.112.859.02.184.072.364.155.539-1.086 1.253-2.897 3.859-4.028 6.51-.612 1.432-1.046 2.925-1.03 4.249.015 1.174.389 2.25 1.325 2.992l-.041.06c-1.276 1.838-2.765 3.983-3.723 6.295-1.014 2.448-1.454 5.136-.405 7.902-1.773 2.355-4.014 6.3-4.925 10.359-.511 2.28-.609 4.636.06 6.768-1.171 1.754-2.527 4.482-3.318 7.542-.808 3.125-1.04 6.648.17 9.844.965 2.545 3.127 5.22 6.567 7.683 2.844 3.551 8.176 6.544 15.009 8.654 6.878 2.125 15.342 3.374 24.486 3.374 9.145 0 17.609-1.249 24.487-3.374 6.861-2.119 12.21-5.129 15.045-8.699 4.765-3.95 6.943-8.838 6.232-14.09-.416-3.07-.9-4.784-1.296-5.745a5.483 5.483 0 0 0-.308-.643c.117-.134.258-.274.423-.421.402-.356.923-.727 1.553-1.139.437-.287.931-.595 1.465-.928a75.95 75.95 0 0 0 3.216-2.087c3.589-2.492 7.782-6.155 10.821-12.375 2.028-4.151 2.317-10.257 1.076-16.324-1.243-6.077-4.039-12.212-8.294-16.421-4.164-4.12-9.432-5.877-14.445-6.22-5.007-.343-9.796.722-13.051 2.29l.434.901c3.093-1.49 7.708-2.524 12.548-2.193 4.834.33 9.855 2.019 13.811 5.933 4.077 4.034 6.802 9.97 8.017 15.91 1.217 5.95.9 11.807-.995 15.685-2.94 6.017-6.991 9.561-10.492 11.992-1.129.785-2.181 1.44-3.133 2.034l-.001.001c-.542.337-1.051.655-1.525.965-.641.42-1.211.823-1.668 1.228-.454.402-.827.832-1.038 1.314l.252.111.014.017c.081.106.221.327.396.751.35.85.819 2.471 1.229 5.498.813 6.007-2.439 11.641-9.703 15.813-7.272 4.178-18.504 6.839-33.419 6.839-14.88 0-25.895-2.331-33.534-5.593-7.655-3.27-11.86-7.446-13.243-11.096-1.111-2.931-.916-6.226-.138-9.238.676-2.614 1.782-4.977 2.8-6.64.634 1.34 1.626 2.559 3.078 3.571 5.6 3.907 14.66 6.101 21.587 7.176l.153-.988c-6.912-1.073-15.77-3.242-21.168-7.008-3.59-2.504-4.083-6.445-3.184-10.453.817-3.642 2.77-7.225 4.422-9.533 1.588 2.982 4.871 5.131 8.77 6.69 4.249 1.699 9.34 2.742 14.084 3.378l.133-.991c-4.708-.631-9.707-1.66-13.846-3.316-4.158-1.662-7.34-3.913-8.583-6.919-1.049-2.533-.687-5.028.298-7.406.914-2.208 2.343-4.267 3.629-6.12l.056-.081c1.201.66 3.555 1.585 6.808 2.478 3.79 1.041 8.853 2.053 14.854 2.559l.084-.996c-5.938-.501-10.94-1.502-14.673-2.527-3.178-.873-5.4-1.753-6.5-2.341v-.001l-.426-.247a1.855 1.855 0 0 1-.064-.042l-.002.004c-.866-.512-1.237-1.341-1.25-2.428-.014-1.121.36-2.464.949-3.845 1.177-2.759 3.133-5.478 4.09-6.499l.286-.304-.248-.336a.855.855 0 0 1-.182-.415.921.921 0 0 1 .062-.414c.06-.169.154-.353.281-.574l.162-.273c.086-.146.18-.304.262-.448.298-.53.602-1.174.684-1.967.082-.799-.066-1.706-.594-2.763-.428-.857-.968-1.441-1.585-1.792a3.19 3.19 0 0 0-1.899-.389c-1.104.102-2.138.681-2.824 1.227l-.024-.007Zm67.549 82.383c-7.414 3.441-17.868 5.524-31.114 5.524-14.977 0-26.133-2.345-33.926-5.674a44.1 44.1 0 0 1-2.871-1.345c2.788 1.966 6.515 3.695 10.955 5.067 6.77 2.091 15.132 3.329 24.191 3.329 9.06 0 17.422-1.238 24.192-3.329 3.276-1.012 6.164-2.219 8.573-3.572Z"
    fill="var(--theme-1, var(--theme-1, #E9E9E2))"
  />
  <path
    fill-rule="evenodd"
    clip-rule="evenodd"
    d="M115.02 104.001c-6.316-.583-10.566 1.801-11.654 2.411-.1.056-.173.097-.219.12l-.015.007-.705.409.351.452c1.102 1.417 1.918 3.07 2.421 4.621.508 1.561.683 2.968.552 3.894-.215 1.531-1.023 2.598-2.494 3.45-1.503.871-3.671 1.497-6.546 2.106l.207.979c2.88-.61 5.186-1.262 6.84-2.22a7.613 7.613 0 0 0 1.146-.803c1.045 2.009 2.276 4.936 3.014 7.863.393 1.559.643 3.103.656 4.5.013 1.401-.212 2.617-.733 3.551-.426.765-1.254 1.52-2.411 2.244-1.149.72-2.579 1.382-4.155 1.981l.355.935c1.611-.612 3.107-1.302 4.331-2.068 1.216-.761 2.208-1.626 2.754-2.605.201-.36.362-.748.488-1.156a26.335 26.335 0 0 1 2.352 3.946c.964 2.002 1.652 4.139 1.556 5.863-.274 4.929-3.689 8.366-9.902 11.166l.411.912c5.383-2.426 8.972-5.445 10.116-9.668 1.121.471 3.016.84 5.155.613 2.455-.262 5.264-1.313 7.628-3.935 5.784-6.417 7.599-13.59 5.521-22.082-1.026-4.194-2.547-8.313-5.184-11.511-2.652-3.217-6.41-5.475-11.836-5.975Zm-1.064 41.894c.885.419 2.698.841 4.829.614 2.248-.239 4.817-1.197 6.991-3.61 5.562-6.17 7.293-13.002 5.293-21.174-1.012-4.138-2.488-8.085-4.984-11.113-2.482-3.01-5.995-5.14-11.156-5.616-5.844-.538-9.796 1.576-11.015 2.255a16.601 16.601 0 0 1 2.236 4.461c.532 1.635.752 3.206.591 4.343-.145 1.032-.519 1.892-1.104 2.619 1.107 2.07 2.454 5.212 3.251 8.371.405 1.608.672 3.234.686 4.735a11.17 11.17 0 0 1-.095 1.611c.877 1.079 2.038 2.844 2.977 4.794.985 2.044 1.764 4.369 1.654 6.352-.026.466-.078.918-.154 1.358Z"
    fill="var(--theme-1, var(--theme-1, #E9E9E2))"
  />
  <path
    d="M73.701 180.738c-11.707 0-22.285-1.674-29.918-4.365-3.819-1.346-6.874-2.938-8.964-4.68-2.093-1.745-3.164-3.59-3.164-5.454h-1c0 2.278 1.311 4.378 3.524 6.222 2.215 1.847 5.391 3.487 9.272 4.855 7.765 2.738 18.46 4.422 30.25 4.422s22.486-1.684 30.251-4.422c3.881-1.368 7.057-3.008 9.272-4.855 2.213-1.844 3.523-3.944 3.523-6.222h-1c0 1.864-1.07 3.709-3.163 5.454-2.091 1.742-5.145 3.334-8.964 4.68-7.633 2.691-18.211 4.365-29.919 4.365Z"
    fill="var(--theme-1, var(--theme-1, #E9E9E2))"
  />
</svg>
