<svg width="286" height="295" viewBox="0 0 286 295" fill="none" xmlns="http://www.w3.org/2000/svg">
  <path
    d="m285.364 227.275-70.311 66.518a1.575 1.575 0 0 1-2.218-.061L50.262 121.879l72.581-68.667 162.581 171.854a1.565 1.565 0 0 1-.06 2.209Z"
    fill="var(--theme-2, #383938)"
  />
  <path
    d="M201.113 259.617c.187-.23.501-.731.607-1.008l5.621 5.935.842-.967-6.674-7.031-.589.677c.033.438-.14 1.119-.49 1.67l.683.724ZM207.355 255.448l1.52 1.608c1.362 1.447 1.769 2.229 1.235 2.843-.566.651-1.364.233-2.711-1.203l-1.51-1.594c-1.349-1.423-1.597-2.17-1.111-2.73.586-.672 1.328-.218 2.577 1.076Zm-2.263 2.652 1.447 1.526c1.899 2.024 3.272 2.286 4.36 1.037 1.152-1.324.613-2.675-1.194-4.575l-1.454-1.53c-1.849-1.945-3.192-2.183-4.265-.949-.998 1.146-.785 2.523 1.106 4.491ZM212.93 252.829l.507.535c.835.878 1.053 1.574.58 2.116-.6.69-1.447.094-2.134-.608l-.449-.467c-.638-.659-.995-1.406-.441-2.043.565-.649 1.211-.283 1.937.467Zm-2.379 2.479c1.431 1.498 2.911 2.4 4.226.89 1.175-1.351.545-2.704-.566-3.865l-.494-.515c-1.103-1.156-2.327-1.559-3.239-.512-.503.578-.539 1.171-.397 1.669l-.409-.427c-1.011-1.16-1.632-2.016-1.038-2.697.537-.618 1.129-.173 1.412.088l.034.035.791-.909-.027-.028c-.641-.607-1.826-1.222-2.957.079-1.274 1.464-.346 3.035 1.344 4.809l1.32 1.383ZM211.13 248.128c.186-.229.5-.731.606-1.007l5.621 5.934.843-.967-6.675-7.031-.588.675c.031.439-.14 1.12-.492 1.672l.685.724ZM214.08 245.847l.14.148.802-.922-.14-.151c-.63-.706-.823-1.259-.368-1.781.525-.604 1.125-.272 1.724.353.692.721.809 1.177 1.01 2.861.246 2.029.663 3.501 1.713 4.633l.101.113 3.038-3.491-.669-.934-2.196 2.524c-.421-.631-.695-1.703-.869-3.268-.183-1.751-.314-2.386-1.248-3.367-1.008-1.06-2.246-1.459-3.355-.184-1.159 1.331-.533 2.563.317 3.466ZM219.97 236.914c.584-.67 1.329-.218 2.577 1.076l1.519 1.608c1.364 1.448 1.77 2.229 1.236 2.843-.566.652-1.364.233-2.711-1.203l-1.51-1.593c-1.349-1.425-1.599-2.169-1.111-2.731Zm1.76 5.254c1.9 2.025 3.272 2.286 4.361 1.036 1.153-1.324.612-2.674-1.194-4.574l-1.454-1.53c-1.849-1.945-3.191-2.183-4.265-.949-.999 1.146-.785 2.523 1.107 4.492l1.445 1.525ZM224.22 232.258c.672 2.32 2.192 5.52 4.164 8.122l.892-1.024c-1.966-2.551-3.521-5.621-4.273-8.201l-.69-.727-2.977 3.422.78.826 2.104-2.418ZM226.018 231.013c.187-.228.502-.729.609-1.007l5.62 5.935.842-.967-6.674-7.031-.589.676c.033.438-.14 1.119-.49 1.671l.682.723ZM231.149 226.094l.231.242c.649.685.708 1.182.304 1.645-.479.552-1.05.317-1.604-.261l-.243-.26c-.495-.517-.745-1.092-.295-1.609.519-.595 1.096-.286 1.607.243Zm3.084 3.021.355.363c.682.721.891 1.344.382 1.929-.542.623-1.231.352-1.883-.327l-.345-.35c-.698-.724-.87-1.35-.372-1.92.516-.595 1.111-.484 1.863.305Zm-5.218-.757.168.183c.737.776 1.41.924 1.987.766-.171.586-.196 1.404.761 2.405l.28.28c1.182 1.234 2.457 1.361 3.505.156 1.043-1.198.881-2.419-.282-3.621l-.28-.287c-.91-.945-1.676-1.025-2.282-.801.147-.518.102-1.182-.744-2.074l-.139-.149c-1.041-1.099-2.235-1.205-3.191-.105-.938 1.078-.751 2.239.217 3.247ZM237.092 223.15l.497-.571c.784-.902 1.506-.774 2.27-.008l.202.21c.828.839.883 1.548.23 2.298l-.655.752-2.544-2.681Zm-2.813-2.959.531-.61c.648-.744 1.253-.638 1.883.004l.129.132c.705.717.748 1.275.068 2.057l-.528.606-2.083-2.189Zm6.854 5.534c1.172-1.346 1.009-2.673-.155-3.85l-.213-.219c-.954-.968-1.837-.98-2.507-.636.258-.573.243-1.359-.627-2.247l-.141-.144c-1.042-1.084-2.242-1.186-3.325.059l-1.458 1.673 6.83 7.199 1.596-1.835ZM239.27 215.799c.186-.23.5-.731.607-1.009l5.621 5.936.842-.968-6.675-7.03-.589.675c.033.439-.14 1.119-.49 1.672l.684.724ZM243.096 211.385c.187-.228.502-.729.609-1.007l5.621 5.935.841-.968-6.674-7.031-.589.677c.033.438-.139 1.118-.49 1.671l.682.723ZM245.915 208.829l.086.093.784-.902-.089-.093c-.369-.436-.694-.982-.229-1.517.507-.581 1.055-.272 1.593.302l.096.084c.74.779.72 1.286.154 1.936l-.237.272.758.796.245-.282c.692-.795 1.324-.715 2.218.238l.17.149c.682.715 1.04 1.365.473 2.019-.538.618-1.172.354-1.669-.124l-.07-.069-.811.93.067.065c.909.875 2.099 1.229 3.244-.086 1.171-1.347.685-2.605-.394-3.735l-.147-.128c-.933-.974-1.744-1.143-2.526-.752l-.014-.012c.23-.57.18-1.306-.637-2.159l-.073-.064c-.985-1.035-2.141-1.331-3.182-.136-1.109 1.275-.503 2.429.19 3.175ZM249.009 204.585c.186-.229.5-.731.607-1.007l5.621 5.933.841-.966-6.673-7.031-.59.677c.033.437-.139 1.118-.491 1.67l.685.724ZM211.002 201.311a.438.438 0 1 0-.875-.025l-.458 16.533a1.956 1.956 0 0 1-2.009 1.899l-16.073-.446a.439.439 0 0 0-.025.875l16.075.446a2.833 2.833 0 0 0 2.907-2.749l.458-16.533ZM125.925 185.629a.432.432 0 0 1 .102-.616l.656-.448a.433.433 0 0 1 .538.039c.817.758 2.332 2.256 3.163 3.031a.432.432 0 0 0 .592-.003l.785-.743a.431.431 0 0 0-.069-.681c-.942-.576-2.359-1.675-3.263-2.228a.434.434 0 0 1-.099-.659l.95-1.071a.434.434 0 0 1 .596-.048l2.328 1.879c.15.12.361.128.519.017l.713-.501a.432.432 0 0 0 .065-.651l-4.333-4.582a.434.434 0 0 0-.614-.016c-.413.399-.963.729-.456 1.515.018.027-.004.089-.021.129-.41.935-.519 2.156-1.683 2.303-1.309.165-2.516.628-3.269 1.636-.625.836-.656.828.032 1.612.443.505.918.982 1.373 1.479.5.544 1.028 1.07 1.481 1.651.898 1.152 2.079 2.351 3.08 1.263.026-.029.027-.082.052-.166-.694-.975-2.311-2.929-3.218-4.141ZM123.485 180.893a17.218 17.218 0 0 0-1.839-1.336c-.411-.255-.842-.478-1.265-.714-.11-.061-.062-.229.063-.222.101.005.202.012.277.017 1.239.176 2.08.382 3.255.759 1.425.459 2.758.435 3.539-.955.655-1.169.875-1.202-.071-2.153-1.151-1.158-2.363-2.256-3.558-3.384a.163.163 0 0 0-.223 0l-1.312 1.241a.164.164 0 0 0-.019.215c.554.766.61.81 1.034.688a.161.161 0 0 1 .164.044l1.768 1.869c.121.128-.019.328-.18.26-1.18-.509-2.352-.369-3.553-.063-.775.199-1.597.406-2.378.344-1.125-.089-1.586.668-2.307 1.323a.166.166 0 0 0-.004.244c1.639 1.515 3.477 3.251 4.997 4.655.04.039.099.052.155.036.09-.025.126-.03.148-.051.431-.389.86-.781 1.288-1.173.581-.535.623-1.121.021-1.644ZM139.101 188.754c-1.279-1.504-3.099-2.512-3.769-4.554a.264.264 0 0 0-.4-.139c-.663.45-1.202.798-1.701 1.197-.131.106-.177.475-.101.655.167.396.399.763.6 1.105a.263.263 0 0 1-.047.327c-.555.516-1.097.977-1.569 1.502-.849.943-1.649 1.929-2.451 2.909-.104.127-.199.405-.134.497.306.439.65.85 1.074 1.37a.26.26 0 0 0 .405.004c.603-.723 1.185-1.353 1.647-2.061.701-1.073 1.527-1.965 2.681-2.556.412-.21.752-.229 1.113.051l1.3 1.003c.103.08.248.073.343-.017l.987-.933a.263.263 0 0 0 .022-.36ZM139.343 191.944l.012-.011s.138.01.37-.024l1.549-.218.237-.226-1.157-1.224-.299.282.532.561c.145.154.231.222.231.222l-.011.01s-.141-.012-.37.023l-1.539.23-.238.226 1.201 1.27.298-.282-.585-.618a2.463 2.463 0 0 0-.231-.221ZM141.516 192.971c.355-.158.591-.301.591-.301l.011.012s-.161.216-.342.569l-.166.324-.429-.454.335-.15Zm-.709.322.614.649-.257.501.348.368 1.095-2.185-.407-.431-2.243.973.341.36.509-.235ZM142.971 195.961l-.147.236.218.229.881-.834-.666-.703-.28.265.352.372-.08.075c-.169.161-.404.124-.616-.1-.292-.308-.157-.672.168-.981.42-.396.785-.328.991-.11.156.164.183.375.053.606l.47.179c.167-.362.103-.726-.208-1.055-.47-.496-1.079-.505-1.638.024-.578.547-.571 1.121-.161 1.554.188.199.434.308.663.243ZM144.883 196.573l-.252-.266.476-.451.255.269c.163.173.159.343.009.486-.171.161-.325.135-.488-.038Zm.848.363c.354-.335.294-.688-.062-1.064l-.597-.633-1.67 1.58.325.342.618-.584.173.184c.134.142.178.246.055.433l-.202.314a.437.437 0 0 0-.089.241l.361.382a.555.555 0 0 1 .09-.262l.238-.385c.12-.196.109-.34-.016-.517l.008-.009c.218.197.507.225.768-.022ZM146.261 199.245l-.706-.745.4-.379.622.658.289-.273-.623-.658.386-.364.705.745.299-.282-1.03-1.088-1.669 1.58 1.028 1.088.299-.282ZM146.923 199.962l.416-.395.265.282c.167.175.168.324.041.444-.156.148-.304.11-.454-.048l-.268-.283Zm1.091-1.033.212.224c.148.156.176.306.026.448-.151.142-.298.105-.436-.04l-.222-.234.42-.398Zm-.085 1.756c.218-.206.235-.484.042-.738l.012-.012c.209.141.457.138.669-.063.273-.257.251-.581-.068-.918l-.605-.641-1.67 1.579.601.635c.386.409.742.421 1.019.158ZM148.845 201.23l.336-.15c.355-.159.59-.302.59-.302l.011.011s-.16.217-.341.571l-.167.323-.429-.453Zm1.02-.926-2.244.972.341.36.508-.235.615.649-.258.502.349.368 1.096-2.186-.407-.43ZM150.143 202.265c-.556.526-.578 1.126-.155 1.575.339.357.641.437 1.037.352l-.093-.456c-.251.077-.447.021-.608-.149-.273-.29-.2-.632.148-.962.357-.338.73-.379.988-.108.172.182.175.383.052.607l.471.178c.155-.373.102-.726-.209-1.056-.469-.495-1.073-.509-1.631.019ZM152.721 202.187l-.307-.326-.174-.002c-.103 0-.145.024-.145.024l-.01-.012s.026-.041.032-.143l.007-.173-.308-.326-.046.747.205.214.746-.003ZM153.845 204.51l-.376-.396-1.084.198-.11-.116.672-.634-.325-.344-1.669 1.58.324.343.698-.66.104.11-.247 1.135.389.412.301-1.408 1.323-.22ZM152.808 206.746l-.324-.343 1.672-1.578.323.342-1.671 1.579ZM136.309 194.294l1.029 1.088.297-.281-.704-.746.4-.378.622.657.288-.274-.622-.657.386-.363.705.745.298-.282-1.031-1.088-1.668 1.579ZM139.364 194.168l-1.669 1.58.973 1.028.298-.282-.649-.685 1.372-1.297-.325-.344ZM141.354 196.866l.299-.282-1.031-1.088-1.669 1.58 1.029 1.088.299-.282-.705-.744.399-.379.622.658.289-.274-.622-.658.385-.364.705.745ZM141.201 199.46l.388.411.302-1.408 1.321-.219-.374-.398-1.085.199-.109-.116.671-.635-.325-.343-1.67 1.579.325.343.698-.66.104.111-.246 1.136ZM144.529 199.639l-1.209-1.278-.297.281.439.465-1.372 1.298.325.343 1.371-1.298.445.471.298-.282ZM144.815 200.508l.254.269c.164.172.159.344.008.486-.17.161-.323.134-.487-.039l-.251-.266.476-.45Zm-1.706.962.325.343.617-.583.174.184c.135.141.179.244.055.431l-.202.314a.461.461 0 0 0-.089.241l.362.383a.566.566 0 0 1 .09-.263l.237-.384c.121-.197.109-.34-.016-.518l.009-.008c.217.197.507.224.767-.022.354-.335.295-.687-.061-1.064l-.598-.632-1.67 1.578ZM144.965 203.434l-.324-.343 1.669-1.579.324.343-1.669 1.579ZM147.444 203.242c.172.181.174.383.053.605l.47.179c.156-.374.103-.726-.209-1.054-.469-.496-1.073-.51-1.631.018-.555.525-.578 1.126-.153 1.574.336.357.638.438 1.034.351l-.091-.455c-.251.077-.448.021-.608-.149-.274-.289-.201-.633.146-.961.358-.338.732-.38.989-.108ZM148.691 202.91l-.308-.326-.174-.002c-.103 0-.144.024-.144.024l-.011-.012s.026-.04.031-.143l.008-.174-.308-.326-.047.748.206.215.747-.004ZM148.902 205.745c-.213.201-.356.357-.356.357l-.011-.011s.06-.175.107-.397l.278-1.422-.314-.332-1.668 1.58.323.342.737-.696c.233-.22.367-.38.367-.38l.011.012s-.066.185-.112.427l-.265 1.417.303.32 1.669-1.58-.324-.342-.745.705ZM149.038 207.755l-.323-.343 1.671-1.578.324.342-1.672 1.579ZM135.022 195.149l.44.465-1.372 1.297.325.343 1.371-1.297.445.47.297-.281-1.208-1.279-.298.282ZM136.578 197.73l-.252-.266.476-.451.255.269c.163.173.158.344.009.486-.171.161-.325.135-.488-.038Zm.088.91c.121-.195.109-.338-.016-.516l.008-.008c.218.197.508.224.769-.024.353-.333.293-.687-.063-1.063l-.598-.633-1.668 1.58.324.344.617-.585.174.184c.134.141.178.245.055.432l-.202.314c-.052.082-.09.155-.089.241l.362.383a.547.547 0 0 1 .089-.263l.238-.386ZM137.664 199.355l.336-.15c.355-.159.591-.302.591-.302l.011.011s-.161.217-.341.571l-.167.323-.43-.453Zm1.019-.926-2.242.972.34.36.509-.235.615.649-.258.501.35.369 1.095-2.186-.409-.43ZM140.155 201.246c-.234.06-.333.111-.333.111l-.011-.011s.06-.094.129-.327l.311-.937-.342-.363-1.671 1.579.325.342.816-.772c.193-.182.277-.287.277-.287l.01.011s-.078.138-.145.374l-.205.682.172.181.692-.166c.239-.054.385-.122.385-.122l.01.012s-.113.074-.304.256l-.817.773.323.343 1.67-1.58-.335-.354-.957.255ZM142.795 202.763l-1.234.608c-.303.152-.523.318-.523.318l-.01-.012s.175-.208.343-.512l.67-1.198-.349-.368-1.149 2.128.4.423 2.193-1.027-.341-.36ZM142.626 204.594l.335-.15c.355-.159.591-.302.591-.302l.011.011s-.161.218-.342.571l-.166.323-.429-.453Zm1.019-.926-2.243.972.34.36.51-.234.614.648-.258.501.35.369 1.096-2.186-.409-.43ZM144.277 206.575c-.194.182-.346.236-.514.06-.137-.144-.125-.304-.02-.544l-.464-.049c-.108.3-.053.591.204.863.29.307.669.436 1.052.074l1.185-1.12-.324-.343-1.119 1.059ZM132.263 85.716c1.476-.443 3.823-1.121 4.842-1.525l.004.004c-.605.432-1.354.976-2.063 1.524l-1.594 1.254-1.189-1.257Zm-1.407 3.281.748.791 1.828-1.427.461.487.835-.527-.527-.557 4.409-3.438-1.057-1.119-6.101 1.715-.733.57 1.964 2.077-1.827 1.428ZM135.365 90.278l.323-.253c.705-.555 1.307-.675 1.803-.152.518.547.353 1.096-.441 1.71l-.334.26c-.671.532-1.321.73-1.84.183-.543-.574-.2-1.216.489-1.748Zm3.333-2.442.216-.172c.576-.451 1.112-.605 1.553-.14.501.53.191 1.034-.384 1.484l-.222.175c-.689.538-1.172.544-1.555.139-.471-.496-.197-1.019.392-1.486Zm-4.563 4.796c1.026 1.083 2.152 1.01 3.362.053l.245-.189c.964-.76 1.123-1.5.96-2.043.465.17 1.067.203 1.98-.519l.14-.107c1.099-.86 1.287-1.95.383-2.905-.902-.955-1.965-.909-3.02-.082l-.138.106c-.816.64-1.003 1.236-.908 1.784-.509-.211-1.285-.288-2.279.496l-.246.19c-1.224.96-1.503 2.133-.479 3.216ZM141.39 95.094l1.623-1.263c1.405-1.097 2.146-1.288 2.621-.785.53.56.212 1.16-1.229 2.282l-1.612 1.263c-1.512 1.163-2.225 1.42-2.734.88-.528-.558-.11-1.264 1.331-2.377Zm-2.087 3.01c1.109 1.176 2.351.83 4.321-.696l1.519-1.189c1.892-1.475 2.29-2.706 1.241-3.815-.989-1.045-2.273-.914-4.191.59l-1.527 1.196c-1.996 1.533-2.444 2.77-1.363 3.915ZM145.295 102.791l-2.114-2.234c.613-.324 1.457-.458 2.963-.501 1.732-.038 2.368-.106 3.345-.878 1.06-.826 1.499-1.921.439-3.042-1.111-1.174-2.267-.74-3.2-.025l-.134.108.77.812.138-.108c.703-.518 1.229-.638 1.673-.17.519.55.142 1.07-.461 1.539-.749.587-1.189.634-2.811.69-1.898.058-3.217.31-4.336 1.157l-.102.075 2.931 3.098.899-.521ZM146.374 105.572c1.145 1.21 2.351.862 3.422.017l.114-.108c.979-.765 1.311-1.536 1.01-2.299l.012-.012c.505.271 1.181.253 2.01-.392l.05-.048c1.05-.83 1.418-1.852.419-2.908-1.055-1.115-2.15-.695-2.966-.103l-.073.053.745.787.066-.053c.501-.348 1.034-.561 1.482-.088.504.532.14 1.004-.461 1.476l-.083.076c-.787.611-1.24.5-1.736-.019l-.218-.231-.796.624.212.223c.679.719.542 1.277-.415 2.03l-.124.116c-.756.589-1.402.826-1.948.248-.493-.52-.27-1.072.269-1.55l.087-.072-.771-.815-.072.06c-.948.816-1.296 1.867-.235 2.988ZM151.259 107.08l.324-.252c.703-.556 1.307-.676 1.803-.151.517.546.353 1.094-.441 1.708l-.334.261c-.672.531-1.321.731-1.84.183-.543-.575-.201-1.216.488-1.749Zm3.333-2.442.217-.171c.575-.452 1.111-.605 1.552-.14.501.53.192 1.035-.384 1.484l-.222.174c-.688.54-1.173.545-1.555.141-.47-.497-.197-1.02.392-1.488Zm-4.562 4.797c1.025 1.082 2.152 1.011 3.362.053l.245-.189c.963-.76 1.122-1.5.959-2.044.465.171 1.068.203 1.981-.518l.139-.107c1.1-.86 1.287-1.95.383-2.906-.902-.954-1.965-.908-3.02-.082l-.138.107c-.815.639-1.002 1.235-.908 1.785-.509-.211-1.285-.29-2.278.495l-.246.191c-1.225.958-1.503 2.132-.479 3.215ZM153.672 113.276c1.19 1.258 2.434.791 3.707-.198l.379-.293c1.23-.971 1.695-2.029.783-2.995-.408-.43-.854-.576-1.245-.54.464-.302 1.455-.973 2.104-1.426l1.72 1.818.905-.563-2.499-2.641c-1.014.713-3.099 2.154-4.06 2.742l.616.87c.559-.257 1.056-.31 1.478.135.543.573.166 1.152-.618 1.77l-.4.314c-.847.656-1.566.996-2.13.4-.514-.544-.198-1.066.284-1.494l.069-.056-.786-.83-.049.035c-.956.801-1.3 1.851-.258 2.952ZM156.869 116.498c2.415-1.498 5.331-2.7 7.894-3.194l.723-.563-2.861-3.024-.822.636 2.028 2.144c-2.171.4-5.341 1.561-7.815 3.099l.853.902ZM115.78 105.598c.154.162.268.311.344.445.076.135.111.27.109.406a.952.952 0 0 1-.143.421 2.23 2.23 0 0 1-.381.449l-.861.816c-.172.161-.332.28-.481.354a.82.82 0 0 1-.422.102.942.942 0 0 1-.411-.131 1.872 1.872 0 0 1-.432-.351l-.534-.566c-.104-.11-.217-.228-.325-.344l.238-.225c.486-.459.977-.923 1.473-1.394l.577-.546c.112-.106.25-.234.379-.357l.87.921Zm-5.553.044-1.728 1.636c-.584.55-1.184 1.119-1.806 1.708a.177.177 0 0 0-.06.123.17.17 0 0 0 .054.126c.27.287.541.572.809.855l.799.845.535-.507.606-.572c.44-.417.857-.812 1.27-1.201l.335.355.523.553c.471.496.927.867 1.371 1.109.443.243.873.368 1.293.376.42.008.832-.088 1.239-.288.405-.2.807-.488 1.203-.863l.699-.661c.31-.293.566-.595.768-.902.2-.309.34-.628.418-.96a2.5 2.5 0 0 0 .022-1.013 3.58 3.58 0 0 0-.401-1.078 5.76 5.76 0 0 0-.87-1.152l-1.504-1.59a4712 4712 0 0 0-1.592-1.682l-.699.661-.71.672a.17.17 0 0 0-.059.123.168.168 0 0 0 .052.126l.386.408-1.223 1.156-1.73 1.637ZM119.606 112.384c.333-.316.669-.534 1.005-.654.335-.119.668-.132.999-.04.33.093.65.301.958.627.228.241.393.471.496.689.104.219.152.433.147.646.002.158-.022.318-.075.48-.054.16-.15.329-.287.501a5.84 5.84 0 0 1-.554.592l-2.202 2.082c-.373.352-.744.59-1.115.712-.369.122-.712.142-1.027.056a1.785 1.785 0 0 1-.847-.522 2.73 2.73 0 0 1-.482-.671 1.863 1.863 0 0 1-.187-.595c-.01-.196.038-.443.141-.738.102-.297.378-.657.83-1.083l2.2-2.082Zm-3.961.48c-.659.624-1.094 1.295-1.303 2.015a3.823 3.823 0 0 0-.008 2.149c.203.713.585 1.364 1.143 1.954.579.613 1.215 1.037 1.909 1.272a3.777 3.777 0 0 0 2.129.093c.727-.172 1.42-.571 2.08-1.195l2.191-2.072c.721-.683 1.193-1.393 1.413-2.132a3.824 3.824 0 0 0 .032-2.171c-.201-.708-.579-1.357-1.137-1.948a4.56 4.56 0 0 0-1.826-1.185 4.006 4.006 0 0 0-2.202-.123c-.766.164-1.508.587-2.23 1.271l-2.191 2.072ZM128.096 115.545l-.704.666c-.22.21-.46.436-.716.678a.16.16 0 0 0-.047.077.176.176 0 0 0-.003.091c.006.03.02.058.043.081l.617.653.534.564.529.56.303.319-.821.777-1.065 1.007-1.031.976c-.339.319-.682.645-1.03.975-.164.154-.313.28-.448.38a2.02 2.02 0 0 1-.375.221.788.788 0 0 1-.331.071 1.154 1.154 0 0 1-.461-.139c-.149-.079-.319-.22-.51-.421a4.752 4.752 0 0 1-.476-.587 4.056 4.056 0 0 1-.352-.617 14.764 14.764 0 0 1-.309-.722l-.22-.233-.781.738-.745.706a.54.54 0 0 0-.064.071.25.25 0 0 0-.055.152c.011.121.065.291.162.509.095.218.241.47.438.755.196.285.436.579.723.882.44.466.883.809 1.327 1.029.444.22.886.327 1.329.321a3.134 3.134 0 0 0 1.336-.338c.449-.218.894-.537 1.336-.955l1.468-1.388c.474-.448.936-.885 1.385-1.312l1.329-1.255 1.292-1.223a.177.177 0 0 0 .007-.249c-.345-.365-.664-.704-.959-1.013l-.847-.897-.848-.896c-.295-.311-.614-.65-.96-1.014ZM133.386 124.713l.238-.226 2.942 3.109.722-.683.698-.661a.165.165 0 0 0 .049-.078.21.21 0 0 0 .002-.09.162.162 0 0 0-.044-.081l-5.057-5.346-.703.667c-.215.202-.452.428-.716.678a.15.15 0 0 0-.048.078.175.175 0 0 0 .04.172l.375.395-.956.904-1.716 1.624-1.642 1.554-1.346 1.272-.816.772a.179.179 0 0 0-.035.055.212.212 0 0 0-.014.068c0 .022.003.046.011.068a.147.147 0 0 0 .031.058l4.561 4.822.706-.668c.221-.209.459-.435.716-.676a.18.18 0 0 0 .061-.124.17.17 0 0 0-.055-.126l-2.819-2.981 1.048-.992c.248-.235.495-.47.744-.704l2.281 2.409c.156-.145.303-.286.442-.418l.438-.413.483-.457a.176.176 0 0 0 .048-.079.183.183 0 0 0 .001-.09.152.152 0 0 0-.042-.08l-2.16-2.283.967-.914c.185-.177.374-.354.565-.535ZM140.146 131.546c.299.314.561.592.788.832.125.132.226.254.302.365.075.113.133.224.172.334.038.112.057.22.054.325a1.073 1.073 0 0 1-.09.383 1.88 1.88 0 0 1-.25.413c-.11.141-.247.288-.41.442l-2.399 2.27a2.595 2.595 0 0 1-.762.523 1.19 1.19 0 0 1-.746.075c-.243-.055-.494-.219-.751-.491l-.408-.431c-.183-.194-.366-.386-.545-.577l-.391-.413c.349-.331.689-.651 1.018-.964a643.348 643.348 0 0 0 1.945-1.84l1.032-.975.675-.638.221-.21.545.577Zm-1.151-4.483-.746.704-.756.716a.175.175 0 0 0-.007.25l.386.408-1.043.986-1.782 1.686c-.593.561-1.189 1.126-1.788 1.691l-1.782 1.685a.174.174 0 0 0-.059.124.178.178 0 0 0 .052.126c.038.038.139.145.304.32l.6.635.738.78.745.786c.237.252.437.464.599.634.405.427.83.749 1.278.966.447.216.903.333 1.368.349a3.21 3.21 0 0 0 1.396-.273 4.539 4.539 0 0 0 1.341-.903l2.621-2.479c.411-.39.733-.797.964-1.221.23-.425.362-.869.393-1.333.032-.464-.062-.945-.282-1.442-.221-.498-.581-1.01-1.081-1.539l-.793-.838c-.301-.318-.616-.65-.941-.996l-.938-.989c-.297-.316-.56-.593-.787-.833ZM142.565 146.195l.454-.429.483-.458a.177.177 0 0 0 .051-.169.182.182 0 0 0-.043-.081l-.992-1.048.623-.589 1.211-1.146 1.211-1.146 1.205-1.139.431-.409.373-.352 1.112 1.177.361-.342.351-.331.348-.33.361-.342a.165.165 0 0 0 .06-.122.168.168 0 0 0-.053-.126l-3.845-4.066-.36.342-.35.331-.349.33-.361.342a.168.168 0 0 0-.05.123.163.163 0 0 0 .042.126l.993 1.049-.629.593-1.211 1.146-1.207 1.141c-.398.379-.796.754-1.193 1.129l-.43.408-.385.364-1.112-1.176-.484.456-.454.43-.484.458a.14.14 0 0 0-.035.055.205.205 0 0 0-.003.136.138.138 0 0 0 .032.058l3.844 4.063c.172-.16.332-.313.484-.456ZM145.989 148.87c.319-.302.634-.599.943-.893.163-.155.344-.328.543-.523a29.244 29.244 0 0 0 2.13-2.391c.236-.293.482-.625.734-.974l.235.249a76.57 76.57 0 0 0-.499 1.328c-.217.603-.434 1.228-.653 1.875a75.495 75.495 0 0 0-.669 2.092c-.229.745-.474 1.579-.733 2.502-.076.293-.105.489-.085.588.02.098.052.171.097.218l.451.476.495.525c.169.178.328.345.474.501l.588-.556.6-.568 1.706-1.614 1.712-1.62c.572-.539 1.142-1.079 1.711-1.619.571-.54 1.141-1.077 1.707-1.614a.17.17 0 0 0 .06-.123.172.172 0 0 0-.053-.126l-.743-.786c-.255-.268-.506-.534-.755-.798l-.832.788-.729.688c-.24.228-.474.455-.698.684-.226.228-.448.464-.666.707a25.347 25.347 0 0 0-1.387 1.686c-.214.288-.443.605-.683.945l-.216-.229c.105-.274.213-.551.307-.818.145-.408.283-.812.42-1.213.136-.401.271-.805.408-1.214l.42-1.257c.144-.432.293-.881.446-1.349l.489-1.501a3.76 3.76 0 0 0 .142-.409c.021-.086.027-.146.016-.181a.32.32 0 0 0-.082-.122l-.561-.594-.645-.681-.567-.599-.589.556-.587.555-1.712 1.621-1.712 1.619-1.706 1.613-1.718 1.626a.164.164 0 0 0-.047.079.171.171 0 0 0 .041.171l.754.797.743.786.955-.903ZM158.376 153.483c.473-.287.89-.544 1.253-.777.225-.145.432-.284.628-.42l.244.258c-.148.188-.3.383-.459.599a60.891 60.891 0 0 0-1.885 2.698l-.493.748-.13-.136-.37-.39-1.133-1.2.726-.422c.607-.353 1.147-.673 1.619-.958Zm-7.919 1.997a.123.123 0 0 0 .032.057l.766.809.765.81c.803-.449 1.519-.856 2.184-1.237l2.304 2.434a317.08 317.08 0 0 0-1.193 1.843.915.915 0 0 0-.095.179.174.174 0 0 0-.003.125c.013.038.043.08.087.127l.749.792.739.779c.251-.341.488-.683.714-1.028.225-.346.452-.685.68-1.019.489-.727.955-1.431 1.402-2.11l1.285-1.956c.411-.623.795-1.214 1.154-1.775a92.6 92.6 0 0 1 1.025-1.566.293.293 0 0 0 .043-.095.299.299 0 0 0 .002-.079c-.003-.027-.02-.055-.05-.086l-1.299-1.375c-.485-.511-.954-1.009-1.411-1.49-.253.151-.593.353-1.02.601-.426.249-.909.529-1.446.839-.538.31-1.099.635-1.684.974-.584.339-1.164.676-1.744 1.011-.58.336-1.126.653-1.637.952-.511.301-.964.561-1.355.786-.391.222-.691.396-.899.519-.046.03-.075.06-.087.094a.138.138 0 0 0-.008.085ZM158.922 163.234c-.006.537.122 1.088.386 1.655s.667 1.137 1.211 1.712c.345.365.698.675 1.057.931.36.256.693.452.999.589.306.137.557.208.754.214a.305.305 0 0 0 .13-.025.37.37 0 0 0 .122-.082l.373-.352.344-.325.337-.32.356-.336-.21-.221c-.571-.152-1.054-.349-1.452-.59a5.833 5.833 0 0 1-1.192-.991 4.001 4.001 0 0 1-.58-.765 1.444 1.444 0 0 1-.205-.766c.008-.272.095-.545.262-.82.164-.275.415-.571.749-.886l2.155-2.039c.349-.33.685-.542 1.01-.636.324-.093.635-.082.935.033.299.113.584.314.856.601.227.241.413.477.559.707.061.099.11.206.158.316l-.289.272-.46.434-.389.369a.176.176 0 0 0-.061.124.175.175 0 0 0 .054.126l.694.733.706.746 1.082-1.025 1.001-.947a.702.702 0 0 0 .13-.166.16.16 0 0 0 .014-.102c.014-.235-.029-.518-.129-.849a5.183 5.183 0 0 0-.493-1.08 6.519 6.519 0 0 0-.903-1.176c-.491-.519-1.005-.915-1.537-1.182a3.802 3.802 0 0 0-1.603-.425 3.79 3.79 0 0 0-1.575.297 4.816 4.816 0 0 0-1.455.969l-2.318 2.192c-.512.485-.903.986-1.169 1.505a3.52 3.52 0 0 0-.414 1.581ZM168.741 154.848c-.012.321-.024.604-.035.85-.01.245-.018.428-.021.549-.005.196.001.326.018.392a.425.425 0 0 0 .103.179l.496.523.666.705.501.53c.211.005.453.008.726.008l.839.001h.827c.265 0 .497.002.692.009.21.005.345.005.397-.001a.215.215 0 0 0 .127-.053.143.143 0 0 0 .04-.061c.005-.019-.001-.04-.014-.063a.815.815 0 0 0-.066-.082l-1.378-1.455-1.108-.111a26.953 26.953 0 0 0-.892-.067l-.073-.077-.039-.041a20.58 20.58 0 0 0-.064-1.772 1.221 1.221 0 0 0-.044-.234.672.672 0 0 0-.148-.201l-.727-.769-.717-.757c-.015.324-.034.657-.055 1.001-.021.344-.038.676-.051.997ZM164.208 170.003a.17.17 0 0 0 .043.08l.755.798.743.786.955-.903.944-.892a24.924 24.924 0 0 0 1.892-1.978c.249-.288.51-.6.779-.937.236-.293.483-.626.734-.974l.236.248c-.172.451-.345.904-.499 1.329a82.502 82.502 0 0 0-1.323 3.966c-.229.746-.472 1.58-.732 2.503-.076.293-.106.489-.085.587.02.1.052.172.096.218l.452.478.496.524.474.501.587-.556c.199-.188.398-.377.601-.567l1.705-1.614 1.712-1.621 1.712-1.618 1.706-1.615a.169.169 0 0 0 .06-.122.173.173 0 0 0-.054-.127 334.958 334.958 0 0 0-1.498-1.583l-.832.787-.728.689c-.24.227-.473.455-.698.682-.227.229-.448.465-.667.708-.219.244-.443.504-.674.781-.231.277-.468.579-.711.905-.215.288-.444.606-.684.945l-.217-.229c.105-.274.215-.551.309-.818.144-.409.283-.812.419-1.213.135-.401.272-.805.408-1.213.135-.409.276-.828.419-1.259.145-.431.294-.881.447-1.349l.489-1.5c.074-.187.121-.323.142-.41.022-.086.028-.146.017-.18a.337.337 0 0 0-.083-.122l-.561-.594a1910.174 1910.174 0 0 0-1.212-1.281l-.588.557c-.199.187-.395.372-.588.556l-1.713 1.62-1.711 1.619-1.707 1.614-1.716 1.626a.152.152 0 0 0-.048.078.162.162 0 0 0-.003.09ZM177.877 177.957l-1.135-1.199c.25-.145.501-.29.726-.423.608-.353 1.148-.673 1.62-.958.474-.286.89-.543 1.252-.776.227-.145.432-.284.628-.421l.246.258c-.149.188-.302.385-.459.6a56.392 56.392 0 0 0-1.884 2.698l-.497.748-.127-.136-.37-.391Zm1.02 4.089c.49-.728.956-1.43 1.403-2.111.445-.679.874-1.331 1.285-1.955.409-.622.795-1.215 1.155-1.776.359-.561.7-1.083 1.024-1.565a.268.268 0 0 0 .042-.095.299.299 0 0 0 .002-.079.154.154 0 0 0-.048-.086l-1.301-1.375-1.41-1.49c-.253.151-.593.352-1.019.601-.427.248-.909.528-1.447.838-.539.31-1.099.636-1.683.975l-1.746 1.011c-.58.336-1.126.653-1.637.953-.511.299-.963.561-1.353.783-.394.224-.692.398-.901.521-.045.029-.074.059-.086.093a.126.126 0 0 0-.009.085.157.157 0 0 0 .033.058 726.856 726.856 0 0 0 1.532 1.618 222.72 222.72 0 0 0 2.182-1.237l2.303 2.435c-.37.569-.76 1.172-1.191 1.842a.993.993 0 0 0-.096.18.177.177 0 0 0-.003.124.4.4 0 0 0 .087.127c.236.249.485.512.749.793l.738.779c.251-.341.49-.683.716-1.029.224-.346.451-.685.679-1.018ZM101.247 124.295c.057.062.11.117.154.163l.1.105a.172.172 0 0 0 .122.06.176.176 0 0 0 .126-.053l.186-.177.362-.341.443-.419.43-.407-.055-.059-.126-.134-.138-.145c-.139-.148-.222-.277-.245-.387-.023-.11-.001-.278.065-.502l.621-2.343c.124-.468.24-.925.359-1.386l1.233-.185 1.731-.258a67.526 67.526 0 0 0 1.429-.227c.417-.071.756-.126 1.013-.165.236-.046.405-.077.507-.094a.803.803 0 0 0 .207-.05.463.463 0 0 0 .075-.049.173.173 0 0 0 .035-.055.106.106 0 0 0 .002-.068.182.182 0 0 0-.043-.07l-1.839-1.944a40.63 40.63 0 0 0-1.131.24l-1.255.283c-.418.094-.803.181-1.153.263-.213.054-.419.105-.616.152a5.2 5.2 0 0 0-.56.166 7.36 7.36 0 0 0-1.068.481l-.221-.233 1.712-1.62c.669-.631 1.335-1.262 2.004-1.895a.171.171 0 0 0 .059-.122.172.172 0 0 0-.053-.127l-.771-.814-.782-.828-.624.59-.622.589-2.26 2.137-2.258 2.137c-.754.713-1.508 1.425-2.26 2.138a.169.169 0 0 0-.06.123c0 .045.017.087.053.126l.782.827.771.816 1.728-1.636c.495-.07.988-.14 1.487-.214l.194-.029.209.222c-.103.17-.196.332-.279.484a4.727 4.727 0 0 0-.235.499c-.074.18-.145.386-.216.623-.072.237-.157.534-.257.894-.119.45-.171.824-.156 1.119.015.295.097.562.25.801.152.238.361.497.625.776l.209.222ZM108.881 125.833l-1.135-1.199c.249-.145.5-.29.726-.423.608-.353 1.147-.673 1.62-.958.474-.286.89-.544 1.252-.776.226-.145.431-.284.629-.421l.244.258c-.148.188-.301.385-.459.6a62.29 62.29 0 0 0-1.884 2.698l-.495.747c-.045-.045-.083-.088-.129-.135l-.369-.391Zm.341 5.107c.224-.346.451-.685.68-1.018.489-.728.955-1.43 1.402-2.111l1.284-1.955c.41-.622.795-1.215 1.155-1.776.36-.561.7-1.083 1.025-1.565a.268.268 0 0 0 .042-.095.306.306 0 0 0 .002-.08.16.16 0 0 0-.048-.086l-1.301-1.374-1.41-1.49c-.253.15-.593.352-1.02.6-.426.249-.908.529-1.446.839-.539.31-1.099.636-1.683.975l-1.746 1.011c-.58.335-1.126.653-1.637.953-.512.299-.963.56-1.354.783-.393.224-.691.398-.899.52-.046.03-.076.06-.088.094a.133.133 0 0 0-.008.086.16.16 0 0 0 .032.057l.766.809.766.809a224.48 224.48 0 0 0 2.184-1.237l2.302 2.435c-.37.569-.76 1.172-1.191 1.842a.96.96 0 0 0-.096.18.171.171 0 0 0-.002.124c.012.038.042.08.086.127l.749.792.738.78c.251-.341.49-.683.716-1.029ZM118.798 129.624c.146.155.252.301.316.439s.099.271.102.399a.942.942 0 0 1-.111.371c-.065.12-.166.246-.306.378l-.803.76a1.353 1.353 0 0 1-.521.326.763.763 0 0 1-.526-.021c-.176-.069-.355-.201-.539-.393a142.29 142.29 0 0 0-.584-.618l-.319-.339 1.305-1.233.646-.612.436-.412.904.955Zm-5.52.056a1998.87 1998.87 0 0 1-3.534 3.343.18.18 0 0 0-.06.124c0 .045.016.087.053.126l.783.826.771.815.536-.506.605-.573a1487.49 1487.49 0 0 0 1.584-1.498l.479.506c.069.073.14.147.208.221-.138.399-.276.8-.421 1.197-.206.553-.407 1.107-.604 1.662-.107.306-.152.578-.135.813.017.234.092.463.23.686.137.224.335.47.592.741.073.079.155.166.248.263l.215.227a.17.17 0 0 0 .122.06.17.17 0 0 0 .127-.053l.704-.666.716-.678-.219-.233a3.144 3.144 0 0 1-.072-.076l-.072-.076a.46.46 0 0 1-.129-.253c-.013-.09.003-.214.044-.372a65.458 65.458 0 0 0 .572-1.787c.258.092.519.16.783.174.397.022.79-.049 1.179-.211a3.71 3.71 0 0 0 1.121-.752l.687-.649c.373-.353.659-.719.859-1.1.199-.379.308-.777.327-1.192.02-.416-.076-.847-.287-1.295-.211-.448-.548-.917-1.01-1.405l-1.509-1.597-1.51-1.596-.704.668-.715.677a.166.166 0 0 0-.061.123.169.169 0 0 0 .053.127l.385.408-1.21 1.145-1.731 1.636ZM129.256 137.579l-5.388-5.694-.705.666-.715.677a.177.177 0 0 0-.008.249l1.763 1.864-1.141 1.079-1.764 1.67-1.759 1.663-1.811 1.713a.18.18 0 0 0-.06.124.18.18 0 0 0 .053.126l.816.861.804.85.537-.506c.192-.184.395-.376.604-.573l1.537-1.454 1.421-1.345 1.433-1.354c.147-.141.297-.281.449-.425l.477-.451c.051-.049.095-.092.145-.138l1.884 1.991.722-.682.699-.662a.174.174 0 0 0 .06-.123.18.18 0 0 0-.053-.126ZM128.045 146.097l-1.135-1.2c.249-.145.501-.29.726-.423.607-.353 1.147-.673 1.619-.958.474-.285.89-.544 1.253-.777.226-.144.432-.283.628-.42l.244.259a27.5 27.5 0 0 0-.459.599 61.79 61.79 0 0 0-.85 1.178c-.31.441-.655.947-1.033 1.52-.156.235-.324.49-.496.747l-.129-.135a62.366 62.366 0 0 0-.368-.39Zm1.02 4.088c.489-.728.956-1.431 1.402-2.111l1.286-1.955c.409-.623.794-1.215 1.154-1.776.36-.561.7-1.083 1.025-1.565a.25.25 0 0 0 .041-.094.27.27 0 0 0 .002-.08c-.002-.027-.018-.056-.047-.087l-1.301-1.374-1.41-1.491a215.372 215.372 0 0 1-2.466 1.44l-1.684.974c-.583.339-1.166.677-1.746 1.012-.579.335-1.125.652-1.636.953-.511.299-.963.561-1.354.783a83.1 83.1 0 0 0-.9.52.2.2 0 0 0-.087.094.131.131 0 0 0-.008.085.12.12 0 0 0 .033.058l.765.809.767.81c.802-.45 1.518-.857 2.182-1.238l2.303 2.435c-.371.569-.761 1.172-1.191 1.842a.904.904 0 0 0-.096.18.177.177 0 0 0-.003.124c.012.038.043.08.087.127l.749.792.738.781c.251-.341.49-.684.715-1.03.224-.346.452-.685.68-1.018ZM135.841 155.644l-4.845-5.122.699-.66 4.844 5.122-.698.66ZM136.453 161.978c.596.628 1.189 1.067 1.784 1.314.593.247 1.161.328 1.701.245a2.618 2.618 0 0 0 1.425-.708l.29-.276c.295-.28.502-.613.618-1.003.117-.39.117-.842-.002-1.355-.094-.408-.301-.859-.614-1.351l.176-.165c.441.289.854.49 1.235.596.491.139.939.153 1.342.043a2.49 2.49 0 0 0 1.072-.605l.256-.242c.357-.337.588-.751.692-1.24.105-.489.054-1.019-.148-1.592-.205-.572-.592-1.162-1.165-1.767-.514-.544-1.03-.957-1.547-1.239-.518-.283-.95-.437-1.298-.461a.136.136 0 0 0-.078-.002.184.184 0 0 0-.093.054 6.341 6.341 0 0 0-.128.121l-.174.165-.186.175-.17.16c-.05.049-.096.091-.134.127l.155.163c.577.13 1.068.306 1.47.529.403.223.827.57 1.275 1.045.376.395.633.777.774 1.144.141.366.183.705.124 1.018-.057.312-.21.586-.459.821l-.139.132a1.628 1.628 0 0 1-.777.416c-.294.062-.624.033-.989-.091-.369-.123-.782-.355-1.241-.692-.46-.338-.968-.802-1.526-1.392l-.146.138-.215.204c-.079.073-.15.141-.216.204l-.157.148a.168.168 0 0 0-.007.249c.499.529.903 1.018 1.213 1.469.308.451.527.869.657 1.254.128.386.162.736.101 1.052-.062.315-.22.595-.477.837l-.162.154c-.297.279-.622.437-.978.473-.357.035-.724-.043-1.105-.235-.38-.193-.762-.49-1.143-.894a7.561 7.561 0 0 1-.785-.957 3.863 3.863 0 0 1-.461-.931 5.622 5.622 0 0 1-.237-1.079l-.153-.163c-.032.029-.076.072-.136.126-.057.056-.123.118-.197.188l-.209.199-.175.165-.099.093a.291.291 0 0 0-.077.105.496.496 0 0 0-.021.142c.009.227.076.499.199.816.123.318.308.661.554 1.031.249.369.551.745.911 1.125ZM148.1 167.88c-.527.499-1.033.84-1.514 1.023-.481.184-.932.225-1.353.122-.42-.103-.804-.336-1.148-.702a2.264 2.264 0 0 1-.595-1.059 2.04 2.04 0 0 1 .09-1.177c.057-.172.14-.353.247-.543.108-.19.242-.381.408-.573a7.34 7.34 0 0 1 .56-.585l2.213-2.093c.542-.515 1.055-.864 1.537-1.047.48-.183.927-.222 1.336-.115.409.106.782.337 1.12.694.227.241.402.494.524.763.12.268.17.545.146.832-.007.241-.059.49-.156.744a3.372 3.372 0 0 1-.442.781 6.432 6.432 0 0 1-.748.83l-2.225 2.105Zm4.716-5.058c-.106-.649-.418-1.245-.931-1.789-.522-.551-1.099-.906-1.735-1.063-.633-.158-1.294-.121-1.98.109-.688.23-1.365.662-2.033 1.294l-2.213 2.093a6.133 6.133 0 0 0-1.133 1.414 4.118 4.118 0 0 0-.524 1.488c-.065.498-.02.983.142 1.455.161.474.436.916.825 1.327.514.544 1.088.895 1.724 1.052.634.157 1.293.121 1.98-.11.687-.229 1.364-.662 2.032-1.292l2.213-2.094c.645-.609 1.104-1.247 1.38-1.912.275-.666.36-1.323.253-1.972ZM157.046 173.714a3.02 3.02 0 0 1 1.022.137c.292.098.533.249.725.451.27.287.387.574.35.859-.038.287-.217.581-.535.882l-.734.694-.826.782-.886.837-.926.877-.937.886c-.031.03-.049.058-.053.084a.205.205 0 0 0 .003.085c.006.03.021.057.043.081l.248.262.28.296.254.268.577-.544.576-.547c.334-.315.663-.628.99-.935l.95-.899.86-.815.74-.699a2.79 2.79 0 0 0 .607-.795 1.71 1.71 0 0 0 .186-.805 2.03 2.03 0 0 0-.172-.765 2.345 2.345 0 0 0-1.152-1.182 2.464 2.464 0 0 0-.872-.223 4.737 4.737 0 0 0-1.09.061l-.179-.19c.044-.07.097-.138.133-.209.128-.253.195-.509.202-.765a1.822 1.822 0 0 0-.148-.764 2.42 2.42 0 0 0-.479-.717 2.183 2.183 0 0 0-.73-.513 2.764 2.764 0 0 0-.895-.213 5.318 5.318 0 0 0-1.055.039l-.151-.159c.122-.164.234-.313.32-.431.122-.166.27-.384.443-.651l-.165-.175-.176-.186-.183-.192-.17-.181-.483.457-.681.644-1.63 1.542-1.625 1.538-1.625 1.537a.369.369 0 0 0-.052.061.106.106 0 0 0-.019.062c0 .023.005.043.015.063.011.018.027.04.049.063l.193.204c.07.074.139.146.203.216l.199.209.187.198 1.847-1.746a1394.095 1394.095 0 0 0 2.377-2.249c.336-.053.656-.091.942-.097.397-.008.741.038 1.034.137.292.098.53.244.714.438.176.187.282.369.32.548a.878.878 0 0 1-.072.542 1.84 1.84 0 0 1-.419.55c-.239.228-.496.471-.768.728l-.838.792c-.288.272-.583.551-.885.839-.304.285-.612.577-.926.874-.315.298-.632.597-.949.899-.031.03-.05.057-.054.083a.21.21 0 0 0 .003.086c.007.03.022.056.044.08l.242.256c.096.1.192.204.291.309.1.104.182.191.248.262.504-.478.986-.932 1.445-1.366l1.287-1.218c.399-.379.766-.725 1.101-1.041l.452-.428a5.4 5.4 0 0 1 .838-.098ZM165.838 176.998a70.2 70.2 0 0 0 .552.582l.28.297 1.047-.991a.17.17 0 0 0 .06-.124.17.17 0 0 0-.053-.126l-.28-.297a1418.547 1418.547 0 0 1-.551-.581l-.281-.298-1.047.992a.17.17 0 0 0-.061.123.166.166 0 0 0 .053.125l.281.298ZM158.721 185.05l.361-.342.348-.329.339-.32 1.234-1.167c.419-.398.841-.796 1.264-1.196l1.263-1.196 1.235-1.167a.183.183 0 0 0 .05-.169.17.17 0 0 0-.044-.081l-.352-.372-.386-.408-.407-.431-.403-.425-.38-.402-.355.337c-.121.113-.238.225-.354.336a.162.162 0 0 0-.05.122.172.172 0 0 0 .042.126l.221.233a41.949 41.949 0 0 1 .451.478l.209.221.177.187-.997.941-1.064 1.008-1.095 1.036-1.066 1.008-.984.931c-.032.029-.047.07-.048.123-.002.053.011.095.042.126l.374.396.375.396ZM167.716 188.599c-.472.449-.947.896-1.42 1.343l-1.421 1.345a.16.16 0 0 0-.053.084.205.205 0 0 0 .003.085c.007.03.021.057.044.08l.373.396.376.396.605-.573a5829.89 5829.89 0 0 1 1.735-1.641l1.118-1.057c.373-.353.745-.706 1.119-1.058.248-.235.442-.489.582-.761a2.39 2.39 0 0 0 .255-.827 1.802 1.802 0 0 0-.119-.848 2.505 2.505 0 0 0-.537-.826 2.896 2.896 0 0 0-.891-.648 3.318 3.318 0 0 0-1.046-.29 6.12 6.12 0 0 0-1.167-.009l-.166-.175c.302-.287.607-.574.909-.859a.185.185 0 0 0 .054-.084.262.262 0 0 0 .001-.079c-.003-.027-.019-.056-.049-.087l-.231-.244-.248-.262-.27-.286-.471.446-.682.645-1.228 1.162c-.408.386-.815.77-1.217 1.152l-1.217 1.151-1.229 1.163a.386.386 0 0 0-.053.06.133.133 0 0 0-.019.062c0 .023.006.043.016.064a.374.374 0 0 0 .049.062l.259.274.248.263.242.255 2.021-1.911 2.015-1.906.254-.241c.279-.004.544-.001.784.02.336.028.641.079.914.15.274.072.519.172.734.299.216.127.405.275.566.446.28.295.417.607.412.936-.007.328-.184.659-.532.989l-1.422 1.344ZM83.141 134.96l-1.594 1.254-1.189-1.257c1.476-.444 3.82-1.122 4.842-1.525l.003.003a67.09 67.09 0 0 0-2.062 1.525Zm-.318 2.603-.529-.558 4.411-3.439-1.059-1.118-6.098 1.715-.736.57 1.965 2.076-1.827 1.429.748.791 1.83-1.428.46.487.835-.525ZM79.352 140.572l.639.677c.872-.129 2.126-.652 3.075-1.336l-.751-.793c-.776.556-1.862 1.101-2.963 1.452ZM88.749 140.59l-1.613 1.264c-1.513 1.163-2.225 1.418-2.733.881-.529-.559-.111-1.265 1.329-2.378l1.624-1.263c1.406-1.097 2.146-1.288 2.621-.787.53.561.212 1.162-1.228 2.283Zm1.977-2.924c-.987-1.044-2.272-.914-4.19.591l-1.527 1.196c-1.997 1.533-2.443 2.77-1.362 3.914 1.108 1.175 2.35.829 4.321-.696l1.52-1.189c1.89-1.474 2.288-2.707 1.238-3.816ZM92.518 144.568l-1.612 1.264c-1.513 1.163-2.225 1.417-2.734.881-.528-.56-.11-1.265 1.33-2.378l1.623-1.264c1.406-1.097 2.146-1.288 2.622-.786.529.561.212 1.161-1.229 2.283Zm1.978-2.924c-.988-1.045-2.272-.915-4.19.59l-1.527 1.196c-1.997 1.533-2.443 2.77-1.363 3.915 1.11 1.175 2.35.829 4.322-.697l1.519-1.189c1.89-1.474 2.288-2.705 1.239-3.815ZM96.253 148.941l-1.493-1.578 2.872-2.24-.796-.841-7.004 5.461.796.842 3.312-2.584 1.492 1.577-3.313 2.584.797.842 7.005-5.461-.796-.842-2.872 2.24ZM101.287 152.342l-.152.117c-.764.604-1.317.578-1.955-.097l-.484-.512 2.283-1.784.532.562c.61.645.421 1.206-.224 1.714Zm1.054-2.248-1.385-1.465-7.007 5.461.795.84 3.183-2.483.491.519c.658.696.5 1.14-.418 1.864l-.07.066c-.784.573-1.506 1.177-1.778 1.523l.775.819c.35-.389 1.053-.949 1.736-1.482l.08-.075c.993-.776 1.222-1.354.997-1.991.45.246 1.193.402 2.196-.384l.156-.118c1.157-.909 1.289-1.994.249-3.094ZM107.111 155.134c-1.477.281-3.882.748-4.87.933l-.003-.005 3.316-2.575-.786-.832-7.006 5.463.786.83 2.424-1.874 1.507-.201-2.235 3.869.853.902 2.723-4.875 4.203-.672-.912-.963ZM2.166 70.84l48.148 50.958 72.531-68.413-47.71-51.112a7 7 0 0 0-9.91-.324L2.46 60.93a7 7 0 0 0-.294 9.909Z"
    fill="var(--theme-1, #E9E9E2)"
  />
  <path
    d="M51.605 101.872c.052.4-.026.818-.236 1.244-.208.426-.53.852-.973 1.279a9.647 9.647 0 0 1-.844.704c-.278.2-.521.356-.739.47-.217.113-.374.182-.488.2-.035 0-.07 0-.095-.009a.184.184 0 0 1-.087-.052c-.017-.018-.051-.061-.112-.122a4.115 4.115 0 0 0-.201-.209c-.078-.087-.157-.165-.235-.252-.086-.087-.156-.165-.217-.226-.06-.061-.096-.105-.113-.122l.148-.139a4.03 4.03 0 0 0 1.305-.652c.208-.148.434-.348.678-.583.278-.261.47-.496.582-.713.114-.227.157-.427.13-.609a.838.838 0 0 0-.243-.496l-.06-.069a.832.832 0 0 0-.444-.261c-.166-.035-.357-.018-.583.061-.226.077-.488.226-.791.443-.296.226-.644.522-1.036.896a.141.141 0 0 1-.095.035.109.109 0 0 1-.088-.044c-.025-.026-.077-.078-.147-.156-.078-.078-.165-.174-.26-.278a6.577 6.577 0 0 1-.261-.279l-.148-.148c.443-.417.782-.774 1.017-1.078.244-.296.4-.548.478-.757.087-.209.104-.392.062-.54a1.011 1.011 0 0 0-.236-.4l-.035-.043a.838.838 0 0 0-.425-.243c-.166-.035-.349 0-.566.087-.208.095-.443.26-.705.504-.33.322-.59.6-.765.852-.174.261-.33.557-.46.896l-.158.139c-.016-.026-.051-.06-.112-.121-.053-.061-.113-.122-.191-.209-.078-.078-.148-.157-.227-.235-.078-.078-.139-.148-.2-.209-.06-.061-.095-.104-.113-.122a.29.29 0 0 1-.052-.087.1.1 0 0 1 .009-.086c.043-.166.182-.427.409-.775.224-.356.539-.713.93-1.087.435-.409.851-.704 1.27-.87.417-.173.81-.243 1.166-.19.365.043.678.208.947.495l.157.156a1.9 1.9 0 0 1 .47.81c.068.278.052.591-.061.922-.088.26-.253.548-.453.86l.157.166c.34-.217.652-.374.93-.453.357-.095.67-.112.949-.043.27.078.504.218.704.426l.234.244c.297.321.48.678.523 1.078ZM53.997 71.735c-4.358 4.714-9.75 10.419-14.455 15.508a.507.507 0 0 1-.757-.009c-2.026-2.244-4.384-3.67-4.105-7.167.191-2.418-.451-4.974-1.07-7.384-.948-3.722-1.383-7.367.2-11.028a.605.605 0 0 0 .044-.2c0-.41-.514-.679-.853-.365L27.2 66.585c-.139.13-.191.33-.139.505.383 1.322.244 1.496-2.14 3.218a.516.516 0 0 1-.67-.061l-3.852-4.07a.51.51 0 0 1 0-.697c3.505-3.713 6.914-7.47 10.506-11.045 2.958-2.94 3.062-2.261 6.688-.226 4.323 2.426 4.393 6.566 2.966 10.993-1.174 3.644-1.809 6.254-2.357 10.107-.017.226-.035.538-.052.852-.026.392.504.54.687.2.74-1.313 1.427-2.653 2.218-3.931 1.018-1.652 2.888-4.253 4.149-5.706 1.626-1.87 3.444-1.739 5.105.07a503.958 503.958 0 0 1 3.644 3.992c.062.07.078.183.157.461a.5.5 0 0 1-.113.487ZM57.368 97.48c-.01.008-.096.087-.235.226-.148.13-.33.313-.556.522-.227.217-.478.452-.748.713-.279.252-.548.513-.818.765-.27.26-.522.496-.748.705a57.835 57.835 0 0 1-.792.747.155.155 0 0 1-.052.035h-.06c-.018 0-.044-.017-.062-.035l-.617-.652c-.313-.33-.53-.67-.67-1.035-.139-.356-.19-.774-.165-1.252.026-.47.13-1.044.313-1.722.113-.374.183-.687.226-.94.035-.243.052-.452.044-.608a1.047 1.047 0 0 0-.096-.4 1.08 1.08 0 0 0-.2-.279l-.06-.07a.98.98 0 0 0-.245-.19.724.724 0 0 0-.278-.08c-.121-.008-.26.036-.417.123-.165.078-.356.226-.583.443-.304.296-.548.6-.713.93-.166.331-.278.706-.34 1.105l-.138.131c-.018-.026-.061-.06-.113-.122a3.916 3.916 0 0 0-.2-.208c-.079-.088-.157-.166-.235-.244-.07-.078-.14-.148-.192-.209-.052-.06-.086-.095-.104-.113-.026-.017-.035-.043-.043-.07-.018-.025-.018-.052-.018-.078.018-.252.13-.582.33-.983.2-.4.496-.782.896-1.157.322-.312.644-.547.949-.703.304-.166.6-.253.887-.279.278-.018.548.026.791.13.244.105.47.27.678.487l.192.2c.174.192.322.383.426.592.113.2.183.435.209.687.026.252.017.557-.035.896a8.761 8.761 0 0 1-.296 1.235c-.113.443-.2.817-.243 1.105-.044.295-.061.547-.026.748.026.208.078.39.173.539.07.121.174.234.279.356l.139-.13c.044-.07.07-.156.113-.226.087-.157.2-.314.34-.478.139-.166.33-.358.556-.575l1.548-1.46a.138.138 0 0 1 .087-.044c.035 0 .07.017.095.043.01.018.044.052.105.113.052.061.113.122.191.2.07.078.148.157.227.244.078.078.139.148.2.208.052.061.087.096.104.114ZM61.463 93c-.025.321-.139.643-.322.973-.182.331-.443.661-.79.983a7.708 7.708 0 0 1-.835.696c-.262.192-.497.33-.705.435a2.043 2.043 0 0 1-.487.182.131.131 0 0 1-.087-.008.285.285 0 0 1-.06-.052c-.019-.017-.054-.061-.115-.122-.06-.06-.13-.13-.208-.218a3.374 3.374 0 0 0-.244-.252c-.078-.087-.148-.165-.209-.226-.051-.06-.087-.096-.104-.113l.148-.14c.347-.112.67-.26.983-.443.304-.19.626-.443.965-.756.357-.34.557-.67.601-.983.042-.313-.053-.592-.288-.835l-.252-.279a1.356 1.356 0 0 0-.477-.33.74.74 0 0 0-.532-.008c-.19.051-.4.182-.609.382-.164.157-.312.33-.435.522a2.512 2.512 0 0 0-.286.574l-.896.844a.2.2 0 0 1-.104.052c-.035 0-.07-.026-.096-.07a5.417 5.417 0 0 0-.297-.39c-.147-.193-.312-.41-.512-.67-.2-.253-.41-.532-.627-.819-.217-.287-.435-.565-.652-.852-.218-.278-.418-.53-.591-.757.008-.017.078-.078.2-.19.114-.114.269-.262.452-.436.122-.113.26-.243.391-.374.079-.06.14-.122.218-.2.217-.2.435-.408.652-.617.218-.2.417-.392.61-.574.183-.174.338-.322.451-.427a1.87 1.87 0 0 1 .192-.182.11.11 0 0 1 .086-.035c.035 0 .062.017.087.043l.104.105c.054.052.114.122.175.191.07.07.139.148.21.218.069.078.129.139.182.191.051.052.086.087.104.113-.009.009-.079.07-.2.182-.121.123-.269.261-.462.436-.182.173-.374.365-.582.556-.208.2-.409.383-.592.566-.19.182-.356.33-.486.452-.01.009-.01.017-.018.026l.113.139c.14.192.296.392.47.626.166.226.33.444.488.653.094.121.173.234.26.339l.147-.14c.035-.156.079-.303.148-.443.14-.278.366-.556.67-.843.244-.227.487-.4.739-.514.252-.113.514-.165.766-.156.26.008.513.078.765.209.243.121.488.313.722.565l.391.409c.254.27.435.556.548.852.113.304.157.617.122.94ZM66.846 88.512c-.019.017-.061.052-.123.113-.06.061-.14.13-.218.209-.086.078-.164.156-.252.235-.086.078-.164.156-.225.208-.062.061-.106.105-.122.114-.026.026-.053.043-.088.043-.034 0-.06-.017-.086-.043-.034-.044-.113-.122-.244-.261-.121-.13-.269-.279-.435-.452-.147-.166-.303-.323-.451-.488l-2.593 2.445c-.017.016-.035.025-.051.034h-.07a.201.201 0 0 1-.053-.034l-.79-.836c-.08-.339-.15-.643-.21-.913-.06-.278-.13-.591-.208-.94-.078-.347-.157-.704-.244-1.06a59.618 59.618 0 0 0-.235-1.044c-.078-.339-.147-.635-.2-.905-.06-.26-.105-.46-.14-.6 0-.035 0-.07.01-.087.009-.025.017-.052.035-.078.016-.017.035-.044.052-.06.026-.027.07-.062.13-.131.07-.061.148-.13.243-.218.088-.087.174-.174.262-.252.087-.087.173-.165.234-.226.07-.07.113-.104.131-.122l.14.148c.077.365.147.739.217 1.114.078.382.148.765.226 1.156.07.383.148.774.217 1.174.078.4.157.809.234 1.218.044.278.105.565.158.852l.164.165c.062-.121.122-.251.2-.356.13-.192.288-.383.46-.574.175-.191.385-.4.619-.626l.208-.2c-.042-.061-.077-.122-.13-.192-.095-.148-.199-.296-.305-.443a5.37 5.37 0 0 0-.278-.392c-.078-.122-.148-.209-.183-.26.02-.027.07-.07.14-.131.07-.07.148-.14.227-.217.078-.079.156-.148.226-.218s.12-.113.139-.13c.025-.026.044-.035.06-.035h.062c.016 0 .034.017.051.035l.992 1.043.47-.443a.075.075 0 0 1 .06-.035h.053a.137.137 0 0 1 .06.035c.019.017.053.06.104.113.062.06.123.121.183.2.07.07.14.139.209.217.07.07.14.14.191.2.053.052.088.096.105.105l-.565.539.451.47c.035.034.088.095.167.174.07.078.148.156.234.252.087.087.166.174.235.243.07.078.113.122.14.148ZM70.1 83.589c-.069.287-.286.6-.651.948a2.895 2.895 0 0 1-.644.478.976.976 0 0 1-.583.113.968.968 0 0 1-.522-.304 1.115 1.115 0 0 1-.304-.592 1.574 1.574 0 0 1 .077-.722c.062-.182.166-.4.296-.617l.645-.278c.234-.105.426-.166.59-.183a.833.833 0 0 1 .445.06c.13.053.26.148.39.28.244.26.332.53.262.817Zm-3.469-1.487a2.504 2.504 0 0 1-.575.165.675.675 0 0 1-.418-.044 1.387 1.387 0 0 1-.382-.304.968.968 0 0 1-.26-.479.912.912 0 0 1 .06-.539c.088-.191.227-.382.434-.582.183-.174.35-.305.515-.383.164-.07.304-.105.417-.105.13 0 .243.027.338.079.104.06.201.139.297.243l.113.113c.192.209.269.478.234.818-.026.243-.13.513-.26.791l-.513.227Zm4.322-.07-.174-.183a2.51 2.51 0 0 0-.575-.47 1.559 1.559 0 0 0-.598-.217 2.193 2.193 0 0 0-.671.026 4.244 4.244 0 0 0-.53.157l-.148-.156c.086-.157.157-.323.192-.48.06-.26.06-.521-.018-.773a1.678 1.678 0 0 0-.417-.713l-.097-.096a1.997 1.997 0 0 0-1.008-.6 2.042 2.042 0 0 0-1.156.078 3.465 3.465 0 0 0-1.167.757c-.4.373-.669.765-.817 1.165-.156.41-.191.8-.121 1.174.069.374.234.714.513 1l.156.166c.26.278.521.47.765.582.244.114.513.148.8.114.182-.017.392-.079.61-.148l.165.174a1.904 1.904 0 0 0-.305.652c-.07.305-.052.592.034.853.097.27.245.522.462.747l.104.105c.278.295.61.478.983.53.374.061.766.009 1.192-.165.417-.165.826-.435 1.226-.817.426-.4.722-.81.905-1.236.182-.417.251-.826.191-1.209a1.794 1.794 0 0 0-.496-1.017ZM69.37 58.913c-1.81 1.409-3.436 3.044-5.132 4.601-1.54 1.409-3.027 2.887-4.592 4.262-2.435 2.13-2.41 2.043-5.002.104-3.13-2.348-4.566-6.088-5.087-10.159-.453-3.609-4.245-3.948-7.15-5.227-.121-.052-.312-.113-.4-.06-2.436 1.574-3.46-.131-4.705-1.419a1.34 1.34 0 0 1 .06-1.904l14.22-13.455c.6-.565 1.549-.47 2.027.2.522.748 1.044 1.487 1.548 2.218a1.33 1.33 0 0 1-.05 1.609c-1.932 2.392-3.872 4.792-5.837 7.227a1.354 1.354 0 0 0 .156 1.853c1.105.983 2.166 1.922 3.323 2.949a1.35 1.35 0 0 0 2.043-.305c1.714-2.81 5.133-7.21 6.915-10.133a1.351 1.351 0 0 1 2.122-.217l2.304 2.444c.488.513.498 1.314.01 1.835-2.409 2.583-7.063 7.28-9.411 9.82a1.337 1.337 0 0 0-.122 1.67c.47.695.94 1.374 1.393 2.035a1.342 1.342 0 0 0 1.912.322c3.766-2.819 9.829-7.837 12.855-9.994.26.078.426.078.522.166 3.375 3.104-.348 6.766-3.923 9.558ZM74.763 79.247c-.053.227-.183.427-.383.618-.165.157-.33.261-.505.304a.996.996 0 0 1-.53.018c-.096-.018-.2-.07-.322-.13-.078-.053-.164-.122-.26-.192.008-.122.018-.252.025-.374.01-.278.017-.557.017-.835.01-.278.01-.574.02-.87.007-.217 0-.409-.01-.573a4.182 4.182 0 0 0-.079-.497c-.025-.087-.07-.182-.095-.27l.173-.173 1.297 1.365c.295.314.495.6.592.87.103.261.12.514.06.74Zm-2.757-.095-1.252-1.322c-.305-.313-.505-.609-.618-.87-.104-.26-.13-.505-.07-.722.052-.217.183-.417.383-.6.13-.13.278-.235.426-.296a.79.79 0 0 1 .443-.078c.114.009.244.034.376.096.12.052.251.13.373.226-.008.252-.018.513-.018.757-.008.382-.018.773-.025 1.182a4.537 4.537 0 0 0 0 .705c.007.183.035.357.07.513.025.078.06.165.085.252l-.173.157Zm4.026-1.018c-.156-.504-.46-.982-.904-1.461l-1.487-1.566c-.444-.47-.914-.8-1.392-.991-.487-.183-.965-.235-1.426-.14-.461.088-.888.322-1.279.697-.382.365-.643.774-.765 1.226-.122.46-.113.939.044 1.435.157.496.46.983.913 1.461l1.488 1.566c.33.356.677.626 1.034.826.349.191.713.304 1.07.33.366.035.713-.008 1.052-.13.339-.121.653-.313.94-.591.382-.357.634-.774.766-1.227.12-.46.104-.94-.054-1.435ZM82.165 74.02c-.018.01-.095.088-.243.227-.14.14-.331.313-.558.521-.226.218-.469.453-.747.714-.27.252-.539.513-.81.765-.27.26-.522.496-.746.713-.236.209-.419.392-.558.522-.148.14-.226.209-.234.218a.143.143 0 0 1-.062.034c-.016 0-.034.01-.06 0-.018 0-.036-.017-.053-.034l-.617-.653c-.313-.33-.53-.67-.67-1.026-.139-.365-.191-.783-.165-1.253.026-.478.13-1.052.313-1.73.114-.374.183-.688.217-.931.044-.252.061-.461.053-.617a1.04 1.04 0 0 0-.096-.4 1.069 1.069 0 0 0-.2-.279l-.061-.07a.976.976 0 0 0-.244-.19.773.773 0 0 0-.277-.08c-.122-.008-.262.036-.418.123a2.99 2.99 0 0 0-.583.443 3.552 3.552 0 0 0-.713.94c-.166.33-.277.695-.34 1.095l-.139.131c-.026-.026-.06-.06-.113-.122-.06-.052-.12-.13-.2-.209a6.883 6.883 0 0 0-.234-.243 3.398 3.398 0 0 1-.192-.209.503.503 0 0 1-.104-.113.143.143 0 0 1-.053-.07c-.008-.025-.008-.052-.008-.078.018-.252.123-.582.322-.983.208-.4.504-.782.904-1.157.322-.312.636-.547.948-.704.305-.156.6-.252.888-.278.278-.018.54.026.792.13.242.105.47.27.677.487l.192.2c.174.192.321.383.426.592.113.2.183.435.209.687.026.252.018.557-.035.896-.052.339-.157.756-.296 1.235-.121.443-.2.817-.243 1.113-.053.287-.06.54-.035.74.026.208.088.39.182.539.07.121.174.243.279.365l.139-.14c.035-.069.07-.156.105-.225.095-.157.208-.314.347-.479.14-.165.322-.357.558-.574l1.547-1.46c.026-.027.052-.044.087-.044.035 0 .06.017.087.043.018.017.052.052.104.113.061.061.122.13.191.2.08.078.149.157.228.244.077.078.148.156.199.209l.113.113ZM84.738 44.65c-1.617 1.313-2.886 2.374-4.253 3.331-.287.2-1.148-.096-1.54-.417-3.043-2.497-6.105-4.975-9.036-7.61-1.627-1.47-3.061-3.15-4.662-4.88a.817.817 0 0 0-1.017-.14c-1.061.627-2.2 1.34-3.428 1.862-.565.235-1.712.096-2.034-.313-1.245-1.548-2.322-3.218-3.723-5.28a.825.825 0 0 1 .435-1.243c6.34-2.079 9.471-7.732 14.142-11.707a.81.81 0 0 1 1.113.07l2.905 3.07c.27.287.296.74.052 1.061a3256.694 3256.694 0 0 0-3.122 4.035c-.87 1.123-.809 2.175-.157 3.462 1.836 3.584 4.601 6.14 7.941 8.324 2.193 1.435 4.15 3.235 6.402 5.105.391.33.382.94-.018 1.27ZM86.312 69.039c.052.39-.026.809-.236 1.235-.209.434-.53.86-.974 1.278-.287.27-.573.504-.843.705-.279.2-.521.356-.74.47-.216.113-.374.182-.487.2a.168.168 0 0 1-.095-.01.18.18 0 0 1-.087-.052l-.112-.113c-.053-.06-.123-.13-.201-.217-.079-.078-.157-.165-.235-.252l-.217-.218c-.062-.07-.097-.104-.113-.122l.148-.138c.252-.087.477-.174.686-.279.21-.096.418-.226.618-.373.209-.157.435-.349.679-.584.277-.26.47-.504.583-.721.112-.218.156-.427.13-.61a.883.883 0 0 0-.244-.495l-.06-.06a.848.848 0 0 0-.444-.262c-.166-.043-.356-.017-.583.061-.227.07-.488.217-.783.444a9.892 9.892 0 0 0-1.044.887.139.139 0 0 1-.095.043c-.026 0-.06-.017-.088-.043-.025-.026-.077-.087-.147-.165-.078-.079-.165-.174-.26-.279a6.342 6.342 0 0 1-.262-.27 3.31 3.31 0 0 0-.147-.156c.444-.418.782-.774 1.017-1.078.244-.296.4-.548.478-.757.086-.209.104-.383.062-.53a1.054 1.054 0 0 0-.235-.41l-.036-.034a.777.777 0 0 0-.426-.244c-.165-.035-.348-.008-.565.087-.208.087-.443.253-.705.496-.33.322-.59.608-.765.86a4.675 4.675 0 0 0-.46.888l-.158.139c-.016-.017-.051-.06-.112-.122-.052-.052-.113-.121-.192-.2-.078-.078-.147-.165-.225-.243-.08-.078-.14-.148-.2-.209-.063-.06-.097-.104-.114-.113a.294.294 0 0 1-.052-.087.118.118 0 0 1 .009-.095c.043-.166.182-.427.408-.775a6.23 6.23 0 0 1 .931-1.087c.435-.409.851-.696 1.27-.87.416-.174.81-.234 1.166-.191.365.052.678.218.947.496l.156.165c.245.252.4.522.47.8.07.279.053.592-.06.931-.088.252-.252.548-.454.852l.158.166c.34-.209.653-.374.93-.453.358-.095.67-.113.948-.034.27.069.505.208.705.417l.234.252c.305.314.48.678.523 1.079ZM89.94 64.83c-.07.278-.28.6-.644.94-.236.217-.453.382-.653.477a.934.934 0 0 1-.574.113c-.192-.025-.358-.13-.522-.295a1.144 1.144 0 0 1-.305-.591 1.425 1.425 0 0 1 .08-.723c.06-.191.164-.4.295-.626l.643-.278c.226-.096.427-.156.592-.174a.84.84 0 0 1 .444.052c.13.061.26.157.382.287.243.261.33.53.261.818Zm-3.47-1.496a3.346 3.346 0 0 1-.567.174.735.735 0 0 1-.417-.044 1.431 1.431 0 0 1-.383-.304.93.93 0 0 1-.27-.478.918.918 0 0 1 .07-.54 1.7 1.7 0 0 1 .435-.582c.174-.183.347-.305.513-.383a.944.944 0 0 1 .418-.113c.121 0 .235.026.339.087.096.052.2.139.296.243l.113.114c.19.2.27.47.234.808-.025.244-.13.513-.269.8l-.513.218Zm4.32-.061-.164-.183a2.764 2.764 0 0 0-.574-.47 1.438 1.438 0 0 0-.608-.217 1.714 1.714 0 0 0-.662.027 2.698 2.698 0 0 0-.53.156l-.157-.165a2.17 2.17 0 0 0 .2-.47c.062-.27.053-.522-.017-.783a1.67 1.67 0 0 0-.426-.704l-.087-.105c-.306-.313-.635-.513-1.01-.6-.373-.087-.756-.052-1.156.087-.4.14-.791.392-1.165.748-.4.383-.67.766-.827 1.175-.147.4-.191.79-.121 1.174.07.374.242.704.513.991l.164.174c.262.278.514.47.757.583.253.113.513.147.8.113.183-.026.392-.079.617-.157l.167.174a2.234 2.234 0 0 0-.314.653c-.06.304-.052.591.044.86.087.27.243.514.452.74l.104.104c.279.305.61.479.983.54.374.06.774 0 1.193-.166.416-.165.834-.443 1.234-.826.418-.391.722-.8.904-1.226.183-.427.244-.827.192-1.218a1.83 1.83 0 0 0-.505-1.01ZM96.178 60.158c-.026.322-.14.644-.322.974a4.15 4.15 0 0 1-.791.992 8.67 8.67 0 0 1-.835.696c-.262.183-.496.33-.705.426-.208.105-.365.165-.487.183-.043.008-.069.008-.087 0-.016-.018-.034-.035-.06-.061l-.114-.113c-.06-.061-.122-.14-.208-.227-.079-.078-.157-.164-.244-.252-.078-.087-.148-.156-.209-.217-.051-.061-.087-.104-.104-.122l.148-.14c.347-.103.67-.251.982-.443.305-.182.627-.434.966-.756.357-.34.556-.661.601-.983.042-.313-.053-.592-.288-.835l-.252-.27a1.388 1.388 0 0 0-.479-.339.85.85 0 0 0-.53-.009c-.19.053-.4.183-.609.392-.165.156-.313.33-.435.522a2.637 2.637 0 0 0-.286.565l-.897.844c-.035.034-.07.052-.103.052-.035 0-.07-.018-.096-.061a8.426 8.426 0 0 0-.297-.4c-.147-.183-.312-.409-.512-.66-.2-.262-.41-.532-.627-.818a73.524 73.524 0 0 0-.652-.853 91.855 91.855 0 0 1-.591-.765c.008-.009.078-.07.2-.191.113-.114.269-.253.452-.436l.391-.365c.078-.07.14-.13.218-.2.217-.209.435-.417.652-.617.218-.209.418-.4.61-.575.183-.182.338-.321.451-.434.113-.105.174-.165.192-.174.025-.027.051-.044.086-.044.035 0 .061.017.087.044.018.017.053.052.105.113.052.052.113.113.174.183.07.078.138.148.21.226l.182.183c.051.051.086.095.103.112-.008.01-.078.078-.2.192-.12.113-.268.26-.46.435-.183.173-.375.356-.583.556-.21.192-.41.383-.592.557-.19.182-.356.33-.487.46l-.017.018c.034.044.07.096.113.148.139.183.296.391.47.618.166.225.33.443.486.652.096.13.174.234.262.348l.147-.148c.035-.157.079-.296.148-.435.14-.278.365-.565.67-.852.244-.227.487-.4.739-.514.252-.113.514-.165.766-.156.26.009.512.078.765.209.243.13.487.321.722.574l.391.4c.253.27.435.556.549.86a2 2 0 0 1 .121.931ZM100.068 57.08c-.017.018-.06.053-.13.114-.062.069-.14.138-.226.225a7.256 7.256 0 0 0-.27.253c-.096.087-.175.157-.235.217-.07.07-.113.104-.13.13a.13.13 0 0 1-.096.035c-.026 0-.06-.017-.087-.043a1.917 1.917 0 0 1-.131-.305c-.07-.19-.183-.452-.32-.808-.14-.348-.306-.792-.505-1.323-.201-.539-.445-1.156-.714-1.87a8.251 8.251 0 0 1-.26-.721 6.531 6.531 0 0 1-.193-.653c-.052-.208-.087-.434-.121-.66-.008-.035-.008-.08-.008-.114l-.191-.208-.306.304c-.209.2-.416.391-.609.583-.199.183-.381.357-.556.521l-.548.522.122.122c.104.113.208.218.313.33.105.114.19.2.26.28.07.069.113.121.132.138a.892.892 0 0 0-.123.113c-.07.061-.139.13-.217.2-.087.079-.173.166-.252.244-.087.078-.165.147-.227.208-.06.061-.104.096-.12.114-.027.026-.053.043-.088.043a.165.165 0 0 1-.087-.043 7.1 7.1 0 0 1-.183-.192 47.706 47.706 0 0 0-.364-.391l-.444-.47c-.148-.156-.287-.296-.4-.417-.123-.13-.209-.226-.262-.279l3.949-3.74c.026-.017.044-.026.06-.034.027 0 .044 0 .062.008.017 0 .035.009.06.035l.732.774c.009.017.043.087.104.235.06.14.138.33.243.565.097.235.2.496.314.783.12.287.243.583.365.888.121.312.234.6.338.878.114.278.218.556.323.835.113.27.217.548.33.826.113.279.226.557.34.844.113.286.234.591.356.904ZM106.95 50.565c-.009.008-.087.087-.235.226-.147.139-.33.313-.556.522-.226.217-.479.452-.749.713-.269.252-.538.513-.817.765-.27.26-.513.496-.747.713a21.02 21.02 0 0 1-.557.522c-.14.14-.218.209-.227.226a.365.365 0 0 1-.061.026.07.07 0 0 1-.06 0c-.018 0-.034-.008-.062-.035l-.617-.652a3.016 3.016 0 0 1-.66-1.026 3.009 3.009 0 0 1-.175-1.252c.027-.479.14-1.053.323-1.732.104-.373.182-.678.217-.93.043-.253.051-.461.043-.618a1.099 1.099 0 0 0-.086-.4 1.378 1.378 0 0 0-.201-.278l-.061-.07a1.156 1.156 0 0 0-.243-.19.775.775 0 0 0-.287-.08.917.917 0 0 0-.418.123 3.23 3.23 0 0 0-.574.443 3.357 3.357 0 0 0-1.052 2.035l-.148.131c-.017-.018-.053-.06-.114-.122-.05-.052-.12-.121-.199-.209-.078-.078-.148-.165-.227-.243-.078-.078-.139-.148-.2-.209-.052-.052-.086-.096-.104-.105a.296.296 0 0 1-.042-.077.229.229 0 0 1-.019-.07c.019-.261.13-.592.331-.992.2-.4.504-.783.895-1.157.33-.312.644-.539.957-.704.305-.156.601-.252.88-.27.287-.026.547.018.791.122.252.105.478.27.687.496l.191.191c.174.191.313.383.426.592.114.2.184.435.208.687.027.26.01.557-.043.896a9.505 9.505 0 0 1-.287 1.235c-.122.443-.199.817-.252 1.113-.044.287-.052.54-.025.748.025.2.085.383.183.53.068.122.172.244.277.366l.139-.14c.035-.07.069-.156.104-.216.087-.157.2-.323.349-.488a6.41 6.41 0 0 1 .556-.574l1.549-1.46c.025-.027.051-.045.086-.036.035 0 .062.009.086.035.019.017.053.061.105.113.052.061.123.13.192.209.07.07.148.156.226.235.078.087.147.156.199.208.053.061.088.096.105.114Z"
    fill="var(--theme-2, #383938)"
  />
</svg>
