<svg xmlns="http://www.w3.org/2000/svg" width="235" height="242" fill="none" viewBox="0 0 235 242">
  <path
    fill="var(--main-theme-2, #383938)"
    d="M44.842 86.342c.042.325-.022.665-.192 1.012-.17.346-.43.693-.792 1.04-.234.219-.467.41-.686.573-.227.162-.425.29-.602.382-.176.092-.304.148-.397.163-.028 0-.056 0-.077-.008a.144.144 0 0 1-.07-.042c-.015-.014-.043-.05-.092-.1-.043-.049-.1-.105-.163-.169-.064-.07-.129-.134-.191-.205-.07-.07-.128-.135-.177-.184-.05-.05-.078-.085-.092-.099l.12-.113a3.303 3.303 0 0 0 1.062-.53c.17-.121.353-.284.551-.475.227-.213.382-.403.474-.58.092-.184.128-.347.106-.496a.681.681 0 0 0-.198-.403l-.05-.056a.683.683 0 0 0-.36-.213.885.885 0 0 0-.474.05 2.639 2.639 0 0 0-.644.36c-.24.185-.524.425-.843.73a.114.114 0 0 1-.077.028.088.088 0 0 1-.071-.035c-.02-.022-.063-.064-.12-.128-.063-.063-.134-.142-.212-.226a5.06 5.06 0 0 1-.212-.227l-.12-.12c.36-.34.635-.63.827-.878.198-.24.325-.445.39-.615.07-.17.084-.319.05-.44a.823.823 0 0 0-.192-.324l-.03-.036a.682.682 0 0 0-.345-.198c-.134-.029-.283 0-.46.07-.17.079-.36.213-.574.411-.269.262-.48.489-.623.694a3.72 3.72 0 0 0-.374.728l-.128.114a.727.727 0 0 0-.091-.1c-.043-.049-.093-.098-.156-.169-.063-.064-.12-.128-.184-.191-.064-.064-.113-.12-.163-.17-.05-.05-.078-.085-.091-.1a.252.252 0 0 1-.043-.07.083.083 0 0 1 .007-.07c.036-.135.148-.348.332-.63.183-.29.439-.58.758-.885.354-.333.692-.573 1.032-.708.34-.14.66-.198.95-.155.296.035.55.17.77.403l.128.127c.198.213.317.425.381.659.056.226.043.481-.05.75-.07.212-.204.446-.368.7l.128.135c.276-.177.53-.305.757-.368.29-.078.545-.092.772-.036.22.064.41.178.573.347l.19.198c.242.262.39.552.426.878ZM46.79 61.824c-3.546 3.835-7.933 8.476-11.761 12.616a.413.413 0 0 1-.616-.007c-1.648-1.826-3.566-2.986-3.34-5.83.156-1.968-.366-4.048-.87-6.008-.77-3.029-1.125-5.993.163-8.972a.49.49 0 0 0 .035-.163c0-.333-.417-.552-.693-.297l-4.72 4.472a.41.41 0 0 0-.113.41c.312 1.076.2 1.217-1.74 2.618a.42.42 0 0 1-.545-.05l-3.135-3.311a.415.415 0 0 1 0-.566c2.852-3.021 5.626-6.078 8.548-8.986 2.406-2.392 2.49-1.84 5.44-.184 3.518 1.974 3.574 5.342 2.414 8.944-.955 2.964-1.472 5.087-1.918 8.222a40.42 40.42 0 0 0-.042.693c-.021.319.41.44.559.163.601-1.069 1.16-2.158 1.804-3.198.828-1.344 2.35-3.46 3.376-4.642 1.322-1.521 2.802-1.415 4.153.057.99 1.075 1.982 2.158 2.965 3.248.05.056.063.148.127.375a.406.406 0 0 1-.092.396ZM49.53 82.768c-.007.007-.078.071-.191.184-.12.106-.269.255-.453.425-.184.177-.389.368-.608.58-.227.206-.446.418-.665.623-.22.212-.425.403-.61.573-.183.177-.339.325-.452.432-.12.113-.184.17-.191.176a.137.137 0 0 1-.042.029h-.05c-.014 0-.036-.014-.05-.029l-.502-.53a2.524 2.524 0 0 1-.545-.842c-.113-.29-.155-.63-.134-1.02.021-.381.106-.848.255-1.4.092-.305.148-.559.184-.764a2.74 2.74 0 0 0 .035-.496.852.852 0 0 0-.078-.325.878.878 0 0 0-.163-.227l-.05-.056a.798.798 0 0 0-.198-.156.591.591 0 0 0-.226-.064.63.63 0 0 0-.34.1c-.133.063-.29.184-.474.36-.247.241-.445.489-.58.757-.134.27-.226.574-.276.899l-.113.106c-.014-.02-.05-.05-.092-.099a3.227 3.227 0 0 0-.163-.17c-.063-.07-.127-.134-.19-.198-.057-.063-.114-.12-.156-.17a1.497 1.497 0 0 0-.085-.092c-.021-.013-.029-.035-.035-.056-.015-.021-.015-.043-.015-.064.015-.205.106-.474.27-.8.162-.325.402-.636.728-.94.262-.255.524-.446.772-.573.247-.135.487-.206.721-.227.226-.014.446.021.644.106.198.085.382.22.552.396l.156.163c.141.156.261.311.346.481.092.163.149.354.17.56.021.204.014.452-.029.728a7.14 7.14 0 0 1-.24 1.005c-.092.36-.162.665-.198.898-.036.241-.05.446-.021.61.021.169.063.317.141.438.057.099.142.19.227.29l.113-.106c.035-.057.057-.127.092-.184.07-.128.163-.255.276-.39.113-.134.269-.29.453-.466l1.26-1.19a.112.112 0 0 1 .07-.034c.028 0 .057.014.078.035.007.014.035.042.085.092.042.05.092.099.155.162.057.064.12.128.185.199.063.063.112.12.162.17.042.049.071.077.085.091ZM52.862 79.123c-.02.262-.113.524-.261.793-.149.269-.36.538-.643.8a6.275 6.275 0 0 1-.68.566c-.213.155-.404.269-.573.353-.17.085-.298.128-.396.149a.107.107 0 0 1-.071-.007.224.224 0 0 1-.05-.043c-.014-.014-.043-.05-.092-.099-.049-.05-.106-.106-.17-.177a2.744 2.744 0 0 0-.198-.205c-.064-.07-.12-.134-.17-.184-.042-.05-.07-.078-.085-.092l.12-.113c.283-.092.546-.212.8-.36.248-.156.51-.362.786-.617.29-.276.453-.544.489-.799a.786.786 0 0 0-.235-.68l-.205-.226a1.105 1.105 0 0 0-.388-.269.602.602 0 0 0-.433-.007c-.155.043-.325.149-.495.312a2.304 2.304 0 0 0-.354.424 2.043 2.043 0 0 0-.233.467l-.729.687a.162.162 0 0 1-.085.042c-.028 0-.056-.021-.078-.056a4.45 4.45 0 0 0-.24-.319l-.417-.545c-.164-.205-.333-.431-.51-.665-.177-.234-.354-.46-.531-.693-.177-.227-.34-.432-.481-.616.007-.014.063-.064.163-.155.092-.093.218-.213.367-.355.1-.091.213-.198.319-.304.063-.05.114-.099.177-.162.176-.163.354-.333.53-.503.177-.163.34-.318.496-.467.15-.141.276-.262.368-.347.091-.092.14-.141.156-.148a.09.09 0 0 1 .07-.028c.028 0 .05.014.07.035l.085.085c.044.042.093.099.142.156.057.056.113.12.17.176.057.064.106.114.15.156.041.042.07.07.084.092l-.163.148c-.098.1-.219.213-.375.355-.149.14-.305.297-.474.452-.17.163-.333.312-.481.46-.155.149-.29.269-.396.368-.008.007-.008.014-.015.021l.092.114c.113.155.241.318.382.51l.397.53c.077.099.141.19.212.276l.12-.114c.028-.127.064-.247.12-.36.114-.227.298-.453.545-.687.199-.184.397-.325.601-.417.206-.092.418-.135.623-.127.213.006.418.063.623.17.198.098.397.254.587.46l.319.332c.206.22.353.452.445.693.092.248.128.503.1.764ZM57.24 75.473c-.015.014-.049.042-.1.092-.048.05-.112.106-.176.17-.07.063-.134.127-.206.19-.07.065-.133.128-.183.17-.05.05-.085.085-.099.093-.021.02-.043.035-.071.035-.028 0-.049-.014-.07-.035-.028-.036-.092-.1-.199-.213-.098-.106-.219-.226-.354-.367-.12-.135-.247-.263-.367-.397l-2.11 1.989c-.013.013-.028.02-.041.028h-.057c-.014-.008-.028-.015-.043-.028l-.643-.68a76.56 76.56 0 0 1-.17-.743l-.17-.764c-.063-.283-.127-.573-.198-.863-.064-.297-.127-.58-.19-.85-.065-.275-.121-.516-.164-.735l-.113-.489c0-.028 0-.056.007-.07.007-.021.014-.043.029-.064.013-.014.028-.035.042-.05.021-.02.057-.05.106-.106.057-.05.12-.106.197-.177.072-.07.142-.141.213-.205.071-.07.142-.134.191-.183.057-.057.092-.086.107-.1l.113.12c.063.298.12.602.177.906.064.312.12.623.184.941.056.312.12.63.177.955l.19.991c.035.227.085.46.128.694l.134.134c.05-.1.099-.205.163-.29.106-.156.234-.311.374-.467.142-.156.313-.325.503-.51l.17-.162c-.035-.05-.063-.1-.106-.156a9.384 9.384 0 0 0-.248-.36 4.366 4.366 0 0 0-.227-.32c-.063-.099-.12-.17-.148-.211.015-.022.056-.057.113-.107.057-.056.12-.113.185-.176.064-.064.127-.12.184-.178.056-.056.098-.092.113-.106.02-.02.036-.028.049-.028h.05c.014 0 .028.014.042.028l.807.85.382-.361a.061.061 0 0 1 .049-.029h.043a.112.112 0 0 1 .05.029c.014.014.042.05.084.091.05.05.1.1.149.163.056.057.113.114.17.177.056.057.113.114.155.163.043.042.071.078.085.085l-.46.438.368.383c.028.028.071.077.135.141.057.064.12.127.19.205.072.071.136.142.192.199.057.063.092.099.114.12ZM59.891 71.468c-.056.233-.233.488-.53.771a2.354 2.354 0 0 1-.524.39.793.793 0 0 1-.474.091.787.787 0 0 1-.425-.247.907.907 0 0 1-.247-.482 1.28 1.28 0 0 1 .063-.587c.05-.149.135-.326.24-.502l.525-.227c.19-.085.346-.134.48-.149a.677.677 0 0 1 .362.05c.105.043.212.12.317.227.199.212.27.431.213.665Zm-2.823-1.21c-.184.07-.34.12-.467.134a.55.55 0 0 1-.34-.035 1.128 1.128 0 0 1-.31-.248.787.787 0 0 1-.213-.39.743.743 0 0 1 .049-.438c.072-.156.184-.311.353-.474a1.68 1.68 0 0 1 .419-.311.91.91 0 0 1 .34-.085c.105 0 .197.021.275.064.084.05.163.113.24.198l.093.092c.156.17.218.389.19.665-.021.198-.105.417-.211.644l-.418.184Zm3.516-.057-.141-.149a2.04 2.04 0 0 0-.468-.382 1.267 1.267 0 0 0-.487-.176 1.782 1.782 0 0 0-.545.02c-.128.03-.276.071-.431.128l-.12-.127c.07-.128.127-.262.155-.39.05-.212.05-.424-.014-.63a1.364 1.364 0 0 0-.34-.58l-.079-.077a1.625 1.625 0 0 0-.82-.489 1.661 1.661 0 0 0-.94.064c-.32.12-.637.318-.95.616-.325.304-.544.622-.664.948-.127.332-.156.65-.099.955.056.304.191.58.418.814l.127.134c.212.227.424.383.622.474.199.092.417.12.65.092.15-.013.32-.063.497-.12l.134.142c-.12.177-.212.36-.248.53-.057.248-.042.482.028.694.079.22.2.425.376.608l.085.085c.226.24.495.39.8.432.303.05.622.007.969-.134.339-.135.672-.355.998-.666.346-.325.587-.658.735-1.004.149-.34.205-.673.156-.984a1.46 1.46 0 0 0-.404-.828ZM59.295 51.393c-1.473 1.146-2.795 2.476-4.175 3.743-1.253 1.146-2.463 2.349-3.736 3.467-1.98 1.733-1.96 1.663-4.07.085-2.547-1.91-3.714-4.953-4.138-8.265-.369-2.936-3.454-3.212-5.817-4.253-.099-.042-.254-.091-.325-.05-1.982 1.282-2.816-.105-3.828-1.153a1.09 1.09 0 0 1 .05-1.549l11.568-10.946a1.095 1.095 0 0 1 1.649.162c.424.61.849 1.21 1.26 1.805.284.396.261.927-.042 1.309-1.572 1.946-3.15 3.899-4.748 5.88a1.102 1.102 0 0 0 .127 1.507c.898.8 1.762 1.564 2.703 2.399.51.453 1.301.333 1.662-.248 1.394-2.286 4.176-5.866 5.626-8.243a1.1 1.1 0 0 1 1.726-.177l1.875 1.988c.396.418.404 1.069.007 1.493-1.959 2.102-5.745 5.923-7.656 7.989-.346.375-.39.934-.099 1.358.382.566.764 1.119 1.133 1.656.346.517 1.054.63 1.556.262 3.064-2.293 7.996-6.375 10.458-8.13.212.063.347.063.425.134 2.746 2.526-.284 5.505-3.191 7.777ZM63.682 67.936a1.016 1.016 0 0 1-.31.502.94.94 0 0 1-.412.248.81.81 0 0 1-.43.014c-.079-.014-.163-.057-.263-.106-.064-.043-.134-.1-.212-.156.007-.1.015-.205.02-.304.008-.227.015-.453.015-.68.007-.226.007-.467.015-.707.007-.177 0-.333-.008-.467a3.407 3.407 0 0 0-.063-.404c-.021-.07-.057-.148-.078-.219l.141-.141 1.055 1.11c.24.255.403.489.481.708a.948.948 0 0 1 .05.602Zm-2.243-.078-1.018-1.076a2.424 2.424 0 0 1-.502-.707c-.085-.213-.107-.41-.057-.588a.979.979 0 0 1 .31-.488c.107-.106.227-.191.348-.24a.643.643 0 0 1 .36-.064.877.877 0 0 1 .305.078c.099.042.205.106.304.184-.007.205-.014.417-.014.616-.007.31-.015.629-.02.962a3.67 3.67 0 0 0 0 .573c.005.148.027.29.056.417.02.064.049.135.07.206l-.142.127Zm3.276-.828c-.127-.41-.374-.8-.735-1.189l-1.21-1.273c-.362-.383-.744-.651-1.133-.807-.396-.149-.785-.191-1.16-.114-.375.071-.722.262-1.04.567-.311.297-.524.63-.623.997-.1.375-.092.764.036 1.168.127.403.374.8.743 1.189l1.21 1.273c.269.29.551.51.841.673.284.155.58.247.871.268.298.029.58-.007.856-.106.276-.099.531-.254.764-.48.311-.291.517-.63.623-.999a2.055 2.055 0 0 0-.043-1.167ZM69.706 63.684c-.014.006-.077.07-.198.184-.113.113-.27.254-.453.424-.184.177-.382.368-.608.58-.22.206-.439.418-.659.623-.22.212-.425.403-.608.58-.191.17-.34.318-.453.425-.12.113-.184.17-.19.176a.116.116 0 0 1-.05.029c-.014 0-.029.007-.05 0-.014 0-.029-.014-.043-.029l-.502-.53a2.573 2.573 0 0 1-.545-.835 2.468 2.468 0 0 1-.134-1.02c.021-.388.106-.855.254-1.407.093-.304.15-.56.177-.757.036-.206.05-.375.043-.503a.848.848 0 0 0-.078-.325.87.87 0 0 0-.163-.226l-.05-.057a.795.795 0 0 0-.198-.156.627.627 0 0 0-.225-.063.63.63 0 0 0-.34.099 2.43 2.43 0 0 0-.475.36 2.896 2.896 0 0 0-.58.765 2.987 2.987 0 0 0-.276.891l-.113.106c-.021-.02-.05-.05-.092-.099-.05-.042-.098-.106-.162-.17a5.695 5.695 0 0 0-.192-.198 2.792 2.792 0 0 1-.155-.17.408.408 0 0 1-.085-.092.116.116 0 0 1-.043-.056c-.007-.021-.007-.042-.007-.064.015-.205.1-.474.262-.8.17-.325.41-.636.736-.94.262-.255.517-.446.771-.574a1.98 1.98 0 0 1 .722-.226c.226-.014.44.021.644.106.198.085.383.22.551.396l.157.163c.14.156.261.311.346.481.092.163.149.354.17.56.021.204.015.452-.029.728a8.243 8.243 0 0 1-.24 1.005c-.099.36-.163.665-.198.906-.043.233-.05.438-.028.6.02.171.071.32.148.44.057.099.141.198.227.297l.113-.113c.028-.057.056-.128.085-.184.077-.128.17-.255.283-.39.113-.134.261-.29.453-.466l1.259-1.19c.021-.02.042-.035.07-.035.029 0 .05.015.071.036.015.014.043.042.086.092.049.05.099.106.155.162.065.064.12.128.185.199l.162.17.092.092ZM71.797 39.789c-1.315 1.068-2.348 1.931-3.46 2.71-.234.163-.934-.078-1.252-.34-2.477-2.03-4.968-4.047-7.352-6.19-1.323-1.197-2.49-2.563-3.793-3.97a.665.665 0 0 0-.828-.114c-.863.51-1.79 1.09-2.788 1.514-.46.191-1.393.078-1.655-.255-1.012-1.259-1.89-2.617-3.03-4.294a.671.671 0 0 1 .355-1.012c5.158-1.691 7.706-6.29 11.505-9.524a.66.66 0 0 1 .906.056l2.363 2.498c.22.234.24.602.042.863l-2.54 3.283c-.707.913-.657 1.77-.127 2.817 1.494 2.915 3.743 4.995 6.46 6.771 1.784 1.168 3.376 2.633 5.209 4.154.318.269.31.764-.015 1.033ZM73.08 59.63c.042.319-.021.658-.192 1.005-.17.354-.43.7-.792 1.04-.234.22-.467.41-.686.573-.227.163-.424.29-.602.382-.176.093-.305.149-.396.163a.137.137 0 0 1-.078-.007.147.147 0 0 1-.07-.043l-.092-.092c-.043-.05-.1-.106-.163-.176-.064-.064-.128-.135-.191-.206l-.177-.176c-.05-.057-.079-.085-.092-.1l.12-.113c.206-.07.389-.141.559-.226.17-.078.34-.184.503-.304.17-.128.354-.284.552-.475.225-.212.382-.41.474-.587a.827.827 0 0 0 .105-.495.718.718 0 0 0-.197-.403l-.05-.05a.69.69 0 0 0-.36-.213c-.136-.035-.29-.013-.475.05-.184.057-.397.177-.637.361-.247.177-.53.417-.85.722a.113.113 0 0 1-.077.035c-.02 0-.05-.014-.071-.035l-.12-.134c-.063-.064-.134-.142-.212-.227a5.129 5.129 0 0 1-.212-.22 2.754 2.754 0 0 0-.12-.127c.36-.34.636-.63.828-.877.198-.24.325-.446.389-.615.07-.17.084-.312.05-.432a.857.857 0 0 0-.192-.333l-.03-.028a.632.632 0 0 0-.346-.198c-.133-.029-.282-.007-.459.07-.17.07-.36.206-.574.404-.269.262-.48.495-.622.7a3.799 3.799 0 0 0-.375.722l-.128.113c-.013-.014-.041-.05-.09-.099-.043-.042-.093-.099-.157-.162-.063-.064-.12-.135-.183-.199-.065-.063-.114-.12-.164-.17-.05-.049-.078-.085-.091-.092a.24.24 0 0 1-.043-.07.097.097 0 0 1 .007-.078c.036-.135.149-.347.333-.63.183-.283.438-.58.757-.884.354-.333.692-.566 1.033-.708.339-.142.658-.19.948-.156.297.043.552.177.771.404l.127.134c.199.206.326.425.382.651.057.227.043.481-.049.758a3.329 3.329 0 0 1-.368.693l.128.134c.276-.17.53-.304.756-.368.291-.078.546-.092.771-.028.22.056.411.17.574.34l.19.205c.249.255.39.552.426.877ZM76.03 56.206c-.056.226-.226.488-.523.764a2.277 2.277 0 0 1-.53.389.76.76 0 0 1-.468.092c-.156-.021-.29-.106-.424-.24a.93.93 0 0 1-.248-.482 1.158 1.158 0 0 1 .064-.587c.05-.156.134-.326.24-.51l.523-.226c.185-.078.348-.127.482-.141a.683.683 0 0 1 .361.042c.106.05.212.127.311.234.198.212.27.431.213.665Zm-2.822-1.218c-.185.071-.34.12-.461.142a.598.598 0 0 1-.34-.035c-.099-.05-.204-.134-.311-.248a.757.757 0 0 1-.219-.39.747.747 0 0 1 .056-.438c.065-.155.185-.318.355-.474.14-.148.282-.248.417-.311a.767.767 0 0 1 .34-.092c.098 0 .19.021.275.07a.986.986 0 0 1 .241.199l.092.092c.155.163.22.382.191.658-.02.198-.106.417-.22.65l-.416.178Zm3.515-.049-.133-.148a2.25 2.25 0 0 0-.467-.383 1.171 1.171 0 0 0-.496-.177 1.395 1.395 0 0 0-.537.022c-.136.02-.283.07-.432.127l-.127-.134c.07-.128.127-.255.162-.382a1.28 1.28 0 0 0-.014-.637 1.359 1.359 0 0 0-.347-.573l-.07-.085c-.249-.255-.517-.418-.821-.488a1.665 1.665 0 0 0-.941.07 2.662 2.662 0 0 0-.948.609c-.326.31-.546.623-.673.955a1.79 1.79 0 0 0-.099.955c.057.305.198.573.418.807l.134.141c.213.227.418.382.615.474.206.093.418.12.651.093a2.76 2.76 0 0 0 .502-.128l.136.141a1.82 1.82 0 0 0-.256.531c-.049.248-.041.482.036.701.071.22.198.417.368.601l.085.085c.227.248.495.39.8.439.304.05.629 0 .97-.135.338-.134.678-.36 1.004-.672.34-.318.587-.65.736-.997.148-.347.198-.673.155-.991a1.487 1.487 0 0 0-.41-.821ZM81.105 52.406a1.977 1.977 0 0 1-.262.792c-.149.27-.36.538-.644.807-.24.226-.466.41-.68.566a3.85 3.85 0 0 1-.572.346c-.17.086-.297.135-.397.149-.035.007-.055.007-.07 0l-.05-.05-.092-.091c-.049-.05-.1-.114-.17-.185-.063-.063-.127-.134-.198-.205-.063-.07-.12-.127-.17-.177-.041-.05-.07-.084-.084-.099l.12-.113c.283-.085.545-.205.8-.36.247-.15.509-.355.785-.616.29-.276.452-.538.489-.8a.786.786 0 0 0-.235-.679l-.204-.22a1.13 1.13 0 0 0-.39-.275.692.692 0 0 0-.431-.008c-.156.043-.326.15-.496.319a2.24 2.24 0 0 0-.354.425 2.14 2.14 0 0 0-.233.46l-.73.686c-.027.028-.056.042-.083.042-.029 0-.056-.014-.079-.05a6.92 6.92 0 0 0-.24-.325c-.12-.148-.255-.332-.417-.537-.163-.213-.333-.432-.51-.666a61.822 61.822 0 0 0-.53-.693c-.178-.226-.34-.439-.482-.623.007-.007.064-.056.163-.155.092-.093.219-.206.368-.354l.318-.297c.064-.057.114-.107.177-.163.177-.17.354-.34.53-.502.178-.17.34-.326.497-.468.149-.148.275-.261.367-.353.092-.085.141-.135.156-.142.02-.021.042-.035.07-.035.029 0 .05.014.071.035.015.014.043.043.085.092.043.043.092.092.142.149.056.063.112.12.17.184l.149.148c.041.043.07.078.084.092a4.833 4.833 0 0 1-.163.156c-.098.092-.218.212-.375.354-.149.141-.304.29-.474.453-.17.155-.333.31-.481.452-.155.149-.29.27-.396.376l-.015.013c.028.036.057.078.093.121.112.149.24.318.381.502.136.184.269.361.397.53.077.107.141.192.212.284l.12-.12c.029-.128.064-.24.12-.354.114-.226.298-.46.545-.693.199-.184.397-.326.602-.418.205-.092.418-.135.623-.127.212.007.417.064.622.17.198.105.397.261.588.467l.318.325c.206.22.354.453.446.7.092.241.127.496.099.758ZM84.269 49.901c-.014.015-.05.043-.106.092-.05.057-.114.113-.184.184a5.824 5.824 0 0 0-.22.205c-.078.071-.142.128-.19.178-.057.056-.092.084-.107.105a.105.105 0 0 1-.078.029c-.02 0-.049-.014-.07-.036a1.564 1.564 0 0 1-.107-.247c-.056-.156-.148-.368-.26-.658-.114-.283-.25-.644-.411-1.076-.164-.438-.362-.94-.581-1.521a6.686 6.686 0 0 1-.212-.588 5.318 5.318 0 0 1-.156-.53c-.043-.17-.07-.354-.1-.538-.005-.028-.005-.064-.005-.092l-.156-.17-.249.248c-.17.163-.338.318-.495.474-.162.149-.31.29-.453.424l-.445.425.099.1c.084.091.17.176.255.268.085.092.155.163.212.227.056.056.091.099.106.113a.728.728 0 0 0-.1.092c-.056.05-.113.106-.177.162-.07.064-.14.135-.204.198-.071.064-.134.12-.184.17-.05.05-.085.078-.1.092-.02.021-.042.036-.07.036a.134.134 0 0 1-.071-.036 5.713 5.713 0 0 1-.149-.155 38.486 38.486 0 0 0-.296-.319l-.361-.382c-.12-.127-.233-.24-.326-.34-.1-.106-.17-.183-.212-.226l3.212-3.042c.021-.015.036-.022.05-.029a.11.11 0 0 1 .05.007c.013 0 .028.007.048.029l.595.63c.008.013.036.07.085.19.05.114.113.27.198.46.079.191.163.404.255.637.099.234.198.474.298.722.098.254.19.488.274.715.093.226.178.452.263.679.092.22.177.445.268.672.092.227.184.453.277.687l.29.735ZM89.87 44.6c-.007.007-.07.071-.191.184-.12.114-.268.255-.453.425-.184.177-.389.368-.609.58-.219.205-.438.418-.664.623-.22.212-.418.403-.609.58-.184.177-.332.318-.453.425-.113.113-.177.17-.184.183a.323.323 0 0 1-.05.022.057.057 0 0 1-.048 0c-.015 0-.029-.007-.05-.029l-.503-.53a2.455 2.455 0 0 1-.537-.835 2.448 2.448 0 0 1-.142-1.019c.022-.39.114-.856.262-1.408a6.22 6.22 0 0 0 .177-.757c.035-.206.042-.375.035-.503a.89.89 0 0 0-.07-.325 1.1 1.1 0 0 0-.163-.227l-.05-.056a.949.949 0 0 0-.197-.156.633.633 0 0 0-.234-.064.749.749 0 0 0-.34.1c-.128.07-.283.19-.468.36a2.736 2.736 0 0 0-.856 1.656l-.12.106c-.013-.014-.042-.05-.092-.099-.042-.042-.098-.099-.162-.17-.064-.063-.121-.134-.185-.198-.063-.063-.113-.12-.162-.17-.043-.042-.071-.078-.085-.085a.245.245 0 0 1-.035-.063.187.187 0 0 1-.015-.057c.015-.212.106-.481.27-.807.162-.325.41-.636.728-.94.269-.255.523-.44.778-.574.248-.127.489-.205.716-.22.233-.02.445.015.644.1.205.085.388.22.559.403l.155.156c.142.156.254.311.347.481.092.163.149.354.169.56.021.212.008.452-.036.728-.041.283-.12.615-.233 1.005-.099.36-.162.665-.205.905a2.238 2.238 0 0 0-.02.609c.02.163.07.311.148.432.056.099.14.198.226.297l.113-.113c.028-.057.056-.128.085-.177.07-.128.162-.262.283-.396.113-.135.262-.29.453-.468l1.26-1.188c.02-.022.041-.036.07-.029.028 0 .05.008.07.029.015.014.043.05.085.092.043.05.1.106.157.17.057.056.12.127.183.19.064.071.12.128.163.17.042.05.071.078.085.092ZM234.245 187.066l-57.202 54.116a1.281 1.281 0 0 1-1.804-.05L42.977 101.32l59.048-55.864 132.269 139.812c.481.51.46 1.317-.049 1.798Z"
  />
  <path
    fill="var(--main-theme-3, #292929)"
    d="M59.295 51.393c-1.473 1.146-2.795 2.476-4.175 3.743-1.253 1.146-2.463 2.349-3.736 3.467-1.98 1.733-1.96 1.663-4.07.085-2.547-1.91-3.714-4.953-4.138-8.265-.369-2.936-3.454-3.212-5.817-4.253-.099-.042-.254-.091-.325-.05-1.982 1.282-2.816-.105-3.828-1.153a1.09 1.09 0 0 1 .05-1.549l11.568-10.946a1.095 1.095 0 0 1 1.649.162c.424.61.849 1.21 1.26 1.805.284.396.261.927-.042 1.309-1.572 1.946-3.15 3.899-4.748 5.88a1.102 1.102 0 0 0 .127 1.507c.898.8 1.762 1.564 2.703 2.399.51.453 1.301.333 1.662-.248 1.394-2.286 4.176-5.866 5.626-8.243a1.1 1.1 0 0 1 1.726-.177l1.875 1.988c.396.418.404 1.069.007 1.493-1.959 2.102-5.745 5.923-7.656 7.989-.346.375-.39.934-.099 1.358.382.566.764 1.119 1.133 1.656.346.517 1.054.63 1.556.262 3.064-2.293 7.996-6.375 10.458-8.13.212.063.347.063.425.134 2.746 2.526-.284 5.505-3.191 7.777ZM46.79 61.824c-3.546 3.835-7.933 8.476-11.761 12.616a.413.413 0 0 1-.616-.007c-1.648-1.826-3.566-2.986-3.34-5.83.156-1.968-.366-4.048-.87-6.008-.77-3.029-1.125-5.993.163-8.972a.49.49 0 0 0 .035-.163c0-.333-.417-.552-.693-.297l-4.72 4.472a.41.41 0 0 0-.113.41c.312 1.076.2 1.217-1.74 2.618a.42.42 0 0 1-.545-.05l-3.135-3.311a.415.415 0 0 1 0-.566c2.852-3.021 5.626-6.078 8.548-8.986 2.406-2.392 2.49-1.84 5.44-.184 3.518 1.974 3.574 5.342 2.414 8.944-.955 2.964-1.472 5.087-1.918 8.222a40.42 40.42 0 0 0-.042.693c-.021.319.41.44.559.163.601-1.069 1.16-2.158 1.804-3.198.828-1.344 2.35-3.46 3.376-4.642 1.322-1.521 2.802-1.415 4.153.057.99 1.075 1.982 2.158 2.965 3.248.05.056.063.148.127.375a.406.406 0 0 1-.092.396ZM71.797 39.789c-1.315 1.068-2.348 1.931-3.46 2.71-.234.163-.934-.078-1.252-.34-2.477-2.03-4.968-4.047-7.352-6.19-1.323-1.197-2.49-2.563-3.793-3.97a.665.665 0 0 0-.828-.114c-.863.51-1.79 1.09-2.788 1.514-.46.191-1.393.078-1.655-.255-1.012-1.259-1.89-2.617-3.03-4.294a.671.671 0 0 1 .355-1.012c5.158-1.691 7.706-6.29 11.505-9.524a.66.66 0 0 1 .906.056l2.363 2.498c.22.234.24.602.042.863l-2.54 3.283c-.707.913-.657 1.77-.127 2.817 1.494 2.915 3.743 4.995 6.46 6.771 1.784 1.168 3.376 2.633 5.209 4.154.318.269.31.764-.015 1.033Z"
  />
  <path
    fill="var(--main-theme-1, #E9E9E2)"
    d="M165.704 213.377c.152-.187.408-.594.494-.82l4.573 4.829.685-.787-5.429-5.72-.48.55c.027.357-.113.911-.399 1.36l.556.588ZM170.781 209.986l1.237 1.308c1.108 1.177 1.439 1.813 1.005 2.313-.461.529-1.11.19-2.206-.979l-1.229-1.296c-1.097-1.158-1.299-1.765-.903-2.221.476-.547 1.08-.178 2.096.875Zm-1.841 2.158 1.178 1.241c1.544 1.647 2.662 1.86 3.546.843.938-1.077.499-2.176-.971-3.721l-1.183-1.245c-1.504-1.583-2.596-1.776-3.47-.772-.811.932-.638 2.052.9 3.654ZM175.317 207.856l.412.435c.679.714.856 1.28.472 1.721-.489.562-1.177.077-1.737-.494l-.365-.38c-.519-.536-.809-1.144-.359-1.662.46-.528.986-.23 1.577.38Zm-1.936 2.017c1.164 1.218 2.368 1.952 3.438.724.956-1.099.443-2.2-.46-3.145l-.402-.419c-.898-.94-1.893-1.268-2.636-.416-.409.47-.438.952-.322 1.358l-.333-.348c-.823-.944-1.328-1.64-.844-2.194.436-.503.918-.141 1.148.072l.027.028.645-.74-.022-.022c-.522-.494-1.486-.994-2.406.064-1.037 1.191-.282 2.47 1.093 3.912l1.074 1.126ZM173.854 204.031c.151-.186.407-.595.493-.82l4.573 4.828.686-.787-5.431-5.72-.478.55c.025.357-.114.911-.4 1.36l.557.589ZM176.254 202.176l.114.12.653-.75-.115-.123c-.512-.575-.669-1.024-.299-1.449.427-.492.916-.221 1.402.287.564.586.659.957.822 2.328.2 1.651.54 2.848 1.394 3.769l.082.091 2.472-2.839-.545-.761-1.786 2.054c-.343-.513-.566-1.386-.707-2.659-.149-1.424-.256-1.941-1.015-2.739-.82-.862-1.827-1.187-2.73-.15-.942 1.083-.433 2.086.258 2.821ZM181.045 194.908c.475-.545 1.081-.178 2.096.875l1.236 1.308c1.109 1.178 1.44 1.814 1.006 2.313-.461.53-1.11.189-2.206-.979l-1.228-1.296c-1.098-1.159-1.302-1.765-.904-2.221Zm1.432 4.274c1.545 1.647 2.662 1.86 3.547.843.938-1.077.499-2.176-.971-3.721l-1.183-1.245c-1.504-1.583-2.596-1.776-3.47-.773-.812.933-.639 2.053.901 3.655l1.176 1.241ZM184.503 191.12c.546 1.887 1.783 4.491 3.387 6.608l.726-.833c-1.6-2.076-2.865-4.573-3.477-6.672l-.561-.592-2.422 2.784.635.672 1.712-1.967ZM185.965 190.107c.152-.186.408-.594.495-.819l4.572 4.828.686-.787-5.43-5.72-.479.55c.027.356-.114.911-.399 1.359l.555.589ZM190.139 186.105l.188.197c.528.557.576.962.247 1.339-.39.449-.854.258-1.305-.213l-.198-.212c-.402-.42-.605-.888-.239-1.309.422-.483.891-.232 1.307.198Zm2.509 2.458.289.296c.555.586.724 1.093.311 1.569-.442.507-1.002.286-1.532-.267l-.281-.284c-.568-.589-.708-1.098-.303-1.562.42-.484.904-.394 1.516.248Zm-4.245-.616.136.149c.6.632 1.148.752 1.617.623-.139.477-.159 1.143.62 1.957l.227.227c.962 1.004 1.999 1.108 2.852.127.848-.974.716-1.968-.23-2.945l-.228-.234c-.74-.769-1.363-.834-1.857-.652.121-.421.084-.961-.604-1.687l-.114-.121c-.846-.894-1.818-.98-2.596-.086-.763.878-.611 1.822.177 2.642ZM194.974 183.71l.404-.465c.638-.733 1.226-.629 1.847-.005l.164.17c.674.683.718 1.26.187 1.87l-.532.611-2.07-2.181Zm-2.289-2.407.432-.496c.528-.605 1.019-.519 1.532.003l.105.107c.574.583.608 1.037.055 1.674l-.429.493-1.695-1.781Zm5.576 4.502c.953-1.094.821-2.175-.126-3.132l-.173-.178c-.776-.788-1.495-.797-2.04-.518.21-.466.198-1.105-.51-1.828l-.115-.117c-.847-.882-1.824-.965-2.705.049l-1.186 1.36 5.557 5.857 1.298-1.493ZM196.748 177.729c.151-.187.406-.594.493-.82l4.574 4.829.685-.787-5.431-5.721-.479.55c.027.357-.113.911-.399 1.36l.557.589ZM199.86 174.139c.152-.186.408-.593.495-.819l4.573 4.828.684-.787-5.43-5.72-.478.55c.026.356-.114.91-.399 1.359l.555.589ZM202.152 172.059l.07.076.638-.734-.073-.076c-.299-.354-.564-.798-.186-1.234.412-.473.858-.221 1.296.246l.078.068c.603.634.586 1.046.126 1.575l-.193.222.616.647.2-.23c.562-.646 1.077-.581 1.805.195l.138.121c.554.581.846 1.11.384 1.642-.437.503-.953.288-1.357-.101l-.057-.056-.66.757.055.053c.739.711 1.707.999 2.638-.071.953-1.095.557-2.119-.32-3.038l-.12-.104c-.759-.793-1.419-.93-2.054-.612l-.012-.01c.187-.463.147-1.062-.519-1.756l-.058-.052c-.802-.843-1.743-1.083-2.589-.111-.903 1.037-.409 1.976.154 2.583ZM204.67 168.606c.152-.186.407-.594.494-.819l4.573 4.827.685-.787-5.43-5.72-.479.551c.027.356-.114.91-.4 1.359l.557.589ZM173.747 165.942a.356.356 0 1 0-.711-.019l-.373 13.45a1.592 1.592 0 0 1-1.634 1.545l-13.076-.363a.357.357 0 1 0-.021.712l13.078.363a2.306 2.306 0 0 0 2.365-2.237l.372-13.451ZM104.533 153.185a.352.352 0 0 1 .083-.502l.534-.364a.353.353 0 0 1 .437.032c.665.616 1.897 1.835 2.574 2.466a.352.352 0 0 0 .481-.002l.639-.605a.35.35 0 0 0-.057-.554c-.766-.469-1.919-1.363-2.654-1.813a.353.353 0 0 1-.081-.536l.773-.871a.355.355 0 0 1 .485-.04l1.894 1.529a.351.351 0 0 0 .423.014l.58-.407a.352.352 0 0 0 .052-.53l-3.525-3.727a.353.353 0 0 0-.5-.014c-.335.325-.783.593-.371 1.233.015.022-.002.072-.017.105-.333.76-.422 1.754-1.368 1.873-1.066.135-2.048.511-2.66 1.331-.508.681-.534.674.026 1.312.361.41.747.799 1.117 1.203.407.443.836.87 1.205 1.343.73.938 1.691 1.913 2.506 1.027.021-.023.022-.066.042-.134-.565-.793-1.88-2.383-2.618-3.369ZM102.548 149.332a13.958 13.958 0 0 0-1.496-1.087c-.335-.208-.685-.389-1.029-.581-.09-.05-.05-.186.051-.181l.225.014c1.008.144 1.693.311 2.648.618 1.16.373 2.244.354 2.879-.778.533-.951.713-.977-.057-1.751-.937-.942-1.923-1.835-2.895-2.753a.133.133 0 0 0-.182 0l-1.067 1.01a.133.133 0 0 0-.015.175c.45.623.496.659.841.559.048-.014.1 0 .134.036l1.438 1.521c.099.104-.016.267-.146.212-.961-.414-1.914-.301-2.892-.052-.63.162-1.299.33-1.934.28-.915-.073-1.29.543-1.877 1.076a.136.136 0 0 0-.003.199c1.333 1.232 2.829 2.645 4.065 3.787a.128.128 0 0 0 .126.029c.073-.02.103-.024.121-.042.35-.316.7-.634 1.048-.954.472-.435.507-.911.017-1.337ZM115.254 155.727c-1.041-1.224-2.521-2.043-3.066-3.705a.216.216 0 0 0-.326-.113c-.539.366-.978.649-1.384.974-.107.086-.144.386-.082.533.136.322.325.621.488.899a.214.214 0 0 1-.038.266c-.451.419-.893.795-1.277 1.222-.69.767-1.341 1.569-1.994 2.367-.084.102-.162.329-.108.404.249.357.529.691.873 1.114a.213.213 0 0 0 .33.004c.491-.589.963-1.101 1.339-1.677.571-.873 1.243-1.599 2.182-2.08.335-.171.611-.186.905.041l1.058.817a.215.215 0 0 0 .279-.014l.803-.759a.214.214 0 0 0 .018-.293ZM115.45 158.322l.01-.009s.112.008.301-.019l1.26-.178.193-.183-.942-.996-.242.229.432.456c.118.125.188.18.188.18l-.009.009s-.115-.01-.301.018l-1.252.188-.193.184.977 1.033.242-.229-.476-.503a1.796 1.796 0 0 0-.188-.18ZM117.217 159.158c.289-.129.482-.245.482-.245l.008.009s-.131.176-.278.463l-.135.264-.349-.369.272-.122Zm-.576.261.499.529-.209.407.283.3.891-1.778-.331-.351-1.825.791.278.293.414-.191ZM118.402 161.59l-.119.192.177.186.717-.678-.542-.572-.228.216.286.302-.065.061c-.137.131-.328.101-.501-.081-.237-.251-.127-.547.137-.798.341-.323.639-.267.806-.09.127.134.149.305.043.493l.383.146c.136-.295.083-.591-.17-.858-.382-.404-.878-.411-1.332.019-.47.445-.465.912-.132 1.264.153.162.354.251.54.198ZM119.958 162.088l-.205-.217.388-.366.207.218c.133.141.129.28.007.396-.138.131-.264.109-.397-.031Zm.691.295c.287-.272.239-.559-.051-.865l-.486-.515-1.358 1.285.264.279.502-.476.142.15c.109.116.144.2.045.352l-.165.256a.365.365 0 0 0-.073.195l.294.312a.453.453 0 0 1 .074-.214l.193-.313c.098-.16.089-.276-.013-.421l.006-.007c.178.161.413.183.626-.018ZM121.08 164.262l-.574-.606.325-.308.506.535.235-.222-.506-.535.313-.297.574.607.243-.23-.838-.885-1.358 1.285.837.886.243-.23ZM121.617 164.845l.339-.321.215.229c.136.143.137.263.033.361-.127.12-.247.09-.369-.039l-.218-.23Zm.888-.841.172.182c.12.128.143.25.021.365-.123.116-.242.085-.354-.032l-.181-.191.342-.324Zm-.069 1.429c.177-.168.191-.394.034-.601l.01-.009c.169.115.372.112.544-.051.221-.21.204-.473-.056-.748l-.492-.521-1.359 1.285.489.516c.314.333.604.343.83.129ZM123.18 165.877l.272-.123a4.74 4.74 0 0 0 .48-.245l.009.009s-.13.176-.277.464l-.135.263-.349-.368Zm.829-.754-1.825.791.277.293.413-.191.5.528-.21.408.285.299.891-1.778-.331-.35ZM124.236 166.719c-.453.428-.471.916-.127 1.282.276.29.521.355.844.286l-.076-.371c-.204.062-.363.017-.495-.121-.222-.236-.162-.515.121-.783.29-.275.594-.308.804-.088.14.148.142.312.042.494l.383.145c.127-.304.083-.591-.17-.859-.382-.403-.872-.414-1.326.015ZM126.333 166.656l-.25-.265-.142-.002c-.083 0-.117.019-.117.019l-.009-.009s.021-.033.026-.116l.006-.142-.251-.265-.037.608.166.174.608-.002ZM127.247 168.546l-.306-.323-.882.161-.089-.094.546-.516-.264-.28-1.357 1.285.263.28.568-.537.085.09-.201.923.316.335.245-1.146 1.076-.178ZM126.404 170.365l-.263-.279 1.359-1.284.263.278-1.359 1.285ZM112.98 160.234l.838.885.242-.229-.574-.606.326-.308.506.535.235-.223-.506-.535.313-.295.574.606.242-.23-.838-.885-1.358 1.285ZM115.467 160.132l-1.358 1.285.792.837.242-.23-.528-.557 1.116-1.055-.264-.28ZM117.086 162.327l.243-.23-.839-.885-1.357 1.285.837.885.243-.229-.574-.606.325-.308.506.535.236-.222-.506-.535.313-.297.573.607ZM116.962 164.436l.317.335.245-1.146 1.075-.178-.305-.323-.882.162-.089-.095.546-.517-.264-.278-1.359 1.284.264.279.568-.537.084.09-.2.924ZM119.668 164.582l-.983-1.039-.243.229.358.378-1.116 1.056.264.279 1.115-1.056.363.383.242-.23ZM119.903 165.289l.207.219c.133.141.129.28.007.396-.139.131-.263.109-.397-.032l-.204-.216.387-.367Zm-1.387.783.263.279.503-.474.141.15c.11.115.145.198.045.351l-.164.255a.37.37 0 0 0-.073.196l.295.311a.441.441 0 0 1 .073-.213l.192-.313c.099-.16.09-.277-.012-.421l.007-.007c.177.16.412.182.624-.018.288-.273.24-.559-.05-.865l-.486-.515-1.358 1.284ZM120.026 167.67l-.264-.279 1.358-1.285.264.279-1.358 1.285ZM122.041 167.513c.14.148.142.312.043.493l.383.145c.126-.304.083-.59-.171-.858-.382-.403-.873-.415-1.327.015-.452.427-.47.916-.124 1.281.273.29.519.356.841.286l-.074-.371c-.204.063-.364.018-.495-.121-.222-.235-.163-.515.12-.782.29-.275.595-.309.804-.088ZM123.056 167.244l-.25-.266-.142-.001c-.083 0-.117.019-.117.019l-.009-.009s.021-.033.025-.116l.007-.142-.251-.265-.038.608.168.175.607-.003ZM123.227 169.55c-.173.163-.289.291-.289.291l-.009-.009s.049-.142.087-.324l.226-1.156-.255-.27-1.358 1.285.263.278.6-.566c.189-.179.298-.309.298-.309l.009.009s-.054.151-.091.348l-.215 1.153.246.26 1.358-1.285-.264-.279-.606.574ZM123.337 171.185l-.263-.279 1.36-1.284.263.279-1.36 1.284ZM111.934 160.929l.358.379-1.116 1.055.264.279 1.116-1.055.362.382.241-.229-.982-1.04-.243.229ZM113.2 163.029l-.205-.216.388-.367.207.219c.133.14.129.28.007.395-.139.131-.264.11-.397-.031Zm.072.741c.098-.159.089-.276-.013-.42l.006-.007c.178.16.413.182.626-.019.287-.272.239-.559-.051-.865l-.486-.515-1.358 1.286.264.279.502-.476.142.15c.109.115.144.199.044.351l-.164.256a.355.355 0 0 0-.072.196l.294.311a.451.451 0 0 1 .072-.213l.194-.314ZM114.085 164.351l.273-.122c.289-.129.48-.246.48-.246l.009.009s-.13.177-.277.465l-.136.263-.349-.369Zm.829-.753-1.824.791.276.293.414-.191.5.527-.209.408.284.3.891-1.778-.332-.35ZM116.11 165.89c-.19.049-.271.091-.271.091l-.009-.009s.049-.077.105-.267l.253-.762-.278-.296-1.359 1.285.264.279.663-.628c.158-.149.226-.234.226-.234l.008.009s-.063.112-.117.304l-.167.555.139.147.564-.135c.194-.044.312-.099.312-.099l.009.01s-.092.06-.248.208l-.665.629.263.279 1.359-1.285-.273-.288-.778.207ZM118.258 167.124l-1.004.495c-.247.124-.425.258-.425.258l-.009-.009s.142-.169.279-.417l.546-.975-.284-.299-.935 1.731.325.344 1.785-.835-.278-.293ZM118.121 168.614l.272-.122c.289-.129.481-.246.481-.246l.009.009s-.131.177-.278.464l-.135.263-.349-.368Zm.829-.754-1.825.791.277.293.414-.191.499.528-.209.408.284.3.892-1.779-.332-.35ZM119.464 170.225c-.158.148-.282.192-.418.049-.111-.118-.102-.248-.016-.443l-.378-.04c-.088.245-.043.482.166.703.236.249.544.355.856.06l.964-.912-.264-.279-.91.862ZM109.69 71.9c1.201-.36 3.11-.913 3.939-1.241l.004.004c-.493.35-1.102.794-1.679 1.239l-1.296 1.02-.968-1.022Zm-1.145 2.669.609.644 1.487-1.161.375.396.679-.429-.429-.454 3.588-2.796-.861-.91-4.963 1.394-.596.465 1.597 1.69-1.486 1.16ZM112.214 75.61l.263-.205c.573-.452 1.063-.55 1.467-.123.421.445.287.89-.359 1.39l-.272.212c-.546.433-1.074.595-1.496.149-.443-.467-.164-.99.397-1.422Zm2.711-1.986.177-.14c.468-.367.904-.492 1.263-.114.407.431.156.842-.312 1.208l-.181.142c-.561.438-.954.443-1.265.113-.383-.403-.161-.829.318-1.21Zm-3.712 3.902c.835.88 1.751.822 2.735.043l.2-.153c.784-.619.913-1.222.781-1.663.378.139.868.165 1.611-.422l.113-.087c.895-.7 1.047-1.586.312-2.364-.734-.776-1.598-.739-2.457-.066l-.112.086c-.664.52-.816 1.005-.739 1.452-.414-.172-1.045-.235-1.854.403l-.2.155c-.996.78-1.223 1.735-.39 2.616ZM117.117 79.53l1.32-1.029c1.143-.892 1.746-1.047 2.132-.638.431.455.173.943-.999 1.856l-1.312 1.028c-1.23.946-1.81 1.154-2.224.716-.43-.454-.089-1.028 1.083-1.933Zm-1.698 2.448c.902.956 1.912.675 3.515-.566l1.236-.968c1.539-1.2 1.863-2.201 1.01-3.104-.805-.85-1.85-.743-3.41.48l-1.242.974c-1.624 1.247-1.989 2.254-1.109 3.184ZM120.291 85.791l-1.719-1.817c.499-.264 1.186-.373 2.41-.407 1.409-.032 1.927-.087 2.722-.715.862-.672 1.219-1.563.357-2.475-.904-.955-1.844-.602-2.603-.02l-.11.087.627.661.112-.088c.572-.421 1-.519 1.361-.137.423.446.116.87-.375 1.25-.609.479-.967.517-2.286.563-1.545.047-2.618.252-3.528.94l-.083.062 2.384 2.52.731-.424ZM121.17 88.053c.932.985 1.913.702 2.785.015l.092-.088c.796-.623 1.066-1.25.822-1.87l.01-.01c.41.22.96.205 1.635-.32l.041-.038c.854-.676 1.153-1.508.341-2.367-.859-.906-1.75-.565-2.414-.083l-.059.043.607.64.053-.043c.407-.283.841-.457 1.205-.072.41.433.115.817-.375 1.201l-.067.062c-.64.497-1.009.407-1.412-.015l-.178-.188-.647.508.172.181c.552.585.442 1.038-.337 1.651l-.101.095c-.616.479-1.141.672-1.585.202-.401-.424-.22-.873.219-1.261l.071-.059-.628-.663-.059.049c-.77.664-1.053 1.518-.191 2.43ZM125.144 89.28l.263-.204c.572-.453 1.063-.55 1.466-.124.421.445.288.89-.358 1.39l-.272.212c-.547.433-1.075.595-1.497.149-.442-.467-.164-.99.398-1.422Zm2.711-1.986.176-.14c.468-.367.904-.492 1.263-.114.408.431.156.842-.312 1.208l-.181.142c-.56.439-.954.443-1.265.114-.382-.404-.16-.83.319-1.21Zm-3.712 3.902c.834.88 1.751.822 2.735.043l.199-.153c.784-.619.914-1.22.781-1.663.379.139.869.165 1.612-.422l.113-.087c.895-.7 1.047-1.586.312-2.364-.734-.776-1.599-.739-2.457-.066l-.113.087c-.663.52-.815 1.004-.738 1.451-.415-.172-1.046-.235-1.854.403l-.2.156c-.996.78-1.223 1.734-.39 2.615ZM127.108 94.322c.968 1.023 1.98.643 3.016-.162l.308-.238c1.001-.79 1.379-1.65.637-2.437-.332-.35-.695-.468-1.013-.439a80.693 80.693 0 0 0 1.712-1.16l1.399 1.479.736-.459-2.032-2.148c-.825.58-2.522 1.753-3.304 2.23l.502.709c.454-.21.859-.253 1.202.11.441.466.135.936-.503 1.44l-.325.255c-.69.534-1.274.81-1.733.326-.418-.443-.161-.868.231-1.216l.056-.045-.64-.676-.039.029c-.778.652-1.058 1.506-.21 2.402ZM129.71 96.943c1.965-1.219 4.337-2.197 6.422-2.6l.588-.457-2.328-2.46-.668.517 1.65 1.744c-1.766.326-4.345 1.27-6.358 2.522l.694.734ZM96.282 88.075c.125.132.218.253.28.362.061.11.09.22.088.33a.782.782 0 0 1-.116.343c-.068.112-.171.233-.31.365l-.7.664c-.14.13-.27.227-.392.288a.669.669 0 0 1-.343.083.77.77 0 0 1-.335-.106 1.527 1.527 0 0 1-.351-.287 12740.01 12740.01 0 0 0-.699-.74l.193-.182 1.2-1.135.469-.444c.09-.086.203-.19.307-.29l.709.749Zm-4.518.035-1.406 1.332c-.475.448-.964.91-1.47 1.39a.144.144 0 0 0-.048.099c0 .037.013.07.044.103l.658.696c.219.23.435.46.65.687l.436-.413.492-.465 1.033-.978.273.29c.147.154.29.304.426.45.383.403.754.705 1.115.902.36.198.71.3 1.052.306.341.006.677-.072 1.008-.235.33-.163.656-.396.979-.701l.568-.539c.253-.238.46-.483.625-.734.163-.25.277-.51.34-.78a2.04 2.04 0 0 0 .018-.824 2.902 2.902 0 0 0-.326-.877 4.711 4.711 0 0 0-.708-.938L96.3 85.588c-.456-.483-.888-.94-1.295-1.368l-.568.537-.578.547a.138.138 0 0 0-.048.1.137.137 0 0 0 .043.103l.313.331-.995.941-1.407 1.332ZM99.392 93.595c.271-.257.544-.434.817-.531.273-.097.544-.108.813-.033.269.076.529.245.78.51.185.197.319.383.403.56.085.178.124.353.12.526.001.13-.018.259-.061.39-.044.13-.122.268-.233.409a4.802 4.802 0 0 1-.452.48l-1.79 1.694c-.304.287-.607.48-.908.58-.3.1-.58.115-.836.046a1.464 1.464 0 0 1-.689-.425 2.212 2.212 0 0 1-.391-.546 1.511 1.511 0 0 1-.153-.484c-.008-.16.03-.36.115-.6.083-.242.308-.535.675-.882l1.79-1.694Zm-3.223.39c-.535.509-.89 1.055-1.06 1.64a3.103 3.103 0 0 0-.006 1.749c.165.58.475 1.11.93 1.59.471.499.989.843 1.552 1.034a3.074 3.074 0 0 0 1.733.076c.591-.14 1.155-.464 1.692-.973l1.782-1.685c.587-.555.971-1.133 1.15-1.734.18-.601.188-1.19.026-1.767a3.798 3.798 0 0 0-.925-1.584 3.7 3.7 0 0 0-1.486-.964 3.257 3.257 0 0 0-1.791-.1c-.623.133-1.227.477-1.814 1.033l-1.783 1.686ZM106.301 96.167l-.573.542-.582.551a.143.143 0 0 0-.041.137.127.127 0 0 0 .035.066l.502.531.435.46.43.454.246.26-.668.632-.866.82-.839.794-.838.793a4.355 4.355 0 0 1-.364.309c-.11.079-.212.14-.306.18a.624.624 0 0 1-.269.057.923.923 0 0 1-.375-.112 1.771 1.771 0 0 1-.415-.343 3.876 3.876 0 0 1-.387-.477 3.328 3.328 0 0 1-.286-.502 11.068 11.068 0 0 1-.251-.588l-.18-.19c-.214.204-.426.404-.635.601l-.606.574a.457.457 0 0 0-.052.058.192.192 0 0 0-.045.124c.01.098.053.236.131.414.078.178.197.382.357.614.16.232.355.471.589.717.358.38.718.659 1.079.837.361.18.721.267 1.081.262a2.557 2.557 0 0 0 1.087-.275 4.432 4.432 0 0 0 1.087-.777c.412-.388.809-.765 1.194-1.129l1.127-1.067 1.081-1.022 1.052-.995a.144.144 0 0 0 .04-.137.128.128 0 0 0-.035-.065c-.281-.297-.54-.573-.78-.824l-.689-.73-.69-.73-.781-.824ZM110.604 103.626l.194-.184 2.393 2.529.587-.555.569-.538a.137.137 0 0 0 .039-.064.163.163 0 0 0 .002-.073.126.126 0 0 0-.035-.065l-4.115-4.35-.572.543-.583.551a.121.121 0 0 0-.038.064.15.15 0 0 0-.003.073.15.15 0 0 0 .035.066l.305.322-.777.735-1.397 1.322-1.336 1.264-1.094 1.035-.664.628a.13.13 0 0 0-.029.045.18.18 0 0 0-.011.055c0 .018.003.037.008.055a.125.125 0 0 0 .026.047l3.711 3.923.574-.543c.179-.17.373-.354.582-.55a.148.148 0 0 0 .05-.101.143.143 0 0 0-.044-.103l-2.294-2.425.853-.807.605-.573 1.855 1.961c.127-.119.248-.233.36-.341l.356-.335.394-.373a.136.136 0 0 0 .038-.064.139.139 0 0 0 .001-.073.118.118 0 0 0-.034-.065l-1.757-1.858.787-.743c.15-.144.304-.288.459-.435ZM116.105 109.185c.243.255.456.481.641.677.101.107.183.206.245.297s.109.182.141.271c.03.091.045.179.043.264a.87.87 0 0 1-.073.312c-.046.11-.114.222-.204.336-.089.115-.2.234-.333.36l-1.951 1.846a2.1 2.1 0 0 1-.621.426.973.973 0 0 1-.607.061c-.198-.045-.401-.178-.611-.399l-.331-.351-.444-.469-.318-.336.829-.784c.268-.255.533-.504.792-.749l.79-.748.839-.794.55-.519.179-.171.444.47Zm-.937-3.648-.606.574-.616.582a.125.125 0 0 0-.038.064.133.133 0 0 0-.002.074.125.125 0 0 0 .034.065l.314.332-.848.803-1.45 1.371c-.482.456-.967.916-1.454 1.375l-1.45 1.371a.142.142 0 0 0-.048.101.143.143 0 0 0 .043.103l.247.26.488.517.6.634.606.64.488.516c.329.347.675.609 1.039.785.364.177.735.271 1.113.285.377.014.757-.061 1.136-.223.38-.161.743-.406 1.091-.735l2.132-2.016c.335-.317.596-.649.784-.994a2.62 2.62 0 0 0 .32-1.084c.027-.378-.05-.769-.23-1.173-.179-.406-.472-.822-.879-1.252l-.645-.682-.766-.81-.762-.805-.641-.678ZM118.07 121.103l.37-.35.393-.372a.146.146 0 0 0 .041-.137.149.149 0 0 0-.034-.066l-.808-.853.507-.479.986-.932.984-.933a395.93 395.93 0 0 0 1.331-1.259l.304-.286.905.957.294-.278.285-.27.283-.268.294-.278a.143.143 0 0 0 .049-.1.138.138 0 0 0-.043-.102l-3.129-3.308-.292.279-.286.268-.283.269-.294.278a.137.137 0 0 0-.04.1.133.133 0 0 0 .034.103l.807.853-.512.483-.985.932c-.328.312-.656.621-.981.928l-.971.919-.35.332-.313.296-.905-.957-.394.371-.369.35-.394.372a.128.128 0 0 0-.028.045.158.158 0 0 0-.01.056c0 .018.001.037.007.055a.1.1 0 0 0 .027.047l3.127 3.306.393-.371ZM120.859 123.279c.259-.245.515-.486.767-.726.133-.126.28-.267.442-.426a23.69 23.69 0 0 0 1.732-1.945c.192-.238.393-.508.597-.792l.192.202c-.14.366-.281.734-.406 1.08-.177.492-.353 1-.531 1.527-.178.527-.36 1.094-.545 1.701a89.362 89.362 0 0 0-.596 2.036c-.062.238-.085.397-.069.478.016.08.042.139.078.178l.368.387.403.427.385.408c.157-.15.317-.3.479-.453l.488-.462a7749.723 7749.723 0 0 0 4.173-3.948l1.388-1.313a.143.143 0 0 0 .049-.1.144.144 0 0 0-.043-.103l-.605-.639-.614-.649c-.234.221-.46.434-.677.641l-.593.559c-.195.186-.385.371-.568.557-.184.185-.365.377-.542.575a20.236 20.236 0 0 0-1.128 1.371c-.174.235-.361.493-.555.769l-.176-.186c.085-.223.173-.448.249-.665.118-.332.231-.661.342-.987l.332-.988.341-1.023a296.22 296.22 0 0 0 .761-2.318c.06-.152.098-.263.116-.333.017-.07.022-.119.013-.147a.26.26 0 0 0-.067-.099l-.456-.484-.525-.554-.461-.487-.479.452-.478.452-1.393 1.318-1.393 1.318-1.388 1.312-1.398 1.323a.144.144 0 0 0-.04.137.135.135 0 0 0 .036.066l.613.649.605.639.777-.735ZM130.934 127.032c.385-.233.724-.442 1.019-.632.183-.118.352-.231.511-.342l.199.21c-.121.153-.245.312-.374.487a53.447 53.447 0 0 0-1.533 2.196l-.402.608-.105-.11c-.098-.105-.199-.21-.301-.318l-.922-.976.591-.344a95.38 95.38 0 0 0 1.317-.779Zm-6.442 1.624c.005.02.014.035.025.047l.623.659.623.659c.654-.366 1.236-.697 1.777-1.007l1.874 1.98c-.302.463-.62.954-.971 1.5a.847.847 0 0 0-.077.145.144.144 0 0 0-.002.102.313.313 0 0 0 .071.103l.609.644.601.634c.204-.277.397-.556.581-.836.183-.281.368-.558.553-.829.398-.592.778-1.164 1.141-1.717l1.046-1.591c.334-.507.646-.988.938-1.444.293-.457.571-.881.834-1.274a.251.251 0 0 0 .035-.077.229.229 0 0 0 .002-.064.13.13 0 0 0-.041-.071l-1.057-1.118c-.395-.416-.776-.821-1.148-1.212a220.521 220.521 0 0 1-2.006 1.171l-1.37.792c-.475.276-.947.551-1.419.823-.472.273-.916.531-1.331.775-.416.244-.784.456-1.103.639-.318.181-.562.322-.731.422-.038.024-.061.049-.071.077-.01.028-.013.05-.006.068ZM131.379 134.965c-.005.436.099.885.314 1.347.215.46.543.924.985 1.392.281.297.568.549.86.757.293.208.564.368.813.48.249.111.453.169.613.173a.24.24 0 0 0 .106-.019.327.327 0 0 0 .099-.067c.108-.102.208-.198.304-.287l.28-.264.274-.26.29-.274-.172-.18a4.474 4.474 0 0 1-1.181-.48 4.734 4.734 0 0 1-.97-.806 3.289 3.289 0 0 1-.471-.622 1.163 1.163 0 0 1-.167-.623c.006-.222.077-.444.213-.667.134-.224.338-.465.61-.722l1.753-1.658c.284-.269.557-.441.821-.517.263-.076.517-.067.761.026.243.092.475.256.696.49.185.195.337.387.455.575.05.08.09.167.128.257l-.234.22-.374.354-.317.3c-.032.031-.049.064-.049.101-.002.037.013.07.043.102.186.195.373.394.564.597l.575.606.88-.833.815-.771a.524.524 0 0 0 .105-.135.123.123 0 0 0 .012-.083 2.02 2.02 0 0 0-.105-.69 4.217 4.217 0 0 0-.401-.879 5.258 5.258 0 0 0-.735-.956c-.399-.423-.817-.745-1.25-.962a3.097 3.097 0 0 0-1.305-.346 3.09 3.09 0 0 0-1.281.241 3.932 3.932 0 0 0-1.183.788l-1.886 1.784c-.417.395-.734.802-.951 1.224-.218.421-.33.851-.337 1.287ZM139.367 128.142l-.028.692c-.009.199-.015.348-.017.446-.004.16.001.266.014.32a.35.35 0 0 0 .083.145l.404.426.542.573.408.432c.172.004.369.006.59.006l.683.001h.673c.216 0 .404.002.563.007.171.004.28.004.322-.001a.171.171 0 0 0 .104-.043c.018-.019.03-.035.033-.05.004-.015-.001-.032-.012-.05a.586.586 0 0 0-.053-.067l-1.121-1.184-.902-.09a19.366 19.366 0 0 0-.725-.055l-.06-.063-.032-.033a16.473 16.473 0 0 0-.052-1.442.986.986 0 0 0-.036-.19.537.537 0 0 0-.12-.164l-.592-.625-.583-.616c-.012.264-.028.535-.044.814-.018.28-.032.55-.042.811ZM135.68 140.472a.123.123 0 0 0 .035.065l.614.65.604.639.778-.734.767-.726c.133-.126.28-.268.441-.427.161-.159.333-.336.518-.534a27.857 27.857 0 0 0 1.215-1.411c.191-.238.392-.509.597-.792l.191.202c-.139.366-.28.735-.405 1.081a68.26 68.26 0 0 0-1.077 3.226 91.42 91.42 0 0 0-.595 2.037c-.062.238-.086.397-.07.477.017.081.043.14.079.178l.367.388.404.427.385.407.478-.452c.162-.153.324-.307.489-.461l1.387-1.314 1.393-1.318 1.393-1.317 1.388-1.313a.143.143 0 0 0 .049-.1.144.144 0 0 0-.044-.103l-.605-.639-.614-.649-.677.64-.592.561c-.195.185-.385.37-.568.555-.185.186-.365.378-.543.576-.178.199-.36.41-.548.635-.188.226-.381.471-.579.737-.174.234-.361.492-.556.769l-.176-.187c.085-.223.174-.448.25-.665.118-.333.231-.661.342-.987l.332-.987.341-1.024.363-1.098.398-1.22c.06-.152.098-.263.116-.334.017-.07.022-.119.013-.146a.27.27 0 0 0-.067-.1c-.131-.138-.284-.299-.456-.483l-.525-.553-.462-.489-.478.453-.478.452-1.394 1.318-1.392 1.318-1.389 1.312-1.396 1.323a.137.137 0 0 0-.039.064.13.13 0 0 0-.002.073ZM146.801 146.943l-.923-.975.591-.344c.494-.287.933-.548 1.318-.78.385-.232.724-.442 1.018-.631.184-.118.351-.231.511-.343l.2.211c-.121.153-.245.312-.374.487a46.653 46.653 0 0 0-1.533 2.195l-.403.609c-.036-.038-.067-.073-.104-.111l-.301-.318Zm.83 3.327c.399-.593.778-1.164 1.141-1.717l1.046-1.591c.332-.507.646-.989.939-1.445.293-.456.57-.881.834-1.273a.232.232 0 0 0 .034-.077.236.236 0 0 0 .001-.065.122.122 0 0 0-.039-.07l-1.058-1.118-1.147-1.213c-.206.123-.483.287-.83.489s-.739.43-1.176.682l-1.37.793-1.42.823c-.472.273-.916.531-1.332.775-.416.243-.783.456-1.101.637-.32.182-.563.324-.732.424-.037.023-.061.048-.071.076-.011.028-.013.05-.007.069a.11.11 0 0 0 .027.047l.622.658.624.659a197.46 197.46 0 0 0 1.776-1.007l1.873 1.981c-.301.463-.618.954-.969 1.499a.8.8 0 0 0-.078.146.147.147 0 0 0-.003.101.329.329 0 0 0 .071.103l.61.645c.215.227.416.438.6.634.205-.277.399-.555.583-.837.182-.281.366-.557.552-.828ZM84.456 103.286l.126.132.08.086a.14.14 0 0 0 .1.048.14.14 0 0 0 .103-.043c.019-.018.07-.065.151-.144l.294-.277c.113-.108.234-.22.36-.341l.35-.331-.044-.048a27.05 27.05 0 0 0-.103-.109l-.112-.118c-.113-.12-.18-.225-.2-.315-.019-.089 0-.226.053-.408l.506-1.906c.1-.381.195-.753.292-1.128l1.003-.15c.503-.076.972-.146 1.408-.21.435-.065.823-.127 1.162-.185.34-.058.616-.103.825-.134.191-.037.33-.063.412-.077a.629.629 0 0 0 .169-.04.35.35 0 0 0 .06-.04.128.128 0 0 0 .03-.045.092.092 0 0 0 .001-.055.148.148 0 0 0-.035-.057l-1.497-1.582a32.62 32.62 0 0 0-.92.195l-1.02.23c-.341.077-.654.148-.938.214-.174.044-.341.086-.502.124-.16.039-.313.084-.455.135a6.208 6.208 0 0 0-.87.392l-.18-.19c.467-.44.931-.88 1.394-1.318l1.63-1.541a.14.14 0 0 0 .048-.1.138.138 0 0 0-.043-.103l-.627-.663-.636-.673c-.171.16-.34.322-.508.48l-.506.479-1.838 1.738-1.838 1.74-1.838 1.739a.137.137 0 0 0-.05.1c0 .036.014.07.044.102l.636.673.628.664c.468-.444.936-.887 1.406-1.33.402-.058.803-.115 1.209-.176l.158-.023.17.18c-.084.14-.16.27-.227.395a3.85 3.85 0 0 0-.192.405c-.06.147-.117.315-.175.507-.059.193-.128.435-.21.728-.096.366-.138.67-.126.91.012.24.08.457.203.651.124.194.294.405.509.632l.17.181ZM90.668 104.537l-.923-.975.59-.344c.495-.288.934-.548 1.319-.78.385-.232.724-.443 1.018-.631.184-.118.351-.232.512-.343l.199.21c-.121.153-.245.313-.374.488a49.031 49.031 0 0 0-1.533 2.195l-.402.608c-.037-.036-.068-.072-.105-.11l-.3-.318Zm.278 4.154a35.9 35.9 0 0 1 .553-.827c.398-.593.777-1.164 1.14-1.718l1.046-1.59c.333-.507.646-.989.94-1.445.292-.457.569-.881.833-1.273a.228.228 0 0 0 .034-.077.219.219 0 0 0 .001-.065.127.127 0 0 0-.039-.071l-1.058-1.118-1.147-1.212a239.182 239.182 0 0 1-2.006 1.171c-.438.252-.894.517-1.37.793-.475.275-.948.55-1.42.822-.472.274-.916.532-1.331.776-.417.243-.784.456-1.102.637-.32.183-.562.324-.731.423-.038.024-.062.049-.072.077a.1.1 0 0 0-.006.069.123.123 0 0 0 .026.047l.622.658.624.658c.654-.365 1.235-.696 1.777-1.006l1.873 1.98c-.302.464-.62.954-.97 1.5a.776.776 0 0 0-.078.146.139.139 0 0 0-.002.101c.01.031.035.065.07.103l.61.644.6.635c.205-.277.4-.556.583-.838ZM98.735 107.621c.12.126.205.246.257.358a.82.82 0 0 1 .084.324.77.77 0 0 1-.091.302c-.052.097-.135.2-.25.308l-.652.618c-.14.132-.28.22-.424.265a.623.623 0 0 1-.428-.017 1.264 1.264 0 0 1-.438-.32 7220.14 7220.14 0 0 0-.735-.778l1.061-1.003.526-.499.355-.335.735.777Zm-4.49.046-1.407 1.331-1.468 1.389a.146.146 0 0 0-.05.101c0 .037.014.071.044.102l.636.672.628.663.436-.411.493-.467c.442-.418.857-.81 1.245-1.179l.043-.039.39.412.169.179c-.113.325-.225.651-.343.974-.167.45-.33.901-.49 1.352-.088.249-.125.47-.11.661.013.191.074.377.186.558.112.182.272.383.482.604l.202.214.175.184c.03.032.062.048.099.049a.143.143 0 0 0 .103-.043l.573-.542.583-.552-.179-.189a2.511 2.511 0 0 1-.058-.062l-.06-.062a.37.37 0 0 1-.104-.206.806.806 0 0 1 .036-.302 55.42 55.42 0 0 0 .465-1.454c.21.074.422.13.637.142.323.017.643-.04.96-.172.317-.133.621-.337.911-.612l.56-.528c.303-.287.536-.585.698-.895a2.3 2.3 0 0 0 .267-.97 2.233 2.233 0 0 0-.234-1.053c-.172-.364-.446-.746-.822-1.144l-1.228-1.298-1.228-1.299-.573.543-.582.551a.14.14 0 0 0-.05.1.136.136 0 0 0 .044.103c.104.112.21.221.313.332l-.984.932-1.408 1.331ZM107.244 114.093l-4.383-4.632-.574.542-.581.551a.142.142 0 0 0-.007.202l1.434 1.517-.928.878-1.436 1.358-1.43 1.353-1.474 1.394a.147.147 0 0 0-.049.1c0 .037.014.071.044.103a512.375 512.375 0 0 1 1.318 1.392 451.575 451.575 0 0 0 .928-.878l1.25-1.183 1.156-1.094 1.166-1.102.365-.345.388-.367.118-.113 1.533 1.621.587-.555.569-.539a.141.141 0 0 0 .049-.1.148.148 0 0 0-.043-.103ZM106.258 121.023l-.923-.976.591-.344c.493-.287.933-.547 1.317-.78a44.07 44.07 0 0 0 1.019-.631c.184-.118.351-.231.511-.342l.199.21c-.12.153-.244.313-.374.488a47.702 47.702 0 0 0-1.532 2.195l-.403.608-.105-.111-.3-.317Zm.83 3.326c.398-.592.778-1.164 1.141-1.717l1.046-1.591c.333-.506.646-.988.939-1.445.293-.456.569-.88.834-1.273a.202.202 0 0 0 .035-.142c-.002-.022-.015-.045-.039-.07a1499.22 1499.22 0 0 0-2.205-2.331 222.256 222.256 0 0 1-2.006 1.171l-1.37.793c-.475.276-.949.551-1.421.823-.471.273-.915.531-1.331.775-.416.244-.783.457-1.101.638-.32.182-.563.323-.732.423a.162.162 0 0 0-.071.076c-.011.028-.013.051-.007.069a.104.104 0 0 0 .027.048 3436.718 3436.718 0 0 1 1.246 1.316 214.03 214.03 0 0 0 1.776-1.006l1.873 1.98c-.302.463-.619.954-.969 1.499a.741.741 0 0 0-.078.146.147.147 0 0 0-.003.101.329.329 0 0 0 .071.103l.61.645.6.635c.205-.277.399-.556.582-.838.182-.281.368-.557.553-.828ZM112.602 128.79l-3.942-4.167.568-.537 3.942 4.166-.568.538ZM113.1 133.943c.485.512.967.869 1.451 1.069.483.201.944.267 1.384.2.437-.068.824-.26 1.159-.577l.236-.224c.24-.227.409-.499.503-.816.095-.317.095-.685-.002-1.102-.076-.332-.244-.699-.499-1.1l.143-.134a3.7 3.7 0 0 0 1.005.486c.399.112.764.124 1.091.034a2.04 2.04 0 0 0 .873-.492l.208-.197c.29-.274.478-.611.563-1.009.085-.398.044-.828-.121-1.295-.166-.465-.481-.945-.947-1.437-.418-.443-.839-.779-1.259-1.009-.421-.23-.773-.355-1.056-.375a.115.115 0 0 0-.064-.001.156.156 0 0 0-.075.044l-.104.098a13.61 13.61 0 0 0-.142.135l-.151.142-.138.13-.109.104.126.132c.469.106.869.249 1.196.43.328.182.672.465 1.037.85.306.322.515.633.63.931.114.298.148.574.101.828a1.201 1.201 0 0 1-.374.668l-.113.108a1.32 1.32 0 0 1-.632.338c-.239.051-.508.027-.805-.074-.3-.1-.636-.288-1.009-.563-.374-.274-.788-.652-1.242-1.132l-.119.112-.175.166-.175.166-.128.121a.133.133 0 0 0-.048.1.133.133 0 0 0 .042.102c.407.43.735.828.987 1.195.251.367.429.707.534 1.021.105.313.133.598.083.855a1.257 1.257 0 0 1-.388.681l-.132.126a1.34 1.34 0 0 1-.795.384c-.291.029-.589-.035-.899-.191-.31-.157-.62-.398-.93-.728a6.103 6.103 0 0 1-.639-.778 3.13 3.13 0 0 1-.375-.758 4.55 4.55 0 0 1-.193-.877l-.125-.133c-.025.024-.061.059-.11.103l-.16.153-.171.161-.142.135-.081.076a.243.243 0 0 0-.062.085.378.378 0 0 0-.017.115c.007.185.062.407.162.664.1.259.251.538.451.839.202.3.448.606.741.915ZM122.574 138.745c-.429.406-.841.683-1.232.832-.392.15-.759.183-1.101.099-.342-.083-.654-.273-.934-.571a1.846 1.846 0 0 1-.484-.862 1.659 1.659 0 0 1 .073-.957c.047-.14.114-.287.201-.442.088-.154.197-.31.332-.466.133-.156.285-.315.456-.476l1.8-1.703c.441-.418.859-.702 1.251-.851.39-.149.753-.181 1.086-.094.333.086.637.274.911.565.186.195.328.402.427.621.098.217.138.443.119.676a1.855 1.855 0 0 1-.128.606 2.694 2.694 0 0 1-.359.635c-.16.218-.363.442-.608.675l-1.81 1.713Zm3.836-4.115c-.086-.529-.339-1.013-.757-1.455-.425-.449-.894-.738-1.412-.865-.515-.129-1.053-.099-1.611.088-.559.188-1.11.539-1.653 1.053l-1.801 1.703a5.026 5.026 0 0 0-.922 1.15 3.367 3.367 0 0 0-.426 1.211c-.053.404-.016.799.116 1.184.131.385.354.745.67 1.079.419.443.886.728 1.403.856.516.128 1.053.098 1.611-.089.559-.187 1.11-.539 1.654-1.052l1.8-1.704c.524-.495.898-1.014 1.123-1.555.223-.541.292-1.076.205-1.604ZM129.853 143.491c.316-.006.594.031.832.111.237.08.434.203.589.367.22.233.316.467.285.699-.031.233-.176.473-.435.717l-.597.565-.672.637-.72.68-.754.714-.762.721a.137.137 0 0 0-.044.068.182.182 0 0 0 .003.069.133.133 0 0 0 .035.066l.202.213c.075.078.15.159.227.241l.207.218.47-.443.468-.444a445.06 445.06 0 0 1 1.578-1.493c.249-.235.483-.456.7-.663l.602-.569a2.27 2.27 0 0 0 .494-.646c.107-.221.158-.44.151-.655a1.637 1.637 0 0 0-.139-.622 1.893 1.893 0 0 0-.363-.546 1.893 1.893 0 0 0-.575-.416 2.003 2.003 0 0 0-.71-.182 3.872 3.872 0 0 0-.886.05l-.146-.155c.036-.056.079-.112.108-.169a1.47 1.47 0 0 0 .165-.623 1.498 1.498 0 0 0-.121-.621 1.956 1.956 0 0 0-.389-.583 1.76 1.76 0 0 0-.594-.418 2.24 2.24 0 0 0-.728-.173 4.227 4.227 0 0 0-.859.032l-.123-.13c.1-.133.191-.255.261-.351.099-.135.22-.312.36-.529a7.65 7.65 0 0 0-.134-.142l-.143-.152-.149-.156-.139-.147-.393.371-.553.525-1.327 1.254-1.322 1.251c-.438.416-.879.832-1.321 1.25a.256.256 0 0 0-.043.05.091.091 0 0 0-.015.05c0 .02.004.035.012.052a.301.301 0 0 0 .04.051l.157.166c.057.06.113.119.165.176l.162.17.152.161 1.502-1.42 1.398-1.323.537-.507c.273-.043.533-.074.766-.079.323-.007.603.031.841.111s.431.199.581.357c.143.152.23.3.26.446a.704.704 0 0 1-.059.44 1.46 1.46 0 0 1-.34.448l-.625.592-.682.644-.72.683-.753.711-.772.731c-.025.025-.041.047-.044.068a.185.185 0 0 0 .002.07.145.145 0 0 0 .036.065l.197.208.237.252.202.213 1.175-1.112 1.047-.99.896-.847.367-.349c.239-.043.47-.074.682-.079ZM137.006 146.162l.225.238a956.896 956.896 0 0 0 .452.478l.852-.807a.141.141 0 0 0 .049-.1.141.141 0 0 0-.043-.103l-.228-.241-.225-.237-.223-.237-.229-.242-.852.807a.14.14 0 0 0-.05.1.142.142 0 0 0 .043.102c.079.082.155.163.229.242ZM131.214 152.714l.294-.278.283-.268.275-.261 1.004-.949 1.029-.973 1.027-.973 1.005-.95a.122.122 0 0 0 .038-.063.144.144 0 0 0 .003-.074.143.143 0 0 0-.036-.066l-.286-.303-.315-.331-.331-.351-.327-.346a43.99 43.99 0 0 1-.309-.327l-.289.274-.289.273a.139.139 0 0 0-.04.1.144.144 0 0 0 .034.103l.18.189.184.194.183.195.17.179.144.153-.811.766-.866.819-.891.843-.867.82-.801.758a.135.135 0 0 0-.039.1c-.001.043.009.077.035.102.106.114.208.222.304.322l.305.323ZM138.532 155.6c-.384.366-.771.73-1.155 1.093l-1.156 1.095a.135.135 0 0 0-.044.067.186.186 0 0 0 .003.07.124.124 0 0 0 .036.065c.106.114.208.221.304.322.095.102.197.209.305.322l.492-.466.493-.465.919-.87.909-.86.911-.861c.201-.191.359-.398.473-.618.113-.223.183-.446.208-.673a1.477 1.477 0 0 0-.097-.69 2.028 2.028 0 0 0-.437-.672 2.384 2.384 0 0 0-.724-.528 2.718 2.718 0 0 0-.852-.236 5.087 5.087 0 0 0-.95-.007l-.134-.142.739-.699a.145.145 0 0 0 .044-.068.236.236 0 0 0 .001-.065.124.124 0 0 0-.04-.07l-.188-.199c-.066-.069-.134-.14-.201-.213l-.221-.233-.383.363-.554.525-.999.945-.991.937-.989.936-1 .946a.256.256 0 0 0-.043.05.099.099 0 0 0-.016.05c0 .019.005.035.013.052a.301.301 0 0 0 .04.051l.211.223.201.213.198.208 1.643-1.555 1.64-1.55.207-.196c.226-.004.442-.001.637.016.273.023.522.064.744.122.223.059.422.14.597.243.176.104.33.224.461.363.227.24.339.494.335.761-.006.268-.15.536-.433.805l-1.157 1.093ZM69.728 111.963l-1.297 1.019-.967-1.022c1.201-.361 3.108-.913 3.94-1.241l.002.003c-.492.352-1.102.794-1.678 1.241Zm-.258 2.117-.43-.454 3.588-2.798-.861-.909-4.962 1.395-.598.464 1.598 1.689-1.486 1.162.609.643 1.488-1.161.374.397.68-.428ZM66.644 116.528l.52.551c.71-.105 1.73-.531 2.502-1.087l-.61-.646c-.632.453-1.516.896-2.412 1.182ZM74.288 116.544l-1.312 1.027c-1.23.947-1.81 1.154-2.223.717-.43-.455-.09-1.029 1.08-1.934l1.323-1.028c1.143-.893 1.745-1.048 2.132-.64.43.457.172.945-1 1.858Zm1.61-2.379c-.804-.85-1.85-.744-3.41.48l-1.242.973c-1.625 1.247-1.987 2.254-1.108 3.185.902.956 1.912.674 3.515-.567l1.236-.967c1.538-1.2 1.862-2.202 1.008-3.104ZM77.355 119.779l-1.312 1.028c-1.23.946-1.81 1.153-2.224.717-.43-.455-.09-1.029 1.082-1.935l1.32-1.028c1.144-.892 1.746-1.048 2.133-.64.43.457.172.945-1 1.858Zm1.609-2.379c-.804-.85-1.849-.744-3.41.48l-1.241.973c-1.625 1.248-1.988 2.254-1.11 3.185.903.956 1.913.674 3.517-.567l1.236-.967c1.537-1.199 1.861-2.201 1.008-3.104ZM80.396 123.337l-1.215-1.284 2.337-1.822-.648-.684-5.698 4.443.647.685 2.695-2.102 1.214 1.282-2.696 2.102.648.686 5.7-4.443-.648-.686-2.336 1.823ZM84.49 126.104l-.124.095c-.622.491-1.072.47-1.59-.079l-.395-.417 1.858-1.451.432.457c.497.525.343.982-.182 1.395Zm.856-1.829-1.127-1.192-5.7 4.443.647.684 2.59-2.021.4.423c.534.566.405.927-.341 1.516l-.057.053c-.638.467-1.225.958-1.446 1.239l.63.667c.285-.317.857-.772 1.413-1.206l.064-.061c.808-.631.994-1.101.812-1.619.366.2.97.326 1.787-.313l.126-.096c.941-.739 1.049-1.622.202-2.517ZM89.228 128.375c-1.202.228-3.159.608-3.963.759l-.002-.004 2.697-2.095-.64-.677-5.699 4.444.64.676 1.972-1.525 1.226-.164-1.819 3.148.695.734 2.215-3.966 3.42-.546-.742-.784Z"
  />
  <path
    fill="#223B71"
    d="M44.842 86.342c.042.325-.022.665-.192 1.012-.17.346-.43.693-.792 1.04-.234.219-.467.41-.686.573-.227.162-.425.29-.602.382-.176.092-.304.148-.397.163-.028 0-.056 0-.077-.008a.144.144 0 0 1-.07-.042c-.015-.014-.043-.05-.092-.1-.043-.049-.1-.105-.163-.169-.064-.07-.129-.134-.191-.205-.07-.07-.128-.135-.177-.184-.05-.05-.078-.085-.092-.099l.12-.113a3.303 3.303 0 0 0 1.062-.53c.17-.121.353-.284.551-.475.227-.213.382-.403.474-.58.092-.184.128-.347.106-.496a.681.681 0 0 0-.198-.403l-.05-.056a.683.683 0 0 0-.36-.213.885.885 0 0 0-.474.05 2.639 2.639 0 0 0-.644.36c-.24.185-.524.425-.843.73a.114.114 0 0 1-.077.028.088.088 0 0 1-.071-.035c-.02-.022-.063-.064-.12-.128-.063-.063-.134-.142-.212-.226a5.06 5.06 0 0 1-.212-.227l-.12-.12c.36-.34.635-.63.827-.878.198-.24.325-.445.39-.615.07-.17.084-.319.05-.44a.823.823 0 0 0-.192-.324l-.03-.036a.682.682 0 0 0-.345-.198c-.134-.029-.283 0-.46.07-.17.079-.36.213-.574.411-.269.262-.48.489-.623.694a3.72 3.72 0 0 0-.374.728l-.128.114a.727.727 0 0 0-.091-.1c-.043-.049-.093-.098-.156-.169-.063-.064-.12-.128-.184-.191-.064-.064-.113-.12-.163-.17-.05-.05-.078-.085-.091-.1a.252.252 0 0 1-.043-.07.083.083 0 0 1 .007-.07c.036-.135.148-.348.332-.63.183-.29.439-.58.758-.885.354-.333.692-.573 1.032-.708.34-.14.66-.198.95-.155.296.035.55.17.77.403l.128.127c.198.213.317.425.381.659.056.226.043.481-.05.75-.07.212-.204.446-.368.7l.128.135c.276-.177.53-.305.757-.368.29-.078.545-.092.772-.036.22.064.41.178.573.347l.19.198c.242.262.39.552.426.878ZM49.53 82.768c-.007.007-.078.071-.191.184-.12.106-.269.255-.453.425-.184.177-.389.368-.608.58-.227.206-.446.418-.665.623-.22.212-.425.403-.61.573-.183.177-.339.325-.452.432-.12.113-.184.17-.191.176a.137.137 0 0 1-.042.029h-.05c-.014 0-.036-.014-.05-.029l-.502-.53a2.524 2.524 0 0 1-.545-.842c-.113-.29-.155-.63-.134-1.02.021-.381.106-.848.255-1.4.092-.305.148-.559.184-.764a2.74 2.74 0 0 0 .035-.496.852.852 0 0 0-.078-.325.878.878 0 0 0-.163-.227l-.05-.056a.798.798 0 0 0-.198-.156.591.591 0 0 0-.226-.064.63.63 0 0 0-.34.1c-.133.063-.29.184-.474.36-.247.241-.445.489-.58.757-.134.27-.226.574-.276.899l-.113.106c-.014-.02-.05-.05-.092-.099a3.227 3.227 0 0 0-.163-.17c-.063-.07-.127-.134-.19-.198-.057-.063-.114-.12-.156-.17a1.497 1.497 0 0 0-.085-.092c-.021-.013-.029-.035-.035-.056-.015-.021-.015-.043-.015-.064.015-.205.106-.474.27-.8.162-.325.402-.636.728-.94.262-.255.524-.446.772-.573.247-.135.487-.206.721-.227.226-.014.446.021.644.106.198.085.382.22.552.396l.156.163c.141.156.261.311.346.481.092.163.149.354.17.56.021.204.014.452-.029.728a7.14 7.14 0 0 1-.24 1.005c-.092.36-.162.665-.198.898-.036.241-.05.446-.021.61.021.169.063.317.141.438.057.099.142.19.227.29l.113-.106c.035-.057.057-.127.092-.184.07-.128.163-.255.276-.39.113-.134.269-.29.453-.466l1.26-1.19a.112.112 0 0 1 .07-.034c.028 0 .057.014.078.035.007.014.035.042.085.092.042.05.092.099.155.162.057.064.12.128.185.199.063.063.112.12.162.17.042.049.071.077.085.091ZM52.862 79.123c-.02.262-.113.524-.261.793-.149.269-.36.538-.643.8a6.275 6.275 0 0 1-.68.566c-.213.155-.404.269-.573.353-.17.085-.298.128-.396.149a.107.107 0 0 1-.071-.007.224.224 0 0 1-.05-.043c-.014-.014-.043-.05-.092-.099-.049-.05-.106-.106-.17-.177a2.744 2.744 0 0 0-.198-.205c-.064-.07-.12-.134-.17-.184-.042-.05-.07-.078-.085-.092l.12-.113c.283-.092.546-.212.8-.36.248-.156.51-.362.786-.617.29-.276.453-.544.489-.799a.786.786 0 0 0-.235-.68l-.205-.226a1.105 1.105 0 0 0-.388-.269.602.602 0 0 0-.433-.007c-.155.043-.325.149-.495.312a2.304 2.304 0 0 0-.354.424 2.043 2.043 0 0 0-.233.467l-.729.687a.162.162 0 0 1-.085.042c-.028 0-.056-.021-.078-.056a4.45 4.45 0 0 0-.24-.319l-.417-.545c-.164-.205-.333-.431-.51-.665-.177-.234-.354-.46-.531-.693-.177-.227-.34-.432-.481-.616.007-.014.063-.064.163-.155.092-.093.218-.213.367-.355.1-.091.213-.198.319-.304.063-.05.114-.099.177-.162.176-.163.354-.333.53-.503.177-.163.34-.318.496-.467.15-.141.276-.262.368-.347.091-.092.14-.141.156-.148a.09.09 0 0 1 .07-.028c.028 0 .05.014.07.035l.085.085c.044.042.093.099.142.156.057.056.113.12.17.176.057.064.106.114.15.156.041.042.07.07.084.092l-.163.148c-.098.1-.219.213-.375.355-.149.14-.305.297-.474.452-.17.163-.333.312-.481.46-.155.149-.29.269-.396.368-.008.007-.008.014-.015.021l.092.114c.113.155.241.318.382.51l.397.53c.077.099.141.19.212.276l.12-.114c.028-.127.064-.247.12-.36.114-.227.298-.453.545-.687.199-.184.397-.325.601-.417.206-.092.418-.135.623-.127.213.006.418.063.623.17.198.098.397.254.587.46l.319.332c.206.22.353.452.445.693.092.248.128.503.1.764ZM57.24 75.473c-.015.014-.049.042-.1.092-.048.05-.112.106-.176.17-.07.063-.134.127-.206.19-.07.065-.133.128-.183.17-.05.05-.085.085-.099.093-.021.02-.043.035-.071.035-.028 0-.049-.014-.07-.035-.028-.036-.092-.1-.199-.213-.098-.106-.219-.226-.354-.367-.12-.135-.247-.263-.367-.397l-2.11 1.989c-.013.013-.028.02-.041.028h-.057c-.014-.008-.028-.015-.043-.028l-.643-.68a76.56 76.56 0 0 1-.17-.743l-.17-.764c-.063-.283-.127-.573-.198-.863-.064-.297-.127-.58-.19-.85-.065-.275-.121-.516-.164-.735l-.113-.489c0-.028 0-.056.007-.07.007-.021.014-.043.029-.064.013-.014.028-.035.042-.05.021-.02.057-.05.106-.106.057-.05.12-.106.197-.177.072-.07.142-.141.213-.205.071-.07.142-.134.191-.183.057-.057.092-.086.107-.1l.113.12c.063.298.12.602.177.906.064.312.12.623.184.941.056.312.12.63.177.955l.19.991c.035.227.085.46.128.694l.134.134c.05-.1.099-.205.163-.29.106-.156.234-.311.374-.467.142-.156.313-.325.503-.51l.17-.162c-.035-.05-.063-.1-.106-.156a9.384 9.384 0 0 0-.248-.36 4.366 4.366 0 0 0-.227-.32c-.063-.099-.12-.17-.148-.211.015-.022.056-.057.113-.107.057-.056.12-.113.185-.176.064-.064.127-.12.184-.178.056-.056.098-.092.113-.106.02-.02.036-.028.049-.028h.05c.014 0 .028.014.042.028l.807.85.382-.361a.061.061 0 0 1 .049-.029h.043a.112.112 0 0 1 .05.029c.014.014.042.05.084.091.05.05.1.1.149.163.056.057.113.114.17.177.056.057.113.114.155.163.043.042.071.078.085.085l-.46.438.368.383c.028.028.071.077.135.141.057.064.12.127.19.205.072.071.136.142.192.199.057.063.092.099.114.12ZM59.891 71.468c-.056.233-.233.488-.53.771a2.354 2.354 0 0 1-.524.39.793.793 0 0 1-.474.091.787.787 0 0 1-.425-.247.907.907 0 0 1-.247-.482 1.28 1.28 0 0 1 .063-.587c.05-.149.135-.326.24-.502l.525-.227c.19-.085.346-.134.48-.149a.677.677 0 0 1 .362.05c.105.043.212.12.317.227.199.212.27.431.213.665Zm-2.823-1.21c-.184.07-.34.12-.467.134a.55.55 0 0 1-.34-.035 1.128 1.128 0 0 1-.31-.248.787.787 0 0 1-.213-.39.743.743 0 0 1 .049-.438c.072-.156.184-.311.353-.474a1.68 1.68 0 0 1 .419-.311.91.91 0 0 1 .34-.085c.105 0 .197.021.275.064.084.05.163.113.24.198l.093.092c.156.17.218.389.19.665-.021.198-.105.417-.211.644l-.418.184Zm3.516-.057-.141-.149a2.04 2.04 0 0 0-.468-.382 1.267 1.267 0 0 0-.487-.176 1.782 1.782 0 0 0-.545.02c-.128.03-.276.071-.431.128l-.12-.127c.07-.128.127-.262.155-.39.05-.212.05-.424-.014-.63a1.364 1.364 0 0 0-.34-.58l-.079-.077a1.625 1.625 0 0 0-.82-.489 1.661 1.661 0 0 0-.94.064c-.32.12-.637.318-.95.616-.325.304-.544.622-.664.948-.127.332-.156.65-.099.955.056.304.191.58.418.814l.127.134c.212.227.424.383.622.474.199.092.417.12.65.092.15-.013.32-.063.497-.12l.134.142c-.12.177-.212.36-.248.53-.057.248-.042.482.028.694.079.22.2.425.376.608l.085.085c.226.24.495.39.8.432.303.05.622.007.969-.134.339-.135.672-.355.998-.666.346-.325.587-.658.735-1.004.149-.34.205-.673.156-.984a1.46 1.46 0 0 0-.404-.828ZM63.682 67.936a1.016 1.016 0 0 1-.31.502.94.94 0 0 1-.412.248.81.81 0 0 1-.43.014c-.079-.014-.163-.057-.263-.106-.064-.043-.134-.1-.212-.156.007-.1.015-.205.02-.304.008-.227.015-.453.015-.68.007-.226.007-.467.015-.707.007-.177 0-.333-.008-.467a3.407 3.407 0 0 0-.063-.404c-.021-.07-.057-.148-.078-.219l.141-.141 1.055 1.11c.24.255.403.489.481.708a.948.948 0 0 1 .05.602Zm-2.243-.078-1.018-1.076a2.424 2.424 0 0 1-.502-.707c-.085-.213-.107-.41-.057-.588a.979.979 0 0 1 .31-.488c.107-.106.227-.191.348-.24a.643.643 0 0 1 .36-.064.877.877 0 0 1 .305.078c.099.042.205.106.304.184-.007.205-.014.417-.014.616-.007.31-.015.629-.02.962a3.67 3.67 0 0 0 0 .573c.005.148.027.29.056.417.02.064.049.135.07.206l-.142.127Zm3.276-.828c-.127-.41-.374-.8-.735-1.189l-1.21-1.273c-.362-.383-.744-.651-1.133-.807-.396-.149-.785-.191-1.16-.114-.375.071-.722.262-1.04.567-.311.297-.524.63-.623.997-.1.375-.092.764.036 1.168.127.403.374.8.743 1.189l1.21 1.273c.269.29.551.51.841.673.284.155.58.247.871.268.298.029.58-.007.856-.106.276-.099.531-.254.764-.48.311-.291.517-.63.623-.999a2.055 2.055 0 0 0-.043-1.167ZM69.706 63.684c-.014.006-.077.07-.198.184-.113.113-.27.254-.453.424-.184.177-.382.368-.608.58-.22.206-.439.418-.659.623-.22.212-.425.403-.608.58-.191.17-.34.318-.453.425-.12.113-.184.17-.19.176a.116.116 0 0 1-.05.029c-.014 0-.029.007-.05 0-.014 0-.029-.014-.043-.029l-.502-.53a2.573 2.573 0 0 1-.545-.835 2.468 2.468 0 0 1-.134-1.02c.021-.388.106-.855.254-1.407.093-.304.15-.56.177-.757.036-.206.05-.375.043-.503a.848.848 0 0 0-.078-.325.87.87 0 0 0-.163-.226l-.05-.057a.795.795 0 0 0-.198-.156.627.627 0 0 0-.225-.063.63.63 0 0 0-.34.099 2.43 2.43 0 0 0-.475.36 2.896 2.896 0 0 0-.58.765 2.987 2.987 0 0 0-.276.891l-.113.106c-.021-.02-.05-.05-.092-.099-.05-.042-.098-.106-.162-.17a5.695 5.695 0 0 0-.192-.198 2.792 2.792 0 0 1-.155-.17.408.408 0 0 1-.085-.092.116.116 0 0 1-.043-.056c-.007-.021-.007-.042-.007-.064.015-.205.1-.474.262-.8.17-.325.41-.636.736-.94.262-.255.517-.446.771-.574a1.98 1.98 0 0 1 .722-.226c.226-.014.44.021.644.106.198.085.383.22.551.396l.157.163c.14.156.261.311.346.481.092.163.149.354.17.56.021.204.015.452-.029.728a8.243 8.243 0 0 1-.24 1.005c-.099.36-.163.665-.198.906-.043.233-.05.438-.028.6.02.171.071.32.148.44.057.099.141.198.227.297l.113-.113c.028-.057.056-.128.085-.184.077-.128.17-.255.283-.39.113-.134.261-.29.453-.466l1.259-1.19c.021-.02.042-.035.07-.035.029 0 .05.015.071.036.015.014.043.042.086.092.049.05.099.106.155.162.065.064.12.128.185.199l.162.17.092.092ZM73.08 59.63c.042.319-.021.658-.192 1.005-.17.354-.43.7-.792 1.04-.234.22-.467.41-.686.573-.227.163-.424.29-.602.382-.176.093-.305.149-.396.163a.137.137 0 0 1-.078-.007.147.147 0 0 1-.07-.043l-.092-.092c-.043-.05-.1-.106-.163-.176-.064-.064-.128-.135-.191-.206l-.177-.176c-.05-.057-.079-.085-.092-.1l.12-.113c.206-.07.389-.141.559-.226.17-.078.34-.184.503-.304.17-.128.354-.284.552-.475.225-.212.382-.41.474-.587a.827.827 0 0 0 .105-.495.718.718 0 0 0-.197-.403l-.05-.05a.69.69 0 0 0-.36-.213c-.136-.035-.29-.013-.475.05-.184.057-.397.177-.637.361-.247.177-.53.417-.85.722a.113.113 0 0 1-.077.035c-.02 0-.05-.014-.071-.035l-.12-.134c-.063-.064-.134-.142-.212-.227a5.129 5.129 0 0 1-.212-.22 2.754 2.754 0 0 0-.12-.127c.36-.34.636-.63.828-.877.198-.24.325-.446.389-.615.07-.17.084-.312.05-.432a.857.857 0 0 0-.192-.333l-.03-.028a.632.632 0 0 0-.346-.198c-.133-.029-.282-.007-.459.07-.17.07-.36.206-.574.404-.269.262-.48.495-.622.7a3.799 3.799 0 0 0-.375.722l-.128.113c-.013-.014-.041-.05-.09-.099-.043-.042-.093-.099-.157-.162-.063-.064-.12-.135-.183-.199-.065-.063-.114-.12-.164-.17-.05-.049-.078-.085-.091-.092a.24.24 0 0 1-.043-.07.097.097 0 0 1 .007-.078c.036-.135.149-.347.333-.63.183-.283.438-.58.757-.884.354-.333.692-.566 1.033-.708.339-.142.658-.19.948-.156.297.043.552.177.771.404l.127.134c.199.206.326.425.382.651.057.227.043.481-.049.758a3.329 3.329 0 0 1-.368.693l.128.134c.276-.17.53-.304.756-.368.291-.078.546-.092.771-.028.22.056.411.17.574.34l.19.205c.249.255.39.552.426.877ZM76.03 56.206c-.056.226-.226.488-.523.764a2.277 2.277 0 0 1-.53.389.76.76 0 0 1-.468.092c-.156-.021-.29-.106-.424-.24a.93.93 0 0 1-.248-.482 1.158 1.158 0 0 1 .064-.587c.05-.156.134-.326.24-.51l.523-.226c.185-.078.348-.127.482-.141a.683.683 0 0 1 .361.042c.106.05.212.127.311.234.198.212.27.431.213.665Zm-2.822-1.218c-.185.071-.34.12-.461.142a.598.598 0 0 1-.34-.035c-.099-.05-.204-.134-.311-.248a.757.757 0 0 1-.219-.39.747.747 0 0 1 .056-.438c.065-.155.185-.318.355-.474.14-.148.282-.248.417-.311a.767.767 0 0 1 .34-.092c.098 0 .19.021.275.07a.986.986 0 0 1 .241.199l.092.092c.155.163.22.382.191.658-.02.198-.106.417-.22.65l-.416.178Zm3.515-.049-.133-.148a2.25 2.25 0 0 0-.467-.383 1.171 1.171 0 0 0-.496-.177 1.395 1.395 0 0 0-.537.022c-.136.02-.283.07-.432.127l-.127-.134c.07-.128.127-.255.162-.382a1.28 1.28 0 0 0-.014-.637 1.359 1.359 0 0 0-.347-.573l-.07-.085c-.249-.255-.517-.418-.821-.488a1.665 1.665 0 0 0-.941.07 2.662 2.662 0 0 0-.948.609c-.326.31-.546.623-.673.955a1.79 1.79 0 0 0-.099.955c.057.305.198.573.418.807l.134.141c.213.227.418.382.615.474.206.093.418.12.651.093a2.76 2.76 0 0 0 .502-.128l.136.141a1.82 1.82 0 0 0-.256.531c-.049.248-.041.482.036.701.071.22.198.417.368.601l.085.085c.227.248.495.39.8.439.304.05.629 0 .97-.135.338-.134.678-.36 1.004-.672.34-.318.587-.65.736-.997.148-.347.198-.673.155-.991a1.487 1.487 0 0 0-.41-.821ZM81.105 52.406a1.977 1.977 0 0 1-.262.792c-.149.27-.36.538-.644.807-.24.226-.466.41-.68.566a3.85 3.85 0 0 1-.572.346c-.17.086-.297.135-.397.149-.035.007-.055.007-.07 0l-.05-.05-.092-.091c-.049-.05-.1-.114-.17-.185-.063-.063-.127-.134-.198-.205-.063-.07-.12-.127-.17-.177-.041-.05-.07-.084-.084-.099l.12-.113c.283-.085.545-.205.8-.36.247-.15.509-.355.785-.616.29-.276.452-.538.489-.8a.786.786 0 0 0-.235-.679l-.204-.22a1.13 1.13 0 0 0-.39-.275.692.692 0 0 0-.431-.008c-.156.043-.326.15-.496.319a2.24 2.24 0 0 0-.354.425 2.14 2.14 0 0 0-.233.46l-.73.686c-.027.028-.056.042-.083.042-.029 0-.056-.014-.079-.05a6.92 6.92 0 0 0-.24-.325c-.12-.148-.255-.332-.417-.537-.163-.213-.333-.432-.51-.666a61.822 61.822 0 0 0-.53-.693c-.178-.226-.34-.439-.482-.623.007-.007.064-.056.163-.155.092-.093.219-.206.368-.354l.318-.297c.064-.057.114-.107.177-.163.177-.17.354-.34.53-.502.178-.17.34-.326.497-.468.149-.148.275-.261.367-.353.092-.085.141-.135.156-.142.02-.021.042-.035.07-.035.029 0 .05.014.071.035.015.014.043.043.085.092.043.043.092.092.142.149.056.063.112.12.17.184l.149.148c.041.043.07.078.084.092a4.833 4.833 0 0 1-.163.156c-.098.092-.218.212-.375.354-.149.141-.304.29-.474.453-.17.155-.333.31-.481.452-.155.149-.29.27-.396.376l-.015.013c.028.036.057.078.093.121.112.149.24.318.381.502.136.184.269.361.397.53.077.107.141.192.212.284l.12-.12c.029-.128.064-.24.12-.354.114-.226.298-.46.545-.693.199-.184.397-.326.602-.418.205-.092.418-.135.623-.127.212.007.417.064.622.17.198.105.397.261.588.467l.318.325c.206.22.354.453.446.7.092.241.127.496.099.758ZM84.269 49.901c-.014.015-.05.043-.106.092-.05.057-.114.113-.184.184a5.824 5.824 0 0 0-.22.205c-.078.071-.142.128-.19.178-.057.056-.092.084-.107.105a.105.105 0 0 1-.078.029c-.02 0-.049-.014-.07-.036a1.564 1.564 0 0 1-.107-.247c-.056-.156-.148-.368-.26-.658-.114-.283-.25-.644-.411-1.076-.164-.438-.362-.94-.581-1.521a6.686 6.686 0 0 1-.212-.588 5.318 5.318 0 0 1-.156-.53c-.043-.17-.07-.354-.1-.538-.005-.028-.005-.064-.005-.092l-.156-.17-.249.248c-.17.163-.338.318-.495.474-.162.149-.31.29-.453.424l-.445.425.099.1c.084.091.17.176.255.268.085.092.155.163.212.227.056.056.091.099.106.113a.728.728 0 0 0-.1.092c-.056.05-.113.106-.177.162-.07.064-.14.135-.204.198-.071.064-.134.12-.184.17-.05.05-.085.078-.1.092-.02.021-.042.036-.07.036a.134.134 0 0 1-.071-.036 5.713 5.713 0 0 1-.149-.155 38.486 38.486 0 0 0-.296-.319l-.361-.382c-.12-.127-.233-.24-.326-.34-.1-.106-.17-.183-.212-.226l3.212-3.042c.021-.015.036-.022.05-.029a.11.11 0 0 1 .05.007c.013 0 .028.007.048.029l.595.63c.008.013.036.07.085.19.05.114.113.27.198.46.079.191.163.404.255.637.099.234.198.474.298.722.098.254.19.488.274.715.093.226.178.452.263.679.092.22.177.445.268.672.092.227.184.453.277.687l.29.735ZM89.87 44.6c-.007.007-.07.071-.191.184-.12.114-.268.255-.453.425-.184.177-.389.368-.609.58-.219.205-.438.418-.664.623-.22.212-.418.403-.609.58-.184.177-.332.318-.453.425-.113.113-.177.17-.184.183a.323.323 0 0 1-.05.022.057.057 0 0 1-.048 0c-.015 0-.029-.007-.05-.029l-.503-.53a2.455 2.455 0 0 1-.537-.835 2.448 2.448 0 0 1-.142-1.019c.022-.39.114-.856.262-1.408a6.22 6.22 0 0 0 .177-.757c.035-.206.042-.375.035-.503a.89.89 0 0 0-.07-.325 1.1 1.1 0 0 0-.163-.227l-.05-.056a.949.949 0 0 0-.197-.156.633.633 0 0 0-.234-.064.749.749 0 0 0-.34.1c-.128.07-.283.19-.468.36a2.736 2.736 0 0 0-.856 1.656l-.12.106c-.013-.014-.042-.05-.092-.099-.042-.042-.098-.099-.162-.17-.064-.063-.121-.134-.185-.198-.063-.063-.113-.12-.162-.17-.043-.042-.071-.078-.085-.085a.245.245 0 0 1-.035-.063.187.187 0 0 1-.015-.057c.015-.212.106-.481.27-.807.162-.325.41-.636.728-.94.269-.255.523-.44.778-.574.248-.127.489-.205.716-.22.233-.02.445.015.644.1.205.085.388.22.559.403l.155.156c.142.156.254.311.347.481.092.163.149.354.169.56.021.212.008.452-.036.728-.041.283-.12.615-.233 1.005-.099.36-.162.665-.205.905a2.238 2.238 0 0 0-.02.609c.02.163.07.311.148.432.056.099.14.198.226.297l.113-.113c.028-.057.056-.128.085-.177.07-.128.162-.262.283-.396.113-.135.262-.29.453-.468l1.26-1.188c.02-.022.041-.036.07-.029.028 0 .05.008.07.029.015.014.043.05.085.092.043.05.1.106.157.17.057.056.12.127.183.19.064.071.12.128.163.17.042.05.071.078.085.092Z"
  />
  <path
    fill="var(--main-theme-1, #E9E9E2)"
    d="M89.227 45.209c-.184.176-.39.367-.608.58-.22.205-.439.417-.666.623-.218.212-.418.403-.608.58a16.35 16.35 0 0 1-.453.424c-.113.114-.177.17-.184.184-.014.007-.029.014-.05.021a.06.06 0 0 1-.049 0c-.015 0-.028-.007-.05-.028l-.501-.53a2.447 2.447 0 0 1-.538-.836 2.442 2.442 0 0 1-.142-1.018c.021-.39.113-.857.262-1.408.085-.305.149-.553.177-.758.034-.205.042-.374.034-.502a.887.887 0 0 0-.07-.325c-.05-.085-.1-.163-.163-.227l-.05-.056a.965.965 0 0 0-.197-.156.632.632 0 0 0-.233-.064.743.743 0 0 0-.34.1 2.66 2.66 0 0 0-.468.36 2.735 2.735 0 0 0-.856 1.656l-.12.106c-.014-.014-.042-.05-.092-.1-.042-.042-.098-.098-.162-.169-.065-.064-.121-.134-.185-.198s-.113-.12-.162-.17c-.043-.042-.071-.078-.086-.085-.014-.021-.028-.042-.034-.063a.198.198 0 0 1-.015-.057c.015-.212.107-.481.269-.807.163-.325.41-.636.728-.94.27-.256.525-.44.779-.574.248-.127.488-.205.715-.22.234-.02.446.015.644.1.206.084.39.22.559.403l.156.156c.141.156.254.31.347.48.091.163.148.355.169.56a2.9 2.9 0 0 1-.036.729c-.042.283-.12.615-.233 1.004-.099.361-.162.665-.206.906a2.267 2.267 0 0 0-.02.609c.02.162.07.31.149.431.056.1.14.199.225.297l.114-.113c.028-.056.056-.127.084-.176a2.15 2.15 0 0 1 .284-.397c.113-.134.261-.29.453-.467l1.26-1.189c.02-.02.041-.035.07-.028a.09.09 0 0 1 .07.028c.015.015.044.05.085.092.044.05.1.107.157.17.056.057.12.128.184.191.063.07.12.128.162.17.043.05.071.078.085.092-.007.007-.07.07-.191.184-.12.113-.269.255-.453.425Zm-5.059 4.783c-.05.056-.114.113-.184.184a5.056 5.056 0 0 0-.22.205c-.078.07-.141.128-.19.177-.057.056-.092.085-.107.106a.106.106 0 0 1-.078.028c-.02 0-.049-.014-.07-.035a1.522 1.522 0 0 1-.107-.248c-.057-.155-.148-.368-.261-.658-.113-.283-.248-.644-.41-1.075-.164-.439-.362-.942-.581-1.522a6.58 6.58 0 0 1-.212-.587 5.184 5.184 0 0 1-.255-1.068c-.006-.029-.006-.064-.006-.092l-.156-.17-.249.248c-.17.162-.338.318-.495.473-.162.15-.31.29-.453.425l-.445.425.099.099c.084.092.17.177.255.269.085.092.155.163.211.226.057.057.093.1.107.113a.76.76 0 0 0-.1.092c-.056.05-.112.107-.177.163-.07.063-.14.135-.205.198-.07.064-.133.12-.184.17-.05.05-.084.078-.098.092-.022.021-.043.035-.072.035a.138.138 0 0 1-.07-.035 6.066 6.066 0 0 1-.149-.156 33.205 33.205 0 0 0-.296-.318l-.361-.382c-.12-.128-.234-.24-.326-.34-.099-.106-.17-.184-.213-.226l3.213-3.043c.021-.014.036-.021.05-.028a.11.11 0 0 1 .05.007c.013 0 .028.007.048.028l.596.63c.007.014.035.07.084.191.05.113.113.269.198.46.079.19.163.403.255.637.099.233.198.474.297.722.099.254.191.488.276.714.092.226.177.453.262.68.092.219.177.445.269.672.091.226.184.453.276.686l.29.736-.106.092Zm-3.319 3.205a3.395 3.395 0 0 1-.644.807c-.241.226-.466.41-.68.566a3.834 3.834 0 0 1-.573.347c-.17.084-.296.134-.396.148-.035.007-.056.007-.07 0l-.05-.05-.092-.091c-.049-.05-.1-.114-.17-.184-.064-.064-.127-.135-.197-.205a3.92 3.92 0 0 0-.17-.177c-.042-.05-.071-.085-.086-.1l.12-.113c.284-.084.546-.205.8-.36a4.55 4.55 0 0 0 .785-.616c.291-.276.453-.538.49-.8a.784.784 0 0 0-.234-.679l-.205-.22a1.14 1.14 0 0 0-.39-.275.69.69 0 0 0-.431-.007c-.156.042-.326.148-.496.318a2.255 2.255 0 0 0-.354.425 2.18 2.18 0 0 0-.233.46l-.729.686c-.028.028-.057.043-.084.043-.029 0-.057-.015-.078-.05a6.984 6.984 0 0 0-.24-.326c-.12-.148-.256-.332-.418-.538-.164-.212-.334-.431-.51-.665-.177-.233-.354-.467-.53-.693-.178-.227-.34-.439-.482-.623.007-.006.064-.056.163-.155.092-.092.22-.206.368-.354l.319-.297c.062-.057.113-.106.177-.163.176-.17.353-.34.53-.502.177-.17.34-.326.496-.467.148-.149.274-.262.367-.354.092-.085.142-.135.155-.142.022-.021.043-.035.072-.035.028 0 .049.014.07.035a1.1 1.1 0 0 1 .085.092c.042.043.092.092.142.149.057.064.113.12.17.184l.149.148c.041.043.07.078.084.092-.008.008-.064.064-.163.156s-.219.212-.375.354c-.149.141-.304.29-.474.453-.17.155-.332.311-.48.453-.157.148-.292.268-.398.374-.006.008-.007.008-.014.015.03.035.058.078.092.12.114.148.24.319.382.503l.397.53c.078.106.141.191.213.283l.12-.12c.028-.128.064-.24.12-.354.114-.226.297-.46.544-.694.198-.183.397-.325.602-.417.206-.092.418-.134.623-.127.211.007.417.063.622.17.199.106.397.261.588.466l.319.326c.205.22.353.453.445.7.092.241.127.496.099.758a1.975 1.975 0 0 1-.262.792Zm-3.87 3.552c-.15.347-.396.68-.736.998a3.161 3.161 0 0 1-1.005.672c-.34.135-.666.184-.97.135a1.356 1.356 0 0 1-.8-.439l-.084-.085a1.615 1.615 0 0 1-.368-.601 1.304 1.304 0 0 1-.035-.7c.043-.17.134-.348.254-.532l-.134-.141a2.785 2.785 0 0 1-.503.127c-.233.028-.445 0-.65-.092a2.064 2.064 0 0 1-.616-.474l-.134-.141a1.58 1.58 0 0 1-.417-.807 1.795 1.795 0 0 1 .098-.955c.127-.333.347-.644.673-.955.303-.29.622-.496.947-.609.326-.113.638-.142.941-.07.305.07.574.233.822.488l.07.084c.17.177.29.368.347.573.057.213.064.418.014.637a1.776 1.776 0 0 1-.163.382l.127.135c.149-.056.297-.106.433-.128.19-.042.367-.05.537-.02.177.02.34.077.495.176.156.092.312.22.468.382l.134.15c.226.232.361.508.41.82.043.318-.007.644-.156.99Zm-4.09 3.885c-.17.354-.431.7-.793 1.04-.234.22-.467.41-.687.573-.226.163-.424.29-.6.382-.177.092-.305.15-.397.163a.14.14 0 0 1-.077-.007.145.145 0 0 1-.071-.042l-.093-.092c-.042-.05-.098-.107-.161-.178a4.377 4.377 0 0 1-.192-.204l-.177-.178c-.05-.056-.078-.084-.092-.099l.12-.113c.205-.07.39-.141.559-.226.17-.078.34-.184.502-.304a5.92 5.92 0 0 0 .553-.474c.226-.213.382-.41.474-.588a.832.832 0 0 0 .105-.495.716.716 0 0 0-.197-.403l-.05-.05a.686.686 0 0 0-.36-.212c-.136-.035-.291-.014-.474.05-.185.056-.397.176-.638.36-.247.177-.53.418-.849.722a.11.11 0 0 1-.077.035.112.112 0 0 1-.072-.035l-.12-.135c-.064-.063-.134-.14-.212-.226a5.557 5.557 0 0 1-.212-.22c-.064-.07-.107-.112-.12-.127.36-.34.636-.63.828-.877.198-.24.326-.446.389-.616.07-.17.085-.311.05-.431a.836.836 0 0 0-.193-.333l-.027-.028a.641.641 0 0 0-.347-.198c-.135-.029-.282-.007-.46.07-.17.071-.36.206-.573.404a5.11 5.11 0 0 0-.623.7c-.14.206-.262.446-.375.722l-.127.113c-.014-.014-.042-.05-.092-.099-.042-.042-.092-.099-.155-.163-.064-.063-.121-.134-.184-.198-.065-.063-.113-.12-.164-.17-.05-.049-.078-.084-.092-.091a.242.242 0 0 1-.041-.071.098.098 0 0 1 .007-.078c.034-.134.148-.347.332-.63.183-.283.438-.58.757-.884.354-.333.693-.566 1.033-.708.34-.141.658-.19.948-.156.297.043.552.177.771.404l.127.134c.199.206.326.425.383.651a1.35 1.35 0 0 1-.05.757 3.338 3.338 0 0 1-.368.694l.128.134c.276-.17.53-.304.756-.368.29-.078.546-.092.772-.028.22.057.41.17.574.34l.19.205c.248.254.39.552.425.877.042.319-.021.658-.191 1.005Zm-3.382 3.234c-.113.113-.27.254-.453.424-.185.177-.383.368-.609.58-.22.206-.438.418-.658.623-.219.212-.424.403-.608.58-.192.17-.34.319-.454.425-.12.113-.184.17-.19.177a.11.11 0 0 1-.05.028c-.014 0-.028.007-.05 0-.013 0-.028-.014-.042-.028l-.502-.53a2.57 2.57 0 0 1-.545-.836 2.46 2.46 0 0 1-.134-1.019c.021-.389.105-.856.254-1.408a5.1 5.1 0 0 0 .177-.757c.036-.205.05-.375.042-.502a.855.855 0 0 0-.078-.326.861.861 0 0 0-.162-.226l-.05-.057a.777.777 0 0 0-.198-.155.634.634 0 0 0-.226-.064.627.627 0 0 0-.34.099c-.134.07-.29.19-.474.36-.247.241-.446.496-.58.765a3.02 3.02 0 0 0-.276.891l-.113.107a1.99 1.99 0 0 1-.093-.1c-.049-.042-.098-.106-.161-.17-.065-.07-.129-.134-.192-.197a2.875 2.875 0 0 1-.155-.17.393.393 0 0 1-.086-.092.115.115 0 0 1-.042-.057c-.007-.021-.007-.042-.007-.063.014-.206.1-.474.262-.8.17-.326.41-.637.735-.941a3.17 3.17 0 0 1 .771-.573c.25-.128.49-.205.723-.227a1.43 1.43 0 0 1 .644.106c.197.085.382.22.551.397l.157.162c.14.156.26.312.345.482.093.162.15.353.17.558a2.84 2.84 0 0 1-.028.73 8.176 8.176 0 0 1-.24 1.004c-.099.361-.163.665-.199.906a2.067 2.067 0 0 0-.028.601c.021.17.071.319.149.439.056.099.141.198.226.297l.114-.113c.028-.057.056-.127.085-.184.077-.128.169-.255.282-.39.113-.133.262-.29.453-.466l1.26-1.19c.02-.02.043-.034.07-.034.03 0 .05.014.071.035.015.014.043.042.085.092.05.05.1.106.156.163.064.064.12.127.184.198.064.063.12.127.162.17l.092.092c-.013.007-.077.07-.197.184Zm-4.74 4.33a2.195 2.195 0 0 1-.623.998c-.235.226-.49.382-.765.481a1.95 1.95 0 0 1-.856.106 2.15 2.15 0 0 1-.871-.269 3.437 3.437 0 0 1-.841-.672l-1.21-1.273c-.369-.39-.616-.786-.744-1.19a2.06 2.06 0 0 1-.035-1.167c.099-.368.312-.7.622-.998.319-.304.666-.495 1.041-.566.374-.078.764-.035 1.16.113.39.156.771.425 1.132.807l1.21 1.274c.362.389.608.778.736 1.189.128.403.141.792.043 1.167Zm-3.928 3.814c-.15.347-.39.68-.736 1.004a3.115 3.115 0 0 1-.998.666c-.347.142-.666.184-.97.134a1.341 1.341 0 0 1-.799-.431l-.084-.085a1.687 1.687 0 0 1-.376-.609 1.28 1.28 0 0 1-.029-.693 1.55 1.55 0 0 1 .249-.53l-.135-.142a2.458 2.458 0 0 1-.496.12c-.233.028-.452 0-.65-.092a2.078 2.078 0 0 1-.623-.474l-.127-.134a1.549 1.549 0 0 1-.417-.814 1.737 1.737 0 0 1 .099-.956c.119-.325.339-.643.664-.948.311-.297.63-.495.949-.615.325-.114.643-.135.941-.064.304.07.58.233.82.488l.078.078c.17.177.284.375.34.58.064.205.064.418.014.63a1.503 1.503 0 0 1-.155.39l.12.126c.155-.056.304-.099.431-.127a1.78 1.78 0 0 1 .545-.021c.17.021.333.085.488.177.163.092.312.219.467.382l.142.149c.227.24.36.509.403.828.05.31-.006.643-.155.983Zm-3.695 3.552c-.048.05-.112.106-.176.17-.07.064-.134.127-.205.19-.07.065-.134.128-.184.17-.05.05-.085.086-.099.093-.022.02-.043.035-.071.035-.029 0-.05-.014-.07-.035-.03-.036-.092-.1-.2-.213-.097-.106-.218-.226-.353-.367-.12-.135-.247-.262-.367-.397l-2.11 1.989c-.013.014-.028.02-.041.028h-.057a.145.145 0 0 1-.043-.028l-.643-.68c-.065-.276-.121-.523-.17-.743l-.17-.764c-.064-.283-.127-.573-.199-.863-.063-.297-.127-.58-.19-.85-.064-.275-.12-.516-.163-.735-.05-.213-.085-.375-.114-.488 0-.028 0-.057.008-.071a.216.216 0 0 1 .028-.064c.014-.014.029-.035.042-.05.022-.02.057-.049.107-.105l.197-.177c.072-.071.142-.142.214-.205.07-.071.14-.135.19-.184.056-.057.092-.085.107-.1l.113.12c.064.298.12.602.177.907.063.31.12.622.183.94.057.312.121.63.178.956l.19.99c.035.227.085.46.128.694l.133.134c.05-.099.1-.205.164-.29.106-.155.234-.311.374-.467.142-.156.312-.325.503-.51l.17-.162c-.036-.05-.064-.1-.106-.156-.078-.12-.163-.24-.248-.36a4.27 4.27 0 0 0-.227-.319c-.063-.099-.12-.17-.148-.212.014-.022.056-.057.113-.106.057-.057.12-.114.185-.177.064-.064.127-.12.184-.177.057-.057.098-.092.113-.106.02-.022.035-.029.049-.029h.05c.014 0 .028.014.042.029l.807.849.382-.361a.058.058 0 0 1 .049-.028h.043a.115.115 0 0 1 .05.028c.013.014.041.05.084.092.05.05.1.099.149.162.056.057.113.114.17.177.056.057.113.114.155.163.043.043.071.078.085.085l-.46.439.368.382c.029.028.071.078.135.141.057.064.12.128.19.206.072.07.135.141.192.198.057.064.092.1.114.12-.015.014-.051.043-.1.092Zm-4.535 4.352c-.149.269-.36.538-.643.8a6.276 6.276 0 0 1-.68.565c-.212.156-.403.27-.573.354a1.68 1.68 0 0 1-.396.149.105.105 0 0 1-.072-.007.241.241 0 0 1-.048-.043c-.015-.014-.043-.05-.093-.099-.049-.05-.105-.106-.169-.177a2.772 2.772 0 0 0-.199-.205c-.063-.07-.12-.134-.17-.184a1.185 1.185 0 0 0-.085-.092l.12-.113c.284-.092.546-.212.801-.36.247-.157.51-.362.785-.616.29-.276.453-.545.489-.8a.787.787 0 0 0-.234-.68l-.205-.226a1.11 1.11 0 0 0-.389-.269.606.606 0 0 0-.432-.007 1.22 1.22 0 0 0-.496.311 2.297 2.297 0 0 0-.354.425 2.093 2.093 0 0 0-.233.467l-.728.687c-.028.028-.057.035-.085.042-.029 0-.057-.022-.079-.057a4.543 4.543 0 0 0-.24-.318l-.417-.545c-.163-.205-.334-.432-.51-.665-.177-.234-.354-.46-.53-.694-.178-.226-.34-.431-.482-.615.007-.014.064-.064.163-.156.093-.092.219-.212.368-.353.099-.093.212-.199.318-.305.064-.05.114-.099.177-.163.177-.162.354-.332.531-.502.176-.163.34-.319.495-.467.15-.142.276-.262.368-.347.092-.092.142-.141.156-.148a.091.091 0 0 1 .071-.029c.028 0 .05.015.07.036l.085.085c.043.042.092.099.141.156.058.056.114.12.17.176.058.064.106.113.15.156.041.043.07.07.084.092-.007.007-.064.056-.163.148a9.799 9.799 0 0 1-.375.354c-.148.142-.304.297-.474.453-.169.163-.333.311-.481.46-.155.149-.29.27-.396.368-.007.007-.007.014-.015.021l.092.114c.114.155.241.318.382.509.135.184.27.36.398.53.077.1.14.192.212.276l.12-.113c.028-.127.063-.247.12-.36.114-.227.297-.453.545-.687.198-.184.396-.326.602-.417.205-.092.416-.135.622-.128.212.008.417.064.622.17.2.099.397.255.588.46l.319.333c.205.219.354.453.445.693.092.248.127.502.099.765a1.96 1.96 0 0 1-.262.792ZM49.34 82.95c-.121.106-.27.255-.454.425-.184.177-.389.368-.607.58-.227.205-.447.418-.666.623-.22.212-.424.403-.61.573-.183.177-.338.325-.452.431-.12.114-.183.17-.19.178a.155.155 0 0 1-.043.028h-.05c-.013 0-.035-.014-.049-.028l-.502-.531a2.507 2.507 0 0 1-.546-.842c-.113-.29-.154-.63-.133-1.019.02-.382.105-.85.254-1.401a6.39 6.39 0 0 0 .183-.764c.029-.198.043-.368.037-.496a.863.863 0 0 0-.08-.325.857.857 0 0 0-.161-.227l-.05-.056a.779.779 0 0 0-.198-.156.606.606 0 0 0-.227-.064.634.634 0 0 0-.34.1c-.134.063-.29.183-.473.36-.248.24-.446.488-.58.758a3.011 3.011 0 0 0-.276.898l-.114.106c-.014-.021-.05-.05-.091-.099-.044-.05-.1-.106-.164-.17-.063-.07-.127-.134-.19-.198-.057-.064-.114-.12-.156-.17-.043-.05-.071-.077-.084-.092-.022-.014-.029-.035-.037-.056-.013-.021-.013-.043-.013-.064.013-.205.106-.474.268-.8.164-.325.404-.636.73-.94.261-.255.523-.446.77-.574a1.86 1.86 0 0 1 .722-.226 1.41 1.41 0 0 1 .644.106c.198.085.382.22.552.396l.155.163c.142.156.263.311.347.481.092.163.149.354.17.56a2.94 2.94 0 0 1-.028.728c-.043.276-.12.616-.24 1.005-.092.36-.164.665-.2.898-.034.24-.049.446-.02.609.02.17.064.318.141.438.057.1.142.192.227.29l.113-.105c.036-.057.057-.128.093-.184.07-.128.161-.255.275-.39.113-.134.269-.29.453-.467l1.26-1.188c.021-.022.05-.036.07-.036.029 0 .056.014.078.036a.639.639 0 0 0 .085.092c.043.05.091.099.155.163.057.063.12.127.185.197.064.064.113.12.162.17.044.05.072.078.085.092-.007.007-.078.071-.19.184Zm-4.692 4.402c-.17.346-.431.693-.792 1.04-.233.22-.468.41-.687.573-.226.163-.424.29-.6.382-.178.092-.305.148-.398.163-.028 0-.057 0-.077-.007a.153.153 0 0 1-.071-.043c-.014-.014-.043-.05-.092-.1a3.154 3.154 0 0 0-.163-.169c-.063-.07-.128-.134-.191-.205-.07-.07-.128-.134-.177-.184-.049-.05-.077-.085-.092-.1l.12-.112c.205-.064.39-.135.56-.22a3.2 3.2 0 0 0 .501-.31c.17-.121.354-.284.553-.475.226-.212.382-.403.474-.58.092-.184.127-.347.106-.496a.684.684 0 0 0-.198-.403l-.05-.056a.676.676 0 0 0-.361-.213.877.877 0 0 0-.473.05 2.651 2.651 0 0 0-.645.36c-.24.185-.523.425-.842.73a.114.114 0 0 1-.077.028.087.087 0 0 1-.072-.035c-.02-.022-.063-.064-.12-.128-.063-.064-.134-.142-.212-.227-.085-.084-.155-.162-.212-.226l-.12-.12c.36-.34.636-.63.828-.877.198-.241.325-.446.389-.616.071-.17.084-.318.05-.439a.81.81 0 0 0-.192-.325l-.028-.036a.69.69 0 0 0-.346-.198c-.136-.028-.284 0-.461.071-.17.078-.36.212-.572.41-.27.262-.482.489-.624.694-.14.212-.269.452-.374.729l-.128.113c-.014-.021-.043-.05-.092-.1-.042-.049-.092-.098-.156-.17-.063-.063-.12-.126-.183-.19-.064-.064-.114-.12-.163-.17-.05-.05-.078-.085-.093-.1a.244.244 0 0 1-.042-.07c-.007-.021-.007-.042.007-.07.035-.135.148-.347.333-.63.184-.29.438-.58.757-.885.353-.332.693-.573 1.033-.707.34-.142.658-.198.948-.156.297.035.552.17.772.403l.127.128c.198.212.318.424.383.658.055.226.04.48-.05.75-.072.212-.206.445-.369.7l.129.135c.275-.177.53-.305.755-.368.29-.078.546-.092.773-.036.218.064.41.177.572.347l.191.198c.241.262.39.552.425.878.042.325-.021.665-.191 1.012ZM34.417 74.432c-1.649-1.826-3.566-2.986-3.34-5.83.156-1.968-.367-4.048-.87-6.008-.772-3.028-1.125-5.993.162-8.972a.461.461 0 0 0 .036-.163c0-.333-.417-.552-.693-.297l-4.72 4.472c-.113.106-.156.269-.113.41.311 1.076.198 1.217-1.74 2.618a.42.42 0 0 1-.546-.05l-3.134-3.31a.415.415 0 0 1 0-.567c2.852-3.021 5.625-6.078 8.547-8.986 2.407-2.392 2.49-1.84 5.442-.184 3.517 1.974 3.574 5.342 2.412 8.944-.955 2.965-1.471 5.087-1.917 8.222-.013.184-.029.439-.042.693-.022.319.41.44.56.163.6-1.068 1.159-2.158 1.803-3.198.828-1.345 2.35-3.46 3.375-4.642 1.323-1.521 2.803-1.415 4.153.057.991 1.075 1.983 2.157 2.966 3.247.05.057.063.15.126.375a.404.404 0 0 1-.091.397c-3.545 3.835-7.932 8.477-11.76 12.616a.412.412 0 0 1-.616-.007Zm-1.16-31.013 11.569-10.947a1.095 1.095 0 0 1 1.648.163c.426.608.85 1.21 1.26 1.804.283.396.261.927-.042 1.31-1.572 1.945-3.149 3.898-4.748 5.88a1.1 1.1 0 0 0 .127 1.507c.898.799 1.762 1.563 2.704 2.398.509.453 1.301.333 1.662-.248 1.394-2.285 4.175-5.865 5.626-8.243a1.1 1.1 0 0 1 1.726-.177l1.875 1.989c.396.417.404 1.068.007 1.492-1.96 2.102-5.746 5.923-7.657 7.99a1.09 1.09 0 0 0-.099 1.358c.383.566.764 1.118 1.133 1.655.346.517 1.054.63 1.556.262 3.064-2.293 7.997-6.375 10.458-8.13.213.064.348.064.425.135 2.746 2.526-.282 5.505-3.192 7.776-1.47 1.146-2.794 2.476-4.173 3.743-1.253 1.146-2.463 2.35-3.736 3.467-1.982 1.734-1.961 1.663-4.069.085-2.548-1.91-3.715-4.953-4.14-8.265-.368-2.936-3.453-3.212-5.816-4.252-.099-.042-.254-.092-.326-.05-1.98 1.28-2.816-.106-3.828-1.153a1.09 1.09 0 0 1 .05-1.55Zm14.738-15.582c5.16-1.691 7.706-6.29 11.506-9.524a.66.66 0 0 1 .906.057l2.363 2.498c.22.233.24.601.042.863-.856 1.104-1.697 2.193-2.54 3.283-.708.913-.658 1.769-.127 2.816 1.493 2.916 3.743 4.996 6.46 6.772 1.784 1.167 3.376 2.632 5.209 4.154a.674.674 0 0 1-.015 1.032c-1.315 1.069-2.349 1.932-3.46 2.71-.234.163-.935-.077-1.253-.34-2.477-2.03-4.967-4.047-7.352-6.19-1.323-1.197-2.49-2.562-3.792-3.97a.665.665 0 0 0-.828-.113c-.864.51-1.79 1.09-2.787 1.514-.46.191-1.394.078-1.656-.255-1.013-1.26-1.89-2.618-3.03-4.295a.67.67 0 0 1 .354-1.012ZM59.962.984a1.275 1.275 0 0 0-1.805-.049L.955 55.044a1.281 1.281 0 0 0-.049 1.804L42.98 101.32l59.049-55.864L59.961.984Z"
  />
  <path
    fill="var(--main-theme-1, #E9E9E2)"
    d="M59.892 71.468c-.056.233-.233.488-.53.771a2.346 2.346 0 0 1-.524.39.794.794 0 0 1-.474.091.787.787 0 0 1-.425-.247.907.907 0 0 1-.248-.482 1.282 1.282 0 0 1 .063-.587c.05-.148.136-.326.241-.502l.525-.227c.19-.085.346-.134.48-.148a.677.677 0 0 1 .362.05c.105.042.212.12.317.226.198.212.27.431.213.665ZM57.704 69.43c-.02.198-.105.418-.212.644l-.417.184c-.183.07-.34.12-.468.135a.543.543 0 0 1-.34-.036 1.123 1.123 0 0 1-.31-.248.791.791 0 0 1-.213-.389.747.747 0 0 1 .05-.438c.07-.156.185-.312.354-.474.148-.142.283-.248.418-.312a.902.902 0 0 1 .339-.085c.107 0 .198.021.276.064.085.05.163.113.241.198l.091.092c.156.17.22.39.191.665ZM63.69 67.936a1.016 1.016 0 0 1-.31.503.94.94 0 0 1-.411.248.81.81 0 0 1-.431.014c-.079-.014-.163-.057-.263-.106-.063-.043-.133-.1-.212-.156l.021-.304c.008-.227.014-.453.014-.68.008-.226.008-.467.016-.707a4.81 4.81 0 0 0-.008-.467 3.428 3.428 0 0 0-.064-.404c-.02-.07-.057-.148-.077-.219l.14-.141 1.055 1.11c.24.255.403.489.482.708a.948.948 0 0 1 .049.602ZM61.585 67.731l-.141.128-1.02-1.076a2.433 2.433 0 0 1-.501-.708c-.085-.212-.106-.41-.057-.587a.973.973 0 0 1 .311-.488c.106-.106.227-.191.347-.24a.643.643 0 0 1 .361-.064.874.874 0 0 1 .304.077c.099.043.205.107.304.184-.007.206-.014.418-.014.616l-.021.963a3.91 3.91 0 0 0 0 .573c.007.148.028.29.057.417.02.064.049.135.07.205ZM73.85 54.16c-.02.199-.106.418-.22.652l-.416.176c-.184.071-.34.12-.461.142a.6.6 0 0 1-.34-.035 1.171 1.171 0 0 1-.31-.248.752.752 0 0 1-.22-.39.749.749 0 0 1 .057-.438c.064-.156.184-.319.354-.474.141-.149.282-.248.417-.311a.761.761 0 0 1 .34-.092c.099 0 .191.02.276.07.078.043.162.114.24.199l.092.091c.155.163.22.383.191.658ZM76.036 56.205c-.057.227-.227.488-.524.764a2.274 2.274 0 0 1-.53.39.76.76 0 0 1-.468.091c-.156-.02-.29-.105-.424-.24a.93.93 0 0 1-.248-.481 1.157 1.157 0 0 1 .064-.587c.05-.156.134-.326.24-.51l.523-.226c.184-.078.348-.127.482-.142a.683.683 0 0 1 .361.043c.106.05.212.127.311.233.198.213.27.432.213.665Z"
  />
</svg>
